<?xml version="1.0" encoding="utf-8" standalone="no"?>
<!DOCTYPE svg PUBLIC "-//W3C//DTD SVG 1.1//EN"
  "http://www.w3.org/Graphics/SVG/1.1/DTD/svg11.dtd">
<svg xmlns:xlink="http://www.w3.org/1999/xlink" width="288pt" height="288pt" viewBox="0 0 288 288" xmlns="http://www.w3.org/2000/svg" version="1.1">
 <metadata>
  <rdf:RDF xmlns:dc="http://purl.org/dc/elements/1.1/" xmlns:cc="http://creativecommons.org/ns#" xmlns:rdf="http://www.w3.org/1999/02/22-rdf-syntax-ns#">
   <cc:Work>
    <dc:type rdf:resource="http://purl.org/dc/dcmitype/StillImage"/>
    <dc:date>2025-05-14T12:55:45.030642</dc:date>
    <dc:format>image/svg+xml</dc:format>
    <dc:creator>
     <cc:Agent>
      <dc:title>Matplotlib v3.10.1, https://matplotlib.org/</dc:title>
     </cc:Agent>
    </dc:creator>
   </cc:Work>
  </rdf:RDF>
 </metadata>
 <defs>
  <style type="text/css">*{stroke-linejoin: round; stroke-linecap: butt}</style>
 </defs>
 <g id="figure_1">
  <g id="patch_1">
   <path d="M 0 288 
L 288 288 
L 288 0 
L 0 0 
z
" style="fill: #ffffff"/>
  </g>
  <g id="axes_1">
   <g id="LineCollection_1">
    <path d="M 229.741668 129.258373 
L 211.177323 158.807802 
" clip-path="url(#pd86ced745b)" style="fill: none; stroke: #000000; stroke-width: 1.2"/>
    <path d="M 151.121494 147.51385 
L 123.856356 126.142206 
" clip-path="url(#pd86ced745b)" style="fill: none; stroke: #000000; stroke-width: 1.2"/>
    <path d="M 151.121494 147.51385 
L 177.166366 168.172032 
" clip-path="url(#pd86ced745b)" style="fill: none; stroke: #000000; stroke-width: 1.2"/>
    <path d="M 151.121494 147.51385 
L 128.491197 151.904428 
" clip-path="url(#pd86ced745b)" style="fill: none; stroke: #000000; stroke-width: 1.2"/>
    <path d="M 151.121494 147.51385 
L 146.683211 121.762417 
" clip-path="url(#pd86ced745b)" style="fill: none; stroke: #000000; stroke-width: 1.2"/>
    <path d="M 128.491197 151.904428 
L 123.856356 126.142206 
" clip-path="url(#pd86ced745b)" style="fill: none; stroke: #000000; stroke-width: 1.2"/>
    <path d="M 128.491197 151.904428 
L 107.262753 130.704473 
" clip-path="url(#pd86ced745b)" style="fill: none; stroke: #000000; stroke-width: 1.2"/>
    <path d="M 146.683211 121.762417 
L 123.856356 126.142206 
" clip-path="url(#pd86ced745b)" style="fill: none; stroke: #000000; stroke-width: 1.2"/>
    <path d="M 146.683211 121.762417 
L 121.428925 107.175755 
" clip-path="url(#pd86ced745b)" style="fill: none; stroke: #000000; stroke-width: 1.2"/>
    <path d="M 193.038132 148.732781 
L 177.166366 168.172032 
" clip-path="url(#pd86ced745b)" style="fill: none; stroke: #000000; stroke-width: 1.2"/>
    <path d="M 130.422617 93.975386 
L 149.06361 64.305105 
" clip-path="url(#pd86ced745b)" style="fill: none; stroke: #000000; stroke-width: 1.2"/>
    <path d="M 130.422617 93.975386 
L 123.856356 126.142206 
" clip-path="url(#pd86ced745b)" style="fill: none; stroke: #000000; stroke-width: 1.2"/>
    <path d="M 130.422617 93.975386 
L 94.699262 103.935558 
" clip-path="url(#pd86ced745b)" style="fill: none; stroke: #000000; stroke-width: 1.2"/>
    <path d="M 114.203434 53.803636 
L 117.501555 84.323695 
" clip-path="url(#pd86ced745b)" style="fill: none; stroke: #000000; stroke-width: 1.2"/>
    <path d="M 114.203434 53.803636 
L 84.269043 70.193366 
" clip-path="url(#pd86ced745b)" style="fill: none; stroke: #000000; stroke-width: 1.2"/>
    <path d="M 121.428925 107.175755 
L 123.856356 126.142206 
" clip-path="url(#pd86ced745b)" style="fill: none; stroke: #000000; stroke-width: 1.2"/>
    <path d="M 121.428925 107.175755 
L 94.699262 103.935558 
" clip-path="url(#pd86ced745b)" style="fill: none; stroke: #000000; stroke-width: 1.2"/>
    <path d="M 55.368595 126.931079 
L 86.836194 134.770916 
" clip-path="url(#pd86ced745b)" style="fill: none; stroke: #000000; stroke-width: 1.2"/>
    <path d="M 55.368595 126.931079 
L 62.848461 105.41643 
" clip-path="url(#pd86ced745b)" style="fill: none; stroke: #000000; stroke-width: 1.2"/>
    <path d="M 86.836194 134.770916 
L 123.856356 126.142206 
" clip-path="url(#pd86ced745b)" style="fill: none; stroke: #000000; stroke-width: 1.2"/>
    <path d="M 86.836194 134.770916 
L 60.282218 142.583125 
" clip-path="url(#pd86ced745b)" style="fill: none; stroke: #000000; stroke-width: 1.2"/>
    <path d="M 123.856356 126.142206 
L 117.501555 84.323695 
" clip-path="url(#pd86ced745b)" style="fill: none; stroke: #000000; stroke-width: 1.2"/>
    <path d="M 123.856356 126.142206 
L 99.622037 144.800138 
" clip-path="url(#pd86ced745b)" style="fill: none; stroke: #000000; stroke-width: 1.2"/>
    <path d="M 123.856356 126.142206 
L 107.262753 130.704473 
" clip-path="url(#pd86ced745b)" style="fill: none; stroke: #000000; stroke-width: 1.2"/>
    <path d="M 99.402756 54.44625 
L 117.501555 84.323695 
" clip-path="url(#pd86ced745b)" style="fill: none; stroke: #000000; stroke-width: 1.2"/>
    <path d="M 99.402756 54.44625 
L 84.269043 70.193366 
" clip-path="url(#pd86ced745b)" style="fill: none; stroke: #000000; stroke-width: 1.2"/>
    <path d="M 84.269043 70.193366 
L 94.699262 103.935558 
" clip-path="url(#pd86ced745b)" style="fill: none; stroke: #000000; stroke-width: 1.2"/>
    <path d="M 82.039207 175.16132 
L 99.622037 144.800138 
" clip-path="url(#pd86ced745b)" style="fill: none; stroke: #000000; stroke-width: 1.2"/>
    <path d="M 60.282218 142.583125 
L 62.848461 105.41643 
" clip-path="url(#pd86ced745b)" style="fill: none; stroke: #000000; stroke-width: 1.2"/>
    <path d="M 94.699262 103.935558 
L 99.622037 144.800138 
" clip-path="url(#pd86ced745b)" style="fill: none; stroke: #000000; stroke-width: 1.2"/>
    <path d="M 94.699262 103.935558 
L 107.262753 130.704473 
" clip-path="url(#pd86ced745b)" style="fill: none; stroke: #000000; stroke-width: 1.2"/>
    <path d="M 94.699262 103.935558 
L 62.848461 105.41643 
" clip-path="url(#pd86ced745b)" style="fill: none; stroke: #000000; stroke-width: 1.2"/>
    <path d="M 177.166366 168.172032 
L 176.742611 204.575028 
" clip-path="url(#pd86ced745b)" style="fill: none; stroke: #000000; stroke-width: 1.2"/>
    <path d="M 177.166366 168.172032 
L 211.177323 158.807802 
" clip-path="url(#pd86ced745b)" style="fill: none; stroke: #000000; stroke-width: 1.2"/>
    <path d="M 176.742611 204.575028 
L 158.795122 232.669583 
" clip-path="url(#pd86ced745b)" style="fill: none; stroke: #000000; stroke-width: 1.2"/>
    <path d="M 176.742611 204.575028 
L 180.885084 237.076364 
" clip-path="url(#pd86ced745b)" style="fill: none; stroke: #000000; stroke-width: 1.2"/>
    <path d="M 176.742611 204.575028 
L 201.564401 223.049885 
" clip-path="url(#pd86ced745b)" style="fill: none; stroke: #000000; stroke-width: 1.2"/>
    <path d="M 211.177323 158.807802 
L 232.155614 181.831853 
" clip-path="url(#pd86ced745b)" style="fill: none; stroke: #000000; stroke-width: 1.2"/>
    <path d="M 211.177323 158.807802 
L 239.831405 153.530244 
" clip-path="url(#pd86ced745b)" style="fill: none; stroke: #000000; stroke-width: 1.2"/>
   </g>
   <g id="PathCollection_1">
    <defs>
     <path id="C0_0_60ff5b18af" d="M 0 8.944272 
C 2.372049 8.944272 4.647264 8.001847 6.324555 6.324555 
C 8.001847 4.647264 8.944272 2.372049 8.944272 -0 
C 8.944272 -2.372049 8.001847 -4.647264 6.324555 -6.324555 
C 4.647264 -8.001847 2.372049 -8.944272 0 -8.944272 
C -2.372049 -8.944272 -4.647264 -8.001847 -6.324555 -6.324555 
C -8.001847 -4.647264 -8.944272 -2.372049 -8.944272 0 
C -8.944272 2.372049 -8.001847 4.647264 -6.324555 6.324555 
C -4.647264 8.001847 -2.372049 8.944272 0 8.944272 
z
"/>
    </defs>
    <g clip-path="url(#pd86ced745b)">
     <use xlink:href="#C0_0_60ff5b18af" x="229.741668" y="129.258373" style="fill: #bfbfbf; stroke: #bfbfbf; stroke-width: 0.5"/>
    </g>
    <g clip-path="url(#pd86ced745b)">
     <use xlink:href="#C0_0_60ff5b18af" x="151.121494" y="147.51385" style="fill: #0d0dff; stroke: #0d0dff; stroke-width: 0.5"/>
    </g>
    <g clip-path="url(#pd86ced745b)">
     <use xlink:href="#C0_0_60ff5b18af" x="128.491197" y="151.904428" style="fill: #bfbfbf; stroke: #bfbfbf; stroke-width: 0.5"/>
    </g>
    <g clip-path="url(#pd86ced745b)">
     <use xlink:href="#C0_0_60ff5b18af" x="146.683211" y="121.762417" style="fill: #bfbfbf; stroke: #bfbfbf; stroke-width: 0.5"/>
    </g>
    <g clip-path="url(#pd86ced745b)">
     <use xlink:href="#C0_0_60ff5b18af" x="193.038132" y="148.732781" style="fill: #bfbfbf; stroke: #bfbfbf; stroke-width: 0.5"/>
    </g>
    <g clip-path="url(#pd86ced745b)">
     <use xlink:href="#C0_0_60ff5b18af" x="130.422617" y="93.975386" style="fill: #ff0d0d; stroke: #ff0d0d; stroke-width: 0.5"/>
    </g>
    <g clip-path="url(#pd86ced745b)">
     <use xlink:href="#C0_0_60ff5b18af" x="114.203434" y="53.803636" style="fill: #248f8f; stroke: #248f8f; stroke-width: 0.5"/>
    </g>
    <g clip-path="url(#pd86ced745b)">
     <use xlink:href="#C0_0_60ff5b18af" x="121.428925" y="107.175755" style="fill: #ff0d0d; stroke: #ff0d0d; stroke-width: 0.5"/>
    </g>
    <g clip-path="url(#pd86ced745b)">
     <use xlink:href="#C0_0_60ff5b18af" x="149.06361" y="64.305105" style="fill: #248f8f; stroke: #248f8f; stroke-width: 0.5"/>
    </g>
    <g clip-path="url(#pd86ced745b)">
     <use xlink:href="#C0_0_60ff5b18af" x="55.368595" y="126.931079" style="fill: #248f8f; stroke: #248f8f; stroke-width: 0.5"/>
    </g>
    <g clip-path="url(#pd86ced745b)">
     <use xlink:href="#C0_0_60ff5b18af" x="86.836194" y="134.770916" style="fill: #ff0d0d; stroke: #ff0d0d; stroke-width: 0.5"/>
    </g>
    <g clip-path="url(#pd86ced745b)">
     <use xlink:href="#C0_0_60ff5b18af" x="123.856356" y="126.142206" style="fill: #248f8f; stroke: #248f8f; stroke-width: 0.5"/>
    </g>
    <g clip-path="url(#pd86ced745b)">
     <use xlink:href="#C0_0_60ff5b18af" x="99.402756" y="54.44625" style="fill: #248f8f; stroke: #248f8f; stroke-width: 0.5"/>
    </g>
    <g clip-path="url(#pd86ced745b)">
     <use xlink:href="#C0_0_60ff5b18af" x="84.269043" y="70.193366" style="fill: #ff0d0d; stroke: #ff0d0d; stroke-width: 0.5"/>
    </g>
    <g clip-path="url(#pd86ced745b)">
     <use xlink:href="#C0_0_60ff5b18af" x="82.039207" y="175.16132" style="fill: #248f8f; stroke: #248f8f; stroke-width: 0.5"/>
    </g>
    <g clip-path="url(#pd86ced745b)">
     <use xlink:href="#C0_0_60ff5b18af" x="60.282218" y="142.583125" style="fill: #248f8f; stroke: #248f8f; stroke-width: 0.5"/>
    </g>
    <g clip-path="url(#pd86ced745b)">
     <use xlink:href="#C0_0_60ff5b18af" x="94.699262" y="103.935558" style="fill: #248f8f; stroke: #248f8f; stroke-width: 0.5"/>
    </g>
    <g clip-path="url(#pd86ced745b)">
     <use xlink:href="#C0_0_60ff5b18af" x="99.622037" y="144.800138" style="fill: #ff0d0d; stroke: #ff0d0d; stroke-width: 0.5"/>
    </g>
    <g clip-path="url(#pd86ced745b)">
     <use xlink:href="#C0_0_60ff5b18af" x="107.262753" y="130.704473" style="fill: #ff0d0d; stroke: #ff0d0d; stroke-width: 0.5"/>
    </g>
    <g clip-path="url(#pd86ced745b)">
     <use xlink:href="#C0_0_60ff5b18af" x="117.501555" y="84.323695" style="fill: #ff0d0d; stroke: #ff0d0d; stroke-width: 0.5"/>
    </g>
    <g clip-path="url(#pd86ced745b)">
     <use xlink:href="#C0_0_60ff5b18af" x="62.848461" y="105.41643" style="fill: #ff0d0d; stroke: #ff0d0d; stroke-width: 0.5"/>
    </g>
    <g clip-path="url(#pd86ced745b)">
     <use xlink:href="#C0_0_60ff5b18af" x="177.166366" y="168.172032" style="fill: #666666; stroke: #666666; stroke-width: 0.5"/>
    </g>
    <g clip-path="url(#pd86ced745b)">
     <use xlink:href="#C0_0_60ff5b18af" x="176.742611" y="204.575028" style="fill: #666666; stroke: #666666; stroke-width: 0.5"/>
    </g>
    <g clip-path="url(#pd86ced745b)">
     <use xlink:href="#C0_0_60ff5b18af" x="211.177323" y="158.807802" style="fill: #666666; stroke: #666666; stroke-width: 0.5"/>
    </g>
    <g clip-path="url(#pd86ced745b)">
     <use xlink:href="#C0_0_60ff5b18af" x="158.795122" y="232.669583" style="fill: #bfbfbf; stroke: #bfbfbf; stroke-width: 0.5"/>
    </g>
    <g clip-path="url(#pd86ced745b)">
     <use xlink:href="#C0_0_60ff5b18af" x="180.885084" y="237.076364" style="fill: #bfbfbf; stroke: #bfbfbf; stroke-width: 0.5"/>
    </g>
    <g clip-path="url(#pd86ced745b)">
     <use xlink:href="#C0_0_60ff5b18af" x="201.564401" y="223.049885" style="fill: #bfbfbf; stroke: #bfbfbf; stroke-width: 0.5"/>
    </g>
    <g clip-path="url(#pd86ced745b)">
     <use xlink:href="#C0_0_60ff5b18af" x="232.155614" y="181.831853" style="fill: #bfbfbf; stroke: #bfbfbf; stroke-width: 0.5"/>
    </g>
    <g clip-path="url(#pd86ced745b)">
     <use xlink:href="#C0_0_60ff5b18af" x="239.831405" y="153.530244" style="fill: #bfbfbf; stroke: #bfbfbf; stroke-width: 0.5"/>
    </g>
   </g>
   <g id="text_1">
    <g clip-path="url(#pd86ced745b)">
     <!-- H -->
     <g style="fill: #ffffff" transform="translate(224.720418 132.569623) scale(0.12 -0.12)">
      <defs>
       <path id="DejaVuSans-Bold-48" d="M 588 4666 
L 1791 4666 
L 1791 2888 
L 3566 2888 
L 3566 4666 
L 4769 4666 
L 4769 0 
L 3566 0 
L 3566 1978 
L 1791 1978 
L 1791 0 
L 588 0 
L 588 4666 
z
" transform="scale(0.015625)"/>
      </defs>
      <use xlink:href="#DejaVuSans-Bold-48"/>
     </g>
    </g>
   </g>
   <g id="text_2">
    <g clip-path="url(#pd86ced745b)">
     <!-- N -->
     <g style="fill: #ffffff" transform="translate(146.100244 150.8251) scale(0.12 -0.12)">
      <defs>
       <path id="DejaVuSans-Bold-4e" d="M 588 4666 
L 1931 4666 
L 3628 1466 
L 3628 4666 
L 4769 4666 
L 4769 0 
L 3425 0 
L 1728 3200 
L 1728 0 
L 588 0 
L 588 4666 
z
" transform="scale(0.015625)"/>
      </defs>
      <use xlink:href="#DejaVuSans-Bold-4e"/>
     </g>
    </g>
   </g>
   <g id="text_3">
    <g clip-path="url(#pd86ced745b)">
     <!-- H -->
     <g style="fill: #ffffff" transform="translate(123.469947 155.215678) scale(0.12 -0.12)">
      <use xlink:href="#DejaVuSans-Bold-48"/>
     </g>
    </g>
   </g>
   <g id="text_4">
    <g clip-path="url(#pd86ced745b)">
     <!-- H -->
     <g style="fill: #ffffff" transform="translate(141.661961 125.073667) scale(0.12 -0.12)">
      <use xlink:href="#DejaVuSans-Bold-48"/>
     </g>
    </g>
   </g>
   <g id="text_5">
    <g clip-path="url(#pd86ced745b)">
     <!-- H -->
     <g style="fill: #ffffff" transform="translate(188.016882 152.044031) scale(0.12 -0.12)">
      <use xlink:href="#DejaVuSans-Bold-48"/>
     </g>
    </g>
   </g>
   <g id="text_6">
    <g clip-path="url(#pd86ced745b)">
     <!-- O -->
     <g style="fill: #ffffff" transform="translate(125.321679 97.286636) scale(0.12 -0.12)">
      <defs>
       <path id="DejaVuSans-Bold-4f" d="M 2719 3878 
Q 2169 3878 1866 3472 
Q 1563 3066 1563 2328 
Q 1563 1594 1866 1187 
Q 2169 781 2719 781 
Q 3272 781 3575 1187 
Q 3878 1594 3878 2328 
Q 3878 3066 3575 3472 
Q 3272 3878 2719 3878 
z
M 2719 4750 
Q 3844 4750 4481 4106 
Q 5119 3463 5119 2328 
Q 5119 1197 4481 553 
Q 3844 -91 2719 -91 
Q 1597 -91 958 553 
Q 319 1197 319 2328 
Q 319 3463 958 4106 
Q 1597 4750 2719 4750 
z
" transform="scale(0.015625)"/>
      </defs>
      <use xlink:href="#DejaVuSans-Bold-4f"/>
     </g>
    </g>
   </g>
   <g id="text_7">
    <g clip-path="url(#pd86ced745b)">
     <!-- Ru -->
     <g style="fill: #ffffff" transform="translate(105.312184 57.114886) scale(0.12 -0.12)">
      <defs>
       <path id="DejaVuSans-Bold-52" d="M 2297 2597 
Q 2675 2597 2839 2737 
Q 3003 2878 3003 3200 
Q 3003 3519 2839 3656 
Q 2675 3794 2297 3794 
L 1791 3794 
L 1791 2597 
L 2297 2597 
z
M 1791 1766 
L 1791 0 
L 588 0 
L 588 4666 
L 2425 4666 
Q 3347 4666 3776 4356 
Q 4206 4047 4206 3378 
Q 4206 2916 3982 2619 
Q 3759 2322 3309 2181 
Q 3556 2125 3751 1926 
Q 3947 1728 4147 1325 
L 4800 0 
L 3519 0 
L 2950 1159 
Q 2778 1509 2601 1637 
Q 2425 1766 2131 1766 
L 1791 1766 
z
" transform="scale(0.015625)"/>
       <path id="DejaVuSans-Bold-75" d="M 500 1363 
L 500 3500 
L 1625 3500 
L 1625 3150 
Q 1625 2866 1622 2436 
Q 1619 2006 1619 1863 
Q 1619 1441 1641 1255 
Q 1663 1069 1716 984 
Q 1784 875 1895 815 
Q 2006 756 2150 756 
Q 2500 756 2700 1025 
Q 2900 1294 2900 1772 
L 2900 3500 
L 4019 3500 
L 4019 0 
L 2900 0 
L 2900 506 
Q 2647 200 2364 54 
Q 2081 -91 1741 -91 
Q 1134 -91 817 281 
Q 500 653 500 1363 
z
" transform="scale(0.015625)"/>
      </defs>
      <use xlink:href="#DejaVuSans-Bold-52"/>
      <use xlink:href="#DejaVuSans-Bold-75" transform="translate(77.001953 0)"/>
     </g>
    </g>
   </g>
   <g id="text_8">
    <g clip-path="url(#pd86ced745b)">
     <!-- O -->
     <g style="fill: #ffffff" transform="translate(116.327987 110.487005) scale(0.12 -0.12)">
      <use xlink:href="#DejaVuSans-Bold-4f"/>
     </g>
    </g>
   </g>
   <g id="text_9">
    <g clip-path="url(#pd86ced745b)">
     <!-- Ru -->
     <g style="fill: #ffffff" transform="translate(140.17236 67.616355) scale(0.12 -0.12)">
      <use xlink:href="#DejaVuSans-Bold-52"/>
      <use xlink:href="#DejaVuSans-Bold-75" transform="translate(77.001953 0)"/>
     </g>
    </g>
   </g>
   <g id="text_10">
    <g clip-path="url(#pd86ced745b)">
     <!-- Ru -->
     <g style="fill: #ffffff" transform="translate(46.477345 130.242329) scale(0.12 -0.12)">
      <use xlink:href="#DejaVuSans-Bold-52"/>
      <use xlink:href="#DejaVuSans-Bold-75" transform="translate(77.001953 0)"/>
     </g>
    </g>
   </g>
   <g id="text_11">
    <g clip-path="url(#pd86ced745b)">
     <!-- O -->
     <g style="fill: #ffffff" transform="translate(81.735256 138.082166) scale(0.12 -0.12)">
      <use xlink:href="#DejaVuSans-Bold-4f"/>
     </g>
    </g>
   </g>
   <g id="text_12">
    <g clip-path="url(#pd86ced745b)">
     <!-- Ru -->
     <g style="fill: #ffffff" transform="translate(114.965106 129.453456) scale(0.12 -0.12)">
      <use xlink:href="#DejaVuSans-Bold-52"/>
      <use xlink:href="#DejaVuSans-Bold-75" transform="translate(77.001953 0)"/>
     </g>
    </g>
   </g>
   <g id="text_13">
    <g clip-path="url(#pd86ced745b)">
     <!-- Ru -->
     <g style="fill: #ffffff" transform="translate(90.511506 57.7575) scale(0.12 -0.12)">
      <use xlink:href="#DejaVuSans-Bold-52"/>
      <use xlink:href="#DejaVuSans-Bold-75" transform="translate(77.001953 0)"/>
     </g>
    </g>
   </g>
   <g id="text_14">
    <g clip-path="url(#pd86ced745b)">
     <!-- O -->
     <g style="fill: #ffffff" transform="translate(79.168106 73.504616) scale(0.12 -0.12)">
      <use xlink:href="#DejaVuSans-Bold-4f"/>
     </g>
    </g>
   </g>
   <g id="text_15">
    <g clip-path="url(#pd86ced745b)">
     <!-- Ru -->
     <g style="fill: #ffffff" transform="translate(73.147957 178.47257) scale(0.12 -0.12)">
      <use xlink:href="#DejaVuSans-Bold-52"/>
      <use xlink:href="#DejaVuSans-Bold-75" transform="translate(77.001953 0)"/>
     </g>
    </g>
   </g>
   <g id="text_16">
    <g clip-path="url(#pd86ced745b)">
     <!-- Ru -->
     <g style="fill: #ffffff" transform="translate(51.390968 145.894375) scale(0.12 -0.12)">
      <use xlink:href="#DejaVuSans-Bold-52"/>
      <use xlink:href="#DejaVuSans-Bold-75" transform="translate(77.001953 0)"/>
     </g>
    </g>
   </g>
   <g id="text_17">
    <g clip-path="url(#pd86ced745b)">
     <!-- Ru -->
     <g style="fill: #ffffff" transform="translate(85.808012 107.246808) scale(0.12 -0.12)">
      <use xlink:href="#DejaVuSans-Bold-52"/>
      <use xlink:href="#DejaVuSans-Bold-75" transform="translate(77.001953 0)"/>
     </g>
    </g>
   </g>
   <g id="text_18">
    <g clip-path="url(#pd86ced745b)">
     <!-- O -->
     <g style="fill: #ffffff" transform="translate(94.5211 148.111388) scale(0.12 -0.12)">
      <use xlink:href="#DejaVuSans-Bold-4f"/>
     </g>
    </g>
   </g>
   <g id="text_19">
    <g clip-path="url(#pd86ced745b)">
     <!-- O -->
     <g style="fill: #ffffff" transform="translate(102.161816 134.015723) scale(0.12 -0.12)">
      <use xlink:href="#DejaVuSans-Bold-4f"/>
     </g>
    </g>
   </g>
   <g id="text_20">
    <g clip-path="url(#pd86ced745b)">
     <!-- O -->
     <g style="fill: #ffffff" transform="translate(112.400618 87.634945) scale(0.12 -0.12)">
      <use xlink:href="#DejaVuSans-Bold-4f"/>
     </g>
    </g>
   </g>
   <g id="text_21">
    <g clip-path="url(#pd86ced745b)">
     <!-- O -->
     <g style="fill: #ffffff" transform="translate(57.747524 108.72768) scale(0.12 -0.12)">
      <use xlink:href="#DejaVuSans-Bold-4f"/>
     </g>
    </g>
   </g>
   <g id="text_22">
    <g clip-path="url(#pd86ced745b)">
     <!-- C -->
     <g style="fill: #ffffff" transform="translate(172.762929 171.483282) scale(0.12 -0.12)">
      <defs>
       <path id="DejaVuSans-Bold-43" d="M 4288 256 
Q 3956 84 3597 -3 
Q 3238 -91 2847 -91 
Q 1681 -91 1000 561 
Q 319 1213 319 2328 
Q 319 3447 1000 4098 
Q 1681 4750 2847 4750 
Q 3238 4750 3597 4662 
Q 3956 4575 4288 4403 
L 4288 3438 
Q 3953 3666 3628 3772 
Q 3303 3878 2944 3878 
Q 2300 3878 1931 3465 
Q 1563 3053 1563 2328 
Q 1563 1606 1931 1193 
Q 2300 781 2944 781 
Q 3303 781 3628 887 
Q 3953 994 4288 1222 
L 4288 256 
z
" transform="scale(0.015625)"/>
      </defs>
      <use xlink:href="#DejaVuSans-Bold-43"/>
     </g>
    </g>
   </g>
   <g id="text_23">
    <g clip-path="url(#pd86ced745b)">
     <!-- C -->
     <g style="fill: #ffffff" transform="translate(172.339174 207.886278) scale(0.12 -0.12)">
      <use xlink:href="#DejaVuSans-Bold-43"/>
     </g>
    </g>
   </g>
   <g id="text_24">
    <g clip-path="url(#pd86ced745b)">
     <!-- C -->
     <g style="fill: #ffffff" transform="translate(206.773886 162.119052) scale(0.12 -0.12)">
      <use xlink:href="#DejaVuSans-Bold-43"/>
     </g>
    </g>
   </g>
   <g id="text_25">
    <g clip-path="url(#pd86ced745b)">
     <!-- H -->
     <g style="fill: #ffffff" transform="translate(153.773872 235.980833) scale(0.12 -0.12)">
      <use xlink:href="#DejaVuSans-Bold-48"/>
     </g>
    </g>
   </g>
   <g id="text_26">
    <g clip-path="url(#pd86ced745b)">
     <!-- H -->
     <g style="fill: #ffffff" transform="translate(175.863834 240.387614) scale(0.12 -0.12)">
      <use xlink:href="#DejaVuSans-Bold-48"/>
     </g>
    </g>
   </g>
   <g id="text_27">
    <g clip-path="url(#pd86ced745b)">
     <!-- H -->
     <g style="fill: #ffffff" transform="translate(196.543151 226.361135) scale(0.12 -0.12)">
      <use xlink:href="#DejaVuSans-Bold-48"/>
     </g>
    </g>
   </g>
   <g id="text_28">
    <g clip-path="url(#pd86ced745b)">
     <!-- H -->
     <g style="fill: #ffffff" transform="translate(227.134364 185.143103) scale(0.12 -0.12)">
      <use xlink:href="#DejaVuSans-Bold-48"/>
     </g>
    </g>
   </g>
   <g id="text_29">
    <g clip-path="url(#pd86ced745b)">
     <!-- H -->
     <g style="fill: #ffffff" transform="translate(234.810155 156.841494) scale(0.12 -0.12)">
      <use xlink:href="#DejaVuSans-Bold-48"/>
     </g>
    </g>
   </g>
   <g id="text_30">
    <!-- C3H9NO80Ru40 -->
    <g transform="translate(141.539964 23.914397) scale(0.1 -0.1)">
     <defs>
      <path id="DejaVuSans-43" d="M 4122 4306 
L 4122 3641 
Q 3803 3938 3442 4084 
Q 3081 4231 2675 4231 
Q 1875 4231 1450 3742 
Q 1025 3253 1025 2328 
Q 1025 1406 1450 917 
Q 1875 428 2675 428 
Q 3081 428 3442 575 
Q 3803 722 4122 1019 
L 4122 359 
Q 3791 134 3420 21 
Q 3050 -91 2638 -91 
Q 1578 -91 968 557 
Q 359 1206 359 2328 
Q 359 3453 968 4101 
Q 1578 4750 2638 4750 
Q 3056 4750 3426 4639 
Q 3797 4528 4122 4306 
z
" transform="scale(0.015625)"/>
      <path id="DejaVuSans-33" d="M 2597 2516 
Q 3050 2419 3304 2112 
Q 3559 1806 3559 1356 
Q 3559 666 3084 287 
Q 2609 -91 1734 -91 
Q 1441 -91 1130 -33 
Q 819 25 488 141 
L 488 750 
Q 750 597 1062 519 
Q 1375 441 1716 441 
Q 2309 441 2620 675 
Q 2931 909 2931 1356 
Q 2931 1769 2642 2001 
Q 2353 2234 1838 2234 
L 1294 2234 
L 1294 2753 
L 1863 2753 
Q 2328 2753 2575 2939 
Q 2822 3125 2822 3475 
Q 2822 3834 2567 4026 
Q 2313 4219 1838 4219 
Q 1578 4219 1281 4162 
Q 984 4106 628 3988 
L 628 4550 
Q 988 4650 1302 4700 
Q 1616 4750 1894 4750 
Q 2613 4750 3031 4423 
Q 3450 4097 3450 3541 
Q 3450 3153 3228 2886 
Q 3006 2619 2597 2516 
z
" transform="scale(0.015625)"/>
      <path id="DejaVuSans-48" d="M 628 4666 
L 1259 4666 
L 1259 2753 
L 3553 2753 
L 3553 4666 
L 4184 4666 
L 4184 0 
L 3553 0 
L 3553 2222 
L 1259 2222 
L 1259 0 
L 628 0 
L 628 4666 
z
" transform="scale(0.015625)"/>
      <path id="DejaVuSans-39" d="M 703 97 
L 703 672 
Q 941 559 1184 500 
Q 1428 441 1663 441 
Q 2288 441 2617 861 
Q 2947 1281 2994 2138 
Q 2813 1869 2534 1725 
Q 2256 1581 1919 1581 
Q 1219 1581 811 2004 
Q 403 2428 403 3163 
Q 403 3881 828 4315 
Q 1253 4750 1959 4750 
Q 2769 4750 3195 4129 
Q 3622 3509 3622 2328 
Q 3622 1225 3098 567 
Q 2575 -91 1691 -91 
Q 1453 -91 1209 -44 
Q 966 3 703 97 
z
M 1959 2075 
Q 2384 2075 2632 2365 
Q 2881 2656 2881 3163 
Q 2881 3666 2632 3958 
Q 2384 4250 1959 4250 
Q 1534 4250 1286 3958 
Q 1038 3666 1038 3163 
Q 1038 2656 1286 2365 
Q 1534 2075 1959 2075 
z
" transform="scale(0.015625)"/>
      <path id="DejaVuSans-4e" d="M 628 4666 
L 1478 4666 
L 3547 763 
L 3547 4666 
L 4159 4666 
L 4159 0 
L 3309 0 
L 1241 3903 
L 1241 0 
L 628 0 
L 628 4666 
z
" transform="scale(0.015625)"/>
      <path id="DejaVuSans-4f" d="M 2522 4238 
Q 1834 4238 1429 3725 
Q 1025 3213 1025 2328 
Q 1025 1447 1429 934 
Q 1834 422 2522 422 
Q 3209 422 3611 934 
Q 4013 1447 4013 2328 
Q 4013 3213 3611 3725 
Q 3209 4238 2522 4238 
z
M 2522 4750 
Q 3503 4750 4090 4092 
Q 4678 3434 4678 2328 
Q 4678 1225 4090 567 
Q 3503 -91 2522 -91 
Q 1538 -91 948 565 
Q 359 1222 359 2328 
Q 359 3434 948 4092 
Q 1538 4750 2522 4750 
z
" transform="scale(0.015625)"/>
      <path id="DejaVuSans-38" d="M 2034 2216 
Q 1584 2216 1326 1975 
Q 1069 1734 1069 1313 
Q 1069 891 1326 650 
Q 1584 409 2034 409 
Q 2484 409 2743 651 
Q 3003 894 3003 1313 
Q 3003 1734 2745 1975 
Q 2488 2216 2034 2216 
z
M 1403 2484 
Q 997 2584 770 2862 
Q 544 3141 544 3541 
Q 544 4100 942 4425 
Q 1341 4750 2034 4750 
Q 2731 4750 3128 4425 
Q 3525 4100 3525 3541 
Q 3525 3141 3298 2862 
Q 3072 2584 2669 2484 
Q 3125 2378 3379 2068 
Q 3634 1759 3634 1313 
Q 3634 634 3220 271 
Q 2806 -91 2034 -91 
Q 1263 -91 848 271 
Q 434 634 434 1313 
Q 434 1759 690 2068 
Q 947 2378 1403 2484 
z
M 1172 3481 
Q 1172 3119 1398 2916 
Q 1625 2713 2034 2713 
Q 2441 2713 2670 2916 
Q 2900 3119 2900 3481 
Q 2900 3844 2670 4047 
Q 2441 4250 2034 4250 
Q 1625 4250 1398 4047 
Q 1172 3844 1172 3481 
z
" transform="scale(0.015625)"/>
      <path id="DejaVuSans-30" d="M 2034 4250 
Q 1547 4250 1301 3770 
Q 1056 3291 1056 2328 
Q 1056 1369 1301 889 
Q 1547 409 2034 409 
Q 2525 409 2770 889 
Q 3016 1369 3016 2328 
Q 3016 3291 2770 3770 
Q 2525 4250 2034 4250 
z
M 2034 4750 
Q 2819 4750 3233 4129 
Q 3647 3509 3647 2328 
Q 3647 1150 3233 529 
Q 2819 -91 2034 -91 
Q 1250 -91 836 529 
Q 422 1150 422 2328 
Q 422 3509 836 4129 
Q 1250 4750 2034 4750 
z
" transform="scale(0.015625)"/>
      <path id="DejaVuSans-52" d="M 2841 2188 
Q 3044 2119 3236 1894 
Q 3428 1669 3622 1275 
L 4263 0 
L 3584 0 
L 2988 1197 
Q 2756 1666 2539 1819 
Q 2322 1972 1947 1972 
L 1259 1972 
L 1259 0 
L 628 0 
L 628 4666 
L 2053 4666 
Q 2853 4666 3247 4331 
Q 3641 3997 3641 3322 
Q 3641 2881 3436 2590 
Q 3231 2300 2841 2188 
z
M 1259 4147 
L 1259 2491 
L 2053 2491 
Q 2509 2491 2742 2702 
Q 2975 2913 2975 3322 
Q 2975 3731 2742 3939 
Q 2509 4147 2053 4147 
L 1259 4147 
z
" transform="scale(0.015625)"/>
      <path id="DejaVuSans-75" d="M 544 1381 
L 544 3500 
L 1119 3500 
L 1119 1403 
Q 1119 906 1312 657 
Q 1506 409 1894 409 
Q 2359 409 2629 706 
Q 2900 1003 2900 1516 
L 2900 3500 
L 3475 3500 
L 3475 0 
L 2900 0 
L 2900 538 
Q 2691 219 2414 64 
Q 2138 -91 1772 -91 
Q 1169 -91 856 284 
Q 544 659 544 1381 
z
M 1991 3584 
L 1991 3584 
z
" transform="scale(0.015625)"/>
      <path id="DejaVuSans-34" d="M 2419 4116 
L 825 1625 
L 2419 1625 
L 2419 4116 
z
M 2253 4666 
L 3047 4666 
L 3047 1625 
L 3713 1625 
L 3713 1100 
L 3047 1100 
L 3047 0 
L 2419 0 
L 2419 1100 
L 313 1100 
L 313 1709 
L 2253 4666 
z
" transform="scale(0.015625)"/>
     </defs>
     <use xlink:href="#DejaVuSans-43"/>
     <use xlink:href="#DejaVuSans-33" transform="translate(69.824219 0)"/>
     <use xlink:href="#DejaVuSans-48" transform="translate(133.447266 0)"/>
     <use xlink:href="#DejaVuSans-39" transform="translate(208.642578 0)"/>
     <use xlink:href="#DejaVuSans-4e" transform="translate(272.265625 0)"/>
     <use xlink:href="#DejaVuSans-4f" transform="translate(347.070312 0)"/>
     <use xlink:href="#DejaVuSans-38" transform="translate(425.78125 0)"/>
     <use xlink:href="#DejaVuSans-30" transform="translate(489.404297 0)"/>
     <use xlink:href="#DejaVuSans-52" transform="translate(553.027344 0)"/>
     <use xlink:href="#DejaVuSans-75" transform="translate(618.009766 0)"/>
     <use xlink:href="#DejaVuSans-34" transform="translate(681.388672 0)"/>
     <use xlink:href="#DejaVuSans-30" transform="translate(745.011719 0)"/>
    </g>
    <!-- Error: -1.97 eV -->
    <g transform="translate(141.539964 35.112209) scale(0.1 -0.1)">
     <defs>
      <path id="DejaVuSans-45" d="M 628 4666 
L 3578 4666 
L 3578 4134 
L 1259 4134 
L 1259 2753 
L 3481 2753 
L 3481 2222 
L 1259 2222 
L 1259 531 
L 3634 531 
L 3634 0 
L 628 0 
L 628 4666 
z
" transform="scale(0.015625)"/>
      <path id="DejaVuSans-72" d="M 2631 2963 
Q 2534 3019 2420 3045 
Q 2306 3072 2169 3072 
Q 1681 3072 1420 2755 
Q 1159 2438 1159 1844 
L 1159 0 
L 581 0 
L 581 3500 
L 1159 3500 
L 1159 2956 
Q 1341 3275 1631 3429 
Q 1922 3584 2338 3584 
Q 2397 3584 2469 3576 
Q 2541 3569 2628 3553 
L 2631 2963 
z
" transform="scale(0.015625)"/>
      <path id="DejaVuSans-6f" d="M 1959 3097 
Q 1497 3097 1228 2736 
Q 959 2375 959 1747 
Q 959 1119 1226 758 
Q 1494 397 1959 397 
Q 2419 397 2687 759 
Q 2956 1122 2956 1747 
Q 2956 2369 2687 2733 
Q 2419 3097 1959 3097 
z
M 1959 3584 
Q 2709 3584 3137 3096 
Q 3566 2609 3566 1747 
Q 3566 888 3137 398 
Q 2709 -91 1959 -91 
Q 1206 -91 779 398 
Q 353 888 353 1747 
Q 353 2609 779 3096 
Q 1206 3584 1959 3584 
z
" transform="scale(0.015625)"/>
      <path id="DejaVuSans-3a" d="M 750 794 
L 1409 794 
L 1409 0 
L 750 0 
L 750 794 
z
M 750 3309 
L 1409 3309 
L 1409 2516 
L 750 2516 
L 750 3309 
z
" transform="scale(0.015625)"/>
      <path id="DejaVuSans-20" transform="scale(0.015625)"/>
      <path id="DejaVuSans-2d" d="M 313 2009 
L 1997 2009 
L 1997 1497 
L 313 1497 
L 313 2009 
z
" transform="scale(0.015625)"/>
      <path id="DejaVuSans-31" d="M 794 531 
L 1825 531 
L 1825 4091 
L 703 3866 
L 703 4441 
L 1819 4666 
L 2450 4666 
L 2450 531 
L 3481 531 
L 3481 0 
L 794 0 
L 794 531 
z
" transform="scale(0.015625)"/>
      <path id="DejaVuSans-2e" d="M 684 794 
L 1344 794 
L 1344 0 
L 684 0 
L 684 794 
z
" transform="scale(0.015625)"/>
      <path id="DejaVuSans-37" d="M 525 4666 
L 3525 4666 
L 3525 4397 
L 1831 0 
L 1172 0 
L 2766 4134 
L 525 4134 
L 525 4666 
z
" transform="scale(0.015625)"/>
      <path id="DejaVuSans-65" d="M 3597 1894 
L 3597 1613 
L 953 1613 
Q 991 1019 1311 708 
Q 1631 397 2203 397 
Q 2534 397 2845 478 
Q 3156 559 3463 722 
L 3463 178 
Q 3153 47 2828 -22 
Q 2503 -91 2169 -91 
Q 1331 -91 842 396 
Q 353 884 353 1716 
Q 353 2575 817 3079 
Q 1281 3584 2069 3584 
Q 2775 3584 3186 3129 
Q 3597 2675 3597 1894 
z
M 3022 2063 
Q 3016 2534 2758 2815 
Q 2500 3097 2075 3097 
Q 1594 3097 1305 2825 
Q 1016 2553 972 2059 
L 3022 2063 
z
" transform="scale(0.015625)"/>
      <path id="DejaVuSans-56" d="M 1831 0 
L 50 4666 
L 709 4666 
L 2188 738 
L 3669 4666 
L 4325 4666 
L 2547 0 
L 1831 0 
z
" transform="scale(0.015625)"/>
     </defs>
     <use xlink:href="#DejaVuSans-45"/>
     <use xlink:href="#DejaVuSans-72" transform="translate(63.183594 0)"/>
     <use xlink:href="#DejaVuSans-72" transform="translate(102.546875 0)"/>
     <use xlink:href="#DejaVuSans-6f" transform="translate(141.410156 0)"/>
     <use xlink:href="#DejaVuSans-72" transform="translate(202.591797 0)"/>
     <use xlink:href="#DejaVuSans-3a" transform="translate(241.955078 0)"/>
     <use xlink:href="#DejaVuSans-20" transform="translate(275.646484 0)"/>
     <use xlink:href="#DejaVuSans-2d" transform="translate(307.433594 0)"/>
     <use xlink:href="#DejaVuSans-31" transform="translate(343.517578 0)"/>
     <use xlink:href="#DejaVuSans-2e" transform="translate(407.140625 0)"/>
     <use xlink:href="#DejaVuSans-39" transform="translate(438.927734 0)"/>
     <use xlink:href="#DejaVuSans-37" transform="translate(502.550781 0)"/>
     <use xlink:href="#DejaVuSans-20" transform="translate(566.173828 0)"/>
     <use xlink:href="#DejaVuSans-65" transform="translate(597.960938 0)"/>
     <use xlink:href="#DejaVuSans-56" transform="translate(659.484375 0)"/>
    </g>
   </g>
  </g>
 </g>
 <defs>
  <clipPath id="pd86ced745b">
   <rect x="36" y="34.56" width="223.2" height="221.76"/>
  </clipPath>
 </defs>
</svg>
