<?xml version="1.0" encoding="utf-8" standalone="no"?>
<!DOCTYPE svg PUBLIC "-//W3C//DTD SVG 1.1//EN"
  "http://www.w3.org/Graphics/SVG/1.1/DTD/svg11.dtd">
<svg xmlns:xlink="http://www.w3.org/1999/xlink" width="288pt" height="288pt" viewBox="0 0 288 288" xmlns="http://www.w3.org/2000/svg" version="1.1">
 <metadata>
  <rdf:RDF xmlns:dc="http://purl.org/dc/elements/1.1/" xmlns:cc="http://creativecommons.org/ns#" xmlns:rdf="http://www.w3.org/1999/02/22-rdf-syntax-ns#">
   <cc:Work>
    <dc:type rdf:resource="http://purl.org/dc/dcmitype/StillImage"/>
    <dc:date>2025-05-30T16:59:14.703862</dc:date>
    <dc:format>image/svg+xml</dc:format>
    <dc:creator>
     <cc:Agent>
      <dc:title>Matplotlib v3.10.1, https://matplotlib.org/</dc:title>
     </cc:Agent>
    </dc:creator>
   </cc:Work>
  </rdf:RDF>
 </metadata>
 <defs>
  <style type="text/css">*{stroke-linejoin: round; stroke-linecap: butt}</style>
 </defs>
 <g id="figure_1">
  <g id="patch_1">
   <path d="M 0 288 
L 288 288 
L 288 0 
L 0 0 
z
" style="fill: #ffffff"/>
  </g>
  <g id="axes_1">
   <g id="LineCollection_1">
    <path d="M 237.895563 156.591325 
L 215.652161 182.030847 
" clip-path="url(#pca374a6e88)" style="fill: none; stroke: #000000; stroke-width: 1.2"/>
    <path d="M 164.42399 149.187814 
L 136.016779 127.76726 
" clip-path="url(#pca374a6e88)" style="fill: none; stroke: #000000; stroke-width: 1.2"/>
    <path d="M 164.42399 149.187814 
L 188.777949 170.148671 
" clip-path="url(#pca374a6e88)" style="fill: none; stroke: #000000; stroke-width: 1.2"/>
    <path d="M 55.368595 226.178942 
L 75.89652 200.771885 
" clip-path="url(#pca374a6e88)" style="fill: none; stroke: #000000; stroke-width: 1.2"/>
    <path d="M 206.261855 142.590766 
L 188.777949 170.148671 
" clip-path="url(#pca374a6e88)" style="fill: none; stroke: #000000; stroke-width: 1.2"/>
    <path d="M 133.642424 137.824129 
L 140.897415 93.014644 
" clip-path="url(#pca374a6e88)" style="fill: none; stroke: #000000; stroke-width: 1.2"/>
    <path d="M 133.642424 137.824129 
L 156.173576 116.164752 
" clip-path="url(#pca374a6e88)" style="fill: none; stroke: #000000; stroke-width: 1.2"/>
    <path d="M 133.642424 137.824129 
L 110.905276 141.787638 
" clip-path="url(#pca374a6e88)" style="fill: none; stroke: #000000; stroke-width: 1.2"/>
    <path d="M 133.642424 137.824129 
L 120.109587 107.005474 
" clip-path="url(#pca374a6e88)" style="fill: none; stroke: #000000; stroke-width: 1.2"/>
    <path d="M 133.642424 137.824129 
L 117.899149 161.282073 
" clip-path="url(#pca374a6e88)" style="fill: none; stroke: #000000; stroke-width: 1.2"/>
    <path d="M 133.642424 137.824129 
L 150.732648 173.795209 
" clip-path="url(#pca374a6e88)" style="fill: none; stroke: #000000; stroke-width: 1.2"/>
    <path d="M 153.424238 60.747433 
L 140.897415 93.014644 
" clip-path="url(#pca374a6e88)" style="fill: none; stroke: #000000; stroke-width: 1.2"/>
    <path d="M 153.424238 60.747433 
L 134.192703 82.832564 
" clip-path="url(#pca374a6e88)" style="fill: none; stroke: #000000; stroke-width: 1.2"/>
    <path d="M 84.990826 156.407358 
L 91.533256 178.066305 
" clip-path="url(#pca374a6e88)" style="fill: none; stroke: #000000; stroke-width: 1.2"/>
    <path d="M 84.990826 156.407358 
L 68.736013 147.831099 
" clip-path="url(#pca374a6e88)" style="fill: none; stroke: #000000; stroke-width: 1.2"/>
    <path d="M 84.990826 156.407358 
L 63.821793 166.654896 
" clip-path="url(#pca374a6e88)" style="fill: none; stroke: #000000; stroke-width: 1.2"/>
    <path d="M 84.990826 156.407358 
L 110.905276 141.787638 
" clip-path="url(#pca374a6e88)" style="fill: none; stroke: #000000; stroke-width: 1.2"/>
    <path d="M 84.990826 156.407358 
L 63.395707 124.309654 
" clip-path="url(#pca374a6e88)" style="fill: none; stroke: #000000; stroke-width: 1.2"/>
    <path d="M 84.990826 156.407358 
L 70.205759 183.279753 
" clip-path="url(#pca374a6e88)" style="fill: none; stroke: #000000; stroke-width: 1.2"/>
    <path d="M 84.990826 156.407358 
L 75.89652 200.771885 
" clip-path="url(#pca374a6e88)" style="fill: none; stroke: #000000; stroke-width: 1.2"/>
    <path d="M 175.485346 84.957578 
L 156.173576 116.164752 
" clip-path="url(#pca374a6e88)" style="fill: none; stroke: #000000; stroke-width: 1.2"/>
    <path d="M 136.016779 127.76726 
L 156.173576 116.164752 
" clip-path="url(#pca374a6e88)" style="fill: none; stroke: #000000; stroke-width: 1.2"/>
    <path d="M 136.016779 127.76726 
L 110.905276 141.787638 
" clip-path="url(#pca374a6e88)" style="fill: none; stroke: #000000; stroke-width: 1.2"/>
    <path d="M 136.016779 127.76726 
L 134.192703 82.832564 
" clip-path="url(#pca374a6e88)" style="fill: none; stroke: #000000; stroke-width: 1.2"/>
    <path d="M 136.016779 127.76726 
L 120.109587 107.005474 
" clip-path="url(#pca374a6e88)" style="fill: none; stroke: #000000; stroke-width: 1.2"/>
    <path d="M 136.016779 127.76726 
L 117.899149 161.282073 
" clip-path="url(#pca374a6e88)" style="fill: none; stroke: #000000; stroke-width: 1.2"/>
    <path d="M 132.45076 53.803636 
L 140.897415 93.014644 
" clip-path="url(#pca374a6e88)" style="fill: none; stroke: #000000; stroke-width: 1.2"/>
    <path d="M 132.45076 53.803636 
L 134.192703 82.832564 
" clip-path="url(#pca374a6e88)" style="fill: none; stroke: #000000; stroke-width: 1.2"/>
    <path d="M 91.533256 178.066305 
L 68.736013 147.831099 
" clip-path="url(#pca374a6e88)" style="fill: none; stroke: #000000; stroke-width: 1.2"/>
    <path d="M 91.533256 178.066305 
L 63.821793 166.654896 
" clip-path="url(#pca374a6e88)" style="fill: none; stroke: #000000; stroke-width: 1.2"/>
    <path d="M 91.533256 178.066305 
L 70.205759 183.279753 
" clip-path="url(#pca374a6e88)" style="fill: none; stroke: #000000; stroke-width: 1.2"/>
    <path d="M 91.533256 178.066305 
L 75.89652 200.771885 
" clip-path="url(#pca374a6e88)" style="fill: none; stroke: #000000; stroke-width: 1.2"/>
    <path d="M 91.533256 178.066305 
L 117.899149 161.282073 
" clip-path="url(#pca374a6e88)" style="fill: none; stroke: #000000; stroke-width: 1.2"/>
    <path d="M 91.533256 178.066305 
L 94.551628 218.380207 
" clip-path="url(#pca374a6e88)" style="fill: none; stroke: #000000; stroke-width: 1.2"/>
    <path d="M 105.267513 70.442338 
L 120.109587 107.005474 
" clip-path="url(#pca374a6e88)" style="fill: none; stroke: #000000; stroke-width: 1.2"/>
    <path d="M 188.777949 170.148671 
L 172.127946 198.321068 
" clip-path="url(#pca374a6e88)" style="fill: none; stroke: #000000; stroke-width: 1.2"/>
    <path d="M 188.777949 170.148671 
L 215.652161 182.030847 
" clip-path="url(#pca374a6e88)" style="fill: none; stroke: #000000; stroke-width: 1.2"/>
    <path d="M 172.127946 198.321068 
L 166.40021 237.076364 
" clip-path="url(#pca374a6e88)" style="fill: none; stroke: #000000; stroke-width: 1.2"/>
    <path d="M 172.127946 198.321068 
L 150.732648 173.795209 
" clip-path="url(#pca374a6e88)" style="fill: none; stroke: #000000; stroke-width: 1.2"/>
    <path d="M 172.127946 198.321068 
L 184.339271 230.805414 
" clip-path="url(#pca374a6e88)" style="fill: none; stroke: #000000; stroke-width: 1.2"/>
    <path d="M 215.652161 182.030847 
L 226.197998 218.69521 
" clip-path="url(#pca374a6e88)" style="fill: none; stroke: #000000; stroke-width: 1.2"/>
    <path d="M 215.652161 182.030847 
L 239.831405 190.661834 
" clip-path="url(#pca374a6e88)" style="fill: none; stroke: #000000; stroke-width: 1.2"/>
   </g>
   <g id="PathCollection_1">
    <defs>
     <path id="C0_0_323bf4e763" d="M 0 8.944272 
C 2.372049 8.944272 4.647264 8.001847 6.324555 6.324555 
C 8.001847 4.647264 8.944272 2.372049 8.944272 -0 
C 8.944272 -2.372049 8.001847 -4.647264 6.324555 -6.324555 
C 4.647264 -8.001847 2.372049 -8.944272 0 -8.944272 
C -2.372049 -8.944272 -4.647264 -8.001847 -6.324555 -6.324555 
C -8.001847 -4.647264 -8.944272 -2.372049 -8.944272 0 
C -8.944272 2.372049 -8.001847 4.647264 -6.324555 6.324555 
C -4.647264 8.001847 -2.372049 8.944272 0 8.944272 
z
"/>
    </defs>
    <g clip-path="url(#pca374a6e88)">
     <use xlink:href="#C0_0_323bf4e763" x="237.895563" y="156.591325" style="fill: #bfbfbf; stroke: #bfbfbf; stroke-width: 0.5"/>
    </g>
    <g clip-path="url(#pca374a6e88)">
     <use xlink:href="#C0_0_323bf4e763" x="164.42399" y="149.187814" style="fill: #b2b200; stroke: #b2b200; stroke-width: 0.5"/>
    </g>
    <g clip-path="url(#pca374a6e88)">
     <use xlink:href="#C0_0_323bf4e763" x="55.368595" y="226.178942" style="fill: #bfbfbf; stroke: #bfbfbf; stroke-width: 0.5"/>
    </g>
    <g clip-path="url(#pca374a6e88)">
     <use xlink:href="#C0_0_323bf4e763" x="206.261855" y="142.590766" style="fill: #bfbfbf; stroke: #bfbfbf; stroke-width: 0.5"/>
    </g>
    <g clip-path="url(#pca374a6e88)">
     <use xlink:href="#C0_0_323bf4e763" x="133.642424" y="137.824129" style="fill: #248f8f; stroke: #248f8f; stroke-width: 0.5"/>
    </g>
    <g clip-path="url(#pca374a6e88)">
     <use xlink:href="#C0_0_323bf4e763" x="153.424238" y="60.747433" style="fill: #248f8f; stroke: #248f8f; stroke-width: 0.5"/>
    </g>
    <g clip-path="url(#pca374a6e88)">
     <use xlink:href="#C0_0_323bf4e763" x="84.990826" y="156.407358" style="fill: #248f8f; stroke: #248f8f; stroke-width: 0.5"/>
    </g>
    <g clip-path="url(#pca374a6e88)">
     <use xlink:href="#C0_0_323bf4e763" x="175.485346" y="84.957578" style="fill: #248f8f; stroke: #248f8f; stroke-width: 0.5"/>
    </g>
    <g clip-path="url(#pca374a6e88)">
     <use xlink:href="#C0_0_323bf4e763" x="136.016779" y="127.76726" style="fill: #248f8f; stroke: #248f8f; stroke-width: 0.5"/>
    </g>
    <g clip-path="url(#pca374a6e88)">
     <use xlink:href="#C0_0_323bf4e763" x="132.45076" y="53.803636" style="fill: #248f8f; stroke: #248f8f; stroke-width: 0.5"/>
    </g>
    <g clip-path="url(#pca374a6e88)">
     <use xlink:href="#C0_0_323bf4e763" x="91.533256" y="178.066305" style="fill: #248f8f; stroke: #248f8f; stroke-width: 0.5"/>
    </g>
    <g clip-path="url(#pca374a6e88)">
     <use xlink:href="#C0_0_323bf4e763" x="105.267513" y="70.442338" style="fill: #248f8f; stroke: #248f8f; stroke-width: 0.5"/>
    </g>
    <g clip-path="url(#pca374a6e88)">
     <use xlink:href="#C0_0_323bf4e763" x="68.736013" y="147.831099" style="fill: #ff0d0d; stroke: #ff0d0d; stroke-width: 0.5"/>
    </g>
    <g clip-path="url(#pca374a6e88)">
     <use xlink:href="#C0_0_323bf4e763" x="140.897415" y="93.014644" style="fill: #ff0d0d; stroke: #ff0d0d; stroke-width: 0.5"/>
    </g>
    <g clip-path="url(#pca374a6e88)">
     <use xlink:href="#C0_0_323bf4e763" x="63.821793" y="166.654896" style="fill: #ff0d0d; stroke: #ff0d0d; stroke-width: 0.5"/>
    </g>
    <g clip-path="url(#pca374a6e88)">
     <use xlink:href="#C0_0_323bf4e763" x="156.173576" y="116.164752" style="fill: #ff0d0d; stroke: #ff0d0d; stroke-width: 0.5"/>
    </g>
    <g clip-path="url(#pca374a6e88)">
     <use xlink:href="#C0_0_323bf4e763" x="110.905276" y="141.787638" style="fill: #ff0d0d; stroke: #ff0d0d; stroke-width: 0.5"/>
    </g>
    <g clip-path="url(#pca374a6e88)">
     <use xlink:href="#C0_0_323bf4e763" x="63.395707" y="124.309654" style="fill: #ff0d0d; stroke: #ff0d0d; stroke-width: 0.5"/>
    </g>
    <g clip-path="url(#pca374a6e88)">
     <use xlink:href="#C0_0_323bf4e763" x="70.205759" y="183.279753" style="fill: #ff0d0d; stroke: #ff0d0d; stroke-width: 0.5"/>
    </g>
    <g clip-path="url(#pca374a6e88)">
     <use xlink:href="#C0_0_323bf4e763" x="134.192703" y="82.832564" style="fill: #ff0d0d; stroke: #ff0d0d; stroke-width: 0.5"/>
    </g>
    <g clip-path="url(#pca374a6e88)">
     <use xlink:href="#C0_0_323bf4e763" x="75.89652" y="200.771885" style="fill: #ff0d0d; stroke: #ff0d0d; stroke-width: 0.5"/>
    </g>
    <g clip-path="url(#pca374a6e88)">
     <use xlink:href="#C0_0_323bf4e763" x="120.109587" y="107.005474" style="fill: #ff0d0d; stroke: #ff0d0d; stroke-width: 0.5"/>
    </g>
    <g clip-path="url(#pca374a6e88)">
     <use xlink:href="#C0_0_323bf4e763" x="117.899149" y="161.282073" style="fill: #ff0d0d; stroke: #ff0d0d; stroke-width: 0.5"/>
    </g>
    <g clip-path="url(#pca374a6e88)">
     <use xlink:href="#C0_0_323bf4e763" x="94.551628" y="218.380207" style="fill: #ff0d0d; stroke: #ff0d0d; stroke-width: 0.5"/>
    </g>
    <g clip-path="url(#pca374a6e88)">
     <use xlink:href="#C0_0_323bf4e763" x="188.777949" y="170.148671" style="fill: #666666; stroke: #666666; stroke-width: 0.5"/>
    </g>
    <g clip-path="url(#pca374a6e88)">
     <use xlink:href="#C0_0_323bf4e763" x="172.127946" y="198.321068" style="fill: #666666; stroke: #666666; stroke-width: 0.5"/>
    </g>
    <g clip-path="url(#pca374a6e88)">
     <use xlink:href="#C0_0_323bf4e763" x="215.652161" y="182.030847" style="fill: #666666; stroke: #666666; stroke-width: 0.5"/>
    </g>
    <g clip-path="url(#pca374a6e88)">
     <use xlink:href="#C0_0_323bf4e763" x="166.40021" y="237.076364" style="fill: #bfbfbf; stroke: #bfbfbf; stroke-width: 0.5"/>
    </g>
    <g clip-path="url(#pca374a6e88)">
     <use xlink:href="#C0_0_323bf4e763" x="150.732648" y="173.795209" style="fill: #bfbfbf; stroke: #bfbfbf; stroke-width: 0.5"/>
    </g>
    <g clip-path="url(#pca374a6e88)">
     <use xlink:href="#C0_0_323bf4e763" x="184.339271" y="230.805414" style="fill: #bfbfbf; stroke: #bfbfbf; stroke-width: 0.5"/>
    </g>
    <g clip-path="url(#pca374a6e88)">
     <use xlink:href="#C0_0_323bf4e763" x="226.197998" y="218.69521" style="fill: #bfbfbf; stroke: #bfbfbf; stroke-width: 0.5"/>
    </g>
    <g clip-path="url(#pca374a6e88)">
     <use xlink:href="#C0_0_323bf4e763" x="239.831405" y="190.661834" style="fill: #bfbfbf; stroke: #bfbfbf; stroke-width: 0.5"/>
    </g>
   </g>
   <g id="text_1">
    <g clip-path="url(#pca374a6e88)">
     <!-- H -->
     <g style="fill: #ffffff" transform="translate(232.874313 159.902575) scale(0.12 -0.12)">
      <defs>
       <path id="DejaVuSans-Bold-48" d="M 588 4666 
L 1791 4666 
L 1791 2888 
L 3566 2888 
L 3566 4666 
L 4769 4666 
L 4769 0 
L 3566 0 
L 3566 1978 
L 1791 1978 
L 1791 0 
L 588 0 
L 588 4666 
z
" transform="scale(0.015625)"/>
      </defs>
      <use xlink:href="#DejaVuSans-Bold-48"/>
     </g>
    </g>
   </g>
   <g id="text_2">
    <g clip-path="url(#pca374a6e88)">
     <!-- S -->
     <g style="fill: #ffffff" transform="translate(160.103052 152.499064) scale(0.12 -0.12)">
      <defs>
       <path id="DejaVuSans-Bold-53" d="M 3834 4519 
L 3834 3531 
Q 3450 3703 3084 3790 
Q 2719 3878 2394 3878 
Q 1963 3878 1756 3759 
Q 1550 3641 1550 3391 
Q 1550 3203 1689 3098 
Q 1828 2994 2194 2919 
L 2706 2816 
Q 3484 2659 3812 2340 
Q 4141 2022 4141 1434 
Q 4141 663 3683 286 
Q 3225 -91 2284 -91 
Q 1841 -91 1394 -6 
Q 947 78 500 244 
L 500 1259 
Q 947 1022 1364 901 
Q 1781 781 2169 781 
Q 2563 781 2772 912 
Q 2981 1044 2981 1288 
Q 2981 1506 2839 1625 
Q 2697 1744 2272 1838 
L 1806 1941 
Q 1106 2091 782 2419 
Q 459 2747 459 3303 
Q 459 4000 909 4375 
Q 1359 4750 2203 4750 
Q 2588 4750 2994 4692 
Q 3400 4634 3834 4519 
z
" transform="scale(0.015625)"/>
      </defs>
      <use xlink:href="#DejaVuSans-Bold-53"/>
     </g>
    </g>
   </g>
   <g id="text_3">
    <g clip-path="url(#pca374a6e88)">
     <!-- H -->
     <g style="fill: #ffffff" transform="translate(50.347345 229.490192) scale(0.12 -0.12)">
      <use xlink:href="#DejaVuSans-Bold-48"/>
     </g>
    </g>
   </g>
   <g id="text_4">
    <g clip-path="url(#pca374a6e88)">
     <!-- H -->
     <g style="fill: #ffffff" transform="translate(201.240605 145.902016) scale(0.12 -0.12)">
      <use xlink:href="#DejaVuSans-Bold-48"/>
     </g>
    </g>
   </g>
   <g id="text_5">
    <g clip-path="url(#pca374a6e88)">
     <!-- Ru -->
     <g style="fill: #ffffff" transform="translate(124.751174 141.135379) scale(0.12 -0.12)">
      <defs>
       <path id="DejaVuSans-Bold-52" d="M 2297 2597 
Q 2675 2597 2839 2737 
Q 3003 2878 3003 3200 
Q 3003 3519 2839 3656 
Q 2675 3794 2297 3794 
L 1791 3794 
L 1791 2597 
L 2297 2597 
z
M 1791 1766 
L 1791 0 
L 588 0 
L 588 4666 
L 2425 4666 
Q 3347 4666 3776 4356 
Q 4206 4047 4206 3378 
Q 4206 2916 3982 2619 
Q 3759 2322 3309 2181 
Q 3556 2125 3751 1926 
Q 3947 1728 4147 1325 
L 4800 0 
L 3519 0 
L 2950 1159 
Q 2778 1509 2601 1637 
Q 2425 1766 2131 1766 
L 1791 1766 
z
" transform="scale(0.015625)"/>
       <path id="DejaVuSans-Bold-75" d="M 500 1363 
L 500 3500 
L 1625 3500 
L 1625 3150 
Q 1625 2866 1622 2436 
Q 1619 2006 1619 1863 
Q 1619 1441 1641 1255 
Q 1663 1069 1716 984 
Q 1784 875 1895 815 
Q 2006 756 2150 756 
Q 2500 756 2700 1025 
Q 2900 1294 2900 1772 
L 2900 3500 
L 4019 3500 
L 4019 0 
L 2900 0 
L 2900 506 
Q 2647 200 2364 54 
Q 2081 -91 1741 -91 
Q 1134 -91 817 281 
Q 500 653 500 1363 
z
" transform="scale(0.015625)"/>
      </defs>
      <use xlink:href="#DejaVuSans-Bold-52"/>
      <use xlink:href="#DejaVuSans-Bold-75" transform="translate(77.001953 0)"/>
     </g>
    </g>
   </g>
   <g id="text_6">
    <g clip-path="url(#pca374a6e88)">
     <!-- Ru -->
     <g style="fill: #ffffff" transform="translate(144.532988 64.058683) scale(0.12 -0.12)">
      <use xlink:href="#DejaVuSans-Bold-52"/>
      <use xlink:href="#DejaVuSans-Bold-75" transform="translate(77.001953 0)"/>
     </g>
    </g>
   </g>
   <g id="text_7">
    <g clip-path="url(#pca374a6e88)">
     <!-- Ru -->
     <g style="fill: #ffffff" transform="translate(76.099576 159.718608) scale(0.12 -0.12)">
      <use xlink:href="#DejaVuSans-Bold-52"/>
      <use xlink:href="#DejaVuSans-Bold-75" transform="translate(77.001953 0)"/>
     </g>
    </g>
   </g>
   <g id="text_8">
    <g clip-path="url(#pca374a6e88)">
     <!-- Ru -->
     <g style="fill: #ffffff" transform="translate(166.594096 88.268828) scale(0.12 -0.12)">
      <use xlink:href="#DejaVuSans-Bold-52"/>
      <use xlink:href="#DejaVuSans-Bold-75" transform="translate(77.001953 0)"/>
     </g>
    </g>
   </g>
   <g id="text_9">
    <g clip-path="url(#pca374a6e88)">
     <!-- Ru -->
     <g style="fill: #ffffff" transform="translate(127.125529 131.07851) scale(0.12 -0.12)">
      <use xlink:href="#DejaVuSans-Bold-52"/>
      <use xlink:href="#DejaVuSans-Bold-75" transform="translate(77.001953 0)"/>
     </g>
    </g>
   </g>
   <g id="text_10">
    <g clip-path="url(#pca374a6e88)">
     <!-- Ru -->
     <g style="fill: #ffffff" transform="translate(123.55951 57.114886) scale(0.12 -0.12)">
      <use xlink:href="#DejaVuSans-Bold-52"/>
      <use xlink:href="#DejaVuSans-Bold-75" transform="translate(77.001953 0)"/>
     </g>
    </g>
   </g>
   <g id="text_11">
    <g clip-path="url(#pca374a6e88)">
     <!-- Ru -->
     <g style="fill: #ffffff" transform="translate(82.642006 181.377555) scale(0.12 -0.12)">
      <use xlink:href="#DejaVuSans-Bold-52"/>
      <use xlink:href="#DejaVuSans-Bold-75" transform="translate(77.001953 0)"/>
     </g>
    </g>
   </g>
   <g id="text_12">
    <g clip-path="url(#pca374a6e88)">
     <!-- Ru -->
     <g style="fill: #ffffff" transform="translate(96.376263 73.753588) scale(0.12 -0.12)">
      <use xlink:href="#DejaVuSans-Bold-52"/>
      <use xlink:href="#DejaVuSans-Bold-75" transform="translate(77.001953 0)"/>
     </g>
    </g>
   </g>
   <g id="text_13">
    <g clip-path="url(#pca374a6e88)">
     <!-- O -->
     <g style="fill: #ffffff" transform="translate(63.635075 151.142349) scale(0.12 -0.12)">
      <defs>
       <path id="DejaVuSans-Bold-4f" d="M 2719 3878 
Q 2169 3878 1866 3472 
Q 1563 3066 1563 2328 
Q 1563 1594 1866 1187 
Q 2169 781 2719 781 
Q 3272 781 3575 1187 
Q 3878 1594 3878 2328 
Q 3878 3066 3575 3472 
Q 3272 3878 2719 3878 
z
M 2719 4750 
Q 3844 4750 4481 4106 
Q 5119 3463 5119 2328 
Q 5119 1197 4481 553 
Q 3844 -91 2719 -91 
Q 1597 -91 958 553 
Q 319 1197 319 2328 
Q 319 3463 958 4106 
Q 1597 4750 2719 4750 
z
" transform="scale(0.015625)"/>
      </defs>
      <use xlink:href="#DejaVuSans-Bold-4f"/>
     </g>
    </g>
   </g>
   <g id="text_14">
    <g clip-path="url(#pca374a6e88)">
     <!-- O -->
     <g style="fill: #ffffff" transform="translate(135.796478 96.325894) scale(0.12 -0.12)">
      <use xlink:href="#DejaVuSans-Bold-4f"/>
     </g>
    </g>
   </g>
   <g id="text_15">
    <g clip-path="url(#pca374a6e88)">
     <!-- O -->
     <g style="fill: #ffffff" transform="translate(58.720855 169.966146) scale(0.12 -0.12)">
      <use xlink:href="#DejaVuSans-Bold-4f"/>
     </g>
    </g>
   </g>
   <g id="text_16">
    <g clip-path="url(#pca374a6e88)">
     <!-- O -->
     <g style="fill: #ffffff" transform="translate(151.072639 119.476002) scale(0.12 -0.12)">
      <use xlink:href="#DejaVuSans-Bold-4f"/>
     </g>
    </g>
   </g>
   <g id="text_17">
    <g clip-path="url(#pca374a6e88)">
     <!-- O -->
     <g style="fill: #ffffff" transform="translate(105.804339 145.098888) scale(0.12 -0.12)">
      <use xlink:href="#DejaVuSans-Bold-4f"/>
     </g>
    </g>
   </g>
   <g id="text_18">
    <g clip-path="url(#pca374a6e88)">
     <!-- O -->
     <g style="fill: #ffffff" transform="translate(58.294769 127.620904) scale(0.12 -0.12)">
      <use xlink:href="#DejaVuSans-Bold-4f"/>
     </g>
    </g>
   </g>
   <g id="text_19">
    <g clip-path="url(#pca374a6e88)">
     <!-- O -->
     <g style="fill: #ffffff" transform="translate(65.104821 186.591003) scale(0.12 -0.12)">
      <use xlink:href="#DejaVuSans-Bold-4f"/>
     </g>
    </g>
   </g>
   <g id="text_20">
    <g clip-path="url(#pca374a6e88)">
     <!-- O -->
     <g style="fill: #ffffff" transform="translate(129.091765 86.143814) scale(0.12 -0.12)">
      <use xlink:href="#DejaVuSans-Bold-4f"/>
     </g>
    </g>
   </g>
   <g id="text_21">
    <g clip-path="url(#pca374a6e88)">
     <!-- O -->
     <g style="fill: #ffffff" transform="translate(70.795582 204.083135) scale(0.12 -0.12)">
      <use xlink:href="#DejaVuSans-Bold-4f"/>
     </g>
    </g>
   </g>
   <g id="text_22">
    <g clip-path="url(#pca374a6e88)">
     <!-- O -->
     <g style="fill: #ffffff" transform="translate(115.00865 110.316724) scale(0.12 -0.12)">
      <use xlink:href="#DejaVuSans-Bold-4f"/>
     </g>
    </g>
   </g>
   <g id="text_23">
    <g clip-path="url(#pca374a6e88)">
     <!-- O -->
     <g style="fill: #ffffff" transform="translate(112.798212 164.593323) scale(0.12 -0.12)">
      <use xlink:href="#DejaVuSans-Bold-4f"/>
     </g>
    </g>
   </g>
   <g id="text_24">
    <g clip-path="url(#pca374a6e88)">
     <!-- O -->
     <g style="fill: #ffffff" transform="translate(89.450691 221.691457) scale(0.12 -0.12)">
      <use xlink:href="#DejaVuSans-Bold-4f"/>
     </g>
    </g>
   </g>
   <g id="text_25">
    <g clip-path="url(#pca374a6e88)">
     <!-- C -->
     <g style="fill: #ffffff" transform="translate(184.374511 173.459921) scale(0.12 -0.12)">
      <defs>
       <path id="DejaVuSans-Bold-43" d="M 4288 256 
Q 3956 84 3597 -3 
Q 3238 -91 2847 -91 
Q 1681 -91 1000 561 
Q 319 1213 319 2328 
Q 319 3447 1000 4098 
Q 1681 4750 2847 4750 
Q 3238 4750 3597 4662 
Q 3956 4575 4288 4403 
L 4288 3438 
Q 3953 3666 3628 3772 
Q 3303 3878 2944 3878 
Q 2300 3878 1931 3465 
Q 1563 3053 1563 2328 
Q 1563 1606 1931 1193 
Q 2300 781 2944 781 
Q 3303 781 3628 887 
Q 3953 994 4288 1222 
L 4288 256 
z
" transform="scale(0.015625)"/>
      </defs>
      <use xlink:href="#DejaVuSans-Bold-43"/>
     </g>
    </g>
   </g>
   <g id="text_26">
    <g clip-path="url(#pca374a6e88)">
     <!-- C -->
     <g style="fill: #ffffff" transform="translate(167.724509 201.632318) scale(0.12 -0.12)">
      <use xlink:href="#DejaVuSans-Bold-43"/>
     </g>
    </g>
   </g>
   <g id="text_27">
    <g clip-path="url(#pca374a6e88)">
     <!-- C -->
     <g style="fill: #ffffff" transform="translate(211.248724 185.342097) scale(0.12 -0.12)">
      <use xlink:href="#DejaVuSans-Bold-43"/>
     </g>
    </g>
   </g>
   <g id="text_28">
    <g clip-path="url(#pca374a6e88)">
     <!-- H -->
     <g style="fill: #ffffff" transform="translate(161.37896 240.387614) scale(0.12 -0.12)">
      <use xlink:href="#DejaVuSans-Bold-48"/>
     </g>
    </g>
   </g>
   <g id="text_29">
    <g clip-path="url(#pca374a6e88)">
     <!-- H -->
     <g style="fill: #ffffff" transform="translate(145.711398 177.106459) scale(0.12 -0.12)">
      <use xlink:href="#DejaVuSans-Bold-48"/>
     </g>
    </g>
   </g>
   <g id="text_30">
    <g clip-path="url(#pca374a6e88)">
     <!-- H -->
     <g style="fill: #ffffff" transform="translate(179.318021 234.116664) scale(0.12 -0.12)">
      <use xlink:href="#DejaVuSans-Bold-48"/>
     </g>
    </g>
   </g>
   <g id="text_31">
    <g clip-path="url(#pca374a6e88)">
     <!-- H -->
     <g style="fill: #ffffff" transform="translate(221.176748 222.00646) scale(0.12 -0.12)">
      <use xlink:href="#DejaVuSans-Bold-48"/>
     </g>
    </g>
   </g>
   <g id="text_32">
    <g clip-path="url(#pca374a6e88)">
     <!-- H -->
     <g style="fill: #ffffff" transform="translate(234.810155 193.973084) scale(0.12 -0.12)">
      <use xlink:href="#DejaVuSans-Bold-48"/>
     </g>
    </g>
   </g>
   <g id="text_33">
    <!-- C3H8O80Ru40S -->
    <g transform="translate(141.70987 9.942669) scale(0.1 -0.1)">
     <defs>
      <path id="DejaVuSans-43" d="M 4122 4306 
L 4122 3641 
Q 3803 3938 3442 4084 
Q 3081 4231 2675 4231 
Q 1875 4231 1450 3742 
Q 1025 3253 1025 2328 
Q 1025 1406 1450 917 
Q 1875 428 2675 428 
Q 3081 428 3442 575 
Q 3803 722 4122 1019 
L 4122 359 
Q 3791 134 3420 21 
Q 3050 -91 2638 -91 
Q 1578 -91 968 557 
Q 359 1206 359 2328 
Q 359 3453 968 4101 
Q 1578 4750 2638 4750 
Q 3056 4750 3426 4639 
Q 3797 4528 4122 4306 
z
" transform="scale(0.015625)"/>
      <path id="DejaVuSans-33" d="M 2597 2516 
Q 3050 2419 3304 2112 
Q 3559 1806 3559 1356 
Q 3559 666 3084 287 
Q 2609 -91 1734 -91 
Q 1441 -91 1130 -33 
Q 819 25 488 141 
L 488 750 
Q 750 597 1062 519 
Q 1375 441 1716 441 
Q 2309 441 2620 675 
Q 2931 909 2931 1356 
Q 2931 1769 2642 2001 
Q 2353 2234 1838 2234 
L 1294 2234 
L 1294 2753 
L 1863 2753 
Q 2328 2753 2575 2939 
Q 2822 3125 2822 3475 
Q 2822 3834 2567 4026 
Q 2313 4219 1838 4219 
Q 1578 4219 1281 4162 
Q 984 4106 628 3988 
L 628 4550 
Q 988 4650 1302 4700 
Q 1616 4750 1894 4750 
Q 2613 4750 3031 4423 
Q 3450 4097 3450 3541 
Q 3450 3153 3228 2886 
Q 3006 2619 2597 2516 
z
" transform="scale(0.015625)"/>
      <path id="DejaVuSans-48" d="M 628 4666 
L 1259 4666 
L 1259 2753 
L 3553 2753 
L 3553 4666 
L 4184 4666 
L 4184 0 
L 3553 0 
L 3553 2222 
L 1259 2222 
L 1259 0 
L 628 0 
L 628 4666 
z
" transform="scale(0.015625)"/>
      <path id="DejaVuSans-38" d="M 2034 2216 
Q 1584 2216 1326 1975 
Q 1069 1734 1069 1313 
Q 1069 891 1326 650 
Q 1584 409 2034 409 
Q 2484 409 2743 651 
Q 3003 894 3003 1313 
Q 3003 1734 2745 1975 
Q 2488 2216 2034 2216 
z
M 1403 2484 
Q 997 2584 770 2862 
Q 544 3141 544 3541 
Q 544 4100 942 4425 
Q 1341 4750 2034 4750 
Q 2731 4750 3128 4425 
Q 3525 4100 3525 3541 
Q 3525 3141 3298 2862 
Q 3072 2584 2669 2484 
Q 3125 2378 3379 2068 
Q 3634 1759 3634 1313 
Q 3634 634 3220 271 
Q 2806 -91 2034 -91 
Q 1263 -91 848 271 
Q 434 634 434 1313 
Q 434 1759 690 2068 
Q 947 2378 1403 2484 
z
M 1172 3481 
Q 1172 3119 1398 2916 
Q 1625 2713 2034 2713 
Q 2441 2713 2670 2916 
Q 2900 3119 2900 3481 
Q 2900 3844 2670 4047 
Q 2441 4250 2034 4250 
Q 1625 4250 1398 4047 
Q 1172 3844 1172 3481 
z
" transform="scale(0.015625)"/>
      <path id="DejaVuSans-4f" d="M 2522 4238 
Q 1834 4238 1429 3725 
Q 1025 3213 1025 2328 
Q 1025 1447 1429 934 
Q 1834 422 2522 422 
Q 3209 422 3611 934 
Q 4013 1447 4013 2328 
Q 4013 3213 3611 3725 
Q 3209 4238 2522 4238 
z
M 2522 4750 
Q 3503 4750 4090 4092 
Q 4678 3434 4678 2328 
Q 4678 1225 4090 567 
Q 3503 -91 2522 -91 
Q 1538 -91 948 565 
Q 359 1222 359 2328 
Q 359 3434 948 4092 
Q 1538 4750 2522 4750 
z
" transform="scale(0.015625)"/>
      <path id="DejaVuSans-30" d="M 2034 4250 
Q 1547 4250 1301 3770 
Q 1056 3291 1056 2328 
Q 1056 1369 1301 889 
Q 1547 409 2034 409 
Q 2525 409 2770 889 
Q 3016 1369 3016 2328 
Q 3016 3291 2770 3770 
Q 2525 4250 2034 4250 
z
M 2034 4750 
Q 2819 4750 3233 4129 
Q 3647 3509 3647 2328 
Q 3647 1150 3233 529 
Q 2819 -91 2034 -91 
Q 1250 -91 836 529 
Q 422 1150 422 2328 
Q 422 3509 836 4129 
Q 1250 4750 2034 4750 
z
" transform="scale(0.015625)"/>
      <path id="DejaVuSans-52" d="M 2841 2188 
Q 3044 2119 3236 1894 
Q 3428 1669 3622 1275 
L 4263 0 
L 3584 0 
L 2988 1197 
Q 2756 1666 2539 1819 
Q 2322 1972 1947 1972 
L 1259 1972 
L 1259 0 
L 628 0 
L 628 4666 
L 2053 4666 
Q 2853 4666 3247 4331 
Q 3641 3997 3641 3322 
Q 3641 2881 3436 2590 
Q 3231 2300 2841 2188 
z
M 1259 4147 
L 1259 2491 
L 2053 2491 
Q 2509 2491 2742 2702 
Q 2975 2913 2975 3322 
Q 2975 3731 2742 3939 
Q 2509 4147 2053 4147 
L 1259 4147 
z
" transform="scale(0.015625)"/>
      <path id="DejaVuSans-75" d="M 544 1381 
L 544 3500 
L 1119 3500 
L 1119 1403 
Q 1119 906 1312 657 
Q 1506 409 1894 409 
Q 2359 409 2629 706 
Q 2900 1003 2900 1516 
L 2900 3500 
L 3475 3500 
L 3475 0 
L 2900 0 
L 2900 538 
Q 2691 219 2414 64 
Q 2138 -91 1772 -91 
Q 1169 -91 856 284 
Q 544 659 544 1381 
z
M 1991 3584 
L 1991 3584 
z
" transform="scale(0.015625)"/>
      <path id="DejaVuSans-34" d="M 2419 4116 
L 825 1625 
L 2419 1625 
L 2419 4116 
z
M 2253 4666 
L 3047 4666 
L 3047 1625 
L 3713 1625 
L 3713 1100 
L 3047 1100 
L 3047 0 
L 2419 0 
L 2419 1100 
L 313 1100 
L 313 1709 
L 2253 4666 
z
" transform="scale(0.015625)"/>
      <path id="DejaVuSans-53" d="M 3425 4513 
L 3425 3897 
Q 3066 4069 2747 4153 
Q 2428 4238 2131 4238 
Q 1616 4238 1336 4038 
Q 1056 3838 1056 3469 
Q 1056 3159 1242 3001 
Q 1428 2844 1947 2747 
L 2328 2669 
Q 3034 2534 3370 2195 
Q 3706 1856 3706 1288 
Q 3706 609 3251 259 
Q 2797 -91 1919 -91 
Q 1588 -91 1214 -16 
Q 841 59 441 206 
L 441 856 
Q 825 641 1194 531 
Q 1563 422 1919 422 
Q 2459 422 2753 634 
Q 3047 847 3047 1241 
Q 3047 1584 2836 1778 
Q 2625 1972 2144 2069 
L 1759 2144 
Q 1053 2284 737 2584 
Q 422 2884 422 3419 
Q 422 4038 858 4394 
Q 1294 4750 2059 4750 
Q 2388 4750 2728 4690 
Q 3069 4631 3425 4513 
z
" transform="scale(0.015625)"/>
     </defs>
     <use xlink:href="#DejaVuSans-43"/>
     <use xlink:href="#DejaVuSans-33" transform="translate(69.824219 0)"/>
     <use xlink:href="#DejaVuSans-48" transform="translate(133.447266 0)"/>
     <use xlink:href="#DejaVuSans-38" transform="translate(208.642578 0)"/>
     <use xlink:href="#DejaVuSans-4f" transform="translate(272.265625 0)"/>
     <use xlink:href="#DejaVuSans-38" transform="translate(350.976562 0)"/>
     <use xlink:href="#DejaVuSans-30" transform="translate(414.599609 0)"/>
     <use xlink:href="#DejaVuSans-52" transform="translate(478.222656 0)"/>
     <use xlink:href="#DejaVuSans-75" transform="translate(543.205078 0)"/>
     <use xlink:href="#DejaVuSans-34" transform="translate(606.583984 0)"/>
     <use xlink:href="#DejaVuSans-30" transform="translate(670.207031 0)"/>
     <use xlink:href="#DejaVuSans-53" transform="translate(733.830078 0)"/>
    </g>
    <!-- Error: 1.11 eV -->
    <g transform="translate(141.70987 21.140481) scale(0.1 -0.1)">
     <defs>
      <path id="DejaVuSans-45" d="M 628 4666 
L 3578 4666 
L 3578 4134 
L 1259 4134 
L 1259 2753 
L 3481 2753 
L 3481 2222 
L 1259 2222 
L 1259 531 
L 3634 531 
L 3634 0 
L 628 0 
L 628 4666 
z
" transform="scale(0.015625)"/>
      <path id="DejaVuSans-72" d="M 2631 2963 
Q 2534 3019 2420 3045 
Q 2306 3072 2169 3072 
Q 1681 3072 1420 2755 
Q 1159 2438 1159 1844 
L 1159 0 
L 581 0 
L 581 3500 
L 1159 3500 
L 1159 2956 
Q 1341 3275 1631 3429 
Q 1922 3584 2338 3584 
Q 2397 3584 2469 3576 
Q 2541 3569 2628 3553 
L 2631 2963 
z
" transform="scale(0.015625)"/>
      <path id="DejaVuSans-6f" d="M 1959 3097 
Q 1497 3097 1228 2736 
Q 959 2375 959 1747 
Q 959 1119 1226 758 
Q 1494 397 1959 397 
Q 2419 397 2687 759 
Q 2956 1122 2956 1747 
Q 2956 2369 2687 2733 
Q 2419 3097 1959 3097 
z
M 1959 3584 
Q 2709 3584 3137 3096 
Q 3566 2609 3566 1747 
Q 3566 888 3137 398 
Q 2709 -91 1959 -91 
Q 1206 -91 779 398 
Q 353 888 353 1747 
Q 353 2609 779 3096 
Q 1206 3584 1959 3584 
z
" transform="scale(0.015625)"/>
      <path id="DejaVuSans-3a" d="M 750 794 
L 1409 794 
L 1409 0 
L 750 0 
L 750 794 
z
M 750 3309 
L 1409 3309 
L 1409 2516 
L 750 2516 
L 750 3309 
z
" transform="scale(0.015625)"/>
      <path id="DejaVuSans-20" transform="scale(0.015625)"/>
      <path id="DejaVuSans-31" d="M 794 531 
L 1825 531 
L 1825 4091 
L 703 3866 
L 703 4441 
L 1819 4666 
L 2450 4666 
L 2450 531 
L 3481 531 
L 3481 0 
L 794 0 
L 794 531 
z
" transform="scale(0.015625)"/>
      <path id="DejaVuSans-2e" d="M 684 794 
L 1344 794 
L 1344 0 
L 684 0 
L 684 794 
z
" transform="scale(0.015625)"/>
      <path id="DejaVuSans-65" d="M 3597 1894 
L 3597 1613 
L 953 1613 
Q 991 1019 1311 708 
Q 1631 397 2203 397 
Q 2534 397 2845 478 
Q 3156 559 3463 722 
L 3463 178 
Q 3153 47 2828 -22 
Q 2503 -91 2169 -91 
Q 1331 -91 842 396 
Q 353 884 353 1716 
Q 353 2575 817 3079 
Q 1281 3584 2069 3584 
Q 2775 3584 3186 3129 
Q 3597 2675 3597 1894 
z
M 3022 2063 
Q 3016 2534 2758 2815 
Q 2500 3097 2075 3097 
Q 1594 3097 1305 2825 
Q 1016 2553 972 2059 
L 3022 2063 
z
" transform="scale(0.015625)"/>
      <path id="DejaVuSans-56" d="M 1831 0 
L 50 4666 
L 709 4666 
L 2188 738 
L 3669 4666 
L 4325 4666 
L 2547 0 
L 1831 0 
z
" transform="scale(0.015625)"/>
     </defs>
     <use xlink:href="#DejaVuSans-45"/>
     <use xlink:href="#DejaVuSans-72" transform="translate(63.183594 0)"/>
     <use xlink:href="#DejaVuSans-72" transform="translate(102.546875 0)"/>
     <use xlink:href="#DejaVuSans-6f" transform="translate(141.410156 0)"/>
     <use xlink:href="#DejaVuSans-72" transform="translate(202.591797 0)"/>
     <use xlink:href="#DejaVuSans-3a" transform="translate(241.955078 0)"/>
     <use xlink:href="#DejaVuSans-20" transform="translate(275.646484 0)"/>
     <use xlink:href="#DejaVuSans-31" transform="translate(307.433594 0)"/>
     <use xlink:href="#DejaVuSans-2e" transform="translate(371.056641 0)"/>
     <use xlink:href="#DejaVuSans-31" transform="translate(402.84375 0)"/>
     <use xlink:href="#DejaVuSans-31" transform="translate(466.466797 0)"/>
     <use xlink:href="#DejaVuSans-20" transform="translate(530.089844 0)"/>
     <use xlink:href="#DejaVuSans-65" transform="translate(561.876953 0)"/>
     <use xlink:href="#DejaVuSans-56" transform="translate(623.400391 0)"/>
    </g>
   </g>
  </g>
 </g>
 <defs>
  <clipPath id="pca374a6e88">
   <rect x="36" y="34.56" width="223.2" height="221.76"/>
  </clipPath>
 </defs>
</svg>
