<?xml version="1.0" encoding="utf-8" standalone="no"?>
<!DOCTYPE svg PUBLIC "-//W3C//DTD SVG 1.1//EN"
  "http://www.w3.org/Graphics/SVG/1.1/DTD/svg11.dtd">
<svg xmlns:xlink="http://www.w3.org/1999/xlink" width="288pt" height="288pt" viewBox="0 0 288 288" xmlns="http://www.w3.org/2000/svg" version="1.1">
 <metadata>
  <rdf:RDF xmlns:dc="http://purl.org/dc/elements/1.1/" xmlns:cc="http://creativecommons.org/ns#" xmlns:rdf="http://www.w3.org/1999/02/22-rdf-syntax-ns#">
   <cc:Work>
    <dc:type rdf:resource="http://purl.org/dc/dcmitype/StillImage"/>
    <dc:date>2025-06-03T14:57:52.370773</dc:date>
    <dc:format>image/svg+xml</dc:format>
    <dc:creator>
     <cc:Agent>
      <dc:title>Matplotlib v3.10.1, https://matplotlib.org/</dc:title>
     </cc:Agent>
    </dc:creator>
   </cc:Work>
  </rdf:RDF>
 </metadata>
 <defs>
  <style type="text/css">*{stroke-linejoin: round; stroke-linecap: butt}</style>
 </defs>
 <g id="figure_1">
  <g id="patch_1">
   <path d="M 0 288 
L 288 288 
L 288 0 
L 0 0 
z
" style="fill: #ffffff"/>
  </g>
  <g id="axes_1">
   <g id="LineCollection_1">
    <path d="M 216.786009 206.940814 
L 187.475444 197.204015 
" clip-path="url(#pe87badad2a)" style="fill: none; stroke: #000000; stroke-width: 1.2"/>
    <path d="M 239.831405 164.974181 
L 209.151116 165.32982 
" clip-path="url(#pe87badad2a)" style="fill: none; stroke: #000000; stroke-width: 1.2"/>
    <path d="M 235.051903 147.046958 
L 209.151116 165.32982 
" clip-path="url(#pe87badad2a)" style="fill: none; stroke: #000000; stroke-width: 1.2"/>
    <path d="M 156.003006 58.857543 
L 131.603697 53.803636 
" clip-path="url(#pe87badad2a)" style="fill: none; stroke: #000000; stroke-width: 1.2"/>
    <path d="M 156.003006 58.857543 
L 148.938417 86.245027 
" clip-path="url(#pe87badad2a)" style="fill: none; stroke: #000000; stroke-width: 1.2"/>
    <path d="M 146.392197 150.195204 
L 180.79931 139.392863 
" clip-path="url(#pe87badad2a)" style="fill: none; stroke: #000000; stroke-width: 1.2"/>
    <path d="M 146.392197 150.195204 
L 118.803483 161.609948 
" clip-path="url(#pe87badad2a)" style="fill: none; stroke: #000000; stroke-width: 1.2"/>
    <path d="M 146.392197 150.195204 
L 138.762548 124.741989 
" clip-path="url(#pe87badad2a)" style="fill: none; stroke: #000000; stroke-width: 1.2"/>
    <path d="M 146.392197 150.195204 
L 129.331724 171.335994 
" clip-path="url(#pe87badad2a)" style="fill: none; stroke: #000000; stroke-width: 1.2"/>
    <path d="M 146.392197 150.195204 
L 127.252217 125.174902 
" clip-path="url(#pe87badad2a)" style="fill: none; stroke: #000000; stroke-width: 1.2"/>
    <path d="M 146.392197 150.195204 
L 155.919292 135.842596 
" clip-path="url(#pe87badad2a)" style="fill: none; stroke: #000000; stroke-width: 1.2"/>
    <path d="M 146.392197 150.195204 
L 146.5381 174.083192 
" clip-path="url(#pe87badad2a)" style="fill: none; stroke: #000000; stroke-width: 1.2"/>
    <path d="M 204.937955 127.291203 
L 180.79931 139.392863 
" clip-path="url(#pe87badad2a)" style="fill: none; stroke: #000000; stroke-width: 1.2"/>
    <path d="M 204.937955 127.291203 
L 174.524003 128.302766 
" clip-path="url(#pe87badad2a)" style="fill: none; stroke: #000000; stroke-width: 1.2"/>
    <path d="M 127.239402 109.000286 
L 148.938417 86.245027 
" clip-path="url(#pe87badad2a)" style="fill: none; stroke: #000000; stroke-width: 1.2"/>
    <path d="M 127.239402 109.000286 
L 100.877897 97.170227 
" clip-path="url(#pe87badad2a)" style="fill: none; stroke: #000000; stroke-width: 1.2"/>
    <path d="M 127.239402 109.000286 
L 138.762548 124.741989 
" clip-path="url(#pe87badad2a)" style="fill: none; stroke: #000000; stroke-width: 1.2"/>
    <path d="M 127.239402 109.000286 
L 91.202621 120.431125 
" clip-path="url(#pe87badad2a)" style="fill: none; stroke: #000000; stroke-width: 1.2"/>
    <path d="M 127.239402 109.000286 
L 130.870593 79.792752 
" clip-path="url(#pe87badad2a)" style="fill: none; stroke: #000000; stroke-width: 1.2"/>
    <path d="M 127.239402 109.000286 
L 107.732658 87.159024 
" clip-path="url(#pe87badad2a)" style="fill: none; stroke: #000000; stroke-width: 1.2"/>
    <path d="M 127.239402 109.000286 
L 155.919292 135.842596 
" clip-path="url(#pe87badad2a)" style="fill: none; stroke: #000000; stroke-width: 1.2"/>
    <path d="M 55.368595 208.724548 
L 81.632117 194.625484 
" clip-path="url(#pe87badad2a)" style="fill: none; stroke: #000000; stroke-width: 1.2"/>
    <path d="M 65.426373 138.083514 
L 91.202621 120.431125 
" clip-path="url(#pe87badad2a)" style="fill: none; stroke: #000000; stroke-width: 1.2"/>
    <path d="M 65.426373 138.083514 
L 81.035612 165.535715 
" clip-path="url(#pe87badad2a)" style="fill: none; stroke: #000000; stroke-width: 1.2"/>
    <path d="M 110.602412 185.089026 
L 118.803483 161.609948 
" clip-path="url(#pe87badad2a)" style="fill: none; stroke: #000000; stroke-width: 1.2"/>
    <path d="M 110.602412 185.089026 
L 81.632117 194.625484 
" clip-path="url(#pe87badad2a)" style="fill: none; stroke: #000000; stroke-width: 1.2"/>
    <path d="M 110.602412 185.089026 
L 113.089013 212.835323 
" clip-path="url(#pe87badad2a)" style="fill: none; stroke: #000000; stroke-width: 1.2"/>
    <path d="M 110.602412 185.089026 
L 81.035612 165.535715 
" clip-path="url(#pe87badad2a)" style="fill: none; stroke: #000000; stroke-width: 1.2"/>
    <path d="M 110.602412 185.089026 
L 95.389524 210.858534 
" clip-path="url(#pe87badad2a)" style="fill: none; stroke: #000000; stroke-width: 1.2"/>
    <path d="M 110.602412 185.089026 
L 125.563435 209.437944 
" clip-path="url(#pe87badad2a)" style="fill: none; stroke: #000000; stroke-width: 1.2"/>
    <path d="M 110.602412 185.089026 
L 146.5381 174.083192 
" clip-path="url(#pe87badad2a)" style="fill: none; stroke: #000000; stroke-width: 1.2"/>
    <path d="M 131.603697 53.803636 
L 130.870593 79.792752 
" clip-path="url(#pe87badad2a)" style="fill: none; stroke: #000000; stroke-width: 1.2"/>
    <path d="M 140.411123 147.046141 
L 118.803483 161.609948 
" clip-path="url(#pe87badad2a)" style="fill: none; stroke: #000000; stroke-width: 1.2"/>
    <path d="M 140.411123 147.046141 
L 138.762548 124.741989 
" clip-path="url(#pe87badad2a)" style="fill: none; stroke: #000000; stroke-width: 1.2"/>
    <path d="M 140.411123 147.046141 
L 174.524003 128.302766 
" clip-path="url(#pe87badad2a)" style="fill: none; stroke: #000000; stroke-width: 1.2"/>
    <path d="M 140.411123 147.046141 
L 129.331724 171.335994 
" clip-path="url(#pe87badad2a)" style="fill: none; stroke: #000000; stroke-width: 1.2"/>
    <path d="M 140.411123 147.046141 
L 127.252217 125.174902 
" clip-path="url(#pe87badad2a)" style="fill: none; stroke: #000000; stroke-width: 1.2"/>
    <path d="M 140.411123 147.046141 
L 155.919292 135.842596 
" clip-path="url(#pe87badad2a)" style="fill: none; stroke: #000000; stroke-width: 1.2"/>
    <path d="M 140.411123 147.046141 
L 146.5381 174.083192 
" clip-path="url(#pe87badad2a)" style="fill: none; stroke: #000000; stroke-width: 1.2"/>
    <path d="M 194.813327 111.676795 
L 180.79931 139.392863 
" clip-path="url(#pe87badad2a)" style="fill: none; stroke: #000000; stroke-width: 1.2"/>
    <path d="M 194.813327 111.676795 
L 174.524003 128.302766 
" clip-path="url(#pe87badad2a)" style="fill: none; stroke: #000000; stroke-width: 1.2"/>
    <path d="M 125.897567 94.960536 
L 148.938417 86.245027 
" clip-path="url(#pe87badad2a)" style="fill: none; stroke: #000000; stroke-width: 1.2"/>
    <path d="M 125.897567 94.960536 
L 100.877897 97.170227 
" clip-path="url(#pe87badad2a)" style="fill: none; stroke: #000000; stroke-width: 1.2"/>
    <path d="M 125.897567 94.960536 
L 130.870593 79.792752 
" clip-path="url(#pe87badad2a)" style="fill: none; stroke: #000000; stroke-width: 1.2"/>
    <path d="M 125.897567 94.960536 
L 107.732658 87.159024 
" clip-path="url(#pe87badad2a)" style="fill: none; stroke: #000000; stroke-width: 1.2"/>
    <path d="M 125.897567 94.960536 
L 127.252217 125.174902 
" clip-path="url(#pe87badad2a)" style="fill: none; stroke: #000000; stroke-width: 1.2"/>
    <path d="M 87.294144 237.076364 
L 95.389524 210.858534 
" clip-path="url(#pe87badad2a)" style="fill: none; stroke: #000000; stroke-width: 1.2"/>
    <path d="M 73.821522 141.409436 
L 91.202621 120.431125 
" clip-path="url(#pe87badad2a)" style="fill: none; stroke: #000000; stroke-width: 1.2"/>
    <path d="M 73.821522 141.409436 
L 81.035612 165.535715 
" clip-path="url(#pe87badad2a)" style="fill: none; stroke: #000000; stroke-width: 1.2"/>
    <path d="M 107.075553 194.619683 
L 81.632117 194.625484 
" clip-path="url(#pe87badad2a)" style="fill: none; stroke: #000000; stroke-width: 1.2"/>
    <path d="M 107.075553 194.619683 
L 113.089013 212.835323 
" clip-path="url(#pe87badad2a)" style="fill: none; stroke: #000000; stroke-width: 1.2"/>
    <path d="M 107.075553 194.619683 
L 129.331724 171.335994 
" clip-path="url(#pe87badad2a)" style="fill: none; stroke: #000000; stroke-width: 1.2"/>
    <path d="M 107.075553 194.619683 
L 95.389524 210.858534 
" clip-path="url(#pe87badad2a)" style="fill: none; stroke: #000000; stroke-width: 1.2"/>
    <path d="M 107.075553 194.619683 
L 125.563435 209.437944 
" clip-path="url(#pe87badad2a)" style="fill: none; stroke: #000000; stroke-width: 1.2"/>
    <path d="M 175.197179 168.933021 
L 187.475444 197.204015 
" clip-path="url(#pe87badad2a)" style="fill: none; stroke: #000000; stroke-width: 1.2"/>
    <path d="M 175.197179 168.933021 
L 209.151116 165.32982 
" clip-path="url(#pe87badad2a)" style="fill: none; stroke: #000000; stroke-width: 1.2"/>
    <path d="M 175.197179 168.933021 
L 155.919292 135.842596 
" clip-path="url(#pe87badad2a)" style="fill: none; stroke: #000000; stroke-width: 1.2"/>
    <path d="M 175.197179 168.933021 
L 146.5381 174.083192 
" clip-path="url(#pe87badad2a)" style="fill: none; stroke: #000000; stroke-width: 1.2"/>
    <path d="M 187.475444 197.204015 
L 182.992739 225.45673 
" clip-path="url(#pe87badad2a)" style="fill: none; stroke: #000000; stroke-width: 1.2"/>
    <path d="M 187.475444 197.204015 
L 202.643081 220.963751 
" clip-path="url(#pe87badad2a)" style="fill: none; stroke: #000000; stroke-width: 1.2"/>
    <path d="M 209.151116 165.32982 
L 232.896597 183.228939 
" clip-path="url(#pe87badad2a)" style="fill: none; stroke: #000000; stroke-width: 1.2"/>
   </g>
   <g id="PathCollection_1">
    <defs>
     <path id="C0_0_3faaca19d8" d="M 0 8.944272 
C 2.372049 8.944272 4.647264 8.001847 6.324555 6.324555 
C 8.001847 4.647264 8.944272 2.372049 8.944272 -0 
C 8.944272 -2.372049 8.001847 -4.647264 6.324555 -6.324555 
C 4.647264 -8.001847 2.372049 -8.944272 0 -8.944272 
C -2.372049 -8.944272 -4.647264 -8.001847 -6.324555 -6.324555 
C -8.001847 -4.647264 -8.944272 -2.372049 -8.944272 0 
C -8.944272 2.372049 -8.001847 4.647264 -6.324555 6.324555 
C -4.647264 8.001847 -2.372049 8.944272 0 8.944272 
z
"/>
    </defs>
    <g clip-path="url(#pe87badad2a)">
     <use xlink:href="#C0_0_3faaca19d8" x="216.786009" y="206.940814" style="fill: #bfbfbf; stroke: #bfbfbf; stroke-width: 0.5"/>
    </g>
    <g clip-path="url(#pe87badad2a)">
     <use xlink:href="#C0_0_3faaca19d8" x="239.831405" y="164.974181" style="fill: #bfbfbf; stroke: #bfbfbf; stroke-width: 0.5"/>
    </g>
    <g clip-path="url(#pe87badad2a)">
     <use xlink:href="#C0_0_3faaca19d8" x="235.051903" y="147.046958" style="fill: #bfbfbf; stroke: #bfbfbf; stroke-width: 0.5"/>
    </g>
    <g clip-path="url(#pe87badad2a)">
     <use xlink:href="#C0_0_3faaca19d8" x="156.003006" y="58.857543" style="fill: #bfc2c7; stroke: #bfc2c7; stroke-width: 0.5"/>
    </g>
    <g clip-path="url(#pe87badad2a)">
     <use xlink:href="#C0_0_3faaca19d8" x="146.392197" y="150.195204" style="fill: #bfc2c7; stroke: #bfc2c7; stroke-width: 0.5"/>
    </g>
    <g clip-path="url(#pe87badad2a)">
     <use xlink:href="#C0_0_3faaca19d8" x="204.937955" y="127.291203" style="fill: #bfc2c7; stroke: #bfc2c7; stroke-width: 0.5"/>
    </g>
    <g clip-path="url(#pe87badad2a)">
     <use xlink:href="#C0_0_3faaca19d8" x="127.239402" y="109.000286" style="fill: #bfc2c7; stroke: #bfc2c7; stroke-width: 0.5"/>
    </g>
    <g clip-path="url(#pe87badad2a)">
     <use xlink:href="#C0_0_3faaca19d8" x="55.368595" y="208.724548" style="fill: #bfc2c7; stroke: #bfc2c7; stroke-width: 0.5"/>
    </g>
    <g clip-path="url(#pe87badad2a)">
     <use xlink:href="#C0_0_3faaca19d8" x="65.426373" y="138.083514" style="fill: #bfc2c7; stroke: #bfc2c7; stroke-width: 0.5"/>
    </g>
    <g clip-path="url(#pe87badad2a)">
     <use xlink:href="#C0_0_3faaca19d8" x="110.602412" y="185.089026" style="fill: #bfc2c7; stroke: #bfc2c7; stroke-width: 0.5"/>
    </g>
    <g clip-path="url(#pe87badad2a)">
     <use xlink:href="#C0_0_3faaca19d8" x="131.603697" y="53.803636" style="fill: #bfc2c7; stroke: #bfc2c7; stroke-width: 0.5"/>
    </g>
    <g clip-path="url(#pe87badad2a)">
     <use xlink:href="#C0_0_3faaca19d8" x="140.411123" y="147.046141" style="fill: #bfc2c7; stroke: #bfc2c7; stroke-width: 0.5"/>
    </g>
    <g clip-path="url(#pe87badad2a)">
     <use xlink:href="#C0_0_3faaca19d8" x="194.813327" y="111.676795" style="fill: #bfc2c7; stroke: #bfc2c7; stroke-width: 0.5"/>
    </g>
    <g clip-path="url(#pe87badad2a)">
     <use xlink:href="#C0_0_3faaca19d8" x="125.897567" y="94.960536" style="fill: #bfc2c7; stroke: #bfc2c7; stroke-width: 0.5"/>
    </g>
    <g clip-path="url(#pe87badad2a)">
     <use xlink:href="#C0_0_3faaca19d8" x="87.294144" y="237.076364" style="fill: #bfc2c7; stroke: #bfc2c7; stroke-width: 0.5"/>
    </g>
    <g clip-path="url(#pe87badad2a)">
     <use xlink:href="#C0_0_3faaca19d8" x="73.821522" y="141.409436" style="fill: #bfc2c7; stroke: #bfc2c7; stroke-width: 0.5"/>
    </g>
    <g clip-path="url(#pe87badad2a)">
     <use xlink:href="#C0_0_3faaca19d8" x="107.075553" y="194.619683" style="fill: #bfc2c7; stroke: #bfc2c7; stroke-width: 0.5"/>
    </g>
    <g clip-path="url(#pe87badad2a)">
     <use xlink:href="#C0_0_3faaca19d8" x="148.938417" y="86.245027" style="fill: #ff0d0d; stroke: #ff0d0d; stroke-width: 0.5"/>
    </g>
    <g clip-path="url(#pe87badad2a)">
     <use xlink:href="#C0_0_3faaca19d8" x="180.79931" y="139.392863" style="fill: #ff0d0d; stroke: #ff0d0d; stroke-width: 0.5"/>
    </g>
    <g clip-path="url(#pe87badad2a)">
     <use xlink:href="#C0_0_3faaca19d8" x="100.877897" y="97.170227" style="fill: #ff0d0d; stroke: #ff0d0d; stroke-width: 0.5"/>
    </g>
    <g clip-path="url(#pe87badad2a)">
     <use xlink:href="#C0_0_3faaca19d8" x="118.803483" y="161.609948" style="fill: #ff0d0d; stroke: #ff0d0d; stroke-width: 0.5"/>
    </g>
    <g clip-path="url(#pe87badad2a)">
     <use xlink:href="#C0_0_3faaca19d8" x="138.762548" y="124.741989" style="fill: #ff0d0d; stroke: #ff0d0d; stroke-width: 0.5"/>
    </g>
    <g clip-path="url(#pe87badad2a)">
     <use xlink:href="#C0_0_3faaca19d8" x="81.632117" y="194.625484" style="fill: #ff0d0d; stroke: #ff0d0d; stroke-width: 0.5"/>
    </g>
    <g clip-path="url(#pe87badad2a)">
     <use xlink:href="#C0_0_3faaca19d8" x="113.089013" y="212.835323" style="fill: #ff0d0d; stroke: #ff0d0d; stroke-width: 0.5"/>
    </g>
    <g clip-path="url(#pe87badad2a)">
     <use xlink:href="#C0_0_3faaca19d8" x="91.202621" y="120.431125" style="fill: #ff0d0d; stroke: #ff0d0d; stroke-width: 0.5"/>
    </g>
    <g clip-path="url(#pe87badad2a)">
     <use xlink:href="#C0_0_3faaca19d8" x="81.035612" y="165.535715" style="fill: #ff0d0d; stroke: #ff0d0d; stroke-width: 0.5"/>
    </g>
    <g clip-path="url(#pe87badad2a)">
     <use xlink:href="#C0_0_3faaca19d8" x="130.870593" y="79.792752" style="fill: #ff0d0d; stroke: #ff0d0d; stroke-width: 0.5"/>
    </g>
    <g clip-path="url(#pe87badad2a)">
     <use xlink:href="#C0_0_3faaca19d8" x="174.524003" y="128.302766" style="fill: #ff0d0d; stroke: #ff0d0d; stroke-width: 0.5"/>
    </g>
    <g clip-path="url(#pe87badad2a)">
     <use xlink:href="#C0_0_3faaca19d8" x="107.732658" y="87.159024" style="fill: #ff0d0d; stroke: #ff0d0d; stroke-width: 0.5"/>
    </g>
    <g clip-path="url(#pe87badad2a)">
     <use xlink:href="#C0_0_3faaca19d8" x="129.331724" y="171.335994" style="fill: #ff0d0d; stroke: #ff0d0d; stroke-width: 0.5"/>
    </g>
    <g clip-path="url(#pe87badad2a)">
     <use xlink:href="#C0_0_3faaca19d8" x="127.252217" y="125.174902" style="fill: #ff0d0d; stroke: #ff0d0d; stroke-width: 0.5"/>
    </g>
    <g clip-path="url(#pe87badad2a)">
     <use xlink:href="#C0_0_3faaca19d8" x="95.389524" y="210.858534" style="fill: #ff0d0d; stroke: #ff0d0d; stroke-width: 0.5"/>
    </g>
    <g clip-path="url(#pe87badad2a)">
     <use xlink:href="#C0_0_3faaca19d8" x="125.563435" y="209.437944" style="fill: #ff0d0d; stroke: #ff0d0d; stroke-width: 0.5"/>
    </g>
    <g clip-path="url(#pe87badad2a)">
     <use xlink:href="#C0_0_3faaca19d8" x="175.197179" y="168.933021" style="fill: #666666; stroke: #666666; stroke-width: 0.5"/>
    </g>
    <g clip-path="url(#pe87badad2a)">
     <use xlink:href="#C0_0_3faaca19d8" x="187.475444" y="197.204015" style="fill: #666666; stroke: #666666; stroke-width: 0.5"/>
    </g>
    <g clip-path="url(#pe87badad2a)">
     <use xlink:href="#C0_0_3faaca19d8" x="209.151116" y="165.32982" style="fill: #666666; stroke: #666666; stroke-width: 0.5"/>
    </g>
    <g clip-path="url(#pe87badad2a)">
     <use xlink:href="#C0_0_3faaca19d8" x="155.919292" y="135.842596" style="fill: #bfbfbf; stroke: #bfbfbf; stroke-width: 0.5"/>
    </g>
    <g clip-path="url(#pe87badad2a)">
     <use xlink:href="#C0_0_3faaca19d8" x="146.5381" y="174.083192" style="fill: #bfbfbf; stroke: #bfbfbf; stroke-width: 0.5"/>
    </g>
    <g clip-path="url(#pe87badad2a)">
     <use xlink:href="#C0_0_3faaca19d8" x="182.992739" y="225.45673" style="fill: #bfbfbf; stroke: #bfbfbf; stroke-width: 0.5"/>
    </g>
    <g clip-path="url(#pe87badad2a)">
     <use xlink:href="#C0_0_3faaca19d8" x="232.896597" y="183.228939" style="fill: #bfbfbf; stroke: #bfbfbf; stroke-width: 0.5"/>
    </g>
    <g clip-path="url(#pe87badad2a)">
     <use xlink:href="#C0_0_3faaca19d8" x="202.643081" y="220.963751" style="fill: #bfbfbf; stroke: #bfbfbf; stroke-width: 0.5"/>
    </g>
   </g>
   <g id="text_1">
    <g clip-path="url(#pe87badad2a)">
     <!-- H -->
     <g style="fill: #ffffff" transform="translate(211.764759 210.252064) scale(0.12 -0.12)">
      <defs>
       <path id="DejaVuSans-Bold-48" d="M 588 4666 
L 1791 4666 
L 1791 2888 
L 3566 2888 
L 3566 4666 
L 4769 4666 
L 4769 0 
L 3566 0 
L 3566 1978 
L 1791 1978 
L 1791 0 
L 588 0 
L 588 4666 
z
" transform="scale(0.015625)"/>
      </defs>
      <use xlink:href="#DejaVuSans-Bold-48"/>
     </g>
    </g>
   </g>
   <g id="text_2">
    <g clip-path="url(#pe87badad2a)">
     <!-- H -->
     <g style="fill: #ffffff" transform="translate(234.810155 168.285431) scale(0.12 -0.12)">
      <use xlink:href="#DejaVuSans-Bold-48"/>
     </g>
    </g>
   </g>
   <g id="text_3">
    <g clip-path="url(#pe87badad2a)">
     <!-- H -->
     <g style="fill: #ffffff" transform="translate(230.030653 150.358208) scale(0.12 -0.12)">
      <use xlink:href="#DejaVuSans-Bold-48"/>
     </g>
    </g>
   </g>
   <g id="text_4">
    <g clip-path="url(#pe87badad2a)">
     <!-- Ti -->
     <g style="fill: #ffffff" transform="translate(149.853006 62.168793) scale(0.12 -0.12)">
      <defs>
       <path id="DejaVuSans-Bold-54" d="M 31 4666 
L 4331 4666 
L 4331 3756 
L 2784 3756 
L 2784 0 
L 1581 0 
L 1581 3756 
L 31 3756 
L 31 4666 
z
" transform="scale(0.015625)"/>
       <path id="DejaVuSans-Bold-69" d="M 538 3500 
L 1656 3500 
L 1656 0 
L 538 0 
L 538 3500 
z
M 538 4863 
L 1656 4863 
L 1656 3950 
L 538 3950 
L 538 4863 
z
" transform="scale(0.015625)"/>
      </defs>
      <use xlink:href="#DejaVuSans-Bold-54"/>
      <use xlink:href="#DejaVuSans-Bold-69" transform="translate(68.212891 0)"/>
     </g>
    </g>
   </g>
   <g id="text_5">
    <g clip-path="url(#pe87badad2a)">
     <!-- Ti -->
     <g style="fill: #ffffff" transform="translate(140.242197 153.506454) scale(0.12 -0.12)">
      <use xlink:href="#DejaVuSans-Bold-54"/>
      <use xlink:href="#DejaVuSans-Bold-69" transform="translate(68.212891 0)"/>
     </g>
    </g>
   </g>
   <g id="text_6">
    <g clip-path="url(#pe87badad2a)">
     <!-- Ti -->
     <g style="fill: #ffffff" transform="translate(198.787955 130.602453) scale(0.12 -0.12)">
      <use xlink:href="#DejaVuSans-Bold-54"/>
      <use xlink:href="#DejaVuSans-Bold-69" transform="translate(68.212891 0)"/>
     </g>
    </g>
   </g>
   <g id="text_7">
    <g clip-path="url(#pe87badad2a)">
     <!-- Ti -->
     <g style="fill: #ffffff" transform="translate(121.089402 112.311536) scale(0.12 -0.12)">
      <use xlink:href="#DejaVuSans-Bold-54"/>
      <use xlink:href="#DejaVuSans-Bold-69" transform="translate(68.212891 0)"/>
     </g>
    </g>
   </g>
   <g id="text_8">
    <g clip-path="url(#pe87badad2a)">
     <!-- Ti -->
     <g style="fill: #ffffff" transform="translate(49.218595 212.035798) scale(0.12 -0.12)">
      <use xlink:href="#DejaVuSans-Bold-54"/>
      <use xlink:href="#DejaVuSans-Bold-69" transform="translate(68.212891 0)"/>
     </g>
    </g>
   </g>
   <g id="text_9">
    <g clip-path="url(#pe87badad2a)">
     <!-- Ti -->
     <g style="fill: #ffffff" transform="translate(59.276373 141.394764) scale(0.12 -0.12)">
      <use xlink:href="#DejaVuSans-Bold-54"/>
      <use xlink:href="#DejaVuSans-Bold-69" transform="translate(68.212891 0)"/>
     </g>
    </g>
   </g>
   <g id="text_10">
    <g clip-path="url(#pe87badad2a)">
     <!-- Ti -->
     <g style="fill: #ffffff" transform="translate(104.452412 188.400276) scale(0.12 -0.12)">
      <use xlink:href="#DejaVuSans-Bold-54"/>
      <use xlink:href="#DejaVuSans-Bold-69" transform="translate(68.212891 0)"/>
     </g>
    </g>
   </g>
   <g id="text_11">
    <g clip-path="url(#pe87badad2a)">
     <!-- Ti -->
     <g style="fill: #ffffff" transform="translate(125.453697 57.114886) scale(0.12 -0.12)">
      <use xlink:href="#DejaVuSans-Bold-54"/>
      <use xlink:href="#DejaVuSans-Bold-69" transform="translate(68.212891 0)"/>
     </g>
    </g>
   </g>
   <g id="text_12">
    <g clip-path="url(#pe87badad2a)">
     <!-- Ti -->
     <g style="fill: #ffffff" transform="translate(134.261123 150.357391) scale(0.12 -0.12)">
      <use xlink:href="#DejaVuSans-Bold-54"/>
      <use xlink:href="#DejaVuSans-Bold-69" transform="translate(68.212891 0)"/>
     </g>
    </g>
   </g>
   <g id="text_13">
    <g clip-path="url(#pe87badad2a)">
     <!-- Ti -->
     <g style="fill: #ffffff" transform="translate(188.663327 114.988045) scale(0.12 -0.12)">
      <use xlink:href="#DejaVuSans-Bold-54"/>
      <use xlink:href="#DejaVuSans-Bold-69" transform="translate(68.212891 0)"/>
     </g>
    </g>
   </g>
   <g id="text_14">
    <g clip-path="url(#pe87badad2a)">
     <!-- Ti -->
     <g style="fill: #ffffff" transform="translate(119.747567 98.271786) scale(0.12 -0.12)">
      <use xlink:href="#DejaVuSans-Bold-54"/>
      <use xlink:href="#DejaVuSans-Bold-69" transform="translate(68.212891 0)"/>
     </g>
    </g>
   </g>
   <g id="text_15">
    <g clip-path="url(#pe87badad2a)">
     <!-- Ti -->
     <g style="fill: #ffffff" transform="translate(81.144144 240.387614) scale(0.12 -0.12)">
      <use xlink:href="#DejaVuSans-Bold-54"/>
      <use xlink:href="#DejaVuSans-Bold-69" transform="translate(68.212891 0)"/>
     </g>
    </g>
   </g>
   <g id="text_16">
    <g clip-path="url(#pe87badad2a)">
     <!-- Ti -->
     <g style="fill: #ffffff" transform="translate(67.671522 144.720686) scale(0.12 -0.12)">
      <use xlink:href="#DejaVuSans-Bold-54"/>
      <use xlink:href="#DejaVuSans-Bold-69" transform="translate(68.212891 0)"/>
     </g>
    </g>
   </g>
   <g id="text_17">
    <g clip-path="url(#pe87badad2a)">
     <!-- Ti -->
     <g style="fill: #ffffff" transform="translate(100.925553 197.930933) scale(0.12 -0.12)">
      <use xlink:href="#DejaVuSans-Bold-54"/>
      <use xlink:href="#DejaVuSans-Bold-69" transform="translate(68.212891 0)"/>
     </g>
    </g>
   </g>
   <g id="text_18">
    <g clip-path="url(#pe87badad2a)">
     <!-- O -->
     <g style="fill: #ffffff" transform="translate(143.837479 89.556277) scale(0.12 -0.12)">
      <defs>
       <path id="DejaVuSans-Bold-4f" d="M 2719 3878 
Q 2169 3878 1866 3472 
Q 1563 3066 1563 2328 
Q 1563 1594 1866 1187 
Q 2169 781 2719 781 
Q 3272 781 3575 1187 
Q 3878 1594 3878 2328 
Q 3878 3066 3575 3472 
Q 3272 3878 2719 3878 
z
M 2719 4750 
Q 3844 4750 4481 4106 
Q 5119 3463 5119 2328 
Q 5119 1197 4481 553 
Q 3844 -91 2719 -91 
Q 1597 -91 958 553 
Q 319 1197 319 2328 
Q 319 3463 958 4106 
Q 1597 4750 2719 4750 
z
" transform="scale(0.015625)"/>
      </defs>
      <use xlink:href="#DejaVuSans-Bold-4f"/>
     </g>
    </g>
   </g>
   <g id="text_19">
    <g clip-path="url(#pe87badad2a)">
     <!-- O -->
     <g style="fill: #ffffff" transform="translate(175.698372 142.704113) scale(0.12 -0.12)">
      <use xlink:href="#DejaVuSans-Bold-4f"/>
     </g>
    </g>
   </g>
   <g id="text_20">
    <g clip-path="url(#pe87badad2a)">
     <!-- O -->
     <g style="fill: #ffffff" transform="translate(95.77696 100.481477) scale(0.12 -0.12)">
      <use xlink:href="#DejaVuSans-Bold-4f"/>
     </g>
    </g>
   </g>
   <g id="text_21">
    <g clip-path="url(#pe87badad2a)">
     <!-- O -->
     <g style="fill: #ffffff" transform="translate(113.702545 164.921198) scale(0.12 -0.12)">
      <use xlink:href="#DejaVuSans-Bold-4f"/>
     </g>
    </g>
   </g>
   <g id="text_22">
    <g clip-path="url(#pe87badad2a)">
     <!-- O -->
     <g style="fill: #ffffff" transform="translate(133.661611 128.053239) scale(0.12 -0.12)">
      <use xlink:href="#DejaVuSans-Bold-4f"/>
     </g>
    </g>
   </g>
   <g id="text_23">
    <g clip-path="url(#pe87badad2a)">
     <!-- O -->
     <g style="fill: #ffffff" transform="translate(76.531179 197.936734) scale(0.12 -0.12)">
      <use xlink:href="#DejaVuSans-Bold-4f"/>
     </g>
    </g>
   </g>
   <g id="text_24">
    <g clip-path="url(#pe87badad2a)">
     <!-- O -->
     <g style="fill: #ffffff" transform="translate(107.988075 216.146573) scale(0.12 -0.12)">
      <use xlink:href="#DejaVuSans-Bold-4f"/>
     </g>
    </g>
   </g>
   <g id="text_25">
    <g clip-path="url(#pe87badad2a)">
     <!-- O -->
     <g style="fill: #ffffff" transform="translate(86.101684 123.742375) scale(0.12 -0.12)">
      <use xlink:href="#DejaVuSans-Bold-4f"/>
     </g>
    </g>
   </g>
   <g id="text_26">
    <g clip-path="url(#pe87badad2a)">
     <!-- O -->
     <g style="fill: #ffffff" transform="translate(75.934674 168.846965) scale(0.12 -0.12)">
      <use xlink:href="#DejaVuSans-Bold-4f"/>
     </g>
    </g>
   </g>
   <g id="text_27">
    <g clip-path="url(#pe87badad2a)">
     <!-- O -->
     <g style="fill: #ffffff" transform="translate(125.769655 83.104002) scale(0.12 -0.12)">
      <use xlink:href="#DejaVuSans-Bold-4f"/>
     </g>
    </g>
   </g>
   <g id="text_28">
    <g clip-path="url(#pe87badad2a)">
     <!-- O -->
     <g style="fill: #ffffff" transform="translate(169.423065 131.614016) scale(0.12 -0.12)">
      <use xlink:href="#DejaVuSans-Bold-4f"/>
     </g>
    </g>
   </g>
   <g id="text_29">
    <g clip-path="url(#pe87badad2a)">
     <!-- O -->
     <g style="fill: #ffffff" transform="translate(102.631721 90.470274) scale(0.12 -0.12)">
      <use xlink:href="#DejaVuSans-Bold-4f"/>
     </g>
    </g>
   </g>
   <g id="text_30">
    <g clip-path="url(#pe87badad2a)">
     <!-- O -->
     <g style="fill: #ffffff" transform="translate(124.230786 174.647244) scale(0.12 -0.12)">
      <use xlink:href="#DejaVuSans-Bold-4f"/>
     </g>
    </g>
   </g>
   <g id="text_31">
    <g clip-path="url(#pe87badad2a)">
     <!-- O -->
     <g style="fill: #ffffff" transform="translate(122.151279 128.486152) scale(0.12 -0.12)">
      <use xlink:href="#DejaVuSans-Bold-4f"/>
     </g>
    </g>
   </g>
   <g id="text_32">
    <g clip-path="url(#pe87badad2a)">
     <!-- O -->
     <g style="fill: #ffffff" transform="translate(90.288586 214.169784) scale(0.12 -0.12)">
      <use xlink:href="#DejaVuSans-Bold-4f"/>
     </g>
    </g>
   </g>
   <g id="text_33">
    <g clip-path="url(#pe87badad2a)">
     <!-- O -->
     <g style="fill: #ffffff" transform="translate(120.462497 212.749194) scale(0.12 -0.12)">
      <use xlink:href="#DejaVuSans-Bold-4f"/>
     </g>
    </g>
   </g>
   <g id="text_34">
    <g clip-path="url(#pe87badad2a)">
     <!-- C -->
     <g style="fill: #ffffff" transform="translate(170.793742 172.244271) scale(0.12 -0.12)">
      <defs>
       <path id="DejaVuSans-Bold-43" d="M 4288 256 
Q 3956 84 3597 -3 
Q 3238 -91 2847 -91 
Q 1681 -91 1000 561 
Q 319 1213 319 2328 
Q 319 3447 1000 4098 
Q 1681 4750 2847 4750 
Q 3238 4750 3597 4662 
Q 3956 4575 4288 4403 
L 4288 3438 
Q 3953 3666 3628 3772 
Q 3303 3878 2944 3878 
Q 2300 3878 1931 3465 
Q 1563 3053 1563 2328 
Q 1563 1606 1931 1193 
Q 2300 781 2944 781 
Q 3303 781 3628 887 
Q 3953 994 4288 1222 
L 4288 256 
z
" transform="scale(0.015625)"/>
      </defs>
      <use xlink:href="#DejaVuSans-Bold-43"/>
     </g>
    </g>
   </g>
   <g id="text_35">
    <g clip-path="url(#pe87badad2a)">
     <!-- C -->
     <g style="fill: #ffffff" transform="translate(183.072006 200.515265) scale(0.12 -0.12)">
      <use xlink:href="#DejaVuSans-Bold-43"/>
     </g>
    </g>
   </g>
   <g id="text_36">
    <g clip-path="url(#pe87badad2a)">
     <!-- C -->
     <g style="fill: #ffffff" transform="translate(204.747679 168.64107) scale(0.12 -0.12)">
      <use xlink:href="#DejaVuSans-Bold-43"/>
     </g>
    </g>
   </g>
   <g id="text_37">
    <g clip-path="url(#pe87badad2a)">
     <!-- H -->
     <g style="fill: #ffffff" transform="translate(150.898042 139.153846) scale(0.12 -0.12)">
      <use xlink:href="#DejaVuSans-Bold-48"/>
     </g>
    </g>
   </g>
   <g id="text_38">
    <g clip-path="url(#pe87badad2a)">
     <!-- H -->
     <g style="fill: #ffffff" transform="translate(141.51685 177.394442) scale(0.12 -0.12)">
      <use xlink:href="#DejaVuSans-Bold-48"/>
     </g>
    </g>
   </g>
   <g id="text_39">
    <g clip-path="url(#pe87badad2a)">
     <!-- H -->
     <g style="fill: #ffffff" transform="translate(177.971489 228.76798) scale(0.12 -0.12)">
      <use xlink:href="#DejaVuSans-Bold-48"/>
     </g>
    </g>
   </g>
   <g id="text_40">
    <g clip-path="url(#pe87badad2a)">
     <!-- H -->
     <g style="fill: #ffffff" transform="translate(227.875347 186.540189) scale(0.12 -0.12)">
      <use xlink:href="#DejaVuSans-Bold-48"/>
     </g>
    </g>
   </g>
   <g id="text_41">
    <g clip-path="url(#pe87badad2a)">
     <!-- H -->
     <g style="fill: #ffffff" transform="translate(197.621831 224.275001) scale(0.12 -0.12)">
      <use xlink:href="#DejaVuSans-Bold-48"/>
     </g>
    </g>
   </g>
   <g id="text_42">
    <!-- C3H8O80Ti40 -->
    <g transform="translate(146.188844 52.49982) scale(0.1 -0.1)">
     <defs>
      <path id="DejaVuSans-43" d="M 4122 4306 
L 4122 3641 
Q 3803 3938 3442 4084 
Q 3081 4231 2675 4231 
Q 1875 4231 1450 3742 
Q 1025 3253 1025 2328 
Q 1025 1406 1450 917 
Q 1875 428 2675 428 
Q 3081 428 3442 575 
Q 3803 722 4122 1019 
L 4122 359 
Q 3791 134 3420 21 
Q 3050 -91 2638 -91 
Q 1578 -91 968 557 
Q 359 1206 359 2328 
Q 359 3453 968 4101 
Q 1578 4750 2638 4750 
Q 3056 4750 3426 4639 
Q 3797 4528 4122 4306 
z
" transform="scale(0.015625)"/>
      <path id="DejaVuSans-33" d="M 2597 2516 
Q 3050 2419 3304 2112 
Q 3559 1806 3559 1356 
Q 3559 666 3084 287 
Q 2609 -91 1734 -91 
Q 1441 -91 1130 -33 
Q 819 25 488 141 
L 488 750 
Q 750 597 1062 519 
Q 1375 441 1716 441 
Q 2309 441 2620 675 
Q 2931 909 2931 1356 
Q 2931 1769 2642 2001 
Q 2353 2234 1838 2234 
L 1294 2234 
L 1294 2753 
L 1863 2753 
Q 2328 2753 2575 2939 
Q 2822 3125 2822 3475 
Q 2822 3834 2567 4026 
Q 2313 4219 1838 4219 
Q 1578 4219 1281 4162 
Q 984 4106 628 3988 
L 628 4550 
Q 988 4650 1302 4700 
Q 1616 4750 1894 4750 
Q 2613 4750 3031 4423 
Q 3450 4097 3450 3541 
Q 3450 3153 3228 2886 
Q 3006 2619 2597 2516 
z
" transform="scale(0.015625)"/>
      <path id="DejaVuSans-48" d="M 628 4666 
L 1259 4666 
L 1259 2753 
L 3553 2753 
L 3553 4666 
L 4184 4666 
L 4184 0 
L 3553 0 
L 3553 2222 
L 1259 2222 
L 1259 0 
L 628 0 
L 628 4666 
z
" transform="scale(0.015625)"/>
      <path id="DejaVuSans-38" d="M 2034 2216 
Q 1584 2216 1326 1975 
Q 1069 1734 1069 1313 
Q 1069 891 1326 650 
Q 1584 409 2034 409 
Q 2484 409 2743 651 
Q 3003 894 3003 1313 
Q 3003 1734 2745 1975 
Q 2488 2216 2034 2216 
z
M 1403 2484 
Q 997 2584 770 2862 
Q 544 3141 544 3541 
Q 544 4100 942 4425 
Q 1341 4750 2034 4750 
Q 2731 4750 3128 4425 
Q 3525 4100 3525 3541 
Q 3525 3141 3298 2862 
Q 3072 2584 2669 2484 
Q 3125 2378 3379 2068 
Q 3634 1759 3634 1313 
Q 3634 634 3220 271 
Q 2806 -91 2034 -91 
Q 1263 -91 848 271 
Q 434 634 434 1313 
Q 434 1759 690 2068 
Q 947 2378 1403 2484 
z
M 1172 3481 
Q 1172 3119 1398 2916 
Q 1625 2713 2034 2713 
Q 2441 2713 2670 2916 
Q 2900 3119 2900 3481 
Q 2900 3844 2670 4047 
Q 2441 4250 2034 4250 
Q 1625 4250 1398 4047 
Q 1172 3844 1172 3481 
z
" transform="scale(0.015625)"/>
      <path id="DejaVuSans-4f" d="M 2522 4238 
Q 1834 4238 1429 3725 
Q 1025 3213 1025 2328 
Q 1025 1447 1429 934 
Q 1834 422 2522 422 
Q 3209 422 3611 934 
Q 4013 1447 4013 2328 
Q 4013 3213 3611 3725 
Q 3209 4238 2522 4238 
z
M 2522 4750 
Q 3503 4750 4090 4092 
Q 4678 3434 4678 2328 
Q 4678 1225 4090 567 
Q 3503 -91 2522 -91 
Q 1538 -91 948 565 
Q 359 1222 359 2328 
Q 359 3434 948 4092 
Q 1538 4750 2522 4750 
z
" transform="scale(0.015625)"/>
      <path id="DejaVuSans-30" d="M 2034 4250 
Q 1547 4250 1301 3770 
Q 1056 3291 1056 2328 
Q 1056 1369 1301 889 
Q 1547 409 2034 409 
Q 2525 409 2770 889 
Q 3016 1369 3016 2328 
Q 3016 3291 2770 3770 
Q 2525 4250 2034 4250 
z
M 2034 4750 
Q 2819 4750 3233 4129 
Q 3647 3509 3647 2328 
Q 3647 1150 3233 529 
Q 2819 -91 2034 -91 
Q 1250 -91 836 529 
Q 422 1150 422 2328 
Q 422 3509 836 4129 
Q 1250 4750 2034 4750 
z
" transform="scale(0.015625)"/>
      <path id="DejaVuSans-54" d="M -19 4666 
L 3928 4666 
L 3928 4134 
L 2272 4134 
L 2272 0 
L 1638 0 
L 1638 4134 
L -19 4134 
L -19 4666 
z
" transform="scale(0.015625)"/>
      <path id="DejaVuSans-69" d="M 603 3500 
L 1178 3500 
L 1178 0 
L 603 0 
L 603 3500 
z
M 603 4863 
L 1178 4863 
L 1178 4134 
L 603 4134 
L 603 4863 
z
" transform="scale(0.015625)"/>
      <path id="DejaVuSans-34" d="M 2419 4116 
L 825 1625 
L 2419 1625 
L 2419 4116 
z
M 2253 4666 
L 3047 4666 
L 3047 1625 
L 3713 1625 
L 3713 1100 
L 3047 1100 
L 3047 0 
L 2419 0 
L 2419 1100 
L 313 1100 
L 313 1709 
L 2253 4666 
z
" transform="scale(0.015625)"/>
     </defs>
     <use xlink:href="#DejaVuSans-43"/>
     <use xlink:href="#DejaVuSans-33" transform="translate(69.824219 0)"/>
     <use xlink:href="#DejaVuSans-48" transform="translate(133.447266 0)"/>
     <use xlink:href="#DejaVuSans-38" transform="translate(208.642578 0)"/>
     <use xlink:href="#DejaVuSans-4f" transform="translate(272.265625 0)"/>
     <use xlink:href="#DejaVuSans-38" transform="translate(350.976562 0)"/>
     <use xlink:href="#DejaVuSans-30" transform="translate(414.599609 0)"/>
     <use xlink:href="#DejaVuSans-54" transform="translate(478.222656 0)"/>
     <use xlink:href="#DejaVuSans-69" transform="translate(536.181641 0)"/>
     <use xlink:href="#DejaVuSans-34" transform="translate(563.964844 0)"/>
     <use xlink:href="#DejaVuSans-30" transform="translate(627.587891 0)"/>
    </g>
    <!-- Error: -3.46 eV -->
    <g transform="translate(146.188844 63.697633) scale(0.1 -0.1)">
     <defs>
      <path id="DejaVuSans-45" d="M 628 4666 
L 3578 4666 
L 3578 4134 
L 1259 4134 
L 1259 2753 
L 3481 2753 
L 3481 2222 
L 1259 2222 
L 1259 531 
L 3634 531 
L 3634 0 
L 628 0 
L 628 4666 
z
" transform="scale(0.015625)"/>
      <path id="DejaVuSans-72" d="M 2631 2963 
Q 2534 3019 2420 3045 
Q 2306 3072 2169 3072 
Q 1681 3072 1420 2755 
Q 1159 2438 1159 1844 
L 1159 0 
L 581 0 
L 581 3500 
L 1159 3500 
L 1159 2956 
Q 1341 3275 1631 3429 
Q 1922 3584 2338 3584 
Q 2397 3584 2469 3576 
Q 2541 3569 2628 3553 
L 2631 2963 
z
" transform="scale(0.015625)"/>
      <path id="DejaVuSans-6f" d="M 1959 3097 
Q 1497 3097 1228 2736 
Q 959 2375 959 1747 
Q 959 1119 1226 758 
Q 1494 397 1959 397 
Q 2419 397 2687 759 
Q 2956 1122 2956 1747 
Q 2956 2369 2687 2733 
Q 2419 3097 1959 3097 
z
M 1959 3584 
Q 2709 3584 3137 3096 
Q 3566 2609 3566 1747 
Q 3566 888 3137 398 
Q 2709 -91 1959 -91 
Q 1206 -91 779 398 
Q 353 888 353 1747 
Q 353 2609 779 3096 
Q 1206 3584 1959 3584 
z
" transform="scale(0.015625)"/>
      <path id="DejaVuSans-3a" d="M 750 794 
L 1409 794 
L 1409 0 
L 750 0 
L 750 794 
z
M 750 3309 
L 1409 3309 
L 1409 2516 
L 750 2516 
L 750 3309 
z
" transform="scale(0.015625)"/>
      <path id="DejaVuSans-20" transform="scale(0.015625)"/>
      <path id="DejaVuSans-2d" d="M 313 2009 
L 1997 2009 
L 1997 1497 
L 313 1497 
L 313 2009 
z
" transform="scale(0.015625)"/>
      <path id="DejaVuSans-2e" d="M 684 794 
L 1344 794 
L 1344 0 
L 684 0 
L 684 794 
z
" transform="scale(0.015625)"/>
      <path id="DejaVuSans-36" d="M 2113 2584 
Q 1688 2584 1439 2293 
Q 1191 2003 1191 1497 
Q 1191 994 1439 701 
Q 1688 409 2113 409 
Q 2538 409 2786 701 
Q 3034 994 3034 1497 
Q 3034 2003 2786 2293 
Q 2538 2584 2113 2584 
z
M 3366 4563 
L 3366 3988 
Q 3128 4100 2886 4159 
Q 2644 4219 2406 4219 
Q 1781 4219 1451 3797 
Q 1122 3375 1075 2522 
Q 1259 2794 1537 2939 
Q 1816 3084 2150 3084 
Q 2853 3084 3261 2657 
Q 3669 2231 3669 1497 
Q 3669 778 3244 343 
Q 2819 -91 2113 -91 
Q 1303 -91 875 529 
Q 447 1150 447 2328 
Q 447 3434 972 4092 
Q 1497 4750 2381 4750 
Q 2619 4750 2861 4703 
Q 3103 4656 3366 4563 
z
" transform="scale(0.015625)"/>
      <path id="DejaVuSans-65" d="M 3597 1894 
L 3597 1613 
L 953 1613 
Q 991 1019 1311 708 
Q 1631 397 2203 397 
Q 2534 397 2845 478 
Q 3156 559 3463 722 
L 3463 178 
Q 3153 47 2828 -22 
Q 2503 -91 2169 -91 
Q 1331 -91 842 396 
Q 353 884 353 1716 
Q 353 2575 817 3079 
Q 1281 3584 2069 3584 
Q 2775 3584 3186 3129 
Q 3597 2675 3597 1894 
z
M 3022 2063 
Q 3016 2534 2758 2815 
Q 2500 3097 2075 3097 
Q 1594 3097 1305 2825 
Q 1016 2553 972 2059 
L 3022 2063 
z
" transform="scale(0.015625)"/>
      <path id="DejaVuSans-56" d="M 1831 0 
L 50 4666 
L 709 4666 
L 2188 738 
L 3669 4666 
L 4325 4666 
L 2547 0 
L 1831 0 
z
" transform="scale(0.015625)"/>
     </defs>
     <use xlink:href="#DejaVuSans-45"/>
     <use xlink:href="#DejaVuSans-72" transform="translate(63.183594 0)"/>
     <use xlink:href="#DejaVuSans-72" transform="translate(102.546875 0)"/>
     <use xlink:href="#DejaVuSans-6f" transform="translate(141.410156 0)"/>
     <use xlink:href="#DejaVuSans-72" transform="translate(202.591797 0)"/>
     <use xlink:href="#DejaVuSans-3a" transform="translate(241.955078 0)"/>
     <use xlink:href="#DejaVuSans-20" transform="translate(275.646484 0)"/>
     <use xlink:href="#DejaVuSans-2d" transform="translate(307.433594 0)"/>
     <use xlink:href="#DejaVuSans-33" transform="translate(343.517578 0)"/>
     <use xlink:href="#DejaVuSans-2e" transform="translate(407.140625 0)"/>
     <use xlink:href="#DejaVuSans-34" transform="translate(438.927734 0)"/>
     <use xlink:href="#DejaVuSans-36" transform="translate(502.550781 0)"/>
     <use xlink:href="#DejaVuSans-20" transform="translate(566.173828 0)"/>
     <use xlink:href="#DejaVuSans-65" transform="translate(597.960938 0)"/>
     <use xlink:href="#DejaVuSans-56" transform="translate(659.484375 0)"/>
    </g>
   </g>
  </g>
 </g>
 <defs>
  <clipPath id="pe87badad2a">
   <rect x="36" y="34.56" width="223.2" height="221.76"/>
  </clipPath>
 </defs>
</svg>
