<?xml version="1.0" encoding="utf-8" standalone="no"?>
<!DOCTYPE svg PUBLIC "-//W3C//DTD SVG 1.1//EN"
  "http://www.w3.org/Graphics/SVG/1.1/DTD/svg11.dtd">
<svg xmlns:xlink="http://www.w3.org/1999/xlink" width="288pt" height="288pt" viewBox="0 0 288 288" xmlns="http://www.w3.org/2000/svg" version="1.1">
 <metadata>
  <rdf:RDF xmlns:dc="http://purl.org/dc/elements/1.1/" xmlns:cc="http://creativecommons.org/ns#" xmlns:rdf="http://www.w3.org/1999/02/22-rdf-syntax-ns#">
   <cc:Work>
    <dc:type rdf:resource="http://purl.org/dc/dcmitype/StillImage"/>
    <dc:date>2025-06-30T12:07:53.340926</dc:date>
    <dc:format>image/svg+xml</dc:format>
    <dc:creator>
     <cc:Agent>
      <dc:title>Matplotlib v3.10.1, https://matplotlib.org/</dc:title>
     </cc:Agent>
    </dc:creator>
   </cc:Work>
  </rdf:RDF>
 </metadata>
 <defs>
  <style type="text/css">*{stroke-linejoin: round; stroke-linecap: butt}</style>
 </defs>
 <g id="figure_1">
  <g id="patch_1">
   <path d="M 0 288 
L 288 288 
L 288 0 
L 0 0 
z
" style="fill: #ffffff"/>
  </g>
  <g id="axes_1">
   <g id="LineCollection_1">
    <path d="M 87.379669 70.773788 
L 72.959274 58.954595 
" clip-path="url(#p2d8bc0315d)" style="fill: none; stroke: #000000; stroke-width: 1.2"/>
    <path d="M 87.379669 70.773788 
L 124.040713 67.457871 
" clip-path="url(#p2d8bc0315d)" style="fill: none; stroke: #000000; stroke-width: 1.2"/>
    <path d="M 87.379669 70.773788 
L 108.093151 60.800182 
" clip-path="url(#p2d8bc0315d)" style="fill: none; stroke: #000000; stroke-width: 1.2"/>
    <path d="M 87.379669 70.773788 
L 60.892727 70.819998 
" clip-path="url(#p2d8bc0315d)" style="fill: none; stroke: #000000; stroke-width: 1.2"/>
    <path d="M 87.379669 70.773788 
L 125.668196 80.601362 
" clip-path="url(#p2d8bc0315d)" style="fill: none; stroke: #000000; stroke-width: 1.2"/>
    <path d="M 87.379669 70.773788 
L 165.013224 72.458403 
" clip-path="url(#p2d8bc0315d)" style="fill: none; stroke: #000000; stroke-width: 1.2"/>
    <path d="M 87.379669 70.773788 
L 64.246688 101.552633 
" clip-path="url(#p2d8bc0315d)" style="fill: none; stroke: #000000; stroke-width: 1.2"/>
    <path d="M 87.379669 70.773788 
L 119.836325 113.570677 
" clip-path="url(#p2d8bc0315d)" style="fill: none; stroke: #000000; stroke-width: 1.2"/>
    <path d="M 87.379669 70.773788 
L 83.863565 120.242876 
" clip-path="url(#p2d8bc0315d)" style="fill: none; stroke: #000000; stroke-width: 1.2"/>
    <path d="M 72.959274 58.954595 
L 124.040713 67.457871 
" clip-path="url(#p2d8bc0315d)" style="fill: none; stroke: #000000; stroke-width: 1.2"/>
    <path d="M 72.959274 58.954595 
L 108.093151 60.800182 
" clip-path="url(#p2d8bc0315d)" style="fill: none; stroke: #000000; stroke-width: 1.2"/>
    <path d="M 72.959274 58.954595 
L 82.079621 79.071796 
" clip-path="url(#p2d8bc0315d)" style="fill: none; stroke: #000000; stroke-width: 1.2"/>
    <path d="M 72.959274 58.954595 
L 147.951016 63.524399 
" clip-path="url(#p2d8bc0315d)" style="fill: none; stroke: #000000; stroke-width: 1.2"/>
    <path d="M 72.959274 58.954595 
L 104.157148 53.803636 
" clip-path="url(#p2d8bc0315d)" style="fill: none; stroke: #000000; stroke-width: 1.2"/>
    <path d="M 72.959274 58.954595 
L 64.246688 101.552633 
" clip-path="url(#p2d8bc0315d)" style="fill: none; stroke: #000000; stroke-width: 1.2"/>
    <path d="M 72.959274 58.954595 
L 82.855243 109.736036 
" clip-path="url(#p2d8bc0315d)" style="fill: none; stroke: #000000; stroke-width: 1.2"/>
    <path d="M 72.959274 58.954595 
L 109.300891 100.059469 
" clip-path="url(#p2d8bc0315d)" style="fill: none; stroke: #000000; stroke-width: 1.2"/>
    <path d="M 124.040713 67.457871 
L 139.166695 54.735409 
" clip-path="url(#p2d8bc0315d)" style="fill: none; stroke: #000000; stroke-width: 1.2"/>
    <path d="M 124.040713 67.457871 
L 164.098847 81.407829 
" clip-path="url(#p2d8bc0315d)" style="fill: none; stroke: #000000; stroke-width: 1.2"/>
    <path d="M 124.040713 67.457871 
L 82.079621 79.071796 
" clip-path="url(#p2d8bc0315d)" style="fill: none; stroke: #000000; stroke-width: 1.2"/>
    <path d="M 124.040713 67.457871 
L 165.013224 72.458403 
" clip-path="url(#p2d8bc0315d)" style="fill: none; stroke: #000000; stroke-width: 1.2"/>
    <path d="M 124.040713 67.457871 
L 119.836325 113.570677 
" clip-path="url(#p2d8bc0315d)" style="fill: none; stroke: #000000; stroke-width: 1.2"/>
    <path d="M 124.040713 67.457871 
L 82.855243 109.736036 
" clip-path="url(#p2d8bc0315d)" style="fill: none; stroke: #000000; stroke-width: 1.2"/>
    <path d="M 124.040713 67.457871 
L 156.526558 107.966196 
" clip-path="url(#p2d8bc0315d)" style="fill: none; stroke: #000000; stroke-width: 1.2"/>
    <path d="M 139.166695 54.735409 
L 164.098847 81.407829 
" clip-path="url(#p2d8bc0315d)" style="fill: none; stroke: #000000; stroke-width: 1.2"/>
    <path d="M 139.166695 54.735409 
L 108.093151 60.800182 
" clip-path="url(#p2d8bc0315d)" style="fill: none; stroke: #000000; stroke-width: 1.2"/>
    <path d="M 139.166695 54.735409 
L 60.892727 70.819998 
" clip-path="url(#p2d8bc0315d)" style="fill: none; stroke: #000000; stroke-width: 1.2"/>
    <path d="M 139.166695 54.735409 
L 165.013224 72.458403 
" clip-path="url(#p2d8bc0315d)" style="fill: none; stroke: #000000; stroke-width: 1.2"/>
    <path d="M 139.166695 54.735409 
L 104.157148 53.803636 
" clip-path="url(#p2d8bc0315d)" style="fill: none; stroke: #000000; stroke-width: 1.2"/>
    <path d="M 139.166695 54.735409 
L 156.526558 107.966196 
" clip-path="url(#p2d8bc0315d)" style="fill: none; stroke: #000000; stroke-width: 1.2"/>
    <path d="M 139.166695 54.735409 
L 95.914154 97.843826 
" clip-path="url(#p2d8bc0315d)" style="fill: none; stroke: #000000; stroke-width: 1.2"/>
    <path d="M 139.166695 54.735409 
L 140.871673 97.283115 
" clip-path="url(#p2d8bc0315d)" style="fill: none; stroke: #000000; stroke-width: 1.2"/>
    <path d="M 164.098847 81.407829 
L 108.093151 60.800182 
" clip-path="url(#p2d8bc0315d)" style="fill: none; stroke: #000000; stroke-width: 1.2"/>
    <path d="M 164.098847 81.407829 
L 82.079621 79.071796 
" clip-path="url(#p2d8bc0315d)" style="fill: none; stroke: #000000; stroke-width: 1.2"/>
    <path d="M 164.098847 81.407829 
L 125.668196 80.601362 
" clip-path="url(#p2d8bc0315d)" style="fill: none; stroke: #000000; stroke-width: 1.2"/>
    <path d="M 164.098847 81.407829 
L 147.951016 63.524399 
" clip-path="url(#p2d8bc0315d)" style="fill: none; stroke: #000000; stroke-width: 1.2"/>
    <path d="M 164.098847 81.407829 
L 156.526558 107.966196 
" clip-path="url(#p2d8bc0315d)" style="fill: none; stroke: #000000; stroke-width: 1.2"/>
    <path d="M 164.098847 81.407829 
L 138.930215 110.633541 
" clip-path="url(#p2d8bc0315d)" style="fill: none; stroke: #000000; stroke-width: 1.2"/>
    <path d="M 164.098847 81.407829 
L 120.825203 124.430246 
" clip-path="url(#p2d8bc0315d)" style="fill: none; stroke: #000000; stroke-width: 1.2"/>
    <path d="M 108.093151 60.800182 
L 60.892727 70.819998 
" clip-path="url(#p2d8bc0315d)" style="fill: none; stroke: #000000; stroke-width: 1.2"/>
    <path d="M 108.093151 60.800182 
L 147.951016 63.524399 
" clip-path="url(#p2d8bc0315d)" style="fill: none; stroke: #000000; stroke-width: 1.2"/>
    <path d="M 108.093151 60.800182 
L 64.246688 101.552633 
" clip-path="url(#p2d8bc0315d)" style="fill: none; stroke: #000000; stroke-width: 1.2"/>
    <path d="M 108.093151 60.800182 
L 95.914154 97.843826 
" clip-path="url(#p2d8bc0315d)" style="fill: none; stroke: #000000; stroke-width: 1.2"/>
    <path d="M 108.093151 60.800182 
L 138.930215 110.633541 
" clip-path="url(#p2d8bc0315d)" style="fill: none; stroke: #000000; stroke-width: 1.2"/>
    <path d="M 82.079621 79.071796 
L 60.892727 70.819998 
" clip-path="url(#p2d8bc0315d)" style="fill: none; stroke: #000000; stroke-width: 1.2"/>
    <path d="M 82.079621 79.071796 
L 125.668196 80.601362 
" clip-path="url(#p2d8bc0315d)" style="fill: none; stroke: #000000; stroke-width: 1.2"/>
    <path d="M 82.079621 79.071796 
L 104.157148 53.803636 
" clip-path="url(#p2d8bc0315d)" style="fill: none; stroke: #000000; stroke-width: 1.2"/>
    <path d="M 82.079621 79.071796 
L 82.855243 109.736036 
" clip-path="url(#p2d8bc0315d)" style="fill: none; stroke: #000000; stroke-width: 1.2"/>
    <path d="M 82.079621 79.071796 
L 61.124368 107.537089 
" clip-path="url(#p2d8bc0315d)" style="fill: none; stroke: #000000; stroke-width: 1.2"/>
    <path d="M 82.079621 79.071796 
L 120.825203 124.430246 
" clip-path="url(#p2d8bc0315d)" style="fill: none; stroke: #000000; stroke-width: 1.2"/>
    <path d="M 60.892727 70.819998 
L 125.668196 80.601362 
" clip-path="url(#p2d8bc0315d)" style="fill: none; stroke: #000000; stroke-width: 1.2"/>
    <path d="M 60.892727 70.819998 
L 104.157148 53.803636 
" clip-path="url(#p2d8bc0315d)" style="fill: none; stroke: #000000; stroke-width: 1.2"/>
    <path d="M 60.892727 70.819998 
L 95.914154 97.843826 
" clip-path="url(#p2d8bc0315d)" style="fill: none; stroke: #000000; stroke-width: 1.2"/>
    <path d="M 60.892727 70.819998 
L 61.124368 107.537089 
" clip-path="url(#p2d8bc0315d)" style="fill: none; stroke: #000000; stroke-width: 1.2"/>
    <path d="M 60.892727 70.819998 
L 83.863565 120.242876 
" clip-path="url(#p2d8bc0315d)" style="fill: none; stroke: #000000; stroke-width: 1.2"/>
    <path d="M 125.668196 80.601362 
L 147.951016 63.524399 
" clip-path="url(#p2d8bc0315d)" style="fill: none; stroke: #000000; stroke-width: 1.2"/>
    <path d="M 125.668196 80.601362 
L 165.013224 72.458403 
" clip-path="url(#p2d8bc0315d)" style="fill: none; stroke: #000000; stroke-width: 1.2"/>
    <path d="M 125.668196 80.601362 
L 120.825203 124.430246 
" clip-path="url(#p2d8bc0315d)" style="fill: none; stroke: #000000; stroke-width: 1.2"/>
    <path d="M 125.668196 80.601362 
L 83.863565 120.242876 
" clip-path="url(#p2d8bc0315d)" style="fill: none; stroke: #000000; stroke-width: 1.2"/>
    <path d="M 125.668196 80.601362 
L 162.392299 115.923365 
" clip-path="url(#p2d8bc0315d)" style="fill: none; stroke: #000000; stroke-width: 1.2"/>
    <path d="M 147.951016 63.524399 
L 165.013224 72.458403 
" clip-path="url(#p2d8bc0315d)" style="fill: none; stroke: #000000; stroke-width: 1.2"/>
    <path d="M 147.951016 63.524399 
L 104.157148 53.803636 
" clip-path="url(#p2d8bc0315d)" style="fill: none; stroke: #000000; stroke-width: 1.2"/>
    <path d="M 147.951016 63.524399 
L 138.930215 110.633541 
" clip-path="url(#p2d8bc0315d)" style="fill: none; stroke: #000000; stroke-width: 1.2"/>
    <path d="M 147.951016 63.524399 
L 162.392299 115.923365 
" clip-path="url(#p2d8bc0315d)" style="fill: none; stroke: #000000; stroke-width: 1.2"/>
    <path d="M 147.951016 63.524399 
L 109.300891 100.059469 
" clip-path="url(#p2d8bc0315d)" style="fill: none; stroke: #000000; stroke-width: 1.2"/>
    <path d="M 165.013224 72.458403 
L 104.157148 53.803636 
" clip-path="url(#p2d8bc0315d)" style="fill: none; stroke: #000000; stroke-width: 1.2"/>
    <path d="M 165.013224 72.458403 
L 119.836325 113.570677 
" clip-path="url(#p2d8bc0315d)" style="fill: none; stroke: #000000; stroke-width: 1.2"/>
    <path d="M 165.013224 72.458403 
L 162.392299 115.923365 
" clip-path="url(#p2d8bc0315d)" style="fill: none; stroke: #000000; stroke-width: 1.2"/>
    <path d="M 165.013224 72.458403 
L 140.871673 97.283115 
" clip-path="url(#p2d8bc0315d)" style="fill: none; stroke: #000000; stroke-width: 1.2"/>
    <path d="M 104.157148 53.803636 
L 61.124368 107.537089 
" clip-path="url(#p2d8bc0315d)" style="fill: none; stroke: #000000; stroke-width: 1.2"/>
    <path d="M 104.157148 53.803636 
L 109.300891 100.059469 
" clip-path="url(#p2d8bc0315d)" style="fill: none; stroke: #000000; stroke-width: 1.2"/>
    <path d="M 104.157148 53.803636 
L 140.871673 97.283115 
" clip-path="url(#p2d8bc0315d)" style="fill: none; stroke: #000000; stroke-width: 1.2"/>
    <path d="M 64.246688 101.552633 
L 119.836325 113.570677 
" clip-path="url(#p2d8bc0315d)" style="fill: none; stroke: #000000; stroke-width: 1.2"/>
    <path d="M 64.246688 101.552633 
L 82.855243 109.736036 
" clip-path="url(#p2d8bc0315d)" style="fill: none; stroke: #000000; stroke-width: 1.2"/>
    <path d="M 64.246688 101.552633 
L 95.914154 97.843826 
" clip-path="url(#p2d8bc0315d)" style="fill: none; stroke: #000000; stroke-width: 1.2"/>
    <path d="M 64.246688 101.552633 
L 138.930215 110.633541 
" clip-path="url(#p2d8bc0315d)" style="fill: none; stroke: #000000; stroke-width: 1.2"/>
    <path d="M 64.246688 101.552633 
L 83.863565 120.242876 
" clip-path="url(#p2d8bc0315d)" style="fill: none; stroke: #000000; stroke-width: 1.2"/>
    <path d="M 64.246688 101.552633 
L 109.300891 100.059469 
" clip-path="url(#p2d8bc0315d)" style="fill: none; stroke: #000000; stroke-width: 1.2"/>
    <path d="M 64.246688 101.552633 
L 55.368595 142.174899 
" clip-path="url(#p2d8bc0315d)" style="fill: none; stroke: #000000; stroke-width: 1.2"/>
    <path d="M 64.246688 101.552633 
L 74.012351 153.801124 
" clip-path="url(#p2d8bc0315d)" style="fill: none; stroke: #000000; stroke-width: 1.2"/>
    <path d="M 64.246688 101.552633 
L 101.056579 148.070229 
" clip-path="url(#p2d8bc0315d)" style="fill: none; stroke: #000000; stroke-width: 1.2"/>
    <path d="M 119.836325 113.570677 
L 82.855243 109.736036 
" clip-path="url(#p2d8bc0315d)" style="fill: none; stroke: #000000; stroke-width: 1.2"/>
    <path d="M 119.836325 113.570677 
L 156.526558 107.966196 
" clip-path="url(#p2d8bc0315d)" style="fill: none; stroke: #000000; stroke-width: 1.2"/>
    <path d="M 119.836325 113.570677 
L 83.863565 120.242876 
" clip-path="url(#p2d8bc0315d)" style="fill: none; stroke: #000000; stroke-width: 1.2"/>
    <path d="M 119.836325 113.570677 
L 162.392299 115.923365 
" clip-path="url(#p2d8bc0315d)" style="fill: none; stroke: #000000; stroke-width: 1.2"/>
    <path d="M 119.836325 113.570677 
L 140.871673 97.283115 
" clip-path="url(#p2d8bc0315d)" style="fill: none; stroke: #000000; stroke-width: 1.2"/>
    <path d="M 119.836325 113.570677 
L 74.012351 153.801124 
" clip-path="url(#p2d8bc0315d)" style="fill: none; stroke: #000000; stroke-width: 1.2"/>
    <path d="M 119.836325 113.570677 
L 150.264768 147.862918 
" clip-path="url(#p2d8bc0315d)" style="fill: none; stroke: #000000; stroke-width: 1.2"/>
    <path d="M 119.836325 113.570677 
L 120.28147 163.109025 
" clip-path="url(#p2d8bc0315d)" style="fill: none; stroke: #000000; stroke-width: 1.2"/>
    <path d="M 82.855243 109.736036 
L 156.526558 107.966196 
" clip-path="url(#p2d8bc0315d)" style="fill: none; stroke: #000000; stroke-width: 1.2"/>
    <path d="M 82.855243 109.736036 
L 61.124368 107.537089 
" clip-path="url(#p2d8bc0315d)" style="fill: none; stroke: #000000; stroke-width: 1.2"/>
    <path d="M 82.855243 109.736036 
L 120.825203 124.430246 
" clip-path="url(#p2d8bc0315d)" style="fill: none; stroke: #000000; stroke-width: 1.2"/>
    <path d="M 82.855243 109.736036 
L 109.300891 100.059469 
" clip-path="url(#p2d8bc0315d)" style="fill: none; stroke: #000000; stroke-width: 1.2"/>
    <path d="M 82.855243 109.736036 
L 74.012351 153.801124 
" clip-path="url(#p2d8bc0315d)" style="fill: none; stroke: #000000; stroke-width: 1.2"/>
    <path d="M 82.855243 109.736036 
L 109.538383 160.568894 
" clip-path="url(#p2d8bc0315d)" style="fill: none; stroke: #000000; stroke-width: 1.2"/>
    <path d="M 82.855243 109.736036 
L 64.820537 138.217582 
" clip-path="url(#p2d8bc0315d)" style="fill: none; stroke: #000000; stroke-width: 1.2"/>
    <path d="M 156.526558 107.966196 
L 95.914154 97.843826 
" clip-path="url(#p2d8bc0315d)" style="fill: none; stroke: #000000; stroke-width: 1.2"/>
    <path d="M 156.526558 107.966196 
L 138.930215 110.633541 
" clip-path="url(#p2d8bc0315d)" style="fill: none; stroke: #000000; stroke-width: 1.2"/>
    <path d="M 156.526558 107.966196 
L 120.825203 124.430246 
" clip-path="url(#p2d8bc0315d)" style="fill: none; stroke: #000000; stroke-width: 1.2"/>
    <path d="M 156.526558 107.966196 
L 140.871673 97.283115 
" clip-path="url(#p2d8bc0315d)" style="fill: none; stroke: #000000; stroke-width: 1.2"/>
    <path d="M 156.526558 107.966196 
L 109.538383 160.568894 
" clip-path="url(#p2d8bc0315d)" style="fill: none; stroke: #000000; stroke-width: 1.2"/>
    <path d="M 156.526558 107.966196 
L 150.264768 147.862918 
" clip-path="url(#p2d8bc0315d)" style="fill: none; stroke: #000000; stroke-width: 1.2"/>
    <path d="M 156.526558 107.966196 
L 129.600633 143.771594 
" clip-path="url(#p2d8bc0315d)" style="fill: none; stroke: #000000; stroke-width: 1.2"/>
    <path d="M 95.914154 97.843826 
L 138.930215 110.633541 
" clip-path="url(#p2d8bc0315d)" style="fill: none; stroke: #000000; stroke-width: 1.2"/>
    <path d="M 95.914154 97.843826 
L 61.124368 107.537089 
" clip-path="url(#p2d8bc0315d)" style="fill: none; stroke: #000000; stroke-width: 1.2"/>
    <path d="M 95.914154 97.843826 
L 83.863565 120.242876 
" clip-path="url(#p2d8bc0315d)" style="fill: none; stroke: #000000; stroke-width: 1.2"/>
    <path d="M 95.914154 97.843826 
L 140.871673 97.283115 
" clip-path="url(#p2d8bc0315d)" style="fill: none; stroke: #000000; stroke-width: 1.2"/>
    <path d="M 95.914154 97.843826 
L 55.368595 142.174899 
" clip-path="url(#p2d8bc0315d)" style="fill: none; stroke: #000000; stroke-width: 1.2"/>
    <path d="M 95.914154 97.843826 
L 129.600633 143.771594 
" clip-path="url(#p2d8bc0315d)" style="fill: none; stroke: #000000; stroke-width: 1.2"/>
    <path d="M 95.914154 97.843826 
L 96.901133 138.157221 
" clip-path="url(#p2d8bc0315d)" style="fill: none; stroke: #000000; stroke-width: 1.2"/>
    <path d="M 138.930215 110.633541 
L 120.825203 124.430246 
" clip-path="url(#p2d8bc0315d)" style="fill: none; stroke: #000000; stroke-width: 1.2"/>
    <path d="M 138.930215 110.633541 
L 162.392299 115.923365 
" clip-path="url(#p2d8bc0315d)" style="fill: none; stroke: #000000; stroke-width: 1.2"/>
    <path d="M 138.930215 110.633541 
L 109.300891 100.059469 
" clip-path="url(#p2d8bc0315d)" style="fill: none; stroke: #000000; stroke-width: 1.2"/>
    <path d="M 138.930215 110.633541 
L 129.600633 143.771594 
" clip-path="url(#p2d8bc0315d)" style="fill: none; stroke: #000000; stroke-width: 1.2"/>
    <path d="M 138.930215 110.633541 
L 101.056579 148.070229 
" clip-path="url(#p2d8bc0315d)" style="fill: none; stroke: #000000; stroke-width: 1.2"/>
    <path d="M 138.930215 110.633541 
L 150.489714 160.7733 
" clip-path="url(#p2d8bc0315d)" style="fill: none; stroke: #000000; stroke-width: 1.2"/>
    <path d="M 61.124368 107.537089 
L 120.825203 124.430246 
" clip-path="url(#p2d8bc0315d)" style="fill: none; stroke: #000000; stroke-width: 1.2"/>
    <path d="M 61.124368 107.537089 
L 83.863565 120.242876 
" clip-path="url(#p2d8bc0315d)" style="fill: none; stroke: #000000; stroke-width: 1.2"/>
    <path d="M 61.124368 107.537089 
L 109.300891 100.059469 
" clip-path="url(#p2d8bc0315d)" style="fill: none; stroke: #000000; stroke-width: 1.2"/>
    <path d="M 61.124368 107.537089 
L 140.871673 97.283115 
" clip-path="url(#p2d8bc0315d)" style="fill: none; stroke: #000000; stroke-width: 1.2"/>
    <path d="M 61.124368 107.537089 
L 64.820537 138.217582 
" clip-path="url(#p2d8bc0315d)" style="fill: none; stroke: #000000; stroke-width: 1.2"/>
    <path d="M 61.124368 107.537089 
L 80.65863 162.99563 
" clip-path="url(#p2d8bc0315d)" style="fill: none; stroke: #000000; stroke-width: 1.2"/>
    <path d="M 61.124368 107.537089 
L 96.901133 138.157221 
" clip-path="url(#p2d8bc0315d)" style="fill: none; stroke: #000000; stroke-width: 1.2"/>
    <path d="M 120.825203 124.430246 
L 83.863565 120.242876 
" clip-path="url(#p2d8bc0315d)" style="fill: none; stroke: #000000; stroke-width: 1.2"/>
    <path d="M 120.825203 124.430246 
L 162.392299 115.923365 
" clip-path="url(#p2d8bc0315d)" style="fill: none; stroke: #000000; stroke-width: 1.2"/>
    <path d="M 120.825203 124.430246 
L 109.538383 160.568894 
" clip-path="url(#p2d8bc0315d)" style="fill: none; stroke: #000000; stroke-width: 1.2"/>
    <path d="M 120.825203 124.430246 
L 80.65863 162.99563 
" clip-path="url(#p2d8bc0315d)" style="fill: none; stroke: #000000; stroke-width: 1.2"/>
    <path d="M 120.825203 124.430246 
L 150.489714 160.7733 
" clip-path="url(#p2d8bc0315d)" style="fill: none; stroke: #000000; stroke-width: 1.2"/>
    <path d="M 83.863565 120.242876 
L 162.392299 115.923365 
" clip-path="url(#p2d8bc0315d)" style="fill: none; stroke: #000000; stroke-width: 1.2"/>
    <path d="M 83.863565 120.242876 
L 55.368595 142.174899 
" clip-path="url(#p2d8bc0315d)" style="fill: none; stroke: #000000; stroke-width: 1.2"/>
    <path d="M 83.863565 120.242876 
L 80.65863 162.99563 
" clip-path="url(#p2d8bc0315d)" style="fill: none; stroke: #000000; stroke-width: 1.2"/>
    <path d="M 83.863565 120.242876 
L 120.28147 163.109025 
" clip-path="url(#p2d8bc0315d)" style="fill: none; stroke: #000000; stroke-width: 1.2"/>
    <path d="M 162.392299 115.923365 
L 109.300891 100.059469 
" clip-path="url(#p2d8bc0315d)" style="fill: none; stroke: #000000; stroke-width: 1.2"/>
    <path d="M 162.392299 115.923365 
L 140.871673 97.283115 
" clip-path="url(#p2d8bc0315d)" style="fill: none; stroke: #000000; stroke-width: 1.2"/>
    <path d="M 162.392299 115.923365 
L 120.28147 163.109025 
" clip-path="url(#p2d8bc0315d)" style="fill: none; stroke: #000000; stroke-width: 1.2"/>
    <path d="M 162.392299 115.923365 
L 150.489714 160.7733 
" clip-path="url(#p2d8bc0315d)" style="fill: none; stroke: #000000; stroke-width: 1.2"/>
    <path d="M 162.392299 115.923365 
L 157.172398 138.130563 
" clip-path="url(#p2d8bc0315d)" style="fill: none; stroke: #000000; stroke-width: 1.2"/>
    <path d="M 109.300891 100.059469 
L 140.871673 97.283115 
" clip-path="url(#p2d8bc0315d)" style="fill: none; stroke: #000000; stroke-width: 1.2"/>
    <path d="M 109.300891 100.059469 
L 101.056579 148.070229 
" clip-path="url(#p2d8bc0315d)" style="fill: none; stroke: #000000; stroke-width: 1.2"/>
    <path d="M 109.300891 100.059469 
L 64.820537 138.217582 
" clip-path="url(#p2d8bc0315d)" style="fill: none; stroke: #000000; stroke-width: 1.2"/>
    <path d="M 109.300891 100.059469 
L 157.172398 138.130563 
" clip-path="url(#p2d8bc0315d)" style="fill: none; stroke: #000000; stroke-width: 1.2"/>
    <path d="M 140.871673 97.283115 
L 150.264768 147.862918 
" clip-path="url(#p2d8bc0315d)" style="fill: none; stroke: #000000; stroke-width: 1.2"/>
    <path d="M 140.871673 97.283115 
L 157.172398 138.130563 
" clip-path="url(#p2d8bc0315d)" style="fill: none; stroke: #000000; stroke-width: 1.2"/>
    <path d="M 140.871673 97.283115 
L 96.901133 138.157221 
" clip-path="url(#p2d8bc0315d)" style="fill: none; stroke: #000000; stroke-width: 1.2"/>
    <path d="M 55.368595 142.174899 
L 74.012351 153.801124 
" clip-path="url(#p2d8bc0315d)" style="fill: none; stroke: #000000; stroke-width: 1.2"/>
    <path d="M 55.368595 142.174899 
L 129.600633 143.771594 
" clip-path="url(#p2d8bc0315d)" style="fill: none; stroke: #000000; stroke-width: 1.2"/>
    <path d="M 55.368595 142.174899 
L 101.056579 148.070229 
" clip-path="url(#p2d8bc0315d)" style="fill: none; stroke: #000000; stroke-width: 1.2"/>
    <path d="M 55.368595 142.174899 
L 80.65863 162.99563 
" clip-path="url(#p2d8bc0315d)" style="fill: none; stroke: #000000; stroke-width: 1.2"/>
    <path d="M 55.368595 142.174899 
L 120.28147 163.109025 
" clip-path="url(#p2d8bc0315d)" style="fill: none; stroke: #000000; stroke-width: 1.2"/>
    <path d="M 55.368595 142.174899 
L 96.901133 138.157221 
" clip-path="url(#p2d8bc0315d)" style="fill: none; stroke: #000000; stroke-width: 1.2"/>
    <path d="M 74.012351 153.801124 
L 109.538383 160.568894 
" clip-path="url(#p2d8bc0315d)" style="fill: none; stroke: #000000; stroke-width: 1.2"/>
    <path d="M 74.012351 153.801124 
L 150.264768 147.862918 
" clip-path="url(#p2d8bc0315d)" style="fill: none; stroke: #000000; stroke-width: 1.2"/>
    <path d="M 74.012351 153.801124 
L 101.056579 148.070229 
" clip-path="url(#p2d8bc0315d)" style="fill: none; stroke: #000000; stroke-width: 1.2"/>
    <path d="M 74.012351 153.801124 
L 64.820537 138.217582 
" clip-path="url(#p2d8bc0315d)" style="fill: none; stroke: #000000; stroke-width: 1.2"/>
    <path d="M 74.012351 153.801124 
L 120.28147 163.109025 
" clip-path="url(#p2d8bc0315d)" style="fill: none; stroke: #000000; stroke-width: 1.2"/>
    <path d="M 109.538383 160.568894 
L 150.264768 147.862918 
" clip-path="url(#p2d8bc0315d)" style="fill: none; stroke: #000000; stroke-width: 1.2"/>
    <path d="M 109.538383 160.568894 
L 129.600633 143.771594 
" clip-path="url(#p2d8bc0315d)" style="fill: none; stroke: #000000; stroke-width: 1.2"/>
    <path d="M 109.538383 160.568894 
L 64.820537 138.217582 
" clip-path="url(#p2d8bc0315d)" style="fill: none; stroke: #000000; stroke-width: 1.2"/>
    <path d="M 109.538383 160.568894 
L 80.65863 162.99563 
" clip-path="url(#p2d8bc0315d)" style="fill: none; stroke: #000000; stroke-width: 1.2"/>
    <path d="M 109.538383 160.568894 
L 150.489714 160.7733 
" clip-path="url(#p2d8bc0315d)" style="fill: none; stroke: #000000; stroke-width: 1.2"/>
    <path d="M 150.264768 147.862918 
L 129.600633 143.771594 
" clip-path="url(#p2d8bc0315d)" style="fill: none; stroke: #000000; stroke-width: 1.2"/>
    <path d="M 150.264768 147.862918 
L 120.28147 163.109025 
" clip-path="url(#p2d8bc0315d)" style="fill: none; stroke: #000000; stroke-width: 1.2"/>
    <path d="M 150.264768 147.862918 
L 157.172398 138.130563 
" clip-path="url(#p2d8bc0315d)" style="fill: none; stroke: #000000; stroke-width: 1.2"/>
    <path d="M 150.264768 147.862918 
L 96.901133 138.157221 
" clip-path="url(#p2d8bc0315d)" style="fill: none; stroke: #000000; stroke-width: 1.2"/>
    <path d="M 129.600633 143.771594 
L 101.056579 148.070229 
" clip-path="url(#p2d8bc0315d)" style="fill: none; stroke: #000000; stroke-width: 1.2"/>
    <path d="M 129.600633 143.771594 
L 150.489714 160.7733 
" clip-path="url(#p2d8bc0315d)" style="fill: none; stroke: #000000; stroke-width: 1.2"/>
    <path d="M 129.600633 143.771594 
L 96.901133 138.157221 
" clip-path="url(#p2d8bc0315d)" style="fill: none; stroke: #000000; stroke-width: 1.2"/>
    <path d="M 101.056579 148.070229 
L 64.820537 138.217582 
" clip-path="url(#p2d8bc0315d)" style="fill: none; stroke: #000000; stroke-width: 1.2"/>
    <path d="M 101.056579 148.070229 
L 150.489714 160.7733 
" clip-path="url(#p2d8bc0315d)" style="fill: none; stroke: #000000; stroke-width: 1.2"/>
    <path d="M 101.056579 148.070229 
L 157.172398 138.130563 
" clip-path="url(#p2d8bc0315d)" style="fill: none; stroke: #000000; stroke-width: 1.2"/>
    <path d="M 64.820537 138.217582 
L 80.65863 162.99563 
" clip-path="url(#p2d8bc0315d)" style="fill: none; stroke: #000000; stroke-width: 1.2"/>
    <path d="M 64.820537 138.217582 
L 157.172398 138.130563 
" clip-path="url(#p2d8bc0315d)" style="fill: none; stroke: #000000; stroke-width: 1.2"/>
    <path d="M 64.820537 138.217582 
L 96.901133 138.157221 
" clip-path="url(#p2d8bc0315d)" style="fill: none; stroke: #000000; stroke-width: 1.2"/>
    <path d="M 80.65863 162.99563 
L 120.28147 163.109025 
" clip-path="url(#p2d8bc0315d)" style="fill: none; stroke: #000000; stroke-width: 1.2"/>
    <path d="M 80.65863 162.99563 
L 150.489714 160.7733 
" clip-path="url(#p2d8bc0315d)" style="fill: none; stroke: #000000; stroke-width: 1.2"/>
    <path d="M 80.65863 162.99563 
L 96.901133 138.157221 
" clip-path="url(#p2d8bc0315d)" style="fill: none; stroke: #000000; stroke-width: 1.2"/>
    <path d="M 120.28147 163.109025 
L 150.489714 160.7733 
" clip-path="url(#p2d8bc0315d)" style="fill: none; stroke: #000000; stroke-width: 1.2"/>
    <path d="M 120.28147 163.109025 
L 157.172398 138.130563 
" clip-path="url(#p2d8bc0315d)" style="fill: none; stroke: #000000; stroke-width: 1.2"/>
    <path d="M 120.28147 163.109025 
L 151.2499 196.929937 
" clip-path="url(#p2d8bc0315d)" style="fill: none; stroke: #000000; stroke-width: 1.2"/>
    <path d="M 150.489714 160.7733 
L 157.172398 138.130563 
" clip-path="url(#p2d8bc0315d)" style="fill: none; stroke: #000000; stroke-width: 1.2"/>
    <path d="M 150.489714 160.7733 
L 151.2499 196.929937 
" clip-path="url(#p2d8bc0315d)" style="fill: none; stroke: #000000; stroke-width: 1.2"/>
    <path d="M 150.489714 160.7733 
L 191.734815 173.283627 
" clip-path="url(#p2d8bc0315d)" style="fill: none; stroke: #000000; stroke-width: 1.2"/>
    <path d="M 157.172398 138.130563 
L 96.901133 138.157221 
" clip-path="url(#p2d8bc0315d)" style="fill: none; stroke: #000000; stroke-width: 1.2"/>
    <path d="M 157.172398 138.130563 
L 191.734815 173.283627 
" clip-path="url(#p2d8bc0315d)" style="fill: none; stroke: #000000; stroke-width: 1.2"/>
    <path d="M 149.714562 237.076364 
L 151.2499 196.929937 
" clip-path="url(#p2d8bc0315d)" style="fill: none; stroke: #000000; stroke-width: 1.2"/>
    <path d="M 239.831405 187.216955 
L 191.734815 173.283627 
" clip-path="url(#p2d8bc0315d)" style="fill: none; stroke: #000000; stroke-width: 1.2"/>
    <path d="M 151.2499 196.929937 
L 191.734815 173.283627 
" clip-path="url(#p2d8bc0315d)" style="fill: none; stroke: #000000; stroke-width: 1.2"/>
   </g>
   <g id="PathCollection_1">
    <defs>
     <path id="C0_0_4128bbd4e4" d="M 0 8.944272 
C 2.372049 8.944272 4.647264 8.001847 6.324555 6.324555 
C 8.001847 4.647264 8.944272 2.372049 8.944272 -0 
C 8.944272 -2.372049 8.001847 -4.647264 6.324555 -6.324555 
C 4.647264 -8.001847 2.372049 -8.944272 0 -8.944272 
C -2.372049 -8.944272 -4.647264 -8.001847 -6.324555 -6.324555 
C -8.001847 -4.647264 -8.944272 -2.372049 -8.944272 0 
C -8.944272 2.372049 -8.001847 4.647264 -6.324555 6.324555 
C -4.647264 8.001847 -2.372049 8.944272 0 8.944272 
z
"/>
    </defs>
    <g clip-path="url(#p2d8bc0315d)">
     <use xlink:href="#C0_0_4128bbd4e4" x="87.379669" y="70.773788" style="fill: #006985; stroke: #006985; stroke-width: 0.5"/>
    </g>
    <g clip-path="url(#p2d8bc0315d)">
     <use xlink:href="#C0_0_4128bbd4e4" x="72.959274" y="58.954595" style="fill: #006985; stroke: #006985; stroke-width: 0.5"/>
    </g>
    <g clip-path="url(#p2d8bc0315d)">
     <use xlink:href="#C0_0_4128bbd4e4" x="124.040713" y="67.457871" style="fill: #006985; stroke: #006985; stroke-width: 0.5"/>
    </g>
    <g clip-path="url(#p2d8bc0315d)">
     <use xlink:href="#C0_0_4128bbd4e4" x="139.166695" y="54.735409" style="fill: #006985; stroke: #006985; stroke-width: 0.5"/>
    </g>
    <g clip-path="url(#p2d8bc0315d)">
     <use xlink:href="#C0_0_4128bbd4e4" x="164.098847" y="81.407829" style="fill: #006985; stroke: #006985; stroke-width: 0.5"/>
    </g>
    <g clip-path="url(#p2d8bc0315d)">
     <use xlink:href="#C0_0_4128bbd4e4" x="108.093151" y="60.800182" style="fill: #006985; stroke: #006985; stroke-width: 0.5"/>
    </g>
    <g clip-path="url(#p2d8bc0315d)">
     <use xlink:href="#C0_0_4128bbd4e4" x="82.079621" y="79.071796" style="fill: #006985; stroke: #006985; stroke-width: 0.5"/>
    </g>
    <g clip-path="url(#p2d8bc0315d)">
     <use xlink:href="#C0_0_4128bbd4e4" x="60.892727" y="70.819998" style="fill: #006985; stroke: #006985; stroke-width: 0.5"/>
    </g>
    <g clip-path="url(#p2d8bc0315d)">
     <use xlink:href="#C0_0_4128bbd4e4" x="125.668196" y="80.601362" style="fill: #006985; stroke: #006985; stroke-width: 0.5"/>
    </g>
    <g clip-path="url(#p2d8bc0315d)">
     <use xlink:href="#C0_0_4128bbd4e4" x="147.951016" y="63.524399" style="fill: #006985; stroke: #006985; stroke-width: 0.5"/>
    </g>
    <g clip-path="url(#p2d8bc0315d)">
     <use xlink:href="#C0_0_4128bbd4e4" x="165.013224" y="72.458403" style="fill: #006985; stroke: #006985; stroke-width: 0.5"/>
    </g>
    <g clip-path="url(#p2d8bc0315d)">
     <use xlink:href="#C0_0_4128bbd4e4" x="104.157148" y="53.803636" style="fill: #006985; stroke: #006985; stroke-width: 0.5"/>
    </g>
    <g clip-path="url(#p2d8bc0315d)">
     <use xlink:href="#C0_0_4128bbd4e4" x="64.246688" y="101.552633" style="fill: #006985; stroke: #006985; stroke-width: 0.5"/>
    </g>
    <g clip-path="url(#p2d8bc0315d)">
     <use xlink:href="#C0_0_4128bbd4e4" x="119.836325" y="113.570677" style="fill: #006985; stroke: #006985; stroke-width: 0.5"/>
    </g>
    <g clip-path="url(#p2d8bc0315d)">
     <use xlink:href="#C0_0_4128bbd4e4" x="82.855243" y="109.736036" style="fill: #006985; stroke: #006985; stroke-width: 0.5"/>
    </g>
    <g clip-path="url(#p2d8bc0315d)">
     <use xlink:href="#C0_0_4128bbd4e4" x="156.526558" y="107.966196" style="fill: #006985; stroke: #006985; stroke-width: 0.5"/>
    </g>
    <g clip-path="url(#p2d8bc0315d)">
     <use xlink:href="#C0_0_4128bbd4e4" x="95.914154" y="97.843826" style="fill: #006985; stroke: #006985; stroke-width: 0.5"/>
    </g>
    <g clip-path="url(#p2d8bc0315d)">
     <use xlink:href="#C0_0_4128bbd4e4" x="138.930215" y="110.633541" style="fill: #006985; stroke: #006985; stroke-width: 0.5"/>
    </g>
    <g clip-path="url(#p2d8bc0315d)">
     <use xlink:href="#C0_0_4128bbd4e4" x="61.124368" y="107.537089" style="fill: #006985; stroke: #006985; stroke-width: 0.5"/>
    </g>
    <g clip-path="url(#p2d8bc0315d)">
     <use xlink:href="#C0_0_4128bbd4e4" x="120.825203" y="124.430246" style="fill: #006985; stroke: #006985; stroke-width: 0.5"/>
    </g>
    <g clip-path="url(#p2d8bc0315d)">
     <use xlink:href="#C0_0_4128bbd4e4" x="83.863565" y="120.242876" style="fill: #006985; stroke: #006985; stroke-width: 0.5"/>
    </g>
    <g clip-path="url(#p2d8bc0315d)">
     <use xlink:href="#C0_0_4128bbd4e4" x="162.392299" y="115.923365" style="fill: #006985; stroke: #006985; stroke-width: 0.5"/>
    </g>
    <g clip-path="url(#p2d8bc0315d)">
     <use xlink:href="#C0_0_4128bbd4e4" x="109.300891" y="100.059469" style="fill: #006985; stroke: #006985; stroke-width: 0.5"/>
    </g>
    <g clip-path="url(#p2d8bc0315d)">
     <use xlink:href="#C0_0_4128bbd4e4" x="140.871673" y="97.283115" style="fill: #006985; stroke: #006985; stroke-width: 0.5"/>
    </g>
    <g clip-path="url(#p2d8bc0315d)">
     <use xlink:href="#C0_0_4128bbd4e4" x="55.368595" y="142.174899" style="fill: #006985; stroke: #006985; stroke-width: 0.5"/>
    </g>
    <g clip-path="url(#p2d8bc0315d)">
     <use xlink:href="#C0_0_4128bbd4e4" x="74.012351" y="153.801124" style="fill: #006985; stroke: #006985; stroke-width: 0.5"/>
    </g>
    <g clip-path="url(#p2d8bc0315d)">
     <use xlink:href="#C0_0_4128bbd4e4" x="109.538383" y="160.568894" style="fill: #006985; stroke: #006985; stroke-width: 0.5"/>
    </g>
    <g clip-path="url(#p2d8bc0315d)">
     <use xlink:href="#C0_0_4128bbd4e4" x="150.264768" y="147.862918" style="fill: #006985; stroke: #006985; stroke-width: 0.5"/>
    </g>
    <g clip-path="url(#p2d8bc0315d)">
     <use xlink:href="#C0_0_4128bbd4e4" x="129.600633" y="143.771594" style="fill: #006985; stroke: #006985; stroke-width: 0.5"/>
    </g>
    <g clip-path="url(#p2d8bc0315d)">
     <use xlink:href="#C0_0_4128bbd4e4" x="101.056579" y="148.070229" style="fill: #006985; stroke: #006985; stroke-width: 0.5"/>
    </g>
    <g clip-path="url(#p2d8bc0315d)">
     <use xlink:href="#C0_0_4128bbd4e4" x="64.820537" y="138.217582" style="fill: #006985; stroke: #006985; stroke-width: 0.5"/>
    </g>
    <g clip-path="url(#p2d8bc0315d)">
     <use xlink:href="#C0_0_4128bbd4e4" x="80.65863" y="162.99563" style="fill: #006985; stroke: #006985; stroke-width: 0.5"/>
    </g>
    <g clip-path="url(#p2d8bc0315d)">
     <use xlink:href="#C0_0_4128bbd4e4" x="120.28147" y="163.109025" style="fill: #006985; stroke: #006985; stroke-width: 0.5"/>
    </g>
    <g clip-path="url(#p2d8bc0315d)">
     <use xlink:href="#C0_0_4128bbd4e4" x="150.489714" y="160.7733" style="fill: #006985; stroke: #006985; stroke-width: 0.5"/>
    </g>
    <g clip-path="url(#p2d8bc0315d)">
     <use xlink:href="#C0_0_4128bbd4e4" x="157.172398" y="138.130563" style="fill: #006985; stroke: #006985; stroke-width: 0.5"/>
    </g>
    <g clip-path="url(#p2d8bc0315d)">
     <use xlink:href="#C0_0_4128bbd4e4" x="96.901133" y="138.157221" style="fill: #006985; stroke: #006985; stroke-width: 0.5"/>
    </g>
    <g clip-path="url(#p2d8bc0315d)">
     <use xlink:href="#C0_0_4128bbd4e4" x="149.714562" y="237.076364" style="fill: #bfbfbf; stroke: #bfbfbf; stroke-width: 0.5"/>
    </g>
    <g clip-path="url(#p2d8bc0315d)">
     <use xlink:href="#C0_0_4128bbd4e4" x="239.831405" y="187.216955" style="fill: #bfbfbf; stroke: #bfbfbf; stroke-width: 0.5"/>
    </g>
    <g clip-path="url(#p2d8bc0315d)">
     <use xlink:href="#C0_0_4128bbd4e4" x="151.2499" y="196.929937" style="fill: #666666; stroke: #666666; stroke-width: 0.5"/>
    </g>
    <g clip-path="url(#p2d8bc0315d)">
     <use xlink:href="#C0_0_4128bbd4e4" x="191.734815" y="173.283627" style="fill: #666666; stroke: #666666; stroke-width: 0.5"/>
    </g>
   </g>
   <g id="text_1">
    <!-- C2H2Pd48 -->
    <g transform="translate(123.057763 -0.68345) scale(0.1 -0.1)">
     <defs>
      <path id="DejaVuSans-43" d="M 4122 4306 
L 4122 3641 
Q 3803 3938 3442 4084 
Q 3081 4231 2675 4231 
Q 1875 4231 1450 3742 
Q 1025 3253 1025 2328 
Q 1025 1406 1450 917 
Q 1875 428 2675 428 
Q 3081 428 3442 575 
Q 3803 722 4122 1019 
L 4122 359 
Q 3791 134 3420 21 
Q 3050 -91 2638 -91 
Q 1578 -91 968 557 
Q 359 1206 359 2328 
Q 359 3453 968 4101 
Q 1578 4750 2638 4750 
Q 3056 4750 3426 4639 
Q 3797 4528 4122 4306 
z
" transform="scale(0.015625)"/>
      <path id="DejaVuSans-32" d="M 1228 531 
L 3431 531 
L 3431 0 
L 469 0 
L 469 531 
Q 828 903 1448 1529 
Q 2069 2156 2228 2338 
Q 2531 2678 2651 2914 
Q 2772 3150 2772 3378 
Q 2772 3750 2511 3984 
Q 2250 4219 1831 4219 
Q 1534 4219 1204 4116 
Q 875 4013 500 3803 
L 500 4441 
Q 881 4594 1212 4672 
Q 1544 4750 1819 4750 
Q 2544 4750 2975 4387 
Q 3406 4025 3406 3419 
Q 3406 3131 3298 2873 
Q 3191 2616 2906 2266 
Q 2828 2175 2409 1742 
Q 1991 1309 1228 531 
z
" transform="scale(0.015625)"/>
      <path id="DejaVuSans-48" d="M 628 4666 
L 1259 4666 
L 1259 2753 
L 3553 2753 
L 3553 4666 
L 4184 4666 
L 4184 0 
L 3553 0 
L 3553 2222 
L 1259 2222 
L 1259 0 
L 628 0 
L 628 4666 
z
" transform="scale(0.015625)"/>
      <path id="DejaVuSans-50" d="M 1259 4147 
L 1259 2394 
L 2053 2394 
Q 2494 2394 2734 2622 
Q 2975 2850 2975 3272 
Q 2975 3691 2734 3919 
Q 2494 4147 2053 4147 
L 1259 4147 
z
M 628 4666 
L 2053 4666 
Q 2838 4666 3239 4311 
Q 3641 3956 3641 3272 
Q 3641 2581 3239 2228 
Q 2838 1875 2053 1875 
L 1259 1875 
L 1259 0 
L 628 0 
L 628 4666 
z
" transform="scale(0.015625)"/>
      <path id="DejaVuSans-64" d="M 2906 2969 
L 2906 4863 
L 3481 4863 
L 3481 0 
L 2906 0 
L 2906 525 
Q 2725 213 2448 61 
Q 2172 -91 1784 -91 
Q 1150 -91 751 415 
Q 353 922 353 1747 
Q 353 2572 751 3078 
Q 1150 3584 1784 3584 
Q 2172 3584 2448 3432 
Q 2725 3281 2906 2969 
z
M 947 1747 
Q 947 1113 1208 752 
Q 1469 391 1925 391 
Q 2381 391 2643 752 
Q 2906 1113 2906 1747 
Q 2906 2381 2643 2742 
Q 2381 3103 1925 3103 
Q 1469 3103 1208 2742 
Q 947 2381 947 1747 
z
" transform="scale(0.015625)"/>
      <path id="DejaVuSans-34" d="M 2419 4116 
L 825 1625 
L 2419 1625 
L 2419 4116 
z
M 2253 4666 
L 3047 4666 
L 3047 1625 
L 3713 1625 
L 3713 1100 
L 3047 1100 
L 3047 0 
L 2419 0 
L 2419 1100 
L 313 1100 
L 313 1709 
L 2253 4666 
z
" transform="scale(0.015625)"/>
      <path id="DejaVuSans-38" d="M 2034 2216 
Q 1584 2216 1326 1975 
Q 1069 1734 1069 1313 
Q 1069 891 1326 650 
Q 1584 409 2034 409 
Q 2484 409 2743 651 
Q 3003 894 3003 1313 
Q 3003 1734 2745 1975 
Q 2488 2216 2034 2216 
z
M 1403 2484 
Q 997 2584 770 2862 
Q 544 3141 544 3541 
Q 544 4100 942 4425 
Q 1341 4750 2034 4750 
Q 2731 4750 3128 4425 
Q 3525 4100 3525 3541 
Q 3525 3141 3298 2862 
Q 3072 2584 2669 2484 
Q 3125 2378 3379 2068 
Q 3634 1759 3634 1313 
Q 3634 634 3220 271 
Q 2806 -91 2034 -91 
Q 1263 -91 848 271 
Q 434 634 434 1313 
Q 434 1759 690 2068 
Q 947 2378 1403 2484 
z
M 1172 3481 
Q 1172 3119 1398 2916 
Q 1625 2713 2034 2713 
Q 2441 2713 2670 2916 
Q 2900 3119 2900 3481 
Q 2900 3844 2670 4047 
Q 2441 4250 2034 4250 
Q 1625 4250 1398 4047 
Q 1172 3844 1172 3481 
z
" transform="scale(0.015625)"/>
     </defs>
     <use xlink:href="#DejaVuSans-43"/>
     <use xlink:href="#DejaVuSans-32" transform="translate(69.824219 0)"/>
     <use xlink:href="#DejaVuSans-48" transform="translate(133.447266 0)"/>
     <use xlink:href="#DejaVuSans-32" transform="translate(208.642578 0)"/>
     <use xlink:href="#DejaVuSans-50" transform="translate(272.265625 0)"/>
     <use xlink:href="#DejaVuSans-64" transform="translate(332.568359 0)"/>
     <use xlink:href="#DejaVuSans-34" transform="translate(396.044922 0)"/>
     <use xlink:href="#DejaVuSans-38" transform="translate(459.667969 0)"/>
    </g>
    <!-- Error: -7.42 eV -->
    <g transform="translate(123.057763 10.514362) scale(0.1 -0.1)">
     <defs>
      <path id="DejaVuSans-45" d="M 628 4666 
L 3578 4666 
L 3578 4134 
L 1259 4134 
L 1259 2753 
L 3481 2753 
L 3481 2222 
L 1259 2222 
L 1259 531 
L 3634 531 
L 3634 0 
L 628 0 
L 628 4666 
z
" transform="scale(0.015625)"/>
      <path id="DejaVuSans-72" d="M 2631 2963 
Q 2534 3019 2420 3045 
Q 2306 3072 2169 3072 
Q 1681 3072 1420 2755 
Q 1159 2438 1159 1844 
L 1159 0 
L 581 0 
L 581 3500 
L 1159 3500 
L 1159 2956 
Q 1341 3275 1631 3429 
Q 1922 3584 2338 3584 
Q 2397 3584 2469 3576 
Q 2541 3569 2628 3553 
L 2631 2963 
z
" transform="scale(0.015625)"/>
      <path id="DejaVuSans-6f" d="M 1959 3097 
Q 1497 3097 1228 2736 
Q 959 2375 959 1747 
Q 959 1119 1226 758 
Q 1494 397 1959 397 
Q 2419 397 2687 759 
Q 2956 1122 2956 1747 
Q 2956 2369 2687 2733 
Q 2419 3097 1959 3097 
z
M 1959 3584 
Q 2709 3584 3137 3096 
Q 3566 2609 3566 1747 
Q 3566 888 3137 398 
Q 2709 -91 1959 -91 
Q 1206 -91 779 398 
Q 353 888 353 1747 
Q 353 2609 779 3096 
Q 1206 3584 1959 3584 
z
" transform="scale(0.015625)"/>
      <path id="DejaVuSans-3a" d="M 750 794 
L 1409 794 
L 1409 0 
L 750 0 
L 750 794 
z
M 750 3309 
L 1409 3309 
L 1409 2516 
L 750 2516 
L 750 3309 
z
" transform="scale(0.015625)"/>
      <path id="DejaVuSans-20" transform="scale(0.015625)"/>
      <path id="DejaVuSans-2d" d="M 313 2009 
L 1997 2009 
L 1997 1497 
L 313 1497 
L 313 2009 
z
" transform="scale(0.015625)"/>
      <path id="DejaVuSans-37" d="M 525 4666 
L 3525 4666 
L 3525 4397 
L 1831 0 
L 1172 0 
L 2766 4134 
L 525 4134 
L 525 4666 
z
" transform="scale(0.015625)"/>
      <path id="DejaVuSans-2e" d="M 684 794 
L 1344 794 
L 1344 0 
L 684 0 
L 684 794 
z
" transform="scale(0.015625)"/>
      <path id="DejaVuSans-65" d="M 3597 1894 
L 3597 1613 
L 953 1613 
Q 991 1019 1311 708 
Q 1631 397 2203 397 
Q 2534 397 2845 478 
Q 3156 559 3463 722 
L 3463 178 
Q 3153 47 2828 -22 
Q 2503 -91 2169 -91 
Q 1331 -91 842 396 
Q 353 884 353 1716 
Q 353 2575 817 3079 
Q 1281 3584 2069 3584 
Q 2775 3584 3186 3129 
Q 3597 2675 3597 1894 
z
M 3022 2063 
Q 3016 2534 2758 2815 
Q 2500 3097 2075 3097 
Q 1594 3097 1305 2825 
Q 1016 2553 972 2059 
L 3022 2063 
z
" transform="scale(0.015625)"/>
      <path id="DejaVuSans-56" d="M 1831 0 
L 50 4666 
L 709 4666 
L 2188 738 
L 3669 4666 
L 4325 4666 
L 2547 0 
L 1831 0 
z
" transform="scale(0.015625)"/>
     </defs>
     <use xlink:href="#DejaVuSans-45"/>
     <use xlink:href="#DejaVuSans-72" transform="translate(63.183594 0)"/>
     <use xlink:href="#DejaVuSans-72" transform="translate(102.546875 0)"/>
     <use xlink:href="#DejaVuSans-6f" transform="translate(141.410156 0)"/>
     <use xlink:href="#DejaVuSans-72" transform="translate(202.591797 0)"/>
     <use xlink:href="#DejaVuSans-3a" transform="translate(241.955078 0)"/>
     <use xlink:href="#DejaVuSans-20" transform="translate(275.646484 0)"/>
     <use xlink:href="#DejaVuSans-2d" transform="translate(307.433594 0)"/>
     <use xlink:href="#DejaVuSans-37" transform="translate(343.517578 0)"/>
     <use xlink:href="#DejaVuSans-2e" transform="translate(407.140625 0)"/>
     <use xlink:href="#DejaVuSans-34" transform="translate(438.927734 0)"/>
     <use xlink:href="#DejaVuSans-32" transform="translate(502.550781 0)"/>
     <use xlink:href="#DejaVuSans-20" transform="translate(566.173828 0)"/>
     <use xlink:href="#DejaVuSans-65" transform="translate(597.960938 0)"/>
     <use xlink:href="#DejaVuSans-56" transform="translate(659.484375 0)"/>
    </g>
   </g>
  </g>
 </g>
 <defs>
  <clipPath id="p2d8bc0315d">
   <rect x="36" y="34.56" width="223.2" height="221.76"/>
  </clipPath>
 </defs>
</svg>
