<?xml version="1.0" encoding="utf-8" standalone="no"?>
<!DOCTYPE svg PUBLIC "-//W3C//DTD SVG 1.1//EN"
  "http://www.w3.org/Graphics/SVG/1.1/DTD/svg11.dtd">
<svg xmlns:xlink="http://www.w3.org/1999/xlink" width="288pt" height="288pt" viewBox="0 0 288 288" xmlns="http://www.w3.org/2000/svg" version="1.1">
 <metadata>
  <rdf:RDF xmlns:dc="http://purl.org/dc/elements/1.1/" xmlns:cc="http://creativecommons.org/ns#" xmlns:rdf="http://www.w3.org/1999/02/22-rdf-syntax-ns#">
   <cc:Work>
    <dc:type rdf:resource="http://purl.org/dc/dcmitype/StillImage"/>
    <dc:date>2025-06-30T12:07:55.456601</dc:date>
    <dc:format>image/svg+xml</dc:format>
    <dc:creator>
     <cc:Agent>
      <dc:title>Matplotlib v3.10.1, https://matplotlib.org/</dc:title>
     </cc:Agent>
    </dc:creator>
   </cc:Work>
  </rdf:RDF>
 </metadata>
 <defs>
  <style type="text/css">*{stroke-linejoin: round; stroke-linecap: butt}</style>
 </defs>
 <g id="figure_1">
  <g id="patch_1">
   <path d="M 0 288 
L 288 288 
L 288 0 
L 0 0 
z
" style="fill: #ffffff"/>
  </g>
  <g id="axes_1">
   <g id="LineCollection_1">
    <path d="M 128.249018 71.638166 
L 143.6282 91.420422 
" clip-path="url(#pdbfd8a932f)" style="fill: none; stroke: #000000; stroke-width: 1.2"/>
    <path d="M 128.249018 71.638166 
L 91.731876 58.721932 
" clip-path="url(#pdbfd8a932f)" style="fill: none; stroke: #000000; stroke-width: 1.2"/>
    <path d="M 128.249018 71.638166 
L 120.495763 58.736718 
" clip-path="url(#pdbfd8a932f)" style="fill: none; stroke: #000000; stroke-width: 1.2"/>
    <path d="M 128.249018 71.638166 
L 139.922897 74.503857 
" clip-path="url(#pdbfd8a932f)" style="fill: none; stroke: #000000; stroke-width: 1.2"/>
    <path d="M 128.249018 71.638166 
L 92.431178 92.31119 
" clip-path="url(#pdbfd8a932f)" style="fill: none; stroke: #000000; stroke-width: 1.2"/>
    <path d="M 128.249018 71.638166 
L 128.615368 104.964112 
" clip-path="url(#pdbfd8a932f)" style="fill: none; stroke: #000000; stroke-width: 1.2"/>
    <path d="M 128.249018 71.638166 
L 111.136605 95.321769 
" clip-path="url(#pdbfd8a932f)" style="fill: none; stroke: #000000; stroke-width: 1.2"/>
    <path d="M 143.6282 91.420422 
L 139.922897 74.503857 
" clip-path="url(#pdbfd8a932f)" style="fill: none; stroke: #000000; stroke-width: 1.2"/>
    <path d="M 143.6282 91.420422 
L 101.908787 83.971496 
" clip-path="url(#pdbfd8a932f)" style="fill: none; stroke: #000000; stroke-width: 1.2"/>
    <path d="M 143.6282 91.420422 
L 105.352116 109.440131 
" clip-path="url(#pdbfd8a932f)" style="fill: none; stroke: #000000; stroke-width: 1.2"/>
    <path d="M 143.6282 91.420422 
L 128.615368 104.964112 
" clip-path="url(#pdbfd8a932f)" style="fill: none; stroke: #000000; stroke-width: 1.2"/>
    <path d="M 91.731876 58.721932 
L 120.495763 58.736718 
" clip-path="url(#pdbfd8a932f)" style="fill: none; stroke: #000000; stroke-width: 1.2"/>
    <path d="M 91.731876 58.721932 
L 68.030945 80.637473 
" clip-path="url(#pdbfd8a932f)" style="fill: none; stroke: #000000; stroke-width: 1.2"/>
    <path d="M 91.731876 58.721932 
L 71.553298 97.416593 
" clip-path="url(#pdbfd8a932f)" style="fill: none; stroke: #000000; stroke-width: 1.2"/>
    <path d="M 91.731876 58.721932 
L 111.136605 95.321769 
" clip-path="url(#pdbfd8a932f)" style="fill: none; stroke: #000000; stroke-width: 1.2"/>
    <path d="M 120.495763 58.736718 
L 139.922897 74.503857 
" clip-path="url(#pdbfd8a932f)" style="fill: none; stroke: #000000; stroke-width: 1.2"/>
    <path d="M 120.495763 58.736718 
L 103.695066 53.803636 
" clip-path="url(#pdbfd8a932f)" style="fill: none; stroke: #000000; stroke-width: 1.2"/>
    <path d="M 120.495763 58.736718 
L 111.136605 95.321769 
" clip-path="url(#pdbfd8a932f)" style="fill: none; stroke: #000000; stroke-width: 1.2"/>
    <path d="M 120.495763 58.736718 
L 89.090832 80.278918 
" clip-path="url(#pdbfd8a932f)" style="fill: none; stroke: #000000; stroke-width: 1.2"/>
    <path d="M 120.495763 58.736718 
L 115.51542 85.175671 
" clip-path="url(#pdbfd8a932f)" style="fill: none; stroke: #000000; stroke-width: 1.2"/>
    <path d="M 139.922897 74.503857 
L 103.695066 53.803636 
" clip-path="url(#pdbfd8a932f)" style="fill: none; stroke: #000000; stroke-width: 1.2"/>
    <path d="M 139.922897 74.503857 
L 128.615368 104.964112 
" clip-path="url(#pdbfd8a932f)" style="fill: none; stroke: #000000; stroke-width: 1.2"/>
    <path d="M 139.922897 74.503857 
L 115.51542 85.175671 
" clip-path="url(#pdbfd8a932f)" style="fill: none; stroke: #000000; stroke-width: 1.2"/>
    <path d="M 139.922897 74.503857 
L 101.613301 99.25004 
" clip-path="url(#pdbfd8a932f)" style="fill: none; stroke: #000000; stroke-width: 1.2"/>
    <path d="M 103.695066 53.803636 
L 74.868177 69.111608 
" clip-path="url(#pdbfd8a932f)" style="fill: none; stroke: #000000; stroke-width: 1.2"/>
    <path d="M 103.695066 53.803636 
L 115.51542 85.175671 
" clip-path="url(#pdbfd8a932f)" style="fill: none; stroke: #000000; stroke-width: 1.2"/>
    <path d="M 103.695066 53.803636 
L 76.588974 85.575884 
" clip-path="url(#pdbfd8a932f)" style="fill: none; stroke: #000000; stroke-width: 1.2"/>
    <path d="M 101.908787 83.971496 
L 74.868177 69.111608 
" clip-path="url(#pdbfd8a932f)" style="fill: none; stroke: #000000; stroke-width: 1.2"/>
    <path d="M 101.908787 83.971496 
L 68.030945 80.637473 
" clip-path="url(#pdbfd8a932f)" style="fill: none; stroke: #000000; stroke-width: 1.2"/>
    <path d="M 101.908787 83.971496 
L 105.352116 109.440131 
" clip-path="url(#pdbfd8a932f)" style="fill: none; stroke: #000000; stroke-width: 1.2"/>
    <path d="M 101.908787 83.971496 
L 128.615368 104.964112 
" clip-path="url(#pdbfd8a932f)" style="fill: none; stroke: #000000; stroke-width: 1.2"/>
    <path d="M 101.908787 83.971496 
L 89.090832 80.278918 
" clip-path="url(#pdbfd8a932f)" style="fill: none; stroke: #000000; stroke-width: 1.2"/>
    <path d="M 101.908787 83.971496 
L 101.613301 99.25004 
" clip-path="url(#pdbfd8a932f)" style="fill: none; stroke: #000000; stroke-width: 1.2"/>
    <path d="M 101.908787 83.971496 
L 69.57137 114.799764 
" clip-path="url(#pdbfd8a932f)" style="fill: none; stroke: #000000; stroke-width: 1.2"/>
    <path d="M 101.908787 83.971496 
L 55.592914 93.490115 
" clip-path="url(#pdbfd8a932f)" style="fill: none; stroke: #000000; stroke-width: 1.2"/>
    <path d="M 101.908787 83.971496 
L 102.829159 122.872215 
" clip-path="url(#pdbfd8a932f)" style="fill: none; stroke: #000000; stroke-width: 1.2"/>
    <path d="M 74.868177 69.111608 
L 68.030945 80.637473 
" clip-path="url(#pdbfd8a932f)" style="fill: none; stroke: #000000; stroke-width: 1.2"/>
    <path d="M 74.868177 69.111608 
L 92.431178 92.31119 
" clip-path="url(#pdbfd8a932f)" style="fill: none; stroke: #000000; stroke-width: 1.2"/>
    <path d="M 74.868177 69.111608 
L 89.090832 80.278918 
" clip-path="url(#pdbfd8a932f)" style="fill: none; stroke: #000000; stroke-width: 1.2"/>
    <path d="M 74.868177 69.111608 
L 115.51542 85.175671 
" clip-path="url(#pdbfd8a932f)" style="fill: none; stroke: #000000; stroke-width: 1.2"/>
    <path d="M 74.868177 69.111608 
L 76.588974 85.575884 
" clip-path="url(#pdbfd8a932f)" style="fill: none; stroke: #000000; stroke-width: 1.2"/>
    <path d="M 74.868177 69.111608 
L 55.592914 93.490115 
" clip-path="url(#pdbfd8a932f)" style="fill: none; stroke: #000000; stroke-width: 1.2"/>
    <path d="M 74.868177 69.111608 
L 55.368595 107.095844 
" clip-path="url(#pdbfd8a932f)" style="fill: none; stroke: #000000; stroke-width: 1.2"/>
    <path d="M 74.868177 69.111608 
L 85.714815 105.245364 
" clip-path="url(#pdbfd8a932f)" style="fill: none; stroke: #000000; stroke-width: 1.2"/>
    <path d="M 68.030945 80.637473 
L 92.431178 92.31119 
" clip-path="url(#pdbfd8a932f)" style="fill: none; stroke: #000000; stroke-width: 1.2"/>
    <path d="M 68.030945 80.637473 
L 71.553298 97.416593 
" clip-path="url(#pdbfd8a932f)" style="fill: none; stroke: #000000; stroke-width: 1.2"/>
    <path d="M 68.030945 80.637473 
L 111.136605 95.321769 
" clip-path="url(#pdbfd8a932f)" style="fill: none; stroke: #000000; stroke-width: 1.2"/>
    <path d="M 68.030945 80.637473 
L 101.613301 99.25004 
" clip-path="url(#pdbfd8a932f)" style="fill: none; stroke: #000000; stroke-width: 1.2"/>
    <path d="M 68.030945 80.637473 
L 55.592914 93.490115 
" clip-path="url(#pdbfd8a932f)" style="fill: none; stroke: #000000; stroke-width: 1.2"/>
    <path d="M 68.030945 80.637473 
L 77.838543 119.158605 
" clip-path="url(#pdbfd8a932f)" style="fill: none; stroke: #000000; stroke-width: 1.2"/>
    <path d="M 68.030945 80.637473 
L 56.374768 117.198981 
" clip-path="url(#pdbfd8a932f)" style="fill: none; stroke: #000000; stroke-width: 1.2"/>
    <path d="M 92.431178 92.31119 
L 105.352116 109.440131 
" clip-path="url(#pdbfd8a932f)" style="fill: none; stroke: #000000; stroke-width: 1.2"/>
    <path d="M 92.431178 92.31119 
L 128.615368 104.964112 
" clip-path="url(#pdbfd8a932f)" style="fill: none; stroke: #000000; stroke-width: 1.2"/>
    <path d="M 92.431178 92.31119 
L 111.136605 95.321769 
" clip-path="url(#pdbfd8a932f)" style="fill: none; stroke: #000000; stroke-width: 1.2"/>
    <path d="M 92.431178 92.31119 
L 76.588974 85.575884 
" clip-path="url(#pdbfd8a932f)" style="fill: none; stroke: #000000; stroke-width: 1.2"/>
    <path d="M 92.431178 92.31119 
L 77.838543 119.158605 
" clip-path="url(#pdbfd8a932f)" style="fill: none; stroke: #000000; stroke-width: 1.2"/>
    <path d="M 92.431178 92.31119 
L 55.368595 107.095844 
" clip-path="url(#pdbfd8a932f)" style="fill: none; stroke: #000000; stroke-width: 1.2"/>
    <path d="M 92.431178 92.31119 
L 96.62099 135.150409 
" clip-path="url(#pdbfd8a932f)" style="fill: none; stroke: #000000; stroke-width: 1.2"/>
    <path d="M 105.352116 109.440131 
L 128.615368 104.964112 
" clip-path="url(#pdbfd8a932f)" style="fill: none; stroke: #000000; stroke-width: 1.2"/>
    <path d="M 105.352116 109.440131 
L 71.553298 97.416593 
" clip-path="url(#pdbfd8a932f)" style="fill: none; stroke: #000000; stroke-width: 1.2"/>
    <path d="M 105.352116 109.440131 
L 89.090832 80.278918 
" clip-path="url(#pdbfd8a932f)" style="fill: none; stroke: #000000; stroke-width: 1.2"/>
    <path d="M 105.352116 109.440131 
L 76.588974 85.575884 
" clip-path="url(#pdbfd8a932f)" style="fill: none; stroke: #000000; stroke-width: 1.2"/>
    <path d="M 105.352116 109.440131 
L 69.57137 114.799764 
" clip-path="url(#pdbfd8a932f)" style="fill: none; stroke: #000000; stroke-width: 1.2"/>
    <path d="M 105.352116 109.440131 
L 96.62099 135.150409 
" clip-path="url(#pdbfd8a932f)" style="fill: none; stroke: #000000; stroke-width: 1.2"/>
    <path d="M 105.352116 109.440131 
L 64.574965 130.058597 
" clip-path="url(#pdbfd8a932f)" style="fill: none; stroke: #000000; stroke-width: 1.2"/>
    <path d="M 128.615368 104.964112 
L 111.136605 95.321769 
" clip-path="url(#pdbfd8a932f)" style="fill: none; stroke: #000000; stroke-width: 1.2"/>
    <path d="M 128.615368 104.964112 
L 115.51542 85.175671 
" clip-path="url(#pdbfd8a932f)" style="fill: none; stroke: #000000; stroke-width: 1.2"/>
    <path d="M 128.615368 104.964112 
L 101.613301 99.25004 
" clip-path="url(#pdbfd8a932f)" style="fill: none; stroke: #000000; stroke-width: 1.2"/>
    <path d="M 128.615368 104.964112 
L 96.62099 135.150409 
" clip-path="url(#pdbfd8a932f)" style="fill: none; stroke: #000000; stroke-width: 1.2"/>
    <path d="M 128.615368 104.964112 
L 102.829159 122.872215 
" clip-path="url(#pdbfd8a932f)" style="fill: none; stroke: #000000; stroke-width: 1.2"/>
    <path d="M 128.615368 104.964112 
L 120.394133 124.874321 
" clip-path="url(#pdbfd8a932f)" style="fill: none; stroke: #000000; stroke-width: 1.2"/>
    <path d="M 71.553298 97.416593 
L 111.136605 95.321769 
" clip-path="url(#pdbfd8a932f)" style="fill: none; stroke: #000000; stroke-width: 1.2"/>
    <path d="M 71.553298 97.416593 
L 89.090832 80.278918 
" clip-path="url(#pdbfd8a932f)" style="fill: none; stroke: #000000; stroke-width: 1.2"/>
    <path d="M 71.553298 97.416593 
L 101.613301 99.25004 
" clip-path="url(#pdbfd8a932f)" style="fill: none; stroke: #000000; stroke-width: 1.2"/>
    <path d="M 71.553298 97.416593 
L 76.588974 85.575884 
" clip-path="url(#pdbfd8a932f)" style="fill: none; stroke: #000000; stroke-width: 1.2"/>
    <path d="M 71.553298 97.416593 
L 56.374768 117.198981 
" clip-path="url(#pdbfd8a932f)" style="fill: none; stroke: #000000; stroke-width: 1.2"/>
    <path d="M 71.553298 97.416593 
L 86.989784 130.622009 
" clip-path="url(#pdbfd8a932f)" style="fill: none; stroke: #000000; stroke-width: 1.2"/>
    <path d="M 71.553298 97.416593 
L 64.574965 130.058597 
" clip-path="url(#pdbfd8a932f)" style="fill: none; stroke: #000000; stroke-width: 1.2"/>
    <path d="M 111.136605 95.321769 
L 89.090832 80.278918 
" clip-path="url(#pdbfd8a932f)" style="fill: none; stroke: #000000; stroke-width: 1.2"/>
    <path d="M 111.136605 95.321769 
L 115.51542 85.175671 
" clip-path="url(#pdbfd8a932f)" style="fill: none; stroke: #000000; stroke-width: 1.2"/>
    <path d="M 111.136605 95.321769 
L 77.838543 119.158605 
" clip-path="url(#pdbfd8a932f)" style="fill: none; stroke: #000000; stroke-width: 1.2"/>
    <path d="M 111.136605 95.321769 
L 86.989784 130.622009 
" clip-path="url(#pdbfd8a932f)" style="fill: none; stroke: #000000; stroke-width: 1.2"/>
    <path d="M 111.136605 95.321769 
L 120.394133 124.874321 
" clip-path="url(#pdbfd8a932f)" style="fill: none; stroke: #000000; stroke-width: 1.2"/>
    <path d="M 89.090832 80.278918 
L 115.51542 85.175671 
" clip-path="url(#pdbfd8a932f)" style="fill: none; stroke: #000000; stroke-width: 1.2"/>
    <path d="M 89.090832 80.278918 
L 69.57137 114.799764 
" clip-path="url(#pdbfd8a932f)" style="fill: none; stroke: #000000; stroke-width: 1.2"/>
    <path d="M 89.090832 80.278918 
L 86.989784 130.622009 
" clip-path="url(#pdbfd8a932f)" style="fill: none; stroke: #000000; stroke-width: 1.2"/>
    <path d="M 89.090832 80.278918 
L 85.714815 105.245364 
" clip-path="url(#pdbfd8a932f)" style="fill: none; stroke: #000000; stroke-width: 1.2"/>
    <path d="M 115.51542 85.175671 
L 101.613301 99.25004 
" clip-path="url(#pdbfd8a932f)" style="fill: none; stroke: #000000; stroke-width: 1.2"/>
    <path d="M 115.51542 85.175671 
L 76.588974 85.575884 
" clip-path="url(#pdbfd8a932f)" style="fill: none; stroke: #000000; stroke-width: 1.2"/>
    <path d="M 115.51542 85.175671 
L 85.714815 105.245364 
" clip-path="url(#pdbfd8a932f)" style="fill: none; stroke: #000000; stroke-width: 1.2"/>
    <path d="M 115.51542 85.175671 
L 120.394133 124.874321 
" clip-path="url(#pdbfd8a932f)" style="fill: none; stroke: #000000; stroke-width: 1.2"/>
    <path d="M 115.51542 85.175671 
L 88.206768 123.120409 
" clip-path="url(#pdbfd8a932f)" style="fill: none; stroke: #000000; stroke-width: 1.2"/>
    <path d="M 101.613301 99.25004 
L 76.588974 85.575884 
" clip-path="url(#pdbfd8a932f)" style="fill: none; stroke: #000000; stroke-width: 1.2"/>
    <path d="M 101.613301 99.25004 
L 102.829159 122.872215 
" clip-path="url(#pdbfd8a932f)" style="fill: none; stroke: #000000; stroke-width: 1.2"/>
    <path d="M 101.613301 99.25004 
L 56.374768 117.198981 
" clip-path="url(#pdbfd8a932f)" style="fill: none; stroke: #000000; stroke-width: 1.2"/>
    <path d="M 101.613301 99.25004 
L 88.206768 123.120409 
" clip-path="url(#pdbfd8a932f)" style="fill: none; stroke: #000000; stroke-width: 1.2"/>
    <path d="M 76.588974 85.575884 
L 55.368595 107.095844 
" clip-path="url(#pdbfd8a932f)" style="fill: none; stroke: #000000; stroke-width: 1.2"/>
    <path d="M 76.588974 85.575884 
L 88.206768 123.120409 
" clip-path="url(#pdbfd8a932f)" style="fill: none; stroke: #000000; stroke-width: 1.2"/>
    <path d="M 76.588974 85.575884 
L 64.574965 130.058597 
" clip-path="url(#pdbfd8a932f)" style="fill: none; stroke: #000000; stroke-width: 1.2"/>
    <path d="M 69.57137 114.799764 
L 55.592914 93.490115 
" clip-path="url(#pdbfd8a932f)" style="fill: none; stroke: #000000; stroke-width: 1.2"/>
    <path d="M 69.57137 114.799764 
L 96.62099 135.150409 
" clip-path="url(#pdbfd8a932f)" style="fill: none; stroke: #000000; stroke-width: 1.2"/>
    <path d="M 69.57137 114.799764 
L 102.829159 122.872215 
" clip-path="url(#pdbfd8a932f)" style="fill: none; stroke: #000000; stroke-width: 1.2"/>
    <path d="M 69.57137 114.799764 
L 86.989784 130.622009 
" clip-path="url(#pdbfd8a932f)" style="fill: none; stroke: #000000; stroke-width: 1.2"/>
    <path d="M 69.57137 114.799764 
L 85.714815 105.245364 
" clip-path="url(#pdbfd8a932f)" style="fill: none; stroke: #000000; stroke-width: 1.2"/>
    <path d="M 69.57137 114.799764 
L 64.574965 130.058597 
" clip-path="url(#pdbfd8a932f)" style="fill: none; stroke: #000000; stroke-width: 1.2"/>
    <path d="M 55.592914 93.490115 
L 77.838543 119.158605 
" clip-path="url(#pdbfd8a932f)" style="fill: none; stroke: #000000; stroke-width: 1.2"/>
    <path d="M 55.592914 93.490115 
L 55.368595 107.095844 
" clip-path="url(#pdbfd8a932f)" style="fill: none; stroke: #000000; stroke-width: 1.2"/>
    <path d="M 55.592914 93.490115 
L 102.829159 122.872215 
" clip-path="url(#pdbfd8a932f)" style="fill: none; stroke: #000000; stroke-width: 1.2"/>
    <path d="M 55.592914 93.490115 
L 56.374768 117.198981 
" clip-path="url(#pdbfd8a932f)" style="fill: none; stroke: #000000; stroke-width: 1.2"/>
    <path d="M 55.592914 93.490115 
L 85.714815 105.245364 
" clip-path="url(#pdbfd8a932f)" style="fill: none; stroke: #000000; stroke-width: 1.2"/>
    <path d="M 77.838543 119.158605 
L 55.368595 107.095844 
" clip-path="url(#pdbfd8a932f)" style="fill: none; stroke: #000000; stroke-width: 1.2"/>
    <path d="M 77.838543 119.158605 
L 96.62099 135.150409 
" clip-path="url(#pdbfd8a932f)" style="fill: none; stroke: #000000; stroke-width: 1.2"/>
    <path d="M 77.838543 119.158605 
L 56.374768 117.198981 
" clip-path="url(#pdbfd8a932f)" style="fill: none; stroke: #000000; stroke-width: 1.2"/>
    <path d="M 77.838543 119.158605 
L 86.989784 130.622009 
" clip-path="url(#pdbfd8a932f)" style="fill: none; stroke: #000000; stroke-width: 1.2"/>
    <path d="M 77.838543 119.158605 
L 120.394133 124.874321 
" clip-path="url(#pdbfd8a932f)" style="fill: none; stroke: #000000; stroke-width: 1.2"/>
    <path d="M 55.368595 107.095844 
L 96.62099 135.150409 
" clip-path="url(#pdbfd8a932f)" style="fill: none; stroke: #000000; stroke-width: 1.2"/>
    <path d="M 55.368595 107.095844 
L 85.714815 105.245364 
" clip-path="url(#pdbfd8a932f)" style="fill: none; stroke: #000000; stroke-width: 1.2"/>
    <path d="M 55.368595 107.095844 
L 88.206768 123.120409 
" clip-path="url(#pdbfd8a932f)" style="fill: none; stroke: #000000; stroke-width: 1.2"/>
    <path d="M 55.368595 107.095844 
L 64.574965 130.058597 
" clip-path="url(#pdbfd8a932f)" style="fill: none; stroke: #000000; stroke-width: 1.2"/>
    <path d="M 96.62099 135.150409 
L 102.829159 122.872215 
" clip-path="url(#pdbfd8a932f)" style="fill: none; stroke: #000000; stroke-width: 1.2"/>
    <path d="M 96.62099 135.150409 
L 120.394133 124.874321 
" clip-path="url(#pdbfd8a932f)" style="fill: none; stroke: #000000; stroke-width: 1.2"/>
    <path d="M 96.62099 135.150409 
L 64.574965 130.058597 
" clip-path="url(#pdbfd8a932f)" style="fill: none; stroke: #000000; stroke-width: 1.2"/>
    <path d="M 102.829159 122.872215 
L 56.374768 117.198981 
" clip-path="url(#pdbfd8a932f)" style="fill: none; stroke: #000000; stroke-width: 1.2"/>
    <path d="M 102.829159 122.872215 
L 120.394133 124.874321 
" clip-path="url(#pdbfd8a932f)" style="fill: none; stroke: #000000; stroke-width: 1.2"/>
    <path d="M 102.829159 122.872215 
L 88.206768 123.120409 
" clip-path="url(#pdbfd8a932f)" style="fill: none; stroke: #000000; stroke-width: 1.2"/>
    <path d="M 56.374768 117.198981 
L 86.989784 130.622009 
" clip-path="url(#pdbfd8a932f)" style="fill: none; stroke: #000000; stroke-width: 1.2"/>
    <path d="M 56.374768 117.198981 
L 88.206768 123.120409 
" clip-path="url(#pdbfd8a932f)" style="fill: none; stroke: #000000; stroke-width: 1.2"/>
    <path d="M 56.374768 117.198981 
L 64.574965 130.058597 
" clip-path="url(#pdbfd8a932f)" style="fill: none; stroke: #000000; stroke-width: 1.2"/>
    <path d="M 86.989784 130.622009 
L 85.714815 105.245364 
" clip-path="url(#pdbfd8a932f)" style="fill: none; stroke: #000000; stroke-width: 1.2"/>
    <path d="M 86.989784 130.622009 
L 120.394133 124.874321 
" clip-path="url(#pdbfd8a932f)" style="fill: none; stroke: #000000; stroke-width: 1.2"/>
    <path d="M 86.989784 130.622009 
L 64.574965 130.058597 
" clip-path="url(#pdbfd8a932f)" style="fill: none; stroke: #000000; stroke-width: 1.2"/>
    <path d="M 85.714815 105.245364 
L 120.394133 124.874321 
" clip-path="url(#pdbfd8a932f)" style="fill: none; stroke: #000000; stroke-width: 1.2"/>
    <path d="M 85.714815 105.245364 
L 88.206768 123.120409 
" clip-path="url(#pdbfd8a932f)" style="fill: none; stroke: #000000; stroke-width: 1.2"/>
    <path d="M 120.394133 124.874321 
L 88.206768 123.120409 
" clip-path="url(#pdbfd8a932f)" style="fill: none; stroke: #000000; stroke-width: 1.2"/>
    <path d="M 120.394133 124.874321 
L 143.441451 150.08035 
" clip-path="url(#pdbfd8a932f)" style="fill: none; stroke: #000000; stroke-width: 1.2"/>
    <path d="M 88.206768 123.120409 
L 64.574965 130.058597 
" clip-path="url(#pdbfd8a932f)" style="fill: none; stroke: #000000; stroke-width: 1.2"/>
    <path d="M 142.591535 236.030546 
L 164.433837 208.015562 
" clip-path="url(#pdbfd8a932f)" style="fill: none; stroke: #000000; stroke-width: 1.2"/>
    <path d="M 171.324726 237.076364 
L 164.433837 208.015562 
" clip-path="url(#pdbfd8a932f)" style="fill: none; stroke: #000000; stroke-width: 1.2"/>
    <path d="M 197.882006 220.493096 
L 164.433837 208.015562 
" clip-path="url(#pdbfd8a932f)" style="fill: none; stroke: #000000; stroke-width: 1.2"/>
    <path d="M 239.831405 167.899756 
L 204.795855 168.705145 
" clip-path="url(#pdbfd8a932f)" style="fill: none; stroke: #000000; stroke-width: 1.2"/>
    <path d="M 166.679652 173.944084 
L 164.433837 208.015562 
" clip-path="url(#pdbfd8a932f)" style="fill: none; stroke: #000000; stroke-width: 1.2"/>
    <path d="M 166.679652 173.944084 
L 143.441451 150.08035 
" clip-path="url(#pdbfd8a932f)" style="fill: none; stroke: #000000; stroke-width: 1.2"/>
    <path d="M 166.679652 173.944084 
L 204.795855 168.705145 
" clip-path="url(#pdbfd8a932f)" style="fill: none; stroke: #000000; stroke-width: 1.2"/>
   </g>
   <g id="PathCollection_1">
    <defs>
     <path id="C0_0_3fc61766c7" d="M 0 8.944272 
C 2.372049 8.944272 4.647264 8.001847 6.324555 6.324555 
C 8.001847 4.647264 8.944272 2.372049 8.944272 -0 
C 8.944272 -2.372049 8.001847 -4.647264 6.324555 -6.324555 
C 4.647264 -8.001847 2.372049 -8.944272 0 -8.944272 
C -2.372049 -8.944272 -4.647264 -8.001847 -6.324555 -6.324555 
C -8.001847 -4.647264 -8.944272 -2.372049 -8.944272 0 
C -8.944272 2.372049 -8.001847 4.647264 -6.324555 6.324555 
C -4.647264 8.001847 -2.372049 8.944272 0 8.944272 
z
"/>
    </defs>
    <g clip-path="url(#pdbfd8a932f)">
     <use xlink:href="#C0_0_3fc61766c7" x="128.249018" y="71.638166" style="fill: #175487; stroke: #175487; stroke-width: 0.5"/>
    </g>
    <g clip-path="url(#pdbfd8a932f)">
     <use xlink:href="#C0_0_3fc61766c7" x="143.6282" y="91.420422" style="fill: #175487; stroke: #175487; stroke-width: 0.5"/>
    </g>
    <g clip-path="url(#pdbfd8a932f)">
     <use xlink:href="#C0_0_3fc61766c7" x="91.731876" y="58.721932" style="fill: #175487; stroke: #175487; stroke-width: 0.5"/>
    </g>
    <g clip-path="url(#pdbfd8a932f)">
     <use xlink:href="#C0_0_3fc61766c7" x="120.495763" y="58.736718" style="fill: #175487; stroke: #175487; stroke-width: 0.5"/>
    </g>
    <g clip-path="url(#pdbfd8a932f)">
     <use xlink:href="#C0_0_3fc61766c7" x="139.922897" y="74.503857" style="fill: #175487; stroke: #175487; stroke-width: 0.5"/>
    </g>
    <g clip-path="url(#pdbfd8a932f)">
     <use xlink:href="#C0_0_3fc61766c7" x="103.695066" y="53.803636" style="fill: #175487; stroke: #175487; stroke-width: 0.5"/>
    </g>
    <g clip-path="url(#pdbfd8a932f)">
     <use xlink:href="#C0_0_3fc61766c7" x="101.908787" y="83.971496" style="fill: #175487; stroke: #175487; stroke-width: 0.5"/>
    </g>
    <g clip-path="url(#pdbfd8a932f)">
     <use xlink:href="#C0_0_3fc61766c7" x="74.868177" y="69.111608" style="fill: #175487; stroke: #175487; stroke-width: 0.5"/>
    </g>
    <g clip-path="url(#pdbfd8a932f)">
     <use xlink:href="#C0_0_3fc61766c7" x="68.030945" y="80.637473" style="fill: #175487; stroke: #175487; stroke-width: 0.5"/>
    </g>
    <g clip-path="url(#pdbfd8a932f)">
     <use xlink:href="#C0_0_3fc61766c7" x="92.431178" y="92.31119" style="fill: #175487; stroke: #175487; stroke-width: 0.5"/>
    </g>
    <g clip-path="url(#pdbfd8a932f)">
     <use xlink:href="#C0_0_3fc61766c7" x="105.352116" y="109.440131" style="fill: #175487; stroke: #175487; stroke-width: 0.5"/>
    </g>
    <g clip-path="url(#pdbfd8a932f)">
     <use xlink:href="#C0_0_3fc61766c7" x="128.615368" y="104.964112" style="fill: #175487; stroke: #175487; stroke-width: 0.5"/>
    </g>
    <g clip-path="url(#pdbfd8a932f)">
     <use xlink:href="#C0_0_3fc61766c7" x="71.553298" y="97.416593" style="fill: #175487; stroke: #175487; stroke-width: 0.5"/>
    </g>
    <g clip-path="url(#pdbfd8a932f)">
     <use xlink:href="#C0_0_3fc61766c7" x="111.136605" y="95.321769" style="fill: #175487; stroke: #175487; stroke-width: 0.5"/>
    </g>
    <g clip-path="url(#pdbfd8a932f)">
     <use xlink:href="#C0_0_3fc61766c7" x="89.090832" y="80.278918" style="fill: #175487; stroke: #175487; stroke-width: 0.5"/>
    </g>
    <g clip-path="url(#pdbfd8a932f)">
     <use xlink:href="#C0_0_3fc61766c7" x="115.51542" y="85.175671" style="fill: #175487; stroke: #175487; stroke-width: 0.5"/>
    </g>
    <g clip-path="url(#pdbfd8a932f)">
     <use xlink:href="#C0_0_3fc61766c7" x="101.613301" y="99.25004" style="fill: #175487; stroke: #175487; stroke-width: 0.5"/>
    </g>
    <g clip-path="url(#pdbfd8a932f)">
     <use xlink:href="#C0_0_3fc61766c7" x="76.588974" y="85.575884" style="fill: #175487; stroke: #175487; stroke-width: 0.5"/>
    </g>
    <g clip-path="url(#pdbfd8a932f)">
     <use xlink:href="#C0_0_3fc61766c7" x="69.57137" y="114.799764" style="fill: #175487; stroke: #175487; stroke-width: 0.5"/>
    </g>
    <g clip-path="url(#pdbfd8a932f)">
     <use xlink:href="#C0_0_3fc61766c7" x="55.592914" y="93.490115" style="fill: #175487; stroke: #175487; stroke-width: 0.5"/>
    </g>
    <g clip-path="url(#pdbfd8a932f)">
     <use xlink:href="#C0_0_3fc61766c7" x="77.838543" y="119.158605" style="fill: #175487; stroke: #175487; stroke-width: 0.5"/>
    </g>
    <g clip-path="url(#pdbfd8a932f)">
     <use xlink:href="#C0_0_3fc61766c7" x="55.368595" y="107.095844" style="fill: #175487; stroke: #175487; stroke-width: 0.5"/>
    </g>
    <g clip-path="url(#pdbfd8a932f)">
     <use xlink:href="#C0_0_3fc61766c7" x="96.62099" y="135.150409" style="fill: #175487; stroke: #175487; stroke-width: 0.5"/>
    </g>
    <g clip-path="url(#pdbfd8a932f)">
     <use xlink:href="#C0_0_3fc61766c7" x="102.829159" y="122.872215" style="fill: #175487; stroke: #175487; stroke-width: 0.5"/>
    </g>
    <g clip-path="url(#pdbfd8a932f)">
     <use xlink:href="#C0_0_3fc61766c7" x="56.374768" y="117.198981" style="fill: #175487; stroke: #175487; stroke-width: 0.5"/>
    </g>
    <g clip-path="url(#pdbfd8a932f)">
     <use xlink:href="#C0_0_3fc61766c7" x="86.989784" y="130.622009" style="fill: #175487; stroke: #175487; stroke-width: 0.5"/>
    </g>
    <g clip-path="url(#pdbfd8a932f)">
     <use xlink:href="#C0_0_3fc61766c7" x="85.714815" y="105.245364" style="fill: #175487; stroke: #175487; stroke-width: 0.5"/>
    </g>
    <g clip-path="url(#pdbfd8a932f)">
     <use xlink:href="#C0_0_3fc61766c7" x="120.394133" y="124.874321" style="fill: #175487; stroke: #175487; stroke-width: 0.5"/>
    </g>
    <g clip-path="url(#pdbfd8a932f)">
     <use xlink:href="#C0_0_3fc61766c7" x="88.206768" y="123.120409" style="fill: #175487; stroke: #175487; stroke-width: 0.5"/>
    </g>
    <g clip-path="url(#pdbfd8a932f)">
     <use xlink:href="#C0_0_3fc61766c7" x="64.574965" y="130.058597" style="fill: #175487; stroke: #175487; stroke-width: 0.5"/>
    </g>
    <g clip-path="url(#pdbfd8a932f)">
     <use xlink:href="#C0_0_3fc61766c7" x="142.591535" y="236.030546" style="fill: #bfbfbf; stroke: #bfbfbf; stroke-width: 0.5"/>
    </g>
    <g clip-path="url(#pdbfd8a932f)">
     <use xlink:href="#C0_0_3fc61766c7" x="171.324726" y="237.076364" style="fill: #bfbfbf; stroke: #bfbfbf; stroke-width: 0.5"/>
    </g>
    <g clip-path="url(#pdbfd8a932f)">
     <use xlink:href="#C0_0_3fc61766c7" x="197.882006" y="220.493096" style="fill: #bfbfbf; stroke: #bfbfbf; stroke-width: 0.5"/>
    </g>
    <g clip-path="url(#pdbfd8a932f)">
     <use xlink:href="#C0_0_3fc61766c7" x="239.831405" y="167.899756" style="fill: #bfbfbf; stroke: #bfbfbf; stroke-width: 0.5"/>
    </g>
    <g clip-path="url(#pdbfd8a932f)">
     <use xlink:href="#C0_0_3fc61766c7" x="166.679652" y="173.944084" style="fill: #666666; stroke: #666666; stroke-width: 0.5"/>
    </g>
    <g clip-path="url(#pdbfd8a932f)">
     <use xlink:href="#C0_0_3fc61766c7" x="164.433837" y="208.015562" style="fill: #666666; stroke: #666666; stroke-width: 0.5"/>
    </g>
    <g clip-path="url(#pdbfd8a932f)">
     <use xlink:href="#C0_0_3fc61766c7" x="143.441451" y="150.08035" style="fill: #ff0d0d; stroke: #ff0d0d; stroke-width: 0.5"/>
    </g>
    <g clip-path="url(#pdbfd8a932f)">
     <use xlink:href="#C0_0_3fc61766c7" x="204.795855" y="168.705145" style="fill: #ff0d0d; stroke: #ff0d0d; stroke-width: 0.5"/>
    </g>
   </g>
   <g id="text_1">
    <!-- C2H4Ir48O2 -->
    <g transform="translate(115.965805 -0.655982) scale(0.1 -0.1)">
     <defs>
      <path id="DejaVuSans-43" d="M 4122 4306 
L 4122 3641 
Q 3803 3938 3442 4084 
Q 3081 4231 2675 4231 
Q 1875 4231 1450 3742 
Q 1025 3253 1025 2328 
Q 1025 1406 1450 917 
Q 1875 428 2675 428 
Q 3081 428 3442 575 
Q 3803 722 4122 1019 
L 4122 359 
Q 3791 134 3420 21 
Q 3050 -91 2638 -91 
Q 1578 -91 968 557 
Q 359 1206 359 2328 
Q 359 3453 968 4101 
Q 1578 4750 2638 4750 
Q 3056 4750 3426 4639 
Q 3797 4528 4122 4306 
z
" transform="scale(0.015625)"/>
      <path id="DejaVuSans-32" d="M 1228 531 
L 3431 531 
L 3431 0 
L 469 0 
L 469 531 
Q 828 903 1448 1529 
Q 2069 2156 2228 2338 
Q 2531 2678 2651 2914 
Q 2772 3150 2772 3378 
Q 2772 3750 2511 3984 
Q 2250 4219 1831 4219 
Q 1534 4219 1204 4116 
Q 875 4013 500 3803 
L 500 4441 
Q 881 4594 1212 4672 
Q 1544 4750 1819 4750 
Q 2544 4750 2975 4387 
Q 3406 4025 3406 3419 
Q 3406 3131 3298 2873 
Q 3191 2616 2906 2266 
Q 2828 2175 2409 1742 
Q 1991 1309 1228 531 
z
" transform="scale(0.015625)"/>
      <path id="DejaVuSans-48" d="M 628 4666 
L 1259 4666 
L 1259 2753 
L 3553 2753 
L 3553 4666 
L 4184 4666 
L 4184 0 
L 3553 0 
L 3553 2222 
L 1259 2222 
L 1259 0 
L 628 0 
L 628 4666 
z
" transform="scale(0.015625)"/>
      <path id="DejaVuSans-34" d="M 2419 4116 
L 825 1625 
L 2419 1625 
L 2419 4116 
z
M 2253 4666 
L 3047 4666 
L 3047 1625 
L 3713 1625 
L 3713 1100 
L 3047 1100 
L 3047 0 
L 2419 0 
L 2419 1100 
L 313 1100 
L 313 1709 
L 2253 4666 
z
" transform="scale(0.015625)"/>
      <path id="DejaVuSans-49" d="M 628 4666 
L 1259 4666 
L 1259 0 
L 628 0 
L 628 4666 
z
" transform="scale(0.015625)"/>
      <path id="DejaVuSans-72" d="M 2631 2963 
Q 2534 3019 2420 3045 
Q 2306 3072 2169 3072 
Q 1681 3072 1420 2755 
Q 1159 2438 1159 1844 
L 1159 0 
L 581 0 
L 581 3500 
L 1159 3500 
L 1159 2956 
Q 1341 3275 1631 3429 
Q 1922 3584 2338 3584 
Q 2397 3584 2469 3576 
Q 2541 3569 2628 3553 
L 2631 2963 
z
" transform="scale(0.015625)"/>
      <path id="DejaVuSans-38" d="M 2034 2216 
Q 1584 2216 1326 1975 
Q 1069 1734 1069 1313 
Q 1069 891 1326 650 
Q 1584 409 2034 409 
Q 2484 409 2743 651 
Q 3003 894 3003 1313 
Q 3003 1734 2745 1975 
Q 2488 2216 2034 2216 
z
M 1403 2484 
Q 997 2584 770 2862 
Q 544 3141 544 3541 
Q 544 4100 942 4425 
Q 1341 4750 2034 4750 
Q 2731 4750 3128 4425 
Q 3525 4100 3525 3541 
Q 3525 3141 3298 2862 
Q 3072 2584 2669 2484 
Q 3125 2378 3379 2068 
Q 3634 1759 3634 1313 
Q 3634 634 3220 271 
Q 2806 -91 2034 -91 
Q 1263 -91 848 271 
Q 434 634 434 1313 
Q 434 1759 690 2068 
Q 947 2378 1403 2484 
z
M 1172 3481 
Q 1172 3119 1398 2916 
Q 1625 2713 2034 2713 
Q 2441 2713 2670 2916 
Q 2900 3119 2900 3481 
Q 2900 3844 2670 4047 
Q 2441 4250 2034 4250 
Q 1625 4250 1398 4047 
Q 1172 3844 1172 3481 
z
" transform="scale(0.015625)"/>
      <path id="DejaVuSans-4f" d="M 2522 4238 
Q 1834 4238 1429 3725 
Q 1025 3213 1025 2328 
Q 1025 1447 1429 934 
Q 1834 422 2522 422 
Q 3209 422 3611 934 
Q 4013 1447 4013 2328 
Q 4013 3213 3611 3725 
Q 3209 4238 2522 4238 
z
M 2522 4750 
Q 3503 4750 4090 4092 
Q 4678 3434 4678 2328 
Q 4678 1225 4090 567 
Q 3503 -91 2522 -91 
Q 1538 -91 948 565 
Q 359 1222 359 2328 
Q 359 3434 948 4092 
Q 1538 4750 2522 4750 
z
" transform="scale(0.015625)"/>
     </defs>
     <use xlink:href="#DejaVuSans-43"/>
     <use xlink:href="#DejaVuSans-32" transform="translate(69.824219 0)"/>
     <use xlink:href="#DejaVuSans-48" transform="translate(133.447266 0)"/>
     <use xlink:href="#DejaVuSans-34" transform="translate(208.642578 0)"/>
     <use xlink:href="#DejaVuSans-49" transform="translate(272.265625 0)"/>
     <use xlink:href="#DejaVuSans-72" transform="translate(301.757812 0)"/>
     <use xlink:href="#DejaVuSans-34" transform="translate(342.871094 0)"/>
     <use xlink:href="#DejaVuSans-38" transform="translate(406.494141 0)"/>
     <use xlink:href="#DejaVuSans-4f" transform="translate(470.117188 0)"/>
     <use xlink:href="#DejaVuSans-32" transform="translate(548.828125 0)"/>
    </g>
    <!-- Error: -7.16 eV -->
    <g transform="translate(115.965805 10.54183) scale(0.1 -0.1)">
     <defs>
      <path id="DejaVuSans-45" d="M 628 4666 
L 3578 4666 
L 3578 4134 
L 1259 4134 
L 1259 2753 
L 3481 2753 
L 3481 2222 
L 1259 2222 
L 1259 531 
L 3634 531 
L 3634 0 
L 628 0 
L 628 4666 
z
" transform="scale(0.015625)"/>
      <path id="DejaVuSans-6f" d="M 1959 3097 
Q 1497 3097 1228 2736 
Q 959 2375 959 1747 
Q 959 1119 1226 758 
Q 1494 397 1959 397 
Q 2419 397 2687 759 
Q 2956 1122 2956 1747 
Q 2956 2369 2687 2733 
Q 2419 3097 1959 3097 
z
M 1959 3584 
Q 2709 3584 3137 3096 
Q 3566 2609 3566 1747 
Q 3566 888 3137 398 
Q 2709 -91 1959 -91 
Q 1206 -91 779 398 
Q 353 888 353 1747 
Q 353 2609 779 3096 
Q 1206 3584 1959 3584 
z
" transform="scale(0.015625)"/>
      <path id="DejaVuSans-3a" d="M 750 794 
L 1409 794 
L 1409 0 
L 750 0 
L 750 794 
z
M 750 3309 
L 1409 3309 
L 1409 2516 
L 750 2516 
L 750 3309 
z
" transform="scale(0.015625)"/>
      <path id="DejaVuSans-20" transform="scale(0.015625)"/>
      <path id="DejaVuSans-2d" d="M 313 2009 
L 1997 2009 
L 1997 1497 
L 313 1497 
L 313 2009 
z
" transform="scale(0.015625)"/>
      <path id="DejaVuSans-37" d="M 525 4666 
L 3525 4666 
L 3525 4397 
L 1831 0 
L 1172 0 
L 2766 4134 
L 525 4134 
L 525 4666 
z
" transform="scale(0.015625)"/>
      <path id="DejaVuSans-2e" d="M 684 794 
L 1344 794 
L 1344 0 
L 684 0 
L 684 794 
z
" transform="scale(0.015625)"/>
      <path id="DejaVuSans-31" d="M 794 531 
L 1825 531 
L 1825 4091 
L 703 3866 
L 703 4441 
L 1819 4666 
L 2450 4666 
L 2450 531 
L 3481 531 
L 3481 0 
L 794 0 
L 794 531 
z
" transform="scale(0.015625)"/>
      <path id="DejaVuSans-36" d="M 2113 2584 
Q 1688 2584 1439 2293 
Q 1191 2003 1191 1497 
Q 1191 994 1439 701 
Q 1688 409 2113 409 
Q 2538 409 2786 701 
Q 3034 994 3034 1497 
Q 3034 2003 2786 2293 
Q 2538 2584 2113 2584 
z
M 3366 4563 
L 3366 3988 
Q 3128 4100 2886 4159 
Q 2644 4219 2406 4219 
Q 1781 4219 1451 3797 
Q 1122 3375 1075 2522 
Q 1259 2794 1537 2939 
Q 1816 3084 2150 3084 
Q 2853 3084 3261 2657 
Q 3669 2231 3669 1497 
Q 3669 778 3244 343 
Q 2819 -91 2113 -91 
Q 1303 -91 875 529 
Q 447 1150 447 2328 
Q 447 3434 972 4092 
Q 1497 4750 2381 4750 
Q 2619 4750 2861 4703 
Q 3103 4656 3366 4563 
z
" transform="scale(0.015625)"/>
      <path id="DejaVuSans-65" d="M 3597 1894 
L 3597 1613 
L 953 1613 
Q 991 1019 1311 708 
Q 1631 397 2203 397 
Q 2534 397 2845 478 
Q 3156 559 3463 722 
L 3463 178 
Q 3153 47 2828 -22 
Q 2503 -91 2169 -91 
Q 1331 -91 842 396 
Q 353 884 353 1716 
Q 353 2575 817 3079 
Q 1281 3584 2069 3584 
Q 2775 3584 3186 3129 
Q 3597 2675 3597 1894 
z
M 3022 2063 
Q 3016 2534 2758 2815 
Q 2500 3097 2075 3097 
Q 1594 3097 1305 2825 
Q 1016 2553 972 2059 
L 3022 2063 
z
" transform="scale(0.015625)"/>
      <path id="DejaVuSans-56" d="M 1831 0 
L 50 4666 
L 709 4666 
L 2188 738 
L 3669 4666 
L 4325 4666 
L 2547 0 
L 1831 0 
z
" transform="scale(0.015625)"/>
     </defs>
     <use xlink:href="#DejaVuSans-45"/>
     <use xlink:href="#DejaVuSans-72" transform="translate(63.183594 0)"/>
     <use xlink:href="#DejaVuSans-72" transform="translate(102.546875 0)"/>
     <use xlink:href="#DejaVuSans-6f" transform="translate(141.410156 0)"/>
     <use xlink:href="#DejaVuSans-72" transform="translate(202.591797 0)"/>
     <use xlink:href="#DejaVuSans-3a" transform="translate(241.955078 0)"/>
     <use xlink:href="#DejaVuSans-20" transform="translate(275.646484 0)"/>
     <use xlink:href="#DejaVuSans-2d" transform="translate(307.433594 0)"/>
     <use xlink:href="#DejaVuSans-37" transform="translate(343.517578 0)"/>
     <use xlink:href="#DejaVuSans-2e" transform="translate(407.140625 0)"/>
     <use xlink:href="#DejaVuSans-31" transform="translate(438.927734 0)"/>
     <use xlink:href="#DejaVuSans-36" transform="translate(502.550781 0)"/>
     <use xlink:href="#DejaVuSans-20" transform="translate(566.173828 0)"/>
     <use xlink:href="#DejaVuSans-65" transform="translate(597.960938 0)"/>
     <use xlink:href="#DejaVuSans-56" transform="translate(659.484375 0)"/>
    </g>
   </g>
  </g>
 </g>
 <defs>
  <clipPath id="pdbfd8a932f">
   <rect x="36" y="34.56" width="223.2" height="221.76"/>
  </clipPath>
 </defs>
</svg>
