<?xml version="1.0" encoding="utf-8" standalone="no"?>
<!DOCTYPE svg PUBLIC "-//W3C//DTD SVG 1.1//EN"
  "http://www.w3.org/Graphics/SVG/1.1/DTD/svg11.dtd">
<svg xmlns:xlink="http://www.w3.org/1999/xlink" width="288pt" height="288pt" viewBox="0 0 288 288" xmlns="http://www.w3.org/2000/svg" version="1.1">
 <metadata>
  <rdf:RDF xmlns:dc="http://purl.org/dc/elements/1.1/" xmlns:cc="http://creativecommons.org/ns#" xmlns:rdf="http://www.w3.org/1999/02/22-rdf-syntax-ns#">
   <cc:Work>
    <dc:type rdf:resource="http://purl.org/dc/dcmitype/StillImage"/>
    <dc:date>2025-06-30T12:07:52.572099</dc:date>
    <dc:format>image/svg+xml</dc:format>
    <dc:creator>
     <cc:Agent>
      <dc:title>Matplotlib v3.10.1, https://matplotlib.org/</dc:title>
     </cc:Agent>
    </dc:creator>
   </cc:Work>
  </rdf:RDF>
 </metadata>
 <defs>
  <style type="text/css">*{stroke-linejoin: round; stroke-linecap: butt}</style>
 </defs>
 <g id="figure_1">
  <g id="patch_1">
   <path d="M 0 288 
L 288 288 
L 288 0 
L 0 0 
z
" style="fill: #ffffff"/>
  </g>
  <g id="axes_1">
   <g id="LineCollection_1">
    <path d="M 136.681019 54.264202 
L 70.541734 59.919451 
" clip-path="url(#p7c227feff7)" style="fill: none; stroke: #000000; stroke-width: 1.2"/>
    <path d="M 136.681019 54.264202 
L 167.985598 74.264253 
" clip-path="url(#p7c227feff7)" style="fill: none; stroke: #000000; stroke-width: 1.2"/>
    <path d="M 136.681019 54.264202 
L 117.778706 53.803636 
" clip-path="url(#p7c227feff7)" style="fill: none; stroke: #000000; stroke-width: 1.2"/>
    <path d="M 136.681019 54.264202 
L 153.507453 65.609547 
" clip-path="url(#p7c227feff7)" style="fill: none; stroke: #000000; stroke-width: 1.2"/>
    <path d="M 136.681019 54.264202 
L 103.166668 58.58484 
" clip-path="url(#p7c227feff7)" style="fill: none; stroke: #000000; stroke-width: 1.2"/>
    <path d="M 136.681019 54.264202 
L 134.353475 95.022877 
" clip-path="url(#p7c227feff7)" style="fill: none; stroke: #000000; stroke-width: 1.2"/>
    <path d="M 136.681019 54.264202 
L 98.173977 86.936377 
" clip-path="url(#p7c227feff7)" style="fill: none; stroke: #000000; stroke-width: 1.2"/>
    <path d="M 136.681019 54.264202 
L 149.975481 90.59407 
" clip-path="url(#p7c227feff7)" style="fill: none; stroke: #000000; stroke-width: 1.2"/>
    <path d="M 70.541734 59.919451 
L 121.729798 68.879146 
" clip-path="url(#p7c227feff7)" style="fill: none; stroke: #000000; stroke-width: 1.2"/>
    <path d="M 70.541734 59.919451 
L 90.24028 62.927908 
" clip-path="url(#p7c227feff7)" style="fill: none; stroke: #000000; stroke-width: 1.2"/>
    <path d="M 70.541734 59.919451 
L 103.166668 58.58484 
" clip-path="url(#p7c227feff7)" style="fill: none; stroke: #000000; stroke-width: 1.2"/>
    <path d="M 70.541734 59.919451 
L 98.173977 86.936377 
" clip-path="url(#p7c227feff7)" style="fill: none; stroke: #000000; stroke-width: 1.2"/>
    <path d="M 70.541734 59.919451 
L 60.984954 98.756029 
" clip-path="url(#p7c227feff7)" style="fill: none; stroke: #000000; stroke-width: 1.2"/>
    <path d="M 70.541734 59.919451 
L 81.5121 102.203099 
" clip-path="url(#p7c227feff7)" style="fill: none; stroke: #000000; stroke-width: 1.2"/>
    <path d="M 121.729798 68.879146 
L 167.985598 74.264253 
" clip-path="url(#p7c227feff7)" style="fill: none; stroke: #000000; stroke-width: 1.2"/>
    <path d="M 121.729798 68.879146 
L 90.24028 62.927908 
" clip-path="url(#p7c227feff7)" style="fill: none; stroke: #000000; stroke-width: 1.2"/>
    <path d="M 121.729798 68.879146 
L 153.507453 65.609547 
" clip-path="url(#p7c227feff7)" style="fill: none; stroke: #000000; stroke-width: 1.2"/>
    <path d="M 121.729798 68.879146 
L 139.873062 73.702491 
" clip-path="url(#p7c227feff7)" style="fill: none; stroke: #000000; stroke-width: 1.2"/>
    <path d="M 121.729798 68.879146 
L 81.5121 102.203099 
" clip-path="url(#p7c227feff7)" style="fill: none; stroke: #000000; stroke-width: 1.2"/>
    <path d="M 121.729798 68.879146 
L 152.117169 107.631943 
" clip-path="url(#p7c227feff7)" style="fill: none; stroke: #000000; stroke-width: 1.2"/>
    <path d="M 121.729798 68.879146 
L 116.377649 104.720942 
" clip-path="url(#p7c227feff7)" style="fill: none; stroke: #000000; stroke-width: 1.2"/>
    <path d="M 167.985598 74.264253 
L 117.778706 53.803636 
" clip-path="url(#p7c227feff7)" style="fill: none; stroke: #000000; stroke-width: 1.2"/>
    <path d="M 167.985598 74.264253 
L 139.873062 73.702491 
" clip-path="url(#p7c227feff7)" style="fill: none; stroke: #000000; stroke-width: 1.2"/>
    <path d="M 167.985598 74.264253 
L 134.353475 95.022877 
" clip-path="url(#p7c227feff7)" style="fill: none; stroke: #000000; stroke-width: 1.2"/>
    <path d="M 167.985598 74.264253 
L 116.480015 91.610697 
" clip-path="url(#p7c227feff7)" style="fill: none; stroke: #000000; stroke-width: 1.2"/>
    <path d="M 167.985598 74.264253 
L 152.117169 107.631943 
" clip-path="url(#p7c227feff7)" style="fill: none; stroke: #000000; stroke-width: 1.2"/>
    <path d="M 90.24028 62.927908 
L 117.778706 53.803636 
" clip-path="url(#p7c227feff7)" style="fill: none; stroke: #000000; stroke-width: 1.2"/>
    <path d="M 90.24028 62.927908 
L 153.507453 65.609547 
" clip-path="url(#p7c227feff7)" style="fill: none; stroke: #000000; stroke-width: 1.2"/>
    <path d="M 90.24028 62.927908 
L 65.355085 65.930109 
" clip-path="url(#p7c227feff7)" style="fill: none; stroke: #000000; stroke-width: 1.2"/>
    <path d="M 90.24028 62.927908 
L 60.984954 98.756029 
" clip-path="url(#p7c227feff7)" style="fill: none; stroke: #000000; stroke-width: 1.2"/>
    <path d="M 90.24028 62.927908 
L 83.543381 88.947927 
" clip-path="url(#p7c227feff7)" style="fill: none; stroke: #000000; stroke-width: 1.2"/>
    <path d="M 90.24028 62.927908 
L 116.377649 104.720942 
" clip-path="url(#p7c227feff7)" style="fill: none; stroke: #000000; stroke-width: 1.2"/>
    <path d="M 117.778706 53.803636 
L 153.507453 65.609547 
" clip-path="url(#p7c227feff7)" style="fill: none; stroke: #000000; stroke-width: 1.2"/>
    <path d="M 117.778706 53.803636 
L 65.355085 65.930109 
" clip-path="url(#p7c227feff7)" style="fill: none; stroke: #000000; stroke-width: 1.2"/>
    <path d="M 117.778706 53.803636 
L 116.480015 91.610697 
" clip-path="url(#p7c227feff7)" style="fill: none; stroke: #000000; stroke-width: 1.2"/>
    <path d="M 117.778706 53.803636 
L 83.543381 88.947927 
" clip-path="url(#p7c227feff7)" style="fill: none; stroke: #000000; stroke-width: 1.2"/>
    <path d="M 117.778706 53.803636 
L 149.975481 90.59407 
" clip-path="url(#p7c227feff7)" style="fill: none; stroke: #000000; stroke-width: 1.2"/>
    <path d="M 153.507453 65.609547 
L 139.873062 73.702491 
" clip-path="url(#p7c227feff7)" style="fill: none; stroke: #000000; stroke-width: 1.2"/>
    <path d="M 153.507453 65.609547 
L 103.166668 58.58484 
" clip-path="url(#p7c227feff7)" style="fill: none; stroke: #000000; stroke-width: 1.2"/>
    <path d="M 153.507453 65.609547 
L 116.377649 104.720942 
" clip-path="url(#p7c227feff7)" style="fill: none; stroke: #000000; stroke-width: 1.2"/>
    <path d="M 153.507453 65.609547 
L 149.975481 90.59407 
" clip-path="url(#p7c227feff7)" style="fill: none; stroke: #000000; stroke-width: 1.2"/>
    <path d="M 153.507453 65.609547 
L 134.187514 103.44774 
" clip-path="url(#p7c227feff7)" style="fill: none; stroke: #000000; stroke-width: 1.2"/>
    <path d="M 139.873062 73.702491 
L 103.166668 58.58484 
" clip-path="url(#p7c227feff7)" style="fill: none; stroke: #000000; stroke-width: 1.2"/>
    <path d="M 139.873062 73.702491 
L 65.355085 65.930109 
" clip-path="url(#p7c227feff7)" style="fill: none; stroke: #000000; stroke-width: 1.2"/>
    <path d="M 139.873062 73.702491 
L 152.117169 107.631943 
" clip-path="url(#p7c227feff7)" style="fill: none; stroke: #000000; stroke-width: 1.2"/>
    <path d="M 139.873062 73.702491 
L 134.187514 103.44774 
" clip-path="url(#p7c227feff7)" style="fill: none; stroke: #000000; stroke-width: 1.2"/>
    <path d="M 139.873062 73.702491 
L 96.218053 104.926448 
" clip-path="url(#p7c227feff7)" style="fill: none; stroke: #000000; stroke-width: 1.2"/>
    <path d="M 103.166668 58.58484 
L 65.355085 65.930109 
" clip-path="url(#p7c227feff7)" style="fill: none; stroke: #000000; stroke-width: 1.2"/>
    <path d="M 103.166668 58.58484 
L 98.173977 86.936377 
" clip-path="url(#p7c227feff7)" style="fill: none; stroke: #000000; stroke-width: 1.2"/>
    <path d="M 103.166668 58.58484 
L 134.187514 103.44774 
" clip-path="url(#p7c227feff7)" style="fill: none; stroke: #000000; stroke-width: 1.2"/>
    <path d="M 103.166668 58.58484 
L 63.303518 92.066599 
" clip-path="url(#p7c227feff7)" style="fill: none; stroke: #000000; stroke-width: 1.2"/>
    <path d="M 65.355085 65.930109 
L 83.543381 88.947927 
" clip-path="url(#p7c227feff7)" style="fill: none; stroke: #000000; stroke-width: 1.2"/>
    <path d="M 65.355085 65.930109 
L 96.218053 104.926448 
" clip-path="url(#p7c227feff7)" style="fill: none; stroke: #000000; stroke-width: 1.2"/>
    <path d="M 65.355085 65.930109 
L 63.303518 92.066599 
" clip-path="url(#p7c227feff7)" style="fill: none; stroke: #000000; stroke-width: 1.2"/>
    <path d="M 134.353475 95.022877 
L 98.173977 86.936377 
" clip-path="url(#p7c227feff7)" style="fill: none; stroke: #000000; stroke-width: 1.2"/>
    <path d="M 134.353475 95.022877 
L 60.984954 98.756029 
" clip-path="url(#p7c227feff7)" style="fill: none; stroke: #000000; stroke-width: 1.2"/>
    <path d="M 134.353475 95.022877 
L 116.480015 91.610697 
" clip-path="url(#p7c227feff7)" style="fill: none; stroke: #000000; stroke-width: 1.2"/>
    <path d="M 134.353475 95.022877 
L 152.117169 107.631943 
" clip-path="url(#p7c227feff7)" style="fill: none; stroke: #000000; stroke-width: 1.2"/>
    <path d="M 134.353475 95.022877 
L 149.975481 90.59407 
" clip-path="url(#p7c227feff7)" style="fill: none; stroke: #000000; stroke-width: 1.2"/>
    <path d="M 134.353475 95.022877 
L 96.218053 104.926448 
" clip-path="url(#p7c227feff7)" style="fill: none; stroke: #000000; stroke-width: 1.2"/>
    <path d="M 134.353475 95.022877 
L 150.675949 121.807021 
" clip-path="url(#p7c227feff7)" style="fill: none; stroke: #000000; stroke-width: 1.2"/>
    <path d="M 134.353475 95.022877 
L 91.113593 123.632606 
" clip-path="url(#p7c227feff7)" style="fill: none; stroke: #000000; stroke-width: 1.2"/>
    <path d="M 134.353475 95.022877 
L 126.10432 138.354634 
" clip-path="url(#p7c227feff7)" style="fill: none; stroke: #000000; stroke-width: 1.2"/>
    <path d="M 98.173977 86.936377 
L 60.984954 98.756029 
" clip-path="url(#p7c227feff7)" style="fill: none; stroke: #000000; stroke-width: 1.2"/>
    <path d="M 98.173977 86.936377 
L 81.5121 102.203099 
" clip-path="url(#p7c227feff7)" style="fill: none; stroke: #000000; stroke-width: 1.2"/>
    <path d="M 98.173977 86.936377 
L 149.975481 90.59407 
" clip-path="url(#p7c227feff7)" style="fill: none; stroke: #000000; stroke-width: 1.2"/>
    <path d="M 98.173977 86.936377 
L 134.187514 103.44774 
" clip-path="url(#p7c227feff7)" style="fill: none; stroke: #000000; stroke-width: 1.2"/>
    <path d="M 98.173977 86.936377 
L 63.303518 92.066599 
" clip-path="url(#p7c227feff7)" style="fill: none; stroke: #000000; stroke-width: 1.2"/>
    <path d="M 98.173977 86.936377 
L 91.113593 123.632606 
" clip-path="url(#p7c227feff7)" style="fill: none; stroke: #000000; stroke-width: 1.2"/>
    <path d="M 98.173977 86.936377 
L 55.368595 121.675068 
" clip-path="url(#p7c227feff7)" style="fill: none; stroke: #000000; stroke-width: 1.2"/>
    <path d="M 98.173977 86.936377 
L 130.173416 126.655441 
" clip-path="url(#p7c227feff7)" style="fill: none; stroke: #000000; stroke-width: 1.2"/>
    <path d="M 60.984954 98.756029 
L 81.5121 102.203099 
" clip-path="url(#p7c227feff7)" style="fill: none; stroke: #000000; stroke-width: 1.2"/>
    <path d="M 60.984954 98.756029 
L 83.543381 88.947927 
" clip-path="url(#p7c227feff7)" style="fill: none; stroke: #000000; stroke-width: 1.2"/>
    <path d="M 60.984954 98.756029 
L 116.377649 104.720942 
" clip-path="url(#p7c227feff7)" style="fill: none; stroke: #000000; stroke-width: 1.2"/>
    <path d="M 60.984954 98.756029 
L 96.218053 104.926448 
" clip-path="url(#p7c227feff7)" style="fill: none; stroke: #000000; stroke-width: 1.2"/>
    <path d="M 60.984954 98.756029 
L 91.113593 123.632606 
" clip-path="url(#p7c227feff7)" style="fill: none; stroke: #000000; stroke-width: 1.2"/>
    <path d="M 60.984954 98.756029 
L 78.285802 142.239411 
" clip-path="url(#p7c227feff7)" style="fill: none; stroke: #000000; stroke-width: 1.2"/>
    <path d="M 60.984954 98.756029 
L 58.31996 130.496409 
" clip-path="url(#p7c227feff7)" style="fill: none; stroke: #000000; stroke-width: 1.2"/>
    <path d="M 81.5121 102.203099 
L 116.480015 91.610697 
" clip-path="url(#p7c227feff7)" style="fill: none; stroke: #000000; stroke-width: 1.2"/>
    <path d="M 81.5121 102.203099 
L 152.117169 107.631943 
" clip-path="url(#p7c227feff7)" style="fill: none; stroke: #000000; stroke-width: 1.2"/>
    <path d="M 81.5121 102.203099 
L 116.377649 104.720942 
" clip-path="url(#p7c227feff7)" style="fill: none; stroke: #000000; stroke-width: 1.2"/>
    <path d="M 81.5121 102.203099 
L 63.303518 92.066599 
" clip-path="url(#p7c227feff7)" style="fill: none; stroke: #000000; stroke-width: 1.2"/>
    <path d="M 81.5121 102.203099 
L 78.285802 142.239411 
" clip-path="url(#p7c227feff7)" style="fill: none; stroke: #000000; stroke-width: 1.2"/>
    <path d="M 81.5121 102.203099 
L 55.368595 121.675068 
" clip-path="url(#p7c227feff7)" style="fill: none; stroke: #000000; stroke-width: 1.2"/>
    <path d="M 81.5121 102.203099 
L 106.830836 137.816231 
" clip-path="url(#p7c227feff7)" style="fill: none; stroke: #000000; stroke-width: 1.2"/>
    <path d="M 116.480015 91.610697 
L 152.117169 107.631943 
" clip-path="url(#p7c227feff7)" style="fill: none; stroke: #000000; stroke-width: 1.2"/>
    <path d="M 116.480015 91.610697 
L 83.543381 88.947927 
" clip-path="url(#p7c227feff7)" style="fill: none; stroke: #000000; stroke-width: 1.2"/>
    <path d="M 116.480015 91.610697 
L 149.975481 90.59407 
" clip-path="url(#p7c227feff7)" style="fill: none; stroke: #000000; stroke-width: 1.2"/>
    <path d="M 116.480015 91.610697 
L 63.303518 92.066599 
" clip-path="url(#p7c227feff7)" style="fill: none; stroke: #000000; stroke-width: 1.2"/>
    <path d="M 116.480015 91.610697 
L 150.675949 121.807021 
" clip-path="url(#p7c227feff7)" style="fill: none; stroke: #000000; stroke-width: 1.2"/>
    <path d="M 116.480015 91.610697 
L 106.830836 137.816231 
" clip-path="url(#p7c227feff7)" style="fill: none; stroke: #000000; stroke-width: 1.2"/>
    <path d="M 116.480015 91.610697 
L 75.400747 120.740187 
" clip-path="url(#p7c227feff7)" style="fill: none; stroke: #000000; stroke-width: 1.2"/>
    <path d="M 152.117169 107.631943 
L 116.377649 104.720942 
" clip-path="url(#p7c227feff7)" style="fill: none; stroke: #000000; stroke-width: 1.2"/>
    <path d="M 152.117169 107.631943 
L 134.187514 103.44774 
" clip-path="url(#p7c227feff7)" style="fill: none; stroke: #000000; stroke-width: 1.2"/>
    <path d="M 152.117169 107.631943 
L 96.218053 104.926448 
" clip-path="url(#p7c227feff7)" style="fill: none; stroke: #000000; stroke-width: 1.2"/>
    <path d="M 152.117169 107.631943 
L 106.830836 137.816231 
" clip-path="url(#p7c227feff7)" style="fill: none; stroke: #000000; stroke-width: 1.2"/>
    <path d="M 152.117169 107.631943 
L 126.10432 138.354634 
" clip-path="url(#p7c227feff7)" style="fill: none; stroke: #000000; stroke-width: 1.2"/>
    <path d="M 152.117169 107.631943 
L 147.135612 139.737531 
" clip-path="url(#p7c227feff7)" style="fill: none; stroke: #000000; stroke-width: 1.2"/>
    <path d="M 83.543381 88.947927 
L 116.377649 104.720942 
" clip-path="url(#p7c227feff7)" style="fill: none; stroke: #000000; stroke-width: 1.2"/>
    <path d="M 83.543381 88.947927 
L 149.975481 90.59407 
" clip-path="url(#p7c227feff7)" style="fill: none; stroke: #000000; stroke-width: 1.2"/>
    <path d="M 83.543381 88.947927 
L 96.218053 104.926448 
" clip-path="url(#p7c227feff7)" style="fill: none; stroke: #000000; stroke-width: 1.2"/>
    <path d="M 83.543381 88.947927 
L 63.303518 92.066599 
" clip-path="url(#p7c227feff7)" style="fill: none; stroke: #000000; stroke-width: 1.2"/>
    <path d="M 83.543381 88.947927 
L 58.31996 130.496409 
" clip-path="url(#p7c227feff7)" style="fill: none; stroke: #000000; stroke-width: 1.2"/>
    <path d="M 83.543381 88.947927 
L 112.628835 131.584073 
" clip-path="url(#p7c227feff7)" style="fill: none; stroke: #000000; stroke-width: 1.2"/>
    <path d="M 83.543381 88.947927 
L 75.400747 120.740187 
" clip-path="url(#p7c227feff7)" style="fill: none; stroke: #000000; stroke-width: 1.2"/>
    <path d="M 116.377649 104.720942 
L 149.975481 90.59407 
" clip-path="url(#p7c227feff7)" style="fill: none; stroke: #000000; stroke-width: 1.2"/>
    <path d="M 116.377649 104.720942 
L 134.187514 103.44774 
" clip-path="url(#p7c227feff7)" style="fill: none; stroke: #000000; stroke-width: 1.2"/>
    <path d="M 116.377649 104.720942 
L 78.285802 142.239411 
" clip-path="url(#p7c227feff7)" style="fill: none; stroke: #000000; stroke-width: 1.2"/>
    <path d="M 116.377649 104.720942 
L 112.628835 131.584073 
" clip-path="url(#p7c227feff7)" style="fill: none; stroke: #000000; stroke-width: 1.2"/>
    <path d="M 116.377649 104.720942 
L 147.135612 139.737531 
" clip-path="url(#p7c227feff7)" style="fill: none; stroke: #000000; stroke-width: 1.2"/>
    <path d="M 149.975481 90.59407 
L 134.187514 103.44774 
" clip-path="url(#p7c227feff7)" style="fill: none; stroke: #000000; stroke-width: 1.2"/>
    <path d="M 149.975481 90.59407 
L 150.675949 121.807021 
" clip-path="url(#p7c227feff7)" style="fill: none; stroke: #000000; stroke-width: 1.2"/>
    <path d="M 149.975481 90.59407 
L 112.628835 131.584073 
" clip-path="url(#p7c227feff7)" style="fill: none; stroke: #000000; stroke-width: 1.2"/>
    <path d="M 149.975481 90.59407 
L 130.173416 126.655441 
" clip-path="url(#p7c227feff7)" style="fill: none; stroke: #000000; stroke-width: 1.2"/>
    <path d="M 134.187514 103.44774 
L 96.218053 104.926448 
" clip-path="url(#p7c227feff7)" style="fill: none; stroke: #000000; stroke-width: 1.2"/>
    <path d="M 134.187514 103.44774 
L 63.303518 92.066599 
" clip-path="url(#p7c227feff7)" style="fill: none; stroke: #000000; stroke-width: 1.2"/>
    <path d="M 134.187514 103.44774 
L 130.173416 126.655441 
" clip-path="url(#p7c227feff7)" style="fill: none; stroke: #000000; stroke-width: 1.2"/>
    <path d="M 134.187514 103.44774 
L 147.135612 139.737531 
" clip-path="url(#p7c227feff7)" style="fill: none; stroke: #000000; stroke-width: 1.2"/>
    <path d="M 134.187514 103.44774 
L 91.39818 140.51897 
" clip-path="url(#p7c227feff7)" style="fill: none; stroke: #000000; stroke-width: 1.2"/>
    <path d="M 96.218053 104.926448 
L 63.303518 92.066599 
" clip-path="url(#p7c227feff7)" style="fill: none; stroke: #000000; stroke-width: 1.2"/>
    <path d="M 96.218053 104.926448 
L 126.10432 138.354634 
" clip-path="url(#p7c227feff7)" style="fill: none; stroke: #000000; stroke-width: 1.2"/>
    <path d="M 96.218053 104.926448 
L 58.31996 130.496409 
" clip-path="url(#p7c227feff7)" style="fill: none; stroke: #000000; stroke-width: 1.2"/>
    <path d="M 96.218053 104.926448 
L 91.39818 140.51897 
" clip-path="url(#p7c227feff7)" style="fill: none; stroke: #000000; stroke-width: 1.2"/>
    <path d="M 63.303518 92.066599 
L 55.368595 121.675068 
" clip-path="url(#p7c227feff7)" style="fill: none; stroke: #000000; stroke-width: 1.2"/>
    <path d="M 63.303518 92.066599 
L 91.39818 140.51897 
" clip-path="url(#p7c227feff7)" style="fill: none; stroke: #000000; stroke-width: 1.2"/>
    <path d="M 63.303518 92.066599 
L 75.400747 120.740187 
" clip-path="url(#p7c227feff7)" style="fill: none; stroke: #000000; stroke-width: 1.2"/>
    <path d="M 150.675949 121.807021 
L 91.113593 123.632606 
" clip-path="url(#p7c227feff7)" style="fill: none; stroke: #000000; stroke-width: 1.2"/>
    <path d="M 150.675949 121.807021 
L 106.830836 137.816231 
" clip-path="url(#p7c227feff7)" style="fill: none; stroke: #000000; stroke-width: 1.2"/>
    <path d="M 150.675949 121.807021 
L 126.10432 138.354634 
" clip-path="url(#p7c227feff7)" style="fill: none; stroke: #000000; stroke-width: 1.2"/>
    <path d="M 150.675949 121.807021 
L 112.628835 131.584073 
" clip-path="url(#p7c227feff7)" style="fill: none; stroke: #000000; stroke-width: 1.2"/>
    <path d="M 150.675949 121.807021 
L 130.173416 126.655441 
" clip-path="url(#p7c227feff7)" style="fill: none; stroke: #000000; stroke-width: 1.2"/>
    <path d="M 150.675949 121.807021 
L 75.400747 120.740187 
" clip-path="url(#p7c227feff7)" style="fill: none; stroke: #000000; stroke-width: 1.2"/>
    <path d="M 91.113593 123.632606 
L 78.285802 142.239411 
" clip-path="url(#p7c227feff7)" style="fill: none; stroke: #000000; stroke-width: 1.2"/>
    <path d="M 91.113593 123.632606 
L 55.368595 121.675068 
" clip-path="url(#p7c227feff7)" style="fill: none; stroke: #000000; stroke-width: 1.2"/>
    <path d="M 91.113593 123.632606 
L 126.10432 138.354634 
" clip-path="url(#p7c227feff7)" style="fill: none; stroke: #000000; stroke-width: 1.2"/>
    <path d="M 91.113593 123.632606 
L 58.31996 130.496409 
" clip-path="url(#p7c227feff7)" style="fill: none; stroke: #000000; stroke-width: 1.2"/>
    <path d="M 91.113593 123.632606 
L 130.173416 126.655441 
" clip-path="url(#p7c227feff7)" style="fill: none; stroke: #000000; stroke-width: 1.2"/>
    <path d="M 78.285802 142.239411 
L 55.368595 121.675068 
" clip-path="url(#p7c227feff7)" style="fill: none; stroke: #000000; stroke-width: 1.2"/>
    <path d="M 78.285802 142.239411 
L 106.830836 137.816231 
" clip-path="url(#p7c227feff7)" style="fill: none; stroke: #000000; stroke-width: 1.2"/>
    <path d="M 78.285802 142.239411 
L 58.31996 130.496409 
" clip-path="url(#p7c227feff7)" style="fill: none; stroke: #000000; stroke-width: 1.2"/>
    <path d="M 78.285802 142.239411 
L 112.628835 131.584073 
" clip-path="url(#p7c227feff7)" style="fill: none; stroke: #000000; stroke-width: 1.2"/>
    <path d="M 78.285802 142.239411 
L 147.135612 139.737531 
" clip-path="url(#p7c227feff7)" style="fill: none; stroke: #000000; stroke-width: 1.2"/>
    <path d="M 55.368595 121.675068 
L 106.830836 137.816231 
" clip-path="url(#p7c227feff7)" style="fill: none; stroke: #000000; stroke-width: 1.2"/>
    <path d="M 55.368595 121.675068 
L 130.173416 126.655441 
" clip-path="url(#p7c227feff7)" style="fill: none; stroke: #000000; stroke-width: 1.2"/>
    <path d="M 55.368595 121.675068 
L 91.39818 140.51897 
" clip-path="url(#p7c227feff7)" style="fill: none; stroke: #000000; stroke-width: 1.2"/>
    <path d="M 55.368595 121.675068 
L 75.400747 120.740187 
" clip-path="url(#p7c227feff7)" style="fill: none; stroke: #000000; stroke-width: 1.2"/>
    <path d="M 106.830836 137.816231 
L 126.10432 138.354634 
" clip-path="url(#p7c227feff7)" style="fill: none; stroke: #000000; stroke-width: 1.2"/>
    <path d="M 106.830836 137.816231 
L 147.135612 139.737531 
" clip-path="url(#p7c227feff7)" style="fill: none; stroke: #000000; stroke-width: 1.2"/>
    <path d="M 106.830836 137.816231 
L 75.400747 120.740187 
" clip-path="url(#p7c227feff7)" style="fill: none; stroke: #000000; stroke-width: 1.2"/>
    <path d="M 126.10432 138.354634 
L 58.31996 130.496409 
" clip-path="url(#p7c227feff7)" style="fill: none; stroke: #000000; stroke-width: 1.2"/>
    <path d="M 126.10432 138.354634 
L 147.135612 139.737531 
" clip-path="url(#p7c227feff7)" style="fill: none; stroke: #000000; stroke-width: 1.2"/>
    <path d="M 126.10432 138.354634 
L 91.39818 140.51897 
" clip-path="url(#p7c227feff7)" style="fill: none; stroke: #000000; stroke-width: 1.2"/>
    <path d="M 58.31996 130.496409 
L 112.628835 131.584073 
" clip-path="url(#p7c227feff7)" style="fill: none; stroke: #000000; stroke-width: 1.2"/>
    <path d="M 58.31996 130.496409 
L 91.39818 140.51897 
" clip-path="url(#p7c227feff7)" style="fill: none; stroke: #000000; stroke-width: 1.2"/>
    <path d="M 58.31996 130.496409 
L 75.400747 120.740187 
" clip-path="url(#p7c227feff7)" style="fill: none; stroke: #000000; stroke-width: 1.2"/>
    <path d="M 112.628835 131.584073 
L 130.173416 126.655441 
" clip-path="url(#p7c227feff7)" style="fill: none; stroke: #000000; stroke-width: 1.2"/>
    <path d="M 112.628835 131.584073 
L 147.135612 139.737531 
" clip-path="url(#p7c227feff7)" style="fill: none; stroke: #000000; stroke-width: 1.2"/>
    <path d="M 112.628835 131.584073 
L 75.400747 120.740187 
" clip-path="url(#p7c227feff7)" style="fill: none; stroke: #000000; stroke-width: 1.2"/>
    <path d="M 112.628835 131.584073 
L 138.509578 163.807563 
" clip-path="url(#p7c227feff7)" style="fill: none; stroke: #000000; stroke-width: 1.2"/>
    <path d="M 130.173416 126.655441 
L 147.135612 139.737531 
" clip-path="url(#p7c227feff7)" style="fill: none; stroke: #000000; stroke-width: 1.2"/>
    <path d="M 130.173416 126.655441 
L 91.39818 140.51897 
" clip-path="url(#p7c227feff7)" style="fill: none; stroke: #000000; stroke-width: 1.2"/>
    <path d="M 130.173416 126.655441 
L 138.509578 163.807563 
" clip-path="url(#p7c227feff7)" style="fill: none; stroke: #000000; stroke-width: 1.2"/>
    <path d="M 147.135612 139.737531 
L 91.39818 140.51897 
" clip-path="url(#p7c227feff7)" style="fill: none; stroke: #000000; stroke-width: 1.2"/>
    <path d="M 147.135612 139.737531 
L 179.853641 166.707861 
" clip-path="url(#p7c227feff7)" style="fill: none; stroke: #000000; stroke-width: 1.2"/>
    <path d="M 147.135612 139.737531 
L 138.509578 163.807563 
" clip-path="url(#p7c227feff7)" style="fill: none; stroke: #000000; stroke-width: 1.2"/>
    <path d="M 91.39818 140.51897 
L 75.400747 120.740187 
" clip-path="url(#p7c227feff7)" style="fill: none; stroke: #000000; stroke-width: 1.2"/>
    <path d="M 161.305479 237.076364 
L 187.476992 203.021988 
" clip-path="url(#p7c227feff7)" style="fill: none; stroke: #000000; stroke-width: 1.2"/>
    <path d="M 204.373672 232.526264 
L 187.476992 203.021988 
" clip-path="url(#p7c227feff7)" style="fill: none; stroke: #000000; stroke-width: 1.2"/>
    <path d="M 239.831405 210.851109 
L 187.476992 203.021988 
" clip-path="url(#p7c227feff7)" style="fill: none; stroke: #000000; stroke-width: 1.2"/>
    <path d="M 232.562794 162.503326 
L 179.853641 166.707861 
" clip-path="url(#p7c227feff7)" style="fill: none; stroke: #000000; stroke-width: 1.2"/>
    <path d="M 187.476992 203.021988 
L 179.853641 166.707861 
" clip-path="url(#p7c227feff7)" style="fill: none; stroke: #000000; stroke-width: 1.2"/>
    <path d="M 179.853641 166.707861 
L 138.509578 163.807563 
" clip-path="url(#p7c227feff7)" style="fill: none; stroke: #000000; stroke-width: 1.2"/>
   </g>
   <g id="PathCollection_1">
    <defs>
     <path id="C0_0_6d490bb2ce" d="M 0 8.944272 
C 2.372049 8.944272 4.647264 8.001847 6.324555 6.324555 
C 8.001847 4.647264 8.944272 2.372049 8.944272 -0 
C 8.944272 -2.372049 8.001847 -4.647264 6.324555 -6.324555 
C 4.647264 -8.001847 2.372049 -8.944272 0 -8.944272 
C -2.372049 -8.944272 -4.647264 -8.001847 -6.324555 -6.324555 
C -8.001847 -4.647264 -8.944272 -2.372049 -8.944272 0 
C -8.944272 2.372049 -8.001847 4.647264 -6.324555 6.324555 
C -4.647264 8.001847 -2.372049 8.944272 0 8.944272 
z
"/>
    </defs>
    <g clip-path="url(#p7c227feff7)">
     <use xlink:href="#C0_0_6d490bb2ce" x="136.681019" y="54.264202" style="fill: #c78033; stroke: #c78033; stroke-width: 0.5"/>
    </g>
    <g clip-path="url(#p7c227feff7)">
     <use xlink:href="#C0_0_6d490bb2ce" x="70.541734" y="59.919451" style="fill: #c78033; stroke: #c78033; stroke-width: 0.5"/>
    </g>
    <g clip-path="url(#p7c227feff7)">
     <use xlink:href="#C0_0_6d490bb2ce" x="121.729798" y="68.879146" style="fill: #c78033; stroke: #c78033; stroke-width: 0.5"/>
    </g>
    <g clip-path="url(#p7c227feff7)">
     <use xlink:href="#C0_0_6d490bb2ce" x="167.985598" y="74.264253" style="fill: #c78033; stroke: #c78033; stroke-width: 0.5"/>
    </g>
    <g clip-path="url(#p7c227feff7)">
     <use xlink:href="#C0_0_6d490bb2ce" x="90.24028" y="62.927908" style="fill: #c78033; stroke: #c78033; stroke-width: 0.5"/>
    </g>
    <g clip-path="url(#p7c227feff7)">
     <use xlink:href="#C0_0_6d490bb2ce" x="117.778706" y="53.803636" style="fill: #c78033; stroke: #c78033; stroke-width: 0.5"/>
    </g>
    <g clip-path="url(#p7c227feff7)">
     <use xlink:href="#C0_0_6d490bb2ce" x="153.507453" y="65.609547" style="fill: #c78033; stroke: #c78033; stroke-width: 0.5"/>
    </g>
    <g clip-path="url(#p7c227feff7)">
     <use xlink:href="#C0_0_6d490bb2ce" x="139.873062" y="73.702491" style="fill: #c78033; stroke: #c78033; stroke-width: 0.5"/>
    </g>
    <g clip-path="url(#p7c227feff7)">
     <use xlink:href="#C0_0_6d490bb2ce" x="103.166668" y="58.58484" style="fill: #c78033; stroke: #c78033; stroke-width: 0.5"/>
    </g>
    <g clip-path="url(#p7c227feff7)">
     <use xlink:href="#C0_0_6d490bb2ce" x="65.355085" y="65.930109" style="fill: #c78033; stroke: #c78033; stroke-width: 0.5"/>
    </g>
    <g clip-path="url(#p7c227feff7)">
     <use xlink:href="#C0_0_6d490bb2ce" x="134.353475" y="95.022877" style="fill: #c78033; stroke: #c78033; stroke-width: 0.5"/>
    </g>
    <g clip-path="url(#p7c227feff7)">
     <use xlink:href="#C0_0_6d490bb2ce" x="98.173977" y="86.936377" style="fill: #c78033; stroke: #c78033; stroke-width: 0.5"/>
    </g>
    <g clip-path="url(#p7c227feff7)">
     <use xlink:href="#C0_0_6d490bb2ce" x="60.984954" y="98.756029" style="fill: #c78033; stroke: #c78033; stroke-width: 0.5"/>
    </g>
    <g clip-path="url(#p7c227feff7)">
     <use xlink:href="#C0_0_6d490bb2ce" x="81.5121" y="102.203099" style="fill: #c78033; stroke: #c78033; stroke-width: 0.5"/>
    </g>
    <g clip-path="url(#p7c227feff7)">
     <use xlink:href="#C0_0_6d490bb2ce" x="116.480015" y="91.610697" style="fill: #c78033; stroke: #c78033; stroke-width: 0.5"/>
    </g>
    <g clip-path="url(#p7c227feff7)">
     <use xlink:href="#C0_0_6d490bb2ce" x="152.117169" y="107.631943" style="fill: #c78033; stroke: #c78033; stroke-width: 0.5"/>
    </g>
    <g clip-path="url(#p7c227feff7)">
     <use xlink:href="#C0_0_6d490bb2ce" x="83.543381" y="88.947927" style="fill: #c78033; stroke: #c78033; stroke-width: 0.5"/>
    </g>
    <g clip-path="url(#p7c227feff7)">
     <use xlink:href="#C0_0_6d490bb2ce" x="116.377649" y="104.720942" style="fill: #c78033; stroke: #c78033; stroke-width: 0.5"/>
    </g>
    <g clip-path="url(#p7c227feff7)">
     <use xlink:href="#C0_0_6d490bb2ce" x="149.975481" y="90.59407" style="fill: #c78033; stroke: #c78033; stroke-width: 0.5"/>
    </g>
    <g clip-path="url(#p7c227feff7)">
     <use xlink:href="#C0_0_6d490bb2ce" x="134.187514" y="103.44774" style="fill: #c78033; stroke: #c78033; stroke-width: 0.5"/>
    </g>
    <g clip-path="url(#p7c227feff7)">
     <use xlink:href="#C0_0_6d490bb2ce" x="96.218053" y="104.926448" style="fill: #c78033; stroke: #c78033; stroke-width: 0.5"/>
    </g>
    <g clip-path="url(#p7c227feff7)">
     <use xlink:href="#C0_0_6d490bb2ce" x="63.303518" y="92.066599" style="fill: #c78033; stroke: #c78033; stroke-width: 0.5"/>
    </g>
    <g clip-path="url(#p7c227feff7)">
     <use xlink:href="#C0_0_6d490bb2ce" x="150.675949" y="121.807021" style="fill: #c78033; stroke: #c78033; stroke-width: 0.5"/>
    </g>
    <g clip-path="url(#p7c227feff7)">
     <use xlink:href="#C0_0_6d490bb2ce" x="91.113593" y="123.632606" style="fill: #c78033; stroke: #c78033; stroke-width: 0.5"/>
    </g>
    <g clip-path="url(#p7c227feff7)">
     <use xlink:href="#C0_0_6d490bb2ce" x="78.285802" y="142.239411" style="fill: #c78033; stroke: #c78033; stroke-width: 0.5"/>
    </g>
    <g clip-path="url(#p7c227feff7)">
     <use xlink:href="#C0_0_6d490bb2ce" x="55.368595" y="121.675068" style="fill: #c78033; stroke: #c78033; stroke-width: 0.5"/>
    </g>
    <g clip-path="url(#p7c227feff7)">
     <use xlink:href="#C0_0_6d490bb2ce" x="106.830836" y="137.816231" style="fill: #c78033; stroke: #c78033; stroke-width: 0.5"/>
    </g>
    <g clip-path="url(#p7c227feff7)">
     <use xlink:href="#C0_0_6d490bb2ce" x="126.10432" y="138.354634" style="fill: #c78033; stroke: #c78033; stroke-width: 0.5"/>
    </g>
    <g clip-path="url(#p7c227feff7)">
     <use xlink:href="#C0_0_6d490bb2ce" x="58.31996" y="130.496409" style="fill: #c78033; stroke: #c78033; stroke-width: 0.5"/>
    </g>
    <g clip-path="url(#p7c227feff7)">
     <use xlink:href="#C0_0_6d490bb2ce" x="112.628835" y="131.584073" style="fill: #c78033; stroke: #c78033; stroke-width: 0.5"/>
    </g>
    <g clip-path="url(#p7c227feff7)">
     <use xlink:href="#C0_0_6d490bb2ce" x="130.173416" y="126.655441" style="fill: #c78033; stroke: #c78033; stroke-width: 0.5"/>
    </g>
    <g clip-path="url(#p7c227feff7)">
     <use xlink:href="#C0_0_6d490bb2ce" x="147.135612" y="139.737531" style="fill: #c78033; stroke: #c78033; stroke-width: 0.5"/>
    </g>
    <g clip-path="url(#p7c227feff7)">
     <use xlink:href="#C0_0_6d490bb2ce" x="91.39818" y="140.51897" style="fill: #c78033; stroke: #c78033; stroke-width: 0.5"/>
    </g>
    <g clip-path="url(#p7c227feff7)">
     <use xlink:href="#C0_0_6d490bb2ce" x="75.400747" y="120.740187" style="fill: #c78033; stroke: #c78033; stroke-width: 0.5"/>
    </g>
    <g clip-path="url(#p7c227feff7)">
     <use xlink:href="#C0_0_6d490bb2ce" x="161.305479" y="237.076364" style="fill: #bfbfbf; stroke: #bfbfbf; stroke-width: 0.5"/>
    </g>
    <g clip-path="url(#p7c227feff7)">
     <use xlink:href="#C0_0_6d490bb2ce" x="204.373672" y="232.526264" style="fill: #bfbfbf; stroke: #bfbfbf; stroke-width: 0.5"/>
    </g>
    <g clip-path="url(#p7c227feff7)">
     <use xlink:href="#C0_0_6d490bb2ce" x="239.831405" y="210.851109" style="fill: #bfbfbf; stroke: #bfbfbf; stroke-width: 0.5"/>
    </g>
    <g clip-path="url(#p7c227feff7)">
     <use xlink:href="#C0_0_6d490bb2ce" x="232.562794" y="162.503326" style="fill: #bfbfbf; stroke: #bfbfbf; stroke-width: 0.5"/>
    </g>
    <g clip-path="url(#p7c227feff7)">
     <use xlink:href="#C0_0_6d490bb2ce" x="187.476992" y="203.021988" style="fill: #666666; stroke: #666666; stroke-width: 0.5"/>
    </g>
    <g clip-path="url(#p7c227feff7)">
     <use xlink:href="#C0_0_6d490bb2ce" x="179.853641" y="166.707861" style="fill: #666666; stroke: #666666; stroke-width: 0.5"/>
    </g>
    <g clip-path="url(#p7c227feff7)">
     <use xlink:href="#C0_0_6d490bb2ce" x="138.509578" y="163.807563" style="fill: #ff0d0d; stroke: #ff0d0d; stroke-width: 0.5"/>
    </g>
   </g>
   <g id="text_1">
    <!-- C2H4Cu48O -->
    <g transform="translate(127.565318 -4.143258) scale(0.1 -0.1)">
     <defs>
      <path id="DejaVuSans-43" d="M 4122 4306 
L 4122 3641 
Q 3803 3938 3442 4084 
Q 3081 4231 2675 4231 
Q 1875 4231 1450 3742 
Q 1025 3253 1025 2328 
Q 1025 1406 1450 917 
Q 1875 428 2675 428 
Q 3081 428 3442 575 
Q 3803 722 4122 1019 
L 4122 359 
Q 3791 134 3420 21 
Q 3050 -91 2638 -91 
Q 1578 -91 968 557 
Q 359 1206 359 2328 
Q 359 3453 968 4101 
Q 1578 4750 2638 4750 
Q 3056 4750 3426 4639 
Q 3797 4528 4122 4306 
z
" transform="scale(0.015625)"/>
      <path id="DejaVuSans-32" d="M 1228 531 
L 3431 531 
L 3431 0 
L 469 0 
L 469 531 
Q 828 903 1448 1529 
Q 2069 2156 2228 2338 
Q 2531 2678 2651 2914 
Q 2772 3150 2772 3378 
Q 2772 3750 2511 3984 
Q 2250 4219 1831 4219 
Q 1534 4219 1204 4116 
Q 875 4013 500 3803 
L 500 4441 
Q 881 4594 1212 4672 
Q 1544 4750 1819 4750 
Q 2544 4750 2975 4387 
Q 3406 4025 3406 3419 
Q 3406 3131 3298 2873 
Q 3191 2616 2906 2266 
Q 2828 2175 2409 1742 
Q 1991 1309 1228 531 
z
" transform="scale(0.015625)"/>
      <path id="DejaVuSans-48" d="M 628 4666 
L 1259 4666 
L 1259 2753 
L 3553 2753 
L 3553 4666 
L 4184 4666 
L 4184 0 
L 3553 0 
L 3553 2222 
L 1259 2222 
L 1259 0 
L 628 0 
L 628 4666 
z
" transform="scale(0.015625)"/>
      <path id="DejaVuSans-34" d="M 2419 4116 
L 825 1625 
L 2419 1625 
L 2419 4116 
z
M 2253 4666 
L 3047 4666 
L 3047 1625 
L 3713 1625 
L 3713 1100 
L 3047 1100 
L 3047 0 
L 2419 0 
L 2419 1100 
L 313 1100 
L 313 1709 
L 2253 4666 
z
" transform="scale(0.015625)"/>
      <path id="DejaVuSans-75" d="M 544 1381 
L 544 3500 
L 1119 3500 
L 1119 1403 
Q 1119 906 1312 657 
Q 1506 409 1894 409 
Q 2359 409 2629 706 
Q 2900 1003 2900 1516 
L 2900 3500 
L 3475 3500 
L 3475 0 
L 2900 0 
L 2900 538 
Q 2691 219 2414 64 
Q 2138 -91 1772 -91 
Q 1169 -91 856 284 
Q 544 659 544 1381 
z
M 1991 3584 
L 1991 3584 
z
" transform="scale(0.015625)"/>
      <path id="DejaVuSans-38" d="M 2034 2216 
Q 1584 2216 1326 1975 
Q 1069 1734 1069 1313 
Q 1069 891 1326 650 
Q 1584 409 2034 409 
Q 2484 409 2743 651 
Q 3003 894 3003 1313 
Q 3003 1734 2745 1975 
Q 2488 2216 2034 2216 
z
M 1403 2484 
Q 997 2584 770 2862 
Q 544 3141 544 3541 
Q 544 4100 942 4425 
Q 1341 4750 2034 4750 
Q 2731 4750 3128 4425 
Q 3525 4100 3525 3541 
Q 3525 3141 3298 2862 
Q 3072 2584 2669 2484 
Q 3125 2378 3379 2068 
Q 3634 1759 3634 1313 
Q 3634 634 3220 271 
Q 2806 -91 2034 -91 
Q 1263 -91 848 271 
Q 434 634 434 1313 
Q 434 1759 690 2068 
Q 947 2378 1403 2484 
z
M 1172 3481 
Q 1172 3119 1398 2916 
Q 1625 2713 2034 2713 
Q 2441 2713 2670 2916 
Q 2900 3119 2900 3481 
Q 2900 3844 2670 4047 
Q 2441 4250 2034 4250 
Q 1625 4250 1398 4047 
Q 1172 3844 1172 3481 
z
" transform="scale(0.015625)"/>
      <path id="DejaVuSans-4f" d="M 2522 4238 
Q 1834 4238 1429 3725 
Q 1025 3213 1025 2328 
Q 1025 1447 1429 934 
Q 1834 422 2522 422 
Q 3209 422 3611 934 
Q 4013 1447 4013 2328 
Q 4013 3213 3611 3725 
Q 3209 4238 2522 4238 
z
M 2522 4750 
Q 3503 4750 4090 4092 
Q 4678 3434 4678 2328 
Q 4678 1225 4090 567 
Q 3503 -91 2522 -91 
Q 1538 -91 948 565 
Q 359 1222 359 2328 
Q 359 3434 948 4092 
Q 1538 4750 2522 4750 
z
" transform="scale(0.015625)"/>
     </defs>
     <use xlink:href="#DejaVuSans-43"/>
     <use xlink:href="#DejaVuSans-32" transform="translate(69.824219 0)"/>
     <use xlink:href="#DejaVuSans-48" transform="translate(133.447266 0)"/>
     <use xlink:href="#DejaVuSans-34" transform="translate(208.642578 0)"/>
     <use xlink:href="#DejaVuSans-43" transform="translate(272.265625 0)"/>
     <use xlink:href="#DejaVuSans-75" transform="translate(342.089844 0)"/>
     <use xlink:href="#DejaVuSans-34" transform="translate(405.46875 0)"/>
     <use xlink:href="#DejaVuSans-38" transform="translate(469.091797 0)"/>
     <use xlink:href="#DejaVuSans-4f" transform="translate(532.714844 0)"/>
    </g>
    <!-- Error: -7.73 eV -->
    <g transform="translate(127.565318 7.054554) scale(0.1 -0.1)">
     <defs>
      <path id="DejaVuSans-45" d="M 628 4666 
L 3578 4666 
L 3578 4134 
L 1259 4134 
L 1259 2753 
L 3481 2753 
L 3481 2222 
L 1259 2222 
L 1259 531 
L 3634 531 
L 3634 0 
L 628 0 
L 628 4666 
z
" transform="scale(0.015625)"/>
      <path id="DejaVuSans-72" d="M 2631 2963 
Q 2534 3019 2420 3045 
Q 2306 3072 2169 3072 
Q 1681 3072 1420 2755 
Q 1159 2438 1159 1844 
L 1159 0 
L 581 0 
L 581 3500 
L 1159 3500 
L 1159 2956 
Q 1341 3275 1631 3429 
Q 1922 3584 2338 3584 
Q 2397 3584 2469 3576 
Q 2541 3569 2628 3553 
L 2631 2963 
z
" transform="scale(0.015625)"/>
      <path id="DejaVuSans-6f" d="M 1959 3097 
Q 1497 3097 1228 2736 
Q 959 2375 959 1747 
Q 959 1119 1226 758 
Q 1494 397 1959 397 
Q 2419 397 2687 759 
Q 2956 1122 2956 1747 
Q 2956 2369 2687 2733 
Q 2419 3097 1959 3097 
z
M 1959 3584 
Q 2709 3584 3137 3096 
Q 3566 2609 3566 1747 
Q 3566 888 3137 398 
Q 2709 -91 1959 -91 
Q 1206 -91 779 398 
Q 353 888 353 1747 
Q 353 2609 779 3096 
Q 1206 3584 1959 3584 
z
" transform="scale(0.015625)"/>
      <path id="DejaVuSans-3a" d="M 750 794 
L 1409 794 
L 1409 0 
L 750 0 
L 750 794 
z
M 750 3309 
L 1409 3309 
L 1409 2516 
L 750 2516 
L 750 3309 
z
" transform="scale(0.015625)"/>
      <path id="DejaVuSans-20" transform="scale(0.015625)"/>
      <path id="DejaVuSans-2d" d="M 313 2009 
L 1997 2009 
L 1997 1497 
L 313 1497 
L 313 2009 
z
" transform="scale(0.015625)"/>
      <path id="DejaVuSans-37" d="M 525 4666 
L 3525 4666 
L 3525 4397 
L 1831 0 
L 1172 0 
L 2766 4134 
L 525 4134 
L 525 4666 
z
" transform="scale(0.015625)"/>
      <path id="DejaVuSans-2e" d="M 684 794 
L 1344 794 
L 1344 0 
L 684 0 
L 684 794 
z
" transform="scale(0.015625)"/>
      <path id="DejaVuSans-33" d="M 2597 2516 
Q 3050 2419 3304 2112 
Q 3559 1806 3559 1356 
Q 3559 666 3084 287 
Q 2609 -91 1734 -91 
Q 1441 -91 1130 -33 
Q 819 25 488 141 
L 488 750 
Q 750 597 1062 519 
Q 1375 441 1716 441 
Q 2309 441 2620 675 
Q 2931 909 2931 1356 
Q 2931 1769 2642 2001 
Q 2353 2234 1838 2234 
L 1294 2234 
L 1294 2753 
L 1863 2753 
Q 2328 2753 2575 2939 
Q 2822 3125 2822 3475 
Q 2822 3834 2567 4026 
Q 2313 4219 1838 4219 
Q 1578 4219 1281 4162 
Q 984 4106 628 3988 
L 628 4550 
Q 988 4650 1302 4700 
Q 1616 4750 1894 4750 
Q 2613 4750 3031 4423 
Q 3450 4097 3450 3541 
Q 3450 3153 3228 2886 
Q 3006 2619 2597 2516 
z
" transform="scale(0.015625)"/>
      <path id="DejaVuSans-65" d="M 3597 1894 
L 3597 1613 
L 953 1613 
Q 991 1019 1311 708 
Q 1631 397 2203 397 
Q 2534 397 2845 478 
Q 3156 559 3463 722 
L 3463 178 
Q 3153 47 2828 -22 
Q 2503 -91 2169 -91 
Q 1331 -91 842 396 
Q 353 884 353 1716 
Q 353 2575 817 3079 
Q 1281 3584 2069 3584 
Q 2775 3584 3186 3129 
Q 3597 2675 3597 1894 
z
M 3022 2063 
Q 3016 2534 2758 2815 
Q 2500 3097 2075 3097 
Q 1594 3097 1305 2825 
Q 1016 2553 972 2059 
L 3022 2063 
z
" transform="scale(0.015625)"/>
      <path id="DejaVuSans-56" d="M 1831 0 
L 50 4666 
L 709 4666 
L 2188 738 
L 3669 4666 
L 4325 4666 
L 2547 0 
L 1831 0 
z
" transform="scale(0.015625)"/>
     </defs>
     <use xlink:href="#DejaVuSans-45"/>
     <use xlink:href="#DejaVuSans-72" transform="translate(63.183594 0)"/>
     <use xlink:href="#DejaVuSans-72" transform="translate(102.546875 0)"/>
     <use xlink:href="#DejaVuSans-6f" transform="translate(141.410156 0)"/>
     <use xlink:href="#DejaVuSans-72" transform="translate(202.591797 0)"/>
     <use xlink:href="#DejaVuSans-3a" transform="translate(241.955078 0)"/>
     <use xlink:href="#DejaVuSans-20" transform="translate(275.646484 0)"/>
     <use xlink:href="#DejaVuSans-2d" transform="translate(307.433594 0)"/>
     <use xlink:href="#DejaVuSans-37" transform="translate(343.517578 0)"/>
     <use xlink:href="#DejaVuSans-2e" transform="translate(407.140625 0)"/>
     <use xlink:href="#DejaVuSans-37" transform="translate(438.927734 0)"/>
     <use xlink:href="#DejaVuSans-33" transform="translate(502.550781 0)"/>
     <use xlink:href="#DejaVuSans-20" transform="translate(566.173828 0)"/>
     <use xlink:href="#DejaVuSans-65" transform="translate(597.960938 0)"/>
     <use xlink:href="#DejaVuSans-56" transform="translate(659.484375 0)"/>
    </g>
   </g>
  </g>
 </g>
 <defs>
  <clipPath id="p7c227feff7">
   <rect x="36" y="34.56" width="223.2" height="221.76"/>
  </clipPath>
 </defs>
</svg>
