<?xml version="1.0" encoding="utf-8" standalone="no"?>
<!DOCTYPE svg PUBLIC "-//W3C//DTD SVG 1.1//EN"
  "http://www.w3.org/Graphics/SVG/1.1/DTD/svg11.dtd">
<svg xmlns:xlink="http://www.w3.org/1999/xlink" width="288pt" height="288pt" viewBox="0 0 288 288" xmlns="http://www.w3.org/2000/svg" version="1.1">
 <metadata>
  <rdf:RDF xmlns:dc="http://purl.org/dc/elements/1.1/" xmlns:cc="http://creativecommons.org/ns#" xmlns:rdf="http://www.w3.org/1999/02/22-rdf-syntax-ns#">
   <cc:Work>
    <dc:type rdf:resource="http://purl.org/dc/dcmitype/StillImage"/>
    <dc:date>2025-06-30T12:07:56.986434</dc:date>
    <dc:format>image/svg+xml</dc:format>
    <dc:creator>
     <cc:Agent>
      <dc:title>Matplotlib v3.10.1, https://matplotlib.org/</dc:title>
     </cc:Agent>
    </dc:creator>
   </cc:Work>
  </rdf:RDF>
 </metadata>
 <defs>
  <style type="text/css">*{stroke-linejoin: round; stroke-linecap: butt}</style>
 </defs>
 <g id="figure_1">
  <g id="patch_1">
   <path d="M 0 288 
L 288 288 
L 288 0 
L 0 0 
z
" style="fill: #ffffff"/>
  </g>
  <g id="axes_1">
   <g id="LineCollection_1">
    <path d="M 165.49785 73.934198 
L 169.86341 89.678248 
" clip-path="url(#p3bc5fdaf2a)" style="fill: none; stroke: #000000; stroke-width: 1.2"/>
    <path d="M 165.49785 73.934198 
L 123.561984 55.467666 
" clip-path="url(#p3bc5fdaf2a)" style="fill: none; stroke: #000000; stroke-width: 1.2"/>
    <path d="M 165.49785 73.934198 
L 143.300208 56.212935 
" clip-path="url(#p3bc5fdaf2a)" style="fill: none; stroke: #000000; stroke-width: 1.2"/>
    <path d="M 165.49785 73.934198 
L 152.862592 68.704217 
" clip-path="url(#p3bc5fdaf2a)" style="fill: none; stroke: #000000; stroke-width: 1.2"/>
    <path d="M 165.49785 73.934198 
L 106.804017 91.973855 
" clip-path="url(#p3bc5fdaf2a)" style="fill: none; stroke: #000000; stroke-width: 1.2"/>
    <path d="M 165.49785 73.934198 
L 150.509434 103.072681 
" clip-path="url(#p3bc5fdaf2a)" style="fill: none; stroke: #000000; stroke-width: 1.2"/>
    <path d="M 165.49785 73.934198 
L 139.333609 88.225249 
" clip-path="url(#p3bc5fdaf2a)" style="fill: none; stroke: #000000; stroke-width: 1.2"/>
    <path d="M 169.86341 89.678248 
L 152.862592 68.704217 
" clip-path="url(#p3bc5fdaf2a)" style="fill: none; stroke: #000000; stroke-width: 1.2"/>
    <path d="M 169.86341 89.678248 
L 114.139372 85.810377 
" clip-path="url(#p3bc5fdaf2a)" style="fill: none; stroke: #000000; stroke-width: 1.2"/>
    <path d="M 169.86341 89.678248 
L 121.18662 106.544401 
" clip-path="url(#p3bc5fdaf2a)" style="fill: none; stroke: #000000; stroke-width: 1.2"/>
    <path d="M 169.86341 89.678248 
L 150.509434 103.072681 
" clip-path="url(#p3bc5fdaf2a)" style="fill: none; stroke: #000000; stroke-width: 1.2"/>
    <path d="M 123.561984 55.467666 
L 143.300208 56.212935 
" clip-path="url(#p3bc5fdaf2a)" style="fill: none; stroke: #000000; stroke-width: 1.2"/>
    <path d="M 123.561984 55.467666 
L 89.477653 72.837978 
" clip-path="url(#p3bc5fdaf2a)" style="fill: none; stroke: #000000; stroke-width: 1.2"/>
    <path d="M 123.561984 55.467666 
L 91.682625 86.476491 
" clip-path="url(#p3bc5fdaf2a)" style="fill: none; stroke: #000000; stroke-width: 1.2"/>
    <path d="M 123.561984 55.467666 
L 139.333609 88.225249 
" clip-path="url(#p3bc5fdaf2a)" style="fill: none; stroke: #000000; stroke-width: 1.2"/>
    <path d="M 143.300208 56.212935 
L 152.862592 68.704217 
" clip-path="url(#p3bc5fdaf2a)" style="fill: none; stroke: #000000; stroke-width: 1.2"/>
    <path d="M 143.300208 56.212935 
L 103.700417 53.803636 
" clip-path="url(#p3bc5fdaf2a)" style="fill: none; stroke: #000000; stroke-width: 1.2"/>
    <path d="M 143.300208 56.212935 
L 139.333609 88.225249 
" clip-path="url(#p3bc5fdaf2a)" style="fill: none; stroke: #000000; stroke-width: 1.2"/>
    <path d="M 143.300208 56.212935 
L 105.495138 74.061806 
" clip-path="url(#p3bc5fdaf2a)" style="fill: none; stroke: #000000; stroke-width: 1.2"/>
    <path d="M 143.300208 56.212935 
L 125.509769 83.037985 
" clip-path="url(#p3bc5fdaf2a)" style="fill: none; stroke: #000000; stroke-width: 1.2"/>
    <path d="M 152.862592 68.704217 
L 103.700417 53.803636 
" clip-path="url(#p3bc5fdaf2a)" style="fill: none; stroke: #000000; stroke-width: 1.2"/>
    <path d="M 152.862592 68.704217 
L 150.509434 103.072681 
" clip-path="url(#p3bc5fdaf2a)" style="fill: none; stroke: #000000; stroke-width: 1.2"/>
    <path d="M 152.862592 68.704217 
L 125.509769 83.037985 
" clip-path="url(#p3bc5fdaf2a)" style="fill: none; stroke: #000000; stroke-width: 1.2"/>
    <path d="M 152.862592 68.704217 
L 120.853458 97.839066 
" clip-path="url(#p3bc5fdaf2a)" style="fill: none; stroke: #000000; stroke-width: 1.2"/>
    <path d="M 103.700417 53.803636 
L 72.499546 72.739257 
" clip-path="url(#p3bc5fdaf2a)" style="fill: none; stroke: #000000; stroke-width: 1.2"/>
    <path d="M 103.700417 53.803636 
L 125.509769 83.037985 
" clip-path="url(#p3bc5fdaf2a)" style="fill: none; stroke: #000000; stroke-width: 1.2"/>
    <path d="M 103.700417 53.803636 
L 75.182492 88.891442 
" clip-path="url(#p3bc5fdaf2a)" style="fill: none; stroke: #000000; stroke-width: 1.2"/>
    <path d="M 114.139372 85.810377 
L 72.499546 72.739257 
" clip-path="url(#p3bc5fdaf2a)" style="fill: none; stroke: #000000; stroke-width: 1.2"/>
    <path d="M 114.139372 85.810377 
L 89.477653 72.837978 
" clip-path="url(#p3bc5fdaf2a)" style="fill: none; stroke: #000000; stroke-width: 1.2"/>
    <path d="M 114.139372 85.810377 
L 121.18662 106.544401 
" clip-path="url(#p3bc5fdaf2a)" style="fill: none; stroke: #000000; stroke-width: 1.2"/>
    <path d="M 114.139372 85.810377 
L 150.509434 103.072681 
" clip-path="url(#p3bc5fdaf2a)" style="fill: none; stroke: #000000; stroke-width: 1.2"/>
    <path d="M 114.139372 85.810377 
L 105.495138 74.061806 
" clip-path="url(#p3bc5fdaf2a)" style="fill: none; stroke: #000000; stroke-width: 1.2"/>
    <path d="M 114.139372 85.810377 
L 120.853458 97.839066 
" clip-path="url(#p3bc5fdaf2a)" style="fill: none; stroke: #000000; stroke-width: 1.2"/>
    <path d="M 114.139372 85.810377 
L 78.980205 115.386598 
" clip-path="url(#p3bc5fdaf2a)" style="fill: none; stroke: #000000; stroke-width: 1.2"/>
    <path d="M 114.139372 85.810377 
L 58.94204 92.430933 
" clip-path="url(#p3bc5fdaf2a)" style="fill: none; stroke: #000000; stroke-width: 1.2"/>
    <path d="M 114.139372 85.810377 
L 117.32466 123.481135 
" clip-path="url(#p3bc5fdaf2a)" style="fill: none; stroke: #000000; stroke-width: 1.2"/>
    <path d="M 72.499546 72.739257 
L 89.477653 72.837978 
" clip-path="url(#p3bc5fdaf2a)" style="fill: none; stroke: #000000; stroke-width: 1.2"/>
    <path d="M 72.499546 72.739257 
L 106.804017 91.973855 
" clip-path="url(#p3bc5fdaf2a)" style="fill: none; stroke: #000000; stroke-width: 1.2"/>
    <path d="M 72.499546 72.739257 
L 105.495138 74.061806 
" clip-path="url(#p3bc5fdaf2a)" style="fill: none; stroke: #000000; stroke-width: 1.2"/>
    <path d="M 72.499546 72.739257 
L 125.509769 83.037985 
" clip-path="url(#p3bc5fdaf2a)" style="fill: none; stroke: #000000; stroke-width: 1.2"/>
    <path d="M 72.499546 72.739257 
L 75.182492 88.891442 
" clip-path="url(#p3bc5fdaf2a)" style="fill: none; stroke: #000000; stroke-width: 1.2"/>
    <path d="M 72.499546 72.739257 
L 58.94204 92.430933 
" clip-path="url(#p3bc5fdaf2a)" style="fill: none; stroke: #000000; stroke-width: 1.2"/>
    <path d="M 72.499546 72.739257 
L 55.368595 109.241104 
" clip-path="url(#p3bc5fdaf2a)" style="fill: none; stroke: #000000; stroke-width: 1.2"/>
    <path d="M 72.499546 72.739257 
L 88.623372 101.826925 
" clip-path="url(#p3bc5fdaf2a)" style="fill: none; stroke: #000000; stroke-width: 1.2"/>
    <path d="M 89.477653 72.837978 
L 106.804017 91.973855 
" clip-path="url(#p3bc5fdaf2a)" style="fill: none; stroke: #000000; stroke-width: 1.2"/>
    <path d="M 89.477653 72.837978 
L 91.682625 86.476491 
" clip-path="url(#p3bc5fdaf2a)" style="fill: none; stroke: #000000; stroke-width: 1.2"/>
    <path d="M 89.477653 72.837978 
L 139.333609 88.225249 
" clip-path="url(#p3bc5fdaf2a)" style="fill: none; stroke: #000000; stroke-width: 1.2"/>
    <path d="M 89.477653 72.837978 
L 120.853458 97.839066 
" clip-path="url(#p3bc5fdaf2a)" style="fill: none; stroke: #000000; stroke-width: 1.2"/>
    <path d="M 89.477653 72.837978 
L 58.94204 92.430933 
" clip-path="url(#p3bc5fdaf2a)" style="fill: none; stroke: #000000; stroke-width: 1.2"/>
    <path d="M 89.477653 72.837978 
L 94.572799 113.224175 
" clip-path="url(#p3bc5fdaf2a)" style="fill: none; stroke: #000000; stroke-width: 1.2"/>
    <path d="M 89.477653 72.837978 
L 67.468097 107.421043 
" clip-path="url(#p3bc5fdaf2a)" style="fill: none; stroke: #000000; stroke-width: 1.2"/>
    <path d="M 106.804017 91.973855 
L 121.18662 106.544401 
" clip-path="url(#p3bc5fdaf2a)" style="fill: none; stroke: #000000; stroke-width: 1.2"/>
    <path d="M 106.804017 91.973855 
L 150.509434 103.072681 
" clip-path="url(#p3bc5fdaf2a)" style="fill: none; stroke: #000000; stroke-width: 1.2"/>
    <path d="M 106.804017 91.973855 
L 139.333609 88.225249 
" clip-path="url(#p3bc5fdaf2a)" style="fill: none; stroke: #000000; stroke-width: 1.2"/>
    <path d="M 106.804017 91.973855 
L 75.182492 88.891442 
" clip-path="url(#p3bc5fdaf2a)" style="fill: none; stroke: #000000; stroke-width: 1.2"/>
    <path d="M 106.804017 91.973855 
L 94.572799 113.224175 
" clip-path="url(#p3bc5fdaf2a)" style="fill: none; stroke: #000000; stroke-width: 1.2"/>
    <path d="M 106.804017 91.973855 
L 55.368595 109.241104 
" clip-path="url(#p3bc5fdaf2a)" style="fill: none; stroke: #000000; stroke-width: 1.2"/>
    <path d="M 106.804017 91.973855 
L 106.785115 132.68202 
" clip-path="url(#p3bc5fdaf2a)" style="fill: none; stroke: #000000; stroke-width: 1.2"/>
    <path d="M 121.18662 106.544401 
L 150.509434 103.072681 
" clip-path="url(#p3bc5fdaf2a)" style="fill: none; stroke: #000000; stroke-width: 1.2"/>
    <path d="M 121.18662 106.544401 
L 91.682625 86.476491 
" clip-path="url(#p3bc5fdaf2a)" style="fill: none; stroke: #000000; stroke-width: 1.2"/>
    <path d="M 121.18662 106.544401 
L 105.495138 74.061806 
" clip-path="url(#p3bc5fdaf2a)" style="fill: none; stroke: #000000; stroke-width: 1.2"/>
    <path d="M 121.18662 106.544401 
L 75.182492 88.891442 
" clip-path="url(#p3bc5fdaf2a)" style="fill: none; stroke: #000000; stroke-width: 1.2"/>
    <path d="M 121.18662 106.544401 
L 78.980205 115.386598 
" clip-path="url(#p3bc5fdaf2a)" style="fill: none; stroke: #000000; stroke-width: 1.2"/>
    <path d="M 121.18662 106.544401 
L 106.785115 132.68202 
" clip-path="url(#p3bc5fdaf2a)" style="fill: none; stroke: #000000; stroke-width: 1.2"/>
    <path d="M 121.18662 106.544401 
L 69.074012 124.912197 
" clip-path="url(#p3bc5fdaf2a)" style="fill: none; stroke: #000000; stroke-width: 1.2"/>
    <path d="M 150.509434 103.072681 
L 139.333609 88.225249 
" clip-path="url(#p3bc5fdaf2a)" style="fill: none; stroke: #000000; stroke-width: 1.2"/>
    <path d="M 150.509434 103.072681 
L 125.509769 83.037985 
" clip-path="url(#p3bc5fdaf2a)" style="fill: none; stroke: #000000; stroke-width: 1.2"/>
    <path d="M 150.509434 103.072681 
L 120.853458 97.839066 
" clip-path="url(#p3bc5fdaf2a)" style="fill: none; stroke: #000000; stroke-width: 1.2"/>
    <path d="M 150.509434 103.072681 
L 106.785115 132.68202 
" clip-path="url(#p3bc5fdaf2a)" style="fill: none; stroke: #000000; stroke-width: 1.2"/>
    <path d="M 150.509434 103.072681 
L 117.32466 123.481135 
" clip-path="url(#p3bc5fdaf2a)" style="fill: none; stroke: #000000; stroke-width: 1.2"/>
    <path d="M 150.509434 103.072681 
L 141.268666 121.121654 
" clip-path="url(#p3bc5fdaf2a)" style="fill: none; stroke: #000000; stroke-width: 1.2"/>
    <path d="M 91.682625 86.476491 
L 139.333609 88.225249 
" clip-path="url(#p3bc5fdaf2a)" style="fill: none; stroke: #000000; stroke-width: 1.2"/>
    <path d="M 91.682625 86.476491 
L 105.495138 74.061806 
" clip-path="url(#p3bc5fdaf2a)" style="fill: none; stroke: #000000; stroke-width: 1.2"/>
    <path d="M 91.682625 86.476491 
L 120.853458 97.839066 
" clip-path="url(#p3bc5fdaf2a)" style="fill: none; stroke: #000000; stroke-width: 1.2"/>
    <path d="M 91.682625 86.476491 
L 75.182492 88.891442 
" clip-path="url(#p3bc5fdaf2a)" style="fill: none; stroke: #000000; stroke-width: 1.2"/>
    <path d="M 91.682625 86.476491 
L 67.468097 107.421043 
" clip-path="url(#p3bc5fdaf2a)" style="fill: none; stroke: #000000; stroke-width: 1.2"/>
    <path d="M 91.682625 86.476491 
L 113.02211 115.904177 
" clip-path="url(#p3bc5fdaf2a)" style="fill: none; stroke: #000000; stroke-width: 1.2"/>
    <path d="M 91.682625 86.476491 
L 69.074012 124.912197 
" clip-path="url(#p3bc5fdaf2a)" style="fill: none; stroke: #000000; stroke-width: 1.2"/>
    <path d="M 139.333609 88.225249 
L 105.495138 74.061806 
" clip-path="url(#p3bc5fdaf2a)" style="fill: none; stroke: #000000; stroke-width: 1.2"/>
    <path d="M 139.333609 88.225249 
L 125.509769 83.037985 
" clip-path="url(#p3bc5fdaf2a)" style="fill: none; stroke: #000000; stroke-width: 1.2"/>
    <path d="M 139.333609 88.225249 
L 94.572799 113.224175 
" clip-path="url(#p3bc5fdaf2a)" style="fill: none; stroke: #000000; stroke-width: 1.2"/>
    <path d="M 139.333609 88.225249 
L 113.02211 115.904177 
" clip-path="url(#p3bc5fdaf2a)" style="fill: none; stroke: #000000; stroke-width: 1.2"/>
    <path d="M 139.333609 88.225249 
L 141.268666 121.121654 
" clip-path="url(#p3bc5fdaf2a)" style="fill: none; stroke: #000000; stroke-width: 1.2"/>
    <path d="M 105.495138 74.061806 
L 125.509769 83.037985 
" clip-path="url(#p3bc5fdaf2a)" style="fill: none; stroke: #000000; stroke-width: 1.2"/>
    <path d="M 105.495138 74.061806 
L 78.980205 115.386598 
" clip-path="url(#p3bc5fdaf2a)" style="fill: none; stroke: #000000; stroke-width: 1.2"/>
    <path d="M 105.495138 74.061806 
L 113.02211 115.904177 
" clip-path="url(#p3bc5fdaf2a)" style="fill: none; stroke: #000000; stroke-width: 1.2"/>
    <path d="M 105.495138 74.061806 
L 88.623372 101.826925 
" clip-path="url(#p3bc5fdaf2a)" style="fill: none; stroke: #000000; stroke-width: 1.2"/>
    <path d="M 125.509769 83.037985 
L 120.853458 97.839066 
" clip-path="url(#p3bc5fdaf2a)" style="fill: none; stroke: #000000; stroke-width: 1.2"/>
    <path d="M 125.509769 83.037985 
L 75.182492 88.891442 
" clip-path="url(#p3bc5fdaf2a)" style="fill: none; stroke: #000000; stroke-width: 1.2"/>
    <path d="M 125.509769 83.037985 
L 88.623372 101.826925 
" clip-path="url(#p3bc5fdaf2a)" style="fill: none; stroke: #000000; stroke-width: 1.2"/>
    <path d="M 125.509769 83.037985 
L 141.268666 121.121654 
" clip-path="url(#p3bc5fdaf2a)" style="fill: none; stroke: #000000; stroke-width: 1.2"/>
    <path d="M 125.509769 83.037985 
L 93.805474 124.356377 
" clip-path="url(#p3bc5fdaf2a)" style="fill: none; stroke: #000000; stroke-width: 1.2"/>
    <path d="M 120.853458 97.839066 
L 75.182492 88.891442 
" clip-path="url(#p3bc5fdaf2a)" style="fill: none; stroke: #000000; stroke-width: 1.2"/>
    <path d="M 120.853458 97.839066 
L 117.32466 123.481135 
" clip-path="url(#p3bc5fdaf2a)" style="fill: none; stroke: #000000; stroke-width: 1.2"/>
    <path d="M 120.853458 97.839066 
L 67.468097 107.421043 
" clip-path="url(#p3bc5fdaf2a)" style="fill: none; stroke: #000000; stroke-width: 1.2"/>
    <path d="M 120.853458 97.839066 
L 93.805474 124.356377 
" clip-path="url(#p3bc5fdaf2a)" style="fill: none; stroke: #000000; stroke-width: 1.2"/>
    <path d="M 75.182492 88.891442 
L 55.368595 109.241104 
" clip-path="url(#p3bc5fdaf2a)" style="fill: none; stroke: #000000; stroke-width: 1.2"/>
    <path d="M 75.182492 88.891442 
L 93.805474 124.356377 
" clip-path="url(#p3bc5fdaf2a)" style="fill: none; stroke: #000000; stroke-width: 1.2"/>
    <path d="M 75.182492 88.891442 
L 69.074012 124.912197 
" clip-path="url(#p3bc5fdaf2a)" style="fill: none; stroke: #000000; stroke-width: 1.2"/>
    <path d="M 78.980205 115.386598 
L 58.94204 92.430933 
" clip-path="url(#p3bc5fdaf2a)" style="fill: none; stroke: #000000; stroke-width: 1.2"/>
    <path d="M 78.980205 115.386598 
L 106.785115 132.68202 
" clip-path="url(#p3bc5fdaf2a)" style="fill: none; stroke: #000000; stroke-width: 1.2"/>
    <path d="M 78.980205 115.386598 
L 117.32466 123.481135 
" clip-path="url(#p3bc5fdaf2a)" style="fill: none; stroke: #000000; stroke-width: 1.2"/>
    <path d="M 78.980205 115.386598 
L 113.02211 115.904177 
" clip-path="url(#p3bc5fdaf2a)" style="fill: none; stroke: #000000; stroke-width: 1.2"/>
    <path d="M 78.980205 115.386598 
L 88.623372 101.826925 
" clip-path="url(#p3bc5fdaf2a)" style="fill: none; stroke: #000000; stroke-width: 1.2"/>
    <path d="M 78.980205 115.386598 
L 69.074012 124.912197 
" clip-path="url(#p3bc5fdaf2a)" style="fill: none; stroke: #000000; stroke-width: 1.2"/>
    <path d="M 58.94204 92.430933 
L 94.572799 113.224175 
" clip-path="url(#p3bc5fdaf2a)" style="fill: none; stroke: #000000; stroke-width: 1.2"/>
    <path d="M 58.94204 92.430933 
L 55.368595 109.241104 
" clip-path="url(#p3bc5fdaf2a)" style="fill: none; stroke: #000000; stroke-width: 1.2"/>
    <path d="M 58.94204 92.430933 
L 117.32466 123.481135 
" clip-path="url(#p3bc5fdaf2a)" style="fill: none; stroke: #000000; stroke-width: 1.2"/>
    <path d="M 58.94204 92.430933 
L 67.468097 107.421043 
" clip-path="url(#p3bc5fdaf2a)" style="fill: none; stroke: #000000; stroke-width: 1.2"/>
    <path d="M 58.94204 92.430933 
L 88.623372 101.826925 
" clip-path="url(#p3bc5fdaf2a)" style="fill: none; stroke: #000000; stroke-width: 1.2"/>
    <path d="M 94.572799 113.224175 
L 55.368595 109.241104 
" clip-path="url(#p3bc5fdaf2a)" style="fill: none; stroke: #000000; stroke-width: 1.2"/>
    <path d="M 94.572799 113.224175 
L 106.785115 132.68202 
" clip-path="url(#p3bc5fdaf2a)" style="fill: none; stroke: #000000; stroke-width: 1.2"/>
    <path d="M 94.572799 113.224175 
L 67.468097 107.421043 
" clip-path="url(#p3bc5fdaf2a)" style="fill: none; stroke: #000000; stroke-width: 1.2"/>
    <path d="M 94.572799 113.224175 
L 113.02211 115.904177 
" clip-path="url(#p3bc5fdaf2a)" style="fill: none; stroke: #000000; stroke-width: 1.2"/>
    <path d="M 94.572799 113.224175 
L 141.268666 121.121654 
" clip-path="url(#p3bc5fdaf2a)" style="fill: none; stroke: #000000; stroke-width: 1.2"/>
    <path d="M 55.368595 109.241104 
L 106.785115 132.68202 
" clip-path="url(#p3bc5fdaf2a)" style="fill: none; stroke: #000000; stroke-width: 1.2"/>
    <path d="M 55.368595 109.241104 
L 88.623372 101.826925 
" clip-path="url(#p3bc5fdaf2a)" style="fill: none; stroke: #000000; stroke-width: 1.2"/>
    <path d="M 55.368595 109.241104 
L 93.805474 124.356377 
" clip-path="url(#p3bc5fdaf2a)" style="fill: none; stroke: #000000; stroke-width: 1.2"/>
    <path d="M 55.368595 109.241104 
L 69.074012 124.912197 
" clip-path="url(#p3bc5fdaf2a)" style="fill: none; stroke: #000000; stroke-width: 1.2"/>
    <path d="M 106.785115 132.68202 
L 117.32466 123.481135 
" clip-path="url(#p3bc5fdaf2a)" style="fill: none; stroke: #000000; stroke-width: 1.2"/>
    <path d="M 106.785115 132.68202 
L 141.268666 121.121654 
" clip-path="url(#p3bc5fdaf2a)" style="fill: none; stroke: #000000; stroke-width: 1.2"/>
    <path d="M 106.785115 132.68202 
L 69.074012 124.912197 
" clip-path="url(#p3bc5fdaf2a)" style="fill: none; stroke: #000000; stroke-width: 1.2"/>
    <path d="M 117.32466 123.481135 
L 67.468097 107.421043 
" clip-path="url(#p3bc5fdaf2a)" style="fill: none; stroke: #000000; stroke-width: 1.2"/>
    <path d="M 117.32466 123.481135 
L 141.268666 121.121654 
" clip-path="url(#p3bc5fdaf2a)" style="fill: none; stroke: #000000; stroke-width: 1.2"/>
    <path d="M 117.32466 123.481135 
L 93.805474 124.356377 
" clip-path="url(#p3bc5fdaf2a)" style="fill: none; stroke: #000000; stroke-width: 1.2"/>
    <path d="M 67.468097 107.421043 
L 113.02211 115.904177 
" clip-path="url(#p3bc5fdaf2a)" style="fill: none; stroke: #000000; stroke-width: 1.2"/>
    <path d="M 67.468097 107.421043 
L 93.805474 124.356377 
" clip-path="url(#p3bc5fdaf2a)" style="fill: none; stroke: #000000; stroke-width: 1.2"/>
    <path d="M 67.468097 107.421043 
L 69.074012 124.912197 
" clip-path="url(#p3bc5fdaf2a)" style="fill: none; stroke: #000000; stroke-width: 1.2"/>
    <path d="M 113.02211 115.904177 
L 88.623372 101.826925 
" clip-path="url(#p3bc5fdaf2a)" style="fill: none; stroke: #000000; stroke-width: 1.2"/>
    <path d="M 113.02211 115.904177 
L 141.268666 121.121654 
" clip-path="url(#p3bc5fdaf2a)" style="fill: none; stroke: #000000; stroke-width: 1.2"/>
    <path d="M 113.02211 115.904177 
L 69.074012 124.912197 
" clip-path="url(#p3bc5fdaf2a)" style="fill: none; stroke: #000000; stroke-width: 1.2"/>
    <path d="M 88.623372 101.826925 
L 141.268666 121.121654 
" clip-path="url(#p3bc5fdaf2a)" style="fill: none; stroke: #000000; stroke-width: 1.2"/>
    <path d="M 88.623372 101.826925 
L 93.805474 124.356377 
" clip-path="url(#p3bc5fdaf2a)" style="fill: none; stroke: #000000; stroke-width: 1.2"/>
    <path d="M 141.268666 121.121654 
L 93.805474 124.356377 
" clip-path="url(#p3bc5fdaf2a)" style="fill: none; stroke: #000000; stroke-width: 1.2"/>
    <path d="M 141.268666 121.121654 
L 173.619333 144.783495 
" clip-path="url(#p3bc5fdaf2a)" style="fill: none; stroke: #000000; stroke-width: 1.2"/>
    <path d="M 93.805474 124.356377 
L 69.074012 124.912197 
" clip-path="url(#p3bc5fdaf2a)" style="fill: none; stroke: #000000; stroke-width: 1.2"/>
    <path d="M 144.948401 232.199957 
L 177.452009 208.249588 
" clip-path="url(#p3bc5fdaf2a)" style="fill: none; stroke: #000000; stroke-width: 1.2"/>
    <path d="M 180.112918 237.076364 
L 177.452009 208.249588 
" clip-path="url(#p3bc5fdaf2a)" style="fill: none; stroke: #000000; stroke-width: 1.2"/>
    <path d="M 217.173279 226.009678 
L 177.452009 208.249588 
" clip-path="url(#p3bc5fdaf2a)" style="fill: none; stroke: #000000; stroke-width: 1.2"/>
    <path d="M 224.059198 187.20131 
L 188.08863 175.217392 
" clip-path="url(#p3bc5fdaf2a)" style="fill: none; stroke: #000000; stroke-width: 1.2"/>
    <path d="M 239.831405 171.275629 
L 188.08863 175.217392 
" clip-path="url(#p3bc5fdaf2a)" style="fill: none; stroke: #000000; stroke-width: 1.2"/>
    <path d="M 221.572057 135.700019 
L 173.619333 144.783495 
" clip-path="url(#p3bc5fdaf2a)" style="fill: none; stroke: #000000; stroke-width: 1.2"/>
    <path d="M 177.452009 208.249588 
L 188.08863 175.217392 
" clip-path="url(#p3bc5fdaf2a)" style="fill: none; stroke: #000000; stroke-width: 1.2"/>
    <path d="M 188.08863 175.217392 
L 173.619333 144.783495 
" clip-path="url(#p3bc5fdaf2a)" style="fill: none; stroke: #000000; stroke-width: 1.2"/>
   </g>
   <g id="PathCollection_1">
    <defs>
     <path id="C0_0_3686016340" d="M 0 8.944272 
C 2.372049 8.944272 4.647264 8.001847 6.324555 6.324555 
C 8.001847 4.647264 8.944272 2.372049 8.944272 -0 
C 8.944272 -2.372049 8.001847 -4.647264 6.324555 -6.324555 
C 4.647264 -8.001847 2.372049 -8.944272 0 -8.944272 
C -2.372049 -8.944272 -4.647264 -8.001847 -6.324555 -6.324555 
C -8.001847 -4.647264 -8.944272 -2.372049 -8.944272 0 
C -8.944272 2.372049 -8.001847 4.647264 -6.324555 6.324555 
C -4.647264 8.001847 -2.372049 8.944272 0 8.944272 
z
"/>
    </defs>
    <g clip-path="url(#p3bc5fdaf2a)">
     <use xlink:href="#C0_0_3686016340" x="165.49785" y="73.934198" style="fill: #4fd14f; stroke: #4fd14f; stroke-width: 0.5"/>
    </g>
    <g clip-path="url(#p3bc5fdaf2a)">
     <use xlink:href="#C0_0_3686016340" x="169.86341" y="89.678248" style="fill: #4fd14f; stroke: #4fd14f; stroke-width: 0.5"/>
    </g>
    <g clip-path="url(#p3bc5fdaf2a)">
     <use xlink:href="#C0_0_3686016340" x="123.561984" y="55.467666" style="fill: #4fd14f; stroke: #4fd14f; stroke-width: 0.5"/>
    </g>
    <g clip-path="url(#p3bc5fdaf2a)">
     <use xlink:href="#C0_0_3686016340" x="143.300208" y="56.212935" style="fill: #4fd14f; stroke: #4fd14f; stroke-width: 0.5"/>
    </g>
    <g clip-path="url(#p3bc5fdaf2a)">
     <use xlink:href="#C0_0_3686016340" x="152.862592" y="68.704217" style="fill: #4fd14f; stroke: #4fd14f; stroke-width: 0.5"/>
    </g>
    <g clip-path="url(#p3bc5fdaf2a)">
     <use xlink:href="#C0_0_3686016340" x="103.700417" y="53.803636" style="fill: #4fd14f; stroke: #4fd14f; stroke-width: 0.5"/>
    </g>
    <g clip-path="url(#p3bc5fdaf2a)">
     <use xlink:href="#C0_0_3686016340" x="114.139372" y="85.810377" style="fill: #4fd14f; stroke: #4fd14f; stroke-width: 0.5"/>
    </g>
    <g clip-path="url(#p3bc5fdaf2a)">
     <use xlink:href="#C0_0_3686016340" x="72.499546" y="72.739257" style="fill: #4fd14f; stroke: #4fd14f; stroke-width: 0.5"/>
    </g>
    <g clip-path="url(#p3bc5fdaf2a)">
     <use xlink:href="#C0_0_3686016340" x="89.477653" y="72.837978" style="fill: #4fd14f; stroke: #4fd14f; stroke-width: 0.5"/>
    </g>
    <g clip-path="url(#p3bc5fdaf2a)">
     <use xlink:href="#C0_0_3686016340" x="106.804017" y="91.973855" style="fill: #4fd14f; stroke: #4fd14f; stroke-width: 0.5"/>
    </g>
    <g clip-path="url(#p3bc5fdaf2a)">
     <use xlink:href="#C0_0_3686016340" x="121.18662" y="106.544401" style="fill: #4fd14f; stroke: #4fd14f; stroke-width: 0.5"/>
    </g>
    <g clip-path="url(#p3bc5fdaf2a)">
     <use xlink:href="#C0_0_3686016340" x="150.509434" y="103.072681" style="fill: #4fd14f; stroke: #4fd14f; stroke-width: 0.5"/>
    </g>
    <g clip-path="url(#p3bc5fdaf2a)">
     <use xlink:href="#C0_0_3686016340" x="91.682625" y="86.476491" style="fill: #4fd14f; stroke: #4fd14f; stroke-width: 0.5"/>
    </g>
    <g clip-path="url(#p3bc5fdaf2a)">
     <use xlink:href="#C0_0_3686016340" x="139.333609" y="88.225249" style="fill: #4fd14f; stroke: #4fd14f; stroke-width: 0.5"/>
    </g>
    <g clip-path="url(#p3bc5fdaf2a)">
     <use xlink:href="#C0_0_3686016340" x="105.495138" y="74.061806" style="fill: #4fd14f; stroke: #4fd14f; stroke-width: 0.5"/>
    </g>
    <g clip-path="url(#p3bc5fdaf2a)">
     <use xlink:href="#C0_0_3686016340" x="125.509769" y="83.037985" style="fill: #4fd14f; stroke: #4fd14f; stroke-width: 0.5"/>
    </g>
    <g clip-path="url(#p3bc5fdaf2a)">
     <use xlink:href="#C0_0_3686016340" x="120.853458" y="97.839066" style="fill: #4fd14f; stroke: #4fd14f; stroke-width: 0.5"/>
    </g>
    <g clip-path="url(#p3bc5fdaf2a)">
     <use xlink:href="#C0_0_3686016340" x="75.182492" y="88.891442" style="fill: #4fd14f; stroke: #4fd14f; stroke-width: 0.5"/>
    </g>
    <g clip-path="url(#p3bc5fdaf2a)">
     <use xlink:href="#C0_0_3686016340" x="78.980205" y="115.386598" style="fill: #4fd14f; stroke: #4fd14f; stroke-width: 0.5"/>
    </g>
    <g clip-path="url(#p3bc5fdaf2a)">
     <use xlink:href="#C0_0_3686016340" x="58.94204" y="92.430933" style="fill: #4fd14f; stroke: #4fd14f; stroke-width: 0.5"/>
    </g>
    <g clip-path="url(#p3bc5fdaf2a)">
     <use xlink:href="#C0_0_3686016340" x="94.572799" y="113.224175" style="fill: #4fd14f; stroke: #4fd14f; stroke-width: 0.5"/>
    </g>
    <g clip-path="url(#p3bc5fdaf2a)">
     <use xlink:href="#C0_0_3686016340" x="55.368595" y="109.241104" style="fill: #4fd14f; stroke: #4fd14f; stroke-width: 0.5"/>
    </g>
    <g clip-path="url(#p3bc5fdaf2a)">
     <use xlink:href="#C0_0_3686016340" x="106.785115" y="132.68202" style="fill: #4fd14f; stroke: #4fd14f; stroke-width: 0.5"/>
    </g>
    <g clip-path="url(#p3bc5fdaf2a)">
     <use xlink:href="#C0_0_3686016340" x="117.32466" y="123.481135" style="fill: #4fd14f; stroke: #4fd14f; stroke-width: 0.5"/>
    </g>
    <g clip-path="url(#p3bc5fdaf2a)">
     <use xlink:href="#C0_0_3686016340" x="67.468097" y="107.421043" style="fill: #4fd14f; stroke: #4fd14f; stroke-width: 0.5"/>
    </g>
    <g clip-path="url(#p3bc5fdaf2a)">
     <use xlink:href="#C0_0_3686016340" x="113.02211" y="115.904177" style="fill: #4fd14f; stroke: #4fd14f; stroke-width: 0.5"/>
    </g>
    <g clip-path="url(#p3bc5fdaf2a)">
     <use xlink:href="#C0_0_3686016340" x="88.623372" y="101.826925" style="fill: #4fd14f; stroke: #4fd14f; stroke-width: 0.5"/>
    </g>
    <g clip-path="url(#p3bc5fdaf2a)">
     <use xlink:href="#C0_0_3686016340" x="141.268666" y="121.121654" style="fill: #4fd14f; stroke: #4fd14f; stroke-width: 0.5"/>
    </g>
    <g clip-path="url(#p3bc5fdaf2a)">
     <use xlink:href="#C0_0_3686016340" x="93.805474" y="124.356377" style="fill: #4fd14f; stroke: #4fd14f; stroke-width: 0.5"/>
    </g>
    <g clip-path="url(#p3bc5fdaf2a)">
     <use xlink:href="#C0_0_3686016340" x="69.074012" y="124.912197" style="fill: #4fd14f; stroke: #4fd14f; stroke-width: 0.5"/>
    </g>
    <g clip-path="url(#p3bc5fdaf2a)">
     <use xlink:href="#C0_0_3686016340" x="144.948401" y="232.199957" style="fill: #bfbfbf; stroke: #bfbfbf; stroke-width: 0.5"/>
    </g>
    <g clip-path="url(#p3bc5fdaf2a)">
     <use xlink:href="#C0_0_3686016340" x="180.112918" y="237.076364" style="fill: #bfbfbf; stroke: #bfbfbf; stroke-width: 0.5"/>
    </g>
    <g clip-path="url(#p3bc5fdaf2a)">
     <use xlink:href="#C0_0_3686016340" x="217.173279" y="226.009678" style="fill: #bfbfbf; stroke: #bfbfbf; stroke-width: 0.5"/>
    </g>
    <g clip-path="url(#p3bc5fdaf2a)">
     <use xlink:href="#C0_0_3686016340" x="224.059198" y="187.20131" style="fill: #bfbfbf; stroke: #bfbfbf; stroke-width: 0.5"/>
    </g>
    <g clip-path="url(#p3bc5fdaf2a)">
     <use xlink:href="#C0_0_3686016340" x="239.831405" y="171.275629" style="fill: #bfbfbf; stroke: #bfbfbf; stroke-width: 0.5"/>
    </g>
    <g clip-path="url(#p3bc5fdaf2a)">
     <use xlink:href="#C0_0_3686016340" x="221.572057" y="135.700019" style="fill: #bfbfbf; stroke: #bfbfbf; stroke-width: 0.5"/>
    </g>
    <g clip-path="url(#p3bc5fdaf2a)">
     <use xlink:href="#C0_0_3686016340" x="177.452009" y="208.249588" style="fill: #666666; stroke: #666666; stroke-width: 0.5"/>
    </g>
    <g clip-path="url(#p3bc5fdaf2a)">
     <use xlink:href="#C0_0_3686016340" x="188.08863" y="175.217392" style="fill: #666666; stroke: #666666; stroke-width: 0.5"/>
    </g>
    <g clip-path="url(#p3bc5fdaf2a)">
     <use xlink:href="#C0_0_3686016340" x="173.619333" y="144.783495" style="fill: #ff0d0d; stroke: #ff0d0d; stroke-width: 0.5"/>
    </g>
   </g>
   <g id="text_1">
    <!-- C2H6Ni48O -->
    <g transform="translate(134.04676 -2.947945) scale(0.1 -0.1)">
     <defs>
      <path id="DejaVuSans-43" d="M 4122 4306 
L 4122 3641 
Q 3803 3938 3442 4084 
Q 3081 4231 2675 4231 
Q 1875 4231 1450 3742 
Q 1025 3253 1025 2328 
Q 1025 1406 1450 917 
Q 1875 428 2675 428 
Q 3081 428 3442 575 
Q 3803 722 4122 1019 
L 4122 359 
Q 3791 134 3420 21 
Q 3050 -91 2638 -91 
Q 1578 -91 968 557 
Q 359 1206 359 2328 
Q 359 3453 968 4101 
Q 1578 4750 2638 4750 
Q 3056 4750 3426 4639 
Q 3797 4528 4122 4306 
z
" transform="scale(0.015625)"/>
      <path id="DejaVuSans-32" d="M 1228 531 
L 3431 531 
L 3431 0 
L 469 0 
L 469 531 
Q 828 903 1448 1529 
Q 2069 2156 2228 2338 
Q 2531 2678 2651 2914 
Q 2772 3150 2772 3378 
Q 2772 3750 2511 3984 
Q 2250 4219 1831 4219 
Q 1534 4219 1204 4116 
Q 875 4013 500 3803 
L 500 4441 
Q 881 4594 1212 4672 
Q 1544 4750 1819 4750 
Q 2544 4750 2975 4387 
Q 3406 4025 3406 3419 
Q 3406 3131 3298 2873 
Q 3191 2616 2906 2266 
Q 2828 2175 2409 1742 
Q 1991 1309 1228 531 
z
" transform="scale(0.015625)"/>
      <path id="DejaVuSans-48" d="M 628 4666 
L 1259 4666 
L 1259 2753 
L 3553 2753 
L 3553 4666 
L 4184 4666 
L 4184 0 
L 3553 0 
L 3553 2222 
L 1259 2222 
L 1259 0 
L 628 0 
L 628 4666 
z
" transform="scale(0.015625)"/>
      <path id="DejaVuSans-36" d="M 2113 2584 
Q 1688 2584 1439 2293 
Q 1191 2003 1191 1497 
Q 1191 994 1439 701 
Q 1688 409 2113 409 
Q 2538 409 2786 701 
Q 3034 994 3034 1497 
Q 3034 2003 2786 2293 
Q 2538 2584 2113 2584 
z
M 3366 4563 
L 3366 3988 
Q 3128 4100 2886 4159 
Q 2644 4219 2406 4219 
Q 1781 4219 1451 3797 
Q 1122 3375 1075 2522 
Q 1259 2794 1537 2939 
Q 1816 3084 2150 3084 
Q 2853 3084 3261 2657 
Q 3669 2231 3669 1497 
Q 3669 778 3244 343 
Q 2819 -91 2113 -91 
Q 1303 -91 875 529 
Q 447 1150 447 2328 
Q 447 3434 972 4092 
Q 1497 4750 2381 4750 
Q 2619 4750 2861 4703 
Q 3103 4656 3366 4563 
z
" transform="scale(0.015625)"/>
      <path id="DejaVuSans-4e" d="M 628 4666 
L 1478 4666 
L 3547 763 
L 3547 4666 
L 4159 4666 
L 4159 0 
L 3309 0 
L 1241 3903 
L 1241 0 
L 628 0 
L 628 4666 
z
" transform="scale(0.015625)"/>
      <path id="DejaVuSans-69" d="M 603 3500 
L 1178 3500 
L 1178 0 
L 603 0 
L 603 3500 
z
M 603 4863 
L 1178 4863 
L 1178 4134 
L 603 4134 
L 603 4863 
z
" transform="scale(0.015625)"/>
      <path id="DejaVuSans-34" d="M 2419 4116 
L 825 1625 
L 2419 1625 
L 2419 4116 
z
M 2253 4666 
L 3047 4666 
L 3047 1625 
L 3713 1625 
L 3713 1100 
L 3047 1100 
L 3047 0 
L 2419 0 
L 2419 1100 
L 313 1100 
L 313 1709 
L 2253 4666 
z
" transform="scale(0.015625)"/>
      <path id="DejaVuSans-38" d="M 2034 2216 
Q 1584 2216 1326 1975 
Q 1069 1734 1069 1313 
Q 1069 891 1326 650 
Q 1584 409 2034 409 
Q 2484 409 2743 651 
Q 3003 894 3003 1313 
Q 3003 1734 2745 1975 
Q 2488 2216 2034 2216 
z
M 1403 2484 
Q 997 2584 770 2862 
Q 544 3141 544 3541 
Q 544 4100 942 4425 
Q 1341 4750 2034 4750 
Q 2731 4750 3128 4425 
Q 3525 4100 3525 3541 
Q 3525 3141 3298 2862 
Q 3072 2584 2669 2484 
Q 3125 2378 3379 2068 
Q 3634 1759 3634 1313 
Q 3634 634 3220 271 
Q 2806 -91 2034 -91 
Q 1263 -91 848 271 
Q 434 634 434 1313 
Q 434 1759 690 2068 
Q 947 2378 1403 2484 
z
M 1172 3481 
Q 1172 3119 1398 2916 
Q 1625 2713 2034 2713 
Q 2441 2713 2670 2916 
Q 2900 3119 2900 3481 
Q 2900 3844 2670 4047 
Q 2441 4250 2034 4250 
Q 1625 4250 1398 4047 
Q 1172 3844 1172 3481 
z
" transform="scale(0.015625)"/>
      <path id="DejaVuSans-4f" d="M 2522 4238 
Q 1834 4238 1429 3725 
Q 1025 3213 1025 2328 
Q 1025 1447 1429 934 
Q 1834 422 2522 422 
Q 3209 422 3611 934 
Q 4013 1447 4013 2328 
Q 4013 3213 3611 3725 
Q 3209 4238 2522 4238 
z
M 2522 4750 
Q 3503 4750 4090 4092 
Q 4678 3434 4678 2328 
Q 4678 1225 4090 567 
Q 3503 -91 2522 -91 
Q 1538 -91 948 565 
Q 359 1222 359 2328 
Q 359 3434 948 4092 
Q 1538 4750 2522 4750 
z
" transform="scale(0.015625)"/>
     </defs>
     <use xlink:href="#DejaVuSans-43"/>
     <use xlink:href="#DejaVuSans-32" transform="translate(69.824219 0)"/>
     <use xlink:href="#DejaVuSans-48" transform="translate(133.447266 0)"/>
     <use xlink:href="#DejaVuSans-36" transform="translate(208.642578 0)"/>
     <use xlink:href="#DejaVuSans-4e" transform="translate(272.265625 0)"/>
     <use xlink:href="#DejaVuSans-69" transform="translate(347.070312 0)"/>
     <use xlink:href="#DejaVuSans-34" transform="translate(374.853516 0)"/>
     <use xlink:href="#DejaVuSans-38" transform="translate(438.476562 0)"/>
     <use xlink:href="#DejaVuSans-4f" transform="translate(502.099609 0)"/>
    </g>
    <!-- Error: -7.45 eV -->
    <g transform="translate(134.04676 8.249867) scale(0.1 -0.1)">
     <defs>
      <path id="DejaVuSans-45" d="M 628 4666 
L 3578 4666 
L 3578 4134 
L 1259 4134 
L 1259 2753 
L 3481 2753 
L 3481 2222 
L 1259 2222 
L 1259 531 
L 3634 531 
L 3634 0 
L 628 0 
L 628 4666 
z
" transform="scale(0.015625)"/>
      <path id="DejaVuSans-72" d="M 2631 2963 
Q 2534 3019 2420 3045 
Q 2306 3072 2169 3072 
Q 1681 3072 1420 2755 
Q 1159 2438 1159 1844 
L 1159 0 
L 581 0 
L 581 3500 
L 1159 3500 
L 1159 2956 
Q 1341 3275 1631 3429 
Q 1922 3584 2338 3584 
Q 2397 3584 2469 3576 
Q 2541 3569 2628 3553 
L 2631 2963 
z
" transform="scale(0.015625)"/>
      <path id="DejaVuSans-6f" d="M 1959 3097 
Q 1497 3097 1228 2736 
Q 959 2375 959 1747 
Q 959 1119 1226 758 
Q 1494 397 1959 397 
Q 2419 397 2687 759 
Q 2956 1122 2956 1747 
Q 2956 2369 2687 2733 
Q 2419 3097 1959 3097 
z
M 1959 3584 
Q 2709 3584 3137 3096 
Q 3566 2609 3566 1747 
Q 3566 888 3137 398 
Q 2709 -91 1959 -91 
Q 1206 -91 779 398 
Q 353 888 353 1747 
Q 353 2609 779 3096 
Q 1206 3584 1959 3584 
z
" transform="scale(0.015625)"/>
      <path id="DejaVuSans-3a" d="M 750 794 
L 1409 794 
L 1409 0 
L 750 0 
L 750 794 
z
M 750 3309 
L 1409 3309 
L 1409 2516 
L 750 2516 
L 750 3309 
z
" transform="scale(0.015625)"/>
      <path id="DejaVuSans-20" transform="scale(0.015625)"/>
      <path id="DejaVuSans-2d" d="M 313 2009 
L 1997 2009 
L 1997 1497 
L 313 1497 
L 313 2009 
z
" transform="scale(0.015625)"/>
      <path id="DejaVuSans-37" d="M 525 4666 
L 3525 4666 
L 3525 4397 
L 1831 0 
L 1172 0 
L 2766 4134 
L 525 4134 
L 525 4666 
z
" transform="scale(0.015625)"/>
      <path id="DejaVuSans-2e" d="M 684 794 
L 1344 794 
L 1344 0 
L 684 0 
L 684 794 
z
" transform="scale(0.015625)"/>
      <path id="DejaVuSans-35" d="M 691 4666 
L 3169 4666 
L 3169 4134 
L 1269 4134 
L 1269 2991 
Q 1406 3038 1543 3061 
Q 1681 3084 1819 3084 
Q 2600 3084 3056 2656 
Q 3513 2228 3513 1497 
Q 3513 744 3044 326 
Q 2575 -91 1722 -91 
Q 1428 -91 1123 -41 
Q 819 9 494 109 
L 494 744 
Q 775 591 1075 516 
Q 1375 441 1709 441 
Q 2250 441 2565 725 
Q 2881 1009 2881 1497 
Q 2881 1984 2565 2268 
Q 2250 2553 1709 2553 
Q 1456 2553 1204 2497 
Q 953 2441 691 2322 
L 691 4666 
z
" transform="scale(0.015625)"/>
      <path id="DejaVuSans-65" d="M 3597 1894 
L 3597 1613 
L 953 1613 
Q 991 1019 1311 708 
Q 1631 397 2203 397 
Q 2534 397 2845 478 
Q 3156 559 3463 722 
L 3463 178 
Q 3153 47 2828 -22 
Q 2503 -91 2169 -91 
Q 1331 -91 842 396 
Q 353 884 353 1716 
Q 353 2575 817 3079 
Q 1281 3584 2069 3584 
Q 2775 3584 3186 3129 
Q 3597 2675 3597 1894 
z
M 3022 2063 
Q 3016 2534 2758 2815 
Q 2500 3097 2075 3097 
Q 1594 3097 1305 2825 
Q 1016 2553 972 2059 
L 3022 2063 
z
" transform="scale(0.015625)"/>
      <path id="DejaVuSans-56" d="M 1831 0 
L 50 4666 
L 709 4666 
L 2188 738 
L 3669 4666 
L 4325 4666 
L 2547 0 
L 1831 0 
z
" transform="scale(0.015625)"/>
     </defs>
     <use xlink:href="#DejaVuSans-45"/>
     <use xlink:href="#DejaVuSans-72" transform="translate(63.183594 0)"/>
     <use xlink:href="#DejaVuSans-72" transform="translate(102.546875 0)"/>
     <use xlink:href="#DejaVuSans-6f" transform="translate(141.410156 0)"/>
     <use xlink:href="#DejaVuSans-72" transform="translate(202.591797 0)"/>
     <use xlink:href="#DejaVuSans-3a" transform="translate(241.955078 0)"/>
     <use xlink:href="#DejaVuSans-20" transform="translate(275.646484 0)"/>
     <use xlink:href="#DejaVuSans-2d" transform="translate(307.433594 0)"/>
     <use xlink:href="#DejaVuSans-37" transform="translate(343.517578 0)"/>
     <use xlink:href="#DejaVuSans-2e" transform="translate(407.140625 0)"/>
     <use xlink:href="#DejaVuSans-34" transform="translate(438.927734 0)"/>
     <use xlink:href="#DejaVuSans-35" transform="translate(502.550781 0)"/>
     <use xlink:href="#DejaVuSans-20" transform="translate(566.173828 0)"/>
     <use xlink:href="#DejaVuSans-65" transform="translate(597.960938 0)"/>
     <use xlink:href="#DejaVuSans-56" transform="translate(659.484375 0)"/>
    </g>
   </g>
  </g>
 </g>
 <defs>
  <clipPath id="p3bc5fdaf2a">
   <rect x="36" y="34.56" width="223.2" height="221.76"/>
  </clipPath>
 </defs>
</svg>
