<?xml version="1.0" encoding="utf-8" standalone="no"?>
<!DOCTYPE svg PUBLIC "-//W3C//DTD SVG 1.1//EN"
  "http://www.w3.org/Graphics/SVG/1.1/DTD/svg11.dtd">
<svg xmlns:xlink="http://www.w3.org/1999/xlink" width="288pt" height="288pt" viewBox="0 0 288 288" xmlns="http://www.w3.org/2000/svg" version="1.1">
 <metadata>
  <rdf:RDF xmlns:dc="http://purl.org/dc/elements/1.1/" xmlns:cc="http://creativecommons.org/ns#" xmlns:rdf="http://www.w3.org/1999/02/22-rdf-syntax-ns#">
   <cc:Work>
    <dc:type rdf:resource="http://purl.org/dc/dcmitype/StillImage"/>
    <dc:date>2025-06-30T12:07:55.388658</dc:date>
    <dc:format>image/svg+xml</dc:format>
    <dc:creator>
     <cc:Agent>
      <dc:title>Matplotlib v3.10.1, https://matplotlib.org/</dc:title>
     </cc:Agent>
    </dc:creator>
   </cc:Work>
  </rdf:RDF>
 </metadata>
 <defs>
  <style type="text/css">*{stroke-linejoin: round; stroke-linecap: butt}</style>
 </defs>
 <g id="figure_1">
  <g id="patch_1">
   <path d="M 0 288 
L 288 288 
L 288 0 
L 0 0 
z
" style="fill: #ffffff"/>
  </g>
  <g id="axes_1">
   <g id="LineCollection_1">
    <path d="M 144.019463 64.800914 
L 123.109251 53.803636 
" clip-path="url(#p38abda7bbc)" style="fill: none; stroke: #000000; stroke-width: 1.2"/>
    <path d="M 144.019463 64.800914 
L 96.723777 56.252001 
" clip-path="url(#p38abda7bbc)" style="fill: none; stroke: #000000; stroke-width: 1.2"/>
    <path d="M 144.019463 64.800914 
L 107.988741 70.229899 
" clip-path="url(#p38abda7bbc)" style="fill: none; stroke: #000000; stroke-width: 1.2"/>
    <path d="M 144.019463 64.800914 
L 126.147203 63.912929 
" clip-path="url(#p38abda7bbc)" style="fill: none; stroke: #000000; stroke-width: 1.2"/>
    <path d="M 144.019463 64.800914 
L 124.615464 81.442252 
" clip-path="url(#p38abda7bbc)" style="fill: none; stroke: #000000; stroke-width: 1.2"/>
    <path d="M 144.019463 64.800914 
L 138.851795 113.232141 
" clip-path="url(#p38abda7bbc)" style="fill: none; stroke: #000000; stroke-width: 1.2"/>
    <path d="M 144.019463 64.800914 
L 150.383344 93.888514 
" clip-path="url(#p38abda7bbc)" style="fill: none; stroke: #000000; stroke-width: 1.2"/>
    <path d="M 144.019463 64.800914 
L 111.402862 93.083682 
" clip-path="url(#p38abda7bbc)" style="fill: none; stroke: #000000; stroke-width: 1.2"/>
    <path d="M 144.019463 64.800914 
L 142.961268 96.367989 
" clip-path="url(#p38abda7bbc)" style="fill: none; stroke: #000000; stroke-width: 1.2"/>
    <path d="M 123.109251 53.803636 
L 96.723777 56.252001 
" clip-path="url(#p38abda7bbc)" style="fill: none; stroke: #000000; stroke-width: 1.2"/>
    <path d="M 123.109251 53.803636 
L 143.176562 73.404755 
" clip-path="url(#p38abda7bbc)" style="fill: none; stroke: #000000; stroke-width: 1.2"/>
    <path d="M 123.109251 53.803636 
L 92.588957 62.993672 
" clip-path="url(#p38abda7bbc)" style="fill: none; stroke: #000000; stroke-width: 1.2"/>
    <path d="M 123.109251 53.803636 
L 124.615464 81.442252 
" clip-path="url(#p38abda7bbc)" style="fill: none; stroke: #000000; stroke-width: 1.2"/>
    <path d="M 123.109251 53.803636 
L 84.690267 80.708834 
" clip-path="url(#p38abda7bbc)" style="fill: none; stroke: #000000; stroke-width: 1.2"/>
    <path d="M 123.109251 53.803636 
L 123.663149 101.619979 
" clip-path="url(#p38abda7bbc)" style="fill: none; stroke: #000000; stroke-width: 1.2"/>
    <path d="M 123.109251 53.803636 
L 116.744875 84.945898 
" clip-path="url(#p38abda7bbc)" style="fill: none; stroke: #000000; stroke-width: 1.2"/>
    <path d="M 123.109251 53.803636 
L 150.383344 93.888514 
" clip-path="url(#p38abda7bbc)" style="fill: none; stroke: #000000; stroke-width: 1.2"/>
    <path d="M 96.723777 56.252001 
L 66.702024 61.918439 
" clip-path="url(#p38abda7bbc)" style="fill: none; stroke: #000000; stroke-width: 1.2"/>
    <path d="M 96.723777 56.252001 
L 107.988741 70.229899 
" clip-path="url(#p38abda7bbc)" style="fill: none; stroke: #000000; stroke-width: 1.2"/>
    <path d="M 96.723777 56.252001 
L 126.147203 63.912929 
" clip-path="url(#p38abda7bbc)" style="fill: none; stroke: #000000; stroke-width: 1.2"/>
    <path d="M 96.723777 56.252001 
L 58.30095 80.337114 
" clip-path="url(#p38abda7bbc)" style="fill: none; stroke: #000000; stroke-width: 1.2"/>
    <path d="M 96.723777 56.252001 
L 124.615464 81.442252 
" clip-path="url(#p38abda7bbc)" style="fill: none; stroke: #000000; stroke-width: 1.2"/>
    <path d="M 96.723777 56.252001 
L 84.690267 80.708834 
" clip-path="url(#p38abda7bbc)" style="fill: none; stroke: #000000; stroke-width: 1.2"/>
    <path d="M 96.723777 56.252001 
L 91.451509 104.401816 
" clip-path="url(#p38abda7bbc)" style="fill: none; stroke: #000000; stroke-width: 1.2"/>
    <path d="M 96.723777 56.252001 
L 89.252398 85.849251 
" clip-path="url(#p38abda7bbc)" style="fill: none; stroke: #000000; stroke-width: 1.2"/>
    <path d="M 96.723777 56.252001 
L 111.402862 93.083682 
" clip-path="url(#p38abda7bbc)" style="fill: none; stroke: #000000; stroke-width: 1.2"/>
    <path d="M 66.702024 61.918439 
L 107.988741 70.229899 
" clip-path="url(#p38abda7bbc)" style="fill: none; stroke: #000000; stroke-width: 1.2"/>
    <path d="M 66.702024 61.918439 
L 92.588957 62.993672 
" clip-path="url(#p38abda7bbc)" style="fill: none; stroke: #000000; stroke-width: 1.2"/>
    <path d="M 66.702024 61.918439 
L 58.30095 80.337114 
" clip-path="url(#p38abda7bbc)" style="fill: none; stroke: #000000; stroke-width: 1.2"/>
    <path d="M 66.702024 61.918439 
L 55.368595 88.527863 
" clip-path="url(#p38abda7bbc)" style="fill: none; stroke: #000000; stroke-width: 1.2"/>
    <path d="M 66.702024 61.918439 
L 57.971801 105.652449 
" clip-path="url(#p38abda7bbc)" style="fill: none; stroke: #000000; stroke-width: 1.2"/>
    <path d="M 66.702024 61.918439 
L 89.252398 85.849251 
" clip-path="url(#p38abda7bbc)" style="fill: none; stroke: #000000; stroke-width: 1.2"/>
    <path d="M 66.702024 61.918439 
L 74.250802 96.006229 
" clip-path="url(#p38abda7bbc)" style="fill: none; stroke: #000000; stroke-width: 1.2"/>
    <path d="M 143.176562 73.404755 
L 107.988741 70.229899 
" clip-path="url(#p38abda7bbc)" style="fill: none; stroke: #000000; stroke-width: 1.2"/>
    <path d="M 143.176562 73.404755 
L 126.147203 63.912929 
" clip-path="url(#p38abda7bbc)" style="fill: none; stroke: #000000; stroke-width: 1.2"/>
    <path d="M 143.176562 73.404755 
L 92.588957 62.993672 
" clip-path="url(#p38abda7bbc)" style="fill: none; stroke: #000000; stroke-width: 1.2"/>
    <path d="M 143.176562 73.404755 
L 116.744875 84.945898 
" clip-path="url(#p38abda7bbc)" style="fill: none; stroke: #000000; stroke-width: 1.2"/>
    <path d="M 143.176562 73.404755 
L 150.383344 93.888514 
" clip-path="url(#p38abda7bbc)" style="fill: none; stroke: #000000; stroke-width: 1.2"/>
    <path d="M 143.176562 73.404755 
L 134.952914 120.901709 
" clip-path="url(#p38abda7bbc)" style="fill: none; stroke: #000000; stroke-width: 1.2"/>
    <path d="M 143.176562 73.404755 
L 142.961268 96.367989 
" clip-path="url(#p38abda7bbc)" style="fill: none; stroke: #000000; stroke-width: 1.2"/>
    <path d="M 143.176562 73.404755 
L 111.641022 102.785498 
" clip-path="url(#p38abda7bbc)" style="fill: none; stroke: #000000; stroke-width: 1.2"/>
    <path d="M 107.988741 70.229899 
L 126.147203 63.912929 
" clip-path="url(#p38abda7bbc)" style="fill: none; stroke: #000000; stroke-width: 1.2"/>
    <path d="M 107.988741 70.229899 
L 92.588957 62.993672 
" clip-path="url(#p38abda7bbc)" style="fill: none; stroke: #000000; stroke-width: 1.2"/>
    <path d="M 107.988741 70.229899 
L 89.252398 85.849251 
" clip-path="url(#p38abda7bbc)" style="fill: none; stroke: #000000; stroke-width: 1.2"/>
    <path d="M 107.988741 70.229899 
L 111.402862 93.083682 
" clip-path="url(#p38abda7bbc)" style="fill: none; stroke: #000000; stroke-width: 1.2"/>
    <path d="M 107.988741 70.229899 
L 74.250802 96.006229 
" clip-path="url(#p38abda7bbc)" style="fill: none; stroke: #000000; stroke-width: 1.2"/>
    <path d="M 107.988741 70.229899 
L 101.077549 120.328102 
" clip-path="url(#p38abda7bbc)" style="fill: none; stroke: #000000; stroke-width: 1.2"/>
    <path d="M 107.988741 70.229899 
L 142.961268 96.367989 
" clip-path="url(#p38abda7bbc)" style="fill: none; stroke: #000000; stroke-width: 1.2"/>
    <path d="M 107.988741 70.229899 
L 111.641022 102.785498 
" clip-path="url(#p38abda7bbc)" style="fill: none; stroke: #000000; stroke-width: 1.2"/>
    <path d="M 126.147203 63.912929 
L 92.588957 62.993672 
" clip-path="url(#p38abda7bbc)" style="fill: none; stroke: #000000; stroke-width: 1.2"/>
    <path d="M 126.147203 63.912929 
L 124.615464 81.442252 
" clip-path="url(#p38abda7bbc)" style="fill: none; stroke: #000000; stroke-width: 1.2"/>
    <path d="M 126.147203 63.912929 
L 116.744875 84.945898 
" clip-path="url(#p38abda7bbc)" style="fill: none; stroke: #000000; stroke-width: 1.2"/>
    <path d="M 126.147203 63.912929 
L 89.252398 85.849251 
" clip-path="url(#p38abda7bbc)" style="fill: none; stroke: #000000; stroke-width: 1.2"/>
    <path d="M 126.147203 63.912929 
L 121.159372 120.684935 
" clip-path="url(#p38abda7bbc)" style="fill: none; stroke: #000000; stroke-width: 1.2"/>
    <path d="M 126.147203 63.912929 
L 142.961268 96.367989 
" clip-path="url(#p38abda7bbc)" style="fill: none; stroke: #000000; stroke-width: 1.2"/>
    <path d="M 92.588957 62.993672 
L 84.690267 80.708834 
" clip-path="url(#p38abda7bbc)" style="fill: none; stroke: #000000; stroke-width: 1.2"/>
    <path d="M 92.588957 62.993672 
L 55.368595 88.527863 
" clip-path="url(#p38abda7bbc)" style="fill: none; stroke: #000000; stroke-width: 1.2"/>
    <path d="M 92.588957 62.993672 
L 116.744875 84.945898 
" clip-path="url(#p38abda7bbc)" style="fill: none; stroke: #000000; stroke-width: 1.2"/>
    <path d="M 92.588957 62.993672 
L 89.252398 85.849251 
" clip-path="url(#p38abda7bbc)" style="fill: none; stroke: #000000; stroke-width: 1.2"/>
    <path d="M 92.588957 62.993672 
L 87.966564 111.718977 
" clip-path="url(#p38abda7bbc)" style="fill: none; stroke: #000000; stroke-width: 1.2"/>
    <path d="M 92.588957 62.993672 
L 111.641022 102.785498 
" clip-path="url(#p38abda7bbc)" style="fill: none; stroke: #000000; stroke-width: 1.2"/>
    <path d="M 58.30095 80.337114 
L 57.645374 115.168929 
" clip-path="url(#p38abda7bbc)" style="fill: none; stroke: #000000; stroke-width: 1.2"/>
    <path d="M 58.30095 80.337114 
L 84.690267 80.708834 
" clip-path="url(#p38abda7bbc)" style="fill: none; stroke: #000000; stroke-width: 1.2"/>
    <path d="M 58.30095 80.337114 
L 91.451509 104.401816 
" clip-path="url(#p38abda7bbc)" style="fill: none; stroke: #000000; stroke-width: 1.2"/>
    <path d="M 58.30095 80.337114 
L 57.971801 105.652449 
" clip-path="url(#p38abda7bbc)" style="fill: none; stroke: #000000; stroke-width: 1.2"/>
    <path d="M 58.30095 80.337114 
L 89.252398 85.849251 
" clip-path="url(#p38abda7bbc)" style="fill: none; stroke: #000000; stroke-width: 1.2"/>
    <path d="M 58.30095 80.337114 
L 72.058991 124.439463 
" clip-path="url(#p38abda7bbc)" style="fill: none; stroke: #000000; stroke-width: 1.2"/>
    <path d="M 57.645374 115.168929 
L 84.690267 80.708834 
" clip-path="url(#p38abda7bbc)" style="fill: none; stroke: #000000; stroke-width: 1.2"/>
    <path d="M 57.645374 115.168929 
L 91.451509 104.401816 
" clip-path="url(#p38abda7bbc)" style="fill: none; stroke: #000000; stroke-width: 1.2"/>
    <path d="M 57.645374 115.168929 
L 55.368595 88.527863 
" clip-path="url(#p38abda7bbc)" style="fill: none; stroke: #000000; stroke-width: 1.2"/>
    <path d="M 57.645374 115.168929 
L 87.966564 111.718977 
" clip-path="url(#p38abda7bbc)" style="fill: none; stroke: #000000; stroke-width: 1.2"/>
    <path d="M 57.645374 115.168929 
L 72.058991 124.439463 
" clip-path="url(#p38abda7bbc)" style="fill: none; stroke: #000000; stroke-width: 1.2"/>
    <path d="M 57.645374 115.168929 
L 104.169906 126.950869 
" clip-path="url(#p38abda7bbc)" style="fill: none; stroke: #000000; stroke-width: 1.2"/>
    <path d="M 57.645374 115.168929 
L 73.078446 132.265043 
" clip-path="url(#p38abda7bbc)" style="fill: none; stroke: #000000; stroke-width: 1.2"/>
    <path d="M 124.615464 81.442252 
L 84.690267 80.708834 
" clip-path="url(#p38abda7bbc)" style="fill: none; stroke: #000000; stroke-width: 1.2"/>
    <path d="M 124.615464 81.442252 
L 123.663149 101.619979 
" clip-path="url(#p38abda7bbc)" style="fill: none; stroke: #000000; stroke-width: 1.2"/>
    <path d="M 124.615464 81.442252 
L 91.451509 104.401816 
" clip-path="url(#p38abda7bbc)" style="fill: none; stroke: #000000; stroke-width: 1.2"/>
    <path d="M 124.615464 81.442252 
L 89.252398 85.849251 
" clip-path="url(#p38abda7bbc)" style="fill: none; stroke: #000000; stroke-width: 1.2"/>
    <path d="M 124.615464 81.442252 
L 121.159372 120.684935 
" clip-path="url(#p38abda7bbc)" style="fill: none; stroke: #000000; stroke-width: 1.2"/>
    <path d="M 124.615464 81.442252 
L 138.851795 113.232141 
" clip-path="url(#p38abda7bbc)" style="fill: none; stroke: #000000; stroke-width: 1.2"/>
    <path d="M 84.690267 80.708834 
L 123.663149 101.619979 
" clip-path="url(#p38abda7bbc)" style="fill: none; stroke: #000000; stroke-width: 1.2"/>
    <path d="M 84.690267 80.708834 
L 91.451509 104.401816 
" clip-path="url(#p38abda7bbc)" style="fill: none; stroke: #000000; stroke-width: 1.2"/>
    <path d="M 84.690267 80.708834 
L 55.368595 88.527863 
" clip-path="url(#p38abda7bbc)" style="fill: none; stroke: #000000; stroke-width: 1.2"/>
    <path d="M 84.690267 80.708834 
L 116.744875 84.945898 
" clip-path="url(#p38abda7bbc)" style="fill: none; stroke: #000000; stroke-width: 1.2"/>
    <path d="M 84.690267 80.708834 
L 87.966564 111.718977 
" clip-path="url(#p38abda7bbc)" style="fill: none; stroke: #000000; stroke-width: 1.2"/>
    <path d="M 84.690267 80.708834 
L 104.169906 126.950869 
" clip-path="url(#p38abda7bbc)" style="fill: none; stroke: #000000; stroke-width: 1.2"/>
    <path d="M 123.663149 101.619979 
L 91.451509 104.401816 
" clip-path="url(#p38abda7bbc)" style="fill: none; stroke: #000000; stroke-width: 1.2"/>
    <path d="M 123.663149 101.619979 
L 116.744875 84.945898 
" clip-path="url(#p38abda7bbc)" style="fill: none; stroke: #000000; stroke-width: 1.2"/>
    <path d="M 123.663149 101.619979 
L 87.966564 111.718977 
" clip-path="url(#p38abda7bbc)" style="fill: none; stroke: #000000; stroke-width: 1.2"/>
    <path d="M 123.663149 101.619979 
L 138.851795 113.232141 
" clip-path="url(#p38abda7bbc)" style="fill: none; stroke: #000000; stroke-width: 1.2"/>
    <path d="M 123.663149 101.619979 
L 104.169906 126.950869 
" clip-path="url(#p38abda7bbc)" style="fill: none; stroke: #000000; stroke-width: 1.2"/>
    <path d="M 123.663149 101.619979 
L 150.383344 93.888514 
" clip-path="url(#p38abda7bbc)" style="fill: none; stroke: #000000; stroke-width: 1.2"/>
    <path d="M 123.663149 101.619979 
L 134.952914 120.901709 
" clip-path="url(#p38abda7bbc)" style="fill: none; stroke: #000000; stroke-width: 1.2"/>
    <path d="M 91.451509 104.401816 
L 57.971801 105.652449 
" clip-path="url(#p38abda7bbc)" style="fill: none; stroke: #000000; stroke-width: 1.2"/>
    <path d="M 91.451509 104.401816 
L 89.252398 85.849251 
" clip-path="url(#p38abda7bbc)" style="fill: none; stroke: #000000; stroke-width: 1.2"/>
    <path d="M 91.451509 104.401816 
L 121.159372 120.684935 
" clip-path="url(#p38abda7bbc)" style="fill: none; stroke: #000000; stroke-width: 1.2"/>
    <path d="M 91.451509 104.401816 
L 72.058991 124.439463 
" clip-path="url(#p38abda7bbc)" style="fill: none; stroke: #000000; stroke-width: 1.2"/>
    <path d="M 91.451509 104.401816 
L 138.851795 113.232141 
" clip-path="url(#p38abda7bbc)" style="fill: none; stroke: #000000; stroke-width: 1.2"/>
    <path d="M 91.451509 104.401816 
L 104.169906 126.950869 
" clip-path="url(#p38abda7bbc)" style="fill: none; stroke: #000000; stroke-width: 1.2"/>
    <path d="M 91.451509 104.401816 
L 111.402862 93.083682 
" clip-path="url(#p38abda7bbc)" style="fill: none; stroke: #000000; stroke-width: 1.2"/>
    <path d="M 91.451509 104.401816 
L 101.077549 120.328102 
" clip-path="url(#p38abda7bbc)" style="fill: none; stroke: #000000; stroke-width: 1.2"/>
    <path d="M 55.368595 88.527863 
L 57.971801 105.652449 
" clip-path="url(#p38abda7bbc)" style="fill: none; stroke: #000000; stroke-width: 1.2"/>
    <path d="M 55.368595 88.527863 
L 89.252398 85.849251 
" clip-path="url(#p38abda7bbc)" style="fill: none; stroke: #000000; stroke-width: 1.2"/>
    <path d="M 55.368595 88.527863 
L 87.966564 111.718977 
" clip-path="url(#p38abda7bbc)" style="fill: none; stroke: #000000; stroke-width: 1.2"/>
    <path d="M 55.368595 88.527863 
L 73.078446 132.265043 
" clip-path="url(#p38abda7bbc)" style="fill: none; stroke: #000000; stroke-width: 1.2"/>
    <path d="M 57.971801 105.652449 
L 89.252398 85.849251 
" clip-path="url(#p38abda7bbc)" style="fill: none; stroke: #000000; stroke-width: 1.2"/>
    <path d="M 57.971801 105.652449 
L 87.966564 111.718977 
" clip-path="url(#p38abda7bbc)" style="fill: none; stroke: #000000; stroke-width: 1.2"/>
    <path d="M 57.971801 105.652449 
L 72.058991 124.439463 
" clip-path="url(#p38abda7bbc)" style="fill: none; stroke: #000000; stroke-width: 1.2"/>
    <path d="M 57.971801 105.652449 
L 73.078446 132.265043 
" clip-path="url(#p38abda7bbc)" style="fill: none; stroke: #000000; stroke-width: 1.2"/>
    <path d="M 57.971801 105.652449 
L 74.250802 96.006229 
" clip-path="url(#p38abda7bbc)" style="fill: none; stroke: #000000; stroke-width: 1.2"/>
    <path d="M 57.971801 105.652449 
L 101.077549 120.328102 
" clip-path="url(#p38abda7bbc)" style="fill: none; stroke: #000000; stroke-width: 1.2"/>
    <path d="M 116.744875 84.945898 
L 89.252398 85.849251 
" clip-path="url(#p38abda7bbc)" style="fill: none; stroke: #000000; stroke-width: 1.2"/>
    <path d="M 116.744875 84.945898 
L 121.159372 120.684935 
" clip-path="url(#p38abda7bbc)" style="fill: none; stroke: #000000; stroke-width: 1.2"/>
    <path d="M 116.744875 84.945898 
L 87.966564 111.718977 
" clip-path="url(#p38abda7bbc)" style="fill: none; stroke: #000000; stroke-width: 1.2"/>
    <path d="M 116.744875 84.945898 
L 134.952914 120.901709 
" clip-path="url(#p38abda7bbc)" style="fill: none; stroke: #000000; stroke-width: 1.2"/>
    <path d="M 89.252398 85.849251 
L 121.159372 120.684935 
" clip-path="url(#p38abda7bbc)" style="fill: none; stroke: #000000; stroke-width: 1.2"/>
    <path d="M 89.252398 85.849251 
L 87.966564 111.718977 
" clip-path="url(#p38abda7bbc)" style="fill: none; stroke: #000000; stroke-width: 1.2"/>
    <path d="M 89.252398 85.849251 
L 101.077549 120.328102 
" clip-path="url(#p38abda7bbc)" style="fill: none; stroke: #000000; stroke-width: 1.2"/>
    <path d="M 121.159372 120.684935 
L 87.966564 111.718977 
" clip-path="url(#p38abda7bbc)" style="fill: none; stroke: #000000; stroke-width: 1.2"/>
    <path d="M 121.159372 120.684935 
L 138.851795 113.232141 
" clip-path="url(#p38abda7bbc)" style="fill: none; stroke: #000000; stroke-width: 1.2"/>
    <path d="M 121.159372 120.684935 
L 134.952914 120.901709 
" clip-path="url(#p38abda7bbc)" style="fill: none; stroke: #000000; stroke-width: 1.2"/>
    <path d="M 121.159372 120.684935 
L 101.077549 120.328102 
" clip-path="url(#p38abda7bbc)" style="fill: none; stroke: #000000; stroke-width: 1.2"/>
    <path d="M 121.159372 120.684935 
L 142.961268 96.367989 
" clip-path="url(#p38abda7bbc)" style="fill: none; stroke: #000000; stroke-width: 1.2"/>
    <path d="M 121.159372 120.684935 
L 143.055037 157.007796 
" clip-path="url(#p38abda7bbc)" style="fill: none; stroke: #000000; stroke-width: 1.2"/>
    <path d="M 87.966564 111.718977 
L 104.169906 126.950869 
" clip-path="url(#p38abda7bbc)" style="fill: none; stroke: #000000; stroke-width: 1.2"/>
    <path d="M 87.966564 111.718977 
L 73.078446 132.265043 
" clip-path="url(#p38abda7bbc)" style="fill: none; stroke: #000000; stroke-width: 1.2"/>
    <path d="M 87.966564 111.718977 
L 134.952914 120.901709 
" clip-path="url(#p38abda7bbc)" style="fill: none; stroke: #000000; stroke-width: 1.2"/>
    <path d="M 87.966564 111.718977 
L 101.077549 120.328102 
" clip-path="url(#p38abda7bbc)" style="fill: none; stroke: #000000; stroke-width: 1.2"/>
    <path d="M 87.966564 111.718977 
L 111.641022 102.785498 
" clip-path="url(#p38abda7bbc)" style="fill: none; stroke: #000000; stroke-width: 1.2"/>
    <path d="M 72.058991 124.439463 
L 104.169906 126.950869 
" clip-path="url(#p38abda7bbc)" style="fill: none; stroke: #000000; stroke-width: 1.2"/>
    <path d="M 72.058991 124.439463 
L 111.402862 93.083682 
" clip-path="url(#p38abda7bbc)" style="fill: none; stroke: #000000; stroke-width: 1.2"/>
    <path d="M 72.058991 124.439463 
L 74.250802 96.006229 
" clip-path="url(#p38abda7bbc)" style="fill: none; stroke: #000000; stroke-width: 1.2"/>
    <path d="M 72.058991 124.439463 
L 101.077549 120.328102 
" clip-path="url(#p38abda7bbc)" style="fill: none; stroke: #000000; stroke-width: 1.2"/>
    <path d="M 138.851795 113.232141 
L 104.169906 126.950869 
" clip-path="url(#p38abda7bbc)" style="fill: none; stroke: #000000; stroke-width: 1.2"/>
    <path d="M 138.851795 113.232141 
L 150.383344 93.888514 
" clip-path="url(#p38abda7bbc)" style="fill: none; stroke: #000000; stroke-width: 1.2"/>
    <path d="M 138.851795 113.232141 
L 111.402862 93.083682 
" clip-path="url(#p38abda7bbc)" style="fill: none; stroke: #000000; stroke-width: 1.2"/>
    <path d="M 138.851795 113.232141 
L 101.077549 120.328102 
" clip-path="url(#p38abda7bbc)" style="fill: none; stroke: #000000; stroke-width: 1.2"/>
    <path d="M 138.851795 113.232141 
L 142.961268 96.367989 
" clip-path="url(#p38abda7bbc)" style="fill: none; stroke: #000000; stroke-width: 1.2"/>
    <path d="M 104.169906 126.950869 
L 150.383344 93.888514 
" clip-path="url(#p38abda7bbc)" style="fill: none; stroke: #000000; stroke-width: 1.2"/>
    <path d="M 104.169906 126.950869 
L 111.402862 93.083682 
" clip-path="url(#p38abda7bbc)" style="fill: none; stroke: #000000; stroke-width: 1.2"/>
    <path d="M 104.169906 126.950869 
L 73.078446 132.265043 
" clip-path="url(#p38abda7bbc)" style="fill: none; stroke: #000000; stroke-width: 1.2"/>
    <path d="M 104.169906 126.950869 
L 134.952914 120.901709 
" clip-path="url(#p38abda7bbc)" style="fill: none; stroke: #000000; stroke-width: 1.2"/>
    <path d="M 104.169906 126.950869 
L 111.641022 102.785498 
" clip-path="url(#p38abda7bbc)" style="fill: none; stroke: #000000; stroke-width: 1.2"/>
    <path d="M 150.383344 93.888514 
L 111.402862 93.083682 
" clip-path="url(#p38abda7bbc)" style="fill: none; stroke: #000000; stroke-width: 1.2"/>
    <path d="M 150.383344 93.888514 
L 134.952914 120.901709 
" clip-path="url(#p38abda7bbc)" style="fill: none; stroke: #000000; stroke-width: 1.2"/>
    <path d="M 150.383344 93.888514 
L 111.641022 102.785498 
" clip-path="url(#p38abda7bbc)" style="fill: none; stroke: #000000; stroke-width: 1.2"/>
    <path d="M 111.402862 93.083682 
L 74.250802 96.006229 
" clip-path="url(#p38abda7bbc)" style="fill: none; stroke: #000000; stroke-width: 1.2"/>
    <path d="M 111.402862 93.083682 
L 101.077549 120.328102 
" clip-path="url(#p38abda7bbc)" style="fill: none; stroke: #000000; stroke-width: 1.2"/>
    <path d="M 111.402862 93.083682 
L 142.961268 96.367989 
" clip-path="url(#p38abda7bbc)" style="fill: none; stroke: #000000; stroke-width: 1.2"/>
    <path d="M 73.078446 132.265043 
L 74.250802 96.006229 
" clip-path="url(#p38abda7bbc)" style="fill: none; stroke: #000000; stroke-width: 1.2"/>
    <path d="M 73.078446 132.265043 
L 101.077549 120.328102 
" clip-path="url(#p38abda7bbc)" style="fill: none; stroke: #000000; stroke-width: 1.2"/>
    <path d="M 73.078446 132.265043 
L 111.641022 102.785498 
" clip-path="url(#p38abda7bbc)" style="fill: none; stroke: #000000; stroke-width: 1.2"/>
    <path d="M 74.250802 96.006229 
L 101.077549 120.328102 
" clip-path="url(#p38abda7bbc)" style="fill: none; stroke: #000000; stroke-width: 1.2"/>
    <path d="M 74.250802 96.006229 
L 111.641022 102.785498 
" clip-path="url(#p38abda7bbc)" style="fill: none; stroke: #000000; stroke-width: 1.2"/>
    <path d="M 134.952914 120.901709 
L 101.077549 120.328102 
" clip-path="url(#p38abda7bbc)" style="fill: none; stroke: #000000; stroke-width: 1.2"/>
    <path d="M 134.952914 120.901709 
L 142.961268 96.367989 
" clip-path="url(#p38abda7bbc)" style="fill: none; stroke: #000000; stroke-width: 1.2"/>
    <path d="M 134.952914 120.901709 
L 111.641022 102.785498 
" clip-path="url(#p38abda7bbc)" style="fill: none; stroke: #000000; stroke-width: 1.2"/>
    <path d="M 101.077549 120.328102 
L 142.961268 96.367989 
" clip-path="url(#p38abda7bbc)" style="fill: none; stroke: #000000; stroke-width: 1.2"/>
    <path d="M 101.077549 120.328102 
L 111.641022 102.785498 
" clip-path="url(#p38abda7bbc)" style="fill: none; stroke: #000000; stroke-width: 1.2"/>
    <path d="M 142.961268 96.367989 
L 111.641022 102.785498 
" clip-path="url(#p38abda7bbc)" style="fill: none; stroke: #000000; stroke-width: 1.2"/>
    <path d="M 133.796398 221.789159 
L 161.028827 189.041968 
" clip-path="url(#p38abda7bbc)" style="fill: none; stroke: #000000; stroke-width: 1.2"/>
    <path d="M 156.872125 221.418946 
L 161.028827 189.041968 
" clip-path="url(#p38abda7bbc)" style="fill: none; stroke: #000000; stroke-width: 1.2"/>
    <path d="M 143.055037 157.007796 
L 161.028827 189.041968 
" clip-path="url(#p38abda7bbc)" style="fill: none; stroke: #000000; stroke-width: 1.2"/>
    <path d="M 203.626995 237.076364 
L 201.015265 199.336718 
" clip-path="url(#p38abda7bbc)" style="fill: none; stroke: #000000; stroke-width: 1.2"/>
    <path d="M 230.853612 216.843589 
L 201.015265 199.336718 
" clip-path="url(#p38abda7bbc)" style="fill: none; stroke: #000000; stroke-width: 1.2"/>
    <path d="M 239.831405 188.948226 
L 201.015265 199.336718 
" clip-path="url(#p38abda7bbc)" style="fill: none; stroke: #000000; stroke-width: 1.2"/>
    <path d="M 161.028827 189.041968 
L 201.015265 199.336718 
" clip-path="url(#p38abda7bbc)" style="fill: none; stroke: #000000; stroke-width: 1.2"/>
   </g>
   <g id="PathCollection_1">
    <defs>
     <path id="C0_0_a3fe480506" d="M 0 8.944272 
C 2.372049 8.944272 4.647264 8.001847 6.324555 6.324555 
C 8.001847 4.647264 8.944272 2.372049 8.944272 -0 
C 8.944272 -2.372049 8.001847 -4.647264 6.324555 -6.324555 
C 4.647264 -8.001847 2.372049 -8.944272 0 -8.944272 
C -2.372049 -8.944272 -4.647264 -8.001847 -6.324555 -6.324555 
C -8.001847 -4.647264 -8.944272 -2.372049 -8.944272 0 
C -8.944272 2.372049 -8.001847 4.647264 -6.324555 6.324555 
C -4.647264 8.001847 -2.372049 8.944272 0 8.944272 
z
"/>
    </defs>
    <g clip-path="url(#p38abda7bbc)">
     <use xlink:href="#C0_0_a3fe480506" x="144.019463" y="64.800914" style="fill: #e06633; stroke: #e06633; stroke-width: 0.5"/>
    </g>
    <g clip-path="url(#p38abda7bbc)">
     <use xlink:href="#C0_0_a3fe480506" x="123.109251" y="53.803636" style="fill: #e06633; stroke: #e06633; stroke-width: 0.5"/>
    </g>
    <g clip-path="url(#p38abda7bbc)">
     <use xlink:href="#C0_0_a3fe480506" x="96.723777" y="56.252001" style="fill: #e06633; stroke: #e06633; stroke-width: 0.5"/>
    </g>
    <g clip-path="url(#p38abda7bbc)">
     <use xlink:href="#C0_0_a3fe480506" x="66.702024" y="61.918439" style="fill: #e06633; stroke: #e06633; stroke-width: 0.5"/>
    </g>
    <g clip-path="url(#p38abda7bbc)">
     <use xlink:href="#C0_0_a3fe480506" x="143.176562" y="73.404755" style="fill: #e06633; stroke: #e06633; stroke-width: 0.5"/>
    </g>
    <g clip-path="url(#p38abda7bbc)">
     <use xlink:href="#C0_0_a3fe480506" x="107.988741" y="70.229899" style="fill: #e06633; stroke: #e06633; stroke-width: 0.5"/>
    </g>
    <g clip-path="url(#p38abda7bbc)">
     <use xlink:href="#C0_0_a3fe480506" x="126.147203" y="63.912929" style="fill: #e06633; stroke: #e06633; stroke-width: 0.5"/>
    </g>
    <g clip-path="url(#p38abda7bbc)">
     <use xlink:href="#C0_0_a3fe480506" x="92.588957" y="62.993672" style="fill: #e06633; stroke: #e06633; stroke-width: 0.5"/>
    </g>
    <g clip-path="url(#p38abda7bbc)">
     <use xlink:href="#C0_0_a3fe480506" x="58.30095" y="80.337114" style="fill: #e06633; stroke: #e06633; stroke-width: 0.5"/>
    </g>
    <g clip-path="url(#p38abda7bbc)">
     <use xlink:href="#C0_0_a3fe480506" x="57.645374" y="115.168929" style="fill: #e06633; stroke: #e06633; stroke-width: 0.5"/>
    </g>
    <g clip-path="url(#p38abda7bbc)">
     <use xlink:href="#C0_0_a3fe480506" x="124.615464" y="81.442252" style="fill: #e06633; stroke: #e06633; stroke-width: 0.5"/>
    </g>
    <g clip-path="url(#p38abda7bbc)">
     <use xlink:href="#C0_0_a3fe480506" x="84.690267" y="80.708834" style="fill: #e06633; stroke: #e06633; stroke-width: 0.5"/>
    </g>
    <g clip-path="url(#p38abda7bbc)">
     <use xlink:href="#C0_0_a3fe480506" x="123.663149" y="101.619979" style="fill: #e06633; stroke: #e06633; stroke-width: 0.5"/>
    </g>
    <g clip-path="url(#p38abda7bbc)">
     <use xlink:href="#C0_0_a3fe480506" x="91.451509" y="104.401816" style="fill: #e06633; stroke: #e06633; stroke-width: 0.5"/>
    </g>
    <g clip-path="url(#p38abda7bbc)">
     <use xlink:href="#C0_0_a3fe480506" x="55.368595" y="88.527863" style="fill: #e06633; stroke: #e06633; stroke-width: 0.5"/>
    </g>
    <g clip-path="url(#p38abda7bbc)">
     <use xlink:href="#C0_0_a3fe480506" x="57.971801" y="105.652449" style="fill: #e06633; stroke: #e06633; stroke-width: 0.5"/>
    </g>
    <g clip-path="url(#p38abda7bbc)">
     <use xlink:href="#C0_0_a3fe480506" x="116.744875" y="84.945898" style="fill: #e06633; stroke: #e06633; stroke-width: 0.5"/>
    </g>
    <g clip-path="url(#p38abda7bbc)">
     <use xlink:href="#C0_0_a3fe480506" x="89.252398" y="85.849251" style="fill: #e06633; stroke: #e06633; stroke-width: 0.5"/>
    </g>
    <g clip-path="url(#p38abda7bbc)">
     <use xlink:href="#C0_0_a3fe480506" x="121.159372" y="120.684935" style="fill: #e06633; stroke: #e06633; stroke-width: 0.5"/>
    </g>
    <g clip-path="url(#p38abda7bbc)">
     <use xlink:href="#C0_0_a3fe480506" x="87.966564" y="111.718977" style="fill: #e06633; stroke: #e06633; stroke-width: 0.5"/>
    </g>
    <g clip-path="url(#p38abda7bbc)">
     <use xlink:href="#C0_0_a3fe480506" x="72.058991" y="124.439463" style="fill: #e06633; stroke: #e06633; stroke-width: 0.5"/>
    </g>
    <g clip-path="url(#p38abda7bbc)">
     <use xlink:href="#C0_0_a3fe480506" x="138.851795" y="113.232141" style="fill: #e06633; stroke: #e06633; stroke-width: 0.5"/>
    </g>
    <g clip-path="url(#p38abda7bbc)">
     <use xlink:href="#C0_0_a3fe480506" x="104.169906" y="126.950869" style="fill: #e06633; stroke: #e06633; stroke-width: 0.5"/>
    </g>
    <g clip-path="url(#p38abda7bbc)">
     <use xlink:href="#C0_0_a3fe480506" x="150.383344" y="93.888514" style="fill: #e06633; stroke: #e06633; stroke-width: 0.5"/>
    </g>
    <g clip-path="url(#p38abda7bbc)">
     <use xlink:href="#C0_0_a3fe480506" x="111.402862" y="93.083682" style="fill: #e06633; stroke: #e06633; stroke-width: 0.5"/>
    </g>
    <g clip-path="url(#p38abda7bbc)">
     <use xlink:href="#C0_0_a3fe480506" x="73.078446" y="132.265043" style="fill: #e06633; stroke: #e06633; stroke-width: 0.5"/>
    </g>
    <g clip-path="url(#p38abda7bbc)">
     <use xlink:href="#C0_0_a3fe480506" x="74.250802" y="96.006229" style="fill: #e06633; stroke: #e06633; stroke-width: 0.5"/>
    </g>
    <g clip-path="url(#p38abda7bbc)">
     <use xlink:href="#C0_0_a3fe480506" x="134.952914" y="120.901709" style="fill: #e06633; stroke: #e06633; stroke-width: 0.5"/>
    </g>
    <g clip-path="url(#p38abda7bbc)">
     <use xlink:href="#C0_0_a3fe480506" x="101.077549" y="120.328102" style="fill: #e06633; stroke: #e06633; stroke-width: 0.5"/>
    </g>
    <g clip-path="url(#p38abda7bbc)">
     <use xlink:href="#C0_0_a3fe480506" x="142.961268" y="96.367989" style="fill: #e06633; stroke: #e06633; stroke-width: 0.5"/>
    </g>
    <g clip-path="url(#p38abda7bbc)">
     <use xlink:href="#C0_0_a3fe480506" x="111.641022" y="102.785498" style="fill: #e06633; stroke: #e06633; stroke-width: 0.5"/>
    </g>
    <g clip-path="url(#p38abda7bbc)">
     <use xlink:href="#C0_0_a3fe480506" x="133.796398" y="221.789159" style="fill: #bfbfbf; stroke: #bfbfbf; stroke-width: 0.5"/>
    </g>
    <g clip-path="url(#p38abda7bbc)">
     <use xlink:href="#C0_0_a3fe480506" x="156.872125" y="221.418946" style="fill: #bfbfbf; stroke: #bfbfbf; stroke-width: 0.5"/>
    </g>
    <g clip-path="url(#p38abda7bbc)">
     <use xlink:href="#C0_0_a3fe480506" x="143.055037" y="157.007796" style="fill: #bfbfbf; stroke: #bfbfbf; stroke-width: 0.5"/>
    </g>
    <g clip-path="url(#p38abda7bbc)">
     <use xlink:href="#C0_0_a3fe480506" x="203.626995" y="237.076364" style="fill: #bfbfbf; stroke: #bfbfbf; stroke-width: 0.5"/>
    </g>
    <g clip-path="url(#p38abda7bbc)">
     <use xlink:href="#C0_0_a3fe480506" x="230.853612" y="216.843589" style="fill: #bfbfbf; stroke: #bfbfbf; stroke-width: 0.5"/>
    </g>
    <g clip-path="url(#p38abda7bbc)">
     <use xlink:href="#C0_0_a3fe480506" x="239.831405" y="188.948226" style="fill: #bfbfbf; stroke: #bfbfbf; stroke-width: 0.5"/>
    </g>
    <g clip-path="url(#p38abda7bbc)">
     <use xlink:href="#C0_0_a3fe480506" x="161.028827" y="189.041968" style="fill: #666666; stroke: #666666; stroke-width: 0.5"/>
    </g>
    <g clip-path="url(#p38abda7bbc)">
     <use xlink:href="#C0_0_a3fe480506" x="201.015265" y="199.336718" style="fill: #666666; stroke: #666666; stroke-width: 0.5"/>
    </g>
   </g>
   <g id="text_1">
    <!-- C2H6Fe48 -->
    <g transform="translate(123.145828 -4.357195) scale(0.1 -0.1)">
     <defs>
      <path id="DejaVuSans-43" d="M 4122 4306 
L 4122 3641 
Q 3803 3938 3442 4084 
Q 3081 4231 2675 4231 
Q 1875 4231 1450 3742 
Q 1025 3253 1025 2328 
Q 1025 1406 1450 917 
Q 1875 428 2675 428 
Q 3081 428 3442 575 
Q 3803 722 4122 1019 
L 4122 359 
Q 3791 134 3420 21 
Q 3050 -91 2638 -91 
Q 1578 -91 968 557 
Q 359 1206 359 2328 
Q 359 3453 968 4101 
Q 1578 4750 2638 4750 
Q 3056 4750 3426 4639 
Q 3797 4528 4122 4306 
z
" transform="scale(0.015625)"/>
      <path id="DejaVuSans-32" d="M 1228 531 
L 3431 531 
L 3431 0 
L 469 0 
L 469 531 
Q 828 903 1448 1529 
Q 2069 2156 2228 2338 
Q 2531 2678 2651 2914 
Q 2772 3150 2772 3378 
Q 2772 3750 2511 3984 
Q 2250 4219 1831 4219 
Q 1534 4219 1204 4116 
Q 875 4013 500 3803 
L 500 4441 
Q 881 4594 1212 4672 
Q 1544 4750 1819 4750 
Q 2544 4750 2975 4387 
Q 3406 4025 3406 3419 
Q 3406 3131 3298 2873 
Q 3191 2616 2906 2266 
Q 2828 2175 2409 1742 
Q 1991 1309 1228 531 
z
" transform="scale(0.015625)"/>
      <path id="DejaVuSans-48" d="M 628 4666 
L 1259 4666 
L 1259 2753 
L 3553 2753 
L 3553 4666 
L 4184 4666 
L 4184 0 
L 3553 0 
L 3553 2222 
L 1259 2222 
L 1259 0 
L 628 0 
L 628 4666 
z
" transform="scale(0.015625)"/>
      <path id="DejaVuSans-36" d="M 2113 2584 
Q 1688 2584 1439 2293 
Q 1191 2003 1191 1497 
Q 1191 994 1439 701 
Q 1688 409 2113 409 
Q 2538 409 2786 701 
Q 3034 994 3034 1497 
Q 3034 2003 2786 2293 
Q 2538 2584 2113 2584 
z
M 3366 4563 
L 3366 3988 
Q 3128 4100 2886 4159 
Q 2644 4219 2406 4219 
Q 1781 4219 1451 3797 
Q 1122 3375 1075 2522 
Q 1259 2794 1537 2939 
Q 1816 3084 2150 3084 
Q 2853 3084 3261 2657 
Q 3669 2231 3669 1497 
Q 3669 778 3244 343 
Q 2819 -91 2113 -91 
Q 1303 -91 875 529 
Q 447 1150 447 2328 
Q 447 3434 972 4092 
Q 1497 4750 2381 4750 
Q 2619 4750 2861 4703 
Q 3103 4656 3366 4563 
z
" transform="scale(0.015625)"/>
      <path id="DejaVuSans-46" d="M 628 4666 
L 3309 4666 
L 3309 4134 
L 1259 4134 
L 1259 2759 
L 3109 2759 
L 3109 2228 
L 1259 2228 
L 1259 0 
L 628 0 
L 628 4666 
z
" transform="scale(0.015625)"/>
      <path id="DejaVuSans-65" d="M 3597 1894 
L 3597 1613 
L 953 1613 
Q 991 1019 1311 708 
Q 1631 397 2203 397 
Q 2534 397 2845 478 
Q 3156 559 3463 722 
L 3463 178 
Q 3153 47 2828 -22 
Q 2503 -91 2169 -91 
Q 1331 -91 842 396 
Q 353 884 353 1716 
Q 353 2575 817 3079 
Q 1281 3584 2069 3584 
Q 2775 3584 3186 3129 
Q 3597 2675 3597 1894 
z
M 3022 2063 
Q 3016 2534 2758 2815 
Q 2500 3097 2075 3097 
Q 1594 3097 1305 2825 
Q 1016 2553 972 2059 
L 3022 2063 
z
" transform="scale(0.015625)"/>
      <path id="DejaVuSans-34" d="M 2419 4116 
L 825 1625 
L 2419 1625 
L 2419 4116 
z
M 2253 4666 
L 3047 4666 
L 3047 1625 
L 3713 1625 
L 3713 1100 
L 3047 1100 
L 3047 0 
L 2419 0 
L 2419 1100 
L 313 1100 
L 313 1709 
L 2253 4666 
z
" transform="scale(0.015625)"/>
      <path id="DejaVuSans-38" d="M 2034 2216 
Q 1584 2216 1326 1975 
Q 1069 1734 1069 1313 
Q 1069 891 1326 650 
Q 1584 409 2034 409 
Q 2484 409 2743 651 
Q 3003 894 3003 1313 
Q 3003 1734 2745 1975 
Q 2488 2216 2034 2216 
z
M 1403 2484 
Q 997 2584 770 2862 
Q 544 3141 544 3541 
Q 544 4100 942 4425 
Q 1341 4750 2034 4750 
Q 2731 4750 3128 4425 
Q 3525 4100 3525 3541 
Q 3525 3141 3298 2862 
Q 3072 2584 2669 2484 
Q 3125 2378 3379 2068 
Q 3634 1759 3634 1313 
Q 3634 634 3220 271 
Q 2806 -91 2034 -91 
Q 1263 -91 848 271 
Q 434 634 434 1313 
Q 434 1759 690 2068 
Q 947 2378 1403 2484 
z
M 1172 3481 
Q 1172 3119 1398 2916 
Q 1625 2713 2034 2713 
Q 2441 2713 2670 2916 
Q 2900 3119 2900 3481 
Q 2900 3844 2670 4047 
Q 2441 4250 2034 4250 
Q 1625 4250 1398 4047 
Q 1172 3844 1172 3481 
z
" transform="scale(0.015625)"/>
     </defs>
     <use xlink:href="#DejaVuSans-43"/>
     <use xlink:href="#DejaVuSans-32" transform="translate(69.824219 0)"/>
     <use xlink:href="#DejaVuSans-48" transform="translate(133.447266 0)"/>
     <use xlink:href="#DejaVuSans-36" transform="translate(208.642578 0)"/>
     <use xlink:href="#DejaVuSans-46" transform="translate(272.265625 0)"/>
     <use xlink:href="#DejaVuSans-65" transform="translate(324.285156 0)"/>
     <use xlink:href="#DejaVuSans-34" transform="translate(385.808594 0)"/>
     <use xlink:href="#DejaVuSans-38" transform="translate(449.431641 0)"/>
    </g>
    <!-- Error: -7.16 eV -->
    <g transform="translate(123.145828 6.840617) scale(0.1 -0.1)">
     <defs>
      <path id="DejaVuSans-45" d="M 628 4666 
L 3578 4666 
L 3578 4134 
L 1259 4134 
L 1259 2753 
L 3481 2753 
L 3481 2222 
L 1259 2222 
L 1259 531 
L 3634 531 
L 3634 0 
L 628 0 
L 628 4666 
z
" transform="scale(0.015625)"/>
      <path id="DejaVuSans-72" d="M 2631 2963 
Q 2534 3019 2420 3045 
Q 2306 3072 2169 3072 
Q 1681 3072 1420 2755 
Q 1159 2438 1159 1844 
L 1159 0 
L 581 0 
L 581 3500 
L 1159 3500 
L 1159 2956 
Q 1341 3275 1631 3429 
Q 1922 3584 2338 3584 
Q 2397 3584 2469 3576 
Q 2541 3569 2628 3553 
L 2631 2963 
z
" transform="scale(0.015625)"/>
      <path id="DejaVuSans-6f" d="M 1959 3097 
Q 1497 3097 1228 2736 
Q 959 2375 959 1747 
Q 959 1119 1226 758 
Q 1494 397 1959 397 
Q 2419 397 2687 759 
Q 2956 1122 2956 1747 
Q 2956 2369 2687 2733 
Q 2419 3097 1959 3097 
z
M 1959 3584 
Q 2709 3584 3137 3096 
Q 3566 2609 3566 1747 
Q 3566 888 3137 398 
Q 2709 -91 1959 -91 
Q 1206 -91 779 398 
Q 353 888 353 1747 
Q 353 2609 779 3096 
Q 1206 3584 1959 3584 
z
" transform="scale(0.015625)"/>
      <path id="DejaVuSans-3a" d="M 750 794 
L 1409 794 
L 1409 0 
L 750 0 
L 750 794 
z
M 750 3309 
L 1409 3309 
L 1409 2516 
L 750 2516 
L 750 3309 
z
" transform="scale(0.015625)"/>
      <path id="DejaVuSans-20" transform="scale(0.015625)"/>
      <path id="DejaVuSans-2d" d="M 313 2009 
L 1997 2009 
L 1997 1497 
L 313 1497 
L 313 2009 
z
" transform="scale(0.015625)"/>
      <path id="DejaVuSans-37" d="M 525 4666 
L 3525 4666 
L 3525 4397 
L 1831 0 
L 1172 0 
L 2766 4134 
L 525 4134 
L 525 4666 
z
" transform="scale(0.015625)"/>
      <path id="DejaVuSans-2e" d="M 684 794 
L 1344 794 
L 1344 0 
L 684 0 
L 684 794 
z
" transform="scale(0.015625)"/>
      <path id="DejaVuSans-31" d="M 794 531 
L 1825 531 
L 1825 4091 
L 703 3866 
L 703 4441 
L 1819 4666 
L 2450 4666 
L 2450 531 
L 3481 531 
L 3481 0 
L 794 0 
L 794 531 
z
" transform="scale(0.015625)"/>
      <path id="DejaVuSans-56" d="M 1831 0 
L 50 4666 
L 709 4666 
L 2188 738 
L 3669 4666 
L 4325 4666 
L 2547 0 
L 1831 0 
z
" transform="scale(0.015625)"/>
     </defs>
     <use xlink:href="#DejaVuSans-45"/>
     <use xlink:href="#DejaVuSans-72" transform="translate(63.183594 0)"/>
     <use xlink:href="#DejaVuSans-72" transform="translate(102.546875 0)"/>
     <use xlink:href="#DejaVuSans-6f" transform="translate(141.410156 0)"/>
     <use xlink:href="#DejaVuSans-72" transform="translate(202.591797 0)"/>
     <use xlink:href="#DejaVuSans-3a" transform="translate(241.955078 0)"/>
     <use xlink:href="#DejaVuSans-20" transform="translate(275.646484 0)"/>
     <use xlink:href="#DejaVuSans-2d" transform="translate(307.433594 0)"/>
     <use xlink:href="#DejaVuSans-37" transform="translate(343.517578 0)"/>
     <use xlink:href="#DejaVuSans-2e" transform="translate(407.140625 0)"/>
     <use xlink:href="#DejaVuSans-31" transform="translate(438.927734 0)"/>
     <use xlink:href="#DejaVuSans-36" transform="translate(502.550781 0)"/>
     <use xlink:href="#DejaVuSans-20" transform="translate(566.173828 0)"/>
     <use xlink:href="#DejaVuSans-65" transform="translate(597.960938 0)"/>
     <use xlink:href="#DejaVuSans-56" transform="translate(659.484375 0)"/>
    </g>
   </g>
  </g>
 </g>
 <defs>
  <clipPath id="p38abda7bbc">
   <rect x="36" y="34.56" width="223.2" height="221.76"/>
  </clipPath>
 </defs>
</svg>
