<?xml version="1.0" encoding="utf-8" standalone="no"?>
<!DOCTYPE svg PUBLIC "-//W3C//DTD SVG 1.1//EN"
  "http://www.w3.org/Graphics/SVG/1.1/DTD/svg11.dtd">
<svg xmlns:xlink="http://www.w3.org/1999/xlink" width="288pt" height="288pt" viewBox="0 0 288 288" xmlns="http://www.w3.org/2000/svg" version="1.1">
 <metadata>
  <rdf:RDF xmlns:dc="http://purl.org/dc/elements/1.1/" xmlns:cc="http://creativecommons.org/ns#" xmlns:rdf="http://www.w3.org/1999/02/22-rdf-syntax-ns#">
   <cc:Work>
    <dc:type rdf:resource="http://purl.org/dc/dcmitype/StillImage"/>
    <dc:date>2025-06-30T12:07:51.388459</dc:date>
    <dc:format>image/svg+xml</dc:format>
    <dc:creator>
     <cc:Agent>
      <dc:title>Matplotlib v3.10.1, https://matplotlib.org/</dc:title>
     </cc:Agent>
    </dc:creator>
   </cc:Work>
  </rdf:RDF>
 </metadata>
 <defs>
  <style type="text/css">*{stroke-linejoin: round; stroke-linecap: butt}</style>
 </defs>
 <g id="figure_1">
  <g id="patch_1">
   <path d="M 0 288 
L 288 288 
L 288 0 
L 0 0 
z
" style="fill: #ffffff"/>
  </g>
  <g id="axes_1">
   <g id="LineCollection_1">
    <path d="M 174.51873 72.269323 
L 178.948661 88.169338 
" clip-path="url(#p5f3b80ce56)" style="fill: none; stroke: #000000; stroke-width: 1.2"/>
    <path d="M 174.51873 72.269323 
L 130.366958 54.287091 
" clip-path="url(#p5f3b80ce56)" style="fill: none; stroke: #000000; stroke-width: 1.2"/>
    <path d="M 174.51873 72.269323 
L 151.900552 56.452515 
" clip-path="url(#p5f3b80ce56)" style="fill: none; stroke: #000000; stroke-width: 1.2"/>
    <path d="M 174.51873 72.269323 
L 158.818559 69.539551 
" clip-path="url(#p5f3b80ce56)" style="fill: none; stroke: #000000; stroke-width: 1.2"/>
    <path d="M 174.51873 72.269323 
L 110.787104 88.270641 
" clip-path="url(#p5f3b80ce56)" style="fill: none; stroke: #000000; stroke-width: 1.2"/>
    <path d="M 174.51873 72.269323 
L 156.914226 102.049337 
" clip-path="url(#p5f3b80ce56)" style="fill: none; stroke: #000000; stroke-width: 1.2"/>
    <path d="M 174.51873 72.269323 
L 146.932642 86.99735 
" clip-path="url(#p5f3b80ce56)" style="fill: none; stroke: #000000; stroke-width: 1.2"/>
    <path d="M 178.948661 88.169338 
L 158.818559 69.539551 
" clip-path="url(#p5f3b80ce56)" style="fill: none; stroke: #000000; stroke-width: 1.2"/>
    <path d="M 178.948661 88.169338 
L 121.853187 82.713254 
" clip-path="url(#p5f3b80ce56)" style="fill: none; stroke: #000000; stroke-width: 1.2"/>
    <path d="M 178.948661 88.169338 
L 127.195437 103.312191 
" clip-path="url(#p5f3b80ce56)" style="fill: none; stroke: #000000; stroke-width: 1.2"/>
    <path d="M 178.948661 88.169338 
L 156.914226 102.049337 
" clip-path="url(#p5f3b80ce56)" style="fill: none; stroke: #000000; stroke-width: 1.2"/>
    <path d="M 130.366958 54.287091 
L 151.900552 56.452515 
" clip-path="url(#p5f3b80ce56)" style="fill: none; stroke: #000000; stroke-width: 1.2"/>
    <path d="M 130.366958 54.287091 
L 92.977345 70.582095 
" clip-path="url(#p5f3b80ce56)" style="fill: none; stroke: #000000; stroke-width: 1.2"/>
    <path d="M 130.366958 54.287091 
L 93.219464 83.295139 
" clip-path="url(#p5f3b80ce56)" style="fill: none; stroke: #000000; stroke-width: 1.2"/>
    <path d="M 130.366958 54.287091 
L 146.932642 86.99735 
" clip-path="url(#p5f3b80ce56)" style="fill: none; stroke: #000000; stroke-width: 1.2"/>
    <path d="M 151.900552 56.452515 
L 158.818559 69.539551 
" clip-path="url(#p5f3b80ce56)" style="fill: none; stroke: #000000; stroke-width: 1.2"/>
    <path d="M 151.900552 56.452515 
L 109.035901 53.803636 
" clip-path="url(#p5f3b80ce56)" style="fill: none; stroke: #000000; stroke-width: 1.2"/>
    <path d="M 151.900552 56.452515 
L 146.932642 86.99735 
" clip-path="url(#p5f3b80ce56)" style="fill: none; stroke: #000000; stroke-width: 1.2"/>
    <path d="M 151.900552 56.452515 
L 111.798291 72.776564 
" clip-path="url(#p5f3b80ce56)" style="fill: none; stroke: #000000; stroke-width: 1.2"/>
    <path d="M 151.900552 56.452515 
L 132.091082 86.018425 
" clip-path="url(#p5f3b80ce56)" style="fill: none; stroke: #000000; stroke-width: 1.2"/>
    <path d="M 158.818559 69.539551 
L 109.035901 53.803636 
" clip-path="url(#p5f3b80ce56)" style="fill: none; stroke: #000000; stroke-width: 1.2"/>
    <path d="M 158.818559 69.539551 
L 156.914226 102.049337 
" clip-path="url(#p5f3b80ce56)" style="fill: none; stroke: #000000; stroke-width: 1.2"/>
    <path d="M 158.818559 69.539551 
L 132.091082 86.018425 
" clip-path="url(#p5f3b80ce56)" style="fill: none; stroke: #000000; stroke-width: 1.2"/>
    <path d="M 158.818559 69.539551 
L 116.496903 96.607427 
" clip-path="url(#p5f3b80ce56)" style="fill: none; stroke: #000000; stroke-width: 1.2"/>
    <path d="M 109.035901 53.803636 
L 75.300116 71.528078 
" clip-path="url(#p5f3b80ce56)" style="fill: none; stroke: #000000; stroke-width: 1.2"/>
    <path d="M 109.035901 53.803636 
L 132.091082 86.018425 
" clip-path="url(#p5f3b80ce56)" style="fill: none; stroke: #000000; stroke-width: 1.2"/>
    <path d="M 109.035901 53.803636 
L 76.359113 87.816695 
" clip-path="url(#p5f3b80ce56)" style="fill: none; stroke: #000000; stroke-width: 1.2"/>
    <path d="M 121.853187 82.713254 
L 75.300116 71.528078 
" clip-path="url(#p5f3b80ce56)" style="fill: none; stroke: #000000; stroke-width: 1.2"/>
    <path d="M 121.853187 82.713254 
L 92.977345 70.582095 
" clip-path="url(#p5f3b80ce56)" style="fill: none; stroke: #000000; stroke-width: 1.2"/>
    <path d="M 121.853187 82.713254 
L 127.195437 103.312191 
" clip-path="url(#p5f3b80ce56)" style="fill: none; stroke: #000000; stroke-width: 1.2"/>
    <path d="M 121.853187 82.713254 
L 156.914226 102.049337 
" clip-path="url(#p5f3b80ce56)" style="fill: none; stroke: #000000; stroke-width: 1.2"/>
    <path d="M 121.853187 82.713254 
L 111.798291 72.776564 
" clip-path="url(#p5f3b80ce56)" style="fill: none; stroke: #000000; stroke-width: 1.2"/>
    <path d="M 121.853187 82.713254 
L 116.496903 96.607427 
" clip-path="url(#p5f3b80ce56)" style="fill: none; stroke: #000000; stroke-width: 1.2"/>
    <path d="M 121.853187 82.713254 
L 81.119103 111.768099 
" clip-path="url(#p5f3b80ce56)" style="fill: none; stroke: #000000; stroke-width: 1.2"/>
    <path d="M 121.853187 82.713254 
L 60.292171 89.760801 
" clip-path="url(#p5f3b80ce56)" style="fill: none; stroke: #000000; stroke-width: 1.2"/>
    <path d="M 121.853187 82.713254 
L 119.958571 120.702563 
" clip-path="url(#p5f3b80ce56)" style="fill: none; stroke: #000000; stroke-width: 1.2"/>
    <path d="M 75.300116 71.528078 
L 92.977345 70.582095 
" clip-path="url(#p5f3b80ce56)" style="fill: none; stroke: #000000; stroke-width: 1.2"/>
    <path d="M 75.300116 71.528078 
L 110.787104 88.270641 
" clip-path="url(#p5f3b80ce56)" style="fill: none; stroke: #000000; stroke-width: 1.2"/>
    <path d="M 75.300116 71.528078 
L 111.798291 72.776564 
" clip-path="url(#p5f3b80ce56)" style="fill: none; stroke: #000000; stroke-width: 1.2"/>
    <path d="M 75.300116 71.528078 
L 132.091082 86.018425 
" clip-path="url(#p5f3b80ce56)" style="fill: none; stroke: #000000; stroke-width: 1.2"/>
    <path d="M 75.300116 71.528078 
L 76.359113 87.816695 
" clip-path="url(#p5f3b80ce56)" style="fill: none; stroke: #000000; stroke-width: 1.2"/>
    <path d="M 75.300116 71.528078 
L 60.292171 89.760801 
" clip-path="url(#p5f3b80ce56)" style="fill: none; stroke: #000000; stroke-width: 1.2"/>
    <path d="M 75.300116 71.528078 
L 55.368595 106.744449 
" clip-path="url(#p5f3b80ce56)" style="fill: none; stroke: #000000; stroke-width: 1.2"/>
    <path d="M 75.300116 71.528078 
L 92.627046 101.095834 
" clip-path="url(#p5f3b80ce56)" style="fill: none; stroke: #000000; stroke-width: 1.2"/>
    <path d="M 92.977345 70.582095 
L 110.787104 88.270641 
" clip-path="url(#p5f3b80ce56)" style="fill: none; stroke: #000000; stroke-width: 1.2"/>
    <path d="M 92.977345 70.582095 
L 93.219464 83.295139 
" clip-path="url(#p5f3b80ce56)" style="fill: none; stroke: #000000; stroke-width: 1.2"/>
    <path d="M 92.977345 70.582095 
L 146.932642 86.99735 
" clip-path="url(#p5f3b80ce56)" style="fill: none; stroke: #000000; stroke-width: 1.2"/>
    <path d="M 92.977345 70.582095 
L 116.496903 96.607427 
" clip-path="url(#p5f3b80ce56)" style="fill: none; stroke: #000000; stroke-width: 1.2"/>
    <path d="M 92.977345 70.582095 
L 60.292171 89.760801 
" clip-path="url(#p5f3b80ce56)" style="fill: none; stroke: #000000; stroke-width: 1.2"/>
    <path d="M 92.977345 70.582095 
L 98.193706 111.540473 
" clip-path="url(#p5f3b80ce56)" style="fill: none; stroke: #000000; stroke-width: 1.2"/>
    <path d="M 92.977345 70.582095 
L 67.035596 104.64812 
" clip-path="url(#p5f3b80ce56)" style="fill: none; stroke: #000000; stroke-width: 1.2"/>
    <path d="M 110.787104 88.270641 
L 127.195437 103.312191 
" clip-path="url(#p5f3b80ce56)" style="fill: none; stroke: #000000; stroke-width: 1.2"/>
    <path d="M 110.787104 88.270641 
L 156.914226 102.049337 
" clip-path="url(#p5f3b80ce56)" style="fill: none; stroke: #000000; stroke-width: 1.2"/>
    <path d="M 110.787104 88.270641 
L 146.932642 86.99735 
" clip-path="url(#p5f3b80ce56)" style="fill: none; stroke: #000000; stroke-width: 1.2"/>
    <path d="M 110.787104 88.270641 
L 76.359113 87.816695 
" clip-path="url(#p5f3b80ce56)" style="fill: none; stroke: #000000; stroke-width: 1.2"/>
    <path d="M 110.787104 88.270641 
L 98.193706 111.540473 
" clip-path="url(#p5f3b80ce56)" style="fill: none; stroke: #000000; stroke-width: 1.2"/>
    <path d="M 110.787104 88.270641 
L 55.368595 106.744449 
" clip-path="url(#p5f3b80ce56)" style="fill: none; stroke: #000000; stroke-width: 1.2"/>
    <path d="M 110.787104 88.270641 
L 110.282084 129.759692 
" clip-path="url(#p5f3b80ce56)" style="fill: none; stroke: #000000; stroke-width: 1.2"/>
    <path d="M 127.195437 103.312191 
L 156.914226 102.049337 
" clip-path="url(#p5f3b80ce56)" style="fill: none; stroke: #000000; stroke-width: 1.2"/>
    <path d="M 127.195437 103.312191 
L 93.219464 83.295139 
" clip-path="url(#p5f3b80ce56)" style="fill: none; stroke: #000000; stroke-width: 1.2"/>
    <path d="M 127.195437 103.312191 
L 111.798291 72.776564 
" clip-path="url(#p5f3b80ce56)" style="fill: none; stroke: #000000; stroke-width: 1.2"/>
    <path d="M 127.195437 103.312191 
L 76.359113 87.816695 
" clip-path="url(#p5f3b80ce56)" style="fill: none; stroke: #000000; stroke-width: 1.2"/>
    <path d="M 127.195437 103.312191 
L 81.119103 111.768099 
" clip-path="url(#p5f3b80ce56)" style="fill: none; stroke: #000000; stroke-width: 1.2"/>
    <path d="M 127.195437 103.312191 
L 110.282084 129.759692 
" clip-path="url(#p5f3b80ce56)" style="fill: none; stroke: #000000; stroke-width: 1.2"/>
    <path d="M 127.195437 103.312191 
L 69.48697 121.405156 
" clip-path="url(#p5f3b80ce56)" style="fill: none; stroke: #000000; stroke-width: 1.2"/>
    <path d="M 156.914226 102.049337 
L 146.932642 86.99735 
" clip-path="url(#p5f3b80ce56)" style="fill: none; stroke: #000000; stroke-width: 1.2"/>
    <path d="M 156.914226 102.049337 
L 132.091082 86.018425 
" clip-path="url(#p5f3b80ce56)" style="fill: none; stroke: #000000; stroke-width: 1.2"/>
    <path d="M 156.914226 102.049337 
L 116.496903 96.607427 
" clip-path="url(#p5f3b80ce56)" style="fill: none; stroke: #000000; stroke-width: 1.2"/>
    <path d="M 156.914226 102.049337 
L 110.282084 129.759692 
" clip-path="url(#p5f3b80ce56)" style="fill: none; stroke: #000000; stroke-width: 1.2"/>
    <path d="M 156.914226 102.049337 
L 119.958571 120.702563 
" clip-path="url(#p5f3b80ce56)" style="fill: none; stroke: #000000; stroke-width: 1.2"/>
    <path d="M 156.914226 102.049337 
L 146.941797 120.534643 
" clip-path="url(#p5f3b80ce56)" style="fill: none; stroke: #000000; stroke-width: 1.2"/>
    <path d="M 93.219464 83.295139 
L 146.932642 86.99735 
" clip-path="url(#p5f3b80ce56)" style="fill: none; stroke: #000000; stroke-width: 1.2"/>
    <path d="M 93.219464 83.295139 
L 111.798291 72.776564 
" clip-path="url(#p5f3b80ce56)" style="fill: none; stroke: #000000; stroke-width: 1.2"/>
    <path d="M 93.219464 83.295139 
L 116.496903 96.607427 
" clip-path="url(#p5f3b80ce56)" style="fill: none; stroke: #000000; stroke-width: 1.2"/>
    <path d="M 93.219464 83.295139 
L 76.359113 87.816695 
" clip-path="url(#p5f3b80ce56)" style="fill: none; stroke: #000000; stroke-width: 1.2"/>
    <path d="M 93.219464 83.295139 
L 67.035596 104.64812 
" clip-path="url(#p5f3b80ce56)" style="fill: none; stroke: #000000; stroke-width: 1.2"/>
    <path d="M 93.219464 83.295139 
L 118.983843 113.01991 
" clip-path="url(#p5f3b80ce56)" style="fill: none; stroke: #000000; stroke-width: 1.2"/>
    <path d="M 93.219464 83.295139 
L 69.48697 121.405156 
" clip-path="url(#p5f3b80ce56)" style="fill: none; stroke: #000000; stroke-width: 1.2"/>
    <path d="M 146.932642 86.99735 
L 111.798291 72.776564 
" clip-path="url(#p5f3b80ce56)" style="fill: none; stroke: #000000; stroke-width: 1.2"/>
    <path d="M 146.932642 86.99735 
L 132.091082 86.018425 
" clip-path="url(#p5f3b80ce56)" style="fill: none; stroke: #000000; stroke-width: 1.2"/>
    <path d="M 146.932642 86.99735 
L 98.193706 111.540473 
" clip-path="url(#p5f3b80ce56)" style="fill: none; stroke: #000000; stroke-width: 1.2"/>
    <path d="M 146.932642 86.99735 
L 118.983843 113.01991 
" clip-path="url(#p5f3b80ce56)" style="fill: none; stroke: #000000; stroke-width: 1.2"/>
    <path d="M 146.932642 86.99735 
L 146.941797 120.534643 
" clip-path="url(#p5f3b80ce56)" style="fill: none; stroke: #000000; stroke-width: 1.2"/>
    <path d="M 111.798291 72.776564 
L 132.091082 86.018425 
" clip-path="url(#p5f3b80ce56)" style="fill: none; stroke: #000000; stroke-width: 1.2"/>
    <path d="M 111.798291 72.776564 
L 81.119103 111.768099 
" clip-path="url(#p5f3b80ce56)" style="fill: none; stroke: #000000; stroke-width: 1.2"/>
    <path d="M 111.798291 72.776564 
L 118.983843 113.01991 
" clip-path="url(#p5f3b80ce56)" style="fill: none; stroke: #000000; stroke-width: 1.2"/>
    <path d="M 111.798291 72.776564 
L 92.627046 101.095834 
" clip-path="url(#p5f3b80ce56)" style="fill: none; stroke: #000000; stroke-width: 1.2"/>
    <path d="M 132.091082 86.018425 
L 116.496903 96.607427 
" clip-path="url(#p5f3b80ce56)" style="fill: none; stroke: #000000; stroke-width: 1.2"/>
    <path d="M 132.091082 86.018425 
L 76.359113 87.816695 
" clip-path="url(#p5f3b80ce56)" style="fill: none; stroke: #000000; stroke-width: 1.2"/>
    <path d="M 132.091082 86.018425 
L 92.627046 101.095834 
" clip-path="url(#p5f3b80ce56)" style="fill: none; stroke: #000000; stroke-width: 1.2"/>
    <path d="M 132.091082 86.018425 
L 146.941797 120.534643 
" clip-path="url(#p5f3b80ce56)" style="fill: none; stroke: #000000; stroke-width: 1.2"/>
    <path d="M 132.091082 86.018425 
L 94.399234 123.429955 
" clip-path="url(#p5f3b80ce56)" style="fill: none; stroke: #000000; stroke-width: 1.2"/>
    <path d="M 116.496903 96.607427 
L 76.359113 87.816695 
" clip-path="url(#p5f3b80ce56)" style="fill: none; stroke: #000000; stroke-width: 1.2"/>
    <path d="M 116.496903 96.607427 
L 119.958571 120.702563 
" clip-path="url(#p5f3b80ce56)" style="fill: none; stroke: #000000; stroke-width: 1.2"/>
    <path d="M 116.496903 96.607427 
L 67.035596 104.64812 
" clip-path="url(#p5f3b80ce56)" style="fill: none; stroke: #000000; stroke-width: 1.2"/>
    <path d="M 116.496903 96.607427 
L 94.399234 123.429955 
" clip-path="url(#p5f3b80ce56)" style="fill: none; stroke: #000000; stroke-width: 1.2"/>
    <path d="M 76.359113 87.816695 
L 55.368595 106.744449 
" clip-path="url(#p5f3b80ce56)" style="fill: none; stroke: #000000; stroke-width: 1.2"/>
    <path d="M 76.359113 87.816695 
L 94.399234 123.429955 
" clip-path="url(#p5f3b80ce56)" style="fill: none; stroke: #000000; stroke-width: 1.2"/>
    <path d="M 76.359113 87.816695 
L 69.48697 121.405156 
" clip-path="url(#p5f3b80ce56)" style="fill: none; stroke: #000000; stroke-width: 1.2"/>
    <path d="M 81.119103 111.768099 
L 60.292171 89.760801 
" clip-path="url(#p5f3b80ce56)" style="fill: none; stroke: #000000; stroke-width: 1.2"/>
    <path d="M 81.119103 111.768099 
L 110.282084 129.759692 
" clip-path="url(#p5f3b80ce56)" style="fill: none; stroke: #000000; stroke-width: 1.2"/>
    <path d="M 81.119103 111.768099 
L 119.958571 120.702563 
" clip-path="url(#p5f3b80ce56)" style="fill: none; stroke: #000000; stroke-width: 1.2"/>
    <path d="M 81.119103 111.768099 
L 118.983843 113.01991 
" clip-path="url(#p5f3b80ce56)" style="fill: none; stroke: #000000; stroke-width: 1.2"/>
    <path d="M 81.119103 111.768099 
L 92.627046 101.095834 
" clip-path="url(#p5f3b80ce56)" style="fill: none; stroke: #000000; stroke-width: 1.2"/>
    <path d="M 81.119103 111.768099 
L 69.48697 121.405156 
" clip-path="url(#p5f3b80ce56)" style="fill: none; stroke: #000000; stroke-width: 1.2"/>
    <path d="M 60.292171 89.760801 
L 98.193706 111.540473 
" clip-path="url(#p5f3b80ce56)" style="fill: none; stroke: #000000; stroke-width: 1.2"/>
    <path d="M 60.292171 89.760801 
L 55.368595 106.744449 
" clip-path="url(#p5f3b80ce56)" style="fill: none; stroke: #000000; stroke-width: 1.2"/>
    <path d="M 60.292171 89.760801 
L 119.958571 120.702563 
" clip-path="url(#p5f3b80ce56)" style="fill: none; stroke: #000000; stroke-width: 1.2"/>
    <path d="M 60.292171 89.760801 
L 67.035596 104.64812 
" clip-path="url(#p5f3b80ce56)" style="fill: none; stroke: #000000; stroke-width: 1.2"/>
    <path d="M 60.292171 89.760801 
L 92.627046 101.095834 
" clip-path="url(#p5f3b80ce56)" style="fill: none; stroke: #000000; stroke-width: 1.2"/>
    <path d="M 98.193706 111.540473 
L 55.368595 106.744449 
" clip-path="url(#p5f3b80ce56)" style="fill: none; stroke: #000000; stroke-width: 1.2"/>
    <path d="M 98.193706 111.540473 
L 110.282084 129.759692 
" clip-path="url(#p5f3b80ce56)" style="fill: none; stroke: #000000; stroke-width: 1.2"/>
    <path d="M 98.193706 111.540473 
L 67.035596 104.64812 
" clip-path="url(#p5f3b80ce56)" style="fill: none; stroke: #000000; stroke-width: 1.2"/>
    <path d="M 98.193706 111.540473 
L 118.983843 113.01991 
" clip-path="url(#p5f3b80ce56)" style="fill: none; stroke: #000000; stroke-width: 1.2"/>
    <path d="M 98.193706 111.540473 
L 146.941797 120.534643 
" clip-path="url(#p5f3b80ce56)" style="fill: none; stroke: #000000; stroke-width: 1.2"/>
    <path d="M 55.368595 106.744449 
L 110.282084 129.759692 
" clip-path="url(#p5f3b80ce56)" style="fill: none; stroke: #000000; stroke-width: 1.2"/>
    <path d="M 55.368595 106.744449 
L 92.627046 101.095834 
" clip-path="url(#p5f3b80ce56)" style="fill: none; stroke: #000000; stroke-width: 1.2"/>
    <path d="M 55.368595 106.744449 
L 94.399234 123.429955 
" clip-path="url(#p5f3b80ce56)" style="fill: none; stroke: #000000; stroke-width: 1.2"/>
    <path d="M 55.368595 106.744449 
L 69.48697 121.405156 
" clip-path="url(#p5f3b80ce56)" style="fill: none; stroke: #000000; stroke-width: 1.2"/>
    <path d="M 110.282084 129.759692 
L 119.958571 120.702563 
" clip-path="url(#p5f3b80ce56)" style="fill: none; stroke: #000000; stroke-width: 1.2"/>
    <path d="M 110.282084 129.759692 
L 146.941797 120.534643 
" clip-path="url(#p5f3b80ce56)" style="fill: none; stroke: #000000; stroke-width: 1.2"/>
    <path d="M 110.282084 129.759692 
L 69.48697 121.405156 
" clip-path="url(#p5f3b80ce56)" style="fill: none; stroke: #000000; stroke-width: 1.2"/>
    <path d="M 119.958571 120.702563 
L 67.035596 104.64812 
" clip-path="url(#p5f3b80ce56)" style="fill: none; stroke: #000000; stroke-width: 1.2"/>
    <path d="M 119.958571 120.702563 
L 146.941797 120.534643 
" clip-path="url(#p5f3b80ce56)" style="fill: none; stroke: #000000; stroke-width: 1.2"/>
    <path d="M 119.958571 120.702563 
L 94.399234 123.429955 
" clip-path="url(#p5f3b80ce56)" style="fill: none; stroke: #000000; stroke-width: 1.2"/>
    <path d="M 67.035596 104.64812 
L 118.983843 113.01991 
" clip-path="url(#p5f3b80ce56)" style="fill: none; stroke: #000000; stroke-width: 1.2"/>
    <path d="M 67.035596 104.64812 
L 94.399234 123.429955 
" clip-path="url(#p5f3b80ce56)" style="fill: none; stroke: #000000; stroke-width: 1.2"/>
    <path d="M 67.035596 104.64812 
L 69.48697 121.405156 
" clip-path="url(#p5f3b80ce56)" style="fill: none; stroke: #000000; stroke-width: 1.2"/>
    <path d="M 118.983843 113.01991 
L 92.627046 101.095834 
" clip-path="url(#p5f3b80ce56)" style="fill: none; stroke: #000000; stroke-width: 1.2"/>
    <path d="M 118.983843 113.01991 
L 146.941797 120.534643 
" clip-path="url(#p5f3b80ce56)" style="fill: none; stroke: #000000; stroke-width: 1.2"/>
    <path d="M 118.983843 113.01991 
L 69.48697 121.405156 
" clip-path="url(#p5f3b80ce56)" style="fill: none; stroke: #000000; stroke-width: 1.2"/>
    <path d="M 92.627046 101.095834 
L 146.941797 120.534643 
" clip-path="url(#p5f3b80ce56)" style="fill: none; stroke: #000000; stroke-width: 1.2"/>
    <path d="M 92.627046 101.095834 
L 94.399234 123.429955 
" clip-path="url(#p5f3b80ce56)" style="fill: none; stroke: #000000; stroke-width: 1.2"/>
    <path d="M 146.941797 120.534643 
L 94.399234 123.429955 
" clip-path="url(#p5f3b80ce56)" style="fill: none; stroke: #000000; stroke-width: 1.2"/>
    <path d="M 146.941797 120.534643 
L 180.560713 144.41571 
" clip-path="url(#p5f3b80ce56)" style="fill: none; stroke: #000000; stroke-width: 1.2"/>
    <path d="M 94.399234 123.429955 
L 69.48697 121.405156 
" clip-path="url(#p5f3b80ce56)" style="fill: none; stroke: #000000; stroke-width: 1.2"/>
    <path d="M 127.735518 229.34903 
L 166.636966 208.717937 
" clip-path="url(#p5f3b80ce56)" style="fill: none; stroke: #000000; stroke-width: 1.2"/>
    <path d="M 163.658396 237.076364 
L 166.636966 208.717937 
" clip-path="url(#p5f3b80ce56)" style="fill: none; stroke: #000000; stroke-width: 1.2"/>
    <path d="M 204.822752 230.091133 
L 166.636966 208.717937 
" clip-path="url(#p5f3b80ce56)" style="fill: none; stroke: #000000; stroke-width: 1.2"/>
    <path d="M 217.612662 193.830303 
L 184.381607 177.332575 
" clip-path="url(#p5f3b80ce56)" style="fill: none; stroke: #000000; stroke-width: 1.2"/>
    <path d="M 239.831405 180.788902 
L 184.381607 177.332575 
" clip-path="url(#p5f3b80ce56)" style="fill: none; stroke: #000000; stroke-width: 1.2"/>
    <path d="M 224.258565 147.574836 
L 180.560713 144.41571 
" clip-path="url(#p5f3b80ce56)" style="fill: none; stroke: #000000; stroke-width: 1.2"/>
    <path d="M 234.822478 132.811234 
L 180.560713 144.41571 
" clip-path="url(#p5f3b80ce56)" style="fill: none; stroke: #000000; stroke-width: 1.2"/>
    <path d="M 166.636966 208.717937 
L 184.381607 177.332575 
" clip-path="url(#p5f3b80ce56)" style="fill: none; stroke: #000000; stroke-width: 1.2"/>
    <path d="M 184.381607 177.332575 
L 180.560713 144.41571 
" clip-path="url(#p5f3b80ce56)" style="fill: none; stroke: #000000; stroke-width: 1.2"/>
   </g>
   <g id="PathCollection_1">
    <defs>
     <path id="C0_0_6d4f3642b2" d="M 0 8.944272 
C 2.372049 8.944272 4.647264 8.001847 6.324555 6.324555 
C 8.001847 4.647264 8.944272 2.372049 8.944272 -0 
C 8.944272 -2.372049 8.001847 -4.647264 6.324555 -6.324555 
C 4.647264 -8.001847 2.372049 -8.944272 0 -8.944272 
C -2.372049 -8.944272 -4.647264 -8.001847 -6.324555 -6.324555 
C -8.001847 -4.647264 -8.944272 -2.372049 -8.944272 0 
C -8.944272 2.372049 -8.001847 4.647264 -6.324555 6.324555 
C -4.647264 8.001847 -2.372049 8.944272 0 8.944272 
z
"/>
    </defs>
    <g clip-path="url(#p5f3b80ce56)">
     <use xlink:href="#C0_0_6d4f3642b2" x="174.51873" y="72.269323" style="fill: #4fd14f; stroke: #4fd14f; stroke-width: 0.5"/>
    </g>
    <g clip-path="url(#p5f3b80ce56)">
     <use xlink:href="#C0_0_6d4f3642b2" x="178.948661" y="88.169338" style="fill: #4fd14f; stroke: #4fd14f; stroke-width: 0.5"/>
    </g>
    <g clip-path="url(#p5f3b80ce56)">
     <use xlink:href="#C0_0_6d4f3642b2" x="130.366958" y="54.287091" style="fill: #4fd14f; stroke: #4fd14f; stroke-width: 0.5"/>
    </g>
    <g clip-path="url(#p5f3b80ce56)">
     <use xlink:href="#C0_0_6d4f3642b2" x="151.900552" y="56.452515" style="fill: #4fd14f; stroke: #4fd14f; stroke-width: 0.5"/>
    </g>
    <g clip-path="url(#p5f3b80ce56)">
     <use xlink:href="#C0_0_6d4f3642b2" x="158.818559" y="69.539551" style="fill: #4fd14f; stroke: #4fd14f; stroke-width: 0.5"/>
    </g>
    <g clip-path="url(#p5f3b80ce56)">
     <use xlink:href="#C0_0_6d4f3642b2" x="109.035901" y="53.803636" style="fill: #4fd14f; stroke: #4fd14f; stroke-width: 0.5"/>
    </g>
    <g clip-path="url(#p5f3b80ce56)">
     <use xlink:href="#C0_0_6d4f3642b2" x="121.853187" y="82.713254" style="fill: #4fd14f; stroke: #4fd14f; stroke-width: 0.5"/>
    </g>
    <g clip-path="url(#p5f3b80ce56)">
     <use xlink:href="#C0_0_6d4f3642b2" x="75.300116" y="71.528078" style="fill: #4fd14f; stroke: #4fd14f; stroke-width: 0.5"/>
    </g>
    <g clip-path="url(#p5f3b80ce56)">
     <use xlink:href="#C0_0_6d4f3642b2" x="92.977345" y="70.582095" style="fill: #4fd14f; stroke: #4fd14f; stroke-width: 0.5"/>
    </g>
    <g clip-path="url(#p5f3b80ce56)">
     <use xlink:href="#C0_0_6d4f3642b2" x="110.787104" y="88.270641" style="fill: #4fd14f; stroke: #4fd14f; stroke-width: 0.5"/>
    </g>
    <g clip-path="url(#p5f3b80ce56)">
     <use xlink:href="#C0_0_6d4f3642b2" x="127.195437" y="103.312191" style="fill: #4fd14f; stroke: #4fd14f; stroke-width: 0.5"/>
    </g>
    <g clip-path="url(#p5f3b80ce56)">
     <use xlink:href="#C0_0_6d4f3642b2" x="156.914226" y="102.049337" style="fill: #4fd14f; stroke: #4fd14f; stroke-width: 0.5"/>
    </g>
    <g clip-path="url(#p5f3b80ce56)">
     <use xlink:href="#C0_0_6d4f3642b2" x="93.219464" y="83.295139" style="fill: #4fd14f; stroke: #4fd14f; stroke-width: 0.5"/>
    </g>
    <g clip-path="url(#p5f3b80ce56)">
     <use xlink:href="#C0_0_6d4f3642b2" x="146.932642" y="86.99735" style="fill: #4fd14f; stroke: #4fd14f; stroke-width: 0.5"/>
    </g>
    <g clip-path="url(#p5f3b80ce56)">
     <use xlink:href="#C0_0_6d4f3642b2" x="111.798291" y="72.776564" style="fill: #4fd14f; stroke: #4fd14f; stroke-width: 0.5"/>
    </g>
    <g clip-path="url(#p5f3b80ce56)">
     <use xlink:href="#C0_0_6d4f3642b2" x="132.091082" y="86.018425" style="fill: #4fd14f; stroke: #4fd14f; stroke-width: 0.5"/>
    </g>
    <g clip-path="url(#p5f3b80ce56)">
     <use xlink:href="#C0_0_6d4f3642b2" x="116.496903" y="96.607427" style="fill: #4fd14f; stroke: #4fd14f; stroke-width: 0.5"/>
    </g>
    <g clip-path="url(#p5f3b80ce56)">
     <use xlink:href="#C0_0_6d4f3642b2" x="76.359113" y="87.816695" style="fill: #4fd14f; stroke: #4fd14f; stroke-width: 0.5"/>
    </g>
    <g clip-path="url(#p5f3b80ce56)">
     <use xlink:href="#C0_0_6d4f3642b2" x="81.119103" y="111.768099" style="fill: #4fd14f; stroke: #4fd14f; stroke-width: 0.5"/>
    </g>
    <g clip-path="url(#p5f3b80ce56)">
     <use xlink:href="#C0_0_6d4f3642b2" x="60.292171" y="89.760801" style="fill: #4fd14f; stroke: #4fd14f; stroke-width: 0.5"/>
    </g>
    <g clip-path="url(#p5f3b80ce56)">
     <use xlink:href="#C0_0_6d4f3642b2" x="98.193706" y="111.540473" style="fill: #4fd14f; stroke: #4fd14f; stroke-width: 0.5"/>
    </g>
    <g clip-path="url(#p5f3b80ce56)">
     <use xlink:href="#C0_0_6d4f3642b2" x="55.368595" y="106.744449" style="fill: #4fd14f; stroke: #4fd14f; stroke-width: 0.5"/>
    </g>
    <g clip-path="url(#p5f3b80ce56)">
     <use xlink:href="#C0_0_6d4f3642b2" x="110.282084" y="129.759692" style="fill: #4fd14f; stroke: #4fd14f; stroke-width: 0.5"/>
    </g>
    <g clip-path="url(#p5f3b80ce56)">
     <use xlink:href="#C0_0_6d4f3642b2" x="119.958571" y="120.702563" style="fill: #4fd14f; stroke: #4fd14f; stroke-width: 0.5"/>
    </g>
    <g clip-path="url(#p5f3b80ce56)">
     <use xlink:href="#C0_0_6d4f3642b2" x="67.035596" y="104.64812" style="fill: #4fd14f; stroke: #4fd14f; stroke-width: 0.5"/>
    </g>
    <g clip-path="url(#p5f3b80ce56)">
     <use xlink:href="#C0_0_6d4f3642b2" x="118.983843" y="113.01991" style="fill: #4fd14f; stroke: #4fd14f; stroke-width: 0.5"/>
    </g>
    <g clip-path="url(#p5f3b80ce56)">
     <use xlink:href="#C0_0_6d4f3642b2" x="92.627046" y="101.095834" style="fill: #4fd14f; stroke: #4fd14f; stroke-width: 0.5"/>
    </g>
    <g clip-path="url(#p5f3b80ce56)">
     <use xlink:href="#C0_0_6d4f3642b2" x="146.941797" y="120.534643" style="fill: #4fd14f; stroke: #4fd14f; stroke-width: 0.5"/>
    </g>
    <g clip-path="url(#p5f3b80ce56)">
     <use xlink:href="#C0_0_6d4f3642b2" x="94.399234" y="123.429955" style="fill: #4fd14f; stroke: #4fd14f; stroke-width: 0.5"/>
    </g>
    <g clip-path="url(#p5f3b80ce56)">
     <use xlink:href="#C0_0_6d4f3642b2" x="69.48697" y="121.405156" style="fill: #4fd14f; stroke: #4fd14f; stroke-width: 0.5"/>
    </g>
    <g clip-path="url(#p5f3b80ce56)">
     <use xlink:href="#C0_0_6d4f3642b2" x="127.735518" y="229.34903" style="fill: #bfbfbf; stroke: #bfbfbf; stroke-width: 0.5"/>
    </g>
    <g clip-path="url(#p5f3b80ce56)">
     <use xlink:href="#C0_0_6d4f3642b2" x="163.658396" y="237.076364" style="fill: #bfbfbf; stroke: #bfbfbf; stroke-width: 0.5"/>
    </g>
    <g clip-path="url(#p5f3b80ce56)">
     <use xlink:href="#C0_0_6d4f3642b2" x="204.822752" y="230.091133" style="fill: #bfbfbf; stroke: #bfbfbf; stroke-width: 0.5"/>
    </g>
    <g clip-path="url(#p5f3b80ce56)">
     <use xlink:href="#C0_0_6d4f3642b2" x="217.612662" y="193.830303" style="fill: #bfbfbf; stroke: #bfbfbf; stroke-width: 0.5"/>
    </g>
    <g clip-path="url(#p5f3b80ce56)">
     <use xlink:href="#C0_0_6d4f3642b2" x="239.831405" y="180.788902" style="fill: #bfbfbf; stroke: #bfbfbf; stroke-width: 0.5"/>
    </g>
    <g clip-path="url(#p5f3b80ce56)">
     <use xlink:href="#C0_0_6d4f3642b2" x="224.258565" y="147.574836" style="fill: #bfbfbf; stroke: #bfbfbf; stroke-width: 0.5"/>
    </g>
    <g clip-path="url(#p5f3b80ce56)">
     <use xlink:href="#C0_0_6d4f3642b2" x="234.822478" y="132.811234" style="fill: #bfbfbf; stroke: #bfbfbf; stroke-width: 0.5"/>
    </g>
    <g clip-path="url(#p5f3b80ce56)">
     <use xlink:href="#C0_0_6d4f3642b2" x="166.636966" y="208.717937" style="fill: #666666; stroke: #666666; stroke-width: 0.5"/>
    </g>
    <g clip-path="url(#p5f3b80ce56)">
     <use xlink:href="#C0_0_6d4f3642b2" x="184.381607" y="177.332575" style="fill: #666666; stroke: #666666; stroke-width: 0.5"/>
    </g>
    <g clip-path="url(#p5f3b80ce56)">
     <use xlink:href="#C0_0_6d4f3642b2" x="180.560713" y="144.41571" style="fill: #0d0dff; stroke: #0d0dff; stroke-width: 0.5"/>
    </g>
   </g>
   <g id="text_1">
    <!-- C2H7NNi48 -->
    <g transform="translate(138.837633 -3.079437) scale(0.1 -0.1)">
     <defs>
      <path id="DejaVuSans-43" d="M 4122 4306 
L 4122 3641 
Q 3803 3938 3442 4084 
Q 3081 4231 2675 4231 
Q 1875 4231 1450 3742 
Q 1025 3253 1025 2328 
Q 1025 1406 1450 917 
Q 1875 428 2675 428 
Q 3081 428 3442 575 
Q 3803 722 4122 1019 
L 4122 359 
Q 3791 134 3420 21 
Q 3050 -91 2638 -91 
Q 1578 -91 968 557 
Q 359 1206 359 2328 
Q 359 3453 968 4101 
Q 1578 4750 2638 4750 
Q 3056 4750 3426 4639 
Q 3797 4528 4122 4306 
z
" transform="scale(0.015625)"/>
      <path id="DejaVuSans-32" d="M 1228 531 
L 3431 531 
L 3431 0 
L 469 0 
L 469 531 
Q 828 903 1448 1529 
Q 2069 2156 2228 2338 
Q 2531 2678 2651 2914 
Q 2772 3150 2772 3378 
Q 2772 3750 2511 3984 
Q 2250 4219 1831 4219 
Q 1534 4219 1204 4116 
Q 875 4013 500 3803 
L 500 4441 
Q 881 4594 1212 4672 
Q 1544 4750 1819 4750 
Q 2544 4750 2975 4387 
Q 3406 4025 3406 3419 
Q 3406 3131 3298 2873 
Q 3191 2616 2906 2266 
Q 2828 2175 2409 1742 
Q 1991 1309 1228 531 
z
" transform="scale(0.015625)"/>
      <path id="DejaVuSans-48" d="M 628 4666 
L 1259 4666 
L 1259 2753 
L 3553 2753 
L 3553 4666 
L 4184 4666 
L 4184 0 
L 3553 0 
L 3553 2222 
L 1259 2222 
L 1259 0 
L 628 0 
L 628 4666 
z
" transform="scale(0.015625)"/>
      <path id="DejaVuSans-37" d="M 525 4666 
L 3525 4666 
L 3525 4397 
L 1831 0 
L 1172 0 
L 2766 4134 
L 525 4134 
L 525 4666 
z
" transform="scale(0.015625)"/>
      <path id="DejaVuSans-4e" d="M 628 4666 
L 1478 4666 
L 3547 763 
L 3547 4666 
L 4159 4666 
L 4159 0 
L 3309 0 
L 1241 3903 
L 1241 0 
L 628 0 
L 628 4666 
z
" transform="scale(0.015625)"/>
      <path id="DejaVuSans-69" d="M 603 3500 
L 1178 3500 
L 1178 0 
L 603 0 
L 603 3500 
z
M 603 4863 
L 1178 4863 
L 1178 4134 
L 603 4134 
L 603 4863 
z
" transform="scale(0.015625)"/>
      <path id="DejaVuSans-34" d="M 2419 4116 
L 825 1625 
L 2419 1625 
L 2419 4116 
z
M 2253 4666 
L 3047 4666 
L 3047 1625 
L 3713 1625 
L 3713 1100 
L 3047 1100 
L 3047 0 
L 2419 0 
L 2419 1100 
L 313 1100 
L 313 1709 
L 2253 4666 
z
" transform="scale(0.015625)"/>
      <path id="DejaVuSans-38" d="M 2034 2216 
Q 1584 2216 1326 1975 
Q 1069 1734 1069 1313 
Q 1069 891 1326 650 
Q 1584 409 2034 409 
Q 2484 409 2743 651 
Q 3003 894 3003 1313 
Q 3003 1734 2745 1975 
Q 2488 2216 2034 2216 
z
M 1403 2484 
Q 997 2584 770 2862 
Q 544 3141 544 3541 
Q 544 4100 942 4425 
Q 1341 4750 2034 4750 
Q 2731 4750 3128 4425 
Q 3525 4100 3525 3541 
Q 3525 3141 3298 2862 
Q 3072 2584 2669 2484 
Q 3125 2378 3379 2068 
Q 3634 1759 3634 1313 
Q 3634 634 3220 271 
Q 2806 -91 2034 -91 
Q 1263 -91 848 271 
Q 434 634 434 1313 
Q 434 1759 690 2068 
Q 947 2378 1403 2484 
z
M 1172 3481 
Q 1172 3119 1398 2916 
Q 1625 2713 2034 2713 
Q 2441 2713 2670 2916 
Q 2900 3119 2900 3481 
Q 2900 3844 2670 4047 
Q 2441 4250 2034 4250 
Q 1625 4250 1398 4047 
Q 1172 3844 1172 3481 
z
" transform="scale(0.015625)"/>
     </defs>
     <use xlink:href="#DejaVuSans-43"/>
     <use xlink:href="#DejaVuSans-32" transform="translate(69.824219 0)"/>
     <use xlink:href="#DejaVuSans-48" transform="translate(133.447266 0)"/>
     <use xlink:href="#DejaVuSans-37" transform="translate(208.642578 0)"/>
     <use xlink:href="#DejaVuSans-4e" transform="translate(272.265625 0)"/>
     <use xlink:href="#DejaVuSans-4e" transform="translate(347.070312 0)"/>
     <use xlink:href="#DejaVuSans-69" transform="translate(421.875 0)"/>
     <use xlink:href="#DejaVuSans-34" transform="translate(449.658203 0)"/>
     <use xlink:href="#DejaVuSans-38" transform="translate(513.28125 0)"/>
    </g>
    <!-- Error: -7.33 eV -->
    <g transform="translate(138.837633 8.118375) scale(0.1 -0.1)">
     <defs>
      <path id="DejaVuSans-45" d="M 628 4666 
L 3578 4666 
L 3578 4134 
L 1259 4134 
L 1259 2753 
L 3481 2753 
L 3481 2222 
L 1259 2222 
L 1259 531 
L 3634 531 
L 3634 0 
L 628 0 
L 628 4666 
z
" transform="scale(0.015625)"/>
      <path id="DejaVuSans-72" d="M 2631 2963 
Q 2534 3019 2420 3045 
Q 2306 3072 2169 3072 
Q 1681 3072 1420 2755 
Q 1159 2438 1159 1844 
L 1159 0 
L 581 0 
L 581 3500 
L 1159 3500 
L 1159 2956 
Q 1341 3275 1631 3429 
Q 1922 3584 2338 3584 
Q 2397 3584 2469 3576 
Q 2541 3569 2628 3553 
L 2631 2963 
z
" transform="scale(0.015625)"/>
      <path id="DejaVuSans-6f" d="M 1959 3097 
Q 1497 3097 1228 2736 
Q 959 2375 959 1747 
Q 959 1119 1226 758 
Q 1494 397 1959 397 
Q 2419 397 2687 759 
Q 2956 1122 2956 1747 
Q 2956 2369 2687 2733 
Q 2419 3097 1959 3097 
z
M 1959 3584 
Q 2709 3584 3137 3096 
Q 3566 2609 3566 1747 
Q 3566 888 3137 398 
Q 2709 -91 1959 -91 
Q 1206 -91 779 398 
Q 353 888 353 1747 
Q 353 2609 779 3096 
Q 1206 3584 1959 3584 
z
" transform="scale(0.015625)"/>
      <path id="DejaVuSans-3a" d="M 750 794 
L 1409 794 
L 1409 0 
L 750 0 
L 750 794 
z
M 750 3309 
L 1409 3309 
L 1409 2516 
L 750 2516 
L 750 3309 
z
" transform="scale(0.015625)"/>
      <path id="DejaVuSans-20" transform="scale(0.015625)"/>
      <path id="DejaVuSans-2d" d="M 313 2009 
L 1997 2009 
L 1997 1497 
L 313 1497 
L 313 2009 
z
" transform="scale(0.015625)"/>
      <path id="DejaVuSans-2e" d="M 684 794 
L 1344 794 
L 1344 0 
L 684 0 
L 684 794 
z
" transform="scale(0.015625)"/>
      <path id="DejaVuSans-33" d="M 2597 2516 
Q 3050 2419 3304 2112 
Q 3559 1806 3559 1356 
Q 3559 666 3084 287 
Q 2609 -91 1734 -91 
Q 1441 -91 1130 -33 
Q 819 25 488 141 
L 488 750 
Q 750 597 1062 519 
Q 1375 441 1716 441 
Q 2309 441 2620 675 
Q 2931 909 2931 1356 
Q 2931 1769 2642 2001 
Q 2353 2234 1838 2234 
L 1294 2234 
L 1294 2753 
L 1863 2753 
Q 2328 2753 2575 2939 
Q 2822 3125 2822 3475 
Q 2822 3834 2567 4026 
Q 2313 4219 1838 4219 
Q 1578 4219 1281 4162 
Q 984 4106 628 3988 
L 628 4550 
Q 988 4650 1302 4700 
Q 1616 4750 1894 4750 
Q 2613 4750 3031 4423 
Q 3450 4097 3450 3541 
Q 3450 3153 3228 2886 
Q 3006 2619 2597 2516 
z
" transform="scale(0.015625)"/>
      <path id="DejaVuSans-65" d="M 3597 1894 
L 3597 1613 
L 953 1613 
Q 991 1019 1311 708 
Q 1631 397 2203 397 
Q 2534 397 2845 478 
Q 3156 559 3463 722 
L 3463 178 
Q 3153 47 2828 -22 
Q 2503 -91 2169 -91 
Q 1331 -91 842 396 
Q 353 884 353 1716 
Q 353 2575 817 3079 
Q 1281 3584 2069 3584 
Q 2775 3584 3186 3129 
Q 3597 2675 3597 1894 
z
M 3022 2063 
Q 3016 2534 2758 2815 
Q 2500 3097 2075 3097 
Q 1594 3097 1305 2825 
Q 1016 2553 972 2059 
L 3022 2063 
z
" transform="scale(0.015625)"/>
      <path id="DejaVuSans-56" d="M 1831 0 
L 50 4666 
L 709 4666 
L 2188 738 
L 3669 4666 
L 4325 4666 
L 2547 0 
L 1831 0 
z
" transform="scale(0.015625)"/>
     </defs>
     <use xlink:href="#DejaVuSans-45"/>
     <use xlink:href="#DejaVuSans-72" transform="translate(63.183594 0)"/>
     <use xlink:href="#DejaVuSans-72" transform="translate(102.546875 0)"/>
     <use xlink:href="#DejaVuSans-6f" transform="translate(141.410156 0)"/>
     <use xlink:href="#DejaVuSans-72" transform="translate(202.591797 0)"/>
     <use xlink:href="#DejaVuSans-3a" transform="translate(241.955078 0)"/>
     <use xlink:href="#DejaVuSans-20" transform="translate(275.646484 0)"/>
     <use xlink:href="#DejaVuSans-2d" transform="translate(307.433594 0)"/>
     <use xlink:href="#DejaVuSans-37" transform="translate(343.517578 0)"/>
     <use xlink:href="#DejaVuSans-2e" transform="translate(407.140625 0)"/>
     <use xlink:href="#DejaVuSans-33" transform="translate(438.927734 0)"/>
     <use xlink:href="#DejaVuSans-33" transform="translate(502.550781 0)"/>
     <use xlink:href="#DejaVuSans-20" transform="translate(566.173828 0)"/>
     <use xlink:href="#DejaVuSans-65" transform="translate(597.960938 0)"/>
     <use xlink:href="#DejaVuSans-56" transform="translate(659.484375 0)"/>
    </g>
   </g>
  </g>
 </g>
 <defs>
  <clipPath id="p5f3b80ce56">
   <rect x="36" y="34.56" width="223.2" height="221.76"/>
  </clipPath>
 </defs>
</svg>
