<?xml version="1.0" encoding="utf-8" standalone="no"?>
<!DOCTYPE svg PUBLIC "-//W3C//DTD SVG 1.1//EN"
  "http://www.w3.org/Graphics/SVG/1.1/DTD/svg11.dtd">
<svg xmlns:xlink="http://www.w3.org/1999/xlink" width="288pt" height="288pt" viewBox="0 0 288 288" xmlns="http://www.w3.org/2000/svg" version="1.1">
 <metadata>
  <rdf:RDF xmlns:dc="http://purl.org/dc/elements/1.1/" xmlns:cc="http://creativecommons.org/ns#" xmlns:rdf="http://www.w3.org/1999/02/22-rdf-syntax-ns#">
   <cc:Work>
    <dc:type rdf:resource="http://purl.org/dc/dcmitype/StillImage"/>
    <dc:date>2025-06-30T12:07:55.313406</dc:date>
    <dc:format>image/svg+xml</dc:format>
    <dc:creator>
     <cc:Agent>
      <dc:title>Matplotlib v3.10.1, https://matplotlib.org/</dc:title>
     </cc:Agent>
    </dc:creator>
   </cc:Work>
  </rdf:RDF>
 </metadata>
 <defs>
  <style type="text/css">*{stroke-linejoin: round; stroke-linecap: butt}</style>
 </defs>
 <g id="figure_1">
  <g id="patch_1">
   <path d="M 0 288 
L 288 288 
L 288 0 
L 0 0 
z
" style="fill: #ffffff"/>
  </g>
  <g id="axes_1">
   <g id="LineCollection_1">
    <path d="M 114.408908 53.803636 
L 81.114325 56.468528 
" clip-path="url(#p8524e0703b)" style="fill: none; stroke: #000000; stroke-width: 1.2"/>
    <path d="M 114.408908 53.803636 
L 64.055814 64.124732 
" clip-path="url(#p8524e0703b)" style="fill: none; stroke: #000000; stroke-width: 1.2"/>
    <path d="M 114.408908 53.803636 
L 144.736189 61.484478 
" clip-path="url(#p8524e0703b)" style="fill: none; stroke: #000000; stroke-width: 1.2"/>
    <path d="M 114.408908 53.803636 
L 129.006755 63.34988 
" clip-path="url(#p8524e0703b)" style="fill: none; stroke: #000000; stroke-width: 1.2"/>
    <path d="M 114.408908 53.803636 
L 150.196361 77.114418 
" clip-path="url(#p8524e0703b)" style="fill: none; stroke: #000000; stroke-width: 1.2"/>
    <path d="M 114.408908 53.803636 
L 85.96401 63.90239 
" clip-path="url(#p8524e0703b)" style="fill: none; stroke: #000000; stroke-width: 1.2"/>
    <path d="M 114.408908 53.803636 
L 108.089898 92.589323 
" clip-path="url(#p8524e0703b)" style="fill: none; stroke: #000000; stroke-width: 1.2"/>
    <path d="M 114.408908 53.803636 
L 78.171599 90.43367 
" clip-path="url(#p8524e0703b)" style="fill: none; stroke: #000000; stroke-width: 1.2"/>
    <path d="M 114.408908 53.803636 
L 141.712813 101.601633 
" clip-path="url(#p8524e0703b)" style="fill: none; stroke: #000000; stroke-width: 1.2"/>
    <path d="M 81.114325 56.468528 
L 64.055814 64.124732 
" clip-path="url(#p8524e0703b)" style="fill: none; stroke: #000000; stroke-width: 1.2"/>
    <path d="M 81.114325 56.468528 
L 144.736189 61.484478 
" clip-path="url(#p8524e0703b)" style="fill: none; stroke: #000000; stroke-width: 1.2"/>
    <path d="M 81.114325 56.468528 
L 98.638046 74.625447 
" clip-path="url(#p8524e0703b)" style="fill: none; stroke: #000000; stroke-width: 1.2"/>
    <path d="M 81.114325 56.468528 
L 114.473583 67.533738 
" clip-path="url(#p8524e0703b)" style="fill: none; stroke: #000000; stroke-width: 1.2"/>
    <path d="M 81.114325 56.468528 
L 64.877536 73.073665 
" clip-path="url(#p8524e0703b)" style="fill: none; stroke: #000000; stroke-width: 1.2"/>
    <path d="M 81.114325 56.468528 
L 108.089898 92.589323 
" clip-path="url(#p8524e0703b)" style="fill: none; stroke: #000000; stroke-width: 1.2"/>
    <path d="M 81.114325 56.468528 
L 62.49175 105.435459 
" clip-path="url(#p8524e0703b)" style="fill: none; stroke: #000000; stroke-width: 1.2"/>
    <path d="M 81.114325 56.468528 
L 78.799675 104.641212 
" clip-path="url(#p8524e0703b)" style="fill: none; stroke: #000000; stroke-width: 1.2"/>
    <path d="M 64.055814 64.124732 
L 98.549202 54.359383 
" clip-path="url(#p8524e0703b)" style="fill: none; stroke: #000000; stroke-width: 1.2"/>
    <path d="M 64.055814 64.124732 
L 132.733837 75.270202 
" clip-path="url(#p8524e0703b)" style="fill: none; stroke: #000000; stroke-width: 1.2"/>
    <path d="M 64.055814 64.124732 
L 98.638046 74.625447 
" clip-path="url(#p8524e0703b)" style="fill: none; stroke: #000000; stroke-width: 1.2"/>
    <path d="M 64.055814 64.124732 
L 85.96401 63.90239 
" clip-path="url(#p8524e0703b)" style="fill: none; stroke: #000000; stroke-width: 1.2"/>
    <path d="M 64.055814 64.124732 
L 78.171599 90.43367 
" clip-path="url(#p8524e0703b)" style="fill: none; stroke: #000000; stroke-width: 1.2"/>
    <path d="M 64.055814 64.124732 
L 62.49175 105.435459 
" clip-path="url(#p8524e0703b)" style="fill: none; stroke: #000000; stroke-width: 1.2"/>
    <path d="M 64.055814 64.124732 
L 93.496642 101.538441 
" clip-path="url(#p8524e0703b)" style="fill: none; stroke: #000000; stroke-width: 1.2"/>
    <path d="M 98.549202 54.359383 
L 132.733837 75.270202 
" clip-path="url(#p8524e0703b)" style="fill: none; stroke: #000000; stroke-width: 1.2"/>
    <path d="M 98.549202 54.359383 
L 144.736189 61.484478 
" clip-path="url(#p8524e0703b)" style="fill: none; stroke: #000000; stroke-width: 1.2"/>
    <path d="M 98.549202 54.359383 
L 129.006755 63.34988 
" clip-path="url(#p8524e0703b)" style="fill: none; stroke: #000000; stroke-width: 1.2"/>
    <path d="M 98.549202 54.359383 
L 85.96401 63.90239 
" clip-path="url(#p8524e0703b)" style="fill: none; stroke: #000000; stroke-width: 1.2"/>
    <path d="M 98.549202 54.359383 
L 64.877536 73.073665 
" clip-path="url(#p8524e0703b)" style="fill: none; stroke: #000000; stroke-width: 1.2"/>
    <path d="M 98.549202 54.359383 
L 93.496642 101.538441 
" clip-path="url(#p8524e0703b)" style="fill: none; stroke: #000000; stroke-width: 1.2"/>
    <path d="M 98.549202 54.359383 
L 125.889852 93.45141 
" clip-path="url(#p8524e0703b)" style="fill: none; stroke: #000000; stroke-width: 1.2"/>
    <path d="M 98.549202 54.359383 
L 62.565244 97.29992 
" clip-path="url(#p8524e0703b)" style="fill: none; stroke: #000000; stroke-width: 1.2"/>
    <path d="M 132.733837 75.270202 
L 144.736189 61.484478 
" clip-path="url(#p8524e0703b)" style="fill: none; stroke: #000000; stroke-width: 1.2"/>
    <path d="M 132.733837 75.270202 
L 98.638046 74.625447 
" clip-path="url(#p8524e0703b)" style="fill: none; stroke: #000000; stroke-width: 1.2"/>
    <path d="M 132.733837 75.270202 
L 150.196361 77.114418 
" clip-path="url(#p8524e0703b)" style="fill: none; stroke: #000000; stroke-width: 1.2"/>
    <path d="M 132.733837 75.270202 
L 114.473583 67.533738 
" clip-path="url(#p8524e0703b)" style="fill: none; stroke: #000000; stroke-width: 1.2"/>
    <path d="M 132.733837 75.270202 
L 93.496642 101.538441 
" clip-path="url(#p8524e0703b)" style="fill: none; stroke: #000000; stroke-width: 1.2"/>
    <path d="M 132.733837 75.270202 
L 142.866823 107.629071 
" clip-path="url(#p8524e0703b)" style="fill: none; stroke: #000000; stroke-width: 1.2"/>
    <path d="M 132.733837 75.270202 
L 127.493428 116.03237 
" clip-path="url(#p8524e0703b)" style="fill: none; stroke: #000000; stroke-width: 1.2"/>
    <path d="M 144.736189 61.484478 
L 129.006755 63.34988 
" clip-path="url(#p8524e0703b)" style="fill: none; stroke: #000000; stroke-width: 1.2"/>
    <path d="M 144.736189 61.484478 
L 114.473583 67.533738 
" clip-path="url(#p8524e0703b)" style="fill: none; stroke: #000000; stroke-width: 1.2"/>
    <path d="M 144.736189 61.484478 
L 108.089898 92.589323 
" clip-path="url(#p8524e0703b)" style="fill: none; stroke: #000000; stroke-width: 1.2"/>
    <path d="M 144.736189 61.484478 
L 125.889852 93.45141 
" clip-path="url(#p8524e0703b)" style="fill: none; stroke: #000000; stroke-width: 1.2"/>
    <path d="M 144.736189 61.484478 
L 142.866823 107.629071 
" clip-path="url(#p8524e0703b)" style="fill: none; stroke: #000000; stroke-width: 1.2"/>
    <path d="M 98.638046 74.625447 
L 129.006755 63.34988 
" clip-path="url(#p8524e0703b)" style="fill: none; stroke: #000000; stroke-width: 1.2"/>
    <path d="M 98.638046 74.625447 
L 150.196361 77.114418 
" clip-path="url(#p8524e0703b)" style="fill: none; stroke: #000000; stroke-width: 1.2"/>
    <path d="M 98.638046 74.625447 
L 64.877536 73.073665 
" clip-path="url(#p8524e0703b)" style="fill: none; stroke: #000000; stroke-width: 1.2"/>
    <path d="M 98.638046 74.625447 
L 62.49175 105.435459 
" clip-path="url(#p8524e0703b)" style="fill: none; stroke: #000000; stroke-width: 1.2"/>
    <path d="M 98.638046 74.625447 
L 97.818271 111.337151 
" clip-path="url(#p8524e0703b)" style="fill: none; stroke: #000000; stroke-width: 1.2"/>
    <path d="M 98.638046 74.625447 
L 127.493428 116.03237 
" clip-path="url(#p8524e0703b)" style="fill: none; stroke: #000000; stroke-width: 1.2"/>
    <path d="M 129.006755 63.34988 
L 150.196361 77.114418 
" clip-path="url(#p8524e0703b)" style="fill: none; stroke: #000000; stroke-width: 1.2"/>
    <path d="M 129.006755 63.34988 
L 64.877536 73.073665 
" clip-path="url(#p8524e0703b)" style="fill: none; stroke: #000000; stroke-width: 1.2"/>
    <path d="M 129.006755 63.34988 
L 125.889852 93.45141 
" clip-path="url(#p8524e0703b)" style="fill: none; stroke: #000000; stroke-width: 1.2"/>
    <path d="M 129.006755 63.34988 
L 97.818271 111.337151 
" clip-path="url(#p8524e0703b)" style="fill: none; stroke: #000000; stroke-width: 1.2"/>
    <path d="M 129.006755 63.34988 
L 141.712813 101.601633 
" clip-path="url(#p8524e0703b)" style="fill: none; stroke: #000000; stroke-width: 1.2"/>
    <path d="M 150.196361 77.114418 
L 114.473583 67.533738 
" clip-path="url(#p8524e0703b)" style="fill: none; stroke: #000000; stroke-width: 1.2"/>
    <path d="M 150.196361 77.114418 
L 85.96401 63.90239 
" clip-path="url(#p8524e0703b)" style="fill: none; stroke: #000000; stroke-width: 1.2"/>
    <path d="M 150.196361 77.114418 
L 127.493428 116.03237 
" clip-path="url(#p8524e0703b)" style="fill: none; stroke: #000000; stroke-width: 1.2"/>
    <path d="M 150.196361 77.114418 
L 141.712813 101.601633 
" clip-path="url(#p8524e0703b)" style="fill: none; stroke: #000000; stroke-width: 1.2"/>
    <path d="M 150.196361 77.114418 
L 112.677248 106.485178 
" clip-path="url(#p8524e0703b)" style="fill: none; stroke: #000000; stroke-width: 1.2"/>
    <path d="M 114.473583 67.533738 
L 85.96401 63.90239 
" clip-path="url(#p8524e0703b)" style="fill: none; stroke: #000000; stroke-width: 1.2"/>
    <path d="M 114.473583 67.533738 
L 64.877536 73.073665 
" clip-path="url(#p8524e0703b)" style="fill: none; stroke: #000000; stroke-width: 1.2"/>
    <path d="M 114.473583 67.533738 
L 142.866823 107.629071 
" clip-path="url(#p8524e0703b)" style="fill: none; stroke: #000000; stroke-width: 1.2"/>
    <path d="M 114.473583 67.533738 
L 112.677248 106.485178 
" clip-path="url(#p8524e0703b)" style="fill: none; stroke: #000000; stroke-width: 1.2"/>
    <path d="M 114.473583 67.533738 
L 78.799675 104.641212 
" clip-path="url(#p8524e0703b)" style="fill: none; stroke: #000000; stroke-width: 1.2"/>
    <path d="M 85.96401 63.90239 
L 64.877536 73.073665 
" clip-path="url(#p8524e0703b)" style="fill: none; stroke: #000000; stroke-width: 1.2"/>
    <path d="M 85.96401 63.90239 
L 78.171599 90.43367 
" clip-path="url(#p8524e0703b)" style="fill: none; stroke: #000000; stroke-width: 1.2"/>
    <path d="M 85.96401 63.90239 
L 112.677248 106.485178 
" clip-path="url(#p8524e0703b)" style="fill: none; stroke: #000000; stroke-width: 1.2"/>
    <path d="M 85.96401 63.90239 
L 62.565244 97.29992 
" clip-path="url(#p8524e0703b)" style="fill: none; stroke: #000000; stroke-width: 1.2"/>
    <path d="M 64.877536 73.073665 
L 97.818271 111.337151 
" clip-path="url(#p8524e0703b)" style="fill: none; stroke: #000000; stroke-width: 1.2"/>
    <path d="M 64.877536 73.073665 
L 78.799675 104.641212 
" clip-path="url(#p8524e0703b)" style="fill: none; stroke: #000000; stroke-width: 1.2"/>
    <path d="M 64.877536 73.073665 
L 62.565244 97.29992 
" clip-path="url(#p8524e0703b)" style="fill: none; stroke: #000000; stroke-width: 1.2"/>
    <path d="M 108.089898 92.589323 
L 78.171599 90.43367 
" clip-path="url(#p8524e0703b)" style="fill: none; stroke: #000000; stroke-width: 1.2"/>
    <path d="M 108.089898 92.589323 
L 62.49175 105.435459 
" clip-path="url(#p8524e0703b)" style="fill: none; stroke: #000000; stroke-width: 1.2"/>
    <path d="M 108.089898 92.589323 
L 125.889852 93.45141 
" clip-path="url(#p8524e0703b)" style="fill: none; stroke: #000000; stroke-width: 1.2"/>
    <path d="M 108.089898 92.589323 
L 142.866823 107.629071 
" clip-path="url(#p8524e0703b)" style="fill: none; stroke: #000000; stroke-width: 1.2"/>
    <path d="M 108.089898 92.589323 
L 141.712813 101.601633 
" clip-path="url(#p8524e0703b)" style="fill: none; stroke: #000000; stroke-width: 1.2"/>
    <path d="M 108.089898 92.589323 
L 78.799675 104.641212 
" clip-path="url(#p8524e0703b)" style="fill: none; stroke: #000000; stroke-width: 1.2"/>
    <path d="M 108.089898 92.589323 
L 141.863786 128.285402 
" clip-path="url(#p8524e0703b)" style="fill: none; stroke: #000000; stroke-width: 1.2"/>
    <path d="M 108.089898 92.589323 
L 72.073588 127.769812 
" clip-path="url(#p8524e0703b)" style="fill: none; stroke: #000000; stroke-width: 1.2"/>
    <path d="M 108.089898 92.589323 
L 105.596134 142.978882 
" clip-path="url(#p8524e0703b)" style="fill: none; stroke: #000000; stroke-width: 1.2"/>
    <path d="M 78.171599 90.43367 
L 62.49175 105.435459 
" clip-path="url(#p8524e0703b)" style="fill: none; stroke: #000000; stroke-width: 1.2"/>
    <path d="M 78.171599 90.43367 
L 93.496642 101.538441 
" clip-path="url(#p8524e0703b)" style="fill: none; stroke: #000000; stroke-width: 1.2"/>
    <path d="M 78.171599 90.43367 
L 141.712813 101.601633 
" clip-path="url(#p8524e0703b)" style="fill: none; stroke: #000000; stroke-width: 1.2"/>
    <path d="M 78.171599 90.43367 
L 112.677248 106.485178 
" clip-path="url(#p8524e0703b)" style="fill: none; stroke: #000000; stroke-width: 1.2"/>
    <path d="M 78.171599 90.43367 
L 62.565244 97.29992 
" clip-path="url(#p8524e0703b)" style="fill: none; stroke: #000000; stroke-width: 1.2"/>
    <path d="M 78.171599 90.43367 
L 72.073588 127.769812 
" clip-path="url(#p8524e0703b)" style="fill: none; stroke: #000000; stroke-width: 1.2"/>
    <path d="M 78.171599 90.43367 
L 55.368595 127.617343 
" clip-path="url(#p8524e0703b)" style="fill: none; stroke: #000000; stroke-width: 1.2"/>
    <path d="M 78.171599 90.43367 
L 105.616924 133.339768 
" clip-path="url(#p8524e0703b)" style="fill: none; stroke: #000000; stroke-width: 1.2"/>
    <path d="M 62.49175 105.435459 
L 93.496642 101.538441 
" clip-path="url(#p8524e0703b)" style="fill: none; stroke: #000000; stroke-width: 1.2"/>
    <path d="M 62.49175 105.435459 
L 97.818271 111.337151 
" clip-path="url(#p8524e0703b)" style="fill: none; stroke: #000000; stroke-width: 1.2"/>
    <path d="M 62.49175 105.435459 
L 127.493428 116.03237 
" clip-path="url(#p8524e0703b)" style="fill: none; stroke: #000000; stroke-width: 1.2"/>
    <path d="M 62.49175 105.435459 
L 78.799675 104.641212 
" clip-path="url(#p8524e0703b)" style="fill: none; stroke: #000000; stroke-width: 1.2"/>
    <path d="M 62.49175 105.435459 
L 72.073588 127.769812 
" clip-path="url(#p8524e0703b)" style="fill: none; stroke: #000000; stroke-width: 1.2"/>
    <path d="M 62.49175 105.435459 
L 90.399387 150.748378 
" clip-path="url(#p8524e0703b)" style="fill: none; stroke: #000000; stroke-width: 1.2"/>
    <path d="M 62.49175 105.435459 
L 61.848148 143.843454 
" clip-path="url(#p8524e0703b)" style="fill: none; stroke: #000000; stroke-width: 1.2"/>
    <path d="M 93.496642 101.538441 
L 125.889852 93.45141 
" clip-path="url(#p8524e0703b)" style="fill: none; stroke: #000000; stroke-width: 1.2"/>
    <path d="M 93.496642 101.538441 
L 142.866823 107.629071 
" clip-path="url(#p8524e0703b)" style="fill: none; stroke: #000000; stroke-width: 1.2"/>
    <path d="M 93.496642 101.538441 
L 127.493428 116.03237 
" clip-path="url(#p8524e0703b)" style="fill: none; stroke: #000000; stroke-width: 1.2"/>
    <path d="M 93.496642 101.538441 
L 62.565244 97.29992 
" clip-path="url(#p8524e0703b)" style="fill: none; stroke: #000000; stroke-width: 1.2"/>
    <path d="M 93.496642 101.538441 
L 90.399387 150.748378 
" clip-path="url(#p8524e0703b)" style="fill: none; stroke: #000000; stroke-width: 1.2"/>
    <path d="M 93.496642 101.538441 
L 55.368595 127.617343 
" clip-path="url(#p8524e0703b)" style="fill: none; stroke: #000000; stroke-width: 1.2"/>
    <path d="M 93.496642 101.538441 
L 123.177232 133.800102 
" clip-path="url(#p8524e0703b)" style="fill: none; stroke: #000000; stroke-width: 1.2"/>
    <path d="M 125.889852 93.45141 
L 142.866823 107.629071 
" clip-path="url(#p8524e0703b)" style="fill: none; stroke: #000000; stroke-width: 1.2"/>
    <path d="M 125.889852 93.45141 
L 97.818271 111.337151 
" clip-path="url(#p8524e0703b)" style="fill: none; stroke: #000000; stroke-width: 1.2"/>
    <path d="M 125.889852 93.45141 
L 141.712813 101.601633 
" clip-path="url(#p8524e0703b)" style="fill: none; stroke: #000000; stroke-width: 1.2"/>
    <path d="M 125.889852 93.45141 
L 62.565244 97.29992 
" clip-path="url(#p8524e0703b)" style="fill: none; stroke: #000000; stroke-width: 1.2"/>
    <path d="M 125.889852 93.45141 
L 141.863786 128.285402 
" clip-path="url(#p8524e0703b)" style="fill: none; stroke: #000000; stroke-width: 1.2"/>
    <path d="M 125.889852 93.45141 
L 123.177232 133.800102 
" clip-path="url(#p8524e0703b)" style="fill: none; stroke: #000000; stroke-width: 1.2"/>
    <path d="M 125.889852 93.45141 
L 90.650227 136.101258 
" clip-path="url(#p8524e0703b)" style="fill: none; stroke: #000000; stroke-width: 1.2"/>
    <path d="M 142.866823 107.629071 
L 127.493428 116.03237 
" clip-path="url(#p8524e0703b)" style="fill: none; stroke: #000000; stroke-width: 1.2"/>
    <path d="M 142.866823 107.629071 
L 112.677248 106.485178 
" clip-path="url(#p8524e0703b)" style="fill: none; stroke: #000000; stroke-width: 1.2"/>
    <path d="M 142.866823 107.629071 
L 78.799675 104.641212 
" clip-path="url(#p8524e0703b)" style="fill: none; stroke: #000000; stroke-width: 1.2"/>
    <path d="M 142.866823 107.629071 
L 123.177232 133.800102 
" clip-path="url(#p8524e0703b)" style="fill: none; stroke: #000000; stroke-width: 1.2"/>
    <path d="M 142.866823 107.629071 
L 105.596134 142.978882 
" clip-path="url(#p8524e0703b)" style="fill: none; stroke: #000000; stroke-width: 1.2"/>
    <path d="M 142.866823 107.629071 
L 137.60187 147.450149 
" clip-path="url(#p8524e0703b)" style="fill: none; stroke: #000000; stroke-width: 1.2"/>
    <path d="M 97.818271 111.337151 
L 127.493428 116.03237 
" clip-path="url(#p8524e0703b)" style="fill: none; stroke: #000000; stroke-width: 1.2"/>
    <path d="M 97.818271 111.337151 
L 141.712813 101.601633 
" clip-path="url(#p8524e0703b)" style="fill: none; stroke: #000000; stroke-width: 1.2"/>
    <path d="M 97.818271 111.337151 
L 78.799675 104.641212 
" clip-path="url(#p8524e0703b)" style="fill: none; stroke: #000000; stroke-width: 1.2"/>
    <path d="M 97.818271 111.337151 
L 62.565244 97.29992 
" clip-path="url(#p8524e0703b)" style="fill: none; stroke: #000000; stroke-width: 1.2"/>
    <path d="M 97.818271 111.337151 
L 61.848148 143.843454 
" clip-path="url(#p8524e0703b)" style="fill: none; stroke: #000000; stroke-width: 1.2"/>
    <path d="M 97.818271 111.337151 
L 122.205177 151.821782 
" clip-path="url(#p8524e0703b)" style="fill: none; stroke: #000000; stroke-width: 1.2"/>
    <path d="M 97.818271 111.337151 
L 90.650227 136.101258 
" clip-path="url(#p8524e0703b)" style="fill: none; stroke: #000000; stroke-width: 1.2"/>
    <path d="M 127.493428 116.03237 
L 141.712813 101.601633 
" clip-path="url(#p8524e0703b)" style="fill: none; stroke: #000000; stroke-width: 1.2"/>
    <path d="M 127.493428 116.03237 
L 112.677248 106.485178 
" clip-path="url(#p8524e0703b)" style="fill: none; stroke: #000000; stroke-width: 1.2"/>
    <path d="M 127.493428 116.03237 
L 90.399387 150.748378 
" clip-path="url(#p8524e0703b)" style="fill: none; stroke: #000000; stroke-width: 1.2"/>
    <path d="M 127.493428 116.03237 
L 122.205177 151.821782 
" clip-path="url(#p8524e0703b)" style="fill: none; stroke: #000000; stroke-width: 1.2"/>
    <path d="M 127.493428 116.03237 
L 137.60187 147.450149 
" clip-path="url(#p8524e0703b)" style="fill: none; stroke: #000000; stroke-width: 1.2"/>
    <path d="M 141.712813 101.601633 
L 112.677248 106.485178 
" clip-path="url(#p8524e0703b)" style="fill: none; stroke: #000000; stroke-width: 1.2"/>
    <path d="M 141.712813 101.601633 
L 141.863786 128.285402 
" clip-path="url(#p8524e0703b)" style="fill: none; stroke: #000000; stroke-width: 1.2"/>
    <path d="M 141.712813 101.601633 
L 122.205177 151.821782 
" clip-path="url(#p8524e0703b)" style="fill: none; stroke: #000000; stroke-width: 1.2"/>
    <path d="M 141.712813 101.601633 
L 105.616924 133.339768 
" clip-path="url(#p8524e0703b)" style="fill: none; stroke: #000000; stroke-width: 1.2"/>
    <path d="M 112.677248 106.485178 
L 78.799675 104.641212 
" clip-path="url(#p8524e0703b)" style="fill: none; stroke: #000000; stroke-width: 1.2"/>
    <path d="M 112.677248 106.485178 
L 62.565244 97.29992 
" clip-path="url(#p8524e0703b)" style="fill: none; stroke: #000000; stroke-width: 1.2"/>
    <path d="M 112.677248 106.485178 
L 105.616924 133.339768 
" clip-path="url(#p8524e0703b)" style="fill: none; stroke: #000000; stroke-width: 1.2"/>
    <path d="M 112.677248 106.485178 
L 137.60187 147.450149 
" clip-path="url(#p8524e0703b)" style="fill: none; stroke: #000000; stroke-width: 1.2"/>
    <path d="M 112.677248 106.485178 
L 76.12988 144.680229 
" clip-path="url(#p8524e0703b)" style="fill: none; stroke: #000000; stroke-width: 1.2"/>
    <path d="M 78.799675 104.641212 
L 62.565244 97.29992 
" clip-path="url(#p8524e0703b)" style="fill: none; stroke: #000000; stroke-width: 1.2"/>
    <path d="M 78.799675 104.641212 
L 105.596134 142.978882 
" clip-path="url(#p8524e0703b)" style="fill: none; stroke: #000000; stroke-width: 1.2"/>
    <path d="M 78.799675 104.641212 
L 61.848148 143.843454 
" clip-path="url(#p8524e0703b)" style="fill: none; stroke: #000000; stroke-width: 1.2"/>
    <path d="M 78.799675 104.641212 
L 76.12988 144.680229 
" clip-path="url(#p8524e0703b)" style="fill: none; stroke: #000000; stroke-width: 1.2"/>
    <path d="M 62.565244 97.29992 
L 55.368595 127.617343 
" clip-path="url(#p8524e0703b)" style="fill: none; stroke: #000000; stroke-width: 1.2"/>
    <path d="M 62.565244 97.29992 
L 76.12988 144.680229 
" clip-path="url(#p8524e0703b)" style="fill: none; stroke: #000000; stroke-width: 1.2"/>
    <path d="M 62.565244 97.29992 
L 90.650227 136.101258 
" clip-path="url(#p8524e0703b)" style="fill: none; stroke: #000000; stroke-width: 1.2"/>
    <path d="M 141.863786 128.285402 
L 72.073588 127.769812 
" clip-path="url(#p8524e0703b)" style="fill: none; stroke: #000000; stroke-width: 1.2"/>
    <path d="M 141.863786 128.285402 
L 123.177232 133.800102 
" clip-path="url(#p8524e0703b)" style="fill: none; stroke: #000000; stroke-width: 1.2"/>
    <path d="M 141.863786 128.285402 
L 105.596134 142.978882 
" clip-path="url(#p8524e0703b)" style="fill: none; stroke: #000000; stroke-width: 1.2"/>
    <path d="M 141.863786 128.285402 
L 122.205177 151.821782 
" clip-path="url(#p8524e0703b)" style="fill: none; stroke: #000000; stroke-width: 1.2"/>
    <path d="M 141.863786 128.285402 
L 105.616924 133.339768 
" clip-path="url(#p8524e0703b)" style="fill: none; stroke: #000000; stroke-width: 1.2"/>
    <path d="M 141.863786 128.285402 
L 90.650227 136.101258 
" clip-path="url(#p8524e0703b)" style="fill: none; stroke: #000000; stroke-width: 1.2"/>
    <path d="M 72.073588 127.769812 
L 90.399387 150.748378 
" clip-path="url(#p8524e0703b)" style="fill: none; stroke: #000000; stroke-width: 1.2"/>
    <path d="M 72.073588 127.769812 
L 55.368595 127.617343 
" clip-path="url(#p8524e0703b)" style="fill: none; stroke: #000000; stroke-width: 1.2"/>
    <path d="M 72.073588 127.769812 
L 105.596134 142.978882 
" clip-path="url(#p8524e0703b)" style="fill: none; stroke: #000000; stroke-width: 1.2"/>
    <path d="M 72.073588 127.769812 
L 61.848148 143.843454 
" clip-path="url(#p8524e0703b)" style="fill: none; stroke: #000000; stroke-width: 1.2"/>
    <path d="M 72.073588 127.769812 
L 105.616924 133.339768 
" clip-path="url(#p8524e0703b)" style="fill: none; stroke: #000000; stroke-width: 1.2"/>
    <path d="M 90.399387 150.748378 
L 55.368595 127.617343 
" clip-path="url(#p8524e0703b)" style="fill: none; stroke: #000000; stroke-width: 1.2"/>
    <path d="M 90.399387 150.748378 
L 123.177232 133.800102 
" clip-path="url(#p8524e0703b)" style="fill: none; stroke: #000000; stroke-width: 1.2"/>
    <path d="M 90.399387 150.748378 
L 61.848148 143.843454 
" clip-path="url(#p8524e0703b)" style="fill: none; stroke: #000000; stroke-width: 1.2"/>
    <path d="M 90.399387 150.748378 
L 122.205177 151.821782 
" clip-path="url(#p8524e0703b)" style="fill: none; stroke: #000000; stroke-width: 1.2"/>
    <path d="M 90.399387 150.748378 
L 137.60187 147.450149 
" clip-path="url(#p8524e0703b)" style="fill: none; stroke: #000000; stroke-width: 1.2"/>
    <path d="M 90.399387 150.748378 
L 116.469969 180.123211 
" clip-path="url(#p8524e0703b)" style="fill: none; stroke: #000000; stroke-width: 1.2"/>
    <path d="M 55.368595 127.617343 
L 123.177232 133.800102 
" clip-path="url(#p8524e0703b)" style="fill: none; stroke: #000000; stroke-width: 1.2"/>
    <path d="M 55.368595 127.617343 
L 105.616924 133.339768 
" clip-path="url(#p8524e0703b)" style="fill: none; stroke: #000000; stroke-width: 1.2"/>
    <path d="M 55.368595 127.617343 
L 76.12988 144.680229 
" clip-path="url(#p8524e0703b)" style="fill: none; stroke: #000000; stroke-width: 1.2"/>
    <path d="M 55.368595 127.617343 
L 90.650227 136.101258 
" clip-path="url(#p8524e0703b)" style="fill: none; stroke: #000000; stroke-width: 1.2"/>
    <path d="M 123.177232 133.800102 
L 105.596134 142.978882 
" clip-path="url(#p8524e0703b)" style="fill: none; stroke: #000000; stroke-width: 1.2"/>
    <path d="M 123.177232 133.800102 
L 137.60187 147.450149 
" clip-path="url(#p8524e0703b)" style="fill: none; stroke: #000000; stroke-width: 1.2"/>
    <path d="M 123.177232 133.800102 
L 90.650227 136.101258 
" clip-path="url(#p8524e0703b)" style="fill: none; stroke: #000000; stroke-width: 1.2"/>
    <path d="M 105.596134 142.978882 
L 61.848148 143.843454 
" clip-path="url(#p8524e0703b)" style="fill: none; stroke: #000000; stroke-width: 1.2"/>
    <path d="M 105.596134 142.978882 
L 137.60187 147.450149 
" clip-path="url(#p8524e0703b)" style="fill: none; stroke: #000000; stroke-width: 1.2"/>
    <path d="M 105.596134 142.978882 
L 76.12988 144.680229 
" clip-path="url(#p8524e0703b)" style="fill: none; stroke: #000000; stroke-width: 1.2"/>
    <path d="M 61.848148 143.843454 
L 122.205177 151.821782 
" clip-path="url(#p8524e0703b)" style="fill: none; stroke: #000000; stroke-width: 1.2"/>
    <path d="M 61.848148 143.843454 
L 76.12988 144.680229 
" clip-path="url(#p8524e0703b)" style="fill: none; stroke: #000000; stroke-width: 1.2"/>
    <path d="M 61.848148 143.843454 
L 90.650227 136.101258 
" clip-path="url(#p8524e0703b)" style="fill: none; stroke: #000000; stroke-width: 1.2"/>
    <path d="M 122.205177 151.821782 
L 105.616924 133.339768 
" clip-path="url(#p8524e0703b)" style="fill: none; stroke: #000000; stroke-width: 1.2"/>
    <path d="M 122.205177 151.821782 
L 137.60187 147.450149 
" clip-path="url(#p8524e0703b)" style="fill: none; stroke: #000000; stroke-width: 1.2"/>
    <path d="M 122.205177 151.821782 
L 90.650227 136.101258 
" clip-path="url(#p8524e0703b)" style="fill: none; stroke: #000000; stroke-width: 1.2"/>
    <path d="M 122.205177 151.821782 
L 116.469969 180.123211 
" clip-path="url(#p8524e0703b)" style="fill: none; stroke: #000000; stroke-width: 1.2"/>
    <path d="M 122.205177 151.821782 
L 156.306298 174.216117 
" clip-path="url(#p8524e0703b)" style="fill: none; stroke: #000000; stroke-width: 1.2"/>
    <path d="M 105.616924 133.339768 
L 137.60187 147.450149 
" clip-path="url(#p8524e0703b)" style="fill: none; stroke: #000000; stroke-width: 1.2"/>
    <path d="M 105.616924 133.339768 
L 76.12988 144.680229 
" clip-path="url(#p8524e0703b)" style="fill: none; stroke: #000000; stroke-width: 1.2"/>
    <path d="M 137.60187 147.450149 
L 76.12988 144.680229 
" clip-path="url(#p8524e0703b)" style="fill: none; stroke: #000000; stroke-width: 1.2"/>
    <path d="M 137.60187 147.450149 
L 116.469969 180.123211 
" clip-path="url(#p8524e0703b)" style="fill: none; stroke: #000000; stroke-width: 1.2"/>
    <path d="M 137.60187 147.450149 
L 156.306298 174.216117 
" clip-path="url(#p8524e0703b)" style="fill: none; stroke: #000000; stroke-width: 1.2"/>
    <path d="M 76.12988 144.680229 
L 90.650227 136.101258 
" clip-path="url(#p8524e0703b)" style="fill: none; stroke: #000000; stroke-width: 1.2"/>
    <path d="M 186.340125 237.076364 
L 192.028214 195.762102 
" clip-path="url(#p8524e0703b)" style="fill: none; stroke: #000000; stroke-width: 1.2"/>
    <path d="M 221.538767 218.890745 
L 192.028214 195.762102 
" clip-path="url(#p8524e0703b)" style="fill: none; stroke: #000000; stroke-width: 1.2"/>
    <path d="M 239.831405 189.234186 
L 192.028214 195.762102 
" clip-path="url(#p8524e0703b)" style="fill: none; stroke: #000000; stroke-width: 1.2"/>
    <path d="M 93.93204 213.813388 
L 116.469969 180.123211 
" clip-path="url(#p8524e0703b)" style="fill: none; stroke: #000000; stroke-width: 1.2"/>
    <path d="M 116.469969 180.123211 
L 156.306298 174.216117 
" clip-path="url(#p8524e0703b)" style="fill: none; stroke: #000000; stroke-width: 1.2"/>
    <path d="M 156.306298 174.216117 
L 192.028214 195.762102 
" clip-path="url(#p8524e0703b)" style="fill: none; stroke: #000000; stroke-width: 1.2"/>
   </g>
   <g id="PathCollection_1">
    <defs>
     <path id="C0_0_ae21a24681" d="M 0 8.944272 
C 2.372049 8.944272 4.647264 8.001847 6.324555 6.324555 
C 8.001847 4.647264 8.944272 2.372049 8.944272 -0 
C 8.944272 -2.372049 8.001847 -4.647264 6.324555 -6.324555 
C 4.647264 -8.001847 2.372049 -8.944272 0 -8.944272 
C -2.372049 -8.944272 -4.647264 -8.001847 -6.324555 -6.324555 
C -8.001847 -4.647264 -8.944272 -2.372049 -8.944272 0 
C -8.944272 2.372049 -8.001847 4.647264 -6.324555 6.324555 
C -4.647264 8.001847 -2.372049 8.944272 0 8.944272 
z
"/>
    </defs>
    <g clip-path="url(#p8524e0703b)">
     <use xlink:href="#C0_0_ae21a24681" x="114.408908" y="53.803636" style="fill: #006985; stroke: #006985; stroke-width: 0.5"/>
    </g>
    <g clip-path="url(#p8524e0703b)">
     <use xlink:href="#C0_0_ae21a24681" x="81.114325" y="56.468528" style="fill: #006985; stroke: #006985; stroke-width: 0.5"/>
    </g>
    <g clip-path="url(#p8524e0703b)">
     <use xlink:href="#C0_0_ae21a24681" x="64.055814" y="64.124732" style="fill: #006985; stroke: #006985; stroke-width: 0.5"/>
    </g>
    <g clip-path="url(#p8524e0703b)">
     <use xlink:href="#C0_0_ae21a24681" x="98.549202" y="54.359383" style="fill: #006985; stroke: #006985; stroke-width: 0.5"/>
    </g>
    <g clip-path="url(#p8524e0703b)">
     <use xlink:href="#C0_0_ae21a24681" x="132.733837" y="75.270202" style="fill: #006985; stroke: #006985; stroke-width: 0.5"/>
    </g>
    <g clip-path="url(#p8524e0703b)">
     <use xlink:href="#C0_0_ae21a24681" x="144.736189" y="61.484478" style="fill: #006985; stroke: #006985; stroke-width: 0.5"/>
    </g>
    <g clip-path="url(#p8524e0703b)">
     <use xlink:href="#C0_0_ae21a24681" x="98.638046" y="74.625447" style="fill: #006985; stroke: #006985; stroke-width: 0.5"/>
    </g>
    <g clip-path="url(#p8524e0703b)">
     <use xlink:href="#C0_0_ae21a24681" x="129.006755" y="63.34988" style="fill: #006985; stroke: #006985; stroke-width: 0.5"/>
    </g>
    <g clip-path="url(#p8524e0703b)">
     <use xlink:href="#C0_0_ae21a24681" x="150.196361" y="77.114418" style="fill: #006985; stroke: #006985; stroke-width: 0.5"/>
    </g>
    <g clip-path="url(#p8524e0703b)">
     <use xlink:href="#C0_0_ae21a24681" x="114.473583" y="67.533738" style="fill: #006985; stroke: #006985; stroke-width: 0.5"/>
    </g>
    <g clip-path="url(#p8524e0703b)">
     <use xlink:href="#C0_0_ae21a24681" x="85.96401" y="63.90239" style="fill: #006985; stroke: #006985; stroke-width: 0.5"/>
    </g>
    <g clip-path="url(#p8524e0703b)">
     <use xlink:href="#C0_0_ae21a24681" x="64.877536" y="73.073665" style="fill: #006985; stroke: #006985; stroke-width: 0.5"/>
    </g>
    <g clip-path="url(#p8524e0703b)">
     <use xlink:href="#C0_0_ae21a24681" x="108.089898" y="92.589323" style="fill: #006985; stroke: #006985; stroke-width: 0.5"/>
    </g>
    <g clip-path="url(#p8524e0703b)">
     <use xlink:href="#C0_0_ae21a24681" x="78.171599" y="90.43367" style="fill: #006985; stroke: #006985; stroke-width: 0.5"/>
    </g>
    <g clip-path="url(#p8524e0703b)">
     <use xlink:href="#C0_0_ae21a24681" x="62.49175" y="105.435459" style="fill: #006985; stroke: #006985; stroke-width: 0.5"/>
    </g>
    <g clip-path="url(#p8524e0703b)">
     <use xlink:href="#C0_0_ae21a24681" x="93.496642" y="101.538441" style="fill: #006985; stroke: #006985; stroke-width: 0.5"/>
    </g>
    <g clip-path="url(#p8524e0703b)">
     <use xlink:href="#C0_0_ae21a24681" x="125.889852" y="93.45141" style="fill: #006985; stroke: #006985; stroke-width: 0.5"/>
    </g>
    <g clip-path="url(#p8524e0703b)">
     <use xlink:href="#C0_0_ae21a24681" x="142.866823" y="107.629071" style="fill: #006985; stroke: #006985; stroke-width: 0.5"/>
    </g>
    <g clip-path="url(#p8524e0703b)">
     <use xlink:href="#C0_0_ae21a24681" x="97.818271" y="111.337151" style="fill: #006985; stroke: #006985; stroke-width: 0.5"/>
    </g>
    <g clip-path="url(#p8524e0703b)">
     <use xlink:href="#C0_0_ae21a24681" x="127.493428" y="116.03237" style="fill: #006985; stroke: #006985; stroke-width: 0.5"/>
    </g>
    <g clip-path="url(#p8524e0703b)">
     <use xlink:href="#C0_0_ae21a24681" x="141.712813" y="101.601633" style="fill: #006985; stroke: #006985; stroke-width: 0.5"/>
    </g>
    <g clip-path="url(#p8524e0703b)">
     <use xlink:href="#C0_0_ae21a24681" x="112.677248" y="106.485178" style="fill: #006985; stroke: #006985; stroke-width: 0.5"/>
    </g>
    <g clip-path="url(#p8524e0703b)">
     <use xlink:href="#C0_0_ae21a24681" x="78.799675" y="104.641212" style="fill: #006985; stroke: #006985; stroke-width: 0.5"/>
    </g>
    <g clip-path="url(#p8524e0703b)">
     <use xlink:href="#C0_0_ae21a24681" x="62.565244" y="97.29992" style="fill: #006985; stroke: #006985; stroke-width: 0.5"/>
    </g>
    <g clip-path="url(#p8524e0703b)">
     <use xlink:href="#C0_0_ae21a24681" x="141.863786" y="128.285402" style="fill: #006985; stroke: #006985; stroke-width: 0.5"/>
    </g>
    <g clip-path="url(#p8524e0703b)">
     <use xlink:href="#C0_0_ae21a24681" x="72.073588" y="127.769812" style="fill: #006985; stroke: #006985; stroke-width: 0.5"/>
    </g>
    <g clip-path="url(#p8524e0703b)">
     <use xlink:href="#C0_0_ae21a24681" x="90.399387" y="150.748378" style="fill: #006985; stroke: #006985; stroke-width: 0.5"/>
    </g>
    <g clip-path="url(#p8524e0703b)">
     <use xlink:href="#C0_0_ae21a24681" x="55.368595" y="127.617343" style="fill: #006985; stroke: #006985; stroke-width: 0.5"/>
    </g>
    <g clip-path="url(#p8524e0703b)">
     <use xlink:href="#C0_0_ae21a24681" x="123.177232" y="133.800102" style="fill: #006985; stroke: #006985; stroke-width: 0.5"/>
    </g>
    <g clip-path="url(#p8524e0703b)">
     <use xlink:href="#C0_0_ae21a24681" x="105.596134" y="142.978882" style="fill: #006985; stroke: #006985; stroke-width: 0.5"/>
    </g>
    <g clip-path="url(#p8524e0703b)">
     <use xlink:href="#C0_0_ae21a24681" x="61.848148" y="143.843454" style="fill: #006985; stroke: #006985; stroke-width: 0.5"/>
    </g>
    <g clip-path="url(#p8524e0703b)">
     <use xlink:href="#C0_0_ae21a24681" x="122.205177" y="151.821782" style="fill: #006985; stroke: #006985; stroke-width: 0.5"/>
    </g>
    <g clip-path="url(#p8524e0703b)">
     <use xlink:href="#C0_0_ae21a24681" x="105.616924" y="133.339768" style="fill: #006985; stroke: #006985; stroke-width: 0.5"/>
    </g>
    <g clip-path="url(#p8524e0703b)">
     <use xlink:href="#C0_0_ae21a24681" x="137.60187" y="147.450149" style="fill: #006985; stroke: #006985; stroke-width: 0.5"/>
    </g>
    <g clip-path="url(#p8524e0703b)">
     <use xlink:href="#C0_0_ae21a24681" x="76.12988" y="144.680229" style="fill: #006985; stroke: #006985; stroke-width: 0.5"/>
    </g>
    <g clip-path="url(#p8524e0703b)">
     <use xlink:href="#C0_0_ae21a24681" x="90.650227" y="136.101258" style="fill: #006985; stroke: #006985; stroke-width: 0.5"/>
    </g>
    <g clip-path="url(#p8524e0703b)">
     <use xlink:href="#C0_0_ae21a24681" x="186.340125" y="237.076364" style="fill: #bfbfbf; stroke: #bfbfbf; stroke-width: 0.5"/>
    </g>
    <g clip-path="url(#p8524e0703b)">
     <use xlink:href="#C0_0_ae21a24681" x="221.538767" y="218.890745" style="fill: #bfbfbf; stroke: #bfbfbf; stroke-width: 0.5"/>
    </g>
    <g clip-path="url(#p8524e0703b)">
     <use xlink:href="#C0_0_ae21a24681" x="239.831405" y="189.234186" style="fill: #bfbfbf; stroke: #bfbfbf; stroke-width: 0.5"/>
    </g>
    <g clip-path="url(#p8524e0703b)">
     <use xlink:href="#C0_0_ae21a24681" x="93.93204" y="213.813388" style="fill: #bfbfbf; stroke: #bfbfbf; stroke-width: 0.5"/>
    </g>
    <g clip-path="url(#p8524e0703b)">
     <use xlink:href="#C0_0_ae21a24681" x="116.469969" y="180.123211" style="fill: #666666; stroke: #666666; stroke-width: 0.5"/>
    </g>
    <g clip-path="url(#p8524e0703b)">
     <use xlink:href="#C0_0_ae21a24681" x="156.306298" y="174.216117" style="fill: #666666; stroke: #666666; stroke-width: 0.5"/>
    </g>
    <g clip-path="url(#p8524e0703b)">
     <use xlink:href="#C0_0_ae21a24681" x="192.028214" y="195.762102" style="fill: #666666; stroke: #666666; stroke-width: 0.5"/>
    </g>
   </g>
   <g id="text_1">
    <!-- C3H4Pd48 -->
    <g transform="translate(118.064917 0.390721) scale(0.1 -0.1)">
     <defs>
      <path id="DejaVuSans-43" d="M 4122 4306 
L 4122 3641 
Q 3803 3938 3442 4084 
Q 3081 4231 2675 4231 
Q 1875 4231 1450 3742 
Q 1025 3253 1025 2328 
Q 1025 1406 1450 917 
Q 1875 428 2675 428 
Q 3081 428 3442 575 
Q 3803 722 4122 1019 
L 4122 359 
Q 3791 134 3420 21 
Q 3050 -91 2638 -91 
Q 1578 -91 968 557 
Q 359 1206 359 2328 
Q 359 3453 968 4101 
Q 1578 4750 2638 4750 
Q 3056 4750 3426 4639 
Q 3797 4528 4122 4306 
z
" transform="scale(0.015625)"/>
      <path id="DejaVuSans-33" d="M 2597 2516 
Q 3050 2419 3304 2112 
Q 3559 1806 3559 1356 
Q 3559 666 3084 287 
Q 2609 -91 1734 -91 
Q 1441 -91 1130 -33 
Q 819 25 488 141 
L 488 750 
Q 750 597 1062 519 
Q 1375 441 1716 441 
Q 2309 441 2620 675 
Q 2931 909 2931 1356 
Q 2931 1769 2642 2001 
Q 2353 2234 1838 2234 
L 1294 2234 
L 1294 2753 
L 1863 2753 
Q 2328 2753 2575 2939 
Q 2822 3125 2822 3475 
Q 2822 3834 2567 4026 
Q 2313 4219 1838 4219 
Q 1578 4219 1281 4162 
Q 984 4106 628 3988 
L 628 4550 
Q 988 4650 1302 4700 
Q 1616 4750 1894 4750 
Q 2613 4750 3031 4423 
Q 3450 4097 3450 3541 
Q 3450 3153 3228 2886 
Q 3006 2619 2597 2516 
z
" transform="scale(0.015625)"/>
      <path id="DejaVuSans-48" d="M 628 4666 
L 1259 4666 
L 1259 2753 
L 3553 2753 
L 3553 4666 
L 4184 4666 
L 4184 0 
L 3553 0 
L 3553 2222 
L 1259 2222 
L 1259 0 
L 628 0 
L 628 4666 
z
" transform="scale(0.015625)"/>
      <path id="DejaVuSans-34" d="M 2419 4116 
L 825 1625 
L 2419 1625 
L 2419 4116 
z
M 2253 4666 
L 3047 4666 
L 3047 1625 
L 3713 1625 
L 3713 1100 
L 3047 1100 
L 3047 0 
L 2419 0 
L 2419 1100 
L 313 1100 
L 313 1709 
L 2253 4666 
z
" transform="scale(0.015625)"/>
      <path id="DejaVuSans-50" d="M 1259 4147 
L 1259 2394 
L 2053 2394 
Q 2494 2394 2734 2622 
Q 2975 2850 2975 3272 
Q 2975 3691 2734 3919 
Q 2494 4147 2053 4147 
L 1259 4147 
z
M 628 4666 
L 2053 4666 
Q 2838 4666 3239 4311 
Q 3641 3956 3641 3272 
Q 3641 2581 3239 2228 
Q 2838 1875 2053 1875 
L 1259 1875 
L 1259 0 
L 628 0 
L 628 4666 
z
" transform="scale(0.015625)"/>
      <path id="DejaVuSans-64" d="M 2906 2969 
L 2906 4863 
L 3481 4863 
L 3481 0 
L 2906 0 
L 2906 525 
Q 2725 213 2448 61 
Q 2172 -91 1784 -91 
Q 1150 -91 751 415 
Q 353 922 353 1747 
Q 353 2572 751 3078 
Q 1150 3584 1784 3584 
Q 2172 3584 2448 3432 
Q 2725 3281 2906 2969 
z
M 947 1747 
Q 947 1113 1208 752 
Q 1469 391 1925 391 
Q 2381 391 2643 752 
Q 2906 1113 2906 1747 
Q 2906 2381 2643 2742 
Q 2381 3103 1925 3103 
Q 1469 3103 1208 2742 
Q 947 2381 947 1747 
z
" transform="scale(0.015625)"/>
      <path id="DejaVuSans-38" d="M 2034 2216 
Q 1584 2216 1326 1975 
Q 1069 1734 1069 1313 
Q 1069 891 1326 650 
Q 1584 409 2034 409 
Q 2484 409 2743 651 
Q 3003 894 3003 1313 
Q 3003 1734 2745 1975 
Q 2488 2216 2034 2216 
z
M 1403 2484 
Q 997 2584 770 2862 
Q 544 3141 544 3541 
Q 544 4100 942 4425 
Q 1341 4750 2034 4750 
Q 2731 4750 3128 4425 
Q 3525 4100 3525 3541 
Q 3525 3141 3298 2862 
Q 3072 2584 2669 2484 
Q 3125 2378 3379 2068 
Q 3634 1759 3634 1313 
Q 3634 634 3220 271 
Q 2806 -91 2034 -91 
Q 1263 -91 848 271 
Q 434 634 434 1313 
Q 434 1759 690 2068 
Q 947 2378 1403 2484 
z
M 1172 3481 
Q 1172 3119 1398 2916 
Q 1625 2713 2034 2713 
Q 2441 2713 2670 2916 
Q 2900 3119 2900 3481 
Q 2900 3844 2670 4047 
Q 2441 4250 2034 4250 
Q 1625 4250 1398 4047 
Q 1172 3844 1172 3481 
z
" transform="scale(0.015625)"/>
     </defs>
     <use xlink:href="#DejaVuSans-43"/>
     <use xlink:href="#DejaVuSans-33" transform="translate(69.824219 0)"/>
     <use xlink:href="#DejaVuSans-48" transform="translate(133.447266 0)"/>
     <use xlink:href="#DejaVuSans-34" transform="translate(208.642578 0)"/>
     <use xlink:href="#DejaVuSans-50" transform="translate(272.265625 0)"/>
     <use xlink:href="#DejaVuSans-64" transform="translate(332.568359 0)"/>
     <use xlink:href="#DejaVuSans-34" transform="translate(396.044922 0)"/>
     <use xlink:href="#DejaVuSans-38" transform="translate(459.667969 0)"/>
    </g>
    <!-- Error: -7.19 eV -->
    <g transform="translate(118.064917 11.588534) scale(0.1 -0.1)">
     <defs>
      <path id="DejaVuSans-45" d="M 628 4666 
L 3578 4666 
L 3578 4134 
L 1259 4134 
L 1259 2753 
L 3481 2753 
L 3481 2222 
L 1259 2222 
L 1259 531 
L 3634 531 
L 3634 0 
L 628 0 
L 628 4666 
z
" transform="scale(0.015625)"/>
      <path id="DejaVuSans-72" d="M 2631 2963 
Q 2534 3019 2420 3045 
Q 2306 3072 2169 3072 
Q 1681 3072 1420 2755 
Q 1159 2438 1159 1844 
L 1159 0 
L 581 0 
L 581 3500 
L 1159 3500 
L 1159 2956 
Q 1341 3275 1631 3429 
Q 1922 3584 2338 3584 
Q 2397 3584 2469 3576 
Q 2541 3569 2628 3553 
L 2631 2963 
z
" transform="scale(0.015625)"/>
      <path id="DejaVuSans-6f" d="M 1959 3097 
Q 1497 3097 1228 2736 
Q 959 2375 959 1747 
Q 959 1119 1226 758 
Q 1494 397 1959 397 
Q 2419 397 2687 759 
Q 2956 1122 2956 1747 
Q 2956 2369 2687 2733 
Q 2419 3097 1959 3097 
z
M 1959 3584 
Q 2709 3584 3137 3096 
Q 3566 2609 3566 1747 
Q 3566 888 3137 398 
Q 2709 -91 1959 -91 
Q 1206 -91 779 398 
Q 353 888 353 1747 
Q 353 2609 779 3096 
Q 1206 3584 1959 3584 
z
" transform="scale(0.015625)"/>
      <path id="DejaVuSans-3a" d="M 750 794 
L 1409 794 
L 1409 0 
L 750 0 
L 750 794 
z
M 750 3309 
L 1409 3309 
L 1409 2516 
L 750 2516 
L 750 3309 
z
" transform="scale(0.015625)"/>
      <path id="DejaVuSans-20" transform="scale(0.015625)"/>
      <path id="DejaVuSans-2d" d="M 313 2009 
L 1997 2009 
L 1997 1497 
L 313 1497 
L 313 2009 
z
" transform="scale(0.015625)"/>
      <path id="DejaVuSans-37" d="M 525 4666 
L 3525 4666 
L 3525 4397 
L 1831 0 
L 1172 0 
L 2766 4134 
L 525 4134 
L 525 4666 
z
" transform="scale(0.015625)"/>
      <path id="DejaVuSans-2e" d="M 684 794 
L 1344 794 
L 1344 0 
L 684 0 
L 684 794 
z
" transform="scale(0.015625)"/>
      <path id="DejaVuSans-31" d="M 794 531 
L 1825 531 
L 1825 4091 
L 703 3866 
L 703 4441 
L 1819 4666 
L 2450 4666 
L 2450 531 
L 3481 531 
L 3481 0 
L 794 0 
L 794 531 
z
" transform="scale(0.015625)"/>
      <path id="DejaVuSans-39" d="M 703 97 
L 703 672 
Q 941 559 1184 500 
Q 1428 441 1663 441 
Q 2288 441 2617 861 
Q 2947 1281 2994 2138 
Q 2813 1869 2534 1725 
Q 2256 1581 1919 1581 
Q 1219 1581 811 2004 
Q 403 2428 403 3163 
Q 403 3881 828 4315 
Q 1253 4750 1959 4750 
Q 2769 4750 3195 4129 
Q 3622 3509 3622 2328 
Q 3622 1225 3098 567 
Q 2575 -91 1691 -91 
Q 1453 -91 1209 -44 
Q 966 3 703 97 
z
M 1959 2075 
Q 2384 2075 2632 2365 
Q 2881 2656 2881 3163 
Q 2881 3666 2632 3958 
Q 2384 4250 1959 4250 
Q 1534 4250 1286 3958 
Q 1038 3666 1038 3163 
Q 1038 2656 1286 2365 
Q 1534 2075 1959 2075 
z
" transform="scale(0.015625)"/>
      <path id="DejaVuSans-65" d="M 3597 1894 
L 3597 1613 
L 953 1613 
Q 991 1019 1311 708 
Q 1631 397 2203 397 
Q 2534 397 2845 478 
Q 3156 559 3463 722 
L 3463 178 
Q 3153 47 2828 -22 
Q 2503 -91 2169 -91 
Q 1331 -91 842 396 
Q 353 884 353 1716 
Q 353 2575 817 3079 
Q 1281 3584 2069 3584 
Q 2775 3584 3186 3129 
Q 3597 2675 3597 1894 
z
M 3022 2063 
Q 3016 2534 2758 2815 
Q 2500 3097 2075 3097 
Q 1594 3097 1305 2825 
Q 1016 2553 972 2059 
L 3022 2063 
z
" transform="scale(0.015625)"/>
      <path id="DejaVuSans-56" d="M 1831 0 
L 50 4666 
L 709 4666 
L 2188 738 
L 3669 4666 
L 4325 4666 
L 2547 0 
L 1831 0 
z
" transform="scale(0.015625)"/>
     </defs>
     <use xlink:href="#DejaVuSans-45"/>
     <use xlink:href="#DejaVuSans-72" transform="translate(63.183594 0)"/>
     <use xlink:href="#DejaVuSans-72" transform="translate(102.546875 0)"/>
     <use xlink:href="#DejaVuSans-6f" transform="translate(141.410156 0)"/>
     <use xlink:href="#DejaVuSans-72" transform="translate(202.591797 0)"/>
     <use xlink:href="#DejaVuSans-3a" transform="translate(241.955078 0)"/>
     <use xlink:href="#DejaVuSans-20" transform="translate(275.646484 0)"/>
     <use xlink:href="#DejaVuSans-2d" transform="translate(307.433594 0)"/>
     <use xlink:href="#DejaVuSans-37" transform="translate(343.517578 0)"/>
     <use xlink:href="#DejaVuSans-2e" transform="translate(407.140625 0)"/>
     <use xlink:href="#DejaVuSans-31" transform="translate(438.927734 0)"/>
     <use xlink:href="#DejaVuSans-39" transform="translate(502.550781 0)"/>
     <use xlink:href="#DejaVuSans-20" transform="translate(566.173828 0)"/>
     <use xlink:href="#DejaVuSans-65" transform="translate(597.960938 0)"/>
     <use xlink:href="#DejaVuSans-56" transform="translate(659.484375 0)"/>
    </g>
   </g>
  </g>
 </g>
 <defs>
  <clipPath id="p8524e0703b">
   <rect x="36" y="34.56" width="223.2" height="221.76"/>
  </clipPath>
 </defs>
</svg>
