<?xml version="1.0" encoding="utf-8" standalone="no"?>
<!DOCTYPE svg PUBLIC "-//W3C//DTD SVG 1.1//EN"
  "http://www.w3.org/Graphics/SVG/1.1/DTD/svg11.dtd">
<svg xmlns:xlink="http://www.w3.org/1999/xlink" width="288pt" height="288pt" viewBox="0 0 288 288" xmlns="http://www.w3.org/2000/svg" version="1.1">
 <metadata>
  <rdf:RDF xmlns:dc="http://purl.org/dc/elements/1.1/" xmlns:cc="http://creativecommons.org/ns#" xmlns:rdf="http://www.w3.org/1999/02/22-rdf-syntax-ns#">
   <cc:Work>
    <dc:type rdf:resource="http://purl.org/dc/dcmitype/StillImage"/>
    <dc:date>2025-06-30T12:07:54.031031</dc:date>
    <dc:format>image/svg+xml</dc:format>
    <dc:creator>
     <cc:Agent>
      <dc:title>Matplotlib v3.10.1, https://matplotlib.org/</dc:title>
     </cc:Agent>
    </dc:creator>
   </cc:Work>
  </rdf:RDF>
 </metadata>
 <defs>
  <style type="text/css">*{stroke-linejoin: round; stroke-linecap: butt}</style>
 </defs>
 <g id="figure_1">
  <g id="patch_1">
   <path d="M 0 288 
L 288 288 
L 288 0 
L 0 0 
z
" style="fill: #ffffff"/>
  </g>
  <g id="axes_1">
   <g id="LineCollection_1">
    <path d="M 81.98927 61.520248 
L 124.821885 57.386334 
" clip-path="url(#p22e2b8bac8)" style="fill: none; stroke: #000000; stroke-width: 1.2"/>
    <path d="M 81.98927 61.520248 
L 101.566604 53.803636 
" clip-path="url(#p22e2b8bac8)" style="fill: none; stroke: #000000; stroke-width: 1.2"/>
    <path d="M 81.98927 61.520248 
L 99.395822 62.551097 
" clip-path="url(#p22e2b8bac8)" style="fill: none; stroke: #000000; stroke-width: 1.2"/>
    <path d="M 81.98927 61.520248 
L 55.368595 77.896601 
" clip-path="url(#p22e2b8bac8)" style="fill: none; stroke: #000000; stroke-width: 1.2"/>
    <path d="M 81.98927 61.520248 
L 107.933268 75.803847 
" clip-path="url(#p22e2b8bac8)" style="fill: none; stroke: #000000; stroke-width: 1.2"/>
    <path d="M 81.98927 61.520248 
L 137.051135 60.882416 
" clip-path="url(#p22e2b8bac8)" style="fill: none; stroke: #000000; stroke-width: 1.2"/>
    <path d="M 81.98927 61.520248 
L 106.848906 92.111456 
" clip-path="url(#p22e2b8bac8)" style="fill: none; stroke: #000000; stroke-width: 1.2"/>
    <path d="M 81.98927 61.520248 
L 126.732283 86.173578 
" clip-path="url(#p22e2b8bac8)" style="fill: none; stroke: #000000; stroke-width: 1.2"/>
    <path d="M 81.98927 61.520248 
L 84.489719 104.598874 
" clip-path="url(#p22e2b8bac8)" style="fill: none; stroke: #000000; stroke-width: 1.2"/>
    <path d="M 124.821885 57.386334 
L 101.566604 53.803636 
" clip-path="url(#p22e2b8bac8)" style="fill: none; stroke: #000000; stroke-width: 1.2"/>
    <path d="M 124.821885 57.386334 
L 99.395822 62.551097 
" clip-path="url(#p22e2b8bac8)" style="fill: none; stroke: #000000; stroke-width: 1.2"/>
    <path d="M 124.821885 57.386334 
L 74.816773 75.440305 
" clip-path="url(#p22e2b8bac8)" style="fill: none; stroke: #000000; stroke-width: 1.2"/>
    <path d="M 124.821885 57.386334 
L 155.392402 69.52415 
" clip-path="url(#p22e2b8bac8)" style="fill: none; stroke: #000000; stroke-width: 1.2"/>
    <path d="M 124.821885 57.386334 
L 107.827195 66.243541 
" clip-path="url(#p22e2b8bac8)" style="fill: none; stroke: #000000; stroke-width: 1.2"/>
    <path d="M 124.821885 57.386334 
L 106.848906 92.111456 
" clip-path="url(#p22e2b8bac8)" style="fill: none; stroke: #000000; stroke-width: 1.2"/>
    <path d="M 124.821885 57.386334 
L 90.329957 93.741939 
" clip-path="url(#p22e2b8bac8)" style="fill: none; stroke: #000000; stroke-width: 1.2"/>
    <path d="M 124.821885 57.386334 
L 144.655632 90.515978 
" clip-path="url(#p22e2b8bac8)" style="fill: none; stroke: #000000; stroke-width: 1.2"/>
    <path d="M 101.566604 53.803636 
L 79.343697 68.13193 
" clip-path="url(#p22e2b8bac8)" style="fill: none; stroke: #000000; stroke-width: 1.2"/>
    <path d="M 101.566604 53.803636 
L 128.240227 70.427333 
" clip-path="url(#p22e2b8bac8)" style="fill: none; stroke: #000000; stroke-width: 1.2"/>
    <path d="M 101.566604 53.803636 
L 74.816773 75.440305 
" clip-path="url(#p22e2b8bac8)" style="fill: none; stroke: #000000; stroke-width: 1.2"/>
    <path d="M 101.566604 53.803636 
L 137.051135 60.882416 
" clip-path="url(#p22e2b8bac8)" style="fill: none; stroke: #000000; stroke-width: 1.2"/>
    <path d="M 101.566604 53.803636 
L 126.732283 86.173578 
" clip-path="url(#p22e2b8bac8)" style="fill: none; stroke: #000000; stroke-width: 1.2"/>
    <path d="M 101.566604 53.803636 
L 90.329957 93.741939 
" clip-path="url(#p22e2b8bac8)" style="fill: none; stroke: #000000; stroke-width: 1.2"/>
    <path d="M 101.566604 53.803636 
L 99.35837 100.682586 
" clip-path="url(#p22e2b8bac8)" style="fill: none; stroke: #000000; stroke-width: 1.2"/>
    <path d="M 79.343697 68.13193 
L 128.240227 70.427333 
" clip-path="url(#p22e2b8bac8)" style="fill: none; stroke: #000000; stroke-width: 1.2"/>
    <path d="M 79.343697 68.13193 
L 99.395822 62.551097 
" clip-path="url(#p22e2b8bac8)" style="fill: none; stroke: #000000; stroke-width: 1.2"/>
    <path d="M 79.343697 68.13193 
L 55.368595 77.896601 
" clip-path="url(#p22e2b8bac8)" style="fill: none; stroke: #000000; stroke-width: 1.2"/>
    <path d="M 79.343697 68.13193 
L 137.051135 60.882416 
" clip-path="url(#p22e2b8bac8)" style="fill: none; stroke: #000000; stroke-width: 1.2"/>
    <path d="M 79.343697 68.13193 
L 107.827195 66.243541 
" clip-path="url(#p22e2b8bac8)" style="fill: none; stroke: #000000; stroke-width: 1.2"/>
    <path d="M 79.343697 68.13193 
L 99.35837 100.682586 
" clip-path="url(#p22e2b8bac8)" style="fill: none; stroke: #000000; stroke-width: 1.2"/>
    <path d="M 79.343697 68.13193 
L 68.897619 97.187448 
" clip-path="url(#p22e2b8bac8)" style="fill: none; stroke: #000000; stroke-width: 1.2"/>
    <path d="M 79.343697 68.13193 
L 120.6753 96.469695 
" clip-path="url(#p22e2b8bac8)" style="fill: none; stroke: #000000; stroke-width: 1.2"/>
    <path d="M 128.240227 70.427333 
L 99.395822 62.551097 
" clip-path="url(#p22e2b8bac8)" style="fill: none; stroke: #000000; stroke-width: 1.2"/>
    <path d="M 128.240227 70.427333 
L 74.816773 75.440305 
" clip-path="url(#p22e2b8bac8)" style="fill: none; stroke: #000000; stroke-width: 1.2"/>
    <path d="M 128.240227 70.427333 
L 107.933268 75.803847 
" clip-path="url(#p22e2b8bac8)" style="fill: none; stroke: #000000; stroke-width: 1.2"/>
    <path d="M 128.240227 70.427333 
L 155.392402 69.52415 
" clip-path="url(#p22e2b8bac8)" style="fill: none; stroke: #000000; stroke-width: 1.2"/>
    <path d="M 128.240227 70.427333 
L 99.35837 100.682586 
" clip-path="url(#p22e2b8bac8)" style="fill: none; stroke: #000000; stroke-width: 1.2"/>
    <path d="M 128.240227 70.427333 
L 134.308492 101.566474 
" clip-path="url(#p22e2b8bac8)" style="fill: none; stroke: #000000; stroke-width: 1.2"/>
    <path d="M 128.240227 70.427333 
L 110.649885 111.586882 
" clip-path="url(#p22e2b8bac8)" style="fill: none; stroke: #000000; stroke-width: 1.2"/>
    <path d="M 99.395822 62.551097 
L 55.368595 77.896601 
" clip-path="url(#p22e2b8bac8)" style="fill: none; stroke: #000000; stroke-width: 1.2"/>
    <path d="M 99.395822 62.551097 
L 155.392402 69.52415 
" clip-path="url(#p22e2b8bac8)" style="fill: none; stroke: #000000; stroke-width: 1.2"/>
    <path d="M 99.395822 62.551097 
L 106.848906 92.111456 
" clip-path="url(#p22e2b8bac8)" style="fill: none; stroke: #000000; stroke-width: 1.2"/>
    <path d="M 99.395822 62.551097 
L 68.897619 97.187448 
" clip-path="url(#p22e2b8bac8)" style="fill: none; stroke: #000000; stroke-width: 1.2"/>
    <path d="M 99.395822 62.551097 
L 134.308492 101.566474 
" clip-path="url(#p22e2b8bac8)" style="fill: none; stroke: #000000; stroke-width: 1.2"/>
    <path d="M 74.816773 75.440305 
L 55.368595 77.896601 
" clip-path="url(#p22e2b8bac8)" style="fill: none; stroke: #000000; stroke-width: 1.2"/>
    <path d="M 74.816773 75.440305 
L 107.933268 75.803847 
" clip-path="url(#p22e2b8bac8)" style="fill: none; stroke: #000000; stroke-width: 1.2"/>
    <path d="M 74.816773 75.440305 
L 107.827195 66.243541 
" clip-path="url(#p22e2b8bac8)" style="fill: none; stroke: #000000; stroke-width: 1.2"/>
    <path d="M 74.816773 75.440305 
L 90.329957 93.741939 
" clip-path="url(#p22e2b8bac8)" style="fill: none; stroke: #000000; stroke-width: 1.2"/>
    <path d="M 74.816773 75.440305 
L 72.586577 107.933327 
" clip-path="url(#p22e2b8bac8)" style="fill: none; stroke: #000000; stroke-width: 1.2"/>
    <path d="M 74.816773 75.440305 
L 110.649885 111.586882 
" clip-path="url(#p22e2b8bac8)" style="fill: none; stroke: #000000; stroke-width: 1.2"/>
    <path d="M 55.368595 77.896601 
L 107.933268 75.803847 
" clip-path="url(#p22e2b8bac8)" style="fill: none; stroke: #000000; stroke-width: 1.2"/>
    <path d="M 55.368595 77.896601 
L 107.827195 66.243541 
" clip-path="url(#p22e2b8bac8)" style="fill: none; stroke: #000000; stroke-width: 1.2"/>
    <path d="M 55.368595 77.896601 
L 68.897619 97.187448 
" clip-path="url(#p22e2b8bac8)" style="fill: none; stroke: #000000; stroke-width: 1.2"/>
    <path d="M 55.368595 77.896601 
L 72.586577 107.933327 
" clip-path="url(#p22e2b8bac8)" style="fill: none; stroke: #000000; stroke-width: 1.2"/>
    <path d="M 55.368595 77.896601 
L 84.489719 104.598874 
" clip-path="url(#p22e2b8bac8)" style="fill: none; stroke: #000000; stroke-width: 1.2"/>
    <path d="M 107.933268 75.803847 
L 155.392402 69.52415 
" clip-path="url(#p22e2b8bac8)" style="fill: none; stroke: #000000; stroke-width: 1.2"/>
    <path d="M 107.933268 75.803847 
L 137.051135 60.882416 
" clip-path="url(#p22e2b8bac8)" style="fill: none; stroke: #000000; stroke-width: 1.2"/>
    <path d="M 107.933268 75.803847 
L 110.649885 111.586882 
" clip-path="url(#p22e2b8bac8)" style="fill: none; stroke: #000000; stroke-width: 1.2"/>
    <path d="M 107.933268 75.803847 
L 84.489719 104.598874 
" clip-path="url(#p22e2b8bac8)" style="fill: none; stroke: #000000; stroke-width: 1.2"/>
    <path d="M 107.933268 75.803847 
L 152.487404 100.336509 
" clip-path="url(#p22e2b8bac8)" style="fill: none; stroke: #000000; stroke-width: 1.2"/>
    <path d="M 155.392402 69.52415 
L 137.051135 60.882416 
" clip-path="url(#p22e2b8bac8)" style="fill: none; stroke: #000000; stroke-width: 1.2"/>
    <path d="M 155.392402 69.52415 
L 107.827195 66.243541 
" clip-path="url(#p22e2b8bac8)" style="fill: none; stroke: #000000; stroke-width: 1.2"/>
    <path d="M 155.392402 69.52415 
L 134.308492 101.566474 
" clip-path="url(#p22e2b8bac8)" style="fill: none; stroke: #000000; stroke-width: 1.2"/>
    <path d="M 155.392402 69.52415 
L 152.487404 100.336509 
" clip-path="url(#p22e2b8bac8)" style="fill: none; stroke: #000000; stroke-width: 1.2"/>
    <path d="M 155.392402 69.52415 
L 144.655632 90.515978 
" clip-path="url(#p22e2b8bac8)" style="fill: none; stroke: #000000; stroke-width: 1.2"/>
    <path d="M 137.051135 60.882416 
L 107.827195 66.243541 
" clip-path="url(#p22e2b8bac8)" style="fill: none; stroke: #000000; stroke-width: 1.2"/>
    <path d="M 137.051135 60.882416 
L 126.732283 86.173578 
" clip-path="url(#p22e2b8bac8)" style="fill: none; stroke: #000000; stroke-width: 1.2"/>
    <path d="M 137.051135 60.882416 
L 152.487404 100.336509 
" clip-path="url(#p22e2b8bac8)" style="fill: none; stroke: #000000; stroke-width: 1.2"/>
    <path d="M 137.051135 60.882416 
L 120.6753 96.469695 
" clip-path="url(#p22e2b8bac8)" style="fill: none; stroke: #000000; stroke-width: 1.2"/>
    <path d="M 107.827195 66.243541 
L 72.586577 107.933327 
" clip-path="url(#p22e2b8bac8)" style="fill: none; stroke: #000000; stroke-width: 1.2"/>
    <path d="M 107.827195 66.243541 
L 144.655632 90.515978 
" clip-path="url(#p22e2b8bac8)" style="fill: none; stroke: #000000; stroke-width: 1.2"/>
    <path d="M 107.827195 66.243541 
L 120.6753 96.469695 
" clip-path="url(#p22e2b8bac8)" style="fill: none; stroke: #000000; stroke-width: 1.2"/>
    <path d="M 106.848906 92.111456 
L 126.732283 86.173578 
" clip-path="url(#p22e2b8bac8)" style="fill: none; stroke: #000000; stroke-width: 1.2"/>
    <path d="M 106.848906 92.111456 
L 90.329957 93.741939 
" clip-path="url(#p22e2b8bac8)" style="fill: none; stroke: #000000; stroke-width: 1.2"/>
    <path d="M 106.848906 92.111456 
L 68.897619 97.187448 
" clip-path="url(#p22e2b8bac8)" style="fill: none; stroke: #000000; stroke-width: 1.2"/>
    <path d="M 106.848906 92.111456 
L 134.308492 101.566474 
" clip-path="url(#p22e2b8bac8)" style="fill: none; stroke: #000000; stroke-width: 1.2"/>
    <path d="M 106.848906 92.111456 
L 84.489719 104.598874 
" clip-path="url(#p22e2b8bac8)" style="fill: none; stroke: #000000; stroke-width: 1.2"/>
    <path d="M 106.848906 92.111456 
L 144.655632 90.515978 
" clip-path="url(#p22e2b8bac8)" style="fill: none; stroke: #000000; stroke-width: 1.2"/>
    <path d="M 106.848906 92.111456 
L 69.581767 127.378576 
" clip-path="url(#p22e2b8bac8)" style="fill: none; stroke: #000000; stroke-width: 1.2"/>
    <path d="M 106.848906 92.111456 
L 96.725603 122.234972 
" clip-path="url(#p22e2b8bac8)" style="fill: none; stroke: #000000; stroke-width: 1.2"/>
    <path d="M 106.848906 92.111456 
L 144.624503 125.680321 
" clip-path="url(#p22e2b8bac8)" style="fill: none; stroke: #000000; stroke-width: 1.2"/>
    <path d="M 126.732283 86.173578 
L 90.329957 93.741939 
" clip-path="url(#p22e2b8bac8)" style="fill: none; stroke: #000000; stroke-width: 1.2"/>
    <path d="M 126.732283 86.173578 
L 99.35837 100.682586 
" clip-path="url(#p22e2b8bac8)" style="fill: none; stroke: #000000; stroke-width: 1.2"/>
    <path d="M 126.732283 86.173578 
L 84.489719 104.598874 
" clip-path="url(#p22e2b8bac8)" style="fill: none; stroke: #000000; stroke-width: 1.2"/>
    <path d="M 126.732283 86.173578 
L 152.487404 100.336509 
" clip-path="url(#p22e2b8bac8)" style="fill: none; stroke: #000000; stroke-width: 1.2"/>
    <path d="M 126.732283 86.173578 
L 120.6753 96.469695 
" clip-path="url(#p22e2b8bac8)" style="fill: none; stroke: #000000; stroke-width: 1.2"/>
    <path d="M 126.732283 86.173578 
L 96.725603 122.234972 
" clip-path="url(#p22e2b8bac8)" style="fill: none; stroke: #000000; stroke-width: 1.2"/>
    <path d="M 126.732283 86.173578 
L 136.6008 119.524844 
" clip-path="url(#p22e2b8bac8)" style="fill: none; stroke: #000000; stroke-width: 1.2"/>
    <path d="M 126.732283 86.173578 
L 122.449276 131.935515 
" clip-path="url(#p22e2b8bac8)" style="fill: none; stroke: #000000; stroke-width: 1.2"/>
    <path d="M 90.329957 93.741939 
L 99.35837 100.682586 
" clip-path="url(#p22e2b8bac8)" style="fill: none; stroke: #000000; stroke-width: 1.2"/>
    <path d="M 90.329957 93.741939 
L 72.586577 107.933327 
" clip-path="url(#p22e2b8bac8)" style="fill: none; stroke: #000000; stroke-width: 1.2"/>
    <path d="M 90.329957 93.741939 
L 110.649885 111.586882 
" clip-path="url(#p22e2b8bac8)" style="fill: none; stroke: #000000; stroke-width: 1.2"/>
    <path d="M 90.329957 93.741939 
L 144.655632 90.515978 
" clip-path="url(#p22e2b8bac8)" style="fill: none; stroke: #000000; stroke-width: 1.2"/>
    <path d="M 90.329957 93.741939 
L 96.725603 122.234972 
" clip-path="url(#p22e2b8bac8)" style="fill: none; stroke: #000000; stroke-width: 1.2"/>
    <path d="M 90.329957 93.741939 
L 108.162987 143.269921 
" clip-path="url(#p22e2b8bac8)" style="fill: none; stroke: #000000; stroke-width: 1.2"/>
    <path d="M 90.329957 93.741939 
L 119.523104 125.795596 
" clip-path="url(#p22e2b8bac8)" style="fill: none; stroke: #000000; stroke-width: 1.2"/>
    <path d="M 99.35837 100.682586 
L 68.897619 97.187448 
" clip-path="url(#p22e2b8bac8)" style="fill: none; stroke: #000000; stroke-width: 1.2"/>
    <path d="M 99.35837 100.682586 
L 134.308492 101.566474 
" clip-path="url(#p22e2b8bac8)" style="fill: none; stroke: #000000; stroke-width: 1.2"/>
    <path d="M 99.35837 100.682586 
L 110.649885 111.586882 
" clip-path="url(#p22e2b8bac8)" style="fill: none; stroke: #000000; stroke-width: 1.2"/>
    <path d="M 99.35837 100.682586 
L 120.6753 96.469695 
" clip-path="url(#p22e2b8bac8)" style="fill: none; stroke: #000000; stroke-width: 1.2"/>
    <path d="M 99.35837 100.682586 
L 108.162987 143.269921 
" clip-path="url(#p22e2b8bac8)" style="fill: none; stroke: #000000; stroke-width: 1.2"/>
    <path d="M 99.35837 100.682586 
L 136.6008 119.524844 
" clip-path="url(#p22e2b8bac8)" style="fill: none; stroke: #000000; stroke-width: 1.2"/>
    <path d="M 99.35837 100.682586 
L 102.49005 132.280057 
" clip-path="url(#p22e2b8bac8)" style="fill: none; stroke: #000000; stroke-width: 1.2"/>
    <path d="M 68.897619 97.187448 
L 134.308492 101.566474 
" clip-path="url(#p22e2b8bac8)" style="fill: none; stroke: #000000; stroke-width: 1.2"/>
    <path d="M 68.897619 97.187448 
L 72.586577 107.933327 
" clip-path="url(#p22e2b8bac8)" style="fill: none; stroke: #000000; stroke-width: 1.2"/>
    <path d="M 68.897619 97.187448 
L 84.489719 104.598874 
" clip-path="url(#p22e2b8bac8)" style="fill: none; stroke: #000000; stroke-width: 1.2"/>
    <path d="M 68.897619 97.187448 
L 120.6753 96.469695 
" clip-path="url(#p22e2b8bac8)" style="fill: none; stroke: #000000; stroke-width: 1.2"/>
    <path d="M 68.897619 97.187448 
L 69.581767 127.378576 
" clip-path="url(#p22e2b8bac8)" style="fill: none; stroke: #000000; stroke-width: 1.2"/>
    <path d="M 68.897619 97.187448 
L 102.49005 132.280057 
" clip-path="url(#p22e2b8bac8)" style="fill: none; stroke: #000000; stroke-width: 1.2"/>
    <path d="M 68.897619 97.187448 
L 86.535693 128.493316 
" clip-path="url(#p22e2b8bac8)" style="fill: none; stroke: #000000; stroke-width: 1.2"/>
    <path d="M 134.308492 101.566474 
L 110.649885 111.586882 
" clip-path="url(#p22e2b8bac8)" style="fill: none; stroke: #000000; stroke-width: 1.2"/>
    <path d="M 134.308492 101.566474 
L 152.487404 100.336509 
" clip-path="url(#p22e2b8bac8)" style="fill: none; stroke: #000000; stroke-width: 1.2"/>
    <path d="M 134.308492 101.566474 
L 144.655632 90.515978 
" clip-path="url(#p22e2b8bac8)" style="fill: none; stroke: #000000; stroke-width: 1.2"/>
    <path d="M 134.308492 101.566474 
L 102.49005 132.280057 
" clip-path="url(#p22e2b8bac8)" style="fill: none; stroke: #000000; stroke-width: 1.2"/>
    <path d="M 134.308492 101.566474 
L 144.624503 125.680321 
" clip-path="url(#p22e2b8bac8)" style="fill: none; stroke: #000000; stroke-width: 1.2"/>
    <path d="M 134.308492 101.566474 
L 140.193151 140.328111 
" clip-path="url(#p22e2b8bac8)" style="fill: none; stroke: #000000; stroke-width: 1.2"/>
    <path d="M 72.586577 107.933327 
L 110.649885 111.586882 
" clip-path="url(#p22e2b8bac8)" style="fill: none; stroke: #000000; stroke-width: 1.2"/>
    <path d="M 72.586577 107.933327 
L 84.489719 104.598874 
" clip-path="url(#p22e2b8bac8)" style="fill: none; stroke: #000000; stroke-width: 1.2"/>
    <path d="M 72.586577 107.933327 
L 144.655632 90.515978 
" clip-path="url(#p22e2b8bac8)" style="fill: none; stroke: #000000; stroke-width: 1.2"/>
    <path d="M 72.586577 107.933327 
L 120.6753 96.469695 
" clip-path="url(#p22e2b8bac8)" style="fill: none; stroke: #000000; stroke-width: 1.2"/>
    <path d="M 72.586577 107.933327 
L 119.523104 125.795596 
" clip-path="url(#p22e2b8bac8)" style="fill: none; stroke: #000000; stroke-width: 1.2"/>
    <path d="M 72.586577 107.933327 
L 85.109694 143.505538 
" clip-path="url(#p22e2b8bac8)" style="fill: none; stroke: #000000; stroke-width: 1.2"/>
    <path d="M 72.586577 107.933327 
L 86.535693 128.493316 
" clip-path="url(#p22e2b8bac8)" style="fill: none; stroke: #000000; stroke-width: 1.2"/>
    <path d="M 110.649885 111.586882 
L 84.489719 104.598874 
" clip-path="url(#p22e2b8bac8)" style="fill: none; stroke: #000000; stroke-width: 1.2"/>
    <path d="M 110.649885 111.586882 
L 152.487404 100.336509 
" clip-path="url(#p22e2b8bac8)" style="fill: none; stroke: #000000; stroke-width: 1.2"/>
    <path d="M 110.649885 111.586882 
L 108.162987 143.269921 
" clip-path="url(#p22e2b8bac8)" style="fill: none; stroke: #000000; stroke-width: 1.2"/>
    <path d="M 110.649885 111.586882 
L 85.109694 143.505538 
" clip-path="url(#p22e2b8bac8)" style="fill: none; stroke: #000000; stroke-width: 1.2"/>
    <path d="M 110.649885 111.586882 
L 140.193151 140.328111 
" clip-path="url(#p22e2b8bac8)" style="fill: none; stroke: #000000; stroke-width: 1.2"/>
    <path d="M 84.489719 104.598874 
L 152.487404 100.336509 
" clip-path="url(#p22e2b8bac8)" style="fill: none; stroke: #000000; stroke-width: 1.2"/>
    <path d="M 84.489719 104.598874 
L 69.581767 127.378576 
" clip-path="url(#p22e2b8bac8)" style="fill: none; stroke: #000000; stroke-width: 1.2"/>
    <path d="M 84.489719 104.598874 
L 85.109694 143.505538 
" clip-path="url(#p22e2b8bac8)" style="fill: none; stroke: #000000; stroke-width: 1.2"/>
    <path d="M 84.489719 104.598874 
L 122.449276 131.935515 
" clip-path="url(#p22e2b8bac8)" style="fill: none; stroke: #000000; stroke-width: 1.2"/>
    <path d="M 152.487404 100.336509 
L 144.655632 90.515978 
" clip-path="url(#p22e2b8bac8)" style="fill: none; stroke: #000000; stroke-width: 1.2"/>
    <path d="M 152.487404 100.336509 
L 120.6753 96.469695 
" clip-path="url(#p22e2b8bac8)" style="fill: none; stroke: #000000; stroke-width: 1.2"/>
    <path d="M 152.487404 100.336509 
L 122.449276 131.935515 
" clip-path="url(#p22e2b8bac8)" style="fill: none; stroke: #000000; stroke-width: 1.2"/>
    <path d="M 152.487404 100.336509 
L 140.193151 140.328111 
" clip-path="url(#p22e2b8bac8)" style="fill: none; stroke: #000000; stroke-width: 1.2"/>
    <path d="M 152.487404 100.336509 
L 161.844362 119.817185 
" clip-path="url(#p22e2b8bac8)" style="fill: none; stroke: #000000; stroke-width: 1.2"/>
    <path d="M 144.655632 90.515978 
L 120.6753 96.469695 
" clip-path="url(#p22e2b8bac8)" style="fill: none; stroke: #000000; stroke-width: 1.2"/>
    <path d="M 144.655632 90.515978 
L 144.624503 125.680321 
" clip-path="url(#p22e2b8bac8)" style="fill: none; stroke: #000000; stroke-width: 1.2"/>
    <path d="M 144.655632 90.515978 
L 119.523104 125.795596 
" clip-path="url(#p22e2b8bac8)" style="fill: none; stroke: #000000; stroke-width: 1.2"/>
    <path d="M 144.655632 90.515978 
L 161.844362 119.817185 
" clip-path="url(#p22e2b8bac8)" style="fill: none; stroke: #000000; stroke-width: 1.2"/>
    <path d="M 120.6753 96.469695 
L 136.6008 119.524844 
" clip-path="url(#p22e2b8bac8)" style="fill: none; stroke: #000000; stroke-width: 1.2"/>
    <path d="M 120.6753 96.469695 
L 161.844362 119.817185 
" clip-path="url(#p22e2b8bac8)" style="fill: none; stroke: #000000; stroke-width: 1.2"/>
    <path d="M 120.6753 96.469695 
L 86.535693 128.493316 
" clip-path="url(#p22e2b8bac8)" style="fill: none; stroke: #000000; stroke-width: 1.2"/>
    <path d="M 69.581767 127.378576 
L 96.725603 122.234972 
" clip-path="url(#p22e2b8bac8)" style="fill: none; stroke: #000000; stroke-width: 1.2"/>
    <path d="M 69.581767 127.378576 
L 102.49005 132.280057 
" clip-path="url(#p22e2b8bac8)" style="fill: none; stroke: #000000; stroke-width: 1.2"/>
    <path d="M 69.581767 127.378576 
L 144.624503 125.680321 
" clip-path="url(#p22e2b8bac8)" style="fill: none; stroke: #000000; stroke-width: 1.2"/>
    <path d="M 69.581767 127.378576 
L 85.109694 143.505538 
" clip-path="url(#p22e2b8bac8)" style="fill: none; stroke: #000000; stroke-width: 1.2"/>
    <path d="M 69.581767 127.378576 
L 122.449276 131.935515 
" clip-path="url(#p22e2b8bac8)" style="fill: none; stroke: #000000; stroke-width: 1.2"/>
    <path d="M 69.581767 127.378576 
L 86.535693 128.493316 
" clip-path="url(#p22e2b8bac8)" style="fill: none; stroke: #000000; stroke-width: 1.2"/>
    <path d="M 96.725603 122.234972 
L 108.162987 143.269921 
" clip-path="url(#p22e2b8bac8)" style="fill: none; stroke: #000000; stroke-width: 1.2"/>
    <path d="M 96.725603 122.234972 
L 136.6008 119.524844 
" clip-path="url(#p22e2b8bac8)" style="fill: none; stroke: #000000; stroke-width: 1.2"/>
    <path d="M 96.725603 122.234972 
L 144.624503 125.680321 
" clip-path="url(#p22e2b8bac8)" style="fill: none; stroke: #000000; stroke-width: 1.2"/>
    <path d="M 96.725603 122.234972 
L 119.523104 125.795596 
" clip-path="url(#p22e2b8bac8)" style="fill: none; stroke: #000000; stroke-width: 1.2"/>
    <path d="M 96.725603 122.234972 
L 122.449276 131.935515 
" clip-path="url(#p22e2b8bac8)" style="fill: none; stroke: #000000; stroke-width: 1.2"/>
    <path d="M 108.162987 143.269921 
L 136.6008 119.524844 
" clip-path="url(#p22e2b8bac8)" style="fill: none; stroke: #000000; stroke-width: 1.2"/>
    <path d="M 108.162987 143.269921 
L 102.49005 132.280057 
" clip-path="url(#p22e2b8bac8)" style="fill: none; stroke: #000000; stroke-width: 1.2"/>
    <path d="M 108.162987 143.269921 
L 119.523104 125.795596 
" clip-path="url(#p22e2b8bac8)" style="fill: none; stroke: #000000; stroke-width: 1.2"/>
    <path d="M 108.162987 143.269921 
L 85.109694 143.505538 
" clip-path="url(#p22e2b8bac8)" style="fill: none; stroke: #000000; stroke-width: 1.2"/>
    <path d="M 108.162987 143.269921 
L 140.193151 140.328111 
" clip-path="url(#p22e2b8bac8)" style="fill: none; stroke: #000000; stroke-width: 1.2"/>
    <path d="M 108.162987 143.269921 
L 127.164757 170.040462 
" clip-path="url(#p22e2b8bac8)" style="fill: none; stroke: #000000; stroke-width: 1.2"/>
    <path d="M 136.6008 119.524844 
L 102.49005 132.280057 
" clip-path="url(#p22e2b8bac8)" style="fill: none; stroke: #000000; stroke-width: 1.2"/>
    <path d="M 136.6008 119.524844 
L 122.449276 131.935515 
" clip-path="url(#p22e2b8bac8)" style="fill: none; stroke: #000000; stroke-width: 1.2"/>
    <path d="M 136.6008 119.524844 
L 161.844362 119.817185 
" clip-path="url(#p22e2b8bac8)" style="fill: none; stroke: #000000; stroke-width: 1.2"/>
    <path d="M 136.6008 119.524844 
L 86.535693 128.493316 
" clip-path="url(#p22e2b8bac8)" style="fill: none; stroke: #000000; stroke-width: 1.2"/>
    <path d="M 102.49005 132.280057 
L 144.624503 125.680321 
" clip-path="url(#p22e2b8bac8)" style="fill: none; stroke: #000000; stroke-width: 1.2"/>
    <path d="M 102.49005 132.280057 
L 140.193151 140.328111 
" clip-path="url(#p22e2b8bac8)" style="fill: none; stroke: #000000; stroke-width: 1.2"/>
    <path d="M 102.49005 132.280057 
L 86.535693 128.493316 
" clip-path="url(#p22e2b8bac8)" style="fill: none; stroke: #000000; stroke-width: 1.2"/>
    <path d="M 144.624503 125.680321 
L 119.523104 125.795596 
" clip-path="url(#p22e2b8bac8)" style="fill: none; stroke: #000000; stroke-width: 1.2"/>
    <path d="M 144.624503 125.680321 
L 140.193151 140.328111 
" clip-path="url(#p22e2b8bac8)" style="fill: none; stroke: #000000; stroke-width: 1.2"/>
    <path d="M 144.624503 125.680321 
L 161.844362 119.817185 
" clip-path="url(#p22e2b8bac8)" style="fill: none; stroke: #000000; stroke-width: 1.2"/>
    <path d="M 144.624503 125.680321 
L 173.786136 151.048512 
" clip-path="url(#p22e2b8bac8)" style="fill: none; stroke: #000000; stroke-width: 1.2"/>
    <path d="M 119.523104 125.795596 
L 85.109694 143.505538 
" clip-path="url(#p22e2b8bac8)" style="fill: none; stroke: #000000; stroke-width: 1.2"/>
    <path d="M 119.523104 125.795596 
L 161.844362 119.817185 
" clip-path="url(#p22e2b8bac8)" style="fill: none; stroke: #000000; stroke-width: 1.2"/>
    <path d="M 119.523104 125.795596 
L 86.535693 128.493316 
" clip-path="url(#p22e2b8bac8)" style="fill: none; stroke: #000000; stroke-width: 1.2"/>
    <path d="M 85.109694 143.505538 
L 122.449276 131.935515 
" clip-path="url(#p22e2b8bac8)" style="fill: none; stroke: #000000; stroke-width: 1.2"/>
    <path d="M 85.109694 143.505538 
L 140.193151 140.328111 
" clip-path="url(#p22e2b8bac8)" style="fill: none; stroke: #000000; stroke-width: 1.2"/>
    <path d="M 85.109694 143.505538 
L 86.535693 128.493316 
" clip-path="url(#p22e2b8bac8)" style="fill: none; stroke: #000000; stroke-width: 1.2"/>
    <path d="M 85.109694 143.505538 
L 80.287506 177.333783 
" clip-path="url(#p22e2b8bac8)" style="fill: none; stroke: #000000; stroke-width: 1.2"/>
    <path d="M 122.449276 131.935515 
L 140.193151 140.328111 
" clip-path="url(#p22e2b8bac8)" style="fill: none; stroke: #000000; stroke-width: 1.2"/>
    <path d="M 122.449276 131.935515 
L 161.844362 119.817185 
" clip-path="url(#p22e2b8bac8)" style="fill: none; stroke: #000000; stroke-width: 1.2"/>
    <path d="M 140.193151 140.328111 
L 161.844362 119.817185 
" clip-path="url(#p22e2b8bac8)" style="fill: none; stroke: #000000; stroke-width: 1.2"/>
    <path d="M 140.193151 140.328111 
L 127.164757 170.040462 
" clip-path="url(#p22e2b8bac8)" style="fill: none; stroke: #000000; stroke-width: 1.2"/>
    <path d="M 140.193151 140.328111 
L 173.786136 151.048512 
" clip-path="url(#p22e2b8bac8)" style="fill: none; stroke: #000000; stroke-width: 1.2"/>
    <path d="M 161.844362 119.817185 
L 86.535693 128.493316 
" clip-path="url(#p22e2b8bac8)" style="fill: none; stroke: #000000; stroke-width: 1.2"/>
    <path d="M 161.844362 119.817185 
L 201.240038 137.674191 
" clip-path="url(#p22e2b8bac8)" style="fill: none; stroke: #000000; stroke-width: 1.2"/>
    <path d="M 98.269201 226.409132 
L 121.061837 198.359435 
" clip-path="url(#p22e2b8bac8)" style="fill: none; stroke: #000000; stroke-width: 1.2"/>
    <path d="M 127.164757 170.040462 
L 121.061837 198.359435 
" clip-path="url(#p22e2b8bac8)" style="fill: none; stroke: #000000; stroke-width: 1.2"/>
    <path d="M 80.287506 177.333783 
L 121.061837 198.359435 
" clip-path="url(#p22e2b8bac8)" style="fill: none; stroke: #000000; stroke-width: 1.2"/>
    <path d="M 173.786136 151.048512 
L 197.140065 174.335239 
" clip-path="url(#p22e2b8bac8)" style="fill: none; stroke: #000000; stroke-width: 1.2"/>
    <path d="M 239.831405 180.968834 
L 197.140065 174.335239 
" clip-path="url(#p22e2b8bac8)" style="fill: none; stroke: #000000; stroke-width: 1.2"/>
    <path d="M 201.240038 137.674191 
L 197.140065 174.335239 
" clip-path="url(#p22e2b8bac8)" style="fill: none; stroke: #000000; stroke-width: 1.2"/>
    <path d="M 121.061837 198.359435 
L 170.983976 207.439829 
" clip-path="url(#p22e2b8bac8)" style="fill: none; stroke: #000000; stroke-width: 1.2"/>
    <path d="M 170.983976 207.439829 
L 197.140065 174.335239 
" clip-path="url(#p22e2b8bac8)" style="fill: none; stroke: #000000; stroke-width: 1.2"/>
    <path d="M 170.983976 207.439829 
L 187.582836 237.076364 
" clip-path="url(#p22e2b8bac8)" style="fill: none; stroke: #000000; stroke-width: 1.2"/>
   </g>
   <g id="PathCollection_1">
    <defs>
     <path id="C0_0_f67a934192" d="M 0 8.944272 
C 2.372049 8.944272 4.647264 8.001847 6.324555 6.324555 
C 8.001847 4.647264 8.944272 2.372049 8.944272 -0 
C 8.944272 -2.372049 8.001847 -4.647264 6.324555 -6.324555 
C 4.647264 -8.001847 2.372049 -8.944272 0 -8.944272 
C -2.372049 -8.944272 -4.647264 -8.001847 -6.324555 -6.324555 
C -8.001847 -4.647264 -8.944272 -2.372049 -8.944272 0 
C -8.944272 2.372049 -8.001847 4.647264 -6.324555 6.324555 
C -4.647264 8.001847 -2.372049 8.944272 0 8.944272 
z
"/>
    </defs>
    <g clip-path="url(#p22e2b8bac8)">
     <use xlink:href="#C0_0_f67a934192" x="81.98927" y="61.520248" style="fill: #c78033; stroke: #c78033; stroke-width: 0.5"/>
    </g>
    <g clip-path="url(#p22e2b8bac8)">
     <use xlink:href="#C0_0_f67a934192" x="124.821885" y="57.386334" style="fill: #c78033; stroke: #c78033; stroke-width: 0.5"/>
    </g>
    <g clip-path="url(#p22e2b8bac8)">
     <use xlink:href="#C0_0_f67a934192" x="101.566604" y="53.803636" style="fill: #c78033; stroke: #c78033; stroke-width: 0.5"/>
    </g>
    <g clip-path="url(#p22e2b8bac8)">
     <use xlink:href="#C0_0_f67a934192" x="79.343697" y="68.13193" style="fill: #c78033; stroke: #c78033; stroke-width: 0.5"/>
    </g>
    <g clip-path="url(#p22e2b8bac8)">
     <use xlink:href="#C0_0_f67a934192" x="128.240227" y="70.427333" style="fill: #c78033; stroke: #c78033; stroke-width: 0.5"/>
    </g>
    <g clip-path="url(#p22e2b8bac8)">
     <use xlink:href="#C0_0_f67a934192" x="99.395822" y="62.551097" style="fill: #c78033; stroke: #c78033; stroke-width: 0.5"/>
    </g>
    <g clip-path="url(#p22e2b8bac8)">
     <use xlink:href="#C0_0_f67a934192" x="74.816773" y="75.440305" style="fill: #c78033; stroke: #c78033; stroke-width: 0.5"/>
    </g>
    <g clip-path="url(#p22e2b8bac8)">
     <use xlink:href="#C0_0_f67a934192" x="55.368595" y="77.896601" style="fill: #c78033; stroke: #c78033; stroke-width: 0.5"/>
    </g>
    <g clip-path="url(#p22e2b8bac8)">
     <use xlink:href="#C0_0_f67a934192" x="107.933268" y="75.803847" style="fill: #c78033; stroke: #c78033; stroke-width: 0.5"/>
    </g>
    <g clip-path="url(#p22e2b8bac8)">
     <use xlink:href="#C0_0_f67a934192" x="155.392402" y="69.52415" style="fill: #c78033; stroke: #c78033; stroke-width: 0.5"/>
    </g>
    <g clip-path="url(#p22e2b8bac8)">
     <use xlink:href="#C0_0_f67a934192" x="137.051135" y="60.882416" style="fill: #c78033; stroke: #c78033; stroke-width: 0.5"/>
    </g>
    <g clip-path="url(#p22e2b8bac8)">
     <use xlink:href="#C0_0_f67a934192" x="107.827195" y="66.243541" style="fill: #c78033; stroke: #c78033; stroke-width: 0.5"/>
    </g>
    <g clip-path="url(#p22e2b8bac8)">
     <use xlink:href="#C0_0_f67a934192" x="106.848906" y="92.111456" style="fill: #c78033; stroke: #c78033; stroke-width: 0.5"/>
    </g>
    <g clip-path="url(#p22e2b8bac8)">
     <use xlink:href="#C0_0_f67a934192" x="126.732283" y="86.173578" style="fill: #c78033; stroke: #c78033; stroke-width: 0.5"/>
    </g>
    <g clip-path="url(#p22e2b8bac8)">
     <use xlink:href="#C0_0_f67a934192" x="90.329957" y="93.741939" style="fill: #c78033; stroke: #c78033; stroke-width: 0.5"/>
    </g>
    <g clip-path="url(#p22e2b8bac8)">
     <use xlink:href="#C0_0_f67a934192" x="99.35837" y="100.682586" style="fill: #c78033; stroke: #c78033; stroke-width: 0.5"/>
    </g>
    <g clip-path="url(#p22e2b8bac8)">
     <use xlink:href="#C0_0_f67a934192" x="68.897619" y="97.187448" style="fill: #c78033; stroke: #c78033; stroke-width: 0.5"/>
    </g>
    <g clip-path="url(#p22e2b8bac8)">
     <use xlink:href="#C0_0_f67a934192" x="134.308492" y="101.566474" style="fill: #c78033; stroke: #c78033; stroke-width: 0.5"/>
    </g>
    <g clip-path="url(#p22e2b8bac8)">
     <use xlink:href="#C0_0_f67a934192" x="72.586577" y="107.933327" style="fill: #c78033; stroke: #c78033; stroke-width: 0.5"/>
    </g>
    <g clip-path="url(#p22e2b8bac8)">
     <use xlink:href="#C0_0_f67a934192" x="110.649885" y="111.586882" style="fill: #c78033; stroke: #c78033; stroke-width: 0.5"/>
    </g>
    <g clip-path="url(#p22e2b8bac8)">
     <use xlink:href="#C0_0_f67a934192" x="84.489719" y="104.598874" style="fill: #c78033; stroke: #c78033; stroke-width: 0.5"/>
    </g>
    <g clip-path="url(#p22e2b8bac8)">
     <use xlink:href="#C0_0_f67a934192" x="152.487404" y="100.336509" style="fill: #c78033; stroke: #c78033; stroke-width: 0.5"/>
    </g>
    <g clip-path="url(#p22e2b8bac8)">
     <use xlink:href="#C0_0_f67a934192" x="144.655632" y="90.515978" style="fill: #c78033; stroke: #c78033; stroke-width: 0.5"/>
    </g>
    <g clip-path="url(#p22e2b8bac8)">
     <use xlink:href="#C0_0_f67a934192" x="120.6753" y="96.469695" style="fill: #c78033; stroke: #c78033; stroke-width: 0.5"/>
    </g>
    <g clip-path="url(#p22e2b8bac8)">
     <use xlink:href="#C0_0_f67a934192" x="69.581767" y="127.378576" style="fill: #c78033; stroke: #c78033; stroke-width: 0.5"/>
    </g>
    <g clip-path="url(#p22e2b8bac8)">
     <use xlink:href="#C0_0_f67a934192" x="96.725603" y="122.234972" style="fill: #c78033; stroke: #c78033; stroke-width: 0.5"/>
    </g>
    <g clip-path="url(#p22e2b8bac8)">
     <use xlink:href="#C0_0_f67a934192" x="108.162987" y="143.269921" style="fill: #c78033; stroke: #c78033; stroke-width: 0.5"/>
    </g>
    <g clip-path="url(#p22e2b8bac8)">
     <use xlink:href="#C0_0_f67a934192" x="136.6008" y="119.524844" style="fill: #c78033; stroke: #c78033; stroke-width: 0.5"/>
    </g>
    <g clip-path="url(#p22e2b8bac8)">
     <use xlink:href="#C0_0_f67a934192" x="102.49005" y="132.280057" style="fill: #c78033; stroke: #c78033; stroke-width: 0.5"/>
    </g>
    <g clip-path="url(#p22e2b8bac8)">
     <use xlink:href="#C0_0_f67a934192" x="144.624503" y="125.680321" style="fill: #c78033; stroke: #c78033; stroke-width: 0.5"/>
    </g>
    <g clip-path="url(#p22e2b8bac8)">
     <use xlink:href="#C0_0_f67a934192" x="119.523104" y="125.795596" style="fill: #c78033; stroke: #c78033; stroke-width: 0.5"/>
    </g>
    <g clip-path="url(#p22e2b8bac8)">
     <use xlink:href="#C0_0_f67a934192" x="85.109694" y="143.505538" style="fill: #c78033; stroke: #c78033; stroke-width: 0.5"/>
    </g>
    <g clip-path="url(#p22e2b8bac8)">
     <use xlink:href="#C0_0_f67a934192" x="122.449276" y="131.935515" style="fill: #c78033; stroke: #c78033; stroke-width: 0.5"/>
    </g>
    <g clip-path="url(#p22e2b8bac8)">
     <use xlink:href="#C0_0_f67a934192" x="140.193151" y="140.328111" style="fill: #c78033; stroke: #c78033; stroke-width: 0.5"/>
    </g>
    <g clip-path="url(#p22e2b8bac8)">
     <use xlink:href="#C0_0_f67a934192" x="161.844362" y="119.817185" style="fill: #c78033; stroke: #c78033; stroke-width: 0.5"/>
    </g>
    <g clip-path="url(#p22e2b8bac8)">
     <use xlink:href="#C0_0_f67a934192" x="86.535693" y="128.493316" style="fill: #c78033; stroke: #c78033; stroke-width: 0.5"/>
    </g>
    <g clip-path="url(#p22e2b8bac8)">
     <use xlink:href="#C0_0_f67a934192" x="98.269201" y="226.409132" style="fill: #bfbfbf; stroke: #bfbfbf; stroke-width: 0.5"/>
    </g>
    <g clip-path="url(#p22e2b8bac8)">
     <use xlink:href="#C0_0_f67a934192" x="127.164757" y="170.040462" style="fill: #bfbfbf; stroke: #bfbfbf; stroke-width: 0.5"/>
    </g>
    <g clip-path="url(#p22e2b8bac8)">
     <use xlink:href="#C0_0_f67a934192" x="80.287506" y="177.333783" style="fill: #bfbfbf; stroke: #bfbfbf; stroke-width: 0.5"/>
    </g>
    <g clip-path="url(#p22e2b8bac8)">
     <use xlink:href="#C0_0_f67a934192" x="173.786136" y="151.048512" style="fill: #bfbfbf; stroke: #bfbfbf; stroke-width: 0.5"/>
    </g>
    <g clip-path="url(#p22e2b8bac8)">
     <use xlink:href="#C0_0_f67a934192" x="239.831405" y="180.968834" style="fill: #bfbfbf; stroke: #bfbfbf; stroke-width: 0.5"/>
    </g>
    <g clip-path="url(#p22e2b8bac8)">
     <use xlink:href="#C0_0_f67a934192" x="201.240038" y="137.674191" style="fill: #bfbfbf; stroke: #bfbfbf; stroke-width: 0.5"/>
    </g>
    <g clip-path="url(#p22e2b8bac8)">
     <use xlink:href="#C0_0_f67a934192" x="121.061837" y="198.359435" style="fill: #666666; stroke: #666666; stroke-width: 0.5"/>
    </g>
    <g clip-path="url(#p22e2b8bac8)">
     <use xlink:href="#C0_0_f67a934192" x="170.983976" y="207.439829" style="fill: #666666; stroke: #666666; stroke-width: 0.5"/>
    </g>
    <g clip-path="url(#p22e2b8bac8)">
     <use xlink:href="#C0_0_f67a934192" x="197.140065" y="174.335239" style="fill: #666666; stroke: #666666; stroke-width: 0.5"/>
    </g>
    <g clip-path="url(#p22e2b8bac8)">
     <use xlink:href="#C0_0_f67a934192" x="187.582836" y="237.076364" style="fill: #ff0d0d; stroke: #ff0d0d; stroke-width: 0.5"/>
    </g>
   </g>
   <g id="text_1">
    <!-- C3H6Cu48O -->
    <g transform="translate(125.084687 -1.38073) scale(0.1 -0.1)">
     <defs>
      <path id="DejaVuSans-43" d="M 4122 4306 
L 4122 3641 
Q 3803 3938 3442 4084 
Q 3081 4231 2675 4231 
Q 1875 4231 1450 3742 
Q 1025 3253 1025 2328 
Q 1025 1406 1450 917 
Q 1875 428 2675 428 
Q 3081 428 3442 575 
Q 3803 722 4122 1019 
L 4122 359 
Q 3791 134 3420 21 
Q 3050 -91 2638 -91 
Q 1578 -91 968 557 
Q 359 1206 359 2328 
Q 359 3453 968 4101 
Q 1578 4750 2638 4750 
Q 3056 4750 3426 4639 
Q 3797 4528 4122 4306 
z
" transform="scale(0.015625)"/>
      <path id="DejaVuSans-33" d="M 2597 2516 
Q 3050 2419 3304 2112 
Q 3559 1806 3559 1356 
Q 3559 666 3084 287 
Q 2609 -91 1734 -91 
Q 1441 -91 1130 -33 
Q 819 25 488 141 
L 488 750 
Q 750 597 1062 519 
Q 1375 441 1716 441 
Q 2309 441 2620 675 
Q 2931 909 2931 1356 
Q 2931 1769 2642 2001 
Q 2353 2234 1838 2234 
L 1294 2234 
L 1294 2753 
L 1863 2753 
Q 2328 2753 2575 2939 
Q 2822 3125 2822 3475 
Q 2822 3834 2567 4026 
Q 2313 4219 1838 4219 
Q 1578 4219 1281 4162 
Q 984 4106 628 3988 
L 628 4550 
Q 988 4650 1302 4700 
Q 1616 4750 1894 4750 
Q 2613 4750 3031 4423 
Q 3450 4097 3450 3541 
Q 3450 3153 3228 2886 
Q 3006 2619 2597 2516 
z
" transform="scale(0.015625)"/>
      <path id="DejaVuSans-48" d="M 628 4666 
L 1259 4666 
L 1259 2753 
L 3553 2753 
L 3553 4666 
L 4184 4666 
L 4184 0 
L 3553 0 
L 3553 2222 
L 1259 2222 
L 1259 0 
L 628 0 
L 628 4666 
z
" transform="scale(0.015625)"/>
      <path id="DejaVuSans-36" d="M 2113 2584 
Q 1688 2584 1439 2293 
Q 1191 2003 1191 1497 
Q 1191 994 1439 701 
Q 1688 409 2113 409 
Q 2538 409 2786 701 
Q 3034 994 3034 1497 
Q 3034 2003 2786 2293 
Q 2538 2584 2113 2584 
z
M 3366 4563 
L 3366 3988 
Q 3128 4100 2886 4159 
Q 2644 4219 2406 4219 
Q 1781 4219 1451 3797 
Q 1122 3375 1075 2522 
Q 1259 2794 1537 2939 
Q 1816 3084 2150 3084 
Q 2853 3084 3261 2657 
Q 3669 2231 3669 1497 
Q 3669 778 3244 343 
Q 2819 -91 2113 -91 
Q 1303 -91 875 529 
Q 447 1150 447 2328 
Q 447 3434 972 4092 
Q 1497 4750 2381 4750 
Q 2619 4750 2861 4703 
Q 3103 4656 3366 4563 
z
" transform="scale(0.015625)"/>
      <path id="DejaVuSans-75" d="M 544 1381 
L 544 3500 
L 1119 3500 
L 1119 1403 
Q 1119 906 1312 657 
Q 1506 409 1894 409 
Q 2359 409 2629 706 
Q 2900 1003 2900 1516 
L 2900 3500 
L 3475 3500 
L 3475 0 
L 2900 0 
L 2900 538 
Q 2691 219 2414 64 
Q 2138 -91 1772 -91 
Q 1169 -91 856 284 
Q 544 659 544 1381 
z
M 1991 3584 
L 1991 3584 
z
" transform="scale(0.015625)"/>
      <path id="DejaVuSans-34" d="M 2419 4116 
L 825 1625 
L 2419 1625 
L 2419 4116 
z
M 2253 4666 
L 3047 4666 
L 3047 1625 
L 3713 1625 
L 3713 1100 
L 3047 1100 
L 3047 0 
L 2419 0 
L 2419 1100 
L 313 1100 
L 313 1709 
L 2253 4666 
z
" transform="scale(0.015625)"/>
      <path id="DejaVuSans-38" d="M 2034 2216 
Q 1584 2216 1326 1975 
Q 1069 1734 1069 1313 
Q 1069 891 1326 650 
Q 1584 409 2034 409 
Q 2484 409 2743 651 
Q 3003 894 3003 1313 
Q 3003 1734 2745 1975 
Q 2488 2216 2034 2216 
z
M 1403 2484 
Q 997 2584 770 2862 
Q 544 3141 544 3541 
Q 544 4100 942 4425 
Q 1341 4750 2034 4750 
Q 2731 4750 3128 4425 
Q 3525 4100 3525 3541 
Q 3525 3141 3298 2862 
Q 3072 2584 2669 2484 
Q 3125 2378 3379 2068 
Q 3634 1759 3634 1313 
Q 3634 634 3220 271 
Q 2806 -91 2034 -91 
Q 1263 -91 848 271 
Q 434 634 434 1313 
Q 434 1759 690 2068 
Q 947 2378 1403 2484 
z
M 1172 3481 
Q 1172 3119 1398 2916 
Q 1625 2713 2034 2713 
Q 2441 2713 2670 2916 
Q 2900 3119 2900 3481 
Q 2900 3844 2670 4047 
Q 2441 4250 2034 4250 
Q 1625 4250 1398 4047 
Q 1172 3844 1172 3481 
z
" transform="scale(0.015625)"/>
      <path id="DejaVuSans-4f" d="M 2522 4238 
Q 1834 4238 1429 3725 
Q 1025 3213 1025 2328 
Q 1025 1447 1429 934 
Q 1834 422 2522 422 
Q 3209 422 3611 934 
Q 4013 1447 4013 2328 
Q 4013 3213 3611 3725 
Q 3209 4238 2522 4238 
z
M 2522 4750 
Q 3503 4750 4090 4092 
Q 4678 3434 4678 2328 
Q 4678 1225 4090 567 
Q 3503 -91 2522 -91 
Q 1538 -91 948 565 
Q 359 1222 359 2328 
Q 359 3434 948 4092 
Q 1538 4750 2522 4750 
z
" transform="scale(0.015625)"/>
     </defs>
     <use xlink:href="#DejaVuSans-43"/>
     <use xlink:href="#DejaVuSans-33" transform="translate(69.824219 0)"/>
     <use xlink:href="#DejaVuSans-48" transform="translate(133.447266 0)"/>
     <use xlink:href="#DejaVuSans-36" transform="translate(208.642578 0)"/>
     <use xlink:href="#DejaVuSans-43" transform="translate(272.265625 0)"/>
     <use xlink:href="#DejaVuSans-75" transform="translate(342.089844 0)"/>
     <use xlink:href="#DejaVuSans-34" transform="translate(405.46875 0)"/>
     <use xlink:href="#DejaVuSans-38" transform="translate(469.091797 0)"/>
     <use xlink:href="#DejaVuSans-4f" transform="translate(532.714844 0)"/>
    </g>
    <!-- Error: -8.27 eV -->
    <g transform="translate(125.084687 9.817082) scale(0.1 -0.1)">
     <defs>
      <path id="DejaVuSans-45" d="M 628 4666 
L 3578 4666 
L 3578 4134 
L 1259 4134 
L 1259 2753 
L 3481 2753 
L 3481 2222 
L 1259 2222 
L 1259 531 
L 3634 531 
L 3634 0 
L 628 0 
L 628 4666 
z
" transform="scale(0.015625)"/>
      <path id="DejaVuSans-72" d="M 2631 2963 
Q 2534 3019 2420 3045 
Q 2306 3072 2169 3072 
Q 1681 3072 1420 2755 
Q 1159 2438 1159 1844 
L 1159 0 
L 581 0 
L 581 3500 
L 1159 3500 
L 1159 2956 
Q 1341 3275 1631 3429 
Q 1922 3584 2338 3584 
Q 2397 3584 2469 3576 
Q 2541 3569 2628 3553 
L 2631 2963 
z
" transform="scale(0.015625)"/>
      <path id="DejaVuSans-6f" d="M 1959 3097 
Q 1497 3097 1228 2736 
Q 959 2375 959 1747 
Q 959 1119 1226 758 
Q 1494 397 1959 397 
Q 2419 397 2687 759 
Q 2956 1122 2956 1747 
Q 2956 2369 2687 2733 
Q 2419 3097 1959 3097 
z
M 1959 3584 
Q 2709 3584 3137 3096 
Q 3566 2609 3566 1747 
Q 3566 888 3137 398 
Q 2709 -91 1959 -91 
Q 1206 -91 779 398 
Q 353 888 353 1747 
Q 353 2609 779 3096 
Q 1206 3584 1959 3584 
z
" transform="scale(0.015625)"/>
      <path id="DejaVuSans-3a" d="M 750 794 
L 1409 794 
L 1409 0 
L 750 0 
L 750 794 
z
M 750 3309 
L 1409 3309 
L 1409 2516 
L 750 2516 
L 750 3309 
z
" transform="scale(0.015625)"/>
      <path id="DejaVuSans-20" transform="scale(0.015625)"/>
      <path id="DejaVuSans-2d" d="M 313 2009 
L 1997 2009 
L 1997 1497 
L 313 1497 
L 313 2009 
z
" transform="scale(0.015625)"/>
      <path id="DejaVuSans-2e" d="M 684 794 
L 1344 794 
L 1344 0 
L 684 0 
L 684 794 
z
" transform="scale(0.015625)"/>
      <path id="DejaVuSans-32" d="M 1228 531 
L 3431 531 
L 3431 0 
L 469 0 
L 469 531 
Q 828 903 1448 1529 
Q 2069 2156 2228 2338 
Q 2531 2678 2651 2914 
Q 2772 3150 2772 3378 
Q 2772 3750 2511 3984 
Q 2250 4219 1831 4219 
Q 1534 4219 1204 4116 
Q 875 4013 500 3803 
L 500 4441 
Q 881 4594 1212 4672 
Q 1544 4750 1819 4750 
Q 2544 4750 2975 4387 
Q 3406 4025 3406 3419 
Q 3406 3131 3298 2873 
Q 3191 2616 2906 2266 
Q 2828 2175 2409 1742 
Q 1991 1309 1228 531 
z
" transform="scale(0.015625)"/>
      <path id="DejaVuSans-37" d="M 525 4666 
L 3525 4666 
L 3525 4397 
L 1831 0 
L 1172 0 
L 2766 4134 
L 525 4134 
L 525 4666 
z
" transform="scale(0.015625)"/>
      <path id="DejaVuSans-65" d="M 3597 1894 
L 3597 1613 
L 953 1613 
Q 991 1019 1311 708 
Q 1631 397 2203 397 
Q 2534 397 2845 478 
Q 3156 559 3463 722 
L 3463 178 
Q 3153 47 2828 -22 
Q 2503 -91 2169 -91 
Q 1331 -91 842 396 
Q 353 884 353 1716 
Q 353 2575 817 3079 
Q 1281 3584 2069 3584 
Q 2775 3584 3186 3129 
Q 3597 2675 3597 1894 
z
M 3022 2063 
Q 3016 2534 2758 2815 
Q 2500 3097 2075 3097 
Q 1594 3097 1305 2825 
Q 1016 2553 972 2059 
L 3022 2063 
z
" transform="scale(0.015625)"/>
      <path id="DejaVuSans-56" d="M 1831 0 
L 50 4666 
L 709 4666 
L 2188 738 
L 3669 4666 
L 4325 4666 
L 2547 0 
L 1831 0 
z
" transform="scale(0.015625)"/>
     </defs>
     <use xlink:href="#DejaVuSans-45"/>
     <use xlink:href="#DejaVuSans-72" transform="translate(63.183594 0)"/>
     <use xlink:href="#DejaVuSans-72" transform="translate(102.546875 0)"/>
     <use xlink:href="#DejaVuSans-6f" transform="translate(141.410156 0)"/>
     <use xlink:href="#DejaVuSans-72" transform="translate(202.591797 0)"/>
     <use xlink:href="#DejaVuSans-3a" transform="translate(241.955078 0)"/>
     <use xlink:href="#DejaVuSans-20" transform="translate(275.646484 0)"/>
     <use xlink:href="#DejaVuSans-2d" transform="translate(307.433594 0)"/>
     <use xlink:href="#DejaVuSans-38" transform="translate(343.517578 0)"/>
     <use xlink:href="#DejaVuSans-2e" transform="translate(407.140625 0)"/>
     <use xlink:href="#DejaVuSans-32" transform="translate(438.927734 0)"/>
     <use xlink:href="#DejaVuSans-37" transform="translate(502.550781 0)"/>
     <use xlink:href="#DejaVuSans-20" transform="translate(566.173828 0)"/>
     <use xlink:href="#DejaVuSans-65" transform="translate(597.960938 0)"/>
     <use xlink:href="#DejaVuSans-56" transform="translate(659.484375 0)"/>
    </g>
   </g>
  </g>
 </g>
 <defs>
  <clipPath id="p22e2b8bac8">
   <rect x="36" y="34.56" width="223.2" height="221.76"/>
  </clipPath>
 </defs>
</svg>
