<?xml version="1.0" encoding="utf-8" standalone="no"?>
<!DOCTYPE svg PUBLIC "-//W3C//DTD SVG 1.1//EN"
  "http://www.w3.org/Graphics/SVG/1.1/DTD/svg11.dtd">
<svg xmlns:xlink="http://www.w3.org/1999/xlink" width="288pt" height="288pt" viewBox="0 0 288 288" xmlns="http://www.w3.org/2000/svg" version="1.1">
 <metadata>
  <rdf:RDF xmlns:dc="http://purl.org/dc/elements/1.1/" xmlns:cc="http://creativecommons.org/ns#" xmlns:rdf="http://www.w3.org/1999/02/22-rdf-syntax-ns#">
   <cc:Work>
    <dc:type rdf:resource="http://purl.org/dc/dcmitype/StillImage"/>
    <dc:date>2025-06-30T12:07:56.192795</dc:date>
    <dc:format>image/svg+xml</dc:format>
    <dc:creator>
     <cc:Agent>
      <dc:title>Matplotlib v3.10.1, https://matplotlib.org/</dc:title>
     </cc:Agent>
    </dc:creator>
   </cc:Work>
  </rdf:RDF>
 </metadata>
 <defs>
  <style type="text/css">*{stroke-linejoin: round; stroke-linecap: butt}</style>
 </defs>
 <g id="figure_1">
  <g id="patch_1">
   <path d="M 0 288 
L 288 288 
L 288 0 
L 0 0 
z
" style="fill: #ffffff"/>
  </g>
  <g id="axes_1">
   <g id="LineCollection_1">
    <path d="M 108.738977 71.093089 
L 177.836474 55.947908 
" clip-path="url(#p10c974fdc1)" style="fill: none; stroke: #000000; stroke-width: 1.2"/>
    <path d="M 108.738977 71.093089 
L 55.368595 84.062498 
" clip-path="url(#p10c974fdc1)" style="fill: none; stroke: #000000; stroke-width: 1.2"/>
    <path d="M 108.738977 71.093089 
L 153.555276 68.695901 
" clip-path="url(#p10c974fdc1)" style="fill: none; stroke: #000000; stroke-width: 1.2"/>
    <path d="M 108.738977 71.093089 
L 64.226919 89.489592 
" clip-path="url(#p10c974fdc1)" style="fill: none; stroke: #000000; stroke-width: 1.2"/>
    <path d="M 108.738977 71.093089 
L 174.138776 76.779725 
" clip-path="url(#p10c974fdc1)" style="fill: none; stroke: #000000; stroke-width: 1.2"/>
    <path d="M 108.738977 71.093089 
L 84.303749 63.029098 
" clip-path="url(#p10c974fdc1)" style="fill: none; stroke: #000000; stroke-width: 1.2"/>
    <path d="M 108.738977 71.093089 
L 173.050673 102.240666 
" clip-path="url(#p10c974fdc1)" style="fill: none; stroke: #000000; stroke-width: 1.2"/>
    <path d="M 108.738977 71.093089 
L 70.776846 113.456448 
" clip-path="url(#p10c974fdc1)" style="fill: none; stroke: #000000; stroke-width: 1.2"/>
    <path d="M 108.738977 71.093089 
L 134.437296 115.640385 
" clip-path="url(#p10c974fdc1)" style="fill: none; stroke: #000000; stroke-width: 1.2"/>
    <path d="M 177.836474 55.947908 
L 78.958565 70.701566 
" clip-path="url(#p10c974fdc1)" style="fill: none; stroke: #000000; stroke-width: 1.2"/>
    <path d="M 177.836474 55.947908 
L 133.667432 61.481885 
" clip-path="url(#p10c974fdc1)" style="fill: none; stroke: #000000; stroke-width: 1.2"/>
    <path d="M 177.836474 55.947908 
L 153.555276 68.695901 
" clip-path="url(#p10c974fdc1)" style="fill: none; stroke: #000000; stroke-width: 1.2"/>
    <path d="M 177.836474 55.947908 
L 128.954348 53.803636 
" clip-path="url(#p10c974fdc1)" style="fill: none; stroke: #000000; stroke-width: 1.2"/>
    <path d="M 177.836474 55.947908 
L 174.138776 76.779725 
" clip-path="url(#p10c974fdc1)" style="fill: none; stroke: #000000; stroke-width: 1.2"/>
    <path d="M 177.836474 55.947908 
L 173.050673 102.240666 
" clip-path="url(#p10c974fdc1)" style="fill: none; stroke: #000000; stroke-width: 1.2"/>
    <path d="M 177.836474 55.947908 
L 205.925243 98.438447 
" clip-path="url(#p10c974fdc1)" style="fill: none; stroke: #000000; stroke-width: 1.2"/>
    <path d="M 177.836474 55.947908 
L 147.674353 91.859366 
" clip-path="url(#p10c974fdc1)" style="fill: none; stroke: #000000; stroke-width: 1.2"/>
    <path d="M 78.958565 70.701566 
L 133.667432 61.481885 
" clip-path="url(#p10c974fdc1)" style="fill: none; stroke: #000000; stroke-width: 1.2"/>
    <path d="M 78.958565 70.701566 
L 55.368595 84.062498 
" clip-path="url(#p10c974fdc1)" style="fill: none; stroke: #000000; stroke-width: 1.2"/>
    <path d="M 78.958565 70.701566 
L 128.954348 53.803636 
" clip-path="url(#p10c974fdc1)" style="fill: none; stroke: #000000; stroke-width: 1.2"/>
    <path d="M 78.958565 70.701566 
L 64.226919 89.489592 
" clip-path="url(#p10c974fdc1)" style="fill: none; stroke: #000000; stroke-width: 1.2"/>
    <path d="M 78.958565 70.701566 
L 113.155207 84.640144 
" clip-path="url(#p10c974fdc1)" style="fill: none; stroke: #000000; stroke-width: 1.2"/>
    <path d="M 78.958565 70.701566 
L 147.674353 91.859366 
" clip-path="url(#p10c974fdc1)" style="fill: none; stroke: #000000; stroke-width: 1.2"/>
    <path d="M 78.958565 70.701566 
L 96.355159 107.639554 
" clip-path="url(#p10c974fdc1)" style="fill: none; stroke: #000000; stroke-width: 1.2"/>
    <path d="M 78.958565 70.701566 
L 82.449864 124.621789 
" clip-path="url(#p10c974fdc1)" style="fill: none; stroke: #000000; stroke-width: 1.2"/>
    <path d="M 133.667432 61.481885 
L 55.368595 84.062498 
" clip-path="url(#p10c974fdc1)" style="fill: none; stroke: #000000; stroke-width: 1.2"/>
    <path d="M 133.667432 61.481885 
L 174.138776 76.779725 
" clip-path="url(#p10c974fdc1)" style="fill: none; stroke: #000000; stroke-width: 1.2"/>
    <path d="M 133.667432 61.481885 
L 192.898704 65.947791 
" clip-path="url(#p10c974fdc1)" style="fill: none; stroke: #000000; stroke-width: 1.2"/>
    <path d="M 133.667432 61.481885 
L 84.303749 63.029098 
" clip-path="url(#p10c974fdc1)" style="fill: none; stroke: #000000; stroke-width: 1.2"/>
    <path d="M 133.667432 61.481885 
L 205.925243 98.438447 
" clip-path="url(#p10c974fdc1)" style="fill: none; stroke: #000000; stroke-width: 1.2"/>
    <path d="M 133.667432 61.481885 
L 96.355159 107.639554 
" clip-path="url(#p10c974fdc1)" style="fill: none; stroke: #000000; stroke-width: 1.2"/>
    <path d="M 133.667432 61.481885 
L 150.738453 100.693659 
" clip-path="url(#p10c974fdc1)" style="fill: none; stroke: #000000; stroke-width: 1.2"/>
    <path d="M 55.368595 84.062498 
L 153.555276 68.695901 
" clip-path="url(#p10c974fdc1)" style="fill: none; stroke: #000000; stroke-width: 1.2"/>
    <path d="M 55.368595 84.062498 
L 113.155207 84.640144 
" clip-path="url(#p10c974fdc1)" style="fill: none; stroke: #000000; stroke-width: 1.2"/>
    <path d="M 55.368595 84.062498 
L 84.303749 63.029098 
" clip-path="url(#p10c974fdc1)" style="fill: none; stroke: #000000; stroke-width: 1.2"/>
    <path d="M 55.368595 84.062498 
L 96.355159 107.639554 
" clip-path="url(#p10c974fdc1)" style="fill: none; stroke: #000000; stroke-width: 1.2"/>
    <path d="M 55.368595 84.062498 
L 70.776846 113.456448 
" clip-path="url(#p10c974fdc1)" style="fill: none; stroke: #000000; stroke-width: 1.2"/>
    <path d="M 55.368595 84.062498 
L 123.05254 120.91298 
" clip-path="url(#p10c974fdc1)" style="fill: none; stroke: #000000; stroke-width: 1.2"/>
    <path d="M 153.555276 68.695901 
L 128.954348 53.803636 
" clip-path="url(#p10c974fdc1)" style="fill: none; stroke: #000000; stroke-width: 1.2"/>
    <path d="M 153.555276 68.695901 
L 113.155207 84.640144 
" clip-path="url(#p10c974fdc1)" style="fill: none; stroke: #000000; stroke-width: 1.2"/>
    <path d="M 153.555276 68.695901 
L 192.898704 65.947791 
" clip-path="url(#p10c974fdc1)" style="fill: none; stroke: #000000; stroke-width: 1.2"/>
    <path d="M 153.555276 68.695901 
L 173.050673 102.240666 
" clip-path="url(#p10c974fdc1)" style="fill: none; stroke: #000000; stroke-width: 1.2"/>
    <path d="M 153.555276 68.695901 
L 123.05254 120.91298 
" clip-path="url(#p10c974fdc1)" style="fill: none; stroke: #000000; stroke-width: 1.2"/>
    <path d="M 153.555276 68.695901 
L 199.28507 93.842315 
" clip-path="url(#p10c974fdc1)" style="fill: none; stroke: #000000; stroke-width: 1.2"/>
    <path d="M 128.954348 53.803636 
L 64.226919 89.489592 
" clip-path="url(#p10c974fdc1)" style="fill: none; stroke: #000000; stroke-width: 1.2"/>
    <path d="M 128.954348 53.803636 
L 192.898704 65.947791 
" clip-path="url(#p10c974fdc1)" style="fill: none; stroke: #000000; stroke-width: 1.2"/>
    <path d="M 128.954348 53.803636 
L 84.303749 63.029098 
" clip-path="url(#p10c974fdc1)" style="fill: none; stroke: #000000; stroke-width: 1.2"/>
    <path d="M 128.954348 53.803636 
L 147.674353 91.859366 
" clip-path="url(#p10c974fdc1)" style="fill: none; stroke: #000000; stroke-width: 1.2"/>
    <path d="M 128.954348 53.803636 
L 102.284563 101.271155 
" clip-path="url(#p10c974fdc1)" style="fill: none; stroke: #000000; stroke-width: 1.2"/>
    <path d="M 128.954348 53.803636 
L 199.28507 93.842315 
" clip-path="url(#p10c974fdc1)" style="fill: none; stroke: #000000; stroke-width: 1.2"/>
    <path d="M 64.226919 89.489592 
L 174.138776 76.779725 
" clip-path="url(#p10c974fdc1)" style="fill: none; stroke: #000000; stroke-width: 1.2"/>
    <path d="M 64.226919 89.489592 
L 113.155207 84.640144 
" clip-path="url(#p10c974fdc1)" style="fill: none; stroke: #000000; stroke-width: 1.2"/>
    <path d="M 64.226919 89.489592 
L 84.303749 63.029098 
" clip-path="url(#p10c974fdc1)" style="fill: none; stroke: #000000; stroke-width: 1.2"/>
    <path d="M 64.226919 89.489592 
L 102.284563 101.271155 
" clip-path="url(#p10c974fdc1)" style="fill: none; stroke: #000000; stroke-width: 1.2"/>
    <path d="M 64.226919 89.489592 
L 82.449864 124.621789 
" clip-path="url(#p10c974fdc1)" style="fill: none; stroke: #000000; stroke-width: 1.2"/>
    <path d="M 64.226919 89.489592 
L 134.437296 115.640385 
" clip-path="url(#p10c974fdc1)" style="fill: none; stroke: #000000; stroke-width: 1.2"/>
    <path d="M 174.138776 76.779725 
L 113.155207 84.640144 
" clip-path="url(#p10c974fdc1)" style="fill: none; stroke: #000000; stroke-width: 1.2"/>
    <path d="M 174.138776 76.779725 
L 192.898704 65.947791 
" clip-path="url(#p10c974fdc1)" style="fill: none; stroke: #000000; stroke-width: 1.2"/>
    <path d="M 174.138776 76.779725 
L 205.925243 98.438447 
" clip-path="url(#p10c974fdc1)" style="fill: none; stroke: #000000; stroke-width: 1.2"/>
    <path d="M 174.138776 76.779725 
L 134.437296 115.640385 
" clip-path="url(#p10c974fdc1)" style="fill: none; stroke: #000000; stroke-width: 1.2"/>
    <path d="M 174.138776 76.779725 
L 184.932782 115.744188 
" clip-path="url(#p10c974fdc1)" style="fill: none; stroke: #000000; stroke-width: 1.2"/>
    <path d="M 113.155207 84.640144 
L 192.898704 65.947791 
" clip-path="url(#p10c974fdc1)" style="fill: none; stroke: #000000; stroke-width: 1.2"/>
    <path d="M 113.155207 84.640144 
L 123.05254 120.91298 
" clip-path="url(#p10c974fdc1)" style="fill: none; stroke: #000000; stroke-width: 1.2"/>
    <path d="M 113.155207 84.640144 
L 82.449864 124.621789 
" clip-path="url(#p10c974fdc1)" style="fill: none; stroke: #000000; stroke-width: 1.2"/>
    <path d="M 113.155207 84.640144 
L 184.932782 115.744188 
" clip-path="url(#p10c974fdc1)" style="fill: none; stroke: #000000; stroke-width: 1.2"/>
    <path d="M 192.898704 65.947791 
L 84.303749 63.029098 
" clip-path="url(#p10c974fdc1)" style="fill: none; stroke: #000000; stroke-width: 1.2"/>
    <path d="M 192.898704 65.947791 
L 184.932782 115.744188 
" clip-path="url(#p10c974fdc1)" style="fill: none; stroke: #000000; stroke-width: 1.2"/>
    <path d="M 192.898704 65.947791 
L 199.28507 93.842315 
" clip-path="url(#p10c974fdc1)" style="fill: none; stroke: #000000; stroke-width: 1.2"/>
    <path d="M 192.898704 65.947791 
L 150.738453 100.693659 
" clip-path="url(#p10c974fdc1)" style="fill: none; stroke: #000000; stroke-width: 1.2"/>
    <path d="M 84.303749 63.029098 
L 70.776846 113.456448 
" clip-path="url(#p10c974fdc1)" style="fill: none; stroke: #000000; stroke-width: 1.2"/>
    <path d="M 84.303749 63.029098 
L 102.284563 101.271155 
" clip-path="url(#p10c974fdc1)" style="fill: none; stroke: #000000; stroke-width: 1.2"/>
    <path d="M 84.303749 63.029098 
L 150.738453 100.693659 
" clip-path="url(#p10c974fdc1)" style="fill: none; stroke: #000000; stroke-width: 1.2"/>
    <path d="M 173.050673 102.240666 
L 205.925243 98.438447 
" clip-path="url(#p10c974fdc1)" style="fill: none; stroke: #000000; stroke-width: 1.2"/>
    <path d="M 173.050673 102.240666 
L 147.674353 91.859366 
" clip-path="url(#p10c974fdc1)" style="fill: none; stroke: #000000; stroke-width: 1.2"/>
    <path d="M 173.050673 102.240666 
L 70.776846 113.456448 
" clip-path="url(#p10c974fdc1)" style="fill: none; stroke: #000000; stroke-width: 1.2"/>
    <path d="M 173.050673 102.240666 
L 123.05254 120.91298 
" clip-path="url(#p10c974fdc1)" style="fill: none; stroke: #000000; stroke-width: 1.2"/>
    <path d="M 173.050673 102.240666 
L 134.437296 115.640385 
" clip-path="url(#p10c974fdc1)" style="fill: none; stroke: #000000; stroke-width: 1.2"/>
    <path d="M 173.050673 102.240666 
L 199.28507 93.842315 
" clip-path="url(#p10c974fdc1)" style="fill: none; stroke: #000000; stroke-width: 1.2"/>
    <path d="M 173.050673 102.240666 
L 143.3076 149.75788 
" clip-path="url(#p10c974fdc1)" style="fill: none; stroke: #000000; stroke-width: 1.2"/>
    <path d="M 173.050673 102.240666 
L 220.307632 122.806259 
" clip-path="url(#p10c974fdc1)" style="fill: none; stroke: #000000; stroke-width: 1.2"/>
    <path d="M 173.050673 102.240666 
L 187.402059 144.414093 
" clip-path="url(#p10c974fdc1)" style="fill: none; stroke: #000000; stroke-width: 1.2"/>
    <path d="M 205.925243 98.438447 
L 147.674353 91.859366 
" clip-path="url(#p10c974fdc1)" style="fill: none; stroke: #000000; stroke-width: 1.2"/>
    <path d="M 205.925243 98.438447 
L 96.355159 107.639554 
" clip-path="url(#p10c974fdc1)" style="fill: none; stroke: #000000; stroke-width: 1.2"/>
    <path d="M 205.925243 98.438447 
L 134.437296 115.640385 
" clip-path="url(#p10c974fdc1)" style="fill: none; stroke: #000000; stroke-width: 1.2"/>
    <path d="M 205.925243 98.438447 
L 184.932782 115.744188 
" clip-path="url(#p10c974fdc1)" style="fill: none; stroke: #000000; stroke-width: 1.2"/>
    <path d="M 205.925243 98.438447 
L 150.738453 100.693659 
" clip-path="url(#p10c974fdc1)" style="fill: none; stroke: #000000; stroke-width: 1.2"/>
    <path d="M 205.925243 98.438447 
L 220.307632 122.806259 
" clip-path="url(#p10c974fdc1)" style="fill: none; stroke: #000000; stroke-width: 1.2"/>
    <path d="M 205.925243 98.438447 
L 164.075254 138.861011 
" clip-path="url(#p10c974fdc1)" style="fill: none; stroke: #000000; stroke-width: 1.2"/>
    <path d="M 205.925243 98.438447 
L 200.744208 149.677351 
" clip-path="url(#p10c974fdc1)" style="fill: none; stroke: #000000; stroke-width: 1.2"/>
    <path d="M 147.674353 91.859366 
L 96.355159 107.639554 
" clip-path="url(#p10c974fdc1)" style="fill: none; stroke: #000000; stroke-width: 1.2"/>
    <path d="M 147.674353 91.859366 
L 102.284563 101.271155 
" clip-path="url(#p10c974fdc1)" style="fill: none; stroke: #000000; stroke-width: 1.2"/>
    <path d="M 147.674353 91.859366 
L 82.449864 124.621789 
" clip-path="url(#p10c974fdc1)" style="fill: none; stroke: #000000; stroke-width: 1.2"/>
    <path d="M 147.674353 91.859366 
L 199.28507 93.842315 
" clip-path="url(#p10c974fdc1)" style="fill: none; stroke: #000000; stroke-width: 1.2"/>
    <path d="M 147.674353 91.859366 
L 220.307632 122.806259 
" clip-path="url(#p10c974fdc1)" style="fill: none; stroke: #000000; stroke-width: 1.2"/>
    <path d="M 147.674353 91.859366 
L 122.550347 144.239666 
" clip-path="url(#p10c974fdc1)" style="fill: none; stroke: #000000; stroke-width: 1.2"/>
    <path d="M 147.674353 91.859366 
L 170.584881 128.150034 
" clip-path="url(#p10c974fdc1)" style="fill: none; stroke: #000000; stroke-width: 1.2"/>
    <path d="M 96.355159 107.639554 
L 70.776846 113.456448 
" clip-path="url(#p10c974fdc1)" style="fill: none; stroke: #000000; stroke-width: 1.2"/>
    <path d="M 96.355159 107.639554 
L 123.05254 120.91298 
" clip-path="url(#p10c974fdc1)" style="fill: none; stroke: #000000; stroke-width: 1.2"/>
    <path d="M 96.355159 107.639554 
L 82.449864 124.621789 
" clip-path="url(#p10c974fdc1)" style="fill: none; stroke: #000000; stroke-width: 1.2"/>
    <path d="M 96.355159 107.639554 
L 150.738453 100.693659 
" clip-path="url(#p10c974fdc1)" style="fill: none; stroke: #000000; stroke-width: 1.2"/>
    <path d="M 96.355159 107.639554 
L 122.550347 144.239666 
" clip-path="url(#p10c974fdc1)" style="fill: none; stroke: #000000; stroke-width: 1.2"/>
    <path d="M 96.355159 107.639554 
L 164.075254 138.861011 
" clip-path="url(#p10c974fdc1)" style="fill: none; stroke: #000000; stroke-width: 1.2"/>
    <path d="M 96.355159 107.639554 
L 83.567597 151.077168 
" clip-path="url(#p10c974fdc1)" style="fill: none; stroke: #000000; stroke-width: 1.2"/>
    <path d="M 70.776846 113.456448 
L 123.05254 120.91298 
" clip-path="url(#p10c974fdc1)" style="fill: none; stroke: #000000; stroke-width: 1.2"/>
    <path d="M 70.776846 113.456448 
L 102.284563 101.271155 
" clip-path="url(#p10c974fdc1)" style="fill: none; stroke: #000000; stroke-width: 1.2"/>
    <path d="M 70.776846 113.456448 
L 134.437296 115.640385 
" clip-path="url(#p10c974fdc1)" style="fill: none; stroke: #000000; stroke-width: 1.2"/>
    <path d="M 70.776846 113.456448 
L 150.738453 100.693659 
" clip-path="url(#p10c974fdc1)" style="fill: none; stroke: #000000; stroke-width: 1.2"/>
    <path d="M 70.776846 113.456448 
L 143.3076 149.75788 
" clip-path="url(#p10c974fdc1)" style="fill: none; stroke: #000000; stroke-width: 1.2"/>
    <path d="M 70.776846 113.456448 
L 83.567597 151.077168 
" clip-path="url(#p10c974fdc1)" style="fill: none; stroke: #000000; stroke-width: 1.2"/>
    <path d="M 70.776846 113.456448 
L 103.732568 138.074949 
" clip-path="url(#p10c974fdc1)" style="fill: none; stroke: #000000; stroke-width: 1.2"/>
    <path d="M 123.05254 120.91298 
L 82.449864 124.621789 
" clip-path="url(#p10c974fdc1)" style="fill: none; stroke: #000000; stroke-width: 1.2"/>
    <path d="M 123.05254 120.91298 
L 184.932782 115.744188 
" clip-path="url(#p10c974fdc1)" style="fill: none; stroke: #000000; stroke-width: 1.2"/>
    <path d="M 123.05254 120.91298 
L 199.28507 93.842315 
" clip-path="url(#p10c974fdc1)" style="fill: none; stroke: #000000; stroke-width: 1.2"/>
    <path d="M 123.05254 120.91298 
L 83.567597 151.077168 
" clip-path="url(#p10c974fdc1)" style="fill: none; stroke: #000000; stroke-width: 1.2"/>
    <path d="M 123.05254 120.91298 
L 187.402059 144.414093 
" clip-path="url(#p10c974fdc1)" style="fill: none; stroke: #000000; stroke-width: 1.2"/>
    <path d="M 123.05254 120.91298 
L 149.924997 162.933232 
" clip-path="url(#p10c974fdc1)" style="fill: none; stroke: #000000; stroke-width: 1.2"/>
    <path d="M 102.284563 101.271155 
L 82.449864 124.621789 
" clip-path="url(#p10c974fdc1)" style="fill: none; stroke: #000000; stroke-width: 1.2"/>
    <path d="M 102.284563 101.271155 
L 134.437296 115.640385 
" clip-path="url(#p10c974fdc1)" style="fill: none; stroke: #000000; stroke-width: 1.2"/>
    <path d="M 102.284563 101.271155 
L 199.28507 93.842315 
" clip-path="url(#p10c974fdc1)" style="fill: none; stroke: #000000; stroke-width: 1.2"/>
    <path d="M 102.284563 101.271155 
L 150.738453 100.693659 
" clip-path="url(#p10c974fdc1)" style="fill: none; stroke: #000000; stroke-width: 1.2"/>
    <path d="M 102.284563 101.271155 
L 170.584881 128.150034 
" clip-path="url(#p10c974fdc1)" style="fill: none; stroke: #000000; stroke-width: 1.2"/>
    <path d="M 102.284563 101.271155 
L 104.540545 157.111712 
" clip-path="url(#p10c974fdc1)" style="fill: none; stroke: #000000; stroke-width: 1.2"/>
    <path d="M 102.284563 101.271155 
L 103.732568 138.074949 
" clip-path="url(#p10c974fdc1)" style="fill: none; stroke: #000000; stroke-width: 1.2"/>
    <path d="M 82.449864 124.621789 
L 134.437296 115.640385 
" clip-path="url(#p10c974fdc1)" style="fill: none; stroke: #000000; stroke-width: 1.2"/>
    <path d="M 82.449864 124.621789 
L 184.932782 115.744188 
" clip-path="url(#p10c974fdc1)" style="fill: none; stroke: #000000; stroke-width: 1.2"/>
    <path d="M 82.449864 124.621789 
L 122.550347 144.239666 
" clip-path="url(#p10c974fdc1)" style="fill: none; stroke: #000000; stroke-width: 1.2"/>
    <path d="M 82.449864 124.621789 
L 104.540545 157.111712 
" clip-path="url(#p10c974fdc1)" style="fill: none; stroke: #000000; stroke-width: 1.2"/>
    <path d="M 82.449864 124.621789 
L 149.924997 162.933232 
" clip-path="url(#p10c974fdc1)" style="fill: none; stroke: #000000; stroke-width: 1.2"/>
    <path d="M 134.437296 115.640385 
L 184.932782 115.744188 
" clip-path="url(#p10c974fdc1)" style="fill: none; stroke: #000000; stroke-width: 1.2"/>
    <path d="M 134.437296 115.640385 
L 143.3076 149.75788 
" clip-path="url(#p10c974fdc1)" style="fill: none; stroke: #000000; stroke-width: 1.2"/>
    <path d="M 134.437296 115.640385 
L 104.540545 157.111712 
" clip-path="url(#p10c974fdc1)" style="fill: none; stroke: #000000; stroke-width: 1.2"/>
    <path d="M 134.437296 115.640385 
L 200.744208 149.677351 
" clip-path="url(#p10c974fdc1)" style="fill: none; stroke: #000000; stroke-width: 1.2"/>
    <path d="M 184.932782 115.744188 
L 199.28507 93.842315 
" clip-path="url(#p10c974fdc1)" style="fill: none; stroke: #000000; stroke-width: 1.2"/>
    <path d="M 184.932782 115.744188 
L 150.738453 100.693659 
" clip-path="url(#p10c974fdc1)" style="fill: none; stroke: #000000; stroke-width: 1.2"/>
    <path d="M 184.932782 115.744188 
L 200.744208 149.677351 
" clip-path="url(#p10c974fdc1)" style="fill: none; stroke: #000000; stroke-width: 1.2"/>
    <path d="M 184.932782 115.744188 
L 149.924997 162.933232 
" clip-path="url(#p10c974fdc1)" style="fill: none; stroke: #000000; stroke-width: 1.2"/>
    <path d="M 184.932782 115.744188 
L 218.897698 134.997094 
" clip-path="url(#p10c974fdc1)" style="fill: none; stroke: #000000; stroke-width: 1.2"/>
    <path d="M 199.28507 93.842315 
L 150.738453 100.693659 
" clip-path="url(#p10c974fdc1)" style="fill: none; stroke: #000000; stroke-width: 1.2"/>
    <path d="M 199.28507 93.842315 
L 187.402059 144.414093 
" clip-path="url(#p10c974fdc1)" style="fill: none; stroke: #000000; stroke-width: 1.2"/>
    <path d="M 199.28507 93.842315 
L 170.584881 128.150034 
" clip-path="url(#p10c974fdc1)" style="fill: none; stroke: #000000; stroke-width: 1.2"/>
    <path d="M 199.28507 93.842315 
L 218.897698 134.997094 
" clip-path="url(#p10c974fdc1)" style="fill: none; stroke: #000000; stroke-width: 1.2"/>
    <path d="M 150.738453 100.693659 
L 164.075254 138.861011 
" clip-path="url(#p10c974fdc1)" style="fill: none; stroke: #000000; stroke-width: 1.2"/>
    <path d="M 150.738453 100.693659 
L 218.897698 134.997094 
" clip-path="url(#p10c974fdc1)" style="fill: none; stroke: #000000; stroke-width: 1.2"/>
    <path d="M 150.738453 100.693659 
L 103.732568 138.074949 
" clip-path="url(#p10c974fdc1)" style="fill: none; stroke: #000000; stroke-width: 1.2"/>
    <path d="M 143.3076 149.75788 
L 220.307632 122.806259 
" clip-path="url(#p10c974fdc1)" style="fill: none; stroke: #000000; stroke-width: 1.2"/>
    <path d="M 143.3076 149.75788 
L 83.567597 151.077168 
" clip-path="url(#p10c974fdc1)" style="fill: none; stroke: #000000; stroke-width: 1.2"/>
    <path d="M 143.3076 149.75788 
L 187.402059 144.414093 
" clip-path="url(#p10c974fdc1)" style="fill: none; stroke: #000000; stroke-width: 1.2"/>
    <path d="M 143.3076 149.75788 
L 104.540545 157.111712 
" clip-path="url(#p10c974fdc1)" style="fill: none; stroke: #000000; stroke-width: 1.2"/>
    <path d="M 143.3076 149.75788 
L 200.744208 149.677351 
" clip-path="url(#p10c974fdc1)" style="fill: none; stroke: #000000; stroke-width: 1.2"/>
    <path d="M 143.3076 149.75788 
L 103.732568 138.074949 
" clip-path="url(#p10c974fdc1)" style="fill: none; stroke: #000000; stroke-width: 1.2"/>
    <path d="M 220.307632 122.806259 
L 122.550347 144.239666 
" clip-path="url(#p10c974fdc1)" style="fill: none; stroke: #000000; stroke-width: 1.2"/>
    <path d="M 220.307632 122.806259 
L 164.075254 138.861011 
" clip-path="url(#p10c974fdc1)" style="fill: none; stroke: #000000; stroke-width: 1.2"/>
    <path d="M 220.307632 122.806259 
L 187.402059 144.414093 
" clip-path="url(#p10c974fdc1)" style="fill: none; stroke: #000000; stroke-width: 1.2"/>
    <path d="M 220.307632 122.806259 
L 170.584881 128.150034 
" clip-path="url(#p10c974fdc1)" style="fill: none; stroke: #000000; stroke-width: 1.2"/>
    <path d="M 220.307632 122.806259 
L 200.744208 149.677351 
" clip-path="url(#p10c974fdc1)" style="fill: none; stroke: #000000; stroke-width: 1.2"/>
    <path d="M 122.550347 144.239666 
L 164.075254 138.861011 
" clip-path="url(#p10c974fdc1)" style="fill: none; stroke: #000000; stroke-width: 1.2"/>
    <path d="M 122.550347 144.239666 
L 83.567597 151.077168 
" clip-path="url(#p10c974fdc1)" style="fill: none; stroke: #000000; stroke-width: 1.2"/>
    <path d="M 122.550347 144.239666 
L 170.584881 128.150034 
" clip-path="url(#p10c974fdc1)" style="fill: none; stroke: #000000; stroke-width: 1.2"/>
    <path d="M 122.550347 144.239666 
L 104.540545 157.111712 
" clip-path="url(#p10c974fdc1)" style="fill: none; stroke: #000000; stroke-width: 1.2"/>
    <path d="M 122.550347 144.239666 
L 149.924997 162.933232 
" clip-path="url(#p10c974fdc1)" style="fill: none; stroke: #000000; stroke-width: 1.2"/>
    <path d="M 164.075254 138.861011 
L 83.567597 151.077168 
" clip-path="url(#p10c974fdc1)" style="fill: none; stroke: #000000; stroke-width: 1.2"/>
    <path d="M 164.075254 138.861011 
L 200.744208 149.677351 
" clip-path="url(#p10c974fdc1)" style="fill: none; stroke: #000000; stroke-width: 1.2"/>
    <path d="M 164.075254 138.861011 
L 218.897698 134.997094 
" clip-path="url(#p10c974fdc1)" style="fill: none; stroke: #000000; stroke-width: 1.2"/>
    <path d="M 164.075254 138.861011 
L 103.732568 138.074949 
" clip-path="url(#p10c974fdc1)" style="fill: none; stroke: #000000; stroke-width: 1.2"/>
    <path d="M 83.567597 151.077168 
L 187.402059 144.414093 
" clip-path="url(#p10c974fdc1)" style="fill: none; stroke: #000000; stroke-width: 1.2"/>
    <path d="M 83.567597 151.077168 
L 149.924997 162.933232 
" clip-path="url(#p10c974fdc1)" style="fill: none; stroke: #000000; stroke-width: 1.2"/>
    <path d="M 83.567597 151.077168 
L 103.732568 138.074949 
" clip-path="url(#p10c974fdc1)" style="fill: none; stroke: #000000; stroke-width: 1.2"/>
    <path d="M 187.402059 144.414093 
L 170.584881 128.150034 
" clip-path="url(#p10c974fdc1)" style="fill: none; stroke: #000000; stroke-width: 1.2"/>
    <path d="M 187.402059 144.414093 
L 149.924997 162.933232 
" clip-path="url(#p10c974fdc1)" style="fill: none; stroke: #000000; stroke-width: 1.2"/>
    <path d="M 187.402059 144.414093 
L 218.897698 134.997094 
" clip-path="url(#p10c974fdc1)" style="fill: none; stroke: #000000; stroke-width: 1.2"/>
    <path d="M 170.584881 128.150034 
L 104.540545 157.111712 
" clip-path="url(#p10c974fdc1)" style="fill: none; stroke: #000000; stroke-width: 1.2"/>
    <path d="M 170.584881 128.150034 
L 218.897698 134.997094 
" clip-path="url(#p10c974fdc1)" style="fill: none; stroke: #000000; stroke-width: 1.2"/>
    <path d="M 170.584881 128.150034 
L 103.732568 138.074949 
" clip-path="url(#p10c974fdc1)" style="fill: none; stroke: #000000; stroke-width: 1.2"/>
    <path d="M 104.540545 157.111712 
L 200.744208 149.677351 
" clip-path="url(#p10c974fdc1)" style="fill: none; stroke: #000000; stroke-width: 1.2"/>
    <path d="M 104.540545 157.111712 
L 149.924997 162.933232 
" clip-path="url(#p10c974fdc1)" style="fill: none; stroke: #000000; stroke-width: 1.2"/>
    <path d="M 104.540545 157.111712 
L 103.732568 138.074949 
" clip-path="url(#p10c974fdc1)" style="fill: none; stroke: #000000; stroke-width: 1.2"/>
    <path d="M 200.744208 149.677351 
L 149.924997 162.933232 
" clip-path="url(#p10c974fdc1)" style="fill: none; stroke: #000000; stroke-width: 1.2"/>
    <path d="M 200.744208 149.677351 
L 218.897698 134.997094 
" clip-path="url(#p10c974fdc1)" style="fill: none; stroke: #000000; stroke-width: 1.2"/>
    <path d="M 200.744208 149.677351 
L 239.831405 173.909958 
" clip-path="url(#p10c974fdc1)" style="fill: none; stroke: #000000; stroke-width: 1.2"/>
    <path d="M 149.924997 162.933232 
L 218.897698 134.997094 
" clip-path="url(#p10c974fdc1)" style="fill: none; stroke: #000000; stroke-width: 1.2"/>
    <path d="M 149.924997 162.933232 
L 177.151464 201.143261 
" clip-path="url(#p10c974fdc1)" style="fill: none; stroke: #000000; stroke-width: 1.2"/>
    <path d="M 218.897698 134.997094 
L 103.732568 138.074949 
" clip-path="url(#p10c974fdc1)" style="fill: none; stroke: #000000; stroke-width: 1.2"/>
    <path d="M 218.897698 134.997094 
L 239.831405 173.909958 
" clip-path="url(#p10c974fdc1)" style="fill: none; stroke: #000000; stroke-width: 1.2"/>
    <path d="M 138.690941 237.076364 
L 177.151464 201.143261 
" clip-path="url(#p10c974fdc1)" style="fill: none; stroke: #000000; stroke-width: 1.2"/>
    <path d="M 222.38698 231.369974 
L 177.151464 201.143261 
" clip-path="url(#p10c974fdc1)" style="fill: none; stroke: #000000; stroke-width: 1.2"/>
    <path d="M 177.151464 201.143261 
L 239.831405 173.909958 
" clip-path="url(#p10c974fdc1)" style="fill: none; stroke: #000000; stroke-width: 1.2"/>
   </g>
   <g id="PathCollection_1">
    <defs>
     <path id="C0_0_be2e662c53" d="M 0 8.944272 
C 2.372049 8.944272 4.647264 8.001847 6.324555 6.324555 
C 8.001847 4.647264 8.944272 2.372049 8.944272 -0 
C 8.944272 -2.372049 8.001847 -4.647264 6.324555 -6.324555 
C 4.647264 -8.001847 2.372049 -8.944272 0 -8.944272 
C -2.372049 -8.944272 -4.647264 -8.001847 -6.324555 -6.324555 
C -8.001847 -4.647264 -8.944272 -2.372049 -8.944272 0 
C -8.944272 2.372049 -8.001847 4.647264 -6.324555 6.324555 
C -4.647264 8.001847 -2.372049 8.944272 0 8.944272 
z
"/>
    </defs>
    <g clip-path="url(#p10c974fdc1)">
     <use xlink:href="#C0_0_be2e662c53" x="108.738977" y="71.093089" style="fill: #266696; stroke: #266696; stroke-width: 0.5"/>
    </g>
    <g clip-path="url(#p10c974fdc1)">
     <use xlink:href="#C0_0_be2e662c53" x="177.836474" y="55.947908" style="fill: #266696; stroke: #266696; stroke-width: 0.5"/>
    </g>
    <g clip-path="url(#p10c974fdc1)">
     <use xlink:href="#C0_0_be2e662c53" x="78.958565" y="70.701566" style="fill: #266696; stroke: #266696; stroke-width: 0.5"/>
    </g>
    <g clip-path="url(#p10c974fdc1)">
     <use xlink:href="#C0_0_be2e662c53" x="133.667432" y="61.481885" style="fill: #266696; stroke: #266696; stroke-width: 0.5"/>
    </g>
    <g clip-path="url(#p10c974fdc1)">
     <use xlink:href="#C0_0_be2e662c53" x="55.368595" y="84.062498" style="fill: #266696; stroke: #266696; stroke-width: 0.5"/>
    </g>
    <g clip-path="url(#p10c974fdc1)">
     <use xlink:href="#C0_0_be2e662c53" x="153.555276" y="68.695901" style="fill: #266696; stroke: #266696; stroke-width: 0.5"/>
    </g>
    <g clip-path="url(#p10c974fdc1)">
     <use xlink:href="#C0_0_be2e662c53" x="128.954348" y="53.803636" style="fill: #266696; stroke: #266696; stroke-width: 0.5"/>
    </g>
    <g clip-path="url(#p10c974fdc1)">
     <use xlink:href="#C0_0_be2e662c53" x="64.226919" y="89.489592" style="fill: #266696; stroke: #266696; stroke-width: 0.5"/>
    </g>
    <g clip-path="url(#p10c974fdc1)">
     <use xlink:href="#C0_0_be2e662c53" x="174.138776" y="76.779725" style="fill: #266696; stroke: #266696; stroke-width: 0.5"/>
    </g>
    <g clip-path="url(#p10c974fdc1)">
     <use xlink:href="#C0_0_be2e662c53" x="113.155207" y="84.640144" style="fill: #266696; stroke: #266696; stroke-width: 0.5"/>
    </g>
    <g clip-path="url(#p10c974fdc1)">
     <use xlink:href="#C0_0_be2e662c53" x="192.898704" y="65.947791" style="fill: #266696; stroke: #266696; stroke-width: 0.5"/>
    </g>
    <g clip-path="url(#p10c974fdc1)">
     <use xlink:href="#C0_0_be2e662c53" x="84.303749" y="63.029098" style="fill: #266696; stroke: #266696; stroke-width: 0.5"/>
    </g>
    <g clip-path="url(#p10c974fdc1)">
     <use xlink:href="#C0_0_be2e662c53" x="173.050673" y="102.240666" style="fill: #266696; stroke: #266696; stroke-width: 0.5"/>
    </g>
    <g clip-path="url(#p10c974fdc1)">
     <use xlink:href="#C0_0_be2e662c53" x="205.925243" y="98.438447" style="fill: #266696; stroke: #266696; stroke-width: 0.5"/>
    </g>
    <g clip-path="url(#p10c974fdc1)">
     <use xlink:href="#C0_0_be2e662c53" x="147.674353" y="91.859366" style="fill: #266696; stroke: #266696; stroke-width: 0.5"/>
    </g>
    <g clip-path="url(#p10c974fdc1)">
     <use xlink:href="#C0_0_be2e662c53" x="96.355159" y="107.639554" style="fill: #266696; stroke: #266696; stroke-width: 0.5"/>
    </g>
    <g clip-path="url(#p10c974fdc1)">
     <use xlink:href="#C0_0_be2e662c53" x="70.776846" y="113.456448" style="fill: #266696; stroke: #266696; stroke-width: 0.5"/>
    </g>
    <g clip-path="url(#p10c974fdc1)">
     <use xlink:href="#C0_0_be2e662c53" x="123.05254" y="120.91298" style="fill: #266696; stroke: #266696; stroke-width: 0.5"/>
    </g>
    <g clip-path="url(#p10c974fdc1)">
     <use xlink:href="#C0_0_be2e662c53" x="102.284563" y="101.271155" style="fill: #266696; stroke: #266696; stroke-width: 0.5"/>
    </g>
    <g clip-path="url(#p10c974fdc1)">
     <use xlink:href="#C0_0_be2e662c53" x="82.449864" y="124.621789" style="fill: #266696; stroke: #266696; stroke-width: 0.5"/>
    </g>
    <g clip-path="url(#p10c974fdc1)">
     <use xlink:href="#C0_0_be2e662c53" x="134.437296" y="115.640385" style="fill: #266696; stroke: #266696; stroke-width: 0.5"/>
    </g>
    <g clip-path="url(#p10c974fdc1)">
     <use xlink:href="#C0_0_be2e662c53" x="184.932782" y="115.744188" style="fill: #266696; stroke: #266696; stroke-width: 0.5"/>
    </g>
    <g clip-path="url(#p10c974fdc1)">
     <use xlink:href="#C0_0_be2e662c53" x="199.28507" y="93.842315" style="fill: #266696; stroke: #266696; stroke-width: 0.5"/>
    </g>
    <g clip-path="url(#p10c974fdc1)">
     <use xlink:href="#C0_0_be2e662c53" x="150.738453" y="100.693659" style="fill: #266696; stroke: #266696; stroke-width: 0.5"/>
    </g>
    <g clip-path="url(#p10c974fdc1)">
     <use xlink:href="#C0_0_be2e662c53" x="143.3076" y="149.75788" style="fill: #266696; stroke: #266696; stroke-width: 0.5"/>
    </g>
    <g clip-path="url(#p10c974fdc1)">
     <use xlink:href="#C0_0_be2e662c53" x="220.307632" y="122.806259" style="fill: #266696; stroke: #266696; stroke-width: 0.5"/>
    </g>
    <g clip-path="url(#p10c974fdc1)">
     <use xlink:href="#C0_0_be2e662c53" x="122.550347" y="144.239666" style="fill: #266696; stroke: #266696; stroke-width: 0.5"/>
    </g>
    <g clip-path="url(#p10c974fdc1)">
     <use xlink:href="#C0_0_be2e662c53" x="164.075254" y="138.861011" style="fill: #266696; stroke: #266696; stroke-width: 0.5"/>
    </g>
    <g clip-path="url(#p10c974fdc1)">
     <use xlink:href="#C0_0_be2e662c53" x="83.567597" y="151.077168" style="fill: #266696; stroke: #266696; stroke-width: 0.5"/>
    </g>
    <g clip-path="url(#p10c974fdc1)">
     <use xlink:href="#C0_0_be2e662c53" x="187.402059" y="144.414093" style="fill: #266696; stroke: #266696; stroke-width: 0.5"/>
    </g>
    <g clip-path="url(#p10c974fdc1)">
     <use xlink:href="#C0_0_be2e662c53" x="170.584881" y="128.150034" style="fill: #266696; stroke: #266696; stroke-width: 0.5"/>
    </g>
    <g clip-path="url(#p10c974fdc1)">
     <use xlink:href="#C0_0_be2e662c53" x="104.540545" y="157.111712" style="fill: #266696; stroke: #266696; stroke-width: 0.5"/>
    </g>
    <g clip-path="url(#p10c974fdc1)">
     <use xlink:href="#C0_0_be2e662c53" x="200.744208" y="149.677351" style="fill: #266696; stroke: #266696; stroke-width: 0.5"/>
    </g>
    <g clip-path="url(#p10c974fdc1)">
     <use xlink:href="#C0_0_be2e662c53" x="149.924997" y="162.933232" style="fill: #266696; stroke: #266696; stroke-width: 0.5"/>
    </g>
    <g clip-path="url(#p10c974fdc1)">
     <use xlink:href="#C0_0_be2e662c53" x="218.897698" y="134.997094" style="fill: #266696; stroke: #266696; stroke-width: 0.5"/>
    </g>
    <g clip-path="url(#p10c974fdc1)">
     <use xlink:href="#C0_0_be2e662c53" x="103.732568" y="138.074949" style="fill: #266696; stroke: #266696; stroke-width: 0.5"/>
    </g>
    <g clip-path="url(#p10c974fdc1)">
     <use xlink:href="#C0_0_be2e662c53" x="138.690941" y="237.076364" style="fill: #bfbfbf; stroke: #bfbfbf; stroke-width: 0.5"/>
    </g>
    <g clip-path="url(#p10c974fdc1)">
     <use xlink:href="#C0_0_be2e662c53" x="222.38698" y="231.369974" style="fill: #bfbfbf; stroke: #bfbfbf; stroke-width: 0.5"/>
    </g>
    <g clip-path="url(#p10c974fdc1)">
     <use xlink:href="#C0_0_be2e662c53" x="177.151464" y="201.143261" style="fill: #666666; stroke: #666666; stroke-width: 0.5"/>
    </g>
    <g clip-path="url(#p10c974fdc1)">
     <use xlink:href="#C0_0_be2e662c53" x="239.831405" y="173.909958" style="fill: #ff0d0d; stroke: #ff0d0d; stroke-width: 0.5"/>
    </g>
   </g>
   <g id="text_1">
    <!-- CH2OOs48 -->
    <g transform="translate(151.045156 -1.428935) scale(0.1 -0.1)">
     <defs>
      <path id="DejaVuSans-43" d="M 4122 4306 
L 4122 3641 
Q 3803 3938 3442 4084 
Q 3081 4231 2675 4231 
Q 1875 4231 1450 3742 
Q 1025 3253 1025 2328 
Q 1025 1406 1450 917 
Q 1875 428 2675 428 
Q 3081 428 3442 575 
Q 3803 722 4122 1019 
L 4122 359 
Q 3791 134 3420 21 
Q 3050 -91 2638 -91 
Q 1578 -91 968 557 
Q 359 1206 359 2328 
Q 359 3453 968 4101 
Q 1578 4750 2638 4750 
Q 3056 4750 3426 4639 
Q 3797 4528 4122 4306 
z
" transform="scale(0.015625)"/>
      <path id="DejaVuSans-48" d="M 628 4666 
L 1259 4666 
L 1259 2753 
L 3553 2753 
L 3553 4666 
L 4184 4666 
L 4184 0 
L 3553 0 
L 3553 2222 
L 1259 2222 
L 1259 0 
L 628 0 
L 628 4666 
z
" transform="scale(0.015625)"/>
      <path id="DejaVuSans-32" d="M 1228 531 
L 3431 531 
L 3431 0 
L 469 0 
L 469 531 
Q 828 903 1448 1529 
Q 2069 2156 2228 2338 
Q 2531 2678 2651 2914 
Q 2772 3150 2772 3378 
Q 2772 3750 2511 3984 
Q 2250 4219 1831 4219 
Q 1534 4219 1204 4116 
Q 875 4013 500 3803 
L 500 4441 
Q 881 4594 1212 4672 
Q 1544 4750 1819 4750 
Q 2544 4750 2975 4387 
Q 3406 4025 3406 3419 
Q 3406 3131 3298 2873 
Q 3191 2616 2906 2266 
Q 2828 2175 2409 1742 
Q 1991 1309 1228 531 
z
" transform="scale(0.015625)"/>
      <path id="DejaVuSans-4f" d="M 2522 4238 
Q 1834 4238 1429 3725 
Q 1025 3213 1025 2328 
Q 1025 1447 1429 934 
Q 1834 422 2522 422 
Q 3209 422 3611 934 
Q 4013 1447 4013 2328 
Q 4013 3213 3611 3725 
Q 3209 4238 2522 4238 
z
M 2522 4750 
Q 3503 4750 4090 4092 
Q 4678 3434 4678 2328 
Q 4678 1225 4090 567 
Q 3503 -91 2522 -91 
Q 1538 -91 948 565 
Q 359 1222 359 2328 
Q 359 3434 948 4092 
Q 1538 4750 2522 4750 
z
" transform="scale(0.015625)"/>
      <path id="DejaVuSans-73" d="M 2834 3397 
L 2834 2853 
Q 2591 2978 2328 3040 
Q 2066 3103 1784 3103 
Q 1356 3103 1142 2972 
Q 928 2841 928 2578 
Q 928 2378 1081 2264 
Q 1234 2150 1697 2047 
L 1894 2003 
Q 2506 1872 2764 1633 
Q 3022 1394 3022 966 
Q 3022 478 2636 193 
Q 2250 -91 1575 -91 
Q 1294 -91 989 -36 
Q 684 19 347 128 
L 347 722 
Q 666 556 975 473 
Q 1284 391 1588 391 
Q 1994 391 2212 530 
Q 2431 669 2431 922 
Q 2431 1156 2273 1281 
Q 2116 1406 1581 1522 
L 1381 1569 
Q 847 1681 609 1914 
Q 372 2147 372 2553 
Q 372 3047 722 3315 
Q 1072 3584 1716 3584 
Q 2034 3584 2315 3537 
Q 2597 3491 2834 3397 
z
" transform="scale(0.015625)"/>
      <path id="DejaVuSans-34" d="M 2419 4116 
L 825 1625 
L 2419 1625 
L 2419 4116 
z
M 2253 4666 
L 3047 4666 
L 3047 1625 
L 3713 1625 
L 3713 1100 
L 3047 1100 
L 3047 0 
L 2419 0 
L 2419 1100 
L 313 1100 
L 313 1709 
L 2253 4666 
z
" transform="scale(0.015625)"/>
      <path id="DejaVuSans-38" d="M 2034 2216 
Q 1584 2216 1326 1975 
Q 1069 1734 1069 1313 
Q 1069 891 1326 650 
Q 1584 409 2034 409 
Q 2484 409 2743 651 
Q 3003 894 3003 1313 
Q 3003 1734 2745 1975 
Q 2488 2216 2034 2216 
z
M 1403 2484 
Q 997 2584 770 2862 
Q 544 3141 544 3541 
Q 544 4100 942 4425 
Q 1341 4750 2034 4750 
Q 2731 4750 3128 4425 
Q 3525 4100 3525 3541 
Q 3525 3141 3298 2862 
Q 3072 2584 2669 2484 
Q 3125 2378 3379 2068 
Q 3634 1759 3634 1313 
Q 3634 634 3220 271 
Q 2806 -91 2034 -91 
Q 1263 -91 848 271 
Q 434 634 434 1313 
Q 434 1759 690 2068 
Q 947 2378 1403 2484 
z
M 1172 3481 
Q 1172 3119 1398 2916 
Q 1625 2713 2034 2713 
Q 2441 2713 2670 2916 
Q 2900 3119 2900 3481 
Q 2900 3844 2670 4047 
Q 2441 4250 2034 4250 
Q 1625 4250 1398 4047 
Q 1172 3844 1172 3481 
z
" transform="scale(0.015625)"/>
     </defs>
     <use xlink:href="#DejaVuSans-43"/>
     <use xlink:href="#DejaVuSans-48" transform="translate(69.824219 0)"/>
     <use xlink:href="#DejaVuSans-32" transform="translate(145.019531 0)"/>
     <use xlink:href="#DejaVuSans-4f" transform="translate(208.642578 0)"/>
     <use xlink:href="#DejaVuSans-4f" transform="translate(287.353516 0)"/>
     <use xlink:href="#DejaVuSans-73" transform="translate(366.064453 0)"/>
     <use xlink:href="#DejaVuSans-34" transform="translate(418.164062 0)"/>
     <use xlink:href="#DejaVuSans-38" transform="translate(481.787109 0)"/>
    </g>
    <!-- Error: -7.13 eV -->
    <g transform="translate(151.045156 9.768878) scale(0.1 -0.1)">
     <defs>
      <path id="DejaVuSans-45" d="M 628 4666 
L 3578 4666 
L 3578 4134 
L 1259 4134 
L 1259 2753 
L 3481 2753 
L 3481 2222 
L 1259 2222 
L 1259 531 
L 3634 531 
L 3634 0 
L 628 0 
L 628 4666 
z
" transform="scale(0.015625)"/>
      <path id="DejaVuSans-72" d="M 2631 2963 
Q 2534 3019 2420 3045 
Q 2306 3072 2169 3072 
Q 1681 3072 1420 2755 
Q 1159 2438 1159 1844 
L 1159 0 
L 581 0 
L 581 3500 
L 1159 3500 
L 1159 2956 
Q 1341 3275 1631 3429 
Q 1922 3584 2338 3584 
Q 2397 3584 2469 3576 
Q 2541 3569 2628 3553 
L 2631 2963 
z
" transform="scale(0.015625)"/>
      <path id="DejaVuSans-6f" d="M 1959 3097 
Q 1497 3097 1228 2736 
Q 959 2375 959 1747 
Q 959 1119 1226 758 
Q 1494 397 1959 397 
Q 2419 397 2687 759 
Q 2956 1122 2956 1747 
Q 2956 2369 2687 2733 
Q 2419 3097 1959 3097 
z
M 1959 3584 
Q 2709 3584 3137 3096 
Q 3566 2609 3566 1747 
Q 3566 888 3137 398 
Q 2709 -91 1959 -91 
Q 1206 -91 779 398 
Q 353 888 353 1747 
Q 353 2609 779 3096 
Q 1206 3584 1959 3584 
z
" transform="scale(0.015625)"/>
      <path id="DejaVuSans-3a" d="M 750 794 
L 1409 794 
L 1409 0 
L 750 0 
L 750 794 
z
M 750 3309 
L 1409 3309 
L 1409 2516 
L 750 2516 
L 750 3309 
z
" transform="scale(0.015625)"/>
      <path id="DejaVuSans-20" transform="scale(0.015625)"/>
      <path id="DejaVuSans-2d" d="M 313 2009 
L 1997 2009 
L 1997 1497 
L 313 1497 
L 313 2009 
z
" transform="scale(0.015625)"/>
      <path id="DejaVuSans-37" d="M 525 4666 
L 3525 4666 
L 3525 4397 
L 1831 0 
L 1172 0 
L 2766 4134 
L 525 4134 
L 525 4666 
z
" transform="scale(0.015625)"/>
      <path id="DejaVuSans-2e" d="M 684 794 
L 1344 794 
L 1344 0 
L 684 0 
L 684 794 
z
" transform="scale(0.015625)"/>
      <path id="DejaVuSans-31" d="M 794 531 
L 1825 531 
L 1825 4091 
L 703 3866 
L 703 4441 
L 1819 4666 
L 2450 4666 
L 2450 531 
L 3481 531 
L 3481 0 
L 794 0 
L 794 531 
z
" transform="scale(0.015625)"/>
      <path id="DejaVuSans-33" d="M 2597 2516 
Q 3050 2419 3304 2112 
Q 3559 1806 3559 1356 
Q 3559 666 3084 287 
Q 2609 -91 1734 -91 
Q 1441 -91 1130 -33 
Q 819 25 488 141 
L 488 750 
Q 750 597 1062 519 
Q 1375 441 1716 441 
Q 2309 441 2620 675 
Q 2931 909 2931 1356 
Q 2931 1769 2642 2001 
Q 2353 2234 1838 2234 
L 1294 2234 
L 1294 2753 
L 1863 2753 
Q 2328 2753 2575 2939 
Q 2822 3125 2822 3475 
Q 2822 3834 2567 4026 
Q 2313 4219 1838 4219 
Q 1578 4219 1281 4162 
Q 984 4106 628 3988 
L 628 4550 
Q 988 4650 1302 4700 
Q 1616 4750 1894 4750 
Q 2613 4750 3031 4423 
Q 3450 4097 3450 3541 
Q 3450 3153 3228 2886 
Q 3006 2619 2597 2516 
z
" transform="scale(0.015625)"/>
      <path id="DejaVuSans-65" d="M 3597 1894 
L 3597 1613 
L 953 1613 
Q 991 1019 1311 708 
Q 1631 397 2203 397 
Q 2534 397 2845 478 
Q 3156 559 3463 722 
L 3463 178 
Q 3153 47 2828 -22 
Q 2503 -91 2169 -91 
Q 1331 -91 842 396 
Q 353 884 353 1716 
Q 353 2575 817 3079 
Q 1281 3584 2069 3584 
Q 2775 3584 3186 3129 
Q 3597 2675 3597 1894 
z
M 3022 2063 
Q 3016 2534 2758 2815 
Q 2500 3097 2075 3097 
Q 1594 3097 1305 2825 
Q 1016 2553 972 2059 
L 3022 2063 
z
" transform="scale(0.015625)"/>
      <path id="DejaVuSans-56" d="M 1831 0 
L 50 4666 
L 709 4666 
L 2188 738 
L 3669 4666 
L 4325 4666 
L 2547 0 
L 1831 0 
z
" transform="scale(0.015625)"/>
     </defs>
     <use xlink:href="#DejaVuSans-45"/>
     <use xlink:href="#DejaVuSans-72" transform="translate(63.183594 0)"/>
     <use xlink:href="#DejaVuSans-72" transform="translate(102.546875 0)"/>
     <use xlink:href="#DejaVuSans-6f" transform="translate(141.410156 0)"/>
     <use xlink:href="#DejaVuSans-72" transform="translate(202.591797 0)"/>
     <use xlink:href="#DejaVuSans-3a" transform="translate(241.955078 0)"/>
     <use xlink:href="#DejaVuSans-20" transform="translate(275.646484 0)"/>
     <use xlink:href="#DejaVuSans-2d" transform="translate(307.433594 0)"/>
     <use xlink:href="#DejaVuSans-37" transform="translate(343.517578 0)"/>
     <use xlink:href="#DejaVuSans-2e" transform="translate(407.140625 0)"/>
     <use xlink:href="#DejaVuSans-31" transform="translate(438.927734 0)"/>
     <use xlink:href="#DejaVuSans-33" transform="translate(502.550781 0)"/>
     <use xlink:href="#DejaVuSans-20" transform="translate(566.173828 0)"/>
     <use xlink:href="#DejaVuSans-65" transform="translate(597.960938 0)"/>
     <use xlink:href="#DejaVuSans-56" transform="translate(659.484375 0)"/>
    </g>
   </g>
  </g>
 </g>
 <defs>
  <clipPath id="p10c974fdc1">
   <rect x="36" y="34.56" width="223.2" height="221.76"/>
  </clipPath>
 </defs>
</svg>
