<?xml version="1.0" encoding="utf-8" standalone="no"?>
<!DOCTYPE svg PUBLIC "-//W3C//DTD SVG 1.1//EN"
  "http://www.w3.org/Graphics/SVG/1.1/DTD/svg11.dtd">
<svg xmlns:xlink="http://www.w3.org/1999/xlink" width="288pt" height="288pt" viewBox="0 0 288 288" xmlns="http://www.w3.org/2000/svg" version="1.1">
 <metadata>
  <rdf:RDF xmlns:dc="http://purl.org/dc/elements/1.1/" xmlns:cc="http://creativecommons.org/ns#" xmlns:rdf="http://www.w3.org/1999/02/22-rdf-syntax-ns#">
   <cc:Work>
    <dc:type rdf:resource="http://purl.org/dc/dcmitype/StillImage"/>
    <dc:date>2025-06-30T12:07:53.947078</dc:date>
    <dc:format>image/svg+xml</dc:format>
    <dc:creator>
     <cc:Agent>
      <dc:title>Matplotlib v3.10.1, https://matplotlib.org/</dc:title>
     </cc:Agent>
    </dc:creator>
   </cc:Work>
  </rdf:RDF>
 </metadata>
 <defs>
  <style type="text/css">*{stroke-linejoin: round; stroke-linecap: butt}</style>
 </defs>
 <g id="figure_1">
  <g id="patch_1">
   <path d="M 0 288 
L 288 288 
L 288 0 
L 0 0 
z
" style="fill: #ffffff"/>
  </g>
  <g id="axes_1">
   <g id="LineCollection_1">
    <path d="M 100.300243 63.849744 
L 74.15768 64.115066 
" clip-path="url(#p2298c512ac)" style="fill: none; stroke: #000000; stroke-width: 1.2"/>
    <path d="M 100.300243 63.849744 
L 117.565271 53.803636 
" clip-path="url(#p2298c512ac)" style="fill: none; stroke: #000000; stroke-width: 1.2"/>
    <path d="M 100.300243 63.849744 
L 119.905771 67.921651 
" clip-path="url(#p2298c512ac)" style="fill: none; stroke: #000000; stroke-width: 1.2"/>
    <path d="M 100.300243 63.849744 
L 137.774392 63.746722 
" clip-path="url(#p2298c512ac)" style="fill: none; stroke: #000000; stroke-width: 1.2"/>
    <path d="M 100.300243 63.849744 
L 150.092038 84.812694 
" clip-path="url(#p2298c512ac)" style="fill: none; stroke: #000000; stroke-width: 1.2"/>
    <path d="M 100.300243 63.849744 
L 66.612332 69.369306 
" clip-path="url(#p2298c512ac)" style="fill: none; stroke: #000000; stroke-width: 1.2"/>
    <path d="M 100.300243 63.849744 
L 77.200405 105.771413 
" clip-path="url(#p2298c512ac)" style="fill: none; stroke: #000000; stroke-width: 1.2"/>
    <path d="M 100.300243 63.849744 
L 79.900124 95.01 
" clip-path="url(#p2298c512ac)" style="fill: none; stroke: #000000; stroke-width: 1.2"/>
    <path d="M 100.300243 63.849744 
L 136.281753 108.843982 
" clip-path="url(#p2298c512ac)" style="fill: none; stroke: #000000; stroke-width: 1.2"/>
    <path d="M 74.15768 64.115066 
L 117.565271 53.803636 
" clip-path="url(#p2298c512ac)" style="fill: none; stroke: #000000; stroke-width: 1.2"/>
    <path d="M 74.15768 64.115066 
L 119.905771 67.921651 
" clip-path="url(#p2298c512ac)" style="fill: none; stroke: #000000; stroke-width: 1.2"/>
    <path d="M 74.15768 64.115066 
L 131.781469 76.374661 
" clip-path="url(#p2298c512ac)" style="fill: none; stroke: #000000; stroke-width: 1.2"/>
    <path d="M 74.15768 64.115066 
L 97.214764 80.015268 
" clip-path="url(#p2298c512ac)" style="fill: none; stroke: #000000; stroke-width: 1.2"/>
    <path d="M 74.15768 64.115066 
L 61.297493 80.013465 
" clip-path="url(#p2298c512ac)" style="fill: none; stroke: #000000; stroke-width: 1.2"/>
    <path d="M 74.15768 64.115066 
L 77.200405 105.771413 
" clip-path="url(#p2298c512ac)" style="fill: none; stroke: #000000; stroke-width: 1.2"/>
    <path d="M 74.15768 64.115066 
L 110.546979 101.439373 
" clip-path="url(#p2298c512ac)" style="fill: none; stroke: #000000; stroke-width: 1.2"/>
    <path d="M 74.15768 64.115066 
L 61.66518 115.628667 
" clip-path="url(#p2298c512ac)" style="fill: none; stroke: #000000; stroke-width: 1.2"/>
    <path d="M 117.565271 53.803636 
L 93.582404 56.519147 
" clip-path="url(#p2298c512ac)" style="fill: none; stroke: #000000; stroke-width: 1.2"/>
    <path d="M 117.565271 53.803636 
L 158.399766 73.649604 
" clip-path="url(#p2298c512ac)" style="fill: none; stroke: #000000; stroke-width: 1.2"/>
    <path d="M 117.565271 53.803636 
L 131.781469 76.374661 
" clip-path="url(#p2298c512ac)" style="fill: none; stroke: #000000; stroke-width: 1.2"/>
    <path d="M 117.565271 53.803636 
L 66.612332 69.369306 
" clip-path="url(#p2298c512ac)" style="fill: none; stroke: #000000; stroke-width: 1.2"/>
    <path d="M 117.565271 53.803636 
L 79.900124 95.01 
" clip-path="url(#p2298c512ac)" style="fill: none; stroke: #000000; stroke-width: 1.2"/>
    <path d="M 117.565271 53.803636 
L 110.546979 101.439373 
" clip-path="url(#p2298c512ac)" style="fill: none; stroke: #000000; stroke-width: 1.2"/>
    <path d="M 117.565271 53.803636 
L 131.986385 96.232787 
" clip-path="url(#p2298c512ac)" style="fill: none; stroke: #000000; stroke-width: 1.2"/>
    <path d="M 93.582404 56.519147 
L 158.399766 73.649604 
" clip-path="url(#p2298c512ac)" style="fill: none; stroke: #000000; stroke-width: 1.2"/>
    <path d="M 93.582404 56.519147 
L 119.905771 67.921651 
" clip-path="url(#p2298c512ac)" style="fill: none; stroke: #000000; stroke-width: 1.2"/>
    <path d="M 93.582404 56.519147 
L 137.774392 63.746722 
" clip-path="url(#p2298c512ac)" style="fill: none; stroke: #000000; stroke-width: 1.2"/>
    <path d="M 93.582404 56.519147 
L 66.612332 69.369306 
" clip-path="url(#p2298c512ac)" style="fill: none; stroke: #000000; stroke-width: 1.2"/>
    <path d="M 93.582404 56.519147 
L 61.297493 80.013465 
" clip-path="url(#p2298c512ac)" style="fill: none; stroke: #000000; stroke-width: 1.2"/>
    <path d="M 93.582404 56.519147 
L 131.986385 96.232787 
" clip-path="url(#p2298c512ac)" style="fill: none; stroke: #000000; stroke-width: 1.2"/>
    <path d="M 93.582404 56.519147 
L 101.272761 97.714938 
" clip-path="url(#p2298c512ac)" style="fill: none; stroke: #000000; stroke-width: 1.2"/>
    <path d="M 93.582404 56.519147 
L 57.75257 103.119642 
" clip-path="url(#p2298c512ac)" style="fill: none; stroke: #000000; stroke-width: 1.2"/>
    <path d="M 158.399766 73.649604 
L 119.905771 67.921651 
" clip-path="url(#p2298c512ac)" style="fill: none; stroke: #000000; stroke-width: 1.2"/>
    <path d="M 158.399766 73.649604 
L 131.781469 76.374661 
" clip-path="url(#p2298c512ac)" style="fill: none; stroke: #000000; stroke-width: 1.2"/>
    <path d="M 158.399766 73.649604 
L 150.092038 84.812694 
" clip-path="url(#p2298c512ac)" style="fill: none; stroke: #000000; stroke-width: 1.2"/>
    <path d="M 158.399766 73.649604 
L 97.214764 80.015268 
" clip-path="url(#p2298c512ac)" style="fill: none; stroke: #000000; stroke-width: 1.2"/>
    <path d="M 158.399766 73.649604 
L 131.986385 96.232787 
" clip-path="url(#p2298c512ac)" style="fill: none; stroke: #000000; stroke-width: 1.2"/>
    <path d="M 158.399766 73.649604 
L 126.176523 118.02623 
" clip-path="url(#p2298c512ac)" style="fill: none; stroke: #000000; stroke-width: 1.2"/>
    <path d="M 158.399766 73.649604 
L 157.917993 114.689059 
" clip-path="url(#p2298c512ac)" style="fill: none; stroke: #000000; stroke-width: 1.2"/>
    <path d="M 119.905771 67.921651 
L 137.774392 63.746722 
" clip-path="url(#p2298c512ac)" style="fill: none; stroke: #000000; stroke-width: 1.2"/>
    <path d="M 119.905771 67.921651 
L 97.214764 80.015268 
" clip-path="url(#p2298c512ac)" style="fill: none; stroke: #000000; stroke-width: 1.2"/>
    <path d="M 119.905771 67.921651 
L 77.200405 105.771413 
" clip-path="url(#p2298c512ac)" style="fill: none; stroke: #000000; stroke-width: 1.2"/>
    <path d="M 119.905771 67.921651 
L 101.272761 97.714938 
" clip-path="url(#p2298c512ac)" style="fill: none; stroke: #000000; stroke-width: 1.2"/>
    <path d="M 119.905771 67.921651 
L 126.176523 118.02623 
" clip-path="url(#p2298c512ac)" style="fill: none; stroke: #000000; stroke-width: 1.2"/>
    <path d="M 131.781469 76.374661 
L 137.774392 63.746722 
" clip-path="url(#p2298c512ac)" style="fill: none; stroke: #000000; stroke-width: 1.2"/>
    <path d="M 131.781469 76.374661 
L 150.092038 84.812694 
" clip-path="url(#p2298c512ac)" style="fill: none; stroke: #000000; stroke-width: 1.2"/>
    <path d="M 131.781469 76.374661 
L 61.297493 80.013465 
" clip-path="url(#p2298c512ac)" style="fill: none; stroke: #000000; stroke-width: 1.2"/>
    <path d="M 131.781469 76.374661 
L 110.546979 101.439373 
" clip-path="url(#p2298c512ac)" style="fill: none; stroke: #000000; stroke-width: 1.2"/>
    <path d="M 131.781469 76.374661 
L 112.862052 115.386811 
" clip-path="url(#p2298c512ac)" style="fill: none; stroke: #000000; stroke-width: 1.2"/>
    <path d="M 131.781469 76.374661 
L 157.917993 114.689059 
" clip-path="url(#p2298c512ac)" style="fill: none; stroke: #000000; stroke-width: 1.2"/>
    <path d="M 137.774392 63.746722 
L 150.092038 84.812694 
" clip-path="url(#p2298c512ac)" style="fill: none; stroke: #000000; stroke-width: 1.2"/>
    <path d="M 137.774392 63.746722 
L 61.297493 80.013465 
" clip-path="url(#p2298c512ac)" style="fill: none; stroke: #000000; stroke-width: 1.2"/>
    <path d="M 137.774392 63.746722 
L 101.272761 97.714938 
" clip-path="url(#p2298c512ac)" style="fill: none; stroke: #000000; stroke-width: 1.2"/>
    <path d="M 137.774392 63.746722 
L 112.862052 115.386811 
" clip-path="url(#p2298c512ac)" style="fill: none; stroke: #000000; stroke-width: 1.2"/>
    <path d="M 137.774392 63.746722 
L 136.281753 108.843982 
" clip-path="url(#p2298c512ac)" style="fill: none; stroke: #000000; stroke-width: 1.2"/>
    <path d="M 150.092038 84.812694 
L 97.214764 80.015268 
" clip-path="url(#p2298c512ac)" style="fill: none; stroke: #000000; stroke-width: 1.2"/>
    <path d="M 150.092038 84.812694 
L 66.612332 69.369306 
" clip-path="url(#p2298c512ac)" style="fill: none; stroke: #000000; stroke-width: 1.2"/>
    <path d="M 150.092038 84.812694 
L 157.917993 114.689059 
" clip-path="url(#p2298c512ac)" style="fill: none; stroke: #000000; stroke-width: 1.2"/>
    <path d="M 150.092038 84.812694 
L 136.281753 108.843982 
" clip-path="url(#p2298c512ac)" style="fill: none; stroke: #000000; stroke-width: 1.2"/>
    <path d="M 150.092038 84.812694 
L 96.818024 119.197395 
" clip-path="url(#p2298c512ac)" style="fill: none; stroke: #000000; stroke-width: 1.2"/>
    <path d="M 97.214764 80.015268 
L 66.612332 69.369306 
" clip-path="url(#p2298c512ac)" style="fill: none; stroke: #000000; stroke-width: 1.2"/>
    <path d="M 97.214764 80.015268 
L 61.297493 80.013465 
" clip-path="url(#p2298c512ac)" style="fill: none; stroke: #000000; stroke-width: 1.2"/>
    <path d="M 97.214764 80.015268 
L 126.176523 118.02623 
" clip-path="url(#p2298c512ac)" style="fill: none; stroke: #000000; stroke-width: 1.2"/>
    <path d="M 97.214764 80.015268 
L 96.818024 119.197395 
" clip-path="url(#p2298c512ac)" style="fill: none; stroke: #000000; stroke-width: 1.2"/>
    <path d="M 97.214764 80.015268 
L 61.66518 115.628667 
" clip-path="url(#p2298c512ac)" style="fill: none; stroke: #000000; stroke-width: 1.2"/>
    <path d="M 66.612332 69.369306 
L 61.297493 80.013465 
" clip-path="url(#p2298c512ac)" style="fill: none; stroke: #000000; stroke-width: 1.2"/>
    <path d="M 66.612332 69.369306 
L 79.900124 95.01 
" clip-path="url(#p2298c512ac)" style="fill: none; stroke: #000000; stroke-width: 1.2"/>
    <path d="M 66.612332 69.369306 
L 96.818024 119.197395 
" clip-path="url(#p2298c512ac)" style="fill: none; stroke: #000000; stroke-width: 1.2"/>
    <path d="M 66.612332 69.369306 
L 57.75257 103.119642 
" clip-path="url(#p2298c512ac)" style="fill: none; stroke: #000000; stroke-width: 1.2"/>
    <path d="M 61.297493 80.013465 
L 112.862052 115.386811 
" clip-path="url(#p2298c512ac)" style="fill: none; stroke: #000000; stroke-width: 1.2"/>
    <path d="M 61.297493 80.013465 
L 61.66518 115.628667 
" clip-path="url(#p2298c512ac)" style="fill: none; stroke: #000000; stroke-width: 1.2"/>
    <path d="M 61.297493 80.013465 
L 57.75257 103.119642 
" clip-path="url(#p2298c512ac)" style="fill: none; stroke: #000000; stroke-width: 1.2"/>
    <path d="M 77.200405 105.771413 
L 79.900124 95.01 
" clip-path="url(#p2298c512ac)" style="fill: none; stroke: #000000; stroke-width: 1.2"/>
    <path d="M 77.200405 105.771413 
L 110.546979 101.439373 
" clip-path="url(#p2298c512ac)" style="fill: none; stroke: #000000; stroke-width: 1.2"/>
    <path d="M 77.200405 105.771413 
L 101.272761 97.714938 
" clip-path="url(#p2298c512ac)" style="fill: none; stroke: #000000; stroke-width: 1.2"/>
    <path d="M 77.200405 105.771413 
L 126.176523 118.02623 
" clip-path="url(#p2298c512ac)" style="fill: none; stroke: #000000; stroke-width: 1.2"/>
    <path d="M 77.200405 105.771413 
L 136.281753 108.843982 
" clip-path="url(#p2298c512ac)" style="fill: none; stroke: #000000; stroke-width: 1.2"/>
    <path d="M 77.200405 105.771413 
L 61.66518 115.628667 
" clip-path="url(#p2298c512ac)" style="fill: none; stroke: #000000; stroke-width: 1.2"/>
    <path d="M 77.200405 105.771413 
L 109.70288 139.448343 
" clip-path="url(#p2298c512ac)" style="fill: none; stroke: #000000; stroke-width: 1.2"/>
    <path d="M 77.200405 105.771413 
L 63.275988 133.975751 
" clip-path="url(#p2298c512ac)" style="fill: none; stroke: #000000; stroke-width: 1.2"/>
    <path d="M 77.200405 105.771413 
L 77.232672 156.108666 
" clip-path="url(#p2298c512ac)" style="fill: none; stroke: #000000; stroke-width: 1.2"/>
    <path d="M 79.900124 95.01 
L 110.546979 101.439373 
" clip-path="url(#p2298c512ac)" style="fill: none; stroke: #000000; stroke-width: 1.2"/>
    <path d="M 79.900124 95.01 
L 131.986385 96.232787 
" clip-path="url(#p2298c512ac)" style="fill: none; stroke: #000000; stroke-width: 1.2"/>
    <path d="M 79.900124 95.01 
L 136.281753 108.843982 
" clip-path="url(#p2298c512ac)" style="fill: none; stroke: #000000; stroke-width: 1.2"/>
    <path d="M 79.900124 95.01 
L 96.818024 119.197395 
" clip-path="url(#p2298c512ac)" style="fill: none; stroke: #000000; stroke-width: 1.2"/>
    <path d="M 79.900124 95.01 
L 57.75257 103.119642 
" clip-path="url(#p2298c512ac)" style="fill: none; stroke: #000000; stroke-width: 1.2"/>
    <path d="M 79.900124 95.01 
L 63.275988 133.975751 
" clip-path="url(#p2298c512ac)" style="fill: none; stroke: #000000; stroke-width: 1.2"/>
    <path d="M 79.900124 95.01 
L 82.807428 129.377046 
" clip-path="url(#p2298c512ac)" style="fill: none; stroke: #000000; stroke-width: 1.2"/>
    <path d="M 79.900124 95.01 
L 94.268223 154.26193 
" clip-path="url(#p2298c512ac)" style="fill: none; stroke: #000000; stroke-width: 1.2"/>
    <path d="M 110.546979 101.439373 
L 131.986385 96.232787 
" clip-path="url(#p2298c512ac)" style="fill: none; stroke: #000000; stroke-width: 1.2"/>
    <path d="M 110.546979 101.439373 
L 112.862052 115.386811 
" clip-path="url(#p2298c512ac)" style="fill: none; stroke: #000000; stroke-width: 1.2"/>
    <path d="M 110.546979 101.439373 
L 157.917993 114.689059 
" clip-path="url(#p2298c512ac)" style="fill: none; stroke: #000000; stroke-width: 1.2"/>
    <path d="M 110.546979 101.439373 
L 61.66518 115.628667 
" clip-path="url(#p2298c512ac)" style="fill: none; stroke: #000000; stroke-width: 1.2"/>
    <path d="M 110.546979 101.439373 
L 63.275988 133.975751 
" clip-path="url(#p2298c512ac)" style="fill: none; stroke: #000000; stroke-width: 1.2"/>
    <path d="M 110.546979 101.439373 
L 148.40948 134.653805 
" clip-path="url(#p2298c512ac)" style="fill: none; stroke: #000000; stroke-width: 1.2"/>
    <path d="M 110.546979 101.439373 
L 104.01701 150.551407 
" clip-path="url(#p2298c512ac)" style="fill: none; stroke: #000000; stroke-width: 1.2"/>
    <path d="M 131.986385 96.232787 
L 101.272761 97.714938 
" clip-path="url(#p2298c512ac)" style="fill: none; stroke: #000000; stroke-width: 1.2"/>
    <path d="M 131.986385 96.232787 
L 126.176523 118.02623 
" clip-path="url(#p2298c512ac)" style="fill: none; stroke: #000000; stroke-width: 1.2"/>
    <path d="M 131.986385 96.232787 
L 157.917993 114.689059 
" clip-path="url(#p2298c512ac)" style="fill: none; stroke: #000000; stroke-width: 1.2"/>
    <path d="M 131.986385 96.232787 
L 57.75257 103.119642 
" clip-path="url(#p2298c512ac)" style="fill: none; stroke: #000000; stroke-width: 1.2"/>
    <path d="M 131.986385 96.232787 
L 148.40948 134.653805 
" clip-path="url(#p2298c512ac)" style="fill: none; stroke: #000000; stroke-width: 1.2"/>
    <path d="M 131.986385 96.232787 
L 82.807428 129.377046 
" clip-path="url(#p2298c512ac)" style="fill: none; stroke: #000000; stroke-width: 1.2"/>
    <path d="M 131.986385 96.232787 
L 129.810656 142.612606 
" clip-path="url(#p2298c512ac)" style="fill: none; stroke: #000000; stroke-width: 1.2"/>
    <path d="M 101.272761 97.714938 
L 126.176523 118.02623 
" clip-path="url(#p2298c512ac)" style="fill: none; stroke: #000000; stroke-width: 1.2"/>
    <path d="M 101.272761 97.714938 
L 112.862052 115.386811 
" clip-path="url(#p2298c512ac)" style="fill: none; stroke: #000000; stroke-width: 1.2"/>
    <path d="M 101.272761 97.714938 
L 136.281753 108.843982 
" clip-path="url(#p2298c512ac)" style="fill: none; stroke: #000000; stroke-width: 1.2"/>
    <path d="M 101.272761 97.714938 
L 57.75257 103.119642 
" clip-path="url(#p2298c512ac)" style="fill: none; stroke: #000000; stroke-width: 1.2"/>
    <path d="M 101.272761 97.714938 
L 109.70288 139.448343 
" clip-path="url(#p2298c512ac)" style="fill: none; stroke: #000000; stroke-width: 1.2"/>
    <path d="M 101.272761 97.714938 
L 129.810656 142.612606 
" clip-path="url(#p2298c512ac)" style="fill: none; stroke: #000000; stroke-width: 1.2"/>
    <path d="M 101.272761 97.714938 
L 81.160892 145.287032 
" clip-path="url(#p2298c512ac)" style="fill: none; stroke: #000000; stroke-width: 1.2"/>
    <path d="M 126.176523 118.02623 
L 157.917993 114.689059 
" clip-path="url(#p2298c512ac)" style="fill: none; stroke: #000000; stroke-width: 1.2"/>
    <path d="M 126.176523 118.02623 
L 96.818024 119.197395 
" clip-path="url(#p2298c512ac)" style="fill: none; stroke: #000000; stroke-width: 1.2"/>
    <path d="M 126.176523 118.02623 
L 61.66518 115.628667 
" clip-path="url(#p2298c512ac)" style="fill: none; stroke: #000000; stroke-width: 1.2"/>
    <path d="M 126.176523 118.02623 
L 129.810656 142.612606 
" clip-path="url(#p2298c512ac)" style="fill: none; stroke: #000000; stroke-width: 1.2"/>
    <path d="M 126.176523 118.02623 
L 77.232672 156.108666 
" clip-path="url(#p2298c512ac)" style="fill: none; stroke: #000000; stroke-width: 1.2"/>
    <path d="M 126.176523 118.02623 
L 123.805589 162.127249 
" clip-path="url(#p2298c512ac)" style="fill: none; stroke: #000000; stroke-width: 1.2"/>
    <path d="M 112.862052 115.386811 
L 157.917993 114.689059 
" clip-path="url(#p2298c512ac)" style="fill: none; stroke: #000000; stroke-width: 1.2"/>
    <path d="M 112.862052 115.386811 
L 136.281753 108.843982 
" clip-path="url(#p2298c512ac)" style="fill: none; stroke: #000000; stroke-width: 1.2"/>
    <path d="M 112.862052 115.386811 
L 61.66518 115.628667 
" clip-path="url(#p2298c512ac)" style="fill: none; stroke: #000000; stroke-width: 1.2"/>
    <path d="M 112.862052 115.386811 
L 57.75257 103.119642 
" clip-path="url(#p2298c512ac)" style="fill: none; stroke: #000000; stroke-width: 1.2"/>
    <path d="M 112.862052 115.386811 
L 104.01701 150.551407 
" clip-path="url(#p2298c512ac)" style="fill: none; stroke: #000000; stroke-width: 1.2"/>
    <path d="M 112.862052 115.386811 
L 147.294626 149.78463 
" clip-path="url(#p2298c512ac)" style="fill: none; stroke: #000000; stroke-width: 1.2"/>
    <path d="M 112.862052 115.386811 
L 81.160892 145.287032 
" clip-path="url(#p2298c512ac)" style="fill: none; stroke: #000000; stroke-width: 1.2"/>
    <path d="M 157.917993 114.689059 
L 136.281753 108.843982 
" clip-path="url(#p2298c512ac)" style="fill: none; stroke: #000000; stroke-width: 1.2"/>
    <path d="M 157.917993 114.689059 
L 96.818024 119.197395 
" clip-path="url(#p2298c512ac)" style="fill: none; stroke: #000000; stroke-width: 1.2"/>
    <path d="M 157.917993 114.689059 
L 148.40948 134.653805 
" clip-path="url(#p2298c512ac)" style="fill: none; stroke: #000000; stroke-width: 1.2"/>
    <path d="M 157.917993 114.689059 
L 147.294626 149.78463 
" clip-path="url(#p2298c512ac)" style="fill: none; stroke: #000000; stroke-width: 1.2"/>
    <path d="M 157.917993 114.689059 
L 123.805589 162.127249 
" clip-path="url(#p2298c512ac)" style="fill: none; stroke: #000000; stroke-width: 1.2"/>
    <path d="M 136.281753 108.843982 
L 96.818024 119.197395 
" clip-path="url(#p2298c512ac)" style="fill: none; stroke: #000000; stroke-width: 1.2"/>
    <path d="M 136.281753 108.843982 
L 109.70288 139.448343 
" clip-path="url(#p2298c512ac)" style="fill: none; stroke: #000000; stroke-width: 1.2"/>
    <path d="M 136.281753 108.843982 
L 147.294626 149.78463 
" clip-path="url(#p2298c512ac)" style="fill: none; stroke: #000000; stroke-width: 1.2"/>
    <path d="M 136.281753 108.843982 
L 94.268223 154.26193 
" clip-path="url(#p2298c512ac)" style="fill: none; stroke: #000000; stroke-width: 1.2"/>
    <path d="M 96.818024 119.197395 
L 61.66518 115.628667 
" clip-path="url(#p2298c512ac)" style="fill: none; stroke: #000000; stroke-width: 1.2"/>
    <path d="M 96.818024 119.197395 
L 57.75257 103.119642 
" clip-path="url(#p2298c512ac)" style="fill: none; stroke: #000000; stroke-width: 1.2"/>
    <path d="M 96.818024 119.197395 
L 94.268223 154.26193 
" clip-path="url(#p2298c512ac)" style="fill: none; stroke: #000000; stroke-width: 1.2"/>
    <path d="M 96.818024 119.197395 
L 123.805589 162.127249 
" clip-path="url(#p2298c512ac)" style="fill: none; stroke: #000000; stroke-width: 1.2"/>
    <path d="M 96.818024 119.197395 
L 55.368595 148.300654 
" clip-path="url(#p2298c512ac)" style="fill: none; stroke: #000000; stroke-width: 1.2"/>
    <path d="M 61.66518 115.628667 
L 57.75257 103.119642 
" clip-path="url(#p2298c512ac)" style="fill: none; stroke: #000000; stroke-width: 1.2"/>
    <path d="M 61.66518 115.628667 
L 77.232672 156.108666 
" clip-path="url(#p2298c512ac)" style="fill: none; stroke: #000000; stroke-width: 1.2"/>
    <path d="M 61.66518 115.628667 
L 104.01701 150.551407 
" clip-path="url(#p2298c512ac)" style="fill: none; stroke: #000000; stroke-width: 1.2"/>
    <path d="M 61.66518 115.628667 
L 55.368595 148.300654 
" clip-path="url(#p2298c512ac)" style="fill: none; stroke: #000000; stroke-width: 1.2"/>
    <path d="M 57.75257 103.119642 
L 82.807428 129.377046 
" clip-path="url(#p2298c512ac)" style="fill: none; stroke: #000000; stroke-width: 1.2"/>
    <path d="M 57.75257 103.119642 
L 55.368595 148.300654 
" clip-path="url(#p2298c512ac)" style="fill: none; stroke: #000000; stroke-width: 1.2"/>
    <path d="M 57.75257 103.119642 
L 81.160892 145.287032 
" clip-path="url(#p2298c512ac)" style="fill: none; stroke: #000000; stroke-width: 1.2"/>
    <path d="M 109.70288 139.448343 
L 63.275988 133.975751 
" clip-path="url(#p2298c512ac)" style="fill: none; stroke: #000000; stroke-width: 1.2"/>
    <path d="M 109.70288 139.448343 
L 129.810656 142.612606 
" clip-path="url(#p2298c512ac)" style="fill: none; stroke: #000000; stroke-width: 1.2"/>
    <path d="M 109.70288 139.448343 
L 77.232672 156.108666 
" clip-path="url(#p2298c512ac)" style="fill: none; stroke: #000000; stroke-width: 1.2"/>
    <path d="M 109.70288 139.448343 
L 147.294626 149.78463 
" clip-path="url(#p2298c512ac)" style="fill: none; stroke: #000000; stroke-width: 1.2"/>
    <path d="M 109.70288 139.448343 
L 94.268223 154.26193 
" clip-path="url(#p2298c512ac)" style="fill: none; stroke: #000000; stroke-width: 1.2"/>
    <path d="M 109.70288 139.448343 
L 81.160892 145.287032 
" clip-path="url(#p2298c512ac)" style="fill: none; stroke: #000000; stroke-width: 1.2"/>
    <path d="M 63.275988 133.975751 
L 148.40948 134.653805 
" clip-path="url(#p2298c512ac)" style="fill: none; stroke: #000000; stroke-width: 1.2"/>
    <path d="M 63.275988 133.975751 
L 82.807428 129.377046 
" clip-path="url(#p2298c512ac)" style="fill: none; stroke: #000000; stroke-width: 1.2"/>
    <path d="M 63.275988 133.975751 
L 77.232672 156.108666 
" clip-path="url(#p2298c512ac)" style="fill: none; stroke: #000000; stroke-width: 1.2"/>
    <path d="M 63.275988 133.975751 
L 104.01701 150.551407 
" clip-path="url(#p2298c512ac)" style="fill: none; stroke: #000000; stroke-width: 1.2"/>
    <path d="M 63.275988 133.975751 
L 94.268223 154.26193 
" clip-path="url(#p2298c512ac)" style="fill: none; stroke: #000000; stroke-width: 1.2"/>
    <path d="M 148.40948 134.653805 
L 82.807428 129.377046 
" clip-path="url(#p2298c512ac)" style="fill: none; stroke: #000000; stroke-width: 1.2"/>
    <path d="M 148.40948 134.653805 
L 129.810656 142.612606 
" clip-path="url(#p2298c512ac)" style="fill: none; stroke: #000000; stroke-width: 1.2"/>
    <path d="M 148.40948 134.653805 
L 104.01701 150.551407 
" clip-path="url(#p2298c512ac)" style="fill: none; stroke: #000000; stroke-width: 1.2"/>
    <path d="M 148.40948 134.653805 
L 147.294626 149.78463 
" clip-path="url(#p2298c512ac)" style="fill: none; stroke: #000000; stroke-width: 1.2"/>
    <path d="M 148.40948 134.653805 
L 123.805589 162.127249 
" clip-path="url(#p2298c512ac)" style="fill: none; stroke: #000000; stroke-width: 1.2"/>
    <path d="M 148.40948 134.653805 
L 190.013025 154.523103 
" clip-path="url(#p2298c512ac)" style="fill: none; stroke: #000000; stroke-width: 1.2"/>
    <path d="M 82.807428 129.377046 
L 129.810656 142.612606 
" clip-path="url(#p2298c512ac)" style="fill: none; stroke: #000000; stroke-width: 1.2"/>
    <path d="M 82.807428 129.377046 
L 94.268223 154.26193 
" clip-path="url(#p2298c512ac)" style="fill: none; stroke: #000000; stroke-width: 1.2"/>
    <path d="M 82.807428 129.377046 
L 55.368595 148.300654 
" clip-path="url(#p2298c512ac)" style="fill: none; stroke: #000000; stroke-width: 1.2"/>
    <path d="M 82.807428 129.377046 
L 81.160892 145.287032 
" clip-path="url(#p2298c512ac)" style="fill: none; stroke: #000000; stroke-width: 1.2"/>
    <path d="M 129.810656 142.612606 
L 77.232672 156.108666 
" clip-path="url(#p2298c512ac)" style="fill: none; stroke: #000000; stroke-width: 1.2"/>
    <path d="M 129.810656 142.612606 
L 123.805589 162.127249 
" clip-path="url(#p2298c512ac)" style="fill: none; stroke: #000000; stroke-width: 1.2"/>
    <path d="M 129.810656 142.612606 
L 81.160892 145.287032 
" clip-path="url(#p2298c512ac)" style="fill: none; stroke: #000000; stroke-width: 1.2"/>
    <path d="M 77.232672 156.108666 
L 104.01701 150.551407 
" clip-path="url(#p2298c512ac)" style="fill: none; stroke: #000000; stroke-width: 1.2"/>
    <path d="M 77.232672 156.108666 
L 123.805589 162.127249 
" clip-path="url(#p2298c512ac)" style="fill: none; stroke: #000000; stroke-width: 1.2"/>
    <path d="M 77.232672 156.108666 
L 55.368595 148.300654 
" clip-path="url(#p2298c512ac)" style="fill: none; stroke: #000000; stroke-width: 1.2"/>
    <path d="M 104.01701 150.551407 
L 147.294626 149.78463 
" clip-path="url(#p2298c512ac)" style="fill: none; stroke: #000000; stroke-width: 1.2"/>
    <path d="M 104.01701 150.551407 
L 55.368595 148.300654 
" clip-path="url(#p2298c512ac)" style="fill: none; stroke: #000000; stroke-width: 1.2"/>
    <path d="M 104.01701 150.551407 
L 81.160892 145.287032 
" clip-path="url(#p2298c512ac)" style="fill: none; stroke: #000000; stroke-width: 1.2"/>
    <path d="M 147.294626 149.78463 
L 94.268223 154.26193 
" clip-path="url(#p2298c512ac)" style="fill: none; stroke: #000000; stroke-width: 1.2"/>
    <path d="M 147.294626 149.78463 
L 123.805589 162.127249 
" clip-path="url(#p2298c512ac)" style="fill: none; stroke: #000000; stroke-width: 1.2"/>
    <path d="M 147.294626 149.78463 
L 81.160892 145.287032 
" clip-path="url(#p2298c512ac)" style="fill: none; stroke: #000000; stroke-width: 1.2"/>
    <path d="M 147.294626 149.78463 
L 162.406459 181.805911 
" clip-path="url(#p2298c512ac)" style="fill: none; stroke: #000000; stroke-width: 1.2"/>
    <path d="M 147.294626 149.78463 
L 190.013025 154.523103 
" clip-path="url(#p2298c512ac)" style="fill: none; stroke: #000000; stroke-width: 1.2"/>
    <path d="M 94.268223 154.26193 
L 123.805589 162.127249 
" clip-path="url(#p2298c512ac)" style="fill: none; stroke: #000000; stroke-width: 1.2"/>
    <path d="M 94.268223 154.26193 
L 55.368595 148.300654 
" clip-path="url(#p2298c512ac)" style="fill: none; stroke: #000000; stroke-width: 1.2"/>
    <path d="M 123.805589 162.127249 
L 55.368595 148.300654 
" clip-path="url(#p2298c512ac)" style="fill: none; stroke: #000000; stroke-width: 1.2"/>
    <path d="M 123.805589 162.127249 
L 162.406459 181.805911 
" clip-path="url(#p2298c512ac)" style="fill: none; stroke: #000000; stroke-width: 1.2"/>
    <path d="M 123.805589 162.127249 
L 127.246072 202.187907 
" clip-path="url(#p2298c512ac)" style="fill: none; stroke: #000000; stroke-width: 1.2"/>
    <path d="M 55.368595 148.300654 
L 81.160892 145.287032 
" clip-path="url(#p2298c512ac)" style="fill: none; stroke: #000000; stroke-width: 1.2"/>
    <path d="M 97.310116 235.949149 
L 127.246072 202.187907 
" clip-path="url(#p2298c512ac)" style="fill: none; stroke: #000000; stroke-width: 1.2"/>
    <path d="M 146.1778 237.076364 
L 127.246072 202.187907 
" clip-path="url(#p2298c512ac)" style="fill: none; stroke: #000000; stroke-width: 1.2"/>
    <path d="M 239.831405 155.649006 
L 190.013025 154.523103 
" clip-path="url(#p2298c512ac)" style="fill: none; stroke: #000000; stroke-width: 1.2"/>
    <path d="M 200.655586 205.396808 
L 162.406459 181.805911 
" clip-path="url(#p2298c512ac)" style="fill: none; stroke: #000000; stroke-width: 1.2"/>
    <path d="M 162.406459 181.805911 
L 190.013025 154.523103 
" clip-path="url(#p2298c512ac)" style="fill: none; stroke: #000000; stroke-width: 1.2"/>
    <path d="M 162.406459 181.805911 
L 127.246072 202.187907 
" clip-path="url(#p2298c512ac)" style="fill: none; stroke: #000000; stroke-width: 1.2"/>
   </g>
   <g id="PathCollection_1">
    <defs>
     <path id="C0_0_23dc79ce04" d="M 0 8.944272 
C 2.372049 8.944272 4.647264 8.001847 6.324555 6.324555 
C 8.001847 4.647264 8.944272 2.372049 8.944272 -0 
C 8.944272 -2.372049 8.001847 -4.647264 6.324555 -6.324555 
C 4.647264 -8.001847 2.372049 -8.944272 0 -8.944272 
C -2.372049 -8.944272 -4.647264 -8.001847 -6.324555 -6.324555 
C -8.001847 -4.647264 -8.944272 -2.372049 -8.944272 0 
C -8.944272 2.372049 -8.001847 4.647264 -6.324555 6.324555 
C -4.647264 8.001847 -2.372049 8.944272 0 8.944272 
z
"/>
    </defs>
    <g clip-path="url(#p2298c512ac)">
     <use xlink:href="#C0_0_23dc79ce04" x="100.300243" y="63.849744" style="fill: #175487; stroke: #175487; stroke-width: 0.5"/>
    </g>
    <g clip-path="url(#p2298c512ac)">
     <use xlink:href="#C0_0_23dc79ce04" x="74.15768" y="64.115066" style="fill: #175487; stroke: #175487; stroke-width: 0.5"/>
    </g>
    <g clip-path="url(#p2298c512ac)">
     <use xlink:href="#C0_0_23dc79ce04" x="117.565271" y="53.803636" style="fill: #175487; stroke: #175487; stroke-width: 0.5"/>
    </g>
    <g clip-path="url(#p2298c512ac)">
     <use xlink:href="#C0_0_23dc79ce04" x="93.582404" y="56.519147" style="fill: #175487; stroke: #175487; stroke-width: 0.5"/>
    </g>
    <g clip-path="url(#p2298c512ac)">
     <use xlink:href="#C0_0_23dc79ce04" x="158.399766" y="73.649604" style="fill: #175487; stroke: #175487; stroke-width: 0.5"/>
    </g>
    <g clip-path="url(#p2298c512ac)">
     <use xlink:href="#C0_0_23dc79ce04" x="119.905771" y="67.921651" style="fill: #175487; stroke: #175487; stroke-width: 0.5"/>
    </g>
    <g clip-path="url(#p2298c512ac)">
     <use xlink:href="#C0_0_23dc79ce04" x="131.781469" y="76.374661" style="fill: #175487; stroke: #175487; stroke-width: 0.5"/>
    </g>
    <g clip-path="url(#p2298c512ac)">
     <use xlink:href="#C0_0_23dc79ce04" x="137.774392" y="63.746722" style="fill: #175487; stroke: #175487; stroke-width: 0.5"/>
    </g>
    <g clip-path="url(#p2298c512ac)">
     <use xlink:href="#C0_0_23dc79ce04" x="150.092038" y="84.812694" style="fill: #175487; stroke: #175487; stroke-width: 0.5"/>
    </g>
    <g clip-path="url(#p2298c512ac)">
     <use xlink:href="#C0_0_23dc79ce04" x="97.214764" y="80.015268" style="fill: #175487; stroke: #175487; stroke-width: 0.5"/>
    </g>
    <g clip-path="url(#p2298c512ac)">
     <use xlink:href="#C0_0_23dc79ce04" x="66.612332" y="69.369306" style="fill: #175487; stroke: #175487; stroke-width: 0.5"/>
    </g>
    <g clip-path="url(#p2298c512ac)">
     <use xlink:href="#C0_0_23dc79ce04" x="61.297493" y="80.013465" style="fill: #175487; stroke: #175487; stroke-width: 0.5"/>
    </g>
    <g clip-path="url(#p2298c512ac)">
     <use xlink:href="#C0_0_23dc79ce04" x="77.200405" y="105.771413" style="fill: #175487; stroke: #175487; stroke-width: 0.5"/>
    </g>
    <g clip-path="url(#p2298c512ac)">
     <use xlink:href="#C0_0_23dc79ce04" x="79.900124" y="95.01" style="fill: #175487; stroke: #175487; stroke-width: 0.5"/>
    </g>
    <g clip-path="url(#p2298c512ac)">
     <use xlink:href="#C0_0_23dc79ce04" x="110.546979" y="101.439373" style="fill: #175487; stroke: #175487; stroke-width: 0.5"/>
    </g>
    <g clip-path="url(#p2298c512ac)">
     <use xlink:href="#C0_0_23dc79ce04" x="131.986385" y="96.232787" style="fill: #175487; stroke: #175487; stroke-width: 0.5"/>
    </g>
    <g clip-path="url(#p2298c512ac)">
     <use xlink:href="#C0_0_23dc79ce04" x="101.272761" y="97.714938" style="fill: #175487; stroke: #175487; stroke-width: 0.5"/>
    </g>
    <g clip-path="url(#p2298c512ac)">
     <use xlink:href="#C0_0_23dc79ce04" x="126.176523" y="118.02623" style="fill: #175487; stroke: #175487; stroke-width: 0.5"/>
    </g>
    <g clip-path="url(#p2298c512ac)">
     <use xlink:href="#C0_0_23dc79ce04" x="112.862052" y="115.386811" style="fill: #175487; stroke: #175487; stroke-width: 0.5"/>
    </g>
    <g clip-path="url(#p2298c512ac)">
     <use xlink:href="#C0_0_23dc79ce04" x="157.917993" y="114.689059" style="fill: #175487; stroke: #175487; stroke-width: 0.5"/>
    </g>
    <g clip-path="url(#p2298c512ac)">
     <use xlink:href="#C0_0_23dc79ce04" x="136.281753" y="108.843982" style="fill: #175487; stroke: #175487; stroke-width: 0.5"/>
    </g>
    <g clip-path="url(#p2298c512ac)">
     <use xlink:href="#C0_0_23dc79ce04" x="96.818024" y="119.197395" style="fill: #175487; stroke: #175487; stroke-width: 0.5"/>
    </g>
    <g clip-path="url(#p2298c512ac)">
     <use xlink:href="#C0_0_23dc79ce04" x="61.66518" y="115.628667" style="fill: #175487; stroke: #175487; stroke-width: 0.5"/>
    </g>
    <g clip-path="url(#p2298c512ac)">
     <use xlink:href="#C0_0_23dc79ce04" x="57.75257" y="103.119642" style="fill: #175487; stroke: #175487; stroke-width: 0.5"/>
    </g>
    <g clip-path="url(#p2298c512ac)">
     <use xlink:href="#C0_0_23dc79ce04" x="109.70288" y="139.448343" style="fill: #175487; stroke: #175487; stroke-width: 0.5"/>
    </g>
    <g clip-path="url(#p2298c512ac)">
     <use xlink:href="#C0_0_23dc79ce04" x="63.275988" y="133.975751" style="fill: #175487; stroke: #175487; stroke-width: 0.5"/>
    </g>
    <g clip-path="url(#p2298c512ac)">
     <use xlink:href="#C0_0_23dc79ce04" x="148.40948" y="134.653805" style="fill: #175487; stroke: #175487; stroke-width: 0.5"/>
    </g>
    <g clip-path="url(#p2298c512ac)">
     <use xlink:href="#C0_0_23dc79ce04" x="82.807428" y="129.377046" style="fill: #175487; stroke: #175487; stroke-width: 0.5"/>
    </g>
    <g clip-path="url(#p2298c512ac)">
     <use xlink:href="#C0_0_23dc79ce04" x="129.810656" y="142.612606" style="fill: #175487; stroke: #175487; stroke-width: 0.5"/>
    </g>
    <g clip-path="url(#p2298c512ac)">
     <use xlink:href="#C0_0_23dc79ce04" x="77.232672" y="156.108666" style="fill: #175487; stroke: #175487; stroke-width: 0.5"/>
    </g>
    <g clip-path="url(#p2298c512ac)">
     <use xlink:href="#C0_0_23dc79ce04" x="104.01701" y="150.551407" style="fill: #175487; stroke: #175487; stroke-width: 0.5"/>
    </g>
    <g clip-path="url(#p2298c512ac)">
     <use xlink:href="#C0_0_23dc79ce04" x="147.294626" y="149.78463" style="fill: #175487; stroke: #175487; stroke-width: 0.5"/>
    </g>
    <g clip-path="url(#p2298c512ac)">
     <use xlink:href="#C0_0_23dc79ce04" x="94.268223" y="154.26193" style="fill: #175487; stroke: #175487; stroke-width: 0.5"/>
    </g>
    <g clip-path="url(#p2298c512ac)">
     <use xlink:href="#C0_0_23dc79ce04" x="123.805589" y="162.127249" style="fill: #175487; stroke: #175487; stroke-width: 0.5"/>
    </g>
    <g clip-path="url(#p2298c512ac)">
     <use xlink:href="#C0_0_23dc79ce04" x="55.368595" y="148.300654" style="fill: #175487; stroke: #175487; stroke-width: 0.5"/>
    </g>
    <g clip-path="url(#p2298c512ac)">
     <use xlink:href="#C0_0_23dc79ce04" x="81.160892" y="145.287032" style="fill: #175487; stroke: #175487; stroke-width: 0.5"/>
    </g>
    <g clip-path="url(#p2298c512ac)">
     <use xlink:href="#C0_0_23dc79ce04" x="97.310116" y="235.949149" style="fill: #bfbfbf; stroke: #bfbfbf; stroke-width: 0.5"/>
    </g>
    <g clip-path="url(#p2298c512ac)">
     <use xlink:href="#C0_0_23dc79ce04" x="146.1778" y="237.076364" style="fill: #bfbfbf; stroke: #bfbfbf; stroke-width: 0.5"/>
    </g>
    <g clip-path="url(#p2298c512ac)">
     <use xlink:href="#C0_0_23dc79ce04" x="239.831405" y="155.649006" style="fill: #bfbfbf; stroke: #bfbfbf; stroke-width: 0.5"/>
    </g>
    <g clip-path="url(#p2298c512ac)">
     <use xlink:href="#C0_0_23dc79ce04" x="200.655586" y="205.396808" style="fill: #bfbfbf; stroke: #bfbfbf; stroke-width: 0.5"/>
    </g>
    <g clip-path="url(#p2298c512ac)">
     <use xlink:href="#C0_0_23dc79ce04" x="162.406459" y="181.805911" style="fill: #666666; stroke: #666666; stroke-width: 0.5"/>
    </g>
    <g clip-path="url(#p2298c512ac)">
     <use xlink:href="#C0_0_23dc79ce04" x="190.013025" y="154.523103" style="fill: #0d0dff; stroke: #0d0dff; stroke-width: 0.5"/>
    </g>
    <g clip-path="url(#p2298c512ac)">
     <use xlink:href="#C0_0_23dc79ce04" x="127.246072" y="202.187907" style="fill: #0d0dff; stroke: #0d0dff; stroke-width: 0.5"/>
    </g>
   </g>
   <g id="text_1">
    <!-- CH4Ir48N2 -->
    <g transform="translate(119.247551 7.159609) scale(0.1 -0.1)">
     <defs>
      <path id="DejaVuSans-43" d="M 4122 4306 
L 4122 3641 
Q 3803 3938 3442 4084 
Q 3081 4231 2675 4231 
Q 1875 4231 1450 3742 
Q 1025 3253 1025 2328 
Q 1025 1406 1450 917 
Q 1875 428 2675 428 
Q 3081 428 3442 575 
Q 3803 722 4122 1019 
L 4122 359 
Q 3791 134 3420 21 
Q 3050 -91 2638 -91 
Q 1578 -91 968 557 
Q 359 1206 359 2328 
Q 359 3453 968 4101 
Q 1578 4750 2638 4750 
Q 3056 4750 3426 4639 
Q 3797 4528 4122 4306 
z
" transform="scale(0.015625)"/>
      <path id="DejaVuSans-48" d="M 628 4666 
L 1259 4666 
L 1259 2753 
L 3553 2753 
L 3553 4666 
L 4184 4666 
L 4184 0 
L 3553 0 
L 3553 2222 
L 1259 2222 
L 1259 0 
L 628 0 
L 628 4666 
z
" transform="scale(0.015625)"/>
      <path id="DejaVuSans-34" d="M 2419 4116 
L 825 1625 
L 2419 1625 
L 2419 4116 
z
M 2253 4666 
L 3047 4666 
L 3047 1625 
L 3713 1625 
L 3713 1100 
L 3047 1100 
L 3047 0 
L 2419 0 
L 2419 1100 
L 313 1100 
L 313 1709 
L 2253 4666 
z
" transform="scale(0.015625)"/>
      <path id="DejaVuSans-49" d="M 628 4666 
L 1259 4666 
L 1259 0 
L 628 0 
L 628 4666 
z
" transform="scale(0.015625)"/>
      <path id="DejaVuSans-72" d="M 2631 2963 
Q 2534 3019 2420 3045 
Q 2306 3072 2169 3072 
Q 1681 3072 1420 2755 
Q 1159 2438 1159 1844 
L 1159 0 
L 581 0 
L 581 3500 
L 1159 3500 
L 1159 2956 
Q 1341 3275 1631 3429 
Q 1922 3584 2338 3584 
Q 2397 3584 2469 3576 
Q 2541 3569 2628 3553 
L 2631 2963 
z
" transform="scale(0.015625)"/>
      <path id="DejaVuSans-38" d="M 2034 2216 
Q 1584 2216 1326 1975 
Q 1069 1734 1069 1313 
Q 1069 891 1326 650 
Q 1584 409 2034 409 
Q 2484 409 2743 651 
Q 3003 894 3003 1313 
Q 3003 1734 2745 1975 
Q 2488 2216 2034 2216 
z
M 1403 2484 
Q 997 2584 770 2862 
Q 544 3141 544 3541 
Q 544 4100 942 4425 
Q 1341 4750 2034 4750 
Q 2731 4750 3128 4425 
Q 3525 4100 3525 3541 
Q 3525 3141 3298 2862 
Q 3072 2584 2669 2484 
Q 3125 2378 3379 2068 
Q 3634 1759 3634 1313 
Q 3634 634 3220 271 
Q 2806 -91 2034 -91 
Q 1263 -91 848 271 
Q 434 634 434 1313 
Q 434 1759 690 2068 
Q 947 2378 1403 2484 
z
M 1172 3481 
Q 1172 3119 1398 2916 
Q 1625 2713 2034 2713 
Q 2441 2713 2670 2916 
Q 2900 3119 2900 3481 
Q 2900 3844 2670 4047 
Q 2441 4250 2034 4250 
Q 1625 4250 1398 4047 
Q 1172 3844 1172 3481 
z
" transform="scale(0.015625)"/>
      <path id="DejaVuSans-4e" d="M 628 4666 
L 1478 4666 
L 3547 763 
L 3547 4666 
L 4159 4666 
L 4159 0 
L 3309 0 
L 1241 3903 
L 1241 0 
L 628 0 
L 628 4666 
z
" transform="scale(0.015625)"/>
      <path id="DejaVuSans-32" d="M 1228 531 
L 3431 531 
L 3431 0 
L 469 0 
L 469 531 
Q 828 903 1448 1529 
Q 2069 2156 2228 2338 
Q 2531 2678 2651 2914 
Q 2772 3150 2772 3378 
Q 2772 3750 2511 3984 
Q 2250 4219 1831 4219 
Q 1534 4219 1204 4116 
Q 875 4013 500 3803 
L 500 4441 
Q 881 4594 1212 4672 
Q 1544 4750 1819 4750 
Q 2544 4750 2975 4387 
Q 3406 4025 3406 3419 
Q 3406 3131 3298 2873 
Q 3191 2616 2906 2266 
Q 2828 2175 2409 1742 
Q 1991 1309 1228 531 
z
" transform="scale(0.015625)"/>
     </defs>
     <use xlink:href="#DejaVuSans-43"/>
     <use xlink:href="#DejaVuSans-48" transform="translate(69.824219 0)"/>
     <use xlink:href="#DejaVuSans-34" transform="translate(145.019531 0)"/>
     <use xlink:href="#DejaVuSans-49" transform="translate(208.642578 0)"/>
     <use xlink:href="#DejaVuSans-72" transform="translate(238.134766 0)"/>
     <use xlink:href="#DejaVuSans-34" transform="translate(279.248047 0)"/>
     <use xlink:href="#DejaVuSans-38" transform="translate(342.871094 0)"/>
     <use xlink:href="#DejaVuSans-4e" transform="translate(406.494141 0)"/>
     <use xlink:href="#DejaVuSans-32" transform="translate(481.298828 0)"/>
    </g>
    <!-- Error: -10.60 eV -->
    <g transform="translate(119.247551 18.357421) scale(0.1 -0.1)">
     <defs>
      <path id="DejaVuSans-45" d="M 628 4666 
L 3578 4666 
L 3578 4134 
L 1259 4134 
L 1259 2753 
L 3481 2753 
L 3481 2222 
L 1259 2222 
L 1259 531 
L 3634 531 
L 3634 0 
L 628 0 
L 628 4666 
z
" transform="scale(0.015625)"/>
      <path id="DejaVuSans-6f" d="M 1959 3097 
Q 1497 3097 1228 2736 
Q 959 2375 959 1747 
Q 959 1119 1226 758 
Q 1494 397 1959 397 
Q 2419 397 2687 759 
Q 2956 1122 2956 1747 
Q 2956 2369 2687 2733 
Q 2419 3097 1959 3097 
z
M 1959 3584 
Q 2709 3584 3137 3096 
Q 3566 2609 3566 1747 
Q 3566 888 3137 398 
Q 2709 -91 1959 -91 
Q 1206 -91 779 398 
Q 353 888 353 1747 
Q 353 2609 779 3096 
Q 1206 3584 1959 3584 
z
" transform="scale(0.015625)"/>
      <path id="DejaVuSans-3a" d="M 750 794 
L 1409 794 
L 1409 0 
L 750 0 
L 750 794 
z
M 750 3309 
L 1409 3309 
L 1409 2516 
L 750 2516 
L 750 3309 
z
" transform="scale(0.015625)"/>
      <path id="DejaVuSans-20" transform="scale(0.015625)"/>
      <path id="DejaVuSans-2d" d="M 313 2009 
L 1997 2009 
L 1997 1497 
L 313 1497 
L 313 2009 
z
" transform="scale(0.015625)"/>
      <path id="DejaVuSans-31" d="M 794 531 
L 1825 531 
L 1825 4091 
L 703 3866 
L 703 4441 
L 1819 4666 
L 2450 4666 
L 2450 531 
L 3481 531 
L 3481 0 
L 794 0 
L 794 531 
z
" transform="scale(0.015625)"/>
      <path id="DejaVuSans-30" d="M 2034 4250 
Q 1547 4250 1301 3770 
Q 1056 3291 1056 2328 
Q 1056 1369 1301 889 
Q 1547 409 2034 409 
Q 2525 409 2770 889 
Q 3016 1369 3016 2328 
Q 3016 3291 2770 3770 
Q 2525 4250 2034 4250 
z
M 2034 4750 
Q 2819 4750 3233 4129 
Q 3647 3509 3647 2328 
Q 3647 1150 3233 529 
Q 2819 -91 2034 -91 
Q 1250 -91 836 529 
Q 422 1150 422 2328 
Q 422 3509 836 4129 
Q 1250 4750 2034 4750 
z
" transform="scale(0.015625)"/>
      <path id="DejaVuSans-2e" d="M 684 794 
L 1344 794 
L 1344 0 
L 684 0 
L 684 794 
z
" transform="scale(0.015625)"/>
      <path id="DejaVuSans-36" d="M 2113 2584 
Q 1688 2584 1439 2293 
Q 1191 2003 1191 1497 
Q 1191 994 1439 701 
Q 1688 409 2113 409 
Q 2538 409 2786 701 
Q 3034 994 3034 1497 
Q 3034 2003 2786 2293 
Q 2538 2584 2113 2584 
z
M 3366 4563 
L 3366 3988 
Q 3128 4100 2886 4159 
Q 2644 4219 2406 4219 
Q 1781 4219 1451 3797 
Q 1122 3375 1075 2522 
Q 1259 2794 1537 2939 
Q 1816 3084 2150 3084 
Q 2853 3084 3261 2657 
Q 3669 2231 3669 1497 
Q 3669 778 3244 343 
Q 2819 -91 2113 -91 
Q 1303 -91 875 529 
Q 447 1150 447 2328 
Q 447 3434 972 4092 
Q 1497 4750 2381 4750 
Q 2619 4750 2861 4703 
Q 3103 4656 3366 4563 
z
" transform="scale(0.015625)"/>
      <path id="DejaVuSans-65" d="M 3597 1894 
L 3597 1613 
L 953 1613 
Q 991 1019 1311 708 
Q 1631 397 2203 397 
Q 2534 397 2845 478 
Q 3156 559 3463 722 
L 3463 178 
Q 3153 47 2828 -22 
Q 2503 -91 2169 -91 
Q 1331 -91 842 396 
Q 353 884 353 1716 
Q 353 2575 817 3079 
Q 1281 3584 2069 3584 
Q 2775 3584 3186 3129 
Q 3597 2675 3597 1894 
z
M 3022 2063 
Q 3016 2534 2758 2815 
Q 2500 3097 2075 3097 
Q 1594 3097 1305 2825 
Q 1016 2553 972 2059 
L 3022 2063 
z
" transform="scale(0.015625)"/>
      <path id="DejaVuSans-56" d="M 1831 0 
L 50 4666 
L 709 4666 
L 2188 738 
L 3669 4666 
L 4325 4666 
L 2547 0 
L 1831 0 
z
" transform="scale(0.015625)"/>
     </defs>
     <use xlink:href="#DejaVuSans-45"/>
     <use xlink:href="#DejaVuSans-72" transform="translate(63.183594 0)"/>
     <use xlink:href="#DejaVuSans-72" transform="translate(102.546875 0)"/>
     <use xlink:href="#DejaVuSans-6f" transform="translate(141.410156 0)"/>
     <use xlink:href="#DejaVuSans-72" transform="translate(202.591797 0)"/>
     <use xlink:href="#DejaVuSans-3a" transform="translate(241.955078 0)"/>
     <use xlink:href="#DejaVuSans-20" transform="translate(275.646484 0)"/>
     <use xlink:href="#DejaVuSans-2d" transform="translate(307.433594 0)"/>
     <use xlink:href="#DejaVuSans-31" transform="translate(343.517578 0)"/>
     <use xlink:href="#DejaVuSans-30" transform="translate(407.140625 0)"/>
     <use xlink:href="#DejaVuSans-2e" transform="translate(470.763672 0)"/>
     <use xlink:href="#DejaVuSans-36" transform="translate(502.550781 0)"/>
     <use xlink:href="#DejaVuSans-30" transform="translate(566.173828 0)"/>
     <use xlink:href="#DejaVuSans-20" transform="translate(629.796875 0)"/>
     <use xlink:href="#DejaVuSans-65" transform="translate(661.583984 0)"/>
     <use xlink:href="#DejaVuSans-56" transform="translate(723.107422 0)"/>
    </g>
   </g>
  </g>
 </g>
 <defs>
  <clipPath id="p2298c512ac">
   <rect x="36" y="34.56" width="223.2" height="221.76"/>
  </clipPath>
 </defs>
</svg>
