<?xml version="1.0" encoding="utf-8" standalone="no"?>
<!DOCTYPE svg PUBLIC "-//W3C//DTD SVG 1.1//EN"
  "http://www.w3.org/Graphics/SVG/1.1/DTD/svg11.dtd">
<svg xmlns:xlink="http://www.w3.org/1999/xlink" width="389.727581pt" height="162.920062pt" viewBox="0 0 389.727581 162.920062" xmlns="http://www.w3.org/2000/svg" version="1.1">
 <metadata>
  <rdf:RDF xmlns:dc="http://purl.org/dc/elements/1.1/" xmlns:cc="http://creativecommons.org/ns#" xmlns:rdf="http://www.w3.org/1999/02/22-rdf-syntax-ns#">
   <cc:Work>
    <dc:type rdf:resource="http://purl.org/dc/dcmitype/StillImage"/>
    <dc:date>2025-06-30T11:59:59.485166</dc:date>
    <dc:format>image/svg+xml</dc:format>
    <dc:creator>
     <cc:Agent>
      <dc:title>Matplotlib v3.10.1, https://matplotlib.org/</dc:title>
     </cc:Agent>
    </dc:creator>
   </cc:Work>
  </rdf:RDF>
 </metadata>
 <defs>
  <style type="text/css">*{stroke-linejoin: round; stroke-linecap: butt}</style>
 </defs>
 <g id="figure_1">
  <g id="patch_1">
   <path d="M 0 162.920062 
L 389.727581 162.920062 
L 389.727581 0 
L 0 0 
z
" style="fill: #ffffff"/>
  </g>
  <g id="axes_1">
   <g id="patch_2">
    <path d="M 47.917188 122.734992 
L 382.527581 122.734992 
L 382.527581 7.2 
L 47.917188 7.2 
z
" style="fill: #ffffff"/>
   </g>
   <g id="patch_3">
    <path d="M 63.126751 122.734992 
L 78.52884 122.734992 
L 78.52884 33.36413 
L 63.126751 33.36413 
z
" clip-path="url(#pd5b196fb0f)" style="fill: #ff8c00; stroke: #000000; stroke-width: 0.5; stroke-linejoin: miter"/>
   </g>
   <g id="patch_4">
    <path d="M 82.379363 122.734992 
L 97.781452 122.734992 
L 97.781452 42.389639 
L 82.379363 42.389639 
z
" clip-path="url(#pd5b196fb0f)" style="fill: #ff8c00; stroke: #000000; stroke-width: 0.5; stroke-linejoin: miter"/>
   </g>
   <g id="patch_5">
    <path d="M 101.631975 122.734992 
L 117.034064 122.734992 
L 117.034064 60.622539 
L 101.631975 60.622539 
z
" clip-path="url(#pd5b196fb0f)" style="fill: #ff8c00; stroke: #000000; stroke-width: 0.5; stroke-linejoin: miter"/>
   </g>
   <g id="patch_6">
    <path d="M 120.884586 122.734992 
L 136.286676 122.734992 
L 136.286676 65.957692 
L 120.884586 65.957692 
z
" clip-path="url(#pd5b196fb0f)" style="fill: #ff8c00; stroke: #000000; stroke-width: 0.5; stroke-linejoin: miter"/>
   </g>
   <g id="patch_7">
    <path d="M 140.137198 122.734992 
L 155.539288 122.734992 
L 155.539288 82.338423 
L 140.137198 82.338423 
z
" clip-path="url(#pd5b196fb0f)" style="fill: #ff8c00; stroke: #000000; stroke-width: 0.5; stroke-linejoin: miter"/>
   </g>
   <g id="patch_8">
    <path d="M 159.38981 122.734992 
L 174.791899 122.734992 
L 174.791899 85.383286 
L 159.38981 85.383286 
z
" clip-path="url(#pd5b196fb0f)" style="fill: #ff8c00; stroke: #000000; stroke-width: 0.5; stroke-linejoin: miter"/>
   </g>
   <g id="patch_9">
    <path d="M 178.642422 122.734992 
L 194.044511 122.734992 
L 194.044511 88.675952 
L 178.642422 88.675952 
z
" clip-path="url(#pd5b196fb0f)" style="fill: #ff8c00; stroke: #000000; stroke-width: 0.5; stroke-linejoin: miter"/>
   </g>
   <g id="patch_10">
    <path d="M 197.895034 122.734992 
L 213.297123 122.734992 
L 213.297123 89.946402 
L 197.895034 89.946402 
z
" clip-path="url(#pd5b196fb0f)" style="fill: #ff8c00; stroke: #000000; stroke-width: 0.5; stroke-linejoin: miter"/>
   </g>
   <g id="patch_11">
    <path d="M 217.147646 122.734992 
L 232.549735 122.734992 
L 232.549735 94.860684 
L 217.147646 94.860684 
z
" clip-path="url(#pd5b196fb0f)" style="fill: #ff8c00; stroke: #000000; stroke-width: 0.5; stroke-linejoin: miter"/>
   </g>
   <g id="patch_12">
    <path d="M 236.400257 122.734992 
L 251.802347 122.734992 
L 251.802347 97.0141 
L 236.400257 97.0141 
z
" clip-path="url(#pd5b196fb0f)" style="fill: #ff8c00; stroke: #000000; stroke-width: 0.5; stroke-linejoin: miter"/>
   </g>
   <g id="patch_13">
    <path d="M 255.652869 122.734992 
L 271.054959 122.734992 
L 271.054959 97.897978 
L 255.652869 97.897978 
z
" clip-path="url(#pd5b196fb0f)" style="fill: #ff8c00; stroke: #000000; stroke-width: 0.5; stroke-linejoin: miter"/>
   </g>
   <g id="patch_14">
    <path d="M 274.905481 122.734992 
L 290.307571 122.734992 
L 290.307571 98.860989 
L 274.905481 98.860989 
z
" clip-path="url(#pd5b196fb0f)" style="fill: #ff8c00; stroke: #000000; stroke-width: 0.5; stroke-linejoin: miter"/>
   </g>
   <g id="patch_15">
    <path d="M 294.158093 122.734992 
L 309.560182 122.734992 
L 309.560182 100.484667 
L 294.158093 100.484667 
z
" clip-path="url(#pd5b196fb0f)" style="fill: #ff8c00; stroke: #000000; stroke-width: 0.5; stroke-linejoin: miter"/>
   </g>
   <g id="patch_16">
    <path d="M 313.410705 122.734992 
L 328.812794 122.734992 
L 328.812794 103.387079 
L 313.410705 103.387079 
z
" clip-path="url(#pd5b196fb0f)" style="fill: #ff8c00; stroke: #000000; stroke-width: 0.5; stroke-linejoin: miter"/>
   </g>
   <g id="patch_17">
    <path d="M 332.663317 122.734992 
L 348.065406 122.734992 
L 348.065406 106.167681 
L 332.663317 106.167681 
z
" clip-path="url(#pd5b196fb0f)" style="fill: #ff8c00; stroke: #000000; stroke-width: 0.5; stroke-linejoin: miter"/>
   </g>
   <g id="patch_18">
    <path d="M 351.915928 122.734992 
L 367.318018 122.734992 
L 367.318018 106.845256 
L 351.915928 106.845256 
z
" clip-path="url(#pd5b196fb0f)" style="fill: #ff8c00; stroke: #000000; stroke-width: 0.5; stroke-linejoin: miter"/>
   </g>
   <g id="matplotlib.axis_1">
    <g id="xtick_1">
     <g id="line2d_1">
      <defs>
       <path id="m5c234335d9" d="M 0 0 
L 0 3.5 
" style="stroke: #000000; stroke-width: 0.8"/>
      </defs>
      <g>
       <use xlink:href="#m5c234335d9" x="70.827796" y="122.734992" style="stroke: #000000; stroke-width: 0.8"/>
      </g>
     </g>
     <g id="text_1">
      <!-- IrO2 -->
      <g transform="translate(65.249938 150.165959) rotate(-45) scale(0.1 -0.1)">
       <defs>
        <path id="DejaVuSans-49" d="M 628 4666 
L 1259 4666 
L 1259 0 
L 628 0 
L 628 4666 
z
" transform="scale(0.015625)"/>
        <path id="DejaVuSans-72" d="M 2631 2963 
Q 2534 3019 2420 3045 
Q 2306 3072 2169 3072 
Q 1681 3072 1420 2755 
Q 1159 2438 1159 1844 
L 1159 0 
L 581 0 
L 581 3500 
L 1159 3500 
L 1159 2956 
Q 1341 3275 1631 3429 
Q 1922 3584 2338 3584 
Q 2397 3584 2469 3576 
Q 2541 3569 2628 3553 
L 2631 2963 
z
" transform="scale(0.015625)"/>
        <path id="DejaVuSans-4f" d="M 2522 4238 
Q 1834 4238 1429 3725 
Q 1025 3213 1025 2328 
Q 1025 1447 1429 934 
Q 1834 422 2522 422 
Q 3209 422 3611 934 
Q 4013 1447 4013 2328 
Q 4013 3213 3611 3725 
Q 3209 4238 2522 4238 
z
M 2522 4750 
Q 3503 4750 4090 4092 
Q 4678 3434 4678 2328 
Q 4678 1225 4090 567 
Q 3503 -91 2522 -91 
Q 1538 -91 948 565 
Q 359 1222 359 2328 
Q 359 3434 948 4092 
Q 1538 4750 2522 4750 
z
" transform="scale(0.015625)"/>
        <path id="DejaVuSans-32" d="M 1228 531 
L 3431 531 
L 3431 0 
L 469 0 
L 469 531 
Q 828 903 1448 1529 
Q 2069 2156 2228 2338 
Q 2531 2678 2651 2914 
Q 2772 3150 2772 3378 
Q 2772 3750 2511 3984 
Q 2250 4219 1831 4219 
Q 1534 4219 1204 4116 
Q 875 4013 500 3803 
L 500 4441 
Q 881 4594 1212 4672 
Q 1544 4750 1819 4750 
Q 2544 4750 2975 4387 
Q 3406 4025 3406 3419 
Q 3406 3131 3298 2873 
Q 3191 2616 2906 2266 
Q 2828 2175 2409 1742 
Q 1991 1309 1228 531 
z
" transform="scale(0.015625)"/>
       </defs>
       <use xlink:href="#DejaVuSans-49"/>
       <use xlink:href="#DejaVuSans-72" transform="translate(29.492188 0)"/>
       <use xlink:href="#DejaVuSans-4f" transform="translate(70.605469 0)"/>
       <use xlink:href="#DejaVuSans-32" transform="translate(149.316406 0)"/>
      </g>
     </g>
    </g>
    <g id="xtick_2">
     <g id="line2d_2">
      <g>
       <use xlink:href="#m5c234335d9" x="90.080407" y="122.734992" style="stroke: #000000; stroke-width: 0.8"/>
      </g>
     </g>
     <g id="text_2">
      <!-- Fe -->
      <g transform="translate(88.017092 143.136876) rotate(-45) scale(0.1 -0.1)">
       <defs>
        <path id="DejaVuSans-46" d="M 628 4666 
L 3309 4666 
L 3309 4134 
L 1259 4134 
L 1259 2759 
L 3109 2759 
L 3109 2228 
L 1259 2228 
L 1259 0 
L 628 0 
L 628 4666 
z
" transform="scale(0.015625)"/>
        <path id="DejaVuSans-65" d="M 3597 1894 
L 3597 1613 
L 953 1613 
Q 991 1019 1311 708 
Q 1631 397 2203 397 
Q 2534 397 2845 478 
Q 3156 559 3463 722 
L 3463 178 
Q 3153 47 2828 -22 
Q 2503 -91 2169 -91 
Q 1331 -91 842 396 
Q 353 884 353 1716 
Q 353 2575 817 3079 
Q 1281 3584 2069 3584 
Q 2775 3584 3186 3129 
Q 3597 2675 3597 1894 
z
M 3022 2063 
Q 3016 2534 2758 2815 
Q 2500 3097 2075 3097 
Q 1594 3097 1305 2825 
Q 1016 2553 972 2059 
L 3022 2063 
z
" transform="scale(0.015625)"/>
       </defs>
       <use xlink:href="#DejaVuSans-46"/>
       <use xlink:href="#DejaVuSans-65" transform="translate(52.019531 0)"/>
      </g>
     </g>
    </g>
    <g id="xtick_3">
     <g id="line2d_3">
      <g>
       <use xlink:href="#m5c234335d9" x="109.333019" y="122.734992" style="stroke: #000000; stroke-width: 0.8"/>
      </g>
     </g>
     <g id="text_3">
      <!-- RuO2 -->
      <g transform="translate(101.713391 154.249501) rotate(-45) scale(0.1 -0.1)">
       <defs>
        <path id="DejaVuSans-52" d="M 2841 2188 
Q 3044 2119 3236 1894 
Q 3428 1669 3622 1275 
L 4263 0 
L 3584 0 
L 2988 1197 
Q 2756 1666 2539 1819 
Q 2322 1972 1947 1972 
L 1259 1972 
L 1259 0 
L 628 0 
L 628 4666 
L 2053 4666 
Q 2853 4666 3247 4331 
Q 3641 3997 3641 3322 
Q 3641 2881 3436 2590 
Q 3231 2300 2841 2188 
z
M 1259 4147 
L 1259 2491 
L 2053 2491 
Q 2509 2491 2742 2702 
Q 2975 2913 2975 3322 
Q 2975 3731 2742 3939 
Q 2509 4147 2053 4147 
L 1259 4147 
z
" transform="scale(0.015625)"/>
        <path id="DejaVuSans-75" d="M 544 1381 
L 544 3500 
L 1119 3500 
L 1119 1403 
Q 1119 906 1312 657 
Q 1506 409 1894 409 
Q 2359 409 2629 706 
Q 2900 1003 2900 1516 
L 2900 3500 
L 3475 3500 
L 3475 0 
L 2900 0 
L 2900 538 
Q 2691 219 2414 64 
Q 2138 -91 1772 -91 
Q 1169 -91 856 284 
Q 544 659 544 1381 
z
M 1991 3584 
L 1991 3584 
z
" transform="scale(0.015625)"/>
       </defs>
       <use xlink:href="#DejaVuSans-52"/>
       <use xlink:href="#DejaVuSans-75" transform="translate(64.982422 0)"/>
       <use xlink:href="#DejaVuSans-4f" transform="translate(128.361328 0)"/>
       <use xlink:href="#DejaVuSans-32" transform="translate(207.072266 0)"/>
      </g>
     </g>
    </g>
    <g id="xtick_4">
     <g id="line2d_4">
      <g>
       <use xlink:href="#m5c234335d9" x="128.585631" y="122.734992" style="stroke: #000000; stroke-width: 0.8"/>
      </g>
     </g>
     <g id="text_4">
      <!-- Co -->
      <g transform="translate(125.904702 144.372103) rotate(-45) scale(0.1 -0.1)">
       <defs>
        <path id="DejaVuSans-43" d="M 4122 4306 
L 4122 3641 
Q 3803 3938 3442 4084 
Q 3081 4231 2675 4231 
Q 1875 4231 1450 3742 
Q 1025 3253 1025 2328 
Q 1025 1406 1450 917 
Q 1875 428 2675 428 
Q 3081 428 3442 575 
Q 3803 722 4122 1019 
L 4122 359 
Q 3791 134 3420 21 
Q 3050 -91 2638 -91 
Q 1578 -91 968 557 
Q 359 1206 359 2328 
Q 359 3453 968 4101 
Q 1578 4750 2638 4750 
Q 3056 4750 3426 4639 
Q 3797 4528 4122 4306 
z
" transform="scale(0.015625)"/>
        <path id="DejaVuSans-6f" d="M 1959 3097 
Q 1497 3097 1228 2736 
Q 959 2375 959 1747 
Q 959 1119 1226 758 
Q 1494 397 1959 397 
Q 2419 397 2687 759 
Q 2956 1122 2956 1747 
Q 2956 2369 2687 2733 
Q 2419 3097 1959 3097 
z
M 1959 3584 
Q 2709 3584 3137 3096 
Q 3566 2609 3566 1747 
Q 3566 888 3137 398 
Q 2709 -91 1959 -91 
Q 1206 -91 779 398 
Q 353 888 353 1747 
Q 353 2609 779 3096 
Q 1206 3584 1959 3584 
z
" transform="scale(0.015625)"/>
       </defs>
       <use xlink:href="#DejaVuSans-43"/>
       <use xlink:href="#DejaVuSans-6f" transform="translate(69.824219 0)"/>
      </g>
     </g>
    </g>
    <g id="xtick_5">
     <g id="line2d_5">
      <g>
       <use xlink:href="#m5c234335d9" x="147.838243" y="122.734992" style="stroke: #000000; stroke-width: 0.8"/>
      </g>
     </g>
     <g id="text_5">
      <!-- Ir -->
      <g transform="translate(147.292997 140.100736) rotate(-45) scale(0.1 -0.1)">
       <use xlink:href="#DejaVuSans-49"/>
       <use xlink:href="#DejaVuSans-72" transform="translate(29.492188 0)"/>
      </g>
     </g>
    </g>
    <g id="xtick_6">
     <g id="line2d_6">
      <g>
       <use xlink:href="#m5c234335d9" x="167.090855" y="122.734992" style="stroke: #000000; stroke-width: 0.8"/>
      </g>
     </g>
     <g id="text_6">
      <!-- Os -->
      <g transform="translate(164.417107 144.35774) rotate(-45) scale(0.1 -0.1)">
       <defs>
        <path id="DejaVuSans-73" d="M 2834 3397 
L 2834 2853 
Q 2591 2978 2328 3040 
Q 2066 3103 1784 3103 
Q 1356 3103 1142 2972 
Q 928 2841 928 2578 
Q 928 2378 1081 2264 
Q 1234 2150 1697 2047 
L 1894 2003 
Q 2506 1872 2764 1633 
Q 3022 1394 3022 966 
Q 3022 478 2636 193 
Q 2250 -91 1575 -91 
Q 1294 -91 989 -36 
Q 684 19 347 128 
L 347 722 
Q 666 556 975 473 
Q 1284 391 1588 391 
Q 1994 391 2212 530 
Q 2431 669 2431 922 
Q 2431 1156 2273 1281 
Q 2116 1406 1581 1522 
L 1381 1569 
Q 847 1681 609 1914 
Q 372 2147 372 2553 
Q 372 3047 722 3315 
Q 1072 3584 1716 3584 
Q 2034 3584 2315 3537 
Q 2597 3491 2834 3397 
z
" transform="scale(0.015625)"/>
       </defs>
       <use xlink:href="#DejaVuSans-4f"/>
       <use xlink:href="#DejaVuSans-73" transform="translate(78.710938 0)"/>
      </g>
     </g>
    </g>
    <g id="xtick_7">
     <g id="line2d_7">
      <g>
       <use xlink:href="#m5c234335d9" x="186.343467" y="122.734992" style="stroke: #000000; stroke-width: 0.8"/>
      </g>
     </g>
     <g id="text_7">
      <!-- Rh -->
      <g transform="translate(183.597351 144.502476) rotate(-45) scale(0.1 -0.1)">
       <defs>
        <path id="DejaVuSans-68" d="M 3513 2113 
L 3513 0 
L 2938 0 
L 2938 2094 
Q 2938 2591 2744 2837 
Q 2550 3084 2163 3084 
Q 1697 3084 1428 2787 
Q 1159 2491 1159 1978 
L 1159 0 
L 581 0 
L 581 4863 
L 1159 4863 
L 1159 2956 
Q 1366 3272 1645 3428 
Q 1925 3584 2291 3584 
Q 2894 3584 3203 3211 
Q 3513 2838 3513 2113 
z
" transform="scale(0.015625)"/>
       </defs>
       <use xlink:href="#DejaVuSans-52"/>
       <use xlink:href="#DejaVuSans-68" transform="translate(69.482422 0)"/>
      </g>
     </g>
    </g>
    <g id="xtick_8">
     <g id="line2d_8">
      <g>
       <use xlink:href="#m5c234335d9" x="205.596078" y="122.734992" style="stroke: #000000; stroke-width: 0.8"/>
      </g>
     </g>
     <g id="text_8">
      <!-- Ru -->
      <g transform="translate(203.009062 144.184277) rotate(-45) scale(0.1 -0.1)">
       <use xlink:href="#DejaVuSans-52"/>
       <use xlink:href="#DejaVuSans-75" transform="translate(64.982422 0)"/>
      </g>
     </g>
    </g>
    <g id="xtick_9">
     <g id="line2d_9">
      <g>
       <use xlink:href="#m5c234335d9" x="224.84869" y="122.734992" style="stroke: #000000; stroke-width: 0.8"/>
      </g>
     </g>
     <g id="text_9">
      <!-- Pt -->
      <g transform="translate(223.282007 142.143612) rotate(-45) scale(0.1 -0.1)">
       <defs>
        <path id="DejaVuSans-50" d="M 1259 4147 
L 1259 2394 
L 2053 2394 
Q 2494 2394 2734 2622 
Q 2975 2850 2975 3272 
Q 2975 3691 2734 3919 
Q 2494 4147 2053 4147 
L 1259 4147 
z
M 628 4666 
L 2053 4666 
Q 2838 4666 3239 4311 
Q 3641 3956 3641 3272 
Q 3641 2581 3239 2228 
Q 2838 1875 2053 1875 
L 1259 1875 
L 1259 0 
L 628 0 
L 628 4666 
z
" transform="scale(0.015625)"/>
        <path id="DejaVuSans-74" d="M 1172 4494 
L 1172 3500 
L 2356 3500 
L 2356 3053 
L 1172 3053 
L 1172 1153 
Q 1172 725 1289 603 
Q 1406 481 1766 481 
L 2356 481 
L 2356 0 
L 1766 0 
Q 1100 0 847 248 
Q 594 497 594 1153 
L 594 3053 
L 172 3053 
L 172 3500 
L 594 3500 
L 594 4494 
L 1172 4494 
z
" transform="scale(0.015625)"/>
       </defs>
       <use xlink:href="#DejaVuSans-50"/>
       <use xlink:href="#DejaVuSans-74" transform="translate(60.302734 0)"/>
      </g>
     </g>
    </g>
    <g id="xtick_10">
     <g id="line2d_10">
      <g>
       <use xlink:href="#m5c234335d9" x="244.101302" y="122.734992" style="stroke: #000000; stroke-width: 0.8"/>
      </g>
     </g>
     <g id="text_10">
      <!-- Ni -->
      <g transform="translate(242.425238 142.362373) rotate(-45) scale(0.1 -0.1)">
       <defs>
        <path id="DejaVuSans-4e" d="M 628 4666 
L 1478 4666 
L 3547 763 
L 3547 4666 
L 4159 4666 
L 4159 0 
L 3309 0 
L 1241 3903 
L 1241 0 
L 628 0 
L 628 4666 
z
" transform="scale(0.015625)"/>
        <path id="DejaVuSans-69" d="M 603 3500 
L 1178 3500 
L 1178 0 
L 603 0 
L 603 3500 
z
M 603 4863 
L 1178 4863 
L 1178 4134 
L 603 4134 
L 603 4863 
z
" transform="scale(0.015625)"/>
       </defs>
       <use xlink:href="#DejaVuSans-4e"/>
       <use xlink:href="#DejaVuSans-69" transform="translate(74.804688 0)"/>
      </g>
     </g>
    </g>
    <g id="xtick_11">
     <g id="line2d_11">
      <g>
       <use xlink:href="#m5c234335d9" x="263.353914" y="122.734992" style="stroke: #000000; stroke-width: 0.8"/>
      </g>
     </g>
     <g id="text_11">
      <!-- Zn -->
      <g transform="translate(260.642601 144.43287) rotate(-45) scale(0.1 -0.1)">
       <defs>
        <path id="DejaVuSans-5a" d="M 359 4666 
L 4025 4666 
L 4025 4184 
L 1075 531 
L 4097 531 
L 4097 0 
L 288 0 
L 288 481 
L 3238 4134 
L 359 4134 
L 359 4666 
z
" transform="scale(0.015625)"/>
        <path id="DejaVuSans-6e" d="M 3513 2113 
L 3513 0 
L 2938 0 
L 2938 2094 
Q 2938 2591 2744 2837 
Q 2550 3084 2163 3084 
Q 1697 3084 1428 2787 
Q 1159 2491 1159 1978 
L 1159 0 
L 581 0 
L 581 3500 
L 1159 3500 
L 1159 2956 
Q 1366 3272 1645 3428 
Q 1925 3584 2291 3584 
Q 2894 3584 3203 3211 
Q 3513 2838 3513 2113 
z
" transform="scale(0.015625)"/>
       </defs>
       <use xlink:href="#DejaVuSans-5a"/>
       <use xlink:href="#DejaVuSans-6e" transform="translate(68.505859 0)"/>
      </g>
     </g>
    </g>
    <g id="xtick_12">
     <g id="line2d_12">
      <g>
       <use xlink:href="#m5c234335d9" x="282.606526" y="122.734992" style="stroke: #000000; stroke-width: 0.8"/>
      </g>
     </g>
     <g id="text_12">
      <!-- Cd -->
      <g transform="translate(279.84439 144.534516) rotate(-45) scale(0.1 -0.1)">
       <defs>
        <path id="DejaVuSans-64" d="M 2906 2969 
L 2906 4863 
L 3481 4863 
L 3481 0 
L 2906 0 
L 2906 525 
Q 2725 213 2448 61 
Q 2172 -91 1784 -91 
Q 1150 -91 751 415 
Q 353 922 353 1747 
Q 353 2572 751 3078 
Q 1150 3584 1784 3584 
Q 2172 3584 2448 3432 
Q 2725 3281 2906 2969 
z
M 947 1747 
Q 947 1113 1208 752 
Q 1469 391 1925 391 
Q 2381 391 2643 752 
Q 2906 1113 2906 1747 
Q 2906 2381 2643 2742 
Q 2381 3103 1925 3103 
Q 1469 3103 1208 2742 
Q 947 2381 947 1747 
z
" transform="scale(0.015625)"/>
       </defs>
       <use xlink:href="#DejaVuSans-43"/>
       <use xlink:href="#DejaVuSans-64" transform="translate(69.824219 0)"/>
      </g>
     </g>
    </g>
    <g id="xtick_13">
     <g id="line2d_13">
      <g>
       <use xlink:href="#m5c234335d9" x="301.859138" y="122.734992" style="stroke: #000000; stroke-width: 0.8"/>
      </g>
     </g>
     <g id="text_13">
      <!-- Pd -->
      <g transform="translate(299.433982 143.860555) rotate(-45) scale(0.1 -0.1)">
       <use xlink:href="#DejaVuSans-50"/>
       <use xlink:href="#DejaVuSans-64" transform="translate(60.302734 0)"/>
      </g>
     </g>
    </g>
    <g id="xtick_14">
     <g id="line2d_14">
      <g>
       <use xlink:href="#m5c234335d9" x="321.111749" y="122.734992" style="stroke: #000000; stroke-width: 0.8"/>
      </g>
     </g>
     <g id="text_14">
      <!-- Cu -->
      <g transform="translate(318.353481 144.526782) rotate(-45) scale(0.1 -0.1)">
       <use xlink:href="#DejaVuSans-43"/>
       <use xlink:href="#DejaVuSans-75" transform="translate(69.824219 0)"/>
      </g>
     </g>
    </g>
    <g id="xtick_15">
     <g id="line2d_15">
      <g>
       <use xlink:href="#m5c234335d9" x="340.364361" y="122.734992" style="stroke: #000000; stroke-width: 0.8"/>
      </g>
     </g>
     <g id="text_15">
      <!-- Au -->
      <g transform="translate(337.656363 144.426241) rotate(-45) scale(0.1 -0.1)">
       <defs>
        <path id="DejaVuSans-41" d="M 2188 4044 
L 1331 1722 
L 3047 1722 
L 2188 4044 
z
M 1831 4666 
L 2547 4666 
L 4325 0 
L 3669 0 
L 3244 1197 
L 1141 1197 
L 716 0 
L 50 0 
L 1831 4666 
z
" transform="scale(0.015625)"/>
       </defs>
       <use xlink:href="#DejaVuSans-41"/>
       <use xlink:href="#DejaVuSans-75" transform="translate(68.408203 0)"/>
      </g>
     </g>
    </g>
    <g id="xtick_16">
     <g id="line2d_16">
      <g>
       <use xlink:href="#m5c234335d9" x="359.616973" y="122.734992" style="stroke: #000000; stroke-width: 0.8"/>
      </g>
     </g>
     <g id="text_16">
      <!-- Ag -->
      <g transform="translate(356.905108 144.433975) rotate(-45) scale(0.1 -0.1)">
       <defs>
        <path id="DejaVuSans-67" d="M 2906 1791 
Q 2906 2416 2648 2759 
Q 2391 3103 1925 3103 
Q 1463 3103 1205 2759 
Q 947 2416 947 1791 
Q 947 1169 1205 825 
Q 1463 481 1925 481 
Q 2391 481 2648 825 
Q 2906 1169 2906 1791 
z
M 3481 434 
Q 3481 -459 3084 -895 
Q 2688 -1331 1869 -1331 
Q 1566 -1331 1297 -1286 
Q 1028 -1241 775 -1147 
L 775 -588 
Q 1028 -725 1275 -790 
Q 1522 -856 1778 -856 
Q 2344 -856 2625 -561 
Q 2906 -266 2906 331 
L 2906 616 
Q 2728 306 2450 153 
Q 2172 0 1784 0 
Q 1141 0 747 490 
Q 353 981 353 1791 
Q 353 2603 747 3093 
Q 1141 3584 1784 3584 
Q 2172 3584 2450 3431 
Q 2728 3278 2906 2969 
L 2906 3500 
L 3481 3500 
L 3481 434 
z
" transform="scale(0.015625)"/>
       </defs>
       <use xlink:href="#DejaVuSans-41"/>
       <use xlink:href="#DejaVuSans-67" transform="translate(68.408203 0)"/>
      </g>
     </g>
    </g>
   </g>
   <g id="matplotlib.axis_2">
    <g id="ytick_1">
     <g id="line2d_17">
      <defs>
       <path id="m91f560e146" d="M 0 0 
L -3.5 0 
" style="stroke: #000000; stroke-width: 0.8"/>
      </defs>
      <g>
       <use xlink:href="#m91f560e146" x="47.917188" y="122.734992" style="stroke: #000000; stroke-width: 0.8"/>
      </g>
     </g>
     <g id="text_17">
      <!-- 0.00 -->
      <g transform="translate(20.878125 126.154289) scale(0.09 -0.09)">
       <defs>
        <path id="DejaVuSans-30" d="M 2034 4250 
Q 1547 4250 1301 3770 
Q 1056 3291 1056 2328 
Q 1056 1369 1301 889 
Q 1547 409 2034 409 
Q 2525 409 2770 889 
Q 3016 1369 3016 2328 
Q 3016 3291 2770 3770 
Q 2525 4250 2034 4250 
z
M 2034 4750 
Q 2819 4750 3233 4129 
Q 3647 3509 3647 2328 
Q 3647 1150 3233 529 
Q 2819 -91 2034 -91 
Q 1250 -91 836 529 
Q 422 1150 422 2328 
Q 422 3509 836 4129 
Q 1250 4750 2034 4750 
z
" transform="scale(0.015625)"/>
        <path id="DejaVuSans-2e" d="M 684 794 
L 1344 794 
L 1344 0 
L 684 0 
L 684 794 
z
" transform="scale(0.015625)"/>
       </defs>
       <use xlink:href="#DejaVuSans-30"/>
       <use xlink:href="#DejaVuSans-2e" transform="translate(63.623047 0)"/>
       <use xlink:href="#DejaVuSans-30" transform="translate(95.410156 0)"/>
       <use xlink:href="#DejaVuSans-30" transform="translate(159.033203 0)"/>
      </g>
     </g>
    </g>
    <g id="ytick_2">
     <g id="line2d_18">
      <g>
       <use xlink:href="#m91f560e146" x="47.917188" y="93.709703" style="stroke: #000000; stroke-width: 0.8"/>
      </g>
     </g>
     <g id="text_18">
      <!-- 0.10 -->
      <g transform="translate(20.878125 97.129) scale(0.09 -0.09)">
       <defs>
        <path id="DejaVuSans-31" d="M 794 531 
L 1825 531 
L 1825 4091 
L 703 3866 
L 703 4441 
L 1819 4666 
L 2450 4666 
L 2450 531 
L 3481 531 
L 3481 0 
L 794 0 
L 794 531 
z
" transform="scale(0.015625)"/>
       </defs>
       <use xlink:href="#DejaVuSans-30"/>
       <use xlink:href="#DejaVuSans-2e" transform="translate(63.623047 0)"/>
       <use xlink:href="#DejaVuSans-31" transform="translate(95.410156 0)"/>
       <use xlink:href="#DejaVuSans-30" transform="translate(159.033203 0)"/>
      </g>
     </g>
    </g>
    <g id="ytick_3">
     <g id="line2d_19">
      <g>
       <use xlink:href="#m91f560e146" x="47.917188" y="64.684414" style="stroke: #000000; stroke-width: 0.8"/>
      </g>
     </g>
     <g id="text_19">
      <!-- 0.20 -->
      <g transform="translate(20.878125 68.103711) scale(0.09 -0.09)">
       <use xlink:href="#DejaVuSans-30"/>
       <use xlink:href="#DejaVuSans-2e" transform="translate(63.623047 0)"/>
       <use xlink:href="#DejaVuSans-32" transform="translate(95.410156 0)"/>
       <use xlink:href="#DejaVuSans-30" transform="translate(159.033203 0)"/>
      </g>
     </g>
    </g>
    <g id="ytick_4">
     <g id="line2d_20">
      <g>
       <use xlink:href="#m91f560e146" x="47.917188" y="35.659125" style="stroke: #000000; stroke-width: 0.8"/>
      </g>
     </g>
     <g id="text_20">
      <!-- 0.30 -->
      <g transform="translate(20.878125 39.078422) scale(0.09 -0.09)">
       <defs>
        <path id="DejaVuSans-33" d="M 2597 2516 
Q 3050 2419 3304 2112 
Q 3559 1806 3559 1356 
Q 3559 666 3084 287 
Q 2609 -91 1734 -91 
Q 1441 -91 1130 -33 
Q 819 25 488 141 
L 488 750 
Q 750 597 1062 519 
Q 1375 441 1716 441 
Q 2309 441 2620 675 
Q 2931 909 2931 1356 
Q 2931 1769 2642 2001 
Q 2353 2234 1838 2234 
L 1294 2234 
L 1294 2753 
L 1863 2753 
Q 2328 2753 2575 2939 
Q 2822 3125 2822 3475 
Q 2822 3834 2567 4026 
Q 2313 4219 1838 4219 
Q 1578 4219 1281 4162 
Q 984 4106 628 3988 
L 628 4550 
Q 988 4650 1302 4700 
Q 1616 4750 1894 4750 
Q 2613 4750 3031 4423 
Q 3450 4097 3450 3541 
Q 3450 3153 3228 2886 
Q 3006 2619 2597 2516 
z
" transform="scale(0.015625)"/>
       </defs>
       <use xlink:href="#DejaVuSans-30"/>
       <use xlink:href="#DejaVuSans-2e" transform="translate(63.623047 0)"/>
       <use xlink:href="#DejaVuSans-33" transform="translate(95.410156 0)"/>
       <use xlink:href="#DejaVuSans-30" transform="translate(159.033203 0)"/>
      </g>
     </g>
    </g>
    <g id="text_21">
     <!-- $\it{\mathrm{MAE}}$ / eV -->
     <g transform="translate(14.798438 87.267496) rotate(-90) scale(0.1 -0.1)">
      <defs>
       <path id="DejaVuSans-4d" d="M 628 4666 
L 1569 4666 
L 2759 1491 
L 3956 4666 
L 4897 4666 
L 4897 0 
L 4281 0 
L 4281 4097 
L 3078 897 
L 2444 897 
L 1241 4097 
L 1241 0 
L 628 0 
L 628 4666 
z
" transform="scale(0.015625)"/>
       <path id="DejaVuSans-45" d="M 628 4666 
L 3578 4666 
L 3578 4134 
L 1259 4134 
L 1259 2753 
L 3481 2753 
L 3481 2222 
L 1259 2222 
L 1259 531 
L 3634 531 
L 3634 0 
L 628 0 
L 628 4666 
z
" transform="scale(0.015625)"/>
       <path id="DejaVuSans-20" transform="scale(0.015625)"/>
       <path id="DejaVuSans-2f" d="M 1625 4666 
L 2156 4666 
L 531 -594 
L 0 -594 
L 1625 4666 
z
" transform="scale(0.015625)"/>
       <path id="DejaVuSans-56" d="M 1831 0 
L 50 4666 
L 709 4666 
L 2188 738 
L 3669 4666 
L 4325 4666 
L 2547 0 
L 1831 0 
z
" transform="scale(0.015625)"/>
      </defs>
      <use xlink:href="#DejaVuSans-4d" transform="translate(0 0.09375)"/>
      <use xlink:href="#DejaVuSans-41" transform="translate(86.279297 0.09375)"/>
      <use xlink:href="#DejaVuSans-45" transform="translate(154.6875 0.09375)"/>
      <use xlink:href="#DejaVuSans-20" transform="translate(217.871094 0.09375)"/>
      <use xlink:href="#DejaVuSans-2f" transform="translate(249.658203 0.09375)"/>
      <use xlink:href="#DejaVuSans-20" transform="translate(283.349609 0.09375)"/>
      <use xlink:href="#DejaVuSans-65" transform="translate(315.136719 0.09375)"/>
      <use xlink:href="#DejaVuSans-56" transform="translate(376.660156 0.09375)"/>
     </g>
    </g>
   </g>
   <g id="LineCollection_1">
    <path d="M 70.827796 45.873025 
L 70.827796 20.855235 
" clip-path="url(#pd5b196fb0f)" style="fill: none; stroke: #000000; stroke-width: 1.5"/>
    <path d="M 90.080407 72.077612 
L 90.080407 12.701666 
" clip-path="url(#pd5b196fb0f)" style="fill: none; stroke: #000000; stroke-width: 1.5"/>
    <path d="M 109.333019 76.775304 
L 109.333019 44.469773 
" clip-path="url(#pd5b196fb0f)" style="fill: none; stroke: #000000; stroke-width: 1.5"/>
    <path d="M 128.585631 87.836056 
L 128.585631 44.079328 
" clip-path="url(#pd5b196fb0f)" style="fill: none; stroke: #000000; stroke-width: 1.5"/>
    <path d="M 147.838243 95.707882 
L 147.838243 68.968965 
" clip-path="url(#pd5b196fb0f)" style="fill: none; stroke: #000000; stroke-width: 1.5"/>
    <path d="M 167.090855 101.017057 
L 167.090855 69.749515 
" clip-path="url(#pd5b196fb0f)" style="fill: none; stroke: #000000; stroke-width: 1.5"/>
    <path d="M 186.343467 113.888454 
L 186.343467 63.463449 
" clip-path="url(#pd5b196fb0f)" style="fill: none; stroke: #000000; stroke-width: 1.5"/>
    <path d="M 205.596078 101.257972 
L 205.596078 78.634832 
" clip-path="url(#pd5b196fb0f)" style="fill: none; stroke: #000000; stroke-width: 1.5"/>
    <path d="M 224.84869 105.917078 
L 224.84869 83.804291 
" clip-path="url(#pd5b196fb0f)" style="fill: none; stroke: #000000; stroke-width: 1.5"/>
    <path d="M 244.101302 106.570244 
L 244.101302 87.457956 
" clip-path="url(#pd5b196fb0f)" style="fill: none; stroke: #000000; stroke-width: 1.5"/>
    <path d="M 263.353914 106.428352 
L 263.353914 89.367603 
" clip-path="url(#pd5b196fb0f)" style="fill: none; stroke: #000000; stroke-width: 1.5"/>
    <path d="M 282.606526 107.795973 
L 282.606526 89.926005 
" clip-path="url(#pd5b196fb0f)" style="fill: none; stroke: #000000; stroke-width: 1.5"/>
    <path d="M 301.859138 108.459084 
L 301.859138 92.51025 
" clip-path="url(#pd5b196fb0f)" style="fill: none; stroke: #000000; stroke-width: 1.5"/>
    <path d="M 321.111749 111.096152 
L 321.111749 95.678005 
" clip-path="url(#pd5b196fb0f)" style="fill: none; stroke: #000000; stroke-width: 1.5"/>
    <path d="M 340.364361 111.379349 
L 340.364361 100.956013 
" clip-path="url(#pd5b196fb0f)" style="fill: none; stroke: #000000; stroke-width: 1.5"/>
    <path d="M 359.616973 112.028176 
L 359.616973 101.662336 
" clip-path="url(#pd5b196fb0f)" style="fill: none; stroke: #000000; stroke-width: 1.5"/>
   </g>
   <g id="line2d_21">
    <defs>
     <path id="m64aeefb3bc" d="M 5 0 
L -5 -0 
" style="stroke: #000000"/>
    </defs>
    <g clip-path="url(#pd5b196fb0f)">
     <use xlink:href="#m64aeefb3bc" x="70.827796" y="45.873025" style="stroke: #000000"/>
     <use xlink:href="#m64aeefb3bc" x="90.080407" y="72.077612" style="stroke: #000000"/>
     <use xlink:href="#m64aeefb3bc" x="109.333019" y="76.775304" style="stroke: #000000"/>
     <use xlink:href="#m64aeefb3bc" x="128.585631" y="87.836056" style="stroke: #000000"/>
     <use xlink:href="#m64aeefb3bc" x="147.838243" y="95.707882" style="stroke: #000000"/>
     <use xlink:href="#m64aeefb3bc" x="167.090855" y="101.017057" style="stroke: #000000"/>
     <use xlink:href="#m64aeefb3bc" x="186.343467" y="113.888454" style="stroke: #000000"/>
     <use xlink:href="#m64aeefb3bc" x="205.596078" y="101.257972" style="stroke: #000000"/>
     <use xlink:href="#m64aeefb3bc" x="224.84869" y="105.917078" style="stroke: #000000"/>
     <use xlink:href="#m64aeefb3bc" x="244.101302" y="106.570244" style="stroke: #000000"/>
     <use xlink:href="#m64aeefb3bc" x="263.353914" y="106.428352" style="stroke: #000000"/>
     <use xlink:href="#m64aeefb3bc" x="282.606526" y="107.795973" style="stroke: #000000"/>
     <use xlink:href="#m64aeefb3bc" x="301.859138" y="108.459084" style="stroke: #000000"/>
     <use xlink:href="#m64aeefb3bc" x="321.111749" y="111.096152" style="stroke: #000000"/>
     <use xlink:href="#m64aeefb3bc" x="340.364361" y="111.379349" style="stroke: #000000"/>
     <use xlink:href="#m64aeefb3bc" x="359.616973" y="112.028176" style="stroke: #000000"/>
    </g>
   </g>
   <g id="line2d_22">
    <g clip-path="url(#pd5b196fb0f)">
     <use xlink:href="#m64aeefb3bc" x="70.827796" y="20.855235" style="stroke: #000000"/>
     <use xlink:href="#m64aeefb3bc" x="90.080407" y="12.701666" style="stroke: #000000"/>
     <use xlink:href="#m64aeefb3bc" x="109.333019" y="44.469773" style="stroke: #000000"/>
     <use xlink:href="#m64aeefb3bc" x="128.585631" y="44.079328" style="stroke: #000000"/>
     <use xlink:href="#m64aeefb3bc" x="147.838243" y="68.968965" style="stroke: #000000"/>
     <use xlink:href="#m64aeefb3bc" x="167.090855" y="69.749515" style="stroke: #000000"/>
     <use xlink:href="#m64aeefb3bc" x="186.343467" y="63.463449" style="stroke: #000000"/>
     <use xlink:href="#m64aeefb3bc" x="205.596078" y="78.634832" style="stroke: #000000"/>
     <use xlink:href="#m64aeefb3bc" x="224.84869" y="83.804291" style="stroke: #000000"/>
     <use xlink:href="#m64aeefb3bc" x="244.101302" y="87.457956" style="stroke: #000000"/>
     <use xlink:href="#m64aeefb3bc" x="263.353914" y="89.367603" style="stroke: #000000"/>
     <use xlink:href="#m64aeefb3bc" x="282.606526" y="89.926005" style="stroke: #000000"/>
     <use xlink:href="#m64aeefb3bc" x="301.859138" y="92.51025" style="stroke: #000000"/>
     <use xlink:href="#m64aeefb3bc" x="321.111749" y="95.678005" style="stroke: #000000"/>
     <use xlink:href="#m64aeefb3bc" x="340.364361" y="100.956013" style="stroke: #000000"/>
     <use xlink:href="#m64aeefb3bc" x="359.616973" y="101.662336" style="stroke: #000000"/>
    </g>
   </g>
   <g id="patch_19">
    <path d="M 47.917188 122.734992 
L 47.917188 7.2 
" style="fill: none; stroke: #000000; stroke-width: 0.8; stroke-linejoin: miter; stroke-linecap: square"/>
   </g>
   <g id="patch_20">
    <path d="M 382.527581 122.734992 
L 382.527581 7.2 
" style="fill: none; stroke: #000000; stroke-width: 0.8; stroke-linejoin: miter; stroke-linecap: square"/>
   </g>
   <g id="patch_21">
    <path d="M 47.917188 122.734992 
L 382.527581 122.734992 
" style="fill: none; stroke: #000000; stroke-width: 0.8; stroke-linejoin: miter; stroke-linecap: square"/>
   </g>
   <g id="patch_22">
    <path d="M 47.917188 7.2 
L 382.527581 7.2 
" style="fill: none; stroke: #000000; stroke-width: 0.8; stroke-linejoin: miter; stroke-linecap: square"/>
   </g>
  </g>
 </g>
 <defs>
  <clipPath id="pd5b196fb0f">
   <rect x="47.917188" y="7.2" width="334.610394" height="115.534992"/>
  </clipPath>
 </defs>
</svg>
