<?xml version="1.0" encoding="utf-8" standalone="no"?>
<!DOCTYPE svg PUBLIC "-//W3C//DTD SVG 1.1//EN"
  "http://www.w3.org/Graphics/SVG/1.1/DTD/svg11.dtd">
<svg xmlns:xlink="http://www.w3.org/1999/xlink" width="288pt" height="288pt" viewBox="0 0 288 288" xmlns="http://www.w3.org/2000/svg" version="1.1">
 <metadata>
  <rdf:RDF xmlns:dc="http://purl.org/dc/elements/1.1/" xmlns:cc="http://creativecommons.org/ns#" xmlns:rdf="http://www.w3.org/1999/02/22-rdf-syntax-ns#">
   <cc:Work>
    <dc:type rdf:resource="http://purl.org/dc/dcmitype/StillImage"/>
    <dc:date>2025-05-20T15:35:58.643327</dc:date>
    <dc:format>image/svg+xml</dc:format>
    <dc:creator>
     <cc:Agent>
      <dc:title>Matplotlib v3.10.1, https://matplotlib.org/</dc:title>
     </cc:Agent>
    </dc:creator>
   </cc:Work>
  </rdf:RDF>
 </metadata>
 <defs>
  <style type="text/css">*{stroke-linejoin: round; stroke-linecap: butt}</style>
 </defs>
 <g id="figure_1">
  <g id="patch_1">
   <path d="M 0 288 
L 288 288 
L 288 0 
L 0 0 
z
" style="fill: #ffffff"/>
  </g>
  <g id="axes_1">
   <g id="LineCollection_1">
    <path d="M 130.20839 125.104217 
L 179.698417 112.158476 
" clip-path="url(#p2602f90ee7)" style="fill: none; stroke: #000000; stroke-width: 1.2"/>
    <path d="M 130.20839 125.104217 
L 115.477863 147.156545 
" clip-path="url(#p2602f90ee7)" style="fill: none; stroke: #000000; stroke-width: 1.2"/>
    <path d="M 130.20839 125.104217 
L 121.51063 101.641869 
" clip-path="url(#p2602f90ee7)" style="fill: none; stroke: #000000; stroke-width: 1.2"/>
    <path d="M 130.20839 125.104217 
L 136.302926 159.534948 
" clip-path="url(#p2602f90ee7)" style="fill: none; stroke: #000000; stroke-width: 1.2"/>
    <path d="M 188.771188 59.033259 
L 162.065444 88.77451 
" clip-path="url(#p2602f90ee7)" style="fill: none; stroke: #000000; stroke-width: 1.2"/>
    <path d="M 99.960011 181.34989 
L 114.637763 197.031342 
" clip-path="url(#p2602f90ee7)" style="fill: none; stroke: #000000; stroke-width: 1.2"/>
    <path d="M 99.960011 181.34989 
L 74.904251 208.098512 
" clip-path="url(#p2602f90ee7)" style="fill: none; stroke: #000000; stroke-width: 1.2"/>
    <path d="M 99.960011 181.34989 
L 92.470032 218.959743 
" clip-path="url(#p2602f90ee7)" style="fill: none; stroke: #000000; stroke-width: 1.2"/>
    <path d="M 99.960011 181.34989 
L 115.477863 147.156545 
" clip-path="url(#p2602f90ee7)" style="fill: none; stroke: #000000; stroke-width: 1.2"/>
    <path d="M 99.960011 181.34989 
L 55.368595 167.133137 
" clip-path="url(#p2602f90ee7)" style="fill: none; stroke: #000000; stroke-width: 1.2"/>
    <path d="M 99.960011 181.34989 
L 69.047457 190.093889 
" clip-path="url(#p2602f90ee7)" style="fill: none; stroke: #000000; stroke-width: 1.2"/>
    <path d="M 99.960011 181.34989 
L 145.789686 203.401605 
" clip-path="url(#p2602f90ee7)" style="fill: none; stroke: #000000; stroke-width: 1.2"/>
    <path d="M 217.025733 89.972568 
L 179.698417 112.158476 
" clip-path="url(#p2602f90ee7)" style="fill: none; stroke: #000000; stroke-width: 1.2"/>
    <path d="M 69.047457 190.093889 
L 114.637763 197.031342 
" clip-path="url(#p2602f90ee7)" style="fill: none; stroke: #000000; stroke-width: 1.2"/>
    <path d="M 157.500567 130.805603 
L 179.698417 112.158476 
" clip-path="url(#p2602f90ee7)" style="fill: none; stroke: #000000; stroke-width: 1.2"/>
    <path d="M 157.500567 130.805603 
L 115.477863 147.156545 
" clip-path="url(#p2602f90ee7)" style="fill: none; stroke: #000000; stroke-width: 1.2"/>
    <path d="M 157.500567 130.805603 
L 162.065444 88.77451 
" clip-path="url(#p2602f90ee7)" style="fill: none; stroke: #000000; stroke-width: 1.2"/>
    <path d="M 157.500567 130.805603 
L 121.51063 101.641869 
" clip-path="url(#p2602f90ee7)" style="fill: none; stroke: #000000; stroke-width: 1.2"/>
    <path d="M 157.500567 130.805603 
L 136.302926 159.534948 
" clip-path="url(#p2602f90ee7)" style="fill: none; stroke: #000000; stroke-width: 1.2"/>
    <path d="M 157.500567 130.805603 
L 198.256766 155.508814 
" clip-path="url(#p2602f90ee7)" style="fill: none; stroke: #000000; stroke-width: 1.2"/>
    <path d="M 145.789686 203.401605 
L 114.637763 197.031342 
" clip-path="url(#p2602f90ee7)" style="fill: none; stroke: #000000; stroke-width: 1.2"/>
    <path d="M 145.789686 203.401605 
L 188.604703 195.306891 
" clip-path="url(#p2602f90ee7)" style="fill: none; stroke: #000000; stroke-width: 1.2"/>
    <path d="M 162.065444 88.77451 
L 144.844407 53.803636 
" clip-path="url(#p2602f90ee7)" style="fill: none; stroke: #000000; stroke-width: 1.2"/>
    <path d="M 114.637763 197.031342 
L 74.904251 208.098512 
" clip-path="url(#p2602f90ee7)" style="fill: none; stroke: #000000; stroke-width: 1.2"/>
    <path d="M 114.637763 197.031342 
L 92.470032 218.959743 
" clip-path="url(#p2602f90ee7)" style="fill: none; stroke: #000000; stroke-width: 1.2"/>
    <path d="M 114.637763 197.031342 
L 136.302926 159.534948 
" clip-path="url(#p2602f90ee7)" style="fill: none; stroke: #000000; stroke-width: 1.2"/>
    <path d="M 114.637763 197.031342 
L 118.358787 237.076364 
" clip-path="url(#p2602f90ee7)" style="fill: none; stroke: #000000; stroke-width: 1.2"/>
    <path d="M 121.51063 101.641869 
L 88.964256 77.571573 
" clip-path="url(#p2602f90ee7)" style="fill: none; stroke: #000000; stroke-width: 1.2"/>
    <path d="M 198.256766 155.508814 
L 188.604703 195.306891 
" clip-path="url(#p2602f90ee7)" style="fill: none; stroke: #000000; stroke-width: 1.2"/>
    <path d="M 198.256766 155.508814 
L 239.831405 163.921638 
" clip-path="url(#p2602f90ee7)" style="fill: none; stroke: #000000; stroke-width: 1.2"/>
    <path d="M 198.256766 155.508814 
L 238.082 139.616721 
" clip-path="url(#p2602f90ee7)" style="fill: none; stroke: #000000; stroke-width: 1.2"/>
    <path d="M 188.604703 195.306891 
L 200.996476 231.637161 
" clip-path="url(#p2602f90ee7)" style="fill: none; stroke: #000000; stroke-width: 1.2"/>
    <path d="M 188.604703 195.306891 
L 225.583346 213.487237 
" clip-path="url(#p2602f90ee7)" style="fill: none; stroke: #000000; stroke-width: 1.2"/>
   </g>
   <g id="PathCollection_1">
    <defs>
     <path id="C0_0_7e18e9f935" d="M 0 8.944272 
C 2.372049 8.944272 4.647264 8.001847 6.324555 6.324555 
C 8.001847 4.647264 8.944272 2.372049 8.944272 -0 
C 8.944272 -2.372049 8.001847 -4.647264 6.324555 -6.324555 
C 4.647264 -8.001847 2.372049 -8.944272 0 -8.944272 
C -2.372049 -8.944272 -4.647264 -8.001847 -6.324555 -6.324555 
C -8.001847 -4.647264 -8.944272 -2.372049 -8.944272 0 
C -8.944272 2.372049 -8.001847 4.647264 -6.324555 6.324555 
C -4.647264 8.001847 -2.372049 8.944272 0 8.944272 
z
"/>
    </defs>
    <g clip-path="url(#p2602f90ee7)">
     <use xlink:href="#C0_0_7e18e9f935" x="130.20839" y="125.104217" style="fill: #175487; stroke: #175487; stroke-width: 0.5"/>
    </g>
    <g clip-path="url(#p2602f90ee7)">
     <use xlink:href="#C0_0_7e18e9f935" x="188.771188" y="59.033259" style="fill: #175487; stroke: #175487; stroke-width: 0.5"/>
    </g>
    <g clip-path="url(#p2602f90ee7)">
     <use xlink:href="#C0_0_7e18e9f935" x="99.960011" y="181.34989" style="fill: #175487; stroke: #175487; stroke-width: 0.5"/>
    </g>
    <g clip-path="url(#p2602f90ee7)">
     <use xlink:href="#C0_0_7e18e9f935" x="55.368595" y="167.133137" style="fill: #ff0d0d; stroke: #ff0d0d; stroke-width: 0.5"/>
    </g>
    <g clip-path="url(#p2602f90ee7)">
     <use xlink:href="#C0_0_7e18e9f935" x="217.025733" y="89.972568" style="fill: #175487; stroke: #175487; stroke-width: 0.5"/>
    </g>
    <g clip-path="url(#p2602f90ee7)">
     <use xlink:href="#C0_0_7e18e9f935" x="69.047457" y="190.093889" style="fill: #ff0d0d; stroke: #ff0d0d; stroke-width: 0.5"/>
    </g>
    <g clip-path="url(#p2602f90ee7)">
     <use xlink:href="#C0_0_7e18e9f935" x="157.500567" y="130.805603" style="fill: #175487; stroke: #175487; stroke-width: 0.5"/>
    </g>
    <g clip-path="url(#p2602f90ee7)">
     <use xlink:href="#C0_0_7e18e9f935" x="145.789686" y="203.401605" style="fill: #ff0d0d; stroke: #ff0d0d; stroke-width: 0.5"/>
    </g>
    <g clip-path="url(#p2602f90ee7)">
     <use xlink:href="#C0_0_7e18e9f935" x="162.065444" y="88.77451" style="fill: #ff0d0d; stroke: #ff0d0d; stroke-width: 0.5"/>
    </g>
    <g clip-path="url(#p2602f90ee7)">
     <use xlink:href="#C0_0_7e18e9f935" x="144.844407" y="53.803636" style="fill: #175487; stroke: #175487; stroke-width: 0.5"/>
    </g>
    <g clip-path="url(#p2602f90ee7)">
     <use xlink:href="#C0_0_7e18e9f935" x="114.637763" y="197.031342" style="fill: #175487; stroke: #175487; stroke-width: 0.5"/>
    </g>
    <g clip-path="url(#p2602f90ee7)">
     <use xlink:href="#C0_0_7e18e9f935" x="121.51063" y="101.641869" style="fill: #ff0d0d; stroke: #ff0d0d; stroke-width: 0.5"/>
    </g>
    <g clip-path="url(#p2602f90ee7)">
     <use xlink:href="#C0_0_7e18e9f935" x="136.302926" y="159.534948" style="fill: #ff0d0d; stroke: #ff0d0d; stroke-width: 0.5"/>
    </g>
    <g clip-path="url(#p2602f90ee7)">
     <use xlink:href="#C0_0_7e18e9f935" x="88.964256" y="77.571573" style="fill: #175487; stroke: #175487; stroke-width: 0.5"/>
    </g>
    <g clip-path="url(#p2602f90ee7)">
     <use xlink:href="#C0_0_7e18e9f935" x="115.477863" y="147.156545" style="fill: #ff0d0d; stroke: #ff0d0d; stroke-width: 0.5"/>
    </g>
    <g clip-path="url(#p2602f90ee7)">
     <use xlink:href="#C0_0_7e18e9f935" x="74.904251" y="208.098512" style="fill: #ff0d0d; stroke: #ff0d0d; stroke-width: 0.5"/>
    </g>
    <g clip-path="url(#p2602f90ee7)">
     <use xlink:href="#C0_0_7e18e9f935" x="92.470032" y="218.959743" style="fill: #ff0d0d; stroke: #ff0d0d; stroke-width: 0.5"/>
    </g>
    <g clip-path="url(#p2602f90ee7)">
     <use xlink:href="#C0_0_7e18e9f935" x="118.358787" y="237.076364" style="fill: #ff0d0d; stroke: #ff0d0d; stroke-width: 0.5"/>
    </g>
    <g clip-path="url(#p2602f90ee7)">
     <use xlink:href="#C0_0_7e18e9f935" x="179.698417" y="112.158476" style="fill: #ff0d0d; stroke: #ff0d0d; stroke-width: 0.5"/>
    </g>
    <g clip-path="url(#p2602f90ee7)">
     <use xlink:href="#C0_0_7e18e9f935" x="198.256766" y="155.508814" style="fill: #666666; stroke: #666666; stroke-width: 0.5"/>
    </g>
    <g clip-path="url(#p2602f90ee7)">
     <use xlink:href="#C0_0_7e18e9f935" x="188.604703" y="195.306891" style="fill: #666666; stroke: #666666; stroke-width: 0.5"/>
    </g>
    <g clip-path="url(#p2602f90ee7)">
     <use xlink:href="#C0_0_7e18e9f935" x="239.831405" y="163.921638" style="fill: #bfbfbf; stroke: #bfbfbf; stroke-width: 0.5"/>
    </g>
    <g clip-path="url(#p2602f90ee7)">
     <use xlink:href="#C0_0_7e18e9f935" x="238.082" y="139.616721" style="fill: #bfbfbf; stroke: #bfbfbf; stroke-width: 0.5"/>
    </g>
    <g clip-path="url(#p2602f90ee7)">
     <use xlink:href="#C0_0_7e18e9f935" x="200.996476" y="231.637161" style="fill: #bfbfbf; stroke: #bfbfbf; stroke-width: 0.5"/>
    </g>
    <g clip-path="url(#p2602f90ee7)">
     <use xlink:href="#C0_0_7e18e9f935" x="225.583346" y="213.487237" style="fill: #bfbfbf; stroke: #bfbfbf; stroke-width: 0.5"/>
    </g>
   </g>
   <g id="text_1">
    <g clip-path="url(#p2602f90ee7)">
     <!-- Ir -->
     <g style="fill: #ffffff" transform="translate(125.017453 128.415467) scale(0.12 -0.12)">
      <defs>
       <path id="DejaVuSans-Bold-49" d="M 588 4666 
L 1791 4666 
L 1791 0 
L 588 0 
L 588 4666 
z
" transform="scale(0.015625)"/>
       <path id="DejaVuSans-Bold-72" d="M 3138 2547 
Q 2991 2616 2845 2648 
Q 2700 2681 2553 2681 
Q 2122 2681 1889 2404 
Q 1656 2128 1656 1613 
L 1656 0 
L 538 0 
L 538 3500 
L 1656 3500 
L 1656 2925 
Q 1872 3269 2151 3426 
Q 2431 3584 2822 3584 
Q 2878 3584 2943 3579 
Q 3009 3575 3134 3559 
L 3138 2547 
z
" transform="scale(0.015625)"/>
      </defs>
      <use xlink:href="#DejaVuSans-Bold-49"/>
      <use xlink:href="#DejaVuSans-Bold-72" transform="translate(37.207031 0)"/>
     </g>
    </g>
   </g>
   <g id="text_2">
    <g clip-path="url(#p2602f90ee7)">
     <!-- Ir -->
     <g style="fill: #ffffff" transform="translate(183.58025 62.344509) scale(0.12 -0.12)">
      <use xlink:href="#DejaVuSans-Bold-49"/>
      <use xlink:href="#DejaVuSans-Bold-72" transform="translate(37.207031 0)"/>
     </g>
    </g>
   </g>
   <g id="text_3">
    <g clip-path="url(#p2602f90ee7)">
     <!-- Ir -->
     <g style="fill: #ffffff" transform="translate(94.769073 184.66114) scale(0.12 -0.12)">
      <use xlink:href="#DejaVuSans-Bold-49"/>
      <use xlink:href="#DejaVuSans-Bold-72" transform="translate(37.207031 0)"/>
     </g>
    </g>
   </g>
   <g id="text_4">
    <g clip-path="url(#p2602f90ee7)">
     <!-- O -->
     <g style="fill: #ffffff" transform="translate(50.267658 170.444387) scale(0.12 -0.12)">
      <defs>
       <path id="DejaVuSans-Bold-4f" d="M 2719 3878 
Q 2169 3878 1866 3472 
Q 1563 3066 1563 2328 
Q 1563 1594 1866 1187 
Q 2169 781 2719 781 
Q 3272 781 3575 1187 
Q 3878 1594 3878 2328 
Q 3878 3066 3575 3472 
Q 3272 3878 2719 3878 
z
M 2719 4750 
Q 3844 4750 4481 4106 
Q 5119 3463 5119 2328 
Q 5119 1197 4481 553 
Q 3844 -91 2719 -91 
Q 1597 -91 958 553 
Q 319 1197 319 2328 
Q 319 3463 958 4106 
Q 1597 4750 2719 4750 
z
" transform="scale(0.015625)"/>
      </defs>
      <use xlink:href="#DejaVuSans-Bold-4f"/>
     </g>
    </g>
   </g>
   <g id="text_5">
    <g clip-path="url(#p2602f90ee7)">
     <!-- Ir -->
     <g style="fill: #ffffff" transform="translate(211.834796 93.283818) scale(0.12 -0.12)">
      <use xlink:href="#DejaVuSans-Bold-49"/>
      <use xlink:href="#DejaVuSans-Bold-72" transform="translate(37.207031 0)"/>
     </g>
    </g>
   </g>
   <g id="text_6">
    <g clip-path="url(#p2602f90ee7)">
     <!-- O -->
     <g style="fill: #ffffff" transform="translate(63.946519 193.405139) scale(0.12 -0.12)">
      <use xlink:href="#DejaVuSans-Bold-4f"/>
     </g>
    </g>
   </g>
   <g id="text_7">
    <g clip-path="url(#p2602f90ee7)">
     <!-- Ir -->
     <g style="fill: #ffffff" transform="translate(152.309629 134.116853) scale(0.12 -0.12)">
      <use xlink:href="#DejaVuSans-Bold-49"/>
      <use xlink:href="#DejaVuSans-Bold-72" transform="translate(37.207031 0)"/>
     </g>
    </g>
   </g>
   <g id="text_8">
    <g clip-path="url(#p2602f90ee7)">
     <!-- O -->
     <g style="fill: #ffffff" transform="translate(140.688748 206.712855) scale(0.12 -0.12)">
      <use xlink:href="#DejaVuSans-Bold-4f"/>
     </g>
    </g>
   </g>
   <g id="text_9">
    <g clip-path="url(#p2602f90ee7)">
     <!-- O -->
     <g style="fill: #ffffff" transform="translate(156.964507 92.08576) scale(0.12 -0.12)">
      <use xlink:href="#DejaVuSans-Bold-4f"/>
     </g>
    </g>
   </g>
   <g id="text_10">
    <g clip-path="url(#p2602f90ee7)">
     <!-- Ir -->
     <g style="fill: #ffffff" transform="translate(139.653469 57.114886) scale(0.12 -0.12)">
      <use xlink:href="#DejaVuSans-Bold-49"/>
      <use xlink:href="#DejaVuSans-Bold-72" transform="translate(37.207031 0)"/>
     </g>
    </g>
   </g>
   <g id="text_11">
    <g clip-path="url(#p2602f90ee7)">
     <!-- Ir -->
     <g style="fill: #ffffff" transform="translate(109.446826 200.342592) scale(0.12 -0.12)">
      <use xlink:href="#DejaVuSans-Bold-49"/>
      <use xlink:href="#DejaVuSans-Bold-72" transform="translate(37.207031 0)"/>
     </g>
    </g>
   </g>
   <g id="text_12">
    <g clip-path="url(#p2602f90ee7)">
     <!-- O -->
     <g style="fill: #ffffff" transform="translate(116.409693 104.953119) scale(0.12 -0.12)">
      <use xlink:href="#DejaVuSans-Bold-4f"/>
     </g>
    </g>
   </g>
   <g id="text_13">
    <g clip-path="url(#p2602f90ee7)">
     <!-- O -->
     <g style="fill: #ffffff" transform="translate(131.201989 162.846198) scale(0.12 -0.12)">
      <use xlink:href="#DejaVuSans-Bold-4f"/>
     </g>
    </g>
   </g>
   <g id="text_14">
    <g clip-path="url(#p2602f90ee7)">
     <!-- Ir -->
     <g style="fill: #ffffff" transform="translate(83.773318 80.882823) scale(0.12 -0.12)">
      <use xlink:href="#DejaVuSans-Bold-49"/>
      <use xlink:href="#DejaVuSans-Bold-72" transform="translate(37.207031 0)"/>
     </g>
    </g>
   </g>
   <g id="text_15">
    <g clip-path="url(#p2602f90ee7)">
     <!-- O -->
     <g style="fill: #ffffff" transform="translate(110.376926 150.467795) scale(0.12 -0.12)">
      <use xlink:href="#DejaVuSans-Bold-4f"/>
     </g>
    </g>
   </g>
   <g id="text_16">
    <g clip-path="url(#p2602f90ee7)">
     <!-- O -->
     <g style="fill: #ffffff" transform="translate(69.803313 211.409762) scale(0.12 -0.12)">
      <use xlink:href="#DejaVuSans-Bold-4f"/>
     </g>
    </g>
   </g>
   <g id="text_17">
    <g clip-path="url(#p2602f90ee7)">
     <!-- O -->
     <g style="fill: #ffffff" transform="translate(87.369094 222.270993) scale(0.12 -0.12)">
      <use xlink:href="#DejaVuSans-Bold-4f"/>
     </g>
    </g>
   </g>
   <g id="text_18">
    <g clip-path="url(#p2602f90ee7)">
     <!-- O -->
     <g style="fill: #ffffff" transform="translate(113.257849 240.387614) scale(0.12 -0.12)">
      <use xlink:href="#DejaVuSans-Bold-4f"/>
     </g>
    </g>
   </g>
   <g id="text_19">
    <g clip-path="url(#p2602f90ee7)">
     <!-- O -->
     <g style="fill: #ffffff" transform="translate(174.59748 115.469726) scale(0.12 -0.12)">
      <use xlink:href="#DejaVuSans-Bold-4f"/>
     </g>
    </g>
   </g>
   <g id="text_20">
    <g clip-path="url(#p2602f90ee7)">
     <!-- C -->
     <g style="fill: #ffffff" transform="translate(193.853329 158.820064) scale(0.12 -0.12)">
      <defs>
       <path id="DejaVuSans-Bold-43" d="M 4288 256 
Q 3956 84 3597 -3 
Q 3238 -91 2847 -91 
Q 1681 -91 1000 561 
Q 319 1213 319 2328 
Q 319 3447 1000 4098 
Q 1681 4750 2847 4750 
Q 3238 4750 3597 4662 
Q 3956 4575 4288 4403 
L 4288 3438 
Q 3953 3666 3628 3772 
Q 3303 3878 2944 3878 
Q 2300 3878 1931 3465 
Q 1563 3053 1563 2328 
Q 1563 1606 1931 1193 
Q 2300 781 2944 781 
Q 3303 781 3628 887 
Q 3953 994 4288 1222 
L 4288 256 
z
" transform="scale(0.015625)"/>
      </defs>
      <use xlink:href="#DejaVuSans-Bold-43"/>
     </g>
    </g>
   </g>
   <g id="text_21">
    <g clip-path="url(#p2602f90ee7)">
     <!-- C -->
     <g style="fill: #ffffff" transform="translate(184.201266 198.618141) scale(0.12 -0.12)">
      <use xlink:href="#DejaVuSans-Bold-43"/>
     </g>
    </g>
   </g>
   <g id="text_22">
    <g clip-path="url(#p2602f90ee7)">
     <!-- H -->
     <g style="fill: #ffffff" transform="translate(234.810155 167.232888) scale(0.12 -0.12)">
      <defs>
       <path id="DejaVuSans-Bold-48" d="M 588 4666 
L 1791 4666 
L 1791 2888 
L 3566 2888 
L 3566 4666 
L 4769 4666 
L 4769 0 
L 3566 0 
L 3566 1978 
L 1791 1978 
L 1791 0 
L 588 0 
L 588 4666 
z
" transform="scale(0.015625)"/>
      </defs>
      <use xlink:href="#DejaVuSans-Bold-48"/>
     </g>
    </g>
   </g>
   <g id="text_23">
    <g clip-path="url(#p2602f90ee7)">
     <!-- H -->
     <g style="fill: #ffffff" transform="translate(233.06075 142.927971) scale(0.12 -0.12)">
      <use xlink:href="#DejaVuSans-Bold-48"/>
     </g>
    </g>
   </g>
   <g id="text_24">
    <g clip-path="url(#p2602f90ee7)">
     <!-- H -->
     <g style="fill: #ffffff" transform="translate(195.975226 234.948411) scale(0.12 -0.12)">
      <use xlink:href="#DejaVuSans-Bold-48"/>
     </g>
    </g>
   </g>
   <g id="text_25">
    <g clip-path="url(#p2602f90ee7)">
     <!-- H -->
     <g style="fill: #ffffff" transform="translate(220.562096 216.798487) scale(0.12 -0.12)">
      <use xlink:href="#DejaVuSans-Bold-48"/>
     </g>
    </g>
   </g>
   <g id="text_26">
    <!-- C2H4Ir40O80 -->
    <g transform="translate(151.623632 52.618181) scale(0.1 -0.1)">
     <defs>
      <path id="DejaVuSans-43" d="M 4122 4306 
L 4122 3641 
Q 3803 3938 3442 4084 
Q 3081 4231 2675 4231 
Q 1875 4231 1450 3742 
Q 1025 3253 1025 2328 
Q 1025 1406 1450 917 
Q 1875 428 2675 428 
Q 3081 428 3442 575 
Q 3803 722 4122 1019 
L 4122 359 
Q 3791 134 3420 21 
Q 3050 -91 2638 -91 
Q 1578 -91 968 557 
Q 359 1206 359 2328 
Q 359 3453 968 4101 
Q 1578 4750 2638 4750 
Q 3056 4750 3426 4639 
Q 3797 4528 4122 4306 
z
" transform="scale(0.015625)"/>
      <path id="DejaVuSans-32" d="M 1228 531 
L 3431 531 
L 3431 0 
L 469 0 
L 469 531 
Q 828 903 1448 1529 
Q 2069 2156 2228 2338 
Q 2531 2678 2651 2914 
Q 2772 3150 2772 3378 
Q 2772 3750 2511 3984 
Q 2250 4219 1831 4219 
Q 1534 4219 1204 4116 
Q 875 4013 500 3803 
L 500 4441 
Q 881 4594 1212 4672 
Q 1544 4750 1819 4750 
Q 2544 4750 2975 4387 
Q 3406 4025 3406 3419 
Q 3406 3131 3298 2873 
Q 3191 2616 2906 2266 
Q 2828 2175 2409 1742 
Q 1991 1309 1228 531 
z
" transform="scale(0.015625)"/>
      <path id="DejaVuSans-48" d="M 628 4666 
L 1259 4666 
L 1259 2753 
L 3553 2753 
L 3553 4666 
L 4184 4666 
L 4184 0 
L 3553 0 
L 3553 2222 
L 1259 2222 
L 1259 0 
L 628 0 
L 628 4666 
z
" transform="scale(0.015625)"/>
      <path id="DejaVuSans-34" d="M 2419 4116 
L 825 1625 
L 2419 1625 
L 2419 4116 
z
M 2253 4666 
L 3047 4666 
L 3047 1625 
L 3713 1625 
L 3713 1100 
L 3047 1100 
L 3047 0 
L 2419 0 
L 2419 1100 
L 313 1100 
L 313 1709 
L 2253 4666 
z
" transform="scale(0.015625)"/>
      <path id="DejaVuSans-49" d="M 628 4666 
L 1259 4666 
L 1259 0 
L 628 0 
L 628 4666 
z
" transform="scale(0.015625)"/>
      <path id="DejaVuSans-72" d="M 2631 2963 
Q 2534 3019 2420 3045 
Q 2306 3072 2169 3072 
Q 1681 3072 1420 2755 
Q 1159 2438 1159 1844 
L 1159 0 
L 581 0 
L 581 3500 
L 1159 3500 
L 1159 2956 
Q 1341 3275 1631 3429 
Q 1922 3584 2338 3584 
Q 2397 3584 2469 3576 
Q 2541 3569 2628 3553 
L 2631 2963 
z
" transform="scale(0.015625)"/>
      <path id="DejaVuSans-30" d="M 2034 4250 
Q 1547 4250 1301 3770 
Q 1056 3291 1056 2328 
Q 1056 1369 1301 889 
Q 1547 409 2034 409 
Q 2525 409 2770 889 
Q 3016 1369 3016 2328 
Q 3016 3291 2770 3770 
Q 2525 4250 2034 4250 
z
M 2034 4750 
Q 2819 4750 3233 4129 
Q 3647 3509 3647 2328 
Q 3647 1150 3233 529 
Q 2819 -91 2034 -91 
Q 1250 -91 836 529 
Q 422 1150 422 2328 
Q 422 3509 836 4129 
Q 1250 4750 2034 4750 
z
" transform="scale(0.015625)"/>
      <path id="DejaVuSans-4f" d="M 2522 4238 
Q 1834 4238 1429 3725 
Q 1025 3213 1025 2328 
Q 1025 1447 1429 934 
Q 1834 422 2522 422 
Q 3209 422 3611 934 
Q 4013 1447 4013 2328 
Q 4013 3213 3611 3725 
Q 3209 4238 2522 4238 
z
M 2522 4750 
Q 3503 4750 4090 4092 
Q 4678 3434 4678 2328 
Q 4678 1225 4090 567 
Q 3503 -91 2522 -91 
Q 1538 -91 948 565 
Q 359 1222 359 2328 
Q 359 3434 948 4092 
Q 1538 4750 2522 4750 
z
" transform="scale(0.015625)"/>
      <path id="DejaVuSans-38" d="M 2034 2216 
Q 1584 2216 1326 1975 
Q 1069 1734 1069 1313 
Q 1069 891 1326 650 
Q 1584 409 2034 409 
Q 2484 409 2743 651 
Q 3003 894 3003 1313 
Q 3003 1734 2745 1975 
Q 2488 2216 2034 2216 
z
M 1403 2484 
Q 997 2584 770 2862 
Q 544 3141 544 3541 
Q 544 4100 942 4425 
Q 1341 4750 2034 4750 
Q 2731 4750 3128 4425 
Q 3525 4100 3525 3541 
Q 3525 3141 3298 2862 
Q 3072 2584 2669 2484 
Q 3125 2378 3379 2068 
Q 3634 1759 3634 1313 
Q 3634 634 3220 271 
Q 2806 -91 2034 -91 
Q 1263 -91 848 271 
Q 434 634 434 1313 
Q 434 1759 690 2068 
Q 947 2378 1403 2484 
z
M 1172 3481 
Q 1172 3119 1398 2916 
Q 1625 2713 2034 2713 
Q 2441 2713 2670 2916 
Q 2900 3119 2900 3481 
Q 2900 3844 2670 4047 
Q 2441 4250 2034 4250 
Q 1625 4250 1398 4047 
Q 1172 3844 1172 3481 
z
" transform="scale(0.015625)"/>
     </defs>
     <use xlink:href="#DejaVuSans-43"/>
     <use xlink:href="#DejaVuSans-32" transform="translate(69.824219 0)"/>
     <use xlink:href="#DejaVuSans-48" transform="translate(133.447266 0)"/>
     <use xlink:href="#DejaVuSans-34" transform="translate(208.642578 0)"/>
     <use xlink:href="#DejaVuSans-49" transform="translate(272.265625 0)"/>
     <use xlink:href="#DejaVuSans-72" transform="translate(301.757812 0)"/>
     <use xlink:href="#DejaVuSans-34" transform="translate(342.871094 0)"/>
     <use xlink:href="#DejaVuSans-30" transform="translate(406.494141 0)"/>
     <use xlink:href="#DejaVuSans-4f" transform="translate(470.117188 0)"/>
     <use xlink:href="#DejaVuSans-38" transform="translate(548.828125 0)"/>
     <use xlink:href="#DejaVuSans-30" transform="translate(612.451172 0)"/>
    </g>
    <!-- Error: 1.57 eV -->
    <g transform="translate(151.623632 63.815993) scale(0.1 -0.1)">
     <defs>
      <path id="DejaVuSans-45" d="M 628 4666 
L 3578 4666 
L 3578 4134 
L 1259 4134 
L 1259 2753 
L 3481 2753 
L 3481 2222 
L 1259 2222 
L 1259 531 
L 3634 531 
L 3634 0 
L 628 0 
L 628 4666 
z
" transform="scale(0.015625)"/>
      <path id="DejaVuSans-6f" d="M 1959 3097 
Q 1497 3097 1228 2736 
Q 959 2375 959 1747 
Q 959 1119 1226 758 
Q 1494 397 1959 397 
Q 2419 397 2687 759 
Q 2956 1122 2956 1747 
Q 2956 2369 2687 2733 
Q 2419 3097 1959 3097 
z
M 1959 3584 
Q 2709 3584 3137 3096 
Q 3566 2609 3566 1747 
Q 3566 888 3137 398 
Q 2709 -91 1959 -91 
Q 1206 -91 779 398 
Q 353 888 353 1747 
Q 353 2609 779 3096 
Q 1206 3584 1959 3584 
z
" transform="scale(0.015625)"/>
      <path id="DejaVuSans-3a" d="M 750 794 
L 1409 794 
L 1409 0 
L 750 0 
L 750 794 
z
M 750 3309 
L 1409 3309 
L 1409 2516 
L 750 2516 
L 750 3309 
z
" transform="scale(0.015625)"/>
      <path id="DejaVuSans-20" transform="scale(0.015625)"/>
      <path id="DejaVuSans-31" d="M 794 531 
L 1825 531 
L 1825 4091 
L 703 3866 
L 703 4441 
L 1819 4666 
L 2450 4666 
L 2450 531 
L 3481 531 
L 3481 0 
L 794 0 
L 794 531 
z
" transform="scale(0.015625)"/>
      <path id="DejaVuSans-2e" d="M 684 794 
L 1344 794 
L 1344 0 
L 684 0 
L 684 794 
z
" transform="scale(0.015625)"/>
      <path id="DejaVuSans-35" d="M 691 4666 
L 3169 4666 
L 3169 4134 
L 1269 4134 
L 1269 2991 
Q 1406 3038 1543 3061 
Q 1681 3084 1819 3084 
Q 2600 3084 3056 2656 
Q 3513 2228 3513 1497 
Q 3513 744 3044 326 
Q 2575 -91 1722 -91 
Q 1428 -91 1123 -41 
Q 819 9 494 109 
L 494 744 
Q 775 591 1075 516 
Q 1375 441 1709 441 
Q 2250 441 2565 725 
Q 2881 1009 2881 1497 
Q 2881 1984 2565 2268 
Q 2250 2553 1709 2553 
Q 1456 2553 1204 2497 
Q 953 2441 691 2322 
L 691 4666 
z
" transform="scale(0.015625)"/>
      <path id="DejaVuSans-37" d="M 525 4666 
L 3525 4666 
L 3525 4397 
L 1831 0 
L 1172 0 
L 2766 4134 
L 525 4134 
L 525 4666 
z
" transform="scale(0.015625)"/>
      <path id="DejaVuSans-65" d="M 3597 1894 
L 3597 1613 
L 953 1613 
Q 991 1019 1311 708 
Q 1631 397 2203 397 
Q 2534 397 2845 478 
Q 3156 559 3463 722 
L 3463 178 
Q 3153 47 2828 -22 
Q 2503 -91 2169 -91 
Q 1331 -91 842 396 
Q 353 884 353 1716 
Q 353 2575 817 3079 
Q 1281 3584 2069 3584 
Q 2775 3584 3186 3129 
Q 3597 2675 3597 1894 
z
M 3022 2063 
Q 3016 2534 2758 2815 
Q 2500 3097 2075 3097 
Q 1594 3097 1305 2825 
Q 1016 2553 972 2059 
L 3022 2063 
z
" transform="scale(0.015625)"/>
      <path id="DejaVuSans-56" d="M 1831 0 
L 50 4666 
L 709 4666 
L 2188 738 
L 3669 4666 
L 4325 4666 
L 2547 0 
L 1831 0 
z
" transform="scale(0.015625)"/>
     </defs>
     <use xlink:href="#DejaVuSans-45"/>
     <use xlink:href="#DejaVuSans-72" transform="translate(63.183594 0)"/>
     <use xlink:href="#DejaVuSans-72" transform="translate(102.546875 0)"/>
     <use xlink:href="#DejaVuSans-6f" transform="translate(141.410156 0)"/>
     <use xlink:href="#DejaVuSans-72" transform="translate(202.591797 0)"/>
     <use xlink:href="#DejaVuSans-3a" transform="translate(241.955078 0)"/>
     <use xlink:href="#DejaVuSans-20" transform="translate(275.646484 0)"/>
     <use xlink:href="#DejaVuSans-31" transform="translate(307.433594 0)"/>
     <use xlink:href="#DejaVuSans-2e" transform="translate(371.056641 0)"/>
     <use xlink:href="#DejaVuSans-35" transform="translate(402.84375 0)"/>
     <use xlink:href="#DejaVuSans-37" transform="translate(466.466797 0)"/>
     <use xlink:href="#DejaVuSans-20" transform="translate(530.089844 0)"/>
     <use xlink:href="#DejaVuSans-65" transform="translate(561.876953 0)"/>
     <use xlink:href="#DejaVuSans-56" transform="translate(623.400391 0)"/>
    </g>
   </g>
  </g>
 </g>
 <defs>
  <clipPath id="p2602f90ee7">
   <rect x="36" y="34.56" width="223.2" height="221.76"/>
  </clipPath>
 </defs>
</svg>
