<?xml version="1.0" encoding="utf-8" standalone="no"?>
<!DOCTYPE svg PUBLIC "-//W3C//DTD SVG 1.1//EN"
  "http://www.w3.org/Graphics/SVG/1.1/DTD/svg11.dtd">
<svg xmlns:xlink="http://www.w3.org/1999/xlink" width="288pt" height="288pt" viewBox="0 0 288 288" xmlns="http://www.w3.org/2000/svg" version="1.1">
 <metadata>
  <rdf:RDF xmlns:dc="http://purl.org/dc/elements/1.1/" xmlns:cc="http://creativecommons.org/ns#" xmlns:rdf="http://www.w3.org/1999/02/22-rdf-syntax-ns#">
   <cc:Work>
    <dc:type rdf:resource="http://purl.org/dc/dcmitype/StillImage"/>
    <dc:date>2025-06-03T14:50:11.916718</dc:date>
    <dc:format>image/svg+xml</dc:format>
    <dc:creator>
     <cc:Agent>
      <dc:title>Matplotlib v3.10.1, https://matplotlib.org/</dc:title>
     </cc:Agent>
    </dc:creator>
   </cc:Work>
  </rdf:RDF>
 </metadata>
 <defs>
  <style type="text/css">*{stroke-linejoin: round; stroke-linecap: butt}</style>
 </defs>
 <g id="figure_1">
  <g id="patch_1">
   <path d="M 0 288 
L 288 288 
L 288 0 
L 0 0 
z
" style="fill: #ffffff"/>
  </g>
  <g id="axes_1">
   <g id="LineCollection_1">
    <path d="M 198.517693 62.682471 
L 172.102763 53.803636 
" clip-path="url(#pe41d859413)" style="fill: none; stroke: #000000; stroke-width: 1.2"/>
    <path d="M 198.517693 62.682471 
L 186.078572 88.910602 
" clip-path="url(#pe41d859413)" style="fill: none; stroke: #000000; stroke-width: 1.2"/>
    <path d="M 168.114452 158.895352 
L 209.361037 165.435701 
" clip-path="url(#pe41d859413)" style="fill: none; stroke: #000000; stroke-width: 1.2"/>
    <path d="M 168.114452 158.895352 
L 139.113887 167.320234 
" clip-path="url(#pe41d859413)" style="fill: none; stroke: #000000; stroke-width: 1.2"/>
    <path d="M 168.114452 158.895352 
L 156.464287 133.471865 
" clip-path="url(#pe41d859413)" style="fill: none; stroke: #000000; stroke-width: 1.2"/>
    <path d="M 168.114452 158.895352 
L 159.031612 187.333522 
" clip-path="url(#pe41d859413)" style="fill: none; stroke: #000000; stroke-width: 1.2"/>
    <path d="M 168.114452 158.895352 
L 184.903555 130.217588 
" clip-path="url(#pe41d859413)" style="fill: none; stroke: #000000; stroke-width: 1.2"/>
    <path d="M 168.114452 158.895352 
L 180.795574 173.486938 
" clip-path="url(#pe41d859413)" style="fill: none; stroke: #000000; stroke-width: 1.2"/>
    <path d="M 168.114452 158.895352 
L 150.548556 177.475319 
" clip-path="url(#pe41d859413)" style="fill: none; stroke: #000000; stroke-width: 1.2"/>
    <path d="M 168.114452 158.895352 
L 171.019178 137.738384 
" clip-path="url(#pe41d859413)" style="fill: none; stroke: #000000; stroke-width: 1.2"/>
    <path d="M 238.866723 170.55424 
L 209.361037 165.435701 
" clip-path="url(#pe41d859413)" style="fill: none; stroke: #000000; stroke-width: 1.2"/>
    <path d="M 238.866723 170.55424 
L 211.963782 153.919761 
" clip-path="url(#pe41d859413)" style="fill: none; stroke: #000000; stroke-width: 1.2"/>
    <path d="M 151.708255 109.321789 
L 186.078572 88.910602 
" clip-path="url(#pe41d859413)" style="fill: none; stroke: #000000; stroke-width: 1.2"/>
    <path d="M 151.708255 109.321789 
L 146.24939 85.62843 
" clip-path="url(#pe41d859413)" style="fill: none; stroke: #000000; stroke-width: 1.2"/>
    <path d="M 151.708255 109.321789 
L 156.464287 133.471865 
" clip-path="url(#pe41d859413)" style="fill: none; stroke: #000000; stroke-width: 1.2"/>
    <path d="M 151.708255 109.321789 
L 111.720943 112.518593 
" clip-path="url(#pe41d859413)" style="fill: none; stroke: #000000; stroke-width: 1.2"/>
    <path d="M 151.708255 109.321789 
L 163.619668 80.825726 
" clip-path="url(#pe41d859413)" style="fill: none; stroke: #000000; stroke-width: 1.2"/>
    <path d="M 151.708255 109.321789 
L 135.114379 91.823292 
" clip-path="url(#pe41d859413)" style="fill: none; stroke: #000000; stroke-width: 1.2"/>
    <path d="M 151.708255 109.321789 
L 171.019178 137.738384 
" clip-path="url(#pe41d859413)" style="fill: none; stroke: #000000; stroke-width: 1.2"/>
    <path d="M 55.368595 201.93328 
L 87.798944 192.32872 
" clip-path="url(#pe41d859413)" style="fill: none; stroke: #000000; stroke-width: 1.2"/>
    <path d="M 80.886286 128.299937 
L 111.720943 112.518593 
" clip-path="url(#pe41d859413)" style="fill: none; stroke: #000000; stroke-width: 1.2"/>
    <path d="M 80.886286 128.299937 
L 90.097974 159.091226 
" clip-path="url(#pe41d859413)" style="fill: none; stroke: #000000; stroke-width: 1.2"/>
    <path d="M 114.729583 185.256819 
L 139.113887 167.320234 
" clip-path="url(#pe41d859413)" style="fill: none; stroke: #000000; stroke-width: 1.2"/>
    <path d="M 114.729583 185.256819 
L 87.798944 192.32872 
" clip-path="url(#pe41d859413)" style="fill: none; stroke: #000000; stroke-width: 1.2"/>
    <path d="M 114.729583 185.256819 
L 112.113959 214.788522 
" clip-path="url(#pe41d859413)" style="fill: none; stroke: #000000; stroke-width: 1.2"/>
    <path d="M 114.729583 185.256819 
L 90.097974 159.091226 
" clip-path="url(#pe41d859413)" style="fill: none; stroke: #000000; stroke-width: 1.2"/>
    <path d="M 114.729583 185.256819 
L 97.171133 209.458352 
" clip-path="url(#pe41d859413)" style="fill: none; stroke: #000000; stroke-width: 1.2"/>
    <path d="M 114.729583 185.256819 
L 129.970866 218.370272 
" clip-path="url(#pe41d859413)" style="fill: none; stroke: #000000; stroke-width: 1.2"/>
    <path d="M 114.729583 185.256819 
L 150.548556 177.475319 
" clip-path="url(#pe41d859413)" style="fill: none; stroke: #000000; stroke-width: 1.2"/>
    <path d="M 172.102763 53.803636 
L 163.619668 80.825726 
" clip-path="url(#pe41d859413)" style="fill: none; stroke: #000000; stroke-width: 1.2"/>
    <path d="M 173.748395 157.654543 
L 139.113887 167.320234 
" clip-path="url(#pe41d859413)" style="fill: none; stroke: #000000; stroke-width: 1.2"/>
    <path d="M 173.748395 157.654543 
L 156.464287 133.471865 
" clip-path="url(#pe41d859413)" style="fill: none; stroke: #000000; stroke-width: 1.2"/>
    <path d="M 173.748395 157.654543 
L 211.963782 153.919761 
" clip-path="url(#pe41d859413)" style="fill: none; stroke: #000000; stroke-width: 1.2"/>
    <path d="M 173.748395 157.654543 
L 159.031612 187.333522 
" clip-path="url(#pe41d859413)" style="fill: none; stroke: #000000; stroke-width: 1.2"/>
    <path d="M 173.748395 157.654543 
L 184.903555 130.217588 
" clip-path="url(#pe41d859413)" style="fill: none; stroke: #000000; stroke-width: 1.2"/>
    <path d="M 173.748395 157.654543 
L 180.795574 173.486938 
" clip-path="url(#pe41d859413)" style="fill: none; stroke: #000000; stroke-width: 1.2"/>
    <path d="M 173.748395 157.654543 
L 150.548556 177.475319 
" clip-path="url(#pe41d859413)" style="fill: none; stroke: #000000; stroke-width: 1.2"/>
    <path d="M 173.748395 157.654543 
L 171.019178 137.738384 
" clip-path="url(#pe41d859413)" style="fill: none; stroke: #000000; stroke-width: 1.2"/>
    <path d="M 239.831405 149.175165 
L 209.361037 165.435701 
" clip-path="url(#pe41d859413)" style="fill: none; stroke: #000000; stroke-width: 1.2"/>
    <path d="M 239.831405 149.175165 
L 211.963782 153.919761 
" clip-path="url(#pe41d859413)" style="fill: none; stroke: #000000; stroke-width: 1.2"/>
    <path d="M 171.757165 101.463641 
L 186.078572 88.910602 
" clip-path="url(#pe41d859413)" style="fill: none; stroke: #000000; stroke-width: 1.2"/>
    <path d="M 171.757165 101.463641 
L 146.24939 85.62843 
" clip-path="url(#pe41d859413)" style="fill: none; stroke: #000000; stroke-width: 1.2"/>
    <path d="M 171.757165 101.463641 
L 163.619668 80.825726 
" clip-path="url(#pe41d859413)" style="fill: none; stroke: #000000; stroke-width: 1.2"/>
    <path d="M 171.757165 101.463641 
L 135.114379 91.823292 
" clip-path="url(#pe41d859413)" style="fill: none; stroke: #000000; stroke-width: 1.2"/>
    <path d="M 171.757165 101.463641 
L 184.903555 130.217588 
" clip-path="url(#pe41d859413)" style="fill: none; stroke: #000000; stroke-width: 1.2"/>
    <path d="M 84.268255 237.076364 
L 97.171133 209.458352 
" clip-path="url(#pe41d859413)" style="fill: none; stroke: #000000; stroke-width: 1.2"/>
    <path d="M 90.465445 132.287431 
L 111.720943 112.518593 
" clip-path="url(#pe41d859413)" style="fill: none; stroke: #000000; stroke-width: 1.2"/>
    <path d="M 90.465445 132.287431 
L 90.097974 159.091226 
" clip-path="url(#pe41d859413)" style="fill: none; stroke: #000000; stroke-width: 1.2"/>
    <path d="M 124.880472 200.47501 
L 87.798944 192.32872 
" clip-path="url(#pe41d859413)" style="fill: none; stroke: #000000; stroke-width: 1.2"/>
    <path d="M 124.880472 200.47501 
L 112.113959 214.788522 
" clip-path="url(#pe41d859413)" style="fill: none; stroke: #000000; stroke-width: 1.2"/>
    <path d="M 124.880472 200.47501 
L 159.031612 187.333522 
" clip-path="url(#pe41d859413)" style="fill: none; stroke: #000000; stroke-width: 1.2"/>
    <path d="M 124.880472 200.47501 
L 97.171133 209.458352 
" clip-path="url(#pe41d859413)" style="fill: none; stroke: #000000; stroke-width: 1.2"/>
    <path d="M 124.880472 200.47501 
L 129.970866 218.370272 
" clip-path="url(#pe41d859413)" style="fill: none; stroke: #000000; stroke-width: 1.2"/>
    <path d="M 180.795574 173.486938 
L 204.119247 198.086052 
" clip-path="url(#pe41d859413)" style="fill: none; stroke: #000000; stroke-width: 1.2"/>
    <path d="M 180.795574 173.486938 
L 150.548556 177.475319 
" clip-path="url(#pe41d859413)" style="fill: none; stroke: #000000; stroke-width: 1.2"/>
    <path d="M 180.795574 173.486938 
L 171.019178 137.738384 
" clip-path="url(#pe41d859413)" style="fill: none; stroke: #000000; stroke-width: 1.2"/>
    <path d="M 204.119247 198.086052 
L 212.317742 225.893499 
" clip-path="url(#pe41d859413)" style="fill: none; stroke: #000000; stroke-width: 1.2"/>
    <path d="M 204.119247 198.086052 
L 236.853012 207.382794 
" clip-path="url(#pe41d859413)" style="fill: none; stroke: #000000; stroke-width: 1.2"/>
   </g>
   <g id="PathCollection_1">
    <defs>
     <path id="C0_0_5a18ac07b1" d="M 0 8.944272 
C 2.372049 8.944272 4.647264 8.001847 6.324555 6.324555 
C 8.001847 4.647264 8.944272 2.372049 8.944272 -0 
C 8.944272 -2.372049 8.001847 -4.647264 6.324555 -6.324555 
C 4.647264 -8.001847 2.372049 -8.944272 0 -8.944272 
C -2.372049 -8.944272 -4.647264 -8.001847 -6.324555 -6.324555 
C -8.001847 -4.647264 -8.944272 -2.372049 -8.944272 0 
C -8.944272 2.372049 -8.001847 4.647264 -6.324555 6.324555 
C -4.647264 8.001847 -2.372049 8.944272 0 8.944272 
z
"/>
    </defs>
    <g clip-path="url(#pe41d859413)">
     <use xlink:href="#C0_0_5a18ac07b1" x="198.517693" y="62.682471" style="fill: #bfc2c7; stroke: #bfc2c7; stroke-width: 0.5"/>
    </g>
    <g clip-path="url(#pe41d859413)">
     <use xlink:href="#C0_0_5a18ac07b1" x="168.114452" y="158.895352" style="fill: #bfc2c7; stroke: #bfc2c7; stroke-width: 0.5"/>
    </g>
    <g clip-path="url(#pe41d859413)">
     <use xlink:href="#C0_0_5a18ac07b1" x="238.866723" y="170.55424" style="fill: #bfc2c7; stroke: #bfc2c7; stroke-width: 0.5"/>
    </g>
    <g clip-path="url(#pe41d859413)">
     <use xlink:href="#C0_0_5a18ac07b1" x="151.708255" y="109.321789" style="fill: #bfc2c7; stroke: #bfc2c7; stroke-width: 0.5"/>
    </g>
    <g clip-path="url(#pe41d859413)">
     <use xlink:href="#C0_0_5a18ac07b1" x="55.368595" y="201.93328" style="fill: #bfc2c7; stroke: #bfc2c7; stroke-width: 0.5"/>
    </g>
    <g clip-path="url(#pe41d859413)">
     <use xlink:href="#C0_0_5a18ac07b1" x="80.886286" y="128.299937" style="fill: #bfc2c7; stroke: #bfc2c7; stroke-width: 0.5"/>
    </g>
    <g clip-path="url(#pe41d859413)">
     <use xlink:href="#C0_0_5a18ac07b1" x="114.729583" y="185.256819" style="fill: #bfc2c7; stroke: #bfc2c7; stroke-width: 0.5"/>
    </g>
    <g clip-path="url(#pe41d859413)">
     <use xlink:href="#C0_0_5a18ac07b1" x="172.102763" y="53.803636" style="fill: #bfc2c7; stroke: #bfc2c7; stroke-width: 0.5"/>
    </g>
    <g clip-path="url(#pe41d859413)">
     <use xlink:href="#C0_0_5a18ac07b1" x="173.748395" y="157.654543" style="fill: #bfc2c7; stroke: #bfc2c7; stroke-width: 0.5"/>
    </g>
    <g clip-path="url(#pe41d859413)">
     <use xlink:href="#C0_0_5a18ac07b1" x="239.831405" y="149.175165" style="fill: #bfc2c7; stroke: #bfc2c7; stroke-width: 0.5"/>
    </g>
    <g clip-path="url(#pe41d859413)">
     <use xlink:href="#C0_0_5a18ac07b1" x="171.757165" y="101.463641" style="fill: #bfc2c7; stroke: #bfc2c7; stroke-width: 0.5"/>
    </g>
    <g clip-path="url(#pe41d859413)">
     <use xlink:href="#C0_0_5a18ac07b1" x="84.268255" y="237.076364" style="fill: #bfc2c7; stroke: #bfc2c7; stroke-width: 0.5"/>
    </g>
    <g clip-path="url(#pe41d859413)">
     <use xlink:href="#C0_0_5a18ac07b1" x="90.465445" y="132.287431" style="fill: #bfc2c7; stroke: #bfc2c7; stroke-width: 0.5"/>
    </g>
    <g clip-path="url(#pe41d859413)">
     <use xlink:href="#C0_0_5a18ac07b1" x="124.880472" y="200.47501" style="fill: #bfc2c7; stroke: #bfc2c7; stroke-width: 0.5"/>
    </g>
    <g clip-path="url(#pe41d859413)">
     <use xlink:href="#C0_0_5a18ac07b1" x="186.078572" y="88.910602" style="fill: #ff0d0d; stroke: #ff0d0d; stroke-width: 0.5"/>
    </g>
    <g clip-path="url(#pe41d859413)">
     <use xlink:href="#C0_0_5a18ac07b1" x="209.361037" y="165.435701" style="fill: #ff0d0d; stroke: #ff0d0d; stroke-width: 0.5"/>
    </g>
    <g clip-path="url(#pe41d859413)">
     <use xlink:href="#C0_0_5a18ac07b1" x="146.24939" y="85.62843" style="fill: #ff0d0d; stroke: #ff0d0d; stroke-width: 0.5"/>
    </g>
    <g clip-path="url(#pe41d859413)">
     <use xlink:href="#C0_0_5a18ac07b1" x="139.113887" y="167.320234" style="fill: #ff0d0d; stroke: #ff0d0d; stroke-width: 0.5"/>
    </g>
    <g clip-path="url(#pe41d859413)">
     <use xlink:href="#C0_0_5a18ac07b1" x="156.464287" y="133.471865" style="fill: #ff0d0d; stroke: #ff0d0d; stroke-width: 0.5"/>
    </g>
    <g clip-path="url(#pe41d859413)">
     <use xlink:href="#C0_0_5a18ac07b1" x="87.798944" y="192.32872" style="fill: #ff0d0d; stroke: #ff0d0d; stroke-width: 0.5"/>
    </g>
    <g clip-path="url(#pe41d859413)">
     <use xlink:href="#C0_0_5a18ac07b1" x="112.113959" y="214.788522" style="fill: #ff0d0d; stroke: #ff0d0d; stroke-width: 0.5"/>
    </g>
    <g clip-path="url(#pe41d859413)">
     <use xlink:href="#C0_0_5a18ac07b1" x="111.720943" y="112.518593" style="fill: #ff0d0d; stroke: #ff0d0d; stroke-width: 0.5"/>
    </g>
    <g clip-path="url(#pe41d859413)">
     <use xlink:href="#C0_0_5a18ac07b1" x="90.097974" y="159.091226" style="fill: #ff0d0d; stroke: #ff0d0d; stroke-width: 0.5"/>
    </g>
    <g clip-path="url(#pe41d859413)">
     <use xlink:href="#C0_0_5a18ac07b1" x="163.619668" y="80.825726" style="fill: #ff0d0d; stroke: #ff0d0d; stroke-width: 0.5"/>
    </g>
    <g clip-path="url(#pe41d859413)">
     <use xlink:href="#C0_0_5a18ac07b1" x="211.963782" y="153.919761" style="fill: #ff0d0d; stroke: #ff0d0d; stroke-width: 0.5"/>
    </g>
    <g clip-path="url(#pe41d859413)">
     <use xlink:href="#C0_0_5a18ac07b1" x="135.114379" y="91.823292" style="fill: #ff0d0d; stroke: #ff0d0d; stroke-width: 0.5"/>
    </g>
    <g clip-path="url(#pe41d859413)">
     <use xlink:href="#C0_0_5a18ac07b1" x="159.031612" y="187.333522" style="fill: #ff0d0d; stroke: #ff0d0d; stroke-width: 0.5"/>
    </g>
    <g clip-path="url(#pe41d859413)">
     <use xlink:href="#C0_0_5a18ac07b1" x="184.903555" y="130.217588" style="fill: #ff0d0d; stroke: #ff0d0d; stroke-width: 0.5"/>
    </g>
    <g clip-path="url(#pe41d859413)">
     <use xlink:href="#C0_0_5a18ac07b1" x="97.171133" y="209.458352" style="fill: #ff0d0d; stroke: #ff0d0d; stroke-width: 0.5"/>
    </g>
    <g clip-path="url(#pe41d859413)">
     <use xlink:href="#C0_0_5a18ac07b1" x="129.970866" y="218.370272" style="fill: #ff0d0d; stroke: #ff0d0d; stroke-width: 0.5"/>
    </g>
    <g clip-path="url(#pe41d859413)">
     <use xlink:href="#C0_0_5a18ac07b1" x="180.795574" y="173.486938" style="fill: #666666; stroke: #666666; stroke-width: 0.5"/>
    </g>
    <g clip-path="url(#pe41d859413)">
     <use xlink:href="#C0_0_5a18ac07b1" x="204.119247" y="198.086052" style="fill: #666666; stroke: #666666; stroke-width: 0.5"/>
    </g>
    <g clip-path="url(#pe41d859413)">
     <use xlink:href="#C0_0_5a18ac07b1" x="150.548556" y="177.475319" style="fill: #bfbfbf; stroke: #bfbfbf; stroke-width: 0.5"/>
    </g>
    <g clip-path="url(#pe41d859413)">
     <use xlink:href="#C0_0_5a18ac07b1" x="171.019178" y="137.738384" style="fill: #bfbfbf; stroke: #bfbfbf; stroke-width: 0.5"/>
    </g>
    <g clip-path="url(#pe41d859413)">
     <use xlink:href="#C0_0_5a18ac07b1" x="212.317742" y="225.893499" style="fill: #bfbfbf; stroke: #bfbfbf; stroke-width: 0.5"/>
    </g>
    <g clip-path="url(#pe41d859413)">
     <use xlink:href="#C0_0_5a18ac07b1" x="236.853012" y="207.382794" style="fill: #bfbfbf; stroke: #bfbfbf; stroke-width: 0.5"/>
    </g>
   </g>
   <g id="text_1">
    <g clip-path="url(#pe41d859413)">
     <!-- Ti -->
     <g style="fill: #ffffff" transform="translate(192.367693 65.993721) scale(0.12 -0.12)">
      <defs>
       <path id="DejaVuSans-Bold-54" d="M 31 4666 
L 4331 4666 
L 4331 3756 
L 2784 3756 
L 2784 0 
L 1581 0 
L 1581 3756 
L 31 3756 
L 31 4666 
z
" transform="scale(0.015625)"/>
       <path id="DejaVuSans-Bold-69" d="M 538 3500 
L 1656 3500 
L 1656 0 
L 538 0 
L 538 3500 
z
M 538 4863 
L 1656 4863 
L 1656 3950 
L 538 3950 
L 538 4863 
z
" transform="scale(0.015625)"/>
      </defs>
      <use xlink:href="#DejaVuSans-Bold-54"/>
      <use xlink:href="#DejaVuSans-Bold-69" transform="translate(68.212891 0)"/>
     </g>
    </g>
   </g>
   <g id="text_2">
    <g clip-path="url(#pe41d859413)">
     <!-- Ti -->
     <g style="fill: #ffffff" transform="translate(161.964452 162.206602) scale(0.12 -0.12)">
      <use xlink:href="#DejaVuSans-Bold-54"/>
      <use xlink:href="#DejaVuSans-Bold-69" transform="translate(68.212891 0)"/>
     </g>
    </g>
   </g>
   <g id="text_3">
    <g clip-path="url(#pe41d859413)">
     <!-- Ti -->
     <g style="fill: #ffffff" transform="translate(232.716723 173.86549) scale(0.12 -0.12)">
      <use xlink:href="#DejaVuSans-Bold-54"/>
      <use xlink:href="#DejaVuSans-Bold-69" transform="translate(68.212891 0)"/>
     </g>
    </g>
   </g>
   <g id="text_4">
    <g clip-path="url(#pe41d859413)">
     <!-- Ti -->
     <g style="fill: #ffffff" transform="translate(145.558255 112.633039) scale(0.12 -0.12)">
      <use xlink:href="#DejaVuSans-Bold-54"/>
      <use xlink:href="#DejaVuSans-Bold-69" transform="translate(68.212891 0)"/>
     </g>
    </g>
   </g>
   <g id="text_5">
    <g clip-path="url(#pe41d859413)">
     <!-- Ti -->
     <g style="fill: #ffffff" transform="translate(49.218595 205.24453) scale(0.12 -0.12)">
      <use xlink:href="#DejaVuSans-Bold-54"/>
      <use xlink:href="#DejaVuSans-Bold-69" transform="translate(68.212891 0)"/>
     </g>
    </g>
   </g>
   <g id="text_6">
    <g clip-path="url(#pe41d859413)">
     <!-- Ti -->
     <g style="fill: #ffffff" transform="translate(74.736286 131.611187) scale(0.12 -0.12)">
      <use xlink:href="#DejaVuSans-Bold-54"/>
      <use xlink:href="#DejaVuSans-Bold-69" transform="translate(68.212891 0)"/>
     </g>
    </g>
   </g>
   <g id="text_7">
    <g clip-path="url(#pe41d859413)">
     <!-- Ti -->
     <g style="fill: #ffffff" transform="translate(108.579583 188.568069) scale(0.12 -0.12)">
      <use xlink:href="#DejaVuSans-Bold-54"/>
      <use xlink:href="#DejaVuSans-Bold-69" transform="translate(68.212891 0)"/>
     </g>
    </g>
   </g>
   <g id="text_8">
    <g clip-path="url(#pe41d859413)">
     <!-- Ti -->
     <g style="fill: #ffffff" transform="translate(165.952763 57.114886) scale(0.12 -0.12)">
      <use xlink:href="#DejaVuSans-Bold-54"/>
      <use xlink:href="#DejaVuSans-Bold-69" transform="translate(68.212891 0)"/>
     </g>
    </g>
   </g>
   <g id="text_9">
    <g clip-path="url(#pe41d859413)">
     <!-- Ti -->
     <g style="fill: #ffffff" transform="translate(167.598395 160.965793) scale(0.12 -0.12)">
      <use xlink:href="#DejaVuSans-Bold-54"/>
      <use xlink:href="#DejaVuSans-Bold-69" transform="translate(68.212891 0)"/>
     </g>
    </g>
   </g>
   <g id="text_10">
    <g clip-path="url(#pe41d859413)">
     <!-- Ti -->
     <g style="fill: #ffffff" transform="translate(233.681405 152.486415) scale(0.12 -0.12)">
      <use xlink:href="#DejaVuSans-Bold-54"/>
      <use xlink:href="#DejaVuSans-Bold-69" transform="translate(68.212891 0)"/>
     </g>
    </g>
   </g>
   <g id="text_11">
    <g clip-path="url(#pe41d859413)">
     <!-- Ti -->
     <g style="fill: #ffffff" transform="translate(165.607165 104.774891) scale(0.12 -0.12)">
      <use xlink:href="#DejaVuSans-Bold-54"/>
      <use xlink:href="#DejaVuSans-Bold-69" transform="translate(68.212891 0)"/>
     </g>
    </g>
   </g>
   <g id="text_12">
    <g clip-path="url(#pe41d859413)">
     <!-- Ti -->
     <g style="fill: #ffffff" transform="translate(78.118255 240.387614) scale(0.12 -0.12)">
      <use xlink:href="#DejaVuSans-Bold-54"/>
      <use xlink:href="#DejaVuSans-Bold-69" transform="translate(68.212891 0)"/>
     </g>
    </g>
   </g>
   <g id="text_13">
    <g clip-path="url(#pe41d859413)">
     <!-- Ti -->
     <g style="fill: #ffffff" transform="translate(84.315445 135.598681) scale(0.12 -0.12)">
      <use xlink:href="#DejaVuSans-Bold-54"/>
      <use xlink:href="#DejaVuSans-Bold-69" transform="translate(68.212891 0)"/>
     </g>
    </g>
   </g>
   <g id="text_14">
    <g clip-path="url(#pe41d859413)">
     <!-- Ti -->
     <g style="fill: #ffffff" transform="translate(118.730472 203.78626) scale(0.12 -0.12)">
      <use xlink:href="#DejaVuSans-Bold-54"/>
      <use xlink:href="#DejaVuSans-Bold-69" transform="translate(68.212891 0)"/>
     </g>
    </g>
   </g>
   <g id="text_15">
    <g clip-path="url(#pe41d859413)">
     <!-- O -->
     <g style="fill: #ffffff" transform="translate(180.977635 92.221852) scale(0.12 -0.12)">
      <defs>
       <path id="DejaVuSans-Bold-4f" d="M 2719 3878 
Q 2169 3878 1866 3472 
Q 1563 3066 1563 2328 
Q 1563 1594 1866 1187 
Q 2169 781 2719 781 
Q 3272 781 3575 1187 
Q 3878 1594 3878 2328 
Q 3878 3066 3575 3472 
Q 3272 3878 2719 3878 
z
M 2719 4750 
Q 3844 4750 4481 4106 
Q 5119 3463 5119 2328 
Q 5119 1197 4481 553 
Q 3844 -91 2719 -91 
Q 1597 -91 958 553 
Q 319 1197 319 2328 
Q 319 3463 958 4106 
Q 1597 4750 2719 4750 
z
" transform="scale(0.015625)"/>
      </defs>
      <use xlink:href="#DejaVuSans-Bold-4f"/>
     </g>
    </g>
   </g>
   <g id="text_16">
    <g clip-path="url(#pe41d859413)">
     <!-- O -->
     <g style="fill: #ffffff" transform="translate(204.2601 168.746951) scale(0.12 -0.12)">
      <use xlink:href="#DejaVuSans-Bold-4f"/>
     </g>
    </g>
   </g>
   <g id="text_17">
    <g clip-path="url(#pe41d859413)">
     <!-- O -->
     <g style="fill: #ffffff" transform="translate(141.148453 88.93968) scale(0.12 -0.12)">
      <use xlink:href="#DejaVuSans-Bold-4f"/>
     </g>
    </g>
   </g>
   <g id="text_18">
    <g clip-path="url(#pe41d859413)">
     <!-- O -->
     <g style="fill: #ffffff" transform="translate(134.012949 170.631484) scale(0.12 -0.12)">
      <use xlink:href="#DejaVuSans-Bold-4f"/>
     </g>
    </g>
   </g>
   <g id="text_19">
    <g clip-path="url(#pe41d859413)">
     <!-- O -->
     <g style="fill: #ffffff" transform="translate(151.36335 136.783115) scale(0.12 -0.12)">
      <use xlink:href="#DejaVuSans-Bold-4f"/>
     </g>
    </g>
   </g>
   <g id="text_20">
    <g clip-path="url(#pe41d859413)">
     <!-- O -->
     <g style="fill: #ffffff" transform="translate(82.698006 195.63997) scale(0.12 -0.12)">
      <use xlink:href="#DejaVuSans-Bold-4f"/>
     </g>
    </g>
   </g>
   <g id="text_21">
    <g clip-path="url(#pe41d859413)">
     <!-- O -->
     <g style="fill: #ffffff" transform="translate(107.013022 218.099772) scale(0.12 -0.12)">
      <use xlink:href="#DejaVuSans-Bold-4f"/>
     </g>
    </g>
   </g>
   <g id="text_22">
    <g clip-path="url(#pe41d859413)">
     <!-- O -->
     <g style="fill: #ffffff" transform="translate(106.620006 115.829843) scale(0.12 -0.12)">
      <use xlink:href="#DejaVuSans-Bold-4f"/>
     </g>
    </g>
   </g>
   <g id="text_23">
    <g clip-path="url(#pe41d859413)">
     <!-- O -->
     <g style="fill: #ffffff" transform="translate(84.997037 162.402476) scale(0.12 -0.12)">
      <use xlink:href="#DejaVuSans-Bold-4f"/>
     </g>
    </g>
   </g>
   <g id="text_24">
    <g clip-path="url(#pe41d859413)">
     <!-- O -->
     <g style="fill: #ffffff" transform="translate(158.518731 84.136976) scale(0.12 -0.12)">
      <use xlink:href="#DejaVuSans-Bold-4f"/>
     </g>
    </g>
   </g>
   <g id="text_25">
    <g clip-path="url(#pe41d859413)">
     <!-- O -->
     <g style="fill: #ffffff" transform="translate(206.862845 157.231011) scale(0.12 -0.12)">
      <use xlink:href="#DejaVuSans-Bold-4f"/>
     </g>
    </g>
   </g>
   <g id="text_26">
    <g clip-path="url(#pe41d859413)">
     <!-- O -->
     <g style="fill: #ffffff" transform="translate(130.013441 95.134542) scale(0.12 -0.12)">
      <use xlink:href="#DejaVuSans-Bold-4f"/>
     </g>
    </g>
   </g>
   <g id="text_27">
    <g clip-path="url(#pe41d859413)">
     <!-- O -->
     <g style="fill: #ffffff" transform="translate(153.930674 190.644772) scale(0.12 -0.12)">
      <use xlink:href="#DejaVuSans-Bold-4f"/>
     </g>
    </g>
   </g>
   <g id="text_28">
    <g clip-path="url(#pe41d859413)">
     <!-- O -->
     <g style="fill: #ffffff" transform="translate(179.802617 133.528838) scale(0.12 -0.12)">
      <use xlink:href="#DejaVuSans-Bold-4f"/>
     </g>
    </g>
   </g>
   <g id="text_29">
    <g clip-path="url(#pe41d859413)">
     <!-- O -->
     <g style="fill: #ffffff" transform="translate(92.070196 212.769602) scale(0.12 -0.12)">
      <use xlink:href="#DejaVuSans-Bold-4f"/>
     </g>
    </g>
   </g>
   <g id="text_30">
    <g clip-path="url(#pe41d859413)">
     <!-- O -->
     <g style="fill: #ffffff" transform="translate(124.869929 221.681522) scale(0.12 -0.12)">
      <use xlink:href="#DejaVuSans-Bold-4f"/>
     </g>
    </g>
   </g>
   <g id="text_31">
    <g clip-path="url(#pe41d859413)">
     <!-- C -->
     <g style="fill: #ffffff" transform="translate(176.392137 176.798188) scale(0.12 -0.12)">
      <defs>
       <path id="DejaVuSans-Bold-43" d="M 4288 256 
Q 3956 84 3597 -3 
Q 3238 -91 2847 -91 
Q 1681 -91 1000 561 
Q 319 1213 319 2328 
Q 319 3447 1000 4098 
Q 1681 4750 2847 4750 
Q 3238 4750 3597 4662 
Q 3956 4575 4288 4403 
L 4288 3438 
Q 3953 3666 3628 3772 
Q 3303 3878 2944 3878 
Q 2300 3878 1931 3465 
Q 1563 3053 1563 2328 
Q 1563 1606 1931 1193 
Q 2300 781 2944 781 
Q 3303 781 3628 887 
Q 3953 994 4288 1222 
L 4288 256 
z
" transform="scale(0.015625)"/>
      </defs>
      <use xlink:href="#DejaVuSans-Bold-43"/>
     </g>
    </g>
   </g>
   <g id="text_32">
    <g clip-path="url(#pe41d859413)">
     <!-- C -->
     <g style="fill: #ffffff" transform="translate(199.715809 201.397302) scale(0.12 -0.12)">
      <use xlink:href="#DejaVuSans-Bold-43"/>
     </g>
    </g>
   </g>
   <g id="text_33">
    <g clip-path="url(#pe41d859413)">
     <!-- H -->
     <g style="fill: #ffffff" transform="translate(145.527306 180.786569) scale(0.12 -0.12)">
      <defs>
       <path id="DejaVuSans-Bold-48" d="M 588 4666 
L 1791 4666 
L 1791 2888 
L 3566 2888 
L 3566 4666 
L 4769 4666 
L 4769 0 
L 3566 0 
L 3566 1978 
L 1791 1978 
L 1791 0 
L 588 0 
L 588 4666 
z
" transform="scale(0.015625)"/>
      </defs>
      <use xlink:href="#DejaVuSans-Bold-48"/>
     </g>
    </g>
   </g>
   <g id="text_34">
    <g clip-path="url(#pe41d859413)">
     <!-- H -->
     <g style="fill: #ffffff" transform="translate(165.997928 141.049634) scale(0.12 -0.12)">
      <use xlink:href="#DejaVuSans-Bold-48"/>
     </g>
    </g>
   </g>
   <g id="text_35">
    <g clip-path="url(#pe41d859413)">
     <!-- H -->
     <g style="fill: #ffffff" transform="translate(207.296492 229.204749) scale(0.12 -0.12)">
      <use xlink:href="#DejaVuSans-Bold-48"/>
     </g>
    </g>
   </g>
   <g id="text_36">
    <g clip-path="url(#pe41d859413)">
     <!-- H -->
     <g style="fill: #ffffff" transform="translate(231.831762 210.694044) scale(0.12 -0.12)">
      <use xlink:href="#DejaVuSans-Bold-48"/>
     </g>
    </g>
   </g>
   <g id="text_37">
    <!-- C2H4O80Ti40 -->
    <g transform="translate(157.454366 52.670974) scale(0.1 -0.1)">
     <defs>
      <path id="DejaVuSans-43" d="M 4122 4306 
L 4122 3641 
Q 3803 3938 3442 4084 
Q 3081 4231 2675 4231 
Q 1875 4231 1450 3742 
Q 1025 3253 1025 2328 
Q 1025 1406 1450 917 
Q 1875 428 2675 428 
Q 3081 428 3442 575 
Q 3803 722 4122 1019 
L 4122 359 
Q 3791 134 3420 21 
Q 3050 -91 2638 -91 
Q 1578 -91 968 557 
Q 359 1206 359 2328 
Q 359 3453 968 4101 
Q 1578 4750 2638 4750 
Q 3056 4750 3426 4639 
Q 3797 4528 4122 4306 
z
" transform="scale(0.015625)"/>
      <path id="DejaVuSans-32" d="M 1228 531 
L 3431 531 
L 3431 0 
L 469 0 
L 469 531 
Q 828 903 1448 1529 
Q 2069 2156 2228 2338 
Q 2531 2678 2651 2914 
Q 2772 3150 2772 3378 
Q 2772 3750 2511 3984 
Q 2250 4219 1831 4219 
Q 1534 4219 1204 4116 
Q 875 4013 500 3803 
L 500 4441 
Q 881 4594 1212 4672 
Q 1544 4750 1819 4750 
Q 2544 4750 2975 4387 
Q 3406 4025 3406 3419 
Q 3406 3131 3298 2873 
Q 3191 2616 2906 2266 
Q 2828 2175 2409 1742 
Q 1991 1309 1228 531 
z
" transform="scale(0.015625)"/>
      <path id="DejaVuSans-48" d="M 628 4666 
L 1259 4666 
L 1259 2753 
L 3553 2753 
L 3553 4666 
L 4184 4666 
L 4184 0 
L 3553 0 
L 3553 2222 
L 1259 2222 
L 1259 0 
L 628 0 
L 628 4666 
z
" transform="scale(0.015625)"/>
      <path id="DejaVuSans-34" d="M 2419 4116 
L 825 1625 
L 2419 1625 
L 2419 4116 
z
M 2253 4666 
L 3047 4666 
L 3047 1625 
L 3713 1625 
L 3713 1100 
L 3047 1100 
L 3047 0 
L 2419 0 
L 2419 1100 
L 313 1100 
L 313 1709 
L 2253 4666 
z
" transform="scale(0.015625)"/>
      <path id="DejaVuSans-4f" d="M 2522 4238 
Q 1834 4238 1429 3725 
Q 1025 3213 1025 2328 
Q 1025 1447 1429 934 
Q 1834 422 2522 422 
Q 3209 422 3611 934 
Q 4013 1447 4013 2328 
Q 4013 3213 3611 3725 
Q 3209 4238 2522 4238 
z
M 2522 4750 
Q 3503 4750 4090 4092 
Q 4678 3434 4678 2328 
Q 4678 1225 4090 567 
Q 3503 -91 2522 -91 
Q 1538 -91 948 565 
Q 359 1222 359 2328 
Q 359 3434 948 4092 
Q 1538 4750 2522 4750 
z
" transform="scale(0.015625)"/>
      <path id="DejaVuSans-38" d="M 2034 2216 
Q 1584 2216 1326 1975 
Q 1069 1734 1069 1313 
Q 1069 891 1326 650 
Q 1584 409 2034 409 
Q 2484 409 2743 651 
Q 3003 894 3003 1313 
Q 3003 1734 2745 1975 
Q 2488 2216 2034 2216 
z
M 1403 2484 
Q 997 2584 770 2862 
Q 544 3141 544 3541 
Q 544 4100 942 4425 
Q 1341 4750 2034 4750 
Q 2731 4750 3128 4425 
Q 3525 4100 3525 3541 
Q 3525 3141 3298 2862 
Q 3072 2584 2669 2484 
Q 3125 2378 3379 2068 
Q 3634 1759 3634 1313 
Q 3634 634 3220 271 
Q 2806 -91 2034 -91 
Q 1263 -91 848 271 
Q 434 634 434 1313 
Q 434 1759 690 2068 
Q 947 2378 1403 2484 
z
M 1172 3481 
Q 1172 3119 1398 2916 
Q 1625 2713 2034 2713 
Q 2441 2713 2670 2916 
Q 2900 3119 2900 3481 
Q 2900 3844 2670 4047 
Q 2441 4250 2034 4250 
Q 1625 4250 1398 4047 
Q 1172 3844 1172 3481 
z
" transform="scale(0.015625)"/>
      <path id="DejaVuSans-30" d="M 2034 4250 
Q 1547 4250 1301 3770 
Q 1056 3291 1056 2328 
Q 1056 1369 1301 889 
Q 1547 409 2034 409 
Q 2525 409 2770 889 
Q 3016 1369 3016 2328 
Q 3016 3291 2770 3770 
Q 2525 4250 2034 4250 
z
M 2034 4750 
Q 2819 4750 3233 4129 
Q 3647 3509 3647 2328 
Q 3647 1150 3233 529 
Q 2819 -91 2034 -91 
Q 1250 -91 836 529 
Q 422 1150 422 2328 
Q 422 3509 836 4129 
Q 1250 4750 2034 4750 
z
" transform="scale(0.015625)"/>
      <path id="DejaVuSans-54" d="M -19 4666 
L 3928 4666 
L 3928 4134 
L 2272 4134 
L 2272 0 
L 1638 0 
L 1638 4134 
L -19 4134 
L -19 4666 
z
" transform="scale(0.015625)"/>
      <path id="DejaVuSans-69" d="M 603 3500 
L 1178 3500 
L 1178 0 
L 603 0 
L 603 3500 
z
M 603 4863 
L 1178 4863 
L 1178 4134 
L 603 4134 
L 603 4863 
z
" transform="scale(0.015625)"/>
     </defs>
     <use xlink:href="#DejaVuSans-43"/>
     <use xlink:href="#DejaVuSans-32" transform="translate(69.824219 0)"/>
     <use xlink:href="#DejaVuSans-48" transform="translate(133.447266 0)"/>
     <use xlink:href="#DejaVuSans-34" transform="translate(208.642578 0)"/>
     <use xlink:href="#DejaVuSans-4f" transform="translate(272.265625 0)"/>
     <use xlink:href="#DejaVuSans-38" transform="translate(350.976562 0)"/>
     <use xlink:href="#DejaVuSans-30" transform="translate(414.599609 0)"/>
     <use xlink:href="#DejaVuSans-54" transform="translate(478.222656 0)"/>
     <use xlink:href="#DejaVuSans-69" transform="translate(536.181641 0)"/>
     <use xlink:href="#DejaVuSans-34" transform="translate(563.964844 0)"/>
     <use xlink:href="#DejaVuSans-30" transform="translate(627.587891 0)"/>
    </g>
    <!-- Error: -4.42 eV -->
    <g transform="translate(157.454366 63.868787) scale(0.1 -0.1)">
     <defs>
      <path id="DejaVuSans-45" d="M 628 4666 
L 3578 4666 
L 3578 4134 
L 1259 4134 
L 1259 2753 
L 3481 2753 
L 3481 2222 
L 1259 2222 
L 1259 531 
L 3634 531 
L 3634 0 
L 628 0 
L 628 4666 
z
" transform="scale(0.015625)"/>
      <path id="DejaVuSans-72" d="M 2631 2963 
Q 2534 3019 2420 3045 
Q 2306 3072 2169 3072 
Q 1681 3072 1420 2755 
Q 1159 2438 1159 1844 
L 1159 0 
L 581 0 
L 581 3500 
L 1159 3500 
L 1159 2956 
Q 1341 3275 1631 3429 
Q 1922 3584 2338 3584 
Q 2397 3584 2469 3576 
Q 2541 3569 2628 3553 
L 2631 2963 
z
" transform="scale(0.015625)"/>
      <path id="DejaVuSans-6f" d="M 1959 3097 
Q 1497 3097 1228 2736 
Q 959 2375 959 1747 
Q 959 1119 1226 758 
Q 1494 397 1959 397 
Q 2419 397 2687 759 
Q 2956 1122 2956 1747 
Q 2956 2369 2687 2733 
Q 2419 3097 1959 3097 
z
M 1959 3584 
Q 2709 3584 3137 3096 
Q 3566 2609 3566 1747 
Q 3566 888 3137 398 
Q 2709 -91 1959 -91 
Q 1206 -91 779 398 
Q 353 888 353 1747 
Q 353 2609 779 3096 
Q 1206 3584 1959 3584 
z
" transform="scale(0.015625)"/>
      <path id="DejaVuSans-3a" d="M 750 794 
L 1409 794 
L 1409 0 
L 750 0 
L 750 794 
z
M 750 3309 
L 1409 3309 
L 1409 2516 
L 750 2516 
L 750 3309 
z
" transform="scale(0.015625)"/>
      <path id="DejaVuSans-20" transform="scale(0.015625)"/>
      <path id="DejaVuSans-2d" d="M 313 2009 
L 1997 2009 
L 1997 1497 
L 313 1497 
L 313 2009 
z
" transform="scale(0.015625)"/>
      <path id="DejaVuSans-2e" d="M 684 794 
L 1344 794 
L 1344 0 
L 684 0 
L 684 794 
z
" transform="scale(0.015625)"/>
      <path id="DejaVuSans-65" d="M 3597 1894 
L 3597 1613 
L 953 1613 
Q 991 1019 1311 708 
Q 1631 397 2203 397 
Q 2534 397 2845 478 
Q 3156 559 3463 722 
L 3463 178 
Q 3153 47 2828 -22 
Q 2503 -91 2169 -91 
Q 1331 -91 842 396 
Q 353 884 353 1716 
Q 353 2575 817 3079 
Q 1281 3584 2069 3584 
Q 2775 3584 3186 3129 
Q 3597 2675 3597 1894 
z
M 3022 2063 
Q 3016 2534 2758 2815 
Q 2500 3097 2075 3097 
Q 1594 3097 1305 2825 
Q 1016 2553 972 2059 
L 3022 2063 
z
" transform="scale(0.015625)"/>
      <path id="DejaVuSans-56" d="M 1831 0 
L 50 4666 
L 709 4666 
L 2188 738 
L 3669 4666 
L 4325 4666 
L 2547 0 
L 1831 0 
z
" transform="scale(0.015625)"/>
     </defs>
     <use xlink:href="#DejaVuSans-45"/>
     <use xlink:href="#DejaVuSans-72" transform="translate(63.183594 0)"/>
     <use xlink:href="#DejaVuSans-72" transform="translate(102.546875 0)"/>
     <use xlink:href="#DejaVuSans-6f" transform="translate(141.410156 0)"/>
     <use xlink:href="#DejaVuSans-72" transform="translate(202.591797 0)"/>
     <use xlink:href="#DejaVuSans-3a" transform="translate(241.955078 0)"/>
     <use xlink:href="#DejaVuSans-20" transform="translate(275.646484 0)"/>
     <use xlink:href="#DejaVuSans-2d" transform="translate(307.433594 0)"/>
     <use xlink:href="#DejaVuSans-34" transform="translate(343.517578 0)"/>
     <use xlink:href="#DejaVuSans-2e" transform="translate(407.140625 0)"/>
     <use xlink:href="#DejaVuSans-34" transform="translate(438.927734 0)"/>
     <use xlink:href="#DejaVuSans-32" transform="translate(502.550781 0)"/>
     <use xlink:href="#DejaVuSans-20" transform="translate(566.173828 0)"/>
     <use xlink:href="#DejaVuSans-65" transform="translate(597.960938 0)"/>
     <use xlink:href="#DejaVuSans-56" transform="translate(659.484375 0)"/>
    </g>
   </g>
  </g>
 </g>
 <defs>
  <clipPath id="pe41d859413">
   <rect x="36" y="34.56" width="223.2" height="221.76"/>
  </clipPath>
 </defs>
</svg>
