<?xml version="1.0" encoding="utf-8" standalone="no"?>
<!DOCTYPE svg PUBLIC "-//W3C//DTD SVG 1.1//EN"
  "http://www.w3.org/Graphics/SVG/1.1/DTD/svg11.dtd">
<svg xmlns:xlink="http://www.w3.org/1999/xlink" width="288pt" height="288pt" viewBox="0 0 288 288" xmlns="http://www.w3.org/2000/svg" version="1.1">
 <metadata>
  <rdf:RDF xmlns:dc="http://purl.org/dc/elements/1.1/" xmlns:cc="http://creativecommons.org/ns#" xmlns:rdf="http://www.w3.org/1999/02/22-rdf-syntax-ns#">
   <cc:Work>
    <dc:type rdf:resource="http://purl.org/dc/dcmitype/StillImage"/>
    <dc:date>2025-06-03T15:07:02.693470</dc:date>
    <dc:format>image/svg+xml</dc:format>
    <dc:creator>
     <cc:Agent>
      <dc:title>Matplotlib v3.10.1, https://matplotlib.org/</dc:title>
     </cc:Agent>
    </dc:creator>
   </cc:Work>
  </rdf:RDF>
 </metadata>
 <defs>
  <style type="text/css">*{stroke-linejoin: round; stroke-linecap: butt}</style>
 </defs>
 <g id="figure_1">
  <g id="patch_1">
   <path d="M 0 288 
L 288 288 
L 288 0 
L 0 0 
z
" style="fill: #ffffff"/>
  </g>
  <g id="axes_1">
   <g id="LineCollection_1">
    <path d="M 224.383427 190.723197 
L 182.497977 185.659001 
" clip-path="url(#p9247559313)" style="fill: none; stroke: #000000; stroke-width: 1.2"/>
    <path d="M 164.481279 151.729672 
L 196.461716 127.226268 
" clip-path="url(#p9247559313)" style="fill: none; stroke: #000000; stroke-width: 1.2"/>
    <path d="M 164.481279 151.729672 
L 197.098404 147.415437 
" clip-path="url(#p9247559313)" style="fill: none; stroke: #000000; stroke-width: 1.2"/>
    <path d="M 164.481279 151.729672 
L 137.796046 125.419879 
" clip-path="url(#p9247559313)" style="fill: none; stroke: #000000; stroke-width: 1.2"/>
    <path d="M 164.481279 151.729672 
L 134.199125 166.541551 
" clip-path="url(#p9247559313)" style="fill: none; stroke: #000000; stroke-width: 1.2"/>
    <path d="M 164.481279 151.729672 
L 125.511222 139.967303 
" clip-path="url(#p9247559313)" style="fill: none; stroke: #000000; stroke-width: 1.2"/>
    <path d="M 164.481279 151.729672 
L 182.497977 185.659001 
" clip-path="url(#p9247559313)" style="fill: none; stroke: #000000; stroke-width: 1.2"/>
    <path d="M 164.481279 151.729672 
L 187.427045 168.03811 
" clip-path="url(#p9247559313)" style="fill: none; stroke: #000000; stroke-width: 1.2"/>
    <path d="M 224.338749 113.792359 
L 196.461716 127.226268 
" clip-path="url(#p9247559313)" style="fill: none; stroke: #000000; stroke-width: 1.2"/>
    <path d="M 224.338749 113.792359 
L 181.914467 113.702027 
" clip-path="url(#p9247559313)" style="fill: none; stroke: #000000; stroke-width: 1.2"/>
    <path d="M 101.868139 107.665961 
L 92.042125 122.006486 
" clip-path="url(#p9247559313)" style="fill: none; stroke: #000000; stroke-width: 1.2"/>
    <path d="M 101.868139 107.665961 
L 72.035046 97.750874 
" clip-path="url(#p9247559313)" style="fill: none; stroke: #000000; stroke-width: 1.2"/>
    <path d="M 101.868139 107.665961 
L 64.395334 124.469452 
" clip-path="url(#p9247559313)" style="fill: none; stroke: #000000; stroke-width: 1.2"/>
    <path d="M 101.868139 107.665961 
L 137.796046 125.419879 
" clip-path="url(#p9247559313)" style="fill: none; stroke: #000000; stroke-width: 1.2"/>
    <path d="M 101.868139 107.665961 
L 89.190152 77.487308 
" clip-path="url(#p9247559313)" style="fill: none; stroke: #000000; stroke-width: 1.2"/>
    <path d="M 101.868139 107.665961 
L 61.275425 109.665849 
" clip-path="url(#p9247559313)" style="fill: none; stroke: #000000; stroke-width: 1.2"/>
    <path d="M 101.868139 107.665961 
L 107.371976 85.786777 
" clip-path="url(#p9247559313)" style="fill: none; stroke: #000000; stroke-width: 1.2"/>
    <path d="M 239.831405 145.886923 
L 197.098404 147.415437 
" clip-path="url(#p9247559313)" style="fill: none; stroke: #000000; stroke-width: 1.2"/>
    <path d="M 61.275425 109.665849 
L 92.042125 122.006486 
" clip-path="url(#p9247559313)" style="fill: none; stroke: #000000; stroke-width: 1.2"/>
    <path d="M 155.692496 143.552024 
L 197.098404 147.415437 
" clip-path="url(#p9247559313)" style="fill: none; stroke: #000000; stroke-width: 1.2"/>
    <path d="M 155.692496 143.552024 
L 137.796046 125.419879 
" clip-path="url(#p9247559313)" style="fill: none; stroke: #000000; stroke-width: 1.2"/>
    <path d="M 155.692496 143.552024 
L 181.914467 113.702027 
" clip-path="url(#p9247559313)" style="fill: none; stroke: #000000; stroke-width: 1.2"/>
    <path d="M 155.692496 143.552024 
L 134.199125 166.541551 
" clip-path="url(#p9247559313)" style="fill: none; stroke: #000000; stroke-width: 1.2"/>
    <path d="M 155.692496 143.552024 
L 125.511222 139.967303 
" clip-path="url(#p9247559313)" style="fill: none; stroke: #000000; stroke-width: 1.2"/>
    <path d="M 155.692496 143.552024 
L 149.213358 181.352577 
" clip-path="url(#p9247559313)" style="fill: none; stroke: #000000; stroke-width: 1.2"/>
    <path d="M 107.371976 85.786777 
L 92.042125 122.006486 
" clip-path="url(#p9247559313)" style="fill: none; stroke: #000000; stroke-width: 1.2"/>
    <path d="M 107.371976 85.786777 
L 101.128634 53.803636 
" clip-path="url(#p9247559313)" style="fill: none; stroke: #000000; stroke-width: 1.2"/>
    <path d="M 181.914467 113.702027 
L 206.677677 98.081228 
" clip-path="url(#p9247559313)" style="fill: none; stroke: #000000; stroke-width: 1.2"/>
    <path d="M 206.677677 98.081228 
L 196.461716 127.226268 
" clip-path="url(#p9247559313)" style="fill: none; stroke: #000000; stroke-width: 1.2"/>
    <path d="M 92.042125 122.006486 
L 72.035046 97.750874 
" clip-path="url(#p9247559313)" style="fill: none; stroke: #000000; stroke-width: 1.2"/>
    <path d="M 92.042125 122.006486 
L 64.395334 124.469452 
" clip-path="url(#p9247559313)" style="fill: none; stroke: #000000; stroke-width: 1.2"/>
    <path d="M 92.042125 122.006486 
L 125.511222 139.967303 
" clip-path="url(#p9247559313)" style="fill: none; stroke: #000000; stroke-width: 1.2"/>
    <path d="M 92.042125 122.006486 
L 55.368595 142.107945 
" clip-path="url(#p9247559313)" style="fill: none; stroke: #000000; stroke-width: 1.2"/>
    <path d="M 134.199125 166.541551 
L 103.832441 189.663807 
" clip-path="url(#p9247559313)" style="fill: none; stroke: #000000; stroke-width: 1.2"/>
    <path d="M 161.674533 209.567044 
L 139.450643 234.14417 
" clip-path="url(#p9247559313)" style="fill: none; stroke: #000000; stroke-width: 1.2"/>
    <path d="M 161.674533 209.567044 
L 178.272833 237.076364 
" clip-path="url(#p9247559313)" style="fill: none; stroke: #000000; stroke-width: 1.2"/>
    <path d="M 161.674533 209.567044 
L 149.213358 181.352577 
" clip-path="url(#p9247559313)" style="fill: none; stroke: #000000; stroke-width: 1.2"/>
    <path d="M 161.674533 209.567044 
L 182.497977 185.659001 
" clip-path="url(#p9247559313)" style="fill: none; stroke: #000000; stroke-width: 1.2"/>
    <path d="M 182.497977 185.659001 
L 187.427045 168.03811 
" clip-path="url(#p9247559313)" style="fill: none; stroke: #000000; stroke-width: 1.2"/>
    <path d="M 182.497977 185.659001 
L 206.965988 207.345568 
" clip-path="url(#p9247559313)" style="fill: none; stroke: #000000; stroke-width: 1.2"/>
   </g>
   <g id="PathCollection_1">
    <defs>
     <path id="C0_0_162adceb5e" d="M 0 8.944272 
C 2.372049 8.944272 4.647264 8.001847 6.324555 6.324555 
C 8.001847 4.647264 8.944272 2.372049 8.944272 -0 
C 8.944272 -2.372049 8.001847 -4.647264 6.324555 -6.324555 
C 4.647264 -8.001847 2.372049 -8.944272 0 -8.944272 
C -2.372049 -8.944272 -4.647264 -8.001847 -6.324555 -6.324555 
C -8.001847 -4.647264 -8.944272 -2.372049 -8.944272 0 
C -8.944272 2.372049 -8.001847 4.647264 -6.324555 6.324555 
C -4.647264 8.001847 -2.372049 8.944272 0 8.944272 
z
"/>
    </defs>
    <g clip-path="url(#p9247559313)">
     <use xlink:href="#C0_0_162adceb5e" x="224.383427" y="190.723197" style="fill: #bfbfbf; stroke: #bfbfbf; stroke-width: 0.5"/>
    </g>
    <g clip-path="url(#p9247559313)">
     <use xlink:href="#C0_0_162adceb5e" x="164.481279" y="151.729672" style="fill: #175487; stroke: #175487; stroke-width: 0.5"/>
    </g>
    <g clip-path="url(#p9247559313)">
     <use xlink:href="#C0_0_162adceb5e" x="224.338749" y="113.792359" style="fill: #175487; stroke: #175487; stroke-width: 0.5"/>
    </g>
    <g clip-path="url(#p9247559313)">
     <use xlink:href="#C0_0_162adceb5e" x="101.868139" y="107.665961" style="fill: #175487; stroke: #175487; stroke-width: 0.5"/>
    </g>
    <g clip-path="url(#p9247559313)">
     <use xlink:href="#C0_0_162adceb5e" x="89.190152" y="77.487308" style="fill: #ff0d0d; stroke: #ff0d0d; stroke-width: 0.5"/>
    </g>
    <g clip-path="url(#p9247559313)">
     <use xlink:href="#C0_0_162adceb5e" x="239.831405" y="145.886923" style="fill: #175487; stroke: #175487; stroke-width: 0.5"/>
    </g>
    <g clip-path="url(#p9247559313)">
     <use xlink:href="#C0_0_162adceb5e" x="61.275425" y="109.665849" style="fill: #ff0d0d; stroke: #ff0d0d; stroke-width: 0.5"/>
    </g>
    <g clip-path="url(#p9247559313)">
     <use xlink:href="#C0_0_162adceb5e" x="155.692496" y="143.552024" style="fill: #175487; stroke: #175487; stroke-width: 0.5"/>
    </g>
    <g clip-path="url(#p9247559313)">
     <use xlink:href="#C0_0_162adceb5e" x="107.371976" y="85.786777" style="fill: #ff0d0d; stroke: #ff0d0d; stroke-width: 0.5"/>
    </g>
    <g clip-path="url(#p9247559313)">
     <use xlink:href="#C0_0_162adceb5e" x="181.914467" y="113.702027" style="fill: #ff0d0d; stroke: #ff0d0d; stroke-width: 0.5"/>
    </g>
    <g clip-path="url(#p9247559313)">
     <use xlink:href="#C0_0_162adceb5e" x="206.677677" y="98.081228" style="fill: #175487; stroke: #175487; stroke-width: 0.5"/>
    </g>
    <g clip-path="url(#p9247559313)">
     <use xlink:href="#C0_0_162adceb5e" x="92.042125" y="122.006486" style="fill: #175487; stroke: #175487; stroke-width: 0.5"/>
    </g>
    <g clip-path="url(#p9247559313)">
     <use xlink:href="#C0_0_162adceb5e" x="134.199125" y="166.541551" style="fill: #ff0d0d; stroke: #ff0d0d; stroke-width: 0.5"/>
    </g>
    <g clip-path="url(#p9247559313)">
     <use xlink:href="#C0_0_162adceb5e" x="125.511222" y="139.967303" style="fill: #ff0d0d; stroke: #ff0d0d; stroke-width: 0.5"/>
    </g>
    <g clip-path="url(#p9247559313)">
     <use xlink:href="#C0_0_162adceb5e" x="103.832441" y="189.663807" style="fill: #175487; stroke: #175487; stroke-width: 0.5"/>
    </g>
    <g clip-path="url(#p9247559313)">
     <use xlink:href="#C0_0_162adceb5e" x="137.796046" y="125.419879" style="fill: #ff0d0d; stroke: #ff0d0d; stroke-width: 0.5"/>
    </g>
    <g clip-path="url(#p9247559313)">
     <use xlink:href="#C0_0_162adceb5e" x="72.035046" y="97.750874" style="fill: #ff0d0d; stroke: #ff0d0d; stroke-width: 0.5"/>
    </g>
    <g clip-path="url(#p9247559313)">
     <use xlink:href="#C0_0_162adceb5e" x="196.461716" y="127.226268" style="fill: #ff0d0d; stroke: #ff0d0d; stroke-width: 0.5"/>
    </g>
    <g clip-path="url(#p9247559313)">
     <use xlink:href="#C0_0_162adceb5e" x="64.395334" y="124.469452" style="fill: #ff0d0d; stroke: #ff0d0d; stroke-width: 0.5"/>
    </g>
    <g clip-path="url(#p9247559313)">
     <use xlink:href="#C0_0_162adceb5e" x="55.368595" y="142.107945" style="fill: #ff0d0d; stroke: #ff0d0d; stroke-width: 0.5"/>
    </g>
    <g clip-path="url(#p9247559313)">
     <use xlink:href="#C0_0_162adceb5e" x="197.098404" y="147.415437" style="fill: #ff0d0d; stroke: #ff0d0d; stroke-width: 0.5"/>
    </g>
    <g clip-path="url(#p9247559313)">
     <use xlink:href="#C0_0_162adceb5e" x="161.674533" y="209.567044" style="fill: #666666; stroke: #666666; stroke-width: 0.5"/>
    </g>
    <g clip-path="url(#p9247559313)">
     <use xlink:href="#C0_0_162adceb5e" x="139.450643" y="234.14417" style="fill: #bfbfbf; stroke: #bfbfbf; stroke-width: 0.5"/>
    </g>
    <g clip-path="url(#p9247559313)">
     <use xlink:href="#C0_0_162adceb5e" x="178.272833" y="237.076364" style="fill: #bfbfbf; stroke: #bfbfbf; stroke-width: 0.5"/>
    </g>
    <g clip-path="url(#p9247559313)">
     <use xlink:href="#C0_0_162adceb5e" x="149.213358" y="181.352577" style="fill: #b2b200; stroke: #b2b200; stroke-width: 0.5"/>
    </g>
    <g clip-path="url(#p9247559313)">
     <use xlink:href="#C0_0_162adceb5e" x="101.128634" y="53.803636" style="fill: #bfbfbf; stroke: #bfbfbf; stroke-width: 0.5"/>
    </g>
    <g clip-path="url(#p9247559313)">
     <use xlink:href="#C0_0_162adceb5e" x="182.497977" y="185.659001" style="fill: #666666; stroke: #666666; stroke-width: 0.5"/>
    </g>
    <g clip-path="url(#p9247559313)">
     <use xlink:href="#C0_0_162adceb5e" x="187.427045" y="168.03811" style="fill: #bfbfbf; stroke: #bfbfbf; stroke-width: 0.5"/>
    </g>
    <g clip-path="url(#p9247559313)">
     <use xlink:href="#C0_0_162adceb5e" x="206.965988" y="207.345568" style="fill: #bfbfbf; stroke: #bfbfbf; stroke-width: 0.5"/>
    </g>
   </g>
   <g id="text_1">
    <g clip-path="url(#p9247559313)">
     <!-- H -->
     <g style="fill: #ffffff" transform="translate(219.362177 194.034447) scale(0.12 -0.12)">
      <defs>
       <path id="DejaVuSans-Bold-48" d="M 588 4666 
L 1791 4666 
L 1791 2888 
L 3566 2888 
L 3566 4666 
L 4769 4666 
L 4769 0 
L 3566 0 
L 3566 1978 
L 1791 1978 
L 1791 0 
L 588 0 
L 588 4666 
z
" transform="scale(0.015625)"/>
      </defs>
      <use xlink:href="#DejaVuSans-Bold-48"/>
     </g>
    </g>
   </g>
   <g id="text_2">
    <g clip-path="url(#p9247559313)">
     <!-- Ir -->
     <g style="fill: #ffffff" transform="translate(159.290341 155.040922) scale(0.12 -0.12)">
      <defs>
       <path id="DejaVuSans-Bold-49" d="M 588 4666 
L 1791 4666 
L 1791 0 
L 588 0 
L 588 4666 
z
" transform="scale(0.015625)"/>
       <path id="DejaVuSans-Bold-72" d="M 3138 2547 
Q 2991 2616 2845 2648 
Q 2700 2681 2553 2681 
Q 2122 2681 1889 2404 
Q 1656 2128 1656 1613 
L 1656 0 
L 538 0 
L 538 3500 
L 1656 3500 
L 1656 2925 
Q 1872 3269 2151 3426 
Q 2431 3584 2822 3584 
Q 2878 3584 2943 3579 
Q 3009 3575 3134 3559 
L 3138 2547 
z
" transform="scale(0.015625)"/>
      </defs>
      <use xlink:href="#DejaVuSans-Bold-49"/>
      <use xlink:href="#DejaVuSans-Bold-72" transform="translate(37.207031 0)"/>
     </g>
    </g>
   </g>
   <g id="text_3">
    <g clip-path="url(#p9247559313)">
     <!-- Ir -->
     <g style="fill: #ffffff" transform="translate(219.147811 117.103609) scale(0.12 -0.12)">
      <use xlink:href="#DejaVuSans-Bold-49"/>
      <use xlink:href="#DejaVuSans-Bold-72" transform="translate(37.207031 0)"/>
     </g>
    </g>
   </g>
   <g id="text_4">
    <g clip-path="url(#p9247559313)">
     <!-- Ir -->
     <g style="fill: #ffffff" transform="translate(96.677202 110.977211) scale(0.12 -0.12)">
      <use xlink:href="#DejaVuSans-Bold-49"/>
      <use xlink:href="#DejaVuSans-Bold-72" transform="translate(37.207031 0)"/>
     </g>
    </g>
   </g>
   <g id="text_5">
    <g clip-path="url(#p9247559313)">
     <!-- O -->
     <g style="fill: #ffffff" transform="translate(84.089215 80.798558) scale(0.12 -0.12)">
      <defs>
       <path id="DejaVuSans-Bold-4f" d="M 2719 3878 
Q 2169 3878 1866 3472 
Q 1563 3066 1563 2328 
Q 1563 1594 1866 1187 
Q 2169 781 2719 781 
Q 3272 781 3575 1187 
Q 3878 1594 3878 2328 
Q 3878 3066 3575 3472 
Q 3272 3878 2719 3878 
z
M 2719 4750 
Q 3844 4750 4481 4106 
Q 5119 3463 5119 2328 
Q 5119 1197 4481 553 
Q 3844 -91 2719 -91 
Q 1597 -91 958 553 
Q 319 1197 319 2328 
Q 319 3463 958 4106 
Q 1597 4750 2719 4750 
z
" transform="scale(0.015625)"/>
      </defs>
      <use xlink:href="#DejaVuSans-Bold-4f"/>
     </g>
    </g>
   </g>
   <g id="text_6">
    <g clip-path="url(#p9247559313)">
     <!-- Ir -->
     <g style="fill: #ffffff" transform="translate(234.640467 149.198173) scale(0.12 -0.12)">
      <use xlink:href="#DejaVuSans-Bold-49"/>
      <use xlink:href="#DejaVuSans-Bold-72" transform="translate(37.207031 0)"/>
     </g>
    </g>
   </g>
   <g id="text_7">
    <g clip-path="url(#p9247559313)">
     <!-- O -->
     <g style="fill: #ffffff" transform="translate(56.174487 112.977099) scale(0.12 -0.12)">
      <use xlink:href="#DejaVuSans-Bold-4f"/>
     </g>
    </g>
   </g>
   <g id="text_8">
    <g clip-path="url(#p9247559313)">
     <!-- Ir -->
     <g style="fill: #ffffff" transform="translate(150.501558 146.863274) scale(0.12 -0.12)">
      <use xlink:href="#DejaVuSans-Bold-49"/>
      <use xlink:href="#DejaVuSans-Bold-72" transform="translate(37.207031 0)"/>
     </g>
    </g>
   </g>
   <g id="text_9">
    <g clip-path="url(#p9247559313)">
     <!-- O -->
     <g style="fill: #ffffff" transform="translate(102.271039 89.098027) scale(0.12 -0.12)">
      <use xlink:href="#DejaVuSans-Bold-4f"/>
     </g>
    </g>
   </g>
   <g id="text_10">
    <g clip-path="url(#p9247559313)">
     <!-- O -->
     <g style="fill: #ffffff" transform="translate(176.813529 117.013277) scale(0.12 -0.12)">
      <use xlink:href="#DejaVuSans-Bold-4f"/>
     </g>
    </g>
   </g>
   <g id="text_11">
    <g clip-path="url(#p9247559313)">
     <!-- Ir -->
     <g style="fill: #ffffff" transform="translate(201.486739 101.392478) scale(0.12 -0.12)">
      <use xlink:href="#DejaVuSans-Bold-49"/>
      <use xlink:href="#DejaVuSans-Bold-72" transform="translate(37.207031 0)"/>
     </g>
    </g>
   </g>
   <g id="text_12">
    <g clip-path="url(#p9247559313)">
     <!-- Ir -->
     <g style="fill: #ffffff" transform="translate(86.851187 125.317736) scale(0.12 -0.12)">
      <use xlink:href="#DejaVuSans-Bold-49"/>
      <use xlink:href="#DejaVuSans-Bold-72" transform="translate(37.207031 0)"/>
     </g>
    </g>
   </g>
   <g id="text_13">
    <g clip-path="url(#p9247559313)">
     <!-- O -->
     <g style="fill: #ffffff" transform="translate(129.098187 169.852801) scale(0.12 -0.12)">
      <use xlink:href="#DejaVuSans-Bold-4f"/>
     </g>
    </g>
   </g>
   <g id="text_14">
    <g clip-path="url(#p9247559313)">
     <!-- O -->
     <g style="fill: #ffffff" transform="translate(120.410284 143.278553) scale(0.12 -0.12)">
      <use xlink:href="#DejaVuSans-Bold-4f"/>
     </g>
    </g>
   </g>
   <g id="text_15">
    <g clip-path="url(#p9247559313)">
     <!-- Ir -->
     <g style="fill: #ffffff" transform="translate(98.641504 192.975057) scale(0.12 -0.12)">
      <use xlink:href="#DejaVuSans-Bold-49"/>
      <use xlink:href="#DejaVuSans-Bold-72" transform="translate(37.207031 0)"/>
     </g>
    </g>
   </g>
   <g id="text_16">
    <g clip-path="url(#p9247559313)">
     <!-- O -->
     <g style="fill: #ffffff" transform="translate(132.695108 128.731129) scale(0.12 -0.12)">
      <use xlink:href="#DejaVuSans-Bold-4f"/>
     </g>
    </g>
   </g>
   <g id="text_17">
    <g clip-path="url(#p9247559313)">
     <!-- O -->
     <g style="fill: #ffffff" transform="translate(66.934108 101.062124) scale(0.12 -0.12)">
      <use xlink:href="#DejaVuSans-Bold-4f"/>
     </g>
    </g>
   </g>
   <g id="text_18">
    <g clip-path="url(#p9247559313)">
     <!-- O -->
     <g style="fill: #ffffff" transform="translate(191.360778 130.537518) scale(0.12 -0.12)">
      <use xlink:href="#DejaVuSans-Bold-4f"/>
     </g>
    </g>
   </g>
   <g id="text_19">
    <g clip-path="url(#p9247559313)">
     <!-- O -->
     <g style="fill: #ffffff" transform="translate(59.294397 127.780702) scale(0.12 -0.12)">
      <use xlink:href="#DejaVuSans-Bold-4f"/>
     </g>
    </g>
   </g>
   <g id="text_20">
    <g clip-path="url(#p9247559313)">
     <!-- O -->
     <g style="fill: #ffffff" transform="translate(50.267658 145.419195) scale(0.12 -0.12)">
      <use xlink:href="#DejaVuSans-Bold-4f"/>
     </g>
    </g>
   </g>
   <g id="text_21">
    <g clip-path="url(#p9247559313)">
     <!-- O -->
     <g style="fill: #ffffff" transform="translate(191.997467 150.726687) scale(0.12 -0.12)">
      <use xlink:href="#DejaVuSans-Bold-4f"/>
     </g>
    </g>
   </g>
   <g id="text_22">
    <g clip-path="url(#p9247559313)">
     <!-- C -->
     <g style="fill: #ffffff" transform="translate(157.271096 212.878294) scale(0.12 -0.12)">
      <defs>
       <path id="DejaVuSans-Bold-43" d="M 4288 256 
Q 3956 84 3597 -3 
Q 3238 -91 2847 -91 
Q 1681 -91 1000 561 
Q 319 1213 319 2328 
Q 319 3447 1000 4098 
Q 1681 4750 2847 4750 
Q 3238 4750 3597 4662 
Q 3956 4575 4288 4403 
L 4288 3438 
Q 3953 3666 3628 3772 
Q 3303 3878 2944 3878 
Q 2300 3878 1931 3465 
Q 1563 3053 1563 2328 
Q 1563 1606 1931 1193 
Q 2300 781 2944 781 
Q 3303 781 3628 887 
Q 3953 994 4288 1222 
L 4288 256 
z
" transform="scale(0.015625)"/>
      </defs>
      <use xlink:href="#DejaVuSans-Bold-43"/>
     </g>
    </g>
   </g>
   <g id="text_23">
    <g clip-path="url(#p9247559313)">
     <!-- H -->
     <g style="fill: #ffffff" transform="translate(134.429393 237.45542) scale(0.12 -0.12)">
      <use xlink:href="#DejaVuSans-Bold-48"/>
     </g>
    </g>
   </g>
   <g id="text_24">
    <g clip-path="url(#p9247559313)">
     <!-- H -->
     <g style="fill: #ffffff" transform="translate(173.251583 240.387614) scale(0.12 -0.12)">
      <use xlink:href="#DejaVuSans-Bold-48"/>
     </g>
    </g>
   </g>
   <g id="text_25">
    <g clip-path="url(#p9247559313)">
     <!-- S -->
     <g style="fill: #ffffff" transform="translate(144.89242 184.663827) scale(0.12 -0.12)">
      <defs>
       <path id="DejaVuSans-Bold-53" d="M 3834 4519 
L 3834 3531 
Q 3450 3703 3084 3790 
Q 2719 3878 2394 3878 
Q 1963 3878 1756 3759 
Q 1550 3641 1550 3391 
Q 1550 3203 1689 3098 
Q 1828 2994 2194 2919 
L 2706 2816 
Q 3484 2659 3812 2340 
Q 4141 2022 4141 1434 
Q 4141 663 3683 286 
Q 3225 -91 2284 -91 
Q 1841 -91 1394 -6 
Q 947 78 500 244 
L 500 1259 
Q 947 1022 1364 901 
Q 1781 781 2169 781 
Q 2563 781 2772 912 
Q 2981 1044 2981 1288 
Q 2981 1506 2839 1625 
Q 2697 1744 2272 1838 
L 1806 1941 
Q 1106 2091 782 2419 
Q 459 2747 459 3303 
Q 459 4000 909 4375 
Q 1359 4750 2203 4750 
Q 2588 4750 2994 4692 
Q 3400 4634 3834 4519 
z
" transform="scale(0.015625)"/>
      </defs>
      <use xlink:href="#DejaVuSans-Bold-53"/>
     </g>
    </g>
   </g>
   <g id="text_26">
    <g clip-path="url(#p9247559313)">
     <!-- H -->
     <g style="fill: #ffffff" transform="translate(96.107384 57.114886) scale(0.12 -0.12)">
      <use xlink:href="#DejaVuSans-Bold-48"/>
     </g>
    </g>
   </g>
   <g id="text_27">
    <g clip-path="url(#p9247559313)">
     <!-- C -->
     <g style="fill: #ffffff" transform="translate(178.09454 188.970251) scale(0.12 -0.12)">
      <use xlink:href="#DejaVuSans-Bold-43"/>
     </g>
    </g>
   </g>
   <g id="text_28">
    <g clip-path="url(#p9247559313)">
     <!-- H -->
     <g style="fill: #ffffff" transform="translate(182.405795 171.34936) scale(0.12 -0.12)">
      <use xlink:href="#DejaVuSans-Bold-48"/>
     </g>
    </g>
   </g>
   <g id="text_29">
    <g clip-path="url(#p9247559313)">
     <!-- H -->
     <g style="fill: #ffffff" transform="translate(201.944738 210.656818) scale(0.12 -0.12)">
      <use xlink:href="#DejaVuSans-Bold-48"/>
     </g>
    </g>
   </g>
   <g id="text_30">
    <!-- C2H6Ir40O80S -->
    <g transform="translate(149.865804 50.450519) scale(0.1 -0.1)">
     <defs>
      <path id="DejaVuSans-43" d="M 4122 4306 
L 4122 3641 
Q 3803 3938 3442 4084 
Q 3081 4231 2675 4231 
Q 1875 4231 1450 3742 
Q 1025 3253 1025 2328 
Q 1025 1406 1450 917 
Q 1875 428 2675 428 
Q 3081 428 3442 575 
Q 3803 722 4122 1019 
L 4122 359 
Q 3791 134 3420 21 
Q 3050 -91 2638 -91 
Q 1578 -91 968 557 
Q 359 1206 359 2328 
Q 359 3453 968 4101 
Q 1578 4750 2638 4750 
Q 3056 4750 3426 4639 
Q 3797 4528 4122 4306 
z
" transform="scale(0.015625)"/>
      <path id="DejaVuSans-32" d="M 1228 531 
L 3431 531 
L 3431 0 
L 469 0 
L 469 531 
Q 828 903 1448 1529 
Q 2069 2156 2228 2338 
Q 2531 2678 2651 2914 
Q 2772 3150 2772 3378 
Q 2772 3750 2511 3984 
Q 2250 4219 1831 4219 
Q 1534 4219 1204 4116 
Q 875 4013 500 3803 
L 500 4441 
Q 881 4594 1212 4672 
Q 1544 4750 1819 4750 
Q 2544 4750 2975 4387 
Q 3406 4025 3406 3419 
Q 3406 3131 3298 2873 
Q 3191 2616 2906 2266 
Q 2828 2175 2409 1742 
Q 1991 1309 1228 531 
z
" transform="scale(0.015625)"/>
      <path id="DejaVuSans-48" d="M 628 4666 
L 1259 4666 
L 1259 2753 
L 3553 2753 
L 3553 4666 
L 4184 4666 
L 4184 0 
L 3553 0 
L 3553 2222 
L 1259 2222 
L 1259 0 
L 628 0 
L 628 4666 
z
" transform="scale(0.015625)"/>
      <path id="DejaVuSans-36" d="M 2113 2584 
Q 1688 2584 1439 2293 
Q 1191 2003 1191 1497 
Q 1191 994 1439 701 
Q 1688 409 2113 409 
Q 2538 409 2786 701 
Q 3034 994 3034 1497 
Q 3034 2003 2786 2293 
Q 2538 2584 2113 2584 
z
M 3366 4563 
L 3366 3988 
Q 3128 4100 2886 4159 
Q 2644 4219 2406 4219 
Q 1781 4219 1451 3797 
Q 1122 3375 1075 2522 
Q 1259 2794 1537 2939 
Q 1816 3084 2150 3084 
Q 2853 3084 3261 2657 
Q 3669 2231 3669 1497 
Q 3669 778 3244 343 
Q 2819 -91 2113 -91 
Q 1303 -91 875 529 
Q 447 1150 447 2328 
Q 447 3434 972 4092 
Q 1497 4750 2381 4750 
Q 2619 4750 2861 4703 
Q 3103 4656 3366 4563 
z
" transform="scale(0.015625)"/>
      <path id="DejaVuSans-49" d="M 628 4666 
L 1259 4666 
L 1259 0 
L 628 0 
L 628 4666 
z
" transform="scale(0.015625)"/>
      <path id="DejaVuSans-72" d="M 2631 2963 
Q 2534 3019 2420 3045 
Q 2306 3072 2169 3072 
Q 1681 3072 1420 2755 
Q 1159 2438 1159 1844 
L 1159 0 
L 581 0 
L 581 3500 
L 1159 3500 
L 1159 2956 
Q 1341 3275 1631 3429 
Q 1922 3584 2338 3584 
Q 2397 3584 2469 3576 
Q 2541 3569 2628 3553 
L 2631 2963 
z
" transform="scale(0.015625)"/>
      <path id="DejaVuSans-34" d="M 2419 4116 
L 825 1625 
L 2419 1625 
L 2419 4116 
z
M 2253 4666 
L 3047 4666 
L 3047 1625 
L 3713 1625 
L 3713 1100 
L 3047 1100 
L 3047 0 
L 2419 0 
L 2419 1100 
L 313 1100 
L 313 1709 
L 2253 4666 
z
" transform="scale(0.015625)"/>
      <path id="DejaVuSans-30" d="M 2034 4250 
Q 1547 4250 1301 3770 
Q 1056 3291 1056 2328 
Q 1056 1369 1301 889 
Q 1547 409 2034 409 
Q 2525 409 2770 889 
Q 3016 1369 3016 2328 
Q 3016 3291 2770 3770 
Q 2525 4250 2034 4250 
z
M 2034 4750 
Q 2819 4750 3233 4129 
Q 3647 3509 3647 2328 
Q 3647 1150 3233 529 
Q 2819 -91 2034 -91 
Q 1250 -91 836 529 
Q 422 1150 422 2328 
Q 422 3509 836 4129 
Q 1250 4750 2034 4750 
z
" transform="scale(0.015625)"/>
      <path id="DejaVuSans-4f" d="M 2522 4238 
Q 1834 4238 1429 3725 
Q 1025 3213 1025 2328 
Q 1025 1447 1429 934 
Q 1834 422 2522 422 
Q 3209 422 3611 934 
Q 4013 1447 4013 2328 
Q 4013 3213 3611 3725 
Q 3209 4238 2522 4238 
z
M 2522 4750 
Q 3503 4750 4090 4092 
Q 4678 3434 4678 2328 
Q 4678 1225 4090 567 
Q 3503 -91 2522 -91 
Q 1538 -91 948 565 
Q 359 1222 359 2328 
Q 359 3434 948 4092 
Q 1538 4750 2522 4750 
z
" transform="scale(0.015625)"/>
      <path id="DejaVuSans-38" d="M 2034 2216 
Q 1584 2216 1326 1975 
Q 1069 1734 1069 1313 
Q 1069 891 1326 650 
Q 1584 409 2034 409 
Q 2484 409 2743 651 
Q 3003 894 3003 1313 
Q 3003 1734 2745 1975 
Q 2488 2216 2034 2216 
z
M 1403 2484 
Q 997 2584 770 2862 
Q 544 3141 544 3541 
Q 544 4100 942 4425 
Q 1341 4750 2034 4750 
Q 2731 4750 3128 4425 
Q 3525 4100 3525 3541 
Q 3525 3141 3298 2862 
Q 3072 2584 2669 2484 
Q 3125 2378 3379 2068 
Q 3634 1759 3634 1313 
Q 3634 634 3220 271 
Q 2806 -91 2034 -91 
Q 1263 -91 848 271 
Q 434 634 434 1313 
Q 434 1759 690 2068 
Q 947 2378 1403 2484 
z
M 1172 3481 
Q 1172 3119 1398 2916 
Q 1625 2713 2034 2713 
Q 2441 2713 2670 2916 
Q 2900 3119 2900 3481 
Q 2900 3844 2670 4047 
Q 2441 4250 2034 4250 
Q 1625 4250 1398 4047 
Q 1172 3844 1172 3481 
z
" transform="scale(0.015625)"/>
      <path id="DejaVuSans-53" d="M 3425 4513 
L 3425 3897 
Q 3066 4069 2747 4153 
Q 2428 4238 2131 4238 
Q 1616 4238 1336 4038 
Q 1056 3838 1056 3469 
Q 1056 3159 1242 3001 
Q 1428 2844 1947 2747 
L 2328 2669 
Q 3034 2534 3370 2195 
Q 3706 1856 3706 1288 
Q 3706 609 3251 259 
Q 2797 -91 1919 -91 
Q 1588 -91 1214 -16 
Q 841 59 441 206 
L 441 856 
Q 825 641 1194 531 
Q 1563 422 1919 422 
Q 2459 422 2753 634 
Q 3047 847 3047 1241 
Q 3047 1584 2836 1778 
Q 2625 1972 2144 2069 
L 1759 2144 
Q 1053 2284 737 2584 
Q 422 2884 422 3419 
Q 422 4038 858 4394 
Q 1294 4750 2059 4750 
Q 2388 4750 2728 4690 
Q 3069 4631 3425 4513 
z
" transform="scale(0.015625)"/>
     </defs>
     <use xlink:href="#DejaVuSans-43"/>
     <use xlink:href="#DejaVuSans-32" transform="translate(69.824219 0)"/>
     <use xlink:href="#DejaVuSans-48" transform="translate(133.447266 0)"/>
     <use xlink:href="#DejaVuSans-36" transform="translate(208.642578 0)"/>
     <use xlink:href="#DejaVuSans-49" transform="translate(272.265625 0)"/>
     <use xlink:href="#DejaVuSans-72" transform="translate(301.757812 0)"/>
     <use xlink:href="#DejaVuSans-34" transform="translate(342.871094 0)"/>
     <use xlink:href="#DejaVuSans-30" transform="translate(406.494141 0)"/>
     <use xlink:href="#DejaVuSans-4f" transform="translate(470.117188 0)"/>
     <use xlink:href="#DejaVuSans-38" transform="translate(548.828125 0)"/>
     <use xlink:href="#DejaVuSans-30" transform="translate(612.451172 0)"/>
     <use xlink:href="#DejaVuSans-53" transform="translate(676.074219 0)"/>
    </g>
    <!-- Error: 3.70 eV -->
    <g transform="translate(149.865804 61.648332) scale(0.1 -0.1)">
     <defs>
      <path id="DejaVuSans-45" d="M 628 4666 
L 3578 4666 
L 3578 4134 
L 1259 4134 
L 1259 2753 
L 3481 2753 
L 3481 2222 
L 1259 2222 
L 1259 531 
L 3634 531 
L 3634 0 
L 628 0 
L 628 4666 
z
" transform="scale(0.015625)"/>
      <path id="DejaVuSans-6f" d="M 1959 3097 
Q 1497 3097 1228 2736 
Q 959 2375 959 1747 
Q 959 1119 1226 758 
Q 1494 397 1959 397 
Q 2419 397 2687 759 
Q 2956 1122 2956 1747 
Q 2956 2369 2687 2733 
Q 2419 3097 1959 3097 
z
M 1959 3584 
Q 2709 3584 3137 3096 
Q 3566 2609 3566 1747 
Q 3566 888 3137 398 
Q 2709 -91 1959 -91 
Q 1206 -91 779 398 
Q 353 888 353 1747 
Q 353 2609 779 3096 
Q 1206 3584 1959 3584 
z
" transform="scale(0.015625)"/>
      <path id="DejaVuSans-3a" d="M 750 794 
L 1409 794 
L 1409 0 
L 750 0 
L 750 794 
z
M 750 3309 
L 1409 3309 
L 1409 2516 
L 750 2516 
L 750 3309 
z
" transform="scale(0.015625)"/>
      <path id="DejaVuSans-20" transform="scale(0.015625)"/>
      <path id="DejaVuSans-33" d="M 2597 2516 
Q 3050 2419 3304 2112 
Q 3559 1806 3559 1356 
Q 3559 666 3084 287 
Q 2609 -91 1734 -91 
Q 1441 -91 1130 -33 
Q 819 25 488 141 
L 488 750 
Q 750 597 1062 519 
Q 1375 441 1716 441 
Q 2309 441 2620 675 
Q 2931 909 2931 1356 
Q 2931 1769 2642 2001 
Q 2353 2234 1838 2234 
L 1294 2234 
L 1294 2753 
L 1863 2753 
Q 2328 2753 2575 2939 
Q 2822 3125 2822 3475 
Q 2822 3834 2567 4026 
Q 2313 4219 1838 4219 
Q 1578 4219 1281 4162 
Q 984 4106 628 3988 
L 628 4550 
Q 988 4650 1302 4700 
Q 1616 4750 1894 4750 
Q 2613 4750 3031 4423 
Q 3450 4097 3450 3541 
Q 3450 3153 3228 2886 
Q 3006 2619 2597 2516 
z
" transform="scale(0.015625)"/>
      <path id="DejaVuSans-2e" d="M 684 794 
L 1344 794 
L 1344 0 
L 684 0 
L 684 794 
z
" transform="scale(0.015625)"/>
      <path id="DejaVuSans-37" d="M 525 4666 
L 3525 4666 
L 3525 4397 
L 1831 0 
L 1172 0 
L 2766 4134 
L 525 4134 
L 525 4666 
z
" transform="scale(0.015625)"/>
      <path id="DejaVuSans-65" d="M 3597 1894 
L 3597 1613 
L 953 1613 
Q 991 1019 1311 708 
Q 1631 397 2203 397 
Q 2534 397 2845 478 
Q 3156 559 3463 722 
L 3463 178 
Q 3153 47 2828 -22 
Q 2503 -91 2169 -91 
Q 1331 -91 842 396 
Q 353 884 353 1716 
Q 353 2575 817 3079 
Q 1281 3584 2069 3584 
Q 2775 3584 3186 3129 
Q 3597 2675 3597 1894 
z
M 3022 2063 
Q 3016 2534 2758 2815 
Q 2500 3097 2075 3097 
Q 1594 3097 1305 2825 
Q 1016 2553 972 2059 
L 3022 2063 
z
" transform="scale(0.015625)"/>
      <path id="DejaVuSans-56" d="M 1831 0 
L 50 4666 
L 709 4666 
L 2188 738 
L 3669 4666 
L 4325 4666 
L 2547 0 
L 1831 0 
z
" transform="scale(0.015625)"/>
     </defs>
     <use xlink:href="#DejaVuSans-45"/>
     <use xlink:href="#DejaVuSans-72" transform="translate(63.183594 0)"/>
     <use xlink:href="#DejaVuSans-72" transform="translate(102.546875 0)"/>
     <use xlink:href="#DejaVuSans-6f" transform="translate(141.410156 0)"/>
     <use xlink:href="#DejaVuSans-72" transform="translate(202.591797 0)"/>
     <use xlink:href="#DejaVuSans-3a" transform="translate(241.955078 0)"/>
     <use xlink:href="#DejaVuSans-20" transform="translate(275.646484 0)"/>
     <use xlink:href="#DejaVuSans-33" transform="translate(307.433594 0)"/>
     <use xlink:href="#DejaVuSans-2e" transform="translate(371.056641 0)"/>
     <use xlink:href="#DejaVuSans-37" transform="translate(402.84375 0)"/>
     <use xlink:href="#DejaVuSans-30" transform="translate(466.466797 0)"/>
     <use xlink:href="#DejaVuSans-20" transform="translate(530.089844 0)"/>
     <use xlink:href="#DejaVuSans-65" transform="translate(561.876953 0)"/>
     <use xlink:href="#DejaVuSans-56" transform="translate(623.400391 0)"/>
    </g>
   </g>
  </g>
 </g>
 <defs>
  <clipPath id="p9247559313">
   <rect x="36" y="34.56" width="223.2" height="221.76"/>
  </clipPath>
 </defs>
</svg>
