<?xml version="1.0" encoding="utf-8" standalone="no"?>
<!DOCTYPE svg PUBLIC "-//W3C//DTD SVG 1.1//EN"
  "http://www.w3.org/Graphics/SVG/1.1/DTD/svg11.dtd">
<svg xmlns:xlink="http://www.w3.org/1999/xlink" width="288pt" height="288pt" viewBox="0 0 288 288" xmlns="http://www.w3.org/2000/svg" version="1.1">
 <metadata>
  <rdf:RDF xmlns:dc="http://purl.org/dc/elements/1.1/" xmlns:cc="http://creativecommons.org/ns#" xmlns:rdf="http://www.w3.org/1999/02/22-rdf-syntax-ns#">
   <cc:Work>
    <dc:type rdf:resource="http://purl.org/dc/dcmitype/StillImage"/>
    <dc:date>2025-05-20T16:58:04.536958</dc:date>
    <dc:format>image/svg+xml</dc:format>
    <dc:creator>
     <cc:Agent>
      <dc:title>Matplotlib v3.10.1, https://matplotlib.org/</dc:title>
     </cc:Agent>
    </dc:creator>
   </cc:Work>
  </rdf:RDF>
 </metadata>
 <defs>
  <style type="text/css">*{stroke-linejoin: round; stroke-linecap: butt}</style>
 </defs>
 <g id="figure_1">
  <g id="patch_1">
   <path d="M 0 288 
L 288 288 
L 288 0 
L 0 0 
z
" style="fill: #ffffff"/>
  </g>
  <g id="axes_1">
   <g id="LineCollection_1">
    <path d="M 149.955504 74.680115 
L 174.604926 101.050718 
" clip-path="url(#pcd8dfbd609)" style="fill: none; stroke: #000000; stroke-width: 1.2"/>
    <path d="M 149.955504 74.680115 
L 97.564964 62.354348 
" clip-path="url(#pcd8dfbd609)" style="fill: none; stroke: #000000; stroke-width: 1.2"/>
    <path d="M 149.955504 74.680115 
L 136.523986 58.116139 
" clip-path="url(#pcd8dfbd609)" style="fill: none; stroke: #000000; stroke-width: 1.2"/>
    <path d="M 149.955504 74.680115 
L 166.137014 77.830924 
" clip-path="url(#pcd8dfbd609)" style="fill: none; stroke: #000000; stroke-width: 1.2"/>
    <path d="M 149.955504 74.680115 
L 105.364959 108.945456 
" clip-path="url(#pcd8dfbd609)" style="fill: none; stroke: #000000; stroke-width: 1.2"/>
    <path d="M 149.955504 74.680115 
L 156.181436 121.981604 
" clip-path="url(#pcd8dfbd609)" style="fill: none; stroke: #000000; stroke-width: 1.2"/>
    <path d="M 149.955504 74.680115 
L 130.803677 111.091041 
" clip-path="url(#pcd8dfbd609)" style="fill: none; stroke: #000000; stroke-width: 1.2"/>
    <path d="M 174.604926 101.050718 
L 166.137014 77.830924 
" clip-path="url(#pcd8dfbd609)" style="fill: none; stroke: #000000; stroke-width: 1.2"/>
    <path d="M 174.604926 101.050718 
L 116.259272 96.565791 
" clip-path="url(#pcd8dfbd609)" style="fill: none; stroke: #000000; stroke-width: 1.2"/>
    <path d="M 174.604926 101.050718 
L 125.686217 132.367924 
" clip-path="url(#pcd8dfbd609)" style="fill: none; stroke: #000000; stroke-width: 1.2"/>
    <path d="M 174.604926 101.050718 
L 156.181436 121.981604 
" clip-path="url(#pcd8dfbd609)" style="fill: none; stroke: #000000; stroke-width: 1.2"/>
    <path d="M 97.564964 62.354348 
L 136.523986 58.116139 
" clip-path="url(#pcd8dfbd609)" style="fill: none; stroke: #000000; stroke-width: 1.2"/>
    <path d="M 97.564964 62.354348 
L 69.815288 96.917283 
" clip-path="url(#pcd8dfbd609)" style="fill: none; stroke: #000000; stroke-width: 1.2"/>
    <path d="M 97.564964 62.354348 
L 77.362583 120.770012 
" clip-path="url(#pcd8dfbd609)" style="fill: none; stroke: #000000; stroke-width: 1.2"/>
    <path d="M 97.564964 62.354348 
L 130.803677 111.091041 
" clip-path="url(#pcd8dfbd609)" style="fill: none; stroke: #000000; stroke-width: 1.2"/>
    <path d="M 136.523986 58.116139 
L 166.137014 77.830924 
" clip-path="url(#pcd8dfbd609)" style="fill: none; stroke: #000000; stroke-width: 1.2"/>
    <path d="M 136.523986 58.116139 
L 112.887647 53.803636 
" clip-path="url(#pcd8dfbd609)" style="fill: none; stroke: #000000; stroke-width: 1.2"/>
    <path d="M 136.523986 58.116139 
L 130.803677 111.091041 
" clip-path="url(#pcd8dfbd609)" style="fill: none; stroke: #000000; stroke-width: 1.2"/>
    <path d="M 136.523986 58.116139 
L 97.704204 93.810325 
" clip-path="url(#pcd8dfbd609)" style="fill: none; stroke: #000000; stroke-width: 1.2"/>
    <path d="M 136.523986 58.116139 
L 134.789601 96.426997 
" clip-path="url(#pcd8dfbd609)" style="fill: none; stroke: #000000; stroke-width: 1.2"/>
    <path d="M 166.137014 77.830924 
L 112.887647 53.803636 
" clip-path="url(#pcd8dfbd609)" style="fill: none; stroke: #000000; stroke-width: 1.2"/>
    <path d="M 166.137014 77.830924 
L 156.181436 121.981604 
" clip-path="url(#pcd8dfbd609)" style="fill: none; stroke: #000000; stroke-width: 1.2"/>
    <path d="M 166.137014 77.830924 
L 134.789601 96.426997 
" clip-path="url(#pcd8dfbd609)" style="fill: none; stroke: #000000; stroke-width: 1.2"/>
    <path d="M 166.137014 77.830924 
L 118.49118 118.582696 
" clip-path="url(#pcd8dfbd609)" style="fill: none; stroke: #000000; stroke-width: 1.2"/>
    <path d="M 112.887647 53.803636 
L 76.826549 79.780659 
" clip-path="url(#pcd8dfbd609)" style="fill: none; stroke: #000000; stroke-width: 1.2"/>
    <path d="M 112.887647 53.803636 
L 134.789601 96.426997 
" clip-path="url(#pcd8dfbd609)" style="fill: none; stroke: #000000; stroke-width: 1.2"/>
    <path d="M 112.887647 53.803636 
L 81.931833 103.446803 
" clip-path="url(#pcd8dfbd609)" style="fill: none; stroke: #000000; stroke-width: 1.2"/>
    <path d="M 116.259272 96.565791 
L 76.826549 79.780659 
" clip-path="url(#pcd8dfbd609)" style="fill: none; stroke: #000000; stroke-width: 1.2"/>
    <path d="M 116.259272 96.565791 
L 69.815288 96.917283 
" clip-path="url(#pcd8dfbd609)" style="fill: none; stroke: #000000; stroke-width: 1.2"/>
    <path d="M 116.259272 96.565791 
L 125.686217 132.367924 
" clip-path="url(#pcd8dfbd609)" style="fill: none; stroke: #000000; stroke-width: 1.2"/>
    <path d="M 116.259272 96.565791 
L 156.181436 121.981604 
" clip-path="url(#pcd8dfbd609)" style="fill: none; stroke: #000000; stroke-width: 1.2"/>
    <path d="M 116.259272 96.565791 
L 97.704204 93.810325 
" clip-path="url(#pcd8dfbd609)" style="fill: none; stroke: #000000; stroke-width: 1.2"/>
    <path d="M 116.259272 96.565791 
L 118.49118 118.582696 
" clip-path="url(#pcd8dfbd609)" style="fill: none; stroke: #000000; stroke-width: 1.2"/>
    <path d="M 116.259272 96.565791 
L 78.18682 146.642339 
" clip-path="url(#pcd8dfbd609)" style="fill: none; stroke: #000000; stroke-width: 1.2"/>
    <path d="M 116.259272 96.565791 
L 55.368595 117.390882 
" clip-path="url(#pcd8dfbd609)" style="fill: none; stroke: #000000; stroke-width: 1.2"/>
    <path d="M 116.259272 96.565791 
L 124.619541 151.427057 
" clip-path="url(#pcd8dfbd609)" style="fill: none; stroke: #000000; stroke-width: 1.2"/>
    <path d="M 76.826549 79.780659 
L 69.815288 96.917283 
" clip-path="url(#pcd8dfbd609)" style="fill: none; stroke: #000000; stroke-width: 1.2"/>
    <path d="M 76.826549 79.780659 
L 105.364959 108.945456 
" clip-path="url(#pcd8dfbd609)" style="fill: none; stroke: #000000; stroke-width: 1.2"/>
    <path d="M 76.826549 79.780659 
L 97.704204 93.810325 
" clip-path="url(#pcd8dfbd609)" style="fill: none; stroke: #000000; stroke-width: 1.2"/>
    <path d="M 76.826549 79.780659 
L 134.789601 96.426997 
" clip-path="url(#pcd8dfbd609)" style="fill: none; stroke: #000000; stroke-width: 1.2"/>
    <path d="M 76.826549 79.780659 
L 81.931833 103.446803 
" clip-path="url(#pcd8dfbd609)" style="fill: none; stroke: #000000; stroke-width: 1.2"/>
    <path d="M 76.826549 79.780659 
L 55.368595 117.390882 
" clip-path="url(#pcd8dfbd609)" style="fill: none; stroke: #000000; stroke-width: 1.2"/>
    <path d="M 76.826549 79.780659 
L 57.786418 136.844067 
" clip-path="url(#pcd8dfbd609)" style="fill: none; stroke: #000000; stroke-width: 1.2"/>
    <path d="M 76.826549 79.780659 
L 98.407696 129.323142 
" clip-path="url(#pcd8dfbd609)" style="fill: none; stroke: #000000; stroke-width: 1.2"/>
    <path d="M 69.815288 96.917283 
L 105.364959 108.945456 
" clip-path="url(#pcd8dfbd609)" style="fill: none; stroke: #000000; stroke-width: 1.2"/>
    <path d="M 69.815288 96.917283 
L 77.362583 120.770012 
" clip-path="url(#pcd8dfbd609)" style="fill: none; stroke: #000000; stroke-width: 1.2"/>
    <path d="M 69.815288 96.917283 
L 130.803677 111.091041 
" clip-path="url(#pcd8dfbd609)" style="fill: none; stroke: #000000; stroke-width: 1.2"/>
    <path d="M 69.815288 96.917283 
L 118.49118 118.582696 
" clip-path="url(#pcd8dfbd609)" style="fill: none; stroke: #000000; stroke-width: 1.2"/>
    <path d="M 69.815288 96.917283 
L 55.368595 117.390882 
" clip-path="url(#pcd8dfbd609)" style="fill: none; stroke: #000000; stroke-width: 1.2"/>
    <path d="M 69.815288 96.917283 
L 91.480642 148.255262 
" clip-path="url(#pcd8dfbd609)" style="fill: none; stroke: #000000; stroke-width: 1.2"/>
    <path d="M 69.815288 96.917283 
L 61.031628 151.127686 
" clip-path="url(#pcd8dfbd609)" style="fill: none; stroke: #000000; stroke-width: 1.2"/>
    <path d="M 105.364959 108.945456 
L 125.686217 132.367924 
" clip-path="url(#pcd8dfbd609)" style="fill: none; stroke: #000000; stroke-width: 1.2"/>
    <path d="M 105.364959 108.945456 
L 156.181436 121.981604 
" clip-path="url(#pcd8dfbd609)" style="fill: none; stroke: #000000; stroke-width: 1.2"/>
    <path d="M 105.364959 108.945456 
L 130.803677 111.091041 
" clip-path="url(#pcd8dfbd609)" style="fill: none; stroke: #000000; stroke-width: 1.2"/>
    <path d="M 105.364959 108.945456 
L 81.931833 103.446803 
" clip-path="url(#pcd8dfbd609)" style="fill: none; stroke: #000000; stroke-width: 1.2"/>
    <path d="M 105.364959 108.945456 
L 91.480642 148.255262 
" clip-path="url(#pcd8dfbd609)" style="fill: none; stroke: #000000; stroke-width: 1.2"/>
    <path d="M 105.364959 108.945456 
L 57.786418 136.844067 
" clip-path="url(#pcd8dfbd609)" style="fill: none; stroke: #000000; stroke-width: 1.2"/>
    <path d="M 105.364959 108.945456 
L 118.797047 169.876581 
" clip-path="url(#pcd8dfbd609)" style="fill: none; stroke: #000000; stroke-width: 1.2"/>
    <path d="M 125.686217 132.367924 
L 156.181436 121.981604 
" clip-path="url(#pcd8dfbd609)" style="fill: none; stroke: #000000; stroke-width: 1.2"/>
    <path d="M 125.686217 132.367924 
L 77.362583 120.770012 
" clip-path="url(#pcd8dfbd609)" style="fill: none; stroke: #000000; stroke-width: 1.2"/>
    <path d="M 125.686217 132.367924 
L 97.704204 93.810325 
" clip-path="url(#pcd8dfbd609)" style="fill: none; stroke: #000000; stroke-width: 1.2"/>
    <path d="M 125.686217 132.367924 
L 81.931833 103.446803 
" clip-path="url(#pcd8dfbd609)" style="fill: none; stroke: #000000; stroke-width: 1.2"/>
    <path d="M 125.686217 132.367924 
L 78.18682 146.642339 
" clip-path="url(#pcd8dfbd609)" style="fill: none; stroke: #000000; stroke-width: 1.2"/>
    <path d="M 125.686217 132.367924 
L 118.797047 169.876581 
" clip-path="url(#pcd8dfbd609)" style="fill: none; stroke: #000000; stroke-width: 1.2"/>
    <path d="M 125.686217 132.367924 
L 74.651783 168.38691 
" clip-path="url(#pcd8dfbd609)" style="fill: none; stroke: #000000; stroke-width: 1.2"/>
    <path d="M 156.181436 121.981604 
L 130.803677 111.091041 
" clip-path="url(#pcd8dfbd609)" style="fill: none; stroke: #000000; stroke-width: 1.2"/>
    <path d="M 156.181436 121.981604 
L 134.789601 96.426997 
" clip-path="url(#pcd8dfbd609)" style="fill: none; stroke: #000000; stroke-width: 1.2"/>
    <path d="M 156.181436 121.981604 
L 118.49118 118.582696 
" clip-path="url(#pcd8dfbd609)" style="fill: none; stroke: #000000; stroke-width: 1.2"/>
    <path d="M 156.181436 121.981604 
L 118.797047 169.876581 
" clip-path="url(#pcd8dfbd609)" style="fill: none; stroke: #000000; stroke-width: 1.2"/>
    <path d="M 156.181436 121.981604 
L 124.619541 151.427057 
" clip-path="url(#pcd8dfbd609)" style="fill: none; stroke: #000000; stroke-width: 1.2"/>
    <path d="M 156.181436 121.981604 
L 149.248317 151.949236 
" clip-path="url(#pcd8dfbd609)" style="fill: none; stroke: #000000; stroke-width: 1.2"/>
    <path d="M 77.362583 120.770012 
L 130.803677 111.091041 
" clip-path="url(#pcd8dfbd609)" style="fill: none; stroke: #000000; stroke-width: 1.2"/>
    <path d="M 77.362583 120.770012 
L 97.704204 93.810325 
" clip-path="url(#pcd8dfbd609)" style="fill: none; stroke: #000000; stroke-width: 1.2"/>
    <path d="M 77.362583 120.770012 
L 118.49118 118.582696 
" clip-path="url(#pcd8dfbd609)" style="fill: none; stroke: #000000; stroke-width: 1.2"/>
    <path d="M 77.362583 120.770012 
L 81.931833 103.446803 
" clip-path="url(#pcd8dfbd609)" style="fill: none; stroke: #000000; stroke-width: 1.2"/>
    <path d="M 77.362583 120.770012 
L 61.031628 151.127686 
" clip-path="url(#pcd8dfbd609)" style="fill: none; stroke: #000000; stroke-width: 1.2"/>
    <path d="M 77.362583 120.770012 
L 104.48476 165.322405 
" clip-path="url(#pcd8dfbd609)" style="fill: none; stroke: #000000; stroke-width: 1.2"/>
    <path d="M 77.362583 120.770012 
L 74.651783 168.38691 
" clip-path="url(#pcd8dfbd609)" style="fill: none; stroke: #000000; stroke-width: 1.2"/>
    <path d="M 130.803677 111.091041 
L 97.704204 93.810325 
" clip-path="url(#pcd8dfbd609)" style="fill: none; stroke: #000000; stroke-width: 1.2"/>
    <path d="M 130.803677 111.091041 
L 134.789601 96.426997 
" clip-path="url(#pcd8dfbd609)" style="fill: none; stroke: #000000; stroke-width: 1.2"/>
    <path d="M 130.803677 111.091041 
L 91.480642 148.255262 
" clip-path="url(#pcd8dfbd609)" style="fill: none; stroke: #000000; stroke-width: 1.2"/>
    <path d="M 130.803677 111.091041 
L 104.48476 165.322405 
" clip-path="url(#pcd8dfbd609)" style="fill: none; stroke: #000000; stroke-width: 1.2"/>
    <path d="M 130.803677 111.091041 
L 149.248317 151.949236 
" clip-path="url(#pcd8dfbd609)" style="fill: none; stroke: #000000; stroke-width: 1.2"/>
    <path d="M 97.704204 93.810325 
L 134.789601 96.426997 
" clip-path="url(#pcd8dfbd609)" style="fill: none; stroke: #000000; stroke-width: 1.2"/>
    <path d="M 97.704204 93.810325 
L 78.18682 146.642339 
" clip-path="url(#pcd8dfbd609)" style="fill: none; stroke: #000000; stroke-width: 1.2"/>
    <path d="M 97.704204 93.810325 
L 104.48476 165.322405 
" clip-path="url(#pcd8dfbd609)" style="fill: none; stroke: #000000; stroke-width: 1.2"/>
    <path d="M 97.704204 93.810325 
L 98.407696 129.323142 
" clip-path="url(#pcd8dfbd609)" style="fill: none; stroke: #000000; stroke-width: 1.2"/>
    <path d="M 134.789601 96.426997 
L 118.49118 118.582696 
" clip-path="url(#pcd8dfbd609)" style="fill: none; stroke: #000000; stroke-width: 1.2"/>
    <path d="M 134.789601 96.426997 
L 81.931833 103.446803 
" clip-path="url(#pcd8dfbd609)" style="fill: none; stroke: #000000; stroke-width: 1.2"/>
    <path d="M 134.789601 96.426997 
L 98.407696 129.323142 
" clip-path="url(#pcd8dfbd609)" style="fill: none; stroke: #000000; stroke-width: 1.2"/>
    <path d="M 134.789601 96.426997 
L 149.248317 151.949236 
" clip-path="url(#pcd8dfbd609)" style="fill: none; stroke: #000000; stroke-width: 1.2"/>
    <path d="M 134.789601 96.426997 
L 104.970389 154.869365 
" clip-path="url(#pcd8dfbd609)" style="fill: none; stroke: #000000; stroke-width: 1.2"/>
    <path d="M 118.49118 118.582696 
L 81.931833 103.446803 
" clip-path="url(#pcd8dfbd609)" style="fill: none; stroke: #000000; stroke-width: 1.2"/>
    <path d="M 118.49118 118.582696 
L 124.619541 151.427057 
" clip-path="url(#pcd8dfbd609)" style="fill: none; stroke: #000000; stroke-width: 1.2"/>
    <path d="M 118.49118 118.582696 
L 61.031628 151.127686 
" clip-path="url(#pcd8dfbd609)" style="fill: none; stroke: #000000; stroke-width: 1.2"/>
    <path d="M 118.49118 118.582696 
L 104.970389 154.869365 
" clip-path="url(#pcd8dfbd609)" style="fill: none; stroke: #000000; stroke-width: 1.2"/>
    <path d="M 81.931833 103.446803 
L 57.786418 136.844067 
" clip-path="url(#pcd8dfbd609)" style="fill: none; stroke: #000000; stroke-width: 1.2"/>
    <path d="M 81.931833 103.446803 
L 104.970389 154.869365 
" clip-path="url(#pcd8dfbd609)" style="fill: none; stroke: #000000; stroke-width: 1.2"/>
    <path d="M 81.931833 103.446803 
L 74.651783 168.38691 
" clip-path="url(#pcd8dfbd609)" style="fill: none; stroke: #000000; stroke-width: 1.2"/>
    <path d="M 78.18682 146.642339 
L 55.368595 117.390882 
" clip-path="url(#pcd8dfbd609)" style="fill: none; stroke: #000000; stroke-width: 1.2"/>
    <path d="M 78.18682 146.642339 
L 118.797047 169.876581 
" clip-path="url(#pcd8dfbd609)" style="fill: none; stroke: #000000; stroke-width: 1.2"/>
    <path d="M 78.18682 146.642339 
L 124.619541 151.427057 
" clip-path="url(#pcd8dfbd609)" style="fill: none; stroke: #000000; stroke-width: 1.2"/>
    <path d="M 78.18682 146.642339 
L 104.48476 165.322405 
" clip-path="url(#pcd8dfbd609)" style="fill: none; stroke: #000000; stroke-width: 1.2"/>
    <path d="M 78.18682 146.642339 
L 98.407696 129.323142 
" clip-path="url(#pcd8dfbd609)" style="fill: none; stroke: #000000; stroke-width: 1.2"/>
    <path d="M 78.18682 146.642339 
L 74.651783 168.38691 
" clip-path="url(#pcd8dfbd609)" style="fill: none; stroke: #000000; stroke-width: 1.2"/>
    <path d="M 55.368595 117.390882 
L 91.480642 148.255262 
" clip-path="url(#pcd8dfbd609)" style="fill: none; stroke: #000000; stroke-width: 1.2"/>
    <path d="M 55.368595 117.390882 
L 57.786418 136.844067 
" clip-path="url(#pcd8dfbd609)" style="fill: none; stroke: #000000; stroke-width: 1.2"/>
    <path d="M 55.368595 117.390882 
L 124.619541 151.427057 
" clip-path="url(#pcd8dfbd609)" style="fill: none; stroke: #000000; stroke-width: 1.2"/>
    <path d="M 55.368595 117.390882 
L 61.031628 151.127686 
" clip-path="url(#pcd8dfbd609)" style="fill: none; stroke: #000000; stroke-width: 1.2"/>
    <path d="M 55.368595 117.390882 
L 98.407696 129.323142 
" clip-path="url(#pcd8dfbd609)" style="fill: none; stroke: #000000; stroke-width: 1.2"/>
    <path d="M 91.480642 148.255262 
L 57.786418 136.844067 
" clip-path="url(#pcd8dfbd609)" style="fill: none; stroke: #000000; stroke-width: 1.2"/>
    <path d="M 91.480642 148.255262 
L 118.797047 169.876581 
" clip-path="url(#pcd8dfbd609)" style="fill: none; stroke: #000000; stroke-width: 1.2"/>
    <path d="M 91.480642 148.255262 
L 61.031628 151.127686 
" clip-path="url(#pcd8dfbd609)" style="fill: none; stroke: #000000; stroke-width: 1.2"/>
    <path d="M 91.480642 148.255262 
L 104.48476 165.322405 
" clip-path="url(#pcd8dfbd609)" style="fill: none; stroke: #000000; stroke-width: 1.2"/>
    <path d="M 91.480642 148.255262 
L 149.248317 151.949236 
" clip-path="url(#pcd8dfbd609)" style="fill: none; stroke: #000000; stroke-width: 1.2"/>
    <path d="M 57.786418 136.844067 
L 118.797047 169.876581 
" clip-path="url(#pcd8dfbd609)" style="fill: none; stroke: #000000; stroke-width: 1.2"/>
    <path d="M 57.786418 136.844067 
L 98.407696 129.323142 
" clip-path="url(#pcd8dfbd609)" style="fill: none; stroke: #000000; stroke-width: 1.2"/>
    <path d="M 57.786418 136.844067 
L 104.970389 154.869365 
" clip-path="url(#pcd8dfbd609)" style="fill: none; stroke: #000000; stroke-width: 1.2"/>
    <path d="M 57.786418 136.844067 
L 74.651783 168.38691 
" clip-path="url(#pcd8dfbd609)" style="fill: none; stroke: #000000; stroke-width: 1.2"/>
    <path d="M 118.797047 169.876581 
L 124.619541 151.427057 
" clip-path="url(#pcd8dfbd609)" style="fill: none; stroke: #000000; stroke-width: 1.2"/>
    <path d="M 118.797047 169.876581 
L 149.248317 151.949236 
" clip-path="url(#pcd8dfbd609)" style="fill: none; stroke: #000000; stroke-width: 1.2"/>
    <path d="M 118.797047 169.876581 
L 74.651783 168.38691 
" clip-path="url(#pcd8dfbd609)" style="fill: none; stroke: #000000; stroke-width: 1.2"/>
    <path d="M 124.619541 151.427057 
L 61.031628 151.127686 
" clip-path="url(#pcd8dfbd609)" style="fill: none; stroke: #000000; stroke-width: 1.2"/>
    <path d="M 124.619541 151.427057 
L 149.248317 151.949236 
" clip-path="url(#pcd8dfbd609)" style="fill: none; stroke: #000000; stroke-width: 1.2"/>
    <path d="M 124.619541 151.427057 
L 104.970389 154.869365 
" clip-path="url(#pcd8dfbd609)" style="fill: none; stroke: #000000; stroke-width: 1.2"/>
    <path d="M 61.031628 151.127686 
L 104.48476 165.322405 
" clip-path="url(#pcd8dfbd609)" style="fill: none; stroke: #000000; stroke-width: 1.2"/>
    <path d="M 61.031628 151.127686 
L 104.970389 154.869365 
" clip-path="url(#pcd8dfbd609)" style="fill: none; stroke: #000000; stroke-width: 1.2"/>
    <path d="M 61.031628 151.127686 
L 74.651783 168.38691 
" clip-path="url(#pcd8dfbd609)" style="fill: none; stroke: #000000; stroke-width: 1.2"/>
    <path d="M 104.48476 165.322405 
L 98.407696 129.323142 
" clip-path="url(#pcd8dfbd609)" style="fill: none; stroke: #000000; stroke-width: 1.2"/>
    <path d="M 104.48476 165.322405 
L 149.248317 151.949236 
" clip-path="url(#pcd8dfbd609)" style="fill: none; stroke: #000000; stroke-width: 1.2"/>
    <path d="M 104.48476 165.322405 
L 74.651783 168.38691 
" clip-path="url(#pcd8dfbd609)" style="fill: none; stroke: #000000; stroke-width: 1.2"/>
    <path d="M 98.407696 129.323142 
L 149.248317 151.949236 
" clip-path="url(#pcd8dfbd609)" style="fill: none; stroke: #000000; stroke-width: 1.2"/>
    <path d="M 98.407696 129.323142 
L 104.970389 154.869365 
" clip-path="url(#pcd8dfbd609)" style="fill: none; stroke: #000000; stroke-width: 1.2"/>
    <path d="M 149.248317 151.949236 
L 104.970389 154.869365 
" clip-path="url(#pcd8dfbd609)" style="fill: none; stroke: #000000; stroke-width: 1.2"/>
    <path d="M 149.248317 151.949236 
L 170.654173 194.613411 
" clip-path="url(#pcd8dfbd609)" style="fill: none; stroke: #000000; stroke-width: 1.2"/>
    <path d="M 149.248317 151.949236 
L 194.412183 168.311948 
" clip-path="url(#pcd8dfbd609)" style="fill: none; stroke: #000000; stroke-width: 1.2"/>
    <path d="M 104.970389 154.869365 
L 74.651783 168.38691 
" clip-path="url(#pcd8dfbd609)" style="fill: none; stroke: #000000; stroke-width: 1.2"/>
    <path d="M 182.141863 237.076364 
L 170.654173 194.613411 
" clip-path="url(#pcd8dfbd609)" style="fill: none; stroke: #000000; stroke-width: 1.2"/>
    <path d="M 239.831405 176.98246 
L 194.412183 168.311948 
" clip-path="url(#pcd8dfbd609)" style="fill: none; stroke: #000000; stroke-width: 1.2"/>
    <path d="M 170.654173 194.613411 
L 194.412183 168.311948 
" clip-path="url(#pcd8dfbd609)" style="fill: none; stroke: #000000; stroke-width: 1.2"/>
   </g>
   <g id="PathCollection_1">
    <defs>
     <path id="C0_0_72d8f8a6de" d="M 0 8.944272 
C 2.372049 8.944272 4.647264 8.001847 6.324555 6.324555 
C 8.001847 4.647264 8.944272 2.372049 8.944272 -0 
C 8.944272 -2.372049 8.001847 -4.647264 6.324555 -6.324555 
C 4.647264 -8.001847 2.372049 -8.944272 0 -8.944272 
C -2.372049 -8.944272 -4.647264 -8.001847 -6.324555 -6.324555 
C -8.001847 -4.647264 -8.944272 -2.372049 -8.944272 0 
C -8.944272 2.372049 -8.001847 4.647264 -6.324555 6.324555 
C -4.647264 8.001847 -2.372049 8.944272 0 8.944272 
z
"/>
    </defs>
    <g clip-path="url(#pcd8dfbd609)">
     <use xlink:href="#C0_0_72d8f8a6de" x="149.955504" y="74.680115" style="fill: #175487; stroke: #175487; stroke-width: 0.5"/>
    </g>
    <g clip-path="url(#pcd8dfbd609)">
     <use xlink:href="#C0_0_72d8f8a6de" x="174.604926" y="101.050718" style="fill: #175487; stroke: #175487; stroke-width: 0.5"/>
    </g>
    <g clip-path="url(#pcd8dfbd609)">
     <use xlink:href="#C0_0_72d8f8a6de" x="97.564964" y="62.354348" style="fill: #175487; stroke: #175487; stroke-width: 0.5"/>
    </g>
    <g clip-path="url(#pcd8dfbd609)">
     <use xlink:href="#C0_0_72d8f8a6de" x="136.523986" y="58.116139" style="fill: #175487; stroke: #175487; stroke-width: 0.5"/>
    </g>
    <g clip-path="url(#pcd8dfbd609)">
     <use xlink:href="#C0_0_72d8f8a6de" x="166.137014" y="77.830924" style="fill: #175487; stroke: #175487; stroke-width: 0.5"/>
    </g>
    <g clip-path="url(#pcd8dfbd609)">
     <use xlink:href="#C0_0_72d8f8a6de" x="112.887647" y="53.803636" style="fill: #175487; stroke: #175487; stroke-width: 0.5"/>
    </g>
    <g clip-path="url(#pcd8dfbd609)">
     <use xlink:href="#C0_0_72d8f8a6de" x="116.259272" y="96.565791" style="fill: #175487; stroke: #175487; stroke-width: 0.5"/>
    </g>
    <g clip-path="url(#pcd8dfbd609)">
     <use xlink:href="#C0_0_72d8f8a6de" x="76.826549" y="79.780659" style="fill: #175487; stroke: #175487; stroke-width: 0.5"/>
    </g>
    <g clip-path="url(#pcd8dfbd609)">
     <use xlink:href="#C0_0_72d8f8a6de" x="69.815288" y="96.917283" style="fill: #175487; stroke: #175487; stroke-width: 0.5"/>
    </g>
    <g clip-path="url(#pcd8dfbd609)">
     <use xlink:href="#C0_0_72d8f8a6de" x="105.364959" y="108.945456" style="fill: #175487; stroke: #175487; stroke-width: 0.5"/>
    </g>
    <g clip-path="url(#pcd8dfbd609)">
     <use xlink:href="#C0_0_72d8f8a6de" x="125.686217" y="132.367924" style="fill: #175487; stroke: #175487; stroke-width: 0.5"/>
    </g>
    <g clip-path="url(#pcd8dfbd609)">
     <use xlink:href="#C0_0_72d8f8a6de" x="156.181436" y="121.981604" style="fill: #175487; stroke: #175487; stroke-width: 0.5"/>
    </g>
    <g clip-path="url(#pcd8dfbd609)">
     <use xlink:href="#C0_0_72d8f8a6de" x="77.362583" y="120.770012" style="fill: #175487; stroke: #175487; stroke-width: 0.5"/>
    </g>
    <g clip-path="url(#pcd8dfbd609)">
     <use xlink:href="#C0_0_72d8f8a6de" x="130.803677" y="111.091041" style="fill: #175487; stroke: #175487; stroke-width: 0.5"/>
    </g>
    <g clip-path="url(#pcd8dfbd609)">
     <use xlink:href="#C0_0_72d8f8a6de" x="97.704204" y="93.810325" style="fill: #175487; stroke: #175487; stroke-width: 0.5"/>
    </g>
    <g clip-path="url(#pcd8dfbd609)">
     <use xlink:href="#C0_0_72d8f8a6de" x="134.789601" y="96.426997" style="fill: #175487; stroke: #175487; stroke-width: 0.5"/>
    </g>
    <g clip-path="url(#pcd8dfbd609)">
     <use xlink:href="#C0_0_72d8f8a6de" x="118.49118" y="118.582696" style="fill: #175487; stroke: #175487; stroke-width: 0.5"/>
    </g>
    <g clip-path="url(#pcd8dfbd609)">
     <use xlink:href="#C0_0_72d8f8a6de" x="81.931833" y="103.446803" style="fill: #175487; stroke: #175487; stroke-width: 0.5"/>
    </g>
    <g clip-path="url(#pcd8dfbd609)">
     <use xlink:href="#C0_0_72d8f8a6de" x="78.18682" y="146.642339" style="fill: #175487; stroke: #175487; stroke-width: 0.5"/>
    </g>
    <g clip-path="url(#pcd8dfbd609)">
     <use xlink:href="#C0_0_72d8f8a6de" x="55.368595" y="117.390882" style="fill: #175487; stroke: #175487; stroke-width: 0.5"/>
    </g>
    <g clip-path="url(#pcd8dfbd609)">
     <use xlink:href="#C0_0_72d8f8a6de" x="91.480642" y="148.255262" style="fill: #175487; stroke: #175487; stroke-width: 0.5"/>
    </g>
    <g clip-path="url(#pcd8dfbd609)">
     <use xlink:href="#C0_0_72d8f8a6de" x="57.786418" y="136.844067" style="fill: #175487; stroke: #175487; stroke-width: 0.5"/>
    </g>
    <g clip-path="url(#pcd8dfbd609)">
     <use xlink:href="#C0_0_72d8f8a6de" x="118.797047" y="169.876581" style="fill: #175487; stroke: #175487; stroke-width: 0.5"/>
    </g>
    <g clip-path="url(#pcd8dfbd609)">
     <use xlink:href="#C0_0_72d8f8a6de" x="124.619541" y="151.427057" style="fill: #175487; stroke: #175487; stroke-width: 0.5"/>
    </g>
    <g clip-path="url(#pcd8dfbd609)">
     <use xlink:href="#C0_0_72d8f8a6de" x="61.031628" y="151.127686" style="fill: #175487; stroke: #175487; stroke-width: 0.5"/>
    </g>
    <g clip-path="url(#pcd8dfbd609)">
     <use xlink:href="#C0_0_72d8f8a6de" x="104.48476" y="165.322405" style="fill: #175487; stroke: #175487; stroke-width: 0.5"/>
    </g>
    <g clip-path="url(#pcd8dfbd609)">
     <use xlink:href="#C0_0_72d8f8a6de" x="98.407696" y="129.323142" style="fill: #175487; stroke: #175487; stroke-width: 0.5"/>
    </g>
    <g clip-path="url(#pcd8dfbd609)">
     <use xlink:href="#C0_0_72d8f8a6de" x="149.248317" y="151.949236" style="fill: #175487; stroke: #175487; stroke-width: 0.5"/>
    </g>
    <g clip-path="url(#pcd8dfbd609)">
     <use xlink:href="#C0_0_72d8f8a6de" x="104.970389" y="154.869365" style="fill: #175487; stroke: #175487; stroke-width: 0.5"/>
    </g>
    <g clip-path="url(#pcd8dfbd609)">
     <use xlink:href="#C0_0_72d8f8a6de" x="74.651783" y="168.38691" style="fill: #175487; stroke: #175487; stroke-width: 0.5"/>
    </g>
    <g clip-path="url(#pcd8dfbd609)">
     <use xlink:href="#C0_0_72d8f8a6de" x="182.141863" y="237.076364" style="fill: #bfbfbf; stroke: #bfbfbf; stroke-width: 0.5"/>
    </g>
    <g clip-path="url(#pcd8dfbd609)">
     <use xlink:href="#C0_0_72d8f8a6de" x="239.831405" y="176.98246" style="fill: #bfbfbf; stroke: #bfbfbf; stroke-width: 0.5"/>
    </g>
    <g clip-path="url(#pcd8dfbd609)">
     <use xlink:href="#C0_0_72d8f8a6de" x="170.654173" y="194.613411" style="fill: #666666; stroke: #666666; stroke-width: 0.5"/>
    </g>
    <g clip-path="url(#pcd8dfbd609)">
     <use xlink:href="#C0_0_72d8f8a6de" x="194.412183" y="168.311948" style="fill: #666666; stroke: #666666; stroke-width: 0.5"/>
    </g>
   </g>
   <g id="text_1">
    <g clip-path="url(#pcd8dfbd609)">
     <!-- Ir -->
     <g style="fill: #ffffff" transform="translate(144.764566 77.991365) scale(0.12 -0.12)">
      <defs>
       <path id="DejaVuSans-Bold-49" d="M 588 4666 
L 1791 4666 
L 1791 0 
L 588 0 
L 588 4666 
z
" transform="scale(0.015625)"/>
       <path id="DejaVuSans-Bold-72" d="M 3138 2547 
Q 2991 2616 2845 2648 
Q 2700 2681 2553 2681 
Q 2122 2681 1889 2404 
Q 1656 2128 1656 1613 
L 1656 0 
L 538 0 
L 538 3500 
L 1656 3500 
L 1656 2925 
Q 1872 3269 2151 3426 
Q 2431 3584 2822 3584 
Q 2878 3584 2943 3579 
Q 3009 3575 3134 3559 
L 3138 2547 
z
" transform="scale(0.015625)"/>
      </defs>
      <use xlink:href="#DejaVuSans-Bold-49"/>
      <use xlink:href="#DejaVuSans-Bold-72" transform="translate(37.207031 0)"/>
     </g>
    </g>
   </g>
   <g id="text_2">
    <g clip-path="url(#pcd8dfbd609)">
     <!-- Ir -->
     <g style="fill: #ffffff" transform="translate(169.413988 104.361968) scale(0.12 -0.12)">
      <use xlink:href="#DejaVuSans-Bold-49"/>
      <use xlink:href="#DejaVuSans-Bold-72" transform="translate(37.207031 0)"/>
     </g>
    </g>
   </g>
   <g id="text_3">
    <g clip-path="url(#pcd8dfbd609)">
     <!-- Ir -->
     <g style="fill: #ffffff" transform="translate(92.374026 65.665598) scale(0.12 -0.12)">
      <use xlink:href="#DejaVuSans-Bold-49"/>
      <use xlink:href="#DejaVuSans-Bold-72" transform="translate(37.207031 0)"/>
     </g>
    </g>
   </g>
   <g id="text_4">
    <g clip-path="url(#pcd8dfbd609)">
     <!-- Ir -->
     <g style="fill: #ffffff" transform="translate(131.333048 61.427389) scale(0.12 -0.12)">
      <use xlink:href="#DejaVuSans-Bold-49"/>
      <use xlink:href="#DejaVuSans-Bold-72" transform="translate(37.207031 0)"/>
     </g>
    </g>
   </g>
   <g id="text_5">
    <g clip-path="url(#pcd8dfbd609)">
     <!-- Ir -->
     <g style="fill: #ffffff" transform="translate(160.946076 81.142174) scale(0.12 -0.12)">
      <use xlink:href="#DejaVuSans-Bold-49"/>
      <use xlink:href="#DejaVuSans-Bold-72" transform="translate(37.207031 0)"/>
     </g>
    </g>
   </g>
   <g id="text_6">
    <g clip-path="url(#pcd8dfbd609)">
     <!-- Ir -->
     <g style="fill: #ffffff" transform="translate(107.69671 57.114886) scale(0.12 -0.12)">
      <use xlink:href="#DejaVuSans-Bold-49"/>
      <use xlink:href="#DejaVuSans-Bold-72" transform="translate(37.207031 0)"/>
     </g>
    </g>
   </g>
   <g id="text_7">
    <g clip-path="url(#pcd8dfbd609)">
     <!-- Ir -->
     <g style="fill: #ffffff" transform="translate(111.068335 99.877041) scale(0.12 -0.12)">
      <use xlink:href="#DejaVuSans-Bold-49"/>
      <use xlink:href="#DejaVuSans-Bold-72" transform="translate(37.207031 0)"/>
     </g>
    </g>
   </g>
   <g id="text_8">
    <g clip-path="url(#pcd8dfbd609)">
     <!-- Ir -->
     <g style="fill: #ffffff" transform="translate(71.635611 83.091909) scale(0.12 -0.12)">
      <use xlink:href="#DejaVuSans-Bold-49"/>
      <use xlink:href="#DejaVuSans-Bold-72" transform="translate(37.207031 0)"/>
     </g>
    </g>
   </g>
   <g id="text_9">
    <g clip-path="url(#pcd8dfbd609)">
     <!-- Ir -->
     <g style="fill: #ffffff" transform="translate(64.624351 100.228533) scale(0.12 -0.12)">
      <use xlink:href="#DejaVuSans-Bold-49"/>
      <use xlink:href="#DejaVuSans-Bold-72" transform="translate(37.207031 0)"/>
     </g>
    </g>
   </g>
   <g id="text_10">
    <g clip-path="url(#pcd8dfbd609)">
     <!-- Ir -->
     <g style="fill: #ffffff" transform="translate(100.174021 112.256706) scale(0.12 -0.12)">
      <use xlink:href="#DejaVuSans-Bold-49"/>
      <use xlink:href="#DejaVuSans-Bold-72" transform="translate(37.207031 0)"/>
     </g>
    </g>
   </g>
   <g id="text_11">
    <g clip-path="url(#pcd8dfbd609)">
     <!-- Ir -->
     <g style="fill: #ffffff" transform="translate(120.49528 135.679174) scale(0.12 -0.12)">
      <use xlink:href="#DejaVuSans-Bold-49"/>
      <use xlink:href="#DejaVuSans-Bold-72" transform="translate(37.207031 0)"/>
     </g>
    </g>
   </g>
   <g id="text_12">
    <g clip-path="url(#pcd8dfbd609)">
     <!-- Ir -->
     <g style="fill: #ffffff" transform="translate(150.990498 125.292854) scale(0.12 -0.12)">
      <use xlink:href="#DejaVuSans-Bold-49"/>
      <use xlink:href="#DejaVuSans-Bold-72" transform="translate(37.207031 0)"/>
     </g>
    </g>
   </g>
   <g id="text_13">
    <g clip-path="url(#pcd8dfbd609)">
     <!-- Ir -->
     <g style="fill: #ffffff" transform="translate(72.171645 124.081262) scale(0.12 -0.12)">
      <use xlink:href="#DejaVuSans-Bold-49"/>
      <use xlink:href="#DejaVuSans-Bold-72" transform="translate(37.207031 0)"/>
     </g>
    </g>
   </g>
   <g id="text_14">
    <g clip-path="url(#pcd8dfbd609)">
     <!-- Ir -->
     <g style="fill: #ffffff" transform="translate(125.612739 114.402291) scale(0.12 -0.12)">
      <use xlink:href="#DejaVuSans-Bold-49"/>
      <use xlink:href="#DejaVuSans-Bold-72" transform="translate(37.207031 0)"/>
     </g>
    </g>
   </g>
   <g id="text_15">
    <g clip-path="url(#pcd8dfbd609)">
     <!-- Ir -->
     <g style="fill: #ffffff" transform="translate(92.513266 97.121575) scale(0.12 -0.12)">
      <use xlink:href="#DejaVuSans-Bold-49"/>
      <use xlink:href="#DejaVuSans-Bold-72" transform="translate(37.207031 0)"/>
     </g>
    </g>
   </g>
   <g id="text_16">
    <g clip-path="url(#pcd8dfbd609)">
     <!-- Ir -->
     <g style="fill: #ffffff" transform="translate(129.598663 99.738247) scale(0.12 -0.12)">
      <use xlink:href="#DejaVuSans-Bold-49"/>
      <use xlink:href="#DejaVuSans-Bold-72" transform="translate(37.207031 0)"/>
     </g>
    </g>
   </g>
   <g id="text_17">
    <g clip-path="url(#pcd8dfbd609)">
     <!-- Ir -->
     <g style="fill: #ffffff" transform="translate(113.300243 121.893946) scale(0.12 -0.12)">
      <use xlink:href="#DejaVuSans-Bold-49"/>
      <use xlink:href="#DejaVuSans-Bold-72" transform="translate(37.207031 0)"/>
     </g>
    </g>
   </g>
   <g id="text_18">
    <g clip-path="url(#pcd8dfbd609)">
     <!-- Ir -->
     <g style="fill: #ffffff" transform="translate(76.740895 106.758053) scale(0.12 -0.12)">
      <use xlink:href="#DejaVuSans-Bold-49"/>
      <use xlink:href="#DejaVuSans-Bold-72" transform="translate(37.207031 0)"/>
     </g>
    </g>
   </g>
   <g id="text_19">
    <g clip-path="url(#pcd8dfbd609)">
     <!-- Ir -->
     <g style="fill: #ffffff" transform="translate(72.995882 149.953589) scale(0.12 -0.12)">
      <use xlink:href="#DejaVuSans-Bold-49"/>
      <use xlink:href="#DejaVuSans-Bold-72" transform="translate(37.207031 0)"/>
     </g>
    </g>
   </g>
   <g id="text_20">
    <g clip-path="url(#pcd8dfbd609)">
     <!-- Ir -->
     <g style="fill: #ffffff" transform="translate(50.177658 120.702132) scale(0.12 -0.12)">
      <use xlink:href="#DejaVuSans-Bold-49"/>
      <use xlink:href="#DejaVuSans-Bold-72" transform="translate(37.207031 0)"/>
     </g>
    </g>
   </g>
   <g id="text_21">
    <g clip-path="url(#pcd8dfbd609)">
     <!-- Ir -->
     <g style="fill: #ffffff" transform="translate(86.289705 151.566512) scale(0.12 -0.12)">
      <use xlink:href="#DejaVuSans-Bold-49"/>
      <use xlink:href="#DejaVuSans-Bold-72" transform="translate(37.207031 0)"/>
     </g>
    </g>
   </g>
   <g id="text_22">
    <g clip-path="url(#pcd8dfbd609)">
     <!-- Ir -->
     <g style="fill: #ffffff" transform="translate(52.59548 140.155317) scale(0.12 -0.12)">
      <use xlink:href="#DejaVuSans-Bold-49"/>
      <use xlink:href="#DejaVuSans-Bold-72" transform="translate(37.207031 0)"/>
     </g>
    </g>
   </g>
   <g id="text_23">
    <g clip-path="url(#pcd8dfbd609)">
     <!-- Ir -->
     <g style="fill: #ffffff" transform="translate(113.60611 173.187831) scale(0.12 -0.12)">
      <use xlink:href="#DejaVuSans-Bold-49"/>
      <use xlink:href="#DejaVuSans-Bold-72" transform="translate(37.207031 0)"/>
     </g>
    </g>
   </g>
   <g id="text_24">
    <g clip-path="url(#pcd8dfbd609)">
     <!-- Ir -->
     <g style="fill: #ffffff" transform="translate(119.428604 154.738307) scale(0.12 -0.12)">
      <use xlink:href="#DejaVuSans-Bold-49"/>
      <use xlink:href="#DejaVuSans-Bold-72" transform="translate(37.207031 0)"/>
     </g>
    </g>
   </g>
   <g id="text_25">
    <g clip-path="url(#pcd8dfbd609)">
     <!-- Ir -->
     <g style="fill: #ffffff" transform="translate(55.840691 154.438936) scale(0.12 -0.12)">
      <use xlink:href="#DejaVuSans-Bold-49"/>
      <use xlink:href="#DejaVuSans-Bold-72" transform="translate(37.207031 0)"/>
     </g>
    </g>
   </g>
   <g id="text_26">
    <g clip-path="url(#pcd8dfbd609)">
     <!-- Ir -->
     <g style="fill: #ffffff" transform="translate(99.293822 168.633655) scale(0.12 -0.12)">
      <use xlink:href="#DejaVuSans-Bold-49"/>
      <use xlink:href="#DejaVuSans-Bold-72" transform="translate(37.207031 0)"/>
     </g>
    </g>
   </g>
   <g id="text_27">
    <g clip-path="url(#pcd8dfbd609)">
     <!-- Ir -->
     <g style="fill: #ffffff" transform="translate(93.216759 132.634392) scale(0.12 -0.12)">
      <use xlink:href="#DejaVuSans-Bold-49"/>
      <use xlink:href="#DejaVuSans-Bold-72" transform="translate(37.207031 0)"/>
     </g>
    </g>
   </g>
   <g id="text_28">
    <g clip-path="url(#pcd8dfbd609)">
     <!-- Ir -->
     <g style="fill: #ffffff" transform="translate(144.05738 155.260486) scale(0.12 -0.12)">
      <use xlink:href="#DejaVuSans-Bold-49"/>
      <use xlink:href="#DejaVuSans-Bold-72" transform="translate(37.207031 0)"/>
     </g>
    </g>
   </g>
   <g id="text_29">
    <g clip-path="url(#pcd8dfbd609)">
     <!-- Ir -->
     <g style="fill: #ffffff" transform="translate(99.779451 158.180615) scale(0.12 -0.12)">
      <use xlink:href="#DejaVuSans-Bold-49"/>
      <use xlink:href="#DejaVuSans-Bold-72" transform="translate(37.207031 0)"/>
     </g>
    </g>
   </g>
   <g id="text_30">
    <g clip-path="url(#pcd8dfbd609)">
     <!-- Ir -->
     <g style="fill: #ffffff" transform="translate(69.460846 171.69816) scale(0.12 -0.12)">
      <use xlink:href="#DejaVuSans-Bold-49"/>
      <use xlink:href="#DejaVuSans-Bold-72" transform="translate(37.207031 0)"/>
     </g>
    </g>
   </g>
   <g id="text_31">
    <g clip-path="url(#pcd8dfbd609)">
     <!-- H -->
     <g style="fill: #ffffff" transform="translate(177.120613 240.387614) scale(0.12 -0.12)">
      <defs>
       <path id="DejaVuSans-Bold-48" d="M 588 4666 
L 1791 4666 
L 1791 2888 
L 3566 2888 
L 3566 4666 
L 4769 4666 
L 4769 0 
L 3566 0 
L 3566 1978 
L 1791 1978 
L 1791 0 
L 588 0 
L 588 4666 
z
" transform="scale(0.015625)"/>
      </defs>
      <use xlink:href="#DejaVuSans-Bold-48"/>
     </g>
    </g>
   </g>
   <g id="text_32">
    <g clip-path="url(#pcd8dfbd609)">
     <!-- H -->
     <g style="fill: #ffffff" transform="translate(234.810155 180.29371) scale(0.12 -0.12)">
      <use xlink:href="#DejaVuSans-Bold-48"/>
     </g>
    </g>
   </g>
   <g id="text_33">
    <g clip-path="url(#pcd8dfbd609)">
     <!-- C -->
     <g style="fill: #ffffff" transform="translate(166.250736 197.924661) scale(0.12 -0.12)">
      <defs>
       <path id="DejaVuSans-Bold-43" d="M 4288 256 
Q 3956 84 3597 -3 
Q 3238 -91 2847 -91 
Q 1681 -91 1000 561 
Q 319 1213 319 2328 
Q 319 3447 1000 4098 
Q 1681 4750 2847 4750 
Q 3238 4750 3597 4662 
Q 3956 4575 4288 4403 
L 4288 3438 
Q 3953 3666 3628 3772 
Q 3303 3878 2944 3878 
Q 2300 3878 1931 3465 
Q 1563 3053 1563 2328 
Q 1563 1606 1931 1193 
Q 2300 781 2944 781 
Q 3303 781 3628 887 
Q 3953 994 4288 1222 
L 4288 256 
z
" transform="scale(0.015625)"/>
      </defs>
      <use xlink:href="#DejaVuSans-Bold-43"/>
     </g>
    </g>
   </g>
   <g id="text_34">
    <g clip-path="url(#pcd8dfbd609)">
     <!-- C -->
     <g style="fill: #ffffff" transform="translate(190.008745 171.623198) scale(0.12 -0.12)">
      <use xlink:href="#DejaVuSans-Bold-43"/>
     </g>
    </g>
   </g>
   <g id="text_35">
    <!-- C2H2Ir48 -->
    <g transform="translate(122.310094 12.114451) scale(0.1 -0.1)">
     <defs>
      <path id="DejaVuSans-43" d="M 4122 4306 
L 4122 3641 
Q 3803 3938 3442 4084 
Q 3081 4231 2675 4231 
Q 1875 4231 1450 3742 
Q 1025 3253 1025 2328 
Q 1025 1406 1450 917 
Q 1875 428 2675 428 
Q 3081 428 3442 575 
Q 3803 722 4122 1019 
L 4122 359 
Q 3791 134 3420 21 
Q 3050 -91 2638 -91 
Q 1578 -91 968 557 
Q 359 1206 359 2328 
Q 359 3453 968 4101 
Q 1578 4750 2638 4750 
Q 3056 4750 3426 4639 
Q 3797 4528 4122 4306 
z
" transform="scale(0.015625)"/>
      <path id="DejaVuSans-32" d="M 1228 531 
L 3431 531 
L 3431 0 
L 469 0 
L 469 531 
Q 828 903 1448 1529 
Q 2069 2156 2228 2338 
Q 2531 2678 2651 2914 
Q 2772 3150 2772 3378 
Q 2772 3750 2511 3984 
Q 2250 4219 1831 4219 
Q 1534 4219 1204 4116 
Q 875 4013 500 3803 
L 500 4441 
Q 881 4594 1212 4672 
Q 1544 4750 1819 4750 
Q 2544 4750 2975 4387 
Q 3406 4025 3406 3419 
Q 3406 3131 3298 2873 
Q 3191 2616 2906 2266 
Q 2828 2175 2409 1742 
Q 1991 1309 1228 531 
z
" transform="scale(0.015625)"/>
      <path id="DejaVuSans-48" d="M 628 4666 
L 1259 4666 
L 1259 2753 
L 3553 2753 
L 3553 4666 
L 4184 4666 
L 4184 0 
L 3553 0 
L 3553 2222 
L 1259 2222 
L 1259 0 
L 628 0 
L 628 4666 
z
" transform="scale(0.015625)"/>
      <path id="DejaVuSans-49" d="M 628 4666 
L 1259 4666 
L 1259 0 
L 628 0 
L 628 4666 
z
" transform="scale(0.015625)"/>
      <path id="DejaVuSans-72" d="M 2631 2963 
Q 2534 3019 2420 3045 
Q 2306 3072 2169 3072 
Q 1681 3072 1420 2755 
Q 1159 2438 1159 1844 
L 1159 0 
L 581 0 
L 581 3500 
L 1159 3500 
L 1159 2956 
Q 1341 3275 1631 3429 
Q 1922 3584 2338 3584 
Q 2397 3584 2469 3576 
Q 2541 3569 2628 3553 
L 2631 2963 
z
" transform="scale(0.015625)"/>
      <path id="DejaVuSans-34" d="M 2419 4116 
L 825 1625 
L 2419 1625 
L 2419 4116 
z
M 2253 4666 
L 3047 4666 
L 3047 1625 
L 3713 1625 
L 3713 1100 
L 3047 1100 
L 3047 0 
L 2419 0 
L 2419 1100 
L 313 1100 
L 313 1709 
L 2253 4666 
z
" transform="scale(0.015625)"/>
      <path id="DejaVuSans-38" d="M 2034 2216 
Q 1584 2216 1326 1975 
Q 1069 1734 1069 1313 
Q 1069 891 1326 650 
Q 1584 409 2034 409 
Q 2484 409 2743 651 
Q 3003 894 3003 1313 
Q 3003 1734 2745 1975 
Q 2488 2216 2034 2216 
z
M 1403 2484 
Q 997 2584 770 2862 
Q 544 3141 544 3541 
Q 544 4100 942 4425 
Q 1341 4750 2034 4750 
Q 2731 4750 3128 4425 
Q 3525 4100 3525 3541 
Q 3525 3141 3298 2862 
Q 3072 2584 2669 2484 
Q 3125 2378 3379 2068 
Q 3634 1759 3634 1313 
Q 3634 634 3220 271 
Q 2806 -91 2034 -91 
Q 1263 -91 848 271 
Q 434 634 434 1313 
Q 434 1759 690 2068 
Q 947 2378 1403 2484 
z
M 1172 3481 
Q 1172 3119 1398 2916 
Q 1625 2713 2034 2713 
Q 2441 2713 2670 2916 
Q 2900 3119 2900 3481 
Q 2900 3844 2670 4047 
Q 2441 4250 2034 4250 
Q 1625 4250 1398 4047 
Q 1172 3844 1172 3481 
z
" transform="scale(0.015625)"/>
     </defs>
     <use xlink:href="#DejaVuSans-43"/>
     <use xlink:href="#DejaVuSans-32" transform="translate(69.824219 0)"/>
     <use xlink:href="#DejaVuSans-48" transform="translate(133.447266 0)"/>
     <use xlink:href="#DejaVuSans-32" transform="translate(208.642578 0)"/>
     <use xlink:href="#DejaVuSans-49" transform="translate(272.265625 0)"/>
     <use xlink:href="#DejaVuSans-72" transform="translate(301.757812 0)"/>
     <use xlink:href="#DejaVuSans-34" transform="translate(342.871094 0)"/>
     <use xlink:href="#DejaVuSans-38" transform="translate(406.494141 0)"/>
    </g>
    <!-- Error: -8.44 eV -->
    <g transform="translate(122.310094 23.312263) scale(0.1 -0.1)">
     <defs>
      <path id="DejaVuSans-45" d="M 628 4666 
L 3578 4666 
L 3578 4134 
L 1259 4134 
L 1259 2753 
L 3481 2753 
L 3481 2222 
L 1259 2222 
L 1259 531 
L 3634 531 
L 3634 0 
L 628 0 
L 628 4666 
z
" transform="scale(0.015625)"/>
      <path id="DejaVuSans-6f" d="M 1959 3097 
Q 1497 3097 1228 2736 
Q 959 2375 959 1747 
Q 959 1119 1226 758 
Q 1494 397 1959 397 
Q 2419 397 2687 759 
Q 2956 1122 2956 1747 
Q 2956 2369 2687 2733 
Q 2419 3097 1959 3097 
z
M 1959 3584 
Q 2709 3584 3137 3096 
Q 3566 2609 3566 1747 
Q 3566 888 3137 398 
Q 2709 -91 1959 -91 
Q 1206 -91 779 398 
Q 353 888 353 1747 
Q 353 2609 779 3096 
Q 1206 3584 1959 3584 
z
" transform="scale(0.015625)"/>
      <path id="DejaVuSans-3a" d="M 750 794 
L 1409 794 
L 1409 0 
L 750 0 
L 750 794 
z
M 750 3309 
L 1409 3309 
L 1409 2516 
L 750 2516 
L 750 3309 
z
" transform="scale(0.015625)"/>
      <path id="DejaVuSans-20" transform="scale(0.015625)"/>
      <path id="DejaVuSans-2d" d="M 313 2009 
L 1997 2009 
L 1997 1497 
L 313 1497 
L 313 2009 
z
" transform="scale(0.015625)"/>
      <path id="DejaVuSans-2e" d="M 684 794 
L 1344 794 
L 1344 0 
L 684 0 
L 684 794 
z
" transform="scale(0.015625)"/>
      <path id="DejaVuSans-65" d="M 3597 1894 
L 3597 1613 
L 953 1613 
Q 991 1019 1311 708 
Q 1631 397 2203 397 
Q 2534 397 2845 478 
Q 3156 559 3463 722 
L 3463 178 
Q 3153 47 2828 -22 
Q 2503 -91 2169 -91 
Q 1331 -91 842 396 
Q 353 884 353 1716 
Q 353 2575 817 3079 
Q 1281 3584 2069 3584 
Q 2775 3584 3186 3129 
Q 3597 2675 3597 1894 
z
M 3022 2063 
Q 3016 2534 2758 2815 
Q 2500 3097 2075 3097 
Q 1594 3097 1305 2825 
Q 1016 2553 972 2059 
L 3022 2063 
z
" transform="scale(0.015625)"/>
      <path id="DejaVuSans-56" d="M 1831 0 
L 50 4666 
L 709 4666 
L 2188 738 
L 3669 4666 
L 4325 4666 
L 2547 0 
L 1831 0 
z
" transform="scale(0.015625)"/>
     </defs>
     <use xlink:href="#DejaVuSans-45"/>
     <use xlink:href="#DejaVuSans-72" transform="translate(63.183594 0)"/>
     <use xlink:href="#DejaVuSans-72" transform="translate(102.546875 0)"/>
     <use xlink:href="#DejaVuSans-6f" transform="translate(141.410156 0)"/>
     <use xlink:href="#DejaVuSans-72" transform="translate(202.591797 0)"/>
     <use xlink:href="#DejaVuSans-3a" transform="translate(241.955078 0)"/>
     <use xlink:href="#DejaVuSans-20" transform="translate(275.646484 0)"/>
     <use xlink:href="#DejaVuSans-2d" transform="translate(307.433594 0)"/>
     <use xlink:href="#DejaVuSans-38" transform="translate(343.517578 0)"/>
     <use xlink:href="#DejaVuSans-2e" transform="translate(407.140625 0)"/>
     <use xlink:href="#DejaVuSans-34" transform="translate(438.927734 0)"/>
     <use xlink:href="#DejaVuSans-34" transform="translate(502.550781 0)"/>
     <use xlink:href="#DejaVuSans-20" transform="translate(566.173828 0)"/>
     <use xlink:href="#DejaVuSans-65" transform="translate(597.960938 0)"/>
     <use xlink:href="#DejaVuSans-56" transform="translate(659.484375 0)"/>
    </g>
   </g>
  </g>
 </g>
 <defs>
  <clipPath id="pcd8dfbd609">
   <rect x="36" y="34.56" width="223.2" height="221.76"/>
  </clipPath>
 </defs>
</svg>
