<?xml version="1.0" encoding="utf-8" standalone="no"?>
<!DOCTYPE svg PUBLIC "-//W3C//DTD SVG 1.1//EN"
  "http://www.w3.org/Graphics/SVG/1.1/DTD/svg11.dtd">
<svg xmlns:xlink="http://www.w3.org/1999/xlink" width="288pt" height="288pt" viewBox="0 0 288 288" xmlns="http://www.w3.org/2000/svg" version="1.1">
 <metadata>
  <rdf:RDF xmlns:dc="http://purl.org/dc/elements/1.1/" xmlns:cc="http://creativecommons.org/ns#" xmlns:rdf="http://www.w3.org/1999/02/22-rdf-syntax-ns#">
   <cc:Work>
    <dc:type rdf:resource="http://purl.org/dc/dcmitype/StillImage"/>
    <dc:date>2025-05-20T16:58:08.314816</dc:date>
    <dc:format>image/svg+xml</dc:format>
    <dc:creator>
     <cc:Agent>
      <dc:title>Matplotlib v3.10.1, https://matplotlib.org/</dc:title>
     </cc:Agent>
    </dc:creator>
   </cc:Work>
  </rdf:RDF>
 </metadata>
 <defs>
  <style type="text/css">*{stroke-linejoin: round; stroke-linecap: butt}</style>
 </defs>
 <g id="figure_1">
  <g id="patch_1">
   <path d="M 0 288 
L 288 288 
L 288 0 
L 0 0 
z
" style="fill: #ffffff"/>
  </g>
  <g id="axes_1">
   <g id="LineCollection_1">
    <path d="M 175.333185 90.463462 
L 170.008672 73.289113 
" clip-path="url(#p2acca10369)" style="fill: none; stroke: #000000; stroke-width: 1.2"/>
    <path d="M 175.333185 90.463462 
L 126.224579 55.827196 
" clip-path="url(#p2acca10369)" style="fill: none; stroke: #000000; stroke-width: 1.2"/>
    <path d="M 175.333185 90.463462 
L 149.116217 57.98597 
" clip-path="url(#p2acca10369)" style="fill: none; stroke: #000000; stroke-width: 1.2"/>
    <path d="M 175.333185 90.463462 
L 152.341398 77.866993 
" clip-path="url(#p2acca10369)" style="fill: none; stroke: #000000; stroke-width: 1.2"/>
    <path d="M 175.333185 90.463462 
L 117.113294 112.952852 
" clip-path="url(#p2acca10369)" style="fill: none; stroke: #000000; stroke-width: 1.2"/>
    <path d="M 175.333185 90.463462 
L 156.590944 119.721144 
" clip-path="url(#p2acca10369)" style="fill: none; stroke: #000000; stroke-width: 1.2"/>
    <path d="M 175.333185 90.463462 
L 145.216351 104.043464 
" clip-path="url(#p2acca10369)" style="fill: none; stroke: #000000; stroke-width: 1.2"/>
    <path d="M 170.008672 73.289113 
L 152.341398 77.866993 
" clip-path="url(#p2acca10369)" style="fill: none; stroke: #000000; stroke-width: 1.2"/>
    <path d="M 170.008672 73.289113 
L 109.211234 94.360589 
" clip-path="url(#p2acca10369)" style="fill: none; stroke: #000000; stroke-width: 1.2"/>
    <path d="M 170.008672 73.289113 
L 127.165311 90.712141 
" clip-path="url(#p2acca10369)" style="fill: none; stroke: #000000; stroke-width: 1.2"/>
    <path d="M 170.008672 73.289113 
L 156.590944 119.721144 
" clip-path="url(#p2acca10369)" style="fill: none; stroke: #000000; stroke-width: 1.2"/>
    <path d="M 126.224579 55.827196 
L 149.116217 57.98597 
" clip-path="url(#p2acca10369)" style="fill: none; stroke: #000000; stroke-width: 1.2"/>
    <path d="M 126.224579 55.827196 
L 84.495911 99.874603 
" clip-path="url(#p2acca10369)" style="fill: none; stroke: #000000; stroke-width: 1.2"/>
    <path d="M 126.224579 55.827196 
L 90.642235 83.427198 
" clip-path="url(#p2acca10369)" style="fill: none; stroke: #000000; stroke-width: 1.2"/>
    <path d="M 126.224579 55.827196 
L 145.216351 104.043464 
" clip-path="url(#p2acca10369)" style="fill: none; stroke: #000000; stroke-width: 1.2"/>
    <path d="M 149.116217 57.98597 
L 152.341398 77.866993 
" clip-path="url(#p2acca10369)" style="fill: none; stroke: #000000; stroke-width: 1.2"/>
    <path d="M 149.116217 57.98597 
L 102.138178 53.803636 
" clip-path="url(#p2acca10369)" style="fill: none; stroke: #000000; stroke-width: 1.2"/>
    <path d="M 149.116217 57.98597 
L 145.216351 104.043464 
" clip-path="url(#p2acca10369)" style="fill: none; stroke: #000000; stroke-width: 1.2"/>
    <path d="M 149.116217 57.98597 
L 109.742023 75.997455 
" clip-path="url(#p2acca10369)" style="fill: none; stroke: #000000; stroke-width: 1.2"/>
    <path d="M 149.116217 57.98597 
L 127.253406 104.36468 
" clip-path="url(#p2acca10369)" style="fill: none; stroke: #000000; stroke-width: 1.2"/>
    <path d="M 152.341398 77.866993 
L 102.138178 53.803636 
" clip-path="url(#p2acca10369)" style="fill: none; stroke: #000000; stroke-width: 1.2"/>
    <path d="M 152.341398 77.866993 
L 156.590944 119.721144 
" clip-path="url(#p2acca10369)" style="fill: none; stroke: #000000; stroke-width: 1.2"/>
    <path d="M 152.341398 77.866993 
L 127.253406 104.36468 
" clip-path="url(#p2acca10369)" style="fill: none; stroke: #000000; stroke-width: 1.2"/>
    <path d="M 152.341398 77.866993 
L 108.792884 120.906981 
" clip-path="url(#p2acca10369)" style="fill: none; stroke: #000000; stroke-width: 1.2"/>
    <path d="M 102.138178 53.803636 
L 71.810572 83.480774 
" clip-path="url(#p2acca10369)" style="fill: none; stroke: #000000; stroke-width: 1.2"/>
    <path d="M 102.138178 53.803636 
L 127.253406 104.36468 
" clip-path="url(#p2acca10369)" style="fill: none; stroke: #000000; stroke-width: 1.2"/>
    <path d="M 102.138178 53.803636 
L 72.817711 98.992834 
" clip-path="url(#p2acca10369)" style="fill: none; stroke: #000000; stroke-width: 1.2"/>
    <path d="M 109.211234 94.360589 
L 71.810572 83.480774 
" clip-path="url(#p2acca10369)" style="fill: none; stroke: #000000; stroke-width: 1.2"/>
    <path d="M 109.211234 94.360589 
L 84.495911 99.874603 
" clip-path="url(#p2acca10369)" style="fill: none; stroke: #000000; stroke-width: 1.2"/>
    <path d="M 109.211234 94.360589 
L 127.165311 90.712141 
" clip-path="url(#p2acca10369)" style="fill: none; stroke: #000000; stroke-width: 1.2"/>
    <path d="M 109.211234 94.360589 
L 156.590944 119.721144 
" clip-path="url(#p2acca10369)" style="fill: none; stroke: #000000; stroke-width: 1.2"/>
    <path d="M 109.211234 94.360589 
L 109.742023 75.997455 
" clip-path="url(#p2acca10369)" style="fill: none; stroke: #000000; stroke-width: 1.2"/>
    <path d="M 109.211234 94.360589 
L 108.792884 120.906981 
" clip-path="url(#p2acca10369)" style="fill: none; stroke: #000000; stroke-width: 1.2"/>
    <path d="M 109.211234 94.360589 
L 87.137369 117.366809 
" clip-path="url(#p2acca10369)" style="fill: none; stroke: #000000; stroke-width: 1.2"/>
    <path d="M 109.211234 94.360589 
L 55.368595 120.197119 
" clip-path="url(#p2acca10369)" style="fill: none; stroke: #000000; stroke-width: 1.2"/>
    <path d="M 109.211234 94.360589 
L 113.983451 156.460485 
" clip-path="url(#p2acca10369)" style="fill: none; stroke: #000000; stroke-width: 1.2"/>
    <path d="M 71.810572 83.480774 
L 84.495911 99.874603 
" clip-path="url(#p2acca10369)" style="fill: none; stroke: #000000; stroke-width: 1.2"/>
    <path d="M 71.810572 83.480774 
L 117.113294 112.952852 
" clip-path="url(#p2acca10369)" style="fill: none; stroke: #000000; stroke-width: 1.2"/>
    <path d="M 71.810572 83.480774 
L 109.742023 75.997455 
" clip-path="url(#p2acca10369)" style="fill: none; stroke: #000000; stroke-width: 1.2"/>
    <path d="M 71.810572 83.480774 
L 127.253406 104.36468 
" clip-path="url(#p2acca10369)" style="fill: none; stroke: #000000; stroke-width: 1.2"/>
    <path d="M 71.810572 83.480774 
L 72.817711 98.992834 
" clip-path="url(#p2acca10369)" style="fill: none; stroke: #000000; stroke-width: 1.2"/>
    <path d="M 71.810572 83.480774 
L 55.368595 120.197119 
" clip-path="url(#p2acca10369)" style="fill: none; stroke: #000000; stroke-width: 1.2"/>
    <path d="M 71.810572 83.480774 
L 61.252091 140.912087 
" clip-path="url(#p2acca10369)" style="fill: none; stroke: #000000; stroke-width: 1.2"/>
    <path d="M 71.810572 83.480774 
L 93.905287 135.921138 
" clip-path="url(#p2acca10369)" style="fill: none; stroke: #000000; stroke-width: 1.2"/>
    <path d="M 84.495911 99.874603 
L 117.113294 112.952852 
" clip-path="url(#p2acca10369)" style="fill: none; stroke: #000000; stroke-width: 1.2"/>
    <path d="M 84.495911 99.874603 
L 90.642235 83.427198 
" clip-path="url(#p2acca10369)" style="fill: none; stroke: #000000; stroke-width: 1.2"/>
    <path d="M 84.495911 99.874603 
L 145.216351 104.043464 
" clip-path="url(#p2acca10369)" style="fill: none; stroke: #000000; stroke-width: 1.2"/>
    <path d="M 84.495911 99.874603 
L 108.792884 120.906981 
" clip-path="url(#p2acca10369)" style="fill: none; stroke: #000000; stroke-width: 1.2"/>
    <path d="M 84.495911 99.874603 
L 55.368595 120.197119 
" clip-path="url(#p2acca10369)" style="fill: none; stroke: #000000; stroke-width: 1.2"/>
    <path d="M 84.495911 99.874603 
L 102.258403 151.693145 
" clip-path="url(#p2acca10369)" style="fill: none; stroke: #000000; stroke-width: 1.2"/>
    <path d="M 84.495911 99.874603 
L 70.248748 145.760275 
" clip-path="url(#p2acca10369)" style="fill: none; stroke: #000000; stroke-width: 1.2"/>
    <path d="M 117.113294 112.952852 
L 127.165311 90.712141 
" clip-path="url(#p2acca10369)" style="fill: none; stroke: #000000; stroke-width: 1.2"/>
    <path d="M 117.113294 112.952852 
L 156.590944 119.721144 
" clip-path="url(#p2acca10369)" style="fill: none; stroke: #000000; stroke-width: 1.2"/>
    <path d="M 117.113294 112.952852 
L 145.216351 104.043464 
" clip-path="url(#p2acca10369)" style="fill: none; stroke: #000000; stroke-width: 1.2"/>
    <path d="M 117.113294 112.952852 
L 72.817711 98.992834 
" clip-path="url(#p2acca10369)" style="fill: none; stroke: #000000; stroke-width: 1.2"/>
    <path d="M 117.113294 112.952852 
L 102.258403 151.693145 
" clip-path="url(#p2acca10369)" style="fill: none; stroke: #000000; stroke-width: 1.2"/>
    <path d="M 117.113294 112.952852 
L 61.252091 140.912087 
" clip-path="url(#p2acca10369)" style="fill: none; stroke: #000000; stroke-width: 1.2"/>
    <path d="M 117.113294 112.952852 
L 126.762191 145.393994 
" clip-path="url(#p2acca10369)" style="fill: none; stroke: #000000; stroke-width: 1.2"/>
    <path d="M 127.165311 90.712141 
L 156.590944 119.721144 
" clip-path="url(#p2acca10369)" style="fill: none; stroke: #000000; stroke-width: 1.2"/>
    <path d="M 127.165311 90.712141 
L 90.642235 83.427198 
" clip-path="url(#p2acca10369)" style="fill: none; stroke: #000000; stroke-width: 1.2"/>
    <path d="M 127.165311 90.712141 
L 109.742023 75.997455 
" clip-path="url(#p2acca10369)" style="fill: none; stroke: #000000; stroke-width: 1.2"/>
    <path d="M 127.165311 90.712141 
L 72.817711 98.992834 
" clip-path="url(#p2acca10369)" style="fill: none; stroke: #000000; stroke-width: 1.2"/>
    <path d="M 127.165311 90.712141 
L 87.137369 117.366809 
" clip-path="url(#p2acca10369)" style="fill: none; stroke: #000000; stroke-width: 1.2"/>
    <path d="M 127.165311 90.712141 
L 126.762191 145.393994 
" clip-path="url(#p2acca10369)" style="fill: none; stroke: #000000; stroke-width: 1.2"/>
    <path d="M 127.165311 90.712141 
L 68.20742 122.139834 
" clip-path="url(#p2acca10369)" style="fill: none; stroke: #000000; stroke-width: 1.2"/>
    <path d="M 156.590944 119.721144 
L 145.216351 104.043464 
" clip-path="url(#p2acca10369)" style="fill: none; stroke: #000000; stroke-width: 1.2"/>
    <path d="M 156.590944 119.721144 
L 127.253406 104.36468 
" clip-path="url(#p2acca10369)" style="fill: none; stroke: #000000; stroke-width: 1.2"/>
    <path d="M 156.590944 119.721144 
L 108.792884 120.906981 
" clip-path="url(#p2acca10369)" style="fill: none; stroke: #000000; stroke-width: 1.2"/>
    <path d="M 156.590944 119.721144 
L 126.762191 145.393994 
" clip-path="url(#p2acca10369)" style="fill: none; stroke: #000000; stroke-width: 1.2"/>
    <path d="M 156.590944 119.721144 
L 113.983451 156.460485 
" clip-path="url(#p2acca10369)" style="fill: none; stroke: #000000; stroke-width: 1.2"/>
    <path d="M 156.590944 119.721144 
L 148.171149 150.644779 
" clip-path="url(#p2acca10369)" style="fill: none; stroke: #000000; stroke-width: 1.2"/>
    <path d="M 90.642235 83.427198 
L 145.216351 104.043464 
" clip-path="url(#p2acca10369)" style="fill: none; stroke: #000000; stroke-width: 1.2"/>
    <path d="M 90.642235 83.427198 
L 109.742023 75.997455 
" clip-path="url(#p2acca10369)" style="fill: none; stroke: #000000; stroke-width: 1.2"/>
    <path d="M 90.642235 83.427198 
L 108.792884 120.906981 
" clip-path="url(#p2acca10369)" style="fill: none; stroke: #000000; stroke-width: 1.2"/>
    <path d="M 90.642235 83.427198 
L 72.817711 98.992834 
" clip-path="url(#p2acca10369)" style="fill: none; stroke: #000000; stroke-width: 1.2"/>
    <path d="M 90.642235 83.427198 
L 70.248748 145.760275 
" clip-path="url(#p2acca10369)" style="fill: none; stroke: #000000; stroke-width: 1.2"/>
    <path d="M 90.642235 83.427198 
L 121.879785 131.833628 
" clip-path="url(#p2acca10369)" style="fill: none; stroke: #000000; stroke-width: 1.2"/>
    <path d="M 90.642235 83.427198 
L 68.20742 122.139834 
" clip-path="url(#p2acca10369)" style="fill: none; stroke: #000000; stroke-width: 1.2"/>
    <path d="M 145.216351 104.043464 
L 109.742023 75.997455 
" clip-path="url(#p2acca10369)" style="fill: none; stroke: #000000; stroke-width: 1.2"/>
    <path d="M 145.216351 104.043464 
L 127.253406 104.36468 
" clip-path="url(#p2acca10369)" style="fill: none; stroke: #000000; stroke-width: 1.2"/>
    <path d="M 145.216351 104.043464 
L 102.258403 151.693145 
" clip-path="url(#p2acca10369)" style="fill: none; stroke: #000000; stroke-width: 1.2"/>
    <path d="M 145.216351 104.043464 
L 121.879785 131.833628 
" clip-path="url(#p2acca10369)" style="fill: none; stroke: #000000; stroke-width: 1.2"/>
    <path d="M 145.216351 104.043464 
L 148.171149 150.644779 
" clip-path="url(#p2acca10369)" style="fill: none; stroke: #000000; stroke-width: 1.2"/>
    <path d="M 109.742023 75.997455 
L 127.253406 104.36468 
" clip-path="url(#p2acca10369)" style="fill: none; stroke: #000000; stroke-width: 1.2"/>
    <path d="M 109.742023 75.997455 
L 87.137369 117.366809 
" clip-path="url(#p2acca10369)" style="fill: none; stroke: #000000; stroke-width: 1.2"/>
    <path d="M 109.742023 75.997455 
L 121.879785 131.833628 
" clip-path="url(#p2acca10369)" style="fill: none; stroke: #000000; stroke-width: 1.2"/>
    <path d="M 109.742023 75.997455 
L 93.905287 135.921138 
" clip-path="url(#p2acca10369)" style="fill: none; stroke: #000000; stroke-width: 1.2"/>
    <path d="M 127.253406 104.36468 
L 108.792884 120.906981 
" clip-path="url(#p2acca10369)" style="fill: none; stroke: #000000; stroke-width: 1.2"/>
    <path d="M 127.253406 104.36468 
L 72.817711 98.992834 
" clip-path="url(#p2acca10369)" style="fill: none; stroke: #000000; stroke-width: 1.2"/>
    <path d="M 127.253406 104.36468 
L 93.905287 135.921138 
" clip-path="url(#p2acca10369)" style="fill: none; stroke: #000000; stroke-width: 1.2"/>
    <path d="M 127.253406 104.36468 
L 148.171149 150.644779 
" clip-path="url(#p2acca10369)" style="fill: none; stroke: #000000; stroke-width: 1.2"/>
    <path d="M 127.253406 104.36468 
L 91.538565 158.34273 
" clip-path="url(#p2acca10369)" style="fill: none; stroke: #000000; stroke-width: 1.2"/>
    <path d="M 108.792884 120.906981 
L 72.817711 98.992834 
" clip-path="url(#p2acca10369)" style="fill: none; stroke: #000000; stroke-width: 1.2"/>
    <path d="M 108.792884 120.906981 
L 113.983451 156.460485 
" clip-path="url(#p2acca10369)" style="fill: none; stroke: #000000; stroke-width: 1.2"/>
    <path d="M 108.792884 120.906981 
L 70.248748 145.760275 
" clip-path="url(#p2acca10369)" style="fill: none; stroke: #000000; stroke-width: 1.2"/>
    <path d="M 108.792884 120.906981 
L 91.538565 158.34273 
" clip-path="url(#p2acca10369)" style="fill: none; stroke: #000000; stroke-width: 1.2"/>
    <path d="M 72.817711 98.992834 
L 61.252091 140.912087 
" clip-path="url(#p2acca10369)" style="fill: none; stroke: #000000; stroke-width: 1.2"/>
    <path d="M 72.817711 98.992834 
L 91.538565 158.34273 
" clip-path="url(#p2acca10369)" style="fill: none; stroke: #000000; stroke-width: 1.2"/>
    <path d="M 72.817711 98.992834 
L 68.20742 122.139834 
" clip-path="url(#p2acca10369)" style="fill: none; stroke: #000000; stroke-width: 1.2"/>
    <path d="M 87.137369 117.366809 
L 55.368595 120.197119 
" clip-path="url(#p2acca10369)" style="fill: none; stroke: #000000; stroke-width: 1.2"/>
    <path d="M 87.137369 117.366809 
L 126.762191 145.393994 
" clip-path="url(#p2acca10369)" style="fill: none; stroke: #000000; stroke-width: 1.2"/>
    <path d="M 87.137369 117.366809 
L 113.983451 156.460485 
" clip-path="url(#p2acca10369)" style="fill: none; stroke: #000000; stroke-width: 1.2"/>
    <path d="M 87.137369 117.366809 
L 121.879785 131.833628 
" clip-path="url(#p2acca10369)" style="fill: none; stroke: #000000; stroke-width: 1.2"/>
    <path d="M 87.137369 117.366809 
L 93.905287 135.921138 
" clip-path="url(#p2acca10369)" style="fill: none; stroke: #000000; stroke-width: 1.2"/>
    <path d="M 87.137369 117.366809 
L 68.20742 122.139834 
" clip-path="url(#p2acca10369)" style="fill: none; stroke: #000000; stroke-width: 1.2"/>
    <path d="M 55.368595 120.197119 
L 102.258403 151.693145 
" clip-path="url(#p2acca10369)" style="fill: none; stroke: #000000; stroke-width: 1.2"/>
    <path d="M 55.368595 120.197119 
L 61.252091 140.912087 
" clip-path="url(#p2acca10369)" style="fill: none; stroke: #000000; stroke-width: 1.2"/>
    <path d="M 55.368595 120.197119 
L 113.983451 156.460485 
" clip-path="url(#p2acca10369)" style="fill: none; stroke: #000000; stroke-width: 1.2"/>
    <path d="M 55.368595 120.197119 
L 70.248748 145.760275 
" clip-path="url(#p2acca10369)" style="fill: none; stroke: #000000; stroke-width: 1.2"/>
    <path d="M 55.368595 120.197119 
L 93.905287 135.921138 
" clip-path="url(#p2acca10369)" style="fill: none; stroke: #000000; stroke-width: 1.2"/>
    <path d="M 102.258403 151.693145 
L 61.252091 140.912087 
" clip-path="url(#p2acca10369)" style="fill: none; stroke: #000000; stroke-width: 1.2"/>
    <path d="M 102.258403 151.693145 
L 126.762191 145.393994 
" clip-path="url(#p2acca10369)" style="fill: none; stroke: #000000; stroke-width: 1.2"/>
    <path d="M 102.258403 151.693145 
L 70.248748 145.760275 
" clip-path="url(#p2acca10369)" style="fill: none; stroke: #000000; stroke-width: 1.2"/>
    <path d="M 102.258403 151.693145 
L 121.879785 131.833628 
" clip-path="url(#p2acca10369)" style="fill: none; stroke: #000000; stroke-width: 1.2"/>
    <path d="M 102.258403 151.693145 
L 148.171149 150.644779 
" clip-path="url(#p2acca10369)" style="fill: none; stroke: #000000; stroke-width: 1.2"/>
    <path d="M 61.252091 140.912087 
L 126.762191 145.393994 
" clip-path="url(#p2acca10369)" style="fill: none; stroke: #000000; stroke-width: 1.2"/>
    <path d="M 61.252091 140.912087 
L 93.905287 135.921138 
" clip-path="url(#p2acca10369)" style="fill: none; stroke: #000000; stroke-width: 1.2"/>
    <path d="M 61.252091 140.912087 
L 91.538565 158.34273 
" clip-path="url(#p2acca10369)" style="fill: none; stroke: #000000; stroke-width: 1.2"/>
    <path d="M 61.252091 140.912087 
L 68.20742 122.139834 
" clip-path="url(#p2acca10369)" style="fill: none; stroke: #000000; stroke-width: 1.2"/>
    <path d="M 126.762191 145.393994 
L 113.983451 156.460485 
" clip-path="url(#p2acca10369)" style="fill: none; stroke: #000000; stroke-width: 1.2"/>
    <path d="M 126.762191 145.393994 
L 148.171149 150.644779 
" clip-path="url(#p2acca10369)" style="fill: none; stroke: #000000; stroke-width: 1.2"/>
    <path d="M 126.762191 145.393994 
L 68.20742 122.139834 
" clip-path="url(#p2acca10369)" style="fill: none; stroke: #000000; stroke-width: 1.2"/>
    <path d="M 113.983451 156.460485 
L 70.248748 145.760275 
" clip-path="url(#p2acca10369)" style="fill: none; stroke: #000000; stroke-width: 1.2"/>
    <path d="M 113.983451 156.460485 
L 148.171149 150.644779 
" clip-path="url(#p2acca10369)" style="fill: none; stroke: #000000; stroke-width: 1.2"/>
    <path d="M 113.983451 156.460485 
L 91.538565 158.34273 
" clip-path="url(#p2acca10369)" style="fill: none; stroke: #000000; stroke-width: 1.2"/>
    <path d="M 70.248748 145.760275 
L 121.879785 131.833628 
" clip-path="url(#p2acca10369)" style="fill: none; stroke: #000000; stroke-width: 1.2"/>
    <path d="M 70.248748 145.760275 
L 91.538565 158.34273 
" clip-path="url(#p2acca10369)" style="fill: none; stroke: #000000; stroke-width: 1.2"/>
    <path d="M 70.248748 145.760275 
L 68.20742 122.139834 
" clip-path="url(#p2acca10369)" style="fill: none; stroke: #000000; stroke-width: 1.2"/>
    <path d="M 121.879785 131.833628 
L 93.905287 135.921138 
" clip-path="url(#p2acca10369)" style="fill: none; stroke: #000000; stroke-width: 1.2"/>
    <path d="M 121.879785 131.833628 
L 148.171149 150.644779 
" clip-path="url(#p2acca10369)" style="fill: none; stroke: #000000; stroke-width: 1.2"/>
    <path d="M 121.879785 131.833628 
L 68.20742 122.139834 
" clip-path="url(#p2acca10369)" style="fill: none; stroke: #000000; stroke-width: 1.2"/>
    <path d="M 93.905287 135.921138 
L 148.171149 150.644779 
" clip-path="url(#p2acca10369)" style="fill: none; stroke: #000000; stroke-width: 1.2"/>
    <path d="M 93.905287 135.921138 
L 91.538565 158.34273 
" clip-path="url(#p2acca10369)" style="fill: none; stroke: #000000; stroke-width: 1.2"/>
    <path d="M 148.171149 150.644779 
L 91.538565 158.34273 
" clip-path="url(#p2acca10369)" style="fill: none; stroke: #000000; stroke-width: 1.2"/>
    <path d="M 148.171149 150.644779 
L 159.80445 193.746493 
" clip-path="url(#p2acca10369)" style="fill: none; stroke: #000000; stroke-width: 1.2"/>
    <path d="M 148.171149 150.644779 
L 190.398735 169.302735 
" clip-path="url(#p2acca10369)" style="fill: none; stroke: #000000; stroke-width: 1.2"/>
    <path d="M 91.538565 158.34273 
L 68.20742 122.139834 
" clip-path="url(#p2acca10369)" style="fill: none; stroke: #000000; stroke-width: 1.2"/>
    <path d="M 141.549216 237.076364 
L 159.80445 193.746493 
" clip-path="url(#p2acca10369)" style="fill: none; stroke: #000000; stroke-width: 1.2"/>
    <path d="M 182.136554 229.240666 
L 159.80445 193.746493 
" clip-path="url(#p2acca10369)" style="fill: none; stroke: #000000; stroke-width: 1.2"/>
    <path d="M 224.804429 196.105499 
L 190.398735 169.302735 
" clip-path="url(#p2acca10369)" style="fill: none; stroke: #000000; stroke-width: 1.2"/>
    <path d="M 239.831405 161.920258 
L 190.398735 169.302735 
" clip-path="url(#p2acca10369)" style="fill: none; stroke: #000000; stroke-width: 1.2"/>
    <path d="M 159.80445 193.746493 
L 190.398735 169.302735 
" clip-path="url(#p2acca10369)" style="fill: none; stroke: #000000; stroke-width: 1.2"/>
   </g>
   <g id="PathCollection_1">
    <defs>
     <path id="C0_0_67e507288d" d="M 0 8.944272 
C 2.372049 8.944272 4.647264 8.001847 6.324555 6.324555 
C 8.001847 4.647264 8.944272 2.372049 8.944272 -0 
C 8.944272 -2.372049 8.001847 -4.647264 6.324555 -6.324555 
C 4.647264 -8.001847 2.372049 -8.944272 0 -8.944272 
C -2.372049 -8.944272 -4.647264 -8.001847 -6.324555 -6.324555 
C -8.001847 -4.647264 -8.944272 -2.372049 -8.944272 0 
C -8.944272 2.372049 -8.001847 4.647264 -6.324555 6.324555 
C -4.647264 8.001847 -2.372049 8.944272 0 8.944272 
z
"/>
    </defs>
    <g clip-path="url(#p2acca10369)">
     <use xlink:href="#C0_0_67e507288d" x="175.333185" y="90.463462" style="fill: #175487; stroke: #175487; stroke-width: 0.5"/>
    </g>
    <g clip-path="url(#p2acca10369)">
     <use xlink:href="#C0_0_67e507288d" x="170.008672" y="73.289113" style="fill: #175487; stroke: #175487; stroke-width: 0.5"/>
    </g>
    <g clip-path="url(#p2acca10369)">
     <use xlink:href="#C0_0_67e507288d" x="126.224579" y="55.827196" style="fill: #175487; stroke: #175487; stroke-width: 0.5"/>
    </g>
    <g clip-path="url(#p2acca10369)">
     <use xlink:href="#C0_0_67e507288d" x="149.116217" y="57.98597" style="fill: #175487; stroke: #175487; stroke-width: 0.5"/>
    </g>
    <g clip-path="url(#p2acca10369)">
     <use xlink:href="#C0_0_67e507288d" x="152.341398" y="77.866993" style="fill: #175487; stroke: #175487; stroke-width: 0.5"/>
    </g>
    <g clip-path="url(#p2acca10369)">
     <use xlink:href="#C0_0_67e507288d" x="102.138178" y="53.803636" style="fill: #175487; stroke: #175487; stroke-width: 0.5"/>
    </g>
    <g clip-path="url(#p2acca10369)">
     <use xlink:href="#C0_0_67e507288d" x="109.211234" y="94.360589" style="fill: #175487; stroke: #175487; stroke-width: 0.5"/>
    </g>
    <g clip-path="url(#p2acca10369)">
     <use xlink:href="#C0_0_67e507288d" x="71.810572" y="83.480774" style="fill: #175487; stroke: #175487; stroke-width: 0.5"/>
    </g>
    <g clip-path="url(#p2acca10369)">
     <use xlink:href="#C0_0_67e507288d" x="84.495911" y="99.874603" style="fill: #175487; stroke: #175487; stroke-width: 0.5"/>
    </g>
    <g clip-path="url(#p2acca10369)">
     <use xlink:href="#C0_0_67e507288d" x="117.113294" y="112.952852" style="fill: #175487; stroke: #175487; stroke-width: 0.5"/>
    </g>
    <g clip-path="url(#p2acca10369)">
     <use xlink:href="#C0_0_67e507288d" x="127.165311" y="90.712141" style="fill: #175487; stroke: #175487; stroke-width: 0.5"/>
    </g>
    <g clip-path="url(#p2acca10369)">
     <use xlink:href="#C0_0_67e507288d" x="156.590944" y="119.721144" style="fill: #175487; stroke: #175487; stroke-width: 0.5"/>
    </g>
    <g clip-path="url(#p2acca10369)">
     <use xlink:href="#C0_0_67e507288d" x="90.642235" y="83.427198" style="fill: #175487; stroke: #175487; stroke-width: 0.5"/>
    </g>
    <g clip-path="url(#p2acca10369)">
     <use xlink:href="#C0_0_67e507288d" x="145.216351" y="104.043464" style="fill: #175487; stroke: #175487; stroke-width: 0.5"/>
    </g>
    <g clip-path="url(#p2acca10369)">
     <use xlink:href="#C0_0_67e507288d" x="109.742023" y="75.997455" style="fill: #175487; stroke: #175487; stroke-width: 0.5"/>
    </g>
    <g clip-path="url(#p2acca10369)">
     <use xlink:href="#C0_0_67e507288d" x="127.253406" y="104.36468" style="fill: #175487; stroke: #175487; stroke-width: 0.5"/>
    </g>
    <g clip-path="url(#p2acca10369)">
     <use xlink:href="#C0_0_67e507288d" x="108.792884" y="120.906981" style="fill: #175487; stroke: #175487; stroke-width: 0.5"/>
    </g>
    <g clip-path="url(#p2acca10369)">
     <use xlink:href="#C0_0_67e507288d" x="72.817711" y="98.992834" style="fill: #175487; stroke: #175487; stroke-width: 0.5"/>
    </g>
    <g clip-path="url(#p2acca10369)">
     <use xlink:href="#C0_0_67e507288d" x="87.137369" y="117.366809" style="fill: #175487; stroke: #175487; stroke-width: 0.5"/>
    </g>
    <g clip-path="url(#p2acca10369)">
     <use xlink:href="#C0_0_67e507288d" x="55.368595" y="120.197119" style="fill: #175487; stroke: #175487; stroke-width: 0.5"/>
    </g>
    <g clip-path="url(#p2acca10369)">
     <use xlink:href="#C0_0_67e507288d" x="102.258403" y="151.693145" style="fill: #175487; stroke: #175487; stroke-width: 0.5"/>
    </g>
    <g clip-path="url(#p2acca10369)">
     <use xlink:href="#C0_0_67e507288d" x="61.252091" y="140.912087" style="fill: #175487; stroke: #175487; stroke-width: 0.5"/>
    </g>
    <g clip-path="url(#p2acca10369)">
     <use xlink:href="#C0_0_67e507288d" x="126.762191" y="145.393994" style="fill: #175487; stroke: #175487; stroke-width: 0.5"/>
    </g>
    <g clip-path="url(#p2acca10369)">
     <use xlink:href="#C0_0_67e507288d" x="113.983451" y="156.460485" style="fill: #175487; stroke: #175487; stroke-width: 0.5"/>
    </g>
    <g clip-path="url(#p2acca10369)">
     <use xlink:href="#C0_0_67e507288d" x="70.248748" y="145.760275" style="fill: #175487; stroke: #175487; stroke-width: 0.5"/>
    </g>
    <g clip-path="url(#p2acca10369)">
     <use xlink:href="#C0_0_67e507288d" x="121.879785" y="131.833628" style="fill: #175487; stroke: #175487; stroke-width: 0.5"/>
    </g>
    <g clip-path="url(#p2acca10369)">
     <use xlink:href="#C0_0_67e507288d" x="93.905287" y="135.921138" style="fill: #175487; stroke: #175487; stroke-width: 0.5"/>
    </g>
    <g clip-path="url(#p2acca10369)">
     <use xlink:href="#C0_0_67e507288d" x="148.171149" y="150.644779" style="fill: #175487; stroke: #175487; stroke-width: 0.5"/>
    </g>
    <g clip-path="url(#p2acca10369)">
     <use xlink:href="#C0_0_67e507288d" x="91.538565" y="158.34273" style="fill: #175487; stroke: #175487; stroke-width: 0.5"/>
    </g>
    <g clip-path="url(#p2acca10369)">
     <use xlink:href="#C0_0_67e507288d" x="68.20742" y="122.139834" style="fill: #175487; stroke: #175487; stroke-width: 0.5"/>
    </g>
    <g clip-path="url(#p2acca10369)">
     <use xlink:href="#C0_0_67e507288d" x="141.549216" y="237.076364" style="fill: #bfbfbf; stroke: #bfbfbf; stroke-width: 0.5"/>
    </g>
    <g clip-path="url(#p2acca10369)">
     <use xlink:href="#C0_0_67e507288d" x="182.136554" y="229.240666" style="fill: #bfbfbf; stroke: #bfbfbf; stroke-width: 0.5"/>
    </g>
    <g clip-path="url(#p2acca10369)">
     <use xlink:href="#C0_0_67e507288d" x="224.804429" y="196.105499" style="fill: #bfbfbf; stroke: #bfbfbf; stroke-width: 0.5"/>
    </g>
    <g clip-path="url(#p2acca10369)">
     <use xlink:href="#C0_0_67e507288d" x="239.831405" y="161.920258" style="fill: #bfbfbf; stroke: #bfbfbf; stroke-width: 0.5"/>
    </g>
    <g clip-path="url(#p2acca10369)">
     <use xlink:href="#C0_0_67e507288d" x="159.80445" y="193.746493" style="fill: #666666; stroke: #666666; stroke-width: 0.5"/>
    </g>
    <g clip-path="url(#p2acca10369)">
     <use xlink:href="#C0_0_67e507288d" x="190.398735" y="169.302735" style="fill: #666666; stroke: #666666; stroke-width: 0.5"/>
    </g>
   </g>
   <g id="text_1">
    <g clip-path="url(#p2acca10369)">
     <!-- Ir -->
     <g style="fill: #ffffff" transform="translate(170.142248 93.774712) scale(0.12 -0.12)">
      <defs>
       <path id="DejaVuSans-Bold-49" d="M 588 4666 
L 1791 4666 
L 1791 0 
L 588 0 
L 588 4666 
z
" transform="scale(0.015625)"/>
       <path id="DejaVuSans-Bold-72" d="M 3138 2547 
Q 2991 2616 2845 2648 
Q 2700 2681 2553 2681 
Q 2122 2681 1889 2404 
Q 1656 2128 1656 1613 
L 1656 0 
L 538 0 
L 538 3500 
L 1656 3500 
L 1656 2925 
Q 1872 3269 2151 3426 
Q 2431 3584 2822 3584 
Q 2878 3584 2943 3579 
Q 3009 3575 3134 3559 
L 3138 2547 
z
" transform="scale(0.015625)"/>
      </defs>
      <use xlink:href="#DejaVuSans-Bold-49"/>
      <use xlink:href="#DejaVuSans-Bold-72" transform="translate(37.207031 0)"/>
     </g>
    </g>
   </g>
   <g id="text_2">
    <g clip-path="url(#p2acca10369)">
     <!-- Ir -->
     <g style="fill: #ffffff" transform="translate(164.817735 76.600363) scale(0.12 -0.12)">
      <use xlink:href="#DejaVuSans-Bold-49"/>
      <use xlink:href="#DejaVuSans-Bold-72" transform="translate(37.207031 0)"/>
     </g>
    </g>
   </g>
   <g id="text_3">
    <g clip-path="url(#p2acca10369)">
     <!-- Ir -->
     <g style="fill: #ffffff" transform="translate(121.033641 59.138446) scale(0.12 -0.12)">
      <use xlink:href="#DejaVuSans-Bold-49"/>
      <use xlink:href="#DejaVuSans-Bold-72" transform="translate(37.207031 0)"/>
     </g>
    </g>
   </g>
   <g id="text_4">
    <g clip-path="url(#p2acca10369)">
     <!-- Ir -->
     <g style="fill: #ffffff" transform="translate(143.92528 61.29722) scale(0.12 -0.12)">
      <use xlink:href="#DejaVuSans-Bold-49"/>
      <use xlink:href="#DejaVuSans-Bold-72" transform="translate(37.207031 0)"/>
     </g>
    </g>
   </g>
   <g id="text_5">
    <g clip-path="url(#p2acca10369)">
     <!-- Ir -->
     <g style="fill: #ffffff" transform="translate(147.150461 81.178243) scale(0.12 -0.12)">
      <use xlink:href="#DejaVuSans-Bold-49"/>
      <use xlink:href="#DejaVuSans-Bold-72" transform="translate(37.207031 0)"/>
     </g>
    </g>
   </g>
   <g id="text_6">
    <g clip-path="url(#p2acca10369)">
     <!-- Ir -->
     <g style="fill: #ffffff" transform="translate(96.94724 57.114886) scale(0.12 -0.12)">
      <use xlink:href="#DejaVuSans-Bold-49"/>
      <use xlink:href="#DejaVuSans-Bold-72" transform="translate(37.207031 0)"/>
     </g>
    </g>
   </g>
   <g id="text_7">
    <g clip-path="url(#p2acca10369)">
     <!-- Ir -->
     <g style="fill: #ffffff" transform="translate(104.020296 97.671839) scale(0.12 -0.12)">
      <use xlink:href="#DejaVuSans-Bold-49"/>
      <use xlink:href="#DejaVuSans-Bold-72" transform="translate(37.207031 0)"/>
     </g>
    </g>
   </g>
   <g id="text_8">
    <g clip-path="url(#p2acca10369)">
     <!-- Ir -->
     <g style="fill: #ffffff" transform="translate(66.619634 86.792024) scale(0.12 -0.12)">
      <use xlink:href="#DejaVuSans-Bold-49"/>
      <use xlink:href="#DejaVuSans-Bold-72" transform="translate(37.207031 0)"/>
     </g>
    </g>
   </g>
   <g id="text_9">
    <g clip-path="url(#p2acca10369)">
     <!-- Ir -->
     <g style="fill: #ffffff" transform="translate(79.304973 103.185853) scale(0.12 -0.12)">
      <use xlink:href="#DejaVuSans-Bold-49"/>
      <use xlink:href="#DejaVuSans-Bold-72" transform="translate(37.207031 0)"/>
     </g>
    </g>
   </g>
   <g id="text_10">
    <g clip-path="url(#p2acca10369)">
     <!-- Ir -->
     <g style="fill: #ffffff" transform="translate(111.922356 116.264102) scale(0.12 -0.12)">
      <use xlink:href="#DejaVuSans-Bold-49"/>
      <use xlink:href="#DejaVuSans-Bold-72" transform="translate(37.207031 0)"/>
     </g>
    </g>
   </g>
   <g id="text_11">
    <g clip-path="url(#p2acca10369)">
     <!-- Ir -->
     <g style="fill: #ffffff" transform="translate(121.974373 94.023391) scale(0.12 -0.12)">
      <use xlink:href="#DejaVuSans-Bold-49"/>
      <use xlink:href="#DejaVuSans-Bold-72" transform="translate(37.207031 0)"/>
     </g>
    </g>
   </g>
   <g id="text_12">
    <g clip-path="url(#p2acca10369)">
     <!-- Ir -->
     <g style="fill: #ffffff" transform="translate(151.400006 123.032394) scale(0.12 -0.12)">
      <use xlink:href="#DejaVuSans-Bold-49"/>
      <use xlink:href="#DejaVuSans-Bold-72" transform="translate(37.207031 0)"/>
     </g>
    </g>
   </g>
   <g id="text_13">
    <g clip-path="url(#p2acca10369)">
     <!-- Ir -->
     <g style="fill: #ffffff" transform="translate(85.451297 86.738448) scale(0.12 -0.12)">
      <use xlink:href="#DejaVuSans-Bold-49"/>
      <use xlink:href="#DejaVuSans-Bold-72" transform="translate(37.207031 0)"/>
     </g>
    </g>
   </g>
   <g id="text_14">
    <g clip-path="url(#p2acca10369)">
     <!-- Ir -->
     <g style="fill: #ffffff" transform="translate(140.025413 107.354714) scale(0.12 -0.12)">
      <use xlink:href="#DejaVuSans-Bold-49"/>
      <use xlink:href="#DejaVuSans-Bold-72" transform="translate(37.207031 0)"/>
     </g>
    </g>
   </g>
   <g id="text_15">
    <g clip-path="url(#p2acca10369)">
     <!-- Ir -->
     <g style="fill: #ffffff" transform="translate(104.551085 79.308705) scale(0.12 -0.12)">
      <use xlink:href="#DejaVuSans-Bold-49"/>
      <use xlink:href="#DejaVuSans-Bold-72" transform="translate(37.207031 0)"/>
     </g>
    </g>
   </g>
   <g id="text_16">
    <g clip-path="url(#p2acca10369)">
     <!-- Ir -->
     <g style="fill: #ffffff" transform="translate(122.062468 107.67593) scale(0.12 -0.12)">
      <use xlink:href="#DejaVuSans-Bold-49"/>
      <use xlink:href="#DejaVuSans-Bold-72" transform="translate(37.207031 0)"/>
     </g>
    </g>
   </g>
   <g id="text_17">
    <g clip-path="url(#p2acca10369)">
     <!-- Ir -->
     <g style="fill: #ffffff" transform="translate(103.601947 124.218231) scale(0.12 -0.12)">
      <use xlink:href="#DejaVuSans-Bold-49"/>
      <use xlink:href="#DejaVuSans-Bold-72" transform="translate(37.207031 0)"/>
     </g>
    </g>
   </g>
   <g id="text_18">
    <g clip-path="url(#p2acca10369)">
     <!-- Ir -->
     <g style="fill: #ffffff" transform="translate(67.626774 102.304084) scale(0.12 -0.12)">
      <use xlink:href="#DejaVuSans-Bold-49"/>
      <use xlink:href="#DejaVuSans-Bold-72" transform="translate(37.207031 0)"/>
     </g>
    </g>
   </g>
   <g id="text_19">
    <g clip-path="url(#p2acca10369)">
     <!-- Ir -->
     <g style="fill: #ffffff" transform="translate(81.946432 120.678059) scale(0.12 -0.12)">
      <use xlink:href="#DejaVuSans-Bold-49"/>
      <use xlink:href="#DejaVuSans-Bold-72" transform="translate(37.207031 0)"/>
     </g>
    </g>
   </g>
   <g id="text_20">
    <g clip-path="url(#p2acca10369)">
     <!-- Ir -->
     <g style="fill: #ffffff" transform="translate(50.177658 123.508369) scale(0.12 -0.12)">
      <use xlink:href="#DejaVuSans-Bold-49"/>
      <use xlink:href="#DejaVuSans-Bold-72" transform="translate(37.207031 0)"/>
     </g>
    </g>
   </g>
   <g id="text_21">
    <g clip-path="url(#p2acca10369)">
     <!-- Ir -->
     <g style="fill: #ffffff" transform="translate(97.067466 155.004395) scale(0.12 -0.12)">
      <use xlink:href="#DejaVuSans-Bold-49"/>
      <use xlink:href="#DejaVuSans-Bold-72" transform="translate(37.207031 0)"/>
     </g>
    </g>
   </g>
   <g id="text_22">
    <g clip-path="url(#p2acca10369)">
     <!-- Ir -->
     <g style="fill: #ffffff" transform="translate(56.061153 144.223337) scale(0.12 -0.12)">
      <use xlink:href="#DejaVuSans-Bold-49"/>
      <use xlink:href="#DejaVuSans-Bold-72" transform="translate(37.207031 0)"/>
     </g>
    </g>
   </g>
   <g id="text_23">
    <g clip-path="url(#p2acca10369)">
     <!-- Ir -->
     <g style="fill: #ffffff" transform="translate(121.571254 148.705244) scale(0.12 -0.12)">
      <use xlink:href="#DejaVuSans-Bold-49"/>
      <use xlink:href="#DejaVuSans-Bold-72" transform="translate(37.207031 0)"/>
     </g>
    </g>
   </g>
   <g id="text_24">
    <g clip-path="url(#p2acca10369)">
     <!-- Ir -->
     <g style="fill: #ffffff" transform="translate(108.792514 159.771735) scale(0.12 -0.12)">
      <use xlink:href="#DejaVuSans-Bold-49"/>
      <use xlink:href="#DejaVuSans-Bold-72" transform="translate(37.207031 0)"/>
     </g>
    </g>
   </g>
   <g id="text_25">
    <g clip-path="url(#p2acca10369)">
     <!-- Ir -->
     <g style="fill: #ffffff" transform="translate(65.05781 149.071525) scale(0.12 -0.12)">
      <use xlink:href="#DejaVuSans-Bold-49"/>
      <use xlink:href="#DejaVuSans-Bold-72" transform="translate(37.207031 0)"/>
     </g>
    </g>
   </g>
   <g id="text_26">
    <g clip-path="url(#p2acca10369)">
     <!-- Ir -->
     <g style="fill: #ffffff" transform="translate(116.688848 135.144878) scale(0.12 -0.12)">
      <use xlink:href="#DejaVuSans-Bold-49"/>
      <use xlink:href="#DejaVuSans-Bold-72" transform="translate(37.207031 0)"/>
     </g>
    </g>
   </g>
   <g id="text_27">
    <g clip-path="url(#p2acca10369)">
     <!-- Ir -->
     <g style="fill: #ffffff" transform="translate(88.714349 139.232388) scale(0.12 -0.12)">
      <use xlink:href="#DejaVuSans-Bold-49"/>
      <use xlink:href="#DejaVuSans-Bold-72" transform="translate(37.207031 0)"/>
     </g>
    </g>
   </g>
   <g id="text_28">
    <g clip-path="url(#p2acca10369)">
     <!-- Ir -->
     <g style="fill: #ffffff" transform="translate(142.980212 153.956029) scale(0.12 -0.12)">
      <use xlink:href="#DejaVuSans-Bold-49"/>
      <use xlink:href="#DejaVuSans-Bold-72" transform="translate(37.207031 0)"/>
     </g>
    </g>
   </g>
   <g id="text_29">
    <g clip-path="url(#p2acca10369)">
     <!-- Ir -->
     <g style="fill: #ffffff" transform="translate(86.347628 161.65398) scale(0.12 -0.12)">
      <use xlink:href="#DejaVuSans-Bold-49"/>
      <use xlink:href="#DejaVuSans-Bold-72" transform="translate(37.207031 0)"/>
     </g>
    </g>
   </g>
   <g id="text_30">
    <g clip-path="url(#p2acca10369)">
     <!-- Ir -->
     <g style="fill: #ffffff" transform="translate(63.016483 125.451084) scale(0.12 -0.12)">
      <use xlink:href="#DejaVuSans-Bold-49"/>
      <use xlink:href="#DejaVuSans-Bold-72" transform="translate(37.207031 0)"/>
     </g>
    </g>
   </g>
   <g id="text_31">
    <g clip-path="url(#p2acca10369)">
     <!-- H -->
     <g style="fill: #ffffff" transform="translate(136.527966 240.387614) scale(0.12 -0.12)">
      <defs>
       <path id="DejaVuSans-Bold-48" d="M 588 4666 
L 1791 4666 
L 1791 2888 
L 3566 2888 
L 3566 4666 
L 4769 4666 
L 4769 0 
L 3566 0 
L 3566 1978 
L 1791 1978 
L 1791 0 
L 588 0 
L 588 4666 
z
" transform="scale(0.015625)"/>
      </defs>
      <use xlink:href="#DejaVuSans-Bold-48"/>
     </g>
    </g>
   </g>
   <g id="text_32">
    <g clip-path="url(#p2acca10369)">
     <!-- H -->
     <g style="fill: #ffffff" transform="translate(177.115304 232.551916) scale(0.12 -0.12)">
      <use xlink:href="#DejaVuSans-Bold-48"/>
     </g>
    </g>
   </g>
   <g id="text_33">
    <g clip-path="url(#p2acca10369)">
     <!-- H -->
     <g style="fill: #ffffff" transform="translate(219.783179 199.416749) scale(0.12 -0.12)">
      <use xlink:href="#DejaVuSans-Bold-48"/>
     </g>
    </g>
   </g>
   <g id="text_34">
    <g clip-path="url(#p2acca10369)">
     <!-- H -->
     <g style="fill: #ffffff" transform="translate(234.810155 165.231508) scale(0.12 -0.12)">
      <use xlink:href="#DejaVuSans-Bold-48"/>
     </g>
    </g>
   </g>
   <g id="text_35">
    <g clip-path="url(#p2acca10369)">
     <!-- C -->
     <g style="fill: #ffffff" transform="translate(155.401013 197.057743) scale(0.12 -0.12)">
      <defs>
       <path id="DejaVuSans-Bold-43" d="M 4288 256 
Q 3956 84 3597 -3 
Q 3238 -91 2847 -91 
Q 1681 -91 1000 561 
Q 319 1213 319 2328 
Q 319 3447 1000 4098 
Q 1681 4750 2847 4750 
Q 3238 4750 3597 4662 
Q 3956 4575 4288 4403 
L 4288 3438 
Q 3953 3666 3628 3772 
Q 3303 3878 2944 3878 
Q 2300 3878 1931 3465 
Q 1563 3053 1563 2328 
Q 1563 1606 1931 1193 
Q 2300 781 2944 781 
Q 3303 781 3628 887 
Q 3953 994 4288 1222 
L 4288 256 
z
" transform="scale(0.015625)"/>
      </defs>
      <use xlink:href="#DejaVuSans-Bold-43"/>
     </g>
    </g>
   </g>
   <g id="text_36">
    <g clip-path="url(#p2acca10369)">
     <!-- C -->
     <g style="fill: #ffffff" transform="translate(185.995297 172.613985) scale(0.12 -0.12)">
      <use xlink:href="#DejaVuSans-Bold-43"/>
     </g>
    </g>
   </g>
   <g id="text_37">
    <!-- C2H4Ir48 -->
    <g transform="translate(128.037226 10.934719) scale(0.1 -0.1)">
     <defs>
      <path id="DejaVuSans-43" d="M 4122 4306 
L 4122 3641 
Q 3803 3938 3442 4084 
Q 3081 4231 2675 4231 
Q 1875 4231 1450 3742 
Q 1025 3253 1025 2328 
Q 1025 1406 1450 917 
Q 1875 428 2675 428 
Q 3081 428 3442 575 
Q 3803 722 4122 1019 
L 4122 359 
Q 3791 134 3420 21 
Q 3050 -91 2638 -91 
Q 1578 -91 968 557 
Q 359 1206 359 2328 
Q 359 3453 968 4101 
Q 1578 4750 2638 4750 
Q 3056 4750 3426 4639 
Q 3797 4528 4122 4306 
z
" transform="scale(0.015625)"/>
      <path id="DejaVuSans-32" d="M 1228 531 
L 3431 531 
L 3431 0 
L 469 0 
L 469 531 
Q 828 903 1448 1529 
Q 2069 2156 2228 2338 
Q 2531 2678 2651 2914 
Q 2772 3150 2772 3378 
Q 2772 3750 2511 3984 
Q 2250 4219 1831 4219 
Q 1534 4219 1204 4116 
Q 875 4013 500 3803 
L 500 4441 
Q 881 4594 1212 4672 
Q 1544 4750 1819 4750 
Q 2544 4750 2975 4387 
Q 3406 4025 3406 3419 
Q 3406 3131 3298 2873 
Q 3191 2616 2906 2266 
Q 2828 2175 2409 1742 
Q 1991 1309 1228 531 
z
" transform="scale(0.015625)"/>
      <path id="DejaVuSans-48" d="M 628 4666 
L 1259 4666 
L 1259 2753 
L 3553 2753 
L 3553 4666 
L 4184 4666 
L 4184 0 
L 3553 0 
L 3553 2222 
L 1259 2222 
L 1259 0 
L 628 0 
L 628 4666 
z
" transform="scale(0.015625)"/>
      <path id="DejaVuSans-34" d="M 2419 4116 
L 825 1625 
L 2419 1625 
L 2419 4116 
z
M 2253 4666 
L 3047 4666 
L 3047 1625 
L 3713 1625 
L 3713 1100 
L 3047 1100 
L 3047 0 
L 2419 0 
L 2419 1100 
L 313 1100 
L 313 1709 
L 2253 4666 
z
" transform="scale(0.015625)"/>
      <path id="DejaVuSans-49" d="M 628 4666 
L 1259 4666 
L 1259 0 
L 628 0 
L 628 4666 
z
" transform="scale(0.015625)"/>
      <path id="DejaVuSans-72" d="M 2631 2963 
Q 2534 3019 2420 3045 
Q 2306 3072 2169 3072 
Q 1681 3072 1420 2755 
Q 1159 2438 1159 1844 
L 1159 0 
L 581 0 
L 581 3500 
L 1159 3500 
L 1159 2956 
Q 1341 3275 1631 3429 
Q 1922 3584 2338 3584 
Q 2397 3584 2469 3576 
Q 2541 3569 2628 3553 
L 2631 2963 
z
" transform="scale(0.015625)"/>
      <path id="DejaVuSans-38" d="M 2034 2216 
Q 1584 2216 1326 1975 
Q 1069 1734 1069 1313 
Q 1069 891 1326 650 
Q 1584 409 2034 409 
Q 2484 409 2743 651 
Q 3003 894 3003 1313 
Q 3003 1734 2745 1975 
Q 2488 2216 2034 2216 
z
M 1403 2484 
Q 997 2584 770 2862 
Q 544 3141 544 3541 
Q 544 4100 942 4425 
Q 1341 4750 2034 4750 
Q 2731 4750 3128 4425 
Q 3525 4100 3525 3541 
Q 3525 3141 3298 2862 
Q 3072 2584 2669 2484 
Q 3125 2378 3379 2068 
Q 3634 1759 3634 1313 
Q 3634 634 3220 271 
Q 2806 -91 2034 -91 
Q 1263 -91 848 271 
Q 434 634 434 1313 
Q 434 1759 690 2068 
Q 947 2378 1403 2484 
z
M 1172 3481 
Q 1172 3119 1398 2916 
Q 1625 2713 2034 2713 
Q 2441 2713 2670 2916 
Q 2900 3119 2900 3481 
Q 2900 3844 2670 4047 
Q 2441 4250 2034 4250 
Q 1625 4250 1398 4047 
Q 1172 3844 1172 3481 
z
" transform="scale(0.015625)"/>
     </defs>
     <use xlink:href="#DejaVuSans-43"/>
     <use xlink:href="#DejaVuSans-32" transform="translate(69.824219 0)"/>
     <use xlink:href="#DejaVuSans-48" transform="translate(133.447266 0)"/>
     <use xlink:href="#DejaVuSans-34" transform="translate(208.642578 0)"/>
     <use xlink:href="#DejaVuSans-49" transform="translate(272.265625 0)"/>
     <use xlink:href="#DejaVuSans-72" transform="translate(301.757812 0)"/>
     <use xlink:href="#DejaVuSans-34" transform="translate(342.871094 0)"/>
     <use xlink:href="#DejaVuSans-38" transform="translate(406.494141 0)"/>
    </g>
    <!-- Error: -8.16 eV -->
    <g transform="translate(128.037226 22.132532) scale(0.1 -0.1)">
     <defs>
      <path id="DejaVuSans-45" d="M 628 4666 
L 3578 4666 
L 3578 4134 
L 1259 4134 
L 1259 2753 
L 3481 2753 
L 3481 2222 
L 1259 2222 
L 1259 531 
L 3634 531 
L 3634 0 
L 628 0 
L 628 4666 
z
" transform="scale(0.015625)"/>
      <path id="DejaVuSans-6f" d="M 1959 3097 
Q 1497 3097 1228 2736 
Q 959 2375 959 1747 
Q 959 1119 1226 758 
Q 1494 397 1959 397 
Q 2419 397 2687 759 
Q 2956 1122 2956 1747 
Q 2956 2369 2687 2733 
Q 2419 3097 1959 3097 
z
M 1959 3584 
Q 2709 3584 3137 3096 
Q 3566 2609 3566 1747 
Q 3566 888 3137 398 
Q 2709 -91 1959 -91 
Q 1206 -91 779 398 
Q 353 888 353 1747 
Q 353 2609 779 3096 
Q 1206 3584 1959 3584 
z
" transform="scale(0.015625)"/>
      <path id="DejaVuSans-3a" d="M 750 794 
L 1409 794 
L 1409 0 
L 750 0 
L 750 794 
z
M 750 3309 
L 1409 3309 
L 1409 2516 
L 750 2516 
L 750 3309 
z
" transform="scale(0.015625)"/>
      <path id="DejaVuSans-20" transform="scale(0.015625)"/>
      <path id="DejaVuSans-2d" d="M 313 2009 
L 1997 2009 
L 1997 1497 
L 313 1497 
L 313 2009 
z
" transform="scale(0.015625)"/>
      <path id="DejaVuSans-2e" d="M 684 794 
L 1344 794 
L 1344 0 
L 684 0 
L 684 794 
z
" transform="scale(0.015625)"/>
      <path id="DejaVuSans-31" d="M 794 531 
L 1825 531 
L 1825 4091 
L 703 3866 
L 703 4441 
L 1819 4666 
L 2450 4666 
L 2450 531 
L 3481 531 
L 3481 0 
L 794 0 
L 794 531 
z
" transform="scale(0.015625)"/>
      <path id="DejaVuSans-36" d="M 2113 2584 
Q 1688 2584 1439 2293 
Q 1191 2003 1191 1497 
Q 1191 994 1439 701 
Q 1688 409 2113 409 
Q 2538 409 2786 701 
Q 3034 994 3034 1497 
Q 3034 2003 2786 2293 
Q 2538 2584 2113 2584 
z
M 3366 4563 
L 3366 3988 
Q 3128 4100 2886 4159 
Q 2644 4219 2406 4219 
Q 1781 4219 1451 3797 
Q 1122 3375 1075 2522 
Q 1259 2794 1537 2939 
Q 1816 3084 2150 3084 
Q 2853 3084 3261 2657 
Q 3669 2231 3669 1497 
Q 3669 778 3244 343 
Q 2819 -91 2113 -91 
Q 1303 -91 875 529 
Q 447 1150 447 2328 
Q 447 3434 972 4092 
Q 1497 4750 2381 4750 
Q 2619 4750 2861 4703 
Q 3103 4656 3366 4563 
z
" transform="scale(0.015625)"/>
      <path id="DejaVuSans-65" d="M 3597 1894 
L 3597 1613 
L 953 1613 
Q 991 1019 1311 708 
Q 1631 397 2203 397 
Q 2534 397 2845 478 
Q 3156 559 3463 722 
L 3463 178 
Q 3153 47 2828 -22 
Q 2503 -91 2169 -91 
Q 1331 -91 842 396 
Q 353 884 353 1716 
Q 353 2575 817 3079 
Q 1281 3584 2069 3584 
Q 2775 3584 3186 3129 
Q 3597 2675 3597 1894 
z
M 3022 2063 
Q 3016 2534 2758 2815 
Q 2500 3097 2075 3097 
Q 1594 3097 1305 2825 
Q 1016 2553 972 2059 
L 3022 2063 
z
" transform="scale(0.015625)"/>
      <path id="DejaVuSans-56" d="M 1831 0 
L 50 4666 
L 709 4666 
L 2188 738 
L 3669 4666 
L 4325 4666 
L 2547 0 
L 1831 0 
z
" transform="scale(0.015625)"/>
     </defs>
     <use xlink:href="#DejaVuSans-45"/>
     <use xlink:href="#DejaVuSans-72" transform="translate(63.183594 0)"/>
     <use xlink:href="#DejaVuSans-72" transform="translate(102.546875 0)"/>
     <use xlink:href="#DejaVuSans-6f" transform="translate(141.410156 0)"/>
     <use xlink:href="#DejaVuSans-72" transform="translate(202.591797 0)"/>
     <use xlink:href="#DejaVuSans-3a" transform="translate(241.955078 0)"/>
     <use xlink:href="#DejaVuSans-20" transform="translate(275.646484 0)"/>
     <use xlink:href="#DejaVuSans-2d" transform="translate(307.433594 0)"/>
     <use xlink:href="#DejaVuSans-38" transform="translate(343.517578 0)"/>
     <use xlink:href="#DejaVuSans-2e" transform="translate(407.140625 0)"/>
     <use xlink:href="#DejaVuSans-31" transform="translate(438.927734 0)"/>
     <use xlink:href="#DejaVuSans-36" transform="translate(502.550781 0)"/>
     <use xlink:href="#DejaVuSans-20" transform="translate(566.173828 0)"/>
     <use xlink:href="#DejaVuSans-65" transform="translate(597.960938 0)"/>
     <use xlink:href="#DejaVuSans-56" transform="translate(659.484375 0)"/>
    </g>
   </g>
  </g>
 </g>
 <defs>
  <clipPath id="p2acca10369">
   <rect x="36" y="34.56" width="223.2" height="221.76"/>
  </clipPath>
 </defs>
</svg>
