<?xml version="1.0" encoding="utf-8" standalone="no"?>
<!DOCTYPE svg PUBLIC "-//W3C//DTD SVG 1.1//EN"
  "http://www.w3.org/Graphics/SVG/1.1/DTD/svg11.dtd">
<svg xmlns:xlink="http://www.w3.org/1999/xlink" width="288pt" height="288pt" viewBox="0 0 288 288" xmlns="http://www.w3.org/2000/svg" version="1.1">
 <metadata>
  <rdf:RDF xmlns:dc="http://purl.org/dc/elements/1.1/" xmlns:cc="http://creativecommons.org/ns#" xmlns:rdf="http://www.w3.org/1999/02/22-rdf-syntax-ns#">
   <cc:Work>
    <dc:type rdf:resource="http://purl.org/dc/dcmitype/StillImage"/>
    <dc:date>2025-05-20T16:58:06.879386</dc:date>
    <dc:format>image/svg+xml</dc:format>
    <dc:creator>
     <cc:Agent>
      <dc:title>Matplotlib v3.10.1, https://matplotlib.org/</dc:title>
     </cc:Agent>
    </dc:creator>
   </cc:Work>
  </rdf:RDF>
 </metadata>
 <defs>
  <style type="text/css">*{stroke-linejoin: round; stroke-linecap: butt}</style>
 </defs>
 <g id="figure_1">
  <g id="patch_1">
   <path d="M 0 288 
L 288 288 
L 288 0 
L 0 0 
z
" style="fill: #ffffff"/>
  </g>
  <g id="axes_1">
   <g id="LineCollection_1">
    <path d="M 152.380128 72.181742 
L 176.665661 92.447638 
" clip-path="url(#p1635cdeed6)" style="fill: none; stroke: #000000; stroke-width: 1.2"/>
    <path d="M 152.380128 72.181742 
L 100.351354 60.346169 
" clip-path="url(#p1635cdeed6)" style="fill: none; stroke: #000000; stroke-width: 1.2"/>
    <path d="M 152.380128 72.181742 
L 140.423417 58.17903 
" clip-path="url(#p1635cdeed6)" style="fill: none; stroke: #000000; stroke-width: 1.2"/>
    <path d="M 152.380128 72.181742 
L 169.157591 73.598795 
" clip-path="url(#p1635cdeed6)" style="fill: none; stroke: #000000; stroke-width: 1.2"/>
    <path d="M 152.380128 72.181742 
L 104.996529 98.545326 
" clip-path="url(#p1635cdeed6)" style="fill: none; stroke: #000000; stroke-width: 1.2"/>
    <path d="M 152.380128 72.181742 
L 157.499925 110.048489 
" clip-path="url(#p1635cdeed6)" style="fill: none; stroke: #000000; stroke-width: 1.2"/>
    <path d="M 152.380128 72.181742 
L 131.649572 101.57605 
" clip-path="url(#p1635cdeed6)" style="fill: none; stroke: #000000; stroke-width: 1.2"/>
    <path d="M 176.665661 92.447638 
L 169.157591 73.598795 
" clip-path="url(#p1635cdeed6)" style="fill: none; stroke: #000000; stroke-width: 1.2"/>
    <path d="M 176.665661 92.447638 
L 118.395646 86.990976 
" clip-path="url(#p1635cdeed6)" style="fill: none; stroke: #000000; stroke-width: 1.2"/>
    <path d="M 176.665661 92.447638 
L 125.722342 116.523905 
" clip-path="url(#p1635cdeed6)" style="fill: none; stroke: #000000; stroke-width: 1.2"/>
    <path d="M 176.665661 92.447638 
L 157.499925 110.048489 
" clip-path="url(#p1635cdeed6)" style="fill: none; stroke: #000000; stroke-width: 1.2"/>
    <path d="M 100.351354 60.346169 
L 140.423417 58.17903 
" clip-path="url(#p1635cdeed6)" style="fill: none; stroke: #000000; stroke-width: 1.2"/>
    <path d="M 100.351354 60.346169 
L 70.113878 87.131699 
" clip-path="url(#p1635cdeed6)" style="fill: none; stroke: #000000; stroke-width: 1.2"/>
    <path d="M 100.351354 60.346169 
L 77.088062 106.388249 
" clip-path="url(#p1635cdeed6)" style="fill: none; stroke: #000000; stroke-width: 1.2"/>
    <path d="M 100.351354 60.346169 
L 131.649572 101.57605 
" clip-path="url(#p1635cdeed6)" style="fill: none; stroke: #000000; stroke-width: 1.2"/>
    <path d="M 140.423417 58.17903 
L 169.157591 73.598795 
" clip-path="url(#p1635cdeed6)" style="fill: none; stroke: #000000; stroke-width: 1.2"/>
    <path d="M 140.423417 58.17903 
L 116.855465 53.803636 
" clip-path="url(#p1635cdeed6)" style="fill: none; stroke: #000000; stroke-width: 1.2"/>
    <path d="M 140.423417 58.17903 
L 131.649572 101.57605 
" clip-path="url(#p1635cdeed6)" style="fill: none; stroke: #000000; stroke-width: 1.2"/>
    <path d="M 140.423417 58.17903 
L 99.758242 85.791049 
" clip-path="url(#p1635cdeed6)" style="fill: none; stroke: #000000; stroke-width: 1.2"/>
    <path d="M 140.423417 58.17903 
L 138.097434 89.895247 
" clip-path="url(#p1635cdeed6)" style="fill: none; stroke: #000000; stroke-width: 1.2"/>
    <path d="M 169.157591 73.598795 
L 116.855465 53.803636 
" clip-path="url(#p1635cdeed6)" style="fill: none; stroke: #000000; stroke-width: 1.2"/>
    <path d="M 169.157591 73.598795 
L 157.499925 110.048489 
" clip-path="url(#p1635cdeed6)" style="fill: none; stroke: #000000; stroke-width: 1.2"/>
    <path d="M 169.157591 73.598795 
L 138.097434 89.895247 
" clip-path="url(#p1635cdeed6)" style="fill: none; stroke: #000000; stroke-width: 1.2"/>
    <path d="M 169.157591 73.598795 
L 117.70144 104.438641 
" clip-path="url(#p1635cdeed6)" style="fill: none; stroke: #000000; stroke-width: 1.2"/>
    <path d="M 116.855465 53.803636 
L 79.362148 73.654778 
" clip-path="url(#p1635cdeed6)" style="fill: none; stroke: #000000; stroke-width: 1.2"/>
    <path d="M 116.855465 53.803636 
L 138.097434 89.895247 
" clip-path="url(#p1635cdeed6)" style="fill: none; stroke: #000000; stroke-width: 1.2"/>
    <path d="M 116.855465 53.803636 
L 82.414343 92.391889 
" clip-path="url(#p1635cdeed6)" style="fill: none; stroke: #000000; stroke-width: 1.2"/>
    <path d="M 118.395646 86.990976 
L 79.362148 73.654778 
" clip-path="url(#p1635cdeed6)" style="fill: none; stroke: #000000; stroke-width: 1.2"/>
    <path d="M 118.395646 86.990976 
L 70.113878 87.131699 
" clip-path="url(#p1635cdeed6)" style="fill: none; stroke: #000000; stroke-width: 1.2"/>
    <path d="M 118.395646 86.990976 
L 125.722342 116.523905 
" clip-path="url(#p1635cdeed6)" style="fill: none; stroke: #000000; stroke-width: 1.2"/>
    <path d="M 118.395646 86.990976 
L 157.499925 110.048489 
" clip-path="url(#p1635cdeed6)" style="fill: none; stroke: #000000; stroke-width: 1.2"/>
    <path d="M 118.395646 86.990976 
L 99.758242 85.791049 
" clip-path="url(#p1635cdeed6)" style="fill: none; stroke: #000000; stroke-width: 1.2"/>
    <path d="M 118.395646 86.990976 
L 117.70144 104.438641 
" clip-path="url(#p1635cdeed6)" style="fill: none; stroke: #000000; stroke-width: 1.2"/>
    <path d="M 118.395646 86.990976 
L 77.359714 125.555659 
" clip-path="url(#p1635cdeed6)" style="fill: none; stroke: #000000; stroke-width: 1.2"/>
    <path d="M 118.395646 86.990976 
L 55.368595 103.004783 
" clip-path="url(#p1635cdeed6)" style="fill: none; stroke: #000000; stroke-width: 1.2"/>
    <path d="M 118.395646 86.990976 
L 124.198455 131.611771 
" clip-path="url(#p1635cdeed6)" style="fill: none; stroke: #000000; stroke-width: 1.2"/>
    <path d="M 79.362148 73.654778 
L 70.113878 87.131699 
" clip-path="url(#p1635cdeed6)" style="fill: none; stroke: #000000; stroke-width: 1.2"/>
    <path d="M 79.362148 73.654778 
L 104.996529 98.545326 
" clip-path="url(#p1635cdeed6)" style="fill: none; stroke: #000000; stroke-width: 1.2"/>
    <path d="M 79.362148 73.654778 
L 99.758242 85.791049 
" clip-path="url(#p1635cdeed6)" style="fill: none; stroke: #000000; stroke-width: 1.2"/>
    <path d="M 79.362148 73.654778 
L 138.097434 89.895247 
" clip-path="url(#p1635cdeed6)" style="fill: none; stroke: #000000; stroke-width: 1.2"/>
    <path d="M 79.362148 73.654778 
L 82.414343 92.391889 
" clip-path="url(#p1635cdeed6)" style="fill: none; stroke: #000000; stroke-width: 1.2"/>
    <path d="M 79.362148 73.654778 
L 55.368595 103.004783 
" clip-path="url(#p1635cdeed6)" style="fill: none; stroke: #000000; stroke-width: 1.2"/>
    <path d="M 79.362148 73.654778 
L 56.557546 118.890624 
" clip-path="url(#p1635cdeed6)" style="fill: none; stroke: #000000; stroke-width: 1.2"/>
    <path d="M 79.362148 73.654778 
L 100.221438 115.511417 
" clip-path="url(#p1635cdeed6)" style="fill: none; stroke: #000000; stroke-width: 1.2"/>
    <path d="M 70.113878 87.131699 
L 104.996529 98.545326 
" clip-path="url(#p1635cdeed6)" style="fill: none; stroke: #000000; stroke-width: 1.2"/>
    <path d="M 70.113878 87.131699 
L 77.088062 106.388249 
" clip-path="url(#p1635cdeed6)" style="fill: none; stroke: #000000; stroke-width: 1.2"/>
    <path d="M 70.113878 87.131699 
L 131.649572 101.57605 
" clip-path="url(#p1635cdeed6)" style="fill: none; stroke: #000000; stroke-width: 1.2"/>
    <path d="M 70.113878 87.131699 
L 117.70144 104.438641 
" clip-path="url(#p1635cdeed6)" style="fill: none; stroke: #000000; stroke-width: 1.2"/>
    <path d="M 70.113878 87.131699 
L 55.368595 103.004783 
" clip-path="url(#p1635cdeed6)" style="fill: none; stroke: #000000; stroke-width: 1.2"/>
    <path d="M 70.113878 87.131699 
L 88.834904 131.556504 
" clip-path="url(#p1635cdeed6)" style="fill: none; stroke: #000000; stroke-width: 1.2"/>
    <path d="M 70.113878 87.131699 
L 58.700574 129.975303 
" clip-path="url(#p1635cdeed6)" style="fill: none; stroke: #000000; stroke-width: 1.2"/>
    <path d="M 104.996529 98.545326 
L 125.722342 116.523905 
" clip-path="url(#p1635cdeed6)" style="fill: none; stroke: #000000; stroke-width: 1.2"/>
    <path d="M 104.996529 98.545326 
L 157.499925 110.048489 
" clip-path="url(#p1635cdeed6)" style="fill: none; stroke: #000000; stroke-width: 1.2"/>
    <path d="M 104.996529 98.545326 
L 131.649572 101.57605 
" clip-path="url(#p1635cdeed6)" style="fill: none; stroke: #000000; stroke-width: 1.2"/>
    <path d="M 104.996529 98.545326 
L 82.414343 92.391889 
" clip-path="url(#p1635cdeed6)" style="fill: none; stroke: #000000; stroke-width: 1.2"/>
    <path d="M 104.996529 98.545326 
L 88.834904 131.556504 
" clip-path="url(#p1635cdeed6)" style="fill: none; stroke: #000000; stroke-width: 1.2"/>
    <path d="M 104.996529 98.545326 
L 56.557546 118.890624 
" clip-path="url(#p1635cdeed6)" style="fill: none; stroke: #000000; stroke-width: 1.2"/>
    <path d="M 104.996529 98.545326 
L 117.395819 146.958545 
" clip-path="url(#p1635cdeed6)" style="fill: none; stroke: #000000; stroke-width: 1.2"/>
    <path d="M 125.722342 116.523905 
L 157.499925 110.048489 
" clip-path="url(#p1635cdeed6)" style="fill: none; stroke: #000000; stroke-width: 1.2"/>
    <path d="M 125.722342 116.523905 
L 77.088062 106.388249 
" clip-path="url(#p1635cdeed6)" style="fill: none; stroke: #000000; stroke-width: 1.2"/>
    <path d="M 125.722342 116.523905 
L 99.758242 85.791049 
" clip-path="url(#p1635cdeed6)" style="fill: none; stroke: #000000; stroke-width: 1.2"/>
    <path d="M 125.722342 116.523905 
L 82.414343 92.391889 
" clip-path="url(#p1635cdeed6)" style="fill: none; stroke: #000000; stroke-width: 1.2"/>
    <path d="M 125.722342 116.523905 
L 77.359714 125.555659 
" clip-path="url(#p1635cdeed6)" style="fill: none; stroke: #000000; stroke-width: 1.2"/>
    <path d="M 125.722342 116.523905 
L 117.395819 146.958545 
" clip-path="url(#p1635cdeed6)" style="fill: none; stroke: #000000; stroke-width: 1.2"/>
    <path d="M 125.722342 116.523905 
L 71.317328 143.976897 
" clip-path="url(#p1635cdeed6)" style="fill: none; stroke: #000000; stroke-width: 1.2"/>
    <path d="M 157.499925 110.048489 
L 131.649572 101.57605 
" clip-path="url(#p1635cdeed6)" style="fill: none; stroke: #000000; stroke-width: 1.2"/>
    <path d="M 157.499925 110.048489 
L 138.097434 89.895247 
" clip-path="url(#p1635cdeed6)" style="fill: none; stroke: #000000; stroke-width: 1.2"/>
    <path d="M 157.499925 110.048489 
L 117.70144 104.438641 
" clip-path="url(#p1635cdeed6)" style="fill: none; stroke: #000000; stroke-width: 1.2"/>
    <path d="M 157.499925 110.048489 
L 117.395819 146.958545 
" clip-path="url(#p1635cdeed6)" style="fill: none; stroke: #000000; stroke-width: 1.2"/>
    <path d="M 157.499925 110.048489 
L 124.198455 131.611771 
" clip-path="url(#p1635cdeed6)" style="fill: none; stroke: #000000; stroke-width: 1.2"/>
    <path d="M 157.499925 110.048489 
L 148.996362 134.778449 
" clip-path="url(#p1635cdeed6)" style="fill: none; stroke: #000000; stroke-width: 1.2"/>
    <path d="M 77.088062 106.388249 
L 131.649572 101.57605 
" clip-path="url(#p1635cdeed6)" style="fill: none; stroke: #000000; stroke-width: 1.2"/>
    <path d="M 77.088062 106.388249 
L 99.758242 85.791049 
" clip-path="url(#p1635cdeed6)" style="fill: none; stroke: #000000; stroke-width: 1.2"/>
    <path d="M 77.088062 106.388249 
L 117.70144 104.438641 
" clip-path="url(#p1635cdeed6)" style="fill: none; stroke: #000000; stroke-width: 1.2"/>
    <path d="M 77.088062 106.388249 
L 82.414343 92.391889 
" clip-path="url(#p1635cdeed6)" style="fill: none; stroke: #000000; stroke-width: 1.2"/>
    <path d="M 77.088062 106.388249 
L 58.700574 129.975303 
" clip-path="url(#p1635cdeed6)" style="fill: none; stroke: #000000; stroke-width: 1.2"/>
    <path d="M 77.088062 106.388249 
L 102.57196 143.871134 
" clip-path="url(#p1635cdeed6)" style="fill: none; stroke: #000000; stroke-width: 1.2"/>
    <path d="M 77.088062 106.388249 
L 71.317328 143.976897 
" clip-path="url(#p1635cdeed6)" style="fill: none; stroke: #000000; stroke-width: 1.2"/>
    <path d="M 131.649572 101.57605 
L 99.758242 85.791049 
" clip-path="url(#p1635cdeed6)" style="fill: none; stroke: #000000; stroke-width: 1.2"/>
    <path d="M 131.649572 101.57605 
L 138.097434 89.895247 
" clip-path="url(#p1635cdeed6)" style="fill: none; stroke: #000000; stroke-width: 1.2"/>
    <path d="M 131.649572 101.57605 
L 88.834904 131.556504 
" clip-path="url(#p1635cdeed6)" style="fill: none; stroke: #000000; stroke-width: 1.2"/>
    <path d="M 131.649572 101.57605 
L 102.57196 143.871134 
" clip-path="url(#p1635cdeed6)" style="fill: none; stroke: #000000; stroke-width: 1.2"/>
    <path d="M 131.649572 101.57605 
L 148.996362 134.778449 
" clip-path="url(#p1635cdeed6)" style="fill: none; stroke: #000000; stroke-width: 1.2"/>
    <path d="M 99.758242 85.791049 
L 138.097434 89.895247 
" clip-path="url(#p1635cdeed6)" style="fill: none; stroke: #000000; stroke-width: 1.2"/>
    <path d="M 99.758242 85.791049 
L 77.359714 125.555659 
" clip-path="url(#p1635cdeed6)" style="fill: none; stroke: #000000; stroke-width: 1.2"/>
    <path d="M 99.758242 85.791049 
L 102.57196 143.871134 
" clip-path="url(#p1635cdeed6)" style="fill: none; stroke: #000000; stroke-width: 1.2"/>
    <path d="M 99.758242 85.791049 
L 100.221438 115.511417 
" clip-path="url(#p1635cdeed6)" style="fill: none; stroke: #000000; stroke-width: 1.2"/>
    <path d="M 138.097434 89.895247 
L 117.70144 104.438641 
" clip-path="url(#p1635cdeed6)" style="fill: none; stroke: #000000; stroke-width: 1.2"/>
    <path d="M 138.097434 89.895247 
L 82.414343 92.391889 
" clip-path="url(#p1635cdeed6)" style="fill: none; stroke: #000000; stroke-width: 1.2"/>
    <path d="M 138.097434 89.895247 
L 100.221438 115.511417 
" clip-path="url(#p1635cdeed6)" style="fill: none; stroke: #000000; stroke-width: 1.2"/>
    <path d="M 138.097434 89.895247 
L 148.996362 134.778449 
" clip-path="url(#p1635cdeed6)" style="fill: none; stroke: #000000; stroke-width: 1.2"/>
    <path d="M 138.097434 89.895247 
L 104.210512 135.264355 
" clip-path="url(#p1635cdeed6)" style="fill: none; stroke: #000000; stroke-width: 1.2"/>
    <path d="M 117.70144 104.438641 
L 82.414343 92.391889 
" clip-path="url(#p1635cdeed6)" style="fill: none; stroke: #000000; stroke-width: 1.2"/>
    <path d="M 117.70144 104.438641 
L 124.198455 131.611771 
" clip-path="url(#p1635cdeed6)" style="fill: none; stroke: #000000; stroke-width: 1.2"/>
    <path d="M 117.70144 104.438641 
L 58.700574 129.975303 
" clip-path="url(#p1635cdeed6)" style="fill: none; stroke: #000000; stroke-width: 1.2"/>
    <path d="M 117.70144 104.438641 
L 104.210512 135.264355 
" clip-path="url(#p1635cdeed6)" style="fill: none; stroke: #000000; stroke-width: 1.2"/>
    <path d="M 82.414343 92.391889 
L 56.557546 118.890624 
" clip-path="url(#p1635cdeed6)" style="fill: none; stroke: #000000; stroke-width: 1.2"/>
    <path d="M 82.414343 92.391889 
L 104.210512 135.264355 
" clip-path="url(#p1635cdeed6)" style="fill: none; stroke: #000000; stroke-width: 1.2"/>
    <path d="M 82.414343 92.391889 
L 71.317328 143.976897 
" clip-path="url(#p1635cdeed6)" style="fill: none; stroke: #000000; stroke-width: 1.2"/>
    <path d="M 77.359714 125.555659 
L 55.368595 103.004783 
" clip-path="url(#p1635cdeed6)" style="fill: none; stroke: #000000; stroke-width: 1.2"/>
    <path d="M 77.359714 125.555659 
L 117.395819 146.958545 
" clip-path="url(#p1635cdeed6)" style="fill: none; stroke: #000000; stroke-width: 1.2"/>
    <path d="M 77.359714 125.555659 
L 124.198455 131.611771 
" clip-path="url(#p1635cdeed6)" style="fill: none; stroke: #000000; stroke-width: 1.2"/>
    <path d="M 77.359714 125.555659 
L 102.57196 143.871134 
" clip-path="url(#p1635cdeed6)" style="fill: none; stroke: #000000; stroke-width: 1.2"/>
    <path d="M 77.359714 125.555659 
L 100.221438 115.511417 
" clip-path="url(#p1635cdeed6)" style="fill: none; stroke: #000000; stroke-width: 1.2"/>
    <path d="M 77.359714 125.555659 
L 71.317328 143.976897 
" clip-path="url(#p1635cdeed6)" style="fill: none; stroke: #000000; stroke-width: 1.2"/>
    <path d="M 55.368595 103.004783 
L 88.834904 131.556504 
" clip-path="url(#p1635cdeed6)" style="fill: none; stroke: #000000; stroke-width: 1.2"/>
    <path d="M 55.368595 103.004783 
L 56.557546 118.890624 
" clip-path="url(#p1635cdeed6)" style="fill: none; stroke: #000000; stroke-width: 1.2"/>
    <path d="M 55.368595 103.004783 
L 124.198455 131.611771 
" clip-path="url(#p1635cdeed6)" style="fill: none; stroke: #000000; stroke-width: 1.2"/>
    <path d="M 55.368595 103.004783 
L 58.700574 129.975303 
" clip-path="url(#p1635cdeed6)" style="fill: none; stroke: #000000; stroke-width: 1.2"/>
    <path d="M 55.368595 103.004783 
L 100.221438 115.511417 
" clip-path="url(#p1635cdeed6)" style="fill: none; stroke: #000000; stroke-width: 1.2"/>
    <path d="M 88.834904 131.556504 
L 56.557546 118.890624 
" clip-path="url(#p1635cdeed6)" style="fill: none; stroke: #000000; stroke-width: 1.2"/>
    <path d="M 88.834904 131.556504 
L 117.395819 146.958545 
" clip-path="url(#p1635cdeed6)" style="fill: none; stroke: #000000; stroke-width: 1.2"/>
    <path d="M 88.834904 131.556504 
L 58.700574 129.975303 
" clip-path="url(#p1635cdeed6)" style="fill: none; stroke: #000000; stroke-width: 1.2"/>
    <path d="M 88.834904 131.556504 
L 102.57196 143.871134 
" clip-path="url(#p1635cdeed6)" style="fill: none; stroke: #000000; stroke-width: 1.2"/>
    <path d="M 88.834904 131.556504 
L 148.996362 134.778449 
" clip-path="url(#p1635cdeed6)" style="fill: none; stroke: #000000; stroke-width: 1.2"/>
    <path d="M 56.557546 118.890624 
L 117.395819 146.958545 
" clip-path="url(#p1635cdeed6)" style="fill: none; stroke: #000000; stroke-width: 1.2"/>
    <path d="M 56.557546 118.890624 
L 100.221438 115.511417 
" clip-path="url(#p1635cdeed6)" style="fill: none; stroke: #000000; stroke-width: 1.2"/>
    <path d="M 56.557546 118.890624 
L 104.210512 135.264355 
" clip-path="url(#p1635cdeed6)" style="fill: none; stroke: #000000; stroke-width: 1.2"/>
    <path d="M 56.557546 118.890624 
L 71.317328 143.976897 
" clip-path="url(#p1635cdeed6)" style="fill: none; stroke: #000000; stroke-width: 1.2"/>
    <path d="M 117.395819 146.958545 
L 124.198455 131.611771 
" clip-path="url(#p1635cdeed6)" style="fill: none; stroke: #000000; stroke-width: 1.2"/>
    <path d="M 117.395819 146.958545 
L 148.996362 134.778449 
" clip-path="url(#p1635cdeed6)" style="fill: none; stroke: #000000; stroke-width: 1.2"/>
    <path d="M 117.395819 146.958545 
L 71.317328 143.976897 
" clip-path="url(#p1635cdeed6)" style="fill: none; stroke: #000000; stroke-width: 1.2"/>
    <path d="M 124.198455 131.611771 
L 58.700574 129.975303 
" clip-path="url(#p1635cdeed6)" style="fill: none; stroke: #000000; stroke-width: 1.2"/>
    <path d="M 124.198455 131.611771 
L 148.996362 134.778449 
" clip-path="url(#p1635cdeed6)" style="fill: none; stroke: #000000; stroke-width: 1.2"/>
    <path d="M 124.198455 131.611771 
L 104.210512 135.264355 
" clip-path="url(#p1635cdeed6)" style="fill: none; stroke: #000000; stroke-width: 1.2"/>
    <path d="M 58.700574 129.975303 
L 102.57196 143.871134 
" clip-path="url(#p1635cdeed6)" style="fill: none; stroke: #000000; stroke-width: 1.2"/>
    <path d="M 58.700574 129.975303 
L 104.210512 135.264355 
" clip-path="url(#p1635cdeed6)" style="fill: none; stroke: #000000; stroke-width: 1.2"/>
    <path d="M 58.700574 129.975303 
L 71.317328 143.976897 
" clip-path="url(#p1635cdeed6)" style="fill: none; stroke: #000000; stroke-width: 1.2"/>
    <path d="M 102.57196 143.871134 
L 100.221438 115.511417 
" clip-path="url(#p1635cdeed6)" style="fill: none; stroke: #000000; stroke-width: 1.2"/>
    <path d="M 102.57196 143.871134 
L 148.996362 134.778449 
" clip-path="url(#p1635cdeed6)" style="fill: none; stroke: #000000; stroke-width: 1.2"/>
    <path d="M 102.57196 143.871134 
L 71.317328 143.976897 
" clip-path="url(#p1635cdeed6)" style="fill: none; stroke: #000000; stroke-width: 1.2"/>
    <path d="M 100.221438 115.511417 
L 148.996362 134.778449 
" clip-path="url(#p1635cdeed6)" style="fill: none; stroke: #000000; stroke-width: 1.2"/>
    <path d="M 100.221438 115.511417 
L 104.210512 135.264355 
" clip-path="url(#p1635cdeed6)" style="fill: none; stroke: #000000; stroke-width: 1.2"/>
    <path d="M 148.996362 134.778449 
L 104.210512 135.264355 
" clip-path="url(#p1635cdeed6)" style="fill: none; stroke: #000000; stroke-width: 1.2"/>
    <path d="M 148.996362 134.778449 
L 186.000301 161.708544 
" clip-path="url(#p1635cdeed6)" style="fill: none; stroke: #000000; stroke-width: 1.2"/>
    <path d="M 104.210512 135.264355 
L 71.317328 143.976897 
" clip-path="url(#p1635cdeed6)" style="fill: none; stroke: #000000; stroke-width: 1.2"/>
    <path d="M 164.054519 237.076364 
L 189.353943 202.009958 
" clip-path="url(#p1635cdeed6)" style="fill: none; stroke: #000000; stroke-width: 1.2"/>
    <path d="M 204.15031 234.124379 
L 189.353943 202.009958 
" clip-path="url(#p1635cdeed6)" style="fill: none; stroke: #000000; stroke-width: 1.2"/>
    <path d="M 239.431439 213.969564 
L 189.353943 202.009958 
" clip-path="url(#p1635cdeed6)" style="fill: none; stroke: #000000; stroke-width: 1.2"/>
    <path d="M 229.800076 168.424189 
L 186.000301 161.708544 
" clip-path="url(#p1635cdeed6)" style="fill: none; stroke: #000000; stroke-width: 1.2"/>
    <path d="M 239.831405 147.315221 
L 186.000301 161.708544 
" clip-path="url(#p1635cdeed6)" style="fill: none; stroke: #000000; stroke-width: 1.2"/>
    <path d="M 189.353943 202.009958 
L 186.000301 161.708544 
" clip-path="url(#p1635cdeed6)" style="fill: none; stroke: #000000; stroke-width: 1.2"/>
   </g>
   <g id="PathCollection_1">
    <defs>
     <path id="C0_0_3dfcc00f45" d="M 0 8.944272 
C 2.372049 8.944272 4.647264 8.001847 6.324555 6.324555 
C 8.001847 4.647264 8.944272 2.372049 8.944272 -0 
C 8.944272 -2.372049 8.001847 -4.647264 6.324555 -6.324555 
C 4.647264 -8.001847 2.372049 -8.944272 0 -8.944272 
C -2.372049 -8.944272 -4.647264 -8.001847 -6.324555 -6.324555 
C -8.001847 -4.647264 -8.944272 -2.372049 -8.944272 0 
C -8.944272 2.372049 -8.001847 4.647264 -6.324555 6.324555 
C -4.647264 8.001847 -2.372049 8.944272 0 8.944272 
z
"/>
    </defs>
    <g clip-path="url(#p1635cdeed6)">
     <use xlink:href="#C0_0_3dfcc00f45" x="152.380128" y="72.181742" style="fill: #175487; stroke: #175487; stroke-width: 0.5"/>
    </g>
    <g clip-path="url(#p1635cdeed6)">
     <use xlink:href="#C0_0_3dfcc00f45" x="176.665661" y="92.447638" style="fill: #175487; stroke: #175487; stroke-width: 0.5"/>
    </g>
    <g clip-path="url(#p1635cdeed6)">
     <use xlink:href="#C0_0_3dfcc00f45" x="100.351354" y="60.346169" style="fill: #175487; stroke: #175487; stroke-width: 0.5"/>
    </g>
    <g clip-path="url(#p1635cdeed6)">
     <use xlink:href="#C0_0_3dfcc00f45" x="140.423417" y="58.17903" style="fill: #175487; stroke: #175487; stroke-width: 0.5"/>
    </g>
    <g clip-path="url(#p1635cdeed6)">
     <use xlink:href="#C0_0_3dfcc00f45" x="169.157591" y="73.598795" style="fill: #175487; stroke: #175487; stroke-width: 0.5"/>
    </g>
    <g clip-path="url(#p1635cdeed6)">
     <use xlink:href="#C0_0_3dfcc00f45" x="116.855465" y="53.803636" style="fill: #175487; stroke: #175487; stroke-width: 0.5"/>
    </g>
    <g clip-path="url(#p1635cdeed6)">
     <use xlink:href="#C0_0_3dfcc00f45" x="118.395646" y="86.990976" style="fill: #175487; stroke: #175487; stroke-width: 0.5"/>
    </g>
    <g clip-path="url(#p1635cdeed6)">
     <use xlink:href="#C0_0_3dfcc00f45" x="79.362148" y="73.654778" style="fill: #175487; stroke: #175487; stroke-width: 0.5"/>
    </g>
    <g clip-path="url(#p1635cdeed6)">
     <use xlink:href="#C0_0_3dfcc00f45" x="70.113878" y="87.131699" style="fill: #175487; stroke: #175487; stroke-width: 0.5"/>
    </g>
    <g clip-path="url(#p1635cdeed6)">
     <use xlink:href="#C0_0_3dfcc00f45" x="104.996529" y="98.545326" style="fill: #175487; stroke: #175487; stroke-width: 0.5"/>
    </g>
    <g clip-path="url(#p1635cdeed6)">
     <use xlink:href="#C0_0_3dfcc00f45" x="125.722342" y="116.523905" style="fill: #175487; stroke: #175487; stroke-width: 0.5"/>
    </g>
    <g clip-path="url(#p1635cdeed6)">
     <use xlink:href="#C0_0_3dfcc00f45" x="157.499925" y="110.048489" style="fill: #175487; stroke: #175487; stroke-width: 0.5"/>
    </g>
    <g clip-path="url(#p1635cdeed6)">
     <use xlink:href="#C0_0_3dfcc00f45" x="77.088062" y="106.388249" style="fill: #175487; stroke: #175487; stroke-width: 0.5"/>
    </g>
    <g clip-path="url(#p1635cdeed6)">
     <use xlink:href="#C0_0_3dfcc00f45" x="131.649572" y="101.57605" style="fill: #175487; stroke: #175487; stroke-width: 0.5"/>
    </g>
    <g clip-path="url(#p1635cdeed6)">
     <use xlink:href="#C0_0_3dfcc00f45" x="99.758242" y="85.791049" style="fill: #175487; stroke: #175487; stroke-width: 0.5"/>
    </g>
    <g clip-path="url(#p1635cdeed6)">
     <use xlink:href="#C0_0_3dfcc00f45" x="138.097434" y="89.895247" style="fill: #175487; stroke: #175487; stroke-width: 0.5"/>
    </g>
    <g clip-path="url(#p1635cdeed6)">
     <use xlink:href="#C0_0_3dfcc00f45" x="117.70144" y="104.438641" style="fill: #175487; stroke: #175487; stroke-width: 0.5"/>
    </g>
    <g clip-path="url(#p1635cdeed6)">
     <use xlink:href="#C0_0_3dfcc00f45" x="82.414343" y="92.391889" style="fill: #175487; stroke: #175487; stroke-width: 0.5"/>
    </g>
    <g clip-path="url(#p1635cdeed6)">
     <use xlink:href="#C0_0_3dfcc00f45" x="77.359714" y="125.555659" style="fill: #175487; stroke: #175487; stroke-width: 0.5"/>
    </g>
    <g clip-path="url(#p1635cdeed6)">
     <use xlink:href="#C0_0_3dfcc00f45" x="55.368595" y="103.004783" style="fill: #175487; stroke: #175487; stroke-width: 0.5"/>
    </g>
    <g clip-path="url(#p1635cdeed6)">
     <use xlink:href="#C0_0_3dfcc00f45" x="88.834904" y="131.556504" style="fill: #175487; stroke: #175487; stroke-width: 0.5"/>
    </g>
    <g clip-path="url(#p1635cdeed6)">
     <use xlink:href="#C0_0_3dfcc00f45" x="56.557546" y="118.890624" style="fill: #175487; stroke: #175487; stroke-width: 0.5"/>
    </g>
    <g clip-path="url(#p1635cdeed6)">
     <use xlink:href="#C0_0_3dfcc00f45" x="117.395819" y="146.958545" style="fill: #175487; stroke: #175487; stroke-width: 0.5"/>
    </g>
    <g clip-path="url(#p1635cdeed6)">
     <use xlink:href="#C0_0_3dfcc00f45" x="124.198455" y="131.611771" style="fill: #175487; stroke: #175487; stroke-width: 0.5"/>
    </g>
    <g clip-path="url(#p1635cdeed6)">
     <use xlink:href="#C0_0_3dfcc00f45" x="58.700574" y="129.975303" style="fill: #175487; stroke: #175487; stroke-width: 0.5"/>
    </g>
    <g clip-path="url(#p1635cdeed6)">
     <use xlink:href="#C0_0_3dfcc00f45" x="102.57196" y="143.871134" style="fill: #175487; stroke: #175487; stroke-width: 0.5"/>
    </g>
    <g clip-path="url(#p1635cdeed6)">
     <use xlink:href="#C0_0_3dfcc00f45" x="100.221438" y="115.511417" style="fill: #175487; stroke: #175487; stroke-width: 0.5"/>
    </g>
    <g clip-path="url(#p1635cdeed6)">
     <use xlink:href="#C0_0_3dfcc00f45" x="148.996362" y="134.778449" style="fill: #175487; stroke: #175487; stroke-width: 0.5"/>
    </g>
    <g clip-path="url(#p1635cdeed6)">
     <use xlink:href="#C0_0_3dfcc00f45" x="104.210512" y="135.264355" style="fill: #175487; stroke: #175487; stroke-width: 0.5"/>
    </g>
    <g clip-path="url(#p1635cdeed6)">
     <use xlink:href="#C0_0_3dfcc00f45" x="71.317328" y="143.976897" style="fill: #175487; stroke: #175487; stroke-width: 0.5"/>
    </g>
    <g clip-path="url(#p1635cdeed6)">
     <use xlink:href="#C0_0_3dfcc00f45" x="164.054519" y="237.076364" style="fill: #bfbfbf; stroke: #bfbfbf; stroke-width: 0.5"/>
    </g>
    <g clip-path="url(#p1635cdeed6)">
     <use xlink:href="#C0_0_3dfcc00f45" x="204.15031" y="234.124379" style="fill: #bfbfbf; stroke: #bfbfbf; stroke-width: 0.5"/>
    </g>
    <g clip-path="url(#p1635cdeed6)">
     <use xlink:href="#C0_0_3dfcc00f45" x="239.431439" y="213.969564" style="fill: #bfbfbf; stroke: #bfbfbf; stroke-width: 0.5"/>
    </g>
    <g clip-path="url(#p1635cdeed6)">
     <use xlink:href="#C0_0_3dfcc00f45" x="229.800076" y="168.424189" style="fill: #bfbfbf; stroke: #bfbfbf; stroke-width: 0.5"/>
    </g>
    <g clip-path="url(#p1635cdeed6)">
     <use xlink:href="#C0_0_3dfcc00f45" x="239.831405" y="147.315221" style="fill: #bfbfbf; stroke: #bfbfbf; stroke-width: 0.5"/>
    </g>
    <g clip-path="url(#p1635cdeed6)">
     <use xlink:href="#C0_0_3dfcc00f45" x="189.353943" y="202.009958" style="fill: #666666; stroke: #666666; stroke-width: 0.5"/>
    </g>
    <g clip-path="url(#p1635cdeed6)">
     <use xlink:href="#C0_0_3dfcc00f45" x="186.000301" y="161.708544" style="fill: #0d0dff; stroke: #0d0dff; stroke-width: 0.5"/>
    </g>
   </g>
   <g id="text_1">
    <g clip-path="url(#p1635cdeed6)">
     <!-- Ir -->
     <g style="fill: #ffffff" transform="translate(147.18919 75.492992) scale(0.12 -0.12)">
      <defs>
       <path id="DejaVuSans-Bold-49" d="M 588 4666 
L 1791 4666 
L 1791 0 
L 588 0 
L 588 4666 
z
" transform="scale(0.015625)"/>
       <path id="DejaVuSans-Bold-72" d="M 3138 2547 
Q 2991 2616 2845 2648 
Q 2700 2681 2553 2681 
Q 2122 2681 1889 2404 
Q 1656 2128 1656 1613 
L 1656 0 
L 538 0 
L 538 3500 
L 1656 3500 
L 1656 2925 
Q 1872 3269 2151 3426 
Q 2431 3584 2822 3584 
Q 2878 3584 2943 3579 
Q 3009 3575 3134 3559 
L 3138 2547 
z
" transform="scale(0.015625)"/>
      </defs>
      <use xlink:href="#DejaVuSans-Bold-49"/>
      <use xlink:href="#DejaVuSans-Bold-72" transform="translate(37.207031 0)"/>
     </g>
    </g>
   </g>
   <g id="text_2">
    <g clip-path="url(#p1635cdeed6)">
     <!-- Ir -->
     <g style="fill: #ffffff" transform="translate(171.474723 95.758888) scale(0.12 -0.12)">
      <use xlink:href="#DejaVuSans-Bold-49"/>
      <use xlink:href="#DejaVuSans-Bold-72" transform="translate(37.207031 0)"/>
     </g>
    </g>
   </g>
   <g id="text_3">
    <g clip-path="url(#p1635cdeed6)">
     <!-- Ir -->
     <g style="fill: #ffffff" transform="translate(95.160417 63.657419) scale(0.12 -0.12)">
      <use xlink:href="#DejaVuSans-Bold-49"/>
      <use xlink:href="#DejaVuSans-Bold-72" transform="translate(37.207031 0)"/>
     </g>
    </g>
   </g>
   <g id="text_4">
    <g clip-path="url(#p1635cdeed6)">
     <!-- Ir -->
     <g style="fill: #ffffff" transform="translate(135.232479 61.49028) scale(0.12 -0.12)">
      <use xlink:href="#DejaVuSans-Bold-49"/>
      <use xlink:href="#DejaVuSans-Bold-72" transform="translate(37.207031 0)"/>
     </g>
    </g>
   </g>
   <g id="text_5">
    <g clip-path="url(#p1635cdeed6)">
     <!-- Ir -->
     <g style="fill: #ffffff" transform="translate(163.966654 76.910045) scale(0.12 -0.12)">
      <use xlink:href="#DejaVuSans-Bold-49"/>
      <use xlink:href="#DejaVuSans-Bold-72" transform="translate(37.207031 0)"/>
     </g>
    </g>
   </g>
   <g id="text_6">
    <g clip-path="url(#p1635cdeed6)">
     <!-- Ir -->
     <g style="fill: #ffffff" transform="translate(111.664528 57.114886) scale(0.12 -0.12)">
      <use xlink:href="#DejaVuSans-Bold-49"/>
      <use xlink:href="#DejaVuSans-Bold-72" transform="translate(37.207031 0)"/>
     </g>
    </g>
   </g>
   <g id="text_7">
    <g clip-path="url(#p1635cdeed6)">
     <!-- Ir -->
     <g style="fill: #ffffff" transform="translate(113.204709 90.302226) scale(0.12 -0.12)">
      <use xlink:href="#DejaVuSans-Bold-49"/>
      <use xlink:href="#DejaVuSans-Bold-72" transform="translate(37.207031 0)"/>
     </g>
    </g>
   </g>
   <g id="text_8">
    <g clip-path="url(#p1635cdeed6)">
     <!-- Ir -->
     <g style="fill: #ffffff" transform="translate(74.171211 76.966028) scale(0.12 -0.12)">
      <use xlink:href="#DejaVuSans-Bold-49"/>
      <use xlink:href="#DejaVuSans-Bold-72" transform="translate(37.207031 0)"/>
     </g>
    </g>
   </g>
   <g id="text_9">
    <g clip-path="url(#p1635cdeed6)">
     <!-- Ir -->
     <g style="fill: #ffffff" transform="translate(64.922941 90.442949) scale(0.12 -0.12)">
      <use xlink:href="#DejaVuSans-Bold-49"/>
      <use xlink:href="#DejaVuSans-Bold-72" transform="translate(37.207031 0)"/>
     </g>
    </g>
   </g>
   <g id="text_10">
    <g clip-path="url(#p1635cdeed6)">
     <!-- Ir -->
     <g style="fill: #ffffff" transform="translate(99.805592 101.856576) scale(0.12 -0.12)">
      <use xlink:href="#DejaVuSans-Bold-49"/>
      <use xlink:href="#DejaVuSans-Bold-72" transform="translate(37.207031 0)"/>
     </g>
    </g>
   </g>
   <g id="text_11">
    <g clip-path="url(#p1635cdeed6)">
     <!-- Ir -->
     <g style="fill: #ffffff" transform="translate(120.531404 119.835155) scale(0.12 -0.12)">
      <use xlink:href="#DejaVuSans-Bold-49"/>
      <use xlink:href="#DejaVuSans-Bold-72" transform="translate(37.207031 0)"/>
     </g>
    </g>
   </g>
   <g id="text_12">
    <g clip-path="url(#p1635cdeed6)">
     <!-- Ir -->
     <g style="fill: #ffffff" transform="translate(152.308987 113.359739) scale(0.12 -0.12)">
      <use xlink:href="#DejaVuSans-Bold-49"/>
      <use xlink:href="#DejaVuSans-Bold-72" transform="translate(37.207031 0)"/>
     </g>
    </g>
   </g>
   <g id="text_13">
    <g clip-path="url(#p1635cdeed6)">
     <!-- Ir -->
     <g style="fill: #ffffff" transform="translate(71.897125 109.699499) scale(0.12 -0.12)">
      <use xlink:href="#DejaVuSans-Bold-49"/>
      <use xlink:href="#DejaVuSans-Bold-72" transform="translate(37.207031 0)"/>
     </g>
    </g>
   </g>
   <g id="text_14">
    <g clip-path="url(#p1635cdeed6)">
     <!-- Ir -->
     <g style="fill: #ffffff" transform="translate(126.458635 104.8873) scale(0.12 -0.12)">
      <use xlink:href="#DejaVuSans-Bold-49"/>
      <use xlink:href="#DejaVuSans-Bold-72" transform="translate(37.207031 0)"/>
     </g>
    </g>
   </g>
   <g id="text_15">
    <g clip-path="url(#p1635cdeed6)">
     <!-- Ir -->
     <g style="fill: #ffffff" transform="translate(94.567304 89.102299) scale(0.12 -0.12)">
      <use xlink:href="#DejaVuSans-Bold-49"/>
      <use xlink:href="#DejaVuSans-Bold-72" transform="translate(37.207031 0)"/>
     </g>
    </g>
   </g>
   <g id="text_16">
    <g clip-path="url(#p1635cdeed6)">
     <!-- Ir -->
     <g style="fill: #ffffff" transform="translate(132.906497 93.206497) scale(0.12 -0.12)">
      <use xlink:href="#DejaVuSans-Bold-49"/>
      <use xlink:href="#DejaVuSans-Bold-72" transform="translate(37.207031 0)"/>
     </g>
    </g>
   </g>
   <g id="text_17">
    <g clip-path="url(#p1635cdeed6)">
     <!-- Ir -->
     <g style="fill: #ffffff" transform="translate(112.510503 107.749891) scale(0.12 -0.12)">
      <use xlink:href="#DejaVuSans-Bold-49"/>
      <use xlink:href="#DejaVuSans-Bold-72" transform="translate(37.207031 0)"/>
     </g>
    </g>
   </g>
   <g id="text_18">
    <g clip-path="url(#p1635cdeed6)">
     <!-- Ir -->
     <g style="fill: #ffffff" transform="translate(77.223405 95.703139) scale(0.12 -0.12)">
      <use xlink:href="#DejaVuSans-Bold-49"/>
      <use xlink:href="#DejaVuSans-Bold-72" transform="translate(37.207031 0)"/>
     </g>
    </g>
   </g>
   <g id="text_19">
    <g clip-path="url(#p1635cdeed6)">
     <!-- Ir -->
     <g style="fill: #ffffff" transform="translate(72.168777 128.866909) scale(0.12 -0.12)">
      <use xlink:href="#DejaVuSans-Bold-49"/>
      <use xlink:href="#DejaVuSans-Bold-72" transform="translate(37.207031 0)"/>
     </g>
    </g>
   </g>
   <g id="text_20">
    <g clip-path="url(#p1635cdeed6)">
     <!-- Ir -->
     <g style="fill: #ffffff" transform="translate(50.177658 106.316033) scale(0.12 -0.12)">
      <use xlink:href="#DejaVuSans-Bold-49"/>
      <use xlink:href="#DejaVuSans-Bold-72" transform="translate(37.207031 0)"/>
     </g>
    </g>
   </g>
   <g id="text_21">
    <g clip-path="url(#p1635cdeed6)">
     <!-- Ir -->
     <g style="fill: #ffffff" transform="translate(83.643967 134.867754) scale(0.12 -0.12)">
      <use xlink:href="#DejaVuSans-Bold-49"/>
      <use xlink:href="#DejaVuSans-Bold-72" transform="translate(37.207031 0)"/>
     </g>
    </g>
   </g>
   <g id="text_22">
    <g clip-path="url(#p1635cdeed6)">
     <!-- Ir -->
     <g style="fill: #ffffff" transform="translate(51.366609 122.201874) scale(0.12 -0.12)">
      <use xlink:href="#DejaVuSans-Bold-49"/>
      <use xlink:href="#DejaVuSans-Bold-72" transform="translate(37.207031 0)"/>
     </g>
    </g>
   </g>
   <g id="text_23">
    <g clip-path="url(#p1635cdeed6)">
     <!-- Ir -->
     <g style="fill: #ffffff" transform="translate(112.204881 150.269795) scale(0.12 -0.12)">
      <use xlink:href="#DejaVuSans-Bold-49"/>
      <use xlink:href="#DejaVuSans-Bold-72" transform="translate(37.207031 0)"/>
     </g>
    </g>
   </g>
   <g id="text_24">
    <g clip-path="url(#p1635cdeed6)">
     <!-- Ir -->
     <g style="fill: #ffffff" transform="translate(119.007517 134.923021) scale(0.12 -0.12)">
      <use xlink:href="#DejaVuSans-Bold-49"/>
      <use xlink:href="#DejaVuSans-Bold-72" transform="translate(37.207031 0)"/>
     </g>
    </g>
   </g>
   <g id="text_25">
    <g clip-path="url(#p1635cdeed6)">
     <!-- Ir -->
     <g style="fill: #ffffff" transform="translate(53.509637 133.286553) scale(0.12 -0.12)">
      <use xlink:href="#DejaVuSans-Bold-49"/>
      <use xlink:href="#DejaVuSans-Bold-72" transform="translate(37.207031 0)"/>
     </g>
    </g>
   </g>
   <g id="text_26">
    <g clip-path="url(#p1635cdeed6)">
     <!-- Ir -->
     <g style="fill: #ffffff" transform="translate(97.381022 147.182384) scale(0.12 -0.12)">
      <use xlink:href="#DejaVuSans-Bold-49"/>
      <use xlink:href="#DejaVuSans-Bold-72" transform="translate(37.207031 0)"/>
     </g>
    </g>
   </g>
   <g id="text_27">
    <g clip-path="url(#p1635cdeed6)">
     <!-- Ir -->
     <g style="fill: #ffffff" transform="translate(95.030501 118.822667) scale(0.12 -0.12)">
      <use xlink:href="#DejaVuSans-Bold-49"/>
      <use xlink:href="#DejaVuSans-Bold-72" transform="translate(37.207031 0)"/>
     </g>
    </g>
   </g>
   <g id="text_28">
    <g clip-path="url(#p1635cdeed6)">
     <!-- Ir -->
     <g style="fill: #ffffff" transform="translate(143.805424 138.089699) scale(0.12 -0.12)">
      <use xlink:href="#DejaVuSans-Bold-49"/>
      <use xlink:href="#DejaVuSans-Bold-72" transform="translate(37.207031 0)"/>
     </g>
    </g>
   </g>
   <g id="text_29">
    <g clip-path="url(#p1635cdeed6)">
     <!-- Ir -->
     <g style="fill: #ffffff" transform="translate(99.019575 138.575605) scale(0.12 -0.12)">
      <use xlink:href="#DejaVuSans-Bold-49"/>
      <use xlink:href="#DejaVuSans-Bold-72" transform="translate(37.207031 0)"/>
     </g>
    </g>
   </g>
   <g id="text_30">
    <g clip-path="url(#p1635cdeed6)">
     <!-- Ir -->
     <g style="fill: #ffffff" transform="translate(66.126391 147.288147) scale(0.12 -0.12)">
      <use xlink:href="#DejaVuSans-Bold-49"/>
      <use xlink:href="#DejaVuSans-Bold-72" transform="translate(37.207031 0)"/>
     </g>
    </g>
   </g>
   <g id="text_31">
    <g clip-path="url(#p1635cdeed6)">
     <!-- H -->
     <g style="fill: #ffffff" transform="translate(159.033269 240.387614) scale(0.12 -0.12)">
      <defs>
       <path id="DejaVuSans-Bold-48" d="M 588 4666 
L 1791 4666 
L 1791 2888 
L 3566 2888 
L 3566 4666 
L 4769 4666 
L 4769 0 
L 3566 0 
L 3566 1978 
L 1791 1978 
L 1791 0 
L 588 0 
L 588 4666 
z
" transform="scale(0.015625)"/>
      </defs>
      <use xlink:href="#DejaVuSans-Bold-48"/>
     </g>
    </g>
   </g>
   <g id="text_32">
    <g clip-path="url(#p1635cdeed6)">
     <!-- H -->
     <g style="fill: #ffffff" transform="translate(199.12906 237.435629) scale(0.12 -0.12)">
      <use xlink:href="#DejaVuSans-Bold-48"/>
     </g>
    </g>
   </g>
   <g id="text_33">
    <g clip-path="url(#p1635cdeed6)">
     <!-- H -->
     <g style="fill: #ffffff" transform="translate(234.410189 217.280814) scale(0.12 -0.12)">
      <use xlink:href="#DejaVuSans-Bold-48"/>
     </g>
    </g>
   </g>
   <g id="text_34">
    <g clip-path="url(#p1635cdeed6)">
     <!-- H -->
     <g style="fill: #ffffff" transform="translate(224.778826 171.735439) scale(0.12 -0.12)">
      <use xlink:href="#DejaVuSans-Bold-48"/>
     </g>
    </g>
   </g>
   <g id="text_35">
    <g clip-path="url(#p1635cdeed6)">
     <!-- H -->
     <g style="fill: #ffffff" transform="translate(234.810155 150.626471) scale(0.12 -0.12)">
      <use xlink:href="#DejaVuSans-Bold-48"/>
     </g>
    </g>
   </g>
   <g id="text_36">
    <g clip-path="url(#p1635cdeed6)">
     <!-- C -->
     <g style="fill: #ffffff" transform="translate(184.950505 205.321208) scale(0.12 -0.12)">
      <defs>
       <path id="DejaVuSans-Bold-43" d="M 4288 256 
Q 3956 84 3597 -3 
Q 3238 -91 2847 -91 
Q 1681 -91 1000 561 
Q 319 1213 319 2328 
Q 319 3447 1000 4098 
Q 1681 4750 2847 4750 
Q 3238 4750 3597 4662 
Q 3956 4575 4288 4403 
L 4288 3438 
Q 3953 3666 3628 3772 
Q 3303 3878 2944 3878 
Q 2300 3878 1931 3465 
Q 1563 3053 1563 2328 
Q 1563 1606 1931 1193 
Q 2300 781 2944 781 
Q 3303 781 3628 887 
Q 3953 994 4288 1222 
L 4288 256 
z
" transform="scale(0.015625)"/>
      </defs>
      <use xlink:href="#DejaVuSans-Bold-43"/>
     </g>
    </g>
   </g>
   <g id="text_37">
    <g clip-path="url(#p1635cdeed6)">
     <!-- N -->
     <g style="fill: #ffffff" transform="translate(180.979051 165.019794) scale(0.12 -0.12)">
      <defs>
       <path id="DejaVuSans-Bold-4e" d="M 588 4666 
L 1931 4666 
L 3628 1466 
L 3628 4666 
L 4769 4666 
L 4769 0 
L 3425 0 
L 1728 3200 
L 1728 0 
L 588 0 
L 588 4666 
z
" transform="scale(0.015625)"/>
      </defs>
      <use xlink:href="#DejaVuSans-Bold-4e"/>
     </g>
    </g>
   </g>
   <g id="text_38">
    <!-- CH5Ir48N -->
    <g transform="translate(132.143361 5.976223) scale(0.1 -0.1)">
     <defs>
      <path id="DejaVuSans-43" d="M 4122 4306 
L 4122 3641 
Q 3803 3938 3442 4084 
Q 3081 4231 2675 4231 
Q 1875 4231 1450 3742 
Q 1025 3253 1025 2328 
Q 1025 1406 1450 917 
Q 1875 428 2675 428 
Q 3081 428 3442 575 
Q 3803 722 4122 1019 
L 4122 359 
Q 3791 134 3420 21 
Q 3050 -91 2638 -91 
Q 1578 -91 968 557 
Q 359 1206 359 2328 
Q 359 3453 968 4101 
Q 1578 4750 2638 4750 
Q 3056 4750 3426 4639 
Q 3797 4528 4122 4306 
z
" transform="scale(0.015625)"/>
      <path id="DejaVuSans-48" d="M 628 4666 
L 1259 4666 
L 1259 2753 
L 3553 2753 
L 3553 4666 
L 4184 4666 
L 4184 0 
L 3553 0 
L 3553 2222 
L 1259 2222 
L 1259 0 
L 628 0 
L 628 4666 
z
" transform="scale(0.015625)"/>
      <path id="DejaVuSans-35" d="M 691 4666 
L 3169 4666 
L 3169 4134 
L 1269 4134 
L 1269 2991 
Q 1406 3038 1543 3061 
Q 1681 3084 1819 3084 
Q 2600 3084 3056 2656 
Q 3513 2228 3513 1497 
Q 3513 744 3044 326 
Q 2575 -91 1722 -91 
Q 1428 -91 1123 -41 
Q 819 9 494 109 
L 494 744 
Q 775 591 1075 516 
Q 1375 441 1709 441 
Q 2250 441 2565 725 
Q 2881 1009 2881 1497 
Q 2881 1984 2565 2268 
Q 2250 2553 1709 2553 
Q 1456 2553 1204 2497 
Q 953 2441 691 2322 
L 691 4666 
z
" transform="scale(0.015625)"/>
      <path id="DejaVuSans-49" d="M 628 4666 
L 1259 4666 
L 1259 0 
L 628 0 
L 628 4666 
z
" transform="scale(0.015625)"/>
      <path id="DejaVuSans-72" d="M 2631 2963 
Q 2534 3019 2420 3045 
Q 2306 3072 2169 3072 
Q 1681 3072 1420 2755 
Q 1159 2438 1159 1844 
L 1159 0 
L 581 0 
L 581 3500 
L 1159 3500 
L 1159 2956 
Q 1341 3275 1631 3429 
Q 1922 3584 2338 3584 
Q 2397 3584 2469 3576 
Q 2541 3569 2628 3553 
L 2631 2963 
z
" transform="scale(0.015625)"/>
      <path id="DejaVuSans-34" d="M 2419 4116 
L 825 1625 
L 2419 1625 
L 2419 4116 
z
M 2253 4666 
L 3047 4666 
L 3047 1625 
L 3713 1625 
L 3713 1100 
L 3047 1100 
L 3047 0 
L 2419 0 
L 2419 1100 
L 313 1100 
L 313 1709 
L 2253 4666 
z
" transform="scale(0.015625)"/>
      <path id="DejaVuSans-38" d="M 2034 2216 
Q 1584 2216 1326 1975 
Q 1069 1734 1069 1313 
Q 1069 891 1326 650 
Q 1584 409 2034 409 
Q 2484 409 2743 651 
Q 3003 894 3003 1313 
Q 3003 1734 2745 1975 
Q 2488 2216 2034 2216 
z
M 1403 2484 
Q 997 2584 770 2862 
Q 544 3141 544 3541 
Q 544 4100 942 4425 
Q 1341 4750 2034 4750 
Q 2731 4750 3128 4425 
Q 3525 4100 3525 3541 
Q 3525 3141 3298 2862 
Q 3072 2584 2669 2484 
Q 3125 2378 3379 2068 
Q 3634 1759 3634 1313 
Q 3634 634 3220 271 
Q 2806 -91 2034 -91 
Q 1263 -91 848 271 
Q 434 634 434 1313 
Q 434 1759 690 2068 
Q 947 2378 1403 2484 
z
M 1172 3481 
Q 1172 3119 1398 2916 
Q 1625 2713 2034 2713 
Q 2441 2713 2670 2916 
Q 2900 3119 2900 3481 
Q 2900 3844 2670 4047 
Q 2441 4250 2034 4250 
Q 1625 4250 1398 4047 
Q 1172 3844 1172 3481 
z
" transform="scale(0.015625)"/>
      <path id="DejaVuSans-4e" d="M 628 4666 
L 1478 4666 
L 3547 763 
L 3547 4666 
L 4159 4666 
L 4159 0 
L 3309 0 
L 1241 3903 
L 1241 0 
L 628 0 
L 628 4666 
z
" transform="scale(0.015625)"/>
     </defs>
     <use xlink:href="#DejaVuSans-43"/>
     <use xlink:href="#DejaVuSans-48" transform="translate(69.824219 0)"/>
     <use xlink:href="#DejaVuSans-35" transform="translate(145.019531 0)"/>
     <use xlink:href="#DejaVuSans-49" transform="translate(208.642578 0)"/>
     <use xlink:href="#DejaVuSans-72" transform="translate(238.134766 0)"/>
     <use xlink:href="#DejaVuSans-34" transform="translate(279.248047 0)"/>
     <use xlink:href="#DejaVuSans-38" transform="translate(342.871094 0)"/>
     <use xlink:href="#DejaVuSans-4e" transform="translate(406.494141 0)"/>
    </g>
    <!-- Error: -8.86 eV -->
    <g transform="translate(132.143361 17.174036) scale(0.1 -0.1)">
     <defs>
      <path id="DejaVuSans-45" d="M 628 4666 
L 3578 4666 
L 3578 4134 
L 1259 4134 
L 1259 2753 
L 3481 2753 
L 3481 2222 
L 1259 2222 
L 1259 531 
L 3634 531 
L 3634 0 
L 628 0 
L 628 4666 
z
" transform="scale(0.015625)"/>
      <path id="DejaVuSans-6f" d="M 1959 3097 
Q 1497 3097 1228 2736 
Q 959 2375 959 1747 
Q 959 1119 1226 758 
Q 1494 397 1959 397 
Q 2419 397 2687 759 
Q 2956 1122 2956 1747 
Q 2956 2369 2687 2733 
Q 2419 3097 1959 3097 
z
M 1959 3584 
Q 2709 3584 3137 3096 
Q 3566 2609 3566 1747 
Q 3566 888 3137 398 
Q 2709 -91 1959 -91 
Q 1206 -91 779 398 
Q 353 888 353 1747 
Q 353 2609 779 3096 
Q 1206 3584 1959 3584 
z
" transform="scale(0.015625)"/>
      <path id="DejaVuSans-3a" d="M 750 794 
L 1409 794 
L 1409 0 
L 750 0 
L 750 794 
z
M 750 3309 
L 1409 3309 
L 1409 2516 
L 750 2516 
L 750 3309 
z
" transform="scale(0.015625)"/>
      <path id="DejaVuSans-20" transform="scale(0.015625)"/>
      <path id="DejaVuSans-2d" d="M 313 2009 
L 1997 2009 
L 1997 1497 
L 313 1497 
L 313 2009 
z
" transform="scale(0.015625)"/>
      <path id="DejaVuSans-2e" d="M 684 794 
L 1344 794 
L 1344 0 
L 684 0 
L 684 794 
z
" transform="scale(0.015625)"/>
      <path id="DejaVuSans-36" d="M 2113 2584 
Q 1688 2584 1439 2293 
Q 1191 2003 1191 1497 
Q 1191 994 1439 701 
Q 1688 409 2113 409 
Q 2538 409 2786 701 
Q 3034 994 3034 1497 
Q 3034 2003 2786 2293 
Q 2538 2584 2113 2584 
z
M 3366 4563 
L 3366 3988 
Q 3128 4100 2886 4159 
Q 2644 4219 2406 4219 
Q 1781 4219 1451 3797 
Q 1122 3375 1075 2522 
Q 1259 2794 1537 2939 
Q 1816 3084 2150 3084 
Q 2853 3084 3261 2657 
Q 3669 2231 3669 1497 
Q 3669 778 3244 343 
Q 2819 -91 2113 -91 
Q 1303 -91 875 529 
Q 447 1150 447 2328 
Q 447 3434 972 4092 
Q 1497 4750 2381 4750 
Q 2619 4750 2861 4703 
Q 3103 4656 3366 4563 
z
" transform="scale(0.015625)"/>
      <path id="DejaVuSans-65" d="M 3597 1894 
L 3597 1613 
L 953 1613 
Q 991 1019 1311 708 
Q 1631 397 2203 397 
Q 2534 397 2845 478 
Q 3156 559 3463 722 
L 3463 178 
Q 3153 47 2828 -22 
Q 2503 -91 2169 -91 
Q 1331 -91 842 396 
Q 353 884 353 1716 
Q 353 2575 817 3079 
Q 1281 3584 2069 3584 
Q 2775 3584 3186 3129 
Q 3597 2675 3597 1894 
z
M 3022 2063 
Q 3016 2534 2758 2815 
Q 2500 3097 2075 3097 
Q 1594 3097 1305 2825 
Q 1016 2553 972 2059 
L 3022 2063 
z
" transform="scale(0.015625)"/>
      <path id="DejaVuSans-56" d="M 1831 0 
L 50 4666 
L 709 4666 
L 2188 738 
L 3669 4666 
L 4325 4666 
L 2547 0 
L 1831 0 
z
" transform="scale(0.015625)"/>
     </defs>
     <use xlink:href="#DejaVuSans-45"/>
     <use xlink:href="#DejaVuSans-72" transform="translate(63.183594 0)"/>
     <use xlink:href="#DejaVuSans-72" transform="translate(102.546875 0)"/>
     <use xlink:href="#DejaVuSans-6f" transform="translate(141.410156 0)"/>
     <use xlink:href="#DejaVuSans-72" transform="translate(202.591797 0)"/>
     <use xlink:href="#DejaVuSans-3a" transform="translate(241.955078 0)"/>
     <use xlink:href="#DejaVuSans-20" transform="translate(275.646484 0)"/>
     <use xlink:href="#DejaVuSans-2d" transform="translate(307.433594 0)"/>
     <use xlink:href="#DejaVuSans-38" transform="translate(343.517578 0)"/>
     <use xlink:href="#DejaVuSans-2e" transform="translate(407.140625 0)"/>
     <use xlink:href="#DejaVuSans-38" transform="translate(438.927734 0)"/>
     <use xlink:href="#DejaVuSans-36" transform="translate(502.550781 0)"/>
     <use xlink:href="#DejaVuSans-20" transform="translate(566.173828 0)"/>
     <use xlink:href="#DejaVuSans-65" transform="translate(597.960938 0)"/>
     <use xlink:href="#DejaVuSans-56" transform="translate(659.484375 0)"/>
    </g>
   </g>
  </g>
 </g>
 <defs>
  <clipPath id="p1635cdeed6">
   <rect x="36" y="34.56" width="223.2" height="221.76"/>
  </clipPath>
 </defs>
</svg>
