<?xml version="1.0" encoding="utf-8" standalone="no"?>
<!DOCTYPE svg PUBLIC "-//W3C//DTD SVG 1.1//EN"
  "http://www.w3.org/Graphics/SVG/1.1/DTD/svg11.dtd">
<svg xmlns:xlink="http://www.w3.org/1999/xlink" width="288pt" height="288pt" viewBox="0 0 288 288" xmlns="http://www.w3.org/2000/svg" version="1.1">
 <metadata>
  <rdf:RDF xmlns:dc="http://purl.org/dc/elements/1.1/" xmlns:cc="http://creativecommons.org/ns#" xmlns:rdf="http://www.w3.org/1999/02/22-rdf-syntax-ns#">
   <cc:Work>
    <dc:type rdf:resource="http://purl.org/dc/dcmitype/StillImage"/>
    <dc:date>2025-06-03T15:43:36.053359</dc:date>
    <dc:format>image/svg+xml</dc:format>
    <dc:creator>
     <cc:Agent>
      <dc:title>Matplotlib v3.10.1, https://matplotlib.org/</dc:title>
     </cc:Agent>
    </dc:creator>
   </cc:Work>
  </rdf:RDF>
 </metadata>
 <defs>
  <style type="text/css">*{stroke-linejoin: round; stroke-linecap: butt}</style>
 </defs>
 <g id="figure_1">
  <g id="patch_1">
   <path d="M 0 288 
L 288 288 
L 288 0 
L 0 0 
z
" style="fill: #ffffff"/>
  </g>
  <g id="axes_1">
   <g id="LineCollection_1">
    <path d="M 220.788137 182.813694 
L 189.724887 184.222804 
" clip-path="url(#pded8186675)" style="fill: none; stroke: #000000; stroke-width: 1.2"/>
    <path d="M 163.487162 124.369163 
L 144.658933 143.180158 
" clip-path="url(#pded8186675)" style="fill: none; stroke: #000000; stroke-width: 1.2"/>
    <path d="M 163.487162 124.369163 
L 179.782337 104.137264 
" clip-path="url(#pded8186675)" style="fill: none; stroke: #000000; stroke-width: 1.2"/>
    <path d="M 163.487162 124.369163 
L 150.898728 156.96183 
" clip-path="url(#pded8186675)" style="fill: none; stroke: #000000; stroke-width: 1.2"/>
    <path d="M 163.487162 124.369163 
L 190.349354 113.726938 
" clip-path="url(#pded8186675)" style="fill: none; stroke: #000000; stroke-width: 1.2"/>
    <path d="M 239.831405 144.50847 
L 210.509179 137.424779 
" clip-path="url(#pded8186675)" style="fill: none; stroke: #000000; stroke-width: 1.2"/>
    <path d="M 165.44333 69.649043 
L 179.782337 104.137264 
" clip-path="url(#pded8186675)" style="fill: none; stroke: #000000; stroke-width: 1.2"/>
    <path d="M 165.44333 69.649043 
L 138.03794 86.339955 
" clip-path="url(#pded8186675)" style="fill: none; stroke: #000000; stroke-width: 1.2"/>
    <path d="M 55.368595 166.561583 
L 85.745682 163.4613 
" clip-path="url(#pded8186675)" style="fill: none; stroke: #000000; stroke-width: 1.2"/>
    <path d="M 116.921876 102.21124 
L 138.03794 86.339955 
" clip-path="url(#pded8186675)" style="fill: none; stroke: #000000; stroke-width: 1.2"/>
    <path d="M 116.921876 102.21124 
L 104.856565 127.54981 
" clip-path="url(#pded8186675)" style="fill: none; stroke: #000000; stroke-width: 1.2"/>
    <path d="M 116.921876 102.21124 
L 148.794522 94.186055 
" clip-path="url(#pded8186675)" style="fill: none; stroke: #000000; stroke-width: 1.2"/>
    <path d="M 116.921876 102.21124 
L 113.872936 137.406685 
" clip-path="url(#pded8186675)" style="fill: none; stroke: #000000; stroke-width: 1.2"/>
    <path d="M 104.61517 53.803636 
L 108.534413 89.065094 
" clip-path="url(#pded8186675)" style="fill: none; stroke: #000000; stroke-width: 1.2"/>
    <path d="M 111.933181 159.41445 
L 144.658933 143.180158 
" clip-path="url(#pded8186675)" style="fill: none; stroke: #000000; stroke-width: 1.2"/>
    <path d="M 111.933181 159.41445 
L 85.745682 163.4613 
" clip-path="url(#pded8186675)" style="fill: none; stroke: #000000; stroke-width: 1.2"/>
    <path d="M 111.933181 159.41445 
L 104.324284 192.910791 
" clip-path="url(#pded8186675)" style="fill: none; stroke: #000000; stroke-width: 1.2"/>
    <path d="M 111.933181 159.41445 
L 104.856565 127.54981 
" clip-path="url(#pded8186675)" style="fill: none; stroke: #000000; stroke-width: 1.2"/>
    <path d="M 111.933181 159.41445 
L 91.599172 184.8411 
" clip-path="url(#pded8186675)" style="fill: none; stroke: #000000; stroke-width: 1.2"/>
    <path d="M 111.933181 159.41445 
L 137.407545 176.277598 
" clip-path="url(#pded8186675)" style="fill: none; stroke: #000000; stroke-width: 1.2"/>
    <path d="M 177.258465 141.096817 
L 144.658933 143.180158 
" clip-path="url(#pded8186675)" style="fill: none; stroke: #000000; stroke-width: 1.2"/>
    <path d="M 177.258465 141.096817 
L 179.782337 104.137264 
" clip-path="url(#pded8186675)" style="fill: none; stroke: #000000; stroke-width: 1.2"/>
    <path d="M 177.258465 141.096817 
L 210.509179 137.424779 
" clip-path="url(#pded8186675)" style="fill: none; stroke: #000000; stroke-width: 1.2"/>
    <path d="M 177.258465 141.096817 
L 150.898728 156.96183 
" clip-path="url(#pded8186675)" style="fill: none; stroke: #000000; stroke-width: 1.2"/>
    <path d="M 177.258465 141.096817 
L 190.349354 113.726938 
" clip-path="url(#pded8186675)" style="fill: none; stroke: #000000; stroke-width: 1.2"/>
    <path d="M 177.258465 141.096817 
L 162.229918 163.156055 
" clip-path="url(#pded8186675)" style="fill: none; stroke: #000000; stroke-width: 1.2"/>
    <path d="M 234.715816 113.450453 
L 210.509179 137.424779 
" clip-path="url(#pded8186675)" style="fill: none; stroke: #000000; stroke-width: 1.2"/>
    <path d="M 178.844806 78.150926 
L 190.349354 113.726938 
" clip-path="url(#pded8186675)" style="fill: none; stroke: #000000; stroke-width: 1.2"/>
    <path d="M 178.844806 78.150926 
L 148.794522 94.186055 
" clip-path="url(#pded8186675)" style="fill: none; stroke: #000000; stroke-width: 1.2"/>
    <path d="M 70.202265 209.97064 
L 91.599172 184.8411 
" clip-path="url(#pded8186675)" style="fill: none; stroke: #000000; stroke-width: 1.2"/>
    <path d="M 135.711923 121.854137 
L 138.03794 86.339955 
" clip-path="url(#pded8186675)" style="fill: none; stroke: #000000; stroke-width: 1.2"/>
    <path d="M 135.711923 121.854137 
L 104.856565 127.54981 
" clip-path="url(#pded8186675)" style="fill: none; stroke: #000000; stroke-width: 1.2"/>
    <path d="M 135.711923 121.854137 
L 108.534413 89.065094 
" clip-path="url(#pded8186675)" style="fill: none; stroke: #000000; stroke-width: 1.2"/>
    <path d="M 135.711923 121.854137 
L 148.794522 94.186055 
" clip-path="url(#pded8186675)" style="fill: none; stroke: #000000; stroke-width: 1.2"/>
    <path d="M 135.711923 121.854137 
L 113.872936 137.406685 
" clip-path="url(#pded8186675)" style="fill: none; stroke: #000000; stroke-width: 1.2"/>
    <path d="M 135.711923 121.854137 
L 162.229918 163.156055 
" clip-path="url(#pded8186675)" style="fill: none; stroke: #000000; stroke-width: 1.2"/>
    <path d="M 79.59179 76.398996 
L 108.534413 89.065094 
" clip-path="url(#pded8186675)" style="fill: none; stroke: #000000; stroke-width: 1.2"/>
    <path d="M 117.897966 172.427984 
L 85.745682 163.4613 
" clip-path="url(#pded8186675)" style="fill: none; stroke: #000000; stroke-width: 1.2"/>
    <path d="M 117.897966 172.427984 
L 104.324284 192.910791 
" clip-path="url(#pded8186675)" style="fill: none; stroke: #000000; stroke-width: 1.2"/>
    <path d="M 117.897966 172.427984 
L 150.898728 156.96183 
" clip-path="url(#pded8186675)" style="fill: none; stroke: #000000; stroke-width: 1.2"/>
    <path d="M 117.897966 172.427984 
L 91.599172 184.8411 
" clip-path="url(#pded8186675)" style="fill: none; stroke: #000000; stroke-width: 1.2"/>
    <path d="M 117.897966 172.427984 
L 137.407545 176.277598 
" clip-path="url(#pded8186675)" style="fill: none; stroke: #000000; stroke-width: 1.2"/>
    <path d="M 117.897966 172.427984 
L 113.872936 137.406685 
" clip-path="url(#pded8186675)" style="fill: none; stroke: #000000; stroke-width: 1.2"/>
    <path d="M 117.897966 172.427984 
L 126.353391 208.23815 
" clip-path="url(#pded8186675)" style="fill: none; stroke: #000000; stroke-width: 1.2"/>
    <path d="M 137.407545 176.277598 
L 162.229918 163.156055 
" clip-path="url(#pded8186675)" style="fill: none; stroke: #000000; stroke-width: 1.2"/>
    <path d="M 162.229918 163.156055 
L 154.587453 201.465308 
" clip-path="url(#pded8186675)" style="fill: none; stroke: #000000; stroke-width: 1.2"/>
    <path d="M 162.229918 163.156055 
L 189.724887 184.222804 
" clip-path="url(#pded8186675)" style="fill: none; stroke: #000000; stroke-width: 1.2"/>
    <path d="M 154.587453 201.465308 
L 146.117719 237.076364 
" clip-path="url(#pded8186675)" style="fill: none; stroke: #000000; stroke-width: 1.2"/>
    <path d="M 154.587453 201.465308 
L 166.965623 232.746427 
" clip-path="url(#pded8186675)" style="fill: none; stroke: #000000; stroke-width: 1.2"/>
    <path d="M 154.587453 201.465308 
L 126.353391 208.23815 
" clip-path="url(#pded8186675)" style="fill: none; stroke: #000000; stroke-width: 1.2"/>
    <path d="M 189.724887 184.222804 
L 197.706169 219.256652 
" clip-path="url(#pded8186675)" style="fill: none; stroke: #000000; stroke-width: 1.2"/>
    <path d="M 189.724887 184.222804 
L 213.793043 204.888671 
" clip-path="url(#pded8186675)" style="fill: none; stroke: #000000; stroke-width: 1.2"/>
   </g>
   <g id="PathCollection_1">
    <defs>
     <path id="C0_0_26a7c402fa" d="M 0 8.944272 
C 2.372049 8.944272 4.647264 8.001847 6.324555 6.324555 
C 8.001847 4.647264 8.944272 2.372049 8.944272 -0 
C 8.944272 -2.372049 8.001847 -4.647264 6.324555 -6.324555 
C 4.647264 -8.001847 2.372049 -8.944272 0 -8.944272 
C -2.372049 -8.944272 -4.647264 -8.001847 -6.324555 -6.324555 
C -8.001847 -4.647264 -8.944272 -2.372049 -8.944272 0 
C -8.944272 2.372049 -8.001847 4.647264 -6.324555 6.324555 
C -4.647264 8.001847 -2.372049 8.944272 0 8.944272 
z
"/>
    </defs>
    <g clip-path="url(#pded8186675)">
     <use xlink:href="#C0_0_26a7c402fa" x="220.788137" y="182.813694" style="fill: #bfbfbf; stroke: #bfbfbf; stroke-width: 0.5"/>
    </g>
    <g clip-path="url(#pded8186675)">
     <use xlink:href="#C0_0_26a7c402fa" x="163.487162" y="124.369163" style="fill: #bfc2c7; stroke: #bfc2c7; stroke-width: 0.5"/>
    </g>
    <g clip-path="url(#pded8186675)">
     <use xlink:href="#C0_0_26a7c402fa" x="239.831405" y="144.50847" style="fill: #bfc2c7; stroke: #bfc2c7; stroke-width: 0.5"/>
    </g>
    <g clip-path="url(#pded8186675)">
     <use xlink:href="#C0_0_26a7c402fa" x="165.44333" y="69.649043" style="fill: #bfc2c7; stroke: #bfc2c7; stroke-width: 0.5"/>
    </g>
    <g clip-path="url(#pded8186675)">
     <use xlink:href="#C0_0_26a7c402fa" x="55.368595" y="166.561583" style="fill: #bfc2c7; stroke: #bfc2c7; stroke-width: 0.5"/>
    </g>
    <g clip-path="url(#pded8186675)">
     <use xlink:href="#C0_0_26a7c402fa" x="116.921876" y="102.21124" style="fill: #bfc2c7; stroke: #bfc2c7; stroke-width: 0.5"/>
    </g>
    <g clip-path="url(#pded8186675)">
     <use xlink:href="#C0_0_26a7c402fa" x="104.61517" y="53.803636" style="fill: #bfc2c7; stroke: #bfc2c7; stroke-width: 0.5"/>
    </g>
    <g clip-path="url(#pded8186675)">
     <use xlink:href="#C0_0_26a7c402fa" x="111.933181" y="159.41445" style="fill: #bfc2c7; stroke: #bfc2c7; stroke-width: 0.5"/>
    </g>
    <g clip-path="url(#pded8186675)">
     <use xlink:href="#C0_0_26a7c402fa" x="177.258465" y="141.096817" style="fill: #bfc2c7; stroke: #bfc2c7; stroke-width: 0.5"/>
    </g>
    <g clip-path="url(#pded8186675)">
     <use xlink:href="#C0_0_26a7c402fa" x="234.715816" y="113.450453" style="fill: #bfc2c7; stroke: #bfc2c7; stroke-width: 0.5"/>
    </g>
    <g clip-path="url(#pded8186675)">
     <use xlink:href="#C0_0_26a7c402fa" x="178.844806" y="78.150926" style="fill: #bfc2c7; stroke: #bfc2c7; stroke-width: 0.5"/>
    </g>
    <g clip-path="url(#pded8186675)">
     <use xlink:href="#C0_0_26a7c402fa" x="70.202265" y="209.97064" style="fill: #bfc2c7; stroke: #bfc2c7; stroke-width: 0.5"/>
    </g>
    <g clip-path="url(#pded8186675)">
     <use xlink:href="#C0_0_26a7c402fa" x="135.711923" y="121.854137" style="fill: #bfc2c7; stroke: #bfc2c7; stroke-width: 0.5"/>
    </g>
    <g clip-path="url(#pded8186675)">
     <use xlink:href="#C0_0_26a7c402fa" x="79.59179" y="76.398996" style="fill: #bfc2c7; stroke: #bfc2c7; stroke-width: 0.5"/>
    </g>
    <g clip-path="url(#pded8186675)">
     <use xlink:href="#C0_0_26a7c402fa" x="117.897966" y="172.427984" style="fill: #bfc2c7; stroke: #bfc2c7; stroke-width: 0.5"/>
    </g>
    <g clip-path="url(#pded8186675)">
     <use xlink:href="#C0_0_26a7c402fa" x="144.658933" y="143.180158" style="fill: #ff0d0d; stroke: #ff0d0d; stroke-width: 0.5"/>
    </g>
    <g clip-path="url(#pded8186675)">
     <use xlink:href="#C0_0_26a7c402fa" x="179.782337" y="104.137264" style="fill: #ff0d0d; stroke: #ff0d0d; stroke-width: 0.5"/>
    </g>
    <g clip-path="url(#pded8186675)">
     <use xlink:href="#C0_0_26a7c402fa" x="85.745682" y="163.4613" style="fill: #ff0d0d; stroke: #ff0d0d; stroke-width: 0.5"/>
    </g>
    <g clip-path="url(#pded8186675)">
     <use xlink:href="#C0_0_26a7c402fa" x="104.324284" y="192.910791" style="fill: #ff0d0d; stroke: #ff0d0d; stroke-width: 0.5"/>
    </g>
    <g clip-path="url(#pded8186675)">
     <use xlink:href="#C0_0_26a7c402fa" x="138.03794" y="86.339955" style="fill: #ff0d0d; stroke: #ff0d0d; stroke-width: 0.5"/>
    </g>
    <g clip-path="url(#pded8186675)">
     <use xlink:href="#C0_0_26a7c402fa" x="104.856565" y="127.54981" style="fill: #ff0d0d; stroke: #ff0d0d; stroke-width: 0.5"/>
    </g>
    <g clip-path="url(#pded8186675)">
     <use xlink:href="#C0_0_26a7c402fa" x="210.509179" y="137.424779" style="fill: #ff0d0d; stroke: #ff0d0d; stroke-width: 0.5"/>
    </g>
    <g clip-path="url(#pded8186675)">
     <use xlink:href="#C0_0_26a7c402fa" x="150.898728" y="156.96183" style="fill: #ff0d0d; stroke: #ff0d0d; stroke-width: 0.5"/>
    </g>
    <g clip-path="url(#pded8186675)">
     <use xlink:href="#C0_0_26a7c402fa" x="190.349354" y="113.726938" style="fill: #ff0d0d; stroke: #ff0d0d; stroke-width: 0.5"/>
    </g>
    <g clip-path="url(#pded8186675)">
     <use xlink:href="#C0_0_26a7c402fa" x="91.599172" y="184.8411" style="fill: #ff0d0d; stroke: #ff0d0d; stroke-width: 0.5"/>
    </g>
    <g clip-path="url(#pded8186675)">
     <use xlink:href="#C0_0_26a7c402fa" x="108.534413" y="89.065094" style="fill: #ff0d0d; stroke: #ff0d0d; stroke-width: 0.5"/>
    </g>
    <g clip-path="url(#pded8186675)">
     <use xlink:href="#C0_0_26a7c402fa" x="137.407545" y="176.277598" style="fill: #ff0d0d; stroke: #ff0d0d; stroke-width: 0.5"/>
    </g>
    <g clip-path="url(#pded8186675)">
     <use xlink:href="#C0_0_26a7c402fa" x="148.794522" y="94.186055" style="fill: #ff0d0d; stroke: #ff0d0d; stroke-width: 0.5"/>
    </g>
    <g clip-path="url(#pded8186675)">
     <use xlink:href="#C0_0_26a7c402fa" x="113.872936" y="137.406685" style="fill: #ff0d0d; stroke: #ff0d0d; stroke-width: 0.5"/>
    </g>
    <g clip-path="url(#pded8186675)">
     <use xlink:href="#C0_0_26a7c402fa" x="162.229918" y="163.156055" style="fill: #b2b200; stroke: #b2b200; stroke-width: 0.5"/>
    </g>
    <g clip-path="url(#pded8186675)">
     <use xlink:href="#C0_0_26a7c402fa" x="154.587453" y="201.465308" style="fill: #666666; stroke: #666666; stroke-width: 0.5"/>
    </g>
    <g clip-path="url(#pded8186675)">
     <use xlink:href="#C0_0_26a7c402fa" x="189.724887" y="184.222804" style="fill: #666666; stroke: #666666; stroke-width: 0.5"/>
    </g>
    <g clip-path="url(#pded8186675)">
     <use xlink:href="#C0_0_26a7c402fa" x="146.117719" y="237.076364" style="fill: #bfbfbf; stroke: #bfbfbf; stroke-width: 0.5"/>
    </g>
    <g clip-path="url(#pded8186675)">
     <use xlink:href="#C0_0_26a7c402fa" x="197.706169" y="219.256652" style="fill: #bfbfbf; stroke: #bfbfbf; stroke-width: 0.5"/>
    </g>
    <g clip-path="url(#pded8186675)">
     <use xlink:href="#C0_0_26a7c402fa" x="166.965623" y="232.746427" style="fill: #bfbfbf; stroke: #bfbfbf; stroke-width: 0.5"/>
    </g>
    <g clip-path="url(#pded8186675)">
     <use xlink:href="#C0_0_26a7c402fa" x="126.353391" y="208.23815" style="fill: #bfbfbf; stroke: #bfbfbf; stroke-width: 0.5"/>
    </g>
    <g clip-path="url(#pded8186675)">
     <use xlink:href="#C0_0_26a7c402fa" x="213.793043" y="204.888671" style="fill: #bfbfbf; stroke: #bfbfbf; stroke-width: 0.5"/>
    </g>
   </g>
   <g id="text_1">
    <g clip-path="url(#pded8186675)">
     <!-- H -->
     <g style="fill: #ffffff" transform="translate(215.766887 186.124944) scale(0.12 -0.12)">
      <defs>
       <path id="DejaVuSans-Bold-48" d="M 588 4666 
L 1791 4666 
L 1791 2888 
L 3566 2888 
L 3566 4666 
L 4769 4666 
L 4769 0 
L 3566 0 
L 3566 1978 
L 1791 1978 
L 1791 0 
L 588 0 
L 588 4666 
z
" transform="scale(0.015625)"/>
      </defs>
      <use xlink:href="#DejaVuSans-Bold-48"/>
     </g>
    </g>
   </g>
   <g id="text_2">
    <g clip-path="url(#pded8186675)">
     <!-- Ti -->
     <g style="fill: #ffffff" transform="translate(157.337162 127.680413) scale(0.12 -0.12)">
      <defs>
       <path id="DejaVuSans-Bold-54" d="M 31 4666 
L 4331 4666 
L 4331 3756 
L 2784 3756 
L 2784 0 
L 1581 0 
L 1581 3756 
L 31 3756 
L 31 4666 
z
" transform="scale(0.015625)"/>
       <path id="DejaVuSans-Bold-69" d="M 538 3500 
L 1656 3500 
L 1656 0 
L 538 0 
L 538 3500 
z
M 538 4863 
L 1656 4863 
L 1656 3950 
L 538 3950 
L 538 4863 
z
" transform="scale(0.015625)"/>
      </defs>
      <use xlink:href="#DejaVuSans-Bold-54"/>
      <use xlink:href="#DejaVuSans-Bold-69" transform="translate(68.212891 0)"/>
     </g>
    </g>
   </g>
   <g id="text_3">
    <g clip-path="url(#pded8186675)">
     <!-- Ti -->
     <g style="fill: #ffffff" transform="translate(233.681405 147.81972) scale(0.12 -0.12)">
      <use xlink:href="#DejaVuSans-Bold-54"/>
      <use xlink:href="#DejaVuSans-Bold-69" transform="translate(68.212891 0)"/>
     </g>
    </g>
   </g>
   <g id="text_4">
    <g clip-path="url(#pded8186675)">
     <!-- Ti -->
     <g style="fill: #ffffff" transform="translate(159.29333 72.960293) scale(0.12 -0.12)">
      <use xlink:href="#DejaVuSans-Bold-54"/>
      <use xlink:href="#DejaVuSans-Bold-69" transform="translate(68.212891 0)"/>
     </g>
    </g>
   </g>
   <g id="text_5">
    <g clip-path="url(#pded8186675)">
     <!-- Ti -->
     <g style="fill: #ffffff" transform="translate(49.218595 169.872833) scale(0.12 -0.12)">
      <use xlink:href="#DejaVuSans-Bold-54"/>
      <use xlink:href="#DejaVuSans-Bold-69" transform="translate(68.212891 0)"/>
     </g>
    </g>
   </g>
   <g id="text_6">
    <g clip-path="url(#pded8186675)">
     <!-- Ti -->
     <g style="fill: #ffffff" transform="translate(110.771876 105.52249) scale(0.12 -0.12)">
      <use xlink:href="#DejaVuSans-Bold-54"/>
      <use xlink:href="#DejaVuSans-Bold-69" transform="translate(68.212891 0)"/>
     </g>
    </g>
   </g>
   <g id="text_7">
    <g clip-path="url(#pded8186675)">
     <!-- Ti -->
     <g style="fill: #ffffff" transform="translate(98.46517 57.114886) scale(0.12 -0.12)">
      <use xlink:href="#DejaVuSans-Bold-54"/>
      <use xlink:href="#DejaVuSans-Bold-69" transform="translate(68.212891 0)"/>
     </g>
    </g>
   </g>
   <g id="text_8">
    <g clip-path="url(#pded8186675)">
     <!-- Ti -->
     <g style="fill: #ffffff" transform="translate(105.783181 162.7257) scale(0.12 -0.12)">
      <use xlink:href="#DejaVuSans-Bold-54"/>
      <use xlink:href="#DejaVuSans-Bold-69" transform="translate(68.212891 0)"/>
     </g>
    </g>
   </g>
   <g id="text_9">
    <g clip-path="url(#pded8186675)">
     <!-- Ti -->
     <g style="fill: #ffffff" transform="translate(171.108465 144.408067) scale(0.12 -0.12)">
      <use xlink:href="#DejaVuSans-Bold-54"/>
      <use xlink:href="#DejaVuSans-Bold-69" transform="translate(68.212891 0)"/>
     </g>
    </g>
   </g>
   <g id="text_10">
    <g clip-path="url(#pded8186675)">
     <!-- Ti -->
     <g style="fill: #ffffff" transform="translate(228.565816 116.761703) scale(0.12 -0.12)">
      <use xlink:href="#DejaVuSans-Bold-54"/>
      <use xlink:href="#DejaVuSans-Bold-69" transform="translate(68.212891 0)"/>
     </g>
    </g>
   </g>
   <g id="text_11">
    <g clip-path="url(#pded8186675)">
     <!-- Ti -->
     <g style="fill: #ffffff" transform="translate(172.694806 81.462176) scale(0.12 -0.12)">
      <use xlink:href="#DejaVuSans-Bold-54"/>
      <use xlink:href="#DejaVuSans-Bold-69" transform="translate(68.212891 0)"/>
     </g>
    </g>
   </g>
   <g id="text_12">
    <g clip-path="url(#pded8186675)">
     <!-- Ti -->
     <g style="fill: #ffffff" transform="translate(64.052265 213.28189) scale(0.12 -0.12)">
      <use xlink:href="#DejaVuSans-Bold-54"/>
      <use xlink:href="#DejaVuSans-Bold-69" transform="translate(68.212891 0)"/>
     </g>
    </g>
   </g>
   <g id="text_13">
    <g clip-path="url(#pded8186675)">
     <!-- Ti -->
     <g style="fill: #ffffff" transform="translate(129.561923 125.165387) scale(0.12 -0.12)">
      <use xlink:href="#DejaVuSans-Bold-54"/>
      <use xlink:href="#DejaVuSans-Bold-69" transform="translate(68.212891 0)"/>
     </g>
    </g>
   </g>
   <g id="text_14">
    <g clip-path="url(#pded8186675)">
     <!-- Ti -->
     <g style="fill: #ffffff" transform="translate(73.44179 79.710246) scale(0.12 -0.12)">
      <use xlink:href="#DejaVuSans-Bold-54"/>
      <use xlink:href="#DejaVuSans-Bold-69" transform="translate(68.212891 0)"/>
     </g>
    </g>
   </g>
   <g id="text_15">
    <g clip-path="url(#pded8186675)">
     <!-- Ti -->
     <g style="fill: #ffffff" transform="translate(111.747966 175.739234) scale(0.12 -0.12)">
      <use xlink:href="#DejaVuSans-Bold-54"/>
      <use xlink:href="#DejaVuSans-Bold-69" transform="translate(68.212891 0)"/>
     </g>
    </g>
   </g>
   <g id="text_16">
    <g clip-path="url(#pded8186675)">
     <!-- O -->
     <g style="fill: #ffffff" transform="translate(139.557996 146.491408) scale(0.12 -0.12)">
      <defs>
       <path id="DejaVuSans-Bold-4f" d="M 2719 3878 
Q 2169 3878 1866 3472 
Q 1563 3066 1563 2328 
Q 1563 1594 1866 1187 
Q 2169 781 2719 781 
Q 3272 781 3575 1187 
Q 3878 1594 3878 2328 
Q 3878 3066 3575 3472 
Q 3272 3878 2719 3878 
z
M 2719 4750 
Q 3844 4750 4481 4106 
Q 5119 3463 5119 2328 
Q 5119 1197 4481 553 
Q 3844 -91 2719 -91 
Q 1597 -91 958 553 
Q 319 1197 319 2328 
Q 319 3463 958 4106 
Q 1597 4750 2719 4750 
z
" transform="scale(0.015625)"/>
      </defs>
      <use xlink:href="#DejaVuSans-Bold-4f"/>
     </g>
    </g>
   </g>
   <g id="text_17">
    <g clip-path="url(#pded8186675)">
     <!-- O -->
     <g style="fill: #ffffff" transform="translate(174.6814 107.448514) scale(0.12 -0.12)">
      <use xlink:href="#DejaVuSans-Bold-4f"/>
     </g>
    </g>
   </g>
   <g id="text_18">
    <g clip-path="url(#pded8186675)">
     <!-- O -->
     <g style="fill: #ffffff" transform="translate(80.644744 166.77255) scale(0.12 -0.12)">
      <use xlink:href="#DejaVuSans-Bold-4f"/>
     </g>
    </g>
   </g>
   <g id="text_19">
    <g clip-path="url(#pded8186675)">
     <!-- O -->
     <g style="fill: #ffffff" transform="translate(99.223347 196.222041) scale(0.12 -0.12)">
      <use xlink:href="#DejaVuSans-Bold-4f"/>
     </g>
    </g>
   </g>
   <g id="text_20">
    <g clip-path="url(#pded8186675)">
     <!-- O -->
     <g style="fill: #ffffff" transform="translate(132.937003 89.651205) scale(0.12 -0.12)">
      <use xlink:href="#DejaVuSans-Bold-4f"/>
     </g>
    </g>
   </g>
   <g id="text_21">
    <g clip-path="url(#pded8186675)">
     <!-- O -->
     <g style="fill: #ffffff" transform="translate(99.755627 130.86106) scale(0.12 -0.12)">
      <use xlink:href="#DejaVuSans-Bold-4f"/>
     </g>
    </g>
   </g>
   <g id="text_22">
    <g clip-path="url(#pded8186675)">
     <!-- O -->
     <g style="fill: #ffffff" transform="translate(205.408241 140.736029) scale(0.12 -0.12)">
      <use xlink:href="#DejaVuSans-Bold-4f"/>
     </g>
    </g>
   </g>
   <g id="text_23">
    <g clip-path="url(#pded8186675)">
     <!-- O -->
     <g style="fill: #ffffff" transform="translate(145.797791 160.27308) scale(0.12 -0.12)">
      <use xlink:href="#DejaVuSans-Bold-4f"/>
     </g>
    </g>
   </g>
   <g id="text_24">
    <g clip-path="url(#pded8186675)">
     <!-- O -->
     <g style="fill: #ffffff" transform="translate(185.248417 117.038188) scale(0.12 -0.12)">
      <use xlink:href="#DejaVuSans-Bold-4f"/>
     </g>
    </g>
   </g>
   <g id="text_25">
    <g clip-path="url(#pded8186675)">
     <!-- O -->
     <g style="fill: #ffffff" transform="translate(86.498235 188.15235) scale(0.12 -0.12)">
      <use xlink:href="#DejaVuSans-Bold-4f"/>
     </g>
    </g>
   </g>
   <g id="text_26">
    <g clip-path="url(#pded8186675)">
     <!-- O -->
     <g style="fill: #ffffff" transform="translate(103.433476 92.376344) scale(0.12 -0.12)">
      <use xlink:href="#DejaVuSans-Bold-4f"/>
     </g>
    </g>
   </g>
   <g id="text_27">
    <g clip-path="url(#pded8186675)">
     <!-- O -->
     <g style="fill: #ffffff" transform="translate(132.306608 179.588848) scale(0.12 -0.12)">
      <use xlink:href="#DejaVuSans-Bold-4f"/>
     </g>
    </g>
   </g>
   <g id="text_28">
    <g clip-path="url(#pded8186675)">
     <!-- O -->
     <g style="fill: #ffffff" transform="translate(143.693584 97.497305) scale(0.12 -0.12)">
      <use xlink:href="#DejaVuSans-Bold-4f"/>
     </g>
    </g>
   </g>
   <g id="text_29">
    <g clip-path="url(#pded8186675)">
     <!-- O -->
     <g style="fill: #ffffff" transform="translate(108.771998 140.717935) scale(0.12 -0.12)">
      <use xlink:href="#DejaVuSans-Bold-4f"/>
     </g>
    </g>
   </g>
   <g id="text_30">
    <g clip-path="url(#pded8186675)">
     <!-- S -->
     <g style="fill: #ffffff" transform="translate(157.90898 166.467305) scale(0.12 -0.12)">
      <defs>
       <path id="DejaVuSans-Bold-53" d="M 3834 4519 
L 3834 3531 
Q 3450 3703 3084 3790 
Q 2719 3878 2394 3878 
Q 1963 3878 1756 3759 
Q 1550 3641 1550 3391 
Q 1550 3203 1689 3098 
Q 1828 2994 2194 2919 
L 2706 2816 
Q 3484 2659 3812 2340 
Q 4141 2022 4141 1434 
Q 4141 663 3683 286 
Q 3225 -91 2284 -91 
Q 1841 -91 1394 -6 
Q 947 78 500 244 
L 500 1259 
Q 947 1022 1364 901 
Q 1781 781 2169 781 
Q 2563 781 2772 912 
Q 2981 1044 2981 1288 
Q 2981 1506 2839 1625 
Q 2697 1744 2272 1838 
L 1806 1941 
Q 1106 2091 782 2419 
Q 459 2747 459 3303 
Q 459 4000 909 4375 
Q 1359 4750 2203 4750 
Q 2588 4750 2994 4692 
Q 3400 4634 3834 4519 
z
" transform="scale(0.015625)"/>
      </defs>
      <use xlink:href="#DejaVuSans-Bold-53"/>
     </g>
    </g>
   </g>
   <g id="text_31">
    <g clip-path="url(#pded8186675)">
     <!-- C -->
     <g style="fill: #ffffff" transform="translate(150.184015 204.776558) scale(0.12 -0.12)">
      <defs>
       <path id="DejaVuSans-Bold-43" d="M 4288 256 
Q 3956 84 3597 -3 
Q 3238 -91 2847 -91 
Q 1681 -91 1000 561 
Q 319 1213 319 2328 
Q 319 3447 1000 4098 
Q 1681 4750 2847 4750 
Q 3238 4750 3597 4662 
Q 3956 4575 4288 4403 
L 4288 3438 
Q 3953 3666 3628 3772 
Q 3303 3878 2944 3878 
Q 2300 3878 1931 3465 
Q 1563 3053 1563 2328 
Q 1563 1606 1931 1193 
Q 2300 781 2944 781 
Q 3303 781 3628 887 
Q 3953 994 4288 1222 
L 4288 256 
z
" transform="scale(0.015625)"/>
      </defs>
      <use xlink:href="#DejaVuSans-Bold-43"/>
     </g>
    </g>
   </g>
   <g id="text_32">
    <g clip-path="url(#pded8186675)">
     <!-- C -->
     <g style="fill: #ffffff" transform="translate(185.321449 187.534054) scale(0.12 -0.12)">
      <use xlink:href="#DejaVuSans-Bold-43"/>
     </g>
    </g>
   </g>
   <g id="text_33">
    <g clip-path="url(#pded8186675)">
     <!-- H -->
     <g style="fill: #ffffff" transform="translate(141.096469 240.387614) scale(0.12 -0.12)">
      <use xlink:href="#DejaVuSans-Bold-48"/>
     </g>
    </g>
   </g>
   <g id="text_34">
    <g clip-path="url(#pded8186675)">
     <!-- H -->
     <g style="fill: #ffffff" transform="translate(192.684919 222.567902) scale(0.12 -0.12)">
      <use xlink:href="#DejaVuSans-Bold-48"/>
     </g>
    </g>
   </g>
   <g id="text_35">
    <g clip-path="url(#pded8186675)">
     <!-- H -->
     <g style="fill: #ffffff" transform="translate(161.944373 236.057677) scale(0.12 -0.12)">
      <use xlink:href="#DejaVuSans-Bold-48"/>
     </g>
    </g>
   </g>
   <g id="text_36">
    <g clip-path="url(#pded8186675)">
     <!-- H -->
     <g style="fill: #ffffff" transform="translate(121.332141 211.5494) scale(0.12 -0.12)">
      <use xlink:href="#DejaVuSans-Bold-48"/>
     </g>
    </g>
   </g>
   <g id="text_37">
    <g clip-path="url(#pded8186675)">
     <!-- H -->
     <g style="fill: #ffffff" transform="translate(208.771793 208.199921) scale(0.12 -0.12)">
      <use xlink:href="#DejaVuSans-Bold-48"/>
     </g>
    </g>
   </g>
   <g id="text_38">
    <!-- C2H6O80STi40 -->
    <g transform="translate(149.797046 42.503705) scale(0.1 -0.1)">
     <defs>
      <path id="DejaVuSans-43" d="M 4122 4306 
L 4122 3641 
Q 3803 3938 3442 4084 
Q 3081 4231 2675 4231 
Q 1875 4231 1450 3742 
Q 1025 3253 1025 2328 
Q 1025 1406 1450 917 
Q 1875 428 2675 428 
Q 3081 428 3442 575 
Q 3803 722 4122 1019 
L 4122 359 
Q 3791 134 3420 21 
Q 3050 -91 2638 -91 
Q 1578 -91 968 557 
Q 359 1206 359 2328 
Q 359 3453 968 4101 
Q 1578 4750 2638 4750 
Q 3056 4750 3426 4639 
Q 3797 4528 4122 4306 
z
" transform="scale(0.015625)"/>
      <path id="DejaVuSans-32" d="M 1228 531 
L 3431 531 
L 3431 0 
L 469 0 
L 469 531 
Q 828 903 1448 1529 
Q 2069 2156 2228 2338 
Q 2531 2678 2651 2914 
Q 2772 3150 2772 3378 
Q 2772 3750 2511 3984 
Q 2250 4219 1831 4219 
Q 1534 4219 1204 4116 
Q 875 4013 500 3803 
L 500 4441 
Q 881 4594 1212 4672 
Q 1544 4750 1819 4750 
Q 2544 4750 2975 4387 
Q 3406 4025 3406 3419 
Q 3406 3131 3298 2873 
Q 3191 2616 2906 2266 
Q 2828 2175 2409 1742 
Q 1991 1309 1228 531 
z
" transform="scale(0.015625)"/>
      <path id="DejaVuSans-48" d="M 628 4666 
L 1259 4666 
L 1259 2753 
L 3553 2753 
L 3553 4666 
L 4184 4666 
L 4184 0 
L 3553 0 
L 3553 2222 
L 1259 2222 
L 1259 0 
L 628 0 
L 628 4666 
z
" transform="scale(0.015625)"/>
      <path id="DejaVuSans-36" d="M 2113 2584 
Q 1688 2584 1439 2293 
Q 1191 2003 1191 1497 
Q 1191 994 1439 701 
Q 1688 409 2113 409 
Q 2538 409 2786 701 
Q 3034 994 3034 1497 
Q 3034 2003 2786 2293 
Q 2538 2584 2113 2584 
z
M 3366 4563 
L 3366 3988 
Q 3128 4100 2886 4159 
Q 2644 4219 2406 4219 
Q 1781 4219 1451 3797 
Q 1122 3375 1075 2522 
Q 1259 2794 1537 2939 
Q 1816 3084 2150 3084 
Q 2853 3084 3261 2657 
Q 3669 2231 3669 1497 
Q 3669 778 3244 343 
Q 2819 -91 2113 -91 
Q 1303 -91 875 529 
Q 447 1150 447 2328 
Q 447 3434 972 4092 
Q 1497 4750 2381 4750 
Q 2619 4750 2861 4703 
Q 3103 4656 3366 4563 
z
" transform="scale(0.015625)"/>
      <path id="DejaVuSans-4f" d="M 2522 4238 
Q 1834 4238 1429 3725 
Q 1025 3213 1025 2328 
Q 1025 1447 1429 934 
Q 1834 422 2522 422 
Q 3209 422 3611 934 
Q 4013 1447 4013 2328 
Q 4013 3213 3611 3725 
Q 3209 4238 2522 4238 
z
M 2522 4750 
Q 3503 4750 4090 4092 
Q 4678 3434 4678 2328 
Q 4678 1225 4090 567 
Q 3503 -91 2522 -91 
Q 1538 -91 948 565 
Q 359 1222 359 2328 
Q 359 3434 948 4092 
Q 1538 4750 2522 4750 
z
" transform="scale(0.015625)"/>
      <path id="DejaVuSans-38" d="M 2034 2216 
Q 1584 2216 1326 1975 
Q 1069 1734 1069 1313 
Q 1069 891 1326 650 
Q 1584 409 2034 409 
Q 2484 409 2743 651 
Q 3003 894 3003 1313 
Q 3003 1734 2745 1975 
Q 2488 2216 2034 2216 
z
M 1403 2484 
Q 997 2584 770 2862 
Q 544 3141 544 3541 
Q 544 4100 942 4425 
Q 1341 4750 2034 4750 
Q 2731 4750 3128 4425 
Q 3525 4100 3525 3541 
Q 3525 3141 3298 2862 
Q 3072 2584 2669 2484 
Q 3125 2378 3379 2068 
Q 3634 1759 3634 1313 
Q 3634 634 3220 271 
Q 2806 -91 2034 -91 
Q 1263 -91 848 271 
Q 434 634 434 1313 
Q 434 1759 690 2068 
Q 947 2378 1403 2484 
z
M 1172 3481 
Q 1172 3119 1398 2916 
Q 1625 2713 2034 2713 
Q 2441 2713 2670 2916 
Q 2900 3119 2900 3481 
Q 2900 3844 2670 4047 
Q 2441 4250 2034 4250 
Q 1625 4250 1398 4047 
Q 1172 3844 1172 3481 
z
" transform="scale(0.015625)"/>
      <path id="DejaVuSans-30" d="M 2034 4250 
Q 1547 4250 1301 3770 
Q 1056 3291 1056 2328 
Q 1056 1369 1301 889 
Q 1547 409 2034 409 
Q 2525 409 2770 889 
Q 3016 1369 3016 2328 
Q 3016 3291 2770 3770 
Q 2525 4250 2034 4250 
z
M 2034 4750 
Q 2819 4750 3233 4129 
Q 3647 3509 3647 2328 
Q 3647 1150 3233 529 
Q 2819 -91 2034 -91 
Q 1250 -91 836 529 
Q 422 1150 422 2328 
Q 422 3509 836 4129 
Q 1250 4750 2034 4750 
z
" transform="scale(0.015625)"/>
      <path id="DejaVuSans-53" d="M 3425 4513 
L 3425 3897 
Q 3066 4069 2747 4153 
Q 2428 4238 2131 4238 
Q 1616 4238 1336 4038 
Q 1056 3838 1056 3469 
Q 1056 3159 1242 3001 
Q 1428 2844 1947 2747 
L 2328 2669 
Q 3034 2534 3370 2195 
Q 3706 1856 3706 1288 
Q 3706 609 3251 259 
Q 2797 -91 1919 -91 
Q 1588 -91 1214 -16 
Q 841 59 441 206 
L 441 856 
Q 825 641 1194 531 
Q 1563 422 1919 422 
Q 2459 422 2753 634 
Q 3047 847 3047 1241 
Q 3047 1584 2836 1778 
Q 2625 1972 2144 2069 
L 1759 2144 
Q 1053 2284 737 2584 
Q 422 2884 422 3419 
Q 422 4038 858 4394 
Q 1294 4750 2059 4750 
Q 2388 4750 2728 4690 
Q 3069 4631 3425 4513 
z
" transform="scale(0.015625)"/>
      <path id="DejaVuSans-54" d="M -19 4666 
L 3928 4666 
L 3928 4134 
L 2272 4134 
L 2272 0 
L 1638 0 
L 1638 4134 
L -19 4134 
L -19 4666 
z
" transform="scale(0.015625)"/>
      <path id="DejaVuSans-69" d="M 603 3500 
L 1178 3500 
L 1178 0 
L 603 0 
L 603 3500 
z
M 603 4863 
L 1178 4863 
L 1178 4134 
L 603 4134 
L 603 4863 
z
" transform="scale(0.015625)"/>
      <path id="DejaVuSans-34" d="M 2419 4116 
L 825 1625 
L 2419 1625 
L 2419 4116 
z
M 2253 4666 
L 3047 4666 
L 3047 1625 
L 3713 1625 
L 3713 1100 
L 3047 1100 
L 3047 0 
L 2419 0 
L 2419 1100 
L 313 1100 
L 313 1709 
L 2253 4666 
z
" transform="scale(0.015625)"/>
     </defs>
     <use xlink:href="#DejaVuSans-43"/>
     <use xlink:href="#DejaVuSans-32" transform="translate(69.824219 0)"/>
     <use xlink:href="#DejaVuSans-48" transform="translate(133.447266 0)"/>
     <use xlink:href="#DejaVuSans-36" transform="translate(208.642578 0)"/>
     <use xlink:href="#DejaVuSans-4f" transform="translate(272.265625 0)"/>
     <use xlink:href="#DejaVuSans-38" transform="translate(350.976562 0)"/>
     <use xlink:href="#DejaVuSans-30" transform="translate(414.599609 0)"/>
     <use xlink:href="#DejaVuSans-53" transform="translate(478.222656 0)"/>
     <use xlink:href="#DejaVuSans-54" transform="translate(541.699219 0)"/>
     <use xlink:href="#DejaVuSans-69" transform="translate(599.658203 0)"/>
     <use xlink:href="#DejaVuSans-34" transform="translate(627.441406 0)"/>
     <use xlink:href="#DejaVuSans-30" transform="translate(691.064453 0)"/>
    </g>
    <!-- Error: -1.88 eV -->
    <g transform="translate(149.797046 53.701517) scale(0.1 -0.1)">
     <defs>
      <path id="DejaVuSans-45" d="M 628 4666 
L 3578 4666 
L 3578 4134 
L 1259 4134 
L 1259 2753 
L 3481 2753 
L 3481 2222 
L 1259 2222 
L 1259 531 
L 3634 531 
L 3634 0 
L 628 0 
L 628 4666 
z
" transform="scale(0.015625)"/>
      <path id="DejaVuSans-72" d="M 2631 2963 
Q 2534 3019 2420 3045 
Q 2306 3072 2169 3072 
Q 1681 3072 1420 2755 
Q 1159 2438 1159 1844 
L 1159 0 
L 581 0 
L 581 3500 
L 1159 3500 
L 1159 2956 
Q 1341 3275 1631 3429 
Q 1922 3584 2338 3584 
Q 2397 3584 2469 3576 
Q 2541 3569 2628 3553 
L 2631 2963 
z
" transform="scale(0.015625)"/>
      <path id="DejaVuSans-6f" d="M 1959 3097 
Q 1497 3097 1228 2736 
Q 959 2375 959 1747 
Q 959 1119 1226 758 
Q 1494 397 1959 397 
Q 2419 397 2687 759 
Q 2956 1122 2956 1747 
Q 2956 2369 2687 2733 
Q 2419 3097 1959 3097 
z
M 1959 3584 
Q 2709 3584 3137 3096 
Q 3566 2609 3566 1747 
Q 3566 888 3137 398 
Q 2709 -91 1959 -91 
Q 1206 -91 779 398 
Q 353 888 353 1747 
Q 353 2609 779 3096 
Q 1206 3584 1959 3584 
z
" transform="scale(0.015625)"/>
      <path id="DejaVuSans-3a" d="M 750 794 
L 1409 794 
L 1409 0 
L 750 0 
L 750 794 
z
M 750 3309 
L 1409 3309 
L 1409 2516 
L 750 2516 
L 750 3309 
z
" transform="scale(0.015625)"/>
      <path id="DejaVuSans-20" transform="scale(0.015625)"/>
      <path id="DejaVuSans-2d" d="M 313 2009 
L 1997 2009 
L 1997 1497 
L 313 1497 
L 313 2009 
z
" transform="scale(0.015625)"/>
      <path id="DejaVuSans-31" d="M 794 531 
L 1825 531 
L 1825 4091 
L 703 3866 
L 703 4441 
L 1819 4666 
L 2450 4666 
L 2450 531 
L 3481 531 
L 3481 0 
L 794 0 
L 794 531 
z
" transform="scale(0.015625)"/>
      <path id="DejaVuSans-2e" d="M 684 794 
L 1344 794 
L 1344 0 
L 684 0 
L 684 794 
z
" transform="scale(0.015625)"/>
      <path id="DejaVuSans-65" d="M 3597 1894 
L 3597 1613 
L 953 1613 
Q 991 1019 1311 708 
Q 1631 397 2203 397 
Q 2534 397 2845 478 
Q 3156 559 3463 722 
L 3463 178 
Q 3153 47 2828 -22 
Q 2503 -91 2169 -91 
Q 1331 -91 842 396 
Q 353 884 353 1716 
Q 353 2575 817 3079 
Q 1281 3584 2069 3584 
Q 2775 3584 3186 3129 
Q 3597 2675 3597 1894 
z
M 3022 2063 
Q 3016 2534 2758 2815 
Q 2500 3097 2075 3097 
Q 1594 3097 1305 2825 
Q 1016 2553 972 2059 
L 3022 2063 
z
" transform="scale(0.015625)"/>
      <path id="DejaVuSans-56" d="M 1831 0 
L 50 4666 
L 709 4666 
L 2188 738 
L 3669 4666 
L 4325 4666 
L 2547 0 
L 1831 0 
z
" transform="scale(0.015625)"/>
     </defs>
     <use xlink:href="#DejaVuSans-45"/>
     <use xlink:href="#DejaVuSans-72" transform="translate(63.183594 0)"/>
     <use xlink:href="#DejaVuSans-72" transform="translate(102.546875 0)"/>
     <use xlink:href="#DejaVuSans-6f" transform="translate(141.410156 0)"/>
     <use xlink:href="#DejaVuSans-72" transform="translate(202.591797 0)"/>
     <use xlink:href="#DejaVuSans-3a" transform="translate(241.955078 0)"/>
     <use xlink:href="#DejaVuSans-20" transform="translate(275.646484 0)"/>
     <use xlink:href="#DejaVuSans-2d" transform="translate(307.433594 0)"/>
     <use xlink:href="#DejaVuSans-31" transform="translate(343.517578 0)"/>
     <use xlink:href="#DejaVuSans-2e" transform="translate(407.140625 0)"/>
     <use xlink:href="#DejaVuSans-38" transform="translate(438.927734 0)"/>
     <use xlink:href="#DejaVuSans-38" transform="translate(502.550781 0)"/>
     <use xlink:href="#DejaVuSans-20" transform="translate(566.173828 0)"/>
     <use xlink:href="#DejaVuSans-65" transform="translate(597.960938 0)"/>
     <use xlink:href="#DejaVuSans-56" transform="translate(659.484375 0)"/>
    </g>
   </g>
  </g>
 </g>
 <defs>
  <clipPath id="pded8186675">
   <rect x="36" y="34.56" width="223.2" height="221.76"/>
  </clipPath>
 </defs>
</svg>
