<?xml version="1.0" encoding="utf-8" standalone="no"?>
<!DOCTYPE svg PUBLIC "-//W3C//DTD SVG 1.1//EN"
  "http://www.w3.org/Graphics/SVG/1.1/DTD/svg11.dtd">
<svg xmlns:xlink="http://www.w3.org/1999/xlink" width="288pt" height="288pt" viewBox="0 0 288 288" xmlns="http://www.w3.org/2000/svg" version="1.1">
 <metadata>
  <rdf:RDF xmlns:dc="http://purl.org/dc/elements/1.1/" xmlns:cc="http://creativecommons.org/ns#" xmlns:rdf="http://www.w3.org/1999/02/22-rdf-syntax-ns#">
   <cc:Work>
    <dc:type rdf:resource="http://purl.org/dc/dcmitype/StillImage"/>
    <dc:date>2025-05-13T13:28:54.553902</dc:date>
    <dc:format>image/svg+xml</dc:format>
    <dc:creator>
     <cc:Agent>
      <dc:title>Matplotlib v3.10.1, https://matplotlib.org/</dc:title>
     </cc:Agent>
    </dc:creator>
   </cc:Work>
  </rdf:RDF>
 </metadata>
 <defs>
  <style type="text/css">*{stroke-linejoin: round; stroke-linecap: butt}</style>
 </defs>
 <g id="figure_1">
  <g id="patch_1">
   <path d="M 0 288 
L 288 288 
L 288 0 
L 0 0 
z
" style="fill: #ffffff"/>
  </g>
  <g id="axes_1">
   <g id="LineCollection_1">
    <path d="M 162.8539 198.772608 
L 147.423841 171.957907 
" clip-path="url(#paed2537553)" style="fill: none; stroke: #000000; stroke-width: 1.2"/>
    <path d="M 162.8539 198.772608 
L 181.658026 208.390153 
" clip-path="url(#paed2537553)" style="fill: none; stroke: #000000; stroke-width: 1.2"/>
    <path d="M 166.176889 155.46105 
L 139.63189 128.403722 
" clip-path="url(#paed2537553)" style="fill: none; stroke: #000000; stroke-width: 1.2"/>
    <path d="M 166.176889 155.46105 
L 161.215978 173.23358 
" clip-path="url(#paed2537553)" style="fill: none; stroke: #000000; stroke-width: 1.2"/>
    <path d="M 166.176889 155.46105 
L 190.160843 180.405439 
" clip-path="url(#paed2537553)" style="fill: none; stroke: #000000; stroke-width: 1.2"/>
    <path d="M 123.605936 117.367193 
L 97.156976 117.443448 
" clip-path="url(#paed2537553)" style="fill: none; stroke: #000000; stroke-width: 1.2"/>
    <path d="M 123.605936 117.367193 
L 138.219019 146.299574 
" clip-path="url(#paed2537553)" style="fill: none; stroke: #000000; stroke-width: 1.2"/>
    <path d="M 123.605936 117.367193 
L 136.080888 99.313051 
" clip-path="url(#paed2537553)" style="fill: none; stroke: #000000; stroke-width: 1.2"/>
    <path d="M 123.605936 117.367193 
L 129.005981 140.956257 
" clip-path="url(#paed2537553)" style="fill: none; stroke: #000000; stroke-width: 1.2"/>
    <path d="M 123.605936 117.367193 
L 144.472459 103.205668 
" clip-path="url(#paed2537553)" style="fill: none; stroke: #000000; stroke-width: 1.2"/>
    <path d="M 84.437481 132.690743 
L 64.099615 124.102384 
" clip-path="url(#paed2537553)" style="fill: none; stroke: #000000; stroke-width: 1.2"/>
    <path d="M 84.437481 132.690743 
L 97.156976 117.443448 
" clip-path="url(#paed2537553)" style="fill: none; stroke: #000000; stroke-width: 1.2"/>
    <path d="M 84.437481 132.690743 
L 69.044602 106.584173 
" clip-path="url(#paed2537553)" style="fill: none; stroke: #000000; stroke-width: 1.2"/>
    <path d="M 84.437481 132.690743 
L 87.154139 164.691094 
" clip-path="url(#paed2537553)" style="fill: none; stroke: #000000; stroke-width: 1.2"/>
    <path d="M 84.437481 132.690743 
L 60.59511 135.443442 
" clip-path="url(#paed2537553)" style="fill: none; stroke: #000000; stroke-width: 1.2"/>
    <path d="M 84.437481 132.690743 
L 107.255807 132.232529 
" clip-path="url(#paed2537553)" style="fill: none; stroke: #000000; stroke-width: 1.2"/>
    <path d="M 153.926762 77.924469 
L 176.808552 61.749221 
" clip-path="url(#paed2537553)" style="fill: none; stroke: #000000; stroke-width: 1.2"/>
    <path d="M 153.926762 77.924469 
L 166.201358 55.096989 
" clip-path="url(#paed2537553)" style="fill: none; stroke: #000000; stroke-width: 1.2"/>
    <path d="M 153.926762 77.924469 
L 136.080888 99.313051 
" clip-path="url(#paed2537553)" style="fill: none; stroke: #000000; stroke-width: 1.2"/>
    <path d="M 153.926762 77.924469 
L 174.557123 96.246164 
" clip-path="url(#paed2537553)" style="fill: none; stroke: #000000; stroke-width: 1.2"/>
    <path d="M 153.926762 77.924469 
L 153.499551 53.803636 
" clip-path="url(#paed2537553)" style="fill: none; stroke: #000000; stroke-width: 1.2"/>
    <path d="M 153.926762 77.924469 
L 142.330538 58.380877 
" clip-path="url(#paed2537553)" style="fill: none; stroke: #000000; stroke-width: 1.2"/>
    <path d="M 93.983489 186.264983 
L 87.154139 164.691094 
" clip-path="url(#paed2537553)" style="fill: none; stroke: #000000; stroke-width: 1.2"/>
    <path d="M 93.983489 186.264983 
L 122.16533 177.961996 
" clip-path="url(#paed2537553)" style="fill: none; stroke: #000000; stroke-width: 1.2"/>
    <path d="M 93.983489 186.264983 
L 67.846898 198.636145 
" clip-path="url(#paed2537553)" style="fill: none; stroke: #000000; stroke-width: 1.2"/>
    <path d="M 93.983489 186.264983 
L 82.163822 207.419371 
" clip-path="url(#paed2537553)" style="fill: none; stroke: #000000; stroke-width: 1.2"/>
    <path d="M 93.983489 186.264983 
L 81.461447 172.203041 
" clip-path="url(#paed2537553)" style="fill: none; stroke: #000000; stroke-width: 1.2"/>
    <path d="M 93.983489 186.264983 
L 91.867214 213.085036 
" clip-path="url(#paed2537553)" style="fill: none; stroke: #000000; stroke-width: 1.2"/>
    <path d="M 179.507297 119.478784 
L 208.196038 111.132306 
" clip-path="url(#paed2537553)" style="fill: none; stroke: #000000; stroke-width: 1.2"/>
    <path d="M 179.507297 119.478784 
L 174.557123 96.246164 
" clip-path="url(#paed2537553)" style="fill: none; stroke: #000000; stroke-width: 1.2"/>
    <path d="M 179.507297 119.478784 
L 173.835919 148.310349 
" clip-path="url(#paed2537553)" style="fill: none; stroke: #000000; stroke-width: 1.2"/>
    <path d="M 179.507297 119.478784 
L 184.120893 95.073527 
" clip-path="url(#paed2537553)" style="fill: none; stroke: #000000; stroke-width: 1.2"/>
    <path d="M 179.507297 119.478784 
L 163.964903 138.219142 
" clip-path="url(#paed2537553)" style="fill: none; stroke: #000000; stroke-width: 1.2"/>
    <path d="M 147.423841 171.957907 
L 138.219019 146.299574 
" clip-path="url(#paed2537553)" style="fill: none; stroke: #000000; stroke-width: 1.2"/>
    <path d="M 147.423841 171.957907 
L 122.16533 177.961996 
" clip-path="url(#paed2537553)" style="fill: none; stroke: #000000; stroke-width: 1.2"/>
    <path d="M 147.423841 171.957907 
L 148.243429 191.076368 
" clip-path="url(#paed2537553)" style="fill: none; stroke: #000000; stroke-width: 1.2"/>
    <path d="M 147.423841 171.957907 
L 173.835919 148.310349 
" clip-path="url(#paed2537553)" style="fill: none; stroke: #000000; stroke-width: 1.2"/>
    <path d="M 147.423841 171.957907 
L 127.727824 186.30995 
" clip-path="url(#paed2537553)" style="fill: none; stroke: #000000; stroke-width: 1.2"/>
    <path d="M 147.423841 171.957907 
L 161.215978 173.23358 
" clip-path="url(#paed2537553)" style="fill: none; stroke: #000000; stroke-width: 1.2"/>
    <path d="M 139.63189 128.403722 
L 138.219019 146.299574 
" clip-path="url(#paed2537553)" style="fill: none; stroke: #000000; stroke-width: 1.2"/>
    <path d="M 139.63189 128.403722 
L 136.080888 99.313051 
" clip-path="url(#paed2537553)" style="fill: none; stroke: #000000; stroke-width: 1.2"/>
    <path d="M 139.63189 128.403722 
L 107.255807 132.232529 
" clip-path="url(#paed2537553)" style="fill: none; stroke: #000000; stroke-width: 1.2"/>
    <path d="M 139.63189 128.403722 
L 129.005981 140.956257 
" clip-path="url(#paed2537553)" style="fill: none; stroke: #000000; stroke-width: 1.2"/>
    <path d="M 139.63189 128.403722 
L 144.472459 103.205668 
" clip-path="url(#paed2537553)" style="fill: none; stroke: #000000; stroke-width: 1.2"/>
    <path d="M 82.451893 142.895265 
L 64.099615 124.102384 
" clip-path="url(#paed2537553)" style="fill: none; stroke: #000000; stroke-width: 1.2"/>
    <path d="M 82.451893 142.895265 
L 97.156976 117.443448 
" clip-path="url(#paed2537553)" style="fill: none; stroke: #000000; stroke-width: 1.2"/>
    <path d="M 82.451893 142.895265 
L 60.59511 135.443442 
" clip-path="url(#paed2537553)" style="fill: none; stroke: #000000; stroke-width: 1.2"/>
    <path d="M 82.451893 142.895265 
L 107.255807 132.232529 
" clip-path="url(#paed2537553)" style="fill: none; stroke: #000000; stroke-width: 1.2"/>
    <path d="M 82.451893 142.895265 
L 55.368595 150.068571 
" clip-path="url(#paed2537553)" style="fill: none; stroke: #000000; stroke-width: 1.2"/>
    <path d="M 82.451893 142.895265 
L 81.461447 172.203041 
" clip-path="url(#paed2537553)" style="fill: none; stroke: #000000; stroke-width: 1.2"/>
    <path d="M 161.56784 79.128517 
L 176.808552 61.749221 
" clip-path="url(#paed2537553)" style="fill: none; stroke: #000000; stroke-width: 1.2"/>
    <path d="M 161.56784 79.128517 
L 166.201358 55.096989 
" clip-path="url(#paed2537553)" style="fill: none; stroke: #000000; stroke-width: 1.2"/>
    <path d="M 161.56784 79.128517 
L 153.499551 53.803636 
" clip-path="url(#paed2537553)" style="fill: none; stroke: #000000; stroke-width: 1.2"/>
    <path d="M 161.56784 79.128517 
L 142.330538 58.380877 
" clip-path="url(#paed2537553)" style="fill: none; stroke: #000000; stroke-width: 1.2"/>
    <path d="M 161.56784 79.128517 
L 144.472459 103.205668 
" clip-path="url(#paed2537553)" style="fill: none; stroke: #000000; stroke-width: 1.2"/>
    <path d="M 161.56784 79.128517 
L 184.120893 95.073527 
" clip-path="url(#paed2537553)" style="fill: none; stroke: #000000; stroke-width: 1.2"/>
    <path d="M 101.205834 191.36111 
L 87.154139 164.691094 
" clip-path="url(#paed2537553)" style="fill: none; stroke: #000000; stroke-width: 1.2"/>
    <path d="M 101.205834 191.36111 
L 82.163822 207.419371 
" clip-path="url(#paed2537553)" style="fill: none; stroke: #000000; stroke-width: 1.2"/>
    <path d="M 101.205834 191.36111 
L 81.461447 172.203041 
" clip-path="url(#paed2537553)" style="fill: none; stroke: #000000; stroke-width: 1.2"/>
    <path d="M 101.205834 191.36111 
L 127.727824 186.30995 
" clip-path="url(#paed2537553)" style="fill: none; stroke: #000000; stroke-width: 1.2"/>
    <path d="M 101.205834 191.36111 
L 101.434563 222.911595 
" clip-path="url(#paed2537553)" style="fill: none; stroke: #000000; stroke-width: 1.2"/>
    <path d="M 101.205834 191.36111 
L 91.867214 213.085036 
" clip-path="url(#paed2537553)" style="fill: none; stroke: #000000; stroke-width: 1.2"/>
    <path d="M 184.804372 123.524956 
L 174.557123 96.246164 
" clip-path="url(#paed2537553)" style="fill: none; stroke: #000000; stroke-width: 1.2"/>
    <path d="M 184.804372 123.524956 
L 173.835919 148.310349 
" clip-path="url(#paed2537553)" style="fill: none; stroke: #000000; stroke-width: 1.2"/>
    <path d="M 184.804372 123.524956 
L 211.422225 122.880094 
" clip-path="url(#paed2537553)" style="fill: none; stroke: #000000; stroke-width: 1.2"/>
    <path d="M 184.804372 123.524956 
L 184.120893 95.073527 
" clip-path="url(#paed2537553)" style="fill: none; stroke: #000000; stroke-width: 1.2"/>
    <path d="M 184.804372 123.524956 
L 163.964903 138.219142 
" clip-path="url(#paed2537553)" style="fill: none; stroke: #000000; stroke-width: 1.2"/>
    <path d="M 141.020963 163.178384 
L 122.16533 177.961996 
" clip-path="url(#paed2537553)" style="fill: none; stroke: #000000; stroke-width: 1.2"/>
    <path d="M 141.020963 163.178384 
L 148.243429 191.076368 
" clip-path="url(#paed2537553)" style="fill: none; stroke: #000000; stroke-width: 1.2"/>
    <path d="M 141.020963 163.178384 
L 129.005981 140.956257 
" clip-path="url(#paed2537553)" style="fill: none; stroke: #000000; stroke-width: 1.2"/>
    <path d="M 141.020963 163.178384 
L 127.727824 186.30995 
" clip-path="url(#paed2537553)" style="fill: none; stroke: #000000; stroke-width: 1.2"/>
    <path d="M 141.020963 163.178384 
L 161.215978 173.23358 
" clip-path="url(#paed2537553)" style="fill: none; stroke: #000000; stroke-width: 1.2"/>
    <path d="M 141.020963 163.178384 
L 163.964903 138.219142 
" clip-path="url(#paed2537553)" style="fill: none; stroke: #000000; stroke-width: 1.2"/>
    <path d="M 190.160843 180.405439 
L 216.656964 186.787019 
" clip-path="url(#paed2537553)" style="fill: none; stroke: #000000; stroke-width: 1.2"/>
    <path d="M 190.160843 180.405439 
L 181.658026 208.390153 
" clip-path="url(#paed2537553)" style="fill: none; stroke: #000000; stroke-width: 1.2"/>
    <path d="M 216.656964 186.787019 
L 228.045037 212.928525 
" clip-path="url(#paed2537553)" style="fill: none; stroke: #000000; stroke-width: 1.2"/>
    <path d="M 216.656964 186.787019 
L 239.113288 195.239602 
" clip-path="url(#paed2537553)" style="fill: none; stroke: #000000; stroke-width: 1.2"/>
    <path d="M 216.656964 186.787019 
L 239.831405 174.294867 
" clip-path="url(#paed2537553)" style="fill: none; stroke: #000000; stroke-width: 1.2"/>
    <path d="M 181.658026 208.390153 
L 177.239538 237.076364 
" clip-path="url(#paed2537553)" style="fill: none; stroke: #000000; stroke-width: 1.2"/>
    <path d="M 181.658026 208.390153 
L 193.897984 230.303324 
" clip-path="url(#paed2537553)" style="fill: none; stroke: #000000; stroke-width: 1.2"/>
   </g>
   <g id="PathCollection_1">
    <defs>
     <path id="C0_0_30e140684f" d="M 0 8.944272 
C 2.372049 8.944272 4.647264 8.001847 6.324555 6.324555 
C 8.001847 4.647264 8.944272 2.372049 8.944272 -0 
C 8.944272 -2.372049 8.001847 -4.647264 6.324555 -6.324555 
C 4.647264 -8.001847 2.372049 -8.944272 0 -8.944272 
C -2.372049 -8.944272 -4.647264 -8.001847 -6.324555 -6.324555 
C -8.001847 -4.647264 -8.944272 -2.372049 -8.944272 0 
C -8.944272 2.372049 -8.001847 4.647264 -6.324555 6.324555 
C -4.647264 8.001847 -2.372049 8.944272 0 8.944272 
z
"/>
    </defs>
    <g clip-path="url(#paed2537553)">
     <use xlink:href="#C0_0_30e140684f" x="162.8539" y="198.772608" style="fill: #bfbfbf; stroke: #bfbfbf; stroke-width: 0.5"/>
    </g>
    <g clip-path="url(#paed2537553)">
     <use xlink:href="#C0_0_30e140684f" x="166.176889" y="155.46105" style="fill: #b2b200; stroke: #b2b200; stroke-width: 0.5"/>
    </g>
    <g clip-path="url(#paed2537553)">
     <use xlink:href="#C0_0_30e140684f" x="123.605936" y="117.367193" style="fill: #175487; stroke: #175487; stroke-width: 0.5"/>
    </g>
    <g clip-path="url(#paed2537553)">
     <use xlink:href="#C0_0_30e140684f" x="84.437481" y="132.690743" style="fill: #175487; stroke: #175487; stroke-width: 0.5"/>
    </g>
    <g clip-path="url(#paed2537553)">
     <use xlink:href="#C0_0_30e140684f" x="153.926762" y="77.924469" style="fill: #175487; stroke: #175487; stroke-width: 0.5"/>
    </g>
    <g clip-path="url(#paed2537553)">
     <use xlink:href="#C0_0_30e140684f" x="93.983489" y="186.264983" style="fill: #175487; stroke: #175487; stroke-width: 0.5"/>
    </g>
    <g clip-path="url(#paed2537553)">
     <use xlink:href="#C0_0_30e140684f" x="179.507297" y="119.478784" style="fill: #175487; stroke: #175487; stroke-width: 0.5"/>
    </g>
    <g clip-path="url(#paed2537553)">
     <use xlink:href="#C0_0_30e140684f" x="147.423841" y="171.957907" style="fill: #175487; stroke: #175487; stroke-width: 0.5"/>
    </g>
    <g clip-path="url(#paed2537553)">
     <use xlink:href="#C0_0_30e140684f" x="139.63189" y="128.403722" style="fill: #175487; stroke: #175487; stroke-width: 0.5"/>
    </g>
    <g clip-path="url(#paed2537553)">
     <use xlink:href="#C0_0_30e140684f" x="82.451893" y="142.895265" style="fill: #175487; stroke: #175487; stroke-width: 0.5"/>
    </g>
    <g clip-path="url(#paed2537553)">
     <use xlink:href="#C0_0_30e140684f" x="161.56784" y="79.128517" style="fill: #175487; stroke: #175487; stroke-width: 0.5"/>
    </g>
    <g clip-path="url(#paed2537553)">
     <use xlink:href="#C0_0_30e140684f" x="101.205834" y="191.36111" style="fill: #175487; stroke: #175487; stroke-width: 0.5"/>
    </g>
    <g clip-path="url(#paed2537553)">
     <use xlink:href="#C0_0_30e140684f" x="184.804372" y="123.524956" style="fill: #175487; stroke: #175487; stroke-width: 0.5"/>
    </g>
    <g clip-path="url(#paed2537553)">
     <use xlink:href="#C0_0_30e140684f" x="141.020963" y="163.178384" style="fill: #175487; stroke: #175487; stroke-width: 0.5"/>
    </g>
    <g clip-path="url(#paed2537553)">
     <use xlink:href="#C0_0_30e140684f" x="64.099615" y="124.102384" style="fill: #ff0d0d; stroke: #ff0d0d; stroke-width: 0.5"/>
    </g>
    <g clip-path="url(#paed2537553)">
     <use xlink:href="#C0_0_30e140684f" x="176.808552" y="61.749221" style="fill: #ff0d0d; stroke: #ff0d0d; stroke-width: 0.5"/>
    </g>
    <g clip-path="url(#paed2537553)">
     <use xlink:href="#C0_0_30e140684f" x="97.156976" y="117.443448" style="fill: #ff0d0d; stroke: #ff0d0d; stroke-width: 0.5"/>
    </g>
    <g clip-path="url(#paed2537553)">
     <use xlink:href="#C0_0_30e140684f" x="166.201358" y="55.096989" style="fill: #ff0d0d; stroke: #ff0d0d; stroke-width: 0.5"/>
    </g>
    <g clip-path="url(#paed2537553)">
     <use xlink:href="#C0_0_30e140684f" x="69.044602" y="106.584173" style="fill: #ff0d0d; stroke: #ff0d0d; stroke-width: 0.5"/>
    </g>
    <g clip-path="url(#paed2537553)">
     <use xlink:href="#C0_0_30e140684f" x="138.219019" y="146.299574" style="fill: #ff0d0d; stroke: #ff0d0d; stroke-width: 0.5"/>
    </g>
    <g clip-path="url(#paed2537553)">
     <use xlink:href="#C0_0_30e140684f" x="87.154139" y="164.691094" style="fill: #ff0d0d; stroke: #ff0d0d; stroke-width: 0.5"/>
    </g>
    <g clip-path="url(#paed2537553)">
     <use xlink:href="#C0_0_30e140684f" x="136.080888" y="99.313051" style="fill: #ff0d0d; stroke: #ff0d0d; stroke-width: 0.5"/>
    </g>
    <g clip-path="url(#paed2537553)">
     <use xlink:href="#C0_0_30e140684f" x="122.16533" y="177.961996" style="fill: #ff0d0d; stroke: #ff0d0d; stroke-width: 0.5"/>
    </g>
    <g clip-path="url(#paed2537553)">
     <use xlink:href="#C0_0_30e140684f" x="67.846898" y="198.636145" style="fill: #ff0d0d; stroke: #ff0d0d; stroke-width: 0.5"/>
    </g>
    <g clip-path="url(#paed2537553)">
     <use xlink:href="#C0_0_30e140684f" x="208.196038" y="111.132306" style="fill: #ff0d0d; stroke: #ff0d0d; stroke-width: 0.5"/>
    </g>
    <g clip-path="url(#paed2537553)">
     <use xlink:href="#C0_0_30e140684f" x="148.243429" y="191.076368" style="fill: #ff0d0d; stroke: #ff0d0d; stroke-width: 0.5"/>
    </g>
    <g clip-path="url(#paed2537553)">
     <use xlink:href="#C0_0_30e140684f" x="82.163822" y="207.419371" style="fill: #ff0d0d; stroke: #ff0d0d; stroke-width: 0.5"/>
    </g>
    <g clip-path="url(#paed2537553)">
     <use xlink:href="#C0_0_30e140684f" x="174.557123" y="96.246164" style="fill: #ff0d0d; stroke: #ff0d0d; stroke-width: 0.5"/>
    </g>
    <g clip-path="url(#paed2537553)">
     <use xlink:href="#C0_0_30e140684f" x="173.835919" y="148.310349" style="fill: #ff0d0d; stroke: #ff0d0d; stroke-width: 0.5"/>
    </g>
    <g clip-path="url(#paed2537553)">
     <use xlink:href="#C0_0_30e140684f" x="60.59511" y="135.443442" style="fill: #ff0d0d; stroke: #ff0d0d; stroke-width: 0.5"/>
    </g>
    <g clip-path="url(#paed2537553)">
     <use xlink:href="#C0_0_30e140684f" x="153.499551" y="53.803636" style="fill: #ff0d0d; stroke: #ff0d0d; stroke-width: 0.5"/>
    </g>
    <g clip-path="url(#paed2537553)">
     <use xlink:href="#C0_0_30e140684f" x="107.255807" y="132.232529" style="fill: #ff0d0d; stroke: #ff0d0d; stroke-width: 0.5"/>
    </g>
    <g clip-path="url(#paed2537553)">
     <use xlink:href="#C0_0_30e140684f" x="142.330538" y="58.380877" style="fill: #ff0d0d; stroke: #ff0d0d; stroke-width: 0.5"/>
    </g>
    <g clip-path="url(#paed2537553)">
     <use xlink:href="#C0_0_30e140684f" x="55.368595" y="150.068571" style="fill: #ff0d0d; stroke: #ff0d0d; stroke-width: 0.5"/>
    </g>
    <g clip-path="url(#paed2537553)">
     <use xlink:href="#C0_0_30e140684f" x="129.005981" y="140.956257" style="fill: #ff0d0d; stroke: #ff0d0d; stroke-width: 0.5"/>
    </g>
    <g clip-path="url(#paed2537553)">
     <use xlink:href="#C0_0_30e140684f" x="81.461447" y="172.203041" style="fill: #ff0d0d; stroke: #ff0d0d; stroke-width: 0.5"/>
    </g>
    <g clip-path="url(#paed2537553)">
     <use xlink:href="#C0_0_30e140684f" x="144.472459" y="103.205668" style="fill: #ff0d0d; stroke: #ff0d0d; stroke-width: 0.5"/>
    </g>
    <g clip-path="url(#paed2537553)">
     <use xlink:href="#C0_0_30e140684f" x="127.727824" y="186.30995" style="fill: #ff0d0d; stroke: #ff0d0d; stroke-width: 0.5"/>
    </g>
    <g clip-path="url(#paed2537553)">
     <use xlink:href="#C0_0_30e140684f" x="101.434563" y="222.911595" style="fill: #ff0d0d; stroke: #ff0d0d; stroke-width: 0.5"/>
    </g>
    <g clip-path="url(#paed2537553)">
     <use xlink:href="#C0_0_30e140684f" x="211.422225" y="122.880094" style="fill: #ff0d0d; stroke: #ff0d0d; stroke-width: 0.5"/>
    </g>
    <g clip-path="url(#paed2537553)">
     <use xlink:href="#C0_0_30e140684f" x="161.215978" y="173.23358" style="fill: #ff0d0d; stroke: #ff0d0d; stroke-width: 0.5"/>
    </g>
    <g clip-path="url(#paed2537553)">
     <use xlink:href="#C0_0_30e140684f" x="91.867214" y="213.085036" style="fill: #ff0d0d; stroke: #ff0d0d; stroke-width: 0.5"/>
    </g>
    <g clip-path="url(#paed2537553)">
     <use xlink:href="#C0_0_30e140684f" x="184.120893" y="95.073527" style="fill: #ff0d0d; stroke: #ff0d0d; stroke-width: 0.5"/>
    </g>
    <g clip-path="url(#paed2537553)">
     <use xlink:href="#C0_0_30e140684f" x="163.964903" y="138.219142" style="fill: #ff0d0d; stroke: #ff0d0d; stroke-width: 0.5"/>
    </g>
    <g clip-path="url(#paed2537553)">
     <use xlink:href="#C0_0_30e140684f" x="190.160843" y="180.405439" style="fill: #666666; stroke: #666666; stroke-width: 0.5"/>
    </g>
    <g clip-path="url(#paed2537553)">
     <use xlink:href="#C0_0_30e140684f" x="216.656964" y="186.787019" style="fill: #666666; stroke: #666666; stroke-width: 0.5"/>
    </g>
    <g clip-path="url(#paed2537553)">
     <use xlink:href="#C0_0_30e140684f" x="181.658026" y="208.390153" style="fill: #666666; stroke: #666666; stroke-width: 0.5"/>
    </g>
    <g clip-path="url(#paed2537553)">
     <use xlink:href="#C0_0_30e140684f" x="228.045037" y="212.928525" style="fill: #bfbfbf; stroke: #bfbfbf; stroke-width: 0.5"/>
    </g>
    <g clip-path="url(#paed2537553)">
     <use xlink:href="#C0_0_30e140684f" x="239.113288" y="195.239602" style="fill: #bfbfbf; stroke: #bfbfbf; stroke-width: 0.5"/>
    </g>
    <g clip-path="url(#paed2537553)">
     <use xlink:href="#C0_0_30e140684f" x="239.831405" y="174.294867" style="fill: #bfbfbf; stroke: #bfbfbf; stroke-width: 0.5"/>
    </g>
    <g clip-path="url(#paed2537553)">
     <use xlink:href="#C0_0_30e140684f" x="177.239538" y="237.076364" style="fill: #bfbfbf; stroke: #bfbfbf; stroke-width: 0.5"/>
    </g>
    <g clip-path="url(#paed2537553)">
     <use xlink:href="#C0_0_30e140684f" x="193.897984" y="230.303324" style="fill: #bfbfbf; stroke: #bfbfbf; stroke-width: 0.5"/>
    </g>
   </g>
   <g id="text_1">
    <g clip-path="url(#paed2537553)">
     <!-- H -->
     <g style="fill: #ffffff" transform="translate(157.83265 202.083858) scale(0.12 -0.12)">
      <defs>
       <path id="DejaVuSans-Bold-48" d="M 588 4666 
L 1791 4666 
L 1791 2888 
L 3566 2888 
L 3566 4666 
L 4769 4666 
L 4769 0 
L 3566 0 
L 3566 1978 
L 1791 1978 
L 1791 0 
L 588 0 
L 588 4666 
z
" transform="scale(0.015625)"/>
      </defs>
      <use xlink:href="#DejaVuSans-Bold-48"/>
     </g>
    </g>
   </g>
   <g id="text_2">
    <g clip-path="url(#paed2537553)">
     <!-- S -->
     <g style="fill: #ffffff" transform="translate(161.855951 158.7723) scale(0.12 -0.12)">
      <defs>
       <path id="DejaVuSans-Bold-53" d="M 3834 4519 
L 3834 3531 
Q 3450 3703 3084 3790 
Q 2719 3878 2394 3878 
Q 1963 3878 1756 3759 
Q 1550 3641 1550 3391 
Q 1550 3203 1689 3098 
Q 1828 2994 2194 2919 
L 2706 2816 
Q 3484 2659 3812 2340 
Q 4141 2022 4141 1434 
Q 4141 663 3683 286 
Q 3225 -91 2284 -91 
Q 1841 -91 1394 -6 
Q 947 78 500 244 
L 500 1259 
Q 947 1022 1364 901 
Q 1781 781 2169 781 
Q 2563 781 2772 912 
Q 2981 1044 2981 1288 
Q 2981 1506 2839 1625 
Q 2697 1744 2272 1838 
L 1806 1941 
Q 1106 2091 782 2419 
Q 459 2747 459 3303 
Q 459 4000 909 4375 
Q 1359 4750 2203 4750 
Q 2588 4750 2994 4692 
Q 3400 4634 3834 4519 
z
" transform="scale(0.015625)"/>
      </defs>
      <use xlink:href="#DejaVuSans-Bold-53"/>
     </g>
    </g>
   </g>
   <g id="text_3">
    <g clip-path="url(#paed2537553)">
     <!-- Ir -->
     <g style="fill: #ffffff" transform="translate(118.414998 120.678443) scale(0.12 -0.12)">
      <defs>
       <path id="DejaVuSans-Bold-49" d="M 588 4666 
L 1791 4666 
L 1791 0 
L 588 0 
L 588 4666 
z
" transform="scale(0.015625)"/>
       <path id="DejaVuSans-Bold-72" d="M 3138 2547 
Q 2991 2616 2845 2648 
Q 2700 2681 2553 2681 
Q 2122 2681 1889 2404 
Q 1656 2128 1656 1613 
L 1656 0 
L 538 0 
L 538 3500 
L 1656 3500 
L 1656 2925 
Q 1872 3269 2151 3426 
Q 2431 3584 2822 3584 
Q 2878 3584 2943 3579 
Q 3009 3575 3134 3559 
L 3138 2547 
z
" transform="scale(0.015625)"/>
      </defs>
      <use xlink:href="#DejaVuSans-Bold-49"/>
      <use xlink:href="#DejaVuSans-Bold-72" transform="translate(37.207031 0)"/>
     </g>
    </g>
   </g>
   <g id="text_4">
    <g clip-path="url(#paed2537553)">
     <!-- Ir -->
     <g style="fill: #ffffff" transform="translate(79.246543 136.001993) scale(0.12 -0.12)">
      <use xlink:href="#DejaVuSans-Bold-49"/>
      <use xlink:href="#DejaVuSans-Bold-72" transform="translate(37.207031 0)"/>
     </g>
    </g>
   </g>
   <g id="text_5">
    <g clip-path="url(#paed2537553)">
     <!-- Ir -->
     <g style="fill: #ffffff" transform="translate(148.735824 81.235719) scale(0.12 -0.12)">
      <use xlink:href="#DejaVuSans-Bold-49"/>
      <use xlink:href="#DejaVuSans-Bold-72" transform="translate(37.207031 0)"/>
     </g>
    </g>
   </g>
   <g id="text_6">
    <g clip-path="url(#paed2537553)">
     <!-- Ir -->
     <g style="fill: #ffffff" transform="translate(88.792551 189.576233) scale(0.12 -0.12)">
      <use xlink:href="#DejaVuSans-Bold-49"/>
      <use xlink:href="#DejaVuSans-Bold-72" transform="translate(37.207031 0)"/>
     </g>
    </g>
   </g>
   <g id="text_7">
    <g clip-path="url(#paed2537553)">
     <!-- Ir -->
     <g style="fill: #ffffff" transform="translate(174.316359 122.790034) scale(0.12 -0.12)">
      <use xlink:href="#DejaVuSans-Bold-49"/>
      <use xlink:href="#DejaVuSans-Bold-72" transform="translate(37.207031 0)"/>
     </g>
    </g>
   </g>
   <g id="text_8">
    <g clip-path="url(#paed2537553)">
     <!-- Ir -->
     <g style="fill: #ffffff" transform="translate(142.232903 175.269157) scale(0.12 -0.12)">
      <use xlink:href="#DejaVuSans-Bold-49"/>
      <use xlink:href="#DejaVuSans-Bold-72" transform="translate(37.207031 0)"/>
     </g>
    </g>
   </g>
   <g id="text_9">
    <g clip-path="url(#paed2537553)">
     <!-- Ir -->
     <g style="fill: #ffffff" transform="translate(134.440952 131.714972) scale(0.12 -0.12)">
      <use xlink:href="#DejaVuSans-Bold-49"/>
      <use xlink:href="#DejaVuSans-Bold-72" transform="translate(37.207031 0)"/>
     </g>
    </g>
   </g>
   <g id="text_10">
    <g clip-path="url(#paed2537553)">
     <!-- Ir -->
     <g style="fill: #ffffff" transform="translate(77.260955 146.206515) scale(0.12 -0.12)">
      <use xlink:href="#DejaVuSans-Bold-49"/>
      <use xlink:href="#DejaVuSans-Bold-72" transform="translate(37.207031 0)"/>
     </g>
    </g>
   </g>
   <g id="text_11">
    <g clip-path="url(#paed2537553)">
     <!-- Ir -->
     <g style="fill: #ffffff" transform="translate(156.376903 82.439767) scale(0.12 -0.12)">
      <use xlink:href="#DejaVuSans-Bold-49"/>
      <use xlink:href="#DejaVuSans-Bold-72" transform="translate(37.207031 0)"/>
     </g>
    </g>
   </g>
   <g id="text_12">
    <g clip-path="url(#paed2537553)">
     <!-- Ir -->
     <g style="fill: #ffffff" transform="translate(96.014896 194.67236) scale(0.12 -0.12)">
      <use xlink:href="#DejaVuSans-Bold-49"/>
      <use xlink:href="#DejaVuSans-Bold-72" transform="translate(37.207031 0)"/>
     </g>
    </g>
   </g>
   <g id="text_13">
    <g clip-path="url(#paed2537553)">
     <!-- Ir -->
     <g style="fill: #ffffff" transform="translate(179.613434 126.836206) scale(0.12 -0.12)">
      <use xlink:href="#DejaVuSans-Bold-49"/>
      <use xlink:href="#DejaVuSans-Bold-72" transform="translate(37.207031 0)"/>
     </g>
    </g>
   </g>
   <g id="text_14">
    <g clip-path="url(#paed2537553)">
     <!-- Ir -->
     <g style="fill: #ffffff" transform="translate(135.830026 166.489634) scale(0.12 -0.12)">
      <use xlink:href="#DejaVuSans-Bold-49"/>
      <use xlink:href="#DejaVuSans-Bold-72" transform="translate(37.207031 0)"/>
     </g>
    </g>
   </g>
   <g id="text_15">
    <g clip-path="url(#paed2537553)">
     <!-- O -->
     <g style="fill: #ffffff" transform="translate(58.998677 127.413634) scale(0.12 -0.12)">
      <defs>
       <path id="DejaVuSans-Bold-4f" d="M 2719 3878 
Q 2169 3878 1866 3472 
Q 1563 3066 1563 2328 
Q 1563 1594 1866 1187 
Q 2169 781 2719 781 
Q 3272 781 3575 1187 
Q 3878 1594 3878 2328 
Q 3878 3066 3575 3472 
Q 3272 3878 2719 3878 
z
M 2719 4750 
Q 3844 4750 4481 4106 
Q 5119 3463 5119 2328 
Q 5119 1197 4481 553 
Q 3844 -91 2719 -91 
Q 1597 -91 958 553 
Q 319 1197 319 2328 
Q 319 3463 958 4106 
Q 1597 4750 2719 4750 
z
" transform="scale(0.015625)"/>
      </defs>
      <use xlink:href="#DejaVuSans-Bold-4f"/>
     </g>
    </g>
   </g>
   <g id="text_16">
    <g clip-path="url(#paed2537553)">
     <!-- O -->
     <g style="fill: #ffffff" transform="translate(171.707615 65.060471) scale(0.12 -0.12)">
      <use xlink:href="#DejaVuSans-Bold-4f"/>
     </g>
    </g>
   </g>
   <g id="text_17">
    <g clip-path="url(#paed2537553)">
     <!-- O -->
     <g style="fill: #ffffff" transform="translate(92.056038 120.754698) scale(0.12 -0.12)">
      <use xlink:href="#DejaVuSans-Bold-4f"/>
     </g>
    </g>
   </g>
   <g id="text_18">
    <g clip-path="url(#paed2537553)">
     <!-- O -->
     <g style="fill: #ffffff" transform="translate(161.100421 58.408239) scale(0.12 -0.12)">
      <use xlink:href="#DejaVuSans-Bold-4f"/>
     </g>
    </g>
   </g>
   <g id="text_19">
    <g clip-path="url(#paed2537553)">
     <!-- O -->
     <g style="fill: #ffffff" transform="translate(63.943665 109.895423) scale(0.12 -0.12)">
      <use xlink:href="#DejaVuSans-Bold-4f"/>
     </g>
    </g>
   </g>
   <g id="text_20">
    <g clip-path="url(#paed2537553)">
     <!-- O -->
     <g style="fill: #ffffff" transform="translate(133.118081 149.610824) scale(0.12 -0.12)">
      <use xlink:href="#DejaVuSans-Bold-4f"/>
     </g>
    </g>
   </g>
   <g id="text_21">
    <g clip-path="url(#paed2537553)">
     <!-- O -->
     <g style="fill: #ffffff" transform="translate(82.053201 168.002344) scale(0.12 -0.12)">
      <use xlink:href="#DejaVuSans-Bold-4f"/>
     </g>
    </g>
   </g>
   <g id="text_22">
    <g clip-path="url(#paed2537553)">
     <!-- O -->
     <g style="fill: #ffffff" transform="translate(130.97995 102.624301) scale(0.12 -0.12)">
      <use xlink:href="#DejaVuSans-Bold-4f"/>
     </g>
    </g>
   </g>
   <g id="text_23">
    <g clip-path="url(#paed2537553)">
     <!-- O -->
     <g style="fill: #ffffff" transform="translate(117.064392 181.273246) scale(0.12 -0.12)">
      <use xlink:href="#DejaVuSans-Bold-4f"/>
     </g>
    </g>
   </g>
   <g id="text_24">
    <g clip-path="url(#paed2537553)">
     <!-- O -->
     <g style="fill: #ffffff" transform="translate(62.745961 201.947395) scale(0.12 -0.12)">
      <use xlink:href="#DejaVuSans-Bold-4f"/>
     </g>
    </g>
   </g>
   <g id="text_25">
    <g clip-path="url(#paed2537553)">
     <!-- O -->
     <g style="fill: #ffffff" transform="translate(203.095101 114.443556) scale(0.12 -0.12)">
      <use xlink:href="#DejaVuSans-Bold-4f"/>
     </g>
    </g>
   </g>
   <g id="text_26">
    <g clip-path="url(#paed2537553)">
     <!-- O -->
     <g style="fill: #ffffff" transform="translate(143.142492 194.387618) scale(0.12 -0.12)">
      <use xlink:href="#DejaVuSans-Bold-4f"/>
     </g>
    </g>
   </g>
   <g id="text_27">
    <g clip-path="url(#paed2537553)">
     <!-- O -->
     <g style="fill: #ffffff" transform="translate(77.062884 210.730621) scale(0.12 -0.12)">
      <use xlink:href="#DejaVuSans-Bold-4f"/>
     </g>
    </g>
   </g>
   <g id="text_28">
    <g clip-path="url(#paed2537553)">
     <!-- O -->
     <g style="fill: #ffffff" transform="translate(169.456185 99.557414) scale(0.12 -0.12)">
      <use xlink:href="#DejaVuSans-Bold-4f"/>
     </g>
    </g>
   </g>
   <g id="text_29">
    <g clip-path="url(#paed2537553)">
     <!-- O -->
     <g style="fill: #ffffff" transform="translate(168.734982 151.621599) scale(0.12 -0.12)">
      <use xlink:href="#DejaVuSans-Bold-4f"/>
     </g>
    </g>
   </g>
   <g id="text_30">
    <g clip-path="url(#paed2537553)">
     <!-- O -->
     <g style="fill: #ffffff" transform="translate(55.494172 138.754692) scale(0.12 -0.12)">
      <use xlink:href="#DejaVuSans-Bold-4f"/>
     </g>
    </g>
   </g>
   <g id="text_31">
    <g clip-path="url(#paed2537553)">
     <!-- O -->
     <g style="fill: #ffffff" transform="translate(148.398614 57.114886) scale(0.12 -0.12)">
      <use xlink:href="#DejaVuSans-Bold-4f"/>
     </g>
    </g>
   </g>
   <g id="text_32">
    <g clip-path="url(#paed2537553)">
     <!-- O -->
     <g style="fill: #ffffff" transform="translate(102.154869 135.543779) scale(0.12 -0.12)">
      <use xlink:href="#DejaVuSans-Bold-4f"/>
     </g>
    </g>
   </g>
   <g id="text_33">
    <g clip-path="url(#paed2537553)">
     <!-- O -->
     <g style="fill: #ffffff" transform="translate(137.229601 61.692127) scale(0.12 -0.12)">
      <use xlink:href="#DejaVuSans-Bold-4f"/>
     </g>
    </g>
   </g>
   <g id="text_34">
    <g clip-path="url(#paed2537553)">
     <!-- O -->
     <g style="fill: #ffffff" transform="translate(50.267658 153.379821) scale(0.12 -0.12)">
      <use xlink:href="#DejaVuSans-Bold-4f"/>
     </g>
    </g>
   </g>
   <g id="text_35">
    <g clip-path="url(#paed2537553)">
     <!-- O -->
     <g style="fill: #ffffff" transform="translate(123.905044 144.267507) scale(0.12 -0.12)">
      <use xlink:href="#DejaVuSans-Bold-4f"/>
     </g>
    </g>
   </g>
   <g id="text_36">
    <g clip-path="url(#paed2537553)">
     <!-- O -->
     <g style="fill: #ffffff" transform="translate(76.360509 175.514291) scale(0.12 -0.12)">
      <use xlink:href="#DejaVuSans-Bold-4f"/>
     </g>
    </g>
   </g>
   <g id="text_37">
    <g clip-path="url(#paed2537553)">
     <!-- O -->
     <g style="fill: #ffffff" transform="translate(139.371522 106.516918) scale(0.12 -0.12)">
      <use xlink:href="#DejaVuSans-Bold-4f"/>
     </g>
    </g>
   </g>
   <g id="text_38">
    <g clip-path="url(#paed2537553)">
     <!-- O -->
     <g style="fill: #ffffff" transform="translate(122.626886 189.6212) scale(0.12 -0.12)">
      <use xlink:href="#DejaVuSans-Bold-4f"/>
     </g>
    </g>
   </g>
   <g id="text_39">
    <g clip-path="url(#paed2537553)">
     <!-- O -->
     <g style="fill: #ffffff" transform="translate(96.333626 226.222845) scale(0.12 -0.12)">
      <use xlink:href="#DejaVuSans-Bold-4f"/>
     </g>
    </g>
   </g>
   <g id="text_40">
    <g clip-path="url(#paed2537553)">
     <!-- O -->
     <g style="fill: #ffffff" transform="translate(206.321287 126.191344) scale(0.12 -0.12)">
      <use xlink:href="#DejaVuSans-Bold-4f"/>
     </g>
    </g>
   </g>
   <g id="text_41">
    <g clip-path="url(#paed2537553)">
     <!-- O -->
     <g style="fill: #ffffff" transform="translate(156.115041 176.54483) scale(0.12 -0.12)">
      <use xlink:href="#DejaVuSans-Bold-4f"/>
     </g>
    </g>
   </g>
   <g id="text_42">
    <g clip-path="url(#paed2537553)">
     <!-- O -->
     <g style="fill: #ffffff" transform="translate(86.766276 216.396286) scale(0.12 -0.12)">
      <use xlink:href="#DejaVuSans-Bold-4f"/>
     </g>
    </g>
   </g>
   <g id="text_43">
    <g clip-path="url(#paed2537553)">
     <!-- O -->
     <g style="fill: #ffffff" transform="translate(179.019956 98.384777) scale(0.12 -0.12)">
      <use xlink:href="#DejaVuSans-Bold-4f"/>
     </g>
    </g>
   </g>
   <g id="text_44">
    <g clip-path="url(#paed2537553)">
     <!-- O -->
     <g style="fill: #ffffff" transform="translate(158.863965 141.530392) scale(0.12 -0.12)">
      <use xlink:href="#DejaVuSans-Bold-4f"/>
     </g>
    </g>
   </g>
   <g id="text_45">
    <g clip-path="url(#paed2537553)">
     <!-- C -->
     <g style="fill: #ffffff" transform="translate(185.757406 183.716689) scale(0.12 -0.12)">
      <defs>
       <path id="DejaVuSans-Bold-43" d="M 4288 256 
Q 3956 84 3597 -3 
Q 3238 -91 2847 -91 
Q 1681 -91 1000 561 
Q 319 1213 319 2328 
Q 319 3447 1000 4098 
Q 1681 4750 2847 4750 
Q 3238 4750 3597 4662 
Q 3956 4575 4288 4403 
L 4288 3438 
Q 3953 3666 3628 3772 
Q 3303 3878 2944 3878 
Q 2300 3878 1931 3465 
Q 1563 3053 1563 2328 
Q 1563 1606 1931 1193 
Q 2300 781 2944 781 
Q 3303 781 3628 887 
Q 3953 994 4288 1222 
L 4288 256 
z
" transform="scale(0.015625)"/>
      </defs>
      <use xlink:href="#DejaVuSans-Bold-43"/>
     </g>
    </g>
   </g>
   <g id="text_46">
    <g clip-path="url(#paed2537553)">
     <!-- C -->
     <g style="fill: #ffffff" transform="translate(212.253527 190.098269) scale(0.12 -0.12)">
      <use xlink:href="#DejaVuSans-Bold-43"/>
     </g>
    </g>
   </g>
   <g id="text_47">
    <g clip-path="url(#paed2537553)">
     <!-- C -->
     <g style="fill: #ffffff" transform="translate(177.254589 211.701403) scale(0.12 -0.12)">
      <use xlink:href="#DejaVuSans-Bold-43"/>
     </g>
    </g>
   </g>
   <g id="text_48">
    <g clip-path="url(#paed2537553)">
     <!-- H -->
     <g style="fill: #ffffff" transform="translate(223.023787 216.239775) scale(0.12 -0.12)">
      <use xlink:href="#DejaVuSans-Bold-48"/>
     </g>
    </g>
   </g>
   <g id="text_49">
    <g clip-path="url(#paed2537553)">
     <!-- H -->
     <g style="fill: #ffffff" transform="translate(234.092038 198.550852) scale(0.12 -0.12)">
      <use xlink:href="#DejaVuSans-Bold-48"/>
     </g>
    </g>
   </g>
   <g id="text_50">
    <g clip-path="url(#paed2537553)">
     <!-- H -->
     <g style="fill: #ffffff" transform="translate(234.810155 177.606117) scale(0.12 -0.12)">
      <use xlink:href="#DejaVuSans-Bold-48"/>
     </g>
    </g>
   </g>
   <g id="text_51">
    <g clip-path="url(#paed2537553)">
     <!-- H -->
     <g style="fill: #ffffff" transform="translate(172.218288 240.387614) scale(0.12 -0.12)">
      <use xlink:href="#DejaVuSans-Bold-48"/>
     </g>
    </g>
   </g>
   <g id="text_52">
    <g clip-path="url(#paed2537553)">
     <!-- H -->
     <g style="fill: #ffffff" transform="translate(188.876734 233.614574) scale(0.12 -0.12)">
      <use xlink:href="#DejaVuSans-Bold-48"/>
     </g>
    </g>
   </g>
   <g id="text_53">
    <!-- C3H6Ir40O80S -->
    <g transform="translate(145.545264 40.615399) scale(0.1 -0.1)">
     <defs>
      <path id="DejaVuSans-43" d="M 4122 4306 
L 4122 3641 
Q 3803 3938 3442 4084 
Q 3081 4231 2675 4231 
Q 1875 4231 1450 3742 
Q 1025 3253 1025 2328 
Q 1025 1406 1450 917 
Q 1875 428 2675 428 
Q 3081 428 3442 575 
Q 3803 722 4122 1019 
L 4122 359 
Q 3791 134 3420 21 
Q 3050 -91 2638 -91 
Q 1578 -91 968 557 
Q 359 1206 359 2328 
Q 359 3453 968 4101 
Q 1578 4750 2638 4750 
Q 3056 4750 3426 4639 
Q 3797 4528 4122 4306 
z
" transform="scale(0.015625)"/>
      <path id="DejaVuSans-33" d="M 2597 2516 
Q 3050 2419 3304 2112 
Q 3559 1806 3559 1356 
Q 3559 666 3084 287 
Q 2609 -91 1734 -91 
Q 1441 -91 1130 -33 
Q 819 25 488 141 
L 488 750 
Q 750 597 1062 519 
Q 1375 441 1716 441 
Q 2309 441 2620 675 
Q 2931 909 2931 1356 
Q 2931 1769 2642 2001 
Q 2353 2234 1838 2234 
L 1294 2234 
L 1294 2753 
L 1863 2753 
Q 2328 2753 2575 2939 
Q 2822 3125 2822 3475 
Q 2822 3834 2567 4026 
Q 2313 4219 1838 4219 
Q 1578 4219 1281 4162 
Q 984 4106 628 3988 
L 628 4550 
Q 988 4650 1302 4700 
Q 1616 4750 1894 4750 
Q 2613 4750 3031 4423 
Q 3450 4097 3450 3541 
Q 3450 3153 3228 2886 
Q 3006 2619 2597 2516 
z
" transform="scale(0.015625)"/>
      <path id="DejaVuSans-48" d="M 628 4666 
L 1259 4666 
L 1259 2753 
L 3553 2753 
L 3553 4666 
L 4184 4666 
L 4184 0 
L 3553 0 
L 3553 2222 
L 1259 2222 
L 1259 0 
L 628 0 
L 628 4666 
z
" transform="scale(0.015625)"/>
      <path id="DejaVuSans-36" d="M 2113 2584 
Q 1688 2584 1439 2293 
Q 1191 2003 1191 1497 
Q 1191 994 1439 701 
Q 1688 409 2113 409 
Q 2538 409 2786 701 
Q 3034 994 3034 1497 
Q 3034 2003 2786 2293 
Q 2538 2584 2113 2584 
z
M 3366 4563 
L 3366 3988 
Q 3128 4100 2886 4159 
Q 2644 4219 2406 4219 
Q 1781 4219 1451 3797 
Q 1122 3375 1075 2522 
Q 1259 2794 1537 2939 
Q 1816 3084 2150 3084 
Q 2853 3084 3261 2657 
Q 3669 2231 3669 1497 
Q 3669 778 3244 343 
Q 2819 -91 2113 -91 
Q 1303 -91 875 529 
Q 447 1150 447 2328 
Q 447 3434 972 4092 
Q 1497 4750 2381 4750 
Q 2619 4750 2861 4703 
Q 3103 4656 3366 4563 
z
" transform="scale(0.015625)"/>
      <path id="DejaVuSans-49" d="M 628 4666 
L 1259 4666 
L 1259 0 
L 628 0 
L 628 4666 
z
" transform="scale(0.015625)"/>
      <path id="DejaVuSans-72" d="M 2631 2963 
Q 2534 3019 2420 3045 
Q 2306 3072 2169 3072 
Q 1681 3072 1420 2755 
Q 1159 2438 1159 1844 
L 1159 0 
L 581 0 
L 581 3500 
L 1159 3500 
L 1159 2956 
Q 1341 3275 1631 3429 
Q 1922 3584 2338 3584 
Q 2397 3584 2469 3576 
Q 2541 3569 2628 3553 
L 2631 2963 
z
" transform="scale(0.015625)"/>
      <path id="DejaVuSans-34" d="M 2419 4116 
L 825 1625 
L 2419 1625 
L 2419 4116 
z
M 2253 4666 
L 3047 4666 
L 3047 1625 
L 3713 1625 
L 3713 1100 
L 3047 1100 
L 3047 0 
L 2419 0 
L 2419 1100 
L 313 1100 
L 313 1709 
L 2253 4666 
z
" transform="scale(0.015625)"/>
      <path id="DejaVuSans-30" d="M 2034 4250 
Q 1547 4250 1301 3770 
Q 1056 3291 1056 2328 
Q 1056 1369 1301 889 
Q 1547 409 2034 409 
Q 2525 409 2770 889 
Q 3016 1369 3016 2328 
Q 3016 3291 2770 3770 
Q 2525 4250 2034 4250 
z
M 2034 4750 
Q 2819 4750 3233 4129 
Q 3647 3509 3647 2328 
Q 3647 1150 3233 529 
Q 2819 -91 2034 -91 
Q 1250 -91 836 529 
Q 422 1150 422 2328 
Q 422 3509 836 4129 
Q 1250 4750 2034 4750 
z
" transform="scale(0.015625)"/>
      <path id="DejaVuSans-4f" d="M 2522 4238 
Q 1834 4238 1429 3725 
Q 1025 3213 1025 2328 
Q 1025 1447 1429 934 
Q 1834 422 2522 422 
Q 3209 422 3611 934 
Q 4013 1447 4013 2328 
Q 4013 3213 3611 3725 
Q 3209 4238 2522 4238 
z
M 2522 4750 
Q 3503 4750 4090 4092 
Q 4678 3434 4678 2328 
Q 4678 1225 4090 567 
Q 3503 -91 2522 -91 
Q 1538 -91 948 565 
Q 359 1222 359 2328 
Q 359 3434 948 4092 
Q 1538 4750 2522 4750 
z
" transform="scale(0.015625)"/>
      <path id="DejaVuSans-38" d="M 2034 2216 
Q 1584 2216 1326 1975 
Q 1069 1734 1069 1313 
Q 1069 891 1326 650 
Q 1584 409 2034 409 
Q 2484 409 2743 651 
Q 3003 894 3003 1313 
Q 3003 1734 2745 1975 
Q 2488 2216 2034 2216 
z
M 1403 2484 
Q 997 2584 770 2862 
Q 544 3141 544 3541 
Q 544 4100 942 4425 
Q 1341 4750 2034 4750 
Q 2731 4750 3128 4425 
Q 3525 4100 3525 3541 
Q 3525 3141 3298 2862 
Q 3072 2584 2669 2484 
Q 3125 2378 3379 2068 
Q 3634 1759 3634 1313 
Q 3634 634 3220 271 
Q 2806 -91 2034 -91 
Q 1263 -91 848 271 
Q 434 634 434 1313 
Q 434 1759 690 2068 
Q 947 2378 1403 2484 
z
M 1172 3481 
Q 1172 3119 1398 2916 
Q 1625 2713 2034 2713 
Q 2441 2713 2670 2916 
Q 2900 3119 2900 3481 
Q 2900 3844 2670 4047 
Q 2441 4250 2034 4250 
Q 1625 4250 1398 4047 
Q 1172 3844 1172 3481 
z
" transform="scale(0.015625)"/>
      <path id="DejaVuSans-53" d="M 3425 4513 
L 3425 3897 
Q 3066 4069 2747 4153 
Q 2428 4238 2131 4238 
Q 1616 4238 1336 4038 
Q 1056 3838 1056 3469 
Q 1056 3159 1242 3001 
Q 1428 2844 1947 2747 
L 2328 2669 
Q 3034 2534 3370 2195 
Q 3706 1856 3706 1288 
Q 3706 609 3251 259 
Q 2797 -91 1919 -91 
Q 1588 -91 1214 -16 
Q 841 59 441 206 
L 441 856 
Q 825 641 1194 531 
Q 1563 422 1919 422 
Q 2459 422 2753 634 
Q 3047 847 3047 1241 
Q 3047 1584 2836 1778 
Q 2625 1972 2144 2069 
L 1759 2144 
Q 1053 2284 737 2584 
Q 422 2884 422 3419 
Q 422 4038 858 4394 
Q 1294 4750 2059 4750 
Q 2388 4750 2728 4690 
Q 3069 4631 3425 4513 
z
" transform="scale(0.015625)"/>
     </defs>
     <use xlink:href="#DejaVuSans-43"/>
     <use xlink:href="#DejaVuSans-33" transform="translate(69.824219 0)"/>
     <use xlink:href="#DejaVuSans-48" transform="translate(133.447266 0)"/>
     <use xlink:href="#DejaVuSans-36" transform="translate(208.642578 0)"/>
     <use xlink:href="#DejaVuSans-49" transform="translate(272.265625 0)"/>
     <use xlink:href="#DejaVuSans-72" transform="translate(301.757812 0)"/>
     <use xlink:href="#DejaVuSans-34" transform="translate(342.871094 0)"/>
     <use xlink:href="#DejaVuSans-30" transform="translate(406.494141 0)"/>
     <use xlink:href="#DejaVuSans-4f" transform="translate(470.117188 0)"/>
     <use xlink:href="#DejaVuSans-38" transform="translate(548.828125 0)"/>
     <use xlink:href="#DejaVuSans-30" transform="translate(612.451172 0)"/>
     <use xlink:href="#DejaVuSans-53" transform="translate(676.074219 0)"/>
    </g>
    <!-- Error: -1.68 eV -->
    <g transform="translate(145.545264 51.813211) scale(0.1 -0.1)">
     <defs>
      <path id="DejaVuSans-45" d="M 628 4666 
L 3578 4666 
L 3578 4134 
L 1259 4134 
L 1259 2753 
L 3481 2753 
L 3481 2222 
L 1259 2222 
L 1259 531 
L 3634 531 
L 3634 0 
L 628 0 
L 628 4666 
z
" transform="scale(0.015625)"/>
      <path id="DejaVuSans-6f" d="M 1959 3097 
Q 1497 3097 1228 2736 
Q 959 2375 959 1747 
Q 959 1119 1226 758 
Q 1494 397 1959 397 
Q 2419 397 2687 759 
Q 2956 1122 2956 1747 
Q 2956 2369 2687 2733 
Q 2419 3097 1959 3097 
z
M 1959 3584 
Q 2709 3584 3137 3096 
Q 3566 2609 3566 1747 
Q 3566 888 3137 398 
Q 2709 -91 1959 -91 
Q 1206 -91 779 398 
Q 353 888 353 1747 
Q 353 2609 779 3096 
Q 1206 3584 1959 3584 
z
" transform="scale(0.015625)"/>
      <path id="DejaVuSans-3a" d="M 750 794 
L 1409 794 
L 1409 0 
L 750 0 
L 750 794 
z
M 750 3309 
L 1409 3309 
L 1409 2516 
L 750 2516 
L 750 3309 
z
" transform="scale(0.015625)"/>
      <path id="DejaVuSans-20" transform="scale(0.015625)"/>
      <path id="DejaVuSans-2d" d="M 313 2009 
L 1997 2009 
L 1997 1497 
L 313 1497 
L 313 2009 
z
" transform="scale(0.015625)"/>
      <path id="DejaVuSans-31" d="M 794 531 
L 1825 531 
L 1825 4091 
L 703 3866 
L 703 4441 
L 1819 4666 
L 2450 4666 
L 2450 531 
L 3481 531 
L 3481 0 
L 794 0 
L 794 531 
z
" transform="scale(0.015625)"/>
      <path id="DejaVuSans-2e" d="M 684 794 
L 1344 794 
L 1344 0 
L 684 0 
L 684 794 
z
" transform="scale(0.015625)"/>
      <path id="DejaVuSans-65" d="M 3597 1894 
L 3597 1613 
L 953 1613 
Q 991 1019 1311 708 
Q 1631 397 2203 397 
Q 2534 397 2845 478 
Q 3156 559 3463 722 
L 3463 178 
Q 3153 47 2828 -22 
Q 2503 -91 2169 -91 
Q 1331 -91 842 396 
Q 353 884 353 1716 
Q 353 2575 817 3079 
Q 1281 3584 2069 3584 
Q 2775 3584 3186 3129 
Q 3597 2675 3597 1894 
z
M 3022 2063 
Q 3016 2534 2758 2815 
Q 2500 3097 2075 3097 
Q 1594 3097 1305 2825 
Q 1016 2553 972 2059 
L 3022 2063 
z
" transform="scale(0.015625)"/>
      <path id="DejaVuSans-56" d="M 1831 0 
L 50 4666 
L 709 4666 
L 2188 738 
L 3669 4666 
L 4325 4666 
L 2547 0 
L 1831 0 
z
" transform="scale(0.015625)"/>
     </defs>
     <use xlink:href="#DejaVuSans-45"/>
     <use xlink:href="#DejaVuSans-72" transform="translate(63.183594 0)"/>
     <use xlink:href="#DejaVuSans-72" transform="translate(102.546875 0)"/>
     <use xlink:href="#DejaVuSans-6f" transform="translate(141.410156 0)"/>
     <use xlink:href="#DejaVuSans-72" transform="translate(202.591797 0)"/>
     <use xlink:href="#DejaVuSans-3a" transform="translate(241.955078 0)"/>
     <use xlink:href="#DejaVuSans-20" transform="translate(275.646484 0)"/>
     <use xlink:href="#DejaVuSans-2d" transform="translate(307.433594 0)"/>
     <use xlink:href="#DejaVuSans-31" transform="translate(343.517578 0)"/>
     <use xlink:href="#DejaVuSans-2e" transform="translate(407.140625 0)"/>
     <use xlink:href="#DejaVuSans-36" transform="translate(438.927734 0)"/>
     <use xlink:href="#DejaVuSans-38" transform="translate(502.550781 0)"/>
     <use xlink:href="#DejaVuSans-20" transform="translate(566.173828 0)"/>
     <use xlink:href="#DejaVuSans-65" transform="translate(597.960938 0)"/>
     <use xlink:href="#DejaVuSans-56" transform="translate(659.484375 0)"/>
    </g>
   </g>
  </g>
 </g>
 <defs>
  <clipPath id="paed2537553">
   <rect x="36" y="34.56" width="223.2" height="221.76"/>
  </clipPath>
 </defs>
</svg>
