<?xml version="1.0" encoding="utf-8" standalone="no"?>
<!DOCTYPE svg PUBLIC "-//W3C//DTD SVG 1.1//EN"
  "http://www.w3.org/Graphics/SVG/1.1/DTD/svg11.dtd">
<svg xmlns:xlink="http://www.w3.org/1999/xlink" width="288pt" height="288pt" viewBox="0 0 288 288" xmlns="http://www.w3.org/2000/svg" version="1.1">
 <metadata>
  <rdf:RDF xmlns:dc="http://purl.org/dc/elements/1.1/" xmlns:cc="http://creativecommons.org/ns#" xmlns:rdf="http://www.w3.org/1999/02/22-rdf-syntax-ns#">
   <cc:Work>
    <dc:type rdf:resource="http://purl.org/dc/dcmitype/StillImage"/>
    <dc:date>2025-06-30T12:03:25.242701</dc:date>
    <dc:format>image/svg+xml</dc:format>
    <dc:creator>
     <cc:Agent>
      <dc:title>Matplotlib v3.10.1, https://matplotlib.org/</dc:title>
     </cc:Agent>
    </dc:creator>
   </cc:Work>
  </rdf:RDF>
 </metadata>
 <defs>
  <style type="text/css">*{stroke-linejoin: round; stroke-linecap: butt}</style>
 </defs>
 <g id="figure_1">
  <g id="patch_1">
   <path d="M 0 288 
L 288 288 
L 288 0 
L 0 0 
z
" style="fill: #ffffff"/>
  </g>
  <g id="axes_1">
   <g id="LineCollection_1">
    <path d="M 99.725165 53.803636 
L 66.216261 84.143444 
" clip-path="url(#p980c43c73c)" style="fill: none; stroke: #000000; stroke-width: 1.2"/>
    <path d="M 99.725165 53.803636 
L 128.352723 87.473636 
" clip-path="url(#p980c43c73c)" style="fill: none; stroke: #000000; stroke-width: 1.2"/>
    <path d="M 99.725165 53.803636 
L 105.578773 111.294128 
" clip-path="url(#p980c43c73c)" style="fill: none; stroke: #000000; stroke-width: 1.2"/>
    <path d="M 99.725165 53.803636 
L 76.66777 86.443841 
" clip-path="url(#p980c43c73c)" style="fill: none; stroke: #000000; stroke-width: 1.2"/>
    <path d="M 99.725165 53.803636 
L 137.333254 94.027698 
" clip-path="url(#p980c43c73c)" style="fill: none; stroke: #000000; stroke-width: 1.2"/>
    <path d="M 99.725165 53.803636 
L 55.368595 112.441853 
" clip-path="url(#p980c43c73c)" style="fill: none; stroke: #000000; stroke-width: 1.2"/>
    <path d="M 99.725165 53.803636 
L 106.276928 79.088577 
" clip-path="url(#p980c43c73c)" style="fill: none; stroke: #000000; stroke-width: 1.2"/>
    <path d="M 99.725165 53.803636 
L 123.938803 54.375784 
" clip-path="url(#p980c43c73c)" style="fill: none; stroke: #000000; stroke-width: 1.2"/>
    <path d="M 99.725165 53.803636 
L 159.784406 80.185225 
" clip-path="url(#p980c43c73c)" style="fill: none; stroke: #000000; stroke-width: 1.2"/>
    <path d="M 99.725165 53.803636 
L 134.934624 57.825329 
" clip-path="url(#p980c43c73c)" style="fill: none; stroke: #000000; stroke-width: 1.2"/>
    <path d="M 66.216261 84.143444 
L 128.352723 87.473636 
" clip-path="url(#p980c43c73c)" style="fill: none; stroke: #000000; stroke-width: 1.2"/>
    <path d="M 66.216261 84.143444 
L 105.578773 111.294128 
" clip-path="url(#p980c43c73c)" style="fill: none; stroke: #000000; stroke-width: 1.2"/>
    <path d="M 66.216261 84.143444 
L 95.518711 65.507763 
" clip-path="url(#p980c43c73c)" style="fill: none; stroke: #000000; stroke-width: 1.2"/>
    <path d="M 66.216261 84.143444 
L 103.315672 125.108176 
" clip-path="url(#p980c43c73c)" style="fill: none; stroke: #000000; stroke-width: 1.2"/>
    <path d="M 66.216261 84.143444 
L 55.368595 112.441853 
" clip-path="url(#p980c43c73c)" style="fill: none; stroke: #000000; stroke-width: 1.2"/>
    <path d="M 66.216261 84.143444 
L 73.308111 113.693389 
" clip-path="url(#p980c43c73c)" style="fill: none; stroke: #000000; stroke-width: 1.2"/>
    <path d="M 66.216261 84.143444 
L 82.214542 150.354188 
" clip-path="url(#p980c43c73c)" style="fill: none; stroke: #000000; stroke-width: 1.2"/>
    <path d="M 66.216261 84.143444 
L 56.633847 130.138028 
" clip-path="url(#p980c43c73c)" style="fill: none; stroke: #000000; stroke-width: 1.2"/>
    <path d="M 66.216261 84.143444 
L 123.938803 54.375784 
" clip-path="url(#p980c43c73c)" style="fill: none; stroke: #000000; stroke-width: 1.2"/>
    <path d="M 167.236952 111.424879 
L 128.352723 87.473636 
" clip-path="url(#p980c43c73c)" style="fill: none; stroke: #000000; stroke-width: 1.2"/>
    <path d="M 167.236952 111.424879 
L 133.063716 147.241232 
" clip-path="url(#p980c43c73c)" style="fill: none; stroke: #000000; stroke-width: 1.2"/>
    <path d="M 167.236952 111.424879 
L 105.578773 111.294128 
" clip-path="url(#p980c43c73c)" style="fill: none; stroke: #000000; stroke-width: 1.2"/>
    <path d="M 167.236952 111.424879 
L 137.333254 94.027698 
" clip-path="url(#p980c43c73c)" style="fill: none; stroke: #000000; stroke-width: 1.2"/>
    <path d="M 167.236952 111.424879 
L 144.668315 152.520457 
" clip-path="url(#p980c43c73c)" style="fill: none; stroke: #000000; stroke-width: 1.2"/>
    <path d="M 167.236952 111.424879 
L 114.414863 175.616086 
" clip-path="url(#p980c43c73c)" style="fill: none; stroke: #000000; stroke-width: 1.2"/>
    <path d="M 167.236952 111.424879 
L 175.364871 145.850104 
" clip-path="url(#p980c43c73c)" style="fill: none; stroke: #000000; stroke-width: 1.2"/>
    <path d="M 167.236952 111.424879 
L 186.065681 110.783726 
" clip-path="url(#p980c43c73c)" style="fill: none; stroke: #000000; stroke-width: 1.2"/>
    <path d="M 167.236952 111.424879 
L 159.784406 80.185225 
" clip-path="url(#p980c43c73c)" style="fill: none; stroke: #000000; stroke-width: 1.2"/>
    <path d="M 167.236952 111.424879 
L 193.264211 124.746427 
" clip-path="url(#p980c43c73c)" style="fill: none; stroke: #000000; stroke-width: 1.2"/>
    <path d="M 128.352723 87.473636 
L 133.063716 147.241232 
" clip-path="url(#p980c43c73c)" style="fill: none; stroke: #000000; stroke-width: 1.2"/>
    <path d="M 128.352723 87.473636 
L 105.578773 111.294128 
" clip-path="url(#p980c43c73c)" style="fill: none; stroke: #000000; stroke-width: 1.2"/>
    <path d="M 128.352723 87.473636 
L 95.518711 65.507763 
" clip-path="url(#p980c43c73c)" style="fill: none; stroke: #000000; stroke-width: 1.2"/>
    <path d="M 128.352723 87.473636 
L 164.950613 131.63727 
" clip-path="url(#p980c43c73c)" style="fill: none; stroke: #000000; stroke-width: 1.2"/>
    <path d="M 128.352723 87.473636 
L 103.315672 125.108176 
" clip-path="url(#p980c43c73c)" style="fill: none; stroke: #000000; stroke-width: 1.2"/>
    <path d="M 128.352723 87.473636 
L 82.214542 150.354188 
" clip-path="url(#p980c43c73c)" style="fill: none; stroke: #000000; stroke-width: 1.2"/>
    <path d="M 128.352723 87.473636 
L 123.938803 54.375784 
" clip-path="url(#p980c43c73c)" style="fill: none; stroke: #000000; stroke-width: 1.2"/>
    <path d="M 128.352723 87.473636 
L 135.023692 117.683574 
" clip-path="url(#p980c43c73c)" style="fill: none; stroke: #000000; stroke-width: 1.2"/>
    <path d="M 128.352723 87.473636 
L 186.065681 110.783726 
" clip-path="url(#p980c43c73c)" style="fill: none; stroke: #000000; stroke-width: 1.2"/>
    <path d="M 128.352723 87.473636 
L 159.784406 80.185225 
" clip-path="url(#p980c43c73c)" style="fill: none; stroke: #000000; stroke-width: 1.2"/>
    <path d="M 128.352723 87.473636 
L 158.529625 92.783644 
" clip-path="url(#p980c43c73c)" style="fill: none; stroke: #000000; stroke-width: 1.2"/>
    <path d="M 133.063716 147.241232 
L 105.578773 111.294128 
" clip-path="url(#p980c43c73c)" style="fill: none; stroke: #000000; stroke-width: 1.2"/>
    <path d="M 133.063716 147.241232 
L 164.950613 131.63727 
" clip-path="url(#p980c43c73c)" style="fill: none; stroke: #000000; stroke-width: 1.2"/>
    <path d="M 133.063716 147.241232 
L 103.315672 125.108176 
" clip-path="url(#p980c43c73c)" style="fill: none; stroke: #000000; stroke-width: 1.2"/>
    <path d="M 133.063716 147.241232 
L 114.414863 175.616086 
" clip-path="url(#p980c43c73c)" style="fill: none; stroke: #000000; stroke-width: 1.2"/>
    <path d="M 133.063716 147.241232 
L 82.214542 150.354188 
" clip-path="url(#p980c43c73c)" style="fill: none; stroke: #000000; stroke-width: 1.2"/>
    <path d="M 133.063716 147.241232 
L 141.674133 176.2441 
" clip-path="url(#p980c43c73c)" style="fill: none; stroke: #000000; stroke-width: 1.2"/>
    <path d="M 133.063716 147.241232 
L 120.077534 187.944128 
" clip-path="url(#p980c43c73c)" style="fill: none; stroke: #000000; stroke-width: 1.2"/>
    <path d="M 133.063716 147.241232 
L 186.065681 110.783726 
" clip-path="url(#p980c43c73c)" style="fill: none; stroke: #000000; stroke-width: 1.2"/>
    <path d="M 105.578773 111.294128 
L 76.66777 86.443841 
" clip-path="url(#p980c43c73c)" style="fill: none; stroke: #000000; stroke-width: 1.2"/>
    <path d="M 105.578773 111.294128 
L 137.333254 94.027698 
" clip-path="url(#p980c43c73c)" style="fill: none; stroke: #000000; stroke-width: 1.2"/>
    <path d="M 105.578773 111.294128 
L 144.668315 152.520457 
" clip-path="url(#p980c43c73c)" style="fill: none; stroke: #000000; stroke-width: 1.2"/>
    <path d="M 105.578773 111.294128 
L 55.368595 112.441853 
" clip-path="url(#p980c43c73c)" style="fill: none; stroke: #000000; stroke-width: 1.2"/>
    <path d="M 105.578773 111.294128 
L 114.414863 175.616086 
" clip-path="url(#p980c43c73c)" style="fill: none; stroke: #000000; stroke-width: 1.2"/>
    <path d="M 105.578773 111.294128 
L 82.214542 150.354188 
" clip-path="url(#p980c43c73c)" style="fill: none; stroke: #000000; stroke-width: 1.2"/>
    <path d="M 105.578773 111.294128 
L 114.221116 139.074509 
" clip-path="url(#p980c43c73c)" style="fill: none; stroke: #000000; stroke-width: 1.2"/>
    <path d="M 105.578773 111.294128 
L 91.615348 154.248937 
" clip-path="url(#p980c43c73c)" style="fill: none; stroke: #000000; stroke-width: 1.2"/>
    <path d="M 105.578773 111.294128 
L 159.784406 80.185225 
" clip-path="url(#p980c43c73c)" style="fill: none; stroke: #000000; stroke-width: 1.2"/>
    <path d="M 95.518711 65.507763 
L 76.66777 86.443841 
" clip-path="url(#p980c43c73c)" style="fill: none; stroke: #000000; stroke-width: 1.2"/>
    <path d="M 95.518711 65.507763 
L 137.333254 94.027698 
" clip-path="url(#p980c43c73c)" style="fill: none; stroke: #000000; stroke-width: 1.2"/>
    <path d="M 95.518711 65.507763 
L 103.315672 125.108176 
" clip-path="url(#p980c43c73c)" style="fill: none; stroke: #000000; stroke-width: 1.2"/>
    <path d="M 95.518711 65.507763 
L 56.633847 130.138028 
" clip-path="url(#p980c43c73c)" style="fill: none; stroke: #000000; stroke-width: 1.2"/>
    <path d="M 95.518711 65.507763 
L 123.938803 54.375784 
" clip-path="url(#p980c43c73c)" style="fill: none; stroke: #000000; stroke-width: 1.2"/>
    <path d="M 95.518711 65.507763 
L 104.872146 91.841454 
" clip-path="url(#p980c43c73c)" style="fill: none; stroke: #000000; stroke-width: 1.2"/>
    <path d="M 95.518711 65.507763 
L 134.934624 57.825329 
" clip-path="url(#p980c43c73c)" style="fill: none; stroke: #000000; stroke-width: 1.2"/>
    <path d="M 95.518711 65.507763 
L 158.529625 92.783644 
" clip-path="url(#p980c43c73c)" style="fill: none; stroke: #000000; stroke-width: 1.2"/>
    <path d="M 76.66777 86.443841 
L 137.333254 94.027698 
" clip-path="url(#p980c43c73c)" style="fill: none; stroke: #000000; stroke-width: 1.2"/>
    <path d="M 76.66777 86.443841 
L 103.315672 125.108176 
" clip-path="url(#p980c43c73c)" style="fill: none; stroke: #000000; stroke-width: 1.2"/>
    <path d="M 76.66777 86.443841 
L 55.368595 112.441853 
" clip-path="url(#p980c43c73c)" style="fill: none; stroke: #000000; stroke-width: 1.2"/>
    <path d="M 76.66777 86.443841 
L 56.633847 130.138028 
" clip-path="url(#p980c43c73c)" style="fill: none; stroke: #000000; stroke-width: 1.2"/>
    <path d="M 76.66777 86.443841 
L 84.06353 114.506318 
" clip-path="url(#p980c43c73c)" style="fill: none; stroke: #000000; stroke-width: 1.2"/>
    <path d="M 76.66777 86.443841 
L 91.615348 154.248937 
" clip-path="url(#p980c43c73c)" style="fill: none; stroke: #000000; stroke-width: 1.2"/>
    <path d="M 76.66777 86.443841 
L 134.934624 57.825329 
" clip-path="url(#p980c43c73c)" style="fill: none; stroke: #000000; stroke-width: 1.2"/>
    <path d="M 164.950613 131.63727 
L 137.333254 94.027698 
" clip-path="url(#p980c43c73c)" style="fill: none; stroke: #000000; stroke-width: 1.2"/>
    <path d="M 164.950613 131.63727 
L 144.668315 152.520457 
" clip-path="url(#p980c43c73c)" style="fill: none; stroke: #000000; stroke-width: 1.2"/>
    <path d="M 164.950613 131.63727 
L 103.315672 125.108176 
" clip-path="url(#p980c43c73c)" style="fill: none; stroke: #000000; stroke-width: 1.2"/>
    <path d="M 164.950613 131.63727 
L 120.077534 187.944128 
" clip-path="url(#p980c43c73c)" style="fill: none; stroke: #000000; stroke-width: 1.2"/>
    <path d="M 164.950613 131.63727 
L 186.065681 110.783726 
" clip-path="url(#p980c43c73c)" style="fill: none; stroke: #000000; stroke-width: 1.2"/>
    <path d="M 164.950613 131.63727 
L 172.243325 159.460274 
" clip-path="url(#p980c43c73c)" style="fill: none; stroke: #000000; stroke-width: 1.2"/>
    <path d="M 164.950613 131.63727 
L 193.264211 124.746427 
" clip-path="url(#p980c43c73c)" style="fill: none; stroke: #000000; stroke-width: 1.2"/>
    <path d="M 164.950613 131.63727 
L 158.529625 92.783644 
" clip-path="url(#p980c43c73c)" style="fill: none; stroke: #000000; stroke-width: 1.2"/>
    <path d="M 137.333254 94.027698 
L 144.668315 152.520457 
" clip-path="url(#p980c43c73c)" style="fill: none; stroke: #000000; stroke-width: 1.2"/>
    <path d="M 137.333254 94.027698 
L 103.315672 125.108176 
" clip-path="url(#p980c43c73c)" style="fill: none; stroke: #000000; stroke-width: 1.2"/>
    <path d="M 137.333254 94.027698 
L 91.615348 154.248937 
" clip-path="url(#p980c43c73c)" style="fill: none; stroke: #000000; stroke-width: 1.2"/>
    <path d="M 137.333254 94.027698 
L 159.784406 80.185225 
" clip-path="url(#p980c43c73c)" style="fill: none; stroke: #000000; stroke-width: 1.2"/>
    <path d="M 137.333254 94.027698 
L 134.934624 57.825329 
" clip-path="url(#p980c43c73c)" style="fill: none; stroke: #000000; stroke-width: 1.2"/>
    <path d="M 137.333254 94.027698 
L 145.362786 121.107387 
" clip-path="url(#p980c43c73c)" style="fill: none; stroke: #000000; stroke-width: 1.2"/>
    <path d="M 137.333254 94.027698 
L 193.264211 124.746427 
" clip-path="url(#p980c43c73c)" style="fill: none; stroke: #000000; stroke-width: 1.2"/>
    <path d="M 137.333254 94.027698 
L 158.529625 92.783644 
" clip-path="url(#p980c43c73c)" style="fill: none; stroke: #000000; stroke-width: 1.2"/>
    <path d="M 144.668315 152.520457 
L 103.315672 125.108176 
" clip-path="url(#p980c43c73c)" style="fill: none; stroke: #000000; stroke-width: 1.2"/>
    <path d="M 144.668315 152.520457 
L 114.414863 175.616086 
" clip-path="url(#p980c43c73c)" style="fill: none; stroke: #000000; stroke-width: 1.2"/>
    <path d="M 144.668315 152.520457 
L 120.077534 187.944128 
" clip-path="url(#p980c43c73c)" style="fill: none; stroke: #000000; stroke-width: 1.2"/>
    <path d="M 144.668315 152.520457 
L 91.615348 154.248937 
" clip-path="url(#p980c43c73c)" style="fill: none; stroke: #000000; stroke-width: 1.2"/>
    <path d="M 144.668315 152.520457 
L 154.157721 177.331589 
" clip-path="url(#p980c43c73c)" style="fill: none; stroke: #000000; stroke-width: 1.2"/>
    <path d="M 144.668315 152.520457 
L 193.264211 124.746427 
" clip-path="url(#p980c43c73c)" style="fill: none; stroke: #000000; stroke-width: 1.2"/>
    <path d="M 103.315672 125.108176 
L 82.214542 150.354188 
" clip-path="url(#p980c43c73c)" style="fill: none; stroke: #000000; stroke-width: 1.2"/>
    <path d="M 103.315672 125.108176 
L 56.633847 130.138028 
" clip-path="url(#p980c43c73c)" style="fill: none; stroke: #000000; stroke-width: 1.2"/>
    <path d="M 103.315672 125.108176 
L 120.077534 187.944128 
" clip-path="url(#p980c43c73c)" style="fill: none; stroke: #000000; stroke-width: 1.2"/>
    <path d="M 103.315672 125.108176 
L 91.615348 154.248937 
" clip-path="url(#p980c43c73c)" style="fill: none; stroke: #000000; stroke-width: 1.2"/>
    <path d="M 103.315672 125.108176 
L 111.645348 153.153103 
" clip-path="url(#p980c43c73c)" style="fill: none; stroke: #000000; stroke-width: 1.2"/>
    <path d="M 103.315672 125.108176 
L 158.529625 92.783644 
" clip-path="url(#p980c43c73c)" style="fill: none; stroke: #000000; stroke-width: 1.2"/>
    <path d="M 55.368595 112.441853 
L 73.308111 113.693389 
" clip-path="url(#p980c43c73c)" style="fill: none; stroke: #000000; stroke-width: 1.2"/>
    <path d="M 55.368595 112.441853 
L 82.214542 150.354188 
" clip-path="url(#p980c43c73c)" style="fill: none; stroke: #000000; stroke-width: 1.2"/>
    <path d="M 55.368595 112.441853 
L 114.221116 139.074509 
" clip-path="url(#p980c43c73c)" style="fill: none; stroke: #000000; stroke-width: 1.2"/>
    <path d="M 55.368595 112.441853 
L 84.06353 114.506318 
" clip-path="url(#p980c43c73c)" style="fill: none; stroke: #000000; stroke-width: 1.2"/>
    <path d="M 55.368595 112.441853 
L 91.615348 154.248937 
" clip-path="url(#p980c43c73c)" style="fill: none; stroke: #000000; stroke-width: 1.2"/>
    <path d="M 55.368595 112.441853 
L 106.276928 79.088577 
" clip-path="url(#p980c43c73c)" style="fill: none; stroke: #000000; stroke-width: 1.2"/>
    <path d="M 73.308111 113.693389 
L 82.214542 150.354188 
" clip-path="url(#p980c43c73c)" style="fill: none; stroke: #000000; stroke-width: 1.2"/>
    <path d="M 73.308111 113.693389 
L 114.221116 139.074509 
" clip-path="url(#p980c43c73c)" style="fill: none; stroke: #000000; stroke-width: 1.2"/>
    <path d="M 73.308111 113.693389 
L 56.633847 130.138028 
" clip-path="url(#p980c43c73c)" style="fill: none; stroke: #000000; stroke-width: 1.2"/>
    <path d="M 73.308111 113.693389 
L 111.645348 153.153103 
" clip-path="url(#p980c43c73c)" style="fill: none; stroke: #000000; stroke-width: 1.2"/>
    <path d="M 73.308111 113.693389 
L 106.276928 79.088577 
" clip-path="url(#p980c43c73c)" style="fill: none; stroke: #000000; stroke-width: 1.2"/>
    <path d="M 73.308111 113.693389 
L 123.938803 54.375784 
" clip-path="url(#p980c43c73c)" style="fill: none; stroke: #000000; stroke-width: 1.2"/>
    <path d="M 73.308111 113.693389 
L 135.023692 117.683574 
" clip-path="url(#p980c43c73c)" style="fill: none; stroke: #000000; stroke-width: 1.2"/>
    <path d="M 73.308111 113.693389 
L 104.872146 91.841454 
" clip-path="url(#p980c43c73c)" style="fill: none; stroke: #000000; stroke-width: 1.2"/>
    <path d="M 114.414863 175.616086 
L 82.214542 150.354188 
" clip-path="url(#p980c43c73c)" style="fill: none; stroke: #000000; stroke-width: 1.2"/>
    <path d="M 114.414863 175.616086 
L 141.674133 176.2441 
" clip-path="url(#p980c43c73c)" style="fill: none; stroke: #000000; stroke-width: 1.2"/>
    <path d="M 114.414863 175.616086 
L 114.221116 139.074509 
" clip-path="url(#p980c43c73c)" style="fill: none; stroke: #000000; stroke-width: 1.2"/>
    <path d="M 114.414863 175.616086 
L 91.615348 154.248937 
" clip-path="url(#p980c43c73c)" style="fill: none; stroke: #000000; stroke-width: 1.2"/>
    <path d="M 114.414863 175.616086 
L 154.157721 177.331589 
" clip-path="url(#p980c43c73c)" style="fill: none; stroke: #000000; stroke-width: 1.2"/>
    <path d="M 114.414863 175.616086 
L 175.364871 145.850104 
" clip-path="url(#p980c43c73c)" style="fill: none; stroke: #000000; stroke-width: 1.2"/>
    <path d="M 82.214542 150.354188 
L 141.674133 176.2441 
" clip-path="url(#p980c43c73c)" style="fill: none; stroke: #000000; stroke-width: 1.2"/>
    <path d="M 82.214542 150.354188 
L 114.221116 139.074509 
" clip-path="url(#p980c43c73c)" style="fill: none; stroke: #000000; stroke-width: 1.2"/>
    <path d="M 82.214542 150.354188 
L 56.633847 130.138028 
" clip-path="url(#p980c43c73c)" style="fill: none; stroke: #000000; stroke-width: 1.2"/>
    <path d="M 82.214542 150.354188 
L 120.077534 187.944128 
" clip-path="url(#p980c43c73c)" style="fill: none; stroke: #000000; stroke-width: 1.2"/>
    <path d="M 82.214542 150.354188 
L 111.645348 153.153103 
" clip-path="url(#p980c43c73c)" style="fill: none; stroke: #000000; stroke-width: 1.2"/>
    <path d="M 82.214542 150.354188 
L 135.023692 117.683574 
" clip-path="url(#p980c43c73c)" style="fill: none; stroke: #000000; stroke-width: 1.2"/>
    <path d="M 141.674133 176.2441 
L 114.221116 139.074509 
" clip-path="url(#p980c43c73c)" style="fill: none; stroke: #000000; stroke-width: 1.2"/>
    <path d="M 141.674133 176.2441 
L 120.077534 187.944128 
" clip-path="url(#p980c43c73c)" style="fill: none; stroke: #000000; stroke-width: 1.2"/>
    <path d="M 141.674133 176.2441 
L 111.645348 153.153103 
" clip-path="url(#p980c43c73c)" style="fill: none; stroke: #000000; stroke-width: 1.2"/>
    <path d="M 141.674133 176.2441 
L 175.364871 145.850104 
" clip-path="url(#p980c43c73c)" style="fill: none; stroke: #000000; stroke-width: 1.2"/>
    <path d="M 141.674133 176.2441 
L 135.023692 117.683574 
" clip-path="url(#p980c43c73c)" style="fill: none; stroke: #000000; stroke-width: 1.2"/>
    <path d="M 141.674133 176.2441 
L 186.065681 110.783726 
" clip-path="url(#p980c43c73c)" style="fill: none; stroke: #000000; stroke-width: 1.2"/>
    <path d="M 141.674133 176.2441 
L 172.243325 159.460274 
" clip-path="url(#p980c43c73c)" style="fill: none; stroke: #000000; stroke-width: 1.2"/>
    <path d="M 141.674133 176.2441 
L 167.955898 210.315288 
" clip-path="url(#p980c43c73c)" style="fill: none; stroke: #000000; stroke-width: 1.2"/>
    <path d="M 114.221116 139.074509 
L 84.06353 114.506318 
" clip-path="url(#p980c43c73c)" style="fill: none; stroke: #000000; stroke-width: 1.2"/>
    <path d="M 114.221116 139.074509 
L 91.615348 154.248937 
" clip-path="url(#p980c43c73c)" style="fill: none; stroke: #000000; stroke-width: 1.2"/>
    <path d="M 114.221116 139.074509 
L 154.157721 177.331589 
" clip-path="url(#p980c43c73c)" style="fill: none; stroke: #000000; stroke-width: 1.2"/>
    <path d="M 114.221116 139.074509 
L 106.276928 79.088577 
" clip-path="url(#p980c43c73c)" style="fill: none; stroke: #000000; stroke-width: 1.2"/>
    <path d="M 114.221116 139.074509 
L 175.364871 145.850104 
" clip-path="url(#p980c43c73c)" style="fill: none; stroke: #000000; stroke-width: 1.2"/>
    <path d="M 114.221116 139.074509 
L 135.023692 117.683574 
" clip-path="url(#p980c43c73c)" style="fill: none; stroke: #000000; stroke-width: 1.2"/>
    <path d="M 114.221116 139.074509 
L 159.784406 80.185225 
" clip-path="url(#p980c43c73c)" style="fill: none; stroke: #000000; stroke-width: 1.2"/>
    <path d="M 114.221116 139.074509 
L 145.362786 121.107387 
" clip-path="url(#p980c43c73c)" style="fill: none; stroke: #000000; stroke-width: 1.2"/>
    <path d="M 56.633847 130.138028 
L 84.06353 114.506318 
" clip-path="url(#p980c43c73c)" style="fill: none; stroke: #000000; stroke-width: 1.2"/>
    <path d="M 56.633847 130.138028 
L 91.615348 154.248937 
" clip-path="url(#p980c43c73c)" style="fill: none; stroke: #000000; stroke-width: 1.2"/>
    <path d="M 56.633847 130.138028 
L 111.645348 153.153103 
" clip-path="url(#p980c43c73c)" style="fill: none; stroke: #000000; stroke-width: 1.2"/>
    <path d="M 56.633847 130.138028 
L 104.872146 91.841454 
" clip-path="url(#p980c43c73c)" style="fill: none; stroke: #000000; stroke-width: 1.2"/>
    <path d="M 84.06353 114.506318 
L 91.615348 154.248937 
" clip-path="url(#p980c43c73c)" style="fill: none; stroke: #000000; stroke-width: 1.2"/>
    <path d="M 84.06353 114.506318 
L 111.645348 153.153103 
" clip-path="url(#p980c43c73c)" style="fill: none; stroke: #000000; stroke-width: 1.2"/>
    <path d="M 84.06353 114.506318 
L 106.276928 79.088577 
" clip-path="url(#p980c43c73c)" style="fill: none; stroke: #000000; stroke-width: 1.2"/>
    <path d="M 84.06353 114.506318 
L 104.872146 91.841454 
" clip-path="url(#p980c43c73c)" style="fill: none; stroke: #000000; stroke-width: 1.2"/>
    <path d="M 84.06353 114.506318 
L 134.934624 57.825329 
" clip-path="url(#p980c43c73c)" style="fill: none; stroke: #000000; stroke-width: 1.2"/>
    <path d="M 84.06353 114.506318 
L 145.362786 121.107387 
" clip-path="url(#p980c43c73c)" style="fill: none; stroke: #000000; stroke-width: 1.2"/>
    <path d="M 120.077534 187.944128 
L 91.615348 154.248937 
" clip-path="url(#p980c43c73c)" style="fill: none; stroke: #000000; stroke-width: 1.2"/>
    <path d="M 120.077534 187.944128 
L 154.157721 177.331589 
" clip-path="url(#p980c43c73c)" style="fill: none; stroke: #000000; stroke-width: 1.2"/>
    <path d="M 120.077534 187.944128 
L 111.645348 153.153103 
" clip-path="url(#p980c43c73c)" style="fill: none; stroke: #000000; stroke-width: 1.2"/>
    <path d="M 120.077534 187.944128 
L 172.243325 159.460274 
" clip-path="url(#p980c43c73c)" style="fill: none; stroke: #000000; stroke-width: 1.2"/>
    <path d="M 120.077534 187.944128 
L 126.369068 237.076364 
" clip-path="url(#p980c43c73c)" style="fill: none; stroke: #000000; stroke-width: 1.2"/>
    <path d="M 120.077534 187.944128 
L 167.955898 210.315288 
" clip-path="url(#p980c43c73c)" style="fill: none; stroke: #000000; stroke-width: 1.2"/>
    <path d="M 91.615348 154.248937 
L 154.157721 177.331589 
" clip-path="url(#p980c43c73c)" style="fill: none; stroke: #000000; stroke-width: 1.2"/>
    <path d="M 91.615348 154.248937 
L 111.645348 153.153103 
" clip-path="url(#p980c43c73c)" style="fill: none; stroke: #000000; stroke-width: 1.2"/>
    <path d="M 91.615348 154.248937 
L 145.362786 121.107387 
" clip-path="url(#p980c43c73c)" style="fill: none; stroke: #000000; stroke-width: 1.2"/>
    <path d="M 154.157721 177.331589 
L 111.645348 153.153103 
" clip-path="url(#p980c43c73c)" style="fill: none; stroke: #000000; stroke-width: 1.2"/>
    <path d="M 154.157721 177.331589 
L 175.364871 145.850104 
" clip-path="url(#p980c43c73c)" style="fill: none; stroke: #000000; stroke-width: 1.2"/>
    <path d="M 154.157721 177.331589 
L 172.243325 159.460274 
" clip-path="url(#p980c43c73c)" style="fill: none; stroke: #000000; stroke-width: 1.2"/>
    <path d="M 154.157721 177.331589 
L 145.362786 121.107387 
" clip-path="url(#p980c43c73c)" style="fill: none; stroke: #000000; stroke-width: 1.2"/>
    <path d="M 154.157721 177.331589 
L 193.264211 124.746427 
" clip-path="url(#p980c43c73c)" style="fill: none; stroke: #000000; stroke-width: 1.2"/>
    <path d="M 154.157721 177.331589 
L 167.955898 210.315288 
" clip-path="url(#p980c43c73c)" style="fill: none; stroke: #000000; stroke-width: 1.2"/>
    <path d="M 154.157721 177.331589 
L 206.161434 176.275959 
" clip-path="url(#p980c43c73c)" style="fill: none; stroke: #000000; stroke-width: 1.2"/>
    <path d="M 111.645348 153.153103 
L 135.023692 117.683574 
" clip-path="url(#p980c43c73c)" style="fill: none; stroke: #000000; stroke-width: 1.2"/>
    <path d="M 111.645348 153.153103 
L 104.872146 91.841454 
" clip-path="url(#p980c43c73c)" style="fill: none; stroke: #000000; stroke-width: 1.2"/>
    <path d="M 111.645348 153.153103 
L 172.243325 159.460274 
" clip-path="url(#p980c43c73c)" style="fill: none; stroke: #000000; stroke-width: 1.2"/>
    <path d="M 111.645348 153.153103 
L 145.362786 121.107387 
" clip-path="url(#p980c43c73c)" style="fill: none; stroke: #000000; stroke-width: 1.2"/>
    <path d="M 111.645348 153.153103 
L 158.529625 92.783644 
" clip-path="url(#p980c43c73c)" style="fill: none; stroke: #000000; stroke-width: 1.2"/>
    <path d="M 106.276928 79.088577 
L 123.938803 54.375784 
" clip-path="url(#p980c43c73c)" style="fill: none; stroke: #000000; stroke-width: 1.2"/>
    <path d="M 106.276928 79.088577 
L 135.023692 117.683574 
" clip-path="url(#p980c43c73c)" style="fill: none; stroke: #000000; stroke-width: 1.2"/>
    <path d="M 106.276928 79.088577 
L 159.784406 80.185225 
" clip-path="url(#p980c43c73c)" style="fill: none; stroke: #000000; stroke-width: 1.2"/>
    <path d="M 106.276928 79.088577 
L 134.934624 57.825329 
" clip-path="url(#p980c43c73c)" style="fill: none; stroke: #000000; stroke-width: 1.2"/>
    <path d="M 106.276928 79.088577 
L 145.362786 121.107387 
" clip-path="url(#p980c43c73c)" style="fill: none; stroke: #000000; stroke-width: 1.2"/>
    <path d="M 123.938803 54.375784 
L 135.023692 117.683574 
" clip-path="url(#p980c43c73c)" style="fill: none; stroke: #000000; stroke-width: 1.2"/>
    <path d="M 123.938803 54.375784 
L 159.784406 80.185225 
" clip-path="url(#p980c43c73c)" style="fill: none; stroke: #000000; stroke-width: 1.2"/>
    <path d="M 123.938803 54.375784 
L 104.872146 91.841454 
" clip-path="url(#p980c43c73c)" style="fill: none; stroke: #000000; stroke-width: 1.2"/>
    <path d="M 123.938803 54.375784 
L 158.529625 92.783644 
" clip-path="url(#p980c43c73c)" style="fill: none; stroke: #000000; stroke-width: 1.2"/>
    <path d="M 175.364871 145.850104 
L 135.023692 117.683574 
" clip-path="url(#p980c43c73c)" style="fill: none; stroke: #000000; stroke-width: 1.2"/>
    <path d="M 175.364871 145.850104 
L 186.065681 110.783726 
" clip-path="url(#p980c43c73c)" style="fill: none; stroke: #000000; stroke-width: 1.2"/>
    <path d="M 175.364871 145.850104 
L 159.784406 80.185225 
" clip-path="url(#p980c43c73c)" style="fill: none; stroke: #000000; stroke-width: 1.2"/>
    <path d="M 175.364871 145.850104 
L 145.362786 121.107387 
" clip-path="url(#p980c43c73c)" style="fill: none; stroke: #000000; stroke-width: 1.2"/>
    <path d="M 175.364871 145.850104 
L 193.264211 124.746427 
" clip-path="url(#p980c43c73c)" style="fill: none; stroke: #000000; stroke-width: 1.2"/>
    <path d="M 175.364871 145.850104 
L 206.161434 176.275959 
" clip-path="url(#p980c43c73c)" style="fill: none; stroke: #000000; stroke-width: 1.2"/>
    <path d="M 135.023692 117.683574 
L 186.065681 110.783726 
" clip-path="url(#p980c43c73c)" style="fill: none; stroke: #000000; stroke-width: 1.2"/>
    <path d="M 135.023692 117.683574 
L 159.784406 80.185225 
" clip-path="url(#p980c43c73c)" style="fill: none; stroke: #000000; stroke-width: 1.2"/>
    <path d="M 135.023692 117.683574 
L 104.872146 91.841454 
" clip-path="url(#p980c43c73c)" style="fill: none; stroke: #000000; stroke-width: 1.2"/>
    <path d="M 135.023692 117.683574 
L 172.243325 159.460274 
" clip-path="url(#p980c43c73c)" style="fill: none; stroke: #000000; stroke-width: 1.2"/>
    <path d="M 135.023692 117.683574 
L 158.529625 92.783644 
" clip-path="url(#p980c43c73c)" style="fill: none; stroke: #000000; stroke-width: 1.2"/>
    <path d="M 186.065681 110.783726 
L 159.784406 80.185225 
" clip-path="url(#p980c43c73c)" style="fill: none; stroke: #000000; stroke-width: 1.2"/>
    <path d="M 186.065681 110.783726 
L 172.243325 159.460274 
" clip-path="url(#p980c43c73c)" style="fill: none; stroke: #000000; stroke-width: 1.2"/>
    <path d="M 186.065681 110.783726 
L 158.529625 92.783644 
" clip-path="url(#p980c43c73c)" style="fill: none; stroke: #000000; stroke-width: 1.2"/>
    <path d="M 159.784406 80.185225 
L 134.934624 57.825329 
" clip-path="url(#p980c43c73c)" style="fill: none; stroke: #000000; stroke-width: 1.2"/>
    <path d="M 159.784406 80.185225 
L 145.362786 121.107387 
" clip-path="url(#p980c43c73c)" style="fill: none; stroke: #000000; stroke-width: 1.2"/>
    <path d="M 159.784406 80.185225 
L 193.264211 124.746427 
" clip-path="url(#p980c43c73c)" style="fill: none; stroke: #000000; stroke-width: 1.2"/>
    <path d="M 104.872146 91.841454 
L 134.934624 57.825329 
" clip-path="url(#p980c43c73c)" style="fill: none; stroke: #000000; stroke-width: 1.2"/>
    <path d="M 104.872146 91.841454 
L 145.362786 121.107387 
" clip-path="url(#p980c43c73c)" style="fill: none; stroke: #000000; stroke-width: 1.2"/>
    <path d="M 104.872146 91.841454 
L 158.529625 92.783644 
" clip-path="url(#p980c43c73c)" style="fill: none; stroke: #000000; stroke-width: 1.2"/>
    <path d="M 134.934624 57.825329 
L 145.362786 121.107387 
" clip-path="url(#p980c43c73c)" style="fill: none; stroke: #000000; stroke-width: 1.2"/>
    <path d="M 134.934624 57.825329 
L 158.529625 92.783644 
" clip-path="url(#p980c43c73c)" style="fill: none; stroke: #000000; stroke-width: 1.2"/>
    <path d="M 172.243325 159.460274 
L 145.362786 121.107387 
" clip-path="url(#p980c43c73c)" style="fill: none; stroke: #000000; stroke-width: 1.2"/>
    <path d="M 172.243325 159.460274 
L 193.264211 124.746427 
" clip-path="url(#p980c43c73c)" style="fill: none; stroke: #000000; stroke-width: 1.2"/>
    <path d="M 172.243325 159.460274 
L 158.529625 92.783644 
" clip-path="url(#p980c43c73c)" style="fill: none; stroke: #000000; stroke-width: 1.2"/>
    <path d="M 172.243325 159.460274 
L 167.955898 210.315288 
" clip-path="url(#p980c43c73c)" style="fill: none; stroke: #000000; stroke-width: 1.2"/>
    <path d="M 172.243325 159.460274 
L 206.161434 176.275959 
" clip-path="url(#p980c43c73c)" style="fill: none; stroke: #000000; stroke-width: 1.2"/>
    <path d="M 145.362786 121.107387 
L 193.264211 124.746427 
" clip-path="url(#p980c43c73c)" style="fill: none; stroke: #000000; stroke-width: 1.2"/>
    <path d="M 145.362786 121.107387 
L 158.529625 92.783644 
" clip-path="url(#p980c43c73c)" style="fill: none; stroke: #000000; stroke-width: 1.2"/>
    <path d="M 193.264211 124.746427 
L 158.529625 92.783644 
" clip-path="url(#p980c43c73c)" style="fill: none; stroke: #000000; stroke-width: 1.2"/>
    <path d="M 193.264211 124.746427 
L 239.831405 137.424405 
" clip-path="url(#p980c43c73c)" style="fill: none; stroke: #000000; stroke-width: 1.2"/>
    <path d="M 193.264211 124.746427 
L 206.161434 176.275959 
" clip-path="url(#p980c43c73c)" style="fill: none; stroke: #000000; stroke-width: 1.2"/>
    <path d="M 126.369068 237.076364 
L 167.955898 210.315288 
" clip-path="url(#p980c43c73c)" style="fill: none; stroke: #000000; stroke-width: 1.2"/>
    <path d="M 239.831405 137.424405 
L 206.161434 176.275959 
" clip-path="url(#p980c43c73c)" style="fill: none; stroke: #000000; stroke-width: 1.2"/>
    <path d="M 167.955898 210.315288 
L 206.161434 176.275959 
" clip-path="url(#p980c43c73c)" style="fill: none; stroke: #000000; stroke-width: 1.2"/>
   </g>
   <g id="PathCollection_1">
    <defs>
     <path id="C0_0_950477522e" d="M 0 8.944272 
C 2.372049 8.944272 4.647264 8.001847 6.324555 6.324555 
C 8.001847 4.647264 8.944272 2.372049 8.944272 -0 
C 8.944272 -2.372049 8.001847 -4.647264 6.324555 -6.324555 
C 4.647264 -8.001847 2.372049 -8.944272 0 -8.944272 
C -2.372049 -8.944272 -4.647264 -8.001847 -6.324555 -6.324555 
C -8.001847 -4.647264 -8.944272 -2.372049 -8.944272 0 
C -8.944272 2.372049 -8.001847 4.647264 -6.324555 6.324555 
C -4.647264 8.001847 -2.372049 8.944272 0 8.944272 
z
"/>
    </defs>
    <g clip-path="url(#p980c43c73c)">
     <use xlink:href="#C0_0_950477522e" x="99.725165" y="53.803636" style="fill: #e06633; stroke: #e06633; stroke-width: 0.5"/>
    </g>
    <g clip-path="url(#p980c43c73c)">
     <use xlink:href="#C0_0_950477522e" x="66.216261" y="84.143444" style="fill: #e06633; stroke: #e06633; stroke-width: 0.5"/>
    </g>
    <g clip-path="url(#p980c43c73c)">
     <use xlink:href="#C0_0_950477522e" x="167.236952" y="111.424879" style="fill: #e06633; stroke: #e06633; stroke-width: 0.5"/>
    </g>
    <g clip-path="url(#p980c43c73c)">
     <use xlink:href="#C0_0_950477522e" x="128.352723" y="87.473636" style="fill: #e06633; stroke: #e06633; stroke-width: 0.5"/>
    </g>
    <g clip-path="url(#p980c43c73c)">
     <use xlink:href="#C0_0_950477522e" x="133.063716" y="147.241232" style="fill: #e06633; stroke: #e06633; stroke-width: 0.5"/>
    </g>
    <g clip-path="url(#p980c43c73c)">
     <use xlink:href="#C0_0_950477522e" x="105.578773" y="111.294128" style="fill: #e06633; stroke: #e06633; stroke-width: 0.5"/>
    </g>
    <g clip-path="url(#p980c43c73c)">
     <use xlink:href="#C0_0_950477522e" x="95.518711" y="65.507763" style="fill: #e06633; stroke: #e06633; stroke-width: 0.5"/>
    </g>
    <g clip-path="url(#p980c43c73c)">
     <use xlink:href="#C0_0_950477522e" x="76.66777" y="86.443841" style="fill: #e06633; stroke: #e06633; stroke-width: 0.5"/>
    </g>
    <g clip-path="url(#p980c43c73c)">
     <use xlink:href="#C0_0_950477522e" x="164.950613" y="131.63727" style="fill: #e06633; stroke: #e06633; stroke-width: 0.5"/>
    </g>
    <g clip-path="url(#p980c43c73c)">
     <use xlink:href="#C0_0_950477522e" x="137.333254" y="94.027698" style="fill: #e06633; stroke: #e06633; stroke-width: 0.5"/>
    </g>
    <g clip-path="url(#p980c43c73c)">
     <use xlink:href="#C0_0_950477522e" x="144.668315" y="152.520457" style="fill: #e06633; stroke: #e06633; stroke-width: 0.5"/>
    </g>
    <g clip-path="url(#p980c43c73c)">
     <use xlink:href="#C0_0_950477522e" x="103.315672" y="125.108176" style="fill: #e06633; stroke: #e06633; stroke-width: 0.5"/>
    </g>
    <g clip-path="url(#p980c43c73c)">
     <use xlink:href="#C0_0_950477522e" x="55.368595" y="112.441853" style="fill: #e06633; stroke: #e06633; stroke-width: 0.5"/>
    </g>
    <g clip-path="url(#p980c43c73c)">
     <use xlink:href="#C0_0_950477522e" x="73.308111" y="113.693389" style="fill: #e06633; stroke: #e06633; stroke-width: 0.5"/>
    </g>
    <g clip-path="url(#p980c43c73c)">
     <use xlink:href="#C0_0_950477522e" x="114.414863" y="175.616086" style="fill: #e06633; stroke: #e06633; stroke-width: 0.5"/>
    </g>
    <g clip-path="url(#p980c43c73c)">
     <use xlink:href="#C0_0_950477522e" x="82.214542" y="150.354188" style="fill: #e06633; stroke: #e06633; stroke-width: 0.5"/>
    </g>
    <g clip-path="url(#p980c43c73c)">
     <use xlink:href="#C0_0_950477522e" x="141.674133" y="176.2441" style="fill: #e06633; stroke: #e06633; stroke-width: 0.5"/>
    </g>
    <g clip-path="url(#p980c43c73c)">
     <use xlink:href="#C0_0_950477522e" x="114.221116" y="139.074509" style="fill: #e06633; stroke: #e06633; stroke-width: 0.5"/>
    </g>
    <g clip-path="url(#p980c43c73c)">
     <use xlink:href="#C0_0_950477522e" x="56.633847" y="130.138028" style="fill: #e06633; stroke: #e06633; stroke-width: 0.5"/>
    </g>
    <g clip-path="url(#p980c43c73c)">
     <use xlink:href="#C0_0_950477522e" x="84.06353" y="114.506318" style="fill: #e06633; stroke: #e06633; stroke-width: 0.5"/>
    </g>
    <g clip-path="url(#p980c43c73c)">
     <use xlink:href="#C0_0_950477522e" x="120.077534" y="187.944128" style="fill: #e06633; stroke: #e06633; stroke-width: 0.5"/>
    </g>
    <g clip-path="url(#p980c43c73c)">
     <use xlink:href="#C0_0_950477522e" x="91.615348" y="154.248937" style="fill: #e06633; stroke: #e06633; stroke-width: 0.5"/>
    </g>
    <g clip-path="url(#p980c43c73c)">
     <use xlink:href="#C0_0_950477522e" x="154.157721" y="177.331589" style="fill: #e06633; stroke: #e06633; stroke-width: 0.5"/>
    </g>
    <g clip-path="url(#p980c43c73c)">
     <use xlink:href="#C0_0_950477522e" x="111.645348" y="153.153103" style="fill: #e06633; stroke: #e06633; stroke-width: 0.5"/>
    </g>
    <g clip-path="url(#p980c43c73c)">
     <use xlink:href="#C0_0_950477522e" x="106.276928" y="79.088577" style="fill: #e06633; stroke: #e06633; stroke-width: 0.5"/>
    </g>
    <g clip-path="url(#p980c43c73c)">
     <use xlink:href="#C0_0_950477522e" x="123.938803" y="54.375784" style="fill: #e06633; stroke: #e06633; stroke-width: 0.5"/>
    </g>
    <g clip-path="url(#p980c43c73c)">
     <use xlink:href="#C0_0_950477522e" x="175.364871" y="145.850104" style="fill: #e06633; stroke: #e06633; stroke-width: 0.5"/>
    </g>
    <g clip-path="url(#p980c43c73c)">
     <use xlink:href="#C0_0_950477522e" x="135.023692" y="117.683574" style="fill: #e06633; stroke: #e06633; stroke-width: 0.5"/>
    </g>
    <g clip-path="url(#p980c43c73c)">
     <use xlink:href="#C0_0_950477522e" x="186.065681" y="110.783726" style="fill: #e06633; stroke: #e06633; stroke-width: 0.5"/>
    </g>
    <g clip-path="url(#p980c43c73c)">
     <use xlink:href="#C0_0_950477522e" x="159.784406" y="80.185225" style="fill: #e06633; stroke: #e06633; stroke-width: 0.5"/>
    </g>
    <g clip-path="url(#p980c43c73c)">
     <use xlink:href="#C0_0_950477522e" x="104.872146" y="91.841454" style="fill: #e06633; stroke: #e06633; stroke-width: 0.5"/>
    </g>
    <g clip-path="url(#p980c43c73c)">
     <use xlink:href="#C0_0_950477522e" x="134.934624" y="57.825329" style="fill: #e06633; stroke: #e06633; stroke-width: 0.5"/>
    </g>
    <g clip-path="url(#p980c43c73c)">
     <use xlink:href="#C0_0_950477522e" x="172.243325" y="159.460274" style="fill: #e06633; stroke: #e06633; stroke-width: 0.5"/>
    </g>
    <g clip-path="url(#p980c43c73c)">
     <use xlink:href="#C0_0_950477522e" x="145.362786" y="121.107387" style="fill: #e06633; stroke: #e06633; stroke-width: 0.5"/>
    </g>
    <g clip-path="url(#p980c43c73c)">
     <use xlink:href="#C0_0_950477522e" x="193.264211" y="124.746427" style="fill: #e06633; stroke: #e06633; stroke-width: 0.5"/>
    </g>
    <g clip-path="url(#p980c43c73c)">
     <use xlink:href="#C0_0_950477522e" x="158.529625" y="92.783644" style="fill: #e06633; stroke: #e06633; stroke-width: 0.5"/>
    </g>
    <g clip-path="url(#p980c43c73c)">
     <use xlink:href="#C0_0_950477522e" x="126.369068" y="237.076364" style="fill: #bfbfbf; stroke: #bfbfbf; stroke-width: 0.5"/>
    </g>
    <g clip-path="url(#p980c43c73c)">
     <use xlink:href="#C0_0_950477522e" x="239.831405" y="137.424405" style="fill: #bfbfbf; stroke: #bfbfbf; stroke-width: 0.5"/>
    </g>
    <g clip-path="url(#p980c43c73c)">
     <use xlink:href="#C0_0_950477522e" x="167.955898" y="210.315288" style="fill: #666666; stroke: #666666; stroke-width: 0.5"/>
    </g>
    <g clip-path="url(#p980c43c73c)">
     <use xlink:href="#C0_0_950477522e" x="206.161434" y="176.275959" style="fill: #666666; stroke: #666666; stroke-width: 0.5"/>
    </g>
   </g>
   <g id="text_1">
    <!-- C2H2Fe48 -->
    <g transform="translate(132.276479 14.203376) scale(0.1 -0.1)">
     <defs>
      <path id="DejaVuSans-43" d="M 4122 4306 
L 4122 3641 
Q 3803 3938 3442 4084 
Q 3081 4231 2675 4231 
Q 1875 4231 1450 3742 
Q 1025 3253 1025 2328 
Q 1025 1406 1450 917 
Q 1875 428 2675 428 
Q 3081 428 3442 575 
Q 3803 722 4122 1019 
L 4122 359 
Q 3791 134 3420 21 
Q 3050 -91 2638 -91 
Q 1578 -91 968 557 
Q 359 1206 359 2328 
Q 359 3453 968 4101 
Q 1578 4750 2638 4750 
Q 3056 4750 3426 4639 
Q 3797 4528 4122 4306 
z
" transform="scale(0.015625)"/>
      <path id="DejaVuSans-32" d="M 1228 531 
L 3431 531 
L 3431 0 
L 469 0 
L 469 531 
Q 828 903 1448 1529 
Q 2069 2156 2228 2338 
Q 2531 2678 2651 2914 
Q 2772 3150 2772 3378 
Q 2772 3750 2511 3984 
Q 2250 4219 1831 4219 
Q 1534 4219 1204 4116 
Q 875 4013 500 3803 
L 500 4441 
Q 881 4594 1212 4672 
Q 1544 4750 1819 4750 
Q 2544 4750 2975 4387 
Q 3406 4025 3406 3419 
Q 3406 3131 3298 2873 
Q 3191 2616 2906 2266 
Q 2828 2175 2409 1742 
Q 1991 1309 1228 531 
z
" transform="scale(0.015625)"/>
      <path id="DejaVuSans-48" d="M 628 4666 
L 1259 4666 
L 1259 2753 
L 3553 2753 
L 3553 4666 
L 4184 4666 
L 4184 0 
L 3553 0 
L 3553 2222 
L 1259 2222 
L 1259 0 
L 628 0 
L 628 4666 
z
" transform="scale(0.015625)"/>
      <path id="DejaVuSans-46" d="M 628 4666 
L 3309 4666 
L 3309 4134 
L 1259 4134 
L 1259 2759 
L 3109 2759 
L 3109 2228 
L 1259 2228 
L 1259 0 
L 628 0 
L 628 4666 
z
" transform="scale(0.015625)"/>
      <path id="DejaVuSans-65" d="M 3597 1894 
L 3597 1613 
L 953 1613 
Q 991 1019 1311 708 
Q 1631 397 2203 397 
Q 2534 397 2845 478 
Q 3156 559 3463 722 
L 3463 178 
Q 3153 47 2828 -22 
Q 2503 -91 2169 -91 
Q 1331 -91 842 396 
Q 353 884 353 1716 
Q 353 2575 817 3079 
Q 1281 3584 2069 3584 
Q 2775 3584 3186 3129 
Q 3597 2675 3597 1894 
z
M 3022 2063 
Q 3016 2534 2758 2815 
Q 2500 3097 2075 3097 
Q 1594 3097 1305 2825 
Q 1016 2553 972 2059 
L 3022 2063 
z
" transform="scale(0.015625)"/>
      <path id="DejaVuSans-34" d="M 2419 4116 
L 825 1625 
L 2419 1625 
L 2419 4116 
z
M 2253 4666 
L 3047 4666 
L 3047 1625 
L 3713 1625 
L 3713 1100 
L 3047 1100 
L 3047 0 
L 2419 0 
L 2419 1100 
L 313 1100 
L 313 1709 
L 2253 4666 
z
" transform="scale(0.015625)"/>
      <path id="DejaVuSans-38" d="M 2034 2216 
Q 1584 2216 1326 1975 
Q 1069 1734 1069 1313 
Q 1069 891 1326 650 
Q 1584 409 2034 409 
Q 2484 409 2743 651 
Q 3003 894 3003 1313 
Q 3003 1734 2745 1975 
Q 2488 2216 2034 2216 
z
M 1403 2484 
Q 997 2584 770 2862 
Q 544 3141 544 3541 
Q 544 4100 942 4425 
Q 1341 4750 2034 4750 
Q 2731 4750 3128 4425 
Q 3525 4100 3525 3541 
Q 3525 3141 3298 2862 
Q 3072 2584 2669 2484 
Q 3125 2378 3379 2068 
Q 3634 1759 3634 1313 
Q 3634 634 3220 271 
Q 2806 -91 2034 -91 
Q 1263 -91 848 271 
Q 434 634 434 1313 
Q 434 1759 690 2068 
Q 947 2378 1403 2484 
z
M 1172 3481 
Q 1172 3119 1398 2916 
Q 1625 2713 2034 2713 
Q 2441 2713 2670 2916 
Q 2900 3119 2900 3481 
Q 2900 3844 2670 4047 
Q 2441 4250 2034 4250 
Q 1625 4250 1398 4047 
Q 1172 3844 1172 3481 
z
" transform="scale(0.015625)"/>
     </defs>
     <use xlink:href="#DejaVuSans-43"/>
     <use xlink:href="#DejaVuSans-32" transform="translate(69.824219 0)"/>
     <use xlink:href="#DejaVuSans-48" transform="translate(133.447266 0)"/>
     <use xlink:href="#DejaVuSans-32" transform="translate(208.642578 0)"/>
     <use xlink:href="#DejaVuSans-46" transform="translate(272.265625 0)"/>
     <use xlink:href="#DejaVuSans-65" transform="translate(324.285156 0)"/>
     <use xlink:href="#DejaVuSans-34" transform="translate(385.808594 0)"/>
     <use xlink:href="#DejaVuSans-38" transform="translate(449.431641 0)"/>
    </g>
    <!-- Error: -8.25 eV -->
    <g transform="translate(132.276479 25.401189) scale(0.1 -0.1)">
     <defs>
      <path id="DejaVuSans-45" d="M 628 4666 
L 3578 4666 
L 3578 4134 
L 1259 4134 
L 1259 2753 
L 3481 2753 
L 3481 2222 
L 1259 2222 
L 1259 531 
L 3634 531 
L 3634 0 
L 628 0 
L 628 4666 
z
" transform="scale(0.015625)"/>
      <path id="DejaVuSans-72" d="M 2631 2963 
Q 2534 3019 2420 3045 
Q 2306 3072 2169 3072 
Q 1681 3072 1420 2755 
Q 1159 2438 1159 1844 
L 1159 0 
L 581 0 
L 581 3500 
L 1159 3500 
L 1159 2956 
Q 1341 3275 1631 3429 
Q 1922 3584 2338 3584 
Q 2397 3584 2469 3576 
Q 2541 3569 2628 3553 
L 2631 2963 
z
" transform="scale(0.015625)"/>
      <path id="DejaVuSans-6f" d="M 1959 3097 
Q 1497 3097 1228 2736 
Q 959 2375 959 1747 
Q 959 1119 1226 758 
Q 1494 397 1959 397 
Q 2419 397 2687 759 
Q 2956 1122 2956 1747 
Q 2956 2369 2687 2733 
Q 2419 3097 1959 3097 
z
M 1959 3584 
Q 2709 3584 3137 3096 
Q 3566 2609 3566 1747 
Q 3566 888 3137 398 
Q 2709 -91 1959 -91 
Q 1206 -91 779 398 
Q 353 888 353 1747 
Q 353 2609 779 3096 
Q 1206 3584 1959 3584 
z
" transform="scale(0.015625)"/>
      <path id="DejaVuSans-3a" d="M 750 794 
L 1409 794 
L 1409 0 
L 750 0 
L 750 794 
z
M 750 3309 
L 1409 3309 
L 1409 2516 
L 750 2516 
L 750 3309 
z
" transform="scale(0.015625)"/>
      <path id="DejaVuSans-20" transform="scale(0.015625)"/>
      <path id="DejaVuSans-2d" d="M 313 2009 
L 1997 2009 
L 1997 1497 
L 313 1497 
L 313 2009 
z
" transform="scale(0.015625)"/>
      <path id="DejaVuSans-2e" d="M 684 794 
L 1344 794 
L 1344 0 
L 684 0 
L 684 794 
z
" transform="scale(0.015625)"/>
      <path id="DejaVuSans-35" d="M 691 4666 
L 3169 4666 
L 3169 4134 
L 1269 4134 
L 1269 2991 
Q 1406 3038 1543 3061 
Q 1681 3084 1819 3084 
Q 2600 3084 3056 2656 
Q 3513 2228 3513 1497 
Q 3513 744 3044 326 
Q 2575 -91 1722 -91 
Q 1428 -91 1123 -41 
Q 819 9 494 109 
L 494 744 
Q 775 591 1075 516 
Q 1375 441 1709 441 
Q 2250 441 2565 725 
Q 2881 1009 2881 1497 
Q 2881 1984 2565 2268 
Q 2250 2553 1709 2553 
Q 1456 2553 1204 2497 
Q 953 2441 691 2322 
L 691 4666 
z
" transform="scale(0.015625)"/>
      <path id="DejaVuSans-56" d="M 1831 0 
L 50 4666 
L 709 4666 
L 2188 738 
L 3669 4666 
L 4325 4666 
L 2547 0 
L 1831 0 
z
" transform="scale(0.015625)"/>
     </defs>
     <use xlink:href="#DejaVuSans-45"/>
     <use xlink:href="#DejaVuSans-72" transform="translate(63.183594 0)"/>
     <use xlink:href="#DejaVuSans-72" transform="translate(102.546875 0)"/>
     <use xlink:href="#DejaVuSans-6f" transform="translate(141.410156 0)"/>
     <use xlink:href="#DejaVuSans-72" transform="translate(202.591797 0)"/>
     <use xlink:href="#DejaVuSans-3a" transform="translate(241.955078 0)"/>
     <use xlink:href="#DejaVuSans-20" transform="translate(275.646484 0)"/>
     <use xlink:href="#DejaVuSans-2d" transform="translate(307.433594 0)"/>
     <use xlink:href="#DejaVuSans-38" transform="translate(343.517578 0)"/>
     <use xlink:href="#DejaVuSans-2e" transform="translate(407.140625 0)"/>
     <use xlink:href="#DejaVuSans-32" transform="translate(438.927734 0)"/>
     <use xlink:href="#DejaVuSans-35" transform="translate(502.550781 0)"/>
     <use xlink:href="#DejaVuSans-20" transform="translate(566.173828 0)"/>
     <use xlink:href="#DejaVuSans-65" transform="translate(597.960938 0)"/>
     <use xlink:href="#DejaVuSans-56" transform="translate(659.484375 0)"/>
    </g>
   </g>
  </g>
 </g>
 <defs>
  <clipPath id="p980c43c73c">
   <rect x="36" y="34.56" width="223.2" height="221.76"/>
  </clipPath>
 </defs>
</svg>
