<?xml version="1.0" encoding="utf-8" standalone="no"?>
<!DOCTYPE svg PUBLIC "-//W3C//DTD SVG 1.1//EN"
  "http://www.w3.org/Graphics/SVG/1.1/DTD/svg11.dtd">
<svg xmlns:xlink="http://www.w3.org/1999/xlink" width="288pt" height="288pt" viewBox="0 0 288 288" xmlns="http://www.w3.org/2000/svg" version="1.1">
 <metadata>
  <rdf:RDF xmlns:dc="http://purl.org/dc/elements/1.1/" xmlns:cc="http://creativecommons.org/ns#" xmlns:rdf="http://www.w3.org/1999/02/22-rdf-syntax-ns#">
   <cc:Work>
    <dc:type rdf:resource="http://purl.org/dc/dcmitype/StillImage"/>
    <dc:date>2025-06-30T12:03:17.563060</dc:date>
    <dc:format>image/svg+xml</dc:format>
    <dc:creator>
     <cc:Agent>
      <dc:title>Matplotlib v3.10.1, https://matplotlib.org/</dc:title>
     </cc:Agent>
    </dc:creator>
   </cc:Work>
  </rdf:RDF>
 </metadata>
 <defs>
  <style type="text/css">*{stroke-linejoin: round; stroke-linecap: butt}</style>
 </defs>
 <g id="figure_1">
  <g id="patch_1">
   <path d="M 0 288 
L 288 288 
L 288 0 
L 0 0 
z
" style="fill: #ffffff"/>
  </g>
  <g id="axes_1">
   <g id="LineCollection_1">
    <path d="M 146.468866 74.130851 
L 167.907761 92.756737 
" clip-path="url(#pf697d69d9c)" style="fill: none; stroke: #000000; stroke-width: 1.2"/>
    <path d="M 146.468866 74.130851 
L 169.221341 76.894047 
" clip-path="url(#pf697d69d9c)" style="fill: none; stroke: #000000; stroke-width: 1.2"/>
    <path d="M 146.468866 74.130851 
L 137.407604 58.489525 
" clip-path="url(#pf697d69d9c)" style="fill: none; stroke: #000000; stroke-width: 1.2"/>
    <path d="M 146.468866 74.130851 
L 128.423676 71.270841 
" clip-path="url(#pf697d69d9c)" style="fill: none; stroke: #000000; stroke-width: 1.2"/>
    <path d="M 146.468866 74.130851 
L 107.69313 89.107813 
" clip-path="url(#pf697d69d9c)" style="fill: none; stroke: #000000; stroke-width: 1.2"/>
    <path d="M 146.468866 74.130851 
L 105.022313 107.195172 
" clip-path="url(#pf697d69d9c)" style="fill: none; stroke: #000000; stroke-width: 1.2"/>
    <path d="M 146.468866 74.130851 
L 134.414115 98.47638 
" clip-path="url(#pf697d69d9c)" style="fill: none; stroke: #000000; stroke-width: 1.2"/>
    <path d="M 167.907761 92.756737 
L 169.221341 76.894047 
" clip-path="url(#pf697d69d9c)" style="fill: none; stroke: #000000; stroke-width: 1.2"/>
    <path d="M 167.907761 92.756737 
L 128.423676 71.270841 
" clip-path="url(#pf697d69d9c)" style="fill: none; stroke: #000000; stroke-width: 1.2"/>
    <path d="M 167.907761 92.756737 
L 155.859665 68.747172 
" clip-path="url(#pf697d69d9c)" style="fill: none; stroke: #000000; stroke-width: 1.2"/>
    <path d="M 167.907761 92.756737 
L 105.022313 107.195172 
" clip-path="url(#pf697d69d9c)" style="fill: none; stroke: #000000; stroke-width: 1.2"/>
    <path d="M 167.907761 92.756737 
L 125.319648 107.467112 
" clip-path="url(#pf697d69d9c)" style="fill: none; stroke: #000000; stroke-width: 1.2"/>
    <path d="M 167.907761 92.756737 
L 150.602744 111.979297 
" clip-path="url(#pf697d69d9c)" style="fill: none; stroke: #000000; stroke-width: 1.2"/>
    <path d="M 169.221341 76.894047 
L 137.407604 58.489525 
" clip-path="url(#pf697d69d9c)" style="fill: none; stroke: #000000; stroke-width: 1.2"/>
    <path d="M 169.221341 76.894047 
L 155.859665 68.747172 
" clip-path="url(#pf697d69d9c)" style="fill: none; stroke: #000000; stroke-width: 1.2"/>
    <path d="M 169.221341 76.894047 
L 107.69313 89.107813 
" clip-path="url(#pf697d69d9c)" style="fill: none; stroke: #000000; stroke-width: 1.2"/>
    <path d="M 169.221341 76.894047 
L 125.319648 107.467112 
" clip-path="url(#pf697d69d9c)" style="fill: none; stroke: #000000; stroke-width: 1.2"/>
    <path d="M 169.221341 76.894047 
L 154.590406 97.148385 
" clip-path="url(#pf697d69d9c)" style="fill: none; stroke: #000000; stroke-width: 1.2"/>
    <path d="M 137.407604 58.489525 
L 128.423676 71.270841 
" clip-path="url(#pf697d69d9c)" style="fill: none; stroke: #000000; stroke-width: 1.2"/>
    <path d="M 137.407604 58.489525 
L 155.859665 68.747172 
" clip-path="url(#pf697d69d9c)" style="fill: none; stroke: #000000; stroke-width: 1.2"/>
    <path d="M 137.407604 58.489525 
L 81.825913 59.768813 
" clip-path="url(#pf697d69d9c)" style="fill: none; stroke: #000000; stroke-width: 1.2"/>
    <path d="M 137.407604 58.489525 
L 111.156797 53.803636 
" clip-path="url(#pf697d69d9c)" style="fill: none; stroke: #000000; stroke-width: 1.2"/>
    <path d="M 137.407604 58.489525 
L 134.414115 98.47638 
" clip-path="url(#pf697d69d9c)" style="fill: none; stroke: #000000; stroke-width: 1.2"/>
    <path d="M 137.407604 58.489525 
L 154.590406 97.148385 
" clip-path="url(#pf697d69d9c)" style="fill: none; stroke: #000000; stroke-width: 1.2"/>
    <path d="M 137.407604 58.489525 
L 101.719178 80.653944 
" clip-path="url(#pf697d69d9c)" style="fill: none; stroke: #000000; stroke-width: 1.2"/>
    <path d="M 128.423676 71.270841 
L 155.859665 68.747172 
" clip-path="url(#pf697d69d9c)" style="fill: none; stroke: #000000; stroke-width: 1.2"/>
    <path d="M 128.423676 71.270841 
L 81.825913 59.768813 
" clip-path="url(#pf697d69d9c)" style="fill: none; stroke: #000000; stroke-width: 1.2"/>
    <path d="M 128.423676 71.270841 
L 99.000343 66.504306 
" clip-path="url(#pf697d69d9c)" style="fill: none; stroke: #000000; stroke-width: 1.2"/>
    <path d="M 128.423676 71.270841 
L 134.414115 98.47638 
" clip-path="url(#pf697d69d9c)" style="fill: none; stroke: #000000; stroke-width: 1.2"/>
    <path d="M 128.423676 71.270841 
L 150.602744 111.979297 
" clip-path="url(#pf697d69d9c)" style="fill: none; stroke: #000000; stroke-width: 1.2"/>
    <path d="M 128.423676 71.270841 
L 95.52756 98.418385 
" clip-path="url(#pf697d69d9c)" style="fill: none; stroke: #000000; stroke-width: 1.2"/>
    <path d="M 155.859665 68.747172 
L 99.000343 66.504306 
" clip-path="url(#pf697d69d9c)" style="fill: none; stroke: #000000; stroke-width: 1.2"/>
    <path d="M 155.859665 68.747172 
L 111.156797 53.803636 
" clip-path="url(#pf697d69d9c)" style="fill: none; stroke: #000000; stroke-width: 1.2"/>
    <path d="M 155.859665 68.747172 
L 150.602744 111.979297 
" clip-path="url(#pf697d69d9c)" style="fill: none; stroke: #000000; stroke-width: 1.2"/>
    <path d="M 155.859665 68.747172 
L 154.590406 97.148385 
" clip-path="url(#pf697d69d9c)" style="fill: none; stroke: #000000; stroke-width: 1.2"/>
    <path d="M 155.859665 68.747172 
L 123.350085 93.347984 
" clip-path="url(#pf697d69d9c)" style="fill: none; stroke: #000000; stroke-width: 1.2"/>
    <path d="M 81.825913 59.768813 
L 99.000343 66.504306 
" clip-path="url(#pf697d69d9c)" style="fill: none; stroke: #000000; stroke-width: 1.2"/>
    <path d="M 81.825913 59.768813 
L 111.156797 53.803636 
" clip-path="url(#pf697d69d9c)" style="fill: none; stroke: #000000; stroke-width: 1.2"/>
    <path d="M 81.825913 59.768813 
L 101.719178 80.653944 
" clip-path="url(#pf697d69d9c)" style="fill: none; stroke: #000000; stroke-width: 1.2"/>
    <path d="M 81.825913 59.768813 
L 95.52756 98.418385 
" clip-path="url(#pf697d69d9c)" style="fill: none; stroke: #000000; stroke-width: 1.2"/>
    <path d="M 81.825913 59.768813 
L 59.294756 87.817254 
" clip-path="url(#pf697d69d9c)" style="fill: none; stroke: #000000; stroke-width: 1.2"/>
    <path d="M 99.000343 66.504306 
L 111.156797 53.803636 
" clip-path="url(#pf697d69d9c)" style="fill: none; stroke: #000000; stroke-width: 1.2"/>
    <path d="M 99.000343 66.504306 
L 95.52756 98.418385 
" clip-path="url(#pf697d69d9c)" style="fill: none; stroke: #000000; stroke-width: 1.2"/>
    <path d="M 99.000343 66.504306 
L 123.350085 93.347984 
" clip-path="url(#pf697d69d9c)" style="fill: none; stroke: #000000; stroke-width: 1.2"/>
    <path d="M 99.000343 66.504306 
L 72.341967 101.671339 
" clip-path="url(#pf697d69d9c)" style="fill: none; stroke: #000000; stroke-width: 1.2"/>
    <path d="M 111.156797 53.803636 
L 101.719178 80.653944 
" clip-path="url(#pf697d69d9c)" style="fill: none; stroke: #000000; stroke-width: 1.2"/>
    <path d="M 111.156797 53.803636 
L 123.350085 93.347984 
" clip-path="url(#pf697d69d9c)" style="fill: none; stroke: #000000; stroke-width: 1.2"/>
    <path d="M 111.156797 53.803636 
L 77.850819 84.149715 
" clip-path="url(#pf697d69d9c)" style="fill: none; stroke: #000000; stroke-width: 1.2"/>
    <path d="M 107.69313 89.107813 
L 105.022313 107.195172 
" clip-path="url(#pf697d69d9c)" style="fill: none; stroke: #000000; stroke-width: 1.2"/>
    <path d="M 107.69313 89.107813 
L 125.319648 107.467112 
" clip-path="url(#pf697d69d9c)" style="fill: none; stroke: #000000; stroke-width: 1.2"/>
    <path d="M 107.69313 89.107813 
L 134.414115 98.47638 
" clip-path="url(#pf697d69d9c)" style="fill: none; stroke: #000000; stroke-width: 1.2"/>
    <path d="M 107.69313 89.107813 
L 154.590406 97.148385 
" clip-path="url(#pf697d69d9c)" style="fill: none; stroke: #000000; stroke-width: 1.2"/>
    <path d="M 107.69313 89.107813 
L 59.294756 87.817254 
" clip-path="url(#pf697d69d9c)" style="fill: none; stroke: #000000; stroke-width: 1.2"/>
    <path d="M 107.69313 89.107813 
L 77.850819 84.149715 
" clip-path="url(#pf697d69d9c)" style="fill: none; stroke: #000000; stroke-width: 1.2"/>
    <path d="M 107.69313 89.107813 
L 57.048265 109.010554 
" clip-path="url(#pf697d69d9c)" style="fill: none; stroke: #000000; stroke-width: 1.2"/>
    <path d="M 107.69313 89.107813 
L 91.248796 129.654256 
" clip-path="url(#pf697d69d9c)" style="fill: none; stroke: #000000; stroke-width: 1.2"/>
    <path d="M 107.69313 89.107813 
L 118.042113 128.524302 
" clip-path="url(#pf697d69d9c)" style="fill: none; stroke: #000000; stroke-width: 1.2"/>
    <path d="M 105.022313 107.195172 
L 125.319648 107.467112 
" clip-path="url(#pf697d69d9c)" style="fill: none; stroke: #000000; stroke-width: 1.2"/>
    <path d="M 105.022313 107.195172 
L 134.414115 98.47638 
" clip-path="url(#pf697d69d9c)" style="fill: none; stroke: #000000; stroke-width: 1.2"/>
    <path d="M 105.022313 107.195172 
L 150.602744 111.979297 
" clip-path="url(#pf697d69d9c)" style="fill: none; stroke: #000000; stroke-width: 1.2"/>
    <path d="M 105.022313 107.195172 
L 59.294756 87.817254 
" clip-path="url(#pf697d69d9c)" style="fill: none; stroke: #000000; stroke-width: 1.2"/>
    <path d="M 105.022313 107.195172 
L 72.341967 101.671339 
" clip-path="url(#pf697d69d9c)" style="fill: none; stroke: #000000; stroke-width: 1.2"/>
    <path d="M 105.022313 107.195172 
L 55.368595 127.019479 
" clip-path="url(#pf697d69d9c)" style="fill: none; stroke: #000000; stroke-width: 1.2"/>
    <path d="M 105.022313 107.195172 
L 91.248796 129.654256 
" clip-path="url(#pf697d69d9c)" style="fill: none; stroke: #000000; stroke-width: 1.2"/>
    <path d="M 105.022313 107.195172 
L 111.242618 143.743237 
" clip-path="url(#pf697d69d9c)" style="fill: none; stroke: #000000; stroke-width: 1.2"/>
    <path d="M 125.319648 107.467112 
L 150.602744 111.979297 
" clip-path="url(#pf697d69d9c)" style="fill: none; stroke: #000000; stroke-width: 1.2"/>
    <path d="M 125.319648 107.467112 
L 154.590406 97.148385 
" clip-path="url(#pf697d69d9c)" style="fill: none; stroke: #000000; stroke-width: 1.2"/>
    <path d="M 125.319648 107.467112 
L 72.341967 101.671339 
" clip-path="url(#pf697d69d9c)" style="fill: none; stroke: #000000; stroke-width: 1.2"/>
    <path d="M 125.319648 107.467112 
L 77.850819 84.149715 
" clip-path="url(#pf697d69d9c)" style="fill: none; stroke: #000000; stroke-width: 1.2"/>
    <path d="M 125.319648 107.467112 
L 72.408317 130.512983 
" clip-path="url(#pf697d69d9c)" style="fill: none; stroke: #000000; stroke-width: 1.2"/>
    <path d="M 125.319648 107.467112 
L 111.242618 143.743237 
" clip-path="url(#pf697d69d9c)" style="fill: none; stroke: #000000; stroke-width: 1.2"/>
    <path d="M 125.319648 107.467112 
L 118.042113 128.524302 
" clip-path="url(#pf697d69d9c)" style="fill: none; stroke: #000000; stroke-width: 1.2"/>
    <path d="M 134.414115 98.47638 
L 150.602744 111.979297 
" clip-path="url(#pf697d69d9c)" style="fill: none; stroke: #000000; stroke-width: 1.2"/>
    <path d="M 134.414115 98.47638 
L 154.590406 97.148385 
" clip-path="url(#pf697d69d9c)" style="fill: none; stroke: #000000; stroke-width: 1.2"/>
    <path d="M 134.414115 98.47638 
L 101.719178 80.653944 
" clip-path="url(#pf697d69d9c)" style="fill: none; stroke: #000000; stroke-width: 1.2"/>
    <path d="M 134.414115 98.47638 
L 95.52756 98.418385 
" clip-path="url(#pf697d69d9c)" style="fill: none; stroke: #000000; stroke-width: 1.2"/>
    <path d="M 134.414115 98.47638 
L 91.248796 129.654256 
" clip-path="url(#pf697d69d9c)" style="fill: none; stroke: #000000; stroke-width: 1.2"/>
    <path d="M 134.414115 98.47638 
L 135.143265 121.129317 
" clip-path="url(#pf697d69d9c)" style="fill: none; stroke: #000000; stroke-width: 1.2"/>
    <path d="M 134.414115 98.47638 
L 127.597487 139.003043 
" clip-path="url(#pf697d69d9c)" style="fill: none; stroke: #000000; stroke-width: 1.2"/>
    <path d="M 150.602744 111.979297 
L 154.590406 97.148385 
" clip-path="url(#pf697d69d9c)" style="fill: none; stroke: #000000; stroke-width: 1.2"/>
    <path d="M 150.602744 111.979297 
L 95.52756 98.418385 
" clip-path="url(#pf697d69d9c)" style="fill: none; stroke: #000000; stroke-width: 1.2"/>
    <path d="M 150.602744 111.979297 
L 123.350085 93.347984 
" clip-path="url(#pf697d69d9c)" style="fill: none; stroke: #000000; stroke-width: 1.2"/>
    <path d="M 150.602744 111.979297 
L 111.242618 143.743237 
" clip-path="url(#pf697d69d9c)" style="fill: none; stroke: #000000; stroke-width: 1.2"/>
    <path d="M 150.602744 111.979297 
L 127.597487 139.003043 
" clip-path="url(#pf697d69d9c)" style="fill: none; stroke: #000000; stroke-width: 1.2"/>
    <path d="M 150.602744 111.979297 
L 152.225293 132.137779 
" clip-path="url(#pf697d69d9c)" style="fill: none; stroke: #000000; stroke-width: 1.2"/>
    <path d="M 154.590406 97.148385 
L 101.719178 80.653944 
" clip-path="url(#pf697d69d9c)" style="fill: none; stroke: #000000; stroke-width: 1.2"/>
    <path d="M 154.590406 97.148385 
L 123.350085 93.347984 
" clip-path="url(#pf697d69d9c)" style="fill: none; stroke: #000000; stroke-width: 1.2"/>
    <path d="M 154.590406 97.148385 
L 118.042113 128.524302 
" clip-path="url(#pf697d69d9c)" style="fill: none; stroke: #000000; stroke-width: 1.2"/>
    <path d="M 154.590406 97.148385 
L 135.143265 121.129317 
" clip-path="url(#pf697d69d9c)" style="fill: none; stroke: #000000; stroke-width: 1.2"/>
    <path d="M 154.590406 97.148385 
L 152.225293 132.137779 
" clip-path="url(#pf697d69d9c)" style="fill: none; stroke: #000000; stroke-width: 1.2"/>
    <path d="M 101.719178 80.653944 
L 95.52756 98.418385 
" clip-path="url(#pf697d69d9c)" style="fill: none; stroke: #000000; stroke-width: 1.2"/>
    <path d="M 101.719178 80.653944 
L 123.350085 93.347984 
" clip-path="url(#pf697d69d9c)" style="fill: none; stroke: #000000; stroke-width: 1.2"/>
    <path d="M 101.719178 80.653944 
L 59.294756 87.817254 
" clip-path="url(#pf697d69d9c)" style="fill: none; stroke: #000000; stroke-width: 1.2"/>
    <path d="M 101.719178 80.653944 
L 77.850819 84.149715 
" clip-path="url(#pf697d69d9c)" style="fill: none; stroke: #000000; stroke-width: 1.2"/>
    <path d="M 101.719178 80.653944 
L 135.143265 121.129317 
" clip-path="url(#pf697d69d9c)" style="fill: none; stroke: #000000; stroke-width: 1.2"/>
    <path d="M 101.719178 80.653944 
L 74.908964 118.950038 
" clip-path="url(#pf697d69d9c)" style="fill: none; stroke: #000000; stroke-width: 1.2"/>
    <path d="M 101.719178 80.653944 
L 99.142325 116.524254 
" clip-path="url(#pf697d69d9c)" style="fill: none; stroke: #000000; stroke-width: 1.2"/>
    <path d="M 95.52756 98.418385 
L 123.350085 93.347984 
" clip-path="url(#pf697d69d9c)" style="fill: none; stroke: #000000; stroke-width: 1.2"/>
    <path d="M 95.52756 98.418385 
L 59.294756 87.817254 
" clip-path="url(#pf697d69d9c)" style="fill: none; stroke: #000000; stroke-width: 1.2"/>
    <path d="M 95.52756 98.418385 
L 72.341967 101.671339 
" clip-path="url(#pf697d69d9c)" style="fill: none; stroke: #000000; stroke-width: 1.2"/>
    <path d="M 95.52756 98.418385 
L 127.597487 139.003043 
" clip-path="url(#pf697d69d9c)" style="fill: none; stroke: #000000; stroke-width: 1.2"/>
    <path d="M 95.52756 98.418385 
L 74.908964 118.950038 
" clip-path="url(#pf697d69d9c)" style="fill: none; stroke: #000000; stroke-width: 1.2"/>
    <path d="M 95.52756 98.418385 
L 96.150296 136.767863 
" clip-path="url(#pf697d69d9c)" style="fill: none; stroke: #000000; stroke-width: 1.2"/>
    <path d="M 123.350085 93.347984 
L 72.341967 101.671339 
" clip-path="url(#pf697d69d9c)" style="fill: none; stroke: #000000; stroke-width: 1.2"/>
    <path d="M 123.350085 93.347984 
L 77.850819 84.149715 
" clip-path="url(#pf697d69d9c)" style="fill: none; stroke: #000000; stroke-width: 1.2"/>
    <path d="M 123.350085 93.347984 
L 152.225293 132.137779 
" clip-path="url(#pf697d69d9c)" style="fill: none; stroke: #000000; stroke-width: 1.2"/>
    <path d="M 123.350085 93.347984 
L 96.150296 136.767863 
" clip-path="url(#pf697d69d9c)" style="fill: none; stroke: #000000; stroke-width: 1.2"/>
    <path d="M 123.350085 93.347984 
L 99.142325 116.524254 
" clip-path="url(#pf697d69d9c)" style="fill: none; stroke: #000000; stroke-width: 1.2"/>
    <path d="M 59.294756 87.817254 
L 72.341967 101.671339 
" clip-path="url(#pf697d69d9c)" style="fill: none; stroke: #000000; stroke-width: 1.2"/>
    <path d="M 59.294756 87.817254 
L 77.850819 84.149715 
" clip-path="url(#pf697d69d9c)" style="fill: none; stroke: #000000; stroke-width: 1.2"/>
    <path d="M 59.294756 87.817254 
L 57.048265 109.010554 
" clip-path="url(#pf697d69d9c)" style="fill: none; stroke: #000000; stroke-width: 1.2"/>
    <path d="M 59.294756 87.817254 
L 55.368595 127.019479 
" clip-path="url(#pf697d69d9c)" style="fill: none; stroke: #000000; stroke-width: 1.2"/>
    <path d="M 59.294756 87.817254 
L 74.908964 118.950038 
" clip-path="url(#pf697d69d9c)" style="fill: none; stroke: #000000; stroke-width: 1.2"/>
    <path d="M 72.341967 101.671339 
L 77.850819 84.149715 
" clip-path="url(#pf697d69d9c)" style="fill: none; stroke: #000000; stroke-width: 1.2"/>
    <path d="M 72.341967 101.671339 
L 55.368595 127.019479 
" clip-path="url(#pf697d69d9c)" style="fill: none; stroke: #000000; stroke-width: 1.2"/>
    <path d="M 72.341967 101.671339 
L 72.408317 130.512983 
" clip-path="url(#pf697d69d9c)" style="fill: none; stroke: #000000; stroke-width: 1.2"/>
    <path d="M 72.341967 101.671339 
L 96.150296 136.767863 
" clip-path="url(#pf697d69d9c)" style="fill: none; stroke: #000000; stroke-width: 1.2"/>
    <path d="M 77.850819 84.149715 
L 57.048265 109.010554 
" clip-path="url(#pf697d69d9c)" style="fill: none; stroke: #000000; stroke-width: 1.2"/>
    <path d="M 77.850819 84.149715 
L 72.408317 130.512983 
" clip-path="url(#pf697d69d9c)" style="fill: none; stroke: #000000; stroke-width: 1.2"/>
    <path d="M 77.850819 84.149715 
L 99.142325 116.524254 
" clip-path="url(#pf697d69d9c)" style="fill: none; stroke: #000000; stroke-width: 1.2"/>
    <path d="M 57.048265 109.010554 
L 55.368595 127.019479 
" clip-path="url(#pf697d69d9c)" style="fill: none; stroke: #000000; stroke-width: 1.2"/>
    <path d="M 57.048265 109.010554 
L 72.408317 130.512983 
" clip-path="url(#pf697d69d9c)" style="fill: none; stroke: #000000; stroke-width: 1.2"/>
    <path d="M 57.048265 109.010554 
L 91.248796 129.654256 
" clip-path="url(#pf697d69d9c)" style="fill: none; stroke: #000000; stroke-width: 1.2"/>
    <path d="M 57.048265 109.010554 
L 118.042113 128.524302 
" clip-path="url(#pf697d69d9c)" style="fill: none; stroke: #000000; stroke-width: 1.2"/>
    <path d="M 57.048265 109.010554 
L 74.908964 118.950038 
" clip-path="url(#pf697d69d9c)" style="fill: none; stroke: #000000; stroke-width: 1.2"/>
    <path d="M 57.048265 109.010554 
L 99.142325 116.524254 
" clip-path="url(#pf697d69d9c)" style="fill: none; stroke: #000000; stroke-width: 1.2"/>
    <path d="M 55.368595 127.019479 
L 72.408317 130.512983 
" clip-path="url(#pf697d69d9c)" style="fill: none; stroke: #000000; stroke-width: 1.2"/>
    <path d="M 55.368595 127.019479 
L 91.248796 129.654256 
" clip-path="url(#pf697d69d9c)" style="fill: none; stroke: #000000; stroke-width: 1.2"/>
    <path d="M 55.368595 127.019479 
L 111.242618 143.743237 
" clip-path="url(#pf697d69d9c)" style="fill: none; stroke: #000000; stroke-width: 1.2"/>
    <path d="M 55.368595 127.019479 
L 74.908964 118.950038 
" clip-path="url(#pf697d69d9c)" style="fill: none; stroke: #000000; stroke-width: 1.2"/>
    <path d="M 55.368595 127.019479 
L 96.150296 136.767863 
" clip-path="url(#pf697d69d9c)" style="fill: none; stroke: #000000; stroke-width: 1.2"/>
    <path d="M 72.408317 130.512983 
L 111.242618 143.743237 
" clip-path="url(#pf697d69d9c)" style="fill: none; stroke: #000000; stroke-width: 1.2"/>
    <path d="M 72.408317 130.512983 
L 118.042113 128.524302 
" clip-path="url(#pf697d69d9c)" style="fill: none; stroke: #000000; stroke-width: 1.2"/>
    <path d="M 72.408317 130.512983 
L 96.150296 136.767863 
" clip-path="url(#pf697d69d9c)" style="fill: none; stroke: #000000; stroke-width: 1.2"/>
    <path d="M 72.408317 130.512983 
L 99.142325 116.524254 
" clip-path="url(#pf697d69d9c)" style="fill: none; stroke: #000000; stroke-width: 1.2"/>
    <path d="M 91.248796 129.654256 
L 111.242618 143.743237 
" clip-path="url(#pf697d69d9c)" style="fill: none; stroke: #000000; stroke-width: 1.2"/>
    <path d="M 91.248796 129.654256 
L 118.042113 128.524302 
" clip-path="url(#pf697d69d9c)" style="fill: none; stroke: #000000; stroke-width: 1.2"/>
    <path d="M 91.248796 129.654256 
L 135.143265 121.129317 
" clip-path="url(#pf697d69d9c)" style="fill: none; stroke: #000000; stroke-width: 1.2"/>
    <path d="M 91.248796 129.654256 
L 127.597487 139.003043 
" clip-path="url(#pf697d69d9c)" style="fill: none; stroke: #000000; stroke-width: 1.2"/>
    <path d="M 111.242618 143.743237 
L 118.042113 128.524302 
" clip-path="url(#pf697d69d9c)" style="fill: none; stroke: #000000; stroke-width: 1.2"/>
    <path d="M 111.242618 143.743237 
L 127.597487 139.003043 
" clip-path="url(#pf697d69d9c)" style="fill: none; stroke: #000000; stroke-width: 1.2"/>
    <path d="M 111.242618 143.743237 
L 152.225293 132.137779 
" clip-path="url(#pf697d69d9c)" style="fill: none; stroke: #000000; stroke-width: 1.2"/>
    <path d="M 118.042113 128.524302 
L 135.143265 121.129317 
" clip-path="url(#pf697d69d9c)" style="fill: none; stroke: #000000; stroke-width: 1.2"/>
    <path d="M 118.042113 128.524302 
L 152.225293 132.137779 
" clip-path="url(#pf697d69d9c)" style="fill: none; stroke: #000000; stroke-width: 1.2"/>
    <path d="M 135.143265 121.129317 
L 127.597487 139.003043 
" clip-path="url(#pf697d69d9c)" style="fill: none; stroke: #000000; stroke-width: 1.2"/>
    <path d="M 135.143265 121.129317 
L 152.225293 132.137779 
" clip-path="url(#pf697d69d9c)" style="fill: none; stroke: #000000; stroke-width: 1.2"/>
    <path d="M 135.143265 121.129317 
L 74.908964 118.950038 
" clip-path="url(#pf697d69d9c)" style="fill: none; stroke: #000000; stroke-width: 1.2"/>
    <path d="M 135.143265 121.129317 
L 99.142325 116.524254 
" clip-path="url(#pf697d69d9c)" style="fill: none; stroke: #000000; stroke-width: 1.2"/>
    <path d="M 127.597487 139.003043 
L 152.225293 132.137779 
" clip-path="url(#pf697d69d9c)" style="fill: none; stroke: #000000; stroke-width: 1.2"/>
    <path d="M 127.597487 139.003043 
L 74.908964 118.950038 
" clip-path="url(#pf697d69d9c)" style="fill: none; stroke: #000000; stroke-width: 1.2"/>
    <path d="M 127.597487 139.003043 
L 96.150296 136.767863 
" clip-path="url(#pf697d69d9c)" style="fill: none; stroke: #000000; stroke-width: 1.2"/>
    <path d="M 127.597487 139.003043 
L 123.052531 176.738161 
" clip-path="url(#pf697d69d9c)" style="fill: none; stroke: #000000; stroke-width: 1.2"/>
    <path d="M 152.225293 132.137779 
L 96.150296 136.767863 
" clip-path="url(#pf697d69d9c)" style="fill: none; stroke: #000000; stroke-width: 1.2"/>
    <path d="M 152.225293 132.137779 
L 99.142325 116.524254 
" clip-path="url(#pf697d69d9c)" style="fill: none; stroke: #000000; stroke-width: 1.2"/>
    <path d="M 152.225293 132.137779 
L 190.901387 153.258778 
" clip-path="url(#pf697d69d9c)" style="fill: none; stroke: #000000; stroke-width: 1.2"/>
    <path d="M 74.908964 118.950038 
L 96.150296 136.767863 
" clip-path="url(#pf697d69d9c)" style="fill: none; stroke: #000000; stroke-width: 1.2"/>
    <path d="M 74.908964 118.950038 
L 99.142325 116.524254 
" clip-path="url(#pf697d69d9c)" style="fill: none; stroke: #000000; stroke-width: 1.2"/>
    <path d="M 96.150296 136.767863 
L 99.142325 116.524254 
" clip-path="url(#pf697d69d9c)" style="fill: none; stroke: #000000; stroke-width: 1.2"/>
    <path d="M 115.532617 233.205928 
L 147.256392 205.134274 
" clip-path="url(#pf697d69d9c)" style="fill: none; stroke: #000000; stroke-width: 1.2"/>
    <path d="M 152.179837 237.076364 
L 147.256392 205.134274 
" clip-path="url(#pf697d69d9c)" style="fill: none; stroke: #000000; stroke-width: 1.2"/>
    <path d="M 123.052531 176.738161 
L 147.256392 205.134274 
" clip-path="url(#pf697d69d9c)" style="fill: none; stroke: #000000; stroke-width: 1.2"/>
    <path d="M 211.012467 220.441088 
L 191.853087 191.077058 
" clip-path="url(#pf697d69d9c)" style="fill: none; stroke: #000000; stroke-width: 1.2"/>
    <path d="M 237.423851 202.468747 
L 191.853087 191.077058 
" clip-path="url(#pf697d69d9c)" style="fill: none; stroke: #000000; stroke-width: 1.2"/>
    <path d="M 233.53087 157.943342 
L 190.901387 153.258778 
" clip-path="url(#pf697d69d9c)" style="fill: none; stroke: #000000; stroke-width: 1.2"/>
    <path d="M 239.831405 139.210628 
L 190.901387 153.258778 
" clip-path="url(#pf697d69d9c)" style="fill: none; stroke: #000000; stroke-width: 1.2"/>
    <path d="M 147.256392 205.134274 
L 191.853087 191.077058 
" clip-path="url(#pf697d69d9c)" style="fill: none; stroke: #000000; stroke-width: 1.2"/>
    <path d="M 191.853087 191.077058 
L 190.901387 153.258778 
" clip-path="url(#pf697d69d9c)" style="fill: none; stroke: #000000; stroke-width: 1.2"/>
   </g>
   <g id="PathCollection_1">
    <defs>
     <path id="C0_0_974e307c1b" d="M 0 8.944272 
C 2.372049 8.944272 4.647264 8.001847 6.324555 6.324555 
C 8.001847 4.647264 8.944272 2.372049 8.944272 -0 
C 8.944272 -2.372049 8.001847 -4.647264 6.324555 -6.324555 
C 4.647264 -8.001847 2.372049 -8.944272 0 -8.944272 
C -2.372049 -8.944272 -4.647264 -8.001847 -6.324555 -6.324555 
C -8.001847 -4.647264 -8.944272 -2.372049 -8.944272 0 
C -8.944272 2.372049 -8.001847 4.647264 -6.324555 6.324555 
C -4.647264 8.001847 -2.372049 8.944272 0 8.944272 
z
"/>
    </defs>
    <g clip-path="url(#pf697d69d9c)">
     <use xlink:href="#C0_0_974e307c1b" x="146.468866" y="74.130851" style="fill: #f08fa1; stroke: #f08fa1; stroke-width: 0.5"/>
    </g>
    <g clip-path="url(#pf697d69d9c)">
     <use xlink:href="#C0_0_974e307c1b" x="167.907761" y="92.756737" style="fill: #f08fa1; stroke: #f08fa1; stroke-width: 0.5"/>
    </g>
    <g clip-path="url(#pf697d69d9c)">
     <use xlink:href="#C0_0_974e307c1b" x="169.221341" y="76.894047" style="fill: #f08fa1; stroke: #f08fa1; stroke-width: 0.5"/>
    </g>
    <g clip-path="url(#pf697d69d9c)">
     <use xlink:href="#C0_0_974e307c1b" x="137.407604" y="58.489525" style="fill: #f08fa1; stroke: #f08fa1; stroke-width: 0.5"/>
    </g>
    <g clip-path="url(#pf697d69d9c)">
     <use xlink:href="#C0_0_974e307c1b" x="128.423676" y="71.270841" style="fill: #f08fa1; stroke: #f08fa1; stroke-width: 0.5"/>
    </g>
    <g clip-path="url(#pf697d69d9c)">
     <use xlink:href="#C0_0_974e307c1b" x="155.859665" y="68.747172" style="fill: #f08fa1; stroke: #f08fa1; stroke-width: 0.5"/>
    </g>
    <g clip-path="url(#pf697d69d9c)">
     <use xlink:href="#C0_0_974e307c1b" x="81.825913" y="59.768813" style="fill: #f08fa1; stroke: #f08fa1; stroke-width: 0.5"/>
    </g>
    <g clip-path="url(#pf697d69d9c)">
     <use xlink:href="#C0_0_974e307c1b" x="99.000343" y="66.504306" style="fill: #f08fa1; stroke: #f08fa1; stroke-width: 0.5"/>
    </g>
    <g clip-path="url(#pf697d69d9c)">
     <use xlink:href="#C0_0_974e307c1b" x="111.156797" y="53.803636" style="fill: #f08fa1; stroke: #f08fa1; stroke-width: 0.5"/>
    </g>
    <g clip-path="url(#pf697d69d9c)">
     <use xlink:href="#C0_0_974e307c1b" x="107.69313" y="89.107813" style="fill: #f08fa1; stroke: #f08fa1; stroke-width: 0.5"/>
    </g>
    <g clip-path="url(#pf697d69d9c)">
     <use xlink:href="#C0_0_974e307c1b" x="105.022313" y="107.195172" style="fill: #f08fa1; stroke: #f08fa1; stroke-width: 0.5"/>
    </g>
    <g clip-path="url(#pf697d69d9c)">
     <use xlink:href="#C0_0_974e307c1b" x="125.319648" y="107.467112" style="fill: #f08fa1; stroke: #f08fa1; stroke-width: 0.5"/>
    </g>
    <g clip-path="url(#pf697d69d9c)">
     <use xlink:href="#C0_0_974e307c1b" x="134.414115" y="98.47638" style="fill: #f08fa1; stroke: #f08fa1; stroke-width: 0.5"/>
    </g>
    <g clip-path="url(#pf697d69d9c)">
     <use xlink:href="#C0_0_974e307c1b" x="150.602744" y="111.979297" style="fill: #f08fa1; stroke: #f08fa1; stroke-width: 0.5"/>
    </g>
    <g clip-path="url(#pf697d69d9c)">
     <use xlink:href="#C0_0_974e307c1b" x="154.590406" y="97.148385" style="fill: #f08fa1; stroke: #f08fa1; stroke-width: 0.5"/>
    </g>
    <g clip-path="url(#pf697d69d9c)">
     <use xlink:href="#C0_0_974e307c1b" x="101.719178" y="80.653944" style="fill: #f08fa1; stroke: #f08fa1; stroke-width: 0.5"/>
    </g>
    <g clip-path="url(#pf697d69d9c)">
     <use xlink:href="#C0_0_974e307c1b" x="95.52756" y="98.418385" style="fill: #f08fa1; stroke: #f08fa1; stroke-width: 0.5"/>
    </g>
    <g clip-path="url(#pf697d69d9c)">
     <use xlink:href="#C0_0_974e307c1b" x="123.350085" y="93.347984" style="fill: #f08fa1; stroke: #f08fa1; stroke-width: 0.5"/>
    </g>
    <g clip-path="url(#pf697d69d9c)">
     <use xlink:href="#C0_0_974e307c1b" x="59.294756" y="87.817254" style="fill: #f08fa1; stroke: #f08fa1; stroke-width: 0.5"/>
    </g>
    <g clip-path="url(#pf697d69d9c)">
     <use xlink:href="#C0_0_974e307c1b" x="72.341967" y="101.671339" style="fill: #f08fa1; stroke: #f08fa1; stroke-width: 0.5"/>
    </g>
    <g clip-path="url(#pf697d69d9c)">
     <use xlink:href="#C0_0_974e307c1b" x="77.850819" y="84.149715" style="fill: #f08fa1; stroke: #f08fa1; stroke-width: 0.5"/>
    </g>
    <g clip-path="url(#pf697d69d9c)">
     <use xlink:href="#C0_0_974e307c1b" x="57.048265" y="109.010554" style="fill: #f08fa1; stroke: #f08fa1; stroke-width: 0.5"/>
    </g>
    <g clip-path="url(#pf697d69d9c)">
     <use xlink:href="#C0_0_974e307c1b" x="55.368595" y="127.019479" style="fill: #f08fa1; stroke: #f08fa1; stroke-width: 0.5"/>
    </g>
    <g clip-path="url(#pf697d69d9c)">
     <use xlink:href="#C0_0_974e307c1b" x="72.408317" y="130.512983" style="fill: #f08fa1; stroke: #f08fa1; stroke-width: 0.5"/>
    </g>
    <g clip-path="url(#pf697d69d9c)">
     <use xlink:href="#C0_0_974e307c1b" x="91.248796" y="129.654256" style="fill: #f08fa1; stroke: #f08fa1; stroke-width: 0.5"/>
    </g>
    <g clip-path="url(#pf697d69d9c)">
     <use xlink:href="#C0_0_974e307c1b" x="111.242618" y="143.743237" style="fill: #f08fa1; stroke: #f08fa1; stroke-width: 0.5"/>
    </g>
    <g clip-path="url(#pf697d69d9c)">
     <use xlink:href="#C0_0_974e307c1b" x="118.042113" y="128.524302" style="fill: #f08fa1; stroke: #f08fa1; stroke-width: 0.5"/>
    </g>
    <g clip-path="url(#pf697d69d9c)">
     <use xlink:href="#C0_0_974e307c1b" x="135.143265" y="121.129317" style="fill: #f08fa1; stroke: #f08fa1; stroke-width: 0.5"/>
    </g>
    <g clip-path="url(#pf697d69d9c)">
     <use xlink:href="#C0_0_974e307c1b" x="127.597487" y="139.003043" style="fill: #f08fa1; stroke: #f08fa1; stroke-width: 0.5"/>
    </g>
    <g clip-path="url(#pf697d69d9c)">
     <use xlink:href="#C0_0_974e307c1b" x="152.225293" y="132.137779" style="fill: #f08fa1; stroke: #f08fa1; stroke-width: 0.5"/>
    </g>
    <g clip-path="url(#pf697d69d9c)">
     <use xlink:href="#C0_0_974e307c1b" x="74.908964" y="118.950038" style="fill: #f08fa1; stroke: #f08fa1; stroke-width: 0.5"/>
    </g>
    <g clip-path="url(#pf697d69d9c)">
     <use xlink:href="#C0_0_974e307c1b" x="96.150296" y="136.767863" style="fill: #f08fa1; stroke: #f08fa1; stroke-width: 0.5"/>
    </g>
    <g clip-path="url(#pf697d69d9c)">
     <use xlink:href="#C0_0_974e307c1b" x="99.142325" y="116.524254" style="fill: #f08fa1; stroke: #f08fa1; stroke-width: 0.5"/>
    </g>
    <g clip-path="url(#pf697d69d9c)">
     <use xlink:href="#C0_0_974e307c1b" x="115.532617" y="233.205928" style="fill: #bfbfbf; stroke: #bfbfbf; stroke-width: 0.5"/>
    </g>
    <g clip-path="url(#pf697d69d9c)">
     <use xlink:href="#C0_0_974e307c1b" x="152.179837" y="237.076364" style="fill: #bfbfbf; stroke: #bfbfbf; stroke-width: 0.5"/>
    </g>
    <g clip-path="url(#pf697d69d9c)">
     <use xlink:href="#C0_0_974e307c1b" x="123.052531" y="176.738161" style="fill: #bfbfbf; stroke: #bfbfbf; stroke-width: 0.5"/>
    </g>
    <g clip-path="url(#pf697d69d9c)">
     <use xlink:href="#C0_0_974e307c1b" x="211.012467" y="220.441088" style="fill: #bfbfbf; stroke: #bfbfbf; stroke-width: 0.5"/>
    </g>
    <g clip-path="url(#pf697d69d9c)">
     <use xlink:href="#C0_0_974e307c1b" x="237.423851" y="202.468747" style="fill: #bfbfbf; stroke: #bfbfbf; stroke-width: 0.5"/>
    </g>
    <g clip-path="url(#pf697d69d9c)">
     <use xlink:href="#C0_0_974e307c1b" x="233.53087" y="157.943342" style="fill: #bfbfbf; stroke: #bfbfbf; stroke-width: 0.5"/>
    </g>
    <g clip-path="url(#pf697d69d9c)">
     <use xlink:href="#C0_0_974e307c1b" x="239.831405" y="139.210628" style="fill: #bfbfbf; stroke: #bfbfbf; stroke-width: 0.5"/>
    </g>
    <g clip-path="url(#pf697d69d9c)">
     <use xlink:href="#C0_0_974e307c1b" x="147.256392" y="205.134274" style="fill: #666666; stroke: #666666; stroke-width: 0.5"/>
    </g>
    <g clip-path="url(#pf697d69d9c)">
     <use xlink:href="#C0_0_974e307c1b" x="191.853087" y="191.077058" style="fill: #666666; stroke: #666666; stroke-width: 0.5"/>
    </g>
    <g clip-path="url(#pf697d69d9c)">
     <use xlink:href="#C0_0_974e307c1b" x="190.901387" y="153.258778" style="fill: #0d0dff; stroke: #0d0dff; stroke-width: 0.5"/>
    </g>
   </g>
   <g id="text_1">
    <!-- C2H7Co48N -->
    <g transform="translate(133.468858 6.496887) scale(0.1 -0.1)">
     <defs>
      <path id="DejaVuSans-43" d="M 4122 4306 
L 4122 3641 
Q 3803 3938 3442 4084 
Q 3081 4231 2675 4231 
Q 1875 4231 1450 3742 
Q 1025 3253 1025 2328 
Q 1025 1406 1450 917 
Q 1875 428 2675 428 
Q 3081 428 3442 575 
Q 3803 722 4122 1019 
L 4122 359 
Q 3791 134 3420 21 
Q 3050 -91 2638 -91 
Q 1578 -91 968 557 
Q 359 1206 359 2328 
Q 359 3453 968 4101 
Q 1578 4750 2638 4750 
Q 3056 4750 3426 4639 
Q 3797 4528 4122 4306 
z
" transform="scale(0.015625)"/>
      <path id="DejaVuSans-32" d="M 1228 531 
L 3431 531 
L 3431 0 
L 469 0 
L 469 531 
Q 828 903 1448 1529 
Q 2069 2156 2228 2338 
Q 2531 2678 2651 2914 
Q 2772 3150 2772 3378 
Q 2772 3750 2511 3984 
Q 2250 4219 1831 4219 
Q 1534 4219 1204 4116 
Q 875 4013 500 3803 
L 500 4441 
Q 881 4594 1212 4672 
Q 1544 4750 1819 4750 
Q 2544 4750 2975 4387 
Q 3406 4025 3406 3419 
Q 3406 3131 3298 2873 
Q 3191 2616 2906 2266 
Q 2828 2175 2409 1742 
Q 1991 1309 1228 531 
z
" transform="scale(0.015625)"/>
      <path id="DejaVuSans-48" d="M 628 4666 
L 1259 4666 
L 1259 2753 
L 3553 2753 
L 3553 4666 
L 4184 4666 
L 4184 0 
L 3553 0 
L 3553 2222 
L 1259 2222 
L 1259 0 
L 628 0 
L 628 4666 
z
" transform="scale(0.015625)"/>
      <path id="DejaVuSans-37" d="M 525 4666 
L 3525 4666 
L 3525 4397 
L 1831 0 
L 1172 0 
L 2766 4134 
L 525 4134 
L 525 4666 
z
" transform="scale(0.015625)"/>
      <path id="DejaVuSans-6f" d="M 1959 3097 
Q 1497 3097 1228 2736 
Q 959 2375 959 1747 
Q 959 1119 1226 758 
Q 1494 397 1959 397 
Q 2419 397 2687 759 
Q 2956 1122 2956 1747 
Q 2956 2369 2687 2733 
Q 2419 3097 1959 3097 
z
M 1959 3584 
Q 2709 3584 3137 3096 
Q 3566 2609 3566 1747 
Q 3566 888 3137 398 
Q 2709 -91 1959 -91 
Q 1206 -91 779 398 
Q 353 888 353 1747 
Q 353 2609 779 3096 
Q 1206 3584 1959 3584 
z
" transform="scale(0.015625)"/>
      <path id="DejaVuSans-34" d="M 2419 4116 
L 825 1625 
L 2419 1625 
L 2419 4116 
z
M 2253 4666 
L 3047 4666 
L 3047 1625 
L 3713 1625 
L 3713 1100 
L 3047 1100 
L 3047 0 
L 2419 0 
L 2419 1100 
L 313 1100 
L 313 1709 
L 2253 4666 
z
" transform="scale(0.015625)"/>
      <path id="DejaVuSans-38" d="M 2034 2216 
Q 1584 2216 1326 1975 
Q 1069 1734 1069 1313 
Q 1069 891 1326 650 
Q 1584 409 2034 409 
Q 2484 409 2743 651 
Q 3003 894 3003 1313 
Q 3003 1734 2745 1975 
Q 2488 2216 2034 2216 
z
M 1403 2484 
Q 997 2584 770 2862 
Q 544 3141 544 3541 
Q 544 4100 942 4425 
Q 1341 4750 2034 4750 
Q 2731 4750 3128 4425 
Q 3525 4100 3525 3541 
Q 3525 3141 3298 2862 
Q 3072 2584 2669 2484 
Q 3125 2378 3379 2068 
Q 3634 1759 3634 1313 
Q 3634 634 3220 271 
Q 2806 -91 2034 -91 
Q 1263 -91 848 271 
Q 434 634 434 1313 
Q 434 1759 690 2068 
Q 947 2378 1403 2484 
z
M 1172 3481 
Q 1172 3119 1398 2916 
Q 1625 2713 2034 2713 
Q 2441 2713 2670 2916 
Q 2900 3119 2900 3481 
Q 2900 3844 2670 4047 
Q 2441 4250 2034 4250 
Q 1625 4250 1398 4047 
Q 1172 3844 1172 3481 
z
" transform="scale(0.015625)"/>
      <path id="DejaVuSans-4e" d="M 628 4666 
L 1478 4666 
L 3547 763 
L 3547 4666 
L 4159 4666 
L 4159 0 
L 3309 0 
L 1241 3903 
L 1241 0 
L 628 0 
L 628 4666 
z
" transform="scale(0.015625)"/>
     </defs>
     <use xlink:href="#DejaVuSans-43"/>
     <use xlink:href="#DejaVuSans-32" transform="translate(69.824219 0)"/>
     <use xlink:href="#DejaVuSans-48" transform="translate(133.447266 0)"/>
     <use xlink:href="#DejaVuSans-37" transform="translate(208.642578 0)"/>
     <use xlink:href="#DejaVuSans-43" transform="translate(272.265625 0)"/>
     <use xlink:href="#DejaVuSans-6f" transform="translate(342.089844 0)"/>
     <use xlink:href="#DejaVuSans-34" transform="translate(403.271484 0)"/>
     <use xlink:href="#DejaVuSans-38" transform="translate(466.894531 0)"/>
     <use xlink:href="#DejaVuSans-4e" transform="translate(530.517578 0)"/>
    </g>
    <!-- Error: -7.14 eV -->
    <g transform="translate(133.468858 17.694699) scale(0.1 -0.1)">
     <defs>
      <path id="DejaVuSans-45" d="M 628 4666 
L 3578 4666 
L 3578 4134 
L 1259 4134 
L 1259 2753 
L 3481 2753 
L 3481 2222 
L 1259 2222 
L 1259 531 
L 3634 531 
L 3634 0 
L 628 0 
L 628 4666 
z
" transform="scale(0.015625)"/>
      <path id="DejaVuSans-72" d="M 2631 2963 
Q 2534 3019 2420 3045 
Q 2306 3072 2169 3072 
Q 1681 3072 1420 2755 
Q 1159 2438 1159 1844 
L 1159 0 
L 581 0 
L 581 3500 
L 1159 3500 
L 1159 2956 
Q 1341 3275 1631 3429 
Q 1922 3584 2338 3584 
Q 2397 3584 2469 3576 
Q 2541 3569 2628 3553 
L 2631 2963 
z
" transform="scale(0.015625)"/>
      <path id="DejaVuSans-3a" d="M 750 794 
L 1409 794 
L 1409 0 
L 750 0 
L 750 794 
z
M 750 3309 
L 1409 3309 
L 1409 2516 
L 750 2516 
L 750 3309 
z
" transform="scale(0.015625)"/>
      <path id="DejaVuSans-20" transform="scale(0.015625)"/>
      <path id="DejaVuSans-2d" d="M 313 2009 
L 1997 2009 
L 1997 1497 
L 313 1497 
L 313 2009 
z
" transform="scale(0.015625)"/>
      <path id="DejaVuSans-2e" d="M 684 794 
L 1344 794 
L 1344 0 
L 684 0 
L 684 794 
z
" transform="scale(0.015625)"/>
      <path id="DejaVuSans-31" d="M 794 531 
L 1825 531 
L 1825 4091 
L 703 3866 
L 703 4441 
L 1819 4666 
L 2450 4666 
L 2450 531 
L 3481 531 
L 3481 0 
L 794 0 
L 794 531 
z
" transform="scale(0.015625)"/>
      <path id="DejaVuSans-65" d="M 3597 1894 
L 3597 1613 
L 953 1613 
Q 991 1019 1311 708 
Q 1631 397 2203 397 
Q 2534 397 2845 478 
Q 3156 559 3463 722 
L 3463 178 
Q 3153 47 2828 -22 
Q 2503 -91 2169 -91 
Q 1331 -91 842 396 
Q 353 884 353 1716 
Q 353 2575 817 3079 
Q 1281 3584 2069 3584 
Q 2775 3584 3186 3129 
Q 3597 2675 3597 1894 
z
M 3022 2063 
Q 3016 2534 2758 2815 
Q 2500 3097 2075 3097 
Q 1594 3097 1305 2825 
Q 1016 2553 972 2059 
L 3022 2063 
z
" transform="scale(0.015625)"/>
      <path id="DejaVuSans-56" d="M 1831 0 
L 50 4666 
L 709 4666 
L 2188 738 
L 3669 4666 
L 4325 4666 
L 2547 0 
L 1831 0 
z
" transform="scale(0.015625)"/>
     </defs>
     <use xlink:href="#DejaVuSans-45"/>
     <use xlink:href="#DejaVuSans-72" transform="translate(63.183594 0)"/>
     <use xlink:href="#DejaVuSans-72" transform="translate(102.546875 0)"/>
     <use xlink:href="#DejaVuSans-6f" transform="translate(141.410156 0)"/>
     <use xlink:href="#DejaVuSans-72" transform="translate(202.591797 0)"/>
     <use xlink:href="#DejaVuSans-3a" transform="translate(241.955078 0)"/>
     <use xlink:href="#DejaVuSans-20" transform="translate(275.646484 0)"/>
     <use xlink:href="#DejaVuSans-2d" transform="translate(307.433594 0)"/>
     <use xlink:href="#DejaVuSans-37" transform="translate(343.517578 0)"/>
     <use xlink:href="#DejaVuSans-2e" transform="translate(407.140625 0)"/>
     <use xlink:href="#DejaVuSans-31" transform="translate(438.927734 0)"/>
     <use xlink:href="#DejaVuSans-34" transform="translate(502.550781 0)"/>
     <use xlink:href="#DejaVuSans-20" transform="translate(566.173828 0)"/>
     <use xlink:href="#DejaVuSans-65" transform="translate(597.960938 0)"/>
     <use xlink:href="#DejaVuSans-56" transform="translate(659.484375 0)"/>
    </g>
   </g>
  </g>
 </g>
 <defs>
  <clipPath id="pf697d69d9c">
   <rect x="36" y="34.56" width="223.2" height="221.76"/>
  </clipPath>
 </defs>
</svg>
