<?xml version="1.0" encoding="utf-8" standalone="no"?>
<!DOCTYPE svg PUBLIC "-//W3C//DTD SVG 1.1//EN"
  "http://www.w3.org/Graphics/SVG/1.1/DTD/svg11.dtd">
<svg xmlns:xlink="http://www.w3.org/1999/xlink" width="288pt" height="288pt" viewBox="0 0 288 288" xmlns="http://www.w3.org/2000/svg" version="1.1">
 <metadata>
  <rdf:RDF xmlns:dc="http://purl.org/dc/elements/1.1/" xmlns:cc="http://creativecommons.org/ns#" xmlns:rdf="http://www.w3.org/1999/02/22-rdf-syntax-ns#">
   <cc:Work>
    <dc:type rdf:resource="http://purl.org/dc/dcmitype/StillImage"/>
    <dc:date>2025-06-30T12:03:22.521518</dc:date>
    <dc:format>image/svg+xml</dc:format>
    <dc:creator>
     <cc:Agent>
      <dc:title>Matplotlib v3.10.1, https://matplotlib.org/</dc:title>
     </cc:Agent>
    </dc:creator>
   </cc:Work>
  </rdf:RDF>
 </metadata>
 <defs>
  <style type="text/css">*{stroke-linejoin: round; stroke-linecap: butt}</style>
 </defs>
 <g id="figure_1">
  <g id="patch_1">
   <path d="M 0 288 
L 288 288 
L 288 0 
L 0 0 
z
" style="fill: #ffffff"/>
  </g>
  <g id="axes_1">
   <g id="LineCollection_1">
    <path d="M 102.609968 54.586064 
L 124.59536 53.803636 
" clip-path="url(#p0a1863a94f)" style="fill: none; stroke: #000000; stroke-width: 1.2"/>
    <path d="M 102.609968 54.586064 
L 124.906653 66.78137 
" clip-path="url(#p0a1863a94f)" style="fill: none; stroke: #000000; stroke-width: 1.2"/>
    <path d="M 102.609968 54.586064 
L 148.605797 64.885281 
" clip-path="url(#p0a1863a94f)" style="fill: none; stroke: #000000; stroke-width: 1.2"/>
    <path d="M 102.609968 54.586064 
L 119.59352 77.186566 
" clip-path="url(#p0a1863a94f)" style="fill: none; stroke: #000000; stroke-width: 1.2"/>
    <path d="M 102.609968 54.586064 
L 140.118942 67.230988 
" clip-path="url(#p0a1863a94f)" style="fill: none; stroke: #000000; stroke-width: 1.2"/>
    <path d="M 102.609968 54.586064 
L 70.556295 65.998597 
" clip-path="url(#p0a1863a94f)" style="fill: none; stroke: #000000; stroke-width: 1.2"/>
    <path d="M 102.609968 54.586064 
L 124.613174 88.643065 
" clip-path="url(#p0a1863a94f)" style="fill: none; stroke: #000000; stroke-width: 1.2"/>
    <path d="M 102.609968 54.586064 
L 83.472939 88.60932 
" clip-path="url(#p0a1863a94f)" style="fill: none; stroke: #000000; stroke-width: 1.2"/>
    <path d="M 102.609968 54.586064 
L 111.693151 103.865641 
" clip-path="url(#p0a1863a94f)" style="fill: none; stroke: #000000; stroke-width: 1.2"/>
    <path d="M 124.59536 53.803636 
L 144.971438 80.926355 
" clip-path="url(#p0a1863a94f)" style="fill: none; stroke: #000000; stroke-width: 1.2"/>
    <path d="M 124.59536 53.803636 
L 90.523921 59.587332 
" clip-path="url(#p0a1863a94f)" style="fill: none; stroke: #000000; stroke-width: 1.2"/>
    <path d="M 124.59536 53.803636 
L 148.605797 64.885281 
" clip-path="url(#p0a1863a94f)" style="fill: none; stroke: #000000; stroke-width: 1.2"/>
    <path d="M 124.59536 53.803636 
L 95.041523 67.906891 
" clip-path="url(#p0a1863a94f)" style="fill: none; stroke: #000000; stroke-width: 1.2"/>
    <path d="M 124.59536 53.803636 
L 140.118942 67.230988 
" clip-path="url(#p0a1863a94f)" style="fill: none; stroke: #000000; stroke-width: 1.2"/>
    <path d="M 124.59536 53.803636 
L 124.613174 88.643065 
" clip-path="url(#p0a1863a94f)" style="fill: none; stroke: #000000; stroke-width: 1.2"/>
    <path d="M 124.59536 53.803636 
L 95.049615 87.997909 
" clip-path="url(#p0a1863a94f)" style="fill: none; stroke: #000000; stroke-width: 1.2"/>
    <path d="M 124.59536 53.803636 
L 122.044656 107.016601 
" clip-path="url(#p0a1863a94f)" style="fill: none; stroke: #000000; stroke-width: 1.2"/>
    <path d="M 144.971438 80.926355 
L 90.523921 59.587332 
" clip-path="url(#p0a1863a94f)" style="fill: none; stroke: #000000; stroke-width: 1.2"/>
    <path d="M 144.971438 80.926355 
L 124.906653 66.78137 
" clip-path="url(#p0a1863a94f)" style="fill: none; stroke: #000000; stroke-width: 1.2"/>
    <path d="M 144.971438 80.926355 
L 95.041523 67.906891 
" clip-path="url(#p0a1863a94f)" style="fill: none; stroke: #000000; stroke-width: 1.2"/>
    <path d="M 144.971438 80.926355 
L 119.59352 77.186566 
" clip-path="url(#p0a1863a94f)" style="fill: none; stroke: #000000; stroke-width: 1.2"/>
    <path d="M 144.971438 80.926355 
L 164.291439 83.989884 
" clip-path="url(#p0a1863a94f)" style="fill: none; stroke: #000000; stroke-width: 1.2"/>
    <path d="M 144.971438 80.926355 
L 122.044656 107.016601 
" clip-path="url(#p0a1863a94f)" style="fill: none; stroke: #000000; stroke-width: 1.2"/>
    <path d="M 144.971438 80.926355 
L 102.99355 105.505791 
" clip-path="url(#p0a1863a94f)" style="fill: none; stroke: #000000; stroke-width: 1.2"/>
    <path d="M 144.971438 80.926355 
L 142.176833 118.380258 
" clip-path="url(#p0a1863a94f)" style="fill: none; stroke: #000000; stroke-width: 1.2"/>
    <path d="M 90.523921 59.587332 
L 124.906653 66.78137 
" clip-path="url(#p0a1863a94f)" style="fill: none; stroke: #000000; stroke-width: 1.2"/>
    <path d="M 90.523921 59.587332 
L 140.118942 67.230988 
" clip-path="url(#p0a1863a94f)" style="fill: none; stroke: #000000; stroke-width: 1.2"/>
    <path d="M 90.523921 59.587332 
L 114.617629 61.644935 
" clip-path="url(#p0a1863a94f)" style="fill: none; stroke: #000000; stroke-width: 1.2"/>
    <path d="M 90.523921 59.587332 
L 70.556295 65.998597 
" clip-path="url(#p0a1863a94f)" style="fill: none; stroke: #000000; stroke-width: 1.2"/>
    <path d="M 90.523921 59.587332 
L 95.049615 87.997909 
" clip-path="url(#p0a1863a94f)" style="fill: none; stroke: #000000; stroke-width: 1.2"/>
    <path d="M 90.523921 59.587332 
L 102.99355 105.505791 
" clip-path="url(#p0a1863a94f)" style="fill: none; stroke: #000000; stroke-width: 1.2"/>
    <path d="M 90.523921 59.587332 
L 68.605829 92.292437 
" clip-path="url(#p0a1863a94f)" style="fill: none; stroke: #000000; stroke-width: 1.2"/>
    <path d="M 124.906653 66.78137 
L 148.605797 64.885281 
" clip-path="url(#p0a1863a94f)" style="fill: none; stroke: #000000; stroke-width: 1.2"/>
    <path d="M 124.906653 66.78137 
L 164.291439 83.989884 
" clip-path="url(#p0a1863a94f)" style="fill: none; stroke: #000000; stroke-width: 1.2"/>
    <path d="M 124.906653 66.78137 
L 70.556295 65.998597 
" clip-path="url(#p0a1863a94f)" style="fill: none; stroke: #000000; stroke-width: 1.2"/>
    <path d="M 124.906653 66.78137 
L 102.99355 105.505791 
" clip-path="url(#p0a1863a94f)" style="fill: none; stroke: #000000; stroke-width: 1.2"/>
    <path d="M 124.906653 66.78137 
L 83.472939 88.60932 
" clip-path="url(#p0a1863a94f)" style="fill: none; stroke: #000000; stroke-width: 1.2"/>
    <path d="M 124.906653 66.78137 
L 149.149805 104.171145 
" clip-path="url(#p0a1863a94f)" style="fill: none; stroke: #000000; stroke-width: 1.2"/>
    <path d="M 148.605797 64.885281 
L 95.041523 67.906891 
" clip-path="url(#p0a1863a94f)" style="fill: none; stroke: #000000; stroke-width: 1.2"/>
    <path d="M 148.605797 64.885281 
L 164.291439 83.989884 
" clip-path="url(#p0a1863a94f)" style="fill: none; stroke: #000000; stroke-width: 1.2"/>
    <path d="M 148.605797 64.885281 
L 114.617629 61.644935 
" clip-path="url(#p0a1863a94f)" style="fill: none; stroke: #000000; stroke-width: 1.2"/>
    <path d="M 148.605797 64.885281 
L 124.613174 88.643065 
" clip-path="url(#p0a1863a94f)" style="fill: none; stroke: #000000; stroke-width: 1.2"/>
    <path d="M 148.605797 64.885281 
L 149.149805 104.171145 
" clip-path="url(#p0a1863a94f)" style="fill: none; stroke: #000000; stroke-width: 1.2"/>
    <path d="M 148.605797 64.885281 
L 104.713125 94.729124 
" clip-path="url(#p0a1863a94f)" style="fill: none; stroke: #000000; stroke-width: 1.2"/>
    <path d="M 95.041523 67.906891 
L 119.59352 77.186566 
" clip-path="url(#p0a1863a94f)" style="fill: none; stroke: #000000; stroke-width: 1.2"/>
    <path d="M 95.041523 67.906891 
L 114.617629 61.644935 
" clip-path="url(#p0a1863a94f)" style="fill: none; stroke: #000000; stroke-width: 1.2"/>
    <path d="M 95.041523 67.906891 
L 70.556295 65.998597 
" clip-path="url(#p0a1863a94f)" style="fill: none; stroke: #000000; stroke-width: 1.2"/>
    <path d="M 95.041523 67.906891 
L 122.044656 107.016601 
" clip-path="url(#p0a1863a94f)" style="fill: none; stroke: #000000; stroke-width: 1.2"/>
    <path d="M 95.041523 67.906891 
L 80.082507 105.025057 
" clip-path="url(#p0a1863a94f)" style="fill: none; stroke: #000000; stroke-width: 1.2"/>
    <path d="M 95.041523 67.906891 
L 104.713125 94.729124 
" clip-path="url(#p0a1863a94f)" style="fill: none; stroke: #000000; stroke-width: 1.2"/>
    <path d="M 119.59352 77.186566 
L 140.118942 67.230988 
" clip-path="url(#p0a1863a94f)" style="fill: none; stroke: #000000; stroke-width: 1.2"/>
    <path d="M 119.59352 77.186566 
L 164.291439 83.989884 
" clip-path="url(#p0a1863a94f)" style="fill: none; stroke: #000000; stroke-width: 1.2"/>
    <path d="M 119.59352 77.186566 
L 70.556295 65.998597 
" clip-path="url(#p0a1863a94f)" style="fill: none; stroke: #000000; stroke-width: 1.2"/>
    <path d="M 119.59352 77.186566 
L 80.082507 105.025057 
" clip-path="url(#p0a1863a94f)" style="fill: none; stroke: #000000; stroke-width: 1.2"/>
    <path d="M 119.59352 77.186566 
L 142.176833 118.380258 
" clip-path="url(#p0a1863a94f)" style="fill: none; stroke: #000000; stroke-width: 1.2"/>
    <path d="M 119.59352 77.186566 
L 111.693151 103.865641 
" clip-path="url(#p0a1863a94f)" style="fill: none; stroke: #000000; stroke-width: 1.2"/>
    <path d="M 140.118942 67.230988 
L 164.291439 83.989884 
" clip-path="url(#p0a1863a94f)" style="fill: none; stroke: #000000; stroke-width: 1.2"/>
    <path d="M 140.118942 67.230988 
L 114.617629 61.644935 
" clip-path="url(#p0a1863a94f)" style="fill: none; stroke: #000000; stroke-width: 1.2"/>
    <path d="M 140.118942 67.230988 
L 95.049615 87.997909 
" clip-path="url(#p0a1863a94f)" style="fill: none; stroke: #000000; stroke-width: 1.2"/>
    <path d="M 140.118942 67.230988 
L 111.693151 103.865641 
" clip-path="url(#p0a1863a94f)" style="fill: none; stroke: #000000; stroke-width: 1.2"/>
    <path d="M 140.118942 67.230988 
L 135.736881 103.358012 
" clip-path="url(#p0a1863a94f)" style="fill: none; stroke: #000000; stroke-width: 1.2"/>
    <path d="M 164.291439 83.989884 
L 114.617629 61.644935 
" clip-path="url(#p0a1863a94f)" style="fill: none; stroke: #000000; stroke-width: 1.2"/>
    <path d="M 164.291439 83.989884 
L 149.149805 104.171145 
" clip-path="url(#p0a1863a94f)" style="fill: none; stroke: #000000; stroke-width: 1.2"/>
    <path d="M 164.291439 83.989884 
L 142.176833 118.380258 
" clip-path="url(#p0a1863a94f)" style="fill: none; stroke: #000000; stroke-width: 1.2"/>
    <path d="M 164.291439 83.989884 
L 135.736881 103.358012 
" clip-path="url(#p0a1863a94f)" style="fill: none; stroke: #000000; stroke-width: 1.2"/>
    <path d="M 114.617629 61.644935 
L 70.556295 65.998597 
" clip-path="url(#p0a1863a94f)" style="fill: none; stroke: #000000; stroke-width: 1.2"/>
    <path d="M 114.617629 61.644935 
L 135.736881 103.358012 
" clip-path="url(#p0a1863a94f)" style="fill: none; stroke: #000000; stroke-width: 1.2"/>
    <path d="M 114.617629 61.644935 
L 104.713125 94.729124 
" clip-path="url(#p0a1863a94f)" style="fill: none; stroke: #000000; stroke-width: 1.2"/>
    <path d="M 114.617629 61.644935 
L 68.605829 92.292437 
" clip-path="url(#p0a1863a94f)" style="fill: none; stroke: #000000; stroke-width: 1.2"/>
    <path d="M 70.556295 65.998597 
L 83.472939 88.60932 
" clip-path="url(#p0a1863a94f)" style="fill: none; stroke: #000000; stroke-width: 1.2"/>
    <path d="M 70.556295 65.998597 
L 80.082507 105.025057 
" clip-path="url(#p0a1863a94f)" style="fill: none; stroke: #000000; stroke-width: 1.2"/>
    <path d="M 70.556295 65.998597 
L 68.605829 92.292437 
" clip-path="url(#p0a1863a94f)" style="fill: none; stroke: #000000; stroke-width: 1.2"/>
    <path d="M 124.613174 88.643065 
L 95.049615 87.997909 
" clip-path="url(#p0a1863a94f)" style="fill: none; stroke: #000000; stroke-width: 1.2"/>
    <path d="M 124.613174 88.643065 
L 122.044656 107.016601 
" clip-path="url(#p0a1863a94f)" style="fill: none; stroke: #000000; stroke-width: 1.2"/>
    <path d="M 124.613174 88.643065 
L 83.472939 88.60932 
" clip-path="url(#p0a1863a94f)" style="fill: none; stroke: #000000; stroke-width: 1.2"/>
    <path d="M 124.613174 88.643065 
L 149.149805 104.171145 
" clip-path="url(#p0a1863a94f)" style="fill: none; stroke: #000000; stroke-width: 1.2"/>
    <path d="M 124.613174 88.643065 
L 111.693151 103.865641 
" clip-path="url(#p0a1863a94f)" style="fill: none; stroke: #000000; stroke-width: 1.2"/>
    <path d="M 124.613174 88.643065 
L 104.713125 94.729124 
" clip-path="url(#p0a1863a94f)" style="fill: none; stroke: #000000; stroke-width: 1.2"/>
    <path d="M 124.613174 88.643065 
L 77.533159 119.478643 
" clip-path="url(#p0a1863a94f)" style="fill: none; stroke: #000000; stroke-width: 1.2"/>
    <path d="M 124.613174 88.643065 
L 94.887669 123.174647 
" clip-path="url(#p0a1863a94f)" style="fill: none; stroke: #000000; stroke-width: 1.2"/>
    <path d="M 124.613174 88.643065 
L 129.936268 127.614244 
" clip-path="url(#p0a1863a94f)" style="fill: none; stroke: #000000; stroke-width: 1.2"/>
    <path d="M 95.049615 87.997909 
L 122.044656 107.016601 
" clip-path="url(#p0a1863a94f)" style="fill: none; stroke: #000000; stroke-width: 1.2"/>
    <path d="M 95.049615 87.997909 
L 102.99355 105.505791 
" clip-path="url(#p0a1863a94f)" style="fill: none; stroke: #000000; stroke-width: 1.2"/>
    <path d="M 95.049615 87.997909 
L 111.693151 103.865641 
" clip-path="url(#p0a1863a94f)" style="fill: none; stroke: #000000; stroke-width: 1.2"/>
    <path d="M 95.049615 87.997909 
L 135.736881 103.358012 
" clip-path="url(#p0a1863a94f)" style="fill: none; stroke: #000000; stroke-width: 1.2"/>
    <path d="M 95.049615 87.997909 
L 68.605829 92.292437 
" clip-path="url(#p0a1863a94f)" style="fill: none; stroke: #000000; stroke-width: 1.2"/>
    <path d="M 95.049615 87.997909 
L 94.887669 123.174647 
" clip-path="url(#p0a1863a94f)" style="fill: none; stroke: #000000; stroke-width: 1.2"/>
    <path d="M 95.049615 87.997909 
L 69.850423 127.935936 
" clip-path="url(#p0a1863a94f)" style="fill: none; stroke: #000000; stroke-width: 1.2"/>
    <path d="M 95.049615 87.997909 
L 119.255267 132.926383 
" clip-path="url(#p0a1863a94f)" style="fill: none; stroke: #000000; stroke-width: 1.2"/>
    <path d="M 122.044656 107.016601 
L 102.99355 105.505791 
" clip-path="url(#p0a1863a94f)" style="fill: none; stroke: #000000; stroke-width: 1.2"/>
    <path d="M 122.044656 107.016601 
L 80.082507 105.025057 
" clip-path="url(#p0a1863a94f)" style="fill: none; stroke: #000000; stroke-width: 1.2"/>
    <path d="M 122.044656 107.016601 
L 142.176833 118.380258 
" clip-path="url(#p0a1863a94f)" style="fill: none; stroke: #000000; stroke-width: 1.2"/>
    <path d="M 122.044656 107.016601 
L 104.713125 94.729124 
" clip-path="url(#p0a1863a94f)" style="fill: none; stroke: #000000; stroke-width: 1.2"/>
    <path d="M 122.044656 107.016601 
L 94.887669 123.174647 
" clip-path="url(#p0a1863a94f)" style="fill: none; stroke: #000000; stroke-width: 1.2"/>
    <path d="M 122.044656 107.016601 
L 117.611296 146.999373 
" clip-path="url(#p0a1863a94f)" style="fill: none; stroke: #000000; stroke-width: 1.2"/>
    <path d="M 122.044656 107.016601 
L 77.202022 136.779482 
" clip-path="url(#p0a1863a94f)" style="fill: none; stroke: #000000; stroke-width: 1.2"/>
    <path d="M 102.99355 105.505791 
L 83.472939 88.60932 
" clip-path="url(#p0a1863a94f)" style="fill: none; stroke: #000000; stroke-width: 1.2"/>
    <path d="M 102.99355 105.505791 
L 149.149805 104.171145 
" clip-path="url(#p0a1863a94f)" style="fill: none; stroke: #000000; stroke-width: 1.2"/>
    <path d="M 102.99355 105.505791 
L 142.176833 118.380258 
" clip-path="url(#p0a1863a94f)" style="fill: none; stroke: #000000; stroke-width: 1.2"/>
    <path d="M 102.99355 105.505791 
L 68.605829 92.292437 
" clip-path="url(#p0a1863a94f)" style="fill: none; stroke: #000000; stroke-width: 1.2"/>
    <path d="M 102.99355 105.505791 
L 117.611296 146.999373 
" clip-path="url(#p0a1863a94f)" style="fill: none; stroke: #000000; stroke-width: 1.2"/>
    <path d="M 102.99355 105.505791 
L 69.850423 127.935936 
" clip-path="url(#p0a1863a94f)" style="fill: none; stroke: #000000; stroke-width: 1.2"/>
    <path d="M 102.99355 105.505791 
L 104.796461 133.344982 
" clip-path="url(#p0a1863a94f)" style="fill: none; stroke: #000000; stroke-width: 1.2"/>
    <path d="M 83.472939 88.60932 
L 149.149805 104.171145 
" clip-path="url(#p0a1863a94f)" style="fill: none; stroke: #000000; stroke-width: 1.2"/>
    <path d="M 83.472939 88.60932 
L 80.082507 105.025057 
" clip-path="url(#p0a1863a94f)" style="fill: none; stroke: #000000; stroke-width: 1.2"/>
    <path d="M 83.472939 88.60932 
L 111.693151 103.865641 
" clip-path="url(#p0a1863a94f)" style="fill: none; stroke: #000000; stroke-width: 1.2"/>
    <path d="M 83.472939 88.60932 
L 68.605829 92.292437 
" clip-path="url(#p0a1863a94f)" style="fill: none; stroke: #000000; stroke-width: 1.2"/>
    <path d="M 83.472939 88.60932 
L 77.533159 119.478643 
" clip-path="url(#p0a1863a94f)" style="fill: none; stroke: #000000; stroke-width: 1.2"/>
    <path d="M 83.472939 88.60932 
L 104.796461 133.344982 
" clip-path="url(#p0a1863a94f)" style="fill: none; stroke: #000000; stroke-width: 1.2"/>
    <path d="M 83.472939 88.60932 
L 55.368595 120.753619 
" clip-path="url(#p0a1863a94f)" style="fill: none; stroke: #000000; stroke-width: 1.2"/>
    <path d="M 149.149805 104.171145 
L 142.176833 118.380258 
" clip-path="url(#p0a1863a94f)" style="fill: none; stroke: #000000; stroke-width: 1.2"/>
    <path d="M 149.149805 104.171145 
L 135.736881 103.358012 
" clip-path="url(#p0a1863a94f)" style="fill: none; stroke: #000000; stroke-width: 1.2"/>
    <path d="M 149.149805 104.171145 
L 104.713125 94.729124 
" clip-path="url(#p0a1863a94f)" style="fill: none; stroke: #000000; stroke-width: 1.2"/>
    <path d="M 149.149805 104.171145 
L 104.796461 133.344982 
" clip-path="url(#p0a1863a94f)" style="fill: none; stroke: #000000; stroke-width: 1.2"/>
    <path d="M 149.149805 104.171145 
L 129.936268 127.614244 
" clip-path="url(#p0a1863a94f)" style="fill: none; stroke: #000000; stroke-width: 1.2"/>
    <path d="M 149.149805 104.171145 
L 146.254422 141.344728 
" clip-path="url(#p0a1863a94f)" style="fill: none; stroke: #000000; stroke-width: 1.2"/>
    <path d="M 80.082507 105.025057 
L 142.176833 118.380258 
" clip-path="url(#p0a1863a94f)" style="fill: none; stroke: #000000; stroke-width: 1.2"/>
    <path d="M 80.082507 105.025057 
L 111.693151 103.865641 
" clip-path="url(#p0a1863a94f)" style="fill: none; stroke: #000000; stroke-width: 1.2"/>
    <path d="M 80.082507 105.025057 
L 104.713125 94.729124 
" clip-path="url(#p0a1863a94f)" style="fill: none; stroke: #000000; stroke-width: 1.2"/>
    <path d="M 80.082507 105.025057 
L 68.605829 92.292437 
" clip-path="url(#p0a1863a94f)" style="fill: none; stroke: #000000; stroke-width: 1.2"/>
    <path d="M 80.082507 105.025057 
L 77.202022 136.779482 
" clip-path="url(#p0a1863a94f)" style="fill: none; stroke: #000000; stroke-width: 1.2"/>
    <path d="M 80.082507 105.025057 
L 98.630792 147.020073 
" clip-path="url(#p0a1863a94f)" style="fill: none; stroke: #000000; stroke-width: 1.2"/>
    <path d="M 80.082507 105.025057 
L 55.368595 120.753619 
" clip-path="url(#p0a1863a94f)" style="fill: none; stroke: #000000; stroke-width: 1.2"/>
    <path d="M 142.176833 118.380258 
L 111.693151 103.865641 
" clip-path="url(#p0a1863a94f)" style="fill: none; stroke: #000000; stroke-width: 1.2"/>
    <path d="M 142.176833 118.380258 
L 135.736881 103.358012 
" clip-path="url(#p0a1863a94f)" style="fill: none; stroke: #000000; stroke-width: 1.2"/>
    <path d="M 142.176833 118.380258 
L 117.611296 146.999373 
" clip-path="url(#p0a1863a94f)" style="fill: none; stroke: #000000; stroke-width: 1.2"/>
    <path d="M 142.176833 118.380258 
L 98.630792 147.020073 
" clip-path="url(#p0a1863a94f)" style="fill: none; stroke: #000000; stroke-width: 1.2"/>
    <path d="M 142.176833 118.380258 
L 146.254422 141.344728 
" clip-path="url(#p0a1863a94f)" style="fill: none; stroke: #000000; stroke-width: 1.2"/>
    <path d="M 111.693151 103.865641 
L 135.736881 103.358012 
" clip-path="url(#p0a1863a94f)" style="fill: none; stroke: #000000; stroke-width: 1.2"/>
    <path d="M 111.693151 103.865641 
L 77.533159 119.478643 
" clip-path="url(#p0a1863a94f)" style="fill: none; stroke: #000000; stroke-width: 1.2"/>
    <path d="M 111.693151 103.865641 
L 98.630792 147.020073 
" clip-path="url(#p0a1863a94f)" style="fill: none; stroke: #000000; stroke-width: 1.2"/>
    <path d="M 111.693151 103.865641 
L 119.255267 132.926383 
" clip-path="url(#p0a1863a94f)" style="fill: none; stroke: #000000; stroke-width: 1.2"/>
    <path d="M 135.736881 103.358012 
L 104.713125 94.729124 
" clip-path="url(#p0a1863a94f)" style="fill: none; stroke: #000000; stroke-width: 1.2"/>
    <path d="M 135.736881 103.358012 
L 68.605829 92.292437 
" clip-path="url(#p0a1863a94f)" style="fill: none; stroke: #000000; stroke-width: 1.2"/>
    <path d="M 135.736881 103.358012 
L 119.255267 132.926383 
" clip-path="url(#p0a1863a94f)" style="fill: none; stroke: #000000; stroke-width: 1.2"/>
    <path d="M 135.736881 103.358012 
L 146.254422 141.344728 
" clip-path="url(#p0a1863a94f)" style="fill: none; stroke: #000000; stroke-width: 1.2"/>
    <path d="M 135.736881 103.358012 
L 95.322647 133.639681 
" clip-path="url(#p0a1863a94f)" style="fill: none; stroke: #000000; stroke-width: 1.2"/>
    <path d="M 104.713125 94.729124 
L 68.605829 92.292437 
" clip-path="url(#p0a1863a94f)" style="fill: none; stroke: #000000; stroke-width: 1.2"/>
    <path d="M 104.713125 94.729124 
L 129.936268 127.614244 
" clip-path="url(#p0a1863a94f)" style="fill: none; stroke: #000000; stroke-width: 1.2"/>
    <path d="M 104.713125 94.729124 
L 77.202022 136.779482 
" clip-path="url(#p0a1863a94f)" style="fill: none; stroke: #000000; stroke-width: 1.2"/>
    <path d="M 104.713125 94.729124 
L 95.322647 133.639681 
" clip-path="url(#p0a1863a94f)" style="fill: none; stroke: #000000; stroke-width: 1.2"/>
    <path d="M 68.605829 92.292437 
L 69.850423 127.935936 
" clip-path="url(#p0a1863a94f)" style="fill: none; stroke: #000000; stroke-width: 1.2"/>
    <path d="M 68.605829 92.292437 
L 95.322647 133.639681 
" clip-path="url(#p0a1863a94f)" style="fill: none; stroke: #000000; stroke-width: 1.2"/>
    <path d="M 68.605829 92.292437 
L 55.368595 120.753619 
" clip-path="url(#p0a1863a94f)" style="fill: none; stroke: #000000; stroke-width: 1.2"/>
    <path d="M 77.533159 119.478643 
L 94.887669 123.174647 
" clip-path="url(#p0a1863a94f)" style="fill: none; stroke: #000000; stroke-width: 1.2"/>
    <path d="M 77.533159 119.478643 
L 104.796461 133.344982 
" clip-path="url(#p0a1863a94f)" style="fill: none; stroke: #000000; stroke-width: 1.2"/>
    <path d="M 77.533159 119.478643 
L 129.936268 127.614244 
" clip-path="url(#p0a1863a94f)" style="fill: none; stroke: #000000; stroke-width: 1.2"/>
    <path d="M 77.533159 119.478643 
L 98.630792 147.020073 
" clip-path="url(#p0a1863a94f)" style="fill: none; stroke: #000000; stroke-width: 1.2"/>
    <path d="M 77.533159 119.478643 
L 119.255267 132.926383 
" clip-path="url(#p0a1863a94f)" style="fill: none; stroke: #000000; stroke-width: 1.2"/>
    <path d="M 77.533159 119.478643 
L 55.368595 120.753619 
" clip-path="url(#p0a1863a94f)" style="fill: none; stroke: #000000; stroke-width: 1.2"/>
    <path d="M 94.887669 123.174647 
L 117.611296 146.999373 
" clip-path="url(#p0a1863a94f)" style="fill: none; stroke: #000000; stroke-width: 1.2"/>
    <path d="M 94.887669 123.174647 
L 69.850423 127.935936 
" clip-path="url(#p0a1863a94f)" style="fill: none; stroke: #000000; stroke-width: 1.2"/>
    <path d="M 94.887669 123.174647 
L 129.936268 127.614244 
" clip-path="url(#p0a1863a94f)" style="fill: none; stroke: #000000; stroke-width: 1.2"/>
    <path d="M 94.887669 123.174647 
L 77.202022 136.779482 
" clip-path="url(#p0a1863a94f)" style="fill: none; stroke: #000000; stroke-width: 1.2"/>
    <path d="M 94.887669 123.174647 
L 119.255267 132.926383 
" clip-path="url(#p0a1863a94f)" style="fill: none; stroke: #000000; stroke-width: 1.2"/>
    <path d="M 117.611296 146.999373 
L 69.850423 127.935936 
" clip-path="url(#p0a1863a94f)" style="fill: none; stroke: #000000; stroke-width: 1.2"/>
    <path d="M 117.611296 146.999373 
L 104.796461 133.344982 
" clip-path="url(#p0a1863a94f)" style="fill: none; stroke: #000000; stroke-width: 1.2"/>
    <path d="M 117.611296 146.999373 
L 77.202022 136.779482 
" clip-path="url(#p0a1863a94f)" style="fill: none; stroke: #000000; stroke-width: 1.2"/>
    <path d="M 117.611296 146.999373 
L 98.630792 147.020073 
" clip-path="url(#p0a1863a94f)" style="fill: none; stroke: #000000; stroke-width: 1.2"/>
    <path d="M 117.611296 146.999373 
L 146.254422 141.344728 
" clip-path="url(#p0a1863a94f)" style="fill: none; stroke: #000000; stroke-width: 1.2"/>
    <path d="M 117.611296 146.999373 
L 111.502615 185.597673 
" clip-path="url(#p0a1863a94f)" style="fill: none; stroke: #000000; stroke-width: 1.2"/>
    <path d="M 117.611296 146.999373 
L 132.39053 169.647136 
" clip-path="url(#p0a1863a94f)" style="fill: none; stroke: #000000; stroke-width: 1.2"/>
    <path d="M 69.850423 127.935936 
L 104.796461 133.344982 
" clip-path="url(#p0a1863a94f)" style="fill: none; stroke: #000000; stroke-width: 1.2"/>
    <path d="M 69.850423 127.935936 
L 119.255267 132.926383 
" clip-path="url(#p0a1863a94f)" style="fill: none; stroke: #000000; stroke-width: 1.2"/>
    <path d="M 69.850423 127.935936 
L 95.322647 133.639681 
" clip-path="url(#p0a1863a94f)" style="fill: none; stroke: #000000; stroke-width: 1.2"/>
    <path d="M 69.850423 127.935936 
L 55.368595 120.753619 
" clip-path="url(#p0a1863a94f)" style="fill: none; stroke: #000000; stroke-width: 1.2"/>
    <path d="M 104.796461 133.344982 
L 129.936268 127.614244 
" clip-path="url(#p0a1863a94f)" style="fill: none; stroke: #000000; stroke-width: 1.2"/>
    <path d="M 104.796461 133.344982 
L 146.254422 141.344728 
" clip-path="url(#p0a1863a94f)" style="fill: none; stroke: #000000; stroke-width: 1.2"/>
    <path d="M 104.796461 133.344982 
L 55.368595 120.753619 
" clip-path="url(#p0a1863a94f)" style="fill: none; stroke: #000000; stroke-width: 1.2"/>
    <path d="M 129.936268 127.614244 
L 77.202022 136.779482 
" clip-path="url(#p0a1863a94f)" style="fill: none; stroke: #000000; stroke-width: 1.2"/>
    <path d="M 129.936268 127.614244 
L 146.254422 141.344728 
" clip-path="url(#p0a1863a94f)" style="fill: none; stroke: #000000; stroke-width: 1.2"/>
    <path d="M 129.936268 127.614244 
L 95.322647 133.639681 
" clip-path="url(#p0a1863a94f)" style="fill: none; stroke: #000000; stroke-width: 1.2"/>
    <path d="M 77.202022 136.779482 
L 98.630792 147.020073 
" clip-path="url(#p0a1863a94f)" style="fill: none; stroke: #000000; stroke-width: 1.2"/>
    <path d="M 77.202022 136.779482 
L 95.322647 133.639681 
" clip-path="url(#p0a1863a94f)" style="fill: none; stroke: #000000; stroke-width: 1.2"/>
    <path d="M 77.202022 136.779482 
L 55.368595 120.753619 
" clip-path="url(#p0a1863a94f)" style="fill: none; stroke: #000000; stroke-width: 1.2"/>
    <path d="M 98.630792 147.020073 
L 119.255267 132.926383 
" clip-path="url(#p0a1863a94f)" style="fill: none; stroke: #000000; stroke-width: 1.2"/>
    <path d="M 98.630792 147.020073 
L 146.254422 141.344728 
" clip-path="url(#p0a1863a94f)" style="fill: none; stroke: #000000; stroke-width: 1.2"/>
    <path d="M 98.630792 147.020073 
L 55.368595 120.753619 
" clip-path="url(#p0a1863a94f)" style="fill: none; stroke: #000000; stroke-width: 1.2"/>
    <path d="M 98.630792 147.020073 
L 87.885316 181.382787 
" clip-path="url(#p0a1863a94f)" style="fill: none; stroke: #000000; stroke-width: 1.2"/>
    <path d="M 98.630792 147.020073 
L 132.39053 169.647136 
" clip-path="url(#p0a1863a94f)" style="fill: none; stroke: #000000; stroke-width: 1.2"/>
    <path d="M 119.255267 132.926383 
L 146.254422 141.344728 
" clip-path="url(#p0a1863a94f)" style="fill: none; stroke: #000000; stroke-width: 1.2"/>
    <path d="M 119.255267 132.926383 
L 95.322647 133.639681 
" clip-path="url(#p0a1863a94f)" style="fill: none; stroke: #000000; stroke-width: 1.2"/>
    <path d="M 146.254422 141.344728 
L 95.322647 133.639681 
" clip-path="url(#p0a1863a94f)" style="fill: none; stroke: #000000; stroke-width: 1.2"/>
    <path d="M 146.254422 141.344728 
L 132.39053 169.647136 
" clip-path="url(#p0a1863a94f)" style="fill: none; stroke: #000000; stroke-width: 1.2"/>
    <path d="M 146.254422 141.344728 
L 173.8965 167.200768 
" clip-path="url(#p0a1863a94f)" style="fill: none; stroke: #000000; stroke-width: 1.2"/>
    <path d="M 95.322647 133.639681 
L 55.368595 120.753619 
" clip-path="url(#p0a1863a94f)" style="fill: none; stroke: #000000; stroke-width: 1.2"/>
    <path d="M 182.215326 237.076364 
L 193.6475 199.224029 
" clip-path="url(#p0a1863a94f)" style="fill: none; stroke: #000000; stroke-width: 1.2"/>
    <path d="M 216.473466 225.272541 
L 193.6475 199.224029 
" clip-path="url(#p0a1863a94f)" style="fill: none; stroke: #000000; stroke-width: 1.2"/>
    <path d="M 239.831405 199.677363 
L 193.6475 199.224029 
" clip-path="url(#p0a1863a94f)" style="fill: none; stroke: #000000; stroke-width: 1.2"/>
    <path d="M 87.885316 181.382787 
L 132.39053 169.647136 
" clip-path="url(#p0a1863a94f)" style="fill: none; stroke: #000000; stroke-width: 1.2"/>
    <path d="M 111.502615 185.597673 
L 132.39053 169.647136 
" clip-path="url(#p0a1863a94f)" style="fill: none; stroke: #000000; stroke-width: 1.2"/>
    <path d="M 218.269323 160.0078 
L 173.8965 167.200768 
" clip-path="url(#p0a1863a94f)" style="fill: none; stroke: #000000; stroke-width: 1.2"/>
    <path d="M 132.39053 169.647136 
L 173.8965 167.200768 
" clip-path="url(#p0a1863a94f)" style="fill: none; stroke: #000000; stroke-width: 1.2"/>
    <path d="M 173.8965 167.200768 
L 193.6475 199.224029 
" clip-path="url(#p0a1863a94f)" style="fill: none; stroke: #000000; stroke-width: 1.2"/>
   </g>
   <g id="PathCollection_1">
    <defs>
     <path id="C0_0_c355b9d2f3" d="M 0 8.944272 
C 2.372049 8.944272 4.647264 8.001847 6.324555 6.324555 
C 8.001847 4.647264 8.944272 2.372049 8.944272 -0 
C 8.944272 -2.372049 8.001847 -4.647264 6.324555 -6.324555 
C 4.647264 -8.001847 2.372049 -8.944272 0 -8.944272 
C -2.372049 -8.944272 -4.647264 -8.001847 -6.324555 -6.324555 
C -8.001847 -4.647264 -8.944272 -2.372049 -8.944272 0 
C -8.944272 2.372049 -8.001847 4.647264 -6.324555 6.324555 
C -4.647264 8.001847 -2.372049 8.944272 0 8.944272 
z
"/>
    </defs>
    <g clip-path="url(#p0a1863a94f)">
     <use xlink:href="#C0_0_c355b9d2f3" x="102.609968" y="54.586064" style="fill: #266696; stroke: #266696; stroke-width: 0.5"/>
    </g>
    <g clip-path="url(#p0a1863a94f)">
     <use xlink:href="#C0_0_c355b9d2f3" x="124.59536" y="53.803636" style="fill: #266696; stroke: #266696; stroke-width: 0.5"/>
    </g>
    <g clip-path="url(#p0a1863a94f)">
     <use xlink:href="#C0_0_c355b9d2f3" x="144.971438" y="80.926355" style="fill: #266696; stroke: #266696; stroke-width: 0.5"/>
    </g>
    <g clip-path="url(#p0a1863a94f)">
     <use xlink:href="#C0_0_c355b9d2f3" x="90.523921" y="59.587332" style="fill: #266696; stroke: #266696; stroke-width: 0.5"/>
    </g>
    <g clip-path="url(#p0a1863a94f)">
     <use xlink:href="#C0_0_c355b9d2f3" x="124.906653" y="66.78137" style="fill: #266696; stroke: #266696; stroke-width: 0.5"/>
    </g>
    <g clip-path="url(#p0a1863a94f)">
     <use xlink:href="#C0_0_c355b9d2f3" x="148.605797" y="64.885281" style="fill: #266696; stroke: #266696; stroke-width: 0.5"/>
    </g>
    <g clip-path="url(#p0a1863a94f)">
     <use xlink:href="#C0_0_c355b9d2f3" x="95.041523" y="67.906891" style="fill: #266696; stroke: #266696; stroke-width: 0.5"/>
    </g>
    <g clip-path="url(#p0a1863a94f)">
     <use xlink:href="#C0_0_c355b9d2f3" x="119.59352" y="77.186566" style="fill: #266696; stroke: #266696; stroke-width: 0.5"/>
    </g>
    <g clip-path="url(#p0a1863a94f)">
     <use xlink:href="#C0_0_c355b9d2f3" x="140.118942" y="67.230988" style="fill: #266696; stroke: #266696; stroke-width: 0.5"/>
    </g>
    <g clip-path="url(#p0a1863a94f)">
     <use xlink:href="#C0_0_c355b9d2f3" x="164.291439" y="83.989884" style="fill: #266696; stroke: #266696; stroke-width: 0.5"/>
    </g>
    <g clip-path="url(#p0a1863a94f)">
     <use xlink:href="#C0_0_c355b9d2f3" x="114.617629" y="61.644935" style="fill: #266696; stroke: #266696; stroke-width: 0.5"/>
    </g>
    <g clip-path="url(#p0a1863a94f)">
     <use xlink:href="#C0_0_c355b9d2f3" x="70.556295" y="65.998597" style="fill: #266696; stroke: #266696; stroke-width: 0.5"/>
    </g>
    <g clip-path="url(#p0a1863a94f)">
     <use xlink:href="#C0_0_c355b9d2f3" x="124.613174" y="88.643065" style="fill: #266696; stroke: #266696; stroke-width: 0.5"/>
    </g>
    <g clip-path="url(#p0a1863a94f)">
     <use xlink:href="#C0_0_c355b9d2f3" x="95.049615" y="87.997909" style="fill: #266696; stroke: #266696; stroke-width: 0.5"/>
    </g>
    <g clip-path="url(#p0a1863a94f)">
     <use xlink:href="#C0_0_c355b9d2f3" x="122.044656" y="107.016601" style="fill: #266696; stroke: #266696; stroke-width: 0.5"/>
    </g>
    <g clip-path="url(#p0a1863a94f)">
     <use xlink:href="#C0_0_c355b9d2f3" x="102.99355" y="105.505791" style="fill: #266696; stroke: #266696; stroke-width: 0.5"/>
    </g>
    <g clip-path="url(#p0a1863a94f)">
     <use xlink:href="#C0_0_c355b9d2f3" x="83.472939" y="88.60932" style="fill: #266696; stroke: #266696; stroke-width: 0.5"/>
    </g>
    <g clip-path="url(#p0a1863a94f)">
     <use xlink:href="#C0_0_c355b9d2f3" x="149.149805" y="104.171145" style="fill: #266696; stroke: #266696; stroke-width: 0.5"/>
    </g>
    <g clip-path="url(#p0a1863a94f)">
     <use xlink:href="#C0_0_c355b9d2f3" x="80.082507" y="105.025057" style="fill: #266696; stroke: #266696; stroke-width: 0.5"/>
    </g>
    <g clip-path="url(#p0a1863a94f)">
     <use xlink:href="#C0_0_c355b9d2f3" x="142.176833" y="118.380258" style="fill: #266696; stroke: #266696; stroke-width: 0.5"/>
    </g>
    <g clip-path="url(#p0a1863a94f)">
     <use xlink:href="#C0_0_c355b9d2f3" x="111.693151" y="103.865641" style="fill: #266696; stroke: #266696; stroke-width: 0.5"/>
    </g>
    <g clip-path="url(#p0a1863a94f)">
     <use xlink:href="#C0_0_c355b9d2f3" x="135.736881" y="103.358012" style="fill: #266696; stroke: #266696; stroke-width: 0.5"/>
    </g>
    <g clip-path="url(#p0a1863a94f)">
     <use xlink:href="#C0_0_c355b9d2f3" x="104.713125" y="94.729124" style="fill: #266696; stroke: #266696; stroke-width: 0.5"/>
    </g>
    <g clip-path="url(#p0a1863a94f)">
     <use xlink:href="#C0_0_c355b9d2f3" x="68.605829" y="92.292437" style="fill: #266696; stroke: #266696; stroke-width: 0.5"/>
    </g>
    <g clip-path="url(#p0a1863a94f)">
     <use xlink:href="#C0_0_c355b9d2f3" x="77.533159" y="119.478643" style="fill: #266696; stroke: #266696; stroke-width: 0.5"/>
    </g>
    <g clip-path="url(#p0a1863a94f)">
     <use xlink:href="#C0_0_c355b9d2f3" x="94.887669" y="123.174647" style="fill: #266696; stroke: #266696; stroke-width: 0.5"/>
    </g>
    <g clip-path="url(#p0a1863a94f)">
     <use xlink:href="#C0_0_c355b9d2f3" x="117.611296" y="146.999373" style="fill: #266696; stroke: #266696; stroke-width: 0.5"/>
    </g>
    <g clip-path="url(#p0a1863a94f)">
     <use xlink:href="#C0_0_c355b9d2f3" x="69.850423" y="127.935936" style="fill: #266696; stroke: #266696; stroke-width: 0.5"/>
    </g>
    <g clip-path="url(#p0a1863a94f)">
     <use xlink:href="#C0_0_c355b9d2f3" x="104.796461" y="133.344982" style="fill: #266696; stroke: #266696; stroke-width: 0.5"/>
    </g>
    <g clip-path="url(#p0a1863a94f)">
     <use xlink:href="#C0_0_c355b9d2f3" x="129.936268" y="127.614244" style="fill: #266696; stroke: #266696; stroke-width: 0.5"/>
    </g>
    <g clip-path="url(#p0a1863a94f)">
     <use xlink:href="#C0_0_c355b9d2f3" x="77.202022" y="136.779482" style="fill: #266696; stroke: #266696; stroke-width: 0.5"/>
    </g>
    <g clip-path="url(#p0a1863a94f)">
     <use xlink:href="#C0_0_c355b9d2f3" x="98.630792" y="147.020073" style="fill: #266696; stroke: #266696; stroke-width: 0.5"/>
    </g>
    <g clip-path="url(#p0a1863a94f)">
     <use xlink:href="#C0_0_c355b9d2f3" x="119.255267" y="132.926383" style="fill: #266696; stroke: #266696; stroke-width: 0.5"/>
    </g>
    <g clip-path="url(#p0a1863a94f)">
     <use xlink:href="#C0_0_c355b9d2f3" x="146.254422" y="141.344728" style="fill: #266696; stroke: #266696; stroke-width: 0.5"/>
    </g>
    <g clip-path="url(#p0a1863a94f)">
     <use xlink:href="#C0_0_c355b9d2f3" x="95.322647" y="133.639681" style="fill: #266696; stroke: #266696; stroke-width: 0.5"/>
    </g>
    <g clip-path="url(#p0a1863a94f)">
     <use xlink:href="#C0_0_c355b9d2f3" x="55.368595" y="120.753619" style="fill: #266696; stroke: #266696; stroke-width: 0.5"/>
    </g>
    <g clip-path="url(#p0a1863a94f)">
     <use xlink:href="#C0_0_c355b9d2f3" x="182.215326" y="237.076364" style="fill: #bfbfbf; stroke: #bfbfbf; stroke-width: 0.5"/>
    </g>
    <g clip-path="url(#p0a1863a94f)">
     <use xlink:href="#C0_0_c355b9d2f3" x="216.473466" y="225.272541" style="fill: #bfbfbf; stroke: #bfbfbf; stroke-width: 0.5"/>
    </g>
    <g clip-path="url(#p0a1863a94f)">
     <use xlink:href="#C0_0_c355b9d2f3" x="239.831405" y="199.677363" style="fill: #bfbfbf; stroke: #bfbfbf; stroke-width: 0.5"/>
    </g>
    <g clip-path="url(#p0a1863a94f)">
     <use xlink:href="#C0_0_c355b9d2f3" x="87.885316" y="181.382787" style="fill: #bfbfbf; stroke: #bfbfbf; stroke-width: 0.5"/>
    </g>
    <g clip-path="url(#p0a1863a94f)">
     <use xlink:href="#C0_0_c355b9d2f3" x="111.502615" y="185.597673" style="fill: #bfbfbf; stroke: #bfbfbf; stroke-width: 0.5"/>
    </g>
    <g clip-path="url(#p0a1863a94f)">
     <use xlink:href="#C0_0_c355b9d2f3" x="218.269323" y="160.0078" style="fill: #bfbfbf; stroke: #bfbfbf; stroke-width: 0.5"/>
    </g>
    <g clip-path="url(#p0a1863a94f)">
     <use xlink:href="#C0_0_c355b9d2f3" x="132.39053" y="169.647136" style="fill: #666666; stroke: #666666; stroke-width: 0.5"/>
    </g>
    <g clip-path="url(#p0a1863a94f)">
     <use xlink:href="#C0_0_c355b9d2f3" x="173.8965" y="167.200768" style="fill: #666666; stroke: #666666; stroke-width: 0.5"/>
    </g>
    <g clip-path="url(#p0a1863a94f)">
     <use xlink:href="#C0_0_c355b9d2f3" x="193.6475" y="199.224029" style="fill: #666666; stroke: #666666; stroke-width: 0.5"/>
    </g>
   </g>
   <g id="text_1">
    <!-- C3H6Os48 -->
    <g transform="translate(126.47669 0.064993) scale(0.1 -0.1)">
     <defs>
      <path id="DejaVuSans-43" d="M 4122 4306 
L 4122 3641 
Q 3803 3938 3442 4084 
Q 3081 4231 2675 4231 
Q 1875 4231 1450 3742 
Q 1025 3253 1025 2328 
Q 1025 1406 1450 917 
Q 1875 428 2675 428 
Q 3081 428 3442 575 
Q 3803 722 4122 1019 
L 4122 359 
Q 3791 134 3420 21 
Q 3050 -91 2638 -91 
Q 1578 -91 968 557 
Q 359 1206 359 2328 
Q 359 3453 968 4101 
Q 1578 4750 2638 4750 
Q 3056 4750 3426 4639 
Q 3797 4528 4122 4306 
z
" transform="scale(0.015625)"/>
      <path id="DejaVuSans-33" d="M 2597 2516 
Q 3050 2419 3304 2112 
Q 3559 1806 3559 1356 
Q 3559 666 3084 287 
Q 2609 -91 1734 -91 
Q 1441 -91 1130 -33 
Q 819 25 488 141 
L 488 750 
Q 750 597 1062 519 
Q 1375 441 1716 441 
Q 2309 441 2620 675 
Q 2931 909 2931 1356 
Q 2931 1769 2642 2001 
Q 2353 2234 1838 2234 
L 1294 2234 
L 1294 2753 
L 1863 2753 
Q 2328 2753 2575 2939 
Q 2822 3125 2822 3475 
Q 2822 3834 2567 4026 
Q 2313 4219 1838 4219 
Q 1578 4219 1281 4162 
Q 984 4106 628 3988 
L 628 4550 
Q 988 4650 1302 4700 
Q 1616 4750 1894 4750 
Q 2613 4750 3031 4423 
Q 3450 4097 3450 3541 
Q 3450 3153 3228 2886 
Q 3006 2619 2597 2516 
z
" transform="scale(0.015625)"/>
      <path id="DejaVuSans-48" d="M 628 4666 
L 1259 4666 
L 1259 2753 
L 3553 2753 
L 3553 4666 
L 4184 4666 
L 4184 0 
L 3553 0 
L 3553 2222 
L 1259 2222 
L 1259 0 
L 628 0 
L 628 4666 
z
" transform="scale(0.015625)"/>
      <path id="DejaVuSans-36" d="M 2113 2584 
Q 1688 2584 1439 2293 
Q 1191 2003 1191 1497 
Q 1191 994 1439 701 
Q 1688 409 2113 409 
Q 2538 409 2786 701 
Q 3034 994 3034 1497 
Q 3034 2003 2786 2293 
Q 2538 2584 2113 2584 
z
M 3366 4563 
L 3366 3988 
Q 3128 4100 2886 4159 
Q 2644 4219 2406 4219 
Q 1781 4219 1451 3797 
Q 1122 3375 1075 2522 
Q 1259 2794 1537 2939 
Q 1816 3084 2150 3084 
Q 2853 3084 3261 2657 
Q 3669 2231 3669 1497 
Q 3669 778 3244 343 
Q 2819 -91 2113 -91 
Q 1303 -91 875 529 
Q 447 1150 447 2328 
Q 447 3434 972 4092 
Q 1497 4750 2381 4750 
Q 2619 4750 2861 4703 
Q 3103 4656 3366 4563 
z
" transform="scale(0.015625)"/>
      <path id="DejaVuSans-4f" d="M 2522 4238 
Q 1834 4238 1429 3725 
Q 1025 3213 1025 2328 
Q 1025 1447 1429 934 
Q 1834 422 2522 422 
Q 3209 422 3611 934 
Q 4013 1447 4013 2328 
Q 4013 3213 3611 3725 
Q 3209 4238 2522 4238 
z
M 2522 4750 
Q 3503 4750 4090 4092 
Q 4678 3434 4678 2328 
Q 4678 1225 4090 567 
Q 3503 -91 2522 -91 
Q 1538 -91 948 565 
Q 359 1222 359 2328 
Q 359 3434 948 4092 
Q 1538 4750 2522 4750 
z
" transform="scale(0.015625)"/>
      <path id="DejaVuSans-73" d="M 2834 3397 
L 2834 2853 
Q 2591 2978 2328 3040 
Q 2066 3103 1784 3103 
Q 1356 3103 1142 2972 
Q 928 2841 928 2578 
Q 928 2378 1081 2264 
Q 1234 2150 1697 2047 
L 1894 2003 
Q 2506 1872 2764 1633 
Q 3022 1394 3022 966 
Q 3022 478 2636 193 
Q 2250 -91 1575 -91 
Q 1294 -91 989 -36 
Q 684 19 347 128 
L 347 722 
Q 666 556 975 473 
Q 1284 391 1588 391 
Q 1994 391 2212 530 
Q 2431 669 2431 922 
Q 2431 1156 2273 1281 
Q 2116 1406 1581 1522 
L 1381 1569 
Q 847 1681 609 1914 
Q 372 2147 372 2553 
Q 372 3047 722 3315 
Q 1072 3584 1716 3584 
Q 2034 3584 2315 3537 
Q 2597 3491 2834 3397 
z
" transform="scale(0.015625)"/>
      <path id="DejaVuSans-34" d="M 2419 4116 
L 825 1625 
L 2419 1625 
L 2419 4116 
z
M 2253 4666 
L 3047 4666 
L 3047 1625 
L 3713 1625 
L 3713 1100 
L 3047 1100 
L 3047 0 
L 2419 0 
L 2419 1100 
L 313 1100 
L 313 1709 
L 2253 4666 
z
" transform="scale(0.015625)"/>
      <path id="DejaVuSans-38" d="M 2034 2216 
Q 1584 2216 1326 1975 
Q 1069 1734 1069 1313 
Q 1069 891 1326 650 
Q 1584 409 2034 409 
Q 2484 409 2743 651 
Q 3003 894 3003 1313 
Q 3003 1734 2745 1975 
Q 2488 2216 2034 2216 
z
M 1403 2484 
Q 997 2584 770 2862 
Q 544 3141 544 3541 
Q 544 4100 942 4425 
Q 1341 4750 2034 4750 
Q 2731 4750 3128 4425 
Q 3525 4100 3525 3541 
Q 3525 3141 3298 2862 
Q 3072 2584 2669 2484 
Q 3125 2378 3379 2068 
Q 3634 1759 3634 1313 
Q 3634 634 3220 271 
Q 2806 -91 2034 -91 
Q 1263 -91 848 271 
Q 434 634 434 1313 
Q 434 1759 690 2068 
Q 947 2378 1403 2484 
z
M 1172 3481 
Q 1172 3119 1398 2916 
Q 1625 2713 2034 2713 
Q 2441 2713 2670 2916 
Q 2900 3119 2900 3481 
Q 2900 3844 2670 4047 
Q 2441 4250 2034 4250 
Q 1625 4250 1398 4047 
Q 1172 3844 1172 3481 
z
" transform="scale(0.015625)"/>
     </defs>
     <use xlink:href="#DejaVuSans-43"/>
     <use xlink:href="#DejaVuSans-33" transform="translate(69.824219 0)"/>
     <use xlink:href="#DejaVuSans-48" transform="translate(133.447266 0)"/>
     <use xlink:href="#DejaVuSans-36" transform="translate(208.642578 0)"/>
     <use xlink:href="#DejaVuSans-4f" transform="translate(272.265625 0)"/>
     <use xlink:href="#DejaVuSans-73" transform="translate(350.976562 0)"/>
     <use xlink:href="#DejaVuSans-34" transform="translate(403.076172 0)"/>
     <use xlink:href="#DejaVuSans-38" transform="translate(466.699219 0)"/>
    </g>
    <!-- Error: -8.44 eV -->
    <g transform="translate(126.47669 11.262805) scale(0.1 -0.1)">
     <defs>
      <path id="DejaVuSans-45" d="M 628 4666 
L 3578 4666 
L 3578 4134 
L 1259 4134 
L 1259 2753 
L 3481 2753 
L 3481 2222 
L 1259 2222 
L 1259 531 
L 3634 531 
L 3634 0 
L 628 0 
L 628 4666 
z
" transform="scale(0.015625)"/>
      <path id="DejaVuSans-72" d="M 2631 2963 
Q 2534 3019 2420 3045 
Q 2306 3072 2169 3072 
Q 1681 3072 1420 2755 
Q 1159 2438 1159 1844 
L 1159 0 
L 581 0 
L 581 3500 
L 1159 3500 
L 1159 2956 
Q 1341 3275 1631 3429 
Q 1922 3584 2338 3584 
Q 2397 3584 2469 3576 
Q 2541 3569 2628 3553 
L 2631 2963 
z
" transform="scale(0.015625)"/>
      <path id="DejaVuSans-6f" d="M 1959 3097 
Q 1497 3097 1228 2736 
Q 959 2375 959 1747 
Q 959 1119 1226 758 
Q 1494 397 1959 397 
Q 2419 397 2687 759 
Q 2956 1122 2956 1747 
Q 2956 2369 2687 2733 
Q 2419 3097 1959 3097 
z
M 1959 3584 
Q 2709 3584 3137 3096 
Q 3566 2609 3566 1747 
Q 3566 888 3137 398 
Q 2709 -91 1959 -91 
Q 1206 -91 779 398 
Q 353 888 353 1747 
Q 353 2609 779 3096 
Q 1206 3584 1959 3584 
z
" transform="scale(0.015625)"/>
      <path id="DejaVuSans-3a" d="M 750 794 
L 1409 794 
L 1409 0 
L 750 0 
L 750 794 
z
M 750 3309 
L 1409 3309 
L 1409 2516 
L 750 2516 
L 750 3309 
z
" transform="scale(0.015625)"/>
      <path id="DejaVuSans-20" transform="scale(0.015625)"/>
      <path id="DejaVuSans-2d" d="M 313 2009 
L 1997 2009 
L 1997 1497 
L 313 1497 
L 313 2009 
z
" transform="scale(0.015625)"/>
      <path id="DejaVuSans-2e" d="M 684 794 
L 1344 794 
L 1344 0 
L 684 0 
L 684 794 
z
" transform="scale(0.015625)"/>
      <path id="DejaVuSans-65" d="M 3597 1894 
L 3597 1613 
L 953 1613 
Q 991 1019 1311 708 
Q 1631 397 2203 397 
Q 2534 397 2845 478 
Q 3156 559 3463 722 
L 3463 178 
Q 3153 47 2828 -22 
Q 2503 -91 2169 -91 
Q 1331 -91 842 396 
Q 353 884 353 1716 
Q 353 2575 817 3079 
Q 1281 3584 2069 3584 
Q 2775 3584 3186 3129 
Q 3597 2675 3597 1894 
z
M 3022 2063 
Q 3016 2534 2758 2815 
Q 2500 3097 2075 3097 
Q 1594 3097 1305 2825 
Q 1016 2553 972 2059 
L 3022 2063 
z
" transform="scale(0.015625)"/>
      <path id="DejaVuSans-56" d="M 1831 0 
L 50 4666 
L 709 4666 
L 2188 738 
L 3669 4666 
L 4325 4666 
L 2547 0 
L 1831 0 
z
" transform="scale(0.015625)"/>
     </defs>
     <use xlink:href="#DejaVuSans-45"/>
     <use xlink:href="#DejaVuSans-72" transform="translate(63.183594 0)"/>
     <use xlink:href="#DejaVuSans-72" transform="translate(102.546875 0)"/>
     <use xlink:href="#DejaVuSans-6f" transform="translate(141.410156 0)"/>
     <use xlink:href="#DejaVuSans-72" transform="translate(202.591797 0)"/>
     <use xlink:href="#DejaVuSans-3a" transform="translate(241.955078 0)"/>
     <use xlink:href="#DejaVuSans-20" transform="translate(275.646484 0)"/>
     <use xlink:href="#DejaVuSans-2d" transform="translate(307.433594 0)"/>
     <use xlink:href="#DejaVuSans-38" transform="translate(343.517578 0)"/>
     <use xlink:href="#DejaVuSans-2e" transform="translate(407.140625 0)"/>
     <use xlink:href="#DejaVuSans-34" transform="translate(438.927734 0)"/>
     <use xlink:href="#DejaVuSans-34" transform="translate(502.550781 0)"/>
     <use xlink:href="#DejaVuSans-20" transform="translate(566.173828 0)"/>
     <use xlink:href="#DejaVuSans-65" transform="translate(597.960938 0)"/>
     <use xlink:href="#DejaVuSans-56" transform="translate(659.484375 0)"/>
    </g>
   </g>
  </g>
 </g>
 <defs>
  <clipPath id="p0a1863a94f">
   <rect x="36" y="34.56" width="223.2" height="221.76"/>
  </clipPath>
 </defs>
</svg>
