<?xml version="1.0" encoding="utf-8" standalone="no"?>
<!DOCTYPE svg PUBLIC "-//W3C//DTD SVG 1.1//EN"
  "http://www.w3.org/Graphics/SVG/1.1/DTD/svg11.dtd">
<svg xmlns:xlink="http://www.w3.org/1999/xlink" width="288pt" height="288pt" viewBox="0 0 288 288" xmlns="http://www.w3.org/2000/svg" version="1.1">
 <metadata>
  <rdf:RDF xmlns:dc="http://purl.org/dc/elements/1.1/" xmlns:cc="http://creativecommons.org/ns#" xmlns:rdf="http://www.w3.org/1999/02/22-rdf-syntax-ns#">
   <cc:Work>
    <dc:type rdf:resource="http://purl.org/dc/dcmitype/StillImage"/>
    <dc:date>2025-06-30T12:03:19.317340</dc:date>
    <dc:format>image/svg+xml</dc:format>
    <dc:creator>
     <cc:Agent>
      <dc:title>Matplotlib v3.10.1, https://matplotlib.org/</dc:title>
     </cc:Agent>
    </dc:creator>
   </cc:Work>
  </rdf:RDF>
 </metadata>
 <defs>
  <style type="text/css">*{stroke-linejoin: round; stroke-linecap: butt}</style>
 </defs>
 <g id="figure_1">
  <g id="patch_1">
   <path d="M 0 288 
L 288 288 
L 288 0 
L 0 0 
z
" style="fill: #ffffff"/>
  </g>
  <g id="axes_1">
   <g id="LineCollection_1">
    <path d="M 111.583265 53.803636 
L 95.339354 56.512407 
" clip-path="url(#pb68471cbd7)" style="fill: none; stroke: #000000; stroke-width: 1.2"/>
    <path d="M 111.583265 53.803636 
L 137.987555 65.702568 
" clip-path="url(#pb68471cbd7)" style="fill: none; stroke: #000000; stroke-width: 1.2"/>
    <path d="M 111.583265 53.803636 
L 125.578669 58.101961 
" clip-path="url(#pb68471cbd7)" style="fill: none; stroke: #000000; stroke-width: 1.2"/>
    <path d="M 111.583265 53.803636 
L 81.391032 62.771989 
" clip-path="url(#pb68471cbd7)" style="fill: none; stroke: #000000; stroke-width: 1.2"/>
    <path d="M 111.583265 53.803636 
L 145.523123 81.48219 
" clip-path="url(#pb68471cbd7)" style="fill: none; stroke: #000000; stroke-width: 1.2"/>
    <path d="M 111.583265 53.803636 
L 124.876012 69.507036 
" clip-path="url(#pb68471cbd7)" style="fill: none; stroke: #000000; stroke-width: 1.2"/>
    <path d="M 111.583265 53.803636 
L 91.763195 84.897045 
" clip-path="url(#pb68471cbd7)" style="fill: none; stroke: #000000; stroke-width: 1.2"/>
    <path d="M 111.583265 53.803636 
L 123.78964 95.404597 
" clip-path="url(#pb68471cbd7)" style="fill: none; stroke: #000000; stroke-width: 1.2"/>
    <path d="M 111.583265 53.803636 
L 105.02163 103.426818 
" clip-path="url(#pb68471cbd7)" style="fill: none; stroke: #000000; stroke-width: 1.2"/>
    <path d="M 95.339354 56.512407 
L 137.987555 65.702568 
" clip-path="url(#pb68471cbd7)" style="fill: none; stroke: #000000; stroke-width: 1.2"/>
    <path d="M 95.339354 56.512407 
L 125.578669 58.101961 
" clip-path="url(#pb68471cbd7)" style="fill: none; stroke: #000000; stroke-width: 1.2"/>
    <path d="M 95.339354 56.512407 
L 111.977876 77.140549 
" clip-path="url(#pb68471cbd7)" style="fill: none; stroke: #000000; stroke-width: 1.2"/>
    <path d="M 95.339354 56.512407 
L 148.134198 67.48883 
" clip-path="url(#pb68471cbd7)" style="fill: none; stroke: #000000; stroke-width: 1.2"/>
    <path d="M 95.339354 56.512407 
L 73.418278 71.007517 
" clip-path="url(#pb68471cbd7)" style="fill: none; stroke: #000000; stroke-width: 1.2"/>
    <path d="M 95.339354 56.512407 
L 91.763195 84.897045 
" clip-path="url(#pb68471cbd7)" style="fill: none; stroke: #000000; stroke-width: 1.2"/>
    <path d="M 95.339354 56.512407 
L 95.629147 105.471163 
" clip-path="url(#pb68471cbd7)" style="fill: none; stroke: #000000; stroke-width: 1.2"/>
    <path d="M 95.339354 56.512407 
L 108.488614 94.07298 
" clip-path="url(#pb68471cbd7)" style="fill: none; stroke: #000000; stroke-width: 1.2"/>
    <path d="M 137.987555 65.702568 
L 101.398424 64.935767 
" clip-path="url(#pb68471cbd7)" style="fill: none; stroke: #000000; stroke-width: 1.2"/>
    <path d="M 137.987555 65.702568 
L 159.949921 84.597132 
" clip-path="url(#pb68471cbd7)" style="fill: none; stroke: #000000; stroke-width: 1.2"/>
    <path d="M 137.987555 65.702568 
L 111.977876 77.140549 
" clip-path="url(#pb68471cbd7)" style="fill: none; stroke: #000000; stroke-width: 1.2"/>
    <path d="M 137.987555 65.702568 
L 124.876012 69.507036 
" clip-path="url(#pb68471cbd7)" style="fill: none; stroke: #000000; stroke-width: 1.2"/>
    <path d="M 137.987555 65.702568 
L 123.78964 95.404597 
" clip-path="url(#pb68471cbd7)" style="fill: none; stroke: #000000; stroke-width: 1.2"/>
    <path d="M 137.987555 65.702568 
L 95.629147 105.471163 
" clip-path="url(#pb68471cbd7)" style="fill: none; stroke: #000000; stroke-width: 1.2"/>
    <path d="M 137.987555 65.702568 
L 120.626949 107.910435 
" clip-path="url(#pb68471cbd7)" style="fill: none; stroke: #000000; stroke-width: 1.2"/>
    <path d="M 101.398424 64.935767 
L 159.949921 84.597132 
" clip-path="url(#pb68471cbd7)" style="fill: none; stroke: #000000; stroke-width: 1.2"/>
    <path d="M 101.398424 64.935767 
L 125.578669 58.101961 
" clip-path="url(#pb68471cbd7)" style="fill: none; stroke: #000000; stroke-width: 1.2"/>
    <path d="M 101.398424 64.935767 
L 81.391032 62.771989 
" clip-path="url(#pb68471cbd7)" style="fill: none; stroke: #000000; stroke-width: 1.2"/>
    <path d="M 101.398424 64.935767 
L 124.876012 69.507036 
" clip-path="url(#pb68471cbd7)" style="fill: none; stroke: #000000; stroke-width: 1.2"/>
    <path d="M 101.398424 64.935767 
L 73.418278 71.007517 
" clip-path="url(#pb68471cbd7)" style="fill: none; stroke: #000000; stroke-width: 1.2"/>
    <path d="M 101.398424 64.935767 
L 120.626949 107.910435 
" clip-path="url(#pb68471cbd7)" style="fill: none; stroke: #000000; stroke-width: 1.2"/>
    <path d="M 101.398424 64.935767 
L 75.077284 89.918675 
" clip-path="url(#pb68471cbd7)" style="fill: none; stroke: #000000; stroke-width: 1.2"/>
    <path d="M 101.398424 64.935767 
L 86.442913 100.077557 
" clip-path="url(#pb68471cbd7)" style="fill: none; stroke: #000000; stroke-width: 1.2"/>
    <path d="M 159.949921 84.597132 
L 125.578669 58.101961 
" clip-path="url(#pb68471cbd7)" style="fill: none; stroke: #000000; stroke-width: 1.2"/>
    <path d="M 159.949921 84.597132 
L 111.977876 77.140549 
" clip-path="url(#pb68471cbd7)" style="fill: none; stroke: #000000; stroke-width: 1.2"/>
    <path d="M 159.949921 84.597132 
L 145.523123 81.48219 
" clip-path="url(#pb68471cbd7)" style="fill: none; stroke: #000000; stroke-width: 1.2"/>
    <path d="M 159.949921 84.597132 
L 148.134198 67.48883 
" clip-path="url(#pb68471cbd7)" style="fill: none; stroke: #000000; stroke-width: 1.2"/>
    <path d="M 159.949921 84.597132 
L 120.626949 107.910435 
" clip-path="url(#pb68471cbd7)" style="fill: none; stroke: #000000; stroke-width: 1.2"/>
    <path d="M 159.949921 84.597132 
L 140.413548 100.479889 
" clip-path="url(#pb68471cbd7)" style="fill: none; stroke: #000000; stroke-width: 1.2"/>
    <path d="M 159.949921 84.597132 
L 135.530008 118.460745 
" clip-path="url(#pb68471cbd7)" style="fill: none; stroke: #000000; stroke-width: 1.2"/>
    <path d="M 125.578669 58.101961 
L 81.391032 62.771989 
" clip-path="url(#pb68471cbd7)" style="fill: none; stroke: #000000; stroke-width: 1.2"/>
    <path d="M 125.578669 58.101961 
L 148.134198 67.48883 
" clip-path="url(#pb68471cbd7)" style="fill: none; stroke: #000000; stroke-width: 1.2"/>
    <path d="M 125.578669 58.101961 
L 91.763195 84.897045 
" clip-path="url(#pb68471cbd7)" style="fill: none; stroke: #000000; stroke-width: 1.2"/>
    <path d="M 125.578669 58.101961 
L 75.077284 89.918675 
" clip-path="url(#pb68471cbd7)" style="fill: none; stroke: #000000; stroke-width: 1.2"/>
    <path d="M 125.578669 58.101961 
L 140.413548 100.479889 
" clip-path="url(#pb68471cbd7)" style="fill: none; stroke: #000000; stroke-width: 1.2"/>
    <path d="M 111.977876 77.140549 
L 81.391032 62.771989 
" clip-path="url(#pb68471cbd7)" style="fill: none; stroke: #000000; stroke-width: 1.2"/>
    <path d="M 111.977876 77.140549 
L 145.523123 81.48219 
" clip-path="url(#pb68471cbd7)" style="fill: none; stroke: #000000; stroke-width: 1.2"/>
    <path d="M 111.977876 77.140549 
L 73.418278 71.007517 
" clip-path="url(#pb68471cbd7)" style="fill: none; stroke: #000000; stroke-width: 1.2"/>
    <path d="M 111.977876 77.140549 
L 95.629147 105.471163 
" clip-path="url(#pb68471cbd7)" style="fill: none; stroke: #000000; stroke-width: 1.2"/>
    <path d="M 111.977876 77.140549 
L 69.676941 103.914786 
" clip-path="url(#pb68471cbd7)" style="fill: none; stroke: #000000; stroke-width: 1.2"/>
    <path d="M 111.977876 77.140549 
L 135.530008 118.460745 
" clip-path="url(#pb68471cbd7)" style="fill: none; stroke: #000000; stroke-width: 1.2"/>
    <path d="M 81.391032 62.771989 
L 145.523123 81.48219 
" clip-path="url(#pb68471cbd7)" style="fill: none; stroke: #000000; stroke-width: 1.2"/>
    <path d="M 81.391032 62.771989 
L 73.418278 71.007517 
" clip-path="url(#pb68471cbd7)" style="fill: none; stroke: #000000; stroke-width: 1.2"/>
    <path d="M 81.391032 62.771989 
L 75.077284 89.918675 
" clip-path="url(#pb68471cbd7)" style="fill: none; stroke: #000000; stroke-width: 1.2"/>
    <path d="M 81.391032 62.771989 
L 69.676941 103.914786 
" clip-path="url(#pb68471cbd7)" style="fill: none; stroke: #000000; stroke-width: 1.2"/>
    <path d="M 81.391032 62.771989 
L 105.02163 103.426818 
" clip-path="url(#pb68471cbd7)" style="fill: none; stroke: #000000; stroke-width: 1.2"/>
    <path d="M 145.523123 81.48219 
L 148.134198 67.48883 
" clip-path="url(#pb68471cbd7)" style="fill: none; stroke: #000000; stroke-width: 1.2"/>
    <path d="M 145.523123 81.48219 
L 124.876012 69.507036 
" clip-path="url(#pb68471cbd7)" style="fill: none; stroke: #000000; stroke-width: 1.2"/>
    <path d="M 145.523123 81.48219 
L 135.530008 118.460745 
" clip-path="url(#pb68471cbd7)" style="fill: none; stroke: #000000; stroke-width: 1.2"/>
    <path d="M 145.523123 81.48219 
L 105.02163 103.426818 
" clip-path="url(#pb68471cbd7)" style="fill: none; stroke: #000000; stroke-width: 1.2"/>
    <path d="M 145.523123 81.48219 
L 148.645017 109.012385 
" clip-path="url(#pb68471cbd7)" style="fill: none; stroke: #000000; stroke-width: 1.2"/>
    <path d="M 148.134198 67.48883 
L 124.876012 69.507036 
" clip-path="url(#pb68471cbd7)" style="fill: none; stroke: #000000; stroke-width: 1.2"/>
    <path d="M 148.134198 67.48883 
L 73.418278 71.007517 
" clip-path="url(#pb68471cbd7)" style="fill: none; stroke: #000000; stroke-width: 1.2"/>
    <path d="M 148.134198 67.48883 
L 140.413548 100.479889 
" clip-path="url(#pb68471cbd7)" style="fill: none; stroke: #000000; stroke-width: 1.2"/>
    <path d="M 148.134198 67.48883 
L 148.645017 109.012385 
" clip-path="url(#pb68471cbd7)" style="fill: none; stroke: #000000; stroke-width: 1.2"/>
    <path d="M 148.134198 67.48883 
L 108.488614 94.07298 
" clip-path="url(#pb68471cbd7)" style="fill: none; stroke: #000000; stroke-width: 1.2"/>
    <path d="M 124.876012 69.507036 
L 73.418278 71.007517 
" clip-path="url(#pb68471cbd7)" style="fill: none; stroke: #000000; stroke-width: 1.2"/>
    <path d="M 124.876012 69.507036 
L 123.78964 95.404597 
" clip-path="url(#pb68471cbd7)" style="fill: none; stroke: #000000; stroke-width: 1.2"/>
    <path d="M 124.876012 69.507036 
L 148.645017 109.012385 
" clip-path="url(#pb68471cbd7)" style="fill: none; stroke: #000000; stroke-width: 1.2"/>
    <path d="M 124.876012 69.507036 
L 86.442913 100.077557 
" clip-path="url(#pb68471cbd7)" style="fill: none; stroke: #000000; stroke-width: 1.2"/>
    <path d="M 73.418278 71.007517 
L 69.676941 103.914786 
" clip-path="url(#pb68471cbd7)" style="fill: none; stroke: #000000; stroke-width: 1.2"/>
    <path d="M 73.418278 71.007517 
L 108.488614 94.07298 
" clip-path="url(#pb68471cbd7)" style="fill: none; stroke: #000000; stroke-width: 1.2"/>
    <path d="M 73.418278 71.007517 
L 86.442913 100.077557 
" clip-path="url(#pb68471cbd7)" style="fill: none; stroke: #000000; stroke-width: 1.2"/>
    <path d="M 91.763195 84.897045 
L 123.78964 95.404597 
" clip-path="url(#pb68471cbd7)" style="fill: none; stroke: #000000; stroke-width: 1.2"/>
    <path d="M 91.763195 84.897045 
L 95.629147 105.471163 
" clip-path="url(#pb68471cbd7)" style="fill: none; stroke: #000000; stroke-width: 1.2"/>
    <path d="M 91.763195 84.897045 
L 75.077284 89.918675 
" clip-path="url(#pb68471cbd7)" style="fill: none; stroke: #000000; stroke-width: 1.2"/>
    <path d="M 91.763195 84.897045 
L 140.413548 100.479889 
" clip-path="url(#pb68471cbd7)" style="fill: none; stroke: #000000; stroke-width: 1.2"/>
    <path d="M 91.763195 84.897045 
L 105.02163 103.426818 
" clip-path="url(#pb68471cbd7)" style="fill: none; stroke: #000000; stroke-width: 1.2"/>
    <path d="M 91.763195 84.897045 
L 108.488614 94.07298 
" clip-path="url(#pb68471cbd7)" style="fill: none; stroke: #000000; stroke-width: 1.2"/>
    <path d="M 91.763195 84.897045 
L 69.131406 119.507237 
" clip-path="url(#pb68471cbd7)" style="fill: none; stroke: #000000; stroke-width: 1.2"/>
    <path d="M 91.763195 84.897045 
L 86.714541 124.505664 
" clip-path="url(#pb68471cbd7)" style="fill: none; stroke: #000000; stroke-width: 1.2"/>
    <path d="M 91.763195 84.897045 
L 120.178558 125.14419 
" clip-path="url(#pb68471cbd7)" style="fill: none; stroke: #000000; stroke-width: 1.2"/>
    <path d="M 123.78964 95.404597 
L 95.629147 105.471163 
" clip-path="url(#pb68471cbd7)" style="fill: none; stroke: #000000; stroke-width: 1.2"/>
    <path d="M 123.78964 95.404597 
L 120.626949 107.910435 
" clip-path="url(#pb68471cbd7)" style="fill: none; stroke: #000000; stroke-width: 1.2"/>
    <path d="M 123.78964 95.404597 
L 105.02163 103.426818 
" clip-path="url(#pb68471cbd7)" style="fill: none; stroke: #000000; stroke-width: 1.2"/>
    <path d="M 123.78964 95.404597 
L 148.645017 109.012385 
" clip-path="url(#pb68471cbd7)" style="fill: none; stroke: #000000; stroke-width: 1.2"/>
    <path d="M 123.78964 95.404597 
L 86.442913 100.077557 
" clip-path="url(#pb68471cbd7)" style="fill: none; stroke: #000000; stroke-width: 1.2"/>
    <path d="M 123.78964 95.404597 
L 86.714541 124.505664 
" clip-path="url(#pb68471cbd7)" style="fill: none; stroke: #000000; stroke-width: 1.2"/>
    <path d="M 123.78964 95.404597 
L 82.145103 138.007669 
" clip-path="url(#pb68471cbd7)" style="fill: none; stroke: #000000; stroke-width: 1.2"/>
    <path d="M 123.78964 95.404597 
L 126.174839 134.905757 
" clip-path="url(#pb68471cbd7)" style="fill: none; stroke: #000000; stroke-width: 1.2"/>
    <path d="M 95.629147 105.471163 
L 120.626949 107.910435 
" clip-path="url(#pb68471cbd7)" style="fill: none; stroke: #000000; stroke-width: 1.2"/>
    <path d="M 95.629147 105.471163 
L 69.676941 103.914786 
" clip-path="url(#pb68471cbd7)" style="fill: none; stroke: #000000; stroke-width: 1.2"/>
    <path d="M 95.629147 105.471163 
L 135.530008 118.460745 
" clip-path="url(#pb68471cbd7)" style="fill: none; stroke: #000000; stroke-width: 1.2"/>
    <path d="M 95.629147 105.471163 
L 108.488614 94.07298 
" clip-path="url(#pb68471cbd7)" style="fill: none; stroke: #000000; stroke-width: 1.2"/>
    <path d="M 95.629147 105.471163 
L 86.714541 124.505664 
" clip-path="url(#pb68471cbd7)" style="fill: none; stroke: #000000; stroke-width: 1.2"/>
    <path d="M 95.629147 105.471163 
L 115.893893 148.373515 
" clip-path="url(#pb68471cbd7)" style="fill: none; stroke: #000000; stroke-width: 1.2"/>
    <path d="M 95.629147 105.471163 
L 71.129485 135.532005 
" clip-path="url(#pb68471cbd7)" style="fill: none; stroke: #000000; stroke-width: 1.2"/>
    <path d="M 120.626949 107.910435 
L 75.077284 89.918675 
" clip-path="url(#pb68471cbd7)" style="fill: none; stroke: #000000; stroke-width: 1.2"/>
    <path d="M 120.626949 107.910435 
L 140.413548 100.479889 
" clip-path="url(#pb68471cbd7)" style="fill: none; stroke: #000000; stroke-width: 1.2"/>
    <path d="M 120.626949 107.910435 
L 135.530008 118.460745 
" clip-path="url(#pb68471cbd7)" style="fill: none; stroke: #000000; stroke-width: 1.2"/>
    <path d="M 120.626949 107.910435 
L 86.442913 100.077557 
" clip-path="url(#pb68471cbd7)" style="fill: none; stroke: #000000; stroke-width: 1.2"/>
    <path d="M 120.626949 107.910435 
L 115.893893 148.373515 
" clip-path="url(#pb68471cbd7)" style="fill: none; stroke: #000000; stroke-width: 1.2"/>
    <path d="M 120.626949 107.910435 
L 82.145103 138.007669 
" clip-path="url(#pb68471cbd7)" style="fill: none; stroke: #000000; stroke-width: 1.2"/>
    <path d="M 120.626949 107.910435 
L 101.719513 131.166926 
" clip-path="url(#pb68471cbd7)" style="fill: none; stroke: #000000; stroke-width: 1.2"/>
    <path d="M 75.077284 89.918675 
L 140.413548 100.479889 
" clip-path="url(#pb68471cbd7)" style="fill: none; stroke: #000000; stroke-width: 1.2"/>
    <path d="M 75.077284 89.918675 
L 69.676941 103.914786 
" clip-path="url(#pb68471cbd7)" style="fill: none; stroke: #000000; stroke-width: 1.2"/>
    <path d="M 75.077284 89.918675 
L 105.02163 103.426818 
" clip-path="url(#pb68471cbd7)" style="fill: none; stroke: #000000; stroke-width: 1.2"/>
    <path d="M 75.077284 89.918675 
L 86.442913 100.077557 
" clip-path="url(#pb68471cbd7)" style="fill: none; stroke: #000000; stroke-width: 1.2"/>
    <path d="M 75.077284 89.918675 
L 69.131406 119.507237 
" clip-path="url(#pb68471cbd7)" style="fill: none; stroke: #000000; stroke-width: 1.2"/>
    <path d="M 75.077284 89.918675 
L 101.719513 131.166926 
" clip-path="url(#pb68471cbd7)" style="fill: none; stroke: #000000; stroke-width: 1.2"/>
    <path d="M 75.077284 89.918675 
L 55.368595 126.105196 
" clip-path="url(#pb68471cbd7)" style="fill: none; stroke: #000000; stroke-width: 1.2"/>
    <path d="M 140.413548 100.479889 
L 135.530008 118.460745 
" clip-path="url(#pb68471cbd7)" style="fill: none; stroke: #000000; stroke-width: 1.2"/>
    <path d="M 140.413548 100.479889 
L 148.645017 109.012385 
" clip-path="url(#pb68471cbd7)" style="fill: none; stroke: #000000; stroke-width: 1.2"/>
    <path d="M 140.413548 100.479889 
L 108.488614 94.07298 
" clip-path="url(#pb68471cbd7)" style="fill: none; stroke: #000000; stroke-width: 1.2"/>
    <path d="M 140.413548 100.479889 
L 101.719513 131.166926 
" clip-path="url(#pb68471cbd7)" style="fill: none; stroke: #000000; stroke-width: 1.2"/>
    <path d="M 140.413548 100.479889 
L 120.178558 125.14419 
" clip-path="url(#pb68471cbd7)" style="fill: none; stroke: #000000; stroke-width: 1.2"/>
    <path d="M 140.413548 100.479889 
L 146.533394 141.603816 
" clip-path="url(#pb68471cbd7)" style="fill: none; stroke: #000000; stroke-width: 1.2"/>
    <path d="M 69.676941 103.914786 
L 135.530008 118.460745 
" clip-path="url(#pb68471cbd7)" style="fill: none; stroke: #000000; stroke-width: 1.2"/>
    <path d="M 69.676941 103.914786 
L 105.02163 103.426818 
" clip-path="url(#pb68471cbd7)" style="fill: none; stroke: #000000; stroke-width: 1.2"/>
    <path d="M 69.676941 103.914786 
L 108.488614 94.07298 
" clip-path="url(#pb68471cbd7)" style="fill: none; stroke: #000000; stroke-width: 1.2"/>
    <path d="M 69.676941 103.914786 
L 86.442913 100.077557 
" clip-path="url(#pb68471cbd7)" style="fill: none; stroke: #000000; stroke-width: 1.2"/>
    <path d="M 69.676941 103.914786 
L 71.129485 135.532005 
" clip-path="url(#pb68471cbd7)" style="fill: none; stroke: #000000; stroke-width: 1.2"/>
    <path d="M 69.676941 103.914786 
L 94.924933 147.156485 
" clip-path="url(#pb68471cbd7)" style="fill: none; stroke: #000000; stroke-width: 1.2"/>
    <path d="M 69.676941 103.914786 
L 55.368595 126.105196 
" clip-path="url(#pb68471cbd7)" style="fill: none; stroke: #000000; stroke-width: 1.2"/>
    <path d="M 135.530008 118.460745 
L 105.02163 103.426818 
" clip-path="url(#pb68471cbd7)" style="fill: none; stroke: #000000; stroke-width: 1.2"/>
    <path d="M 135.530008 118.460745 
L 148.645017 109.012385 
" clip-path="url(#pb68471cbd7)" style="fill: none; stroke: #000000; stroke-width: 1.2"/>
    <path d="M 135.530008 118.460745 
L 115.893893 148.373515 
" clip-path="url(#pb68471cbd7)" style="fill: none; stroke: #000000; stroke-width: 1.2"/>
    <path d="M 135.530008 118.460745 
L 94.924933 147.156485 
" clip-path="url(#pb68471cbd7)" style="fill: none; stroke: #000000; stroke-width: 1.2"/>
    <path d="M 135.530008 118.460745 
L 146.533394 141.603816 
" clip-path="url(#pb68471cbd7)" style="fill: none; stroke: #000000; stroke-width: 1.2"/>
    <path d="M 105.02163 103.426818 
L 148.645017 109.012385 
" clip-path="url(#pb68471cbd7)" style="fill: none; stroke: #000000; stroke-width: 1.2"/>
    <path d="M 105.02163 103.426818 
L 69.131406 119.507237 
" clip-path="url(#pb68471cbd7)" style="fill: none; stroke: #000000; stroke-width: 1.2"/>
    <path d="M 105.02163 103.426818 
L 94.924933 147.156485 
" clip-path="url(#pb68471cbd7)" style="fill: none; stroke: #000000; stroke-width: 1.2"/>
    <path d="M 105.02163 103.426818 
L 126.174839 134.905757 
" clip-path="url(#pb68471cbd7)" style="fill: none; stroke: #000000; stroke-width: 1.2"/>
    <path d="M 148.645017 109.012385 
L 108.488614 94.07298 
" clip-path="url(#pb68471cbd7)" style="fill: none; stroke: #000000; stroke-width: 1.2"/>
    <path d="M 148.645017 109.012385 
L 86.442913 100.077557 
" clip-path="url(#pb68471cbd7)" style="fill: none; stroke: #000000; stroke-width: 1.2"/>
    <path d="M 148.645017 109.012385 
L 126.174839 134.905757 
" clip-path="url(#pb68471cbd7)" style="fill: none; stroke: #000000; stroke-width: 1.2"/>
    <path d="M 148.645017 109.012385 
L 146.533394 141.603816 
" clip-path="url(#pb68471cbd7)" style="fill: none; stroke: #000000; stroke-width: 1.2"/>
    <path d="M 148.645017 109.012385 
L 106.134311 138.690684 
" clip-path="url(#pb68471cbd7)" style="fill: none; stroke: #000000; stroke-width: 1.2"/>
    <path d="M 108.488614 94.07298 
L 86.442913 100.077557 
" clip-path="url(#pb68471cbd7)" style="fill: none; stroke: #000000; stroke-width: 1.2"/>
    <path d="M 108.488614 94.07298 
L 120.178558 125.14419 
" clip-path="url(#pb68471cbd7)" style="fill: none; stroke: #000000; stroke-width: 1.2"/>
    <path d="M 108.488614 94.07298 
L 71.129485 135.532005 
" clip-path="url(#pb68471cbd7)" style="fill: none; stroke: #000000; stroke-width: 1.2"/>
    <path d="M 108.488614 94.07298 
L 106.134311 138.690684 
" clip-path="url(#pb68471cbd7)" style="fill: none; stroke: #000000; stroke-width: 1.2"/>
    <path d="M 86.442913 100.077557 
L 82.145103 138.007669 
" clip-path="url(#pb68471cbd7)" style="fill: none; stroke: #000000; stroke-width: 1.2"/>
    <path d="M 86.442913 100.077557 
L 106.134311 138.690684 
" clip-path="url(#pb68471cbd7)" style="fill: none; stroke: #000000; stroke-width: 1.2"/>
    <path d="M 86.442913 100.077557 
L 55.368595 126.105196 
" clip-path="url(#pb68471cbd7)" style="fill: none; stroke: #000000; stroke-width: 1.2"/>
    <path d="M 69.131406 119.507237 
L 86.714541 124.505664 
" clip-path="url(#pb68471cbd7)" style="fill: none; stroke: #000000; stroke-width: 1.2"/>
    <path d="M 69.131406 119.507237 
L 101.719513 131.166926 
" clip-path="url(#pb68471cbd7)" style="fill: none; stroke: #000000; stroke-width: 1.2"/>
    <path d="M 69.131406 119.507237 
L 120.178558 125.14419 
" clip-path="url(#pb68471cbd7)" style="fill: none; stroke: #000000; stroke-width: 1.2"/>
    <path d="M 69.131406 119.507237 
L 94.924933 147.156485 
" clip-path="url(#pb68471cbd7)" style="fill: none; stroke: #000000; stroke-width: 1.2"/>
    <path d="M 69.131406 119.507237 
L 126.174839 134.905757 
" clip-path="url(#pb68471cbd7)" style="fill: none; stroke: #000000; stroke-width: 1.2"/>
    <path d="M 69.131406 119.507237 
L 55.368595 126.105196 
" clip-path="url(#pb68471cbd7)" style="fill: none; stroke: #000000; stroke-width: 1.2"/>
    <path d="M 86.714541 124.505664 
L 115.893893 148.373515 
" clip-path="url(#pb68471cbd7)" style="fill: none; stroke: #000000; stroke-width: 1.2"/>
    <path d="M 86.714541 124.505664 
L 82.145103 138.007669 
" clip-path="url(#pb68471cbd7)" style="fill: none; stroke: #000000; stroke-width: 1.2"/>
    <path d="M 86.714541 124.505664 
L 120.178558 125.14419 
" clip-path="url(#pb68471cbd7)" style="fill: none; stroke: #000000; stroke-width: 1.2"/>
    <path d="M 86.714541 124.505664 
L 71.129485 135.532005 
" clip-path="url(#pb68471cbd7)" style="fill: none; stroke: #000000; stroke-width: 1.2"/>
    <path d="M 86.714541 124.505664 
L 126.174839 134.905757 
" clip-path="url(#pb68471cbd7)" style="fill: none; stroke: #000000; stroke-width: 1.2"/>
    <path d="M 115.893893 148.373515 
L 82.145103 138.007669 
" clip-path="url(#pb68471cbd7)" style="fill: none; stroke: #000000; stroke-width: 1.2"/>
    <path d="M 115.893893 148.373515 
L 101.719513 131.166926 
" clip-path="url(#pb68471cbd7)" style="fill: none; stroke: #000000; stroke-width: 1.2"/>
    <path d="M 115.893893 148.373515 
L 71.129485 135.532005 
" clip-path="url(#pb68471cbd7)" style="fill: none; stroke: #000000; stroke-width: 1.2"/>
    <path d="M 115.893893 148.373515 
L 94.924933 147.156485 
" clip-path="url(#pb68471cbd7)" style="fill: none; stroke: #000000; stroke-width: 1.2"/>
    <path d="M 115.893893 148.373515 
L 146.533394 141.603816 
" clip-path="url(#pb68471cbd7)" style="fill: none; stroke: #000000; stroke-width: 1.2"/>
    <path d="M 115.893893 148.373515 
L 110.695243 186.664472 
" clip-path="url(#pb68471cbd7)" style="fill: none; stroke: #000000; stroke-width: 1.2"/>
    <path d="M 115.893893 148.373515 
L 130.938284 169.918668 
" clip-path="url(#pb68471cbd7)" style="fill: none; stroke: #000000; stroke-width: 1.2"/>
    <path d="M 82.145103 138.007669 
L 101.719513 131.166926 
" clip-path="url(#pb68471cbd7)" style="fill: none; stroke: #000000; stroke-width: 1.2"/>
    <path d="M 82.145103 138.007669 
L 126.174839 134.905757 
" clip-path="url(#pb68471cbd7)" style="fill: none; stroke: #000000; stroke-width: 1.2"/>
    <path d="M 82.145103 138.007669 
L 106.134311 138.690684 
" clip-path="url(#pb68471cbd7)" style="fill: none; stroke: #000000; stroke-width: 1.2"/>
    <path d="M 82.145103 138.007669 
L 55.368595 126.105196 
" clip-path="url(#pb68471cbd7)" style="fill: none; stroke: #000000; stroke-width: 1.2"/>
    <path d="M 101.719513 131.166926 
L 120.178558 125.14419 
" clip-path="url(#pb68471cbd7)" style="fill: none; stroke: #000000; stroke-width: 1.2"/>
    <path d="M 101.719513 131.166926 
L 146.533394 141.603816 
" clip-path="url(#pb68471cbd7)" style="fill: none; stroke: #000000; stroke-width: 1.2"/>
    <path d="M 101.719513 131.166926 
L 55.368595 126.105196 
" clip-path="url(#pb68471cbd7)" style="fill: none; stroke: #000000; stroke-width: 1.2"/>
    <path d="M 120.178558 125.14419 
L 71.129485 135.532005 
" clip-path="url(#pb68471cbd7)" style="fill: none; stroke: #000000; stroke-width: 1.2"/>
    <path d="M 120.178558 125.14419 
L 146.533394 141.603816 
" clip-path="url(#pb68471cbd7)" style="fill: none; stroke: #000000; stroke-width: 1.2"/>
    <path d="M 120.178558 125.14419 
L 106.134311 138.690684 
" clip-path="url(#pb68471cbd7)" style="fill: none; stroke: #000000; stroke-width: 1.2"/>
    <path d="M 71.129485 135.532005 
L 94.924933 147.156485 
" clip-path="url(#pb68471cbd7)" style="fill: none; stroke: #000000; stroke-width: 1.2"/>
    <path d="M 71.129485 135.532005 
L 106.134311 138.690684 
" clip-path="url(#pb68471cbd7)" style="fill: none; stroke: #000000; stroke-width: 1.2"/>
    <path d="M 71.129485 135.532005 
L 55.368595 126.105196 
" clip-path="url(#pb68471cbd7)" style="fill: none; stroke: #000000; stroke-width: 1.2"/>
    <path d="M 94.924933 147.156485 
L 126.174839 134.905757 
" clip-path="url(#pb68471cbd7)" style="fill: none; stroke: #000000; stroke-width: 1.2"/>
    <path d="M 94.924933 147.156485 
L 146.533394 141.603816 
" clip-path="url(#pb68471cbd7)" style="fill: none; stroke: #000000; stroke-width: 1.2"/>
    <path d="M 94.924933 147.156485 
L 55.368595 126.105196 
" clip-path="url(#pb68471cbd7)" style="fill: none; stroke: #000000; stroke-width: 1.2"/>
    <path d="M 94.924933 147.156485 
L 85.402074 181.919709 
" clip-path="url(#pb68471cbd7)" style="fill: none; stroke: #000000; stroke-width: 1.2"/>
    <path d="M 94.924933 147.156485 
L 130.938284 169.918668 
" clip-path="url(#pb68471cbd7)" style="fill: none; stroke: #000000; stroke-width: 1.2"/>
    <path d="M 126.174839 134.905757 
L 146.533394 141.603816 
" clip-path="url(#pb68471cbd7)" style="fill: none; stroke: #000000; stroke-width: 1.2"/>
    <path d="M 126.174839 134.905757 
L 106.134311 138.690684 
" clip-path="url(#pb68471cbd7)" style="fill: none; stroke: #000000; stroke-width: 1.2"/>
    <path d="M 146.533394 141.603816 
L 106.134311 138.690684 
" clip-path="url(#pb68471cbd7)" style="fill: none; stroke: #000000; stroke-width: 1.2"/>
    <path d="M 146.533394 141.603816 
L 130.938284 169.918668 
" clip-path="url(#pb68471cbd7)" style="fill: none; stroke: #000000; stroke-width: 1.2"/>
    <path d="M 146.533394 141.603816 
L 173.340293 167.919118 
" clip-path="url(#pb68471cbd7)" style="fill: none; stroke: #000000; stroke-width: 1.2"/>
    <path d="M 106.134311 138.690684 
L 55.368595 126.105196 
" clip-path="url(#pb68471cbd7)" style="fill: none; stroke: #000000; stroke-width: 1.2"/>
    <path d="M 182.181884 237.076364 
L 193.402338 199.57099 
" clip-path="url(#pb68471cbd7)" style="fill: none; stroke: #000000; stroke-width: 1.2"/>
    <path d="M 216.516635 225.285854 
L 193.402338 199.57099 
" clip-path="url(#pb68471cbd7)" style="fill: none; stroke: #000000; stroke-width: 1.2"/>
    <path d="M 239.831405 199.881626 
L 193.402338 199.57099 
" clip-path="url(#pb68471cbd7)" style="fill: none; stroke: #000000; stroke-width: 1.2"/>
    <path d="M 85.402074 181.919709 
L 130.938284 169.918668 
" clip-path="url(#pb68471cbd7)" style="fill: none; stroke: #000000; stroke-width: 1.2"/>
    <path d="M 110.695243 186.664472 
L 130.938284 169.918668 
" clip-path="url(#pb68471cbd7)" style="fill: none; stroke: #000000; stroke-width: 1.2"/>
    <path d="M 217.900385 160.688776 
L 173.340293 167.919118 
" clip-path="url(#pb68471cbd7)" style="fill: none; stroke: #000000; stroke-width: 1.2"/>
    <path d="M 130.938284 169.918668 
L 173.340293 167.919118 
" clip-path="url(#pb68471cbd7)" style="fill: none; stroke: #000000; stroke-width: 1.2"/>
    <path d="M 173.340293 167.919118 
L 193.402338 199.57099 
" clip-path="url(#pb68471cbd7)" style="fill: none; stroke: #000000; stroke-width: 1.2"/>
   </g>
   <g id="PathCollection_1">
    <defs>
     <path id="C0_0_66fe5f8dd3" d="M 0 8.944272 
C 2.372049 8.944272 4.647264 8.001847 6.324555 6.324555 
C 8.001847 4.647264 8.944272 2.372049 8.944272 -0 
C 8.944272 -2.372049 8.001847 -4.647264 6.324555 -6.324555 
C 4.647264 -8.001847 2.372049 -8.944272 0 -8.944272 
C -2.372049 -8.944272 -4.647264 -8.001847 -6.324555 -6.324555 
C -8.001847 -4.647264 -8.944272 -2.372049 -8.944272 0 
C -8.944272 2.372049 -8.001847 4.647264 -6.324555 6.324555 
C -4.647264 8.001847 -2.372049 8.944272 0 8.944272 
z
"/>
    </defs>
    <g clip-path="url(#pb68471cbd7)">
     <use xlink:href="#C0_0_66fe5f8dd3" x="111.583265" y="53.803636" style="fill: #4fd14f; stroke: #4fd14f; stroke-width: 0.5"/>
    </g>
    <g clip-path="url(#pb68471cbd7)">
     <use xlink:href="#C0_0_66fe5f8dd3" x="95.339354" y="56.512407" style="fill: #4fd14f; stroke: #4fd14f; stroke-width: 0.5"/>
    </g>
    <g clip-path="url(#pb68471cbd7)">
     <use xlink:href="#C0_0_66fe5f8dd3" x="137.987555" y="65.702568" style="fill: #4fd14f; stroke: #4fd14f; stroke-width: 0.5"/>
    </g>
    <g clip-path="url(#pb68471cbd7)">
     <use xlink:href="#C0_0_66fe5f8dd3" x="101.398424" y="64.935767" style="fill: #4fd14f; stroke: #4fd14f; stroke-width: 0.5"/>
    </g>
    <g clip-path="url(#pb68471cbd7)">
     <use xlink:href="#C0_0_66fe5f8dd3" x="159.949921" y="84.597132" style="fill: #4fd14f; stroke: #4fd14f; stroke-width: 0.5"/>
    </g>
    <g clip-path="url(#pb68471cbd7)">
     <use xlink:href="#C0_0_66fe5f8dd3" x="125.578669" y="58.101961" style="fill: #4fd14f; stroke: #4fd14f; stroke-width: 0.5"/>
    </g>
    <g clip-path="url(#pb68471cbd7)">
     <use xlink:href="#C0_0_66fe5f8dd3" x="111.977876" y="77.140549" style="fill: #4fd14f; stroke: #4fd14f; stroke-width: 0.5"/>
    </g>
    <g clip-path="url(#pb68471cbd7)">
     <use xlink:href="#C0_0_66fe5f8dd3" x="81.391032" y="62.771989" style="fill: #4fd14f; stroke: #4fd14f; stroke-width: 0.5"/>
    </g>
    <g clip-path="url(#pb68471cbd7)">
     <use xlink:href="#C0_0_66fe5f8dd3" x="145.523123" y="81.48219" style="fill: #4fd14f; stroke: #4fd14f; stroke-width: 0.5"/>
    </g>
    <g clip-path="url(#pb68471cbd7)">
     <use xlink:href="#C0_0_66fe5f8dd3" x="148.134198" y="67.48883" style="fill: #4fd14f; stroke: #4fd14f; stroke-width: 0.5"/>
    </g>
    <g clip-path="url(#pb68471cbd7)">
     <use xlink:href="#C0_0_66fe5f8dd3" x="124.876012" y="69.507036" style="fill: #4fd14f; stroke: #4fd14f; stroke-width: 0.5"/>
    </g>
    <g clip-path="url(#pb68471cbd7)">
     <use xlink:href="#C0_0_66fe5f8dd3" x="73.418278" y="71.007517" style="fill: #4fd14f; stroke: #4fd14f; stroke-width: 0.5"/>
    </g>
    <g clip-path="url(#pb68471cbd7)">
     <use xlink:href="#C0_0_66fe5f8dd3" x="91.763195" y="84.897045" style="fill: #4fd14f; stroke: #4fd14f; stroke-width: 0.5"/>
    </g>
    <g clip-path="url(#pb68471cbd7)">
     <use xlink:href="#C0_0_66fe5f8dd3" x="123.78964" y="95.404597" style="fill: #4fd14f; stroke: #4fd14f; stroke-width: 0.5"/>
    </g>
    <g clip-path="url(#pb68471cbd7)">
     <use xlink:href="#C0_0_66fe5f8dd3" x="95.629147" y="105.471163" style="fill: #4fd14f; stroke: #4fd14f; stroke-width: 0.5"/>
    </g>
    <g clip-path="url(#pb68471cbd7)">
     <use xlink:href="#C0_0_66fe5f8dd3" x="120.626949" y="107.910435" style="fill: #4fd14f; stroke: #4fd14f; stroke-width: 0.5"/>
    </g>
    <g clip-path="url(#pb68471cbd7)">
     <use xlink:href="#C0_0_66fe5f8dd3" x="75.077284" y="89.918675" style="fill: #4fd14f; stroke: #4fd14f; stroke-width: 0.5"/>
    </g>
    <g clip-path="url(#pb68471cbd7)">
     <use xlink:href="#C0_0_66fe5f8dd3" x="140.413548" y="100.479889" style="fill: #4fd14f; stroke: #4fd14f; stroke-width: 0.5"/>
    </g>
    <g clip-path="url(#pb68471cbd7)">
     <use xlink:href="#C0_0_66fe5f8dd3" x="69.676941" y="103.914786" style="fill: #4fd14f; stroke: #4fd14f; stroke-width: 0.5"/>
    </g>
    <g clip-path="url(#pb68471cbd7)">
     <use xlink:href="#C0_0_66fe5f8dd3" x="135.530008" y="118.460745" style="fill: #4fd14f; stroke: #4fd14f; stroke-width: 0.5"/>
    </g>
    <g clip-path="url(#pb68471cbd7)">
     <use xlink:href="#C0_0_66fe5f8dd3" x="105.02163" y="103.426818" style="fill: #4fd14f; stroke: #4fd14f; stroke-width: 0.5"/>
    </g>
    <g clip-path="url(#pb68471cbd7)">
     <use xlink:href="#C0_0_66fe5f8dd3" x="148.645017" y="109.012385" style="fill: #4fd14f; stroke: #4fd14f; stroke-width: 0.5"/>
    </g>
    <g clip-path="url(#pb68471cbd7)">
     <use xlink:href="#C0_0_66fe5f8dd3" x="108.488614" y="94.07298" style="fill: #4fd14f; stroke: #4fd14f; stroke-width: 0.5"/>
    </g>
    <g clip-path="url(#pb68471cbd7)">
     <use xlink:href="#C0_0_66fe5f8dd3" x="86.442913" y="100.077557" style="fill: #4fd14f; stroke: #4fd14f; stroke-width: 0.5"/>
    </g>
    <g clip-path="url(#pb68471cbd7)">
     <use xlink:href="#C0_0_66fe5f8dd3" x="69.131406" y="119.507237" style="fill: #4fd14f; stroke: #4fd14f; stroke-width: 0.5"/>
    </g>
    <g clip-path="url(#pb68471cbd7)">
     <use xlink:href="#C0_0_66fe5f8dd3" x="86.714541" y="124.505664" style="fill: #4fd14f; stroke: #4fd14f; stroke-width: 0.5"/>
    </g>
    <g clip-path="url(#pb68471cbd7)">
     <use xlink:href="#C0_0_66fe5f8dd3" x="115.893893" y="148.373515" style="fill: #4fd14f; stroke: #4fd14f; stroke-width: 0.5"/>
    </g>
    <g clip-path="url(#pb68471cbd7)">
     <use xlink:href="#C0_0_66fe5f8dd3" x="82.145103" y="138.007669" style="fill: #4fd14f; stroke: #4fd14f; stroke-width: 0.5"/>
    </g>
    <g clip-path="url(#pb68471cbd7)">
     <use xlink:href="#C0_0_66fe5f8dd3" x="101.719513" y="131.166926" style="fill: #4fd14f; stroke: #4fd14f; stroke-width: 0.5"/>
    </g>
    <g clip-path="url(#pb68471cbd7)">
     <use xlink:href="#C0_0_66fe5f8dd3" x="120.178558" y="125.14419" style="fill: #4fd14f; stroke: #4fd14f; stroke-width: 0.5"/>
    </g>
    <g clip-path="url(#pb68471cbd7)">
     <use xlink:href="#C0_0_66fe5f8dd3" x="71.129485" y="135.532005" style="fill: #4fd14f; stroke: #4fd14f; stroke-width: 0.5"/>
    </g>
    <g clip-path="url(#pb68471cbd7)">
     <use xlink:href="#C0_0_66fe5f8dd3" x="94.924933" y="147.156485" style="fill: #4fd14f; stroke: #4fd14f; stroke-width: 0.5"/>
    </g>
    <g clip-path="url(#pb68471cbd7)">
     <use xlink:href="#C0_0_66fe5f8dd3" x="126.174839" y="134.905757" style="fill: #4fd14f; stroke: #4fd14f; stroke-width: 0.5"/>
    </g>
    <g clip-path="url(#pb68471cbd7)">
     <use xlink:href="#C0_0_66fe5f8dd3" x="146.533394" y="141.603816" style="fill: #4fd14f; stroke: #4fd14f; stroke-width: 0.5"/>
    </g>
    <g clip-path="url(#pb68471cbd7)">
     <use xlink:href="#C0_0_66fe5f8dd3" x="106.134311" y="138.690684" style="fill: #4fd14f; stroke: #4fd14f; stroke-width: 0.5"/>
    </g>
    <g clip-path="url(#pb68471cbd7)">
     <use xlink:href="#C0_0_66fe5f8dd3" x="55.368595" y="126.105196" style="fill: #4fd14f; stroke: #4fd14f; stroke-width: 0.5"/>
    </g>
    <g clip-path="url(#pb68471cbd7)">
     <use xlink:href="#C0_0_66fe5f8dd3" x="182.181884" y="237.076364" style="fill: #bfbfbf; stroke: #bfbfbf; stroke-width: 0.5"/>
    </g>
    <g clip-path="url(#pb68471cbd7)">
     <use xlink:href="#C0_0_66fe5f8dd3" x="216.516635" y="225.285854" style="fill: #bfbfbf; stroke: #bfbfbf; stroke-width: 0.5"/>
    </g>
    <g clip-path="url(#pb68471cbd7)">
     <use xlink:href="#C0_0_66fe5f8dd3" x="239.831405" y="199.881626" style="fill: #bfbfbf; stroke: #bfbfbf; stroke-width: 0.5"/>
    </g>
    <g clip-path="url(#pb68471cbd7)">
     <use xlink:href="#C0_0_66fe5f8dd3" x="85.402074" y="181.919709" style="fill: #bfbfbf; stroke: #bfbfbf; stroke-width: 0.5"/>
    </g>
    <g clip-path="url(#pb68471cbd7)">
     <use xlink:href="#C0_0_66fe5f8dd3" x="110.695243" y="186.664472" style="fill: #bfbfbf; stroke: #bfbfbf; stroke-width: 0.5"/>
    </g>
    <g clip-path="url(#pb68471cbd7)">
     <use xlink:href="#C0_0_66fe5f8dd3" x="217.900385" y="160.688776" style="fill: #bfbfbf; stroke: #bfbfbf; stroke-width: 0.5"/>
    </g>
    <g clip-path="url(#pb68471cbd7)">
     <use xlink:href="#C0_0_66fe5f8dd3" x="130.938284" y="169.918668" style="fill: #666666; stroke: #666666; stroke-width: 0.5"/>
    </g>
    <g clip-path="url(#pb68471cbd7)">
     <use xlink:href="#C0_0_66fe5f8dd3" x="173.340293" y="167.919118" style="fill: #666666; stroke: #666666; stroke-width: 0.5"/>
    </g>
    <g clip-path="url(#pb68471cbd7)">
     <use xlink:href="#C0_0_66fe5f8dd3" x="193.402338" y="199.57099" style="fill: #666666; stroke: #666666; stroke-width: 0.5"/>
    </g>
   </g>
   <g id="text_1">
    <!-- C3H6Ni48 -->
    <g transform="translate(125.195621 1.986225) scale(0.1 -0.1)">
     <defs>
      <path id="DejaVuSans-43" d="M 4122 4306 
L 4122 3641 
Q 3803 3938 3442 4084 
Q 3081 4231 2675 4231 
Q 1875 4231 1450 3742 
Q 1025 3253 1025 2328 
Q 1025 1406 1450 917 
Q 1875 428 2675 428 
Q 3081 428 3442 575 
Q 3803 722 4122 1019 
L 4122 359 
Q 3791 134 3420 21 
Q 3050 -91 2638 -91 
Q 1578 -91 968 557 
Q 359 1206 359 2328 
Q 359 3453 968 4101 
Q 1578 4750 2638 4750 
Q 3056 4750 3426 4639 
Q 3797 4528 4122 4306 
z
" transform="scale(0.015625)"/>
      <path id="DejaVuSans-33" d="M 2597 2516 
Q 3050 2419 3304 2112 
Q 3559 1806 3559 1356 
Q 3559 666 3084 287 
Q 2609 -91 1734 -91 
Q 1441 -91 1130 -33 
Q 819 25 488 141 
L 488 750 
Q 750 597 1062 519 
Q 1375 441 1716 441 
Q 2309 441 2620 675 
Q 2931 909 2931 1356 
Q 2931 1769 2642 2001 
Q 2353 2234 1838 2234 
L 1294 2234 
L 1294 2753 
L 1863 2753 
Q 2328 2753 2575 2939 
Q 2822 3125 2822 3475 
Q 2822 3834 2567 4026 
Q 2313 4219 1838 4219 
Q 1578 4219 1281 4162 
Q 984 4106 628 3988 
L 628 4550 
Q 988 4650 1302 4700 
Q 1616 4750 1894 4750 
Q 2613 4750 3031 4423 
Q 3450 4097 3450 3541 
Q 3450 3153 3228 2886 
Q 3006 2619 2597 2516 
z
" transform="scale(0.015625)"/>
      <path id="DejaVuSans-48" d="M 628 4666 
L 1259 4666 
L 1259 2753 
L 3553 2753 
L 3553 4666 
L 4184 4666 
L 4184 0 
L 3553 0 
L 3553 2222 
L 1259 2222 
L 1259 0 
L 628 0 
L 628 4666 
z
" transform="scale(0.015625)"/>
      <path id="DejaVuSans-36" d="M 2113 2584 
Q 1688 2584 1439 2293 
Q 1191 2003 1191 1497 
Q 1191 994 1439 701 
Q 1688 409 2113 409 
Q 2538 409 2786 701 
Q 3034 994 3034 1497 
Q 3034 2003 2786 2293 
Q 2538 2584 2113 2584 
z
M 3366 4563 
L 3366 3988 
Q 3128 4100 2886 4159 
Q 2644 4219 2406 4219 
Q 1781 4219 1451 3797 
Q 1122 3375 1075 2522 
Q 1259 2794 1537 2939 
Q 1816 3084 2150 3084 
Q 2853 3084 3261 2657 
Q 3669 2231 3669 1497 
Q 3669 778 3244 343 
Q 2819 -91 2113 -91 
Q 1303 -91 875 529 
Q 447 1150 447 2328 
Q 447 3434 972 4092 
Q 1497 4750 2381 4750 
Q 2619 4750 2861 4703 
Q 3103 4656 3366 4563 
z
" transform="scale(0.015625)"/>
      <path id="DejaVuSans-4e" d="M 628 4666 
L 1478 4666 
L 3547 763 
L 3547 4666 
L 4159 4666 
L 4159 0 
L 3309 0 
L 1241 3903 
L 1241 0 
L 628 0 
L 628 4666 
z
" transform="scale(0.015625)"/>
      <path id="DejaVuSans-69" d="M 603 3500 
L 1178 3500 
L 1178 0 
L 603 0 
L 603 3500 
z
M 603 4863 
L 1178 4863 
L 1178 4134 
L 603 4134 
L 603 4863 
z
" transform="scale(0.015625)"/>
      <path id="DejaVuSans-34" d="M 2419 4116 
L 825 1625 
L 2419 1625 
L 2419 4116 
z
M 2253 4666 
L 3047 4666 
L 3047 1625 
L 3713 1625 
L 3713 1100 
L 3047 1100 
L 3047 0 
L 2419 0 
L 2419 1100 
L 313 1100 
L 313 1709 
L 2253 4666 
z
" transform="scale(0.015625)"/>
      <path id="DejaVuSans-38" d="M 2034 2216 
Q 1584 2216 1326 1975 
Q 1069 1734 1069 1313 
Q 1069 891 1326 650 
Q 1584 409 2034 409 
Q 2484 409 2743 651 
Q 3003 894 3003 1313 
Q 3003 1734 2745 1975 
Q 2488 2216 2034 2216 
z
M 1403 2484 
Q 997 2584 770 2862 
Q 544 3141 544 3541 
Q 544 4100 942 4425 
Q 1341 4750 2034 4750 
Q 2731 4750 3128 4425 
Q 3525 4100 3525 3541 
Q 3525 3141 3298 2862 
Q 3072 2584 2669 2484 
Q 3125 2378 3379 2068 
Q 3634 1759 3634 1313 
Q 3634 634 3220 271 
Q 2806 -91 2034 -91 
Q 1263 -91 848 271 
Q 434 634 434 1313 
Q 434 1759 690 2068 
Q 947 2378 1403 2484 
z
M 1172 3481 
Q 1172 3119 1398 2916 
Q 1625 2713 2034 2713 
Q 2441 2713 2670 2916 
Q 2900 3119 2900 3481 
Q 2900 3844 2670 4047 
Q 2441 4250 2034 4250 
Q 1625 4250 1398 4047 
Q 1172 3844 1172 3481 
z
" transform="scale(0.015625)"/>
     </defs>
     <use xlink:href="#DejaVuSans-43"/>
     <use xlink:href="#DejaVuSans-33" transform="translate(69.824219 0)"/>
     <use xlink:href="#DejaVuSans-48" transform="translate(133.447266 0)"/>
     <use xlink:href="#DejaVuSans-36" transform="translate(208.642578 0)"/>
     <use xlink:href="#DejaVuSans-4e" transform="translate(272.265625 0)"/>
     <use xlink:href="#DejaVuSans-69" transform="translate(347.070312 0)"/>
     <use xlink:href="#DejaVuSans-34" transform="translate(374.853516 0)"/>
     <use xlink:href="#DejaVuSans-38" transform="translate(438.476562 0)"/>
    </g>
    <!-- Error: -10.60 eV -->
    <g transform="translate(125.195621 13.184038) scale(0.1 -0.1)">
     <defs>
      <path id="DejaVuSans-45" d="M 628 4666 
L 3578 4666 
L 3578 4134 
L 1259 4134 
L 1259 2753 
L 3481 2753 
L 3481 2222 
L 1259 2222 
L 1259 531 
L 3634 531 
L 3634 0 
L 628 0 
L 628 4666 
z
" transform="scale(0.015625)"/>
      <path id="DejaVuSans-72" d="M 2631 2963 
Q 2534 3019 2420 3045 
Q 2306 3072 2169 3072 
Q 1681 3072 1420 2755 
Q 1159 2438 1159 1844 
L 1159 0 
L 581 0 
L 581 3500 
L 1159 3500 
L 1159 2956 
Q 1341 3275 1631 3429 
Q 1922 3584 2338 3584 
Q 2397 3584 2469 3576 
Q 2541 3569 2628 3553 
L 2631 2963 
z
" transform="scale(0.015625)"/>
      <path id="DejaVuSans-6f" d="M 1959 3097 
Q 1497 3097 1228 2736 
Q 959 2375 959 1747 
Q 959 1119 1226 758 
Q 1494 397 1959 397 
Q 2419 397 2687 759 
Q 2956 1122 2956 1747 
Q 2956 2369 2687 2733 
Q 2419 3097 1959 3097 
z
M 1959 3584 
Q 2709 3584 3137 3096 
Q 3566 2609 3566 1747 
Q 3566 888 3137 398 
Q 2709 -91 1959 -91 
Q 1206 -91 779 398 
Q 353 888 353 1747 
Q 353 2609 779 3096 
Q 1206 3584 1959 3584 
z
" transform="scale(0.015625)"/>
      <path id="DejaVuSans-3a" d="M 750 794 
L 1409 794 
L 1409 0 
L 750 0 
L 750 794 
z
M 750 3309 
L 1409 3309 
L 1409 2516 
L 750 2516 
L 750 3309 
z
" transform="scale(0.015625)"/>
      <path id="DejaVuSans-20" transform="scale(0.015625)"/>
      <path id="DejaVuSans-2d" d="M 313 2009 
L 1997 2009 
L 1997 1497 
L 313 1497 
L 313 2009 
z
" transform="scale(0.015625)"/>
      <path id="DejaVuSans-31" d="M 794 531 
L 1825 531 
L 1825 4091 
L 703 3866 
L 703 4441 
L 1819 4666 
L 2450 4666 
L 2450 531 
L 3481 531 
L 3481 0 
L 794 0 
L 794 531 
z
" transform="scale(0.015625)"/>
      <path id="DejaVuSans-30" d="M 2034 4250 
Q 1547 4250 1301 3770 
Q 1056 3291 1056 2328 
Q 1056 1369 1301 889 
Q 1547 409 2034 409 
Q 2525 409 2770 889 
Q 3016 1369 3016 2328 
Q 3016 3291 2770 3770 
Q 2525 4250 2034 4250 
z
M 2034 4750 
Q 2819 4750 3233 4129 
Q 3647 3509 3647 2328 
Q 3647 1150 3233 529 
Q 2819 -91 2034 -91 
Q 1250 -91 836 529 
Q 422 1150 422 2328 
Q 422 3509 836 4129 
Q 1250 4750 2034 4750 
z
" transform="scale(0.015625)"/>
      <path id="DejaVuSans-2e" d="M 684 794 
L 1344 794 
L 1344 0 
L 684 0 
L 684 794 
z
" transform="scale(0.015625)"/>
      <path id="DejaVuSans-65" d="M 3597 1894 
L 3597 1613 
L 953 1613 
Q 991 1019 1311 708 
Q 1631 397 2203 397 
Q 2534 397 2845 478 
Q 3156 559 3463 722 
L 3463 178 
Q 3153 47 2828 -22 
Q 2503 -91 2169 -91 
Q 1331 -91 842 396 
Q 353 884 353 1716 
Q 353 2575 817 3079 
Q 1281 3584 2069 3584 
Q 2775 3584 3186 3129 
Q 3597 2675 3597 1894 
z
M 3022 2063 
Q 3016 2534 2758 2815 
Q 2500 3097 2075 3097 
Q 1594 3097 1305 2825 
Q 1016 2553 972 2059 
L 3022 2063 
z
" transform="scale(0.015625)"/>
      <path id="DejaVuSans-56" d="M 1831 0 
L 50 4666 
L 709 4666 
L 2188 738 
L 3669 4666 
L 4325 4666 
L 2547 0 
L 1831 0 
z
" transform="scale(0.015625)"/>
     </defs>
     <use xlink:href="#DejaVuSans-45"/>
     <use xlink:href="#DejaVuSans-72" transform="translate(63.183594 0)"/>
     <use xlink:href="#DejaVuSans-72" transform="translate(102.546875 0)"/>
     <use xlink:href="#DejaVuSans-6f" transform="translate(141.410156 0)"/>
     <use xlink:href="#DejaVuSans-72" transform="translate(202.591797 0)"/>
     <use xlink:href="#DejaVuSans-3a" transform="translate(241.955078 0)"/>
     <use xlink:href="#DejaVuSans-20" transform="translate(275.646484 0)"/>
     <use xlink:href="#DejaVuSans-2d" transform="translate(307.433594 0)"/>
     <use xlink:href="#DejaVuSans-31" transform="translate(343.517578 0)"/>
     <use xlink:href="#DejaVuSans-30" transform="translate(407.140625 0)"/>
     <use xlink:href="#DejaVuSans-2e" transform="translate(470.763672 0)"/>
     <use xlink:href="#DejaVuSans-36" transform="translate(502.550781 0)"/>
     <use xlink:href="#DejaVuSans-30" transform="translate(566.173828 0)"/>
     <use xlink:href="#DejaVuSans-20" transform="translate(629.796875 0)"/>
     <use xlink:href="#DejaVuSans-65" transform="translate(661.583984 0)"/>
     <use xlink:href="#DejaVuSans-56" transform="translate(723.107422 0)"/>
    </g>
   </g>
  </g>
 </g>
 <defs>
  <clipPath id="pb68471cbd7">
   <rect x="36" y="34.56" width="223.2" height="221.76"/>
  </clipPath>
 </defs>
</svg>
