<?xml version="1.0" encoding="utf-8" standalone="no"?>
<!DOCTYPE svg PUBLIC "-//W3C//DTD SVG 1.1//EN"
  "http://www.w3.org/Graphics/SVG/1.1/DTD/svg11.dtd">
<svg xmlns:xlink="http://www.w3.org/1999/xlink" width="288pt" height="288pt" viewBox="0 0 288 288" xmlns="http://www.w3.org/2000/svg" version="1.1">
 <metadata>
  <rdf:RDF xmlns:dc="http://purl.org/dc/elements/1.1/" xmlns:cc="http://creativecommons.org/ns#" xmlns:rdf="http://www.w3.org/1999/02/22-rdf-syntax-ns#">
   <cc:Work>
    <dc:type rdf:resource="http://purl.org/dc/dcmitype/StillImage"/>
    <dc:date>2025-06-30T12:03:26.479536</dc:date>
    <dc:format>image/svg+xml</dc:format>
    <dc:creator>
     <cc:Agent>
      <dc:title>Matplotlib v3.10.1, https://matplotlib.org/</dc:title>
     </cc:Agent>
    </dc:creator>
   </cc:Work>
  </rdf:RDF>
 </metadata>
 <defs>
  <style type="text/css">*{stroke-linejoin: round; stroke-linecap: butt}</style>
 </defs>
 <g id="figure_1">
  <g id="patch_1">
   <path d="M 0 288 
L 288 288 
L 288 0 
L 0 0 
z
" style="fill: #ffffff"/>
  </g>
  <g id="axes_1">
   <g id="LineCollection_1">
    <path d="M 76.120484 99.004723 
L 117.911514 101.858412 
" clip-path="url(#p5318249009)" style="fill: none; stroke: #000000; stroke-width: 1.2"/>
    <path d="M 76.120484 99.004723 
L 109.449047 65.211964 
" clip-path="url(#p5318249009)" style="fill: none; stroke: #000000; stroke-width: 1.2"/>
    <path d="M 76.120484 99.004723 
L 74.859194 55.427868 
" clip-path="url(#p5318249009)" style="fill: none; stroke: #000000; stroke-width: 1.2"/>
    <path d="M 76.120484 99.004723 
L 112.494997 88.676324 
" clip-path="url(#p5318249009)" style="fill: none; stroke: #000000; stroke-width: 1.2"/>
    <path d="M 76.120484 99.004723 
L 61.240247 81.452494 
" clip-path="url(#p5318249009)" style="fill: none; stroke: #000000; stroke-width: 1.2"/>
    <path d="M 76.120484 99.004723 
L 66.251459 145.282423 
" clip-path="url(#p5318249009)" style="fill: none; stroke: #000000; stroke-width: 1.2"/>
    <path d="M 76.120484 99.004723 
L 80.944309 157.751657 
" clip-path="url(#p5318249009)" style="fill: none; stroke: #000000; stroke-width: 1.2"/>
    <path d="M 76.120484 99.004723 
L 112.974262 135.367583 
" clip-path="url(#p5318249009)" style="fill: none; stroke: #000000; stroke-width: 1.2"/>
    <path d="M 76.120484 99.004723 
L 71.763502 119.862341 
" clip-path="url(#p5318249009)" style="fill: none; stroke: #000000; stroke-width: 1.2"/>
    <path d="M 154.875213 99.712165 
L 117.911514 101.858412 
" clip-path="url(#p5318249009)" style="fill: none; stroke: #000000; stroke-width: 1.2"/>
    <path d="M 154.875213 99.712165 
L 144.849565 66.108096 
" clip-path="url(#p5318249009)" style="fill: none; stroke: #000000; stroke-width: 1.2"/>
    <path d="M 154.875213 99.712165 
L 109.449047 65.211964 
" clip-path="url(#p5318249009)" style="fill: none; stroke: #000000; stroke-width: 1.2"/>
    <path d="M 154.875213 99.712165 
L 112.494997 88.676324 
" clip-path="url(#p5318249009)" style="fill: none; stroke: #000000; stroke-width: 1.2"/>
    <path d="M 154.875213 99.712165 
L 141.499776 57.347095 
" clip-path="url(#p5318249009)" style="fill: none; stroke: #000000; stroke-width: 1.2"/>
    <path d="M 154.875213 99.712165 
L 133.906328 85.887199 
" clip-path="url(#p5318249009)" style="fill: none; stroke: #000000; stroke-width: 1.2"/>
    <path d="M 154.875213 99.712165 
L 134.50556 153.369114 
" clip-path="url(#p5318249009)" style="fill: none; stroke: #000000; stroke-width: 1.2"/>
    <path d="M 154.875213 99.712165 
L 149.389168 133.589677 
" clip-path="url(#p5318249009)" style="fill: none; stroke: #000000; stroke-width: 1.2"/>
    <path d="M 154.875213 99.712165 
L 112.974262 135.367583 
" clip-path="url(#p5318249009)" style="fill: none; stroke: #000000; stroke-width: 1.2"/>
    <path d="M 154.875213 99.712165 
L 148.338771 123.376666 
" clip-path="url(#p5318249009)" style="fill: none; stroke: #000000; stroke-width: 1.2"/>
    <path d="M 117.911514 101.858412 
L 144.849565 66.108096 
" clip-path="url(#p5318249009)" style="fill: none; stroke: #000000; stroke-width: 1.2"/>
    <path d="M 117.911514 101.858412 
L 109.449047 65.211964 
" clip-path="url(#p5318249009)" style="fill: none; stroke: #000000; stroke-width: 1.2"/>
    <path d="M 117.911514 101.858412 
L 150.693822 88.048888 
" clip-path="url(#p5318249009)" style="fill: none; stroke: #000000; stroke-width: 1.2"/>
    <path d="M 117.911514 101.858412 
L 107.188656 53.803636 
" clip-path="url(#p5318249009)" style="fill: none; stroke: #000000; stroke-width: 1.2"/>
    <path d="M 117.911514 101.858412 
L 93.010903 82.201169 
" clip-path="url(#p5318249009)" style="fill: none; stroke: #000000; stroke-width: 1.2"/>
    <path d="M 117.911514 101.858412 
L 80.944309 157.751657 
" clip-path="url(#p5318249009)" style="fill: none; stroke: #000000; stroke-width: 1.2"/>
    <path d="M 117.911514 101.858412 
L 99.885161 150.687086 
" clip-path="url(#p5318249009)" style="fill: none; stroke: #000000; stroke-width: 1.2"/>
    <path d="M 117.911514 101.858412 
L 149.389168 133.589677 
" clip-path="url(#p5318249009)" style="fill: none; stroke: #000000; stroke-width: 1.2"/>
    <path d="M 117.911514 101.858412 
L 112.974262 135.367583 
" clip-path="url(#p5318249009)" style="fill: none; stroke: #000000; stroke-width: 1.2"/>
    <path d="M 117.911514 101.858412 
L 108.973338 124.114949 
" clip-path="url(#p5318249009)" style="fill: none; stroke: #000000; stroke-width: 1.2"/>
    <path d="M 144.849565 66.108096 
L 109.449047 65.211964 
" clip-path="url(#p5318249009)" style="fill: none; stroke: #000000; stroke-width: 1.2"/>
    <path d="M 144.849565 66.108096 
L 150.693822 88.048888 
" clip-path="url(#p5318249009)" style="fill: none; stroke: #000000; stroke-width: 1.2"/>
    <path d="M 144.849565 66.108096 
L 107.188656 53.803636 
" clip-path="url(#p5318249009)" style="fill: none; stroke: #000000; stroke-width: 1.2"/>
    <path d="M 144.849565 66.108096 
L 133.906328 85.887199 
" clip-path="url(#p5318249009)" style="fill: none; stroke: #000000; stroke-width: 1.2"/>
    <path d="M 144.849565 66.108096 
L 93.010903 82.201169 
" clip-path="url(#p5318249009)" style="fill: none; stroke: #000000; stroke-width: 1.2"/>
    <path d="M 144.849565 66.108096 
L 127.34308 116.487769 
" clip-path="url(#p5318249009)" style="fill: none; stroke: #000000; stroke-width: 1.2"/>
    <path d="M 144.849565 66.108096 
L 126.668944 70.296268 
" clip-path="url(#p5318249009)" style="fill: none; stroke: #000000; stroke-width: 1.2"/>
    <path d="M 144.849565 66.108096 
L 149.389168 133.589677 
" clip-path="url(#p5318249009)" style="fill: none; stroke: #000000; stroke-width: 1.2"/>
    <path d="M 109.449047 65.211964 
L 74.859194 55.427868 
" clip-path="url(#p5318249009)" style="fill: none; stroke: #000000; stroke-width: 1.2"/>
    <path d="M 109.449047 65.211964 
L 112.494997 88.676324 
" clip-path="url(#p5318249009)" style="fill: none; stroke: #000000; stroke-width: 1.2"/>
    <path d="M 109.449047 65.211964 
L 141.499776 57.347095 
" clip-path="url(#p5318249009)" style="fill: none; stroke: #000000; stroke-width: 1.2"/>
    <path d="M 109.449047 65.211964 
L 61.240247 81.452494 
" clip-path="url(#p5318249009)" style="fill: none; stroke: #000000; stroke-width: 1.2"/>
    <path d="M 109.449047 65.211964 
L 133.906328 85.887199 
" clip-path="url(#p5318249009)" style="fill: none; stroke: #000000; stroke-width: 1.2"/>
    <path d="M 109.449047 65.211964 
L 93.010903 82.201169 
" clip-path="url(#p5318249009)" style="fill: none; stroke: #000000; stroke-width: 1.2"/>
    <path d="M 109.449047 65.211964 
L 94.860629 115.857609 
" clip-path="url(#p5318249009)" style="fill: none; stroke: #000000; stroke-width: 1.2"/>
    <path d="M 109.449047 65.211964 
L 94.495148 72.647695 
" clip-path="url(#p5318249009)" style="fill: none; stroke: #000000; stroke-width: 1.2"/>
    <path d="M 109.449047 65.211964 
L 112.974262 135.367583 
" clip-path="url(#p5318249009)" style="fill: none; stroke: #000000; stroke-width: 1.2"/>
    <path d="M 74.859194 55.427868 
L 112.494997 88.676324 
" clip-path="url(#p5318249009)" style="fill: none; stroke: #000000; stroke-width: 1.2"/>
    <path d="M 74.859194 55.427868 
L 107.188656 53.803636 
" clip-path="url(#p5318249009)" style="fill: none; stroke: #000000; stroke-width: 1.2"/>
    <path d="M 74.859194 55.427868 
L 61.240247 81.452494 
" clip-path="url(#p5318249009)" style="fill: none; stroke: #000000; stroke-width: 1.2"/>
    <path d="M 74.859194 55.427868 
L 59.752299 71.554095 
" clip-path="url(#p5318249009)" style="fill: none; stroke: #000000; stroke-width: 1.2"/>
    <path d="M 74.859194 55.427868 
L 55.368595 102.937189 
" clip-path="url(#p5318249009)" style="fill: none; stroke: #000000; stroke-width: 1.2"/>
    <path d="M 74.859194 55.427868 
L 94.495148 72.647695 
" clip-path="url(#p5318249009)" style="fill: none; stroke: #000000; stroke-width: 1.2"/>
    <path d="M 74.859194 55.427868 
L 71.763502 119.862341 
" clip-path="url(#p5318249009)" style="fill: none; stroke: #000000; stroke-width: 1.2"/>
    <path d="M 150.693822 88.048888 
L 112.494997 88.676324 
" clip-path="url(#p5318249009)" style="fill: none; stroke: #000000; stroke-width: 1.2"/>
    <path d="M 150.693822 88.048888 
L 141.499776 57.347095 
" clip-path="url(#p5318249009)" style="fill: none; stroke: #000000; stroke-width: 1.2"/>
    <path d="M 150.693822 88.048888 
L 107.188656 53.803636 
" clip-path="url(#p5318249009)" style="fill: none; stroke: #000000; stroke-width: 1.2"/>
    <path d="M 150.693822 88.048888 
L 126.668944 70.296268 
" clip-path="url(#p5318249009)" style="fill: none; stroke: #000000; stroke-width: 1.2"/>
    <path d="M 150.693822 88.048888 
L 149.389168 133.589677 
" clip-path="url(#p5318249009)" style="fill: none; stroke: #000000; stroke-width: 1.2"/>
    <path d="M 150.693822 88.048888 
L 129.516765 142.512684 
" clip-path="url(#p5318249009)" style="fill: none; stroke: #000000; stroke-width: 1.2"/>
    <path d="M 150.693822 88.048888 
L 148.338771 123.376666 
" clip-path="url(#p5318249009)" style="fill: none; stroke: #000000; stroke-width: 1.2"/>
    <path d="M 150.693822 88.048888 
L 108.973338 124.114949 
" clip-path="url(#p5318249009)" style="fill: none; stroke: #000000; stroke-width: 1.2"/>
    <path d="M 112.494997 88.676324 
L 141.499776 57.347095 
" clip-path="url(#p5318249009)" style="fill: none; stroke: #000000; stroke-width: 1.2"/>
    <path d="M 112.494997 88.676324 
L 107.188656 53.803636 
" clip-path="url(#p5318249009)" style="fill: none; stroke: #000000; stroke-width: 1.2"/>
    <path d="M 112.494997 88.676324 
L 94.495148 72.647695 
" clip-path="url(#p5318249009)" style="fill: none; stroke: #000000; stroke-width: 1.2"/>
    <path d="M 112.494997 88.676324 
L 112.974262 135.367583 
" clip-path="url(#p5318249009)" style="fill: none; stroke: #000000; stroke-width: 1.2"/>
    <path d="M 112.494997 88.676324 
L 71.763502 119.862341 
" clip-path="url(#p5318249009)" style="fill: none; stroke: #000000; stroke-width: 1.2"/>
    <path d="M 112.494997 88.676324 
L 96.879648 139.054431 
" clip-path="url(#p5318249009)" style="fill: none; stroke: #000000; stroke-width: 1.2"/>
    <path d="M 112.494997 88.676324 
L 148.338771 123.376666 
" clip-path="url(#p5318249009)" style="fill: none; stroke: #000000; stroke-width: 1.2"/>
    <path d="M 112.494997 88.676324 
L 108.973338 124.114949 
" clip-path="url(#p5318249009)" style="fill: none; stroke: #000000; stroke-width: 1.2"/>
    <path d="M 141.499776 57.347095 
L 107.188656 53.803636 
" clip-path="url(#p5318249009)" style="fill: none; stroke: #000000; stroke-width: 1.2"/>
    <path d="M 141.499776 57.347095 
L 133.906328 85.887199 
" clip-path="url(#p5318249009)" style="fill: none; stroke: #000000; stroke-width: 1.2"/>
    <path d="M 141.499776 57.347095 
L 126.668944 70.296268 
" clip-path="url(#p5318249009)" style="fill: none; stroke: #000000; stroke-width: 1.2"/>
    <path d="M 141.499776 57.347095 
L 94.495148 72.647695 
" clip-path="url(#p5318249009)" style="fill: none; stroke: #000000; stroke-width: 1.2"/>
    <path d="M 141.499776 57.347095 
L 137.647607 110.008648 
" clip-path="url(#p5318249009)" style="fill: none; stroke: #000000; stroke-width: 1.2"/>
    <path d="M 141.499776 57.347095 
L 148.338771 123.376666 
" clip-path="url(#p5318249009)" style="fill: none; stroke: #000000; stroke-width: 1.2"/>
    <path d="M 107.188656 53.803636 
L 93.010903 82.201169 
" clip-path="url(#p5318249009)" style="fill: none; stroke: #000000; stroke-width: 1.2"/>
    <path d="M 107.188656 53.803636 
L 59.752299 71.554095 
" clip-path="url(#p5318249009)" style="fill: none; stroke: #000000; stroke-width: 1.2"/>
    <path d="M 107.188656 53.803636 
L 126.668944 70.296268 
" clip-path="url(#p5318249009)" style="fill: none; stroke: #000000; stroke-width: 1.2"/>
    <path d="M 107.188656 53.803636 
L 94.495148 72.647695 
" clip-path="url(#p5318249009)" style="fill: none; stroke: #000000; stroke-width: 1.2"/>
    <path d="M 107.188656 53.803636 
L 90.849335 105.279855 
" clip-path="url(#p5318249009)" style="fill: none; stroke: #000000; stroke-width: 1.2"/>
    <path d="M 107.188656 53.803636 
L 108.973338 124.114949 
" clip-path="url(#p5318249009)" style="fill: none; stroke: #000000; stroke-width: 1.2"/>
    <path d="M 61.240247 81.452494 
L 56.123966 118.698967 
" clip-path="url(#p5318249009)" style="fill: none; stroke: #000000; stroke-width: 1.2"/>
    <path d="M 61.240247 81.452494 
L 93.010903 82.201169 
" clip-path="url(#p5318249009)" style="fill: none; stroke: #000000; stroke-width: 1.2"/>
    <path d="M 61.240247 81.452494 
L 94.860629 115.857609 
" clip-path="url(#p5318249009)" style="fill: none; stroke: #000000; stroke-width: 1.2"/>
    <path d="M 61.240247 81.452494 
L 55.368595 102.937189 
" clip-path="url(#p5318249009)" style="fill: none; stroke: #000000; stroke-width: 1.2"/>
    <path d="M 61.240247 81.452494 
L 94.495148 72.647695 
" clip-path="url(#p5318249009)" style="fill: none; stroke: #000000; stroke-width: 1.2"/>
    <path d="M 61.240247 81.452494 
L 66.251459 145.282423 
" clip-path="url(#p5318249009)" style="fill: none; stroke: #000000; stroke-width: 1.2"/>
    <path d="M 56.123966 118.698967 
L 93.010903 82.201169 
" clip-path="url(#p5318249009)" style="fill: none; stroke: #000000; stroke-width: 1.2"/>
    <path d="M 56.123966 118.698967 
L 94.860629 115.857609 
" clip-path="url(#p5318249009)" style="fill: none; stroke: #000000; stroke-width: 1.2"/>
    <path d="M 56.123966 118.698967 
L 59.752299 71.554095 
" clip-path="url(#p5318249009)" style="fill: none; stroke: #000000; stroke-width: 1.2"/>
    <path d="M 56.123966 118.698967 
L 90.849335 105.279855 
" clip-path="url(#p5318249009)" style="fill: none; stroke: #000000; stroke-width: 1.2"/>
    <path d="M 56.123966 118.698967 
L 66.251459 145.282423 
" clip-path="url(#p5318249009)" style="fill: none; stroke: #000000; stroke-width: 1.2"/>
    <path d="M 56.123966 118.698967 
L 80.944309 157.751657 
" clip-path="url(#p5318249009)" style="fill: none; stroke: #000000; stroke-width: 1.2"/>
    <path d="M 56.123966 118.698967 
L 99.885161 150.687086 
" clip-path="url(#p5318249009)" style="fill: none; stroke: #000000; stroke-width: 1.2"/>
    <path d="M 56.123966 118.698967 
L 60.52244 139.440003 
" clip-path="url(#p5318249009)" style="fill: none; stroke: #000000; stroke-width: 1.2"/>
    <path d="M 133.906328 85.887199 
L 93.010903 82.201169 
" clip-path="url(#p5318249009)" style="fill: none; stroke: #000000; stroke-width: 1.2"/>
    <path d="M 133.906328 85.887199 
L 127.34308 116.487769 
" clip-path="url(#p5318249009)" style="fill: none; stroke: #000000; stroke-width: 1.2"/>
    <path d="M 133.906328 85.887199 
L 94.860629 115.857609 
" clip-path="url(#p5318249009)" style="fill: none; stroke: #000000; stroke-width: 1.2"/>
    <path d="M 133.906328 85.887199 
L 94.495148 72.647695 
" clip-path="url(#p5318249009)" style="fill: none; stroke: #000000; stroke-width: 1.2"/>
    <path d="M 133.906328 85.887199 
L 137.647607 110.008648 
" clip-path="url(#p5318249009)" style="fill: none; stroke: #000000; stroke-width: 1.2"/>
    <path d="M 133.906328 85.887199 
L 134.50556 153.369114 
" clip-path="url(#p5318249009)" style="fill: none; stroke: #000000; stroke-width: 1.2"/>
    <path d="M 93.010903 82.201169 
L 127.34308 116.487769 
" clip-path="url(#p5318249009)" style="fill: none; stroke: #000000; stroke-width: 1.2"/>
    <path d="M 93.010903 82.201169 
L 94.860629 115.857609 
" clip-path="url(#p5318249009)" style="fill: none; stroke: #000000; stroke-width: 1.2"/>
    <path d="M 93.010903 82.201169 
L 59.752299 71.554095 
" clip-path="url(#p5318249009)" style="fill: none; stroke: #000000; stroke-width: 1.2"/>
    <path d="M 93.010903 82.201169 
L 126.668944 70.296268 
" clip-path="url(#p5318249009)" style="fill: none; stroke: #000000; stroke-width: 1.2"/>
    <path d="M 93.010903 82.201169 
L 90.849335 105.279855 
" clip-path="url(#p5318249009)" style="fill: none; stroke: #000000; stroke-width: 1.2"/>
    <path d="M 93.010903 82.201169 
L 99.885161 150.687086 
" clip-path="url(#p5318249009)" style="fill: none; stroke: #000000; stroke-width: 1.2"/>
    <path d="M 127.34308 116.487769 
L 94.860629 115.857609 
" clip-path="url(#p5318249009)" style="fill: none; stroke: #000000; stroke-width: 1.2"/>
    <path d="M 127.34308 116.487769 
L 126.668944 70.296268 
" clip-path="url(#p5318249009)" style="fill: none; stroke: #000000; stroke-width: 1.2"/>
    <path d="M 127.34308 116.487769 
L 90.849335 105.279855 
" clip-path="url(#p5318249009)" style="fill: none; stroke: #000000; stroke-width: 1.2"/>
    <path d="M 127.34308 116.487769 
L 134.50556 153.369114 
" clip-path="url(#p5318249009)" style="fill: none; stroke: #000000; stroke-width: 1.2"/>
    <path d="M 127.34308 116.487769 
L 99.885161 150.687086 
" clip-path="url(#p5318249009)" style="fill: none; stroke: #000000; stroke-width: 1.2"/>
    <path d="M 127.34308 116.487769 
L 149.389168 133.589677 
" clip-path="url(#p5318249009)" style="fill: none; stroke: #000000; stroke-width: 1.2"/>
    <path d="M 127.34308 116.487769 
L 129.516765 142.512684 
" clip-path="url(#p5318249009)" style="fill: none; stroke: #000000; stroke-width: 1.2"/>
    <path d="M 94.860629 115.857609 
L 55.368595 102.937189 
" clip-path="url(#p5318249009)" style="fill: none; stroke: #000000; stroke-width: 1.2"/>
    <path d="M 94.860629 115.857609 
L 94.495148 72.647695 
" clip-path="url(#p5318249009)" style="fill: none; stroke: #000000; stroke-width: 1.2"/>
    <path d="M 94.860629 115.857609 
L 137.647607 110.008648 
" clip-path="url(#p5318249009)" style="fill: none; stroke: #000000; stroke-width: 1.2"/>
    <path d="M 94.860629 115.857609 
L 66.251459 145.282423 
" clip-path="url(#p5318249009)" style="fill: none; stroke: #000000; stroke-width: 1.2"/>
    <path d="M 94.860629 115.857609 
L 134.50556 153.369114 
" clip-path="url(#p5318249009)" style="fill: none; stroke: #000000; stroke-width: 1.2"/>
    <path d="M 94.860629 115.857609 
L 99.885161 150.687086 
" clip-path="url(#p5318249009)" style="fill: none; stroke: #000000; stroke-width: 1.2"/>
    <path d="M 94.860629 115.857609 
L 112.974262 135.367583 
" clip-path="url(#p5318249009)" style="fill: none; stroke: #000000; stroke-width: 1.2"/>
    <path d="M 94.860629 115.857609 
L 96.879648 139.054431 
" clip-path="url(#p5318249009)" style="fill: none; stroke: #000000; stroke-width: 1.2"/>
    <path d="M 59.752299 71.554095 
L 55.368595 102.937189 
" clip-path="url(#p5318249009)" style="fill: none; stroke: #000000; stroke-width: 1.2"/>
    <path d="M 59.752299 71.554095 
L 94.495148 72.647695 
" clip-path="url(#p5318249009)" style="fill: none; stroke: #000000; stroke-width: 1.2"/>
    <path d="M 59.752299 71.554095 
L 90.849335 105.279855 
" clip-path="url(#p5318249009)" style="fill: none; stroke: #000000; stroke-width: 1.2"/>
    <path d="M 59.752299 71.554095 
L 60.52244 139.440003 
" clip-path="url(#p5318249009)" style="fill: none; stroke: #000000; stroke-width: 1.2"/>
    <path d="M 55.368595 102.937189 
L 94.495148 72.647695 
" clip-path="url(#p5318249009)" style="fill: none; stroke: #000000; stroke-width: 1.2"/>
    <path d="M 55.368595 102.937189 
L 90.849335 105.279855 
" clip-path="url(#p5318249009)" style="fill: none; stroke: #000000; stroke-width: 1.2"/>
    <path d="M 55.368595 102.937189 
L 66.251459 145.282423 
" clip-path="url(#p5318249009)" style="fill: none; stroke: #000000; stroke-width: 1.2"/>
    <path d="M 55.368595 102.937189 
L 60.52244 139.440003 
" clip-path="url(#p5318249009)" style="fill: none; stroke: #000000; stroke-width: 1.2"/>
    <path d="M 55.368595 102.937189 
L 71.763502 119.862341 
" clip-path="url(#p5318249009)" style="fill: none; stroke: #000000; stroke-width: 1.2"/>
    <path d="M 55.368595 102.937189 
L 96.879648 139.054431 
" clip-path="url(#p5318249009)" style="fill: none; stroke: #000000; stroke-width: 1.2"/>
    <path d="M 126.668944 70.296268 
L 94.495148 72.647695 
" clip-path="url(#p5318249009)" style="fill: none; stroke: #000000; stroke-width: 1.2"/>
    <path d="M 126.668944 70.296268 
L 137.647607 110.008648 
" clip-path="url(#p5318249009)" style="fill: none; stroke: #000000; stroke-width: 1.2"/>
    <path d="M 126.668944 70.296268 
L 90.849335 105.279855 
" clip-path="url(#p5318249009)" style="fill: none; stroke: #000000; stroke-width: 1.2"/>
    <path d="M 126.668944 70.296268 
L 129.516765 142.512684 
" clip-path="url(#p5318249009)" style="fill: none; stroke: #000000; stroke-width: 1.2"/>
    <path d="M 94.495148 72.647695 
L 137.647607 110.008648 
" clip-path="url(#p5318249009)" style="fill: none; stroke: #000000; stroke-width: 1.2"/>
    <path d="M 94.495148 72.647695 
L 90.849335 105.279855 
" clip-path="url(#p5318249009)" style="fill: none; stroke: #000000; stroke-width: 1.2"/>
    <path d="M 94.495148 72.647695 
L 96.879648 139.054431 
" clip-path="url(#p5318249009)" style="fill: none; stroke: #000000; stroke-width: 1.2"/>
    <path d="M 137.647607 110.008648 
L 90.849335 105.279855 
" clip-path="url(#p5318249009)" style="fill: none; stroke: #000000; stroke-width: 1.2"/>
    <path d="M 137.647607 110.008648 
L 134.50556 153.369114 
" clip-path="url(#p5318249009)" style="fill: none; stroke: #000000; stroke-width: 1.2"/>
    <path d="M 137.647607 110.008648 
L 129.516765 142.512684 
" clip-path="url(#p5318249009)" style="fill: none; stroke: #000000; stroke-width: 1.2"/>
    <path d="M 137.647607 110.008648 
L 96.879648 139.054431 
" clip-path="url(#p5318249009)" style="fill: none; stroke: #000000; stroke-width: 1.2"/>
    <path d="M 137.647607 110.008648 
L 148.338771 123.376666 
" clip-path="url(#p5318249009)" style="fill: none; stroke: #000000; stroke-width: 1.2"/>
    <path d="M 137.647607 110.008648 
L 188.75153 130.741581 
" clip-path="url(#p5318249009)" style="fill: none; stroke: #000000; stroke-width: 1.2"/>
    <path d="M 90.849335 105.279855 
L 99.885161 150.687086 
" clip-path="url(#p5318249009)" style="fill: none; stroke: #000000; stroke-width: 1.2"/>
    <path d="M 90.849335 105.279855 
L 60.52244 139.440003 
" clip-path="url(#p5318249009)" style="fill: none; stroke: #000000; stroke-width: 1.2"/>
    <path d="M 90.849335 105.279855 
L 129.516765 142.512684 
" clip-path="url(#p5318249009)" style="fill: none; stroke: #000000; stroke-width: 1.2"/>
    <path d="M 90.849335 105.279855 
L 96.879648 139.054431 
" clip-path="url(#p5318249009)" style="fill: none; stroke: #000000; stroke-width: 1.2"/>
    <path d="M 90.849335 105.279855 
L 108.973338 124.114949 
" clip-path="url(#p5318249009)" style="fill: none; stroke: #000000; stroke-width: 1.2"/>
    <path d="M 66.251459 145.282423 
L 80.944309 157.751657 
" clip-path="url(#p5318249009)" style="fill: none; stroke: #000000; stroke-width: 1.2"/>
    <path d="M 66.251459 145.282423 
L 99.885161 150.687086 
" clip-path="url(#p5318249009)" style="fill: none; stroke: #000000; stroke-width: 1.2"/>
    <path d="M 66.251459 145.282423 
L 112.974262 135.367583 
" clip-path="url(#p5318249009)" style="fill: none; stroke: #000000; stroke-width: 1.2"/>
    <path d="M 66.251459 145.282423 
L 71.763502 119.862341 
" clip-path="url(#p5318249009)" style="fill: none; stroke: #000000; stroke-width: 1.2"/>
    <path d="M 66.251459 145.282423 
L 96.879648 139.054431 
" clip-path="url(#p5318249009)" style="fill: none; stroke: #000000; stroke-width: 1.2"/>
    <path d="M 80.944309 157.751657 
L 99.885161 150.687086 
" clip-path="url(#p5318249009)" style="fill: none; stroke: #000000; stroke-width: 1.2"/>
    <path d="M 80.944309 157.751657 
L 112.974262 135.367583 
" clip-path="url(#p5318249009)" style="fill: none; stroke: #000000; stroke-width: 1.2"/>
    <path d="M 80.944309 157.751657 
L 60.52244 139.440003 
" clip-path="url(#p5318249009)" style="fill: none; stroke: #000000; stroke-width: 1.2"/>
    <path d="M 80.944309 157.751657 
L 108.973338 124.114949 
" clip-path="url(#p5318249009)" style="fill: none; stroke: #000000; stroke-width: 1.2"/>
    <path d="M 134.50556 153.369114 
L 99.885161 150.687086 
" clip-path="url(#p5318249009)" style="fill: none; stroke: #000000; stroke-width: 1.2"/>
    <path d="M 134.50556 153.369114 
L 149.389168 133.589677 
" clip-path="url(#p5318249009)" style="fill: none; stroke: #000000; stroke-width: 1.2"/>
    <path d="M 134.50556 153.369114 
L 112.974262 135.367583 
" clip-path="url(#p5318249009)" style="fill: none; stroke: #000000; stroke-width: 1.2"/>
    <path d="M 134.50556 153.369114 
L 96.879648 139.054431 
" clip-path="url(#p5318249009)" style="fill: none; stroke: #000000; stroke-width: 1.2"/>
    <path d="M 134.50556 153.369114 
L 148.338771 123.376666 
" clip-path="url(#p5318249009)" style="fill: none; stroke: #000000; stroke-width: 1.2"/>
    <path d="M 134.50556 153.369114 
L 161.597805 190.395972 
" clip-path="url(#p5318249009)" style="fill: none; stroke: #000000; stroke-width: 1.2"/>
    <path d="M 99.885161 150.687086 
L 149.389168 133.589677 
" clip-path="url(#p5318249009)" style="fill: none; stroke: #000000; stroke-width: 1.2"/>
    <path d="M 99.885161 150.687086 
L 112.974262 135.367583 
" clip-path="url(#p5318249009)" style="fill: none; stroke: #000000; stroke-width: 1.2"/>
    <path d="M 99.885161 150.687086 
L 60.52244 139.440003 
" clip-path="url(#p5318249009)" style="fill: none; stroke: #000000; stroke-width: 1.2"/>
    <path d="M 99.885161 150.687086 
L 129.516765 142.512684 
" clip-path="url(#p5318249009)" style="fill: none; stroke: #000000; stroke-width: 1.2"/>
    <path d="M 99.885161 150.687086 
L 108.973338 124.114949 
" clip-path="url(#p5318249009)" style="fill: none; stroke: #000000; stroke-width: 1.2"/>
    <path d="M 149.389168 133.589677 
L 112.974262 135.367583 
" clip-path="url(#p5318249009)" style="fill: none; stroke: #000000; stroke-width: 1.2"/>
    <path d="M 149.389168 133.589677 
L 129.516765 142.512684 
" clip-path="url(#p5318249009)" style="fill: none; stroke: #000000; stroke-width: 1.2"/>
    <path d="M 149.389168 133.589677 
L 108.973338 124.114949 
" clip-path="url(#p5318249009)" style="fill: none; stroke: #000000; stroke-width: 1.2"/>
    <path d="M 112.974262 135.367583 
L 71.763502 119.862341 
" clip-path="url(#p5318249009)" style="fill: none; stroke: #000000; stroke-width: 1.2"/>
    <path d="M 112.974262 135.367583 
L 96.879648 139.054431 
" clip-path="url(#p5318249009)" style="fill: none; stroke: #000000; stroke-width: 1.2"/>
    <path d="M 112.974262 135.367583 
L 148.338771 123.376666 
" clip-path="url(#p5318249009)" style="fill: none; stroke: #000000; stroke-width: 1.2"/>
    <path d="M 60.52244 139.440003 
L 71.763502 119.862341 
" clip-path="url(#p5318249009)" style="fill: none; stroke: #000000; stroke-width: 1.2"/>
    <path d="M 60.52244 139.440003 
L 96.879648 139.054431 
" clip-path="url(#p5318249009)" style="fill: none; stroke: #000000; stroke-width: 1.2"/>
    <path d="M 60.52244 139.440003 
L 108.973338 124.114949 
" clip-path="url(#p5318249009)" style="fill: none; stroke: #000000; stroke-width: 1.2"/>
    <path d="M 71.763502 119.862341 
L 96.879648 139.054431 
" clip-path="url(#p5318249009)" style="fill: none; stroke: #000000; stroke-width: 1.2"/>
    <path d="M 71.763502 119.862341 
L 108.973338 124.114949 
" clip-path="url(#p5318249009)" style="fill: none; stroke: #000000; stroke-width: 1.2"/>
    <path d="M 129.516765 142.512684 
L 96.879648 139.054431 
" clip-path="url(#p5318249009)" style="fill: none; stroke: #000000; stroke-width: 1.2"/>
    <path d="M 129.516765 142.512684 
L 148.338771 123.376666 
" clip-path="url(#p5318249009)" style="fill: none; stroke: #000000; stroke-width: 1.2"/>
    <path d="M 129.516765 142.512684 
L 108.973338 124.114949 
" clip-path="url(#p5318249009)" style="fill: none; stroke: #000000; stroke-width: 1.2"/>
    <path d="M 96.879648 139.054431 
L 148.338771 123.376666 
" clip-path="url(#p5318249009)" style="fill: none; stroke: #000000; stroke-width: 1.2"/>
    <path d="M 96.879648 139.054431 
L 108.973338 124.114949 
" clip-path="url(#p5318249009)" style="fill: none; stroke: #000000; stroke-width: 1.2"/>
    <path d="M 148.338771 123.376666 
L 108.973338 124.114949 
" clip-path="url(#p5318249009)" style="fill: none; stroke: #000000; stroke-width: 1.2"/>
    <path d="M 239.831405 193.231793 
L 203.480787 177.826578 
" clip-path="url(#p5318249009)" style="fill: none; stroke: #000000; stroke-width: 1.2"/>
    <path d="M 161.062634 237.076364 
L 161.597805 190.395972 
" clip-path="url(#p5318249009)" style="fill: none; stroke: #000000; stroke-width: 1.2"/>
    <path d="M 203.480787 177.826578 
L 188.75153 130.741581 
" clip-path="url(#p5318249009)" style="fill: none; stroke: #000000; stroke-width: 1.2"/>
    <path d="M 203.480787 177.826578 
L 161.597805 190.395972 
" clip-path="url(#p5318249009)" style="fill: none; stroke: #000000; stroke-width: 1.2"/>
   </g>
   <g id="PathCollection_1">
    <defs>
     <path id="C0_0_34be7f5eff" d="M 0 8.944272 
C 2.372049 8.944272 4.647264 8.001847 6.324555 6.324555 
C 8.001847 4.647264 8.944272 2.372049 8.944272 -0 
C 8.944272 -2.372049 8.001847 -4.647264 6.324555 -6.324555 
C 4.647264 -8.001847 2.372049 -8.944272 0 -8.944272 
C -2.372049 -8.944272 -4.647264 -8.001847 -6.324555 -6.324555 
C -8.001847 -4.647264 -8.944272 -2.372049 -8.944272 0 
C -8.944272 2.372049 -8.001847 4.647264 -6.324555 6.324555 
C -4.647264 8.001847 -2.372049 8.944272 0 8.944272 
z
"/>
    </defs>
    <g clip-path="url(#p5318249009)">
     <use xlink:href="#C0_0_34be7f5eff" x="76.120484" y="99.004723" style="fill: #e06633; stroke: #e06633; stroke-width: 0.5"/>
    </g>
    <g clip-path="url(#p5318249009)">
     <use xlink:href="#C0_0_34be7f5eff" x="154.875213" y="99.712165" style="fill: #e06633; stroke: #e06633; stroke-width: 0.5"/>
    </g>
    <g clip-path="url(#p5318249009)">
     <use xlink:href="#C0_0_34be7f5eff" x="117.911514" y="101.858412" style="fill: #e06633; stroke: #e06633; stroke-width: 0.5"/>
    </g>
    <g clip-path="url(#p5318249009)">
     <use xlink:href="#C0_0_34be7f5eff" x="144.849565" y="66.108096" style="fill: #e06633; stroke: #e06633; stroke-width: 0.5"/>
    </g>
    <g clip-path="url(#p5318249009)">
     <use xlink:href="#C0_0_34be7f5eff" x="109.449047" y="65.211964" style="fill: #e06633; stroke: #e06633; stroke-width: 0.5"/>
    </g>
    <g clip-path="url(#p5318249009)">
     <use xlink:href="#C0_0_34be7f5eff" x="74.859194" y="55.427868" style="fill: #e06633; stroke: #e06633; stroke-width: 0.5"/>
    </g>
    <g clip-path="url(#p5318249009)">
     <use xlink:href="#C0_0_34be7f5eff" x="150.693822" y="88.048888" style="fill: #e06633; stroke: #e06633; stroke-width: 0.5"/>
    </g>
    <g clip-path="url(#p5318249009)">
     <use xlink:href="#C0_0_34be7f5eff" x="112.494997" y="88.676324" style="fill: #e06633; stroke: #e06633; stroke-width: 0.5"/>
    </g>
    <g clip-path="url(#p5318249009)">
     <use xlink:href="#C0_0_34be7f5eff" x="141.499776" y="57.347095" style="fill: #e06633; stroke: #e06633; stroke-width: 0.5"/>
    </g>
    <g clip-path="url(#p5318249009)">
     <use xlink:href="#C0_0_34be7f5eff" x="107.188656" y="53.803636" style="fill: #e06633; stroke: #e06633; stroke-width: 0.5"/>
    </g>
    <g clip-path="url(#p5318249009)">
     <use xlink:href="#C0_0_34be7f5eff" x="61.240247" y="81.452494" style="fill: #e06633; stroke: #e06633; stroke-width: 0.5"/>
    </g>
    <g clip-path="url(#p5318249009)">
     <use xlink:href="#C0_0_34be7f5eff" x="56.123966" y="118.698967" style="fill: #e06633; stroke: #e06633; stroke-width: 0.5"/>
    </g>
    <g clip-path="url(#p5318249009)">
     <use xlink:href="#C0_0_34be7f5eff" x="133.906328" y="85.887199" style="fill: #e06633; stroke: #e06633; stroke-width: 0.5"/>
    </g>
    <g clip-path="url(#p5318249009)">
     <use xlink:href="#C0_0_34be7f5eff" x="93.010903" y="82.201169" style="fill: #e06633; stroke: #e06633; stroke-width: 0.5"/>
    </g>
    <g clip-path="url(#p5318249009)">
     <use xlink:href="#C0_0_34be7f5eff" x="127.34308" y="116.487769" style="fill: #e06633; stroke: #e06633; stroke-width: 0.5"/>
    </g>
    <g clip-path="url(#p5318249009)">
     <use xlink:href="#C0_0_34be7f5eff" x="94.860629" y="115.857609" style="fill: #e06633; stroke: #e06633; stroke-width: 0.5"/>
    </g>
    <g clip-path="url(#p5318249009)">
     <use xlink:href="#C0_0_34be7f5eff" x="59.752299" y="71.554095" style="fill: #e06633; stroke: #e06633; stroke-width: 0.5"/>
    </g>
    <g clip-path="url(#p5318249009)">
     <use xlink:href="#C0_0_34be7f5eff" x="55.368595" y="102.937189" style="fill: #e06633; stroke: #e06633; stroke-width: 0.5"/>
    </g>
    <g clip-path="url(#p5318249009)">
     <use xlink:href="#C0_0_34be7f5eff" x="126.668944" y="70.296268" style="fill: #e06633; stroke: #e06633; stroke-width: 0.5"/>
    </g>
    <g clip-path="url(#p5318249009)">
     <use xlink:href="#C0_0_34be7f5eff" x="94.495148" y="72.647695" style="fill: #e06633; stroke: #e06633; stroke-width: 0.5"/>
    </g>
    <g clip-path="url(#p5318249009)">
     <use xlink:href="#C0_0_34be7f5eff" x="137.647607" y="110.008648" style="fill: #e06633; stroke: #e06633; stroke-width: 0.5"/>
    </g>
    <g clip-path="url(#p5318249009)">
     <use xlink:href="#C0_0_34be7f5eff" x="90.849335" y="105.279855" style="fill: #e06633; stroke: #e06633; stroke-width: 0.5"/>
    </g>
    <g clip-path="url(#p5318249009)">
     <use xlink:href="#C0_0_34be7f5eff" x="66.251459" y="145.282423" style="fill: #e06633; stroke: #e06633; stroke-width: 0.5"/>
    </g>
    <g clip-path="url(#p5318249009)">
     <use xlink:href="#C0_0_34be7f5eff" x="80.944309" y="157.751657" style="fill: #e06633; stroke: #e06633; stroke-width: 0.5"/>
    </g>
    <g clip-path="url(#p5318249009)">
     <use xlink:href="#C0_0_34be7f5eff" x="134.50556" y="153.369114" style="fill: #e06633; stroke: #e06633; stroke-width: 0.5"/>
    </g>
    <g clip-path="url(#p5318249009)">
     <use xlink:href="#C0_0_34be7f5eff" x="99.885161" y="150.687086" style="fill: #e06633; stroke: #e06633; stroke-width: 0.5"/>
    </g>
    <g clip-path="url(#p5318249009)">
     <use xlink:href="#C0_0_34be7f5eff" x="149.389168" y="133.589677" style="fill: #e06633; stroke: #e06633; stroke-width: 0.5"/>
    </g>
    <g clip-path="url(#p5318249009)">
     <use xlink:href="#C0_0_34be7f5eff" x="112.974262" y="135.367583" style="fill: #e06633; stroke: #e06633; stroke-width: 0.5"/>
    </g>
    <g clip-path="url(#p5318249009)">
     <use xlink:href="#C0_0_34be7f5eff" x="60.52244" y="139.440003" style="fill: #e06633; stroke: #e06633; stroke-width: 0.5"/>
    </g>
    <g clip-path="url(#p5318249009)">
     <use xlink:href="#C0_0_34be7f5eff" x="71.763502" y="119.862341" style="fill: #e06633; stroke: #e06633; stroke-width: 0.5"/>
    </g>
    <g clip-path="url(#p5318249009)">
     <use xlink:href="#C0_0_34be7f5eff" x="129.516765" y="142.512684" style="fill: #e06633; stroke: #e06633; stroke-width: 0.5"/>
    </g>
    <g clip-path="url(#p5318249009)">
     <use xlink:href="#C0_0_34be7f5eff" x="96.879648" y="139.054431" style="fill: #e06633; stroke: #e06633; stroke-width: 0.5"/>
    </g>
    <g clip-path="url(#p5318249009)">
     <use xlink:href="#C0_0_34be7f5eff" x="148.338771" y="123.376666" style="fill: #e06633; stroke: #e06633; stroke-width: 0.5"/>
    </g>
    <g clip-path="url(#p5318249009)">
     <use xlink:href="#C0_0_34be7f5eff" x="108.973338" y="124.114949" style="fill: #e06633; stroke: #e06633; stroke-width: 0.5"/>
    </g>
    <g clip-path="url(#p5318249009)">
     <use xlink:href="#C0_0_34be7f5eff" x="239.831405" y="193.231793" style="fill: #bfbfbf; stroke: #bfbfbf; stroke-width: 0.5"/>
    </g>
    <g clip-path="url(#p5318249009)">
     <use xlink:href="#C0_0_34be7f5eff" x="161.062634" y="237.076364" style="fill: #bfbfbf; stroke: #bfbfbf; stroke-width: 0.5"/>
    </g>
    <g clip-path="url(#p5318249009)">
     <use xlink:href="#C0_0_34be7f5eff" x="203.480787" y="177.826578" style="fill: #666666; stroke: #666666; stroke-width: 0.5"/>
    </g>
    <g clip-path="url(#p5318249009)">
     <use xlink:href="#C0_0_34be7f5eff" x="188.75153" y="130.741581" style="fill: #ff0d0d; stroke: #ff0d0d; stroke-width: 0.5"/>
    </g>
    <g clip-path="url(#p5318249009)">
     <use xlink:href="#C0_0_34be7f5eff" x="161.597805" y="190.395972" style="fill: #ff0d0d; stroke: #ff0d0d; stroke-width: 0.5"/>
    </g>
   </g>
   <g id="text_1">
    <!-- CH2Fe48O2 -->
    <g transform="translate(120.010367 -23.10305) scale(0.1 -0.1)">
     <defs>
      <path id="DejaVuSans-43" d="M 4122 4306 
L 4122 3641 
Q 3803 3938 3442 4084 
Q 3081 4231 2675 4231 
Q 1875 4231 1450 3742 
Q 1025 3253 1025 2328 
Q 1025 1406 1450 917 
Q 1875 428 2675 428 
Q 3081 428 3442 575 
Q 3803 722 4122 1019 
L 4122 359 
Q 3791 134 3420 21 
Q 3050 -91 2638 -91 
Q 1578 -91 968 557 
Q 359 1206 359 2328 
Q 359 3453 968 4101 
Q 1578 4750 2638 4750 
Q 3056 4750 3426 4639 
Q 3797 4528 4122 4306 
z
" transform="scale(0.015625)"/>
      <path id="DejaVuSans-48" d="M 628 4666 
L 1259 4666 
L 1259 2753 
L 3553 2753 
L 3553 4666 
L 4184 4666 
L 4184 0 
L 3553 0 
L 3553 2222 
L 1259 2222 
L 1259 0 
L 628 0 
L 628 4666 
z
" transform="scale(0.015625)"/>
      <path id="DejaVuSans-32" d="M 1228 531 
L 3431 531 
L 3431 0 
L 469 0 
L 469 531 
Q 828 903 1448 1529 
Q 2069 2156 2228 2338 
Q 2531 2678 2651 2914 
Q 2772 3150 2772 3378 
Q 2772 3750 2511 3984 
Q 2250 4219 1831 4219 
Q 1534 4219 1204 4116 
Q 875 4013 500 3803 
L 500 4441 
Q 881 4594 1212 4672 
Q 1544 4750 1819 4750 
Q 2544 4750 2975 4387 
Q 3406 4025 3406 3419 
Q 3406 3131 3298 2873 
Q 3191 2616 2906 2266 
Q 2828 2175 2409 1742 
Q 1991 1309 1228 531 
z
" transform="scale(0.015625)"/>
      <path id="DejaVuSans-46" d="M 628 4666 
L 3309 4666 
L 3309 4134 
L 1259 4134 
L 1259 2759 
L 3109 2759 
L 3109 2228 
L 1259 2228 
L 1259 0 
L 628 0 
L 628 4666 
z
" transform="scale(0.015625)"/>
      <path id="DejaVuSans-65" d="M 3597 1894 
L 3597 1613 
L 953 1613 
Q 991 1019 1311 708 
Q 1631 397 2203 397 
Q 2534 397 2845 478 
Q 3156 559 3463 722 
L 3463 178 
Q 3153 47 2828 -22 
Q 2503 -91 2169 -91 
Q 1331 -91 842 396 
Q 353 884 353 1716 
Q 353 2575 817 3079 
Q 1281 3584 2069 3584 
Q 2775 3584 3186 3129 
Q 3597 2675 3597 1894 
z
M 3022 2063 
Q 3016 2534 2758 2815 
Q 2500 3097 2075 3097 
Q 1594 3097 1305 2825 
Q 1016 2553 972 2059 
L 3022 2063 
z
" transform="scale(0.015625)"/>
      <path id="DejaVuSans-34" d="M 2419 4116 
L 825 1625 
L 2419 1625 
L 2419 4116 
z
M 2253 4666 
L 3047 4666 
L 3047 1625 
L 3713 1625 
L 3713 1100 
L 3047 1100 
L 3047 0 
L 2419 0 
L 2419 1100 
L 313 1100 
L 313 1709 
L 2253 4666 
z
" transform="scale(0.015625)"/>
      <path id="DejaVuSans-38" d="M 2034 2216 
Q 1584 2216 1326 1975 
Q 1069 1734 1069 1313 
Q 1069 891 1326 650 
Q 1584 409 2034 409 
Q 2484 409 2743 651 
Q 3003 894 3003 1313 
Q 3003 1734 2745 1975 
Q 2488 2216 2034 2216 
z
M 1403 2484 
Q 997 2584 770 2862 
Q 544 3141 544 3541 
Q 544 4100 942 4425 
Q 1341 4750 2034 4750 
Q 2731 4750 3128 4425 
Q 3525 4100 3525 3541 
Q 3525 3141 3298 2862 
Q 3072 2584 2669 2484 
Q 3125 2378 3379 2068 
Q 3634 1759 3634 1313 
Q 3634 634 3220 271 
Q 2806 -91 2034 -91 
Q 1263 -91 848 271 
Q 434 634 434 1313 
Q 434 1759 690 2068 
Q 947 2378 1403 2484 
z
M 1172 3481 
Q 1172 3119 1398 2916 
Q 1625 2713 2034 2713 
Q 2441 2713 2670 2916 
Q 2900 3119 2900 3481 
Q 2900 3844 2670 4047 
Q 2441 4250 2034 4250 
Q 1625 4250 1398 4047 
Q 1172 3844 1172 3481 
z
" transform="scale(0.015625)"/>
      <path id="DejaVuSans-4f" d="M 2522 4238 
Q 1834 4238 1429 3725 
Q 1025 3213 1025 2328 
Q 1025 1447 1429 934 
Q 1834 422 2522 422 
Q 3209 422 3611 934 
Q 4013 1447 4013 2328 
Q 4013 3213 3611 3725 
Q 3209 4238 2522 4238 
z
M 2522 4750 
Q 3503 4750 4090 4092 
Q 4678 3434 4678 2328 
Q 4678 1225 4090 567 
Q 3503 -91 2522 -91 
Q 1538 -91 948 565 
Q 359 1222 359 2328 
Q 359 3434 948 4092 
Q 1538 4750 2522 4750 
z
" transform="scale(0.015625)"/>
     </defs>
     <use xlink:href="#DejaVuSans-43"/>
     <use xlink:href="#DejaVuSans-48" transform="translate(69.824219 0)"/>
     <use xlink:href="#DejaVuSans-32" transform="translate(145.019531 0)"/>
     <use xlink:href="#DejaVuSans-46" transform="translate(208.642578 0)"/>
     <use xlink:href="#DejaVuSans-65" transform="translate(260.662109 0)"/>
     <use xlink:href="#DejaVuSans-34" transform="translate(322.185547 0)"/>
     <use xlink:href="#DejaVuSans-38" transform="translate(385.808594 0)"/>
     <use xlink:href="#DejaVuSans-4f" transform="translate(449.431641 0)"/>
     <use xlink:href="#DejaVuSans-32" transform="translate(528.142578 0)"/>
    </g>
    <!-- Error: -8.75 eV -->
    <g transform="translate(120.010367 -11.905237) scale(0.1 -0.1)">
     <defs>
      <path id="DejaVuSans-45" d="M 628 4666 
L 3578 4666 
L 3578 4134 
L 1259 4134 
L 1259 2753 
L 3481 2753 
L 3481 2222 
L 1259 2222 
L 1259 531 
L 3634 531 
L 3634 0 
L 628 0 
L 628 4666 
z
" transform="scale(0.015625)"/>
      <path id="DejaVuSans-72" d="M 2631 2963 
Q 2534 3019 2420 3045 
Q 2306 3072 2169 3072 
Q 1681 3072 1420 2755 
Q 1159 2438 1159 1844 
L 1159 0 
L 581 0 
L 581 3500 
L 1159 3500 
L 1159 2956 
Q 1341 3275 1631 3429 
Q 1922 3584 2338 3584 
Q 2397 3584 2469 3576 
Q 2541 3569 2628 3553 
L 2631 2963 
z
" transform="scale(0.015625)"/>
      <path id="DejaVuSans-6f" d="M 1959 3097 
Q 1497 3097 1228 2736 
Q 959 2375 959 1747 
Q 959 1119 1226 758 
Q 1494 397 1959 397 
Q 2419 397 2687 759 
Q 2956 1122 2956 1747 
Q 2956 2369 2687 2733 
Q 2419 3097 1959 3097 
z
M 1959 3584 
Q 2709 3584 3137 3096 
Q 3566 2609 3566 1747 
Q 3566 888 3137 398 
Q 2709 -91 1959 -91 
Q 1206 -91 779 398 
Q 353 888 353 1747 
Q 353 2609 779 3096 
Q 1206 3584 1959 3584 
z
" transform="scale(0.015625)"/>
      <path id="DejaVuSans-3a" d="M 750 794 
L 1409 794 
L 1409 0 
L 750 0 
L 750 794 
z
M 750 3309 
L 1409 3309 
L 1409 2516 
L 750 2516 
L 750 3309 
z
" transform="scale(0.015625)"/>
      <path id="DejaVuSans-20" transform="scale(0.015625)"/>
      <path id="DejaVuSans-2d" d="M 313 2009 
L 1997 2009 
L 1997 1497 
L 313 1497 
L 313 2009 
z
" transform="scale(0.015625)"/>
      <path id="DejaVuSans-2e" d="M 684 794 
L 1344 794 
L 1344 0 
L 684 0 
L 684 794 
z
" transform="scale(0.015625)"/>
      <path id="DejaVuSans-37" d="M 525 4666 
L 3525 4666 
L 3525 4397 
L 1831 0 
L 1172 0 
L 2766 4134 
L 525 4134 
L 525 4666 
z
" transform="scale(0.015625)"/>
      <path id="DejaVuSans-35" d="M 691 4666 
L 3169 4666 
L 3169 4134 
L 1269 4134 
L 1269 2991 
Q 1406 3038 1543 3061 
Q 1681 3084 1819 3084 
Q 2600 3084 3056 2656 
Q 3513 2228 3513 1497 
Q 3513 744 3044 326 
Q 2575 -91 1722 -91 
Q 1428 -91 1123 -41 
Q 819 9 494 109 
L 494 744 
Q 775 591 1075 516 
Q 1375 441 1709 441 
Q 2250 441 2565 725 
Q 2881 1009 2881 1497 
Q 2881 1984 2565 2268 
Q 2250 2553 1709 2553 
Q 1456 2553 1204 2497 
Q 953 2441 691 2322 
L 691 4666 
z
" transform="scale(0.015625)"/>
      <path id="DejaVuSans-56" d="M 1831 0 
L 50 4666 
L 709 4666 
L 2188 738 
L 3669 4666 
L 4325 4666 
L 2547 0 
L 1831 0 
z
" transform="scale(0.015625)"/>
     </defs>
     <use xlink:href="#DejaVuSans-45"/>
     <use xlink:href="#DejaVuSans-72" transform="translate(63.183594 0)"/>
     <use xlink:href="#DejaVuSans-72" transform="translate(102.546875 0)"/>
     <use xlink:href="#DejaVuSans-6f" transform="translate(141.410156 0)"/>
     <use xlink:href="#DejaVuSans-72" transform="translate(202.591797 0)"/>
     <use xlink:href="#DejaVuSans-3a" transform="translate(241.955078 0)"/>
     <use xlink:href="#DejaVuSans-20" transform="translate(275.646484 0)"/>
     <use xlink:href="#DejaVuSans-2d" transform="translate(307.433594 0)"/>
     <use xlink:href="#DejaVuSans-38" transform="translate(343.517578 0)"/>
     <use xlink:href="#DejaVuSans-2e" transform="translate(407.140625 0)"/>
     <use xlink:href="#DejaVuSans-37" transform="translate(438.927734 0)"/>
     <use xlink:href="#DejaVuSans-35" transform="translate(502.550781 0)"/>
     <use xlink:href="#DejaVuSans-20" transform="translate(566.173828 0)"/>
     <use xlink:href="#DejaVuSans-65" transform="translate(597.960938 0)"/>
     <use xlink:href="#DejaVuSans-56" transform="translate(659.484375 0)"/>
    </g>
   </g>
  </g>
 </g>
 <defs>
  <clipPath id="p5318249009">
   <rect x="36" y="34.56" width="223.2" height="221.76"/>
  </clipPath>
 </defs>
</svg>
