<?xml version="1.0" encoding="utf-8" standalone="no"?>
<!DOCTYPE svg PUBLIC "-//W3C//DTD SVG 1.1//EN"
  "http://www.w3.org/Graphics/SVG/1.1/DTD/svg11.dtd">
<svg xmlns:xlink="http://www.w3.org/1999/xlink" width="288pt" height="288pt" viewBox="0 0 288 288" xmlns="http://www.w3.org/2000/svg" version="1.1">
 <metadata>
  <rdf:RDF xmlns:dc="http://purl.org/dc/elements/1.1/" xmlns:cc="http://creativecommons.org/ns#" xmlns:rdf="http://www.w3.org/1999/02/22-rdf-syntax-ns#">
   <cc:Work>
    <dc:type rdf:resource="http://purl.org/dc/dcmitype/StillImage"/>
    <dc:date>2025-06-30T12:03:24.576722</dc:date>
    <dc:format>image/svg+xml</dc:format>
    <dc:creator>
     <cc:Agent>
      <dc:title>Matplotlib v3.10.1, https://matplotlib.org/</dc:title>
     </cc:Agent>
    </dc:creator>
   </cc:Work>
  </rdf:RDF>
 </metadata>
 <defs>
  <style type="text/css">*{stroke-linejoin: round; stroke-linecap: butt}</style>
 </defs>
 <g id="figure_1">
  <g id="patch_1">
   <path d="M 0 288 
L 288 288 
L 288 0 
L 0 0 
z
" style="fill: #ffffff"/>
  </g>
  <g id="axes_1">
   <g id="LineCollection_1">
    <path d="M 87.67061 70.810714 
L 68.17986 61.927163 
" clip-path="url(#p09cc0bb66a)" style="fill: none; stroke: #000000; stroke-width: 1.2"/>
    <path d="M 87.67061 70.810714 
L 126.682443 53.803636 
" clip-path="url(#p09cc0bb66a)" style="fill: none; stroke: #000000; stroke-width: 1.2"/>
    <path d="M 87.67061 70.810714 
L 110.221806 56.097801 
" clip-path="url(#p09cc0bb66a)" style="fill: none; stroke: #000000; stroke-width: 1.2"/>
    <path d="M 87.67061 70.810714 
L 63.323864 72.660368 
" clip-path="url(#p09cc0bb66a)" style="fill: none; stroke: #000000; stroke-width: 1.2"/>
    <path d="M 87.67061 70.810714 
L 126.758211 78.362166 
" clip-path="url(#p09cc0bb66a)" style="fill: none; stroke: #000000; stroke-width: 1.2"/>
    <path d="M 87.67061 70.810714 
L 169.522302 79.429814 
" clip-path="url(#p09cc0bb66a)" style="fill: none; stroke: #000000; stroke-width: 1.2"/>
    <path d="M 87.67061 70.810714 
L 64.894222 102.001096 
" clip-path="url(#p09cc0bb66a)" style="fill: none; stroke: #000000; stroke-width: 1.2"/>
    <path d="M 87.67061 70.810714 
L 120.976254 105.897026 
" clip-path="url(#p09cc0bb66a)" style="fill: none; stroke: #000000; stroke-width: 1.2"/>
    <path d="M 87.67061 70.810714 
L 83.659438 118.935843 
" clip-path="url(#p09cc0bb66a)" style="fill: none; stroke: #000000; stroke-width: 1.2"/>
    <path d="M 68.17986 61.927163 
L 126.682443 53.803636 
" clip-path="url(#p09cc0bb66a)" style="fill: none; stroke: #000000; stroke-width: 1.2"/>
    <path d="M 68.17986 61.927163 
L 110.221806 56.097801 
" clip-path="url(#p09cc0bb66a)" style="fill: none; stroke: #000000; stroke-width: 1.2"/>
    <path d="M 68.17986 61.927163 
L 91.380535 56.930769 
" clip-path="url(#p09cc0bb66a)" style="fill: none; stroke: #000000; stroke-width: 1.2"/>
    <path d="M 68.17986 61.927163 
L 147.834725 74.119439 
" clip-path="url(#p09cc0bb66a)" style="fill: none; stroke: #000000; stroke-width: 1.2"/>
    <path d="M 68.17986 61.927163 
L 108.233312 68.55266 
" clip-path="url(#p09cc0bb66a)" style="fill: none; stroke: #000000; stroke-width: 1.2"/>
    <path d="M 68.17986 61.927163 
L 64.894222 102.001096 
" clip-path="url(#p09cc0bb66a)" style="fill: none; stroke: #000000; stroke-width: 1.2"/>
    <path d="M 68.17986 61.927163 
L 84.933518 95.218501 
" clip-path="url(#p09cc0bb66a)" style="fill: none; stroke: #000000; stroke-width: 1.2"/>
    <path d="M 68.17986 61.927163 
L 101.646782 113.583287 
" clip-path="url(#p09cc0bb66a)" style="fill: none; stroke: #000000; stroke-width: 1.2"/>
    <path d="M 126.682443 53.803636 
L 145.420055 57.154056 
" clip-path="url(#p09cc0bb66a)" style="fill: none; stroke: #000000; stroke-width: 1.2"/>
    <path d="M 126.682443 53.803636 
L 167.013715 67.243547 
" clip-path="url(#p09cc0bb66a)" style="fill: none; stroke: #000000; stroke-width: 1.2"/>
    <path d="M 126.682443 53.803636 
L 91.380535 56.930769 
" clip-path="url(#p09cc0bb66a)" style="fill: none; stroke: #000000; stroke-width: 1.2"/>
    <path d="M 126.682443 53.803636 
L 169.522302 79.429814 
" clip-path="url(#p09cc0bb66a)" style="fill: none; stroke: #000000; stroke-width: 1.2"/>
    <path d="M 126.682443 53.803636 
L 120.976254 105.897026 
" clip-path="url(#p09cc0bb66a)" style="fill: none; stroke: #000000; stroke-width: 1.2"/>
    <path d="M 126.682443 53.803636 
L 84.933518 95.218501 
" clip-path="url(#p09cc0bb66a)" style="fill: none; stroke: #000000; stroke-width: 1.2"/>
    <path d="M 126.682443 53.803636 
L 161.719723 99.146283 
" clip-path="url(#p09cc0bb66a)" style="fill: none; stroke: #000000; stroke-width: 1.2"/>
    <path d="M 145.420055 57.154056 
L 167.013715 67.243547 
" clip-path="url(#p09cc0bb66a)" style="fill: none; stroke: #000000; stroke-width: 1.2"/>
    <path d="M 145.420055 57.154056 
L 110.221806 56.097801 
" clip-path="url(#p09cc0bb66a)" style="fill: none; stroke: #000000; stroke-width: 1.2"/>
    <path d="M 145.420055 57.154056 
L 63.323864 72.660368 
" clip-path="url(#p09cc0bb66a)" style="fill: none; stroke: #000000; stroke-width: 1.2"/>
    <path d="M 145.420055 57.154056 
L 169.522302 79.429814 
" clip-path="url(#p09cc0bb66a)" style="fill: none; stroke: #000000; stroke-width: 1.2"/>
    <path d="M 145.420055 57.154056 
L 108.233312 68.55266 
" clip-path="url(#p09cc0bb66a)" style="fill: none; stroke: #000000; stroke-width: 1.2"/>
    <path d="M 145.420055 57.154056 
L 161.719723 99.146283 
" clip-path="url(#p09cc0bb66a)" style="fill: none; stroke: #000000; stroke-width: 1.2"/>
    <path d="M 145.420055 57.154056 
L 102.751107 98.507958 
" clip-path="url(#p09cc0bb66a)" style="fill: none; stroke: #000000; stroke-width: 1.2"/>
    <path d="M 145.420055 57.154056 
L 140.990635 105.687685 
" clip-path="url(#p09cc0bb66a)" style="fill: none; stroke: #000000; stroke-width: 1.2"/>
    <path d="M 167.013715 67.243547 
L 110.221806 56.097801 
" clip-path="url(#p09cc0bb66a)" style="fill: none; stroke: #000000; stroke-width: 1.2"/>
    <path d="M 167.013715 67.243547 
L 91.380535 56.930769 
" clip-path="url(#p09cc0bb66a)" style="fill: none; stroke: #000000; stroke-width: 1.2"/>
    <path d="M 167.013715 67.243547 
L 126.758211 78.362166 
" clip-path="url(#p09cc0bb66a)" style="fill: none; stroke: #000000; stroke-width: 1.2"/>
    <path d="M 167.013715 67.243547 
L 147.834725 74.119439 
" clip-path="url(#p09cc0bb66a)" style="fill: none; stroke: #000000; stroke-width: 1.2"/>
    <path d="M 167.013715 67.243547 
L 161.719723 99.146283 
" clip-path="url(#p09cc0bb66a)" style="fill: none; stroke: #000000; stroke-width: 1.2"/>
    <path d="M 167.013715 67.243547 
L 147.674533 111.334796 
" clip-path="url(#p09cc0bb66a)" style="fill: none; stroke: #000000; stroke-width: 1.2"/>
    <path d="M 167.013715 67.243547 
L 124.496847 116.166684 
" clip-path="url(#p09cc0bb66a)" style="fill: none; stroke: #000000; stroke-width: 1.2"/>
    <path d="M 110.221806 56.097801 
L 63.323864 72.660368 
" clip-path="url(#p09cc0bb66a)" style="fill: none; stroke: #000000; stroke-width: 1.2"/>
    <path d="M 110.221806 56.097801 
L 147.834725 74.119439 
" clip-path="url(#p09cc0bb66a)" style="fill: none; stroke: #000000; stroke-width: 1.2"/>
    <path d="M 110.221806 56.097801 
L 64.894222 102.001096 
" clip-path="url(#p09cc0bb66a)" style="fill: none; stroke: #000000; stroke-width: 1.2"/>
    <path d="M 110.221806 56.097801 
L 102.751107 98.507958 
" clip-path="url(#p09cc0bb66a)" style="fill: none; stroke: #000000; stroke-width: 1.2"/>
    <path d="M 110.221806 56.097801 
L 147.674533 111.334796 
" clip-path="url(#p09cc0bb66a)" style="fill: none; stroke: #000000; stroke-width: 1.2"/>
    <path d="M 91.380535 56.930769 
L 63.323864 72.660368 
" clip-path="url(#p09cc0bb66a)" style="fill: none; stroke: #000000; stroke-width: 1.2"/>
    <path d="M 91.380535 56.930769 
L 126.758211 78.362166 
" clip-path="url(#p09cc0bb66a)" style="fill: none; stroke: #000000; stroke-width: 1.2"/>
    <path d="M 91.380535 56.930769 
L 108.233312 68.55266 
" clip-path="url(#p09cc0bb66a)" style="fill: none; stroke: #000000; stroke-width: 1.2"/>
    <path d="M 91.380535 56.930769 
L 84.933518 95.218501 
" clip-path="url(#p09cc0bb66a)" style="fill: none; stroke: #000000; stroke-width: 1.2"/>
    <path d="M 91.380535 56.930769 
L 63.774613 108.020401 
" clip-path="url(#p09cc0bb66a)" style="fill: none; stroke: #000000; stroke-width: 1.2"/>
    <path d="M 91.380535 56.930769 
L 124.496847 116.166684 
" clip-path="url(#p09cc0bb66a)" style="fill: none; stroke: #000000; stroke-width: 1.2"/>
    <path d="M 63.323864 72.660368 
L 126.758211 78.362166 
" clip-path="url(#p09cc0bb66a)" style="fill: none; stroke: #000000; stroke-width: 1.2"/>
    <path d="M 63.323864 72.660368 
L 108.233312 68.55266 
" clip-path="url(#p09cc0bb66a)" style="fill: none; stroke: #000000; stroke-width: 1.2"/>
    <path d="M 63.323864 72.660368 
L 102.751107 98.507958 
" clip-path="url(#p09cc0bb66a)" style="fill: none; stroke: #000000; stroke-width: 1.2"/>
    <path d="M 63.323864 72.660368 
L 63.774613 108.020401 
" clip-path="url(#p09cc0bb66a)" style="fill: none; stroke: #000000; stroke-width: 1.2"/>
    <path d="M 63.323864 72.660368 
L 83.659438 118.935843 
" clip-path="url(#p09cc0bb66a)" style="fill: none; stroke: #000000; stroke-width: 1.2"/>
    <path d="M 126.758211 78.362166 
L 147.834725 74.119439 
" clip-path="url(#p09cc0bb66a)" style="fill: none; stroke: #000000; stroke-width: 1.2"/>
    <path d="M 126.758211 78.362166 
L 169.522302 79.429814 
" clip-path="url(#p09cc0bb66a)" style="fill: none; stroke: #000000; stroke-width: 1.2"/>
    <path d="M 126.758211 78.362166 
L 124.496847 116.166684 
" clip-path="url(#p09cc0bb66a)" style="fill: none; stroke: #000000; stroke-width: 1.2"/>
    <path d="M 126.758211 78.362166 
L 83.659438 118.935843 
" clip-path="url(#p09cc0bb66a)" style="fill: none; stroke: #000000; stroke-width: 1.2"/>
    <path d="M 126.758211 78.362166 
L 160.726525 122.216736 
" clip-path="url(#p09cc0bb66a)" style="fill: none; stroke: #000000; stroke-width: 1.2"/>
    <path d="M 147.834725 74.119439 
L 169.522302 79.429814 
" clip-path="url(#p09cc0bb66a)" style="fill: none; stroke: #000000; stroke-width: 1.2"/>
    <path d="M 147.834725 74.119439 
L 108.233312 68.55266 
" clip-path="url(#p09cc0bb66a)" style="fill: none; stroke: #000000; stroke-width: 1.2"/>
    <path d="M 147.834725 74.119439 
L 147.674533 111.334796 
" clip-path="url(#p09cc0bb66a)" style="fill: none; stroke: #000000; stroke-width: 1.2"/>
    <path d="M 147.834725 74.119439 
L 160.726525 122.216736 
" clip-path="url(#p09cc0bb66a)" style="fill: none; stroke: #000000; stroke-width: 1.2"/>
    <path d="M 147.834725 74.119439 
L 101.646782 113.583287 
" clip-path="url(#p09cc0bb66a)" style="fill: none; stroke: #000000; stroke-width: 1.2"/>
    <path d="M 169.522302 79.429814 
L 108.233312 68.55266 
" clip-path="url(#p09cc0bb66a)" style="fill: none; stroke: #000000; stroke-width: 1.2"/>
    <path d="M 169.522302 79.429814 
L 120.976254 105.897026 
" clip-path="url(#p09cc0bb66a)" style="fill: none; stroke: #000000; stroke-width: 1.2"/>
    <path d="M 169.522302 79.429814 
L 160.726525 122.216736 
" clip-path="url(#p09cc0bb66a)" style="fill: none; stroke: #000000; stroke-width: 1.2"/>
    <path d="M 169.522302 79.429814 
L 140.990635 105.687685 
" clip-path="url(#p09cc0bb66a)" style="fill: none; stroke: #000000; stroke-width: 1.2"/>
    <path d="M 108.233312 68.55266 
L 63.774613 108.020401 
" clip-path="url(#p09cc0bb66a)" style="fill: none; stroke: #000000; stroke-width: 1.2"/>
    <path d="M 108.233312 68.55266 
L 101.646782 113.583287 
" clip-path="url(#p09cc0bb66a)" style="fill: none; stroke: #000000; stroke-width: 1.2"/>
    <path d="M 108.233312 68.55266 
L 140.990635 105.687685 
" clip-path="url(#p09cc0bb66a)" style="fill: none; stroke: #000000; stroke-width: 1.2"/>
    <path d="M 64.894222 102.001096 
L 120.976254 105.897026 
" clip-path="url(#p09cc0bb66a)" style="fill: none; stroke: #000000; stroke-width: 1.2"/>
    <path d="M 64.894222 102.001096 
L 84.933518 95.218501 
" clip-path="url(#p09cc0bb66a)" style="fill: none; stroke: #000000; stroke-width: 1.2"/>
    <path d="M 64.894222 102.001096 
L 102.751107 98.507958 
" clip-path="url(#p09cc0bb66a)" style="fill: none; stroke: #000000; stroke-width: 1.2"/>
    <path d="M 64.894222 102.001096 
L 147.674533 111.334796 
" clip-path="url(#p09cc0bb66a)" style="fill: none; stroke: #000000; stroke-width: 1.2"/>
    <path d="M 64.894222 102.001096 
L 83.659438 118.935843 
" clip-path="url(#p09cc0bb66a)" style="fill: none; stroke: #000000; stroke-width: 1.2"/>
    <path d="M 64.894222 102.001096 
L 101.646782 113.583287 
" clip-path="url(#p09cc0bb66a)" style="fill: none; stroke: #000000; stroke-width: 1.2"/>
    <path d="M 64.894222 102.001096 
L 59.568223 147.71864 
" clip-path="url(#p09cc0bb66a)" style="fill: none; stroke: #000000; stroke-width: 1.2"/>
    <path d="M 64.894222 102.001096 
L 77.555274 138.246206 
" clip-path="url(#p09cc0bb66a)" style="fill: none; stroke: #000000; stroke-width: 1.2"/>
    <path d="M 64.894222 102.001096 
L 97.859514 156.459756 
" clip-path="url(#p09cc0bb66a)" style="fill: none; stroke: #000000; stroke-width: 1.2"/>
    <path d="M 120.976254 105.897026 
L 84.933518 95.218501 
" clip-path="url(#p09cc0bb66a)" style="fill: none; stroke: #000000; stroke-width: 1.2"/>
    <path d="M 120.976254 105.897026 
L 161.719723 99.146283 
" clip-path="url(#p09cc0bb66a)" style="fill: none; stroke: #000000; stroke-width: 1.2"/>
    <path d="M 120.976254 105.897026 
L 83.659438 118.935843 
" clip-path="url(#p09cc0bb66a)" style="fill: none; stroke: #000000; stroke-width: 1.2"/>
    <path d="M 120.976254 105.897026 
L 160.726525 122.216736 
" clip-path="url(#p09cc0bb66a)" style="fill: none; stroke: #000000; stroke-width: 1.2"/>
    <path d="M 120.976254 105.897026 
L 140.990635 105.687685 
" clip-path="url(#p09cc0bb66a)" style="fill: none; stroke: #000000; stroke-width: 1.2"/>
    <path d="M 120.976254 105.897026 
L 77.555274 138.246206 
" clip-path="url(#p09cc0bb66a)" style="fill: none; stroke: #000000; stroke-width: 1.2"/>
    <path d="M 120.976254 105.897026 
L 161.001486 139.437629 
" clip-path="url(#p09cc0bb66a)" style="fill: none; stroke: #000000; stroke-width: 1.2"/>
    <path d="M 120.976254 105.897026 
L 115.087818 163.312136 
" clip-path="url(#p09cc0bb66a)" style="fill: none; stroke: #000000; stroke-width: 1.2"/>
    <path d="M 84.933518 95.218501 
L 161.719723 99.146283 
" clip-path="url(#p09cc0bb66a)" style="fill: none; stroke: #000000; stroke-width: 1.2"/>
    <path d="M 84.933518 95.218501 
L 63.774613 108.020401 
" clip-path="url(#p09cc0bb66a)" style="fill: none; stroke: #000000; stroke-width: 1.2"/>
    <path d="M 84.933518 95.218501 
L 124.496847 116.166684 
" clip-path="url(#p09cc0bb66a)" style="fill: none; stroke: #000000; stroke-width: 1.2"/>
    <path d="M 84.933518 95.218501 
L 101.646782 113.583287 
" clip-path="url(#p09cc0bb66a)" style="fill: none; stroke: #000000; stroke-width: 1.2"/>
    <path d="M 84.933518 95.218501 
L 77.555274 138.246206 
" clip-path="url(#p09cc0bb66a)" style="fill: none; stroke: #000000; stroke-width: 1.2"/>
    <path d="M 84.933518 95.218501 
L 117.351217 145.181494 
" clip-path="url(#p09cc0bb66a)" style="fill: none; stroke: #000000; stroke-width: 1.2"/>
    <path d="M 84.933518 95.218501 
L 55.368595 139.108381 
" clip-path="url(#p09cc0bb66a)" style="fill: none; stroke: #000000; stroke-width: 1.2"/>
    <path d="M 161.719723 99.146283 
L 102.751107 98.507958 
" clip-path="url(#p09cc0bb66a)" style="fill: none; stroke: #000000; stroke-width: 1.2"/>
    <path d="M 161.719723 99.146283 
L 147.674533 111.334796 
" clip-path="url(#p09cc0bb66a)" style="fill: none; stroke: #000000; stroke-width: 1.2"/>
    <path d="M 161.719723 99.146283 
L 124.496847 116.166684 
" clip-path="url(#p09cc0bb66a)" style="fill: none; stroke: #000000; stroke-width: 1.2"/>
    <path d="M 161.719723 99.146283 
L 140.990635 105.687685 
" clip-path="url(#p09cc0bb66a)" style="fill: none; stroke: #000000; stroke-width: 1.2"/>
    <path d="M 161.719723 99.146283 
L 117.351217 145.181494 
" clip-path="url(#p09cc0bb66a)" style="fill: none; stroke: #000000; stroke-width: 1.2"/>
    <path d="M 161.719723 99.146283 
L 161.001486 139.437629 
" clip-path="url(#p09cc0bb66a)" style="fill: none; stroke: #000000; stroke-width: 1.2"/>
    <path d="M 161.719723 99.146283 
L 140.197042 142.311048 
" clip-path="url(#p09cc0bb66a)" style="fill: none; stroke: #000000; stroke-width: 1.2"/>
    <path d="M 102.751107 98.507958 
L 147.674533 111.334796 
" clip-path="url(#p09cc0bb66a)" style="fill: none; stroke: #000000; stroke-width: 1.2"/>
    <path d="M 102.751107 98.507958 
L 63.774613 108.020401 
" clip-path="url(#p09cc0bb66a)" style="fill: none; stroke: #000000; stroke-width: 1.2"/>
    <path d="M 102.751107 98.507958 
L 83.659438 118.935843 
" clip-path="url(#p09cc0bb66a)" style="fill: none; stroke: #000000; stroke-width: 1.2"/>
    <path d="M 102.751107 98.507958 
L 140.990635 105.687685 
" clip-path="url(#p09cc0bb66a)" style="fill: none; stroke: #000000; stroke-width: 1.2"/>
    <path d="M 102.751107 98.507958 
L 59.568223 147.71864 
" clip-path="url(#p09cc0bb66a)" style="fill: none; stroke: #000000; stroke-width: 1.2"/>
    <path d="M 102.751107 98.507958 
L 140.197042 142.311048 
" clip-path="url(#p09cc0bb66a)" style="fill: none; stroke: #000000; stroke-width: 1.2"/>
    <path d="M 102.751107 98.507958 
L 96.237652 142.041082 
" clip-path="url(#p09cc0bb66a)" style="fill: none; stroke: #000000; stroke-width: 1.2"/>
    <path d="M 147.674533 111.334796 
L 124.496847 116.166684 
" clip-path="url(#p09cc0bb66a)" style="fill: none; stroke: #000000; stroke-width: 1.2"/>
    <path d="M 147.674533 111.334796 
L 160.726525 122.216736 
" clip-path="url(#p09cc0bb66a)" style="fill: none; stroke: #000000; stroke-width: 1.2"/>
    <path d="M 147.674533 111.334796 
L 101.646782 113.583287 
" clip-path="url(#p09cc0bb66a)" style="fill: none; stroke: #000000; stroke-width: 1.2"/>
    <path d="M 147.674533 111.334796 
L 140.197042 142.311048 
" clip-path="url(#p09cc0bb66a)" style="fill: none; stroke: #000000; stroke-width: 1.2"/>
    <path d="M 147.674533 111.334796 
L 97.859514 156.459756 
" clip-path="url(#p09cc0bb66a)" style="fill: none; stroke: #000000; stroke-width: 1.2"/>
    <path d="M 147.674533 111.334796 
L 157.522386 158.382196 
" clip-path="url(#p09cc0bb66a)" style="fill: none; stroke: #000000; stroke-width: 1.2"/>
    <path d="M 63.774613 108.020401 
L 124.496847 116.166684 
" clip-path="url(#p09cc0bb66a)" style="fill: none; stroke: #000000; stroke-width: 1.2"/>
    <path d="M 63.774613 108.020401 
L 83.659438 118.935843 
" clip-path="url(#p09cc0bb66a)" style="fill: none; stroke: #000000; stroke-width: 1.2"/>
    <path d="M 63.774613 108.020401 
L 101.646782 113.583287 
" clip-path="url(#p09cc0bb66a)" style="fill: none; stroke: #000000; stroke-width: 1.2"/>
    <path d="M 63.774613 108.020401 
L 140.990635 105.687685 
" clip-path="url(#p09cc0bb66a)" style="fill: none; stroke: #000000; stroke-width: 1.2"/>
    <path d="M 63.774613 108.020401 
L 55.368595 139.108381 
" clip-path="url(#p09cc0bb66a)" style="fill: none; stroke: #000000; stroke-width: 1.2"/>
    <path d="M 63.774613 108.020401 
L 81.803517 161.809026 
" clip-path="url(#p09cc0bb66a)" style="fill: none; stroke: #000000; stroke-width: 1.2"/>
    <path d="M 63.774613 108.020401 
L 96.237652 142.041082 
" clip-path="url(#p09cc0bb66a)" style="fill: none; stroke: #000000; stroke-width: 1.2"/>
    <path d="M 124.496847 116.166684 
L 83.659438 118.935843 
" clip-path="url(#p09cc0bb66a)" style="fill: none; stroke: #000000; stroke-width: 1.2"/>
    <path d="M 124.496847 116.166684 
L 160.726525 122.216736 
" clip-path="url(#p09cc0bb66a)" style="fill: none; stroke: #000000; stroke-width: 1.2"/>
    <path d="M 124.496847 116.166684 
L 117.351217 145.181494 
" clip-path="url(#p09cc0bb66a)" style="fill: none; stroke: #000000; stroke-width: 1.2"/>
    <path d="M 124.496847 116.166684 
L 81.803517 161.809026 
" clip-path="url(#p09cc0bb66a)" style="fill: none; stroke: #000000; stroke-width: 1.2"/>
    <path d="M 124.496847 116.166684 
L 157.522386 158.382196 
" clip-path="url(#p09cc0bb66a)" style="fill: none; stroke: #000000; stroke-width: 1.2"/>
    <path d="M 83.659438 118.935843 
L 160.726525 122.216736 
" clip-path="url(#p09cc0bb66a)" style="fill: none; stroke: #000000; stroke-width: 1.2"/>
    <path d="M 83.659438 118.935843 
L 59.568223 147.71864 
" clip-path="url(#p09cc0bb66a)" style="fill: none; stroke: #000000; stroke-width: 1.2"/>
    <path d="M 83.659438 118.935843 
L 81.803517 161.809026 
" clip-path="url(#p09cc0bb66a)" style="fill: none; stroke: #000000; stroke-width: 1.2"/>
    <path d="M 83.659438 118.935843 
L 115.087818 163.312136 
" clip-path="url(#p09cc0bb66a)" style="fill: none; stroke: #000000; stroke-width: 1.2"/>
    <path d="M 160.726525 122.216736 
L 101.646782 113.583287 
" clip-path="url(#p09cc0bb66a)" style="fill: none; stroke: #000000; stroke-width: 1.2"/>
    <path d="M 160.726525 122.216736 
L 140.990635 105.687685 
" clip-path="url(#p09cc0bb66a)" style="fill: none; stroke: #000000; stroke-width: 1.2"/>
    <path d="M 160.726525 122.216736 
L 115.087818 163.312136 
" clip-path="url(#p09cc0bb66a)" style="fill: none; stroke: #000000; stroke-width: 1.2"/>
    <path d="M 160.726525 122.216736 
L 157.522386 158.382196 
" clip-path="url(#p09cc0bb66a)" style="fill: none; stroke: #000000; stroke-width: 1.2"/>
    <path d="M 160.726525 122.216736 
L 133.476133 158.355435 
" clip-path="url(#p09cc0bb66a)" style="fill: none; stroke: #000000; stroke-width: 1.2"/>
    <path d="M 101.646782 113.583287 
L 140.990635 105.687685 
" clip-path="url(#p09cc0bb66a)" style="fill: none; stroke: #000000; stroke-width: 1.2"/>
    <path d="M 101.646782 113.583287 
L 97.859514 156.459756 
" clip-path="url(#p09cc0bb66a)" style="fill: none; stroke: #000000; stroke-width: 1.2"/>
    <path d="M 101.646782 113.583287 
L 55.368595 139.108381 
" clip-path="url(#p09cc0bb66a)" style="fill: none; stroke: #000000; stroke-width: 1.2"/>
    <path d="M 101.646782 113.583287 
L 133.476133 158.355435 
" clip-path="url(#p09cc0bb66a)" style="fill: none; stroke: #000000; stroke-width: 1.2"/>
    <path d="M 140.990635 105.687685 
L 161.001486 139.437629 
" clip-path="url(#p09cc0bb66a)" style="fill: none; stroke: #000000; stroke-width: 1.2"/>
    <path d="M 140.990635 105.687685 
L 133.476133 158.355435 
" clip-path="url(#p09cc0bb66a)" style="fill: none; stroke: #000000; stroke-width: 1.2"/>
    <path d="M 140.990635 105.687685 
L 96.237652 142.041082 
" clip-path="url(#p09cc0bb66a)" style="fill: none; stroke: #000000; stroke-width: 1.2"/>
    <path d="M 59.568223 147.71864 
L 77.555274 138.246206 
" clip-path="url(#p09cc0bb66a)" style="fill: none; stroke: #000000; stroke-width: 1.2"/>
    <path d="M 59.568223 147.71864 
L 140.197042 142.311048 
" clip-path="url(#p09cc0bb66a)" style="fill: none; stroke: #000000; stroke-width: 1.2"/>
    <path d="M 59.568223 147.71864 
L 97.859514 156.459756 
" clip-path="url(#p09cc0bb66a)" style="fill: none; stroke: #000000; stroke-width: 1.2"/>
    <path d="M 59.568223 147.71864 
L 81.803517 161.809026 
" clip-path="url(#p09cc0bb66a)" style="fill: none; stroke: #000000; stroke-width: 1.2"/>
    <path d="M 59.568223 147.71864 
L 115.087818 163.312136 
" clip-path="url(#p09cc0bb66a)" style="fill: none; stroke: #000000; stroke-width: 1.2"/>
    <path d="M 59.568223 147.71864 
L 96.237652 142.041082 
" clip-path="url(#p09cc0bb66a)" style="fill: none; stroke: #000000; stroke-width: 1.2"/>
    <path d="M 77.555274 138.246206 
L 117.351217 145.181494 
" clip-path="url(#p09cc0bb66a)" style="fill: none; stroke: #000000; stroke-width: 1.2"/>
    <path d="M 77.555274 138.246206 
L 161.001486 139.437629 
" clip-path="url(#p09cc0bb66a)" style="fill: none; stroke: #000000; stroke-width: 1.2"/>
    <path d="M 77.555274 138.246206 
L 97.859514 156.459756 
" clip-path="url(#p09cc0bb66a)" style="fill: none; stroke: #000000; stroke-width: 1.2"/>
    <path d="M 77.555274 138.246206 
L 55.368595 139.108381 
" clip-path="url(#p09cc0bb66a)" style="fill: none; stroke: #000000; stroke-width: 1.2"/>
    <path d="M 77.555274 138.246206 
L 115.087818 163.312136 
" clip-path="url(#p09cc0bb66a)" style="fill: none; stroke: #000000; stroke-width: 1.2"/>
    <path d="M 117.351217 145.181494 
L 161.001486 139.437629 
" clip-path="url(#p09cc0bb66a)" style="fill: none; stroke: #000000; stroke-width: 1.2"/>
    <path d="M 117.351217 145.181494 
L 140.197042 142.311048 
" clip-path="url(#p09cc0bb66a)" style="fill: none; stroke: #000000; stroke-width: 1.2"/>
    <path d="M 117.351217 145.181494 
L 55.368595 139.108381 
" clip-path="url(#p09cc0bb66a)" style="fill: none; stroke: #000000; stroke-width: 1.2"/>
    <path d="M 117.351217 145.181494 
L 81.803517 161.809026 
" clip-path="url(#p09cc0bb66a)" style="fill: none; stroke: #000000; stroke-width: 1.2"/>
    <path d="M 117.351217 145.181494 
L 157.522386 158.382196 
" clip-path="url(#p09cc0bb66a)" style="fill: none; stroke: #000000; stroke-width: 1.2"/>
    <path d="M 161.001486 139.437629 
L 140.197042 142.311048 
" clip-path="url(#p09cc0bb66a)" style="fill: none; stroke: #000000; stroke-width: 1.2"/>
    <path d="M 161.001486 139.437629 
L 115.087818 163.312136 
" clip-path="url(#p09cc0bb66a)" style="fill: none; stroke: #000000; stroke-width: 1.2"/>
    <path d="M 161.001486 139.437629 
L 133.476133 158.355435 
" clip-path="url(#p09cc0bb66a)" style="fill: none; stroke: #000000; stroke-width: 1.2"/>
    <path d="M 161.001486 139.437629 
L 96.237652 142.041082 
" clip-path="url(#p09cc0bb66a)" style="fill: none; stroke: #000000; stroke-width: 1.2"/>
    <path d="M 140.197042 142.311048 
L 97.859514 156.459756 
" clip-path="url(#p09cc0bb66a)" style="fill: none; stroke: #000000; stroke-width: 1.2"/>
    <path d="M 140.197042 142.311048 
L 157.522386 158.382196 
" clip-path="url(#p09cc0bb66a)" style="fill: none; stroke: #000000; stroke-width: 1.2"/>
    <path d="M 140.197042 142.311048 
L 96.237652 142.041082 
" clip-path="url(#p09cc0bb66a)" style="fill: none; stroke: #000000; stroke-width: 1.2"/>
    <path d="M 97.859514 156.459756 
L 55.368595 139.108381 
" clip-path="url(#p09cc0bb66a)" style="fill: none; stroke: #000000; stroke-width: 1.2"/>
    <path d="M 97.859514 156.459756 
L 157.522386 158.382196 
" clip-path="url(#p09cc0bb66a)" style="fill: none; stroke: #000000; stroke-width: 1.2"/>
    <path d="M 97.859514 156.459756 
L 133.476133 158.355435 
" clip-path="url(#p09cc0bb66a)" style="fill: none; stroke: #000000; stroke-width: 1.2"/>
    <path d="M 55.368595 139.108381 
L 81.803517 161.809026 
" clip-path="url(#p09cc0bb66a)" style="fill: none; stroke: #000000; stroke-width: 1.2"/>
    <path d="M 55.368595 139.108381 
L 133.476133 158.355435 
" clip-path="url(#p09cc0bb66a)" style="fill: none; stroke: #000000; stroke-width: 1.2"/>
    <path d="M 55.368595 139.108381 
L 96.237652 142.041082 
" clip-path="url(#p09cc0bb66a)" style="fill: none; stroke: #000000; stroke-width: 1.2"/>
    <path d="M 81.803517 161.809026 
L 115.087818 163.312136 
" clip-path="url(#p09cc0bb66a)" style="fill: none; stroke: #000000; stroke-width: 1.2"/>
    <path d="M 81.803517 161.809026 
L 157.522386 158.382196 
" clip-path="url(#p09cc0bb66a)" style="fill: none; stroke: #000000; stroke-width: 1.2"/>
    <path d="M 81.803517 161.809026 
L 96.237652 142.041082 
" clip-path="url(#p09cc0bb66a)" style="fill: none; stroke: #000000; stroke-width: 1.2"/>
    <path d="M 115.087818 163.312136 
L 157.522386 158.382196 
" clip-path="url(#p09cc0bb66a)" style="fill: none; stroke: #000000; stroke-width: 1.2"/>
    <path d="M 115.087818 163.312136 
L 133.476133 158.355435 
" clip-path="url(#p09cc0bb66a)" style="fill: none; stroke: #000000; stroke-width: 1.2"/>
    <path d="M 115.087818 163.312136 
L 134.041401 199.007035 
" clip-path="url(#p09cc0bb66a)" style="fill: none; stroke: #000000; stroke-width: 1.2"/>
    <path d="M 157.522386 158.382196 
L 133.476133 158.355435 
" clip-path="url(#p09cc0bb66a)" style="fill: none; stroke: #000000; stroke-width: 1.2"/>
    <path d="M 157.522386 158.382196 
L 186.12976 194.516489 
" clip-path="url(#p09cc0bb66a)" style="fill: none; stroke: #000000; stroke-width: 1.2"/>
    <path d="M 133.476133 158.355435 
L 96.237652 142.041082 
" clip-path="url(#p09cc0bb66a)" style="fill: none; stroke: #000000; stroke-width: 1.2"/>
    <path d="M 133.476133 158.355435 
L 134.041401 199.007035 
" clip-path="url(#p09cc0bb66a)" style="fill: none; stroke: #000000; stroke-width: 1.2"/>
    <path d="M 190.968014 237.076364 
L 186.12976 194.516489 
" clip-path="url(#p09cc0bb66a)" style="fill: none; stroke: #000000; stroke-width: 1.2"/>
    <path d="M 239.831405 203.871733 
L 186.12976 194.516489 
" clip-path="url(#p09cc0bb66a)" style="fill: none; stroke: #000000; stroke-width: 1.2"/>
    <path d="M 186.12976 194.516489 
L 134.041401 199.007035 
" clip-path="url(#p09cc0bb66a)" style="fill: none; stroke: #000000; stroke-width: 1.2"/>
   </g>
   <g id="PathCollection_1">
    <defs>
     <path id="C0_0_5edb366d97" d="M 0 8.944272 
C 2.372049 8.944272 4.647264 8.001847 6.324555 6.324555 
C 8.001847 4.647264 8.944272 2.372049 8.944272 -0 
C 8.944272 -2.372049 8.001847 -4.647264 6.324555 -6.324555 
C 4.647264 -8.001847 2.372049 -8.944272 0 -8.944272 
C -2.372049 -8.944272 -4.647264 -8.001847 -6.324555 -6.324555 
C -8.001847 -4.647264 -8.944272 -2.372049 -8.944272 0 
C -8.944272 2.372049 -8.001847 4.647264 -6.324555 6.324555 
C -4.647264 8.001847 -2.372049 8.944272 0 8.944272 
z
"/>
    </defs>
    <g clip-path="url(#p09cc0bb66a)">
     <use xlink:href="#C0_0_5edb366d97" x="87.67061" y="70.810714" style="fill: #4fd14f; stroke: #4fd14f; stroke-width: 0.5"/>
    </g>
    <g clip-path="url(#p09cc0bb66a)">
     <use xlink:href="#C0_0_5edb366d97" x="68.17986" y="61.927163" style="fill: #4fd14f; stroke: #4fd14f; stroke-width: 0.5"/>
    </g>
    <g clip-path="url(#p09cc0bb66a)">
     <use xlink:href="#C0_0_5edb366d97" x="126.682443" y="53.803636" style="fill: #4fd14f; stroke: #4fd14f; stroke-width: 0.5"/>
    </g>
    <g clip-path="url(#p09cc0bb66a)">
     <use xlink:href="#C0_0_5edb366d97" x="145.420055" y="57.154056" style="fill: #4fd14f; stroke: #4fd14f; stroke-width: 0.5"/>
    </g>
    <g clip-path="url(#p09cc0bb66a)">
     <use xlink:href="#C0_0_5edb366d97" x="167.013715" y="67.243547" style="fill: #4fd14f; stroke: #4fd14f; stroke-width: 0.5"/>
    </g>
    <g clip-path="url(#p09cc0bb66a)">
     <use xlink:href="#C0_0_5edb366d97" x="110.221806" y="56.097801" style="fill: #4fd14f; stroke: #4fd14f; stroke-width: 0.5"/>
    </g>
    <g clip-path="url(#p09cc0bb66a)">
     <use xlink:href="#C0_0_5edb366d97" x="91.380535" y="56.930769" style="fill: #4fd14f; stroke: #4fd14f; stroke-width: 0.5"/>
    </g>
    <g clip-path="url(#p09cc0bb66a)">
     <use xlink:href="#C0_0_5edb366d97" x="63.323864" y="72.660368" style="fill: #4fd14f; stroke: #4fd14f; stroke-width: 0.5"/>
    </g>
    <g clip-path="url(#p09cc0bb66a)">
     <use xlink:href="#C0_0_5edb366d97" x="126.758211" y="78.362166" style="fill: #4fd14f; stroke: #4fd14f; stroke-width: 0.5"/>
    </g>
    <g clip-path="url(#p09cc0bb66a)">
     <use xlink:href="#C0_0_5edb366d97" x="147.834725" y="74.119439" style="fill: #4fd14f; stroke: #4fd14f; stroke-width: 0.5"/>
    </g>
    <g clip-path="url(#p09cc0bb66a)">
     <use xlink:href="#C0_0_5edb366d97" x="169.522302" y="79.429814" style="fill: #4fd14f; stroke: #4fd14f; stroke-width: 0.5"/>
    </g>
    <g clip-path="url(#p09cc0bb66a)">
     <use xlink:href="#C0_0_5edb366d97" x="108.233312" y="68.55266" style="fill: #4fd14f; stroke: #4fd14f; stroke-width: 0.5"/>
    </g>
    <g clip-path="url(#p09cc0bb66a)">
     <use xlink:href="#C0_0_5edb366d97" x="64.894222" y="102.001096" style="fill: #4fd14f; stroke: #4fd14f; stroke-width: 0.5"/>
    </g>
    <g clip-path="url(#p09cc0bb66a)">
     <use xlink:href="#C0_0_5edb366d97" x="120.976254" y="105.897026" style="fill: #4fd14f; stroke: #4fd14f; stroke-width: 0.5"/>
    </g>
    <g clip-path="url(#p09cc0bb66a)">
     <use xlink:href="#C0_0_5edb366d97" x="84.933518" y="95.218501" style="fill: #4fd14f; stroke: #4fd14f; stroke-width: 0.5"/>
    </g>
    <g clip-path="url(#p09cc0bb66a)">
     <use xlink:href="#C0_0_5edb366d97" x="161.719723" y="99.146283" style="fill: #4fd14f; stroke: #4fd14f; stroke-width: 0.5"/>
    </g>
    <g clip-path="url(#p09cc0bb66a)">
     <use xlink:href="#C0_0_5edb366d97" x="102.751107" y="98.507958" style="fill: #4fd14f; stroke: #4fd14f; stroke-width: 0.5"/>
    </g>
    <g clip-path="url(#p09cc0bb66a)">
     <use xlink:href="#C0_0_5edb366d97" x="147.674533" y="111.334796" style="fill: #4fd14f; stroke: #4fd14f; stroke-width: 0.5"/>
    </g>
    <g clip-path="url(#p09cc0bb66a)">
     <use xlink:href="#C0_0_5edb366d97" x="63.774613" y="108.020401" style="fill: #4fd14f; stroke: #4fd14f; stroke-width: 0.5"/>
    </g>
    <g clip-path="url(#p09cc0bb66a)">
     <use xlink:href="#C0_0_5edb366d97" x="124.496847" y="116.166684" style="fill: #4fd14f; stroke: #4fd14f; stroke-width: 0.5"/>
    </g>
    <g clip-path="url(#p09cc0bb66a)">
     <use xlink:href="#C0_0_5edb366d97" x="83.659438" y="118.935843" style="fill: #4fd14f; stroke: #4fd14f; stroke-width: 0.5"/>
    </g>
    <g clip-path="url(#p09cc0bb66a)">
     <use xlink:href="#C0_0_5edb366d97" x="160.726525" y="122.216736" style="fill: #4fd14f; stroke: #4fd14f; stroke-width: 0.5"/>
    </g>
    <g clip-path="url(#p09cc0bb66a)">
     <use xlink:href="#C0_0_5edb366d97" x="101.646782" y="113.583287" style="fill: #4fd14f; stroke: #4fd14f; stroke-width: 0.5"/>
    </g>
    <g clip-path="url(#p09cc0bb66a)">
     <use xlink:href="#C0_0_5edb366d97" x="140.990635" y="105.687685" style="fill: #4fd14f; stroke: #4fd14f; stroke-width: 0.5"/>
    </g>
    <g clip-path="url(#p09cc0bb66a)">
     <use xlink:href="#C0_0_5edb366d97" x="59.568223" y="147.71864" style="fill: #4fd14f; stroke: #4fd14f; stroke-width: 0.5"/>
    </g>
    <g clip-path="url(#p09cc0bb66a)">
     <use xlink:href="#C0_0_5edb366d97" x="77.555274" y="138.246206" style="fill: #4fd14f; stroke: #4fd14f; stroke-width: 0.5"/>
    </g>
    <g clip-path="url(#p09cc0bb66a)">
     <use xlink:href="#C0_0_5edb366d97" x="117.351217" y="145.181494" style="fill: #4fd14f; stroke: #4fd14f; stroke-width: 0.5"/>
    </g>
    <g clip-path="url(#p09cc0bb66a)">
     <use xlink:href="#C0_0_5edb366d97" x="161.001486" y="139.437629" style="fill: #4fd14f; stroke: #4fd14f; stroke-width: 0.5"/>
    </g>
    <g clip-path="url(#p09cc0bb66a)">
     <use xlink:href="#C0_0_5edb366d97" x="140.197042" y="142.311048" style="fill: #4fd14f; stroke: #4fd14f; stroke-width: 0.5"/>
    </g>
    <g clip-path="url(#p09cc0bb66a)">
     <use xlink:href="#C0_0_5edb366d97" x="97.859514" y="156.459756" style="fill: #4fd14f; stroke: #4fd14f; stroke-width: 0.5"/>
    </g>
    <g clip-path="url(#p09cc0bb66a)">
     <use xlink:href="#C0_0_5edb366d97" x="55.368595" y="139.108381" style="fill: #4fd14f; stroke: #4fd14f; stroke-width: 0.5"/>
    </g>
    <g clip-path="url(#p09cc0bb66a)">
     <use xlink:href="#C0_0_5edb366d97" x="81.803517" y="161.809026" style="fill: #4fd14f; stroke: #4fd14f; stroke-width: 0.5"/>
    </g>
    <g clip-path="url(#p09cc0bb66a)">
     <use xlink:href="#C0_0_5edb366d97" x="115.087818" y="163.312136" style="fill: #4fd14f; stroke: #4fd14f; stroke-width: 0.5"/>
    </g>
    <g clip-path="url(#p09cc0bb66a)">
     <use xlink:href="#C0_0_5edb366d97" x="157.522386" y="158.382196" style="fill: #4fd14f; stroke: #4fd14f; stroke-width: 0.5"/>
    </g>
    <g clip-path="url(#p09cc0bb66a)">
     <use xlink:href="#C0_0_5edb366d97" x="133.476133" y="158.355435" style="fill: #4fd14f; stroke: #4fd14f; stroke-width: 0.5"/>
    </g>
    <g clip-path="url(#p09cc0bb66a)">
     <use xlink:href="#C0_0_5edb366d97" x="96.237652" y="142.041082" style="fill: #4fd14f; stroke: #4fd14f; stroke-width: 0.5"/>
    </g>
    <g clip-path="url(#p09cc0bb66a)">
     <use xlink:href="#C0_0_5edb366d97" x="190.968014" y="237.076364" style="fill: #bfbfbf; stroke: #bfbfbf; stroke-width: 0.5"/>
    </g>
    <g clip-path="url(#p09cc0bb66a)">
     <use xlink:href="#C0_0_5edb366d97" x="239.831405" y="203.871733" style="fill: #bfbfbf; stroke: #bfbfbf; stroke-width: 0.5"/>
    </g>
    <g clip-path="url(#p09cc0bb66a)">
     <use xlink:href="#C0_0_5edb366d97" x="186.12976" y="194.516489" style="fill: #666666; stroke: #666666; stroke-width: 0.5"/>
    </g>
    <g clip-path="url(#p09cc0bb66a)">
     <use xlink:href="#C0_0_5edb366d97" x="134.041401" y="199.007035" style="fill: #ff0d0d; stroke: #ff0d0d; stroke-width: 0.5"/>
    </g>
   </g>
   <g id="text_1">
    <!-- CH2Ni48O -->
    <g transform="translate(124.873121 -0.335994) scale(0.1 -0.1)">
     <defs>
      <path id="DejaVuSans-43" d="M 4122 4306 
L 4122 3641 
Q 3803 3938 3442 4084 
Q 3081 4231 2675 4231 
Q 1875 4231 1450 3742 
Q 1025 3253 1025 2328 
Q 1025 1406 1450 917 
Q 1875 428 2675 428 
Q 3081 428 3442 575 
Q 3803 722 4122 1019 
L 4122 359 
Q 3791 134 3420 21 
Q 3050 -91 2638 -91 
Q 1578 -91 968 557 
Q 359 1206 359 2328 
Q 359 3453 968 4101 
Q 1578 4750 2638 4750 
Q 3056 4750 3426 4639 
Q 3797 4528 4122 4306 
z
" transform="scale(0.015625)"/>
      <path id="DejaVuSans-48" d="M 628 4666 
L 1259 4666 
L 1259 2753 
L 3553 2753 
L 3553 4666 
L 4184 4666 
L 4184 0 
L 3553 0 
L 3553 2222 
L 1259 2222 
L 1259 0 
L 628 0 
L 628 4666 
z
" transform="scale(0.015625)"/>
      <path id="DejaVuSans-32" d="M 1228 531 
L 3431 531 
L 3431 0 
L 469 0 
L 469 531 
Q 828 903 1448 1529 
Q 2069 2156 2228 2338 
Q 2531 2678 2651 2914 
Q 2772 3150 2772 3378 
Q 2772 3750 2511 3984 
Q 2250 4219 1831 4219 
Q 1534 4219 1204 4116 
Q 875 4013 500 3803 
L 500 4441 
Q 881 4594 1212 4672 
Q 1544 4750 1819 4750 
Q 2544 4750 2975 4387 
Q 3406 4025 3406 3419 
Q 3406 3131 3298 2873 
Q 3191 2616 2906 2266 
Q 2828 2175 2409 1742 
Q 1991 1309 1228 531 
z
" transform="scale(0.015625)"/>
      <path id="DejaVuSans-4e" d="M 628 4666 
L 1478 4666 
L 3547 763 
L 3547 4666 
L 4159 4666 
L 4159 0 
L 3309 0 
L 1241 3903 
L 1241 0 
L 628 0 
L 628 4666 
z
" transform="scale(0.015625)"/>
      <path id="DejaVuSans-69" d="M 603 3500 
L 1178 3500 
L 1178 0 
L 603 0 
L 603 3500 
z
M 603 4863 
L 1178 4863 
L 1178 4134 
L 603 4134 
L 603 4863 
z
" transform="scale(0.015625)"/>
      <path id="DejaVuSans-34" d="M 2419 4116 
L 825 1625 
L 2419 1625 
L 2419 4116 
z
M 2253 4666 
L 3047 4666 
L 3047 1625 
L 3713 1625 
L 3713 1100 
L 3047 1100 
L 3047 0 
L 2419 0 
L 2419 1100 
L 313 1100 
L 313 1709 
L 2253 4666 
z
" transform="scale(0.015625)"/>
      <path id="DejaVuSans-38" d="M 2034 2216 
Q 1584 2216 1326 1975 
Q 1069 1734 1069 1313 
Q 1069 891 1326 650 
Q 1584 409 2034 409 
Q 2484 409 2743 651 
Q 3003 894 3003 1313 
Q 3003 1734 2745 1975 
Q 2488 2216 2034 2216 
z
M 1403 2484 
Q 997 2584 770 2862 
Q 544 3141 544 3541 
Q 544 4100 942 4425 
Q 1341 4750 2034 4750 
Q 2731 4750 3128 4425 
Q 3525 4100 3525 3541 
Q 3525 3141 3298 2862 
Q 3072 2584 2669 2484 
Q 3125 2378 3379 2068 
Q 3634 1759 3634 1313 
Q 3634 634 3220 271 
Q 2806 -91 2034 -91 
Q 1263 -91 848 271 
Q 434 634 434 1313 
Q 434 1759 690 2068 
Q 947 2378 1403 2484 
z
M 1172 3481 
Q 1172 3119 1398 2916 
Q 1625 2713 2034 2713 
Q 2441 2713 2670 2916 
Q 2900 3119 2900 3481 
Q 2900 3844 2670 4047 
Q 2441 4250 2034 4250 
Q 1625 4250 1398 4047 
Q 1172 3844 1172 3481 
z
" transform="scale(0.015625)"/>
      <path id="DejaVuSans-4f" d="M 2522 4238 
Q 1834 4238 1429 3725 
Q 1025 3213 1025 2328 
Q 1025 1447 1429 934 
Q 1834 422 2522 422 
Q 3209 422 3611 934 
Q 4013 1447 4013 2328 
Q 4013 3213 3611 3725 
Q 3209 4238 2522 4238 
z
M 2522 4750 
Q 3503 4750 4090 4092 
Q 4678 3434 4678 2328 
Q 4678 1225 4090 567 
Q 3503 -91 2522 -91 
Q 1538 -91 948 565 
Q 359 1222 359 2328 
Q 359 3434 948 4092 
Q 1538 4750 2522 4750 
z
" transform="scale(0.015625)"/>
     </defs>
     <use xlink:href="#DejaVuSans-43"/>
     <use xlink:href="#DejaVuSans-48" transform="translate(69.824219 0)"/>
     <use xlink:href="#DejaVuSans-32" transform="translate(145.019531 0)"/>
     <use xlink:href="#DejaVuSans-4e" transform="translate(208.642578 0)"/>
     <use xlink:href="#DejaVuSans-69" transform="translate(283.447266 0)"/>
     <use xlink:href="#DejaVuSans-34" transform="translate(311.230469 0)"/>
     <use xlink:href="#DejaVuSans-38" transform="translate(374.853516 0)"/>
     <use xlink:href="#DejaVuSans-4f" transform="translate(438.476562 0)"/>
    </g>
    <!-- Error: -8.88 eV -->
    <g transform="translate(124.873121 10.861819) scale(0.1 -0.1)">
     <defs>
      <path id="DejaVuSans-45" d="M 628 4666 
L 3578 4666 
L 3578 4134 
L 1259 4134 
L 1259 2753 
L 3481 2753 
L 3481 2222 
L 1259 2222 
L 1259 531 
L 3634 531 
L 3634 0 
L 628 0 
L 628 4666 
z
" transform="scale(0.015625)"/>
      <path id="DejaVuSans-72" d="M 2631 2963 
Q 2534 3019 2420 3045 
Q 2306 3072 2169 3072 
Q 1681 3072 1420 2755 
Q 1159 2438 1159 1844 
L 1159 0 
L 581 0 
L 581 3500 
L 1159 3500 
L 1159 2956 
Q 1341 3275 1631 3429 
Q 1922 3584 2338 3584 
Q 2397 3584 2469 3576 
Q 2541 3569 2628 3553 
L 2631 2963 
z
" transform="scale(0.015625)"/>
      <path id="DejaVuSans-6f" d="M 1959 3097 
Q 1497 3097 1228 2736 
Q 959 2375 959 1747 
Q 959 1119 1226 758 
Q 1494 397 1959 397 
Q 2419 397 2687 759 
Q 2956 1122 2956 1747 
Q 2956 2369 2687 2733 
Q 2419 3097 1959 3097 
z
M 1959 3584 
Q 2709 3584 3137 3096 
Q 3566 2609 3566 1747 
Q 3566 888 3137 398 
Q 2709 -91 1959 -91 
Q 1206 -91 779 398 
Q 353 888 353 1747 
Q 353 2609 779 3096 
Q 1206 3584 1959 3584 
z
" transform="scale(0.015625)"/>
      <path id="DejaVuSans-3a" d="M 750 794 
L 1409 794 
L 1409 0 
L 750 0 
L 750 794 
z
M 750 3309 
L 1409 3309 
L 1409 2516 
L 750 2516 
L 750 3309 
z
" transform="scale(0.015625)"/>
      <path id="DejaVuSans-20" transform="scale(0.015625)"/>
      <path id="DejaVuSans-2d" d="M 313 2009 
L 1997 2009 
L 1997 1497 
L 313 1497 
L 313 2009 
z
" transform="scale(0.015625)"/>
      <path id="DejaVuSans-2e" d="M 684 794 
L 1344 794 
L 1344 0 
L 684 0 
L 684 794 
z
" transform="scale(0.015625)"/>
      <path id="DejaVuSans-65" d="M 3597 1894 
L 3597 1613 
L 953 1613 
Q 991 1019 1311 708 
Q 1631 397 2203 397 
Q 2534 397 2845 478 
Q 3156 559 3463 722 
L 3463 178 
Q 3153 47 2828 -22 
Q 2503 -91 2169 -91 
Q 1331 -91 842 396 
Q 353 884 353 1716 
Q 353 2575 817 3079 
Q 1281 3584 2069 3584 
Q 2775 3584 3186 3129 
Q 3597 2675 3597 1894 
z
M 3022 2063 
Q 3016 2534 2758 2815 
Q 2500 3097 2075 3097 
Q 1594 3097 1305 2825 
Q 1016 2553 972 2059 
L 3022 2063 
z
" transform="scale(0.015625)"/>
      <path id="DejaVuSans-56" d="M 1831 0 
L 50 4666 
L 709 4666 
L 2188 738 
L 3669 4666 
L 4325 4666 
L 2547 0 
L 1831 0 
z
" transform="scale(0.015625)"/>
     </defs>
     <use xlink:href="#DejaVuSans-45"/>
     <use xlink:href="#DejaVuSans-72" transform="translate(63.183594 0)"/>
     <use xlink:href="#DejaVuSans-72" transform="translate(102.546875 0)"/>
     <use xlink:href="#DejaVuSans-6f" transform="translate(141.410156 0)"/>
     <use xlink:href="#DejaVuSans-72" transform="translate(202.591797 0)"/>
     <use xlink:href="#DejaVuSans-3a" transform="translate(241.955078 0)"/>
     <use xlink:href="#DejaVuSans-20" transform="translate(275.646484 0)"/>
     <use xlink:href="#DejaVuSans-2d" transform="translate(307.433594 0)"/>
     <use xlink:href="#DejaVuSans-38" transform="translate(343.517578 0)"/>
     <use xlink:href="#DejaVuSans-2e" transform="translate(407.140625 0)"/>
     <use xlink:href="#DejaVuSans-38" transform="translate(438.927734 0)"/>
     <use xlink:href="#DejaVuSans-38" transform="translate(502.550781 0)"/>
     <use xlink:href="#DejaVuSans-20" transform="translate(566.173828 0)"/>
     <use xlink:href="#DejaVuSans-65" transform="translate(597.960938 0)"/>
     <use xlink:href="#DejaVuSans-56" transform="translate(659.484375 0)"/>
    </g>
   </g>
  </g>
 </g>
 <defs>
  <clipPath id="p09cc0bb66a">
   <rect x="36" y="34.56" width="223.2" height="221.76"/>
  </clipPath>
 </defs>
</svg>
