<?xml version="1.0" encoding="utf-8" standalone="no"?>
<!DOCTYPE svg PUBLIC "-//W3C//DTD SVG 1.1//EN"
  "http://www.w3.org/Graphics/SVG/1.1/DTD/svg11.dtd">
<svg xmlns:xlink="http://www.w3.org/1999/xlink" width="288pt" height="288pt" viewBox="0 0 288 288" xmlns="http://www.w3.org/2000/svg" version="1.1">
 <metadata>
  <rdf:RDF xmlns:dc="http://purl.org/dc/elements/1.1/" xmlns:cc="http://creativecommons.org/ns#" xmlns:rdf="http://www.w3.org/1999/02/22-rdf-syntax-ns#">
   <cc:Work>
    <dc:type rdf:resource="http://purl.org/dc/dcmitype/StillImage"/>
    <dc:date>2025-06-30T12:03:17.880064</dc:date>
    <dc:format>image/svg+xml</dc:format>
    <dc:creator>
     <cc:Agent>
      <dc:title>Matplotlib v3.10.1, https://matplotlib.org/</dc:title>
     </cc:Agent>
    </dc:creator>
   </cc:Work>
  </rdf:RDF>
 </metadata>
 <defs>
  <style type="text/css">*{stroke-linejoin: round; stroke-linecap: butt}</style>
 </defs>
 <g id="figure_1">
  <g id="patch_1">
   <path d="M 0 288 
L 288 288 
L 288 0 
L 0 0 
z
" style="fill: #ffffff"/>
  </g>
  <g id="axes_1">
   <g id="LineCollection_1">
    <path d="M 92.512708 63.237443 
L 135.725306 68.712042 
" clip-path="url(#pb017af95fc)" style="fill: none; stroke: #000000; stroke-width: 1.2"/>
    <path d="M 92.512708 63.237443 
L 112.809697 86.36371 
" clip-path="url(#pb017af95fc)" style="fill: none; stroke: #000000; stroke-width: 1.2"/>
    <path d="M 92.512708 63.237443 
L 68.158054 70.473144 
" clip-path="url(#pb017af95fc)" style="fill: none; stroke: #000000; stroke-width: 1.2"/>
    <path d="M 92.512708 63.237443 
L 126.821116 69.467094 
" clip-path="url(#pb017af95fc)" style="fill: none; stroke: #000000; stroke-width: 1.2"/>
    <path d="M 92.512708 63.237443 
L 58.392627 106.125419 
" clip-path="url(#pb017af95fc)" style="fill: none; stroke: #000000; stroke-width: 1.2"/>
    <path d="M 92.512708 63.237443 
L 75.835385 126.125533 
" clip-path="url(#pb017af95fc)" style="fill: none; stroke: #000000; stroke-width: 1.2"/>
    <path d="M 92.512708 63.237443 
L 89.01253 90.416026 
" clip-path="url(#pb017af95fc)" style="fill: none; stroke: #000000; stroke-width: 1.2"/>
    <path d="M 92.512708 63.237443 
L 128.341427 107.714162 
" clip-path="url(#pb017af95fc)" style="fill: none; stroke: #000000; stroke-width: 1.2"/>
    <path d="M 92.512708 63.237443 
L 80.144354 87.71789 
" clip-path="url(#pb017af95fc)" style="fill: none; stroke: #000000; stroke-width: 1.2"/>
    <path d="M 172.54497 93.260017 
L 135.725306 68.712042 
" clip-path="url(#pb017af95fc)" style="fill: none; stroke: #000000; stroke-width: 1.2"/>
    <path d="M 172.54497 93.260017 
L 151.572205 84.152808 
" clip-path="url(#pb017af95fc)" style="fill: none; stroke: #000000; stroke-width: 1.2"/>
    <path d="M 172.54497 93.260017 
L 112.809697 86.36371 
" clip-path="url(#pb017af95fc)" style="fill: none; stroke: #000000; stroke-width: 1.2"/>
    <path d="M 172.54497 93.260017 
L 126.821116 69.467094 
" clip-path="url(#pb017af95fc)" style="fill: none; stroke: #000000; stroke-width: 1.2"/>
    <path d="M 172.54497 93.260017 
L 149.43457 95.971962 
" clip-path="url(#pb017af95fc)" style="fill: none; stroke: #000000; stroke-width: 1.2"/>
    <path d="M 172.54497 93.260017 
L 143.635128 127.669802 
" clip-path="url(#pb017af95fc)" style="fill: none; stroke: #000000; stroke-width: 1.2"/>
    <path d="M 172.54497 93.260017 
L 156.402414 151.328826 
" clip-path="url(#pb017af95fc)" style="fill: none; stroke: #000000; stroke-width: 1.2"/>
    <path d="M 172.54497 93.260017 
L 171.8595 114.490774 
" clip-path="url(#pb017af95fc)" style="fill: none; stroke: #000000; stroke-width: 1.2"/>
    <path d="M 172.54497 93.260017 
L 128.341427 107.714162 
" clip-path="url(#pb017af95fc)" style="fill: none; stroke: #000000; stroke-width: 1.2"/>
    <path d="M 172.54497 93.260017 
L 163.816109 116.906664 
" clip-path="url(#pb017af95fc)" style="fill: none; stroke: #000000; stroke-width: 1.2"/>
    <path d="M 135.725306 68.712042 
L 151.572205 84.152808 
" clip-path="url(#pb017af95fc)" style="fill: none; stroke: #000000; stroke-width: 1.2"/>
    <path d="M 135.725306 68.712042 
L 112.809697 86.36371 
" clip-path="url(#pb017af95fc)" style="fill: none; stroke: #000000; stroke-width: 1.2"/>
    <path d="M 135.725306 68.712042 
L 90.824313 53.803636 
" clip-path="url(#pb017af95fc)" style="fill: none; stroke: #000000; stroke-width: 1.2"/>
    <path d="M 135.725306 68.712042 
L 166.553737 76.923022 
" clip-path="url(#pb017af95fc)" style="fill: none; stroke: #000000; stroke-width: 1.2"/>
    <path d="M 135.725306 68.712042 
L 109.159632 74.10492 
" clip-path="url(#pb017af95fc)" style="fill: none; stroke: #000000; stroke-width: 1.2"/>
    <path d="M 135.725306 68.712042 
L 102.37582 110.909067 
" clip-path="url(#pb017af95fc)" style="fill: none; stroke: #000000; stroke-width: 1.2"/>
    <path d="M 135.725306 68.712042 
L 89.01253 90.416026 
" clip-path="url(#pb017af95fc)" style="fill: none; stroke: #000000; stroke-width: 1.2"/>
    <path d="M 135.725306 68.712042 
L 118.411972 133.179015 
" clip-path="url(#pb017af95fc)" style="fill: none; stroke: #000000; stroke-width: 1.2"/>
    <path d="M 135.725306 68.712042 
L 171.8595 114.490774 
" clip-path="url(#pb017af95fc)" style="fill: none; stroke: #000000; stroke-width: 1.2"/>
    <path d="M 135.725306 68.712042 
L 128.341427 107.714162 
" clip-path="url(#pb017af95fc)" style="fill: none; stroke: #000000; stroke-width: 1.2"/>
    <path d="M 135.725306 68.712042 
L 125.188026 96.297045 
" clip-path="url(#pb017af95fc)" style="fill: none; stroke: #000000; stroke-width: 1.2"/>
    <path d="M 151.572205 84.152808 
L 112.809697 86.36371 
" clip-path="url(#pb017af95fc)" style="fill: none; stroke: #000000; stroke-width: 1.2"/>
    <path d="M 151.572205 84.152808 
L 166.553737 76.923022 
" clip-path="url(#pb017af95fc)" style="fill: none; stroke: #000000; stroke-width: 1.2"/>
    <path d="M 151.572205 84.152808 
L 109.159632 74.10492 
" clip-path="url(#pb017af95fc)" style="fill: none; stroke: #000000; stroke-width: 1.2"/>
    <path d="M 151.572205 84.152808 
L 143.635128 127.669802 
" clip-path="url(#pb017af95fc)" style="fill: none; stroke: #000000; stroke-width: 1.2"/>
    <path d="M 151.572205 84.152808 
L 102.37582 110.909067 
" clip-path="url(#pb017af95fc)" style="fill: none; stroke: #000000; stroke-width: 1.2"/>
    <path d="M 151.572205 84.152808 
L 133.714218 151.979531 
" clip-path="url(#pb017af95fc)" style="fill: none; stroke: #000000; stroke-width: 1.2"/>
    <path d="M 151.572205 84.152808 
L 137.215148 117.398299 
" clip-path="url(#pb017af95fc)" style="fill: none; stroke: #000000; stroke-width: 1.2"/>
    <path d="M 151.572205 84.152808 
L 171.8595 114.490774 
" clip-path="url(#pb017af95fc)" style="fill: none; stroke: #000000; stroke-width: 1.2"/>
    <path d="M 112.809697 86.36371 
L 68.158054 70.473144 
" clip-path="url(#pb017af95fc)" style="fill: none; stroke: #000000; stroke-width: 1.2"/>
    <path d="M 112.809697 86.36371 
L 126.821116 69.467094 
" clip-path="url(#pb017af95fc)" style="fill: none; stroke: #000000; stroke-width: 1.2"/>
    <path d="M 112.809697 86.36371 
L 149.43457 95.971962 
" clip-path="url(#pb017af95fc)" style="fill: none; stroke: #000000; stroke-width: 1.2"/>
    <path d="M 112.809697 86.36371 
L 58.392627 106.125419 
" clip-path="url(#pb017af95fc)" style="fill: none; stroke: #000000; stroke-width: 1.2"/>
    <path d="M 112.809697 86.36371 
L 143.635128 127.669802 
" clip-path="url(#pb017af95fc)" style="fill: none; stroke: #000000; stroke-width: 1.2"/>
    <path d="M 112.809697 86.36371 
L 102.37582 110.909067 
" clip-path="url(#pb017af95fc)" style="fill: none; stroke: #000000; stroke-width: 1.2"/>
    <path d="M 112.809697 86.36371 
L 98.604138 150.135528 
" clip-path="url(#pb017af95fc)" style="fill: none; stroke: #000000; stroke-width: 1.2"/>
    <path d="M 112.809697 86.36371 
L 95.276257 113.130611 
" clip-path="url(#pb017af95fc)" style="fill: none; stroke: #000000; stroke-width: 1.2"/>
    <path d="M 112.809697 86.36371 
L 128.341427 107.714162 
" clip-path="url(#pb017af95fc)" style="fill: none; stroke: #000000; stroke-width: 1.2"/>
    <path d="M 90.824313 53.803636 
L 68.158054 70.473144 
" clip-path="url(#pb017af95fc)" style="fill: none; stroke: #000000; stroke-width: 1.2"/>
    <path d="M 90.824313 53.803636 
L 126.821116 69.467094 
" clip-path="url(#pb017af95fc)" style="fill: none; stroke: #000000; stroke-width: 1.2"/>
    <path d="M 90.824313 53.803636 
L 109.159632 74.10492 
" clip-path="url(#pb017af95fc)" style="fill: none; stroke: #000000; stroke-width: 1.2"/>
    <path d="M 90.824313 53.803636 
L 57.014206 94.362051 
" clip-path="url(#pb017af95fc)" style="fill: none; stroke: #000000; stroke-width: 1.2"/>
    <path d="M 90.824313 53.803636 
L 89.01253 90.416026 
" clip-path="url(#pb017af95fc)" style="fill: none; stroke: #000000; stroke-width: 1.2"/>
    <path d="M 90.824313 53.803636 
L 71.27563 113.100299 
" clip-path="url(#pb017af95fc)" style="fill: none; stroke: #000000; stroke-width: 1.2"/>
    <path d="M 90.824313 53.803636 
L 80.144354 87.71789 
" clip-path="url(#pb017af95fc)" style="fill: none; stroke: #000000; stroke-width: 1.2"/>
    <path d="M 90.824313 53.803636 
L 125.188026 96.297045 
" clip-path="url(#pb017af95fc)" style="fill: none; stroke: #000000; stroke-width: 1.2"/>
    <path d="M 68.158054 70.473144 
L 126.821116 69.467094 
" clip-path="url(#pb017af95fc)" style="fill: none; stroke: #000000; stroke-width: 1.2"/>
    <path d="M 68.158054 70.473144 
L 109.159632 74.10492 
" clip-path="url(#pb017af95fc)" style="fill: none; stroke: #000000; stroke-width: 1.2"/>
    <path d="M 68.158054 70.473144 
L 58.392627 106.125419 
" clip-path="url(#pb017af95fc)" style="fill: none; stroke: #000000; stroke-width: 1.2"/>
    <path d="M 68.158054 70.473144 
L 57.014206 94.362051 
" clip-path="url(#pb017af95fc)" style="fill: none; stroke: #000000; stroke-width: 1.2"/>
    <path d="M 68.158054 70.473144 
L 55.368595 129.990645 
" clip-path="url(#pb017af95fc)" style="fill: none; stroke: #000000; stroke-width: 1.2"/>
    <path d="M 68.158054 70.473144 
L 95.276257 113.130611 
" clip-path="url(#pb017af95fc)" style="fill: none; stroke: #000000; stroke-width: 1.2"/>
    <path d="M 68.158054 70.473144 
L 80.144354 87.71789 
" clip-path="url(#pb017af95fc)" style="fill: none; stroke: #000000; stroke-width: 1.2"/>
    <path d="M 166.553737 76.923022 
L 126.821116 69.467094 
" clip-path="url(#pb017af95fc)" style="fill: none; stroke: #000000; stroke-width: 1.2"/>
    <path d="M 166.553737 76.923022 
L 149.43457 95.971962 
" clip-path="url(#pb017af95fc)" style="fill: none; stroke: #000000; stroke-width: 1.2"/>
    <path d="M 166.553737 76.923022 
L 109.159632 74.10492 
" clip-path="url(#pb017af95fc)" style="fill: none; stroke: #000000; stroke-width: 1.2"/>
    <path d="M 166.553737 76.923022 
L 137.215148 117.398299 
" clip-path="url(#pb017af95fc)" style="fill: none; stroke: #000000; stroke-width: 1.2"/>
    <path d="M 166.553737 76.923022 
L 171.8595 114.490774 
" clip-path="url(#pb017af95fc)" style="fill: none; stroke: #000000; stroke-width: 1.2"/>
    <path d="M 166.553737 76.923022 
L 154.506979 138.533146 
" clip-path="url(#pb017af95fc)" style="fill: none; stroke: #000000; stroke-width: 1.2"/>
    <path d="M 166.553737 76.923022 
L 163.816109 116.906664 
" clip-path="url(#pb017af95fc)" style="fill: none; stroke: #000000; stroke-width: 1.2"/>
    <path d="M 166.553737 76.923022 
L 125.188026 96.297045 
" clip-path="url(#pb017af95fc)" style="fill: none; stroke: #000000; stroke-width: 1.2"/>
    <path d="M 126.821116 69.467094 
L 149.43457 95.971962 
" clip-path="url(#pb017af95fc)" style="fill: none; stroke: #000000; stroke-width: 1.2"/>
    <path d="M 126.821116 69.467094 
L 109.159632 74.10492 
" clip-path="url(#pb017af95fc)" style="fill: none; stroke: #000000; stroke-width: 1.2"/>
    <path d="M 126.821116 69.467094 
L 95.276257 113.130611 
" clip-path="url(#pb017af95fc)" style="fill: none; stroke: #000000; stroke-width: 1.2"/>
    <path d="M 126.821116 69.467094 
L 128.341427 107.714162 
" clip-path="url(#pb017af95fc)" style="fill: none; stroke: #000000; stroke-width: 1.2"/>
    <path d="M 126.821116 69.467094 
L 80.144354 87.71789 
" clip-path="url(#pb017af95fc)" style="fill: none; stroke: #000000; stroke-width: 1.2"/>
    <path d="M 126.821116 69.467094 
L 111.262171 132.063476 
" clip-path="url(#pb017af95fc)" style="fill: none; stroke: #000000; stroke-width: 1.2"/>
    <path d="M 126.821116 69.467094 
L 163.816109 116.906664 
" clip-path="url(#pb017af95fc)" style="fill: none; stroke: #000000; stroke-width: 1.2"/>
    <path d="M 126.821116 69.467094 
L 125.188026 96.297045 
" clip-path="url(#pb017af95fc)" style="fill: none; stroke: #000000; stroke-width: 1.2"/>
    <path d="M 149.43457 95.971962 
L 109.159632 74.10492 
" clip-path="url(#pb017af95fc)" style="fill: none; stroke: #000000; stroke-width: 1.2"/>
    <path d="M 149.43457 95.971962 
L 143.635128 127.669802 
" clip-path="url(#pb017af95fc)" style="fill: none; stroke: #000000; stroke-width: 1.2"/>
    <path d="M 149.43457 95.971962 
L 137.215148 117.398299 
" clip-path="url(#pb017af95fc)" style="fill: none; stroke: #000000; stroke-width: 1.2"/>
    <path d="M 149.43457 95.971962 
L 95.276257 113.130611 
" clip-path="url(#pb017af95fc)" style="fill: none; stroke: #000000; stroke-width: 1.2"/>
    <path d="M 149.43457 95.971962 
L 128.243971 159.325595 
" clip-path="url(#pb017af95fc)" style="fill: none; stroke: #000000; stroke-width: 1.2"/>
    <path d="M 149.43457 95.971962 
L 163.816109 116.906664 
" clip-path="url(#pb017af95fc)" style="fill: none; stroke: #000000; stroke-width: 1.2"/>
    <path d="M 109.159632 74.10492 
L 102.37582 110.909067 
" clip-path="url(#pb017af95fc)" style="fill: none; stroke: #000000; stroke-width: 1.2"/>
    <path d="M 109.159632 74.10492 
L 57.014206 94.362051 
" clip-path="url(#pb017af95fc)" style="fill: none; stroke: #000000; stroke-width: 1.2"/>
    <path d="M 109.159632 74.10492 
L 137.215148 117.398299 
" clip-path="url(#pb017af95fc)" style="fill: none; stroke: #000000; stroke-width: 1.2"/>
    <path d="M 109.159632 74.10492 
L 95.276257 113.130611 
" clip-path="url(#pb017af95fc)" style="fill: none; stroke: #000000; stroke-width: 1.2"/>
    <path d="M 109.159632 74.10492 
L 93.417261 139.78318 
" clip-path="url(#pb017af95fc)" style="fill: none; stroke: #000000; stroke-width: 1.2"/>
    <path d="M 109.159632 74.10492 
L 125.188026 96.297045 
" clip-path="url(#pb017af95fc)" style="fill: none; stroke: #000000; stroke-width: 1.2"/>
    <path d="M 58.392627 106.125419 
L 64.099492 143.182197 
" clip-path="url(#pb017af95fc)" style="fill: none; stroke: #000000; stroke-width: 1.2"/>
    <path d="M 58.392627 106.125419 
L 102.37582 110.909067 
" clip-path="url(#pb017af95fc)" style="fill: none; stroke: #000000; stroke-width: 1.2"/>
    <path d="M 58.392627 106.125419 
L 98.604138 150.135528 
" clip-path="url(#pb017af95fc)" style="fill: none; stroke: #000000; stroke-width: 1.2"/>
    <path d="M 58.392627 106.125419 
L 55.368595 129.990645 
" clip-path="url(#pb017af95fc)" style="fill: none; stroke: #000000; stroke-width: 1.2"/>
    <path d="M 58.392627 106.125419 
L 95.276257 113.130611 
" clip-path="url(#pb017af95fc)" style="fill: none; stroke: #000000; stroke-width: 1.2"/>
    <path d="M 58.392627 106.125419 
L 75.835385 126.125533 
" clip-path="url(#pb017af95fc)" style="fill: none; stroke: #000000; stroke-width: 1.2"/>
    <path d="M 64.099492 143.182197 
L 102.37582 110.909067 
" clip-path="url(#pb017af95fc)" style="fill: none; stroke: #000000; stroke-width: 1.2"/>
    <path d="M 64.099492 143.182197 
L 98.604138 150.135528 
" clip-path="url(#pb017af95fc)" style="fill: none; stroke: #000000; stroke-width: 1.2"/>
    <path d="M 64.099492 143.182197 
L 57.014206 94.362051 
" clip-path="url(#pb017af95fc)" style="fill: none; stroke: #000000; stroke-width: 1.2"/>
    <path d="M 64.099492 143.182197 
L 93.417261 139.78318 
" clip-path="url(#pb017af95fc)" style="fill: none; stroke: #000000; stroke-width: 1.2"/>
    <path d="M 64.099492 143.182197 
L 75.835385 126.125533 
" clip-path="url(#pb017af95fc)" style="fill: none; stroke: #000000; stroke-width: 1.2"/>
    <path d="M 64.099492 143.182197 
L 89.01253 90.416026 
" clip-path="url(#pb017af95fc)" style="fill: none; stroke: #000000; stroke-width: 1.2"/>
    <path d="M 64.099492 143.182197 
L 118.411972 133.179015 
" clip-path="url(#pb017af95fc)" style="fill: none; stroke: #000000; stroke-width: 1.2"/>
    <path d="M 64.099492 143.182197 
L 71.27563 113.100299 
" clip-path="url(#pb017af95fc)" style="fill: none; stroke: #000000; stroke-width: 1.2"/>
    <path d="M 143.635128 127.669802 
L 102.37582 110.909067 
" clip-path="url(#pb017af95fc)" style="fill: none; stroke: #000000; stroke-width: 1.2"/>
    <path d="M 143.635128 127.669802 
L 133.714218 151.979531 
" clip-path="url(#pb017af95fc)" style="fill: none; stroke: #000000; stroke-width: 1.2"/>
    <path d="M 143.635128 127.669802 
L 98.604138 150.135528 
" clip-path="url(#pb017af95fc)" style="fill: none; stroke: #000000; stroke-width: 1.2"/>
    <path d="M 143.635128 127.669802 
L 95.276257 113.130611 
" clip-path="url(#pb017af95fc)" style="fill: none; stroke: #000000; stroke-width: 1.2"/>
    <path d="M 143.635128 127.669802 
L 128.243971 159.325595 
" clip-path="url(#pb017af95fc)" style="fill: none; stroke: #000000; stroke-width: 1.2"/>
    <path d="M 143.635128 127.669802 
L 156.402414 151.328826 
" clip-path="url(#pb017af95fc)" style="fill: none; stroke: #000000; stroke-width: 1.2"/>
    <path d="M 102.37582 110.909067 
L 133.714218 151.979531 
" clip-path="url(#pb017af95fc)" style="fill: none; stroke: #000000; stroke-width: 1.2"/>
    <path d="M 102.37582 110.909067 
L 98.604138 150.135528 
" clip-path="url(#pb017af95fc)" style="fill: none; stroke: #000000; stroke-width: 1.2"/>
    <path d="M 102.37582 110.909067 
L 57.014206 94.362051 
" clip-path="url(#pb017af95fc)" style="fill: none; stroke: #000000; stroke-width: 1.2"/>
    <path d="M 102.37582 110.909067 
L 137.215148 117.398299 
" clip-path="url(#pb017af95fc)" style="fill: none; stroke: #000000; stroke-width: 1.2"/>
    <path d="M 102.37582 110.909067 
L 93.417261 139.78318 
" clip-path="url(#pb017af95fc)" style="fill: none; stroke: #000000; stroke-width: 1.2"/>
    <path d="M 102.37582 110.909067 
L 118.411972 133.179015 
" clip-path="url(#pb017af95fc)" style="fill: none; stroke: #000000; stroke-width: 1.2"/>
    <path d="M 133.714218 151.979531 
L 98.604138 150.135528 
" clip-path="url(#pb017af95fc)" style="fill: none; stroke: #000000; stroke-width: 1.2"/>
    <path d="M 133.714218 151.979531 
L 137.215148 117.398299 
" clip-path="url(#pb017af95fc)" style="fill: none; stroke: #000000; stroke-width: 1.2"/>
    <path d="M 133.714218 151.979531 
L 93.417261 139.78318 
" clip-path="url(#pb017af95fc)" style="fill: none; stroke: #000000; stroke-width: 1.2"/>
    <path d="M 133.714218 151.979531 
L 156.402414 151.328826 
" clip-path="url(#pb017af95fc)" style="fill: none; stroke: #000000; stroke-width: 1.2"/>
    <path d="M 133.714218 151.979531 
L 118.411972 133.179015 
" clip-path="url(#pb017af95fc)" style="fill: none; stroke: #000000; stroke-width: 1.2"/>
    <path d="M 133.714218 151.979531 
L 171.8595 114.490774 
" clip-path="url(#pb017af95fc)" style="fill: none; stroke: #000000; stroke-width: 1.2"/>
    <path d="M 133.714218 151.979531 
L 154.506979 138.533146 
" clip-path="url(#pb017af95fc)" style="fill: none; stroke: #000000; stroke-width: 1.2"/>
    <path d="M 98.604138 150.135528 
L 55.368595 129.990645 
" clip-path="url(#pb017af95fc)" style="fill: none; stroke: #000000; stroke-width: 1.2"/>
    <path d="M 98.604138 150.135528 
L 95.276257 113.130611 
" clip-path="url(#pb017af95fc)" style="fill: none; stroke: #000000; stroke-width: 1.2"/>
    <path d="M 98.604138 150.135528 
L 128.243971 159.325595 
" clip-path="url(#pb017af95fc)" style="fill: none; stroke: #000000; stroke-width: 1.2"/>
    <path d="M 98.604138 150.135528 
L 75.835385 126.125533 
" clip-path="url(#pb017af95fc)" style="fill: none; stroke: #000000; stroke-width: 1.2"/>
    <path d="M 98.604138 150.135528 
L 156.402414 151.328826 
" clip-path="url(#pb017af95fc)" style="fill: none; stroke: #000000; stroke-width: 1.2"/>
    <path d="M 98.604138 150.135528 
L 118.411972 133.179015 
" clip-path="url(#pb017af95fc)" style="fill: none; stroke: #000000; stroke-width: 1.2"/>
    <path d="M 98.604138 150.135528 
L 128.341427 107.714162 
" clip-path="url(#pb017af95fc)" style="fill: none; stroke: #000000; stroke-width: 1.2"/>
    <path d="M 98.604138 150.135528 
L 111.262171 132.063476 
" clip-path="url(#pb017af95fc)" style="fill: none; stroke: #000000; stroke-width: 1.2"/>
    <path d="M 57.014206 94.362051 
L 55.368595 129.990645 
" clip-path="url(#pb017af95fc)" style="fill: none; stroke: #000000; stroke-width: 1.2"/>
    <path d="M 57.014206 94.362051 
L 95.276257 113.130611 
" clip-path="url(#pb017af95fc)" style="fill: none; stroke: #000000; stroke-width: 1.2"/>
    <path d="M 57.014206 94.362051 
L 93.417261 139.78318 
" clip-path="url(#pb017af95fc)" style="fill: none; stroke: #000000; stroke-width: 1.2"/>
    <path d="M 57.014206 94.362051 
L 71.27563 113.100299 
" clip-path="url(#pb017af95fc)" style="fill: none; stroke: #000000; stroke-width: 1.2"/>
    <path d="M 55.368595 129.990645 
L 95.276257 113.130611 
" clip-path="url(#pb017af95fc)" style="fill: none; stroke: #000000; stroke-width: 1.2"/>
    <path d="M 55.368595 129.990645 
L 93.417261 139.78318 
" clip-path="url(#pb017af95fc)" style="fill: none; stroke: #000000; stroke-width: 1.2"/>
    <path d="M 55.368595 129.990645 
L 75.835385 126.125533 
" clip-path="url(#pb017af95fc)" style="fill: none; stroke: #000000; stroke-width: 1.2"/>
    <path d="M 55.368595 129.990645 
L 71.27563 113.100299 
" clip-path="url(#pb017af95fc)" style="fill: none; stroke: #000000; stroke-width: 1.2"/>
    <path d="M 55.368595 129.990645 
L 80.144354 87.71789 
" clip-path="url(#pb017af95fc)" style="fill: none; stroke: #000000; stroke-width: 1.2"/>
    <path d="M 55.368595 129.990645 
L 111.262171 132.063476 
" clip-path="url(#pb017af95fc)" style="fill: none; stroke: #000000; stroke-width: 1.2"/>
    <path d="M 137.215148 117.398299 
L 95.276257 113.130611 
" clip-path="url(#pb017af95fc)" style="fill: none; stroke: #000000; stroke-width: 1.2"/>
    <path d="M 137.215148 117.398299 
L 128.243971 159.325595 
" clip-path="url(#pb017af95fc)" style="fill: none; stroke: #000000; stroke-width: 1.2"/>
    <path d="M 137.215148 117.398299 
L 93.417261 139.78318 
" clip-path="url(#pb017af95fc)" style="fill: none; stroke: #000000; stroke-width: 1.2"/>
    <path d="M 137.215148 117.398299 
L 154.506979 138.533146 
" clip-path="url(#pb017af95fc)" style="fill: none; stroke: #000000; stroke-width: 1.2"/>
    <path d="M 95.276257 113.130611 
L 128.243971 159.325595 
" clip-path="url(#pb017af95fc)" style="fill: none; stroke: #000000; stroke-width: 1.2"/>
    <path d="M 95.276257 113.130611 
L 93.417261 139.78318 
" clip-path="url(#pb017af95fc)" style="fill: none; stroke: #000000; stroke-width: 1.2"/>
    <path d="M 95.276257 113.130611 
L 111.262171 132.063476 
" clip-path="url(#pb017af95fc)" style="fill: none; stroke: #000000; stroke-width: 1.2"/>
    <path d="M 128.243971 159.325595 
L 93.417261 139.78318 
" clip-path="url(#pb017af95fc)" style="fill: none; stroke: #000000; stroke-width: 1.2"/>
    <path d="M 128.243971 159.325595 
L 156.402414 151.328826 
" clip-path="url(#pb017af95fc)" style="fill: none; stroke: #000000; stroke-width: 1.2"/>
    <path d="M 128.243971 159.325595 
L 154.506979 138.533146 
" clip-path="url(#pb017af95fc)" style="fill: none; stroke: #000000; stroke-width: 1.2"/>
    <path d="M 128.243971 159.325595 
L 111.262171 132.063476 
" clip-path="url(#pb017af95fc)" style="fill: none; stroke: #000000; stroke-width: 1.2"/>
    <path d="M 128.243971 159.325595 
L 163.816109 116.906664 
" clip-path="url(#pb017af95fc)" style="fill: none; stroke: #000000; stroke-width: 1.2"/>
    <path d="M 128.243971 159.325595 
L 147.039022 195.154857 
" clip-path="url(#pb017af95fc)" style="fill: none; stroke: #000000; stroke-width: 1.2"/>
    <path d="M 128.243971 159.325595 
L 165.435102 180.809198 
" clip-path="url(#pb017af95fc)" style="fill: none; stroke: #000000; stroke-width: 1.2"/>
    <path d="M 93.417261 139.78318 
L 118.411972 133.179015 
" clip-path="url(#pb017af95fc)" style="fill: none; stroke: #000000; stroke-width: 1.2"/>
    <path d="M 93.417261 139.78318 
L 71.27563 113.100299 
" clip-path="url(#pb017af95fc)" style="fill: none; stroke: #000000; stroke-width: 1.2"/>
    <path d="M 93.417261 139.78318 
L 154.506979 138.533146 
" clip-path="url(#pb017af95fc)" style="fill: none; stroke: #000000; stroke-width: 1.2"/>
    <path d="M 93.417261 139.78318 
L 111.262171 132.063476 
" clip-path="url(#pb017af95fc)" style="fill: none; stroke: #000000; stroke-width: 1.2"/>
    <path d="M 93.417261 139.78318 
L 125.188026 96.297045 
" clip-path="url(#pb017af95fc)" style="fill: none; stroke: #000000; stroke-width: 1.2"/>
    <path d="M 75.835385 126.125533 
L 89.01253 90.416026 
" clip-path="url(#pb017af95fc)" style="fill: none; stroke: #000000; stroke-width: 1.2"/>
    <path d="M 75.835385 126.125533 
L 118.411972 133.179015 
" clip-path="url(#pb017af95fc)" style="fill: none; stroke: #000000; stroke-width: 1.2"/>
    <path d="M 75.835385 126.125533 
L 128.341427 107.714162 
" clip-path="url(#pb017af95fc)" style="fill: none; stroke: #000000; stroke-width: 1.2"/>
    <path d="M 75.835385 126.125533 
L 80.144354 87.71789 
" clip-path="url(#pb017af95fc)" style="fill: none; stroke: #000000; stroke-width: 1.2"/>
    <path d="M 75.835385 126.125533 
L 111.262171 132.063476 
" clip-path="url(#pb017af95fc)" style="fill: none; stroke: #000000; stroke-width: 1.2"/>
    <path d="M 89.01253 90.416026 
L 118.411972 133.179015 
" clip-path="url(#pb017af95fc)" style="fill: none; stroke: #000000; stroke-width: 1.2"/>
    <path d="M 89.01253 90.416026 
L 128.341427 107.714162 
" clip-path="url(#pb017af95fc)" style="fill: none; stroke: #000000; stroke-width: 1.2"/>
    <path d="M 89.01253 90.416026 
L 71.27563 113.100299 
" clip-path="url(#pb017af95fc)" style="fill: none; stroke: #000000; stroke-width: 1.2"/>
    <path d="M 89.01253 90.416026 
L 125.188026 96.297045 
" clip-path="url(#pb017af95fc)" style="fill: none; stroke: #000000; stroke-width: 1.2"/>
    <path d="M 156.402414 151.328826 
L 118.411972 133.179015 
" clip-path="url(#pb017af95fc)" style="fill: none; stroke: #000000; stroke-width: 1.2"/>
    <path d="M 156.402414 151.328826 
L 171.8595 114.490774 
" clip-path="url(#pb017af95fc)" style="fill: none; stroke: #000000; stroke-width: 1.2"/>
    <path d="M 156.402414 151.328826 
L 128.341427 107.714162 
" clip-path="url(#pb017af95fc)" style="fill: none; stroke: #000000; stroke-width: 1.2"/>
    <path d="M 156.402414 151.328826 
L 111.262171 132.063476 
" clip-path="url(#pb017af95fc)" style="fill: none; stroke: #000000; stroke-width: 1.2"/>
    <path d="M 156.402414 151.328826 
L 163.816109 116.906664 
" clip-path="url(#pb017af95fc)" style="fill: none; stroke: #000000; stroke-width: 1.2"/>
    <path d="M 156.402414 151.328826 
L 147.039022 195.154857 
" clip-path="url(#pb017af95fc)" style="fill: none; stroke: #000000; stroke-width: 1.2"/>
    <path d="M 156.402414 151.328826 
L 192.493729 181.139569 
" clip-path="url(#pb017af95fc)" style="fill: none; stroke: #000000; stroke-width: 1.2"/>
    <path d="M 118.411972 133.179015 
L 171.8595 114.490774 
" clip-path="url(#pb017af95fc)" style="fill: none; stroke: #000000; stroke-width: 1.2"/>
    <path d="M 118.411972 133.179015 
L 128.341427 107.714162 
" clip-path="url(#pb017af95fc)" style="fill: none; stroke: #000000; stroke-width: 1.2"/>
    <path d="M 118.411972 133.179015 
L 71.27563 113.100299 
" clip-path="url(#pb017af95fc)" style="fill: none; stroke: #000000; stroke-width: 1.2"/>
    <path d="M 118.411972 133.179015 
L 154.506979 138.533146 
" clip-path="url(#pb017af95fc)" style="fill: none; stroke: #000000; stroke-width: 1.2"/>
    <path d="M 118.411972 133.179015 
L 125.188026 96.297045 
" clip-path="url(#pb017af95fc)" style="fill: none; stroke: #000000; stroke-width: 1.2"/>
    <path d="M 171.8595 114.490774 
L 128.341427 107.714162 
" clip-path="url(#pb017af95fc)" style="fill: none; stroke: #000000; stroke-width: 1.2"/>
    <path d="M 171.8595 114.490774 
L 154.506979 138.533146 
" clip-path="url(#pb017af95fc)" style="fill: none; stroke: #000000; stroke-width: 1.2"/>
    <path d="M 171.8595 114.490774 
L 125.188026 96.297045 
" clip-path="url(#pb017af95fc)" style="fill: none; stroke: #000000; stroke-width: 1.2"/>
    <path d="M 128.341427 107.714162 
L 80.144354 87.71789 
" clip-path="url(#pb017af95fc)" style="fill: none; stroke: #000000; stroke-width: 1.2"/>
    <path d="M 128.341427 107.714162 
L 111.262171 132.063476 
" clip-path="url(#pb017af95fc)" style="fill: none; stroke: #000000; stroke-width: 1.2"/>
    <path d="M 128.341427 107.714162 
L 163.816109 116.906664 
" clip-path="url(#pb017af95fc)" style="fill: none; stroke: #000000; stroke-width: 1.2"/>
    <path d="M 71.27563 113.100299 
L 80.144354 87.71789 
" clip-path="url(#pb017af95fc)" style="fill: none; stroke: #000000; stroke-width: 1.2"/>
    <path d="M 71.27563 113.100299 
L 111.262171 132.063476 
" clip-path="url(#pb017af95fc)" style="fill: none; stroke: #000000; stroke-width: 1.2"/>
    <path d="M 71.27563 113.100299 
L 125.188026 96.297045 
" clip-path="url(#pb017af95fc)" style="fill: none; stroke: #000000; stroke-width: 1.2"/>
    <path d="M 80.144354 87.71789 
L 111.262171 132.063476 
" clip-path="url(#pb017af95fc)" style="fill: none; stroke: #000000; stroke-width: 1.2"/>
    <path d="M 80.144354 87.71789 
L 125.188026 96.297045 
" clip-path="url(#pb017af95fc)" style="fill: none; stroke: #000000; stroke-width: 1.2"/>
    <path d="M 154.506979 138.533146 
L 111.262171 132.063476 
" clip-path="url(#pb017af95fc)" style="fill: none; stroke: #000000; stroke-width: 1.2"/>
    <path d="M 154.506979 138.533146 
L 163.816109 116.906664 
" clip-path="url(#pb017af95fc)" style="fill: none; stroke: #000000; stroke-width: 1.2"/>
    <path d="M 154.506979 138.533146 
L 125.188026 96.297045 
" clip-path="url(#pb017af95fc)" style="fill: none; stroke: #000000; stroke-width: 1.2"/>
    <path d="M 154.506979 138.533146 
L 165.435102 180.809198 
" clip-path="url(#pb017af95fc)" style="fill: none; stroke: #000000; stroke-width: 1.2"/>
    <path d="M 111.262171 132.063476 
L 163.816109 116.906664 
" clip-path="url(#pb017af95fc)" style="fill: none; stroke: #000000; stroke-width: 1.2"/>
    <path d="M 111.262171 132.063476 
L 125.188026 96.297045 
" clip-path="url(#pb017af95fc)" style="fill: none; stroke: #000000; stroke-width: 1.2"/>
    <path d="M 163.816109 116.906664 
L 125.188026 96.297045 
" clip-path="url(#pb017af95fc)" style="fill: none; stroke: #000000; stroke-width: 1.2"/>
    <path d="M 137.062109 237.076364 
L 147.039022 195.154857 
" clip-path="url(#pb017af95fc)" style="fill: none; stroke: #000000; stroke-width: 1.2"/>
    <path d="M 210.133458 221.067881 
L 192.493729 181.139569 
" clip-path="url(#pb017af95fc)" style="fill: none; stroke: #000000; stroke-width: 1.2"/>
    <path d="M 239.831405 182.235934 
L 192.493729 181.139569 
" clip-path="url(#pb017af95fc)" style="fill: none; stroke: #000000; stroke-width: 1.2"/>
    <path d="M 147.039022 195.154857 
L 192.493729 181.139569 
" clip-path="url(#pb017af95fc)" style="fill: none; stroke: #000000; stroke-width: 1.2"/>
    <path d="M 147.039022 195.154857 
L 165.435102 180.809198 
" clip-path="url(#pb017af95fc)" style="fill: none; stroke: #000000; stroke-width: 1.2"/>
   </g>
   <g id="PathCollection_1">
    <defs>
     <path id="C0_0_a7d655c199" d="M 0 8.944272 
C 2.372049 8.944272 4.647264 8.001847 6.324555 6.324555 
C 8.001847 4.647264 8.944272 2.372049 8.944272 -0 
C 8.944272 -2.372049 8.001847 -4.647264 6.324555 -6.324555 
C 4.647264 -8.001847 2.372049 -8.944272 0 -8.944272 
C -2.372049 -8.944272 -4.647264 -8.001847 -6.324555 -6.324555 
C -8.001847 -4.647264 -8.944272 -2.372049 -8.944272 0 
C -8.944272 2.372049 -8.001847 4.647264 -6.324555 6.324555 
C -4.647264 8.001847 -2.372049 8.944272 0 8.944272 
z
"/>
    </defs>
    <g clip-path="url(#pb017af95fc)">
     <use xlink:href="#C0_0_a7d655c199" x="92.512708" y="63.237443" style="fill: #e06633; stroke: #e06633; stroke-width: 0.5"/>
    </g>
    <g clip-path="url(#pb017af95fc)">
     <use xlink:href="#C0_0_a7d655c199" x="172.54497" y="93.260017" style="fill: #e06633; stroke: #e06633; stroke-width: 0.5"/>
    </g>
    <g clip-path="url(#pb017af95fc)">
     <use xlink:href="#C0_0_a7d655c199" x="135.725306" y="68.712042" style="fill: #e06633; stroke: #e06633; stroke-width: 0.5"/>
    </g>
    <g clip-path="url(#pb017af95fc)">
     <use xlink:href="#C0_0_a7d655c199" x="151.572205" y="84.152808" style="fill: #e06633; stroke: #e06633; stroke-width: 0.5"/>
    </g>
    <g clip-path="url(#pb017af95fc)">
     <use xlink:href="#C0_0_a7d655c199" x="112.809697" y="86.36371" style="fill: #e06633; stroke: #e06633; stroke-width: 0.5"/>
    </g>
    <g clip-path="url(#pb017af95fc)">
     <use xlink:href="#C0_0_a7d655c199" x="90.824313" y="53.803636" style="fill: #e06633; stroke: #e06633; stroke-width: 0.5"/>
    </g>
    <g clip-path="url(#pb017af95fc)">
     <use xlink:href="#C0_0_a7d655c199" x="68.158054" y="70.473144" style="fill: #e06633; stroke: #e06633; stroke-width: 0.5"/>
    </g>
    <g clip-path="url(#pb017af95fc)">
     <use xlink:href="#C0_0_a7d655c199" x="166.553737" y="76.923022" style="fill: #e06633; stroke: #e06633; stroke-width: 0.5"/>
    </g>
    <g clip-path="url(#pb017af95fc)">
     <use xlink:href="#C0_0_a7d655c199" x="126.821116" y="69.467094" style="fill: #e06633; stroke: #e06633; stroke-width: 0.5"/>
    </g>
    <g clip-path="url(#pb017af95fc)">
     <use xlink:href="#C0_0_a7d655c199" x="149.43457" y="95.971962" style="fill: #e06633; stroke: #e06633; stroke-width: 0.5"/>
    </g>
    <g clip-path="url(#pb017af95fc)">
     <use xlink:href="#C0_0_a7d655c199" x="109.159632" y="74.10492" style="fill: #e06633; stroke: #e06633; stroke-width: 0.5"/>
    </g>
    <g clip-path="url(#pb017af95fc)">
     <use xlink:href="#C0_0_a7d655c199" x="58.392627" y="106.125419" style="fill: #e06633; stroke: #e06633; stroke-width: 0.5"/>
    </g>
    <g clip-path="url(#pb017af95fc)">
     <use xlink:href="#C0_0_a7d655c199" x="64.099492" y="143.182197" style="fill: #e06633; stroke: #e06633; stroke-width: 0.5"/>
    </g>
    <g clip-path="url(#pb017af95fc)">
     <use xlink:href="#C0_0_a7d655c199" x="143.635128" y="127.669802" style="fill: #e06633; stroke: #e06633; stroke-width: 0.5"/>
    </g>
    <g clip-path="url(#pb017af95fc)">
     <use xlink:href="#C0_0_a7d655c199" x="102.37582" y="110.909067" style="fill: #e06633; stroke: #e06633; stroke-width: 0.5"/>
    </g>
    <g clip-path="url(#pb017af95fc)">
     <use xlink:href="#C0_0_a7d655c199" x="133.714218" y="151.979531" style="fill: #e06633; stroke: #e06633; stroke-width: 0.5"/>
    </g>
    <g clip-path="url(#pb017af95fc)">
     <use xlink:href="#C0_0_a7d655c199" x="98.604138" y="150.135528" style="fill: #e06633; stroke: #e06633; stroke-width: 0.5"/>
    </g>
    <g clip-path="url(#pb017af95fc)">
     <use xlink:href="#C0_0_a7d655c199" x="57.014206" y="94.362051" style="fill: #e06633; stroke: #e06633; stroke-width: 0.5"/>
    </g>
    <g clip-path="url(#pb017af95fc)">
     <use xlink:href="#C0_0_a7d655c199" x="55.368595" y="129.990645" style="fill: #e06633; stroke: #e06633; stroke-width: 0.5"/>
    </g>
    <g clip-path="url(#pb017af95fc)">
     <use xlink:href="#C0_0_a7d655c199" x="137.215148" y="117.398299" style="fill: #e06633; stroke: #e06633; stroke-width: 0.5"/>
    </g>
    <g clip-path="url(#pb017af95fc)">
     <use xlink:href="#C0_0_a7d655c199" x="95.276257" y="113.130611" style="fill: #e06633; stroke: #e06633; stroke-width: 0.5"/>
    </g>
    <g clip-path="url(#pb017af95fc)">
     <use xlink:href="#C0_0_a7d655c199" x="128.243971" y="159.325595" style="fill: #e06633; stroke: #e06633; stroke-width: 0.5"/>
    </g>
    <g clip-path="url(#pb017af95fc)">
     <use xlink:href="#C0_0_a7d655c199" x="93.417261" y="139.78318" style="fill: #e06633; stroke: #e06633; stroke-width: 0.5"/>
    </g>
    <g clip-path="url(#pb017af95fc)">
     <use xlink:href="#C0_0_a7d655c199" x="75.835385" y="126.125533" style="fill: #e06633; stroke: #e06633; stroke-width: 0.5"/>
    </g>
    <g clip-path="url(#pb017af95fc)">
     <use xlink:href="#C0_0_a7d655c199" x="89.01253" y="90.416026" style="fill: #e06633; stroke: #e06633; stroke-width: 0.5"/>
    </g>
    <g clip-path="url(#pb017af95fc)">
     <use xlink:href="#C0_0_a7d655c199" x="156.402414" y="151.328826" style="fill: #e06633; stroke: #e06633; stroke-width: 0.5"/>
    </g>
    <g clip-path="url(#pb017af95fc)">
     <use xlink:href="#C0_0_a7d655c199" x="118.411972" y="133.179015" style="fill: #e06633; stroke: #e06633; stroke-width: 0.5"/>
    </g>
    <g clip-path="url(#pb017af95fc)">
     <use xlink:href="#C0_0_a7d655c199" x="171.8595" y="114.490774" style="fill: #e06633; stroke: #e06633; stroke-width: 0.5"/>
    </g>
    <g clip-path="url(#pb017af95fc)">
     <use xlink:href="#C0_0_a7d655c199" x="128.341427" y="107.714162" style="fill: #e06633; stroke: #e06633; stroke-width: 0.5"/>
    </g>
    <g clip-path="url(#pb017af95fc)">
     <use xlink:href="#C0_0_a7d655c199" x="71.27563" y="113.100299" style="fill: #e06633; stroke: #e06633; stroke-width: 0.5"/>
    </g>
    <g clip-path="url(#pb017af95fc)">
     <use xlink:href="#C0_0_a7d655c199" x="80.144354" y="87.71789" style="fill: #e06633; stroke: #e06633; stroke-width: 0.5"/>
    </g>
    <g clip-path="url(#pb017af95fc)">
     <use xlink:href="#C0_0_a7d655c199" x="154.506979" y="138.533146" style="fill: #e06633; stroke: #e06633; stroke-width: 0.5"/>
    </g>
    <g clip-path="url(#pb017af95fc)">
     <use xlink:href="#C0_0_a7d655c199" x="111.262171" y="132.063476" style="fill: #e06633; stroke: #e06633; stroke-width: 0.5"/>
    </g>
    <g clip-path="url(#pb017af95fc)">
     <use xlink:href="#C0_0_a7d655c199" x="163.816109" y="116.906664" style="fill: #e06633; stroke: #e06633; stroke-width: 0.5"/>
    </g>
    <g clip-path="url(#pb017af95fc)">
     <use xlink:href="#C0_0_a7d655c199" x="125.188026" y="96.297045" style="fill: #e06633; stroke: #e06633; stroke-width: 0.5"/>
    </g>
    <g clip-path="url(#pb017af95fc)">
     <use xlink:href="#C0_0_a7d655c199" x="137.062109" y="237.076364" style="fill: #bfbfbf; stroke: #bfbfbf; stroke-width: 0.5"/>
    </g>
    <g clip-path="url(#pb017af95fc)">
     <use xlink:href="#C0_0_a7d655c199" x="210.133458" y="221.067881" style="fill: #bfbfbf; stroke: #bfbfbf; stroke-width: 0.5"/>
    </g>
    <g clip-path="url(#pb017af95fc)">
     <use xlink:href="#C0_0_a7d655c199" x="239.831405" y="182.235934" style="fill: #bfbfbf; stroke: #bfbfbf; stroke-width: 0.5"/>
    </g>
    <g clip-path="url(#pb017af95fc)">
     <use xlink:href="#C0_0_a7d655c199" x="147.039022" y="195.154857" style="fill: #666666; stroke: #666666; stroke-width: 0.5"/>
    </g>
    <g clip-path="url(#pb017af95fc)">
     <use xlink:href="#C0_0_a7d655c199" x="192.493729" y="181.139569" style="fill: #0d0dff; stroke: #0d0dff; stroke-width: 0.5"/>
    </g>
    <g clip-path="url(#pb017af95fc)">
     <use xlink:href="#C0_0_a7d655c199" x="165.435102" y="180.809198" style="fill: #ff0d0d; stroke: #ff0d0d; stroke-width: 0.5"/>
    </g>
   </g>
   <g id="text_1">
    <!-- CH3Fe48NO -->
    <g transform="translate(127.573464 6.48358) scale(0.1 -0.1)">
     <defs>
      <path id="DejaVuSans-43" d="M 4122 4306 
L 4122 3641 
Q 3803 3938 3442 4084 
Q 3081 4231 2675 4231 
Q 1875 4231 1450 3742 
Q 1025 3253 1025 2328 
Q 1025 1406 1450 917 
Q 1875 428 2675 428 
Q 3081 428 3442 575 
Q 3803 722 4122 1019 
L 4122 359 
Q 3791 134 3420 21 
Q 3050 -91 2638 -91 
Q 1578 -91 968 557 
Q 359 1206 359 2328 
Q 359 3453 968 4101 
Q 1578 4750 2638 4750 
Q 3056 4750 3426 4639 
Q 3797 4528 4122 4306 
z
" transform="scale(0.015625)"/>
      <path id="DejaVuSans-48" d="M 628 4666 
L 1259 4666 
L 1259 2753 
L 3553 2753 
L 3553 4666 
L 4184 4666 
L 4184 0 
L 3553 0 
L 3553 2222 
L 1259 2222 
L 1259 0 
L 628 0 
L 628 4666 
z
" transform="scale(0.015625)"/>
      <path id="DejaVuSans-33" d="M 2597 2516 
Q 3050 2419 3304 2112 
Q 3559 1806 3559 1356 
Q 3559 666 3084 287 
Q 2609 -91 1734 -91 
Q 1441 -91 1130 -33 
Q 819 25 488 141 
L 488 750 
Q 750 597 1062 519 
Q 1375 441 1716 441 
Q 2309 441 2620 675 
Q 2931 909 2931 1356 
Q 2931 1769 2642 2001 
Q 2353 2234 1838 2234 
L 1294 2234 
L 1294 2753 
L 1863 2753 
Q 2328 2753 2575 2939 
Q 2822 3125 2822 3475 
Q 2822 3834 2567 4026 
Q 2313 4219 1838 4219 
Q 1578 4219 1281 4162 
Q 984 4106 628 3988 
L 628 4550 
Q 988 4650 1302 4700 
Q 1616 4750 1894 4750 
Q 2613 4750 3031 4423 
Q 3450 4097 3450 3541 
Q 3450 3153 3228 2886 
Q 3006 2619 2597 2516 
z
" transform="scale(0.015625)"/>
      <path id="DejaVuSans-46" d="M 628 4666 
L 3309 4666 
L 3309 4134 
L 1259 4134 
L 1259 2759 
L 3109 2759 
L 3109 2228 
L 1259 2228 
L 1259 0 
L 628 0 
L 628 4666 
z
" transform="scale(0.015625)"/>
      <path id="DejaVuSans-65" d="M 3597 1894 
L 3597 1613 
L 953 1613 
Q 991 1019 1311 708 
Q 1631 397 2203 397 
Q 2534 397 2845 478 
Q 3156 559 3463 722 
L 3463 178 
Q 3153 47 2828 -22 
Q 2503 -91 2169 -91 
Q 1331 -91 842 396 
Q 353 884 353 1716 
Q 353 2575 817 3079 
Q 1281 3584 2069 3584 
Q 2775 3584 3186 3129 
Q 3597 2675 3597 1894 
z
M 3022 2063 
Q 3016 2534 2758 2815 
Q 2500 3097 2075 3097 
Q 1594 3097 1305 2825 
Q 1016 2553 972 2059 
L 3022 2063 
z
" transform="scale(0.015625)"/>
      <path id="DejaVuSans-34" d="M 2419 4116 
L 825 1625 
L 2419 1625 
L 2419 4116 
z
M 2253 4666 
L 3047 4666 
L 3047 1625 
L 3713 1625 
L 3713 1100 
L 3047 1100 
L 3047 0 
L 2419 0 
L 2419 1100 
L 313 1100 
L 313 1709 
L 2253 4666 
z
" transform="scale(0.015625)"/>
      <path id="DejaVuSans-38" d="M 2034 2216 
Q 1584 2216 1326 1975 
Q 1069 1734 1069 1313 
Q 1069 891 1326 650 
Q 1584 409 2034 409 
Q 2484 409 2743 651 
Q 3003 894 3003 1313 
Q 3003 1734 2745 1975 
Q 2488 2216 2034 2216 
z
M 1403 2484 
Q 997 2584 770 2862 
Q 544 3141 544 3541 
Q 544 4100 942 4425 
Q 1341 4750 2034 4750 
Q 2731 4750 3128 4425 
Q 3525 4100 3525 3541 
Q 3525 3141 3298 2862 
Q 3072 2584 2669 2484 
Q 3125 2378 3379 2068 
Q 3634 1759 3634 1313 
Q 3634 634 3220 271 
Q 2806 -91 2034 -91 
Q 1263 -91 848 271 
Q 434 634 434 1313 
Q 434 1759 690 2068 
Q 947 2378 1403 2484 
z
M 1172 3481 
Q 1172 3119 1398 2916 
Q 1625 2713 2034 2713 
Q 2441 2713 2670 2916 
Q 2900 3119 2900 3481 
Q 2900 3844 2670 4047 
Q 2441 4250 2034 4250 
Q 1625 4250 1398 4047 
Q 1172 3844 1172 3481 
z
" transform="scale(0.015625)"/>
      <path id="DejaVuSans-4e" d="M 628 4666 
L 1478 4666 
L 3547 763 
L 3547 4666 
L 4159 4666 
L 4159 0 
L 3309 0 
L 1241 3903 
L 1241 0 
L 628 0 
L 628 4666 
z
" transform="scale(0.015625)"/>
      <path id="DejaVuSans-4f" d="M 2522 4238 
Q 1834 4238 1429 3725 
Q 1025 3213 1025 2328 
Q 1025 1447 1429 934 
Q 1834 422 2522 422 
Q 3209 422 3611 934 
Q 4013 1447 4013 2328 
Q 4013 3213 3611 3725 
Q 3209 4238 2522 4238 
z
M 2522 4750 
Q 3503 4750 4090 4092 
Q 4678 3434 4678 2328 
Q 4678 1225 4090 567 
Q 3503 -91 2522 -91 
Q 1538 -91 948 565 
Q 359 1222 359 2328 
Q 359 3434 948 4092 
Q 1538 4750 2522 4750 
z
" transform="scale(0.015625)"/>
     </defs>
     <use xlink:href="#DejaVuSans-43"/>
     <use xlink:href="#DejaVuSans-48" transform="translate(69.824219 0)"/>
     <use xlink:href="#DejaVuSans-33" transform="translate(145.019531 0)"/>
     <use xlink:href="#DejaVuSans-46" transform="translate(208.642578 0)"/>
     <use xlink:href="#DejaVuSans-65" transform="translate(260.662109 0)"/>
     <use xlink:href="#DejaVuSans-34" transform="translate(322.185547 0)"/>
     <use xlink:href="#DejaVuSans-38" transform="translate(385.808594 0)"/>
     <use xlink:href="#DejaVuSans-4e" transform="translate(449.431641 0)"/>
     <use xlink:href="#DejaVuSans-4f" transform="translate(524.236328 0)"/>
    </g>
    <!-- Error: -9.56 eV -->
    <g transform="translate(127.573464 17.681393) scale(0.1 -0.1)">
     <defs>
      <path id="DejaVuSans-45" d="M 628 4666 
L 3578 4666 
L 3578 4134 
L 1259 4134 
L 1259 2753 
L 3481 2753 
L 3481 2222 
L 1259 2222 
L 1259 531 
L 3634 531 
L 3634 0 
L 628 0 
L 628 4666 
z
" transform="scale(0.015625)"/>
      <path id="DejaVuSans-72" d="M 2631 2963 
Q 2534 3019 2420 3045 
Q 2306 3072 2169 3072 
Q 1681 3072 1420 2755 
Q 1159 2438 1159 1844 
L 1159 0 
L 581 0 
L 581 3500 
L 1159 3500 
L 1159 2956 
Q 1341 3275 1631 3429 
Q 1922 3584 2338 3584 
Q 2397 3584 2469 3576 
Q 2541 3569 2628 3553 
L 2631 2963 
z
" transform="scale(0.015625)"/>
      <path id="DejaVuSans-6f" d="M 1959 3097 
Q 1497 3097 1228 2736 
Q 959 2375 959 1747 
Q 959 1119 1226 758 
Q 1494 397 1959 397 
Q 2419 397 2687 759 
Q 2956 1122 2956 1747 
Q 2956 2369 2687 2733 
Q 2419 3097 1959 3097 
z
M 1959 3584 
Q 2709 3584 3137 3096 
Q 3566 2609 3566 1747 
Q 3566 888 3137 398 
Q 2709 -91 1959 -91 
Q 1206 -91 779 398 
Q 353 888 353 1747 
Q 353 2609 779 3096 
Q 1206 3584 1959 3584 
z
" transform="scale(0.015625)"/>
      <path id="DejaVuSans-3a" d="M 750 794 
L 1409 794 
L 1409 0 
L 750 0 
L 750 794 
z
M 750 3309 
L 1409 3309 
L 1409 2516 
L 750 2516 
L 750 3309 
z
" transform="scale(0.015625)"/>
      <path id="DejaVuSans-20" transform="scale(0.015625)"/>
      <path id="DejaVuSans-2d" d="M 313 2009 
L 1997 2009 
L 1997 1497 
L 313 1497 
L 313 2009 
z
" transform="scale(0.015625)"/>
      <path id="DejaVuSans-39" d="M 703 97 
L 703 672 
Q 941 559 1184 500 
Q 1428 441 1663 441 
Q 2288 441 2617 861 
Q 2947 1281 2994 2138 
Q 2813 1869 2534 1725 
Q 2256 1581 1919 1581 
Q 1219 1581 811 2004 
Q 403 2428 403 3163 
Q 403 3881 828 4315 
Q 1253 4750 1959 4750 
Q 2769 4750 3195 4129 
Q 3622 3509 3622 2328 
Q 3622 1225 3098 567 
Q 2575 -91 1691 -91 
Q 1453 -91 1209 -44 
Q 966 3 703 97 
z
M 1959 2075 
Q 2384 2075 2632 2365 
Q 2881 2656 2881 3163 
Q 2881 3666 2632 3958 
Q 2384 4250 1959 4250 
Q 1534 4250 1286 3958 
Q 1038 3666 1038 3163 
Q 1038 2656 1286 2365 
Q 1534 2075 1959 2075 
z
" transform="scale(0.015625)"/>
      <path id="DejaVuSans-2e" d="M 684 794 
L 1344 794 
L 1344 0 
L 684 0 
L 684 794 
z
" transform="scale(0.015625)"/>
      <path id="DejaVuSans-35" d="M 691 4666 
L 3169 4666 
L 3169 4134 
L 1269 4134 
L 1269 2991 
Q 1406 3038 1543 3061 
Q 1681 3084 1819 3084 
Q 2600 3084 3056 2656 
Q 3513 2228 3513 1497 
Q 3513 744 3044 326 
Q 2575 -91 1722 -91 
Q 1428 -91 1123 -41 
Q 819 9 494 109 
L 494 744 
Q 775 591 1075 516 
Q 1375 441 1709 441 
Q 2250 441 2565 725 
Q 2881 1009 2881 1497 
Q 2881 1984 2565 2268 
Q 2250 2553 1709 2553 
Q 1456 2553 1204 2497 
Q 953 2441 691 2322 
L 691 4666 
z
" transform="scale(0.015625)"/>
      <path id="DejaVuSans-36" d="M 2113 2584 
Q 1688 2584 1439 2293 
Q 1191 2003 1191 1497 
Q 1191 994 1439 701 
Q 1688 409 2113 409 
Q 2538 409 2786 701 
Q 3034 994 3034 1497 
Q 3034 2003 2786 2293 
Q 2538 2584 2113 2584 
z
M 3366 4563 
L 3366 3988 
Q 3128 4100 2886 4159 
Q 2644 4219 2406 4219 
Q 1781 4219 1451 3797 
Q 1122 3375 1075 2522 
Q 1259 2794 1537 2939 
Q 1816 3084 2150 3084 
Q 2853 3084 3261 2657 
Q 3669 2231 3669 1497 
Q 3669 778 3244 343 
Q 2819 -91 2113 -91 
Q 1303 -91 875 529 
Q 447 1150 447 2328 
Q 447 3434 972 4092 
Q 1497 4750 2381 4750 
Q 2619 4750 2861 4703 
Q 3103 4656 3366 4563 
z
" transform="scale(0.015625)"/>
      <path id="DejaVuSans-56" d="M 1831 0 
L 50 4666 
L 709 4666 
L 2188 738 
L 3669 4666 
L 4325 4666 
L 2547 0 
L 1831 0 
z
" transform="scale(0.015625)"/>
     </defs>
     <use xlink:href="#DejaVuSans-45"/>
     <use xlink:href="#DejaVuSans-72" transform="translate(63.183594 0)"/>
     <use xlink:href="#DejaVuSans-72" transform="translate(102.546875 0)"/>
     <use xlink:href="#DejaVuSans-6f" transform="translate(141.410156 0)"/>
     <use xlink:href="#DejaVuSans-72" transform="translate(202.591797 0)"/>
     <use xlink:href="#DejaVuSans-3a" transform="translate(241.955078 0)"/>
     <use xlink:href="#DejaVuSans-20" transform="translate(275.646484 0)"/>
     <use xlink:href="#DejaVuSans-2d" transform="translate(307.433594 0)"/>
     <use xlink:href="#DejaVuSans-39" transform="translate(343.517578 0)"/>
     <use xlink:href="#DejaVuSans-2e" transform="translate(407.140625 0)"/>
     <use xlink:href="#DejaVuSans-35" transform="translate(438.927734 0)"/>
     <use xlink:href="#DejaVuSans-36" transform="translate(502.550781 0)"/>
     <use xlink:href="#DejaVuSans-20" transform="translate(566.173828 0)"/>
     <use xlink:href="#DejaVuSans-65" transform="translate(597.960938 0)"/>
     <use xlink:href="#DejaVuSans-56" transform="translate(659.484375 0)"/>
    </g>
   </g>
  </g>
 </g>
 <defs>
  <clipPath id="pb017af95fc">
   <rect x="36" y="34.56" width="223.2" height="221.76"/>
  </clipPath>
 </defs>
</svg>
