<?xml version="1.0" encoding="utf-8" standalone="no"?>
<!DOCTYPE svg PUBLIC "-//W3C//DTD SVG 1.1//EN"
  "http://www.w3.org/Graphics/SVG/1.1/DTD/svg11.dtd">
<svg xmlns:xlink="http://www.w3.org/1999/xlink" width="288pt" height="288pt" viewBox="0 0 288 288" xmlns="http://www.w3.org/2000/svg" version="1.1">
 <metadata>
  <rdf:RDF xmlns:dc="http://purl.org/dc/elements/1.1/" xmlns:cc="http://creativecommons.org/ns#" xmlns:rdf="http://www.w3.org/1999/02/22-rdf-syntax-ns#">
   <cc:Work>
    <dc:type rdf:resource="http://purl.org/dc/dcmitype/StillImage"/>
    <dc:date>2025-06-30T12:03:23.976781</dc:date>
    <dc:format>image/svg+xml</dc:format>
    <dc:creator>
     <cc:Agent>
      <dc:title>Matplotlib v3.10.1, https://matplotlib.org/</dc:title>
     </cc:Agent>
    </dc:creator>
   </cc:Work>
  </rdf:RDF>
 </metadata>
 <defs>
  <style type="text/css">*{stroke-linejoin: round; stroke-linecap: butt}</style>
 </defs>
 <g id="figure_1">
  <g id="patch_1">
   <path d="M 0 288 
L 288 288 
L 288 0 
L 0 0 
z
" style="fill: #ffffff"/>
  </g>
  <g id="axes_1">
   <g id="LineCollection_1">
    <path d="M 83.111312 75.224251 
L 127.97763 85.723277 
" clip-path="url(#pd503b55a18)" style="fill: none; stroke: #000000; stroke-width: 1.2"/>
    <path d="M 83.111312 75.224251 
L 114.335865 71.506725 
" clip-path="url(#pd503b55a18)" style="fill: none; stroke: #000000; stroke-width: 1.2"/>
    <path d="M 83.111312 75.224251 
L 81.086395 53.803636 
" clip-path="url(#pd503b55a18)" style="fill: none; stroke: #000000; stroke-width: 1.2"/>
    <path d="M 83.111312 75.224251 
L 134.737474 80.764023 
" clip-path="url(#pd503b55a18)" style="fill: none; stroke: #000000; stroke-width: 1.2"/>
    <path d="M 83.111312 75.224251 
L 59.556424 100.312372 
" clip-path="url(#pd503b55a18)" style="fill: none; stroke: #000000; stroke-width: 1.2"/>
    <path d="M 83.111312 75.224251 
L 70.120529 159.66159 
" clip-path="url(#pd503b55a18)" style="fill: none; stroke: #000000; stroke-width: 1.2"/>
    <path d="M 83.111312 75.224251 
L 77.201676 115.385134 
" clip-path="url(#pd503b55a18)" style="fill: none; stroke: #000000; stroke-width: 1.2"/>
    <path d="M 83.111312 75.224251 
L 120.437691 129.063199 
" clip-path="url(#pd503b55a18)" style="fill: none; stroke: #000000; stroke-width: 1.2"/>
    <path d="M 83.111312 75.224251 
L 84.030172 102.952087 
" clip-path="url(#pd503b55a18)" style="fill: none; stroke: #000000; stroke-width: 1.2"/>
    <path d="M 169.334085 104.694552 
L 127.97763 85.723277 
" clip-path="url(#pd503b55a18)" style="fill: none; stroke: #000000; stroke-width: 1.2"/>
    <path d="M 169.334085 104.694552 
L 153.342754 68.861033 
" clip-path="url(#pd503b55a18)" style="fill: none; stroke: #000000; stroke-width: 1.2"/>
    <path d="M 169.334085 104.694552 
L 114.335865 71.506725 
" clip-path="url(#pd503b55a18)" style="fill: none; stroke: #000000; stroke-width: 1.2"/>
    <path d="M 169.334085 104.694552 
L 134.737474 80.764023 
" clip-path="url(#pd503b55a18)" style="fill: none; stroke: #000000; stroke-width: 1.2"/>
    <path d="M 169.334085 104.694552 
L 161.826146 80.391209 
" clip-path="url(#pd503b55a18)" style="fill: none; stroke: #000000; stroke-width: 1.2"/>
    <path d="M 169.334085 104.694552 
L 142.928704 124.742995 
" clip-path="url(#pd503b55a18)" style="fill: none; stroke: #000000; stroke-width: 1.2"/>
    <path d="M 169.334085 104.694552 
L 137.695376 181.963296 
" clip-path="url(#pd503b55a18)" style="fill: none; stroke: #000000; stroke-width: 1.2"/>
    <path d="M 169.334085 104.694552 
L 162.020178 130.900813 
" clip-path="url(#pd503b55a18)" style="fill: none; stroke: #000000; stroke-width: 1.2"/>
    <path d="M 169.334085 104.694552 
L 120.437691 129.063199 
" clip-path="url(#pd503b55a18)" style="fill: none; stroke: #000000; stroke-width: 1.2"/>
    <path d="M 169.334085 104.694552 
L 170.229272 138.393056 
" clip-path="url(#pd503b55a18)" style="fill: none; stroke: #000000; stroke-width: 1.2"/>
    <path d="M 127.97763 85.723277 
L 153.342754 68.861033 
" clip-path="url(#pd503b55a18)" style="fill: none; stroke: #000000; stroke-width: 1.2"/>
    <path d="M 127.97763 85.723277 
L 114.335865 71.506725 
" clip-path="url(#pd503b55a18)" style="fill: none; stroke: #000000; stroke-width: 1.2"/>
    <path d="M 127.97763 85.723277 
L 96.553036 58.499321 
" clip-path="url(#pd503b55a18)" style="fill: none; stroke: #000000; stroke-width: 1.2"/>
    <path d="M 127.97763 85.723277 
L 176.042164 89.330718 
" clip-path="url(#pd503b55a18)" style="fill: none; stroke: #000000; stroke-width: 1.2"/>
    <path d="M 127.97763 85.723277 
L 124.065011 58.000038 
" clip-path="url(#pd503b55a18)" style="fill: none; stroke: #000000; stroke-width: 1.2"/>
    <path d="M 127.97763 85.723277 
L 100.300196 105.5056 
" clip-path="url(#pd503b55a18)" style="fill: none; stroke: #000000; stroke-width: 1.2"/>
    <path d="M 127.97763 85.723277 
L 77.201676 115.385134 
" clip-path="url(#pd503b55a18)" style="fill: none; stroke: #000000; stroke-width: 1.2"/>
    <path d="M 127.97763 85.723277 
L 106.757476 166.840684 
" clip-path="url(#pd503b55a18)" style="fill: none; stroke: #000000; stroke-width: 1.2"/>
    <path d="M 127.97763 85.723277 
L 162.020178 130.900813 
" clip-path="url(#pd503b55a18)" style="fill: none; stroke: #000000; stroke-width: 1.2"/>
    <path d="M 127.97763 85.723277 
L 120.437691 129.063199 
" clip-path="url(#pd503b55a18)" style="fill: none; stroke: #000000; stroke-width: 1.2"/>
    <path d="M 127.97763 85.723277 
L 127.403228 115.300084 
" clip-path="url(#pd503b55a18)" style="fill: none; stroke: #000000; stroke-width: 1.2"/>
    <path d="M 153.342754 68.861033 
L 114.335865 71.506725 
" clip-path="url(#pd503b55a18)" style="fill: none; stroke: #000000; stroke-width: 1.2"/>
    <path d="M 153.342754 68.861033 
L 176.042164 89.330718 
" clip-path="url(#pd503b55a18)" style="fill: none; stroke: #000000; stroke-width: 1.2"/>
    <path d="M 153.342754 68.861033 
L 124.065011 58.000038 
" clip-path="url(#pd503b55a18)" style="fill: none; stroke: #000000; stroke-width: 1.2"/>
    <path d="M 153.342754 68.861033 
L 142.928704 124.742995 
" clip-path="url(#pd503b55a18)" style="fill: none; stroke: #000000; stroke-width: 1.2"/>
    <path d="M 153.342754 68.861033 
L 100.300196 105.5056 
" clip-path="url(#pd503b55a18)" style="fill: none; stroke: #000000; stroke-width: 1.2"/>
    <path d="M 153.342754 68.861033 
L 133.884013 155.549245 
" clip-path="url(#pd503b55a18)" style="fill: none; stroke: #000000; stroke-width: 1.2"/>
    <path d="M 153.342754 68.861033 
L 151.103915 109.436807 
" clip-path="url(#pd503b55a18)" style="fill: none; stroke: #000000; stroke-width: 1.2"/>
    <path d="M 153.342754 68.861033 
L 162.020178 130.900813 
" clip-path="url(#pd503b55a18)" style="fill: none; stroke: #000000; stroke-width: 1.2"/>
    <path d="M 114.335865 71.506725 
L 81.086395 53.803636 
" clip-path="url(#pd503b55a18)" style="fill: none; stroke: #000000; stroke-width: 1.2"/>
    <path d="M 114.335865 71.506725 
L 134.737474 80.764023 
" clip-path="url(#pd503b55a18)" style="fill: none; stroke: #000000; stroke-width: 1.2"/>
    <path d="M 114.335865 71.506725 
L 161.826146 80.391209 
" clip-path="url(#pd503b55a18)" style="fill: none; stroke: #000000; stroke-width: 1.2"/>
    <path d="M 114.335865 71.506725 
L 59.556424 100.312372 
" clip-path="url(#pd503b55a18)" style="fill: none; stroke: #000000; stroke-width: 1.2"/>
    <path d="M 114.335865 71.506725 
L 142.928704 124.742995 
" clip-path="url(#pd503b55a18)" style="fill: none; stroke: #000000; stroke-width: 1.2"/>
    <path d="M 114.335865 71.506725 
L 100.300196 105.5056 
" clip-path="url(#pd503b55a18)" style="fill: none; stroke: #000000; stroke-width: 1.2"/>
    <path d="M 114.335865 71.506725 
L 95.287358 153.575919 
" clip-path="url(#pd503b55a18)" style="fill: none; stroke: #000000; stroke-width: 1.2"/>
    <path d="M 114.335865 71.506725 
L 109.927025 105.005232 
" clip-path="url(#pd503b55a18)" style="fill: none; stroke: #000000; stroke-width: 1.2"/>
    <path d="M 114.335865 71.506725 
L 120.437691 129.063199 
" clip-path="url(#pd503b55a18)" style="fill: none; stroke: #000000; stroke-width: 1.2"/>
    <path d="M 96.553036 58.499321 
L 81.086395 53.803636 
" clip-path="url(#pd503b55a18)" style="fill: none; stroke: #000000; stroke-width: 1.2"/>
    <path d="M 96.553036 58.499321 
L 134.737474 80.764023 
" clip-path="url(#pd503b55a18)" style="fill: none; stroke: #000000; stroke-width: 1.2"/>
    <path d="M 96.553036 58.499321 
L 124.065011 58.000038 
" clip-path="url(#pd503b55a18)" style="fill: none; stroke: #000000; stroke-width: 1.2"/>
    <path d="M 96.553036 58.499321 
L 66.590552 85.035613 
" clip-path="url(#pd503b55a18)" style="fill: none; stroke: #000000; stroke-width: 1.2"/>
    <path d="M 96.553036 58.499321 
L 77.201676 115.385134 
" clip-path="url(#pd503b55a18)" style="fill: none; stroke: #000000; stroke-width: 1.2"/>
    <path d="M 96.553036 58.499321 
L 74.491523 143.258874 
" clip-path="url(#pd503b55a18)" style="fill: none; stroke: #000000; stroke-width: 1.2"/>
    <path d="M 96.553036 58.499321 
L 84.030172 102.952087 
" clip-path="url(#pd503b55a18)" style="fill: none; stroke: #000000; stroke-width: 1.2"/>
    <path d="M 96.553036 58.499321 
L 127.403228 115.300084 
" clip-path="url(#pd503b55a18)" style="fill: none; stroke: #000000; stroke-width: 1.2"/>
    <path d="M 81.086395 53.803636 
L 134.737474 80.764023 
" clip-path="url(#pd503b55a18)" style="fill: none; stroke: #000000; stroke-width: 1.2"/>
    <path d="M 81.086395 53.803636 
L 124.065011 58.000038 
" clip-path="url(#pd503b55a18)" style="fill: none; stroke: #000000; stroke-width: 1.2"/>
    <path d="M 81.086395 53.803636 
L 59.556424 100.312372 
" clip-path="url(#pd503b55a18)" style="fill: none; stroke: #000000; stroke-width: 1.2"/>
    <path d="M 81.086395 53.803636 
L 66.590552 85.035613 
" clip-path="url(#pd503b55a18)" style="fill: none; stroke: #000000; stroke-width: 1.2"/>
    <path d="M 81.086395 53.803636 
L 59.239082 126.04885 
" clip-path="url(#pd503b55a18)" style="fill: none; stroke: #000000; stroke-width: 1.2"/>
    <path d="M 81.086395 53.803636 
L 109.927025 105.005232 
" clip-path="url(#pd503b55a18)" style="fill: none; stroke: #000000; stroke-width: 1.2"/>
    <path d="M 81.086395 53.803636 
L 84.030172 102.952087 
" clip-path="url(#pd503b55a18)" style="fill: none; stroke: #000000; stroke-width: 1.2"/>
    <path d="M 176.042164 89.330718 
L 134.737474 80.764023 
" clip-path="url(#pd503b55a18)" style="fill: none; stroke: #000000; stroke-width: 1.2"/>
    <path d="M 176.042164 89.330718 
L 161.826146 80.391209 
" clip-path="url(#pd503b55a18)" style="fill: none; stroke: #000000; stroke-width: 1.2"/>
    <path d="M 176.042164 89.330718 
L 124.065011 58.000038 
" clip-path="url(#pd503b55a18)" style="fill: none; stroke: #000000; stroke-width: 1.2"/>
    <path d="M 176.042164 89.330718 
L 151.103915 109.436807 
" clip-path="url(#pd503b55a18)" style="fill: none; stroke: #000000; stroke-width: 1.2"/>
    <path d="M 176.042164 89.330718 
L 162.020178 130.900813 
" clip-path="url(#pd503b55a18)" style="fill: none; stroke: #000000; stroke-width: 1.2"/>
    <path d="M 176.042164 89.330718 
L 159.401985 157.534 
" clip-path="url(#pd503b55a18)" style="fill: none; stroke: #000000; stroke-width: 1.2"/>
    <path d="M 176.042164 89.330718 
L 170.229272 138.393056 
" clip-path="url(#pd503b55a18)" style="fill: none; stroke: #000000; stroke-width: 1.2"/>
    <path d="M 176.042164 89.330718 
L 127.403228 115.300084 
" clip-path="url(#pd503b55a18)" style="fill: none; stroke: #000000; stroke-width: 1.2"/>
    <path d="M 134.737474 80.764023 
L 161.826146 80.391209 
" clip-path="url(#pd503b55a18)" style="fill: none; stroke: #000000; stroke-width: 1.2"/>
    <path d="M 134.737474 80.764023 
L 124.065011 58.000038 
" clip-path="url(#pd503b55a18)" style="fill: none; stroke: #000000; stroke-width: 1.2"/>
    <path d="M 134.737474 80.764023 
L 109.927025 105.005232 
" clip-path="url(#pd503b55a18)" style="fill: none; stroke: #000000; stroke-width: 1.2"/>
    <path d="M 134.737474 80.764023 
L 120.437691 129.063199 
" clip-path="url(#pd503b55a18)" style="fill: none; stroke: #000000; stroke-width: 1.2"/>
    <path d="M 134.737474 80.764023 
L 84.030172 102.952087 
" clip-path="url(#pd503b55a18)" style="fill: none; stroke: #000000; stroke-width: 1.2"/>
    <path d="M 134.737474 80.764023 
L 113.71199 158.300858 
" clip-path="url(#pd503b55a18)" style="fill: none; stroke: #000000; stroke-width: 1.2"/>
    <path d="M 134.737474 80.764023 
L 170.229272 138.393056 
" clip-path="url(#pd503b55a18)" style="fill: none; stroke: #000000; stroke-width: 1.2"/>
    <path d="M 134.737474 80.764023 
L 127.403228 115.300084 
" clip-path="url(#pd503b55a18)" style="fill: none; stroke: #000000; stroke-width: 1.2"/>
    <path d="M 161.826146 80.391209 
L 124.065011 58.000038 
" clip-path="url(#pd503b55a18)" style="fill: none; stroke: #000000; stroke-width: 1.2"/>
    <path d="M 161.826146 80.391209 
L 142.928704 124.742995 
" clip-path="url(#pd503b55a18)" style="fill: none; stroke: #000000; stroke-width: 1.2"/>
    <path d="M 161.826146 80.391209 
L 151.103915 109.436807 
" clip-path="url(#pd503b55a18)" style="fill: none; stroke: #000000; stroke-width: 1.2"/>
    <path d="M 161.826146 80.391209 
L 109.927025 105.005232 
" clip-path="url(#pd503b55a18)" style="fill: none; stroke: #000000; stroke-width: 1.2"/>
    <path d="M 161.826146 80.391209 
L 147.099032 164.408184 
" clip-path="url(#pd503b55a18)" style="fill: none; stroke: #000000; stroke-width: 1.2"/>
    <path d="M 161.826146 80.391209 
L 170.229272 138.393056 
" clip-path="url(#pd503b55a18)" style="fill: none; stroke: #000000; stroke-width: 1.2"/>
    <path d="M 124.065011 58.000038 
L 100.300196 105.5056 
" clip-path="url(#pd503b55a18)" style="fill: none; stroke: #000000; stroke-width: 1.2"/>
    <path d="M 124.065011 58.000038 
L 66.590552 85.035613 
" clip-path="url(#pd503b55a18)" style="fill: none; stroke: #000000; stroke-width: 1.2"/>
    <path d="M 124.065011 58.000038 
L 151.103915 109.436807 
" clip-path="url(#pd503b55a18)" style="fill: none; stroke: #000000; stroke-width: 1.2"/>
    <path d="M 124.065011 58.000038 
L 109.927025 105.005232 
" clip-path="url(#pd503b55a18)" style="fill: none; stroke: #000000; stroke-width: 1.2"/>
    <path d="M 124.065011 58.000038 
L 103.582296 137.289201 
" clip-path="url(#pd503b55a18)" style="fill: none; stroke: #000000; stroke-width: 1.2"/>
    <path d="M 124.065011 58.000038 
L 127.403228 115.300084 
" clip-path="url(#pd503b55a18)" style="fill: none; stroke: #000000; stroke-width: 1.2"/>
    <path d="M 59.556424 100.312372 
L 55.368595 145.405126 
" clip-path="url(#pd503b55a18)" style="fill: none; stroke: #000000; stroke-width: 1.2"/>
    <path d="M 59.556424 100.312372 
L 100.300196 105.5056 
" clip-path="url(#pd503b55a18)" style="fill: none; stroke: #000000; stroke-width: 1.2"/>
    <path d="M 59.556424 100.312372 
L 95.287358 153.575919 
" clip-path="url(#pd503b55a18)" style="fill: none; stroke: #000000; stroke-width: 1.2"/>
    <path d="M 59.556424 100.312372 
L 59.239082 126.04885 
" clip-path="url(#pd503b55a18)" style="fill: none; stroke: #000000; stroke-width: 1.2"/>
    <path d="M 59.556424 100.312372 
L 109.927025 105.005232 
" clip-path="url(#pd503b55a18)" style="fill: none; stroke: #000000; stroke-width: 1.2"/>
    <path d="M 59.556424 100.312372 
L 70.120529 159.66159 
" clip-path="url(#pd503b55a18)" style="fill: none; stroke: #000000; stroke-width: 1.2"/>
    <path d="M 55.368595 145.405126 
L 100.300196 105.5056 
" clip-path="url(#pd503b55a18)" style="fill: none; stroke: #000000; stroke-width: 1.2"/>
    <path d="M 55.368595 145.405126 
L 95.287358 153.575919 
" clip-path="url(#pd503b55a18)" style="fill: none; stroke: #000000; stroke-width: 1.2"/>
    <path d="M 55.368595 145.405126 
L 66.590552 85.035613 
" clip-path="url(#pd503b55a18)" style="fill: none; stroke: #000000; stroke-width: 1.2"/>
    <path d="M 55.368595 145.405126 
L 103.582296 137.289201 
" clip-path="url(#pd503b55a18)" style="fill: none; stroke: #000000; stroke-width: 1.2"/>
    <path d="M 55.368595 145.405126 
L 70.120529 159.66159 
" clip-path="url(#pd503b55a18)" style="fill: none; stroke: #000000; stroke-width: 1.2"/>
    <path d="M 55.368595 145.405126 
L 77.201676 115.385134 
" clip-path="url(#pd503b55a18)" style="fill: none; stroke: #000000; stroke-width: 1.2"/>
    <path d="M 55.368595 145.405126 
L 106.757476 166.840684 
" clip-path="url(#pd503b55a18)" style="fill: none; stroke: #000000; stroke-width: 1.2"/>
    <path d="M 55.368595 145.405126 
L 74.491523 143.258874 
" clip-path="url(#pd503b55a18)" style="fill: none; stroke: #000000; stroke-width: 1.2"/>
    <path d="M 142.928704 124.742995 
L 100.300196 105.5056 
" clip-path="url(#pd503b55a18)" style="fill: none; stroke: #000000; stroke-width: 1.2"/>
    <path d="M 142.928704 124.742995 
L 133.884013 155.549245 
" clip-path="url(#pd503b55a18)" style="fill: none; stroke: #000000; stroke-width: 1.2"/>
    <path d="M 142.928704 124.742995 
L 95.287358 153.575919 
" clip-path="url(#pd503b55a18)" style="fill: none; stroke: #000000; stroke-width: 1.2"/>
    <path d="M 142.928704 124.742995 
L 109.927025 105.005232 
" clip-path="url(#pd503b55a18)" style="fill: none; stroke: #000000; stroke-width: 1.2"/>
    <path d="M 142.928704 124.742995 
L 147.099032 164.408184 
" clip-path="url(#pd503b55a18)" style="fill: none; stroke: #000000; stroke-width: 1.2"/>
    <path d="M 142.928704 124.742995 
L 137.695376 181.963296 
" clip-path="url(#pd503b55a18)" style="fill: none; stroke: #000000; stroke-width: 1.2"/>
    <path d="M 100.300196 105.5056 
L 133.884013 155.549245 
" clip-path="url(#pd503b55a18)" style="fill: none; stroke: #000000; stroke-width: 1.2"/>
    <path d="M 100.300196 105.5056 
L 95.287358 153.575919 
" clip-path="url(#pd503b55a18)" style="fill: none; stroke: #000000; stroke-width: 1.2"/>
    <path d="M 100.300196 105.5056 
L 66.590552 85.035613 
" clip-path="url(#pd503b55a18)" style="fill: none; stroke: #000000; stroke-width: 1.2"/>
    <path d="M 100.300196 105.5056 
L 151.103915 109.436807 
" clip-path="url(#pd503b55a18)" style="fill: none; stroke: #000000; stroke-width: 1.2"/>
    <path d="M 100.300196 105.5056 
L 103.582296 137.289201 
" clip-path="url(#pd503b55a18)" style="fill: none; stroke: #000000; stroke-width: 1.2"/>
    <path d="M 100.300196 105.5056 
L 106.757476 166.840684 
" clip-path="url(#pd503b55a18)" style="fill: none; stroke: #000000; stroke-width: 1.2"/>
    <path d="M 133.884013 155.549245 
L 95.287358 153.575919 
" clip-path="url(#pd503b55a18)" style="fill: none; stroke: #000000; stroke-width: 1.2"/>
    <path d="M 133.884013 155.549245 
L 151.103915 109.436807 
" clip-path="url(#pd503b55a18)" style="fill: none; stroke: #000000; stroke-width: 1.2"/>
    <path d="M 133.884013 155.549245 
L 103.582296 137.289201 
" clip-path="url(#pd503b55a18)" style="fill: none; stroke: #000000; stroke-width: 1.2"/>
    <path d="M 133.884013 155.549245 
L 137.695376 181.963296 
" clip-path="url(#pd503b55a18)" style="fill: none; stroke: #000000; stroke-width: 1.2"/>
    <path d="M 133.884013 155.549245 
L 106.757476 166.840684 
" clip-path="url(#pd503b55a18)" style="fill: none; stroke: #000000; stroke-width: 1.2"/>
    <path d="M 133.884013 155.549245 
L 162.020178 130.900813 
" clip-path="url(#pd503b55a18)" style="fill: none; stroke: #000000; stroke-width: 1.2"/>
    <path d="M 133.884013 155.549245 
L 159.401985 157.534 
" clip-path="url(#pd503b55a18)" style="fill: none; stroke: #000000; stroke-width: 1.2"/>
    <path d="M 95.287358 153.575919 
L 59.239082 126.04885 
" clip-path="url(#pd503b55a18)" style="fill: none; stroke: #000000; stroke-width: 1.2"/>
    <path d="M 95.287358 153.575919 
L 109.927025 105.005232 
" clip-path="url(#pd503b55a18)" style="fill: none; stroke: #000000; stroke-width: 1.2"/>
    <path d="M 95.287358 153.575919 
L 147.099032 164.408184 
" clip-path="url(#pd503b55a18)" style="fill: none; stroke: #000000; stroke-width: 1.2"/>
    <path d="M 95.287358 153.575919 
L 70.120529 159.66159 
" clip-path="url(#pd503b55a18)" style="fill: none; stroke: #000000; stroke-width: 1.2"/>
    <path d="M 95.287358 153.575919 
L 137.695376 181.963296 
" clip-path="url(#pd503b55a18)" style="fill: none; stroke: #000000; stroke-width: 1.2"/>
    <path d="M 95.287358 153.575919 
L 106.757476 166.840684 
" clip-path="url(#pd503b55a18)" style="fill: none; stroke: #000000; stroke-width: 1.2"/>
    <path d="M 95.287358 153.575919 
L 120.437691 129.063199 
" clip-path="url(#pd503b55a18)" style="fill: none; stroke: #000000; stroke-width: 1.2"/>
    <path d="M 95.287358 153.575919 
L 113.71199 158.300858 
" clip-path="url(#pd503b55a18)" style="fill: none; stroke: #000000; stroke-width: 1.2"/>
    <path d="M 66.590552 85.035613 
L 59.239082 126.04885 
" clip-path="url(#pd503b55a18)" style="fill: none; stroke: #000000; stroke-width: 1.2"/>
    <path d="M 66.590552 85.035613 
L 109.927025 105.005232 
" clip-path="url(#pd503b55a18)" style="fill: none; stroke: #000000; stroke-width: 1.2"/>
    <path d="M 66.590552 85.035613 
L 103.582296 137.289201 
" clip-path="url(#pd503b55a18)" style="fill: none; stroke: #000000; stroke-width: 1.2"/>
    <path d="M 66.590552 85.035613 
L 74.491523 143.258874 
" clip-path="url(#pd503b55a18)" style="fill: none; stroke: #000000; stroke-width: 1.2"/>
    <path d="M 59.239082 126.04885 
L 109.927025 105.005232 
" clip-path="url(#pd503b55a18)" style="fill: none; stroke: #000000; stroke-width: 1.2"/>
    <path d="M 59.239082 126.04885 
L 103.582296 137.289201 
" clip-path="url(#pd503b55a18)" style="fill: none; stroke: #000000; stroke-width: 1.2"/>
    <path d="M 59.239082 126.04885 
L 70.120529 159.66159 
" clip-path="url(#pd503b55a18)" style="fill: none; stroke: #000000; stroke-width: 1.2"/>
    <path d="M 59.239082 126.04885 
L 74.491523 143.258874 
" clip-path="url(#pd503b55a18)" style="fill: none; stroke: #000000; stroke-width: 1.2"/>
    <path d="M 59.239082 126.04885 
L 84.030172 102.952087 
" clip-path="url(#pd503b55a18)" style="fill: none; stroke: #000000; stroke-width: 1.2"/>
    <path d="M 59.239082 126.04885 
L 113.71199 158.300858 
" clip-path="url(#pd503b55a18)" style="fill: none; stroke: #000000; stroke-width: 1.2"/>
    <path d="M 151.103915 109.436807 
L 109.927025 105.005232 
" clip-path="url(#pd503b55a18)" style="fill: none; stroke: #000000; stroke-width: 1.2"/>
    <path d="M 151.103915 109.436807 
L 147.099032 164.408184 
" clip-path="url(#pd503b55a18)" style="fill: none; stroke: #000000; stroke-width: 1.2"/>
    <path d="M 151.103915 109.436807 
L 103.582296 137.289201 
" clip-path="url(#pd503b55a18)" style="fill: none; stroke: #000000; stroke-width: 1.2"/>
    <path d="M 151.103915 109.436807 
L 159.401985 157.534 
" clip-path="url(#pd503b55a18)" style="fill: none; stroke: #000000; stroke-width: 1.2"/>
    <path d="M 109.927025 105.005232 
L 147.099032 164.408184 
" clip-path="url(#pd503b55a18)" style="fill: none; stroke: #000000; stroke-width: 1.2"/>
    <path d="M 109.927025 105.005232 
L 103.582296 137.289201 
" clip-path="url(#pd503b55a18)" style="fill: none; stroke: #000000; stroke-width: 1.2"/>
    <path d="M 109.927025 105.005232 
L 113.71199 158.300858 
" clip-path="url(#pd503b55a18)" style="fill: none; stroke: #000000; stroke-width: 1.2"/>
    <path d="M 147.099032 164.408184 
L 103.582296 137.289201 
" clip-path="url(#pd503b55a18)" style="fill: none; stroke: #000000; stroke-width: 1.2"/>
    <path d="M 147.099032 164.408184 
L 137.695376 181.963296 
" clip-path="url(#pd503b55a18)" style="fill: none; stroke: #000000; stroke-width: 1.2"/>
    <path d="M 147.099032 164.408184 
L 159.401985 157.534 
" clip-path="url(#pd503b55a18)" style="fill: none; stroke: #000000; stroke-width: 1.2"/>
    <path d="M 147.099032 164.408184 
L 113.71199 158.300858 
" clip-path="url(#pd503b55a18)" style="fill: none; stroke: #000000; stroke-width: 1.2"/>
    <path d="M 147.099032 164.408184 
L 170.229272 138.393056 
" clip-path="url(#pd503b55a18)" style="fill: none; stroke: #000000; stroke-width: 1.2"/>
    <path d="M 147.099032 164.408184 
L 160.83419 227.678012 
" clip-path="url(#pd503b55a18)" style="fill: none; stroke: #000000; stroke-width: 1.2"/>
    <path d="M 147.099032 164.408184 
L 174.181647 198.000648 
" clip-path="url(#pd503b55a18)" style="fill: none; stroke: #000000; stroke-width: 1.2"/>
    <path d="M 147.099032 164.408184 
L 197.159219 169.665617 
" clip-path="url(#pd503b55a18)" style="fill: none; stroke: #000000; stroke-width: 1.2"/>
    <path d="M 103.582296 137.289201 
L 106.757476 166.840684 
" clip-path="url(#pd503b55a18)" style="fill: none; stroke: #000000; stroke-width: 1.2"/>
    <path d="M 103.582296 137.289201 
L 74.491523 143.258874 
" clip-path="url(#pd503b55a18)" style="fill: none; stroke: #000000; stroke-width: 1.2"/>
    <path d="M 103.582296 137.289201 
L 159.401985 157.534 
" clip-path="url(#pd503b55a18)" style="fill: none; stroke: #000000; stroke-width: 1.2"/>
    <path d="M 103.582296 137.289201 
L 113.71199 158.300858 
" clip-path="url(#pd503b55a18)" style="fill: none; stroke: #000000; stroke-width: 1.2"/>
    <path d="M 103.582296 137.289201 
L 127.403228 115.300084 
" clip-path="url(#pd503b55a18)" style="fill: none; stroke: #000000; stroke-width: 1.2"/>
    <path d="M 70.120529 159.66159 
L 77.201676 115.385134 
" clip-path="url(#pd503b55a18)" style="fill: none; stroke: #000000; stroke-width: 1.2"/>
    <path d="M 70.120529 159.66159 
L 106.757476 166.840684 
" clip-path="url(#pd503b55a18)" style="fill: none; stroke: #000000; stroke-width: 1.2"/>
    <path d="M 70.120529 159.66159 
L 120.437691 129.063199 
" clip-path="url(#pd503b55a18)" style="fill: none; stroke: #000000; stroke-width: 1.2"/>
    <path d="M 70.120529 159.66159 
L 84.030172 102.952087 
" clip-path="url(#pd503b55a18)" style="fill: none; stroke: #000000; stroke-width: 1.2"/>
    <path d="M 70.120529 159.66159 
L 113.71199 158.300858 
" clip-path="url(#pd503b55a18)" style="fill: none; stroke: #000000; stroke-width: 1.2"/>
    <path d="M 77.201676 115.385134 
L 106.757476 166.840684 
" clip-path="url(#pd503b55a18)" style="fill: none; stroke: #000000; stroke-width: 1.2"/>
    <path d="M 77.201676 115.385134 
L 120.437691 129.063199 
" clip-path="url(#pd503b55a18)" style="fill: none; stroke: #000000; stroke-width: 1.2"/>
    <path d="M 77.201676 115.385134 
L 74.491523 143.258874 
" clip-path="url(#pd503b55a18)" style="fill: none; stroke: #000000; stroke-width: 1.2"/>
    <path d="M 77.201676 115.385134 
L 127.403228 115.300084 
" clip-path="url(#pd503b55a18)" style="fill: none; stroke: #000000; stroke-width: 1.2"/>
    <path d="M 137.695376 181.963296 
L 106.757476 166.840684 
" clip-path="url(#pd503b55a18)" style="fill: none; stroke: #000000; stroke-width: 1.2"/>
    <path d="M 137.695376 181.963296 
L 162.020178 130.900813 
" clip-path="url(#pd503b55a18)" style="fill: none; stroke: #000000; stroke-width: 1.2"/>
    <path d="M 137.695376 181.963296 
L 120.437691 129.063199 
" clip-path="url(#pd503b55a18)" style="fill: none; stroke: #000000; stroke-width: 1.2"/>
    <path d="M 137.695376 181.963296 
L 113.71199 158.300858 
" clip-path="url(#pd503b55a18)" style="fill: none; stroke: #000000; stroke-width: 1.2"/>
    <path d="M 137.695376 181.963296 
L 170.229272 138.393056 
" clip-path="url(#pd503b55a18)" style="fill: none; stroke: #000000; stroke-width: 1.2"/>
    <path d="M 137.695376 181.963296 
L 138.187361 237.076364 
" clip-path="url(#pd503b55a18)" style="fill: none; stroke: #000000; stroke-width: 1.2"/>
    <path d="M 137.695376 181.963296 
L 174.181647 198.000648 
" clip-path="url(#pd503b55a18)" style="fill: none; stroke: #000000; stroke-width: 1.2"/>
    <path d="M 106.757476 166.840684 
L 162.020178 130.900813 
" clip-path="url(#pd503b55a18)" style="fill: none; stroke: #000000; stroke-width: 1.2"/>
    <path d="M 106.757476 166.840684 
L 120.437691 129.063199 
" clip-path="url(#pd503b55a18)" style="fill: none; stroke: #000000; stroke-width: 1.2"/>
    <path d="M 106.757476 166.840684 
L 74.491523 143.258874 
" clip-path="url(#pd503b55a18)" style="fill: none; stroke: #000000; stroke-width: 1.2"/>
    <path d="M 106.757476 166.840684 
L 159.401985 157.534 
" clip-path="url(#pd503b55a18)" style="fill: none; stroke: #000000; stroke-width: 1.2"/>
    <path d="M 106.757476 166.840684 
L 127.403228 115.300084 
" clip-path="url(#pd503b55a18)" style="fill: none; stroke: #000000; stroke-width: 1.2"/>
    <path d="M 162.020178 130.900813 
L 120.437691 129.063199 
" clip-path="url(#pd503b55a18)" style="fill: none; stroke: #000000; stroke-width: 1.2"/>
    <path d="M 162.020178 130.900813 
L 159.401985 157.534 
" clip-path="url(#pd503b55a18)" style="fill: none; stroke: #000000; stroke-width: 1.2"/>
    <path d="M 162.020178 130.900813 
L 127.403228 115.300084 
" clip-path="url(#pd503b55a18)" style="fill: none; stroke: #000000; stroke-width: 1.2"/>
    <path d="M 120.437691 129.063199 
L 84.030172 102.952087 
" clip-path="url(#pd503b55a18)" style="fill: none; stroke: #000000; stroke-width: 1.2"/>
    <path d="M 120.437691 129.063199 
L 113.71199 158.300858 
" clip-path="url(#pd503b55a18)" style="fill: none; stroke: #000000; stroke-width: 1.2"/>
    <path d="M 120.437691 129.063199 
L 170.229272 138.393056 
" clip-path="url(#pd503b55a18)" style="fill: none; stroke: #000000; stroke-width: 1.2"/>
    <path d="M 74.491523 143.258874 
L 84.030172 102.952087 
" clip-path="url(#pd503b55a18)" style="fill: none; stroke: #000000; stroke-width: 1.2"/>
    <path d="M 74.491523 143.258874 
L 113.71199 158.300858 
" clip-path="url(#pd503b55a18)" style="fill: none; stroke: #000000; stroke-width: 1.2"/>
    <path d="M 74.491523 143.258874 
L 127.403228 115.300084 
" clip-path="url(#pd503b55a18)" style="fill: none; stroke: #000000; stroke-width: 1.2"/>
    <path d="M 84.030172 102.952087 
L 113.71199 158.300858 
" clip-path="url(#pd503b55a18)" style="fill: none; stroke: #000000; stroke-width: 1.2"/>
    <path d="M 84.030172 102.952087 
L 127.403228 115.300084 
" clip-path="url(#pd503b55a18)" style="fill: none; stroke: #000000; stroke-width: 1.2"/>
    <path d="M 159.401985 157.534 
L 113.71199 158.300858 
" clip-path="url(#pd503b55a18)" style="fill: none; stroke: #000000; stroke-width: 1.2"/>
    <path d="M 159.401985 157.534 
L 170.229272 138.393056 
" clip-path="url(#pd503b55a18)" style="fill: none; stroke: #000000; stroke-width: 1.2"/>
    <path d="M 159.401985 157.534 
L 127.403228 115.300084 
" clip-path="url(#pd503b55a18)" style="fill: none; stroke: #000000; stroke-width: 1.2"/>
    <path d="M 159.401985 157.534 
L 197.159219 169.665617 
" clip-path="url(#pd503b55a18)" style="fill: none; stroke: #000000; stroke-width: 1.2"/>
    <path d="M 113.71199 158.300858 
L 170.229272 138.393056 
" clip-path="url(#pd503b55a18)" style="fill: none; stroke: #000000; stroke-width: 1.2"/>
    <path d="M 113.71199 158.300858 
L 127.403228 115.300084 
" clip-path="url(#pd503b55a18)" style="fill: none; stroke: #000000; stroke-width: 1.2"/>
    <path d="M 170.229272 138.393056 
L 127.403228 115.300084 
" clip-path="url(#pd503b55a18)" style="fill: none; stroke: #000000; stroke-width: 1.2"/>
    <path d="M 170.229272 138.393056 
L 174.181647 198.000648 
" clip-path="url(#pd503b55a18)" style="fill: none; stroke: #000000; stroke-width: 1.2"/>
    <path d="M 170.229272 138.393056 
L 197.159219 169.665617 
" clip-path="url(#pd503b55a18)" style="fill: none; stroke: #000000; stroke-width: 1.2"/>
    <path d="M 138.187361 237.076364 
L 174.181647 198.000648 
" clip-path="url(#pd503b55a18)" style="fill: none; stroke: #000000; stroke-width: 1.2"/>
    <path d="M 160.83419 227.678012 
L 174.181647 198.000648 
" clip-path="url(#pd503b55a18)" style="fill: none; stroke: #000000; stroke-width: 1.2"/>
    <path d="M 239.831405 182.056346 
L 197.159219 169.665617 
" clip-path="url(#pd503b55a18)" style="fill: none; stroke: #000000; stroke-width: 1.2"/>
    <path d="M 174.181647 198.000648 
L 197.159219 169.665617 
" clip-path="url(#pd503b55a18)" style="fill: none; stroke: #000000; stroke-width: 1.2"/>
   </g>
   <g id="PathCollection_1">
    <defs>
     <path id="C0_0_a6c88e4416" d="M 0 8.944272 
C 2.372049 8.944272 4.647264 8.001847 6.324555 6.324555 
C 8.001847 4.647264 8.944272 2.372049 8.944272 -0 
C 8.944272 -2.372049 8.001847 -4.647264 6.324555 -6.324555 
C 4.647264 -8.001847 2.372049 -8.944272 0 -8.944272 
C -2.372049 -8.944272 -4.647264 -8.001847 -6.324555 -6.324555 
C -8.001847 -4.647264 -8.944272 -2.372049 -8.944272 0 
C -8.944272 2.372049 -8.001847 4.647264 -6.324555 6.324555 
C -4.647264 8.001847 -2.372049 8.944272 0 8.944272 
z
"/>
    </defs>
    <g clip-path="url(#pd503b55a18)">
     <use xlink:href="#C0_0_a6c88e4416" x="83.111312" y="75.224251" style="fill: #e06633; stroke: #e06633; stroke-width: 0.5"/>
    </g>
    <g clip-path="url(#pd503b55a18)">
     <use xlink:href="#C0_0_a6c88e4416" x="169.334085" y="104.694552" style="fill: #e06633; stroke: #e06633; stroke-width: 0.5"/>
    </g>
    <g clip-path="url(#pd503b55a18)">
     <use xlink:href="#C0_0_a6c88e4416" x="127.97763" y="85.723277" style="fill: #e06633; stroke: #e06633; stroke-width: 0.5"/>
    </g>
    <g clip-path="url(#pd503b55a18)">
     <use xlink:href="#C0_0_a6c88e4416" x="153.342754" y="68.861033" style="fill: #e06633; stroke: #e06633; stroke-width: 0.5"/>
    </g>
    <g clip-path="url(#pd503b55a18)">
     <use xlink:href="#C0_0_a6c88e4416" x="114.335865" y="71.506725" style="fill: #e06633; stroke: #e06633; stroke-width: 0.5"/>
    </g>
    <g clip-path="url(#pd503b55a18)">
     <use xlink:href="#C0_0_a6c88e4416" x="96.553036" y="58.499321" style="fill: #e06633; stroke: #e06633; stroke-width: 0.5"/>
    </g>
    <g clip-path="url(#pd503b55a18)">
     <use xlink:href="#C0_0_a6c88e4416" x="81.086395" y="53.803636" style="fill: #e06633; stroke: #e06633; stroke-width: 0.5"/>
    </g>
    <g clip-path="url(#pd503b55a18)">
     <use xlink:href="#C0_0_a6c88e4416" x="176.042164" y="89.330718" style="fill: #e06633; stroke: #e06633; stroke-width: 0.5"/>
    </g>
    <g clip-path="url(#pd503b55a18)">
     <use xlink:href="#C0_0_a6c88e4416" x="134.737474" y="80.764023" style="fill: #e06633; stroke: #e06633; stroke-width: 0.5"/>
    </g>
    <g clip-path="url(#pd503b55a18)">
     <use xlink:href="#C0_0_a6c88e4416" x="161.826146" y="80.391209" style="fill: #e06633; stroke: #e06633; stroke-width: 0.5"/>
    </g>
    <g clip-path="url(#pd503b55a18)">
     <use xlink:href="#C0_0_a6c88e4416" x="124.065011" y="58.000038" style="fill: #e06633; stroke: #e06633; stroke-width: 0.5"/>
    </g>
    <g clip-path="url(#pd503b55a18)">
     <use xlink:href="#C0_0_a6c88e4416" x="59.556424" y="100.312372" style="fill: #e06633; stroke: #e06633; stroke-width: 0.5"/>
    </g>
    <g clip-path="url(#pd503b55a18)">
     <use xlink:href="#C0_0_a6c88e4416" x="55.368595" y="145.405126" style="fill: #e06633; stroke: #e06633; stroke-width: 0.5"/>
    </g>
    <g clip-path="url(#pd503b55a18)">
     <use xlink:href="#C0_0_a6c88e4416" x="142.928704" y="124.742995" style="fill: #e06633; stroke: #e06633; stroke-width: 0.5"/>
    </g>
    <g clip-path="url(#pd503b55a18)">
     <use xlink:href="#C0_0_a6c88e4416" x="100.300196" y="105.5056" style="fill: #e06633; stroke: #e06633; stroke-width: 0.5"/>
    </g>
    <g clip-path="url(#pd503b55a18)">
     <use xlink:href="#C0_0_a6c88e4416" x="133.884013" y="155.549245" style="fill: #e06633; stroke: #e06633; stroke-width: 0.5"/>
    </g>
    <g clip-path="url(#pd503b55a18)">
     <use xlink:href="#C0_0_a6c88e4416" x="95.287358" y="153.575919" style="fill: #e06633; stroke: #e06633; stroke-width: 0.5"/>
    </g>
    <g clip-path="url(#pd503b55a18)">
     <use xlink:href="#C0_0_a6c88e4416" x="66.590552" y="85.035613" style="fill: #e06633; stroke: #e06633; stroke-width: 0.5"/>
    </g>
    <g clip-path="url(#pd503b55a18)">
     <use xlink:href="#C0_0_a6c88e4416" x="59.239082" y="126.04885" style="fill: #e06633; stroke: #e06633; stroke-width: 0.5"/>
    </g>
    <g clip-path="url(#pd503b55a18)">
     <use xlink:href="#C0_0_a6c88e4416" x="151.103915" y="109.436807" style="fill: #e06633; stroke: #e06633; stroke-width: 0.5"/>
    </g>
    <g clip-path="url(#pd503b55a18)">
     <use xlink:href="#C0_0_a6c88e4416" x="109.927025" y="105.005232" style="fill: #e06633; stroke: #e06633; stroke-width: 0.5"/>
    </g>
    <g clip-path="url(#pd503b55a18)">
     <use xlink:href="#C0_0_a6c88e4416" x="147.099032" y="164.408184" style="fill: #e06633; stroke: #e06633; stroke-width: 0.5"/>
    </g>
    <g clip-path="url(#pd503b55a18)">
     <use xlink:href="#C0_0_a6c88e4416" x="103.582296" y="137.289201" style="fill: #e06633; stroke: #e06633; stroke-width: 0.5"/>
    </g>
    <g clip-path="url(#pd503b55a18)">
     <use xlink:href="#C0_0_a6c88e4416" x="70.120529" y="159.66159" style="fill: #e06633; stroke: #e06633; stroke-width: 0.5"/>
    </g>
    <g clip-path="url(#pd503b55a18)">
     <use xlink:href="#C0_0_a6c88e4416" x="77.201676" y="115.385134" style="fill: #e06633; stroke: #e06633; stroke-width: 0.5"/>
    </g>
    <g clip-path="url(#pd503b55a18)">
     <use xlink:href="#C0_0_a6c88e4416" x="137.695376" y="181.963296" style="fill: #e06633; stroke: #e06633; stroke-width: 0.5"/>
    </g>
    <g clip-path="url(#pd503b55a18)">
     <use xlink:href="#C0_0_a6c88e4416" x="106.757476" y="166.840684" style="fill: #e06633; stroke: #e06633; stroke-width: 0.5"/>
    </g>
    <g clip-path="url(#pd503b55a18)">
     <use xlink:href="#C0_0_a6c88e4416" x="162.020178" y="130.900813" style="fill: #e06633; stroke: #e06633; stroke-width: 0.5"/>
    </g>
    <g clip-path="url(#pd503b55a18)">
     <use xlink:href="#C0_0_a6c88e4416" x="120.437691" y="129.063199" style="fill: #e06633; stroke: #e06633; stroke-width: 0.5"/>
    </g>
    <g clip-path="url(#pd503b55a18)">
     <use xlink:href="#C0_0_a6c88e4416" x="74.491523" y="143.258874" style="fill: #e06633; stroke: #e06633; stroke-width: 0.5"/>
    </g>
    <g clip-path="url(#pd503b55a18)">
     <use xlink:href="#C0_0_a6c88e4416" x="84.030172" y="102.952087" style="fill: #e06633; stroke: #e06633; stroke-width: 0.5"/>
    </g>
    <g clip-path="url(#pd503b55a18)">
     <use xlink:href="#C0_0_a6c88e4416" x="159.401985" y="157.534" style="fill: #e06633; stroke: #e06633; stroke-width: 0.5"/>
    </g>
    <g clip-path="url(#pd503b55a18)">
     <use xlink:href="#C0_0_a6c88e4416" x="113.71199" y="158.300858" style="fill: #e06633; stroke: #e06633; stroke-width: 0.5"/>
    </g>
    <g clip-path="url(#pd503b55a18)">
     <use xlink:href="#C0_0_a6c88e4416" x="170.229272" y="138.393056" style="fill: #e06633; stroke: #e06633; stroke-width: 0.5"/>
    </g>
    <g clip-path="url(#pd503b55a18)">
     <use xlink:href="#C0_0_a6c88e4416" x="127.403228" y="115.300084" style="fill: #e06633; stroke: #e06633; stroke-width: 0.5"/>
    </g>
    <g clip-path="url(#pd503b55a18)">
     <use xlink:href="#C0_0_a6c88e4416" x="138.187361" y="237.076364" style="fill: #bfbfbf; stroke: #bfbfbf; stroke-width: 0.5"/>
    </g>
    <g clip-path="url(#pd503b55a18)">
     <use xlink:href="#C0_0_a6c88e4416" x="160.83419" y="227.678012" style="fill: #bfbfbf; stroke: #bfbfbf; stroke-width: 0.5"/>
    </g>
    <g clip-path="url(#pd503b55a18)">
     <use xlink:href="#C0_0_a6c88e4416" x="239.831405" y="182.056346" style="fill: #bfbfbf; stroke: #bfbfbf; stroke-width: 0.5"/>
    </g>
    <g clip-path="url(#pd503b55a18)">
     <use xlink:href="#C0_0_a6c88e4416" x="174.181647" y="198.000648" style="fill: #666666; stroke: #666666; stroke-width: 0.5"/>
    </g>
    <g clip-path="url(#pd503b55a18)">
     <use xlink:href="#C0_0_a6c88e4416" x="197.159219" y="169.665617" style="fill: #0d0dff; stroke: #0d0dff; stroke-width: 0.5"/>
    </g>
   </g>
   <g id="text_1">
    <!-- CH3Fe48N -->
    <g transform="translate(127.498561 -8.765847) scale(0.1 -0.1)">
     <defs>
      <path id="DejaVuSans-43" d="M 4122 4306 
L 4122 3641 
Q 3803 3938 3442 4084 
Q 3081 4231 2675 4231 
Q 1875 4231 1450 3742 
Q 1025 3253 1025 2328 
Q 1025 1406 1450 917 
Q 1875 428 2675 428 
Q 3081 428 3442 575 
Q 3803 722 4122 1019 
L 4122 359 
Q 3791 134 3420 21 
Q 3050 -91 2638 -91 
Q 1578 -91 968 557 
Q 359 1206 359 2328 
Q 359 3453 968 4101 
Q 1578 4750 2638 4750 
Q 3056 4750 3426 4639 
Q 3797 4528 4122 4306 
z
" transform="scale(0.015625)"/>
      <path id="DejaVuSans-48" d="M 628 4666 
L 1259 4666 
L 1259 2753 
L 3553 2753 
L 3553 4666 
L 4184 4666 
L 4184 0 
L 3553 0 
L 3553 2222 
L 1259 2222 
L 1259 0 
L 628 0 
L 628 4666 
z
" transform="scale(0.015625)"/>
      <path id="DejaVuSans-33" d="M 2597 2516 
Q 3050 2419 3304 2112 
Q 3559 1806 3559 1356 
Q 3559 666 3084 287 
Q 2609 -91 1734 -91 
Q 1441 -91 1130 -33 
Q 819 25 488 141 
L 488 750 
Q 750 597 1062 519 
Q 1375 441 1716 441 
Q 2309 441 2620 675 
Q 2931 909 2931 1356 
Q 2931 1769 2642 2001 
Q 2353 2234 1838 2234 
L 1294 2234 
L 1294 2753 
L 1863 2753 
Q 2328 2753 2575 2939 
Q 2822 3125 2822 3475 
Q 2822 3834 2567 4026 
Q 2313 4219 1838 4219 
Q 1578 4219 1281 4162 
Q 984 4106 628 3988 
L 628 4550 
Q 988 4650 1302 4700 
Q 1616 4750 1894 4750 
Q 2613 4750 3031 4423 
Q 3450 4097 3450 3541 
Q 3450 3153 3228 2886 
Q 3006 2619 2597 2516 
z
" transform="scale(0.015625)"/>
      <path id="DejaVuSans-46" d="M 628 4666 
L 3309 4666 
L 3309 4134 
L 1259 4134 
L 1259 2759 
L 3109 2759 
L 3109 2228 
L 1259 2228 
L 1259 0 
L 628 0 
L 628 4666 
z
" transform="scale(0.015625)"/>
      <path id="DejaVuSans-65" d="M 3597 1894 
L 3597 1613 
L 953 1613 
Q 991 1019 1311 708 
Q 1631 397 2203 397 
Q 2534 397 2845 478 
Q 3156 559 3463 722 
L 3463 178 
Q 3153 47 2828 -22 
Q 2503 -91 2169 -91 
Q 1331 -91 842 396 
Q 353 884 353 1716 
Q 353 2575 817 3079 
Q 1281 3584 2069 3584 
Q 2775 3584 3186 3129 
Q 3597 2675 3597 1894 
z
M 3022 2063 
Q 3016 2534 2758 2815 
Q 2500 3097 2075 3097 
Q 1594 3097 1305 2825 
Q 1016 2553 972 2059 
L 3022 2063 
z
" transform="scale(0.015625)"/>
      <path id="DejaVuSans-34" d="M 2419 4116 
L 825 1625 
L 2419 1625 
L 2419 4116 
z
M 2253 4666 
L 3047 4666 
L 3047 1625 
L 3713 1625 
L 3713 1100 
L 3047 1100 
L 3047 0 
L 2419 0 
L 2419 1100 
L 313 1100 
L 313 1709 
L 2253 4666 
z
" transform="scale(0.015625)"/>
      <path id="DejaVuSans-38" d="M 2034 2216 
Q 1584 2216 1326 1975 
Q 1069 1734 1069 1313 
Q 1069 891 1326 650 
Q 1584 409 2034 409 
Q 2484 409 2743 651 
Q 3003 894 3003 1313 
Q 3003 1734 2745 1975 
Q 2488 2216 2034 2216 
z
M 1403 2484 
Q 997 2584 770 2862 
Q 544 3141 544 3541 
Q 544 4100 942 4425 
Q 1341 4750 2034 4750 
Q 2731 4750 3128 4425 
Q 3525 4100 3525 3541 
Q 3525 3141 3298 2862 
Q 3072 2584 2669 2484 
Q 3125 2378 3379 2068 
Q 3634 1759 3634 1313 
Q 3634 634 3220 271 
Q 2806 -91 2034 -91 
Q 1263 -91 848 271 
Q 434 634 434 1313 
Q 434 1759 690 2068 
Q 947 2378 1403 2484 
z
M 1172 3481 
Q 1172 3119 1398 2916 
Q 1625 2713 2034 2713 
Q 2441 2713 2670 2916 
Q 2900 3119 2900 3481 
Q 2900 3844 2670 4047 
Q 2441 4250 2034 4250 
Q 1625 4250 1398 4047 
Q 1172 3844 1172 3481 
z
" transform="scale(0.015625)"/>
      <path id="DejaVuSans-4e" d="M 628 4666 
L 1478 4666 
L 3547 763 
L 3547 4666 
L 4159 4666 
L 4159 0 
L 3309 0 
L 1241 3903 
L 1241 0 
L 628 0 
L 628 4666 
z
" transform="scale(0.015625)"/>
     </defs>
     <use xlink:href="#DejaVuSans-43"/>
     <use xlink:href="#DejaVuSans-48" transform="translate(69.824219 0)"/>
     <use xlink:href="#DejaVuSans-33" transform="translate(145.019531 0)"/>
     <use xlink:href="#DejaVuSans-46" transform="translate(208.642578 0)"/>
     <use xlink:href="#DejaVuSans-65" transform="translate(260.662109 0)"/>
     <use xlink:href="#DejaVuSans-34" transform="translate(322.185547 0)"/>
     <use xlink:href="#DejaVuSans-38" transform="translate(385.808594 0)"/>
     <use xlink:href="#DejaVuSans-4e" transform="translate(449.431641 0)"/>
    </g>
    <!-- Error: -9.84 eV -->
    <g transform="translate(127.498561 2.431965) scale(0.1 -0.1)">
     <defs>
      <path id="DejaVuSans-45" d="M 628 4666 
L 3578 4666 
L 3578 4134 
L 1259 4134 
L 1259 2753 
L 3481 2753 
L 3481 2222 
L 1259 2222 
L 1259 531 
L 3634 531 
L 3634 0 
L 628 0 
L 628 4666 
z
" transform="scale(0.015625)"/>
      <path id="DejaVuSans-72" d="M 2631 2963 
Q 2534 3019 2420 3045 
Q 2306 3072 2169 3072 
Q 1681 3072 1420 2755 
Q 1159 2438 1159 1844 
L 1159 0 
L 581 0 
L 581 3500 
L 1159 3500 
L 1159 2956 
Q 1341 3275 1631 3429 
Q 1922 3584 2338 3584 
Q 2397 3584 2469 3576 
Q 2541 3569 2628 3553 
L 2631 2963 
z
" transform="scale(0.015625)"/>
      <path id="DejaVuSans-6f" d="M 1959 3097 
Q 1497 3097 1228 2736 
Q 959 2375 959 1747 
Q 959 1119 1226 758 
Q 1494 397 1959 397 
Q 2419 397 2687 759 
Q 2956 1122 2956 1747 
Q 2956 2369 2687 2733 
Q 2419 3097 1959 3097 
z
M 1959 3584 
Q 2709 3584 3137 3096 
Q 3566 2609 3566 1747 
Q 3566 888 3137 398 
Q 2709 -91 1959 -91 
Q 1206 -91 779 398 
Q 353 888 353 1747 
Q 353 2609 779 3096 
Q 1206 3584 1959 3584 
z
" transform="scale(0.015625)"/>
      <path id="DejaVuSans-3a" d="M 750 794 
L 1409 794 
L 1409 0 
L 750 0 
L 750 794 
z
M 750 3309 
L 1409 3309 
L 1409 2516 
L 750 2516 
L 750 3309 
z
" transform="scale(0.015625)"/>
      <path id="DejaVuSans-20" transform="scale(0.015625)"/>
      <path id="DejaVuSans-2d" d="M 313 2009 
L 1997 2009 
L 1997 1497 
L 313 1497 
L 313 2009 
z
" transform="scale(0.015625)"/>
      <path id="DejaVuSans-39" d="M 703 97 
L 703 672 
Q 941 559 1184 500 
Q 1428 441 1663 441 
Q 2288 441 2617 861 
Q 2947 1281 2994 2138 
Q 2813 1869 2534 1725 
Q 2256 1581 1919 1581 
Q 1219 1581 811 2004 
Q 403 2428 403 3163 
Q 403 3881 828 4315 
Q 1253 4750 1959 4750 
Q 2769 4750 3195 4129 
Q 3622 3509 3622 2328 
Q 3622 1225 3098 567 
Q 2575 -91 1691 -91 
Q 1453 -91 1209 -44 
Q 966 3 703 97 
z
M 1959 2075 
Q 2384 2075 2632 2365 
Q 2881 2656 2881 3163 
Q 2881 3666 2632 3958 
Q 2384 4250 1959 4250 
Q 1534 4250 1286 3958 
Q 1038 3666 1038 3163 
Q 1038 2656 1286 2365 
Q 1534 2075 1959 2075 
z
" transform="scale(0.015625)"/>
      <path id="DejaVuSans-2e" d="M 684 794 
L 1344 794 
L 1344 0 
L 684 0 
L 684 794 
z
" transform="scale(0.015625)"/>
      <path id="DejaVuSans-56" d="M 1831 0 
L 50 4666 
L 709 4666 
L 2188 738 
L 3669 4666 
L 4325 4666 
L 2547 0 
L 1831 0 
z
" transform="scale(0.015625)"/>
     </defs>
     <use xlink:href="#DejaVuSans-45"/>
     <use xlink:href="#DejaVuSans-72" transform="translate(63.183594 0)"/>
     <use xlink:href="#DejaVuSans-72" transform="translate(102.546875 0)"/>
     <use xlink:href="#DejaVuSans-6f" transform="translate(141.410156 0)"/>
     <use xlink:href="#DejaVuSans-72" transform="translate(202.591797 0)"/>
     <use xlink:href="#DejaVuSans-3a" transform="translate(241.955078 0)"/>
     <use xlink:href="#DejaVuSans-20" transform="translate(275.646484 0)"/>
     <use xlink:href="#DejaVuSans-2d" transform="translate(307.433594 0)"/>
     <use xlink:href="#DejaVuSans-39" transform="translate(343.517578 0)"/>
     <use xlink:href="#DejaVuSans-2e" transform="translate(407.140625 0)"/>
     <use xlink:href="#DejaVuSans-38" transform="translate(438.927734 0)"/>
     <use xlink:href="#DejaVuSans-34" transform="translate(502.550781 0)"/>
     <use xlink:href="#DejaVuSans-20" transform="translate(566.173828 0)"/>
     <use xlink:href="#DejaVuSans-65" transform="translate(597.960938 0)"/>
     <use xlink:href="#DejaVuSans-56" transform="translate(659.484375 0)"/>
    </g>
   </g>
  </g>
 </g>
 <defs>
  <clipPath id="pd503b55a18">
   <rect x="36" y="34.56" width="223.2" height="221.76"/>
  </clipPath>
 </defs>
</svg>
