<?xml version="1.0" encoding="utf-8" standalone="no"?>
<!DOCTYPE svg PUBLIC "-//W3C//DTD SVG 1.1//EN"
  "http://www.w3.org/Graphics/SVG/1.1/DTD/svg11.dtd">
<svg xmlns:xlink="http://www.w3.org/1999/xlink" width="288pt" height="288pt" viewBox="0 0 288 288" xmlns="http://www.w3.org/2000/svg" version="1.1">
 <metadata>
  <rdf:RDF xmlns:dc="http://purl.org/dc/elements/1.1/" xmlns:cc="http://creativecommons.org/ns#" xmlns:rdf="http://www.w3.org/1999/02/22-rdf-syntax-ns#">
   <cc:Work>
    <dc:type rdf:resource="http://purl.org/dc/dcmitype/StillImage"/>
    <dc:date>2025-06-30T12:03:20.345655</dc:date>
    <dc:format>image/svg+xml</dc:format>
    <dc:creator>
     <cc:Agent>
      <dc:title>Matplotlib v3.10.1, https://matplotlib.org/</dc:title>
     </cc:Agent>
    </dc:creator>
   </cc:Work>
  </rdf:RDF>
 </metadata>
 <defs>
  <style type="text/css">*{stroke-linejoin: round; stroke-linecap: butt}</style>
 </defs>
 <g id="figure_1">
  <g id="patch_1">
   <path d="M 0 288 
L 288 288 
L 288 0 
L 0 0 
z
" style="fill: #ffffff"/>
  </g>
  <g id="axes_1">
   <g id="LineCollection_1">
    <path d="M 85.536406 73.267864 
L 83.623387 56.51011 
" clip-path="url(#p4e1a826255)" style="fill: none; stroke: #000000; stroke-width: 1.2"/>
    <path d="M 85.536406 73.267864 
L 121.115737 85.04256 
" clip-path="url(#p4e1a826255)" style="fill: none; stroke: #000000; stroke-width: 1.2"/>
    <path d="M 85.536406 73.267864 
L 118.54953 67.030889 
" clip-path="url(#p4e1a826255)" style="fill: none; stroke: #000000; stroke-width: 1.2"/>
    <path d="M 85.536406 73.267864 
L 97.073989 53.803636 
" clip-path="url(#p4e1a826255)" style="fill: none; stroke: #000000; stroke-width: 1.2"/>
    <path d="M 85.536406 73.267864 
L 132.248303 86.948184 
" clip-path="url(#p4e1a826255)" style="fill: none; stroke: #000000; stroke-width: 1.2"/>
    <path d="M 85.536406 73.267864 
L 64.822182 81.273707 
" clip-path="url(#p4e1a826255)" style="fill: none; stroke: #000000; stroke-width: 1.2"/>
    <path d="M 85.536406 73.267864 
L 62.239161 130.385328 
" clip-path="url(#p4e1a826255)" style="fill: none; stroke: #000000; stroke-width: 1.2"/>
    <path d="M 85.536406 73.267864 
L 74.560463 100.126524 
" clip-path="url(#p4e1a826255)" style="fill: none; stroke: #000000; stroke-width: 1.2"/>
    <path d="M 85.536406 73.267864 
L 112.28073 116.30239 
" clip-path="url(#p4e1a826255)" style="fill: none; stroke: #000000; stroke-width: 1.2"/>
    <path d="M 85.536406 73.267864 
L 84.764826 100.398416 
" clip-path="url(#p4e1a826255)" style="fill: none; stroke: #000000; stroke-width: 1.2"/>
    <path d="M 83.623387 56.51011 
L 121.115737 85.04256 
" clip-path="url(#p4e1a826255)" style="fill: none; stroke: #000000; stroke-width: 1.2"/>
    <path d="M 83.623387 56.51011 
L 118.54953 67.030889 
" clip-path="url(#p4e1a826255)" style="fill: none; stroke: #000000; stroke-width: 1.2"/>
    <path d="M 83.623387 56.51011 
L 98.434593 70.412929 
" clip-path="url(#p4e1a826255)" style="fill: none; stroke: #000000; stroke-width: 1.2"/>
    <path d="M 83.623387 56.51011 
L 129.330008 68.99243 
" clip-path="url(#p4e1a826255)" style="fill: none; stroke: #000000; stroke-width: 1.2"/>
    <path d="M 83.623387 56.51011 
L 64.822182 81.273707 
" clip-path="url(#p4e1a826255)" style="fill: none; stroke: #000000; stroke-width: 1.2"/>
    <path d="M 83.623387 56.51011 
L 55.368595 109.957035 
" clip-path="url(#p4e1a826255)" style="fill: none; stroke: #000000; stroke-width: 1.2"/>
    <path d="M 83.623387 56.51011 
L 102.408672 96.886181 
" clip-path="url(#p4e1a826255)" style="fill: none; stroke: #000000; stroke-width: 1.2"/>
    <path d="M 83.623387 56.51011 
L 73.679704 79.961547 
" clip-path="url(#p4e1a826255)" style="fill: none; stroke: #000000; stroke-width: 1.2"/>
    <path d="M 83.623387 56.51011 
L 74.560463 100.126524 
" clip-path="url(#p4e1a826255)" style="fill: none; stroke: #000000; stroke-width: 1.2"/>
    <path d="M 157.587984 99.93856 
L 121.115737 85.04256 
" clip-path="url(#p4e1a826255)" style="fill: none; stroke: #000000; stroke-width: 1.2"/>
    <path d="M 157.587984 99.93856 
L 151.32014 79.19052 
" clip-path="url(#p4e1a826255)" style="fill: none; stroke: #000000; stroke-width: 1.2"/>
    <path d="M 157.587984 99.93856 
L 118.54953 67.030889 
" clip-path="url(#p4e1a826255)" style="fill: none; stroke: #000000; stroke-width: 1.2"/>
    <path d="M 157.587984 99.93856 
L 132.248303 86.948184 
" clip-path="url(#p4e1a826255)" style="fill: none; stroke: #000000; stroke-width: 1.2"/>
    <path d="M 157.587984 99.93856 
L 160.469447 80.300528 
" clip-path="url(#p4e1a826255)" style="fill: none; stroke: #000000; stroke-width: 1.2"/>
    <path d="M 157.587984 99.93856 
L 137.128441 108.318567 
" clip-path="url(#p4e1a826255)" style="fill: none; stroke: #000000; stroke-width: 1.2"/>
    <path d="M 157.587984 99.93856 
L 123.174424 156.668895 
" clip-path="url(#p4e1a826255)" style="fill: none; stroke: #000000; stroke-width: 1.2"/>
    <path d="M 157.587984 99.93856 
L 145.663242 127.567504 
" clip-path="url(#p4e1a826255)" style="fill: none; stroke: #000000; stroke-width: 1.2"/>
    <path d="M 157.587984 99.93856 
L 112.28073 116.30239 
" clip-path="url(#p4e1a826255)" style="fill: none; stroke: #000000; stroke-width: 1.2"/>
    <path d="M 157.587984 99.93856 
L 157.733471 129.716077 
" clip-path="url(#p4e1a826255)" style="fill: none; stroke: #000000; stroke-width: 1.2"/>
    <path d="M 121.115737 85.04256 
L 151.32014 79.19052 
" clip-path="url(#p4e1a826255)" style="fill: none; stroke: #000000; stroke-width: 1.2"/>
    <path d="M 121.115737 85.04256 
L 118.54953 67.030889 
" clip-path="url(#p4e1a826255)" style="fill: none; stroke: #000000; stroke-width: 1.2"/>
    <path d="M 121.115737 85.04256 
L 98.434593 70.412929 
" clip-path="url(#p4e1a826255)" style="fill: none; stroke: #000000; stroke-width: 1.2"/>
    <path d="M 121.115737 85.04256 
L 166.847017 98.9436 
" clip-path="url(#p4e1a826255)" style="fill: none; stroke: #000000; stroke-width: 1.2"/>
    <path d="M 121.115737 85.04256 
L 129.330008 68.99243 
" clip-path="url(#p4e1a826255)" style="fill: none; stroke: #000000; stroke-width: 1.2"/>
    <path d="M 121.115737 85.04256 
L 102.408672 96.886181 
" clip-path="url(#p4e1a826255)" style="fill: none; stroke: #000000; stroke-width: 1.2"/>
    <path d="M 121.115737 85.04256 
L 74.560463 100.126524 
" clip-path="url(#p4e1a826255)" style="fill: none; stroke: #000000; stroke-width: 1.2"/>
    <path d="M 121.115737 85.04256 
L 94.319799 143.805452 
" clip-path="url(#p4e1a826255)" style="fill: none; stroke: #000000; stroke-width: 1.2"/>
    <path d="M 121.115737 85.04256 
L 145.663242 127.567504 
" clip-path="url(#p4e1a826255)" style="fill: none; stroke: #000000; stroke-width: 1.2"/>
    <path d="M 121.115737 85.04256 
L 112.28073 116.30239 
" clip-path="url(#p4e1a826255)" style="fill: none; stroke: #000000; stroke-width: 1.2"/>
    <path d="M 121.115737 85.04256 
L 121.166764 114.864061 
" clip-path="url(#p4e1a826255)" style="fill: none; stroke: #000000; stroke-width: 1.2"/>
    <path d="M 151.32014 79.19052 
L 118.54953 67.030889 
" clip-path="url(#p4e1a826255)" style="fill: none; stroke: #000000; stroke-width: 1.2"/>
    <path d="M 151.32014 79.19052 
L 166.847017 98.9436 
" clip-path="url(#p4e1a826255)" style="fill: none; stroke: #000000; stroke-width: 1.2"/>
    <path d="M 151.32014 79.19052 
L 129.330008 68.99243 
" clip-path="url(#p4e1a826255)" style="fill: none; stroke: #000000; stroke-width: 1.2"/>
    <path d="M 151.32014 79.19052 
L 137.128441 108.318567 
" clip-path="url(#p4e1a826255)" style="fill: none; stroke: #000000; stroke-width: 1.2"/>
    <path d="M 151.32014 79.19052 
L 102.408672 96.886181 
" clip-path="url(#p4e1a826255)" style="fill: none; stroke: #000000; stroke-width: 1.2"/>
    <path d="M 151.32014 79.19052 
L 122.97081 139.633103 
" clip-path="url(#p4e1a826255)" style="fill: none; stroke: #000000; stroke-width: 1.2"/>
    <path d="M 151.32014 79.19052 
L 152.261927 115.307142 
" clip-path="url(#p4e1a826255)" style="fill: none; stroke: #000000; stroke-width: 1.2"/>
    <path d="M 151.32014 79.19052 
L 145.663242 127.567504 
" clip-path="url(#p4e1a826255)" style="fill: none; stroke: #000000; stroke-width: 1.2"/>
    <path d="M 118.54953 67.030889 
L 97.073989 53.803636 
" clip-path="url(#p4e1a826255)" style="fill: none; stroke: #000000; stroke-width: 1.2"/>
    <path d="M 118.54953 67.030889 
L 132.248303 86.948184 
" clip-path="url(#p4e1a826255)" style="fill: none; stroke: #000000; stroke-width: 1.2"/>
    <path d="M 118.54953 67.030889 
L 160.469447 80.300528 
" clip-path="url(#p4e1a826255)" style="fill: none; stroke: #000000; stroke-width: 1.2"/>
    <path d="M 118.54953 67.030889 
L 64.822182 81.273707 
" clip-path="url(#p4e1a826255)" style="fill: none; stroke: #000000; stroke-width: 1.2"/>
    <path d="M 118.54953 67.030889 
L 137.128441 108.318567 
" clip-path="url(#p4e1a826255)" style="fill: none; stroke: #000000; stroke-width: 1.2"/>
    <path d="M 118.54953 67.030889 
L 102.408672 96.886181 
" clip-path="url(#p4e1a826255)" style="fill: none; stroke: #000000; stroke-width: 1.2"/>
    <path d="M 118.54953 67.030889 
L 90.878515 125.2924 
" clip-path="url(#p4e1a826255)" style="fill: none; stroke: #000000; stroke-width: 1.2"/>
    <path d="M 118.54953 67.030889 
L 111.428706 95.848446 
" clip-path="url(#p4e1a826255)" style="fill: none; stroke: #000000; stroke-width: 1.2"/>
    <path d="M 118.54953 67.030889 
L 112.28073 116.30239 
" clip-path="url(#p4e1a826255)" style="fill: none; stroke: #000000; stroke-width: 1.2"/>
    <path d="M 98.434593 70.412929 
L 97.073989 53.803636 
" clip-path="url(#p4e1a826255)" style="fill: none; stroke: #000000; stroke-width: 1.2"/>
    <path d="M 98.434593 70.412929 
L 132.248303 86.948184 
" clip-path="url(#p4e1a826255)" style="fill: none; stroke: #000000; stroke-width: 1.2"/>
    <path d="M 98.434593 70.412929 
L 129.330008 68.99243 
" clip-path="url(#p4e1a826255)" style="fill: none; stroke: #000000; stroke-width: 1.2"/>
    <path d="M 98.434593 70.412929 
L 73.679704 79.961547 
" clip-path="url(#p4e1a826255)" style="fill: none; stroke: #000000; stroke-width: 1.2"/>
    <path d="M 98.434593 70.412929 
L 74.560463 100.126524 
" clip-path="url(#p4e1a826255)" style="fill: none; stroke: #000000; stroke-width: 1.2"/>
    <path d="M 98.434593 70.412929 
L 70.56744 130.610766 
" clip-path="url(#p4e1a826255)" style="fill: none; stroke: #000000; stroke-width: 1.2"/>
    <path d="M 98.434593 70.412929 
L 84.764826 100.398416 
" clip-path="url(#p4e1a826255)" style="fill: none; stroke: #000000; stroke-width: 1.2"/>
    <path d="M 98.434593 70.412929 
L 121.166764 114.864061 
" clip-path="url(#p4e1a826255)" style="fill: none; stroke: #000000; stroke-width: 1.2"/>
    <path d="M 97.073989 53.803636 
L 132.248303 86.948184 
" clip-path="url(#p4e1a826255)" style="fill: none; stroke: #000000; stroke-width: 1.2"/>
    <path d="M 97.073989 53.803636 
L 129.330008 68.99243 
" clip-path="url(#p4e1a826255)" style="fill: none; stroke: #000000; stroke-width: 1.2"/>
    <path d="M 97.073989 53.803636 
L 64.822182 81.273707 
" clip-path="url(#p4e1a826255)" style="fill: none; stroke: #000000; stroke-width: 1.2"/>
    <path d="M 97.073989 53.803636 
L 73.679704 79.961547 
" clip-path="url(#p4e1a826255)" style="fill: none; stroke: #000000; stroke-width: 1.2"/>
    <path d="M 97.073989 53.803636 
L 63.31445 107.939567 
" clip-path="url(#p4e1a826255)" style="fill: none; stroke: #000000; stroke-width: 1.2"/>
    <path d="M 97.073989 53.803636 
L 111.428706 95.848446 
" clip-path="url(#p4e1a826255)" style="fill: none; stroke: #000000; stroke-width: 1.2"/>
    <path d="M 97.073989 53.803636 
L 84.764826 100.398416 
" clip-path="url(#p4e1a826255)" style="fill: none; stroke: #000000; stroke-width: 1.2"/>
    <path d="M 166.847017 98.9436 
L 132.248303 86.948184 
" clip-path="url(#p4e1a826255)" style="fill: none; stroke: #000000; stroke-width: 1.2"/>
    <path d="M 166.847017 98.9436 
L 160.469447 80.300528 
" clip-path="url(#p4e1a826255)" style="fill: none; stroke: #000000; stroke-width: 1.2"/>
    <path d="M 166.847017 98.9436 
L 129.330008 68.99243 
" clip-path="url(#p4e1a826255)" style="fill: none; stroke: #000000; stroke-width: 1.2"/>
    <path d="M 166.847017 98.9436 
L 152.261927 115.307142 
" clip-path="url(#p4e1a826255)" style="fill: none; stroke: #000000; stroke-width: 1.2"/>
    <path d="M 166.847017 98.9436 
L 145.663242 127.567504 
" clip-path="url(#p4e1a826255)" style="fill: none; stroke: #000000; stroke-width: 1.2"/>
    <path d="M 166.847017 98.9436 
L 139.514678 154.675371 
" clip-path="url(#p4e1a826255)" style="fill: none; stroke: #000000; stroke-width: 1.2"/>
    <path d="M 166.847017 98.9436 
L 157.733471 129.716077 
" clip-path="url(#p4e1a826255)" style="fill: none; stroke: #000000; stroke-width: 1.2"/>
    <path d="M 166.847017 98.9436 
L 121.166764 114.864061 
" clip-path="url(#p4e1a826255)" style="fill: none; stroke: #000000; stroke-width: 1.2"/>
    <path d="M 132.248303 86.948184 
L 160.469447 80.300528 
" clip-path="url(#p4e1a826255)" style="fill: none; stroke: #000000; stroke-width: 1.2"/>
    <path d="M 132.248303 86.948184 
L 129.330008 68.99243 
" clip-path="url(#p4e1a826255)" style="fill: none; stroke: #000000; stroke-width: 1.2"/>
    <path d="M 132.248303 86.948184 
L 111.428706 95.848446 
" clip-path="url(#p4e1a826255)" style="fill: none; stroke: #000000; stroke-width: 1.2"/>
    <path d="M 132.248303 86.948184 
L 112.28073 116.30239 
" clip-path="url(#p4e1a826255)" style="fill: none; stroke: #000000; stroke-width: 1.2"/>
    <path d="M 132.248303 86.948184 
L 84.764826 100.398416 
" clip-path="url(#p4e1a826255)" style="fill: none; stroke: #000000; stroke-width: 1.2"/>
    <path d="M 132.248303 86.948184 
L 103.618598 142.630765 
" clip-path="url(#p4e1a826255)" style="fill: none; stroke: #000000; stroke-width: 1.2"/>
    <path d="M 132.248303 86.948184 
L 157.733471 129.716077 
" clip-path="url(#p4e1a826255)" style="fill: none; stroke: #000000; stroke-width: 1.2"/>
    <path d="M 132.248303 86.948184 
L 121.166764 114.864061 
" clip-path="url(#p4e1a826255)" style="fill: none; stroke: #000000; stroke-width: 1.2"/>
    <path d="M 160.469447 80.300528 
L 129.330008 68.99243 
" clip-path="url(#p4e1a826255)" style="fill: none; stroke: #000000; stroke-width: 1.2"/>
    <path d="M 160.469447 80.300528 
L 137.128441 108.318567 
" clip-path="url(#p4e1a826255)" style="fill: none; stroke: #000000; stroke-width: 1.2"/>
    <path d="M 160.469447 80.300528 
L 152.261927 115.307142 
" clip-path="url(#p4e1a826255)" style="fill: none; stroke: #000000; stroke-width: 1.2"/>
    <path d="M 160.469447 80.300528 
L 111.428706 95.848446 
" clip-path="url(#p4e1a826255)" style="fill: none; stroke: #000000; stroke-width: 1.2"/>
    <path d="M 160.469447 80.300528 
L 139.677782 139.679707 
" clip-path="url(#p4e1a826255)" style="fill: none; stroke: #000000; stroke-width: 1.2"/>
    <path d="M 160.469447 80.300528 
L 157.733471 129.716077 
" clip-path="url(#p4e1a826255)" style="fill: none; stroke: #000000; stroke-width: 1.2"/>
    <path d="M 129.330008 68.99243 
L 102.408672 96.886181 
" clip-path="url(#p4e1a826255)" style="fill: none; stroke: #000000; stroke-width: 1.2"/>
    <path d="M 129.330008 68.99243 
L 73.679704 79.961547 
" clip-path="url(#p4e1a826255)" style="fill: none; stroke: #000000; stroke-width: 1.2"/>
    <path d="M 129.330008 68.99243 
L 152.261927 115.307142 
" clip-path="url(#p4e1a826255)" style="fill: none; stroke: #000000; stroke-width: 1.2"/>
    <path d="M 129.330008 68.99243 
L 111.428706 95.848446 
" clip-path="url(#p4e1a826255)" style="fill: none; stroke: #000000; stroke-width: 1.2"/>
    <path d="M 129.330008 68.99243 
L 100.561315 124.124062 
" clip-path="url(#p4e1a826255)" style="fill: none; stroke: #000000; stroke-width: 1.2"/>
    <path d="M 129.330008 68.99243 
L 121.166764 114.864061 
" clip-path="url(#p4e1a826255)" style="fill: none; stroke: #000000; stroke-width: 1.2"/>
    <path d="M 64.822182 81.273707 
L 55.368595 109.957035 
" clip-path="url(#p4e1a826255)" style="fill: none; stroke: #000000; stroke-width: 1.2"/>
    <path d="M 64.822182 81.273707 
L 102.408672 96.886181 
" clip-path="url(#p4e1a826255)" style="fill: none; stroke: #000000; stroke-width: 1.2"/>
    <path d="M 64.822182 81.273707 
L 90.878515 125.2924 
" clip-path="url(#p4e1a826255)" style="fill: none; stroke: #000000; stroke-width: 1.2"/>
    <path d="M 64.822182 81.273707 
L 63.31445 107.939567 
" clip-path="url(#p4e1a826255)" style="fill: none; stroke: #000000; stroke-width: 1.2"/>
    <path d="M 64.822182 81.273707 
L 111.428706 95.848446 
" clip-path="url(#p4e1a826255)" style="fill: none; stroke: #000000; stroke-width: 1.2"/>
    <path d="M 64.822182 81.273707 
L 62.239161 130.385328 
" clip-path="url(#p4e1a826255)" style="fill: none; stroke: #000000; stroke-width: 1.2"/>
    <path d="M 55.368595 109.957035 
L 102.408672 96.886181 
" clip-path="url(#p4e1a826255)" style="fill: none; stroke: #000000; stroke-width: 1.2"/>
    <path d="M 55.368595 109.957035 
L 90.878515 125.2924 
" clip-path="url(#p4e1a826255)" style="fill: none; stroke: #000000; stroke-width: 1.2"/>
    <path d="M 55.368595 109.957035 
L 73.679704 79.961547 
" clip-path="url(#p4e1a826255)" style="fill: none; stroke: #000000; stroke-width: 1.2"/>
    <path d="M 55.368595 109.957035 
L 100.561315 124.124062 
" clip-path="url(#p4e1a826255)" style="fill: none; stroke: #000000; stroke-width: 1.2"/>
    <path d="M 55.368595 109.957035 
L 62.239161 130.385328 
" clip-path="url(#p4e1a826255)" style="fill: none; stroke: #000000; stroke-width: 1.2"/>
    <path d="M 55.368595 109.957035 
L 74.560463 100.126524 
" clip-path="url(#p4e1a826255)" style="fill: none; stroke: #000000; stroke-width: 1.2"/>
    <path d="M 55.368595 109.957035 
L 94.319799 143.805452 
" clip-path="url(#p4e1a826255)" style="fill: none; stroke: #000000; stroke-width: 1.2"/>
    <path d="M 55.368595 109.957035 
L 70.56744 130.610766 
" clip-path="url(#p4e1a826255)" style="fill: none; stroke: #000000; stroke-width: 1.2"/>
    <path d="M 137.128441 108.318567 
L 102.408672 96.886181 
" clip-path="url(#p4e1a826255)" style="fill: none; stroke: #000000; stroke-width: 1.2"/>
    <path d="M 137.128441 108.318567 
L 122.97081 139.633103 
" clip-path="url(#p4e1a826255)" style="fill: none; stroke: #000000; stroke-width: 1.2"/>
    <path d="M 137.128441 108.318567 
L 90.878515 125.2924 
" clip-path="url(#p4e1a826255)" style="fill: none; stroke: #000000; stroke-width: 1.2"/>
    <path d="M 137.128441 108.318567 
L 111.428706 95.848446 
" clip-path="url(#p4e1a826255)" style="fill: none; stroke: #000000; stroke-width: 1.2"/>
    <path d="M 137.128441 108.318567 
L 139.677782 139.679707 
" clip-path="url(#p4e1a826255)" style="fill: none; stroke: #000000; stroke-width: 1.2"/>
    <path d="M 137.128441 108.318567 
L 123.174424 156.668895 
" clip-path="url(#p4e1a826255)" style="fill: none; stroke: #000000; stroke-width: 1.2"/>
    <path d="M 102.408672 96.886181 
L 122.97081 139.633103 
" clip-path="url(#p4e1a826255)" style="fill: none; stroke: #000000; stroke-width: 1.2"/>
    <path d="M 102.408672 96.886181 
L 90.878515 125.2924 
" clip-path="url(#p4e1a826255)" style="fill: none; stroke: #000000; stroke-width: 1.2"/>
    <path d="M 102.408672 96.886181 
L 73.679704 79.961547 
" clip-path="url(#p4e1a826255)" style="fill: none; stroke: #000000; stroke-width: 1.2"/>
    <path d="M 102.408672 96.886181 
L 152.261927 115.307142 
" clip-path="url(#p4e1a826255)" style="fill: none; stroke: #000000; stroke-width: 1.2"/>
    <path d="M 102.408672 96.886181 
L 100.561315 124.124062 
" clip-path="url(#p4e1a826255)" style="fill: none; stroke: #000000; stroke-width: 1.2"/>
    <path d="M 102.408672 96.886181 
L 94.319799 143.805452 
" clip-path="url(#p4e1a826255)" style="fill: none; stroke: #000000; stroke-width: 1.2"/>
    <path d="M 122.97081 139.633103 
L 90.878515 125.2924 
" clip-path="url(#p4e1a826255)" style="fill: none; stroke: #000000; stroke-width: 1.2"/>
    <path d="M 122.97081 139.633103 
L 152.261927 115.307142 
" clip-path="url(#p4e1a826255)" style="fill: none; stroke: #000000; stroke-width: 1.2"/>
    <path d="M 122.97081 139.633103 
L 100.561315 124.124062 
" clip-path="url(#p4e1a826255)" style="fill: none; stroke: #000000; stroke-width: 1.2"/>
    <path d="M 122.97081 139.633103 
L 123.174424 156.668895 
" clip-path="url(#p4e1a826255)" style="fill: none; stroke: #000000; stroke-width: 1.2"/>
    <path d="M 122.97081 139.633103 
L 94.319799 143.805452 
" clip-path="url(#p4e1a826255)" style="fill: none; stroke: #000000; stroke-width: 1.2"/>
    <path d="M 122.97081 139.633103 
L 145.663242 127.567504 
" clip-path="url(#p4e1a826255)" style="fill: none; stroke: #000000; stroke-width: 1.2"/>
    <path d="M 122.97081 139.633103 
L 139.514678 154.675371 
" clip-path="url(#p4e1a826255)" style="fill: none; stroke: #000000; stroke-width: 1.2"/>
    <path d="M 90.878515 125.2924 
L 63.31445 107.939567 
" clip-path="url(#p4e1a826255)" style="fill: none; stroke: #000000; stroke-width: 1.2"/>
    <path d="M 90.878515 125.2924 
L 111.428706 95.848446 
" clip-path="url(#p4e1a826255)" style="fill: none; stroke: #000000; stroke-width: 1.2"/>
    <path d="M 90.878515 125.2924 
L 139.677782 139.679707 
" clip-path="url(#p4e1a826255)" style="fill: none; stroke: #000000; stroke-width: 1.2"/>
    <path d="M 90.878515 125.2924 
L 62.239161 130.385328 
" clip-path="url(#p4e1a826255)" style="fill: none; stroke: #000000; stroke-width: 1.2"/>
    <path d="M 90.878515 125.2924 
L 123.174424 156.668895 
" clip-path="url(#p4e1a826255)" style="fill: none; stroke: #000000; stroke-width: 1.2"/>
    <path d="M 90.878515 125.2924 
L 94.319799 143.805452 
" clip-path="url(#p4e1a826255)" style="fill: none; stroke: #000000; stroke-width: 1.2"/>
    <path d="M 90.878515 125.2924 
L 112.28073 116.30239 
" clip-path="url(#p4e1a826255)" style="fill: none; stroke: #000000; stroke-width: 1.2"/>
    <path d="M 90.878515 125.2924 
L 103.618598 142.630765 
" clip-path="url(#p4e1a826255)" style="fill: none; stroke: #000000; stroke-width: 1.2"/>
    <path d="M 73.679704 79.961547 
L 63.31445 107.939567 
" clip-path="url(#p4e1a826255)" style="fill: none; stroke: #000000; stroke-width: 1.2"/>
    <path d="M 73.679704 79.961547 
L 111.428706 95.848446 
" clip-path="url(#p4e1a826255)" style="fill: none; stroke: #000000; stroke-width: 1.2"/>
    <path d="M 73.679704 79.961547 
L 100.561315 124.124062 
" clip-path="url(#p4e1a826255)" style="fill: none; stroke: #000000; stroke-width: 1.2"/>
    <path d="M 73.679704 79.961547 
L 70.56744 130.610766 
" clip-path="url(#p4e1a826255)" style="fill: none; stroke: #000000; stroke-width: 1.2"/>
    <path d="M 63.31445 107.939567 
L 111.428706 95.848446 
" clip-path="url(#p4e1a826255)" style="fill: none; stroke: #000000; stroke-width: 1.2"/>
    <path d="M 63.31445 107.939567 
L 100.561315 124.124062 
" clip-path="url(#p4e1a826255)" style="fill: none; stroke: #000000; stroke-width: 1.2"/>
    <path d="M 63.31445 107.939567 
L 62.239161 130.385328 
" clip-path="url(#p4e1a826255)" style="fill: none; stroke: #000000; stroke-width: 1.2"/>
    <path d="M 63.31445 107.939567 
L 70.56744 130.610766 
" clip-path="url(#p4e1a826255)" style="fill: none; stroke: #000000; stroke-width: 1.2"/>
    <path d="M 63.31445 107.939567 
L 84.764826 100.398416 
" clip-path="url(#p4e1a826255)" style="fill: none; stroke: #000000; stroke-width: 1.2"/>
    <path d="M 63.31445 107.939567 
L 103.618598 142.630765 
" clip-path="url(#p4e1a826255)" style="fill: none; stroke: #000000; stroke-width: 1.2"/>
    <path d="M 152.261927 115.307142 
L 111.428706 95.848446 
" clip-path="url(#p4e1a826255)" style="fill: none; stroke: #000000; stroke-width: 1.2"/>
    <path d="M 152.261927 115.307142 
L 139.677782 139.679707 
" clip-path="url(#p4e1a826255)" style="fill: none; stroke: #000000; stroke-width: 1.2"/>
    <path d="M 152.261927 115.307142 
L 100.561315 124.124062 
" clip-path="url(#p4e1a826255)" style="fill: none; stroke: #000000; stroke-width: 1.2"/>
    <path d="M 152.261927 115.307142 
L 139.514678 154.675371 
" clip-path="url(#p4e1a826255)" style="fill: none; stroke: #000000; stroke-width: 1.2"/>
    <path d="M 152.261927 115.307142 
L 177.328957 153.20721 
" clip-path="url(#p4e1a826255)" style="fill: none; stroke: #000000; stroke-width: 1.2"/>
    <path d="M 111.428706 95.848446 
L 139.677782 139.679707 
" clip-path="url(#p4e1a826255)" style="fill: none; stroke: #000000; stroke-width: 1.2"/>
    <path d="M 111.428706 95.848446 
L 100.561315 124.124062 
" clip-path="url(#p4e1a826255)" style="fill: none; stroke: #000000; stroke-width: 1.2"/>
    <path d="M 111.428706 95.848446 
L 103.618598 142.630765 
" clip-path="url(#p4e1a826255)" style="fill: none; stroke: #000000; stroke-width: 1.2"/>
    <path d="M 139.677782 139.679707 
L 100.561315 124.124062 
" clip-path="url(#p4e1a826255)" style="fill: none; stroke: #000000; stroke-width: 1.2"/>
    <path d="M 139.677782 139.679707 
L 123.174424 156.668895 
" clip-path="url(#p4e1a826255)" style="fill: none; stroke: #000000; stroke-width: 1.2"/>
    <path d="M 139.677782 139.679707 
L 139.514678 154.675371 
" clip-path="url(#p4e1a826255)" style="fill: none; stroke: #000000; stroke-width: 1.2"/>
    <path d="M 139.677782 139.679707 
L 103.618598 142.630765 
" clip-path="url(#p4e1a826255)" style="fill: none; stroke: #000000; stroke-width: 1.2"/>
    <path d="M 139.677782 139.679707 
L 157.733471 129.716077 
" clip-path="url(#p4e1a826255)" style="fill: none; stroke: #000000; stroke-width: 1.2"/>
    <path d="M 139.677782 139.679707 
L 177.328957 153.20721 
" clip-path="url(#p4e1a826255)" style="fill: none; stroke: #000000; stroke-width: 1.2"/>
    <path d="M 100.561315 124.124062 
L 94.319799 143.805452 
" clip-path="url(#p4e1a826255)" style="fill: none; stroke: #000000; stroke-width: 1.2"/>
    <path d="M 100.561315 124.124062 
L 70.56744 130.610766 
" clip-path="url(#p4e1a826255)" style="fill: none; stroke: #000000; stroke-width: 1.2"/>
    <path d="M 100.561315 124.124062 
L 139.514678 154.675371 
" clip-path="url(#p4e1a826255)" style="fill: none; stroke: #000000; stroke-width: 1.2"/>
    <path d="M 100.561315 124.124062 
L 103.618598 142.630765 
" clip-path="url(#p4e1a826255)" style="fill: none; stroke: #000000; stroke-width: 1.2"/>
    <path d="M 100.561315 124.124062 
L 121.166764 114.864061 
" clip-path="url(#p4e1a826255)" style="fill: none; stroke: #000000; stroke-width: 1.2"/>
    <path d="M 62.239161 130.385328 
L 74.560463 100.126524 
" clip-path="url(#p4e1a826255)" style="fill: none; stroke: #000000; stroke-width: 1.2"/>
    <path d="M 62.239161 130.385328 
L 94.319799 143.805452 
" clip-path="url(#p4e1a826255)" style="fill: none; stroke: #000000; stroke-width: 1.2"/>
    <path d="M 62.239161 130.385328 
L 112.28073 116.30239 
" clip-path="url(#p4e1a826255)" style="fill: none; stroke: #000000; stroke-width: 1.2"/>
    <path d="M 62.239161 130.385328 
L 84.764826 100.398416 
" clip-path="url(#p4e1a826255)" style="fill: none; stroke: #000000; stroke-width: 1.2"/>
    <path d="M 62.239161 130.385328 
L 103.618598 142.630765 
" clip-path="url(#p4e1a826255)" style="fill: none; stroke: #000000; stroke-width: 1.2"/>
    <path d="M 74.560463 100.126524 
L 94.319799 143.805452 
" clip-path="url(#p4e1a826255)" style="fill: none; stroke: #000000; stroke-width: 1.2"/>
    <path d="M 74.560463 100.126524 
L 112.28073 116.30239 
" clip-path="url(#p4e1a826255)" style="fill: none; stroke: #000000; stroke-width: 1.2"/>
    <path d="M 74.560463 100.126524 
L 70.56744 130.610766 
" clip-path="url(#p4e1a826255)" style="fill: none; stroke: #000000; stroke-width: 1.2"/>
    <path d="M 74.560463 100.126524 
L 121.166764 114.864061 
" clip-path="url(#p4e1a826255)" style="fill: none; stroke: #000000; stroke-width: 1.2"/>
    <path d="M 123.174424 156.668895 
L 94.319799 143.805452 
" clip-path="url(#p4e1a826255)" style="fill: none; stroke: #000000; stroke-width: 1.2"/>
    <path d="M 123.174424 156.668895 
L 145.663242 127.567504 
" clip-path="url(#p4e1a826255)" style="fill: none; stroke: #000000; stroke-width: 1.2"/>
    <path d="M 123.174424 156.668895 
L 112.28073 116.30239 
" clip-path="url(#p4e1a826255)" style="fill: none; stroke: #000000; stroke-width: 1.2"/>
    <path d="M 123.174424 156.668895 
L 103.618598 142.630765 
" clip-path="url(#p4e1a826255)" style="fill: none; stroke: #000000; stroke-width: 1.2"/>
    <path d="M 123.174424 156.668895 
L 157.733471 129.716077 
" clip-path="url(#p4e1a826255)" style="fill: none; stroke: #000000; stroke-width: 1.2"/>
    <path d="M 94.319799 143.805452 
L 145.663242 127.567504 
" clip-path="url(#p4e1a826255)" style="fill: none; stroke: #000000; stroke-width: 1.2"/>
    <path d="M 94.319799 143.805452 
L 112.28073 116.30239 
" clip-path="url(#p4e1a826255)" style="fill: none; stroke: #000000; stroke-width: 1.2"/>
    <path d="M 94.319799 143.805452 
L 70.56744 130.610766 
" clip-path="url(#p4e1a826255)" style="fill: none; stroke: #000000; stroke-width: 1.2"/>
    <path d="M 94.319799 143.805452 
L 139.514678 154.675371 
" clip-path="url(#p4e1a826255)" style="fill: none; stroke: #000000; stroke-width: 1.2"/>
    <path d="M 94.319799 143.805452 
L 121.166764 114.864061 
" clip-path="url(#p4e1a826255)" style="fill: none; stroke: #000000; stroke-width: 1.2"/>
    <path d="M 145.663242 127.567504 
L 112.28073 116.30239 
" clip-path="url(#p4e1a826255)" style="fill: none; stroke: #000000; stroke-width: 1.2"/>
    <path d="M 145.663242 127.567504 
L 139.514678 154.675371 
" clip-path="url(#p4e1a826255)" style="fill: none; stroke: #000000; stroke-width: 1.2"/>
    <path d="M 145.663242 127.567504 
L 121.166764 114.864061 
" clip-path="url(#p4e1a826255)" style="fill: none; stroke: #000000; stroke-width: 1.2"/>
    <path d="M 112.28073 116.30239 
L 84.764826 100.398416 
" clip-path="url(#p4e1a826255)" style="fill: none; stroke: #000000; stroke-width: 1.2"/>
    <path d="M 112.28073 116.30239 
L 103.618598 142.630765 
" clip-path="url(#p4e1a826255)" style="fill: none; stroke: #000000; stroke-width: 1.2"/>
    <path d="M 112.28073 116.30239 
L 157.733471 129.716077 
" clip-path="url(#p4e1a826255)" style="fill: none; stroke: #000000; stroke-width: 1.2"/>
    <path d="M 70.56744 130.610766 
L 84.764826 100.398416 
" clip-path="url(#p4e1a826255)" style="fill: none; stroke: #000000; stroke-width: 1.2"/>
    <path d="M 70.56744 130.610766 
L 103.618598 142.630765 
" clip-path="url(#p4e1a826255)" style="fill: none; stroke: #000000; stroke-width: 1.2"/>
    <path d="M 70.56744 130.610766 
L 121.166764 114.864061 
" clip-path="url(#p4e1a826255)" style="fill: none; stroke: #000000; stroke-width: 1.2"/>
    <path d="M 84.764826 100.398416 
L 103.618598 142.630765 
" clip-path="url(#p4e1a826255)" style="fill: none; stroke: #000000; stroke-width: 1.2"/>
    <path d="M 84.764826 100.398416 
L 121.166764 114.864061 
" clip-path="url(#p4e1a826255)" style="fill: none; stroke: #000000; stroke-width: 1.2"/>
    <path d="M 139.514678 154.675371 
L 103.618598 142.630765 
" clip-path="url(#p4e1a826255)" style="fill: none; stroke: #000000; stroke-width: 1.2"/>
    <path d="M 139.514678 154.675371 
L 157.733471 129.716077 
" clip-path="url(#p4e1a826255)" style="fill: none; stroke: #000000; stroke-width: 1.2"/>
    <path d="M 139.514678 154.675371 
L 121.166764 114.864061 
" clip-path="url(#p4e1a826255)" style="fill: none; stroke: #000000; stroke-width: 1.2"/>
    <path d="M 139.514678 154.675371 
L 177.328957 153.20721 
" clip-path="url(#p4e1a826255)" style="fill: none; stroke: #000000; stroke-width: 1.2"/>
    <path d="M 103.618598 142.630765 
L 157.733471 129.716077 
" clip-path="url(#p4e1a826255)" style="fill: none; stroke: #000000; stroke-width: 1.2"/>
    <path d="M 103.618598 142.630765 
L 121.166764 114.864061 
" clip-path="url(#p4e1a826255)" style="fill: none; stroke: #000000; stroke-width: 1.2"/>
    <path d="M 157.733471 129.716077 
L 121.166764 114.864061 
" clip-path="url(#p4e1a826255)" style="fill: none; stroke: #000000; stroke-width: 1.2"/>
    <path d="M 157.733471 129.716077 
L 177.328957 153.20721 
" clip-path="url(#p4e1a826255)" style="fill: none; stroke: #000000; stroke-width: 1.2"/>
    <path d="M 182.270883 237.076364 
L 194.064699 192.561341 
" clip-path="url(#p4e1a826255)" style="fill: none; stroke: #000000; stroke-width: 1.2"/>
    <path d="M 215.863329 223.374475 
L 194.064699 192.561341 
" clip-path="url(#p4e1a826255)" style="fill: none; stroke: #000000; stroke-width: 1.2"/>
    <path d="M 239.831405 192.851531 
L 194.064699 192.561341 
" clip-path="url(#p4e1a826255)" style="fill: none; stroke: #000000; stroke-width: 1.2"/>
    <path d="M 221.253 139.804713 
L 177.328957 153.20721 
" clip-path="url(#p4e1a826255)" style="fill: none; stroke: #000000; stroke-width: 1.2"/>
    <path d="M 194.064699 192.561341 
L 177.328957 153.20721 
" clip-path="url(#p4e1a826255)" style="fill: none; stroke: #000000; stroke-width: 1.2"/>
   </g>
   <g id="PathCollection_1">
    <defs>
     <path id="C0_0_35cf949486" d="M 0 8.944272 
C 2.372049 8.944272 4.647264 8.001847 6.324555 6.324555 
C 8.001847 4.647264 8.944272 2.372049 8.944272 -0 
C 8.944272 -2.372049 8.001847 -4.647264 6.324555 -6.324555 
C 4.647264 -8.001847 2.372049 -8.944272 0 -8.944272 
C -2.372049 -8.944272 -4.647264 -8.001847 -6.324555 -6.324555 
C -8.001847 -4.647264 -8.944272 -2.372049 -8.944272 0 
C -8.944272 2.372049 -8.001847 4.647264 -6.324555 6.324555 
C -4.647264 8.001847 -2.372049 8.944272 0 8.944272 
z
"/>
    </defs>
    <g clip-path="url(#p4e1a826255)">
     <use xlink:href="#C0_0_35cf949486" x="85.536406" y="73.267864" style="fill: #e06633; stroke: #e06633; stroke-width: 0.5"/>
    </g>
    <g clip-path="url(#p4e1a826255)">
     <use xlink:href="#C0_0_35cf949486" x="83.623387" y="56.51011" style="fill: #e06633; stroke: #e06633; stroke-width: 0.5"/>
    </g>
    <g clip-path="url(#p4e1a826255)">
     <use xlink:href="#C0_0_35cf949486" x="157.587984" y="99.93856" style="fill: #e06633; stroke: #e06633; stroke-width: 0.5"/>
    </g>
    <g clip-path="url(#p4e1a826255)">
     <use xlink:href="#C0_0_35cf949486" x="121.115737" y="85.04256" style="fill: #e06633; stroke: #e06633; stroke-width: 0.5"/>
    </g>
    <g clip-path="url(#p4e1a826255)">
     <use xlink:href="#C0_0_35cf949486" x="151.32014" y="79.19052" style="fill: #e06633; stroke: #e06633; stroke-width: 0.5"/>
    </g>
    <g clip-path="url(#p4e1a826255)">
     <use xlink:href="#C0_0_35cf949486" x="118.54953" y="67.030889" style="fill: #e06633; stroke: #e06633; stroke-width: 0.5"/>
    </g>
    <g clip-path="url(#p4e1a826255)">
     <use xlink:href="#C0_0_35cf949486" x="98.434593" y="70.412929" style="fill: #e06633; stroke: #e06633; stroke-width: 0.5"/>
    </g>
    <g clip-path="url(#p4e1a826255)">
     <use xlink:href="#C0_0_35cf949486" x="97.073989" y="53.803636" style="fill: #e06633; stroke: #e06633; stroke-width: 0.5"/>
    </g>
    <g clip-path="url(#p4e1a826255)">
     <use xlink:href="#C0_0_35cf949486" x="166.847017" y="98.9436" style="fill: #e06633; stroke: #e06633; stroke-width: 0.5"/>
    </g>
    <g clip-path="url(#p4e1a826255)">
     <use xlink:href="#C0_0_35cf949486" x="132.248303" y="86.948184" style="fill: #e06633; stroke: #e06633; stroke-width: 0.5"/>
    </g>
    <g clip-path="url(#p4e1a826255)">
     <use xlink:href="#C0_0_35cf949486" x="160.469447" y="80.300528" style="fill: #e06633; stroke: #e06633; stroke-width: 0.5"/>
    </g>
    <g clip-path="url(#p4e1a826255)">
     <use xlink:href="#C0_0_35cf949486" x="129.330008" y="68.99243" style="fill: #e06633; stroke: #e06633; stroke-width: 0.5"/>
    </g>
    <g clip-path="url(#p4e1a826255)">
     <use xlink:href="#C0_0_35cf949486" x="64.822182" y="81.273707" style="fill: #e06633; stroke: #e06633; stroke-width: 0.5"/>
    </g>
    <g clip-path="url(#p4e1a826255)">
     <use xlink:href="#C0_0_35cf949486" x="55.368595" y="109.957035" style="fill: #e06633; stroke: #e06633; stroke-width: 0.5"/>
    </g>
    <g clip-path="url(#p4e1a826255)">
     <use xlink:href="#C0_0_35cf949486" x="137.128441" y="108.318567" style="fill: #e06633; stroke: #e06633; stroke-width: 0.5"/>
    </g>
    <g clip-path="url(#p4e1a826255)">
     <use xlink:href="#C0_0_35cf949486" x="102.408672" y="96.886181" style="fill: #e06633; stroke: #e06633; stroke-width: 0.5"/>
    </g>
    <g clip-path="url(#p4e1a826255)">
     <use xlink:href="#C0_0_35cf949486" x="122.97081" y="139.633103" style="fill: #e06633; stroke: #e06633; stroke-width: 0.5"/>
    </g>
    <g clip-path="url(#p4e1a826255)">
     <use xlink:href="#C0_0_35cf949486" x="90.878515" y="125.2924" style="fill: #e06633; stroke: #e06633; stroke-width: 0.5"/>
    </g>
    <g clip-path="url(#p4e1a826255)">
     <use xlink:href="#C0_0_35cf949486" x="73.679704" y="79.961547" style="fill: #e06633; stroke: #e06633; stroke-width: 0.5"/>
    </g>
    <g clip-path="url(#p4e1a826255)">
     <use xlink:href="#C0_0_35cf949486" x="63.31445" y="107.939567" style="fill: #e06633; stroke: #e06633; stroke-width: 0.5"/>
    </g>
    <g clip-path="url(#p4e1a826255)">
     <use xlink:href="#C0_0_35cf949486" x="152.261927" y="115.307142" style="fill: #e06633; stroke: #e06633; stroke-width: 0.5"/>
    </g>
    <g clip-path="url(#p4e1a826255)">
     <use xlink:href="#C0_0_35cf949486" x="111.428706" y="95.848446" style="fill: #e06633; stroke: #e06633; stroke-width: 0.5"/>
    </g>
    <g clip-path="url(#p4e1a826255)">
     <use xlink:href="#C0_0_35cf949486" x="139.677782" y="139.679707" style="fill: #e06633; stroke: #e06633; stroke-width: 0.5"/>
    </g>
    <g clip-path="url(#p4e1a826255)">
     <use xlink:href="#C0_0_35cf949486" x="100.561315" y="124.124062" style="fill: #e06633; stroke: #e06633; stroke-width: 0.5"/>
    </g>
    <g clip-path="url(#p4e1a826255)">
     <use xlink:href="#C0_0_35cf949486" x="62.239161" y="130.385328" style="fill: #e06633; stroke: #e06633; stroke-width: 0.5"/>
    </g>
    <g clip-path="url(#p4e1a826255)">
     <use xlink:href="#C0_0_35cf949486" x="74.560463" y="100.126524" style="fill: #e06633; stroke: #e06633; stroke-width: 0.5"/>
    </g>
    <g clip-path="url(#p4e1a826255)">
     <use xlink:href="#C0_0_35cf949486" x="123.174424" y="156.668895" style="fill: #e06633; stroke: #e06633; stroke-width: 0.5"/>
    </g>
    <g clip-path="url(#p4e1a826255)">
     <use xlink:href="#C0_0_35cf949486" x="94.319799" y="143.805452" style="fill: #e06633; stroke: #e06633; stroke-width: 0.5"/>
    </g>
    <g clip-path="url(#p4e1a826255)">
     <use xlink:href="#C0_0_35cf949486" x="145.663242" y="127.567504" style="fill: #e06633; stroke: #e06633; stroke-width: 0.5"/>
    </g>
    <g clip-path="url(#p4e1a826255)">
     <use xlink:href="#C0_0_35cf949486" x="112.28073" y="116.30239" style="fill: #e06633; stroke: #e06633; stroke-width: 0.5"/>
    </g>
    <g clip-path="url(#p4e1a826255)">
     <use xlink:href="#C0_0_35cf949486" x="70.56744" y="130.610766" style="fill: #e06633; stroke: #e06633; stroke-width: 0.5"/>
    </g>
    <g clip-path="url(#p4e1a826255)">
     <use xlink:href="#C0_0_35cf949486" x="84.764826" y="100.398416" style="fill: #e06633; stroke: #e06633; stroke-width: 0.5"/>
    </g>
    <g clip-path="url(#p4e1a826255)">
     <use xlink:href="#C0_0_35cf949486" x="139.514678" y="154.675371" style="fill: #e06633; stroke: #e06633; stroke-width: 0.5"/>
    </g>
    <g clip-path="url(#p4e1a826255)">
     <use xlink:href="#C0_0_35cf949486" x="103.618598" y="142.630765" style="fill: #e06633; stroke: #e06633; stroke-width: 0.5"/>
    </g>
    <g clip-path="url(#p4e1a826255)">
     <use xlink:href="#C0_0_35cf949486" x="157.733471" y="129.716077" style="fill: #e06633; stroke: #e06633; stroke-width: 0.5"/>
    </g>
    <g clip-path="url(#p4e1a826255)">
     <use xlink:href="#C0_0_35cf949486" x="121.166764" y="114.864061" style="fill: #e06633; stroke: #e06633; stroke-width: 0.5"/>
    </g>
    <g clip-path="url(#p4e1a826255)">
     <use xlink:href="#C0_0_35cf949486" x="182.270883" y="237.076364" style="fill: #bfbfbf; stroke: #bfbfbf; stroke-width: 0.5"/>
    </g>
    <g clip-path="url(#p4e1a826255)">
     <use xlink:href="#C0_0_35cf949486" x="215.863329" y="223.374475" style="fill: #bfbfbf; stroke: #bfbfbf; stroke-width: 0.5"/>
    </g>
    <g clip-path="url(#p4e1a826255)">
     <use xlink:href="#C0_0_35cf949486" x="239.831405" y="192.851531" style="fill: #bfbfbf; stroke: #bfbfbf; stroke-width: 0.5"/>
    </g>
    <g clip-path="url(#p4e1a826255)">
     <use xlink:href="#C0_0_35cf949486" x="221.253" y="139.804713" style="fill: #bfbfbf; stroke: #bfbfbf; stroke-width: 0.5"/>
    </g>
    <g clip-path="url(#p4e1a826255)">
     <use xlink:href="#C0_0_35cf949486" x="194.064699" y="192.561341" style="fill: #666666; stroke: #666666; stroke-width: 0.5"/>
    </g>
    <g clip-path="url(#p4e1a826255)">
     <use xlink:href="#C0_0_35cf949486" x="177.328957" y="153.20721" style="fill: #b2b200; stroke: #b2b200; stroke-width: 0.5"/>
    </g>
   </g>
   <g id="text_1">
    <!-- CH4Fe48S -->
    <g transform="translate(128.312639 -1.487067) scale(0.1 -0.1)">
     <defs>
      <path id="DejaVuSans-43" d="M 4122 4306 
L 4122 3641 
Q 3803 3938 3442 4084 
Q 3081 4231 2675 4231 
Q 1875 4231 1450 3742 
Q 1025 3253 1025 2328 
Q 1025 1406 1450 917 
Q 1875 428 2675 428 
Q 3081 428 3442 575 
Q 3803 722 4122 1019 
L 4122 359 
Q 3791 134 3420 21 
Q 3050 -91 2638 -91 
Q 1578 -91 968 557 
Q 359 1206 359 2328 
Q 359 3453 968 4101 
Q 1578 4750 2638 4750 
Q 3056 4750 3426 4639 
Q 3797 4528 4122 4306 
z
" transform="scale(0.015625)"/>
      <path id="DejaVuSans-48" d="M 628 4666 
L 1259 4666 
L 1259 2753 
L 3553 2753 
L 3553 4666 
L 4184 4666 
L 4184 0 
L 3553 0 
L 3553 2222 
L 1259 2222 
L 1259 0 
L 628 0 
L 628 4666 
z
" transform="scale(0.015625)"/>
      <path id="DejaVuSans-34" d="M 2419 4116 
L 825 1625 
L 2419 1625 
L 2419 4116 
z
M 2253 4666 
L 3047 4666 
L 3047 1625 
L 3713 1625 
L 3713 1100 
L 3047 1100 
L 3047 0 
L 2419 0 
L 2419 1100 
L 313 1100 
L 313 1709 
L 2253 4666 
z
" transform="scale(0.015625)"/>
      <path id="DejaVuSans-46" d="M 628 4666 
L 3309 4666 
L 3309 4134 
L 1259 4134 
L 1259 2759 
L 3109 2759 
L 3109 2228 
L 1259 2228 
L 1259 0 
L 628 0 
L 628 4666 
z
" transform="scale(0.015625)"/>
      <path id="DejaVuSans-65" d="M 3597 1894 
L 3597 1613 
L 953 1613 
Q 991 1019 1311 708 
Q 1631 397 2203 397 
Q 2534 397 2845 478 
Q 3156 559 3463 722 
L 3463 178 
Q 3153 47 2828 -22 
Q 2503 -91 2169 -91 
Q 1331 -91 842 396 
Q 353 884 353 1716 
Q 353 2575 817 3079 
Q 1281 3584 2069 3584 
Q 2775 3584 3186 3129 
Q 3597 2675 3597 1894 
z
M 3022 2063 
Q 3016 2534 2758 2815 
Q 2500 3097 2075 3097 
Q 1594 3097 1305 2825 
Q 1016 2553 972 2059 
L 3022 2063 
z
" transform="scale(0.015625)"/>
      <path id="DejaVuSans-38" d="M 2034 2216 
Q 1584 2216 1326 1975 
Q 1069 1734 1069 1313 
Q 1069 891 1326 650 
Q 1584 409 2034 409 
Q 2484 409 2743 651 
Q 3003 894 3003 1313 
Q 3003 1734 2745 1975 
Q 2488 2216 2034 2216 
z
M 1403 2484 
Q 997 2584 770 2862 
Q 544 3141 544 3541 
Q 544 4100 942 4425 
Q 1341 4750 2034 4750 
Q 2731 4750 3128 4425 
Q 3525 4100 3525 3541 
Q 3525 3141 3298 2862 
Q 3072 2584 2669 2484 
Q 3125 2378 3379 2068 
Q 3634 1759 3634 1313 
Q 3634 634 3220 271 
Q 2806 -91 2034 -91 
Q 1263 -91 848 271 
Q 434 634 434 1313 
Q 434 1759 690 2068 
Q 947 2378 1403 2484 
z
M 1172 3481 
Q 1172 3119 1398 2916 
Q 1625 2713 2034 2713 
Q 2441 2713 2670 2916 
Q 2900 3119 2900 3481 
Q 2900 3844 2670 4047 
Q 2441 4250 2034 4250 
Q 1625 4250 1398 4047 
Q 1172 3844 1172 3481 
z
" transform="scale(0.015625)"/>
      <path id="DejaVuSans-53" d="M 3425 4513 
L 3425 3897 
Q 3066 4069 2747 4153 
Q 2428 4238 2131 4238 
Q 1616 4238 1336 4038 
Q 1056 3838 1056 3469 
Q 1056 3159 1242 3001 
Q 1428 2844 1947 2747 
L 2328 2669 
Q 3034 2534 3370 2195 
Q 3706 1856 3706 1288 
Q 3706 609 3251 259 
Q 2797 -91 1919 -91 
Q 1588 -91 1214 -16 
Q 841 59 441 206 
L 441 856 
Q 825 641 1194 531 
Q 1563 422 1919 422 
Q 2459 422 2753 634 
Q 3047 847 3047 1241 
Q 3047 1584 2836 1778 
Q 2625 1972 2144 2069 
L 1759 2144 
Q 1053 2284 737 2584 
Q 422 2884 422 3419 
Q 422 4038 858 4394 
Q 1294 4750 2059 4750 
Q 2388 4750 2728 4690 
Q 3069 4631 3425 4513 
z
" transform="scale(0.015625)"/>
     </defs>
     <use xlink:href="#DejaVuSans-43"/>
     <use xlink:href="#DejaVuSans-48" transform="translate(69.824219 0)"/>
     <use xlink:href="#DejaVuSans-34" transform="translate(145.019531 0)"/>
     <use xlink:href="#DejaVuSans-46" transform="translate(208.642578 0)"/>
     <use xlink:href="#DejaVuSans-65" transform="translate(260.662109 0)"/>
     <use xlink:href="#DejaVuSans-34" transform="translate(322.185547 0)"/>
     <use xlink:href="#DejaVuSans-38" transform="translate(385.808594 0)"/>
     <use xlink:href="#DejaVuSans-53" transform="translate(449.431641 0)"/>
    </g>
    <!-- Error: -8.33 eV -->
    <g transform="translate(128.312639 9.710746) scale(0.1 -0.1)">
     <defs>
      <path id="DejaVuSans-45" d="M 628 4666 
L 3578 4666 
L 3578 4134 
L 1259 4134 
L 1259 2753 
L 3481 2753 
L 3481 2222 
L 1259 2222 
L 1259 531 
L 3634 531 
L 3634 0 
L 628 0 
L 628 4666 
z
" transform="scale(0.015625)"/>
      <path id="DejaVuSans-72" d="M 2631 2963 
Q 2534 3019 2420 3045 
Q 2306 3072 2169 3072 
Q 1681 3072 1420 2755 
Q 1159 2438 1159 1844 
L 1159 0 
L 581 0 
L 581 3500 
L 1159 3500 
L 1159 2956 
Q 1341 3275 1631 3429 
Q 1922 3584 2338 3584 
Q 2397 3584 2469 3576 
Q 2541 3569 2628 3553 
L 2631 2963 
z
" transform="scale(0.015625)"/>
      <path id="DejaVuSans-6f" d="M 1959 3097 
Q 1497 3097 1228 2736 
Q 959 2375 959 1747 
Q 959 1119 1226 758 
Q 1494 397 1959 397 
Q 2419 397 2687 759 
Q 2956 1122 2956 1747 
Q 2956 2369 2687 2733 
Q 2419 3097 1959 3097 
z
M 1959 3584 
Q 2709 3584 3137 3096 
Q 3566 2609 3566 1747 
Q 3566 888 3137 398 
Q 2709 -91 1959 -91 
Q 1206 -91 779 398 
Q 353 888 353 1747 
Q 353 2609 779 3096 
Q 1206 3584 1959 3584 
z
" transform="scale(0.015625)"/>
      <path id="DejaVuSans-3a" d="M 750 794 
L 1409 794 
L 1409 0 
L 750 0 
L 750 794 
z
M 750 3309 
L 1409 3309 
L 1409 2516 
L 750 2516 
L 750 3309 
z
" transform="scale(0.015625)"/>
      <path id="DejaVuSans-20" transform="scale(0.015625)"/>
      <path id="DejaVuSans-2d" d="M 313 2009 
L 1997 2009 
L 1997 1497 
L 313 1497 
L 313 2009 
z
" transform="scale(0.015625)"/>
      <path id="DejaVuSans-2e" d="M 684 794 
L 1344 794 
L 1344 0 
L 684 0 
L 684 794 
z
" transform="scale(0.015625)"/>
      <path id="DejaVuSans-33" d="M 2597 2516 
Q 3050 2419 3304 2112 
Q 3559 1806 3559 1356 
Q 3559 666 3084 287 
Q 2609 -91 1734 -91 
Q 1441 -91 1130 -33 
Q 819 25 488 141 
L 488 750 
Q 750 597 1062 519 
Q 1375 441 1716 441 
Q 2309 441 2620 675 
Q 2931 909 2931 1356 
Q 2931 1769 2642 2001 
Q 2353 2234 1838 2234 
L 1294 2234 
L 1294 2753 
L 1863 2753 
Q 2328 2753 2575 2939 
Q 2822 3125 2822 3475 
Q 2822 3834 2567 4026 
Q 2313 4219 1838 4219 
Q 1578 4219 1281 4162 
Q 984 4106 628 3988 
L 628 4550 
Q 988 4650 1302 4700 
Q 1616 4750 1894 4750 
Q 2613 4750 3031 4423 
Q 3450 4097 3450 3541 
Q 3450 3153 3228 2886 
Q 3006 2619 2597 2516 
z
" transform="scale(0.015625)"/>
      <path id="DejaVuSans-56" d="M 1831 0 
L 50 4666 
L 709 4666 
L 2188 738 
L 3669 4666 
L 4325 4666 
L 2547 0 
L 1831 0 
z
" transform="scale(0.015625)"/>
     </defs>
     <use xlink:href="#DejaVuSans-45"/>
     <use xlink:href="#DejaVuSans-72" transform="translate(63.183594 0)"/>
     <use xlink:href="#DejaVuSans-72" transform="translate(102.546875 0)"/>
     <use xlink:href="#DejaVuSans-6f" transform="translate(141.410156 0)"/>
     <use xlink:href="#DejaVuSans-72" transform="translate(202.591797 0)"/>
     <use xlink:href="#DejaVuSans-3a" transform="translate(241.955078 0)"/>
     <use xlink:href="#DejaVuSans-20" transform="translate(275.646484 0)"/>
     <use xlink:href="#DejaVuSans-2d" transform="translate(307.433594 0)"/>
     <use xlink:href="#DejaVuSans-38" transform="translate(343.517578 0)"/>
     <use xlink:href="#DejaVuSans-2e" transform="translate(407.140625 0)"/>
     <use xlink:href="#DejaVuSans-33" transform="translate(438.927734 0)"/>
     <use xlink:href="#DejaVuSans-33" transform="translate(502.550781 0)"/>
     <use xlink:href="#DejaVuSans-20" transform="translate(566.173828 0)"/>
     <use xlink:href="#DejaVuSans-65" transform="translate(597.960938 0)"/>
     <use xlink:href="#DejaVuSans-56" transform="translate(659.484375 0)"/>
    </g>
   </g>
  </g>
 </g>
 <defs>
  <clipPath id="p4e1a826255">
   <rect x="36" y="34.56" width="223.2" height="221.76"/>
  </clipPath>
 </defs>
</svg>
