<?xml version="1.0" encoding="utf-8" standalone="no"?>
<!DOCTYPE svg PUBLIC "-//W3C//DTD SVG 1.1//EN"
  "http://www.w3.org/Graphics/SVG/1.1/DTD/svg11.dtd">
<svg xmlns:xlink="http://www.w3.org/1999/xlink" width="288pt" height="288pt" viewBox="0 0 288 288" xmlns="http://www.w3.org/2000/svg" version="1.1">
 <metadata>
  <rdf:RDF xmlns:dc="http://purl.org/dc/elements/1.1/" xmlns:cc="http://creativecommons.org/ns#" xmlns:rdf="http://www.w3.org/1999/02/22-rdf-syntax-ns#">
   <cc:Work>
    <dc:type rdf:resource="http://purl.org/dc/dcmitype/StillImage"/>
    <dc:date>2025-05-14T13:02:45.409219</dc:date>
    <dc:format>image/svg+xml</dc:format>
    <dc:creator>
     <cc:Agent>
      <dc:title>Matplotlib v3.10.1, https://matplotlib.org/</dc:title>
     </cc:Agent>
    </dc:creator>
   </cc:Work>
  </rdf:RDF>
 </metadata>
 <defs>
  <style type="text/css">*{stroke-linejoin: round; stroke-linecap: butt}</style>
 </defs>
 <g id="figure_1">
  <g id="patch_1">
   <path d="M 0 288 
L 288 288 
L 288 0 
L 0 0 
z
" style="fill: #ffffff"/>
  </g>
  <g id="axes_1">
   <g id="LineCollection_1">
    <path d="M 121.382041 141.666192 
L 123.009596 104.669125 
" clip-path="url(#p9d8452ea45)" style="fill: none; stroke: #000000; stroke-width: 1.2"/>
    <path d="M 121.382041 141.666192 
L 140.092623 171.080757 
" clip-path="url(#p9d8452ea45)" style="fill: none; stroke: #000000; stroke-width: 1.2"/>
    <path d="M 121.382041 141.666192 
L 100.871175 152.322979 
" clip-path="url(#p9d8452ea45)" style="fill: none; stroke: #000000; stroke-width: 1.2"/>
    <path d="M 121.382041 141.666192 
L 146.112829 161.503383 
" clip-path="url(#p9d8452ea45)" style="fill: none; stroke: #000000; stroke-width: 1.2"/>
    <path d="M 121.382041 141.666192 
L 106.119932 159.867301 
" clip-path="url(#p9d8452ea45)" style="fill: none; stroke: #000000; stroke-width: 1.2"/>
    <path d="M 151.547505 83.258964 
L 148.505643 53.803636 
" clip-path="url(#p9d8452ea45)" style="fill: none; stroke: #000000; stroke-width: 1.2"/>
    <path d="M 151.547505 83.258964 
L 123.009596 104.669125 
" clip-path="url(#p9d8452ea45)" style="fill: none; stroke: #000000; stroke-width: 1.2"/>
    <path d="M 151.547505 83.258964 
L 169.992324 53.962356 
" clip-path="url(#p9d8452ea45)" style="fill: none; stroke: #000000; stroke-width: 1.2"/>
    <path d="M 151.547505 83.258964 
L 182.932429 93.29733 
" clip-path="url(#p9d8452ea45)" style="fill: none; stroke: #000000; stroke-width: 1.2"/>
    <path d="M 151.547505 83.258964 
L 134.874406 55.421698 
" clip-path="url(#p9d8452ea45)" style="fill: none; stroke: #000000; stroke-width: 1.2"/>
    <path d="M 151.547505 83.258964 
L 137.540939 111.285883 
" clip-path="url(#p9d8452ea45)" style="fill: none; stroke: #000000; stroke-width: 1.2"/>
    <path d="M 81.52868 186.326862 
L 60.764864 160.847649 
" clip-path="url(#p9d8452ea45)" style="fill: none; stroke: #000000; stroke-width: 1.2"/>
    <path d="M 81.52868 186.326862 
L 55.368595 175.251378 
" clip-path="url(#p9d8452ea45)" style="fill: none; stroke: #000000; stroke-width: 1.2"/>
    <path d="M 81.52868 186.326862 
L 100.871175 152.322979 
" clip-path="url(#p9d8452ea45)" style="fill: none; stroke: #000000; stroke-width: 1.2"/>
    <path d="M 81.52868 186.326862 
L 93.137231 224.069768 
" clip-path="url(#p9d8452ea45)" style="fill: none; stroke: #000000; stroke-width: 1.2"/>
    <path d="M 81.52868 186.326862 
L 56.360934 192.357509 
" clip-path="url(#p9d8452ea45)" style="fill: none; stroke: #000000; stroke-width: 1.2"/>
    <path d="M 81.52868 186.326862 
L 63.590886 206.711514 
" clip-path="url(#p9d8452ea45)" style="fill: none; stroke: #000000; stroke-width: 1.2"/>
    <path d="M 180.889871 122.10346 
L 182.932429 93.29733 
" clip-path="url(#p9d8452ea45)" style="fill: none; stroke: #000000; stroke-width: 1.2"/>
    <path d="M 180.889871 122.10346 
L 176.331373 160.77728 
" clip-path="url(#p9d8452ea45)" style="fill: none; stroke: #000000; stroke-width: 1.2"/>
    <path d="M 180.889871 122.10346 
L 168.291113 96.252721 
" clip-path="url(#p9d8452ea45)" style="fill: none; stroke: #000000; stroke-width: 1.2"/>
    <path d="M 119.210796 234.209842 
L 93.137231 224.069768 
" clip-path="url(#p9d8452ea45)" style="fill: none; stroke: #000000; stroke-width: 1.2"/>
    <path d="M 119.210796 234.209842 
L 145.680685 225.556202 
" clip-path="url(#p9d8452ea45)" style="fill: none; stroke: #000000; stroke-width: 1.2"/>
    <path d="M 119.210796 234.209842 
L 96.294418 212.594443 
" clip-path="url(#p9d8452ea45)" style="fill: none; stroke: #000000; stroke-width: 1.2"/>
    <path d="M 119.210796 234.209842 
L 142.351903 213.398308 
" clip-path="url(#p9d8452ea45)" style="fill: none; stroke: #000000; stroke-width: 1.2"/>
    <path d="M 164.501039 192.300391 
L 140.092623 171.080757 
" clip-path="url(#p9d8452ea45)" style="fill: none; stroke: #000000; stroke-width: 1.2"/>
    <path d="M 164.501039 192.300391 
L 176.331373 160.77728 
" clip-path="url(#p9d8452ea45)" style="fill: none; stroke: #000000; stroke-width: 1.2"/>
    <path d="M 164.501039 192.300391 
L 174.244469 218.531791 
" clip-path="url(#p9d8452ea45)" style="fill: none; stroke: #000000; stroke-width: 1.2"/>
    <path d="M 164.501039 192.300391 
L 145.680685 225.556202 
" clip-path="url(#p9d8452ea45)" style="fill: none; stroke: #000000; stroke-width: 1.2"/>
    <path d="M 164.501039 192.300391 
L 185.80318 162.472184 
" clip-path="url(#p9d8452ea45)" style="fill: none; stroke: #000000; stroke-width: 1.2"/>
    <path d="M 164.501039 192.300391 
L 188.898179 206.269217 
" clip-path="url(#p9d8452ea45)" style="fill: none; stroke: #000000; stroke-width: 1.2"/>
    <path d="M 133.569649 146.393733 
L 140.092623 171.080757 
" clip-path="url(#p9d8452ea45)" style="fill: none; stroke: #000000; stroke-width: 1.2"/>
    <path d="M 133.569649 146.393733 
L 100.871175 152.322979 
" clip-path="url(#p9d8452ea45)" style="fill: none; stroke: #000000; stroke-width: 1.2"/>
    <path d="M 133.569649 146.393733 
L 137.540939 111.285883 
" clip-path="url(#p9d8452ea45)" style="fill: none; stroke: #000000; stroke-width: 1.2"/>
    <path d="M 133.569649 146.393733 
L 146.112829 161.503383 
" clip-path="url(#p9d8452ea45)" style="fill: none; stroke: #000000; stroke-width: 1.2"/>
    <path d="M 133.569649 146.393733 
L 106.119932 159.867301 
" clip-path="url(#p9d8452ea45)" style="fill: none; stroke: #000000; stroke-width: 1.2"/>
    <path d="M 133.569649 146.393733 
L 170.208503 151.840518 
" clip-path="url(#p9d8452ea45)" style="fill: none; stroke: #000000; stroke-width: 1.2"/>
    <path d="M 135.726664 83.164677 
L 148.505643 53.803636 
" clip-path="url(#p9d8452ea45)" style="fill: none; stroke: #000000; stroke-width: 1.2"/>
    <path d="M 135.726664 83.164677 
L 123.009596 104.669125 
" clip-path="url(#p9d8452ea45)" style="fill: none; stroke: #000000; stroke-width: 1.2"/>
    <path d="M 135.726664 83.164677 
L 134.874406 55.421698 
" clip-path="url(#p9d8452ea45)" style="fill: none; stroke: #000000; stroke-width: 1.2"/>
    <path d="M 135.726664 83.164677 
L 137.540939 111.285883 
" clip-path="url(#p9d8452ea45)" style="fill: none; stroke: #000000; stroke-width: 1.2"/>
    <path d="M 135.726664 83.164677 
L 111.053569 61.421643 
" clip-path="url(#p9d8452ea45)" style="fill: none; stroke: #000000; stroke-width: 1.2"/>
    <path d="M 135.726664 83.164677 
L 168.291113 96.252721 
" clip-path="url(#p9d8452ea45)" style="fill: none; stroke: #000000; stroke-width: 1.2"/>
    <path d="M 80.97868 178.594747 
L 60.764864 160.847649 
" clip-path="url(#p9d8452ea45)" style="fill: none; stroke: #000000; stroke-width: 1.2"/>
    <path d="M 80.97868 178.594747 
L 55.368595 175.251378 
" clip-path="url(#p9d8452ea45)" style="fill: none; stroke: #000000; stroke-width: 1.2"/>
    <path d="M 80.97868 178.594747 
L 56.360934 192.357509 
" clip-path="url(#p9d8452ea45)" style="fill: none; stroke: #000000; stroke-width: 1.2"/>
    <path d="M 80.97868 178.594747 
L 63.590886 206.711514 
" clip-path="url(#p9d8452ea45)" style="fill: none; stroke: #000000; stroke-width: 1.2"/>
    <path d="M 80.97868 178.594747 
L 106.119932 159.867301 
" clip-path="url(#p9d8452ea45)" style="fill: none; stroke: #000000; stroke-width: 1.2"/>
    <path d="M 80.97868 178.594747 
L 96.294418 212.594443 
" clip-path="url(#p9d8452ea45)" style="fill: none; stroke: #000000; stroke-width: 1.2"/>
    <path d="M 192.257447 120.554096 
L 182.932429 93.29733 
" clip-path="url(#p9d8452ea45)" style="fill: none; stroke: #000000; stroke-width: 1.2"/>
    <path d="M 192.257447 120.554096 
L 168.291113 96.252721 
" clip-path="url(#p9d8452ea45)" style="fill: none; stroke: #000000; stroke-width: 1.2"/>
    <path d="M 192.257447 120.554096 
L 185.80318 162.472184 
" clip-path="url(#p9d8452ea45)" style="fill: none; stroke: #000000; stroke-width: 1.2"/>
    <path d="M 118.769325 224.745012 
L 93.137231 224.069768 
" clip-path="url(#p9d8452ea45)" style="fill: none; stroke: #000000; stroke-width: 1.2"/>
    <path d="M 118.769325 224.745012 
L 145.680685 225.556202 
" clip-path="url(#p9d8452ea45)" style="fill: none; stroke: #000000; stroke-width: 1.2"/>
    <path d="M 118.769325 224.745012 
L 96.294418 212.594443 
" clip-path="url(#p9d8452ea45)" style="fill: none; stroke: #000000; stroke-width: 1.2"/>
    <path d="M 118.769325 224.745012 
L 142.351903 213.398308 
" clip-path="url(#p9d8452ea45)" style="fill: none; stroke: #000000; stroke-width: 1.2"/>
    <path d="M 167.079956 186.38224 
L 176.331373 160.77728 
" clip-path="url(#p9d8452ea45)" style="fill: none; stroke: #000000; stroke-width: 1.2"/>
    <path d="M 167.079956 186.38224 
L 174.244469 218.531791 
" clip-path="url(#p9d8452ea45)" style="fill: none; stroke: #000000; stroke-width: 1.2"/>
    <path d="M 167.079956 186.38224 
L 146.112829 161.503383 
" clip-path="url(#p9d8452ea45)" style="fill: none; stroke: #000000; stroke-width: 1.2"/>
    <path d="M 167.079956 186.38224 
L 185.80318 162.472184 
" clip-path="url(#p9d8452ea45)" style="fill: none; stroke: #000000; stroke-width: 1.2"/>
    <path d="M 167.079956 186.38224 
L 188.898179 206.269217 
" clip-path="url(#p9d8452ea45)" style="fill: none; stroke: #000000; stroke-width: 1.2"/>
    <path d="M 167.079956 186.38224 
L 142.351903 213.398308 
" clip-path="url(#p9d8452ea45)" style="fill: none; stroke: #000000; stroke-width: 1.2"/>
    <path d="M 188.898179 206.269217 
L 213.538223 205.303046 
" clip-path="url(#p9d8452ea45)" style="fill: none; stroke: #000000; stroke-width: 1.2"/>
    <path d="M 223.729701 237.076364 
L 213.538223 205.303046 
" clip-path="url(#p9d8452ea45)" style="fill: none; stroke: #000000; stroke-width: 1.2"/>
    <path d="M 213.538223 205.303046 
L 206.948373 170.794847 
" clip-path="url(#p9d8452ea45)" style="fill: none; stroke: #000000; stroke-width: 1.2"/>
    <path d="M 213.538223 205.303046 
L 239.831405 212.038067 
" clip-path="url(#p9d8452ea45)" style="fill: none; stroke: #000000; stroke-width: 1.2"/>
    <path d="M 206.948373 170.794847 
L 235.179041 159.413248 
" clip-path="url(#p9d8452ea45)" style="fill: none; stroke: #000000; stroke-width: 1.2"/>
    <path d="M 206.948373 170.794847 
L 170.208503 151.840518 
" clip-path="url(#p9d8452ea45)" style="fill: none; stroke: #000000; stroke-width: 1.2"/>
   </g>
   <g id="PathCollection_1">
    <defs>
     <path id="C0_0_de1cfbba7d" d="M 0 8.944272 
C 2.372049 8.944272 4.647264 8.001847 6.324555 6.324555 
C 8.001847 4.647264 8.944272 2.372049 8.944272 -0 
C 8.944272 -2.372049 8.001847 -4.647264 6.324555 -6.324555 
C 4.647264 -8.001847 2.372049 -8.944272 0 -8.944272 
C -2.372049 -8.944272 -4.647264 -8.001847 -6.324555 -6.324555 
C -8.001847 -4.647264 -8.944272 -2.372049 -8.944272 0 
C -8.944272 2.372049 -8.001847 4.647264 -6.324555 6.324555 
C -4.647264 8.001847 -2.372049 8.944272 0 8.944272 
z
"/>
    </defs>
    <g clip-path="url(#p9d8452ea45)">
     <use xlink:href="#C0_0_de1cfbba7d" x="121.382041" y="141.666192" style="fill: #175487; stroke: #175487; stroke-width: 0.5"/>
    </g>
    <g clip-path="url(#p9d8452ea45)">
     <use xlink:href="#C0_0_de1cfbba7d" x="151.547505" y="83.258964" style="fill: #175487; stroke: #175487; stroke-width: 0.5"/>
    </g>
    <g clip-path="url(#p9d8452ea45)">
     <use xlink:href="#C0_0_de1cfbba7d" x="81.52868" y="186.326862" style="fill: #175487; stroke: #175487; stroke-width: 0.5"/>
    </g>
    <g clip-path="url(#p9d8452ea45)">
     <use xlink:href="#C0_0_de1cfbba7d" x="180.889871" y="122.10346" style="fill: #175487; stroke: #175487; stroke-width: 0.5"/>
    </g>
    <g clip-path="url(#p9d8452ea45)">
     <use xlink:href="#C0_0_de1cfbba7d" x="119.210796" y="234.209842" style="fill: #175487; stroke: #175487; stroke-width: 0.5"/>
    </g>
    <g clip-path="url(#p9d8452ea45)">
     <use xlink:href="#C0_0_de1cfbba7d" x="164.501039" y="192.300391" style="fill: #175487; stroke: #175487; stroke-width: 0.5"/>
    </g>
    <g clip-path="url(#p9d8452ea45)">
     <use xlink:href="#C0_0_de1cfbba7d" x="133.569649" y="146.393733" style="fill: #175487; stroke: #175487; stroke-width: 0.5"/>
    </g>
    <g clip-path="url(#p9d8452ea45)">
     <use xlink:href="#C0_0_de1cfbba7d" x="135.726664" y="83.164677" style="fill: #175487; stroke: #175487; stroke-width: 0.5"/>
    </g>
    <g clip-path="url(#p9d8452ea45)">
     <use xlink:href="#C0_0_de1cfbba7d" x="80.97868" y="178.594747" style="fill: #175487; stroke: #175487; stroke-width: 0.5"/>
    </g>
    <g clip-path="url(#p9d8452ea45)">
     <use xlink:href="#C0_0_de1cfbba7d" x="192.257447" y="120.554096" style="fill: #175487; stroke: #175487; stroke-width: 0.5"/>
    </g>
    <g clip-path="url(#p9d8452ea45)">
     <use xlink:href="#C0_0_de1cfbba7d" x="118.769325" y="224.745012" style="fill: #175487; stroke: #175487; stroke-width: 0.5"/>
    </g>
    <g clip-path="url(#p9d8452ea45)">
     <use xlink:href="#C0_0_de1cfbba7d" x="167.079956" y="186.38224" style="fill: #175487; stroke: #175487; stroke-width: 0.5"/>
    </g>
    <g clip-path="url(#p9d8452ea45)">
     <use xlink:href="#C0_0_de1cfbba7d" x="148.505643" y="53.803636" style="fill: #ff0d0d; stroke: #ff0d0d; stroke-width: 0.5"/>
    </g>
    <g clip-path="url(#p9d8452ea45)">
     <use xlink:href="#C0_0_de1cfbba7d" x="60.764864" y="160.847649" style="fill: #ff0d0d; stroke: #ff0d0d; stroke-width: 0.5"/>
    </g>
    <g clip-path="url(#p9d8452ea45)">
     <use xlink:href="#C0_0_de1cfbba7d" x="123.009596" y="104.669125" style="fill: #ff0d0d; stroke: #ff0d0d; stroke-width: 0.5"/>
    </g>
    <g clip-path="url(#p9d8452ea45)">
     <use xlink:href="#C0_0_de1cfbba7d" x="55.368595" y="175.251378" style="fill: #ff0d0d; stroke: #ff0d0d; stroke-width: 0.5"/>
    </g>
    <g clip-path="url(#p9d8452ea45)">
     <use xlink:href="#C0_0_de1cfbba7d" x="169.992324" y="53.962356" style="fill: #ff0d0d; stroke: #ff0d0d; stroke-width: 0.5"/>
    </g>
    <g clip-path="url(#p9d8452ea45)">
     <use xlink:href="#C0_0_de1cfbba7d" x="140.092623" y="171.080757" style="fill: #ff0d0d; stroke: #ff0d0d; stroke-width: 0.5"/>
    </g>
    <g clip-path="url(#p9d8452ea45)">
     <use xlink:href="#C0_0_de1cfbba7d" x="182.932429" y="93.29733" style="fill: #ff0d0d; stroke: #ff0d0d; stroke-width: 0.5"/>
    </g>
    <g clip-path="url(#p9d8452ea45)">
     <use xlink:href="#C0_0_de1cfbba7d" x="100.871175" y="152.322979" style="fill: #ff0d0d; stroke: #ff0d0d; stroke-width: 0.5"/>
    </g>
    <g clip-path="url(#p9d8452ea45)">
     <use xlink:href="#C0_0_de1cfbba7d" x="176.331373" y="160.77728" style="fill: #ff0d0d; stroke: #ff0d0d; stroke-width: 0.5"/>
    </g>
    <g clip-path="url(#p9d8452ea45)">
     <use xlink:href="#C0_0_de1cfbba7d" x="174.244469" y="218.531791" style="fill: #ff0d0d; stroke: #ff0d0d; stroke-width: 0.5"/>
    </g>
    <g clip-path="url(#p9d8452ea45)">
     <use xlink:href="#C0_0_de1cfbba7d" x="93.137231" y="224.069768" style="fill: #ff0d0d; stroke: #ff0d0d; stroke-width: 0.5"/>
    </g>
    <g clip-path="url(#p9d8452ea45)">
     <use xlink:href="#C0_0_de1cfbba7d" x="145.680685" y="225.556202" style="fill: #ff0d0d; stroke: #ff0d0d; stroke-width: 0.5"/>
    </g>
    <g clip-path="url(#p9d8452ea45)">
     <use xlink:href="#C0_0_de1cfbba7d" x="134.874406" y="55.421698" style="fill: #ff0d0d; stroke: #ff0d0d; stroke-width: 0.5"/>
    </g>
    <g clip-path="url(#p9d8452ea45)">
     <use xlink:href="#C0_0_de1cfbba7d" x="56.360934" y="192.357509" style="fill: #ff0d0d; stroke: #ff0d0d; stroke-width: 0.5"/>
    </g>
    <g clip-path="url(#p9d8452ea45)">
     <use xlink:href="#C0_0_de1cfbba7d" x="137.540939" y="111.285883" style="fill: #ff0d0d; stroke: #ff0d0d; stroke-width: 0.5"/>
    </g>
    <g clip-path="url(#p9d8452ea45)">
     <use xlink:href="#C0_0_de1cfbba7d" x="63.590886" y="206.711514" style="fill: #ff0d0d; stroke: #ff0d0d; stroke-width: 0.5"/>
    </g>
    <g clip-path="url(#p9d8452ea45)">
     <use xlink:href="#C0_0_de1cfbba7d" x="111.053569" y="61.421643" style="fill: #ff0d0d; stroke: #ff0d0d; stroke-width: 0.5"/>
    </g>
    <g clip-path="url(#p9d8452ea45)">
     <use xlink:href="#C0_0_de1cfbba7d" x="146.112829" y="161.503383" style="fill: #ff0d0d; stroke: #ff0d0d; stroke-width: 0.5"/>
    </g>
    <g clip-path="url(#p9d8452ea45)">
     <use xlink:href="#C0_0_de1cfbba7d" x="168.291113" y="96.252721" style="fill: #ff0d0d; stroke: #ff0d0d; stroke-width: 0.5"/>
    </g>
    <g clip-path="url(#p9d8452ea45)">
     <use xlink:href="#C0_0_de1cfbba7d" x="106.119932" y="159.867301" style="fill: #ff0d0d; stroke: #ff0d0d; stroke-width: 0.5"/>
    </g>
    <g clip-path="url(#p9d8452ea45)">
     <use xlink:href="#C0_0_de1cfbba7d" x="185.80318" y="162.472184" style="fill: #ff0d0d; stroke: #ff0d0d; stroke-width: 0.5"/>
    </g>
    <g clip-path="url(#p9d8452ea45)">
     <use xlink:href="#C0_0_de1cfbba7d" x="188.898179" y="206.269217" style="fill: #ff0d0d; stroke: #ff0d0d; stroke-width: 0.5"/>
    </g>
    <g clip-path="url(#p9d8452ea45)">
     <use xlink:href="#C0_0_de1cfbba7d" x="96.294418" y="212.594443" style="fill: #ff0d0d; stroke: #ff0d0d; stroke-width: 0.5"/>
    </g>
    <g clip-path="url(#p9d8452ea45)">
     <use xlink:href="#C0_0_de1cfbba7d" x="142.351903" y="213.398308" style="fill: #ff0d0d; stroke: #ff0d0d; stroke-width: 0.5"/>
    </g>
    <g clip-path="url(#p9d8452ea45)">
     <use xlink:href="#C0_0_de1cfbba7d" x="223.729701" y="237.076364" style="fill: #ff0d0d; stroke: #ff0d0d; stroke-width: 0.5"/>
    </g>
    <g clip-path="url(#p9d8452ea45)">
     <use xlink:href="#C0_0_de1cfbba7d" x="213.538223" y="205.303046" style="fill: #666666; stroke: #666666; stroke-width: 0.5"/>
    </g>
    <g clip-path="url(#p9d8452ea45)">
     <use xlink:href="#C0_0_de1cfbba7d" x="206.948373" y="170.794847" style="fill: #0d0dff; stroke: #0d0dff; stroke-width: 0.5"/>
    </g>
    <g clip-path="url(#p9d8452ea45)">
     <use xlink:href="#C0_0_de1cfbba7d" x="235.179041" y="159.413248" style="fill: #bfbfbf; stroke: #bfbfbf; stroke-width: 0.5"/>
    </g>
    <g clip-path="url(#p9d8452ea45)">
     <use xlink:href="#C0_0_de1cfbba7d" x="170.208503" y="151.840518" style="fill: #bfbfbf; stroke: #bfbfbf; stroke-width: 0.5"/>
    </g>
    <g clip-path="url(#p9d8452ea45)">
     <use xlink:href="#C0_0_de1cfbba7d" x="239.831405" y="212.038067" style="fill: #bfbfbf; stroke: #bfbfbf; stroke-width: 0.5"/>
    </g>
   </g>
   <g id="text_1">
    <g clip-path="url(#p9d8452ea45)">
     <!-- Ir -->
     <g style="fill: #ffffff" transform="translate(116.191103 144.977442) scale(0.12 -0.12)">
      <defs>
       <path id="DejaVuSans-Bold-49" d="M 588 4666 
L 1791 4666 
L 1791 0 
L 588 0 
L 588 4666 
z
" transform="scale(0.015625)"/>
       <path id="DejaVuSans-Bold-72" d="M 3138 2547 
Q 2991 2616 2845 2648 
Q 2700 2681 2553 2681 
Q 2122 2681 1889 2404 
Q 1656 2128 1656 1613 
L 1656 0 
L 538 0 
L 538 3500 
L 1656 3500 
L 1656 2925 
Q 1872 3269 2151 3426 
Q 2431 3584 2822 3584 
Q 2878 3584 2943 3579 
Q 3009 3575 3134 3559 
L 3138 2547 
z
" transform="scale(0.015625)"/>
      </defs>
      <use xlink:href="#DejaVuSans-Bold-49"/>
      <use xlink:href="#DejaVuSans-Bold-72" transform="translate(37.207031 0)"/>
     </g>
    </g>
   </g>
   <g id="text_2">
    <g clip-path="url(#p9d8452ea45)">
     <!-- Ir -->
     <g style="fill: #ffffff" transform="translate(146.356568 86.570214) scale(0.12 -0.12)">
      <use xlink:href="#DejaVuSans-Bold-49"/>
      <use xlink:href="#DejaVuSans-Bold-72" transform="translate(37.207031 0)"/>
     </g>
    </g>
   </g>
   <g id="text_3">
    <g clip-path="url(#p9d8452ea45)">
     <!-- Ir -->
     <g style="fill: #ffffff" transform="translate(76.337743 189.638112) scale(0.12 -0.12)">
      <use xlink:href="#DejaVuSans-Bold-49"/>
      <use xlink:href="#DejaVuSans-Bold-72" transform="translate(37.207031 0)"/>
     </g>
    </g>
   </g>
   <g id="text_4">
    <g clip-path="url(#p9d8452ea45)">
     <!-- Ir -->
     <g style="fill: #ffffff" transform="translate(175.698933 125.41471) scale(0.12 -0.12)">
      <use xlink:href="#DejaVuSans-Bold-49"/>
      <use xlink:href="#DejaVuSans-Bold-72" transform="translate(37.207031 0)"/>
     </g>
    </g>
   </g>
   <g id="text_5">
    <g clip-path="url(#p9d8452ea45)">
     <!-- Ir -->
     <g style="fill: #ffffff" transform="translate(114.019859 237.521092) scale(0.12 -0.12)">
      <use xlink:href="#DejaVuSans-Bold-49"/>
      <use xlink:href="#DejaVuSans-Bold-72" transform="translate(37.207031 0)"/>
     </g>
    </g>
   </g>
   <g id="text_6">
    <g clip-path="url(#p9d8452ea45)">
     <!-- Ir -->
     <g style="fill: #ffffff" transform="translate(159.310101 195.611641) scale(0.12 -0.12)">
      <use xlink:href="#DejaVuSans-Bold-49"/>
      <use xlink:href="#DejaVuSans-Bold-72" transform="translate(37.207031 0)"/>
     </g>
    </g>
   </g>
   <g id="text_7">
    <g clip-path="url(#p9d8452ea45)">
     <!-- Ir -->
     <g style="fill: #ffffff" transform="translate(128.378712 149.704983) scale(0.12 -0.12)">
      <use xlink:href="#DejaVuSans-Bold-49"/>
      <use xlink:href="#DejaVuSans-Bold-72" transform="translate(37.207031 0)"/>
     </g>
    </g>
   </g>
   <g id="text_8">
    <g clip-path="url(#p9d8452ea45)">
     <!-- Ir -->
     <g style="fill: #ffffff" transform="translate(130.535726 86.475927) scale(0.12 -0.12)">
      <use xlink:href="#DejaVuSans-Bold-49"/>
      <use xlink:href="#DejaVuSans-Bold-72" transform="translate(37.207031 0)"/>
     </g>
    </g>
   </g>
   <g id="text_9">
    <g clip-path="url(#p9d8452ea45)">
     <!-- Ir -->
     <g style="fill: #ffffff" transform="translate(75.787743 181.905997) scale(0.12 -0.12)">
      <use xlink:href="#DejaVuSans-Bold-49"/>
      <use xlink:href="#DejaVuSans-Bold-72" transform="translate(37.207031 0)"/>
     </g>
    </g>
   </g>
   <g id="text_10">
    <g clip-path="url(#p9d8452ea45)">
     <!-- Ir -->
     <g style="fill: #ffffff" transform="translate(187.066509 123.865346) scale(0.12 -0.12)">
      <use xlink:href="#DejaVuSans-Bold-49"/>
      <use xlink:href="#DejaVuSans-Bold-72" transform="translate(37.207031 0)"/>
     </g>
    </g>
   </g>
   <g id="text_11">
    <g clip-path="url(#p9d8452ea45)">
     <!-- Ir -->
     <g style="fill: #ffffff" transform="translate(113.578387 228.056262) scale(0.12 -0.12)">
      <use xlink:href="#DejaVuSans-Bold-49"/>
      <use xlink:href="#DejaVuSans-Bold-72" transform="translate(37.207031 0)"/>
     </g>
    </g>
   </g>
   <g id="text_12">
    <g clip-path="url(#p9d8452ea45)">
     <!-- Ir -->
     <g style="fill: #ffffff" transform="translate(161.889018 189.69349) scale(0.12 -0.12)">
      <use xlink:href="#DejaVuSans-Bold-49"/>
      <use xlink:href="#DejaVuSans-Bold-72" transform="translate(37.207031 0)"/>
     </g>
    </g>
   </g>
   <g id="text_13">
    <g clip-path="url(#p9d8452ea45)">
     <!-- O -->
     <g style="fill: #ffffff" transform="translate(143.404706 57.114886) scale(0.12 -0.12)">
      <defs>
       <path id="DejaVuSans-Bold-4f" d="M 2719 3878 
Q 2169 3878 1866 3472 
Q 1563 3066 1563 2328 
Q 1563 1594 1866 1187 
Q 2169 781 2719 781 
Q 3272 781 3575 1187 
Q 3878 1594 3878 2328 
Q 3878 3066 3575 3472 
Q 3272 3878 2719 3878 
z
M 2719 4750 
Q 3844 4750 4481 4106 
Q 5119 3463 5119 2328 
Q 5119 1197 4481 553 
Q 3844 -91 2719 -91 
Q 1597 -91 958 553 
Q 319 1197 319 2328 
Q 319 3463 958 4106 
Q 1597 4750 2719 4750 
z
" transform="scale(0.015625)"/>
      </defs>
      <use xlink:href="#DejaVuSans-Bold-4f"/>
     </g>
    </g>
   </g>
   <g id="text_14">
    <g clip-path="url(#p9d8452ea45)">
     <!-- O -->
     <g style="fill: #ffffff" transform="translate(55.663926 164.158899) scale(0.12 -0.12)">
      <use xlink:href="#DejaVuSans-Bold-4f"/>
     </g>
    </g>
   </g>
   <g id="text_15">
    <g clip-path="url(#p9d8452ea45)">
     <!-- O -->
     <g style="fill: #ffffff" transform="translate(117.908658 107.980375) scale(0.12 -0.12)">
      <use xlink:href="#DejaVuSans-Bold-4f"/>
     </g>
    </g>
   </g>
   <g id="text_16">
    <g clip-path="url(#p9d8452ea45)">
     <!-- O -->
     <g style="fill: #ffffff" transform="translate(50.267658 178.562628) scale(0.12 -0.12)">
      <use xlink:href="#DejaVuSans-Bold-4f"/>
     </g>
    </g>
   </g>
   <g id="text_17">
    <g clip-path="url(#p9d8452ea45)">
     <!-- O -->
     <g style="fill: #ffffff" transform="translate(164.891387 57.273606) scale(0.12 -0.12)">
      <use xlink:href="#DejaVuSans-Bold-4f"/>
     </g>
    </g>
   </g>
   <g id="text_18">
    <g clip-path="url(#p9d8452ea45)">
     <!-- O -->
     <g style="fill: #ffffff" transform="translate(134.991685 174.392007) scale(0.12 -0.12)">
      <use xlink:href="#DejaVuSans-Bold-4f"/>
     </g>
    </g>
   </g>
   <g id="text_19">
    <g clip-path="url(#p9d8452ea45)">
     <!-- O -->
     <g style="fill: #ffffff" transform="translate(177.831491 96.60858) scale(0.12 -0.12)">
      <use xlink:href="#DejaVuSans-Bold-4f"/>
     </g>
    </g>
   </g>
   <g id="text_20">
    <g clip-path="url(#p9d8452ea45)">
     <!-- O -->
     <g style="fill: #ffffff" transform="translate(95.770238 155.634229) scale(0.12 -0.12)">
      <use xlink:href="#DejaVuSans-Bold-4f"/>
     </g>
    </g>
   </g>
   <g id="text_21">
    <g clip-path="url(#p9d8452ea45)">
     <!-- O -->
     <g style="fill: #ffffff" transform="translate(171.230435 164.08853) scale(0.12 -0.12)">
      <use xlink:href="#DejaVuSans-Bold-4f"/>
     </g>
    </g>
   </g>
   <g id="text_22">
    <g clip-path="url(#p9d8452ea45)">
     <!-- O -->
     <g style="fill: #ffffff" transform="translate(169.143532 221.843041) scale(0.12 -0.12)">
      <use xlink:href="#DejaVuSans-Bold-4f"/>
     </g>
    </g>
   </g>
   <g id="text_23">
    <g clip-path="url(#p9d8452ea45)">
     <!-- O -->
     <g style="fill: #ffffff" transform="translate(88.036293 227.381018) scale(0.12 -0.12)">
      <use xlink:href="#DejaVuSans-Bold-4f"/>
     </g>
    </g>
   </g>
   <g id="text_24">
    <g clip-path="url(#p9d8452ea45)">
     <!-- O -->
     <g style="fill: #ffffff" transform="translate(140.579748 228.867452) scale(0.12 -0.12)">
      <use xlink:href="#DejaVuSans-Bold-4f"/>
     </g>
    </g>
   </g>
   <g id="text_25">
    <g clip-path="url(#p9d8452ea45)">
     <!-- O -->
     <g style="fill: #ffffff" transform="translate(129.773469 58.732948) scale(0.12 -0.12)">
      <use xlink:href="#DejaVuSans-Bold-4f"/>
     </g>
    </g>
   </g>
   <g id="text_26">
    <g clip-path="url(#p9d8452ea45)">
     <!-- O -->
     <g style="fill: #ffffff" transform="translate(51.259997 195.668759) scale(0.12 -0.12)">
      <use xlink:href="#DejaVuSans-Bold-4f"/>
     </g>
    </g>
   </g>
   <g id="text_27">
    <g clip-path="url(#p9d8452ea45)">
     <!-- O -->
     <g style="fill: #ffffff" transform="translate(132.440002 114.597133) scale(0.12 -0.12)">
      <use xlink:href="#DejaVuSans-Bold-4f"/>
     </g>
    </g>
   </g>
   <g id="text_28">
    <g clip-path="url(#p9d8452ea45)">
     <!-- O -->
     <g style="fill: #ffffff" transform="translate(58.489949 210.022764) scale(0.12 -0.12)">
      <use xlink:href="#DejaVuSans-Bold-4f"/>
     </g>
    </g>
   </g>
   <g id="text_29">
    <g clip-path="url(#p9d8452ea45)">
     <!-- O -->
     <g style="fill: #ffffff" transform="translate(105.952632 64.732893) scale(0.12 -0.12)">
      <use xlink:href="#DejaVuSans-Bold-4f"/>
     </g>
    </g>
   </g>
   <g id="text_30">
    <g clip-path="url(#p9d8452ea45)">
     <!-- O -->
     <g style="fill: #ffffff" transform="translate(141.011892 164.814633) scale(0.12 -0.12)">
      <use xlink:href="#DejaVuSans-Bold-4f"/>
     </g>
    </g>
   </g>
   <g id="text_31">
    <g clip-path="url(#p9d8452ea45)">
     <!-- O -->
     <g style="fill: #ffffff" transform="translate(163.190175 99.563971) scale(0.12 -0.12)">
      <use xlink:href="#DejaVuSans-Bold-4f"/>
     </g>
    </g>
   </g>
   <g id="text_32">
    <g clip-path="url(#p9d8452ea45)">
     <!-- O -->
     <g style="fill: #ffffff" transform="translate(101.018995 163.178551) scale(0.12 -0.12)">
      <use xlink:href="#DejaVuSans-Bold-4f"/>
     </g>
    </g>
   </g>
   <g id="text_33">
    <g clip-path="url(#p9d8452ea45)">
     <!-- O -->
     <g style="fill: #ffffff" transform="translate(180.702242 165.783434) scale(0.12 -0.12)">
      <use xlink:href="#DejaVuSans-Bold-4f"/>
     </g>
    </g>
   </g>
   <g id="text_34">
    <g clip-path="url(#p9d8452ea45)">
     <!-- O -->
     <g style="fill: #ffffff" transform="translate(183.797242 209.580467) scale(0.12 -0.12)">
      <use xlink:href="#DejaVuSans-Bold-4f"/>
     </g>
    </g>
   </g>
   <g id="text_35">
    <g clip-path="url(#p9d8452ea45)">
     <!-- O -->
     <g style="fill: #ffffff" transform="translate(91.19348 215.905693) scale(0.12 -0.12)">
      <use xlink:href="#DejaVuSans-Bold-4f"/>
     </g>
    </g>
   </g>
   <g id="text_36">
    <g clip-path="url(#p9d8452ea45)">
     <!-- O -->
     <g style="fill: #ffffff" transform="translate(137.250966 216.709558) scale(0.12 -0.12)">
      <use xlink:href="#DejaVuSans-Bold-4f"/>
     </g>
    </g>
   </g>
   <g id="text_37">
    <g clip-path="url(#p9d8452ea45)">
     <!-- O -->
     <g style="fill: #ffffff" transform="translate(218.628764 240.387614) scale(0.12 -0.12)">
      <use xlink:href="#DejaVuSans-Bold-4f"/>
     </g>
    </g>
   </g>
   <g id="text_38">
    <g clip-path="url(#p9d8452ea45)">
     <!-- C -->
     <g style="fill: #ffffff" transform="translate(209.134786 208.614296) scale(0.12 -0.12)">
      <defs>
       <path id="DejaVuSans-Bold-43" d="M 4288 256 
Q 3956 84 3597 -3 
Q 3238 -91 2847 -91 
Q 1681 -91 1000 561 
Q 319 1213 319 2328 
Q 319 3447 1000 4098 
Q 1681 4750 2847 4750 
Q 3238 4750 3597 4662 
Q 3956 4575 4288 4403 
L 4288 3438 
Q 3953 3666 3628 3772 
Q 3303 3878 2944 3878 
Q 2300 3878 1931 3465 
Q 1563 3053 1563 2328 
Q 1563 1606 1931 1193 
Q 2300 781 2944 781 
Q 3303 781 3628 887 
Q 3953 994 4288 1222 
L 4288 256 
z
" transform="scale(0.015625)"/>
      </defs>
      <use xlink:href="#DejaVuSans-Bold-43"/>
     </g>
    </g>
   </g>
   <g id="text_39">
    <g clip-path="url(#p9d8452ea45)">
     <!-- N -->
     <g style="fill: #ffffff" transform="translate(201.927123 174.106097) scale(0.12 -0.12)">
      <defs>
       <path id="DejaVuSans-Bold-4e" d="M 588 4666 
L 1931 4666 
L 3628 1466 
L 3628 4666 
L 4769 4666 
L 4769 0 
L 3425 0 
L 1728 3200 
L 1728 0 
L 588 0 
L 588 4666 
z
" transform="scale(0.015625)"/>
      </defs>
      <use xlink:href="#DejaVuSans-Bold-4e"/>
     </g>
    </g>
   </g>
   <g id="text_40">
    <g clip-path="url(#p9d8452ea45)">
     <!-- H -->
     <g style="fill: #ffffff" transform="translate(230.157791 162.724498) scale(0.12 -0.12)">
      <defs>
       <path id="DejaVuSans-Bold-48" d="M 588 4666 
L 1791 4666 
L 1791 2888 
L 3566 2888 
L 3566 4666 
L 4769 4666 
L 4769 0 
L 3566 0 
L 3566 1978 
L 1791 1978 
L 1791 0 
L 588 0 
L 588 4666 
z
" transform="scale(0.015625)"/>
      </defs>
      <use xlink:href="#DejaVuSans-Bold-48"/>
     </g>
    </g>
   </g>
   <g id="text_41">
    <g clip-path="url(#p9d8452ea45)">
     <!-- H -->
     <g style="fill: #ffffff" transform="translate(165.187253 155.151768) scale(0.12 -0.12)">
      <use xlink:href="#DejaVuSans-Bold-48"/>
     </g>
    </g>
   </g>
   <g id="text_42">
    <g clip-path="url(#p9d8452ea45)">
     <!-- H -->
     <g style="fill: #ffffff" transform="translate(234.810155 215.349317) scale(0.12 -0.12)">
      <use xlink:href="#DejaVuSans-Bold-48"/>
     </g>
    </g>
   </g>
   <g id="text_43">
    <!-- CH3Ir40NO81 -->
    <g transform="translate(146.80797 47.214225) scale(0.1 -0.1)">
     <defs>
      <path id="DejaVuSans-43" d="M 4122 4306 
L 4122 3641 
Q 3803 3938 3442 4084 
Q 3081 4231 2675 4231 
Q 1875 4231 1450 3742 
Q 1025 3253 1025 2328 
Q 1025 1406 1450 917 
Q 1875 428 2675 428 
Q 3081 428 3442 575 
Q 3803 722 4122 1019 
L 4122 359 
Q 3791 134 3420 21 
Q 3050 -91 2638 -91 
Q 1578 -91 968 557 
Q 359 1206 359 2328 
Q 359 3453 968 4101 
Q 1578 4750 2638 4750 
Q 3056 4750 3426 4639 
Q 3797 4528 4122 4306 
z
" transform="scale(0.015625)"/>
      <path id="DejaVuSans-48" d="M 628 4666 
L 1259 4666 
L 1259 2753 
L 3553 2753 
L 3553 4666 
L 4184 4666 
L 4184 0 
L 3553 0 
L 3553 2222 
L 1259 2222 
L 1259 0 
L 628 0 
L 628 4666 
z
" transform="scale(0.015625)"/>
      <path id="DejaVuSans-33" d="M 2597 2516 
Q 3050 2419 3304 2112 
Q 3559 1806 3559 1356 
Q 3559 666 3084 287 
Q 2609 -91 1734 -91 
Q 1441 -91 1130 -33 
Q 819 25 488 141 
L 488 750 
Q 750 597 1062 519 
Q 1375 441 1716 441 
Q 2309 441 2620 675 
Q 2931 909 2931 1356 
Q 2931 1769 2642 2001 
Q 2353 2234 1838 2234 
L 1294 2234 
L 1294 2753 
L 1863 2753 
Q 2328 2753 2575 2939 
Q 2822 3125 2822 3475 
Q 2822 3834 2567 4026 
Q 2313 4219 1838 4219 
Q 1578 4219 1281 4162 
Q 984 4106 628 3988 
L 628 4550 
Q 988 4650 1302 4700 
Q 1616 4750 1894 4750 
Q 2613 4750 3031 4423 
Q 3450 4097 3450 3541 
Q 3450 3153 3228 2886 
Q 3006 2619 2597 2516 
z
" transform="scale(0.015625)"/>
      <path id="DejaVuSans-49" d="M 628 4666 
L 1259 4666 
L 1259 0 
L 628 0 
L 628 4666 
z
" transform="scale(0.015625)"/>
      <path id="DejaVuSans-72" d="M 2631 2963 
Q 2534 3019 2420 3045 
Q 2306 3072 2169 3072 
Q 1681 3072 1420 2755 
Q 1159 2438 1159 1844 
L 1159 0 
L 581 0 
L 581 3500 
L 1159 3500 
L 1159 2956 
Q 1341 3275 1631 3429 
Q 1922 3584 2338 3584 
Q 2397 3584 2469 3576 
Q 2541 3569 2628 3553 
L 2631 2963 
z
" transform="scale(0.015625)"/>
      <path id="DejaVuSans-34" d="M 2419 4116 
L 825 1625 
L 2419 1625 
L 2419 4116 
z
M 2253 4666 
L 3047 4666 
L 3047 1625 
L 3713 1625 
L 3713 1100 
L 3047 1100 
L 3047 0 
L 2419 0 
L 2419 1100 
L 313 1100 
L 313 1709 
L 2253 4666 
z
" transform="scale(0.015625)"/>
      <path id="DejaVuSans-30" d="M 2034 4250 
Q 1547 4250 1301 3770 
Q 1056 3291 1056 2328 
Q 1056 1369 1301 889 
Q 1547 409 2034 409 
Q 2525 409 2770 889 
Q 3016 1369 3016 2328 
Q 3016 3291 2770 3770 
Q 2525 4250 2034 4250 
z
M 2034 4750 
Q 2819 4750 3233 4129 
Q 3647 3509 3647 2328 
Q 3647 1150 3233 529 
Q 2819 -91 2034 -91 
Q 1250 -91 836 529 
Q 422 1150 422 2328 
Q 422 3509 836 4129 
Q 1250 4750 2034 4750 
z
" transform="scale(0.015625)"/>
      <path id="DejaVuSans-4e" d="M 628 4666 
L 1478 4666 
L 3547 763 
L 3547 4666 
L 4159 4666 
L 4159 0 
L 3309 0 
L 1241 3903 
L 1241 0 
L 628 0 
L 628 4666 
z
" transform="scale(0.015625)"/>
      <path id="DejaVuSans-4f" d="M 2522 4238 
Q 1834 4238 1429 3725 
Q 1025 3213 1025 2328 
Q 1025 1447 1429 934 
Q 1834 422 2522 422 
Q 3209 422 3611 934 
Q 4013 1447 4013 2328 
Q 4013 3213 3611 3725 
Q 3209 4238 2522 4238 
z
M 2522 4750 
Q 3503 4750 4090 4092 
Q 4678 3434 4678 2328 
Q 4678 1225 4090 567 
Q 3503 -91 2522 -91 
Q 1538 -91 948 565 
Q 359 1222 359 2328 
Q 359 3434 948 4092 
Q 1538 4750 2522 4750 
z
" transform="scale(0.015625)"/>
      <path id="DejaVuSans-38" d="M 2034 2216 
Q 1584 2216 1326 1975 
Q 1069 1734 1069 1313 
Q 1069 891 1326 650 
Q 1584 409 2034 409 
Q 2484 409 2743 651 
Q 3003 894 3003 1313 
Q 3003 1734 2745 1975 
Q 2488 2216 2034 2216 
z
M 1403 2484 
Q 997 2584 770 2862 
Q 544 3141 544 3541 
Q 544 4100 942 4425 
Q 1341 4750 2034 4750 
Q 2731 4750 3128 4425 
Q 3525 4100 3525 3541 
Q 3525 3141 3298 2862 
Q 3072 2584 2669 2484 
Q 3125 2378 3379 2068 
Q 3634 1759 3634 1313 
Q 3634 634 3220 271 
Q 2806 -91 2034 -91 
Q 1263 -91 848 271 
Q 434 634 434 1313 
Q 434 1759 690 2068 
Q 947 2378 1403 2484 
z
M 1172 3481 
Q 1172 3119 1398 2916 
Q 1625 2713 2034 2713 
Q 2441 2713 2670 2916 
Q 2900 3119 2900 3481 
Q 2900 3844 2670 4047 
Q 2441 4250 2034 4250 
Q 1625 4250 1398 4047 
Q 1172 3844 1172 3481 
z
" transform="scale(0.015625)"/>
      <path id="DejaVuSans-31" d="M 794 531 
L 1825 531 
L 1825 4091 
L 703 3866 
L 703 4441 
L 1819 4666 
L 2450 4666 
L 2450 531 
L 3481 531 
L 3481 0 
L 794 0 
L 794 531 
z
" transform="scale(0.015625)"/>
     </defs>
     <use xlink:href="#DejaVuSans-43"/>
     <use xlink:href="#DejaVuSans-48" transform="translate(69.824219 0)"/>
     <use xlink:href="#DejaVuSans-33" transform="translate(145.019531 0)"/>
     <use xlink:href="#DejaVuSans-49" transform="translate(208.642578 0)"/>
     <use xlink:href="#DejaVuSans-72" transform="translate(238.134766 0)"/>
     <use xlink:href="#DejaVuSans-34" transform="translate(279.248047 0)"/>
     <use xlink:href="#DejaVuSans-30" transform="translate(342.871094 0)"/>
     <use xlink:href="#DejaVuSans-4e" transform="translate(406.494141 0)"/>
     <use xlink:href="#DejaVuSans-4f" transform="translate(481.298828 0)"/>
     <use xlink:href="#DejaVuSans-38" transform="translate(560.009766 0)"/>
     <use xlink:href="#DejaVuSans-31" transform="translate(623.632812 0)"/>
    </g>
    <!-- Error: 3.10 eV -->
    <g transform="translate(146.80797 58.412038) scale(0.1 -0.1)">
     <defs>
      <path id="DejaVuSans-45" d="M 628 4666 
L 3578 4666 
L 3578 4134 
L 1259 4134 
L 1259 2753 
L 3481 2753 
L 3481 2222 
L 1259 2222 
L 1259 531 
L 3634 531 
L 3634 0 
L 628 0 
L 628 4666 
z
" transform="scale(0.015625)"/>
      <path id="DejaVuSans-6f" d="M 1959 3097 
Q 1497 3097 1228 2736 
Q 959 2375 959 1747 
Q 959 1119 1226 758 
Q 1494 397 1959 397 
Q 2419 397 2687 759 
Q 2956 1122 2956 1747 
Q 2956 2369 2687 2733 
Q 2419 3097 1959 3097 
z
M 1959 3584 
Q 2709 3584 3137 3096 
Q 3566 2609 3566 1747 
Q 3566 888 3137 398 
Q 2709 -91 1959 -91 
Q 1206 -91 779 398 
Q 353 888 353 1747 
Q 353 2609 779 3096 
Q 1206 3584 1959 3584 
z
" transform="scale(0.015625)"/>
      <path id="DejaVuSans-3a" d="M 750 794 
L 1409 794 
L 1409 0 
L 750 0 
L 750 794 
z
M 750 3309 
L 1409 3309 
L 1409 2516 
L 750 2516 
L 750 3309 
z
" transform="scale(0.015625)"/>
      <path id="DejaVuSans-20" transform="scale(0.015625)"/>
      <path id="DejaVuSans-2e" d="M 684 794 
L 1344 794 
L 1344 0 
L 684 0 
L 684 794 
z
" transform="scale(0.015625)"/>
      <path id="DejaVuSans-65" d="M 3597 1894 
L 3597 1613 
L 953 1613 
Q 991 1019 1311 708 
Q 1631 397 2203 397 
Q 2534 397 2845 478 
Q 3156 559 3463 722 
L 3463 178 
Q 3153 47 2828 -22 
Q 2503 -91 2169 -91 
Q 1331 -91 842 396 
Q 353 884 353 1716 
Q 353 2575 817 3079 
Q 1281 3584 2069 3584 
Q 2775 3584 3186 3129 
Q 3597 2675 3597 1894 
z
M 3022 2063 
Q 3016 2534 2758 2815 
Q 2500 3097 2075 3097 
Q 1594 3097 1305 2825 
Q 1016 2553 972 2059 
L 3022 2063 
z
" transform="scale(0.015625)"/>
      <path id="DejaVuSans-56" d="M 1831 0 
L 50 4666 
L 709 4666 
L 2188 738 
L 3669 4666 
L 4325 4666 
L 2547 0 
L 1831 0 
z
" transform="scale(0.015625)"/>
     </defs>
     <use xlink:href="#DejaVuSans-45"/>
     <use xlink:href="#DejaVuSans-72" transform="translate(63.183594 0)"/>
     <use xlink:href="#DejaVuSans-72" transform="translate(102.546875 0)"/>
     <use xlink:href="#DejaVuSans-6f" transform="translate(141.410156 0)"/>
     <use xlink:href="#DejaVuSans-72" transform="translate(202.591797 0)"/>
     <use xlink:href="#DejaVuSans-3a" transform="translate(241.955078 0)"/>
     <use xlink:href="#DejaVuSans-20" transform="translate(275.646484 0)"/>
     <use xlink:href="#DejaVuSans-33" transform="translate(307.433594 0)"/>
     <use xlink:href="#DejaVuSans-2e" transform="translate(371.056641 0)"/>
     <use xlink:href="#DejaVuSans-31" transform="translate(402.84375 0)"/>
     <use xlink:href="#DejaVuSans-30" transform="translate(466.466797 0)"/>
     <use xlink:href="#DejaVuSans-20" transform="translate(530.089844 0)"/>
     <use xlink:href="#DejaVuSans-65" transform="translate(561.876953 0)"/>
     <use xlink:href="#DejaVuSans-56" transform="translate(623.400391 0)"/>
    </g>
   </g>
  </g>
 </g>
 <defs>
  <clipPath id="p9d8452ea45">
   <rect x="36" y="34.56" width="223.2" height="221.76"/>
  </clipPath>
 </defs>
</svg>
