<?xml version="1.0" encoding="utf-8" standalone="no"?>
<!DOCTYPE svg PUBLIC "-//W3C//DTD SVG 1.1//EN"
  "http://www.w3.org/Graphics/SVG/1.1/DTD/svg11.dtd">
<svg xmlns:xlink="http://www.w3.org/1999/xlink" width="288pt" height="288pt" viewBox="0 0 288 288" xmlns="http://www.w3.org/2000/svg" version="1.1">
 <metadata>
  <rdf:RDF xmlns:dc="http://purl.org/dc/elements/1.1/" xmlns:cc="http://creativecommons.org/ns#" xmlns:rdf="http://www.w3.org/1999/02/22-rdf-syntax-ns#">
   <cc:Work>
    <dc:type rdf:resource="http://purl.org/dc/dcmitype/StillImage"/>
    <dc:date>2025-06-30T12:05:38.561058</dc:date>
    <dc:format>image/svg+xml</dc:format>
    <dc:creator>
     <cc:Agent>
      <dc:title>Matplotlib v3.10.1, https://matplotlib.org/</dc:title>
     </cc:Agent>
    </dc:creator>
   </cc:Work>
  </rdf:RDF>
 </metadata>
 <defs>
  <style type="text/css">*{stroke-linejoin: round; stroke-linecap: butt}</style>
 </defs>
 <g id="figure_1">
  <g id="patch_1">
   <path d="M 0 288 
L 288 288 
L 288 0 
L 0 0 
z
" style="fill: #ffffff"/>
  </g>
  <g id="axes_1">
   <g id="LineCollection_1">
    <path d="M 77.220408 83.23122 
L 89.967512 53.803636 
" clip-path="url(#p4a8235a6d1)" style="fill: none; stroke: #000000; stroke-width: 1.2"/>
    <path d="M 77.220408 83.23122 
L 117.274548 96.262885 
" clip-path="url(#p4a8235a6d1)" style="fill: none; stroke: #000000; stroke-width: 1.2"/>
    <path d="M 77.220408 83.23122 
L 122.320831 64.105827 
" clip-path="url(#p4a8235a6d1)" style="fill: none; stroke: #000000; stroke-width: 1.2"/>
    <path d="M 77.220408 83.23122 
L 86.799091 61.65982 
" clip-path="url(#p4a8235a6d1)" style="fill: none; stroke: #000000; stroke-width: 1.2"/>
    <path d="M 77.220408 83.23122 
L 117.367893 104.87465 
" clip-path="url(#p4a8235a6d1)" style="fill: none; stroke: #000000; stroke-width: 1.2"/>
    <path d="M 77.220408 83.23122 
L 59.516373 135.358395 
" clip-path="url(#p4a8235a6d1)" style="fill: none; stroke: #000000; stroke-width: 1.2"/>
    <path d="M 77.220408 83.23122 
L 67.721071 109.24279 
" clip-path="url(#p4a8235a6d1)" style="fill: none; stroke: #000000; stroke-width: 1.2"/>
    <path d="M 77.220408 83.23122 
L 105.298162 123.89748 
" clip-path="url(#p4a8235a6d1)" style="fill: none; stroke: #000000; stroke-width: 1.2"/>
    <path d="M 77.220408 83.23122 
L 71.391916 121.143774 
" clip-path="url(#p4a8235a6d1)" style="fill: none; stroke: #000000; stroke-width: 1.2"/>
    <path d="M 89.967512 53.803636 
L 117.274548 96.262885 
" clip-path="url(#p4a8235a6d1)" style="fill: none; stroke: #000000; stroke-width: 1.2"/>
    <path d="M 89.967512 53.803636 
L 122.320831 64.105827 
" clip-path="url(#p4a8235a6d1)" style="fill: none; stroke: #000000; stroke-width: 1.2"/>
    <path d="M 89.967512 53.803636 
L 81.741794 89.171033 
" clip-path="url(#p4a8235a6d1)" style="fill: none; stroke: #000000; stroke-width: 1.2"/>
    <path d="M 89.967512 53.803636 
L 123.617344 76.986245 
" clip-path="url(#p4a8235a6d1)" style="fill: none; stroke: #000000; stroke-width: 1.2"/>
    <path d="M 89.967512 53.803636 
L 57.356077 89.833805 
" clip-path="url(#p4a8235a6d1)" style="fill: none; stroke: #000000; stroke-width: 1.2"/>
    <path d="M 89.967512 53.803636 
L 105.260734 71.253868 
" clip-path="url(#p4a8235a6d1)" style="fill: none; stroke: #000000; stroke-width: 1.2"/>
    <path d="M 89.967512 53.803636 
L 68.842684 69.12005 
" clip-path="url(#p4a8235a6d1)" style="fill: none; stroke: #000000; stroke-width: 1.2"/>
    <path d="M 89.967512 53.803636 
L 67.721071 109.24279 
" clip-path="url(#p4a8235a6d1)" style="fill: none; stroke: #000000; stroke-width: 1.2"/>
    <path d="M 152.718995 107.302537 
L 117.274548 96.262885 
" clip-path="url(#p4a8235a6d1)" style="fill: none; stroke: #000000; stroke-width: 1.2"/>
    <path d="M 152.718995 107.302537 
L 155.587068 78.537339 
" clip-path="url(#p4a8235a6d1)" style="fill: none; stroke: #000000; stroke-width: 1.2"/>
    <path d="M 152.718995 107.302537 
L 122.320831 64.105827 
" clip-path="url(#p4a8235a6d1)" style="fill: none; stroke: #000000; stroke-width: 1.2"/>
    <path d="M 152.718995 107.302537 
L 117.367893 104.87465 
" clip-path="url(#p4a8235a6d1)" style="fill: none; stroke: #000000; stroke-width: 1.2"/>
    <path d="M 152.718995 107.302537 
L 158.221305 89.16394 
" clip-path="url(#p4a8235a6d1)" style="fill: none; stroke: #000000; stroke-width: 1.2"/>
    <path d="M 152.718995 107.302537 
L 137.903275 75.701406 
" clip-path="url(#p4a8235a6d1)" style="fill: none; stroke: #000000; stroke-width: 1.2"/>
    <path d="M 152.718995 107.302537 
L 116.935446 146.409796 
" clip-path="url(#p4a8235a6d1)" style="fill: none; stroke: #000000; stroke-width: 1.2"/>
    <path d="M 152.718995 107.302537 
L 140.45573 132.067432 
" clip-path="url(#p4a8235a6d1)" style="fill: none; stroke: #000000; stroke-width: 1.2"/>
    <path d="M 152.718995 107.302537 
L 105.298162 123.89748 
" clip-path="url(#p4a8235a6d1)" style="fill: none; stroke: #000000; stroke-width: 1.2"/>
    <path d="M 152.718995 107.302537 
L 140.37789 144.085268 
" clip-path="url(#p4a8235a6d1)" style="fill: none; stroke: #000000; stroke-width: 1.2"/>
    <path d="M 117.274548 96.262885 
L 155.587068 78.537339 
" clip-path="url(#p4a8235a6d1)" style="fill: none; stroke: #000000; stroke-width: 1.2"/>
    <path d="M 117.274548 96.262885 
L 122.320831 64.105827 
" clip-path="url(#p4a8235a6d1)" style="fill: none; stroke: #000000; stroke-width: 1.2"/>
    <path d="M 117.274548 96.262885 
L 81.741794 89.171033 
" clip-path="url(#p4a8235a6d1)" style="fill: none; stroke: #000000; stroke-width: 1.2"/>
    <path d="M 117.274548 96.262885 
L 154.813209 122.209537 
" clip-path="url(#p4a8235a6d1)" style="fill: none; stroke: #000000; stroke-width: 1.2"/>
    <path d="M 117.274548 96.262885 
L 123.617344 76.986245 
" clip-path="url(#p4a8235a6d1)" style="fill: none; stroke: #000000; stroke-width: 1.2"/>
    <path d="M 117.274548 96.262885 
L 105.260734 71.253868 
" clip-path="url(#p4a8235a6d1)" style="fill: none; stroke: #000000; stroke-width: 1.2"/>
    <path d="M 117.274548 96.262885 
L 67.721071 109.24279 
" clip-path="url(#p4a8235a6d1)" style="fill: none; stroke: #000000; stroke-width: 1.2"/>
    <path d="M 117.274548 96.262885 
L 89.033392 133.504829 
" clip-path="url(#p4a8235a6d1)" style="fill: none; stroke: #000000; stroke-width: 1.2"/>
    <path d="M 117.274548 96.262885 
L 140.45573 132.067432 
" clip-path="url(#p4a8235a6d1)" style="fill: none; stroke: #000000; stroke-width: 1.2"/>
    <path d="M 117.274548 96.262885 
L 105.298162 123.89748 
" clip-path="url(#p4a8235a6d1)" style="fill: none; stroke: #000000; stroke-width: 1.2"/>
    <path d="M 117.274548 96.262885 
L 105.542597 133.140751 
" clip-path="url(#p4a8235a6d1)" style="fill: none; stroke: #000000; stroke-width: 1.2"/>
    <path d="M 155.587068 78.537339 
L 122.320831 64.105827 
" clip-path="url(#p4a8235a6d1)" style="fill: none; stroke: #000000; stroke-width: 1.2"/>
    <path d="M 155.587068 78.537339 
L 154.813209 122.209537 
" clip-path="url(#p4a8235a6d1)" style="fill: none; stroke: #000000; stroke-width: 1.2"/>
    <path d="M 155.587068 78.537339 
L 123.617344 76.986245 
" clip-path="url(#p4a8235a6d1)" style="fill: none; stroke: #000000; stroke-width: 1.2"/>
    <path d="M 155.587068 78.537339 
L 137.903275 75.701406 
" clip-path="url(#p4a8235a6d1)" style="fill: none; stroke: #000000; stroke-width: 1.2"/>
    <path d="M 155.587068 78.537339 
L 105.260734 71.253868 
" clip-path="url(#p4a8235a6d1)" style="fill: none; stroke: #000000; stroke-width: 1.2"/>
    <path d="M 155.587068 78.537339 
L 129.701798 110.151897 
" clip-path="url(#p4a8235a6d1)" style="fill: none; stroke: #000000; stroke-width: 1.2"/>
    <path d="M 155.587068 78.537339 
L 143.235375 94.570631 
" clip-path="url(#p4a8235a6d1)" style="fill: none; stroke: #000000; stroke-width: 1.2"/>
    <path d="M 155.587068 78.537339 
L 140.45573 132.067432 
" clip-path="url(#p4a8235a6d1)" style="fill: none; stroke: #000000; stroke-width: 1.2"/>
    <path d="M 122.320831 64.105827 
L 86.799091 61.65982 
" clip-path="url(#p4a8235a6d1)" style="fill: none; stroke: #000000; stroke-width: 1.2"/>
    <path d="M 122.320831 64.105827 
L 117.367893 104.87465 
" clip-path="url(#p4a8235a6d1)" style="fill: none; stroke: #000000; stroke-width: 1.2"/>
    <path d="M 122.320831 64.105827 
L 158.221305 89.16394 
" clip-path="url(#p4a8235a6d1)" style="fill: none; stroke: #000000; stroke-width: 1.2"/>
    <path d="M 122.320831 64.105827 
L 137.903275 75.701406 
" clip-path="url(#p4a8235a6d1)" style="fill: none; stroke: #000000; stroke-width: 1.2"/>
    <path d="M 122.320831 64.105827 
L 105.260734 71.253868 
" clip-path="url(#p4a8235a6d1)" style="fill: none; stroke: #000000; stroke-width: 1.2"/>
    <path d="M 122.320831 64.105827 
L 91.030138 103.023678 
" clip-path="url(#p4a8235a6d1)" style="fill: none; stroke: #000000; stroke-width: 1.2"/>
    <path d="M 122.320831 64.105827 
L 104.70031 82.119168 
" clip-path="url(#p4a8235a6d1)" style="fill: none; stroke: #000000; stroke-width: 1.2"/>
    <path d="M 122.320831 64.105827 
L 105.298162 123.89748 
" clip-path="url(#p4a8235a6d1)" style="fill: none; stroke: #000000; stroke-width: 1.2"/>
    <path d="M 81.741794 89.171033 
L 86.799091 61.65982 
" clip-path="url(#p4a8235a6d1)" style="fill: none; stroke: #000000; stroke-width: 1.2"/>
    <path d="M 81.741794 89.171033 
L 117.367893 104.87465 
" clip-path="url(#p4a8235a6d1)" style="fill: none; stroke: #000000; stroke-width: 1.2"/>
    <path d="M 81.741794 89.171033 
L 123.617344 76.986245 
" clip-path="url(#p4a8235a6d1)" style="fill: none; stroke: #000000; stroke-width: 1.2"/>
    <path d="M 81.741794 89.171033 
L 68.842684 69.12005 
" clip-path="url(#p4a8235a6d1)" style="fill: none; stroke: #000000; stroke-width: 1.2"/>
    <path d="M 81.741794 89.171033 
L 67.721071 109.24279 
" clip-path="url(#p4a8235a6d1)" style="fill: none; stroke: #000000; stroke-width: 1.2"/>
    <path d="M 81.741794 89.171033 
L 55.368595 125.50039 
" clip-path="url(#p4a8235a6d1)" style="fill: none; stroke: #000000; stroke-width: 1.2"/>
    <path d="M 81.741794 89.171033 
L 71.391916 121.143774 
" clip-path="url(#p4a8235a6d1)" style="fill: none; stroke: #000000; stroke-width: 1.2"/>
    <path d="M 81.741794 89.171033 
L 105.542597 133.140751 
" clip-path="url(#p4a8235a6d1)" style="fill: none; stroke: #000000; stroke-width: 1.2"/>
    <path d="M 86.799091 61.65982 
L 117.367893 104.87465 
" clip-path="url(#p4a8235a6d1)" style="fill: none; stroke: #000000; stroke-width: 1.2"/>
    <path d="M 86.799091 61.65982 
L 123.617344 76.986245 
" clip-path="url(#p4a8235a6d1)" style="fill: none; stroke: #000000; stroke-width: 1.2"/>
    <path d="M 86.799091 61.65982 
L 68.842684 69.12005 
" clip-path="url(#p4a8235a6d1)" style="fill: none; stroke: #000000; stroke-width: 1.2"/>
    <path d="M 86.799091 61.65982 
L 56.157991 100.96868 
" clip-path="url(#p4a8235a6d1)" style="fill: none; stroke: #000000; stroke-width: 1.2"/>
    <path d="M 86.799091 61.65982 
L 104.70031 82.119168 
" clip-path="url(#p4a8235a6d1)" style="fill: none; stroke: #000000; stroke-width: 1.2"/>
    <path d="M 86.799091 61.65982 
L 71.391916 121.143774 
" clip-path="url(#p4a8235a6d1)" style="fill: none; stroke: #000000; stroke-width: 1.2"/>
    <path d="M 154.813209 122.209537 
L 117.367893 104.87465 
" clip-path="url(#p4a8235a6d1)" style="fill: none; stroke: #000000; stroke-width: 1.2"/>
    <path d="M 154.813209 122.209537 
L 158.221305 89.16394 
" clip-path="url(#p4a8235a6d1)" style="fill: none; stroke: #000000; stroke-width: 1.2"/>
    <path d="M 154.813209 122.209537 
L 123.617344 76.986245 
" clip-path="url(#p4a8235a6d1)" style="fill: none; stroke: #000000; stroke-width: 1.2"/>
    <path d="M 154.813209 122.209537 
L 143.235375 94.570631 
" clip-path="url(#p4a8235a6d1)" style="fill: none; stroke: #000000; stroke-width: 1.2"/>
    <path d="M 154.813209 122.209537 
L 140.45573 132.067432 
" clip-path="url(#p4a8235a6d1)" style="fill: none; stroke: #000000; stroke-width: 1.2"/>
    <path d="M 154.813209 122.209537 
L 127.697872 151.356675 
" clip-path="url(#p4a8235a6d1)" style="fill: none; stroke: #000000; stroke-width: 1.2"/>
    <path d="M 154.813209 122.209537 
L 140.37789 144.085268 
" clip-path="url(#p4a8235a6d1)" style="fill: none; stroke: #000000; stroke-width: 1.2"/>
    <path d="M 154.813209 122.209537 
L 105.542597 133.140751 
" clip-path="url(#p4a8235a6d1)" style="fill: none; stroke: #000000; stroke-width: 1.2"/>
    <path d="M 154.813209 122.209537 
L 147.749023 176.402931 
" clip-path="url(#p4a8235a6d1)" style="fill: none; stroke: #000000; stroke-width: 1.2"/>
    <path d="M 154.813209 122.209537 
L 167.720271 161.87697 
" clip-path="url(#p4a8235a6d1)" style="fill: none; stroke: #000000; stroke-width: 1.2"/>
    <path d="M 154.813209 122.209537 
L 178.596249 138.733963 
" clip-path="url(#p4a8235a6d1)" style="fill: none; stroke: #000000; stroke-width: 1.2"/>
    <path d="M 117.367893 104.87465 
L 158.221305 89.16394 
" clip-path="url(#p4a8235a6d1)" style="fill: none; stroke: #000000; stroke-width: 1.2"/>
    <path d="M 117.367893 104.87465 
L 123.617344 76.986245 
" clip-path="url(#p4a8235a6d1)" style="fill: none; stroke: #000000; stroke-width: 1.2"/>
    <path d="M 117.367893 104.87465 
L 104.70031 82.119168 
" clip-path="url(#p4a8235a6d1)" style="fill: none; stroke: #000000; stroke-width: 1.2"/>
    <path d="M 117.367893 104.87465 
L 105.298162 123.89748 
" clip-path="url(#p4a8235a6d1)" style="fill: none; stroke: #000000; stroke-width: 1.2"/>
    <path d="M 117.367893 104.87465 
L 71.391916 121.143774 
" clip-path="url(#p4a8235a6d1)" style="fill: none; stroke: #000000; stroke-width: 1.2"/>
    <path d="M 117.367893 104.87465 
L 90.8236 143.773564 
" clip-path="url(#p4a8235a6d1)" style="fill: none; stroke: #000000; stroke-width: 1.2"/>
    <path d="M 117.367893 104.87465 
L 140.37789 144.085268 
" clip-path="url(#p4a8235a6d1)" style="fill: none; stroke: #000000; stroke-width: 1.2"/>
    <path d="M 117.367893 104.87465 
L 105.542597 133.140751 
" clip-path="url(#p4a8235a6d1)" style="fill: none; stroke: #000000; stroke-width: 1.2"/>
    <path d="M 158.221305 89.16394 
L 123.617344 76.986245 
" clip-path="url(#p4a8235a6d1)" style="fill: none; stroke: #000000; stroke-width: 1.2"/>
    <path d="M 158.221305 89.16394 
L 137.903275 75.701406 
" clip-path="url(#p4a8235a6d1)" style="fill: none; stroke: #000000; stroke-width: 1.2"/>
    <path d="M 158.221305 89.16394 
L 143.235375 94.570631 
" clip-path="url(#p4a8235a6d1)" style="fill: none; stroke: #000000; stroke-width: 1.2"/>
    <path d="M 158.221305 89.16394 
L 104.70031 82.119168 
" clip-path="url(#p4a8235a6d1)" style="fill: none; stroke: #000000; stroke-width: 1.2"/>
    <path d="M 158.221305 89.16394 
L 128.838499 120.924374 
" clip-path="url(#p4a8235a6d1)" style="fill: none; stroke: #000000; stroke-width: 1.2"/>
    <path d="M 158.221305 89.16394 
L 140.37789 144.085268 
" clip-path="url(#p4a8235a6d1)" style="fill: none; stroke: #000000; stroke-width: 1.2"/>
    <path d="M 123.617344 76.986245 
L 105.260734 71.253868 
" clip-path="url(#p4a8235a6d1)" style="fill: none; stroke: #000000; stroke-width: 1.2"/>
    <path d="M 123.617344 76.986245 
L 68.842684 69.12005 
" clip-path="url(#p4a8235a6d1)" style="fill: none; stroke: #000000; stroke-width: 1.2"/>
    <path d="M 123.617344 76.986245 
L 143.235375 94.570631 
" clip-path="url(#p4a8235a6d1)" style="fill: none; stroke: #000000; stroke-width: 1.2"/>
    <path d="M 123.617344 76.986245 
L 104.70031 82.119168 
" clip-path="url(#p4a8235a6d1)" style="fill: none; stroke: #000000; stroke-width: 1.2"/>
    <path d="M 123.617344 76.986245 
L 95.158759 110.125828 
" clip-path="url(#p4a8235a6d1)" style="fill: none; stroke: #000000; stroke-width: 1.2"/>
    <path d="M 123.617344 76.986245 
L 105.542597 133.140751 
" clip-path="url(#p4a8235a6d1)" style="fill: none; stroke: #000000; stroke-width: 1.2"/>
    <path d="M 57.356077 89.833805 
L 105.260734 71.253868 
" clip-path="url(#p4a8235a6d1)" style="fill: none; stroke: #000000; stroke-width: 1.2"/>
    <path d="M 57.356077 89.833805 
L 91.030138 103.023678 
" clip-path="url(#p4a8235a6d1)" style="fill: none; stroke: #000000; stroke-width: 1.2"/>
    <path d="M 57.356077 89.833805 
L 68.842684 69.12005 
" clip-path="url(#p4a8235a6d1)" style="fill: none; stroke: #000000; stroke-width: 1.2"/>
    <path d="M 57.356077 89.833805 
L 95.158759 110.125828 
" clip-path="url(#p4a8235a6d1)" style="fill: none; stroke: #000000; stroke-width: 1.2"/>
    <path d="M 57.356077 89.833805 
L 59.516373 135.358395 
" clip-path="url(#p4a8235a6d1)" style="fill: none; stroke: #000000; stroke-width: 1.2"/>
    <path d="M 57.356077 89.833805 
L 67.721071 109.24279 
" clip-path="url(#p4a8235a6d1)" style="fill: none; stroke: #000000; stroke-width: 1.2"/>
    <path d="M 57.356077 89.833805 
L 89.033392 133.504829 
" clip-path="url(#p4a8235a6d1)" style="fill: none; stroke: #000000; stroke-width: 1.2"/>
    <path d="M 57.356077 89.833805 
L 55.368595 125.50039 
" clip-path="url(#p4a8235a6d1)" style="fill: none; stroke: #000000; stroke-width: 1.2"/>
    <path d="M 137.903275 75.701406 
L 105.260734 71.253868 
" clip-path="url(#p4a8235a6d1)" style="fill: none; stroke: #000000; stroke-width: 1.2"/>
    <path d="M 137.903275 75.701406 
L 129.701798 110.151897 
" clip-path="url(#p4a8235a6d1)" style="fill: none; stroke: #000000; stroke-width: 1.2"/>
    <path d="M 137.903275 75.701406 
L 91.030138 103.023678 
" clip-path="url(#p4a8235a6d1)" style="fill: none; stroke: #000000; stroke-width: 1.2"/>
    <path d="M 137.903275 75.701406 
L 104.70031 82.119168 
" clip-path="url(#p4a8235a6d1)" style="fill: none; stroke: #000000; stroke-width: 1.2"/>
    <path d="M 137.903275 75.701406 
L 128.838499 120.924374 
" clip-path="url(#p4a8235a6d1)" style="fill: none; stroke: #000000; stroke-width: 1.2"/>
    <path d="M 137.903275 75.701406 
L 116.935446 146.409796 
" clip-path="url(#p4a8235a6d1)" style="fill: none; stroke: #000000; stroke-width: 1.2"/>
    <path d="M 105.260734 71.253868 
L 129.701798 110.151897 
" clip-path="url(#p4a8235a6d1)" style="fill: none; stroke: #000000; stroke-width: 1.2"/>
    <path d="M 105.260734 71.253868 
L 91.030138 103.023678 
" clip-path="url(#p4a8235a6d1)" style="fill: none; stroke: #000000; stroke-width: 1.2"/>
    <path d="M 105.260734 71.253868 
L 68.842684 69.12005 
" clip-path="url(#p4a8235a6d1)" style="fill: none; stroke: #000000; stroke-width: 1.2"/>
    <path d="M 105.260734 71.253868 
L 143.235375 94.570631 
" clip-path="url(#p4a8235a6d1)" style="fill: none; stroke: #000000; stroke-width: 1.2"/>
    <path d="M 105.260734 71.253868 
L 95.158759 110.125828 
" clip-path="url(#p4a8235a6d1)" style="fill: none; stroke: #000000; stroke-width: 1.2"/>
    <path d="M 105.260734 71.253868 
L 89.033392 133.504829 
" clip-path="url(#p4a8235a6d1)" style="fill: none; stroke: #000000; stroke-width: 1.2"/>
    <path d="M 129.701798 110.151897 
L 91.030138 103.023678 
" clip-path="url(#p4a8235a6d1)" style="fill: none; stroke: #000000; stroke-width: 1.2"/>
    <path d="M 129.701798 110.151897 
L 143.235375 94.570631 
" clip-path="url(#p4a8235a6d1)" style="fill: none; stroke: #000000; stroke-width: 1.2"/>
    <path d="M 129.701798 110.151897 
L 95.158759 110.125828 
" clip-path="url(#p4a8235a6d1)" style="fill: none; stroke: #000000; stroke-width: 1.2"/>
    <path d="M 129.701798 110.151897 
L 116.935446 146.409796 
" clip-path="url(#p4a8235a6d1)" style="fill: none; stroke: #000000; stroke-width: 1.2"/>
    <path d="M 129.701798 110.151897 
L 89.033392 133.504829 
" clip-path="url(#p4a8235a6d1)" style="fill: none; stroke: #000000; stroke-width: 1.2"/>
    <path d="M 129.701798 110.151897 
L 140.45573 132.067432 
" clip-path="url(#p4a8235a6d1)" style="fill: none; stroke: #000000; stroke-width: 1.2"/>
    <path d="M 129.701798 110.151897 
L 127.697872 151.356675 
" clip-path="url(#p4a8235a6d1)" style="fill: none; stroke: #000000; stroke-width: 1.2"/>
    <path d="M 91.030138 103.023678 
L 56.157991 100.96868 
" clip-path="url(#p4a8235a6d1)" style="fill: none; stroke: #000000; stroke-width: 1.2"/>
    <path d="M 91.030138 103.023678 
L 104.70031 82.119168 
" clip-path="url(#p4a8235a6d1)" style="fill: none; stroke: #000000; stroke-width: 1.2"/>
    <path d="M 91.030138 103.023678 
L 128.838499 120.924374 
" clip-path="url(#p4a8235a6d1)" style="fill: none; stroke: #000000; stroke-width: 1.2"/>
    <path d="M 91.030138 103.023678 
L 59.516373 135.358395 
" clip-path="url(#p4a8235a6d1)" style="fill: none; stroke: #000000; stroke-width: 1.2"/>
    <path d="M 91.030138 103.023678 
L 116.935446 146.409796 
" clip-path="url(#p4a8235a6d1)" style="fill: none; stroke: #000000; stroke-width: 1.2"/>
    <path d="M 91.030138 103.023678 
L 89.033392 133.504829 
" clip-path="url(#p4a8235a6d1)" style="fill: none; stroke: #000000; stroke-width: 1.2"/>
    <path d="M 91.030138 103.023678 
L 105.298162 123.89748 
" clip-path="url(#p4a8235a6d1)" style="fill: none; stroke: #000000; stroke-width: 1.2"/>
    <path d="M 91.030138 103.023678 
L 90.8236 143.773564 
" clip-path="url(#p4a8235a6d1)" style="fill: none; stroke: #000000; stroke-width: 1.2"/>
    <path d="M 68.842684 69.12005 
L 56.157991 100.96868 
" clip-path="url(#p4a8235a6d1)" style="fill: none; stroke: #000000; stroke-width: 1.2"/>
    <path d="M 68.842684 69.12005 
L 104.70031 82.119168 
" clip-path="url(#p4a8235a6d1)" style="fill: none; stroke: #000000; stroke-width: 1.2"/>
    <path d="M 68.842684 69.12005 
L 95.158759 110.125828 
" clip-path="url(#p4a8235a6d1)" style="fill: none; stroke: #000000; stroke-width: 1.2"/>
    <path d="M 68.842684 69.12005 
L 55.368595 125.50039 
" clip-path="url(#p4a8235a6d1)" style="fill: none; stroke: #000000; stroke-width: 1.2"/>
    <path d="M 56.157991 100.96868 
L 104.70031 82.119168 
" clip-path="url(#p4a8235a6d1)" style="fill: none; stroke: #000000; stroke-width: 1.2"/>
    <path d="M 56.157991 100.96868 
L 95.158759 110.125828 
" clip-path="url(#p4a8235a6d1)" style="fill: none; stroke: #000000; stroke-width: 1.2"/>
    <path d="M 56.157991 100.96868 
L 59.516373 135.358395 
" clip-path="url(#p4a8235a6d1)" style="fill: none; stroke: #000000; stroke-width: 1.2"/>
    <path d="M 56.157991 100.96868 
L 55.368595 125.50039 
" clip-path="url(#p4a8235a6d1)" style="fill: none; stroke: #000000; stroke-width: 1.2"/>
    <path d="M 56.157991 100.96868 
L 71.391916 121.143774 
" clip-path="url(#p4a8235a6d1)" style="fill: none; stroke: #000000; stroke-width: 1.2"/>
    <path d="M 56.157991 100.96868 
L 90.8236 143.773564 
" clip-path="url(#p4a8235a6d1)" style="fill: none; stroke: #000000; stroke-width: 1.2"/>
    <path d="M 143.235375 94.570631 
L 104.70031 82.119168 
" clip-path="url(#p4a8235a6d1)" style="fill: none; stroke: #000000; stroke-width: 1.2"/>
    <path d="M 143.235375 94.570631 
L 128.838499 120.924374 
" clip-path="url(#p4a8235a6d1)" style="fill: none; stroke: #000000; stroke-width: 1.2"/>
    <path d="M 143.235375 94.570631 
L 95.158759 110.125828 
" clip-path="url(#p4a8235a6d1)" style="fill: none; stroke: #000000; stroke-width: 1.2"/>
    <path d="M 143.235375 94.570631 
L 127.697872 151.356675 
" clip-path="url(#p4a8235a6d1)" style="fill: none; stroke: #000000; stroke-width: 1.2"/>
    <path d="M 104.70031 82.119168 
L 128.838499 120.924374 
" clip-path="url(#p4a8235a6d1)" style="fill: none; stroke: #000000; stroke-width: 1.2"/>
    <path d="M 104.70031 82.119168 
L 95.158759 110.125828 
" clip-path="url(#p4a8235a6d1)" style="fill: none; stroke: #000000; stroke-width: 1.2"/>
    <path d="M 104.70031 82.119168 
L 90.8236 143.773564 
" clip-path="url(#p4a8235a6d1)" style="fill: none; stroke: #000000; stroke-width: 1.2"/>
    <path d="M 128.838499 120.924374 
L 95.158759 110.125828 
" clip-path="url(#p4a8235a6d1)" style="fill: none; stroke: #000000; stroke-width: 1.2"/>
    <path d="M 128.838499 120.924374 
L 116.935446 146.409796 
" clip-path="url(#p4a8235a6d1)" style="fill: none; stroke: #000000; stroke-width: 1.2"/>
    <path d="M 128.838499 120.924374 
L 127.697872 151.356675 
" clip-path="url(#p4a8235a6d1)" style="fill: none; stroke: #000000; stroke-width: 1.2"/>
    <path d="M 128.838499 120.924374 
L 90.8236 143.773564 
" clip-path="url(#p4a8235a6d1)" style="fill: none; stroke: #000000; stroke-width: 1.2"/>
    <path d="M 128.838499 120.924374 
L 140.37789 144.085268 
" clip-path="url(#p4a8235a6d1)" style="fill: none; stroke: #000000; stroke-width: 1.2"/>
    <path d="M 95.158759 110.125828 
L 89.033392 133.504829 
" clip-path="url(#p4a8235a6d1)" style="fill: none; stroke: #000000; stroke-width: 1.2"/>
    <path d="M 95.158759 110.125828 
L 55.368595 125.50039 
" clip-path="url(#p4a8235a6d1)" style="fill: none; stroke: #000000; stroke-width: 1.2"/>
    <path d="M 95.158759 110.125828 
L 127.697872 151.356675 
" clip-path="url(#p4a8235a6d1)" style="fill: none; stroke: #000000; stroke-width: 1.2"/>
    <path d="M 95.158759 110.125828 
L 90.8236 143.773564 
" clip-path="url(#p4a8235a6d1)" style="fill: none; stroke: #000000; stroke-width: 1.2"/>
    <path d="M 95.158759 110.125828 
L 105.542597 133.140751 
" clip-path="url(#p4a8235a6d1)" style="fill: none; stroke: #000000; stroke-width: 1.2"/>
    <path d="M 59.516373 135.358395 
L 67.721071 109.24279 
" clip-path="url(#p4a8235a6d1)" style="fill: none; stroke: #000000; stroke-width: 1.2"/>
    <path d="M 59.516373 135.358395 
L 89.033392 133.504829 
" clip-path="url(#p4a8235a6d1)" style="fill: none; stroke: #000000; stroke-width: 1.2"/>
    <path d="M 59.516373 135.358395 
L 105.298162 123.89748 
" clip-path="url(#p4a8235a6d1)" style="fill: none; stroke: #000000; stroke-width: 1.2"/>
    <path d="M 59.516373 135.358395 
L 71.391916 121.143774 
" clip-path="url(#p4a8235a6d1)" style="fill: none; stroke: #000000; stroke-width: 1.2"/>
    <path d="M 59.516373 135.358395 
L 90.8236 143.773564 
" clip-path="url(#p4a8235a6d1)" style="fill: none; stroke: #000000; stroke-width: 1.2"/>
    <path d="M 67.721071 109.24279 
L 89.033392 133.504829 
" clip-path="url(#p4a8235a6d1)" style="fill: none; stroke: #000000; stroke-width: 1.2"/>
    <path d="M 67.721071 109.24279 
L 105.298162 123.89748 
" clip-path="url(#p4a8235a6d1)" style="fill: none; stroke: #000000; stroke-width: 1.2"/>
    <path d="M 67.721071 109.24279 
L 55.368595 125.50039 
" clip-path="url(#p4a8235a6d1)" style="fill: none; stroke: #000000; stroke-width: 1.2"/>
    <path d="M 67.721071 109.24279 
L 105.542597 133.140751 
" clip-path="url(#p4a8235a6d1)" style="fill: none; stroke: #000000; stroke-width: 1.2"/>
    <path d="M 116.935446 146.409796 
L 89.033392 133.504829 
" clip-path="url(#p4a8235a6d1)" style="fill: none; stroke: #000000; stroke-width: 1.2"/>
    <path d="M 116.935446 146.409796 
L 140.45573 132.067432 
" clip-path="url(#p4a8235a6d1)" style="fill: none; stroke: #000000; stroke-width: 1.2"/>
    <path d="M 116.935446 146.409796 
L 105.298162 123.89748 
" clip-path="url(#p4a8235a6d1)" style="fill: none; stroke: #000000; stroke-width: 1.2"/>
    <path d="M 116.935446 146.409796 
L 90.8236 143.773564 
" clip-path="url(#p4a8235a6d1)" style="fill: none; stroke: #000000; stroke-width: 1.2"/>
    <path d="M 116.935446 146.409796 
L 140.37789 144.085268 
" clip-path="url(#p4a8235a6d1)" style="fill: none; stroke: #000000; stroke-width: 1.2"/>
    <path d="M 89.033392 133.504829 
L 140.45573 132.067432 
" clip-path="url(#p4a8235a6d1)" style="fill: none; stroke: #000000; stroke-width: 1.2"/>
    <path d="M 89.033392 133.504829 
L 105.298162 123.89748 
" clip-path="url(#p4a8235a6d1)" style="fill: none; stroke: #000000; stroke-width: 1.2"/>
    <path d="M 89.033392 133.504829 
L 55.368595 125.50039 
" clip-path="url(#p4a8235a6d1)" style="fill: none; stroke: #000000; stroke-width: 1.2"/>
    <path d="M 89.033392 133.504829 
L 127.697872 151.356675 
" clip-path="url(#p4a8235a6d1)" style="fill: none; stroke: #000000; stroke-width: 1.2"/>
    <path d="M 89.033392 133.504829 
L 105.542597 133.140751 
" clip-path="url(#p4a8235a6d1)" style="fill: none; stroke: #000000; stroke-width: 1.2"/>
    <path d="M 140.45573 132.067432 
L 105.298162 123.89748 
" clip-path="url(#p4a8235a6d1)" style="fill: none; stroke: #000000; stroke-width: 1.2"/>
    <path d="M 140.45573 132.067432 
L 127.697872 151.356675 
" clip-path="url(#p4a8235a6d1)" style="fill: none; stroke: #000000; stroke-width: 1.2"/>
    <path d="M 140.45573 132.067432 
L 105.542597 133.140751 
" clip-path="url(#p4a8235a6d1)" style="fill: none; stroke: #000000; stroke-width: 1.2"/>
    <path d="M 140.45573 132.067432 
L 178.596249 138.733963 
" clip-path="url(#p4a8235a6d1)" style="fill: none; stroke: #000000; stroke-width: 1.2"/>
    <path d="M 105.298162 123.89748 
L 71.391916 121.143774 
" clip-path="url(#p4a8235a6d1)" style="fill: none; stroke: #000000; stroke-width: 1.2"/>
    <path d="M 105.298162 123.89748 
L 90.8236 143.773564 
" clip-path="url(#p4a8235a6d1)" style="fill: none; stroke: #000000; stroke-width: 1.2"/>
    <path d="M 105.298162 123.89748 
L 140.37789 144.085268 
" clip-path="url(#p4a8235a6d1)" style="fill: none; stroke: #000000; stroke-width: 1.2"/>
    <path d="M 55.368595 125.50039 
L 71.391916 121.143774 
" clip-path="url(#p4a8235a6d1)" style="fill: none; stroke: #000000; stroke-width: 1.2"/>
    <path d="M 55.368595 125.50039 
L 90.8236 143.773564 
" clip-path="url(#p4a8235a6d1)" style="fill: none; stroke: #000000; stroke-width: 1.2"/>
    <path d="M 55.368595 125.50039 
L 105.542597 133.140751 
" clip-path="url(#p4a8235a6d1)" style="fill: none; stroke: #000000; stroke-width: 1.2"/>
    <path d="M 71.391916 121.143774 
L 90.8236 143.773564 
" clip-path="url(#p4a8235a6d1)" style="fill: none; stroke: #000000; stroke-width: 1.2"/>
    <path d="M 71.391916 121.143774 
L 105.542597 133.140751 
" clip-path="url(#p4a8235a6d1)" style="fill: none; stroke: #000000; stroke-width: 1.2"/>
    <path d="M 127.697872 151.356675 
L 90.8236 143.773564 
" clip-path="url(#p4a8235a6d1)" style="fill: none; stroke: #000000; stroke-width: 1.2"/>
    <path d="M 127.697872 151.356675 
L 140.37789 144.085268 
" clip-path="url(#p4a8235a6d1)" style="fill: none; stroke: #000000; stroke-width: 1.2"/>
    <path d="M 127.697872 151.356675 
L 105.542597 133.140751 
" clip-path="url(#p4a8235a6d1)" style="fill: none; stroke: #000000; stroke-width: 1.2"/>
    <path d="M 127.697872 151.356675 
L 167.720271 161.87697 
" clip-path="url(#p4a8235a6d1)" style="fill: none; stroke: #000000; stroke-width: 1.2"/>
    <path d="M 127.697872 151.356675 
L 178.596249 138.733963 
" clip-path="url(#p4a8235a6d1)" style="fill: none; stroke: #000000; stroke-width: 1.2"/>
    <path d="M 90.8236 143.773564 
L 140.37789 144.085268 
" clip-path="url(#p4a8235a6d1)" style="fill: none; stroke: #000000; stroke-width: 1.2"/>
    <path d="M 90.8236 143.773564 
L 105.542597 133.140751 
" clip-path="url(#p4a8235a6d1)" style="fill: none; stroke: #000000; stroke-width: 1.2"/>
    <path d="M 140.37789 144.085268 
L 105.542597 133.140751 
" clip-path="url(#p4a8235a6d1)" style="fill: none; stroke: #000000; stroke-width: 1.2"/>
    <path d="M 140.37789 144.085268 
L 147.749023 176.402931 
" clip-path="url(#p4a8235a6d1)" style="fill: none; stroke: #000000; stroke-width: 1.2"/>
    <path d="M 140.37789 144.085268 
L 167.720271 161.87697 
" clip-path="url(#p4a8235a6d1)" style="fill: none; stroke: #000000; stroke-width: 1.2"/>
    <path d="M 186.205451 237.076364 
L 195.165256 191.958296 
" clip-path="url(#p4a8235a6d1)" style="fill: none; stroke: #000000; stroke-width: 1.2"/>
    <path d="M 220.333829 218.461531 
L 195.165256 191.958296 
" clip-path="url(#p4a8235a6d1)" style="fill: none; stroke: #000000; stroke-width: 1.2"/>
    <path d="M 239.831405 184.106561 
L 195.165256 191.958296 
" clip-path="url(#p4a8235a6d1)" style="fill: none; stroke: #000000; stroke-width: 1.2"/>
    <path d="M 147.749023 176.402931 
L 167.720271 161.87697 
" clip-path="url(#p4a8235a6d1)" style="fill: none; stroke: #000000; stroke-width: 1.2"/>
    <path d="M 195.165256 191.958296 
L 167.720271 161.87697 
" clip-path="url(#p4a8235a6d1)" style="fill: none; stroke: #000000; stroke-width: 1.2"/>
    <path d="M 167.720271 161.87697 
L 178.596249 138.733963 
" clip-path="url(#p4a8235a6d1)" style="fill: none; stroke: #000000; stroke-width: 1.2"/>
   </g>
   <g id="PathCollection_1">
    <defs>
     <path id="C0_0_70b002390e" d="M 0 8.944272 
C 2.372049 8.944272 4.647264 8.001847 6.324555 6.324555 
C 8.001847 4.647264 8.944272 2.372049 8.944272 -0 
C 8.944272 -2.372049 8.001847 -4.647264 6.324555 -6.324555 
C 4.647264 -8.001847 2.372049 -8.944272 0 -8.944272 
C -2.372049 -8.944272 -4.647264 -8.001847 -6.324555 -6.324555 
C -8.001847 -4.647264 -8.944272 -2.372049 -8.944272 0 
C -8.944272 2.372049 -8.001847 4.647264 -6.324555 6.324555 
C -4.647264 8.001847 -2.372049 8.944272 0 8.944272 
z
"/>
    </defs>
    <g clip-path="url(#p4a8235a6d1)">
     <use xlink:href="#C0_0_70b002390e" x="77.220408" y="83.23122" style="fill: #e06633; stroke: #e06633; stroke-width: 0.5"/>
    </g>
    <g clip-path="url(#p4a8235a6d1)">
     <use xlink:href="#C0_0_70b002390e" x="89.967512" y="53.803636" style="fill: #e06633; stroke: #e06633; stroke-width: 0.5"/>
    </g>
    <g clip-path="url(#p4a8235a6d1)">
     <use xlink:href="#C0_0_70b002390e" x="152.718995" y="107.302537" style="fill: #e06633; stroke: #e06633; stroke-width: 0.5"/>
    </g>
    <g clip-path="url(#p4a8235a6d1)">
     <use xlink:href="#C0_0_70b002390e" x="117.274548" y="96.262885" style="fill: #e06633; stroke: #e06633; stroke-width: 0.5"/>
    </g>
    <g clip-path="url(#p4a8235a6d1)">
     <use xlink:href="#C0_0_70b002390e" x="155.587068" y="78.537339" style="fill: #e06633; stroke: #e06633; stroke-width: 0.5"/>
    </g>
    <g clip-path="url(#p4a8235a6d1)">
     <use xlink:href="#C0_0_70b002390e" x="122.320831" y="64.105827" style="fill: #e06633; stroke: #e06633; stroke-width: 0.5"/>
    </g>
    <g clip-path="url(#p4a8235a6d1)">
     <use xlink:href="#C0_0_70b002390e" x="81.741794" y="89.171033" style="fill: #e06633; stroke: #e06633; stroke-width: 0.5"/>
    </g>
    <g clip-path="url(#p4a8235a6d1)">
     <use xlink:href="#C0_0_70b002390e" x="86.799091" y="61.65982" style="fill: #e06633; stroke: #e06633; stroke-width: 0.5"/>
    </g>
    <g clip-path="url(#p4a8235a6d1)">
     <use xlink:href="#C0_0_70b002390e" x="154.813209" y="122.209537" style="fill: #e06633; stroke: #e06633; stroke-width: 0.5"/>
    </g>
    <g clip-path="url(#p4a8235a6d1)">
     <use xlink:href="#C0_0_70b002390e" x="117.367893" y="104.87465" style="fill: #e06633; stroke: #e06633; stroke-width: 0.5"/>
    </g>
    <g clip-path="url(#p4a8235a6d1)">
     <use xlink:href="#C0_0_70b002390e" x="158.221305" y="89.16394" style="fill: #e06633; stroke: #e06633; stroke-width: 0.5"/>
    </g>
    <g clip-path="url(#p4a8235a6d1)">
     <use xlink:href="#C0_0_70b002390e" x="123.617344" y="76.986245" style="fill: #e06633; stroke: #e06633; stroke-width: 0.5"/>
    </g>
    <g clip-path="url(#p4a8235a6d1)">
     <use xlink:href="#C0_0_70b002390e" x="57.356077" y="89.833805" style="fill: #e06633; stroke: #e06633; stroke-width: 0.5"/>
    </g>
    <g clip-path="url(#p4a8235a6d1)">
     <use xlink:href="#C0_0_70b002390e" x="137.903275" y="75.701406" style="fill: #e06633; stroke: #e06633; stroke-width: 0.5"/>
    </g>
    <g clip-path="url(#p4a8235a6d1)">
     <use xlink:href="#C0_0_70b002390e" x="105.260734" y="71.253868" style="fill: #e06633; stroke: #e06633; stroke-width: 0.5"/>
    </g>
    <g clip-path="url(#p4a8235a6d1)">
     <use xlink:href="#C0_0_70b002390e" x="129.701798" y="110.151897" style="fill: #e06633; stroke: #e06633; stroke-width: 0.5"/>
    </g>
    <g clip-path="url(#p4a8235a6d1)">
     <use xlink:href="#C0_0_70b002390e" x="91.030138" y="103.023678" style="fill: #e06633; stroke: #e06633; stroke-width: 0.5"/>
    </g>
    <g clip-path="url(#p4a8235a6d1)">
     <use xlink:href="#C0_0_70b002390e" x="68.842684" y="69.12005" style="fill: #e06633; stroke: #e06633; stroke-width: 0.5"/>
    </g>
    <g clip-path="url(#p4a8235a6d1)">
     <use xlink:href="#C0_0_70b002390e" x="56.157991" y="100.96868" style="fill: #e06633; stroke: #e06633; stroke-width: 0.5"/>
    </g>
    <g clip-path="url(#p4a8235a6d1)">
     <use xlink:href="#C0_0_70b002390e" x="143.235375" y="94.570631" style="fill: #e06633; stroke: #e06633; stroke-width: 0.5"/>
    </g>
    <g clip-path="url(#p4a8235a6d1)">
     <use xlink:href="#C0_0_70b002390e" x="104.70031" y="82.119168" style="fill: #e06633; stroke: #e06633; stroke-width: 0.5"/>
    </g>
    <g clip-path="url(#p4a8235a6d1)">
     <use xlink:href="#C0_0_70b002390e" x="128.838499" y="120.924374" style="fill: #e06633; stroke: #e06633; stroke-width: 0.5"/>
    </g>
    <g clip-path="url(#p4a8235a6d1)">
     <use xlink:href="#C0_0_70b002390e" x="95.158759" y="110.125828" style="fill: #e06633; stroke: #e06633; stroke-width: 0.5"/>
    </g>
    <g clip-path="url(#p4a8235a6d1)">
     <use xlink:href="#C0_0_70b002390e" x="59.516373" y="135.358395" style="fill: #e06633; stroke: #e06633; stroke-width: 0.5"/>
    </g>
    <g clip-path="url(#p4a8235a6d1)">
     <use xlink:href="#C0_0_70b002390e" x="67.721071" y="109.24279" style="fill: #e06633; stroke: #e06633; stroke-width: 0.5"/>
    </g>
    <g clip-path="url(#p4a8235a6d1)">
     <use xlink:href="#C0_0_70b002390e" x="116.935446" y="146.409796" style="fill: #e06633; stroke: #e06633; stroke-width: 0.5"/>
    </g>
    <g clip-path="url(#p4a8235a6d1)">
     <use xlink:href="#C0_0_70b002390e" x="89.033392" y="133.504829" style="fill: #e06633; stroke: #e06633; stroke-width: 0.5"/>
    </g>
    <g clip-path="url(#p4a8235a6d1)">
     <use xlink:href="#C0_0_70b002390e" x="140.45573" y="132.067432" style="fill: #e06633; stroke: #e06633; stroke-width: 0.5"/>
    </g>
    <g clip-path="url(#p4a8235a6d1)">
     <use xlink:href="#C0_0_70b002390e" x="105.298162" y="123.89748" style="fill: #e06633; stroke: #e06633; stroke-width: 0.5"/>
    </g>
    <g clip-path="url(#p4a8235a6d1)">
     <use xlink:href="#C0_0_70b002390e" x="55.368595" y="125.50039" style="fill: #e06633; stroke: #e06633; stroke-width: 0.5"/>
    </g>
    <g clip-path="url(#p4a8235a6d1)">
     <use xlink:href="#C0_0_70b002390e" x="71.391916" y="121.143774" style="fill: #e06633; stroke: #e06633; stroke-width: 0.5"/>
    </g>
    <g clip-path="url(#p4a8235a6d1)">
     <use xlink:href="#C0_0_70b002390e" x="127.697872" y="151.356675" style="fill: #e06633; stroke: #e06633; stroke-width: 0.5"/>
    </g>
    <g clip-path="url(#p4a8235a6d1)">
     <use xlink:href="#C0_0_70b002390e" x="90.8236" y="143.773564" style="fill: #e06633; stroke: #e06633; stroke-width: 0.5"/>
    </g>
    <g clip-path="url(#p4a8235a6d1)">
     <use xlink:href="#C0_0_70b002390e" x="140.37789" y="144.085268" style="fill: #e06633; stroke: #e06633; stroke-width: 0.5"/>
    </g>
    <g clip-path="url(#p4a8235a6d1)">
     <use xlink:href="#C0_0_70b002390e" x="105.542597" y="133.140751" style="fill: #e06633; stroke: #e06633; stroke-width: 0.5"/>
    </g>
    <g clip-path="url(#p4a8235a6d1)">
     <use xlink:href="#C0_0_70b002390e" x="186.205451" y="237.076364" style="fill: #bfbfbf; stroke: #bfbfbf; stroke-width: 0.5"/>
    </g>
    <g clip-path="url(#p4a8235a6d1)">
     <use xlink:href="#C0_0_70b002390e" x="220.333829" y="218.461531" style="fill: #bfbfbf; stroke: #bfbfbf; stroke-width: 0.5"/>
    </g>
    <g clip-path="url(#p4a8235a6d1)">
     <use xlink:href="#C0_0_70b002390e" x="239.831405" y="184.106561" style="fill: #bfbfbf; stroke: #bfbfbf; stroke-width: 0.5"/>
    </g>
    <g clip-path="url(#p4a8235a6d1)">
     <use xlink:href="#C0_0_70b002390e" x="147.749023" y="176.402931" style="fill: #bfbfbf; stroke: #bfbfbf; stroke-width: 0.5"/>
    </g>
    <g clip-path="url(#p4a8235a6d1)">
     <use xlink:href="#C0_0_70b002390e" x="195.165256" y="191.958296" style="fill: #666666; stroke: #666666; stroke-width: 0.5"/>
    </g>
    <g clip-path="url(#p4a8235a6d1)">
     <use xlink:href="#C0_0_70b002390e" x="167.720271" y="161.87697" style="fill: #666666; stroke: #666666; stroke-width: 0.5"/>
    </g>
    <g clip-path="url(#p4a8235a6d1)">
     <use xlink:href="#C0_0_70b002390e" x="178.596249" y="138.733963" style="fill: #ff0d0d; stroke: #ff0d0d; stroke-width: 0.5"/>
    </g>
   </g>
   <g id="text_1">
    <!-- C2H4Fe48O -->
    <g transform="translate(124.093794 -1.207052) scale(0.1 -0.1)">
     <defs>
      <path id="DejaVuSans-43" d="M 4122 4306 
L 4122 3641 
Q 3803 3938 3442 4084 
Q 3081 4231 2675 4231 
Q 1875 4231 1450 3742 
Q 1025 3253 1025 2328 
Q 1025 1406 1450 917 
Q 1875 428 2675 428 
Q 3081 428 3442 575 
Q 3803 722 4122 1019 
L 4122 359 
Q 3791 134 3420 21 
Q 3050 -91 2638 -91 
Q 1578 -91 968 557 
Q 359 1206 359 2328 
Q 359 3453 968 4101 
Q 1578 4750 2638 4750 
Q 3056 4750 3426 4639 
Q 3797 4528 4122 4306 
z
" transform="scale(0.015625)"/>
      <path id="DejaVuSans-32" d="M 1228 531 
L 3431 531 
L 3431 0 
L 469 0 
L 469 531 
Q 828 903 1448 1529 
Q 2069 2156 2228 2338 
Q 2531 2678 2651 2914 
Q 2772 3150 2772 3378 
Q 2772 3750 2511 3984 
Q 2250 4219 1831 4219 
Q 1534 4219 1204 4116 
Q 875 4013 500 3803 
L 500 4441 
Q 881 4594 1212 4672 
Q 1544 4750 1819 4750 
Q 2544 4750 2975 4387 
Q 3406 4025 3406 3419 
Q 3406 3131 3298 2873 
Q 3191 2616 2906 2266 
Q 2828 2175 2409 1742 
Q 1991 1309 1228 531 
z
" transform="scale(0.015625)"/>
      <path id="DejaVuSans-48" d="M 628 4666 
L 1259 4666 
L 1259 2753 
L 3553 2753 
L 3553 4666 
L 4184 4666 
L 4184 0 
L 3553 0 
L 3553 2222 
L 1259 2222 
L 1259 0 
L 628 0 
L 628 4666 
z
" transform="scale(0.015625)"/>
      <path id="DejaVuSans-34" d="M 2419 4116 
L 825 1625 
L 2419 1625 
L 2419 4116 
z
M 2253 4666 
L 3047 4666 
L 3047 1625 
L 3713 1625 
L 3713 1100 
L 3047 1100 
L 3047 0 
L 2419 0 
L 2419 1100 
L 313 1100 
L 313 1709 
L 2253 4666 
z
" transform="scale(0.015625)"/>
      <path id="DejaVuSans-46" d="M 628 4666 
L 3309 4666 
L 3309 4134 
L 1259 4134 
L 1259 2759 
L 3109 2759 
L 3109 2228 
L 1259 2228 
L 1259 0 
L 628 0 
L 628 4666 
z
" transform="scale(0.015625)"/>
      <path id="DejaVuSans-65" d="M 3597 1894 
L 3597 1613 
L 953 1613 
Q 991 1019 1311 708 
Q 1631 397 2203 397 
Q 2534 397 2845 478 
Q 3156 559 3463 722 
L 3463 178 
Q 3153 47 2828 -22 
Q 2503 -91 2169 -91 
Q 1331 -91 842 396 
Q 353 884 353 1716 
Q 353 2575 817 3079 
Q 1281 3584 2069 3584 
Q 2775 3584 3186 3129 
Q 3597 2675 3597 1894 
z
M 3022 2063 
Q 3016 2534 2758 2815 
Q 2500 3097 2075 3097 
Q 1594 3097 1305 2825 
Q 1016 2553 972 2059 
L 3022 2063 
z
" transform="scale(0.015625)"/>
      <path id="DejaVuSans-38" d="M 2034 2216 
Q 1584 2216 1326 1975 
Q 1069 1734 1069 1313 
Q 1069 891 1326 650 
Q 1584 409 2034 409 
Q 2484 409 2743 651 
Q 3003 894 3003 1313 
Q 3003 1734 2745 1975 
Q 2488 2216 2034 2216 
z
M 1403 2484 
Q 997 2584 770 2862 
Q 544 3141 544 3541 
Q 544 4100 942 4425 
Q 1341 4750 2034 4750 
Q 2731 4750 3128 4425 
Q 3525 4100 3525 3541 
Q 3525 3141 3298 2862 
Q 3072 2584 2669 2484 
Q 3125 2378 3379 2068 
Q 3634 1759 3634 1313 
Q 3634 634 3220 271 
Q 2806 -91 2034 -91 
Q 1263 -91 848 271 
Q 434 634 434 1313 
Q 434 1759 690 2068 
Q 947 2378 1403 2484 
z
M 1172 3481 
Q 1172 3119 1398 2916 
Q 1625 2713 2034 2713 
Q 2441 2713 2670 2916 
Q 2900 3119 2900 3481 
Q 2900 3844 2670 4047 
Q 2441 4250 2034 4250 
Q 1625 4250 1398 4047 
Q 1172 3844 1172 3481 
z
" transform="scale(0.015625)"/>
      <path id="DejaVuSans-4f" d="M 2522 4238 
Q 1834 4238 1429 3725 
Q 1025 3213 1025 2328 
Q 1025 1447 1429 934 
Q 1834 422 2522 422 
Q 3209 422 3611 934 
Q 4013 1447 4013 2328 
Q 4013 3213 3611 3725 
Q 3209 4238 2522 4238 
z
M 2522 4750 
Q 3503 4750 4090 4092 
Q 4678 3434 4678 2328 
Q 4678 1225 4090 567 
Q 3503 -91 2522 -91 
Q 1538 -91 948 565 
Q 359 1222 359 2328 
Q 359 3434 948 4092 
Q 1538 4750 2522 4750 
z
" transform="scale(0.015625)"/>
     </defs>
     <use xlink:href="#DejaVuSans-43"/>
     <use xlink:href="#DejaVuSans-32" transform="translate(69.824219 0)"/>
     <use xlink:href="#DejaVuSans-48" transform="translate(133.447266 0)"/>
     <use xlink:href="#DejaVuSans-34" transform="translate(208.642578 0)"/>
     <use xlink:href="#DejaVuSans-46" transform="translate(272.265625 0)"/>
     <use xlink:href="#DejaVuSans-65" transform="translate(324.285156 0)"/>
     <use xlink:href="#DejaVuSans-34" transform="translate(385.808594 0)"/>
     <use xlink:href="#DejaVuSans-38" transform="translate(449.431641 0)"/>
     <use xlink:href="#DejaVuSans-4f" transform="translate(513.054688 0)"/>
    </g>
    <!-- Error: -8.90 eV -->
    <g transform="translate(124.093794 9.990761) scale(0.1 -0.1)">
     <defs>
      <path id="DejaVuSans-45" d="M 628 4666 
L 3578 4666 
L 3578 4134 
L 1259 4134 
L 1259 2753 
L 3481 2753 
L 3481 2222 
L 1259 2222 
L 1259 531 
L 3634 531 
L 3634 0 
L 628 0 
L 628 4666 
z
" transform="scale(0.015625)"/>
      <path id="DejaVuSans-72" d="M 2631 2963 
Q 2534 3019 2420 3045 
Q 2306 3072 2169 3072 
Q 1681 3072 1420 2755 
Q 1159 2438 1159 1844 
L 1159 0 
L 581 0 
L 581 3500 
L 1159 3500 
L 1159 2956 
Q 1341 3275 1631 3429 
Q 1922 3584 2338 3584 
Q 2397 3584 2469 3576 
Q 2541 3569 2628 3553 
L 2631 2963 
z
" transform="scale(0.015625)"/>
      <path id="DejaVuSans-6f" d="M 1959 3097 
Q 1497 3097 1228 2736 
Q 959 2375 959 1747 
Q 959 1119 1226 758 
Q 1494 397 1959 397 
Q 2419 397 2687 759 
Q 2956 1122 2956 1747 
Q 2956 2369 2687 2733 
Q 2419 3097 1959 3097 
z
M 1959 3584 
Q 2709 3584 3137 3096 
Q 3566 2609 3566 1747 
Q 3566 888 3137 398 
Q 2709 -91 1959 -91 
Q 1206 -91 779 398 
Q 353 888 353 1747 
Q 353 2609 779 3096 
Q 1206 3584 1959 3584 
z
" transform="scale(0.015625)"/>
      <path id="DejaVuSans-3a" d="M 750 794 
L 1409 794 
L 1409 0 
L 750 0 
L 750 794 
z
M 750 3309 
L 1409 3309 
L 1409 2516 
L 750 2516 
L 750 3309 
z
" transform="scale(0.015625)"/>
      <path id="DejaVuSans-20" transform="scale(0.015625)"/>
      <path id="DejaVuSans-2d" d="M 313 2009 
L 1997 2009 
L 1997 1497 
L 313 1497 
L 313 2009 
z
" transform="scale(0.015625)"/>
      <path id="DejaVuSans-2e" d="M 684 794 
L 1344 794 
L 1344 0 
L 684 0 
L 684 794 
z
" transform="scale(0.015625)"/>
      <path id="DejaVuSans-39" d="M 703 97 
L 703 672 
Q 941 559 1184 500 
Q 1428 441 1663 441 
Q 2288 441 2617 861 
Q 2947 1281 2994 2138 
Q 2813 1869 2534 1725 
Q 2256 1581 1919 1581 
Q 1219 1581 811 2004 
Q 403 2428 403 3163 
Q 403 3881 828 4315 
Q 1253 4750 1959 4750 
Q 2769 4750 3195 4129 
Q 3622 3509 3622 2328 
Q 3622 1225 3098 567 
Q 2575 -91 1691 -91 
Q 1453 -91 1209 -44 
Q 966 3 703 97 
z
M 1959 2075 
Q 2384 2075 2632 2365 
Q 2881 2656 2881 3163 
Q 2881 3666 2632 3958 
Q 2384 4250 1959 4250 
Q 1534 4250 1286 3958 
Q 1038 3666 1038 3163 
Q 1038 2656 1286 2365 
Q 1534 2075 1959 2075 
z
" transform="scale(0.015625)"/>
      <path id="DejaVuSans-30" d="M 2034 4250 
Q 1547 4250 1301 3770 
Q 1056 3291 1056 2328 
Q 1056 1369 1301 889 
Q 1547 409 2034 409 
Q 2525 409 2770 889 
Q 3016 1369 3016 2328 
Q 3016 3291 2770 3770 
Q 2525 4250 2034 4250 
z
M 2034 4750 
Q 2819 4750 3233 4129 
Q 3647 3509 3647 2328 
Q 3647 1150 3233 529 
Q 2819 -91 2034 -91 
Q 1250 -91 836 529 
Q 422 1150 422 2328 
Q 422 3509 836 4129 
Q 1250 4750 2034 4750 
z
" transform="scale(0.015625)"/>
      <path id="DejaVuSans-56" d="M 1831 0 
L 50 4666 
L 709 4666 
L 2188 738 
L 3669 4666 
L 4325 4666 
L 2547 0 
L 1831 0 
z
" transform="scale(0.015625)"/>
     </defs>
     <use xlink:href="#DejaVuSans-45"/>
     <use xlink:href="#DejaVuSans-72" transform="translate(63.183594 0)"/>
     <use xlink:href="#DejaVuSans-72" transform="translate(102.546875 0)"/>
     <use xlink:href="#DejaVuSans-6f" transform="translate(141.410156 0)"/>
     <use xlink:href="#DejaVuSans-72" transform="translate(202.591797 0)"/>
     <use xlink:href="#DejaVuSans-3a" transform="translate(241.955078 0)"/>
     <use xlink:href="#DejaVuSans-20" transform="translate(275.646484 0)"/>
     <use xlink:href="#DejaVuSans-2d" transform="translate(307.433594 0)"/>
     <use xlink:href="#DejaVuSans-38" transform="translate(343.517578 0)"/>
     <use xlink:href="#DejaVuSans-2e" transform="translate(407.140625 0)"/>
     <use xlink:href="#DejaVuSans-39" transform="translate(438.927734 0)"/>
     <use xlink:href="#DejaVuSans-30" transform="translate(502.550781 0)"/>
     <use xlink:href="#DejaVuSans-20" transform="translate(566.173828 0)"/>
     <use xlink:href="#DejaVuSans-65" transform="translate(597.960938 0)"/>
     <use xlink:href="#DejaVuSans-56" transform="translate(659.484375 0)"/>
    </g>
   </g>
  </g>
 </g>
 <defs>
  <clipPath id="p4a8235a6d1">
   <rect x="36" y="34.56" width="223.2" height="221.76"/>
  </clipPath>
 </defs>
</svg>
