<?xml version="1.0" encoding="utf-8" standalone="no"?>
<!DOCTYPE svg PUBLIC "-//W3C//DTD SVG 1.1//EN"
  "http://www.w3.org/Graphics/SVG/1.1/DTD/svg11.dtd">
<svg xmlns:xlink="http://www.w3.org/1999/xlink" width="288pt" height="288pt" viewBox="0 0 288 288" xmlns="http://www.w3.org/2000/svg" version="1.1">
 <metadata>
  <rdf:RDF xmlns:dc="http://purl.org/dc/elements/1.1/" xmlns:cc="http://creativecommons.org/ns#" xmlns:rdf="http://www.w3.org/1999/02/22-rdf-syntax-ns#">
   <cc:Work>
    <dc:type rdf:resource="http://purl.org/dc/dcmitype/StillImage"/>
    <dc:date>2025-06-30T12:05:37.285703</dc:date>
    <dc:format>image/svg+xml</dc:format>
    <dc:creator>
     <cc:Agent>
      <dc:title>Matplotlib v3.10.1, https://matplotlib.org/</dc:title>
     </cc:Agent>
    </dc:creator>
   </cc:Work>
  </rdf:RDF>
 </metadata>
 <defs>
  <style type="text/css">*{stroke-linejoin: round; stroke-linecap: butt}</style>
 </defs>
 <g id="figure_1">
  <g id="patch_1">
   <path d="M 0 288 
L 288 288 
L 288 0 
L 0 0 
z
" style="fill: #ffffff"/>
  </g>
  <g id="axes_1">
   <g id="LineCollection_1">
    <path d="M 55.368595 77.375908 
L 67.059762 89.416104 
" clip-path="url(#pe7286672b3)" style="fill: none; stroke: #000000; stroke-width: 1.2"/>
    <path d="M 55.368595 77.375908 
L 74.278936 71.853544 
" clip-path="url(#pe7286672b3)" style="fill: none; stroke: #000000; stroke-width: 1.2"/>
    <path d="M 55.368595 77.375908 
L 102.104323 75.822684 
" clip-path="url(#pe7286672b3)" style="fill: none; stroke: #000000; stroke-width: 1.2"/>
    <path d="M 55.368595 77.375908 
L 107.33866 57.927622 
" clip-path="url(#pe7286672b3)" style="fill: none; stroke: #000000; stroke-width: 1.2"/>
    <path d="M 55.368595 77.375908 
L 87.856588 70.59799 
" clip-path="url(#pe7286672b3)" style="fill: none; stroke: #000000; stroke-width: 1.2"/>
    <path d="M 55.368595 77.375908 
L 92.676124 53.803636 
" clip-path="url(#pe7286672b3)" style="fill: none; stroke: #000000; stroke-width: 1.2"/>
    <path d="M 55.368595 77.375908 
L 96.223483 103.354913 
" clip-path="url(#pe7286672b3)" style="fill: none; stroke: #000000; stroke-width: 1.2"/>
    <path d="M 55.368595 77.375908 
L 67.956838 114.683808 
" clip-path="url(#pe7286672b3)" style="fill: none; stroke: #000000; stroke-width: 1.2"/>
    <path d="M 55.368595 77.375908 
L 70.525527 100.143728 
" clip-path="url(#pe7286672b3)" style="fill: none; stroke: #000000; stroke-width: 1.2"/>
    <path d="M 67.059762 89.416104 
L 74.278936 71.853544 
" clip-path="url(#pe7286672b3)" style="fill: none; stroke: #000000; stroke-width: 1.2"/>
    <path d="M 67.059762 89.416104 
L 102.104323 75.822684 
" clip-path="url(#pe7286672b3)" style="fill: none; stroke: #000000; stroke-width: 1.2"/>
    <path d="M 67.059762 89.416104 
L 128.201767 71.994819 
" clip-path="url(#pe7286672b3)" style="fill: none; stroke: #000000; stroke-width: 1.2"/>
    <path d="M 67.059762 89.416104 
L 87.856588 70.59799 
" clip-path="url(#pe7286672b3)" style="fill: none; stroke: #000000; stroke-width: 1.2"/>
    <path d="M 67.059762 89.416104 
L 114.232265 65.100577 
" clip-path="url(#pe7286672b3)" style="fill: none; stroke: #000000; stroke-width: 1.2"/>
    <path d="M 67.059762 89.416104 
L 114.394164 116.634487 
" clip-path="url(#pe7286672b3)" style="fill: none; stroke: #000000; stroke-width: 1.2"/>
    <path d="M 67.059762 89.416104 
L 67.956838 114.683808 
" clip-path="url(#pe7286672b3)" style="fill: none; stroke: #000000; stroke-width: 1.2"/>
    <path d="M 67.059762 89.416104 
L 88.40759 111.089021 
" clip-path="url(#pe7286672b3)" style="fill: none; stroke: #000000; stroke-width: 1.2"/>
    <path d="M 74.278936 71.853544 
L 128.201767 71.994819 
" clip-path="url(#pe7286672b3)" style="fill: none; stroke: #000000; stroke-width: 1.2"/>
    <path d="M 74.278936 71.853544 
L 107.33866 57.927622 
" clip-path="url(#pe7286672b3)" style="fill: none; stroke: #000000; stroke-width: 1.2"/>
    <path d="M 74.278936 71.853544 
L 114.232265 65.100577 
" clip-path="url(#pe7286672b3)" style="fill: none; stroke: #000000; stroke-width: 1.2"/>
    <path d="M 74.278936 71.853544 
L 92.676124 53.803636 
" clip-path="url(#pe7286672b3)" style="fill: none; stroke: #000000; stroke-width: 1.2"/>
    <path d="M 74.278936 71.853544 
L 120.089696 100.999407 
" clip-path="url(#pe7286672b3)" style="fill: none; stroke: #000000; stroke-width: 1.2"/>
    <path d="M 74.278936 71.853544 
L 88.40759 111.089021 
" clip-path="url(#pe7286672b3)" style="fill: none; stroke: #000000; stroke-width: 1.2"/>
    <path d="M 74.278936 71.853544 
L 70.525527 100.143728 
" clip-path="url(#pe7286672b3)" style="fill: none; stroke: #000000; stroke-width: 1.2"/>
    <path d="M 102.104323 75.822684 
L 128.201767 71.994819 
" clip-path="url(#pe7286672b3)" style="fill: none; stroke: #000000; stroke-width: 1.2"/>
    <path d="M 102.104323 75.822684 
L 107.33866 57.927622 
" clip-path="url(#pe7286672b3)" style="fill: none; stroke: #000000; stroke-width: 1.2"/>
    <path d="M 102.104323 75.822684 
L 132.985079 54.269761 
" clip-path="url(#pe7286672b3)" style="fill: none; stroke: #000000; stroke-width: 1.2"/>
    <path d="M 102.104323 75.822684 
L 156.548466 68.782368 
" clip-path="url(#pe7286672b3)" style="fill: none; stroke: #000000; stroke-width: 1.2"/>
    <path d="M 102.104323 75.822684 
L 96.223483 103.354913 
" clip-path="url(#pe7286672b3)" style="fill: none; stroke: #000000; stroke-width: 1.2"/>
    <path d="M 102.104323 75.822684 
L 114.394164 116.634487 
" clip-path="url(#pe7286672b3)" style="fill: none; stroke: #000000; stroke-width: 1.2"/>
    <path d="M 102.104323 75.822684 
L 149.494456 98.052704 
" clip-path="url(#pe7286672b3)" style="fill: none; stroke: #000000; stroke-width: 1.2"/>
    <path d="M 128.201767 71.994819 
L 107.33866 57.927622 
" clip-path="url(#pe7286672b3)" style="fill: none; stroke: #000000; stroke-width: 1.2"/>
    <path d="M 128.201767 71.994819 
L 156.548466 68.782368 
" clip-path="url(#pe7286672b3)" style="fill: none; stroke: #000000; stroke-width: 1.2"/>
    <path d="M 128.201767 71.994819 
L 153.319539 55.612998 
" clip-path="url(#pe7286672b3)" style="fill: none; stroke: #000000; stroke-width: 1.2"/>
    <path d="M 128.201767 71.994819 
L 114.394164 116.634487 
" clip-path="url(#pe7286672b3)" style="fill: none; stroke: #000000; stroke-width: 1.2"/>
    <path d="M 128.201767 71.994819 
L 120.089696 100.999407 
" clip-path="url(#pe7286672b3)" style="fill: none; stroke: #000000; stroke-width: 1.2"/>
    <path d="M 128.201767 71.994819 
L 168.212738 97.206584 
" clip-path="url(#pe7286672b3)" style="fill: none; stroke: #000000; stroke-width: 1.2"/>
    <path d="M 107.33866 57.927622 
L 132.985079 54.269761 
" clip-path="url(#pe7286672b3)" style="fill: none; stroke: #000000; stroke-width: 1.2"/>
    <path d="M 107.33866 57.927622 
L 153.319539 55.612998 
" clip-path="url(#pe7286672b3)" style="fill: none; stroke: #000000; stroke-width: 1.2"/>
    <path d="M 107.33866 57.927622 
L 96.223483 103.354913 
" clip-path="url(#pe7286672b3)" style="fill: none; stroke: #000000; stroke-width: 1.2"/>
    <path d="M 107.33866 57.927622 
L 120.089696 100.999407 
" clip-path="url(#pe7286672b3)" style="fill: none; stroke: #000000; stroke-width: 1.2"/>
    <path d="M 107.33866 57.927622 
L 154.922069 82.797094 
" clip-path="url(#pe7286672b3)" style="fill: none; stroke: #000000; stroke-width: 1.2"/>
    <path d="M 132.985079 54.269761 
L 156.548466 68.782368 
" clip-path="url(#pe7286672b3)" style="fill: none; stroke: #000000; stroke-width: 1.2"/>
    <path d="M 132.985079 54.269761 
L 153.319539 55.612998 
" clip-path="url(#pe7286672b3)" style="fill: none; stroke: #000000; stroke-width: 1.2"/>
    <path d="M 132.985079 54.269761 
L 87.856588 70.59799 
" clip-path="url(#pe7286672b3)" style="fill: none; stroke: #000000; stroke-width: 1.2"/>
    <path d="M 132.985079 54.269761 
L 92.676124 53.803636 
" clip-path="url(#pe7286672b3)" style="fill: none; stroke: #000000; stroke-width: 1.2"/>
    <path d="M 132.985079 54.269761 
L 149.494456 98.052704 
" clip-path="url(#pe7286672b3)" style="fill: none; stroke: #000000; stroke-width: 1.2"/>
    <path d="M 132.985079 54.269761 
L 154.922069 82.797094 
" clip-path="url(#pe7286672b3)" style="fill: none; stroke: #000000; stroke-width: 1.2"/>
    <path d="M 132.985079 54.269761 
L 107.806244 90.025175 
" clip-path="url(#pe7286672b3)" style="fill: none; stroke: #000000; stroke-width: 1.2"/>
    <path d="M 156.548466 68.782368 
L 153.319539 55.612998 
" clip-path="url(#pe7286672b3)" style="fill: none; stroke: #000000; stroke-width: 1.2"/>
    <path d="M 156.548466 68.782368 
L 87.856588 70.59799 
" clip-path="url(#pe7286672b3)" style="fill: none; stroke: #000000; stroke-width: 1.2"/>
    <path d="M 156.548466 68.782368 
L 114.232265 65.100577 
" clip-path="url(#pe7286672b3)" style="fill: none; stroke: #000000; stroke-width: 1.2"/>
    <path d="M 156.548466 68.782368 
L 149.494456 98.052704 
" clip-path="url(#pe7286672b3)" style="fill: none; stroke: #000000; stroke-width: 1.2"/>
    <path d="M 156.548466 68.782368 
L 168.212738 97.206584 
" clip-path="url(#pe7286672b3)" style="fill: none; stroke: #000000; stroke-width: 1.2"/>
    <path d="M 156.548466 68.782368 
L 130.942476 105.260778 
" clip-path="url(#pe7286672b3)" style="fill: none; stroke: #000000; stroke-width: 1.2"/>
    <path d="M 153.319539 55.612998 
L 114.232265 65.100577 
" clip-path="url(#pe7286672b3)" style="fill: none; stroke: #000000; stroke-width: 1.2"/>
    <path d="M 153.319539 55.612998 
L 92.676124 53.803636 
" clip-path="url(#pe7286672b3)" style="fill: none; stroke: #000000; stroke-width: 1.2"/>
    <path d="M 153.319539 55.612998 
L 168.212738 97.206584 
" clip-path="url(#pe7286672b3)" style="fill: none; stroke: #000000; stroke-width: 1.2"/>
    <path d="M 153.319539 55.612998 
L 154.922069 82.797094 
" clip-path="url(#pe7286672b3)" style="fill: none; stroke: #000000; stroke-width: 1.2"/>
    <path d="M 153.319539 55.612998 
L 132.788773 87.72356 
" clip-path="url(#pe7286672b3)" style="fill: none; stroke: #000000; stroke-width: 1.2"/>
    <path d="M 87.856588 70.59799 
L 114.232265 65.100577 
" clip-path="url(#pe7286672b3)" style="fill: none; stroke: #000000; stroke-width: 1.2"/>
    <path d="M 87.856588 70.59799 
L 92.676124 53.803636 
" clip-path="url(#pe7286672b3)" style="fill: none; stroke: #000000; stroke-width: 1.2"/>
    <path d="M 87.856588 70.59799 
L 107.806244 90.025175 
" clip-path="url(#pe7286672b3)" style="fill: none; stroke: #000000; stroke-width: 1.2"/>
    <path d="M 87.856588 70.59799 
L 130.942476 105.260778 
" clip-path="url(#pe7286672b3)" style="fill: none; stroke: #000000; stroke-width: 1.2"/>
    <path d="M 87.856588 70.59799 
L 67.956838 114.683808 
" clip-path="url(#pe7286672b3)" style="fill: none; stroke: #000000; stroke-width: 1.2"/>
    <path d="M 114.232265 65.100577 
L 92.676124 53.803636 
" clip-path="url(#pe7286672b3)" style="fill: none; stroke: #000000; stroke-width: 1.2"/>
    <path d="M 114.232265 65.100577 
L 130.942476 105.260778 
" clip-path="url(#pe7286672b3)" style="fill: none; stroke: #000000; stroke-width: 1.2"/>
    <path d="M 114.232265 65.100577 
L 132.788773 87.72356 
" clip-path="url(#pe7286672b3)" style="fill: none; stroke: #000000; stroke-width: 1.2"/>
    <path d="M 114.232265 65.100577 
L 88.40759 111.089021 
" clip-path="url(#pe7286672b3)" style="fill: none; stroke: #000000; stroke-width: 1.2"/>
    <path d="M 92.676124 53.803636 
L 107.806244 90.025175 
" clip-path="url(#pe7286672b3)" style="fill: none; stroke: #000000; stroke-width: 1.2"/>
    <path d="M 92.676124 53.803636 
L 132.788773 87.72356 
" clip-path="url(#pe7286672b3)" style="fill: none; stroke: #000000; stroke-width: 1.2"/>
    <path d="M 92.676124 53.803636 
L 70.525527 100.143728 
" clip-path="url(#pe7286672b3)" style="fill: none; stroke: #000000; stroke-width: 1.2"/>
    <path d="M 96.223483 103.354913 
L 114.394164 116.634487 
" clip-path="url(#pe7286672b3)" style="fill: none; stroke: #000000; stroke-width: 1.2"/>
    <path d="M 96.223483 103.354913 
L 120.089696 100.999407 
" clip-path="url(#pe7286672b3)" style="fill: none; stroke: #000000; stroke-width: 1.2"/>
    <path d="M 96.223483 103.354913 
L 149.494456 98.052704 
" clip-path="url(#pe7286672b3)" style="fill: none; stroke: #000000; stroke-width: 1.2"/>
    <path d="M 96.223483 103.354913 
L 154.922069 82.797094 
" clip-path="url(#pe7286672b3)" style="fill: none; stroke: #000000; stroke-width: 1.2"/>
    <path d="M 96.223483 103.354913 
L 67.956838 114.683808 
" clip-path="url(#pe7286672b3)" style="fill: none; stroke: #000000; stroke-width: 1.2"/>
    <path d="M 96.223483 103.354913 
L 70.525527 100.143728 
" clip-path="url(#pe7286672b3)" style="fill: none; stroke: #000000; stroke-width: 1.2"/>
    <path d="M 96.223483 103.354913 
L 72.021039 136.784546 
" clip-path="url(#pe7286672b3)" style="fill: none; stroke: #000000; stroke-width: 1.2"/>
    <path d="M 96.223483 103.354913 
L 125.914982 146.288527 
" clip-path="url(#pe7286672b3)" style="fill: none; stroke: #000000; stroke-width: 1.2"/>
    <path d="M 96.223483 103.354913 
L 130.483914 126.679062 
" clip-path="url(#pe7286672b3)" style="fill: none; stroke: #000000; stroke-width: 1.2"/>
    <path d="M 114.394164 116.634487 
L 120.089696 100.999407 
" clip-path="url(#pe7286672b3)" style="fill: none; stroke: #000000; stroke-width: 1.2"/>
    <path d="M 114.394164 116.634487 
L 149.494456 98.052704 
" clip-path="url(#pe7286672b3)" style="fill: none; stroke: #000000; stroke-width: 1.2"/>
    <path d="M 114.394164 116.634487 
L 168.212738 97.206584 
" clip-path="url(#pe7286672b3)" style="fill: none; stroke: #000000; stroke-width: 1.2"/>
    <path d="M 114.394164 116.634487 
L 67.956838 114.683808 
" clip-path="url(#pe7286672b3)" style="fill: none; stroke: #000000; stroke-width: 1.2"/>
    <path d="M 114.394164 116.634487 
L 88.40759 111.089021 
" clip-path="url(#pe7286672b3)" style="fill: none; stroke: #000000; stroke-width: 1.2"/>
    <path d="M 114.394164 116.634487 
L 93.322951 150.565656 
" clip-path="url(#pe7286672b3)" style="fill: none; stroke: #000000; stroke-width: 1.2"/>
    <path d="M 114.394164 116.634487 
L 125.914982 146.288527 
" clip-path="url(#pe7286672b3)" style="fill: none; stroke: #000000; stroke-width: 1.2"/>
    <path d="M 114.394164 116.634487 
L 147.66996 143.355735 
" clip-path="url(#pe7286672b3)" style="fill: none; stroke: #000000; stroke-width: 1.2"/>
    <path d="M 120.089696 100.999407 
L 168.212738 97.206584 
" clip-path="url(#pe7286672b3)" style="fill: none; stroke: #000000; stroke-width: 1.2"/>
    <path d="M 120.089696 100.999407 
L 154.922069 82.797094 
" clip-path="url(#pe7286672b3)" style="fill: none; stroke: #000000; stroke-width: 1.2"/>
    <path d="M 120.089696 100.999407 
L 88.40759 111.089021 
" clip-path="url(#pe7286672b3)" style="fill: none; stroke: #000000; stroke-width: 1.2"/>
    <path d="M 120.089696 100.999407 
L 70.525527 100.143728 
" clip-path="url(#pe7286672b3)" style="fill: none; stroke: #000000; stroke-width: 1.2"/>
    <path d="M 120.089696 100.999407 
L 92.631153 138.217266 
" clip-path="url(#pe7286672b3)" style="fill: none; stroke: #000000; stroke-width: 1.2"/>
    <path d="M 120.089696 100.999407 
L 147.66996 143.355735 
" clip-path="url(#pe7286672b3)" style="fill: none; stroke: #000000; stroke-width: 1.2"/>
    <path d="M 120.089696 100.999407 
L 130.483914 126.679062 
" clip-path="url(#pe7286672b3)" style="fill: none; stroke: #000000; stroke-width: 1.2"/>
    <path d="M 149.494456 98.052704 
L 168.212738 97.206584 
" clip-path="url(#pe7286672b3)" style="fill: none; stroke: #000000; stroke-width: 1.2"/>
    <path d="M 149.494456 98.052704 
L 154.922069 82.797094 
" clip-path="url(#pe7286672b3)" style="fill: none; stroke: #000000; stroke-width: 1.2"/>
    <path d="M 149.494456 98.052704 
L 107.806244 90.025175 
" clip-path="url(#pe7286672b3)" style="fill: none; stroke: #000000; stroke-width: 1.2"/>
    <path d="M 149.494456 98.052704 
L 130.942476 105.260778 
" clip-path="url(#pe7286672b3)" style="fill: none; stroke: #000000; stroke-width: 1.2"/>
    <path d="M 149.494456 98.052704 
L 125.914982 146.288527 
" clip-path="url(#pe7286672b3)" style="fill: none; stroke: #000000; stroke-width: 1.2"/>
    <path d="M 149.494456 98.052704 
L 155.958665 117.118228 
" clip-path="url(#pe7286672b3)" style="fill: none; stroke: #000000; stroke-width: 1.2"/>
    <path d="M 149.494456 98.052704 
L 168.309868 132.424877 
" clip-path="url(#pe7286672b3)" style="fill: none; stroke: #000000; stroke-width: 1.2"/>
    <path d="M 168.212738 97.206584 
L 154.922069 82.797094 
" clip-path="url(#pe7286672b3)" style="fill: none; stroke: #000000; stroke-width: 1.2"/>
    <path d="M 168.212738 97.206584 
L 130.942476 105.260778 
" clip-path="url(#pe7286672b3)" style="fill: none; stroke: #000000; stroke-width: 1.2"/>
    <path d="M 168.212738 97.206584 
L 132.788773 87.72356 
" clip-path="url(#pe7286672b3)" style="fill: none; stroke: #000000; stroke-width: 1.2"/>
    <path d="M 168.212738 97.206584 
L 147.66996 143.355735 
" clip-path="url(#pe7286672b3)" style="fill: none; stroke: #000000; stroke-width: 1.2"/>
    <path d="M 168.212738 97.206584 
L 168.309868 132.424877 
" clip-path="url(#pe7286672b3)" style="fill: none; stroke: #000000; stroke-width: 1.2"/>
    <path d="M 168.212738 97.206584 
L 175.862887 114.584887 
" clip-path="url(#pe7286672b3)" style="fill: none; stroke: #000000; stroke-width: 1.2"/>
    <path d="M 154.922069 82.797094 
L 107.806244 90.025175 
" clip-path="url(#pe7286672b3)" style="fill: none; stroke: #000000; stroke-width: 1.2"/>
    <path d="M 154.922069 82.797094 
L 132.788773 87.72356 
" clip-path="url(#pe7286672b3)" style="fill: none; stroke: #000000; stroke-width: 1.2"/>
    <path d="M 154.922069 82.797094 
L 130.483914 126.679062 
" clip-path="url(#pe7286672b3)" style="fill: none; stroke: #000000; stroke-width: 1.2"/>
    <path d="M 154.922069 82.797094 
L 155.958665 117.118228 
" clip-path="url(#pe7286672b3)" style="fill: none; stroke: #000000; stroke-width: 1.2"/>
    <path d="M 154.922069 82.797094 
L 175.862887 114.584887 
" clip-path="url(#pe7286672b3)" style="fill: none; stroke: #000000; stroke-width: 1.2"/>
    <path d="M 107.806244 90.025175 
L 130.942476 105.260778 
" clip-path="url(#pe7286672b3)" style="fill: none; stroke: #000000; stroke-width: 1.2"/>
    <path d="M 107.806244 90.025175 
L 132.788773 87.72356 
" clip-path="url(#pe7286672b3)" style="fill: none; stroke: #000000; stroke-width: 1.2"/>
    <path d="M 107.806244 90.025175 
L 67.956838 114.683808 
" clip-path="url(#pe7286672b3)" style="fill: none; stroke: #000000; stroke-width: 1.2"/>
    <path d="M 107.806244 90.025175 
L 70.525527 100.143728 
" clip-path="url(#pe7286672b3)" style="fill: none; stroke: #000000; stroke-width: 1.2"/>
    <path d="M 107.806244 90.025175 
L 155.958665 117.118228 
" clip-path="url(#pe7286672b3)" style="fill: none; stroke: #000000; stroke-width: 1.2"/>
    <path d="M 107.806244 90.025175 
L 110.762522 137.910884 
" clip-path="url(#pe7286672b3)" style="fill: none; stroke: #000000; stroke-width: 1.2"/>
    <path d="M 107.806244 90.025175 
L 107.712434 121.481118 
" clip-path="url(#pe7286672b3)" style="fill: none; stroke: #000000; stroke-width: 1.2"/>
    <path d="M 130.942476 105.260778 
L 132.788773 87.72356 
" clip-path="url(#pe7286672b3)" style="fill: none; stroke: #000000; stroke-width: 1.2"/>
    <path d="M 130.942476 105.260778 
L 67.956838 114.683808 
" clip-path="url(#pe7286672b3)" style="fill: none; stroke: #000000; stroke-width: 1.2"/>
    <path d="M 130.942476 105.260778 
L 88.40759 111.089021 
" clip-path="url(#pe7286672b3)" style="fill: none; stroke: #000000; stroke-width: 1.2"/>
    <path d="M 130.942476 105.260778 
L 168.309868 132.424877 
" clip-path="url(#pe7286672b3)" style="fill: none; stroke: #000000; stroke-width: 1.2"/>
    <path d="M 130.942476 105.260778 
L 110.762522 137.910884 
" clip-path="url(#pe7286672b3)" style="fill: none; stroke: #000000; stroke-width: 1.2"/>
    <path d="M 130.942476 105.260778 
L 140.58369 132.974675 
" clip-path="url(#pe7286672b3)" style="fill: none; stroke: #000000; stroke-width: 1.2"/>
    <path d="M 132.788773 87.72356 
L 88.40759 111.089021 
" clip-path="url(#pe7286672b3)" style="fill: none; stroke: #000000; stroke-width: 1.2"/>
    <path d="M 132.788773 87.72356 
L 70.525527 100.143728 
" clip-path="url(#pe7286672b3)" style="fill: none; stroke: #000000; stroke-width: 1.2"/>
    <path d="M 132.788773 87.72356 
L 175.862887 114.584887 
" clip-path="url(#pe7286672b3)" style="fill: none; stroke: #000000; stroke-width: 1.2"/>
    <path d="M 132.788773 87.72356 
L 140.58369 132.974675 
" clip-path="url(#pe7286672b3)" style="fill: none; stroke: #000000; stroke-width: 1.2"/>
    <path d="M 132.788773 87.72356 
L 107.712434 121.481118 
" clip-path="url(#pe7286672b3)" style="fill: none; stroke: #000000; stroke-width: 1.2"/>
    <path d="M 67.956838 114.683808 
L 88.40759 111.089021 
" clip-path="url(#pe7286672b3)" style="fill: none; stroke: #000000; stroke-width: 1.2"/>
    <path d="M 67.956838 114.683808 
L 70.525527 100.143728 
" clip-path="url(#pe7286672b3)" style="fill: none; stroke: #000000; stroke-width: 1.2"/>
    <path d="M 67.956838 114.683808 
L 72.021039 136.784546 
" clip-path="url(#pe7286672b3)" style="fill: none; stroke: #000000; stroke-width: 1.2"/>
    <path d="M 67.956838 114.683808 
L 93.322951 150.565656 
" clip-path="url(#pe7286672b3)" style="fill: none; stroke: #000000; stroke-width: 1.2"/>
    <path d="M 67.956838 114.683808 
L 110.762522 137.910884 
" clip-path="url(#pe7286672b3)" style="fill: none; stroke: #000000; stroke-width: 1.2"/>
    <path d="M 88.40759 111.089021 
L 70.525527 100.143728 
" clip-path="url(#pe7286672b3)" style="fill: none; stroke: #000000; stroke-width: 1.2"/>
    <path d="M 88.40759 111.089021 
L 93.322951 150.565656 
" clip-path="url(#pe7286672b3)" style="fill: none; stroke: #000000; stroke-width: 1.2"/>
    <path d="M 88.40759 111.089021 
L 92.631153 138.217266 
" clip-path="url(#pe7286672b3)" style="fill: none; stroke: #000000; stroke-width: 1.2"/>
    <path d="M 88.40759 111.089021 
L 140.58369 132.974675 
" clip-path="url(#pe7286672b3)" style="fill: none; stroke: #000000; stroke-width: 1.2"/>
    <path d="M 70.525527 100.143728 
L 72.021039 136.784546 
" clip-path="url(#pe7286672b3)" style="fill: none; stroke: #000000; stroke-width: 1.2"/>
    <path d="M 70.525527 100.143728 
L 92.631153 138.217266 
" clip-path="url(#pe7286672b3)" style="fill: none; stroke: #000000; stroke-width: 1.2"/>
    <path d="M 70.525527 100.143728 
L 107.712434 121.481118 
" clip-path="url(#pe7286672b3)" style="fill: none; stroke: #000000; stroke-width: 1.2"/>
    <path d="M 72.021039 136.784546 
L 93.322951 150.565656 
" clip-path="url(#pe7286672b3)" style="fill: none; stroke: #000000; stroke-width: 1.2"/>
    <path d="M 72.021039 136.784546 
L 92.631153 138.217266 
" clip-path="url(#pe7286672b3)" style="fill: none; stroke: #000000; stroke-width: 1.2"/>
    <path d="M 72.021039 136.784546 
L 125.914982 146.288527 
" clip-path="url(#pe7286672b3)" style="fill: none; stroke: #000000; stroke-width: 1.2"/>
    <path d="M 72.021039 136.784546 
L 130.483914 126.679062 
" clip-path="url(#pe7286672b3)" style="fill: none; stroke: #000000; stroke-width: 1.2"/>
    <path d="M 72.021039 136.784546 
L 110.762522 137.910884 
" clip-path="url(#pe7286672b3)" style="fill: none; stroke: #000000; stroke-width: 1.2"/>
    <path d="M 72.021039 136.784546 
L 107.712434 121.481118 
" clip-path="url(#pe7286672b3)" style="fill: none; stroke: #000000; stroke-width: 1.2"/>
    <path d="M 93.322951 150.565656 
L 92.631153 138.217266 
" clip-path="url(#pe7286672b3)" style="fill: none; stroke: #000000; stroke-width: 1.2"/>
    <path d="M 93.322951 150.565656 
L 125.914982 146.288527 
" clip-path="url(#pe7286672b3)" style="fill: none; stroke: #000000; stroke-width: 1.2"/>
    <path d="M 93.322951 150.565656 
L 147.66996 143.355735 
" clip-path="url(#pe7286672b3)" style="fill: none; stroke: #000000; stroke-width: 1.2"/>
    <path d="M 93.322951 150.565656 
L 110.762522 137.910884 
" clip-path="url(#pe7286672b3)" style="fill: none; stroke: #000000; stroke-width: 1.2"/>
    <path d="M 93.322951 150.565656 
L 140.58369 132.974675 
" clip-path="url(#pe7286672b3)" style="fill: none; stroke: #000000; stroke-width: 1.2"/>
    <path d="M 92.631153 138.217266 
L 147.66996 143.355735 
" clip-path="url(#pe7286672b3)" style="fill: none; stroke: #000000; stroke-width: 1.2"/>
    <path d="M 92.631153 138.217266 
L 130.483914 126.679062 
" clip-path="url(#pe7286672b3)" style="fill: none; stroke: #000000; stroke-width: 1.2"/>
    <path d="M 92.631153 138.217266 
L 140.58369 132.974675 
" clip-path="url(#pe7286672b3)" style="fill: none; stroke: #000000; stroke-width: 1.2"/>
    <path d="M 92.631153 138.217266 
L 107.712434 121.481118 
" clip-path="url(#pe7286672b3)" style="fill: none; stroke: #000000; stroke-width: 1.2"/>
    <path d="M 125.914982 146.288527 
L 147.66996 143.355735 
" clip-path="url(#pe7286672b3)" style="fill: none; stroke: #000000; stroke-width: 1.2"/>
    <path d="M 125.914982 146.288527 
L 130.483914 126.679062 
" clip-path="url(#pe7286672b3)" style="fill: none; stroke: #000000; stroke-width: 1.2"/>
    <path d="M 125.914982 146.288527 
L 155.958665 117.118228 
" clip-path="url(#pe7286672b3)" style="fill: none; stroke: #000000; stroke-width: 1.2"/>
    <path d="M 125.914982 146.288527 
L 168.309868 132.424877 
" clip-path="url(#pe7286672b3)" style="fill: none; stroke: #000000; stroke-width: 1.2"/>
    <path d="M 125.914982 146.288527 
L 165.763887 167.469741 
" clip-path="url(#pe7286672b3)" style="fill: none; stroke: #000000; stroke-width: 1.2"/>
    <path d="M 147.66996 143.355735 
L 130.483914 126.679062 
" clip-path="url(#pe7286672b3)" style="fill: none; stroke: #000000; stroke-width: 1.2"/>
    <path d="M 147.66996 143.355735 
L 168.309868 132.424877 
" clip-path="url(#pe7286672b3)" style="fill: none; stroke: #000000; stroke-width: 1.2"/>
    <path d="M 147.66996 143.355735 
L 175.862887 114.584887 
" clip-path="url(#pe7286672b3)" style="fill: none; stroke: #000000; stroke-width: 1.2"/>
    <path d="M 147.66996 143.355735 
L 134.795605 182.852319 
" clip-path="url(#pe7286672b3)" style="fill: none; stroke: #000000; stroke-width: 1.2"/>
    <path d="M 147.66996 143.355735 
L 165.763887 167.469741 
" clip-path="url(#pe7286672b3)" style="fill: none; stroke: #000000; stroke-width: 1.2"/>
    <path d="M 147.66996 143.355735 
L 191.758742 143.68832 
" clip-path="url(#pe7286672b3)" style="fill: none; stroke: #000000; stroke-width: 1.2"/>
    <path d="M 130.483914 126.679062 
L 155.958665 117.118228 
" clip-path="url(#pe7286672b3)" style="fill: none; stroke: #000000; stroke-width: 1.2"/>
    <path d="M 130.483914 126.679062 
L 175.862887 114.584887 
" clip-path="url(#pe7286672b3)" style="fill: none; stroke: #000000; stroke-width: 1.2"/>
    <path d="M 155.958665 117.118228 
L 168.309868 132.424877 
" clip-path="url(#pe7286672b3)" style="fill: none; stroke: #000000; stroke-width: 1.2"/>
    <path d="M 155.958665 117.118228 
L 175.862887 114.584887 
" clip-path="url(#pe7286672b3)" style="fill: none; stroke: #000000; stroke-width: 1.2"/>
    <path d="M 155.958665 117.118228 
L 110.762522 137.910884 
" clip-path="url(#pe7286672b3)" style="fill: none; stroke: #000000; stroke-width: 1.2"/>
    <path d="M 155.958665 117.118228 
L 107.712434 121.481118 
" clip-path="url(#pe7286672b3)" style="fill: none; stroke: #000000; stroke-width: 1.2"/>
    <path d="M 168.309868 132.424877 
L 175.862887 114.584887 
" clip-path="url(#pe7286672b3)" style="fill: none; stroke: #000000; stroke-width: 1.2"/>
    <path d="M 168.309868 132.424877 
L 110.762522 137.910884 
" clip-path="url(#pe7286672b3)" style="fill: none; stroke: #000000; stroke-width: 1.2"/>
    <path d="M 168.309868 132.424877 
L 140.58369 132.974675 
" clip-path="url(#pe7286672b3)" style="fill: none; stroke: #000000; stroke-width: 1.2"/>
    <path d="M 168.309868 132.424877 
L 165.763887 167.469741 
" clip-path="url(#pe7286672b3)" style="fill: none; stroke: #000000; stroke-width: 1.2"/>
    <path d="M 168.309868 132.424877 
L 191.758742 143.68832 
" clip-path="url(#pe7286672b3)" style="fill: none; stroke: #000000; stroke-width: 1.2"/>
    <path d="M 175.862887 114.584887 
L 140.58369 132.974675 
" clip-path="url(#pe7286672b3)" style="fill: none; stroke: #000000; stroke-width: 1.2"/>
    <path d="M 175.862887 114.584887 
L 107.712434 121.481118 
" clip-path="url(#pe7286672b3)" style="fill: none; stroke: #000000; stroke-width: 1.2"/>
    <path d="M 175.862887 114.584887 
L 191.758742 143.68832 
" clip-path="url(#pe7286672b3)" style="fill: none; stroke: #000000; stroke-width: 1.2"/>
    <path d="M 110.762522 137.910884 
L 140.58369 132.974675 
" clip-path="url(#pe7286672b3)" style="fill: none; stroke: #000000; stroke-width: 1.2"/>
    <path d="M 110.762522 137.910884 
L 107.712434 121.481118 
" clip-path="url(#pe7286672b3)" style="fill: none; stroke: #000000; stroke-width: 1.2"/>
    <path d="M 140.58369 132.974675 
L 107.712434 121.481118 
" clip-path="url(#pe7286672b3)" style="fill: none; stroke: #000000; stroke-width: 1.2"/>
    <path d="M 140.58369 132.974675 
L 191.758742 143.68832 
" clip-path="url(#pe7286672b3)" style="fill: none; stroke: #000000; stroke-width: 1.2"/>
    <path d="M 157.3935 237.076364 
L 182.976631 201.484114 
" clip-path="url(#pe7286672b3)" style="fill: none; stroke: #000000; stroke-width: 1.2"/>
    <path d="M 199.041603 231.789565 
L 182.976631 201.484114 
" clip-path="url(#pe7286672b3)" style="fill: none; stroke: #000000; stroke-width: 1.2"/>
    <path d="M 232.512664 210.394494 
L 182.976631 201.484114 
" clip-path="url(#pe7286672b3)" style="fill: none; stroke: #000000; stroke-width: 1.2"/>
    <path d="M 134.795605 182.852319 
L 165.763887 167.469741 
" clip-path="url(#pe7286672b3)" style="fill: none; stroke: #000000; stroke-width: 1.2"/>
    <path d="M 239.831405 139.641459 
L 191.758742 143.68832 
" clip-path="url(#pe7286672b3)" style="fill: none; stroke: #000000; stroke-width: 1.2"/>
    <path d="M 182.976631 201.484114 
L 165.763887 167.469741 
" clip-path="url(#pe7286672b3)" style="fill: none; stroke: #000000; stroke-width: 1.2"/>
    <path d="M 165.763887 167.469741 
L 191.758742 143.68832 
" clip-path="url(#pe7286672b3)" style="fill: none; stroke: #000000; stroke-width: 1.2"/>
   </g>
   <g id="PathCollection_1">
    <defs>
     <path id="C0_0_1b9bfd0154" d="M 0 8.944272 
C 2.372049 8.944272 4.647264 8.001847 6.324555 6.324555 
C 8.001847 4.647264 8.944272 2.372049 8.944272 -0 
C 8.944272 -2.372049 8.001847 -4.647264 6.324555 -6.324555 
C 4.647264 -8.001847 2.372049 -8.944272 0 -8.944272 
C -2.372049 -8.944272 -4.647264 -8.001847 -6.324555 -6.324555 
C -8.001847 -4.647264 -8.944272 -2.372049 -8.944272 0 
C -8.944272 2.372049 -8.001847 4.647264 -6.324555 6.324555 
C -4.647264 8.001847 -2.372049 8.944272 0 8.944272 
z
"/>
    </defs>
    <g clip-path="url(#pe7286672b3)">
     <use xlink:href="#C0_0_1b9bfd0154" x="55.368595" y="77.375908" style="fill: #f08fa1; stroke: #f08fa1; stroke-width: 0.5"/>
    </g>
    <g clip-path="url(#pe7286672b3)">
     <use xlink:href="#C0_0_1b9bfd0154" x="67.059762" y="89.416104" style="fill: #f08fa1; stroke: #f08fa1; stroke-width: 0.5"/>
    </g>
    <g clip-path="url(#pe7286672b3)">
     <use xlink:href="#C0_0_1b9bfd0154" x="74.278936" y="71.853544" style="fill: #f08fa1; stroke: #f08fa1; stroke-width: 0.5"/>
    </g>
    <g clip-path="url(#pe7286672b3)">
     <use xlink:href="#C0_0_1b9bfd0154" x="102.104323" y="75.822684" style="fill: #f08fa1; stroke: #f08fa1; stroke-width: 0.5"/>
    </g>
    <g clip-path="url(#pe7286672b3)">
     <use xlink:href="#C0_0_1b9bfd0154" x="128.201767" y="71.994819" style="fill: #f08fa1; stroke: #f08fa1; stroke-width: 0.5"/>
    </g>
    <g clip-path="url(#pe7286672b3)">
     <use xlink:href="#C0_0_1b9bfd0154" x="107.33866" y="57.927622" style="fill: #f08fa1; stroke: #f08fa1; stroke-width: 0.5"/>
    </g>
    <g clip-path="url(#pe7286672b3)">
     <use xlink:href="#C0_0_1b9bfd0154" x="132.985079" y="54.269761" style="fill: #f08fa1; stroke: #f08fa1; stroke-width: 0.5"/>
    </g>
    <g clip-path="url(#pe7286672b3)">
     <use xlink:href="#C0_0_1b9bfd0154" x="156.548466" y="68.782368" style="fill: #f08fa1; stroke: #f08fa1; stroke-width: 0.5"/>
    </g>
    <g clip-path="url(#pe7286672b3)">
     <use xlink:href="#C0_0_1b9bfd0154" x="153.319539" y="55.612998" style="fill: #f08fa1; stroke: #f08fa1; stroke-width: 0.5"/>
    </g>
    <g clip-path="url(#pe7286672b3)">
     <use xlink:href="#C0_0_1b9bfd0154" x="87.856588" y="70.59799" style="fill: #f08fa1; stroke: #f08fa1; stroke-width: 0.5"/>
    </g>
    <g clip-path="url(#pe7286672b3)">
     <use xlink:href="#C0_0_1b9bfd0154" x="114.232265" y="65.100577" style="fill: #f08fa1; stroke: #f08fa1; stroke-width: 0.5"/>
    </g>
    <g clip-path="url(#pe7286672b3)">
     <use xlink:href="#C0_0_1b9bfd0154" x="92.676124" y="53.803636" style="fill: #f08fa1; stroke: #f08fa1; stroke-width: 0.5"/>
    </g>
    <g clip-path="url(#pe7286672b3)">
     <use xlink:href="#C0_0_1b9bfd0154" x="96.223483" y="103.354913" style="fill: #f08fa1; stroke: #f08fa1; stroke-width: 0.5"/>
    </g>
    <g clip-path="url(#pe7286672b3)">
     <use xlink:href="#C0_0_1b9bfd0154" x="114.394164" y="116.634487" style="fill: #f08fa1; stroke: #f08fa1; stroke-width: 0.5"/>
    </g>
    <g clip-path="url(#pe7286672b3)">
     <use xlink:href="#C0_0_1b9bfd0154" x="120.089696" y="100.999407" style="fill: #f08fa1; stroke: #f08fa1; stroke-width: 0.5"/>
    </g>
    <g clip-path="url(#pe7286672b3)">
     <use xlink:href="#C0_0_1b9bfd0154" x="149.494456" y="98.052704" style="fill: #f08fa1; stroke: #f08fa1; stroke-width: 0.5"/>
    </g>
    <g clip-path="url(#pe7286672b3)">
     <use xlink:href="#C0_0_1b9bfd0154" x="168.212738" y="97.206584" style="fill: #f08fa1; stroke: #f08fa1; stroke-width: 0.5"/>
    </g>
    <g clip-path="url(#pe7286672b3)">
     <use xlink:href="#C0_0_1b9bfd0154" x="154.922069" y="82.797094" style="fill: #f08fa1; stroke: #f08fa1; stroke-width: 0.5"/>
    </g>
    <g clip-path="url(#pe7286672b3)">
     <use xlink:href="#C0_0_1b9bfd0154" x="107.806244" y="90.025175" style="fill: #f08fa1; stroke: #f08fa1; stroke-width: 0.5"/>
    </g>
    <g clip-path="url(#pe7286672b3)">
     <use xlink:href="#C0_0_1b9bfd0154" x="130.942476" y="105.260778" style="fill: #f08fa1; stroke: #f08fa1; stroke-width: 0.5"/>
    </g>
    <g clip-path="url(#pe7286672b3)">
     <use xlink:href="#C0_0_1b9bfd0154" x="132.788773" y="87.72356" style="fill: #f08fa1; stroke: #f08fa1; stroke-width: 0.5"/>
    </g>
    <g clip-path="url(#pe7286672b3)">
     <use xlink:href="#C0_0_1b9bfd0154" x="67.956838" y="114.683808" style="fill: #f08fa1; stroke: #f08fa1; stroke-width: 0.5"/>
    </g>
    <g clip-path="url(#pe7286672b3)">
     <use xlink:href="#C0_0_1b9bfd0154" x="88.40759" y="111.089021" style="fill: #f08fa1; stroke: #f08fa1; stroke-width: 0.5"/>
    </g>
    <g clip-path="url(#pe7286672b3)">
     <use xlink:href="#C0_0_1b9bfd0154" x="70.525527" y="100.143728" style="fill: #f08fa1; stroke: #f08fa1; stroke-width: 0.5"/>
    </g>
    <g clip-path="url(#pe7286672b3)">
     <use xlink:href="#C0_0_1b9bfd0154" x="72.021039" y="136.784546" style="fill: #f08fa1; stroke: #f08fa1; stroke-width: 0.5"/>
    </g>
    <g clip-path="url(#pe7286672b3)">
     <use xlink:href="#C0_0_1b9bfd0154" x="93.322951" y="150.565656" style="fill: #f08fa1; stroke: #f08fa1; stroke-width: 0.5"/>
    </g>
    <g clip-path="url(#pe7286672b3)">
     <use xlink:href="#C0_0_1b9bfd0154" x="92.631153" y="138.217266" style="fill: #f08fa1; stroke: #f08fa1; stroke-width: 0.5"/>
    </g>
    <g clip-path="url(#pe7286672b3)">
     <use xlink:href="#C0_0_1b9bfd0154" x="125.914982" y="146.288527" style="fill: #f08fa1; stroke: #f08fa1; stroke-width: 0.5"/>
    </g>
    <g clip-path="url(#pe7286672b3)">
     <use xlink:href="#C0_0_1b9bfd0154" x="147.66996" y="143.355735" style="fill: #f08fa1; stroke: #f08fa1; stroke-width: 0.5"/>
    </g>
    <g clip-path="url(#pe7286672b3)">
     <use xlink:href="#C0_0_1b9bfd0154" x="130.483914" y="126.679062" style="fill: #f08fa1; stroke: #f08fa1; stroke-width: 0.5"/>
    </g>
    <g clip-path="url(#pe7286672b3)">
     <use xlink:href="#C0_0_1b9bfd0154" x="155.958665" y="117.118228" style="fill: #f08fa1; stroke: #f08fa1; stroke-width: 0.5"/>
    </g>
    <g clip-path="url(#pe7286672b3)">
     <use xlink:href="#C0_0_1b9bfd0154" x="168.309868" y="132.424877" style="fill: #f08fa1; stroke: #f08fa1; stroke-width: 0.5"/>
    </g>
    <g clip-path="url(#pe7286672b3)">
     <use xlink:href="#C0_0_1b9bfd0154" x="175.862887" y="114.584887" style="fill: #f08fa1; stroke: #f08fa1; stroke-width: 0.5"/>
    </g>
    <g clip-path="url(#pe7286672b3)">
     <use xlink:href="#C0_0_1b9bfd0154" x="110.762522" y="137.910884" style="fill: #f08fa1; stroke: #f08fa1; stroke-width: 0.5"/>
    </g>
    <g clip-path="url(#pe7286672b3)">
     <use xlink:href="#C0_0_1b9bfd0154" x="140.58369" y="132.974675" style="fill: #f08fa1; stroke: #f08fa1; stroke-width: 0.5"/>
    </g>
    <g clip-path="url(#pe7286672b3)">
     <use xlink:href="#C0_0_1b9bfd0154" x="107.712434" y="121.481118" style="fill: #f08fa1; stroke: #f08fa1; stroke-width: 0.5"/>
    </g>
    <g clip-path="url(#pe7286672b3)">
     <use xlink:href="#C0_0_1b9bfd0154" x="157.3935" y="237.076364" style="fill: #bfbfbf; stroke: #bfbfbf; stroke-width: 0.5"/>
    </g>
    <g clip-path="url(#pe7286672b3)">
     <use xlink:href="#C0_0_1b9bfd0154" x="199.041603" y="231.789565" style="fill: #bfbfbf; stroke: #bfbfbf; stroke-width: 0.5"/>
    </g>
    <g clip-path="url(#pe7286672b3)">
     <use xlink:href="#C0_0_1b9bfd0154" x="232.512664" y="210.394494" style="fill: #bfbfbf; stroke: #bfbfbf; stroke-width: 0.5"/>
    </g>
    <g clip-path="url(#pe7286672b3)">
     <use xlink:href="#C0_0_1b9bfd0154" x="134.795605" y="182.852319" style="fill: #bfbfbf; stroke: #bfbfbf; stroke-width: 0.5"/>
    </g>
    <g clip-path="url(#pe7286672b3)">
     <use xlink:href="#C0_0_1b9bfd0154" x="239.831405" y="139.641459" style="fill: #bfbfbf; stroke: #bfbfbf; stroke-width: 0.5"/>
    </g>
    <g clip-path="url(#pe7286672b3)">
     <use xlink:href="#C0_0_1b9bfd0154" x="182.976631" y="201.484114" style="fill: #666666; stroke: #666666; stroke-width: 0.5"/>
    </g>
    <g clip-path="url(#pe7286672b3)">
     <use xlink:href="#C0_0_1b9bfd0154" x="165.763887" y="167.469741" style="fill: #666666; stroke: #666666; stroke-width: 0.5"/>
    </g>
    <g clip-path="url(#pe7286672b3)">
     <use xlink:href="#C0_0_1b9bfd0154" x="191.758742" y="143.68832" style="fill: #0d0dff; stroke: #0d0dff; stroke-width: 0.5"/>
    </g>
   </g>
   <g id="text_1">
    <!-- C2H5Co48N -->
    <g transform="translate(134.185846 -2.900833) scale(0.1 -0.1)">
     <defs>
      <path id="DejaVuSans-43" d="M 4122 4306 
L 4122 3641 
Q 3803 3938 3442 4084 
Q 3081 4231 2675 4231 
Q 1875 4231 1450 3742 
Q 1025 3253 1025 2328 
Q 1025 1406 1450 917 
Q 1875 428 2675 428 
Q 3081 428 3442 575 
Q 3803 722 4122 1019 
L 4122 359 
Q 3791 134 3420 21 
Q 3050 -91 2638 -91 
Q 1578 -91 968 557 
Q 359 1206 359 2328 
Q 359 3453 968 4101 
Q 1578 4750 2638 4750 
Q 3056 4750 3426 4639 
Q 3797 4528 4122 4306 
z
" transform="scale(0.015625)"/>
      <path id="DejaVuSans-32" d="M 1228 531 
L 3431 531 
L 3431 0 
L 469 0 
L 469 531 
Q 828 903 1448 1529 
Q 2069 2156 2228 2338 
Q 2531 2678 2651 2914 
Q 2772 3150 2772 3378 
Q 2772 3750 2511 3984 
Q 2250 4219 1831 4219 
Q 1534 4219 1204 4116 
Q 875 4013 500 3803 
L 500 4441 
Q 881 4594 1212 4672 
Q 1544 4750 1819 4750 
Q 2544 4750 2975 4387 
Q 3406 4025 3406 3419 
Q 3406 3131 3298 2873 
Q 3191 2616 2906 2266 
Q 2828 2175 2409 1742 
Q 1991 1309 1228 531 
z
" transform="scale(0.015625)"/>
      <path id="DejaVuSans-48" d="M 628 4666 
L 1259 4666 
L 1259 2753 
L 3553 2753 
L 3553 4666 
L 4184 4666 
L 4184 0 
L 3553 0 
L 3553 2222 
L 1259 2222 
L 1259 0 
L 628 0 
L 628 4666 
z
" transform="scale(0.015625)"/>
      <path id="DejaVuSans-35" d="M 691 4666 
L 3169 4666 
L 3169 4134 
L 1269 4134 
L 1269 2991 
Q 1406 3038 1543 3061 
Q 1681 3084 1819 3084 
Q 2600 3084 3056 2656 
Q 3513 2228 3513 1497 
Q 3513 744 3044 326 
Q 2575 -91 1722 -91 
Q 1428 -91 1123 -41 
Q 819 9 494 109 
L 494 744 
Q 775 591 1075 516 
Q 1375 441 1709 441 
Q 2250 441 2565 725 
Q 2881 1009 2881 1497 
Q 2881 1984 2565 2268 
Q 2250 2553 1709 2553 
Q 1456 2553 1204 2497 
Q 953 2441 691 2322 
L 691 4666 
z
" transform="scale(0.015625)"/>
      <path id="DejaVuSans-6f" d="M 1959 3097 
Q 1497 3097 1228 2736 
Q 959 2375 959 1747 
Q 959 1119 1226 758 
Q 1494 397 1959 397 
Q 2419 397 2687 759 
Q 2956 1122 2956 1747 
Q 2956 2369 2687 2733 
Q 2419 3097 1959 3097 
z
M 1959 3584 
Q 2709 3584 3137 3096 
Q 3566 2609 3566 1747 
Q 3566 888 3137 398 
Q 2709 -91 1959 -91 
Q 1206 -91 779 398 
Q 353 888 353 1747 
Q 353 2609 779 3096 
Q 1206 3584 1959 3584 
z
" transform="scale(0.015625)"/>
      <path id="DejaVuSans-34" d="M 2419 4116 
L 825 1625 
L 2419 1625 
L 2419 4116 
z
M 2253 4666 
L 3047 4666 
L 3047 1625 
L 3713 1625 
L 3713 1100 
L 3047 1100 
L 3047 0 
L 2419 0 
L 2419 1100 
L 313 1100 
L 313 1709 
L 2253 4666 
z
" transform="scale(0.015625)"/>
      <path id="DejaVuSans-38" d="M 2034 2216 
Q 1584 2216 1326 1975 
Q 1069 1734 1069 1313 
Q 1069 891 1326 650 
Q 1584 409 2034 409 
Q 2484 409 2743 651 
Q 3003 894 3003 1313 
Q 3003 1734 2745 1975 
Q 2488 2216 2034 2216 
z
M 1403 2484 
Q 997 2584 770 2862 
Q 544 3141 544 3541 
Q 544 4100 942 4425 
Q 1341 4750 2034 4750 
Q 2731 4750 3128 4425 
Q 3525 4100 3525 3541 
Q 3525 3141 3298 2862 
Q 3072 2584 2669 2484 
Q 3125 2378 3379 2068 
Q 3634 1759 3634 1313 
Q 3634 634 3220 271 
Q 2806 -91 2034 -91 
Q 1263 -91 848 271 
Q 434 634 434 1313 
Q 434 1759 690 2068 
Q 947 2378 1403 2484 
z
M 1172 3481 
Q 1172 3119 1398 2916 
Q 1625 2713 2034 2713 
Q 2441 2713 2670 2916 
Q 2900 3119 2900 3481 
Q 2900 3844 2670 4047 
Q 2441 4250 2034 4250 
Q 1625 4250 1398 4047 
Q 1172 3844 1172 3481 
z
" transform="scale(0.015625)"/>
      <path id="DejaVuSans-4e" d="M 628 4666 
L 1478 4666 
L 3547 763 
L 3547 4666 
L 4159 4666 
L 4159 0 
L 3309 0 
L 1241 3903 
L 1241 0 
L 628 0 
L 628 4666 
z
" transform="scale(0.015625)"/>
     </defs>
     <use xlink:href="#DejaVuSans-43"/>
     <use xlink:href="#DejaVuSans-32" transform="translate(69.824219 0)"/>
     <use xlink:href="#DejaVuSans-48" transform="translate(133.447266 0)"/>
     <use xlink:href="#DejaVuSans-35" transform="translate(208.642578 0)"/>
     <use xlink:href="#DejaVuSans-43" transform="translate(272.265625 0)"/>
     <use xlink:href="#DejaVuSans-6f" transform="translate(342.089844 0)"/>
     <use xlink:href="#DejaVuSans-34" transform="translate(403.271484 0)"/>
     <use xlink:href="#DejaVuSans-38" transform="translate(466.894531 0)"/>
     <use xlink:href="#DejaVuSans-4e" transform="translate(530.517578 0)"/>
    </g>
    <!-- Error: -8.37 eV -->
    <g transform="translate(134.185846 8.296979) scale(0.1 -0.1)">
     <defs>
      <path id="DejaVuSans-45" d="M 628 4666 
L 3578 4666 
L 3578 4134 
L 1259 4134 
L 1259 2753 
L 3481 2753 
L 3481 2222 
L 1259 2222 
L 1259 531 
L 3634 531 
L 3634 0 
L 628 0 
L 628 4666 
z
" transform="scale(0.015625)"/>
      <path id="DejaVuSans-72" d="M 2631 2963 
Q 2534 3019 2420 3045 
Q 2306 3072 2169 3072 
Q 1681 3072 1420 2755 
Q 1159 2438 1159 1844 
L 1159 0 
L 581 0 
L 581 3500 
L 1159 3500 
L 1159 2956 
Q 1341 3275 1631 3429 
Q 1922 3584 2338 3584 
Q 2397 3584 2469 3576 
Q 2541 3569 2628 3553 
L 2631 2963 
z
" transform="scale(0.015625)"/>
      <path id="DejaVuSans-3a" d="M 750 794 
L 1409 794 
L 1409 0 
L 750 0 
L 750 794 
z
M 750 3309 
L 1409 3309 
L 1409 2516 
L 750 2516 
L 750 3309 
z
" transform="scale(0.015625)"/>
      <path id="DejaVuSans-20" transform="scale(0.015625)"/>
      <path id="DejaVuSans-2d" d="M 313 2009 
L 1997 2009 
L 1997 1497 
L 313 1497 
L 313 2009 
z
" transform="scale(0.015625)"/>
      <path id="DejaVuSans-2e" d="M 684 794 
L 1344 794 
L 1344 0 
L 684 0 
L 684 794 
z
" transform="scale(0.015625)"/>
      <path id="DejaVuSans-33" d="M 2597 2516 
Q 3050 2419 3304 2112 
Q 3559 1806 3559 1356 
Q 3559 666 3084 287 
Q 2609 -91 1734 -91 
Q 1441 -91 1130 -33 
Q 819 25 488 141 
L 488 750 
Q 750 597 1062 519 
Q 1375 441 1716 441 
Q 2309 441 2620 675 
Q 2931 909 2931 1356 
Q 2931 1769 2642 2001 
Q 2353 2234 1838 2234 
L 1294 2234 
L 1294 2753 
L 1863 2753 
Q 2328 2753 2575 2939 
Q 2822 3125 2822 3475 
Q 2822 3834 2567 4026 
Q 2313 4219 1838 4219 
Q 1578 4219 1281 4162 
Q 984 4106 628 3988 
L 628 4550 
Q 988 4650 1302 4700 
Q 1616 4750 1894 4750 
Q 2613 4750 3031 4423 
Q 3450 4097 3450 3541 
Q 3450 3153 3228 2886 
Q 3006 2619 2597 2516 
z
" transform="scale(0.015625)"/>
      <path id="DejaVuSans-37" d="M 525 4666 
L 3525 4666 
L 3525 4397 
L 1831 0 
L 1172 0 
L 2766 4134 
L 525 4134 
L 525 4666 
z
" transform="scale(0.015625)"/>
      <path id="DejaVuSans-65" d="M 3597 1894 
L 3597 1613 
L 953 1613 
Q 991 1019 1311 708 
Q 1631 397 2203 397 
Q 2534 397 2845 478 
Q 3156 559 3463 722 
L 3463 178 
Q 3153 47 2828 -22 
Q 2503 -91 2169 -91 
Q 1331 -91 842 396 
Q 353 884 353 1716 
Q 353 2575 817 3079 
Q 1281 3584 2069 3584 
Q 2775 3584 3186 3129 
Q 3597 2675 3597 1894 
z
M 3022 2063 
Q 3016 2534 2758 2815 
Q 2500 3097 2075 3097 
Q 1594 3097 1305 2825 
Q 1016 2553 972 2059 
L 3022 2063 
z
" transform="scale(0.015625)"/>
      <path id="DejaVuSans-56" d="M 1831 0 
L 50 4666 
L 709 4666 
L 2188 738 
L 3669 4666 
L 4325 4666 
L 2547 0 
L 1831 0 
z
" transform="scale(0.015625)"/>
     </defs>
     <use xlink:href="#DejaVuSans-45"/>
     <use xlink:href="#DejaVuSans-72" transform="translate(63.183594 0)"/>
     <use xlink:href="#DejaVuSans-72" transform="translate(102.546875 0)"/>
     <use xlink:href="#DejaVuSans-6f" transform="translate(141.410156 0)"/>
     <use xlink:href="#DejaVuSans-72" transform="translate(202.591797 0)"/>
     <use xlink:href="#DejaVuSans-3a" transform="translate(241.955078 0)"/>
     <use xlink:href="#DejaVuSans-20" transform="translate(275.646484 0)"/>
     <use xlink:href="#DejaVuSans-2d" transform="translate(307.433594 0)"/>
     <use xlink:href="#DejaVuSans-38" transform="translate(343.517578 0)"/>
     <use xlink:href="#DejaVuSans-2e" transform="translate(407.140625 0)"/>
     <use xlink:href="#DejaVuSans-33" transform="translate(438.927734 0)"/>
     <use xlink:href="#DejaVuSans-37" transform="translate(502.550781 0)"/>
     <use xlink:href="#DejaVuSans-20" transform="translate(566.173828 0)"/>
     <use xlink:href="#DejaVuSans-65" transform="translate(597.960938 0)"/>
     <use xlink:href="#DejaVuSans-56" transform="translate(659.484375 0)"/>
    </g>
   </g>
  </g>
 </g>
 <defs>
  <clipPath id="pe7286672b3">
   <rect x="36" y="34.56" width="223.2" height="221.76"/>
  </clipPath>
 </defs>
</svg>
