<?xml version="1.0" encoding="utf-8" standalone="no"?>
<!DOCTYPE svg PUBLIC "-//W3C//DTD SVG 1.1//EN"
  "http://www.w3.org/Graphics/SVG/1.1/DTD/svg11.dtd">
<svg xmlns:xlink="http://www.w3.org/1999/xlink" width="288pt" height="288pt" viewBox="0 0 288 288" xmlns="http://www.w3.org/2000/svg" version="1.1">
 <metadata>
  <rdf:RDF xmlns:dc="http://purl.org/dc/elements/1.1/" xmlns:cc="http://creativecommons.org/ns#" xmlns:rdf="http://www.w3.org/1999/02/22-rdf-syntax-ns#">
   <cc:Work>
    <dc:type rdf:resource="http://purl.org/dc/dcmitype/StillImage"/>
    <dc:date>2025-06-30T12:05:32.414130</dc:date>
    <dc:format>image/svg+xml</dc:format>
    <dc:creator>
     <cc:Agent>
      <dc:title>Matplotlib v3.10.1, https://matplotlib.org/</dc:title>
     </cc:Agent>
    </dc:creator>
   </cc:Work>
  </rdf:RDF>
 </metadata>
 <defs>
  <style type="text/css">*{stroke-linejoin: round; stroke-linecap: butt}</style>
 </defs>
 <g id="figure_1">
  <g id="patch_1">
   <path d="M 0 288 
L 288 288 
L 288 0 
L 0 0 
z
" style="fill: #ffffff"/>
  </g>
  <g id="axes_1">
   <g id="LineCollection_1">
    <path d="M 74.476465 65.471931 
L 62.51924 72.910056 
" clip-path="url(#p697b468337)" style="fill: none; stroke: #000000; stroke-width: 1.2"/>
    <path d="M 74.476465 65.471931 
L 100.711759 57.744925 
" clip-path="url(#p697b468337)" style="fill: none; stroke: #000000; stroke-width: 1.2"/>
    <path d="M 74.476465 65.471931 
L 87.330957 56.329063 
" clip-path="url(#p697b468337)" style="fill: none; stroke: #000000; stroke-width: 1.2"/>
    <path d="M 74.476465 65.471931 
L 55.368595 78.619233 
" clip-path="url(#p697b468337)" style="fill: none; stroke: #000000; stroke-width: 1.2"/>
    <path d="M 74.476465 65.471931 
L 107.430653 71.892417 
" clip-path="url(#p697b468337)" style="fill: none; stroke: #000000; stroke-width: 1.2"/>
    <path d="M 74.476465 65.471931 
L 140.606353 58.047718 
" clip-path="url(#p697b468337)" style="fill: none; stroke: #000000; stroke-width: 1.2"/>
    <path d="M 74.476465 65.471931 
L 72.192518 99.129933 
" clip-path="url(#p697b468337)" style="fill: none; stroke: #000000; stroke-width: 1.2"/>
    <path d="M 74.476465 65.471931 
L 114.929612 86.613791 
" clip-path="url(#p697b468337)" style="fill: none; stroke: #000000; stroke-width: 1.2"/>
    <path d="M 74.476465 65.471931 
L 86.792988 106.979411 
" clip-path="url(#p697b468337)" style="fill: none; stroke: #000000; stroke-width: 1.2"/>
    <path d="M 62.51924 72.910056 
L 100.711759 57.744925 
" clip-path="url(#p697b468337)" style="fill: none; stroke: #000000; stroke-width: 1.2"/>
    <path d="M 62.51924 72.910056 
L 87.330957 56.329063 
" clip-path="url(#p697b468337)" style="fill: none; stroke: #000000; stroke-width: 1.2"/>
    <path d="M 62.51924 72.910056 
L 72.628508 83.207838 
" clip-path="url(#p697b468337)" style="fill: none; stroke: #000000; stroke-width: 1.2"/>
    <path d="M 62.51924 72.910056 
L 122.88796 57.792781 
" clip-path="url(#p697b468337)" style="fill: none; stroke: #000000; stroke-width: 1.2"/>
    <path d="M 62.51924 72.910056 
L 90.717027 69.478958 
" clip-path="url(#p697b468337)" style="fill: none; stroke: #000000; stroke-width: 1.2"/>
    <path d="M 62.51924 72.910056 
L 72.192518 99.129933 
" clip-path="url(#p697b468337)" style="fill: none; stroke: #000000; stroke-width: 1.2"/>
    <path d="M 62.51924 72.910056 
L 89.42278 102.160932 
" clip-path="url(#p697b468337)" style="fill: none; stroke: #000000; stroke-width: 1.2"/>
    <path d="M 62.51924 72.910056 
L 108.622924 100.826476 
" clip-path="url(#p697b468337)" style="fill: none; stroke: #000000; stroke-width: 1.2"/>
    <path d="M 100.711759 57.744925 
L 116.219284 53.803636 
" clip-path="url(#p697b468337)" style="fill: none; stroke: #000000; stroke-width: 1.2"/>
    <path d="M 100.711759 57.744925 
L 138.523827 65.113052 
" clip-path="url(#p697b468337)" style="fill: none; stroke: #000000; stroke-width: 1.2"/>
    <path d="M 100.711759 57.744925 
L 72.628508 83.207838 
" clip-path="url(#p697b468337)" style="fill: none; stroke: #000000; stroke-width: 1.2"/>
    <path d="M 100.711759 57.744925 
L 140.606353 58.047718 
" clip-path="url(#p697b468337)" style="fill: none; stroke: #000000; stroke-width: 1.2"/>
    <path d="M 100.711759 57.744925 
L 114.929612 86.613791 
" clip-path="url(#p697b468337)" style="fill: none; stroke: #000000; stroke-width: 1.2"/>
    <path d="M 100.711759 57.744925 
L 89.42278 102.160932 
" clip-path="url(#p697b468337)" style="fill: none; stroke: #000000; stroke-width: 1.2"/>
    <path d="M 100.711759 57.744925 
L 146.389924 85.077603 
" clip-path="url(#p697b468337)" style="fill: none; stroke: #000000; stroke-width: 1.2"/>
    <path d="M 116.219284 53.803636 
L 138.523827 65.113052 
" clip-path="url(#p697b468337)" style="fill: none; stroke: #000000; stroke-width: 1.2"/>
    <path d="M 116.219284 53.803636 
L 87.330957 56.329063 
" clip-path="url(#p697b468337)" style="fill: none; stroke: #000000; stroke-width: 1.2"/>
    <path d="M 116.219284 53.803636 
L 55.368595 78.619233 
" clip-path="url(#p697b468337)" style="fill: none; stroke: #000000; stroke-width: 1.2"/>
    <path d="M 116.219284 53.803636 
L 140.606353 58.047718 
" clip-path="url(#p697b468337)" style="fill: none; stroke: #000000; stroke-width: 1.2"/>
    <path d="M 116.219284 53.803636 
L 90.717027 69.478958 
" clip-path="url(#p697b468337)" style="fill: none; stroke: #000000; stroke-width: 1.2"/>
    <path d="M 116.219284 53.803636 
L 146.389924 85.077603 
" clip-path="url(#p697b468337)" style="fill: none; stroke: #000000; stroke-width: 1.2"/>
    <path d="M 116.219284 53.803636 
L 96.033316 89.491136 
" clip-path="url(#p697b468337)" style="fill: none; stroke: #000000; stroke-width: 1.2"/>
    <path d="M 116.219284 53.803636 
L 133.852893 92.158057 
" clip-path="url(#p697b468337)" style="fill: none; stroke: #000000; stroke-width: 1.2"/>
    <path d="M 138.523827 65.113052 
L 87.330957 56.329063 
" clip-path="url(#p697b468337)" style="fill: none; stroke: #000000; stroke-width: 1.2"/>
    <path d="M 138.523827 65.113052 
L 72.628508 83.207838 
" clip-path="url(#p697b468337)" style="fill: none; stroke: #000000; stroke-width: 1.2"/>
    <path d="M 138.523827 65.113052 
L 107.430653 71.892417 
" clip-path="url(#p697b468337)" style="fill: none; stroke: #000000; stroke-width: 1.2"/>
    <path d="M 138.523827 65.113052 
L 122.88796 57.792781 
" clip-path="url(#p697b468337)" style="fill: none; stroke: #000000; stroke-width: 1.2"/>
    <path d="M 138.523827 65.113052 
L 146.389924 85.077603 
" clip-path="url(#p697b468337)" style="fill: none; stroke: #000000; stroke-width: 1.2"/>
    <path d="M 138.523827 65.113052 
L 130.358877 87.328576 
" clip-path="url(#p697b468337)" style="fill: none; stroke: #000000; stroke-width: 1.2"/>
    <path d="M 138.523827 65.113052 
L 120.211729 106.212634 
" clip-path="url(#p697b468337)" style="fill: none; stroke: #000000; stroke-width: 1.2"/>
    <path d="M 87.330957 56.329063 
L 55.368595 78.619233 
" clip-path="url(#p697b468337)" style="fill: none; stroke: #000000; stroke-width: 1.2"/>
    <path d="M 87.330957 56.329063 
L 122.88796 57.792781 
" clip-path="url(#p697b468337)" style="fill: none; stroke: #000000; stroke-width: 1.2"/>
    <path d="M 87.330957 56.329063 
L 72.192518 99.129933 
" clip-path="url(#p697b468337)" style="fill: none; stroke: #000000; stroke-width: 1.2"/>
    <path d="M 87.330957 56.329063 
L 96.033316 89.491136 
" clip-path="url(#p697b468337)" style="fill: none; stroke: #000000; stroke-width: 1.2"/>
    <path d="M 87.330957 56.329063 
L 130.358877 87.328576 
" clip-path="url(#p697b468337)" style="fill: none; stroke: #000000; stroke-width: 1.2"/>
    <path d="M 72.628508 83.207838 
L 55.368595 78.619233 
" clip-path="url(#p697b468337)" style="fill: none; stroke: #000000; stroke-width: 1.2"/>
    <path d="M 72.628508 83.207838 
L 107.430653 71.892417 
" clip-path="url(#p697b468337)" style="fill: none; stroke: #000000; stroke-width: 1.2"/>
    <path d="M 72.628508 83.207838 
L 90.717027 69.478958 
" clip-path="url(#p697b468337)" style="fill: none; stroke: #000000; stroke-width: 1.2"/>
    <path d="M 72.628508 83.207838 
L 89.42278 102.160932 
" clip-path="url(#p697b468337)" style="fill: none; stroke: #000000; stroke-width: 1.2"/>
    <path d="M 72.628508 83.207838 
L 70.71844 110.725592 
" clip-path="url(#p697b468337)" style="fill: none; stroke: #000000; stroke-width: 1.2"/>
    <path d="M 72.628508 83.207838 
L 120.211729 106.212634 
" clip-path="url(#p697b468337)" style="fill: none; stroke: #000000; stroke-width: 1.2"/>
    <path d="M 55.368595 78.619233 
L 107.430653 71.892417 
" clip-path="url(#p697b468337)" style="fill: none; stroke: #000000; stroke-width: 1.2"/>
    <path d="M 55.368595 78.619233 
L 90.717027 69.478958 
" clip-path="url(#p697b468337)" style="fill: none; stroke: #000000; stroke-width: 1.2"/>
    <path d="M 55.368595 78.619233 
L 96.033316 89.491136 
" clip-path="url(#p697b468337)" style="fill: none; stroke: #000000; stroke-width: 1.2"/>
    <path d="M 55.368595 78.619233 
L 70.71844 110.725592 
" clip-path="url(#p697b468337)" style="fill: none; stroke: #000000; stroke-width: 1.2"/>
    <path d="M 55.368595 78.619233 
L 86.792988 106.979411 
" clip-path="url(#p697b468337)" style="fill: none; stroke: #000000; stroke-width: 1.2"/>
    <path d="M 107.430653 71.892417 
L 122.88796 57.792781 
" clip-path="url(#p697b468337)" style="fill: none; stroke: #000000; stroke-width: 1.2"/>
    <path d="M 107.430653 71.892417 
L 140.606353 58.047718 
" clip-path="url(#p697b468337)" style="fill: none; stroke: #000000; stroke-width: 1.2"/>
    <path d="M 107.430653 71.892417 
L 120.211729 106.212634 
" clip-path="url(#p697b468337)" style="fill: none; stroke: #000000; stroke-width: 1.2"/>
    <path d="M 107.430653 71.892417 
L 86.792988 106.979411 
" clip-path="url(#p697b468337)" style="fill: none; stroke: #000000; stroke-width: 1.2"/>
    <path d="M 107.430653 71.892417 
L 152.363648 91.728219 
" clip-path="url(#p697b468337)" style="fill: none; stroke: #000000; stroke-width: 1.2"/>
    <path d="M 122.88796 57.792781 
L 140.606353 58.047718 
" clip-path="url(#p697b468337)" style="fill: none; stroke: #000000; stroke-width: 1.2"/>
    <path d="M 122.88796 57.792781 
L 90.717027 69.478958 
" clip-path="url(#p697b468337)" style="fill: none; stroke: #000000; stroke-width: 1.2"/>
    <path d="M 122.88796 57.792781 
L 130.358877 87.328576 
" clip-path="url(#p697b468337)" style="fill: none; stroke: #000000; stroke-width: 1.2"/>
    <path d="M 122.88796 57.792781 
L 152.363648 91.728219 
" clip-path="url(#p697b468337)" style="fill: none; stroke: #000000; stroke-width: 1.2"/>
    <path d="M 122.88796 57.792781 
L 108.622924 100.826476 
" clip-path="url(#p697b468337)" style="fill: none; stroke: #000000; stroke-width: 1.2"/>
    <path d="M 140.606353 58.047718 
L 90.717027 69.478958 
" clip-path="url(#p697b468337)" style="fill: none; stroke: #000000; stroke-width: 1.2"/>
    <path d="M 140.606353 58.047718 
L 114.929612 86.613791 
" clip-path="url(#p697b468337)" style="fill: none; stroke: #000000; stroke-width: 1.2"/>
    <path d="M 140.606353 58.047718 
L 152.363648 91.728219 
" clip-path="url(#p697b468337)" style="fill: none; stroke: #000000; stroke-width: 1.2"/>
    <path d="M 140.606353 58.047718 
L 133.852893 92.158057 
" clip-path="url(#p697b468337)" style="fill: none; stroke: #000000; stroke-width: 1.2"/>
    <path d="M 90.717027 69.478958 
L 70.71844 110.725592 
" clip-path="url(#p697b468337)" style="fill: none; stroke: #000000; stroke-width: 1.2"/>
    <path d="M 90.717027 69.478958 
L 108.622924 100.826476 
" clip-path="url(#p697b468337)" style="fill: none; stroke: #000000; stroke-width: 1.2"/>
    <path d="M 90.717027 69.478958 
L 133.852893 92.158057 
" clip-path="url(#p697b468337)" style="fill: none; stroke: #000000; stroke-width: 1.2"/>
    <path d="M 72.192518 99.129933 
L 114.929612 86.613791 
" clip-path="url(#p697b468337)" style="fill: none; stroke: #000000; stroke-width: 1.2"/>
    <path d="M 72.192518 99.129933 
L 89.42278 102.160932 
" clip-path="url(#p697b468337)" style="fill: none; stroke: #000000; stroke-width: 1.2"/>
    <path d="M 72.192518 99.129933 
L 96.033316 89.491136 
" clip-path="url(#p697b468337)" style="fill: none; stroke: #000000; stroke-width: 1.2"/>
    <path d="M 72.192518 99.129933 
L 130.358877 87.328576 
" clip-path="url(#p697b468337)" style="fill: none; stroke: #000000; stroke-width: 1.2"/>
    <path d="M 72.192518 99.129933 
L 86.792988 106.979411 
" clip-path="url(#p697b468337)" style="fill: none; stroke: #000000; stroke-width: 1.2"/>
    <path d="M 72.192518 99.129933 
L 108.622924 100.826476 
" clip-path="url(#p697b468337)" style="fill: none; stroke: #000000; stroke-width: 1.2"/>
    <path d="M 72.192518 99.129933 
L 76.967868 128.296389 
" clip-path="url(#p697b468337)" style="fill: none; stroke: #000000; stroke-width: 1.2"/>
    <path d="M 72.192518 99.129933 
L 97.093522 125.524638 
" clip-path="url(#p697b468337)" style="fill: none; stroke: #000000; stroke-width: 1.2"/>
    <path d="M 72.192518 99.129933 
L 122.208477 132.787725 
" clip-path="url(#p697b468337)" style="fill: none; stroke: #000000; stroke-width: 1.2"/>
    <path d="M 114.929612 86.613791 
L 89.42278 102.160932 
" clip-path="url(#p697b468337)" style="fill: none; stroke: #000000; stroke-width: 1.2"/>
    <path d="M 114.929612 86.613791 
L 146.389924 85.077603 
" clip-path="url(#p697b468337)" style="fill: none; stroke: #000000; stroke-width: 1.2"/>
    <path d="M 114.929612 86.613791 
L 86.792988 106.979411 
" clip-path="url(#p697b468337)" style="fill: none; stroke: #000000; stroke-width: 1.2"/>
    <path d="M 114.929612 86.613791 
L 152.363648 91.728219 
" clip-path="url(#p697b468337)" style="fill: none; stroke: #000000; stroke-width: 1.2"/>
    <path d="M 114.929612 86.613791 
L 133.852893 92.158057 
" clip-path="url(#p697b468337)" style="fill: none; stroke: #000000; stroke-width: 1.2"/>
    <path d="M 114.929612 86.613791 
L 97.093522 125.524638 
" clip-path="url(#p697b468337)" style="fill: none; stroke: #000000; stroke-width: 1.2"/>
    <path d="M 114.929612 86.613791 
L 160.489345 108.471638 
" clip-path="url(#p697b468337)" style="fill: none; stroke: #000000; stroke-width: 1.2"/>
    <path d="M 114.929612 86.613791 
L 128.832091 122.820763 
" clip-path="url(#p697b468337)" style="fill: none; stroke: #000000; stroke-width: 1.2"/>
    <path d="M 89.42278 102.160932 
L 146.389924 85.077603 
" clip-path="url(#p697b468337)" style="fill: none; stroke: #000000; stroke-width: 1.2"/>
    <path d="M 89.42278 102.160932 
L 70.71844 110.725592 
" clip-path="url(#p697b468337)" style="fill: none; stroke: #000000; stroke-width: 1.2"/>
    <path d="M 89.42278 102.160932 
L 120.211729 106.212634 
" clip-path="url(#p697b468337)" style="fill: none; stroke: #000000; stroke-width: 1.2"/>
    <path d="M 89.42278 102.160932 
L 108.622924 100.826476 
" clip-path="url(#p697b468337)" style="fill: none; stroke: #000000; stroke-width: 1.2"/>
    <path d="M 89.42278 102.160932 
L 97.093522 125.524638 
" clip-path="url(#p697b468337)" style="fill: none; stroke: #000000; stroke-width: 1.2"/>
    <path d="M 89.42278 102.160932 
L 131.213115 135.879349 
" clip-path="url(#p697b468337)" style="fill: none; stroke: #000000; stroke-width: 1.2"/>
    <path d="M 89.42278 102.160932 
L 86.925446 136.739241 
" clip-path="url(#p697b468337)" style="fill: none; stroke: #000000; stroke-width: 1.2"/>
    <path d="M 146.389924 85.077603 
L 96.033316 89.491136 
" clip-path="url(#p697b468337)" style="fill: none; stroke: #000000; stroke-width: 1.2"/>
    <path d="M 146.389924 85.077603 
L 130.358877 87.328576 
" clip-path="url(#p697b468337)" style="fill: none; stroke: #000000; stroke-width: 1.2"/>
    <path d="M 146.389924 85.077603 
L 120.211729 106.212634 
" clip-path="url(#p697b468337)" style="fill: none; stroke: #000000; stroke-width: 1.2"/>
    <path d="M 146.389924 85.077603 
L 133.852893 92.158057 
" clip-path="url(#p697b468337)" style="fill: none; stroke: #000000; stroke-width: 1.2"/>
    <path d="M 146.389924 85.077603 
L 131.213115 135.879349 
" clip-path="url(#p697b468337)" style="fill: none; stroke: #000000; stroke-width: 1.2"/>
    <path d="M 146.389924 85.077603 
L 160.489345 108.471638 
" clip-path="url(#p697b468337)" style="fill: none; stroke: #000000; stroke-width: 1.2"/>
    <path d="M 146.389924 85.077603 
L 141.0538 113.181739 
" clip-path="url(#p697b468337)" style="fill: none; stroke: #000000; stroke-width: 1.2"/>
    <path d="M 96.033316 89.491136 
L 130.358877 87.328576 
" clip-path="url(#p697b468337)" style="fill: none; stroke: #000000; stroke-width: 1.2"/>
    <path d="M 96.033316 89.491136 
L 70.71844 110.725592 
" clip-path="url(#p697b468337)" style="fill: none; stroke: #000000; stroke-width: 1.2"/>
    <path d="M 96.033316 89.491136 
L 86.792988 106.979411 
" clip-path="url(#p697b468337)" style="fill: none; stroke: #000000; stroke-width: 1.2"/>
    <path d="M 96.033316 89.491136 
L 133.852893 92.158057 
" clip-path="url(#p697b468337)" style="fill: none; stroke: #000000; stroke-width: 1.2"/>
    <path d="M 96.033316 89.491136 
L 76.967868 128.296389 
" clip-path="url(#p697b468337)" style="fill: none; stroke: #000000; stroke-width: 1.2"/>
    <path d="M 96.033316 89.491136 
L 141.0538 113.181739 
" clip-path="url(#p697b468337)" style="fill: none; stroke: #000000; stroke-width: 1.2"/>
    <path d="M 96.033316 89.491136 
L 111.596428 124.684988 
" clip-path="url(#p697b468337)" style="fill: none; stroke: #000000; stroke-width: 1.2"/>
    <path d="M 130.358877 87.328576 
L 120.211729 106.212634 
" clip-path="url(#p697b468337)" style="fill: none; stroke: #000000; stroke-width: 1.2"/>
    <path d="M 130.358877 87.328576 
L 152.363648 91.728219 
" clip-path="url(#p697b468337)" style="fill: none; stroke: #000000; stroke-width: 1.2"/>
    <path d="M 130.358877 87.328576 
L 108.622924 100.826476 
" clip-path="url(#p697b468337)" style="fill: none; stroke: #000000; stroke-width: 1.2"/>
    <path d="M 130.358877 87.328576 
L 141.0538 113.181739 
" clip-path="url(#p697b468337)" style="fill: none; stroke: #000000; stroke-width: 1.2"/>
    <path d="M 130.358877 87.328576 
L 122.208477 132.787725 
" clip-path="url(#p697b468337)" style="fill: none; stroke: #000000; stroke-width: 1.2"/>
    <path d="M 130.358877 87.328576 
L 161.447414 122.690167 
" clip-path="url(#p697b468337)" style="fill: none; stroke: #000000; stroke-width: 1.2"/>
    <path d="M 70.71844 110.725592 
L 120.211729 106.212634 
" clip-path="url(#p697b468337)" style="fill: none; stroke: #000000; stroke-width: 1.2"/>
    <path d="M 70.71844 110.725592 
L 86.792988 106.979411 
" clip-path="url(#p697b468337)" style="fill: none; stroke: #000000; stroke-width: 1.2"/>
    <path d="M 70.71844 110.725592 
L 108.622924 100.826476 
" clip-path="url(#p697b468337)" style="fill: none; stroke: #000000; stroke-width: 1.2"/>
    <path d="M 70.71844 110.725592 
L 133.852893 92.158057 
" clip-path="url(#p697b468337)" style="fill: none; stroke: #000000; stroke-width: 1.2"/>
    <path d="M 70.71844 110.725592 
L 86.925446 136.739241 
" clip-path="url(#p697b468337)" style="fill: none; stroke: #000000; stroke-width: 1.2"/>
    <path d="M 70.71844 110.725592 
L 101.400487 142.865122 
" clip-path="url(#p697b468337)" style="fill: none; stroke: #000000; stroke-width: 1.2"/>
    <path d="M 70.71844 110.725592 
L 111.596428 124.684988 
" clip-path="url(#p697b468337)" style="fill: none; stroke: #000000; stroke-width: 1.2"/>
    <path d="M 120.211729 106.212634 
L 86.792988 106.979411 
" clip-path="url(#p697b468337)" style="fill: none; stroke: #000000; stroke-width: 1.2"/>
    <path d="M 120.211729 106.212634 
L 152.363648 91.728219 
" clip-path="url(#p697b468337)" style="fill: none; stroke: #000000; stroke-width: 1.2"/>
    <path d="M 120.211729 106.212634 
L 131.213115 135.879349 
" clip-path="url(#p697b468337)" style="fill: none; stroke: #000000; stroke-width: 1.2"/>
    <path d="M 120.211729 106.212634 
L 101.400487 142.865122 
" clip-path="url(#p697b468337)" style="fill: none; stroke: #000000; stroke-width: 1.2"/>
    <path d="M 120.211729 106.212634 
L 161.447414 122.690167 
" clip-path="url(#p697b468337)" style="fill: none; stroke: #000000; stroke-width: 1.2"/>
    <path d="M 86.792988 106.979411 
L 152.363648 91.728219 
" clip-path="url(#p697b468337)" style="fill: none; stroke: #000000; stroke-width: 1.2"/>
    <path d="M 86.792988 106.979411 
L 76.967868 128.296389 
" clip-path="url(#p697b468337)" style="fill: none; stroke: #000000; stroke-width: 1.2"/>
    <path d="M 86.792988 106.979411 
L 101.400487 142.865122 
" clip-path="url(#p697b468337)" style="fill: none; stroke: #000000; stroke-width: 1.2"/>
    <path d="M 86.792988 106.979411 
L 128.832091 122.820763 
" clip-path="url(#p697b468337)" style="fill: none; stroke: #000000; stroke-width: 1.2"/>
    <path d="M 152.363648 91.728219 
L 108.622924 100.826476 
" clip-path="url(#p697b468337)" style="fill: none; stroke: #000000; stroke-width: 1.2"/>
    <path d="M 152.363648 91.728219 
L 133.852893 92.158057 
" clip-path="url(#p697b468337)" style="fill: none; stroke: #000000; stroke-width: 1.2"/>
    <path d="M 152.363648 91.728219 
L 128.832091 122.820763 
" clip-path="url(#p697b468337)" style="fill: none; stroke: #000000; stroke-width: 1.2"/>
    <path d="M 152.363648 91.728219 
L 161.447414 122.690167 
" clip-path="url(#p697b468337)" style="fill: none; stroke: #000000; stroke-width: 1.2"/>
    <path d="M 152.363648 91.728219 
L 151.554731 125.624849 
" clip-path="url(#p697b468337)" style="fill: none; stroke: #000000; stroke-width: 1.2"/>
    <path d="M 108.622924 100.826476 
L 133.852893 92.158057 
" clip-path="url(#p697b468337)" style="fill: none; stroke: #000000; stroke-width: 1.2"/>
    <path d="M 108.622924 100.826476 
L 122.208477 132.787725 
" clip-path="url(#p697b468337)" style="fill: none; stroke: #000000; stroke-width: 1.2"/>
    <path d="M 108.622924 100.826476 
L 86.925446 136.739241 
" clip-path="url(#p697b468337)" style="fill: none; stroke: #000000; stroke-width: 1.2"/>
    <path d="M 108.622924 100.826476 
L 151.554731 125.624849 
" clip-path="url(#p697b468337)" style="fill: none; stroke: #000000; stroke-width: 1.2"/>
    <path d="M 133.852893 92.158057 
L 160.489345 108.471638 
" clip-path="url(#p697b468337)" style="fill: none; stroke: #000000; stroke-width: 1.2"/>
    <path d="M 133.852893 92.158057 
L 151.554731 125.624849 
" clip-path="url(#p697b468337)" style="fill: none; stroke: #000000; stroke-width: 1.2"/>
    <path d="M 133.852893 92.158057 
L 111.596428 124.684988 
" clip-path="url(#p697b468337)" style="fill: none; stroke: #000000; stroke-width: 1.2"/>
    <path d="M 76.967868 128.296389 
L 97.093522 125.524638 
" clip-path="url(#p697b468337)" style="fill: none; stroke: #000000; stroke-width: 1.2"/>
    <path d="M 76.967868 128.296389 
L 141.0538 113.181739 
" clip-path="url(#p697b468337)" style="fill: none; stroke: #000000; stroke-width: 1.2"/>
    <path d="M 76.967868 128.296389 
L 122.208477 132.787725 
" clip-path="url(#p697b468337)" style="fill: none; stroke: #000000; stroke-width: 1.2"/>
    <path d="M 76.967868 128.296389 
L 101.400487 142.865122 
" clip-path="url(#p697b468337)" style="fill: none; stroke: #000000; stroke-width: 1.2"/>
    <path d="M 76.967868 128.296389 
L 128.832091 122.820763 
" clip-path="url(#p697b468337)" style="fill: none; stroke: #000000; stroke-width: 1.2"/>
    <path d="M 76.967868 128.296389 
L 111.596428 124.684988 
" clip-path="url(#p697b468337)" style="fill: none; stroke: #000000; stroke-width: 1.2"/>
    <path d="M 97.093522 125.524638 
L 131.213115 135.879349 
" clip-path="url(#p697b468337)" style="fill: none; stroke: #000000; stroke-width: 1.2"/>
    <path d="M 97.093522 125.524638 
L 160.489345 108.471638 
" clip-path="url(#p697b468337)" style="fill: none; stroke: #000000; stroke-width: 1.2"/>
    <path d="M 97.093522 125.524638 
L 122.208477 132.787725 
" clip-path="url(#p697b468337)" style="fill: none; stroke: #000000; stroke-width: 1.2"/>
    <path d="M 97.093522 125.524638 
L 86.925446 136.739241 
" clip-path="url(#p697b468337)" style="fill: none; stroke: #000000; stroke-width: 1.2"/>
    <path d="M 97.093522 125.524638 
L 128.832091 122.820763 
" clip-path="url(#p697b468337)" style="fill: none; stroke: #000000; stroke-width: 1.2"/>
    <path d="M 131.213115 135.879349 
L 160.489345 108.471638 
" clip-path="url(#p697b468337)" style="fill: none; stroke: #000000; stroke-width: 1.2"/>
    <path d="M 131.213115 135.879349 
L 141.0538 113.181739 
" clip-path="url(#p697b468337)" style="fill: none; stroke: #000000; stroke-width: 1.2"/>
    <path d="M 131.213115 135.879349 
L 86.925446 136.739241 
" clip-path="url(#p697b468337)" style="fill: none; stroke: #000000; stroke-width: 1.2"/>
    <path d="M 131.213115 135.879349 
L 101.400487 142.865122 
" clip-path="url(#p697b468337)" style="fill: none; stroke: #000000; stroke-width: 1.2"/>
    <path d="M 131.213115 135.879349 
L 161.447414 122.690167 
" clip-path="url(#p697b468337)" style="fill: none; stroke: #000000; stroke-width: 1.2"/>
    <path d="M 131.213115 135.879349 
L 125.8128 173.11429 
" clip-path="url(#p697b468337)" style="fill: none; stroke: #000000; stroke-width: 1.2"/>
    <path d="M 160.489345 108.471638 
L 141.0538 113.181739 
" clip-path="url(#p697b468337)" style="fill: none; stroke: #000000; stroke-width: 1.2"/>
    <path d="M 160.489345 108.471638 
L 128.832091 122.820763 
" clip-path="url(#p697b468337)" style="fill: none; stroke: #000000; stroke-width: 1.2"/>
    <path d="M 160.489345 108.471638 
L 151.554731 125.624849 
" clip-path="url(#p697b468337)" style="fill: none; stroke: #000000; stroke-width: 1.2"/>
    <path d="M 160.489345 108.471638 
L 111.596428 124.684988 
" clip-path="url(#p697b468337)" style="fill: none; stroke: #000000; stroke-width: 1.2"/>
    <path d="M 141.0538 113.181739 
L 122.208477 132.787725 
" clip-path="url(#p697b468337)" style="fill: none; stroke: #000000; stroke-width: 1.2"/>
    <path d="M 141.0538 113.181739 
L 161.447414 122.690167 
" clip-path="url(#p697b468337)" style="fill: none; stroke: #000000; stroke-width: 1.2"/>
    <path d="M 141.0538 113.181739 
L 111.596428 124.684988 
" clip-path="url(#p697b468337)" style="fill: none; stroke: #000000; stroke-width: 1.2"/>
    <path d="M 122.208477 132.787725 
L 86.925446 136.739241 
" clip-path="url(#p697b468337)" style="fill: none; stroke: #000000; stroke-width: 1.2"/>
    <path d="M 122.208477 132.787725 
L 161.447414 122.690167 
" clip-path="url(#p697b468337)" style="fill: none; stroke: #000000; stroke-width: 1.2"/>
    <path d="M 122.208477 132.787725 
L 151.554731 125.624849 
" clip-path="url(#p697b468337)" style="fill: none; stroke: #000000; stroke-width: 1.2"/>
    <path d="M 122.208477 132.787725 
L 167.364673 153.046941 
" clip-path="url(#p697b468337)" style="fill: none; stroke: #000000; stroke-width: 1.2"/>
    <path d="M 86.925446 136.739241 
L 101.400487 142.865122 
" clip-path="url(#p697b468337)" style="fill: none; stroke: #000000; stroke-width: 1.2"/>
    <path d="M 86.925446 136.739241 
L 151.554731 125.624849 
" clip-path="url(#p697b468337)" style="fill: none; stroke: #000000; stroke-width: 1.2"/>
    <path d="M 86.925446 136.739241 
L 111.596428 124.684988 
" clip-path="url(#p697b468337)" style="fill: none; stroke: #000000; stroke-width: 1.2"/>
    <path d="M 101.400487 142.865122 
L 128.832091 122.820763 
" clip-path="url(#p697b468337)" style="fill: none; stroke: #000000; stroke-width: 1.2"/>
    <path d="M 101.400487 142.865122 
L 161.447414 122.690167 
" clip-path="url(#p697b468337)" style="fill: none; stroke: #000000; stroke-width: 1.2"/>
    <path d="M 101.400487 142.865122 
L 111.596428 124.684988 
" clip-path="url(#p697b468337)" style="fill: none; stroke: #000000; stroke-width: 1.2"/>
    <path d="M 101.400487 142.865122 
L 85.37807 175.80608 
" clip-path="url(#p697b468337)" style="fill: none; stroke: #000000; stroke-width: 1.2"/>
    <path d="M 128.832091 122.820763 
L 161.447414 122.690167 
" clip-path="url(#p697b468337)" style="fill: none; stroke: #000000; stroke-width: 1.2"/>
    <path d="M 128.832091 122.820763 
L 151.554731 125.624849 
" clip-path="url(#p697b468337)" style="fill: none; stroke: #000000; stroke-width: 1.2"/>
    <path d="M 161.447414 122.690167 
L 151.554731 125.624849 
" clip-path="url(#p697b468337)" style="fill: none; stroke: #000000; stroke-width: 1.2"/>
    <path d="M 161.447414 122.690167 
L 167.364673 153.046941 
" clip-path="url(#p697b468337)" style="fill: none; stroke: #000000; stroke-width: 1.2"/>
    <path d="M 151.554731 125.624849 
L 111.596428 124.684988 
" clip-path="url(#p697b468337)" style="fill: none; stroke: #000000; stroke-width: 1.2"/>
    <path d="M 151.554731 125.624849 
L 199.475342 139.99297 
" clip-path="url(#p697b468337)" style="fill: none; stroke: #000000; stroke-width: 1.2"/>
    <path d="M 95.832323 228.745705 
L 120.481195 201.02246 
" clip-path="url(#p697b468337)" style="fill: none; stroke: #000000; stroke-width: 1.2"/>
    <path d="M 125.8128 173.11429 
L 120.481195 201.02246 
" clip-path="url(#p697b468337)" style="fill: none; stroke: #000000; stroke-width: 1.2"/>
    <path d="M 85.37807 175.80608 
L 120.481195 201.02246 
" clip-path="url(#p697b468337)" style="fill: none; stroke: #000000; stroke-width: 1.2"/>
    <path d="M 167.364673 153.046941 
L 195.624041 174.947616 
" clip-path="url(#p697b468337)" style="fill: none; stroke: #000000; stroke-width: 1.2"/>
    <path d="M 239.831405 181.474358 
L 195.624041 174.947616 
" clip-path="url(#p697b468337)" style="fill: none; stroke: #000000; stroke-width: 1.2"/>
    <path d="M 199.475342 139.99297 
L 195.624041 174.947616 
" clip-path="url(#p697b468337)" style="fill: none; stroke: #000000; stroke-width: 1.2"/>
    <path d="M 120.481195 201.02246 
L 170.5692 207.908266 
" clip-path="url(#p697b468337)" style="fill: none; stroke: #000000; stroke-width: 1.2"/>
    <path d="M 170.5692 207.908266 
L 195.624041 174.947616 
" clip-path="url(#p697b468337)" style="fill: none; stroke: #000000; stroke-width: 1.2"/>
    <path d="M 170.5692 207.908266 
L 188.261943 237.076364 
" clip-path="url(#p697b468337)" style="fill: none; stroke: #000000; stroke-width: 1.2"/>
   </g>
   <g id="PathCollection_1">
    <defs>
     <path id="C0_0_916827dc70" d="M 0 8.944272 
C 2.372049 8.944272 4.647264 8.001847 6.324555 6.324555 
C 8.001847 4.647264 8.944272 2.372049 8.944272 -0 
C 8.944272 -2.372049 8.001847 -4.647264 6.324555 -6.324555 
C 4.647264 -8.001847 2.372049 -8.944272 0 -8.944272 
C -2.372049 -8.944272 -4.647264 -8.001847 -6.324555 -6.324555 
C -8.001847 -4.647264 -8.944272 -2.372049 -8.944272 0 
C -8.944272 2.372049 -8.001847 4.647264 -6.324555 6.324555 
C -4.647264 8.001847 -2.372049 8.944272 0 8.944272 
z
"/>
    </defs>
    <g clip-path="url(#p697b468337)">
     <use xlink:href="#C0_0_916827dc70" x="74.476465" y="65.471931" style="fill: #4fd14f; stroke: #4fd14f; stroke-width: 0.5"/>
    </g>
    <g clip-path="url(#p697b468337)">
     <use xlink:href="#C0_0_916827dc70" x="62.51924" y="72.910056" style="fill: #4fd14f; stroke: #4fd14f; stroke-width: 0.5"/>
    </g>
    <g clip-path="url(#p697b468337)">
     <use xlink:href="#C0_0_916827dc70" x="100.711759" y="57.744925" style="fill: #4fd14f; stroke: #4fd14f; stroke-width: 0.5"/>
    </g>
    <g clip-path="url(#p697b468337)">
     <use xlink:href="#C0_0_916827dc70" x="116.219284" y="53.803636" style="fill: #4fd14f; stroke: #4fd14f; stroke-width: 0.5"/>
    </g>
    <g clip-path="url(#p697b468337)">
     <use xlink:href="#C0_0_916827dc70" x="138.523827" y="65.113052" style="fill: #4fd14f; stroke: #4fd14f; stroke-width: 0.5"/>
    </g>
    <g clip-path="url(#p697b468337)">
     <use xlink:href="#C0_0_916827dc70" x="87.330957" y="56.329063" style="fill: #4fd14f; stroke: #4fd14f; stroke-width: 0.5"/>
    </g>
    <g clip-path="url(#p697b468337)">
     <use xlink:href="#C0_0_916827dc70" x="72.628508" y="83.207838" style="fill: #4fd14f; stroke: #4fd14f; stroke-width: 0.5"/>
    </g>
    <g clip-path="url(#p697b468337)">
     <use xlink:href="#C0_0_916827dc70" x="55.368595" y="78.619233" style="fill: #4fd14f; stroke: #4fd14f; stroke-width: 0.5"/>
    </g>
    <g clip-path="url(#p697b468337)">
     <use xlink:href="#C0_0_916827dc70" x="107.430653" y="71.892417" style="fill: #4fd14f; stroke: #4fd14f; stroke-width: 0.5"/>
    </g>
    <g clip-path="url(#p697b468337)">
     <use xlink:href="#C0_0_916827dc70" x="122.88796" y="57.792781" style="fill: #4fd14f; stroke: #4fd14f; stroke-width: 0.5"/>
    </g>
    <g clip-path="url(#p697b468337)">
     <use xlink:href="#C0_0_916827dc70" x="140.606353" y="58.047718" style="fill: #4fd14f; stroke: #4fd14f; stroke-width: 0.5"/>
    </g>
    <g clip-path="url(#p697b468337)">
     <use xlink:href="#C0_0_916827dc70" x="90.717027" y="69.478958" style="fill: #4fd14f; stroke: #4fd14f; stroke-width: 0.5"/>
    </g>
    <g clip-path="url(#p697b468337)">
     <use xlink:href="#C0_0_916827dc70" x="72.192518" y="99.129933" style="fill: #4fd14f; stroke: #4fd14f; stroke-width: 0.5"/>
    </g>
    <g clip-path="url(#p697b468337)">
     <use xlink:href="#C0_0_916827dc70" x="114.929612" y="86.613791" style="fill: #4fd14f; stroke: #4fd14f; stroke-width: 0.5"/>
    </g>
    <g clip-path="url(#p697b468337)">
     <use xlink:href="#C0_0_916827dc70" x="89.42278" y="102.160932" style="fill: #4fd14f; stroke: #4fd14f; stroke-width: 0.5"/>
    </g>
    <g clip-path="url(#p697b468337)">
     <use xlink:href="#C0_0_916827dc70" x="146.389924" y="85.077603" style="fill: #4fd14f; stroke: #4fd14f; stroke-width: 0.5"/>
    </g>
    <g clip-path="url(#p697b468337)">
     <use xlink:href="#C0_0_916827dc70" x="96.033316" y="89.491136" style="fill: #4fd14f; stroke: #4fd14f; stroke-width: 0.5"/>
    </g>
    <g clip-path="url(#p697b468337)">
     <use xlink:href="#C0_0_916827dc70" x="130.358877" y="87.328576" style="fill: #4fd14f; stroke: #4fd14f; stroke-width: 0.5"/>
    </g>
    <g clip-path="url(#p697b468337)">
     <use xlink:href="#C0_0_916827dc70" x="70.71844" y="110.725592" style="fill: #4fd14f; stroke: #4fd14f; stroke-width: 0.5"/>
    </g>
    <g clip-path="url(#p697b468337)">
     <use xlink:href="#C0_0_916827dc70" x="120.211729" y="106.212634" style="fill: #4fd14f; stroke: #4fd14f; stroke-width: 0.5"/>
    </g>
    <g clip-path="url(#p697b468337)">
     <use xlink:href="#C0_0_916827dc70" x="86.792988" y="106.979411" style="fill: #4fd14f; stroke: #4fd14f; stroke-width: 0.5"/>
    </g>
    <g clip-path="url(#p697b468337)">
     <use xlink:href="#C0_0_916827dc70" x="152.363648" y="91.728219" style="fill: #4fd14f; stroke: #4fd14f; stroke-width: 0.5"/>
    </g>
    <g clip-path="url(#p697b468337)">
     <use xlink:href="#C0_0_916827dc70" x="108.622924" y="100.826476" style="fill: #4fd14f; stroke: #4fd14f; stroke-width: 0.5"/>
    </g>
    <g clip-path="url(#p697b468337)">
     <use xlink:href="#C0_0_916827dc70" x="133.852893" y="92.158057" style="fill: #4fd14f; stroke: #4fd14f; stroke-width: 0.5"/>
    </g>
    <g clip-path="url(#p697b468337)">
     <use xlink:href="#C0_0_916827dc70" x="76.967868" y="128.296389" style="fill: #4fd14f; stroke: #4fd14f; stroke-width: 0.5"/>
    </g>
    <g clip-path="url(#p697b468337)">
     <use xlink:href="#C0_0_916827dc70" x="97.093522" y="125.524638" style="fill: #4fd14f; stroke: #4fd14f; stroke-width: 0.5"/>
    </g>
    <g clip-path="url(#p697b468337)">
     <use xlink:href="#C0_0_916827dc70" x="131.213115" y="135.879349" style="fill: #4fd14f; stroke: #4fd14f; stroke-width: 0.5"/>
    </g>
    <g clip-path="url(#p697b468337)">
     <use xlink:href="#C0_0_916827dc70" x="160.489345" y="108.471638" style="fill: #4fd14f; stroke: #4fd14f; stroke-width: 0.5"/>
    </g>
    <g clip-path="url(#p697b468337)">
     <use xlink:href="#C0_0_916827dc70" x="141.0538" y="113.181739" style="fill: #4fd14f; stroke: #4fd14f; stroke-width: 0.5"/>
    </g>
    <g clip-path="url(#p697b468337)">
     <use xlink:href="#C0_0_916827dc70" x="122.208477" y="132.787725" style="fill: #4fd14f; stroke: #4fd14f; stroke-width: 0.5"/>
    </g>
    <g clip-path="url(#p697b468337)">
     <use xlink:href="#C0_0_916827dc70" x="86.925446" y="136.739241" style="fill: #4fd14f; stroke: #4fd14f; stroke-width: 0.5"/>
    </g>
    <g clip-path="url(#p697b468337)">
     <use xlink:href="#C0_0_916827dc70" x="101.400487" y="142.865122" style="fill: #4fd14f; stroke: #4fd14f; stroke-width: 0.5"/>
    </g>
    <g clip-path="url(#p697b468337)">
     <use xlink:href="#C0_0_916827dc70" x="128.832091" y="122.820763" style="fill: #4fd14f; stroke: #4fd14f; stroke-width: 0.5"/>
    </g>
    <g clip-path="url(#p697b468337)">
     <use xlink:href="#C0_0_916827dc70" x="161.447414" y="122.690167" style="fill: #4fd14f; stroke: #4fd14f; stroke-width: 0.5"/>
    </g>
    <g clip-path="url(#p697b468337)">
     <use xlink:href="#C0_0_916827dc70" x="151.554731" y="125.624849" style="fill: #4fd14f; stroke: #4fd14f; stroke-width: 0.5"/>
    </g>
    <g clip-path="url(#p697b468337)">
     <use xlink:href="#C0_0_916827dc70" x="111.596428" y="124.684988" style="fill: #4fd14f; stroke: #4fd14f; stroke-width: 0.5"/>
    </g>
    <g clip-path="url(#p697b468337)">
     <use xlink:href="#C0_0_916827dc70" x="95.832323" y="228.745705" style="fill: #bfbfbf; stroke: #bfbfbf; stroke-width: 0.5"/>
    </g>
    <g clip-path="url(#p697b468337)">
     <use xlink:href="#C0_0_916827dc70" x="125.8128" y="173.11429" style="fill: #bfbfbf; stroke: #bfbfbf; stroke-width: 0.5"/>
    </g>
    <g clip-path="url(#p697b468337)">
     <use xlink:href="#C0_0_916827dc70" x="85.37807" y="175.80608" style="fill: #bfbfbf; stroke: #bfbfbf; stroke-width: 0.5"/>
    </g>
    <g clip-path="url(#p697b468337)">
     <use xlink:href="#C0_0_916827dc70" x="167.364673" y="153.046941" style="fill: #bfbfbf; stroke: #bfbfbf; stroke-width: 0.5"/>
    </g>
    <g clip-path="url(#p697b468337)">
     <use xlink:href="#C0_0_916827dc70" x="239.831405" y="181.474358" style="fill: #bfbfbf; stroke: #bfbfbf; stroke-width: 0.5"/>
    </g>
    <g clip-path="url(#p697b468337)">
     <use xlink:href="#C0_0_916827dc70" x="199.475342" y="139.99297" style="fill: #bfbfbf; stroke: #bfbfbf; stroke-width: 0.5"/>
    </g>
    <g clip-path="url(#p697b468337)">
     <use xlink:href="#C0_0_916827dc70" x="120.481195" y="201.02246" style="fill: #666666; stroke: #666666; stroke-width: 0.5"/>
    </g>
    <g clip-path="url(#p697b468337)">
     <use xlink:href="#C0_0_916827dc70" x="170.5692" y="207.908266" style="fill: #666666; stroke: #666666; stroke-width: 0.5"/>
    </g>
    <g clip-path="url(#p697b468337)">
     <use xlink:href="#C0_0_916827dc70" x="195.624041" y="174.947616" style="fill: #666666; stroke: #666666; stroke-width: 0.5"/>
    </g>
    <g clip-path="url(#p697b468337)">
     <use xlink:href="#C0_0_916827dc70" x="188.261943" y="237.076364" style="fill: #ff0d0d; stroke: #ff0d0d; stroke-width: 0.5"/>
    </g>
   </g>
   <g id="text_1">
    <!-- C3H6Ni48O -->
    <g transform="translate(125.523476 -3.937481) scale(0.1 -0.1)">
     <defs>
      <path id="DejaVuSans-43" d="M 4122 4306 
L 4122 3641 
Q 3803 3938 3442 4084 
Q 3081 4231 2675 4231 
Q 1875 4231 1450 3742 
Q 1025 3253 1025 2328 
Q 1025 1406 1450 917 
Q 1875 428 2675 428 
Q 3081 428 3442 575 
Q 3803 722 4122 1019 
L 4122 359 
Q 3791 134 3420 21 
Q 3050 -91 2638 -91 
Q 1578 -91 968 557 
Q 359 1206 359 2328 
Q 359 3453 968 4101 
Q 1578 4750 2638 4750 
Q 3056 4750 3426 4639 
Q 3797 4528 4122 4306 
z
" transform="scale(0.015625)"/>
      <path id="DejaVuSans-33" d="M 2597 2516 
Q 3050 2419 3304 2112 
Q 3559 1806 3559 1356 
Q 3559 666 3084 287 
Q 2609 -91 1734 -91 
Q 1441 -91 1130 -33 
Q 819 25 488 141 
L 488 750 
Q 750 597 1062 519 
Q 1375 441 1716 441 
Q 2309 441 2620 675 
Q 2931 909 2931 1356 
Q 2931 1769 2642 2001 
Q 2353 2234 1838 2234 
L 1294 2234 
L 1294 2753 
L 1863 2753 
Q 2328 2753 2575 2939 
Q 2822 3125 2822 3475 
Q 2822 3834 2567 4026 
Q 2313 4219 1838 4219 
Q 1578 4219 1281 4162 
Q 984 4106 628 3988 
L 628 4550 
Q 988 4650 1302 4700 
Q 1616 4750 1894 4750 
Q 2613 4750 3031 4423 
Q 3450 4097 3450 3541 
Q 3450 3153 3228 2886 
Q 3006 2619 2597 2516 
z
" transform="scale(0.015625)"/>
      <path id="DejaVuSans-48" d="M 628 4666 
L 1259 4666 
L 1259 2753 
L 3553 2753 
L 3553 4666 
L 4184 4666 
L 4184 0 
L 3553 0 
L 3553 2222 
L 1259 2222 
L 1259 0 
L 628 0 
L 628 4666 
z
" transform="scale(0.015625)"/>
      <path id="DejaVuSans-36" d="M 2113 2584 
Q 1688 2584 1439 2293 
Q 1191 2003 1191 1497 
Q 1191 994 1439 701 
Q 1688 409 2113 409 
Q 2538 409 2786 701 
Q 3034 994 3034 1497 
Q 3034 2003 2786 2293 
Q 2538 2584 2113 2584 
z
M 3366 4563 
L 3366 3988 
Q 3128 4100 2886 4159 
Q 2644 4219 2406 4219 
Q 1781 4219 1451 3797 
Q 1122 3375 1075 2522 
Q 1259 2794 1537 2939 
Q 1816 3084 2150 3084 
Q 2853 3084 3261 2657 
Q 3669 2231 3669 1497 
Q 3669 778 3244 343 
Q 2819 -91 2113 -91 
Q 1303 -91 875 529 
Q 447 1150 447 2328 
Q 447 3434 972 4092 
Q 1497 4750 2381 4750 
Q 2619 4750 2861 4703 
Q 3103 4656 3366 4563 
z
" transform="scale(0.015625)"/>
      <path id="DejaVuSans-4e" d="M 628 4666 
L 1478 4666 
L 3547 763 
L 3547 4666 
L 4159 4666 
L 4159 0 
L 3309 0 
L 1241 3903 
L 1241 0 
L 628 0 
L 628 4666 
z
" transform="scale(0.015625)"/>
      <path id="DejaVuSans-69" d="M 603 3500 
L 1178 3500 
L 1178 0 
L 603 0 
L 603 3500 
z
M 603 4863 
L 1178 4863 
L 1178 4134 
L 603 4134 
L 603 4863 
z
" transform="scale(0.015625)"/>
      <path id="DejaVuSans-34" d="M 2419 4116 
L 825 1625 
L 2419 1625 
L 2419 4116 
z
M 2253 4666 
L 3047 4666 
L 3047 1625 
L 3713 1625 
L 3713 1100 
L 3047 1100 
L 3047 0 
L 2419 0 
L 2419 1100 
L 313 1100 
L 313 1709 
L 2253 4666 
z
" transform="scale(0.015625)"/>
      <path id="DejaVuSans-38" d="M 2034 2216 
Q 1584 2216 1326 1975 
Q 1069 1734 1069 1313 
Q 1069 891 1326 650 
Q 1584 409 2034 409 
Q 2484 409 2743 651 
Q 3003 894 3003 1313 
Q 3003 1734 2745 1975 
Q 2488 2216 2034 2216 
z
M 1403 2484 
Q 997 2584 770 2862 
Q 544 3141 544 3541 
Q 544 4100 942 4425 
Q 1341 4750 2034 4750 
Q 2731 4750 3128 4425 
Q 3525 4100 3525 3541 
Q 3525 3141 3298 2862 
Q 3072 2584 2669 2484 
Q 3125 2378 3379 2068 
Q 3634 1759 3634 1313 
Q 3634 634 3220 271 
Q 2806 -91 2034 -91 
Q 1263 -91 848 271 
Q 434 634 434 1313 
Q 434 1759 690 2068 
Q 947 2378 1403 2484 
z
M 1172 3481 
Q 1172 3119 1398 2916 
Q 1625 2713 2034 2713 
Q 2441 2713 2670 2916 
Q 2900 3119 2900 3481 
Q 2900 3844 2670 4047 
Q 2441 4250 2034 4250 
Q 1625 4250 1398 4047 
Q 1172 3844 1172 3481 
z
" transform="scale(0.015625)"/>
      <path id="DejaVuSans-4f" d="M 2522 4238 
Q 1834 4238 1429 3725 
Q 1025 3213 1025 2328 
Q 1025 1447 1429 934 
Q 1834 422 2522 422 
Q 3209 422 3611 934 
Q 4013 1447 4013 2328 
Q 4013 3213 3611 3725 
Q 3209 4238 2522 4238 
z
M 2522 4750 
Q 3503 4750 4090 4092 
Q 4678 3434 4678 2328 
Q 4678 1225 4090 567 
Q 3503 -91 2522 -91 
Q 1538 -91 948 565 
Q 359 1222 359 2328 
Q 359 3434 948 4092 
Q 1538 4750 2522 4750 
z
" transform="scale(0.015625)"/>
     </defs>
     <use xlink:href="#DejaVuSans-43"/>
     <use xlink:href="#DejaVuSans-33" transform="translate(69.824219 0)"/>
     <use xlink:href="#DejaVuSans-48" transform="translate(133.447266 0)"/>
     <use xlink:href="#DejaVuSans-36" transform="translate(208.642578 0)"/>
     <use xlink:href="#DejaVuSans-4e" transform="translate(272.265625 0)"/>
     <use xlink:href="#DejaVuSans-69" transform="translate(347.070312 0)"/>
     <use xlink:href="#DejaVuSans-34" transform="translate(374.853516 0)"/>
     <use xlink:href="#DejaVuSans-38" transform="translate(438.476562 0)"/>
     <use xlink:href="#DejaVuSans-4f" transform="translate(502.099609 0)"/>
    </g>
    <!-- Error: -10.07 eV -->
    <g transform="translate(125.523476 7.260331) scale(0.1 -0.1)">
     <defs>
      <path id="DejaVuSans-45" d="M 628 4666 
L 3578 4666 
L 3578 4134 
L 1259 4134 
L 1259 2753 
L 3481 2753 
L 3481 2222 
L 1259 2222 
L 1259 531 
L 3634 531 
L 3634 0 
L 628 0 
L 628 4666 
z
" transform="scale(0.015625)"/>
      <path id="DejaVuSans-72" d="M 2631 2963 
Q 2534 3019 2420 3045 
Q 2306 3072 2169 3072 
Q 1681 3072 1420 2755 
Q 1159 2438 1159 1844 
L 1159 0 
L 581 0 
L 581 3500 
L 1159 3500 
L 1159 2956 
Q 1341 3275 1631 3429 
Q 1922 3584 2338 3584 
Q 2397 3584 2469 3576 
Q 2541 3569 2628 3553 
L 2631 2963 
z
" transform="scale(0.015625)"/>
      <path id="DejaVuSans-6f" d="M 1959 3097 
Q 1497 3097 1228 2736 
Q 959 2375 959 1747 
Q 959 1119 1226 758 
Q 1494 397 1959 397 
Q 2419 397 2687 759 
Q 2956 1122 2956 1747 
Q 2956 2369 2687 2733 
Q 2419 3097 1959 3097 
z
M 1959 3584 
Q 2709 3584 3137 3096 
Q 3566 2609 3566 1747 
Q 3566 888 3137 398 
Q 2709 -91 1959 -91 
Q 1206 -91 779 398 
Q 353 888 353 1747 
Q 353 2609 779 3096 
Q 1206 3584 1959 3584 
z
" transform="scale(0.015625)"/>
      <path id="DejaVuSans-3a" d="M 750 794 
L 1409 794 
L 1409 0 
L 750 0 
L 750 794 
z
M 750 3309 
L 1409 3309 
L 1409 2516 
L 750 2516 
L 750 3309 
z
" transform="scale(0.015625)"/>
      <path id="DejaVuSans-20" transform="scale(0.015625)"/>
      <path id="DejaVuSans-2d" d="M 313 2009 
L 1997 2009 
L 1997 1497 
L 313 1497 
L 313 2009 
z
" transform="scale(0.015625)"/>
      <path id="DejaVuSans-31" d="M 794 531 
L 1825 531 
L 1825 4091 
L 703 3866 
L 703 4441 
L 1819 4666 
L 2450 4666 
L 2450 531 
L 3481 531 
L 3481 0 
L 794 0 
L 794 531 
z
" transform="scale(0.015625)"/>
      <path id="DejaVuSans-30" d="M 2034 4250 
Q 1547 4250 1301 3770 
Q 1056 3291 1056 2328 
Q 1056 1369 1301 889 
Q 1547 409 2034 409 
Q 2525 409 2770 889 
Q 3016 1369 3016 2328 
Q 3016 3291 2770 3770 
Q 2525 4250 2034 4250 
z
M 2034 4750 
Q 2819 4750 3233 4129 
Q 3647 3509 3647 2328 
Q 3647 1150 3233 529 
Q 2819 -91 2034 -91 
Q 1250 -91 836 529 
Q 422 1150 422 2328 
Q 422 3509 836 4129 
Q 1250 4750 2034 4750 
z
" transform="scale(0.015625)"/>
      <path id="DejaVuSans-2e" d="M 684 794 
L 1344 794 
L 1344 0 
L 684 0 
L 684 794 
z
" transform="scale(0.015625)"/>
      <path id="DejaVuSans-37" d="M 525 4666 
L 3525 4666 
L 3525 4397 
L 1831 0 
L 1172 0 
L 2766 4134 
L 525 4134 
L 525 4666 
z
" transform="scale(0.015625)"/>
      <path id="DejaVuSans-65" d="M 3597 1894 
L 3597 1613 
L 953 1613 
Q 991 1019 1311 708 
Q 1631 397 2203 397 
Q 2534 397 2845 478 
Q 3156 559 3463 722 
L 3463 178 
Q 3153 47 2828 -22 
Q 2503 -91 2169 -91 
Q 1331 -91 842 396 
Q 353 884 353 1716 
Q 353 2575 817 3079 
Q 1281 3584 2069 3584 
Q 2775 3584 3186 3129 
Q 3597 2675 3597 1894 
z
M 3022 2063 
Q 3016 2534 2758 2815 
Q 2500 3097 2075 3097 
Q 1594 3097 1305 2825 
Q 1016 2553 972 2059 
L 3022 2063 
z
" transform="scale(0.015625)"/>
      <path id="DejaVuSans-56" d="M 1831 0 
L 50 4666 
L 709 4666 
L 2188 738 
L 3669 4666 
L 4325 4666 
L 2547 0 
L 1831 0 
z
" transform="scale(0.015625)"/>
     </defs>
     <use xlink:href="#DejaVuSans-45"/>
     <use xlink:href="#DejaVuSans-72" transform="translate(63.183594 0)"/>
     <use xlink:href="#DejaVuSans-72" transform="translate(102.546875 0)"/>
     <use xlink:href="#DejaVuSans-6f" transform="translate(141.410156 0)"/>
     <use xlink:href="#DejaVuSans-72" transform="translate(202.591797 0)"/>
     <use xlink:href="#DejaVuSans-3a" transform="translate(241.955078 0)"/>
     <use xlink:href="#DejaVuSans-20" transform="translate(275.646484 0)"/>
     <use xlink:href="#DejaVuSans-2d" transform="translate(307.433594 0)"/>
     <use xlink:href="#DejaVuSans-31" transform="translate(343.517578 0)"/>
     <use xlink:href="#DejaVuSans-30" transform="translate(407.140625 0)"/>
     <use xlink:href="#DejaVuSans-2e" transform="translate(470.763672 0)"/>
     <use xlink:href="#DejaVuSans-30" transform="translate(502.550781 0)"/>
     <use xlink:href="#DejaVuSans-37" transform="translate(566.173828 0)"/>
     <use xlink:href="#DejaVuSans-20" transform="translate(629.796875 0)"/>
     <use xlink:href="#DejaVuSans-65" transform="translate(661.583984 0)"/>
     <use xlink:href="#DejaVuSans-56" transform="translate(723.107422 0)"/>
    </g>
   </g>
  </g>
 </g>
 <defs>
  <clipPath id="p697b468337">
   <rect x="36" y="34.56" width="223.2" height="221.76"/>
  </clipPath>
 </defs>
</svg>
