<?xml version="1.0" encoding="utf-8" standalone="no"?>
<!DOCTYPE svg PUBLIC "-//W3C//DTD SVG 1.1//EN"
  "http://www.w3.org/Graphics/SVG/1.1/DTD/svg11.dtd">
<svg xmlns:xlink="http://www.w3.org/1999/xlink" width="288pt" height="288pt" viewBox="0 0 288 288" xmlns="http://www.w3.org/2000/svg" version="1.1">
 <metadata>
  <rdf:RDF xmlns:dc="http://purl.org/dc/elements/1.1/" xmlns:cc="http://creativecommons.org/ns#" xmlns:rdf="http://www.w3.org/1999/02/22-rdf-syntax-ns#">
   <cc:Work>
    <dc:type rdf:resource="http://purl.org/dc/dcmitype/StillImage"/>
    <dc:date>2025-06-30T12:05:39.236295</dc:date>
    <dc:format>image/svg+xml</dc:format>
    <dc:creator>
     <cc:Agent>
      <dc:title>Matplotlib v3.10.1, https://matplotlib.org/</dc:title>
     </cc:Agent>
    </dc:creator>
   </cc:Work>
  </rdf:RDF>
 </metadata>
 <defs>
  <style type="text/css">*{stroke-linejoin: round; stroke-linecap: butt}</style>
 </defs>
 <g id="figure_1">
  <g id="patch_1">
   <path d="M 0 288 
L 288 288 
L 288 0 
L 0 0 
z
" style="fill: #ffffff"/>
  </g>
  <g id="axes_1">
   <g id="LineCollection_1">
    <path d="M 122.015716 53.803636 
L 101.172578 81.415986 
" clip-path="url(#pbccbc61867)" style="fill: none; stroke: #000000; stroke-width: 1.2"/>
    <path d="M 122.015716 53.803636 
L 131.735407 77.112941 
" clip-path="url(#pbccbc61867)" style="fill: none; stroke: #000000; stroke-width: 1.2"/>
    <path d="M 122.015716 53.803636 
L 94.486665 55.769471 
" clip-path="url(#pbccbc61867)" style="fill: none; stroke: #000000; stroke-width: 1.2"/>
    <path d="M 122.015716 53.803636 
L 136.687985 80.886836 
" clip-path="url(#pbccbc61867)" style="fill: none; stroke: #000000; stroke-width: 1.2"/>
    <path d="M 122.015716 53.803636 
L 102.761432 63.266584 
" clip-path="url(#pbccbc61867)" style="fill: none; stroke: #000000; stroke-width: 1.2"/>
    <path d="M 122.015716 53.803636 
L 80.969753 72.440212 
" clip-path="url(#pbccbc61867)" style="fill: none; stroke: #000000; stroke-width: 1.2"/>
    <path d="M 122.015716 53.803636 
L 119.0356 90.376253 
" clip-path="url(#pbccbc61867)" style="fill: none; stroke: #000000; stroke-width: 1.2"/>
    <path d="M 122.015716 53.803636 
L 112.456087 65.8274 
" clip-path="url(#pbccbc61867)" style="fill: none; stroke: #000000; stroke-width: 1.2"/>
    <path d="M 112.683578 104.27514 
L 101.172578 81.415986 
" clip-path="url(#pbccbc61867)" style="fill: none; stroke: #000000; stroke-width: 1.2"/>
    <path d="M 112.683578 104.27514 
L 141.869373 100.707717 
" clip-path="url(#pbccbc61867)" style="fill: none; stroke: #000000; stroke-width: 1.2"/>
    <path d="M 112.683578 104.27514 
L 131.735407 77.112941 
" clip-path="url(#pbccbc61867)" style="fill: none; stroke: #000000; stroke-width: 1.2"/>
    <path d="M 112.683578 104.27514 
L 109.112534 81.547894 
" clip-path="url(#pbccbc61867)" style="fill: none; stroke: #000000; stroke-width: 1.2"/>
    <path d="M 112.683578 104.27514 
L 149.494701 101.108432 
" clip-path="url(#pbccbc61867)" style="fill: none; stroke: #000000; stroke-width: 1.2"/>
    <path d="M 112.683578 104.27514 
L 134.047569 113.930234 
" clip-path="url(#pbccbc61867)" style="fill: none; stroke: #000000; stroke-width: 1.2"/>
    <path d="M 112.683578 104.27514 
L 82.983819 129.934349 
" clip-path="url(#pbccbc61867)" style="fill: none; stroke: #000000; stroke-width: 1.2"/>
    <path d="M 112.683578 104.27514 
L 80.868711 116.798715 
" clip-path="url(#pbccbc61867)" style="fill: none; stroke: #000000; stroke-width: 1.2"/>
    <path d="M 112.683578 104.27514 
L 74.139631 94.402474 
" clip-path="url(#pbccbc61867)" style="fill: none; stroke: #000000; stroke-width: 1.2"/>
    <path d="M 112.683578 104.27514 
L 99.67649 119.660743 
" clip-path="url(#pbccbc61867)" style="fill: none; stroke: #000000; stroke-width: 1.2"/>
    <path d="M 101.172578 81.415986 
L 141.869373 100.707717 
" clip-path="url(#pbccbc61867)" style="fill: none; stroke: #000000; stroke-width: 1.2"/>
    <path d="M 101.172578 81.415986 
L 131.735407 77.112941 
" clip-path="url(#pbccbc61867)" style="fill: none; stroke: #000000; stroke-width: 1.2"/>
    <path d="M 101.172578 81.415986 
L 94.486665 55.769471 
" clip-path="url(#pbccbc61867)" style="fill: none; stroke: #000000; stroke-width: 1.2"/>
    <path d="M 101.172578 81.415986 
L 120.189723 110.249714 
" clip-path="url(#pbccbc61867)" style="fill: none; stroke: #000000; stroke-width: 1.2"/>
    <path d="M 101.172578 81.415986 
L 136.687985 80.886836 
" clip-path="url(#pbccbc61867)" style="fill: none; stroke: #000000; stroke-width: 1.2"/>
    <path d="M 101.172578 81.415986 
L 119.0356 90.376253 
" clip-path="url(#pbccbc61867)" style="fill: none; stroke: #000000; stroke-width: 1.2"/>
    <path d="M 101.172578 81.415986 
L 67.430381 106.610077 
" clip-path="url(#pbccbc61867)" style="fill: none; stroke: #000000; stroke-width: 1.2"/>
    <path d="M 101.172578 81.415986 
L 80.868711 116.798715 
" clip-path="url(#pbccbc61867)" style="fill: none; stroke: #000000; stroke-width: 1.2"/>
    <path d="M 101.172578 81.415986 
L 74.139631 94.402474 
" clip-path="url(#pbccbc61867)" style="fill: none; stroke: #000000; stroke-width: 1.2"/>
    <path d="M 101.172578 81.415986 
L 83.832764 91.868311 
" clip-path="url(#pbccbc61867)" style="fill: none; stroke: #000000; stroke-width: 1.2"/>
    <path d="M 141.869373 100.707717 
L 131.735407 77.112941 
" clip-path="url(#pbccbc61867)" style="fill: none; stroke: #000000; stroke-width: 1.2"/>
    <path d="M 141.869373 100.707717 
L 120.189723 110.249714 
" clip-path="url(#pbccbc61867)" style="fill: none; stroke: #000000; stroke-width: 1.2"/>
    <path d="M 141.869373 100.707717 
L 136.687985 80.886836 
" clip-path="url(#pbccbc61867)" style="fill: none; stroke: #000000; stroke-width: 1.2"/>
    <path d="M 141.869373 100.707717 
L 134.047569 113.930234 
" clip-path="url(#pbccbc61867)" style="fill: none; stroke: #000000; stroke-width: 1.2"/>
    <path d="M 141.869373 100.707717 
L 119.0356 90.376253 
" clip-path="url(#pbccbc61867)" style="fill: none; stroke: #000000; stroke-width: 1.2"/>
    <path d="M 141.869373 100.707717 
L 107.903241 126.144645 
" clip-path="url(#pbccbc61867)" style="fill: none; stroke: #000000; stroke-width: 1.2"/>
    <path d="M 141.869373 100.707717 
L 138.362958 120.363358 
" clip-path="url(#pbccbc61867)" style="fill: none; stroke: #000000; stroke-width: 1.2"/>
    <path d="M 141.869373 100.707717 
L 80.868711 116.798715 
" clip-path="url(#pbccbc61867)" style="fill: none; stroke: #000000; stroke-width: 1.2"/>
    <path d="M 131.735407 77.112941 
L 127.584772 58.588146 
" clip-path="url(#pbccbc61867)" style="fill: none; stroke: #000000; stroke-width: 1.2"/>
    <path d="M 131.735407 77.112941 
L 109.112534 81.547894 
" clip-path="url(#pbccbc61867)" style="fill: none; stroke: #000000; stroke-width: 1.2"/>
    <path d="M 131.735407 77.112941 
L 149.494701 101.108432 
" clip-path="url(#pbccbc61867)" style="fill: none; stroke: #000000; stroke-width: 1.2"/>
    <path d="M 131.735407 77.112941 
L 102.761432 63.266584 
" clip-path="url(#pbccbc61867)" style="fill: none; stroke: #000000; stroke-width: 1.2"/>
    <path d="M 131.735407 77.112941 
L 134.047569 113.930234 
" clip-path="url(#pbccbc61867)" style="fill: none; stroke: #000000; stroke-width: 1.2"/>
    <path d="M 131.735407 77.112941 
L 119.0356 90.376253 
" clip-path="url(#pbccbc61867)" style="fill: none; stroke: #000000; stroke-width: 1.2"/>
    <path d="M 131.735407 77.112941 
L 96.523636 101.060384 
" clip-path="url(#pbccbc61867)" style="fill: none; stroke: #000000; stroke-width: 1.2"/>
    <path d="M 131.735407 77.112941 
L 128.319345 92.646516 
" clip-path="url(#pbccbc61867)" style="fill: none; stroke: #000000; stroke-width: 1.2"/>
    <path d="M 131.735407 77.112941 
L 74.139631 94.402474 
" clip-path="url(#pbccbc61867)" style="fill: none; stroke: #000000; stroke-width: 1.2"/>
    <path d="M 94.486665 55.769471 
L 127.584772 58.588146 
" clip-path="url(#pbccbc61867)" style="fill: none; stroke: #000000; stroke-width: 1.2"/>
    <path d="M 94.486665 55.769471 
L 109.112534 81.547894 
" clip-path="url(#pbccbc61867)" style="fill: none; stroke: #000000; stroke-width: 1.2"/>
    <path d="M 94.486665 55.769471 
L 136.687985 80.886836 
" clip-path="url(#pbccbc61867)" style="fill: none; stroke: #000000; stroke-width: 1.2"/>
    <path d="M 94.486665 55.769471 
L 112.456087 65.8274 
" clip-path="url(#pbccbc61867)" style="fill: none; stroke: #000000; stroke-width: 1.2"/>
    <path d="M 94.486665 55.769471 
L 63.033883 80.289489 
" clip-path="url(#pbccbc61867)" style="fill: none; stroke: #000000; stroke-width: 1.2"/>
    <path d="M 94.486665 55.769471 
L 71.509021 66.265049 
" clip-path="url(#pbccbc61867)" style="fill: none; stroke: #000000; stroke-width: 1.2"/>
    <path d="M 94.486665 55.769471 
L 83.832764 91.868311 
" clip-path="url(#pbccbc61867)" style="fill: none; stroke: #000000; stroke-width: 1.2"/>
    <path d="M 127.584772 58.588146 
L 109.112534 81.547894 
" clip-path="url(#pbccbc61867)" style="fill: none; stroke: #000000; stroke-width: 1.2"/>
    <path d="M 127.584772 58.588146 
L 136.687985 80.886836 
" clip-path="url(#pbccbc61867)" style="fill: none; stroke: #000000; stroke-width: 1.2"/>
    <path d="M 127.584772 58.588146 
L 102.761432 63.266584 
" clip-path="url(#pbccbc61867)" style="fill: none; stroke: #000000; stroke-width: 1.2"/>
    <path d="M 127.584772 58.588146 
L 112.456087 65.8274 
" clip-path="url(#pbccbc61867)" style="fill: none; stroke: #000000; stroke-width: 1.2"/>
    <path d="M 127.584772 58.588146 
L 88.235491 75.504093 
" clip-path="url(#pbccbc61867)" style="fill: none; stroke: #000000; stroke-width: 1.2"/>
    <path d="M 127.584772 58.588146 
L 128.319345 92.646516 
" clip-path="url(#pbccbc61867)" style="fill: none; stroke: #000000; stroke-width: 1.2"/>
    <path d="M 127.584772 58.588146 
L 71.509021 66.265049 
" clip-path="url(#pbccbc61867)" style="fill: none; stroke: #000000; stroke-width: 1.2"/>
    <path d="M 120.189723 110.249714 
L 109.112534 81.547894 
" clip-path="url(#pbccbc61867)" style="fill: none; stroke: #000000; stroke-width: 1.2"/>
    <path d="M 120.189723 110.249714 
L 149.494701 101.108432 
" clip-path="url(#pbccbc61867)" style="fill: none; stroke: #000000; stroke-width: 1.2"/>
    <path d="M 120.189723 110.249714 
L 136.687985 80.886836 
" clip-path="url(#pbccbc61867)" style="fill: none; stroke: #000000; stroke-width: 1.2"/>
    <path d="M 120.189723 110.249714 
L 138.362958 120.363358 
" clip-path="url(#pbccbc61867)" style="fill: none; stroke: #000000; stroke-width: 1.2"/>
    <path d="M 120.189723 110.249714 
L 80.868711 116.798715 
" clip-path="url(#pbccbc61867)" style="fill: none; stroke: #000000; stroke-width: 1.2"/>
    <path d="M 120.189723 110.249714 
L 91.371032 131.65993 
" clip-path="url(#pbccbc61867)" style="fill: none; stroke: #000000; stroke-width: 1.2"/>
    <path d="M 120.189723 110.249714 
L 99.67649 119.660743 
" clip-path="url(#pbccbc61867)" style="fill: none; stroke: #000000; stroke-width: 1.2"/>
    <path d="M 120.189723 110.249714 
L 83.832764 91.868311 
" clip-path="url(#pbccbc61867)" style="fill: none; stroke: #000000; stroke-width: 1.2"/>
    <path d="M 109.112534 81.547894 
L 149.494701 101.108432 
" clip-path="url(#pbccbc61867)" style="fill: none; stroke: #000000; stroke-width: 1.2"/>
    <path d="M 109.112534 81.547894 
L 136.687985 80.886836 
" clip-path="url(#pbccbc61867)" style="fill: none; stroke: #000000; stroke-width: 1.2"/>
    <path d="M 109.112534 81.547894 
L 128.319345 92.646516 
" clip-path="url(#pbccbc61867)" style="fill: none; stroke: #000000; stroke-width: 1.2"/>
    <path d="M 109.112534 81.547894 
L 74.139631 94.402474 
" clip-path="url(#pbccbc61867)" style="fill: none; stroke: #000000; stroke-width: 1.2"/>
    <path d="M 109.112534 81.547894 
L 71.509021 66.265049 
" clip-path="url(#pbccbc61867)" style="fill: none; stroke: #000000; stroke-width: 1.2"/>
    <path d="M 109.112534 81.547894 
L 79.222961 107.28934 
" clip-path="url(#pbccbc61867)" style="fill: none; stroke: #000000; stroke-width: 1.2"/>
    <path d="M 109.112534 81.547894 
L 99.67649 119.660743 
" clip-path="url(#pbccbc61867)" style="fill: none; stroke: #000000; stroke-width: 1.2"/>
    <path d="M 109.112534 81.547894 
L 83.832764 91.868311 
" clip-path="url(#pbccbc61867)" style="fill: none; stroke: #000000; stroke-width: 1.2"/>
    <path d="M 149.494701 101.108432 
L 136.687985 80.886836 
" clip-path="url(#pbccbc61867)" style="fill: none; stroke: #000000; stroke-width: 1.2"/>
    <path d="M 149.494701 101.108432 
L 134.047569 113.930234 
" clip-path="url(#pbccbc61867)" style="fill: none; stroke: #000000; stroke-width: 1.2"/>
    <path d="M 149.494701 101.108432 
L 138.362958 120.363358 
" clip-path="url(#pbccbc61867)" style="fill: none; stroke: #000000; stroke-width: 1.2"/>
    <path d="M 149.494701 101.108432 
L 128.319345 92.646516 
" clip-path="url(#pbccbc61867)" style="fill: none; stroke: #000000; stroke-width: 1.2"/>
    <path d="M 149.494701 101.108432 
L 121.30835 128.885284 
" clip-path="url(#pbccbc61867)" style="fill: none; stroke: #000000; stroke-width: 1.2"/>
    <path d="M 149.494701 101.108432 
L 99.67649 119.660743 
" clip-path="url(#pbccbc61867)" style="fill: none; stroke: #000000; stroke-width: 1.2"/>
    <path d="M 136.687985 80.886836 
L 119.0356 90.376253 
" clip-path="url(#pbccbc61867)" style="fill: none; stroke: #000000; stroke-width: 1.2"/>
    <path d="M 136.687985 80.886836 
L 112.456087 65.8274 
" clip-path="url(#pbccbc61867)" style="fill: none; stroke: #000000; stroke-width: 1.2"/>
    <path d="M 136.687985 80.886836 
L 138.362958 120.363358 
" clip-path="url(#pbccbc61867)" style="fill: none; stroke: #000000; stroke-width: 1.2"/>
    <path d="M 136.687985 80.886836 
L 128.319345 92.646516 
" clip-path="url(#pbccbc61867)" style="fill: none; stroke: #000000; stroke-width: 1.2"/>
    <path d="M 136.687985 80.886836 
L 103.208538 102.621381 
" clip-path="url(#pbccbc61867)" style="fill: none; stroke: #000000; stroke-width: 1.2"/>
    <path d="M 136.687985 80.886836 
L 83.832764 91.868311 
" clip-path="url(#pbccbc61867)" style="fill: none; stroke: #000000; stroke-width: 1.2"/>
    <path d="M 102.761432 63.266584 
L 80.969753 72.440212 
" clip-path="url(#pbccbc61867)" style="fill: none; stroke: #000000; stroke-width: 1.2"/>
    <path d="M 102.761432 63.266584 
L 119.0356 90.376253 
" clip-path="url(#pbccbc61867)" style="fill: none; stroke: #000000; stroke-width: 1.2"/>
    <path d="M 102.761432 63.266584 
L 96.523636 101.060384 
" clip-path="url(#pbccbc61867)" style="fill: none; stroke: #000000; stroke-width: 1.2"/>
    <path d="M 102.761432 63.266584 
L 88.235491 75.504093 
" clip-path="url(#pbccbc61867)" style="fill: none; stroke: #000000; stroke-width: 1.2"/>
    <path d="M 102.761432 63.266584 
L 128.319345 92.646516 
" clip-path="url(#pbccbc61867)" style="fill: none; stroke: #000000; stroke-width: 1.2"/>
    <path d="M 102.761432 63.266584 
L 55.368595 85.683158 
" clip-path="url(#pbccbc61867)" style="fill: none; stroke: #000000; stroke-width: 1.2"/>
    <path d="M 80.969753 72.440212 
L 119.0356 90.376253 
" clip-path="url(#pbccbc61867)" style="fill: none; stroke: #000000; stroke-width: 1.2"/>
    <path d="M 80.969753 72.440212 
L 96.523636 101.060384 
" clip-path="url(#pbccbc61867)" style="fill: none; stroke: #000000; stroke-width: 1.2"/>
    <path d="M 80.969753 72.440212 
L 112.456087 65.8274 
" clip-path="url(#pbccbc61867)" style="fill: none; stroke: #000000; stroke-width: 1.2"/>
    <path d="M 80.969753 72.440212 
L 103.208538 102.621381 
" clip-path="url(#pbccbc61867)" style="fill: none; stroke: #000000; stroke-width: 1.2"/>
    <path d="M 80.969753 72.440212 
L 55.368595 85.683158 
" clip-path="url(#pbccbc61867)" style="fill: none; stroke: #000000; stroke-width: 1.2"/>
    <path d="M 80.969753 72.440212 
L 67.430381 106.610077 
" clip-path="url(#pbccbc61867)" style="fill: none; stroke: #000000; stroke-width: 1.2"/>
    <path d="M 80.969753 72.440212 
L 63.033883 80.289489 
" clip-path="url(#pbccbc61867)" style="fill: none; stroke: #000000; stroke-width: 1.2"/>
    <path d="M 134.047569 113.930234 
L 119.0356 90.376253 
" clip-path="url(#pbccbc61867)" style="fill: none; stroke: #000000; stroke-width: 1.2"/>
    <path d="M 134.047569 113.930234 
L 107.903241 126.144645 
" clip-path="url(#pbccbc61867)" style="fill: none; stroke: #000000; stroke-width: 1.2"/>
    <path d="M 134.047569 113.930234 
L 96.523636 101.060384 
" clip-path="url(#pbccbc61867)" style="fill: none; stroke: #000000; stroke-width: 1.2"/>
    <path d="M 134.047569 113.930234 
L 128.319345 92.646516 
" clip-path="url(#pbccbc61867)" style="fill: none; stroke: #000000; stroke-width: 1.2"/>
    <path d="M 134.047569 113.930234 
L 121.30835 128.885284 
" clip-path="url(#pbccbc61867)" style="fill: none; stroke: #000000; stroke-width: 1.2"/>
    <path d="M 134.047569 113.930234 
L 82.983819 129.934349 
" clip-path="url(#pbccbc61867)" style="fill: none; stroke: #000000; stroke-width: 1.2"/>
    <path d="M 119.0356 90.376253 
L 107.903241 126.144645 
" clip-path="url(#pbccbc61867)" style="fill: none; stroke: #000000; stroke-width: 1.2"/>
    <path d="M 119.0356 90.376253 
L 96.523636 101.060384 
" clip-path="url(#pbccbc61867)" style="fill: none; stroke: #000000; stroke-width: 1.2"/>
    <path d="M 119.0356 90.376253 
L 112.456087 65.8274 
" clip-path="url(#pbccbc61867)" style="fill: none; stroke: #000000; stroke-width: 1.2"/>
    <path d="M 119.0356 90.376253 
L 138.362958 120.363358 
" clip-path="url(#pbccbc61867)" style="fill: none; stroke: #000000; stroke-width: 1.2"/>
    <path d="M 119.0356 90.376253 
L 103.208538 102.621381 
" clip-path="url(#pbccbc61867)" style="fill: none; stroke: #000000; stroke-width: 1.2"/>
    <path d="M 119.0356 90.376253 
L 67.430381 106.610077 
" clip-path="url(#pbccbc61867)" style="fill: none; stroke: #000000; stroke-width: 1.2"/>
    <path d="M 107.903241 126.144645 
L 96.523636 101.060384 
" clip-path="url(#pbccbc61867)" style="fill: none; stroke: #000000; stroke-width: 1.2"/>
    <path d="M 107.903241 126.144645 
L 138.362958 120.363358 
" clip-path="url(#pbccbc61867)" style="fill: none; stroke: #000000; stroke-width: 1.2"/>
    <path d="M 107.903241 126.144645 
L 103.208538 102.621381 
" clip-path="url(#pbccbc61867)" style="fill: none; stroke: #000000; stroke-width: 1.2"/>
    <path d="M 107.903241 126.144645 
L 82.983819 129.934349 
" clip-path="url(#pbccbc61867)" style="fill: none; stroke: #000000; stroke-width: 1.2"/>
    <path d="M 107.903241 126.144645 
L 67.430381 106.610077 
" clip-path="url(#pbccbc61867)" style="fill: none; stroke: #000000; stroke-width: 1.2"/>
    <path d="M 107.903241 126.144645 
L 80.868711 116.798715 
" clip-path="url(#pbccbc61867)" style="fill: none; stroke: #000000; stroke-width: 1.2"/>
    <path d="M 107.903241 126.144645 
L 91.371032 131.65993 
" clip-path="url(#pbccbc61867)" style="fill: none; stroke: #000000; stroke-width: 1.2"/>
    <path d="M 96.523636 101.060384 
L 88.235491 75.504093 
" clip-path="url(#pbccbc61867)" style="fill: none; stroke: #000000; stroke-width: 1.2"/>
    <path d="M 96.523636 101.060384 
L 128.319345 92.646516 
" clip-path="url(#pbccbc61867)" style="fill: none; stroke: #000000; stroke-width: 1.2"/>
    <path d="M 96.523636 101.060384 
L 121.30835 128.885284 
" clip-path="url(#pbccbc61867)" style="fill: none; stroke: #000000; stroke-width: 1.2"/>
    <path d="M 96.523636 101.060384 
L 55.368595 85.683158 
" clip-path="url(#pbccbc61867)" style="fill: none; stroke: #000000; stroke-width: 1.2"/>
    <path d="M 96.523636 101.060384 
L 82.983819 129.934349 
" clip-path="url(#pbccbc61867)" style="fill: none; stroke: #000000; stroke-width: 1.2"/>
    <path d="M 96.523636 101.060384 
L 67.430381 106.610077 
" clip-path="url(#pbccbc61867)" style="fill: none; stroke: #000000; stroke-width: 1.2"/>
    <path d="M 96.523636 101.060384 
L 74.139631 94.402474 
" clip-path="url(#pbccbc61867)" style="fill: none; stroke: #000000; stroke-width: 1.2"/>
    <path d="M 96.523636 101.060384 
L 79.222961 107.28934 
" clip-path="url(#pbccbc61867)" style="fill: none; stroke: #000000; stroke-width: 1.2"/>
    <path d="M 112.456087 65.8274 
L 88.235491 75.504093 
" clip-path="url(#pbccbc61867)" style="fill: none; stroke: #000000; stroke-width: 1.2"/>
    <path d="M 112.456087 65.8274 
L 128.319345 92.646516 
" clip-path="url(#pbccbc61867)" style="fill: none; stroke: #000000; stroke-width: 1.2"/>
    <path d="M 112.456087 65.8274 
L 103.208538 102.621381 
" clip-path="url(#pbccbc61867)" style="fill: none; stroke: #000000; stroke-width: 1.2"/>
    <path d="M 112.456087 65.8274 
L 63.033883 80.289489 
" clip-path="url(#pbccbc61867)" style="fill: none; stroke: #000000; stroke-width: 1.2"/>
    <path d="M 88.235491 75.504093 
L 128.319345 92.646516 
" clip-path="url(#pbccbc61867)" style="fill: none; stroke: #000000; stroke-width: 1.2"/>
    <path d="M 88.235491 75.504093 
L 103.208538 102.621381 
" clip-path="url(#pbccbc61867)" style="fill: none; stroke: #000000; stroke-width: 1.2"/>
    <path d="M 88.235491 75.504093 
L 55.368595 85.683158 
" clip-path="url(#pbccbc61867)" style="fill: none; stroke: #000000; stroke-width: 1.2"/>
    <path d="M 88.235491 75.504093 
L 63.033883 80.289489 
" clip-path="url(#pbccbc61867)" style="fill: none; stroke: #000000; stroke-width: 1.2"/>
    <path d="M 88.235491 75.504093 
L 71.509021 66.265049 
" clip-path="url(#pbccbc61867)" style="fill: none; stroke: #000000; stroke-width: 1.2"/>
    <path d="M 88.235491 75.504093 
L 79.222961 107.28934 
" clip-path="url(#pbccbc61867)" style="fill: none; stroke: #000000; stroke-width: 1.2"/>
    <path d="M 138.362958 120.363358 
L 128.319345 92.646516 
" clip-path="url(#pbccbc61867)" style="fill: none; stroke: #000000; stroke-width: 1.2"/>
    <path d="M 138.362958 120.363358 
L 121.30835 128.885284 
" clip-path="url(#pbccbc61867)" style="fill: none; stroke: #000000; stroke-width: 1.2"/>
    <path d="M 138.362958 120.363358 
L 103.208538 102.621381 
" clip-path="url(#pbccbc61867)" style="fill: none; stroke: #000000; stroke-width: 1.2"/>
    <path d="M 138.362958 120.363358 
L 91.371032 131.65993 
" clip-path="url(#pbccbc61867)" style="fill: none; stroke: #000000; stroke-width: 1.2"/>
    <path d="M 138.362958 120.363358 
L 140.752218 155.311152 
" clip-path="url(#pbccbc61867)" style="fill: none; stroke: #000000; stroke-width: 1.2"/>
    <path d="M 128.319345 92.646516 
L 121.30835 128.885284 
" clip-path="url(#pbccbc61867)" style="fill: none; stroke: #000000; stroke-width: 1.2"/>
    <path d="M 128.319345 92.646516 
L 103.208538 102.621381 
" clip-path="url(#pbccbc61867)" style="fill: none; stroke: #000000; stroke-width: 1.2"/>
    <path d="M 128.319345 92.646516 
L 79.222961 107.28934 
" clip-path="url(#pbccbc61867)" style="fill: none; stroke: #000000; stroke-width: 1.2"/>
    <path d="M 121.30835 128.885284 
L 103.208538 102.621381 
" clip-path="url(#pbccbc61867)" style="fill: none; stroke: #000000; stroke-width: 1.2"/>
    <path d="M 121.30835 128.885284 
L 82.983819 129.934349 
" clip-path="url(#pbccbc61867)" style="fill: none; stroke: #000000; stroke-width: 1.2"/>
    <path d="M 121.30835 128.885284 
L 91.371032 131.65993 
" clip-path="url(#pbccbc61867)" style="fill: none; stroke: #000000; stroke-width: 1.2"/>
    <path d="M 121.30835 128.885284 
L 79.222961 107.28934 
" clip-path="url(#pbccbc61867)" style="fill: none; stroke: #000000; stroke-width: 1.2"/>
    <path d="M 121.30835 128.885284 
L 99.67649 119.660743 
" clip-path="url(#pbccbc61867)" style="fill: none; stroke: #000000; stroke-width: 1.2"/>
    <path d="M 121.30835 128.885284 
L 160.395072 146.802634 
" clip-path="url(#pbccbc61867)" style="fill: none; stroke: #000000; stroke-width: 1.2"/>
    <path d="M 103.208538 102.621381 
L 67.430381 106.610077 
" clip-path="url(#pbccbc61867)" style="fill: none; stroke: #000000; stroke-width: 1.2"/>
    <path d="M 103.208538 102.621381 
L 63.033883 80.289489 
" clip-path="url(#pbccbc61867)" style="fill: none; stroke: #000000; stroke-width: 1.2"/>
    <path d="M 103.208538 102.621381 
L 91.371032 131.65993 
" clip-path="url(#pbccbc61867)" style="fill: none; stroke: #000000; stroke-width: 1.2"/>
    <path d="M 103.208538 102.621381 
L 79.222961 107.28934 
" clip-path="url(#pbccbc61867)" style="fill: none; stroke: #000000; stroke-width: 1.2"/>
    <path d="M 103.208538 102.621381 
L 83.832764 91.868311 
" clip-path="url(#pbccbc61867)" style="fill: none; stroke: #000000; stroke-width: 1.2"/>
    <path d="M 55.368595 85.683158 
L 67.430381 106.610077 
" clip-path="url(#pbccbc61867)" style="fill: none; stroke: #000000; stroke-width: 1.2"/>
    <path d="M 55.368595 85.683158 
L 74.139631 94.402474 
" clip-path="url(#pbccbc61867)" style="fill: none; stroke: #000000; stroke-width: 1.2"/>
    <path d="M 55.368595 85.683158 
L 71.509021 66.265049 
" clip-path="url(#pbccbc61867)" style="fill: none; stroke: #000000; stroke-width: 1.2"/>
    <path d="M 55.368595 85.683158 
L 79.222961 107.28934 
" clip-path="url(#pbccbc61867)" style="fill: none; stroke: #000000; stroke-width: 1.2"/>
    <path d="M 82.983819 129.934349 
L 67.430381 106.610077 
" clip-path="url(#pbccbc61867)" style="fill: none; stroke: #000000; stroke-width: 1.2"/>
    <path d="M 82.983819 129.934349 
L 80.868711 116.798715 
" clip-path="url(#pbccbc61867)" style="fill: none; stroke: #000000; stroke-width: 1.2"/>
    <path d="M 82.983819 129.934349 
L 74.139631 94.402474 
" clip-path="url(#pbccbc61867)" style="fill: none; stroke: #000000; stroke-width: 1.2"/>
    <path d="M 82.983819 129.934349 
L 79.222961 107.28934 
" clip-path="url(#pbccbc61867)" style="fill: none; stroke: #000000; stroke-width: 1.2"/>
    <path d="M 82.983819 129.934349 
L 99.67649 119.660743 
" clip-path="url(#pbccbc61867)" style="fill: none; stroke: #000000; stroke-width: 1.2"/>
    <path d="M 67.430381 106.610077 
L 80.868711 116.798715 
" clip-path="url(#pbccbc61867)" style="fill: none; stroke: #000000; stroke-width: 1.2"/>
    <path d="M 67.430381 106.610077 
L 74.139631 94.402474 
" clip-path="url(#pbccbc61867)" style="fill: none; stroke: #000000; stroke-width: 1.2"/>
    <path d="M 67.430381 106.610077 
L 63.033883 80.289489 
" clip-path="url(#pbccbc61867)" style="fill: none; stroke: #000000; stroke-width: 1.2"/>
    <path d="M 67.430381 106.610077 
L 91.371032 131.65993 
" clip-path="url(#pbccbc61867)" style="fill: none; stroke: #000000; stroke-width: 1.2"/>
    <path d="M 67.430381 106.610077 
L 83.832764 91.868311 
" clip-path="url(#pbccbc61867)" style="fill: none; stroke: #000000; stroke-width: 1.2"/>
    <path d="M 80.868711 116.798715 
L 74.139631 94.402474 
" clip-path="url(#pbccbc61867)" style="fill: none; stroke: #000000; stroke-width: 1.2"/>
    <path d="M 80.868711 116.798715 
L 91.371032 131.65993 
" clip-path="url(#pbccbc61867)" style="fill: none; stroke: #000000; stroke-width: 1.2"/>
    <path d="M 80.868711 116.798715 
L 83.832764 91.868311 
" clip-path="url(#pbccbc61867)" style="fill: none; stroke: #000000; stroke-width: 1.2"/>
    <path d="M 74.139631 94.402474 
L 71.509021 66.265049 
" clip-path="url(#pbccbc61867)" style="fill: none; stroke: #000000; stroke-width: 1.2"/>
    <path d="M 74.139631 94.402474 
L 79.222961 107.28934 
" clip-path="url(#pbccbc61867)" style="fill: none; stroke: #000000; stroke-width: 1.2"/>
    <path d="M 74.139631 94.402474 
L 99.67649 119.660743 
" clip-path="url(#pbccbc61867)" style="fill: none; stroke: #000000; stroke-width: 1.2"/>
    <path d="M 63.033883 80.289489 
L 71.509021 66.265049 
" clip-path="url(#pbccbc61867)" style="fill: none; stroke: #000000; stroke-width: 1.2"/>
    <path d="M 63.033883 80.289489 
L 79.222961 107.28934 
" clip-path="url(#pbccbc61867)" style="fill: none; stroke: #000000; stroke-width: 1.2"/>
    <path d="M 63.033883 80.289489 
L 83.832764 91.868311 
" clip-path="url(#pbccbc61867)" style="fill: none; stroke: #000000; stroke-width: 1.2"/>
    <path d="M 71.509021 66.265049 
L 79.222961 107.28934 
" clip-path="url(#pbccbc61867)" style="fill: none; stroke: #000000; stroke-width: 1.2"/>
    <path d="M 71.509021 66.265049 
L 83.832764 91.868311 
" clip-path="url(#pbccbc61867)" style="fill: none; stroke: #000000; stroke-width: 1.2"/>
    <path d="M 91.371032 131.65993 
L 79.222961 107.28934 
" clip-path="url(#pbccbc61867)" style="fill: none; stroke: #000000; stroke-width: 1.2"/>
    <path d="M 91.371032 131.65993 
L 99.67649 119.660743 
" clip-path="url(#pbccbc61867)" style="fill: none; stroke: #000000; stroke-width: 1.2"/>
    <path d="M 91.371032 131.65993 
L 83.832764 91.868311 
" clip-path="url(#pbccbc61867)" style="fill: none; stroke: #000000; stroke-width: 1.2"/>
    <path d="M 79.222961 107.28934 
L 99.67649 119.660743 
" clip-path="url(#pbccbc61867)" style="fill: none; stroke: #000000; stroke-width: 1.2"/>
    <path d="M 79.222961 107.28934 
L 83.832764 91.868311 
" clip-path="url(#pbccbc61867)" style="fill: none; stroke: #000000; stroke-width: 1.2"/>
    <path d="M 99.67649 119.660743 
L 83.832764 91.868311 
" clip-path="url(#pbccbc61867)" style="fill: none; stroke: #000000; stroke-width: 1.2"/>
    <path d="M 103.384151 228.424859 
L 137.039881 208.676148 
" clip-path="url(#pbccbc61867)" style="fill: none; stroke: #000000; stroke-width: 1.2"/>
    <path d="M 126.493482 237.076364 
L 137.039881 208.676148 
" clip-path="url(#pbccbc61867)" style="fill: none; stroke: #000000; stroke-width: 1.2"/>
    <path d="M 155.433011 235.084112 
L 137.039881 208.676148 
" clip-path="url(#pbccbc61867)" style="fill: none; stroke: #000000; stroke-width: 1.2"/>
    <path d="M 205.407311 219.199723 
L 198.10549 189.519542 
" clip-path="url(#pbccbc61867)" style="fill: none; stroke: #000000; stroke-width: 1.2"/>
    <path d="M 229.555518 203.649604 
L 198.10549 189.519542 
" clip-path="url(#pbccbc61867)" style="fill: none; stroke: #000000; stroke-width: 1.2"/>
    <path d="M 239.831405 183.174495 
L 198.10549 189.519542 
" clip-path="url(#pbccbc61867)" style="fill: none; stroke: #000000; stroke-width: 1.2"/>
    <path d="M 140.752218 155.311152 
L 158.356304 178.605704 
" clip-path="url(#pbccbc61867)" style="fill: none; stroke: #000000; stroke-width: 1.2"/>
    <path d="M 195.818179 149.079625 
L 160.395072 146.802634 
" clip-path="url(#pbccbc61867)" style="fill: none; stroke: #000000; stroke-width: 1.2"/>
    <path d="M 203.261857 132.415842 
L 160.395072 146.802634 
" clip-path="url(#pbccbc61867)" style="fill: none; stroke: #000000; stroke-width: 1.2"/>
    <path d="M 137.039881 208.676148 
L 158.356304 178.605704 
" clip-path="url(#pbccbc61867)" style="fill: none; stroke: #000000; stroke-width: 1.2"/>
    <path d="M 158.356304 178.605704 
L 198.10549 189.519542 
" clip-path="url(#pbccbc61867)" style="fill: none; stroke: #000000; stroke-width: 1.2"/>
    <path d="M 158.356304 178.605704 
L 160.395072 146.802634 
" clip-path="url(#pbccbc61867)" style="fill: none; stroke: #000000; stroke-width: 1.2"/>
   </g>
   <g id="PathCollection_1">
    <defs>
     <path id="C0_0_0426a82eef" d="M 0 8.944272 
C 2.372049 8.944272 4.647264 8.001847 6.324555 6.324555 
C 8.001847 4.647264 8.944272 2.372049 8.944272 -0 
C 8.944272 -2.372049 8.001847 -4.647264 6.324555 -6.324555 
C 4.647264 -8.001847 2.372049 -8.944272 0 -8.944272 
C -2.372049 -8.944272 -4.647264 -8.001847 -6.324555 -6.324555 
C -8.001847 -4.647264 -8.944272 -2.372049 -8.944272 0 
C -8.944272 2.372049 -8.001847 4.647264 -6.324555 6.324555 
C -4.647264 8.001847 -2.372049 8.944272 0 8.944272 
z
"/>
    </defs>
    <g clip-path="url(#pbccbc61867)">
     <use xlink:href="#C0_0_0426a82eef" x="122.015716" y="53.803636" style="fill: #e06633; stroke: #e06633; stroke-width: 0.5"/>
    </g>
    <g clip-path="url(#pbccbc61867)">
     <use xlink:href="#C0_0_0426a82eef" x="112.683578" y="104.27514" style="fill: #e06633; stroke: #e06633; stroke-width: 0.5"/>
    </g>
    <g clip-path="url(#pbccbc61867)">
     <use xlink:href="#C0_0_0426a82eef" x="101.172578" y="81.415986" style="fill: #e06633; stroke: #e06633; stroke-width: 0.5"/>
    </g>
    <g clip-path="url(#pbccbc61867)">
     <use xlink:href="#C0_0_0426a82eef" x="141.869373" y="100.707717" style="fill: #e06633; stroke: #e06633; stroke-width: 0.5"/>
    </g>
    <g clip-path="url(#pbccbc61867)">
     <use xlink:href="#C0_0_0426a82eef" x="131.735407" y="77.112941" style="fill: #e06633; stroke: #e06633; stroke-width: 0.5"/>
    </g>
    <g clip-path="url(#pbccbc61867)">
     <use xlink:href="#C0_0_0426a82eef" x="94.486665" y="55.769471" style="fill: #e06633; stroke: #e06633; stroke-width: 0.5"/>
    </g>
    <g clip-path="url(#pbccbc61867)">
     <use xlink:href="#C0_0_0426a82eef" x="127.584772" y="58.588146" style="fill: #e06633; stroke: #e06633; stroke-width: 0.5"/>
    </g>
    <g clip-path="url(#pbccbc61867)">
     <use xlink:href="#C0_0_0426a82eef" x="120.189723" y="110.249714" style="fill: #e06633; stroke: #e06633; stroke-width: 0.5"/>
    </g>
    <g clip-path="url(#pbccbc61867)">
     <use xlink:href="#C0_0_0426a82eef" x="109.112534" y="81.547894" style="fill: #e06633; stroke: #e06633; stroke-width: 0.5"/>
    </g>
    <g clip-path="url(#pbccbc61867)">
     <use xlink:href="#C0_0_0426a82eef" x="149.494701" y="101.108432" style="fill: #e06633; stroke: #e06633; stroke-width: 0.5"/>
    </g>
    <g clip-path="url(#pbccbc61867)">
     <use xlink:href="#C0_0_0426a82eef" x="136.687985" y="80.886836" style="fill: #e06633; stroke: #e06633; stroke-width: 0.5"/>
    </g>
    <g clip-path="url(#pbccbc61867)">
     <use xlink:href="#C0_0_0426a82eef" x="102.761432" y="63.266584" style="fill: #e06633; stroke: #e06633; stroke-width: 0.5"/>
    </g>
    <g clip-path="url(#pbccbc61867)">
     <use xlink:href="#C0_0_0426a82eef" x="80.969753" y="72.440212" style="fill: #e06633; stroke: #e06633; stroke-width: 0.5"/>
    </g>
    <g clip-path="url(#pbccbc61867)">
     <use xlink:href="#C0_0_0426a82eef" x="134.047569" y="113.930234" style="fill: #e06633; stroke: #e06633; stroke-width: 0.5"/>
    </g>
    <g clip-path="url(#pbccbc61867)">
     <use xlink:href="#C0_0_0426a82eef" x="119.0356" y="90.376253" style="fill: #e06633; stroke: #e06633; stroke-width: 0.5"/>
    </g>
    <g clip-path="url(#pbccbc61867)">
     <use xlink:href="#C0_0_0426a82eef" x="107.903241" y="126.144645" style="fill: #e06633; stroke: #e06633; stroke-width: 0.5"/>
    </g>
    <g clip-path="url(#pbccbc61867)">
     <use xlink:href="#C0_0_0426a82eef" x="96.523636" y="101.060384" style="fill: #e06633; stroke: #e06633; stroke-width: 0.5"/>
    </g>
    <g clip-path="url(#pbccbc61867)">
     <use xlink:href="#C0_0_0426a82eef" x="112.456087" y="65.8274" style="fill: #e06633; stroke: #e06633; stroke-width: 0.5"/>
    </g>
    <g clip-path="url(#pbccbc61867)">
     <use xlink:href="#C0_0_0426a82eef" x="88.235491" y="75.504093" style="fill: #e06633; stroke: #e06633; stroke-width: 0.5"/>
    </g>
    <g clip-path="url(#pbccbc61867)">
     <use xlink:href="#C0_0_0426a82eef" x="138.362958" y="120.363358" style="fill: #e06633; stroke: #e06633; stroke-width: 0.5"/>
    </g>
    <g clip-path="url(#pbccbc61867)">
     <use xlink:href="#C0_0_0426a82eef" x="128.319345" y="92.646516" style="fill: #e06633; stroke: #e06633; stroke-width: 0.5"/>
    </g>
    <g clip-path="url(#pbccbc61867)">
     <use xlink:href="#C0_0_0426a82eef" x="121.30835" y="128.885284" style="fill: #e06633; stroke: #e06633; stroke-width: 0.5"/>
    </g>
    <g clip-path="url(#pbccbc61867)">
     <use xlink:href="#C0_0_0426a82eef" x="103.208538" y="102.621381" style="fill: #e06633; stroke: #e06633; stroke-width: 0.5"/>
    </g>
    <g clip-path="url(#pbccbc61867)">
     <use xlink:href="#C0_0_0426a82eef" x="55.368595" y="85.683158" style="fill: #e06633; stroke: #e06633; stroke-width: 0.5"/>
    </g>
    <g clip-path="url(#pbccbc61867)">
     <use xlink:href="#C0_0_0426a82eef" x="82.983819" y="129.934349" style="fill: #e06633; stroke: #e06633; stroke-width: 0.5"/>
    </g>
    <g clip-path="url(#pbccbc61867)">
     <use xlink:href="#C0_0_0426a82eef" x="67.430381" y="106.610077" style="fill: #e06633; stroke: #e06633; stroke-width: 0.5"/>
    </g>
    <g clip-path="url(#pbccbc61867)">
     <use xlink:href="#C0_0_0426a82eef" x="80.868711" y="116.798715" style="fill: #e06633; stroke: #e06633; stroke-width: 0.5"/>
    </g>
    <g clip-path="url(#pbccbc61867)">
     <use xlink:href="#C0_0_0426a82eef" x="74.139631" y="94.402474" style="fill: #e06633; stroke: #e06633; stroke-width: 0.5"/>
    </g>
    <g clip-path="url(#pbccbc61867)">
     <use xlink:href="#C0_0_0426a82eef" x="63.033883" y="80.289489" style="fill: #e06633; stroke: #e06633; stroke-width: 0.5"/>
    </g>
    <g clip-path="url(#pbccbc61867)">
     <use xlink:href="#C0_0_0426a82eef" x="71.509021" y="66.265049" style="fill: #e06633; stroke: #e06633; stroke-width: 0.5"/>
    </g>
    <g clip-path="url(#pbccbc61867)">
     <use xlink:href="#C0_0_0426a82eef" x="91.371032" y="131.65993" style="fill: #e06633; stroke: #e06633; stroke-width: 0.5"/>
    </g>
    <g clip-path="url(#pbccbc61867)">
     <use xlink:href="#C0_0_0426a82eef" x="79.222961" y="107.28934" style="fill: #e06633; stroke: #e06633; stroke-width: 0.5"/>
    </g>
    <g clip-path="url(#pbccbc61867)">
     <use xlink:href="#C0_0_0426a82eef" x="99.67649" y="119.660743" style="fill: #e06633; stroke: #e06633; stroke-width: 0.5"/>
    </g>
    <g clip-path="url(#pbccbc61867)">
     <use xlink:href="#C0_0_0426a82eef" x="83.832764" y="91.868311" style="fill: #e06633; stroke: #e06633; stroke-width: 0.5"/>
    </g>
    <g clip-path="url(#pbccbc61867)">
     <use xlink:href="#C0_0_0426a82eef" x="103.384151" y="228.424859" style="fill: #bfbfbf; stroke: #bfbfbf; stroke-width: 0.5"/>
    </g>
    <g clip-path="url(#pbccbc61867)">
     <use xlink:href="#C0_0_0426a82eef" x="126.493482" y="237.076364" style="fill: #bfbfbf; stroke: #bfbfbf; stroke-width: 0.5"/>
    </g>
    <g clip-path="url(#pbccbc61867)">
     <use xlink:href="#C0_0_0426a82eef" x="155.433011" y="235.084112" style="fill: #bfbfbf; stroke: #bfbfbf; stroke-width: 0.5"/>
    </g>
    <g clip-path="url(#pbccbc61867)">
     <use xlink:href="#C0_0_0426a82eef" x="205.407311" y="219.199723" style="fill: #bfbfbf; stroke: #bfbfbf; stroke-width: 0.5"/>
    </g>
    <g clip-path="url(#pbccbc61867)">
     <use xlink:href="#C0_0_0426a82eef" x="229.555518" y="203.649604" style="fill: #bfbfbf; stroke: #bfbfbf; stroke-width: 0.5"/>
    </g>
    <g clip-path="url(#pbccbc61867)">
     <use xlink:href="#C0_0_0426a82eef" x="239.831405" y="183.174495" style="fill: #bfbfbf; stroke: #bfbfbf; stroke-width: 0.5"/>
    </g>
    <g clip-path="url(#pbccbc61867)">
     <use xlink:href="#C0_0_0426a82eef" x="140.752218" y="155.311152" style="fill: #bfbfbf; stroke: #bfbfbf; stroke-width: 0.5"/>
    </g>
    <g clip-path="url(#pbccbc61867)">
     <use xlink:href="#C0_0_0426a82eef" x="195.818179" y="149.079625" style="fill: #bfbfbf; stroke: #bfbfbf; stroke-width: 0.5"/>
    </g>
    <g clip-path="url(#pbccbc61867)">
     <use xlink:href="#C0_0_0426a82eef" x="203.261857" y="132.415842" style="fill: #bfbfbf; stroke: #bfbfbf; stroke-width: 0.5"/>
    </g>
    <g clip-path="url(#pbccbc61867)">
     <use xlink:href="#C0_0_0426a82eef" x="137.039881" y="208.676148" style="fill: #666666; stroke: #666666; stroke-width: 0.5"/>
    </g>
    <g clip-path="url(#pbccbc61867)">
     <use xlink:href="#C0_0_0426a82eef" x="158.356304" y="178.605704" style="fill: #666666; stroke: #666666; stroke-width: 0.5"/>
    </g>
    <g clip-path="url(#pbccbc61867)">
     <use xlink:href="#C0_0_0426a82eef" x="198.10549" y="189.519542" style="fill: #666666; stroke: #666666; stroke-width: 0.5"/>
    </g>
    <g clip-path="url(#pbccbc61867)">
     <use xlink:href="#C0_0_0426a82eef" x="160.395072" y="146.802634" style="fill: #0d0dff; stroke: #0d0dff; stroke-width: 0.5"/>
    </g>
   </g>
   <g id="text_1">
    <!-- C3H9Fe48N -->
    <g transform="translate(127.329918 4.080822) scale(0.1 -0.1)">
     <defs>
      <path id="DejaVuSans-43" d="M 4122 4306 
L 4122 3641 
Q 3803 3938 3442 4084 
Q 3081 4231 2675 4231 
Q 1875 4231 1450 3742 
Q 1025 3253 1025 2328 
Q 1025 1406 1450 917 
Q 1875 428 2675 428 
Q 3081 428 3442 575 
Q 3803 722 4122 1019 
L 4122 359 
Q 3791 134 3420 21 
Q 3050 -91 2638 -91 
Q 1578 -91 968 557 
Q 359 1206 359 2328 
Q 359 3453 968 4101 
Q 1578 4750 2638 4750 
Q 3056 4750 3426 4639 
Q 3797 4528 4122 4306 
z
" transform="scale(0.015625)"/>
      <path id="DejaVuSans-33" d="M 2597 2516 
Q 3050 2419 3304 2112 
Q 3559 1806 3559 1356 
Q 3559 666 3084 287 
Q 2609 -91 1734 -91 
Q 1441 -91 1130 -33 
Q 819 25 488 141 
L 488 750 
Q 750 597 1062 519 
Q 1375 441 1716 441 
Q 2309 441 2620 675 
Q 2931 909 2931 1356 
Q 2931 1769 2642 2001 
Q 2353 2234 1838 2234 
L 1294 2234 
L 1294 2753 
L 1863 2753 
Q 2328 2753 2575 2939 
Q 2822 3125 2822 3475 
Q 2822 3834 2567 4026 
Q 2313 4219 1838 4219 
Q 1578 4219 1281 4162 
Q 984 4106 628 3988 
L 628 4550 
Q 988 4650 1302 4700 
Q 1616 4750 1894 4750 
Q 2613 4750 3031 4423 
Q 3450 4097 3450 3541 
Q 3450 3153 3228 2886 
Q 3006 2619 2597 2516 
z
" transform="scale(0.015625)"/>
      <path id="DejaVuSans-48" d="M 628 4666 
L 1259 4666 
L 1259 2753 
L 3553 2753 
L 3553 4666 
L 4184 4666 
L 4184 0 
L 3553 0 
L 3553 2222 
L 1259 2222 
L 1259 0 
L 628 0 
L 628 4666 
z
" transform="scale(0.015625)"/>
      <path id="DejaVuSans-39" d="M 703 97 
L 703 672 
Q 941 559 1184 500 
Q 1428 441 1663 441 
Q 2288 441 2617 861 
Q 2947 1281 2994 2138 
Q 2813 1869 2534 1725 
Q 2256 1581 1919 1581 
Q 1219 1581 811 2004 
Q 403 2428 403 3163 
Q 403 3881 828 4315 
Q 1253 4750 1959 4750 
Q 2769 4750 3195 4129 
Q 3622 3509 3622 2328 
Q 3622 1225 3098 567 
Q 2575 -91 1691 -91 
Q 1453 -91 1209 -44 
Q 966 3 703 97 
z
M 1959 2075 
Q 2384 2075 2632 2365 
Q 2881 2656 2881 3163 
Q 2881 3666 2632 3958 
Q 2384 4250 1959 4250 
Q 1534 4250 1286 3958 
Q 1038 3666 1038 3163 
Q 1038 2656 1286 2365 
Q 1534 2075 1959 2075 
z
" transform="scale(0.015625)"/>
      <path id="DejaVuSans-46" d="M 628 4666 
L 3309 4666 
L 3309 4134 
L 1259 4134 
L 1259 2759 
L 3109 2759 
L 3109 2228 
L 1259 2228 
L 1259 0 
L 628 0 
L 628 4666 
z
" transform="scale(0.015625)"/>
      <path id="DejaVuSans-65" d="M 3597 1894 
L 3597 1613 
L 953 1613 
Q 991 1019 1311 708 
Q 1631 397 2203 397 
Q 2534 397 2845 478 
Q 3156 559 3463 722 
L 3463 178 
Q 3153 47 2828 -22 
Q 2503 -91 2169 -91 
Q 1331 -91 842 396 
Q 353 884 353 1716 
Q 353 2575 817 3079 
Q 1281 3584 2069 3584 
Q 2775 3584 3186 3129 
Q 3597 2675 3597 1894 
z
M 3022 2063 
Q 3016 2534 2758 2815 
Q 2500 3097 2075 3097 
Q 1594 3097 1305 2825 
Q 1016 2553 972 2059 
L 3022 2063 
z
" transform="scale(0.015625)"/>
      <path id="DejaVuSans-34" d="M 2419 4116 
L 825 1625 
L 2419 1625 
L 2419 4116 
z
M 2253 4666 
L 3047 4666 
L 3047 1625 
L 3713 1625 
L 3713 1100 
L 3047 1100 
L 3047 0 
L 2419 0 
L 2419 1100 
L 313 1100 
L 313 1709 
L 2253 4666 
z
" transform="scale(0.015625)"/>
      <path id="DejaVuSans-38" d="M 2034 2216 
Q 1584 2216 1326 1975 
Q 1069 1734 1069 1313 
Q 1069 891 1326 650 
Q 1584 409 2034 409 
Q 2484 409 2743 651 
Q 3003 894 3003 1313 
Q 3003 1734 2745 1975 
Q 2488 2216 2034 2216 
z
M 1403 2484 
Q 997 2584 770 2862 
Q 544 3141 544 3541 
Q 544 4100 942 4425 
Q 1341 4750 2034 4750 
Q 2731 4750 3128 4425 
Q 3525 4100 3525 3541 
Q 3525 3141 3298 2862 
Q 3072 2584 2669 2484 
Q 3125 2378 3379 2068 
Q 3634 1759 3634 1313 
Q 3634 634 3220 271 
Q 2806 -91 2034 -91 
Q 1263 -91 848 271 
Q 434 634 434 1313 
Q 434 1759 690 2068 
Q 947 2378 1403 2484 
z
M 1172 3481 
Q 1172 3119 1398 2916 
Q 1625 2713 2034 2713 
Q 2441 2713 2670 2916 
Q 2900 3119 2900 3481 
Q 2900 3844 2670 4047 
Q 2441 4250 2034 4250 
Q 1625 4250 1398 4047 
Q 1172 3844 1172 3481 
z
" transform="scale(0.015625)"/>
      <path id="DejaVuSans-4e" d="M 628 4666 
L 1478 4666 
L 3547 763 
L 3547 4666 
L 4159 4666 
L 4159 0 
L 3309 0 
L 1241 3903 
L 1241 0 
L 628 0 
L 628 4666 
z
" transform="scale(0.015625)"/>
     </defs>
     <use xlink:href="#DejaVuSans-43"/>
     <use xlink:href="#DejaVuSans-33" transform="translate(69.824219 0)"/>
     <use xlink:href="#DejaVuSans-48" transform="translate(133.447266 0)"/>
     <use xlink:href="#DejaVuSans-39" transform="translate(208.642578 0)"/>
     <use xlink:href="#DejaVuSans-46" transform="translate(272.265625 0)"/>
     <use xlink:href="#DejaVuSans-65" transform="translate(324.285156 0)"/>
     <use xlink:href="#DejaVuSans-34" transform="translate(385.808594 0)"/>
     <use xlink:href="#DejaVuSans-38" transform="translate(449.431641 0)"/>
     <use xlink:href="#DejaVuSans-4e" transform="translate(513.054688 0)"/>
    </g>
    <!-- Error: -8.32 eV -->
    <g transform="translate(127.329918 15.278635) scale(0.1 -0.1)">
     <defs>
      <path id="DejaVuSans-45" d="M 628 4666 
L 3578 4666 
L 3578 4134 
L 1259 4134 
L 1259 2753 
L 3481 2753 
L 3481 2222 
L 1259 2222 
L 1259 531 
L 3634 531 
L 3634 0 
L 628 0 
L 628 4666 
z
" transform="scale(0.015625)"/>
      <path id="DejaVuSans-72" d="M 2631 2963 
Q 2534 3019 2420 3045 
Q 2306 3072 2169 3072 
Q 1681 3072 1420 2755 
Q 1159 2438 1159 1844 
L 1159 0 
L 581 0 
L 581 3500 
L 1159 3500 
L 1159 2956 
Q 1341 3275 1631 3429 
Q 1922 3584 2338 3584 
Q 2397 3584 2469 3576 
Q 2541 3569 2628 3553 
L 2631 2963 
z
" transform="scale(0.015625)"/>
      <path id="DejaVuSans-6f" d="M 1959 3097 
Q 1497 3097 1228 2736 
Q 959 2375 959 1747 
Q 959 1119 1226 758 
Q 1494 397 1959 397 
Q 2419 397 2687 759 
Q 2956 1122 2956 1747 
Q 2956 2369 2687 2733 
Q 2419 3097 1959 3097 
z
M 1959 3584 
Q 2709 3584 3137 3096 
Q 3566 2609 3566 1747 
Q 3566 888 3137 398 
Q 2709 -91 1959 -91 
Q 1206 -91 779 398 
Q 353 888 353 1747 
Q 353 2609 779 3096 
Q 1206 3584 1959 3584 
z
" transform="scale(0.015625)"/>
      <path id="DejaVuSans-3a" d="M 750 794 
L 1409 794 
L 1409 0 
L 750 0 
L 750 794 
z
M 750 3309 
L 1409 3309 
L 1409 2516 
L 750 2516 
L 750 3309 
z
" transform="scale(0.015625)"/>
      <path id="DejaVuSans-20" transform="scale(0.015625)"/>
      <path id="DejaVuSans-2d" d="M 313 2009 
L 1997 2009 
L 1997 1497 
L 313 1497 
L 313 2009 
z
" transform="scale(0.015625)"/>
      <path id="DejaVuSans-2e" d="M 684 794 
L 1344 794 
L 1344 0 
L 684 0 
L 684 794 
z
" transform="scale(0.015625)"/>
      <path id="DejaVuSans-32" d="M 1228 531 
L 3431 531 
L 3431 0 
L 469 0 
L 469 531 
Q 828 903 1448 1529 
Q 2069 2156 2228 2338 
Q 2531 2678 2651 2914 
Q 2772 3150 2772 3378 
Q 2772 3750 2511 3984 
Q 2250 4219 1831 4219 
Q 1534 4219 1204 4116 
Q 875 4013 500 3803 
L 500 4441 
Q 881 4594 1212 4672 
Q 1544 4750 1819 4750 
Q 2544 4750 2975 4387 
Q 3406 4025 3406 3419 
Q 3406 3131 3298 2873 
Q 3191 2616 2906 2266 
Q 2828 2175 2409 1742 
Q 1991 1309 1228 531 
z
" transform="scale(0.015625)"/>
      <path id="DejaVuSans-56" d="M 1831 0 
L 50 4666 
L 709 4666 
L 2188 738 
L 3669 4666 
L 4325 4666 
L 2547 0 
L 1831 0 
z
" transform="scale(0.015625)"/>
     </defs>
     <use xlink:href="#DejaVuSans-45"/>
     <use xlink:href="#DejaVuSans-72" transform="translate(63.183594 0)"/>
     <use xlink:href="#DejaVuSans-72" transform="translate(102.546875 0)"/>
     <use xlink:href="#DejaVuSans-6f" transform="translate(141.410156 0)"/>
     <use xlink:href="#DejaVuSans-72" transform="translate(202.591797 0)"/>
     <use xlink:href="#DejaVuSans-3a" transform="translate(241.955078 0)"/>
     <use xlink:href="#DejaVuSans-20" transform="translate(275.646484 0)"/>
     <use xlink:href="#DejaVuSans-2d" transform="translate(307.433594 0)"/>
     <use xlink:href="#DejaVuSans-38" transform="translate(343.517578 0)"/>
     <use xlink:href="#DejaVuSans-2e" transform="translate(407.140625 0)"/>
     <use xlink:href="#DejaVuSans-33" transform="translate(438.927734 0)"/>
     <use xlink:href="#DejaVuSans-32" transform="translate(502.550781 0)"/>
     <use xlink:href="#DejaVuSans-20" transform="translate(566.173828 0)"/>
     <use xlink:href="#DejaVuSans-65" transform="translate(597.960938 0)"/>
     <use xlink:href="#DejaVuSans-56" transform="translate(659.484375 0)"/>
    </g>
   </g>
  </g>
 </g>
 <defs>
  <clipPath id="pbccbc61867">
   <rect x="36" y="34.56" width="223.2" height="221.76"/>
  </clipPath>
 </defs>
</svg>
