<?xml version="1.0" encoding="utf-8" standalone="no"?>
<!DOCTYPE svg PUBLIC "-//W3C//DTD SVG 1.1//EN"
  "http://www.w3.org/Graphics/SVG/1.1/DTD/svg11.dtd">
<svg xmlns:xlink="http://www.w3.org/1999/xlink" width="288pt" height="288pt" viewBox="0 0 288 288" xmlns="http://www.w3.org/2000/svg" version="1.1">
 <metadata>
  <rdf:RDF xmlns:dc="http://purl.org/dc/elements/1.1/" xmlns:cc="http://creativecommons.org/ns#" xmlns:rdf="http://www.w3.org/1999/02/22-rdf-syntax-ns#">
   <cc:Work>
    <dc:type rdf:resource="http://purl.org/dc/dcmitype/StillImage"/>
    <dc:date>2025-06-30T12:05:33.843029</dc:date>
    <dc:format>image/svg+xml</dc:format>
    <dc:creator>
     <cc:Agent>
      <dc:title>Matplotlib v3.10.1, https://matplotlib.org/</dc:title>
     </cc:Agent>
    </dc:creator>
   </cc:Work>
  </rdf:RDF>
 </metadata>
 <defs>
  <style type="text/css">*{stroke-linejoin: round; stroke-linecap: butt}</style>
 </defs>
 <g id="figure_1">
  <g id="patch_1">
   <path d="M 0 288 
L 288 288 
L 288 0 
L 0 0 
z
" style="fill: #ffffff"/>
  </g>
  <g id="axes_1">
   <g id="LineCollection_1">
    <path d="M 86.786308 71.474917 
L 68.100949 60.721129 
" clip-path="url(#p65ec92ecc3)" style="fill: none; stroke: #000000; stroke-width: 1.2"/>
    <path d="M 86.786308 71.474917 
L 125.33096 53.803636 
" clip-path="url(#p65ec92ecc3)" style="fill: none; stroke: #000000; stroke-width: 1.2"/>
    <path d="M 86.786308 71.474917 
L 108.612101 55.932299 
" clip-path="url(#p65ec92ecc3)" style="fill: none; stroke: #000000; stroke-width: 1.2"/>
    <path d="M 86.786308 71.474917 
L 63.160511 72.158113 
" clip-path="url(#p65ec92ecc3)" style="fill: none; stroke: #000000; stroke-width: 1.2"/>
    <path d="M 86.786308 71.474917 
L 125.657558 79.083189 
" clip-path="url(#p65ec92ecc3)" style="fill: none; stroke: #000000; stroke-width: 1.2"/>
    <path d="M 86.786308 71.474917 
L 167.456179 78.999884 
" clip-path="url(#p65ec92ecc3)" style="fill: none; stroke: #000000; stroke-width: 1.2"/>
    <path d="M 86.786308 71.474917 
L 63.83407 102.160592 
" clip-path="url(#p65ec92ecc3)" style="fill: none; stroke: #000000; stroke-width: 1.2"/>
    <path d="M 86.786308 71.474917 
L 120.096757 106.388331 
" clip-path="url(#p65ec92ecc3)" style="fill: none; stroke: #000000; stroke-width: 1.2"/>
    <path d="M 86.786308 71.474917 
L 83.435423 119.257459 
" clip-path="url(#p65ec92ecc3)" style="fill: none; stroke: #000000; stroke-width: 1.2"/>
    <path d="M 68.100949 60.721129 
L 125.33096 53.803636 
" clip-path="url(#p65ec92ecc3)" style="fill: none; stroke: #000000; stroke-width: 1.2"/>
    <path d="M 68.100949 60.721129 
L 108.612101 55.932299 
" clip-path="url(#p65ec92ecc3)" style="fill: none; stroke: #000000; stroke-width: 1.2"/>
    <path d="M 68.100949 60.721129 
L 90.428109 58.70117 
" clip-path="url(#p65ec92ecc3)" style="fill: none; stroke: #000000; stroke-width: 1.2"/>
    <path d="M 68.100949 60.721129 
L 145.430339 71.851132 
" clip-path="url(#p65ec92ecc3)" style="fill: none; stroke: #000000; stroke-width: 1.2"/>
    <path d="M 68.100949 60.721129 
L 108.267415 66.677346 
" clip-path="url(#p65ec92ecc3)" style="fill: none; stroke: #000000; stroke-width: 1.2"/>
    <path d="M 68.100949 60.721129 
L 63.83407 102.160592 
" clip-path="url(#p65ec92ecc3)" style="fill: none; stroke: #000000; stroke-width: 1.2"/>
    <path d="M 68.100949 60.721129 
L 83.999741 95.681809 
" clip-path="url(#p65ec92ecc3)" style="fill: none; stroke: #000000; stroke-width: 1.2"/>
    <path d="M 68.100949 60.721129 
L 100.823687 112.279979 
" clip-path="url(#p65ec92ecc3)" style="fill: none; stroke: #000000; stroke-width: 1.2"/>
    <path d="M 125.33096 53.803636 
L 144.329294 55.839005 
" clip-path="url(#p65ec92ecc3)" style="fill: none; stroke: #000000; stroke-width: 1.2"/>
    <path d="M 125.33096 53.803636 
L 165.16068 68.998529 
" clip-path="url(#p65ec92ecc3)" style="fill: none; stroke: #000000; stroke-width: 1.2"/>
    <path d="M 125.33096 53.803636 
L 90.428109 58.70117 
" clip-path="url(#p65ec92ecc3)" style="fill: none; stroke: #000000; stroke-width: 1.2"/>
    <path d="M 125.33096 53.803636 
L 167.456179 78.999884 
" clip-path="url(#p65ec92ecc3)" style="fill: none; stroke: #000000; stroke-width: 1.2"/>
    <path d="M 125.33096 53.803636 
L 120.096757 106.388331 
" clip-path="url(#p65ec92ecc3)" style="fill: none; stroke: #000000; stroke-width: 1.2"/>
    <path d="M 125.33096 53.803636 
L 83.999741 95.681809 
" clip-path="url(#p65ec92ecc3)" style="fill: none; stroke: #000000; stroke-width: 1.2"/>
    <path d="M 125.33096 53.803636 
L 159.781565 99.760655 
" clip-path="url(#p65ec92ecc3)" style="fill: none; stroke: #000000; stroke-width: 1.2"/>
    <path d="M 144.329294 55.839005 
L 165.16068 68.998529 
" clip-path="url(#p65ec92ecc3)" style="fill: none; stroke: #000000; stroke-width: 1.2"/>
    <path d="M 144.329294 55.839005 
L 108.612101 55.932299 
" clip-path="url(#p65ec92ecc3)" style="fill: none; stroke: #000000; stroke-width: 1.2"/>
    <path d="M 144.329294 55.839005 
L 63.160511 72.158113 
" clip-path="url(#p65ec92ecc3)" style="fill: none; stroke: #000000; stroke-width: 1.2"/>
    <path d="M 144.329294 55.839005 
L 167.456179 78.999884 
" clip-path="url(#p65ec92ecc3)" style="fill: none; stroke: #000000; stroke-width: 1.2"/>
    <path d="M 144.329294 55.839005 
L 108.267415 66.677346 
" clip-path="url(#p65ec92ecc3)" style="fill: none; stroke: #000000; stroke-width: 1.2"/>
    <path d="M 144.329294 55.839005 
L 159.781565 99.760655 
" clip-path="url(#p65ec92ecc3)" style="fill: none; stroke: #000000; stroke-width: 1.2"/>
    <path d="M 144.329294 55.839005 
L 101.805621 98.029678 
" clip-path="url(#p65ec92ecc3)" style="fill: none; stroke: #000000; stroke-width: 1.2"/>
    <path d="M 144.329294 55.839005 
L 140.112757 103.598533 
" clip-path="url(#p65ec92ecc3)" style="fill: none; stroke: #000000; stroke-width: 1.2"/>
    <path d="M 165.16068 68.998529 
L 108.612101 55.932299 
" clip-path="url(#p65ec92ecc3)" style="fill: none; stroke: #000000; stroke-width: 1.2"/>
    <path d="M 165.16068 68.998529 
L 90.428109 58.70117 
" clip-path="url(#p65ec92ecc3)" style="fill: none; stroke: #000000; stroke-width: 1.2"/>
    <path d="M 165.16068 68.998529 
L 125.657558 79.083189 
" clip-path="url(#p65ec92ecc3)" style="fill: none; stroke: #000000; stroke-width: 1.2"/>
    <path d="M 165.16068 68.998529 
L 145.430339 71.851132 
" clip-path="url(#p65ec92ecc3)" style="fill: none; stroke: #000000; stroke-width: 1.2"/>
    <path d="M 165.16068 68.998529 
L 159.781565 99.760655 
" clip-path="url(#p65ec92ecc3)" style="fill: none; stroke: #000000; stroke-width: 1.2"/>
    <path d="M 165.16068 68.998529 
L 143.744179 112.583078 
" clip-path="url(#p65ec92ecc3)" style="fill: none; stroke: #000000; stroke-width: 1.2"/>
    <path d="M 165.16068 68.998529 
L 122.959249 118.140897 
" clip-path="url(#p65ec92ecc3)" style="fill: none; stroke: #000000; stroke-width: 1.2"/>
    <path d="M 108.612101 55.932299 
L 63.160511 72.158113 
" clip-path="url(#p65ec92ecc3)" style="fill: none; stroke: #000000; stroke-width: 1.2"/>
    <path d="M 108.612101 55.932299 
L 145.430339 71.851132 
" clip-path="url(#p65ec92ecc3)" style="fill: none; stroke: #000000; stroke-width: 1.2"/>
    <path d="M 108.612101 55.932299 
L 63.83407 102.160592 
" clip-path="url(#p65ec92ecc3)" style="fill: none; stroke: #000000; stroke-width: 1.2"/>
    <path d="M 108.612101 55.932299 
L 101.805621 98.029678 
" clip-path="url(#p65ec92ecc3)" style="fill: none; stroke: #000000; stroke-width: 1.2"/>
    <path d="M 108.612101 55.932299 
L 143.744179 112.583078 
" clip-path="url(#p65ec92ecc3)" style="fill: none; stroke: #000000; stroke-width: 1.2"/>
    <path d="M 90.428109 58.70117 
L 63.160511 72.158113 
" clip-path="url(#p65ec92ecc3)" style="fill: none; stroke: #000000; stroke-width: 1.2"/>
    <path d="M 90.428109 58.70117 
L 125.657558 79.083189 
" clip-path="url(#p65ec92ecc3)" style="fill: none; stroke: #000000; stroke-width: 1.2"/>
    <path d="M 90.428109 58.70117 
L 108.267415 66.677346 
" clip-path="url(#p65ec92ecc3)" style="fill: none; stroke: #000000; stroke-width: 1.2"/>
    <path d="M 90.428109 58.70117 
L 83.999741 95.681809 
" clip-path="url(#p65ec92ecc3)" style="fill: none; stroke: #000000; stroke-width: 1.2"/>
    <path d="M 90.428109 58.70117 
L 64.079828 108.120473 
" clip-path="url(#p65ec92ecc3)" style="fill: none; stroke: #000000; stroke-width: 1.2"/>
    <path d="M 90.428109 58.70117 
L 122.959249 118.140897 
" clip-path="url(#p65ec92ecc3)" style="fill: none; stroke: #000000; stroke-width: 1.2"/>
    <path d="M 63.160511 72.158113 
L 125.657558 79.083189 
" clip-path="url(#p65ec92ecc3)" style="fill: none; stroke: #000000; stroke-width: 1.2"/>
    <path d="M 63.160511 72.158113 
L 108.267415 66.677346 
" clip-path="url(#p65ec92ecc3)" style="fill: none; stroke: #000000; stroke-width: 1.2"/>
    <path d="M 63.160511 72.158113 
L 101.805621 98.029678 
" clip-path="url(#p65ec92ecc3)" style="fill: none; stroke: #000000; stroke-width: 1.2"/>
    <path d="M 63.160511 72.158113 
L 64.079828 108.120473 
" clip-path="url(#p65ec92ecc3)" style="fill: none; stroke: #000000; stroke-width: 1.2"/>
    <path d="M 63.160511 72.158113 
L 83.435423 119.257459 
" clip-path="url(#p65ec92ecc3)" style="fill: none; stroke: #000000; stroke-width: 1.2"/>
    <path d="M 125.657558 79.083189 
L 145.430339 71.851132 
" clip-path="url(#p65ec92ecc3)" style="fill: none; stroke: #000000; stroke-width: 1.2"/>
    <path d="M 125.657558 79.083189 
L 167.456179 78.999884 
" clip-path="url(#p65ec92ecc3)" style="fill: none; stroke: #000000; stroke-width: 1.2"/>
    <path d="M 125.657558 79.083189 
L 122.959249 118.140897 
" clip-path="url(#p65ec92ecc3)" style="fill: none; stroke: #000000; stroke-width: 1.2"/>
    <path d="M 125.657558 79.083189 
L 83.435423 119.257459 
" clip-path="url(#p65ec92ecc3)" style="fill: none; stroke: #000000; stroke-width: 1.2"/>
    <path d="M 125.657558 79.083189 
L 159.441676 121.342336 
" clip-path="url(#p65ec92ecc3)" style="fill: none; stroke: #000000; stroke-width: 1.2"/>
    <path d="M 145.430339 71.851132 
L 167.456179 78.999884 
" clip-path="url(#p65ec92ecc3)" style="fill: none; stroke: #000000; stroke-width: 1.2"/>
    <path d="M 145.430339 71.851132 
L 108.267415 66.677346 
" clip-path="url(#p65ec92ecc3)" style="fill: none; stroke: #000000; stroke-width: 1.2"/>
    <path d="M 145.430339 71.851132 
L 143.744179 112.583078 
" clip-path="url(#p65ec92ecc3)" style="fill: none; stroke: #000000; stroke-width: 1.2"/>
    <path d="M 145.430339 71.851132 
L 159.441676 121.342336 
" clip-path="url(#p65ec92ecc3)" style="fill: none; stroke: #000000; stroke-width: 1.2"/>
    <path d="M 145.430339 71.851132 
L 100.823687 112.279979 
" clip-path="url(#p65ec92ecc3)" style="fill: none; stroke: #000000; stroke-width: 1.2"/>
    <path d="M 167.456179 78.999884 
L 108.267415 66.677346 
" clip-path="url(#p65ec92ecc3)" style="fill: none; stroke: #000000; stroke-width: 1.2"/>
    <path d="M 167.456179 78.999884 
L 120.096757 106.388331 
" clip-path="url(#p65ec92ecc3)" style="fill: none; stroke: #000000; stroke-width: 1.2"/>
    <path d="M 167.456179 78.999884 
L 159.441676 121.342336 
" clip-path="url(#p65ec92ecc3)" style="fill: none; stroke: #000000; stroke-width: 1.2"/>
    <path d="M 167.456179 78.999884 
L 140.112757 103.598533 
" clip-path="url(#p65ec92ecc3)" style="fill: none; stroke: #000000; stroke-width: 1.2"/>
    <path d="M 108.267415 66.677346 
L 64.079828 108.120473 
" clip-path="url(#p65ec92ecc3)" style="fill: none; stroke: #000000; stroke-width: 1.2"/>
    <path d="M 108.267415 66.677346 
L 100.823687 112.279979 
" clip-path="url(#p65ec92ecc3)" style="fill: none; stroke: #000000; stroke-width: 1.2"/>
    <path d="M 108.267415 66.677346 
L 140.112757 103.598533 
" clip-path="url(#p65ec92ecc3)" style="fill: none; stroke: #000000; stroke-width: 1.2"/>
    <path d="M 63.83407 102.160592 
L 120.096757 106.388331 
" clip-path="url(#p65ec92ecc3)" style="fill: none; stroke: #000000; stroke-width: 1.2"/>
    <path d="M 63.83407 102.160592 
L 83.999741 95.681809 
" clip-path="url(#p65ec92ecc3)" style="fill: none; stroke: #000000; stroke-width: 1.2"/>
    <path d="M 63.83407 102.160592 
L 101.805621 98.029678 
" clip-path="url(#p65ec92ecc3)" style="fill: none; stroke: #000000; stroke-width: 1.2"/>
    <path d="M 63.83407 102.160592 
L 143.744179 112.583078 
" clip-path="url(#p65ec92ecc3)" style="fill: none; stroke: #000000; stroke-width: 1.2"/>
    <path d="M 63.83407 102.160592 
L 83.435423 119.257459 
" clip-path="url(#p65ec92ecc3)" style="fill: none; stroke: #000000; stroke-width: 1.2"/>
    <path d="M 63.83407 102.160592 
L 100.823687 112.279979 
" clip-path="url(#p65ec92ecc3)" style="fill: none; stroke: #000000; stroke-width: 1.2"/>
    <path d="M 63.83407 102.160592 
L 59.46873 148.061374 
" clip-path="url(#p65ec92ecc3)" style="fill: none; stroke: #000000; stroke-width: 1.2"/>
    <path d="M 63.83407 102.160592 
L 77.14332 139.043328 
" clip-path="url(#p65ec92ecc3)" style="fill: none; stroke: #000000; stroke-width: 1.2"/>
    <path d="M 63.83407 102.160592 
L 96.341285 157.136801 
" clip-path="url(#p65ec92ecc3)" style="fill: none; stroke: #000000; stroke-width: 1.2"/>
    <path d="M 120.096757 106.388331 
L 83.999741 95.681809 
" clip-path="url(#p65ec92ecc3)" style="fill: none; stroke: #000000; stroke-width: 1.2"/>
    <path d="M 120.096757 106.388331 
L 159.781565 99.760655 
" clip-path="url(#p65ec92ecc3)" style="fill: none; stroke: #000000; stroke-width: 1.2"/>
    <path d="M 120.096757 106.388331 
L 83.435423 119.257459 
" clip-path="url(#p65ec92ecc3)" style="fill: none; stroke: #000000; stroke-width: 1.2"/>
    <path d="M 120.096757 106.388331 
L 159.441676 121.342336 
" clip-path="url(#p65ec92ecc3)" style="fill: none; stroke: #000000; stroke-width: 1.2"/>
    <path d="M 120.096757 106.388331 
L 140.112757 103.598533 
" clip-path="url(#p65ec92ecc3)" style="fill: none; stroke: #000000; stroke-width: 1.2"/>
    <path d="M 120.096757 106.388331 
L 77.14332 139.043328 
" clip-path="url(#p65ec92ecc3)" style="fill: none; stroke: #000000; stroke-width: 1.2"/>
    <path d="M 120.096757 106.388331 
L 159.469281 139.084384 
" clip-path="url(#p65ec92ecc3)" style="fill: none; stroke: #000000; stroke-width: 1.2"/>
    <path d="M 120.096757 106.388331 
L 114.415909 163.800749 
" clip-path="url(#p65ec92ecc3)" style="fill: none; stroke: #000000; stroke-width: 1.2"/>
    <path d="M 83.999741 95.681809 
L 159.781565 99.760655 
" clip-path="url(#p65ec92ecc3)" style="fill: none; stroke: #000000; stroke-width: 1.2"/>
    <path d="M 83.999741 95.681809 
L 64.079828 108.120473 
" clip-path="url(#p65ec92ecc3)" style="fill: none; stroke: #000000; stroke-width: 1.2"/>
    <path d="M 83.999741 95.681809 
L 122.959249 118.140897 
" clip-path="url(#p65ec92ecc3)" style="fill: none; stroke: #000000; stroke-width: 1.2"/>
    <path d="M 83.999741 95.681809 
L 100.823687 112.279979 
" clip-path="url(#p65ec92ecc3)" style="fill: none; stroke: #000000; stroke-width: 1.2"/>
    <path d="M 83.999741 95.681809 
L 77.14332 139.043328 
" clip-path="url(#p65ec92ecc3)" style="fill: none; stroke: #000000; stroke-width: 1.2"/>
    <path d="M 83.999741 95.681809 
L 115.462739 146.988202 
" clip-path="url(#p65ec92ecc3)" style="fill: none; stroke: #000000; stroke-width: 1.2"/>
    <path d="M 83.999741 95.681809 
L 55.368595 139.056858 
" clip-path="url(#p65ec92ecc3)" style="fill: none; stroke: #000000; stroke-width: 1.2"/>
    <path d="M 159.781565 99.760655 
L 101.805621 98.029678 
" clip-path="url(#p65ec92ecc3)" style="fill: none; stroke: #000000; stroke-width: 1.2"/>
    <path d="M 159.781565 99.760655 
L 143.744179 112.583078 
" clip-path="url(#p65ec92ecc3)" style="fill: none; stroke: #000000; stroke-width: 1.2"/>
    <path d="M 159.781565 99.760655 
L 122.959249 118.140897 
" clip-path="url(#p65ec92ecc3)" style="fill: none; stroke: #000000; stroke-width: 1.2"/>
    <path d="M 159.781565 99.760655 
L 140.112757 103.598533 
" clip-path="url(#p65ec92ecc3)" style="fill: none; stroke: #000000; stroke-width: 1.2"/>
    <path d="M 159.781565 99.760655 
L 115.462739 146.988202 
" clip-path="url(#p65ec92ecc3)" style="fill: none; stroke: #000000; stroke-width: 1.2"/>
    <path d="M 159.781565 99.760655 
L 159.469281 139.084384 
" clip-path="url(#p65ec92ecc3)" style="fill: none; stroke: #000000; stroke-width: 1.2"/>
    <path d="M 159.781565 99.760655 
L 138.722133 142.631042 
" clip-path="url(#p65ec92ecc3)" style="fill: none; stroke: #000000; stroke-width: 1.2"/>
    <path d="M 101.805621 98.029678 
L 143.744179 112.583078 
" clip-path="url(#p65ec92ecc3)" style="fill: none; stroke: #000000; stroke-width: 1.2"/>
    <path d="M 101.805621 98.029678 
L 64.079828 108.120473 
" clip-path="url(#p65ec92ecc3)" style="fill: none; stroke: #000000; stroke-width: 1.2"/>
    <path d="M 101.805621 98.029678 
L 83.435423 119.257459 
" clip-path="url(#p65ec92ecc3)" style="fill: none; stroke: #000000; stroke-width: 1.2"/>
    <path d="M 101.805621 98.029678 
L 140.112757 103.598533 
" clip-path="url(#p65ec92ecc3)" style="fill: none; stroke: #000000; stroke-width: 1.2"/>
    <path d="M 101.805621 98.029678 
L 59.46873 148.061374 
" clip-path="url(#p65ec92ecc3)" style="fill: none; stroke: #000000; stroke-width: 1.2"/>
    <path d="M 101.805621 98.029678 
L 138.722133 142.631042 
" clip-path="url(#p65ec92ecc3)" style="fill: none; stroke: #000000; stroke-width: 1.2"/>
    <path d="M 101.805621 98.029678 
L 95.54215 141.565651 
" clip-path="url(#p65ec92ecc3)" style="fill: none; stroke: #000000; stroke-width: 1.2"/>
    <path d="M 143.744179 112.583078 
L 122.959249 118.140897 
" clip-path="url(#p65ec92ecc3)" style="fill: none; stroke: #000000; stroke-width: 1.2"/>
    <path d="M 143.744179 112.583078 
L 159.441676 121.342336 
" clip-path="url(#p65ec92ecc3)" style="fill: none; stroke: #000000; stroke-width: 1.2"/>
    <path d="M 143.744179 112.583078 
L 100.823687 112.279979 
" clip-path="url(#p65ec92ecc3)" style="fill: none; stroke: #000000; stroke-width: 1.2"/>
    <path d="M 143.744179 112.583078 
L 138.722133 142.631042 
" clip-path="url(#p65ec92ecc3)" style="fill: none; stroke: #000000; stroke-width: 1.2"/>
    <path d="M 143.744179 112.583078 
L 96.341285 157.136801 
" clip-path="url(#p65ec92ecc3)" style="fill: none; stroke: #000000; stroke-width: 1.2"/>
    <path d="M 143.744179 112.583078 
L 154.324289 160.442124 
" clip-path="url(#p65ec92ecc3)" style="fill: none; stroke: #000000; stroke-width: 1.2"/>
    <path d="M 64.079828 108.120473 
L 122.959249 118.140897 
" clip-path="url(#p65ec92ecc3)" style="fill: none; stroke: #000000; stroke-width: 1.2"/>
    <path d="M 64.079828 108.120473 
L 83.435423 119.257459 
" clip-path="url(#p65ec92ecc3)" style="fill: none; stroke: #000000; stroke-width: 1.2"/>
    <path d="M 64.079828 108.120473 
L 100.823687 112.279979 
" clip-path="url(#p65ec92ecc3)" style="fill: none; stroke: #000000; stroke-width: 1.2"/>
    <path d="M 64.079828 108.120473 
L 140.112757 103.598533 
" clip-path="url(#p65ec92ecc3)" style="fill: none; stroke: #000000; stroke-width: 1.2"/>
    <path d="M 64.079828 108.120473 
L 55.368595 139.056858 
" clip-path="url(#p65ec92ecc3)" style="fill: none; stroke: #000000; stroke-width: 1.2"/>
    <path d="M 64.079828 108.120473 
L 81.293606 162.915468 
" clip-path="url(#p65ec92ecc3)" style="fill: none; stroke: #000000; stroke-width: 1.2"/>
    <path d="M 64.079828 108.120473 
L 95.54215 141.565651 
" clip-path="url(#p65ec92ecc3)" style="fill: none; stroke: #000000; stroke-width: 1.2"/>
    <path d="M 122.959249 118.140897 
L 83.435423 119.257459 
" clip-path="url(#p65ec92ecc3)" style="fill: none; stroke: #000000; stroke-width: 1.2"/>
    <path d="M 122.959249 118.140897 
L 159.441676 121.342336 
" clip-path="url(#p65ec92ecc3)" style="fill: none; stroke: #000000; stroke-width: 1.2"/>
    <path d="M 122.959249 118.140897 
L 115.462739 146.988202 
" clip-path="url(#p65ec92ecc3)" style="fill: none; stroke: #000000; stroke-width: 1.2"/>
    <path d="M 122.959249 118.140897 
L 81.293606 162.915468 
" clip-path="url(#p65ec92ecc3)" style="fill: none; stroke: #000000; stroke-width: 1.2"/>
    <path d="M 122.959249 118.140897 
L 154.324289 160.442124 
" clip-path="url(#p65ec92ecc3)" style="fill: none; stroke: #000000; stroke-width: 1.2"/>
    <path d="M 83.435423 119.257459 
L 159.441676 121.342336 
" clip-path="url(#p65ec92ecc3)" style="fill: none; stroke: #000000; stroke-width: 1.2"/>
    <path d="M 83.435423 119.257459 
L 59.46873 148.061374 
" clip-path="url(#p65ec92ecc3)" style="fill: none; stroke: #000000; stroke-width: 1.2"/>
    <path d="M 83.435423 119.257459 
L 81.293606 162.915468 
" clip-path="url(#p65ec92ecc3)" style="fill: none; stroke: #000000; stroke-width: 1.2"/>
    <path d="M 83.435423 119.257459 
L 114.415909 163.800749 
" clip-path="url(#p65ec92ecc3)" style="fill: none; stroke: #000000; stroke-width: 1.2"/>
    <path d="M 159.441676 121.342336 
L 100.823687 112.279979 
" clip-path="url(#p65ec92ecc3)" style="fill: none; stroke: #000000; stroke-width: 1.2"/>
    <path d="M 159.441676 121.342336 
L 140.112757 103.598533 
" clip-path="url(#p65ec92ecc3)" style="fill: none; stroke: #000000; stroke-width: 1.2"/>
    <path d="M 159.441676 121.342336 
L 114.415909 163.800749 
" clip-path="url(#p65ec92ecc3)" style="fill: none; stroke: #000000; stroke-width: 1.2"/>
    <path d="M 159.441676 121.342336 
L 154.324289 160.442124 
" clip-path="url(#p65ec92ecc3)" style="fill: none; stroke: #000000; stroke-width: 1.2"/>
    <path d="M 159.441676 121.342336 
L 132.509585 156.174109 
" clip-path="url(#p65ec92ecc3)" style="fill: none; stroke: #000000; stroke-width: 1.2"/>
    <path d="M 100.823687 112.279979 
L 140.112757 103.598533 
" clip-path="url(#p65ec92ecc3)" style="fill: none; stroke: #000000; stroke-width: 1.2"/>
    <path d="M 100.823687 112.279979 
L 96.341285 157.136801 
" clip-path="url(#p65ec92ecc3)" style="fill: none; stroke: #000000; stroke-width: 1.2"/>
    <path d="M 100.823687 112.279979 
L 55.368595 139.056858 
" clip-path="url(#p65ec92ecc3)" style="fill: none; stroke: #000000; stroke-width: 1.2"/>
    <path d="M 100.823687 112.279979 
L 132.509585 156.174109 
" clip-path="url(#p65ec92ecc3)" style="fill: none; stroke: #000000; stroke-width: 1.2"/>
    <path d="M 140.112757 103.598533 
L 159.469281 139.084384 
" clip-path="url(#p65ec92ecc3)" style="fill: none; stroke: #000000; stroke-width: 1.2"/>
    <path d="M 140.112757 103.598533 
L 132.509585 156.174109 
" clip-path="url(#p65ec92ecc3)" style="fill: none; stroke: #000000; stroke-width: 1.2"/>
    <path d="M 140.112757 103.598533 
L 95.54215 141.565651 
" clip-path="url(#p65ec92ecc3)" style="fill: none; stroke: #000000; stroke-width: 1.2"/>
    <path d="M 59.46873 148.061374 
L 77.14332 139.043328 
" clip-path="url(#p65ec92ecc3)" style="fill: none; stroke: #000000; stroke-width: 1.2"/>
    <path d="M 59.46873 148.061374 
L 138.722133 142.631042 
" clip-path="url(#p65ec92ecc3)" style="fill: none; stroke: #000000; stroke-width: 1.2"/>
    <path d="M 59.46873 148.061374 
L 96.341285 157.136801 
" clip-path="url(#p65ec92ecc3)" style="fill: none; stroke: #000000; stroke-width: 1.2"/>
    <path d="M 59.46873 148.061374 
L 81.293606 162.915468 
" clip-path="url(#p65ec92ecc3)" style="fill: none; stroke: #000000; stroke-width: 1.2"/>
    <path d="M 59.46873 148.061374 
L 114.415909 163.800749 
" clip-path="url(#p65ec92ecc3)" style="fill: none; stroke: #000000; stroke-width: 1.2"/>
    <path d="M 59.46873 148.061374 
L 95.54215 141.565651 
" clip-path="url(#p65ec92ecc3)" style="fill: none; stroke: #000000; stroke-width: 1.2"/>
    <path d="M 77.14332 139.043328 
L 115.462739 146.988202 
" clip-path="url(#p65ec92ecc3)" style="fill: none; stroke: #000000; stroke-width: 1.2"/>
    <path d="M 77.14332 139.043328 
L 159.469281 139.084384 
" clip-path="url(#p65ec92ecc3)" style="fill: none; stroke: #000000; stroke-width: 1.2"/>
    <path d="M 77.14332 139.043328 
L 96.341285 157.136801 
" clip-path="url(#p65ec92ecc3)" style="fill: none; stroke: #000000; stroke-width: 1.2"/>
    <path d="M 77.14332 139.043328 
L 55.368595 139.056858 
" clip-path="url(#p65ec92ecc3)" style="fill: none; stroke: #000000; stroke-width: 1.2"/>
    <path d="M 77.14332 139.043328 
L 114.415909 163.800749 
" clip-path="url(#p65ec92ecc3)" style="fill: none; stroke: #000000; stroke-width: 1.2"/>
    <path d="M 115.462739 146.988202 
L 159.469281 139.084384 
" clip-path="url(#p65ec92ecc3)" style="fill: none; stroke: #000000; stroke-width: 1.2"/>
    <path d="M 115.462739 146.988202 
L 138.722133 142.631042 
" clip-path="url(#p65ec92ecc3)" style="fill: none; stroke: #000000; stroke-width: 1.2"/>
    <path d="M 115.462739 146.988202 
L 55.368595 139.056858 
" clip-path="url(#p65ec92ecc3)" style="fill: none; stroke: #000000; stroke-width: 1.2"/>
    <path d="M 115.462739 146.988202 
L 81.293606 162.915468 
" clip-path="url(#p65ec92ecc3)" style="fill: none; stroke: #000000; stroke-width: 1.2"/>
    <path d="M 115.462739 146.988202 
L 154.324289 160.442124 
" clip-path="url(#p65ec92ecc3)" style="fill: none; stroke: #000000; stroke-width: 1.2"/>
    <path d="M 159.469281 139.084384 
L 138.722133 142.631042 
" clip-path="url(#p65ec92ecc3)" style="fill: none; stroke: #000000; stroke-width: 1.2"/>
    <path d="M 159.469281 139.084384 
L 114.415909 163.800749 
" clip-path="url(#p65ec92ecc3)" style="fill: none; stroke: #000000; stroke-width: 1.2"/>
    <path d="M 159.469281 139.084384 
L 132.509585 156.174109 
" clip-path="url(#p65ec92ecc3)" style="fill: none; stroke: #000000; stroke-width: 1.2"/>
    <path d="M 159.469281 139.084384 
L 95.54215 141.565651 
" clip-path="url(#p65ec92ecc3)" style="fill: none; stroke: #000000; stroke-width: 1.2"/>
    <path d="M 138.722133 142.631042 
L 96.341285 157.136801 
" clip-path="url(#p65ec92ecc3)" style="fill: none; stroke: #000000; stroke-width: 1.2"/>
    <path d="M 138.722133 142.631042 
L 154.324289 160.442124 
" clip-path="url(#p65ec92ecc3)" style="fill: none; stroke: #000000; stroke-width: 1.2"/>
    <path d="M 138.722133 142.631042 
L 95.54215 141.565651 
" clip-path="url(#p65ec92ecc3)" style="fill: none; stroke: #000000; stroke-width: 1.2"/>
    <path d="M 96.341285 157.136801 
L 55.368595 139.056858 
" clip-path="url(#p65ec92ecc3)" style="fill: none; stroke: #000000; stroke-width: 1.2"/>
    <path d="M 96.341285 157.136801 
L 154.324289 160.442124 
" clip-path="url(#p65ec92ecc3)" style="fill: none; stroke: #000000; stroke-width: 1.2"/>
    <path d="M 96.341285 157.136801 
L 132.509585 156.174109 
" clip-path="url(#p65ec92ecc3)" style="fill: none; stroke: #000000; stroke-width: 1.2"/>
    <path d="M 55.368595 139.056858 
L 81.293606 162.915468 
" clip-path="url(#p65ec92ecc3)" style="fill: none; stroke: #000000; stroke-width: 1.2"/>
    <path d="M 55.368595 139.056858 
L 132.509585 156.174109 
" clip-path="url(#p65ec92ecc3)" style="fill: none; stroke: #000000; stroke-width: 1.2"/>
    <path d="M 55.368595 139.056858 
L 95.54215 141.565651 
" clip-path="url(#p65ec92ecc3)" style="fill: none; stroke: #000000; stroke-width: 1.2"/>
    <path d="M 81.293606 162.915468 
L 114.415909 163.800749 
" clip-path="url(#p65ec92ecc3)" style="fill: none; stroke: #000000; stroke-width: 1.2"/>
    <path d="M 81.293606 162.915468 
L 154.324289 160.442124 
" clip-path="url(#p65ec92ecc3)" style="fill: none; stroke: #000000; stroke-width: 1.2"/>
    <path d="M 81.293606 162.915468 
L 95.54215 141.565651 
" clip-path="url(#p65ec92ecc3)" style="fill: none; stroke: #000000; stroke-width: 1.2"/>
    <path d="M 114.415909 163.800749 
L 154.324289 160.442124 
" clip-path="url(#p65ec92ecc3)" style="fill: none; stroke: #000000; stroke-width: 1.2"/>
    <path d="M 114.415909 163.800749 
L 132.509585 156.174109 
" clip-path="url(#p65ec92ecc3)" style="fill: none; stroke: #000000; stroke-width: 1.2"/>
    <path d="M 114.415909 163.800749 
L 141.331801 192.984826 
" clip-path="url(#p65ec92ecc3)" style="fill: none; stroke: #000000; stroke-width: 1.2"/>
    <path d="M 154.324289 160.442124 
L 132.509585 156.174109 
" clip-path="url(#p65ec92ecc3)" style="fill: none; stroke: #000000; stroke-width: 1.2"/>
    <path d="M 154.324289 160.442124 
L 187.785565 193.304872 
" clip-path="url(#p65ec92ecc3)" style="fill: none; stroke: #000000; stroke-width: 1.2"/>
    <path d="M 154.324289 160.442124 
L 141.331801 192.984826 
" clip-path="url(#p65ec92ecc3)" style="fill: none; stroke: #000000; stroke-width: 1.2"/>
    <path d="M 132.509585 156.174109 
L 95.54215 141.565651 
" clip-path="url(#p65ec92ecc3)" style="fill: none; stroke: #000000; stroke-width: 1.2"/>
    <path d="M 132.509585 156.174109 
L 141.331801 192.984826 
" clip-path="url(#p65ec92ecc3)" style="fill: none; stroke: #000000; stroke-width: 1.2"/>
    <path d="M 190.711474 237.076364 
L 187.785565 193.304872 
" clip-path="url(#p65ec92ecc3)" style="fill: none; stroke: #000000; stroke-width: 1.2"/>
    <path d="M 239.831405 202.136469 
L 187.785565 193.304872 
" clip-path="url(#p65ec92ecc3)" style="fill: none; stroke: #000000; stroke-width: 1.2"/>
    <path d="M 187.785565 193.304872 
L 141.331801 192.984826 
" clip-path="url(#p65ec92ecc3)" style="fill: none; stroke: #000000; stroke-width: 1.2"/>
   </g>
   <g id="PathCollection_1">
    <defs>
     <path id="C0_0_d9f556e794" d="M 0 8.944272 
C 2.372049 8.944272 4.647264 8.001847 6.324555 6.324555 
C 8.001847 4.647264 8.944272 2.372049 8.944272 -0 
C 8.944272 -2.372049 8.001847 -4.647264 6.324555 -6.324555 
C 4.647264 -8.001847 2.372049 -8.944272 0 -8.944272 
C -2.372049 -8.944272 -4.647264 -8.001847 -6.324555 -6.324555 
C -8.001847 -4.647264 -8.944272 -2.372049 -8.944272 0 
C -8.944272 2.372049 -8.001847 4.647264 -6.324555 6.324555 
C -4.647264 8.001847 -2.372049 8.944272 0 8.944272 
z
"/>
    </defs>
    <g clip-path="url(#p65ec92ecc3)">
     <use xlink:href="#C0_0_d9f556e794" x="86.786308" y="71.474917" style="fill: #c78033; stroke: #c78033; stroke-width: 0.5"/>
    </g>
    <g clip-path="url(#p65ec92ecc3)">
     <use xlink:href="#C0_0_d9f556e794" x="68.100949" y="60.721129" style="fill: #c78033; stroke: #c78033; stroke-width: 0.5"/>
    </g>
    <g clip-path="url(#p65ec92ecc3)">
     <use xlink:href="#C0_0_d9f556e794" x="125.33096" y="53.803636" style="fill: #c78033; stroke: #c78033; stroke-width: 0.5"/>
    </g>
    <g clip-path="url(#p65ec92ecc3)">
     <use xlink:href="#C0_0_d9f556e794" x="144.329294" y="55.839005" style="fill: #c78033; stroke: #c78033; stroke-width: 0.5"/>
    </g>
    <g clip-path="url(#p65ec92ecc3)">
     <use xlink:href="#C0_0_d9f556e794" x="165.16068" y="68.998529" style="fill: #c78033; stroke: #c78033; stroke-width: 0.5"/>
    </g>
    <g clip-path="url(#p65ec92ecc3)">
     <use xlink:href="#C0_0_d9f556e794" x="108.612101" y="55.932299" style="fill: #c78033; stroke: #c78033; stroke-width: 0.5"/>
    </g>
    <g clip-path="url(#p65ec92ecc3)">
     <use xlink:href="#C0_0_d9f556e794" x="90.428109" y="58.70117" style="fill: #c78033; stroke: #c78033; stroke-width: 0.5"/>
    </g>
    <g clip-path="url(#p65ec92ecc3)">
     <use xlink:href="#C0_0_d9f556e794" x="63.160511" y="72.158113" style="fill: #c78033; stroke: #c78033; stroke-width: 0.5"/>
    </g>
    <g clip-path="url(#p65ec92ecc3)">
     <use xlink:href="#C0_0_d9f556e794" x="125.657558" y="79.083189" style="fill: #c78033; stroke: #c78033; stroke-width: 0.5"/>
    </g>
    <g clip-path="url(#p65ec92ecc3)">
     <use xlink:href="#C0_0_d9f556e794" x="145.430339" y="71.851132" style="fill: #c78033; stroke: #c78033; stroke-width: 0.5"/>
    </g>
    <g clip-path="url(#p65ec92ecc3)">
     <use xlink:href="#C0_0_d9f556e794" x="167.456179" y="78.999884" style="fill: #c78033; stroke: #c78033; stroke-width: 0.5"/>
    </g>
    <g clip-path="url(#p65ec92ecc3)">
     <use xlink:href="#C0_0_d9f556e794" x="108.267415" y="66.677346" style="fill: #c78033; stroke: #c78033; stroke-width: 0.5"/>
    </g>
    <g clip-path="url(#p65ec92ecc3)">
     <use xlink:href="#C0_0_d9f556e794" x="63.83407" y="102.160592" style="fill: #c78033; stroke: #c78033; stroke-width: 0.5"/>
    </g>
    <g clip-path="url(#p65ec92ecc3)">
     <use xlink:href="#C0_0_d9f556e794" x="120.096757" y="106.388331" style="fill: #c78033; stroke: #c78033; stroke-width: 0.5"/>
    </g>
    <g clip-path="url(#p65ec92ecc3)">
     <use xlink:href="#C0_0_d9f556e794" x="83.999741" y="95.681809" style="fill: #c78033; stroke: #c78033; stroke-width: 0.5"/>
    </g>
    <g clip-path="url(#p65ec92ecc3)">
     <use xlink:href="#C0_0_d9f556e794" x="159.781565" y="99.760655" style="fill: #c78033; stroke: #c78033; stroke-width: 0.5"/>
    </g>
    <g clip-path="url(#p65ec92ecc3)">
     <use xlink:href="#C0_0_d9f556e794" x="101.805621" y="98.029678" style="fill: #c78033; stroke: #c78033; stroke-width: 0.5"/>
    </g>
    <g clip-path="url(#p65ec92ecc3)">
     <use xlink:href="#C0_0_d9f556e794" x="143.744179" y="112.583078" style="fill: #c78033; stroke: #c78033; stroke-width: 0.5"/>
    </g>
    <g clip-path="url(#p65ec92ecc3)">
     <use xlink:href="#C0_0_d9f556e794" x="64.079828" y="108.120473" style="fill: #c78033; stroke: #c78033; stroke-width: 0.5"/>
    </g>
    <g clip-path="url(#p65ec92ecc3)">
     <use xlink:href="#C0_0_d9f556e794" x="122.959249" y="118.140897" style="fill: #c78033; stroke: #c78033; stroke-width: 0.5"/>
    </g>
    <g clip-path="url(#p65ec92ecc3)">
     <use xlink:href="#C0_0_d9f556e794" x="83.435423" y="119.257459" style="fill: #c78033; stroke: #c78033; stroke-width: 0.5"/>
    </g>
    <g clip-path="url(#p65ec92ecc3)">
     <use xlink:href="#C0_0_d9f556e794" x="159.441676" y="121.342336" style="fill: #c78033; stroke: #c78033; stroke-width: 0.5"/>
    </g>
    <g clip-path="url(#p65ec92ecc3)">
     <use xlink:href="#C0_0_d9f556e794" x="100.823687" y="112.279979" style="fill: #c78033; stroke: #c78033; stroke-width: 0.5"/>
    </g>
    <g clip-path="url(#p65ec92ecc3)">
     <use xlink:href="#C0_0_d9f556e794" x="140.112757" y="103.598533" style="fill: #c78033; stroke: #c78033; stroke-width: 0.5"/>
    </g>
    <g clip-path="url(#p65ec92ecc3)">
     <use xlink:href="#C0_0_d9f556e794" x="59.46873" y="148.061374" style="fill: #c78033; stroke: #c78033; stroke-width: 0.5"/>
    </g>
    <g clip-path="url(#p65ec92ecc3)">
     <use xlink:href="#C0_0_d9f556e794" x="77.14332" y="139.043328" style="fill: #c78033; stroke: #c78033; stroke-width: 0.5"/>
    </g>
    <g clip-path="url(#p65ec92ecc3)">
     <use xlink:href="#C0_0_d9f556e794" x="115.462739" y="146.988202" style="fill: #c78033; stroke: #c78033; stroke-width: 0.5"/>
    </g>
    <g clip-path="url(#p65ec92ecc3)">
     <use xlink:href="#C0_0_d9f556e794" x="159.469281" y="139.084384" style="fill: #c78033; stroke: #c78033; stroke-width: 0.5"/>
    </g>
    <g clip-path="url(#p65ec92ecc3)">
     <use xlink:href="#C0_0_d9f556e794" x="138.722133" y="142.631042" style="fill: #c78033; stroke: #c78033; stroke-width: 0.5"/>
    </g>
    <g clip-path="url(#p65ec92ecc3)">
     <use xlink:href="#C0_0_d9f556e794" x="96.341285" y="157.136801" style="fill: #c78033; stroke: #c78033; stroke-width: 0.5"/>
    </g>
    <g clip-path="url(#p65ec92ecc3)">
     <use xlink:href="#C0_0_d9f556e794" x="55.368595" y="139.056858" style="fill: #c78033; stroke: #c78033; stroke-width: 0.5"/>
    </g>
    <g clip-path="url(#p65ec92ecc3)">
     <use xlink:href="#C0_0_d9f556e794" x="81.293606" y="162.915468" style="fill: #c78033; stroke: #c78033; stroke-width: 0.5"/>
    </g>
    <g clip-path="url(#p65ec92ecc3)">
     <use xlink:href="#C0_0_d9f556e794" x="114.415909" y="163.800749" style="fill: #c78033; stroke: #c78033; stroke-width: 0.5"/>
    </g>
    <g clip-path="url(#p65ec92ecc3)">
     <use xlink:href="#C0_0_d9f556e794" x="154.324289" y="160.442124" style="fill: #c78033; stroke: #c78033; stroke-width: 0.5"/>
    </g>
    <g clip-path="url(#p65ec92ecc3)">
     <use xlink:href="#C0_0_d9f556e794" x="132.509585" y="156.174109" style="fill: #c78033; stroke: #c78033; stroke-width: 0.5"/>
    </g>
    <g clip-path="url(#p65ec92ecc3)">
     <use xlink:href="#C0_0_d9f556e794" x="95.54215" y="141.565651" style="fill: #c78033; stroke: #c78033; stroke-width: 0.5"/>
    </g>
    <g clip-path="url(#p65ec92ecc3)">
     <use xlink:href="#C0_0_d9f556e794" x="190.711474" y="237.076364" style="fill: #bfbfbf; stroke: #bfbfbf; stroke-width: 0.5"/>
    </g>
    <g clip-path="url(#p65ec92ecc3)">
     <use xlink:href="#C0_0_d9f556e794" x="239.831405" y="202.136469" style="fill: #bfbfbf; stroke: #bfbfbf; stroke-width: 0.5"/>
    </g>
    <g clip-path="url(#p65ec92ecc3)">
     <use xlink:href="#C0_0_d9f556e794" x="187.785565" y="193.304872" style="fill: #666666; stroke: #666666; stroke-width: 0.5"/>
    </g>
    <g clip-path="url(#p65ec92ecc3)">
     <use xlink:href="#C0_0_d9f556e794" x="141.331801" y="192.984826" style="fill: #ff0d0d; stroke: #ff0d0d; stroke-width: 0.5"/>
    </g>
   </g>
   <g id="text_1">
    <!-- CH2Cu48O -->
    <g transform="translate(123.965386 -0.652167) scale(0.1 -0.1)">
     <defs>
      <path id="DejaVuSans-43" d="M 4122 4306 
L 4122 3641 
Q 3803 3938 3442 4084 
Q 3081 4231 2675 4231 
Q 1875 4231 1450 3742 
Q 1025 3253 1025 2328 
Q 1025 1406 1450 917 
Q 1875 428 2675 428 
Q 3081 428 3442 575 
Q 3803 722 4122 1019 
L 4122 359 
Q 3791 134 3420 21 
Q 3050 -91 2638 -91 
Q 1578 -91 968 557 
Q 359 1206 359 2328 
Q 359 3453 968 4101 
Q 1578 4750 2638 4750 
Q 3056 4750 3426 4639 
Q 3797 4528 4122 4306 
z
" transform="scale(0.015625)"/>
      <path id="DejaVuSans-48" d="M 628 4666 
L 1259 4666 
L 1259 2753 
L 3553 2753 
L 3553 4666 
L 4184 4666 
L 4184 0 
L 3553 0 
L 3553 2222 
L 1259 2222 
L 1259 0 
L 628 0 
L 628 4666 
z
" transform="scale(0.015625)"/>
      <path id="DejaVuSans-32" d="M 1228 531 
L 3431 531 
L 3431 0 
L 469 0 
L 469 531 
Q 828 903 1448 1529 
Q 2069 2156 2228 2338 
Q 2531 2678 2651 2914 
Q 2772 3150 2772 3378 
Q 2772 3750 2511 3984 
Q 2250 4219 1831 4219 
Q 1534 4219 1204 4116 
Q 875 4013 500 3803 
L 500 4441 
Q 881 4594 1212 4672 
Q 1544 4750 1819 4750 
Q 2544 4750 2975 4387 
Q 3406 4025 3406 3419 
Q 3406 3131 3298 2873 
Q 3191 2616 2906 2266 
Q 2828 2175 2409 1742 
Q 1991 1309 1228 531 
z
" transform="scale(0.015625)"/>
      <path id="DejaVuSans-75" d="M 544 1381 
L 544 3500 
L 1119 3500 
L 1119 1403 
Q 1119 906 1312 657 
Q 1506 409 1894 409 
Q 2359 409 2629 706 
Q 2900 1003 2900 1516 
L 2900 3500 
L 3475 3500 
L 3475 0 
L 2900 0 
L 2900 538 
Q 2691 219 2414 64 
Q 2138 -91 1772 -91 
Q 1169 -91 856 284 
Q 544 659 544 1381 
z
M 1991 3584 
L 1991 3584 
z
" transform="scale(0.015625)"/>
      <path id="DejaVuSans-34" d="M 2419 4116 
L 825 1625 
L 2419 1625 
L 2419 4116 
z
M 2253 4666 
L 3047 4666 
L 3047 1625 
L 3713 1625 
L 3713 1100 
L 3047 1100 
L 3047 0 
L 2419 0 
L 2419 1100 
L 313 1100 
L 313 1709 
L 2253 4666 
z
" transform="scale(0.015625)"/>
      <path id="DejaVuSans-38" d="M 2034 2216 
Q 1584 2216 1326 1975 
Q 1069 1734 1069 1313 
Q 1069 891 1326 650 
Q 1584 409 2034 409 
Q 2484 409 2743 651 
Q 3003 894 3003 1313 
Q 3003 1734 2745 1975 
Q 2488 2216 2034 2216 
z
M 1403 2484 
Q 997 2584 770 2862 
Q 544 3141 544 3541 
Q 544 4100 942 4425 
Q 1341 4750 2034 4750 
Q 2731 4750 3128 4425 
Q 3525 4100 3525 3541 
Q 3525 3141 3298 2862 
Q 3072 2584 2669 2484 
Q 3125 2378 3379 2068 
Q 3634 1759 3634 1313 
Q 3634 634 3220 271 
Q 2806 -91 2034 -91 
Q 1263 -91 848 271 
Q 434 634 434 1313 
Q 434 1759 690 2068 
Q 947 2378 1403 2484 
z
M 1172 3481 
Q 1172 3119 1398 2916 
Q 1625 2713 2034 2713 
Q 2441 2713 2670 2916 
Q 2900 3119 2900 3481 
Q 2900 3844 2670 4047 
Q 2441 4250 2034 4250 
Q 1625 4250 1398 4047 
Q 1172 3844 1172 3481 
z
" transform="scale(0.015625)"/>
      <path id="DejaVuSans-4f" d="M 2522 4238 
Q 1834 4238 1429 3725 
Q 1025 3213 1025 2328 
Q 1025 1447 1429 934 
Q 1834 422 2522 422 
Q 3209 422 3611 934 
Q 4013 1447 4013 2328 
Q 4013 3213 3611 3725 
Q 3209 4238 2522 4238 
z
M 2522 4750 
Q 3503 4750 4090 4092 
Q 4678 3434 4678 2328 
Q 4678 1225 4090 567 
Q 3503 -91 2522 -91 
Q 1538 -91 948 565 
Q 359 1222 359 2328 
Q 359 3434 948 4092 
Q 1538 4750 2522 4750 
z
" transform="scale(0.015625)"/>
     </defs>
     <use xlink:href="#DejaVuSans-43"/>
     <use xlink:href="#DejaVuSans-48" transform="translate(69.824219 0)"/>
     <use xlink:href="#DejaVuSans-32" transform="translate(145.019531 0)"/>
     <use xlink:href="#DejaVuSans-43" transform="translate(208.642578 0)"/>
     <use xlink:href="#DejaVuSans-75" transform="translate(278.466797 0)"/>
     <use xlink:href="#DejaVuSans-34" transform="translate(341.845703 0)"/>
     <use xlink:href="#DejaVuSans-38" transform="translate(405.46875 0)"/>
     <use xlink:href="#DejaVuSans-4f" transform="translate(469.091797 0)"/>
    </g>
    <!-- Error: -7.98 eV -->
    <g transform="translate(123.965386 10.545645) scale(0.1 -0.1)">
     <defs>
      <path id="DejaVuSans-45" d="M 628 4666 
L 3578 4666 
L 3578 4134 
L 1259 4134 
L 1259 2753 
L 3481 2753 
L 3481 2222 
L 1259 2222 
L 1259 531 
L 3634 531 
L 3634 0 
L 628 0 
L 628 4666 
z
" transform="scale(0.015625)"/>
      <path id="DejaVuSans-72" d="M 2631 2963 
Q 2534 3019 2420 3045 
Q 2306 3072 2169 3072 
Q 1681 3072 1420 2755 
Q 1159 2438 1159 1844 
L 1159 0 
L 581 0 
L 581 3500 
L 1159 3500 
L 1159 2956 
Q 1341 3275 1631 3429 
Q 1922 3584 2338 3584 
Q 2397 3584 2469 3576 
Q 2541 3569 2628 3553 
L 2631 2963 
z
" transform="scale(0.015625)"/>
      <path id="DejaVuSans-6f" d="M 1959 3097 
Q 1497 3097 1228 2736 
Q 959 2375 959 1747 
Q 959 1119 1226 758 
Q 1494 397 1959 397 
Q 2419 397 2687 759 
Q 2956 1122 2956 1747 
Q 2956 2369 2687 2733 
Q 2419 3097 1959 3097 
z
M 1959 3584 
Q 2709 3584 3137 3096 
Q 3566 2609 3566 1747 
Q 3566 888 3137 398 
Q 2709 -91 1959 -91 
Q 1206 -91 779 398 
Q 353 888 353 1747 
Q 353 2609 779 3096 
Q 1206 3584 1959 3584 
z
" transform="scale(0.015625)"/>
      <path id="DejaVuSans-3a" d="M 750 794 
L 1409 794 
L 1409 0 
L 750 0 
L 750 794 
z
M 750 3309 
L 1409 3309 
L 1409 2516 
L 750 2516 
L 750 3309 
z
" transform="scale(0.015625)"/>
      <path id="DejaVuSans-20" transform="scale(0.015625)"/>
      <path id="DejaVuSans-2d" d="M 313 2009 
L 1997 2009 
L 1997 1497 
L 313 1497 
L 313 2009 
z
" transform="scale(0.015625)"/>
      <path id="DejaVuSans-37" d="M 525 4666 
L 3525 4666 
L 3525 4397 
L 1831 0 
L 1172 0 
L 2766 4134 
L 525 4134 
L 525 4666 
z
" transform="scale(0.015625)"/>
      <path id="DejaVuSans-2e" d="M 684 794 
L 1344 794 
L 1344 0 
L 684 0 
L 684 794 
z
" transform="scale(0.015625)"/>
      <path id="DejaVuSans-39" d="M 703 97 
L 703 672 
Q 941 559 1184 500 
Q 1428 441 1663 441 
Q 2288 441 2617 861 
Q 2947 1281 2994 2138 
Q 2813 1869 2534 1725 
Q 2256 1581 1919 1581 
Q 1219 1581 811 2004 
Q 403 2428 403 3163 
Q 403 3881 828 4315 
Q 1253 4750 1959 4750 
Q 2769 4750 3195 4129 
Q 3622 3509 3622 2328 
Q 3622 1225 3098 567 
Q 2575 -91 1691 -91 
Q 1453 -91 1209 -44 
Q 966 3 703 97 
z
M 1959 2075 
Q 2384 2075 2632 2365 
Q 2881 2656 2881 3163 
Q 2881 3666 2632 3958 
Q 2384 4250 1959 4250 
Q 1534 4250 1286 3958 
Q 1038 3666 1038 3163 
Q 1038 2656 1286 2365 
Q 1534 2075 1959 2075 
z
" transform="scale(0.015625)"/>
      <path id="DejaVuSans-65" d="M 3597 1894 
L 3597 1613 
L 953 1613 
Q 991 1019 1311 708 
Q 1631 397 2203 397 
Q 2534 397 2845 478 
Q 3156 559 3463 722 
L 3463 178 
Q 3153 47 2828 -22 
Q 2503 -91 2169 -91 
Q 1331 -91 842 396 
Q 353 884 353 1716 
Q 353 2575 817 3079 
Q 1281 3584 2069 3584 
Q 2775 3584 3186 3129 
Q 3597 2675 3597 1894 
z
M 3022 2063 
Q 3016 2534 2758 2815 
Q 2500 3097 2075 3097 
Q 1594 3097 1305 2825 
Q 1016 2553 972 2059 
L 3022 2063 
z
" transform="scale(0.015625)"/>
      <path id="DejaVuSans-56" d="M 1831 0 
L 50 4666 
L 709 4666 
L 2188 738 
L 3669 4666 
L 4325 4666 
L 2547 0 
L 1831 0 
z
" transform="scale(0.015625)"/>
     </defs>
     <use xlink:href="#DejaVuSans-45"/>
     <use xlink:href="#DejaVuSans-72" transform="translate(63.183594 0)"/>
     <use xlink:href="#DejaVuSans-72" transform="translate(102.546875 0)"/>
     <use xlink:href="#DejaVuSans-6f" transform="translate(141.410156 0)"/>
     <use xlink:href="#DejaVuSans-72" transform="translate(202.591797 0)"/>
     <use xlink:href="#DejaVuSans-3a" transform="translate(241.955078 0)"/>
     <use xlink:href="#DejaVuSans-20" transform="translate(275.646484 0)"/>
     <use xlink:href="#DejaVuSans-2d" transform="translate(307.433594 0)"/>
     <use xlink:href="#DejaVuSans-37" transform="translate(343.517578 0)"/>
     <use xlink:href="#DejaVuSans-2e" transform="translate(407.140625 0)"/>
     <use xlink:href="#DejaVuSans-39" transform="translate(438.927734 0)"/>
     <use xlink:href="#DejaVuSans-38" transform="translate(502.550781 0)"/>
     <use xlink:href="#DejaVuSans-20" transform="translate(566.173828 0)"/>
     <use xlink:href="#DejaVuSans-65" transform="translate(597.960938 0)"/>
     <use xlink:href="#DejaVuSans-56" transform="translate(659.484375 0)"/>
    </g>
   </g>
  </g>
 </g>
 <defs>
  <clipPath id="p65ec92ecc3">
   <rect x="36" y="34.56" width="223.2" height="221.76"/>
  </clipPath>
 </defs>
</svg>
