<?xml version="1.0" encoding="utf-8" standalone="no"?>
<!DOCTYPE svg PUBLIC "-//W3C//DTD SVG 1.1//EN"
  "http://www.w3.org/Graphics/SVG/1.1/DTD/svg11.dtd">
<svg xmlns:xlink="http://www.w3.org/1999/xlink" width="288pt" height="288pt" viewBox="0 0 288 288" xmlns="http://www.w3.org/2000/svg" version="1.1">
 <metadata>
  <rdf:RDF xmlns:dc="http://purl.org/dc/elements/1.1/" xmlns:cc="http://creativecommons.org/ns#" xmlns:rdf="http://www.w3.org/1999/02/22-rdf-syntax-ns#">
   <cc:Work>
    <dc:type rdf:resource="http://purl.org/dc/dcmitype/StillImage"/>
    <dc:date>2025-06-30T12:05:38.048377</dc:date>
    <dc:format>image/svg+xml</dc:format>
    <dc:creator>
     <cc:Agent>
      <dc:title>Matplotlib v3.10.1, https://matplotlib.org/</dc:title>
     </cc:Agent>
    </dc:creator>
   </cc:Work>
  </rdf:RDF>
 </metadata>
 <defs>
  <style type="text/css">*{stroke-linejoin: round; stroke-linecap: butt}</style>
 </defs>
 <g id="figure_1">
  <g id="patch_1">
   <path d="M 0 288 
L 288 288 
L 288 0 
L 0 0 
z
" style="fill: #ffffff"/>
  </g>
  <g id="axes_1">
   <g id="LineCollection_1">
    <path d="M 137.618378 75.668316 
L 144.085657 96.976247 
" clip-path="url(#p17786c7dc4)" style="fill: none; stroke: #000000; stroke-width: 1.2"/>
    <path d="M 137.618378 75.668316 
L 101.295857 55.551746 
" clip-path="url(#p17786c7dc4)" style="fill: none; stroke: #000000; stroke-width: 1.2"/>
    <path d="M 137.618378 75.668316 
L 116.71138 53.803636 
" clip-path="url(#p17786c7dc4)" style="fill: none; stroke: #000000; stroke-width: 1.2"/>
    <path d="M 137.618378 75.668316 
L 127.163338 69.44209 
" clip-path="url(#p17786c7dc4)" style="fill: none; stroke: #000000; stroke-width: 1.2"/>
    <path d="M 137.618378 75.668316 
L 94.633969 104.797908 
" clip-path="url(#p17786c7dc4)" style="fill: none; stroke: #000000; stroke-width: 1.2"/>
    <path d="M 137.618378 75.668316 
L 130.090148 114.00584 
" clip-path="url(#p17786c7dc4)" style="fill: none; stroke: #000000; stroke-width: 1.2"/>
    <path d="M 137.618378 75.668316 
L 117.924883 94.73461 
" clip-path="url(#p17786c7dc4)" style="fill: none; stroke: #000000; stroke-width: 1.2"/>
    <path d="M 144.085657 96.976247 
L 127.163338 69.44209 
" clip-path="url(#p17786c7dc4)" style="fill: none; stroke: #000000; stroke-width: 1.2"/>
    <path d="M 144.085657 96.976247 
L 100.864418 98.645518 
" clip-path="url(#p17786c7dc4)" style="fill: none; stroke: #000000; stroke-width: 1.2"/>
    <path d="M 144.085657 96.976247 
L 108.059102 124.153162 
" clip-path="url(#p17786c7dc4)" style="fill: none; stroke: #000000; stroke-width: 1.2"/>
    <path d="M 144.085657 96.976247 
L 130.090148 114.00584 
" clip-path="url(#p17786c7dc4)" style="fill: none; stroke: #000000; stroke-width: 1.2"/>
    <path d="M 101.295857 55.551746 
L 116.71138 53.803636 
" clip-path="url(#p17786c7dc4)" style="fill: none; stroke: #000000; stroke-width: 1.2"/>
    <path d="M 101.295857 55.551746 
L 77.717165 82.553857 
" clip-path="url(#p17786c7dc4)" style="fill: none; stroke: #000000; stroke-width: 1.2"/>
    <path d="M 101.295857 55.551746 
L 82.434559 101.676129 
" clip-path="url(#p17786c7dc4)" style="fill: none; stroke: #000000; stroke-width: 1.2"/>
    <path d="M 101.295857 55.551746 
L 117.924883 94.73461 
" clip-path="url(#p17786c7dc4)" style="fill: none; stroke: #000000; stroke-width: 1.2"/>
    <path d="M 116.71138 53.803636 
L 127.163338 69.44209 
" clip-path="url(#p17786c7dc4)" style="fill: none; stroke: #000000; stroke-width: 1.2"/>
    <path d="M 116.71138 53.803636 
L 85.22718 54.554701 
" clip-path="url(#p17786c7dc4)" style="fill: none; stroke: #000000; stroke-width: 1.2"/>
    <path d="M 116.71138 53.803636 
L 117.924883 94.73461 
" clip-path="url(#p17786c7dc4)" style="fill: none; stroke: #000000; stroke-width: 1.2"/>
    <path d="M 116.71138 53.803636 
L 89.071224 83.042395 
" clip-path="url(#p17786c7dc4)" style="fill: none; stroke: #000000; stroke-width: 1.2"/>
    <path d="M 116.71138 53.803636 
L 104.986525 88.331545 
" clip-path="url(#p17786c7dc4)" style="fill: none; stroke: #000000; stroke-width: 1.2"/>
    <path d="M 127.163338 69.44209 
L 85.22718 54.554701 
" clip-path="url(#p17786c7dc4)" style="fill: none; stroke: #000000; stroke-width: 1.2"/>
    <path d="M 127.163338 69.44209 
L 130.090148 114.00584 
" clip-path="url(#p17786c7dc4)" style="fill: none; stroke: #000000; stroke-width: 1.2"/>
    <path d="M 127.163338 69.44209 
L 104.986525 88.331545 
" clip-path="url(#p17786c7dc4)" style="fill: none; stroke: #000000; stroke-width: 1.2"/>
    <path d="M 127.163338 69.44209 
L 107.855473 111.807755 
" clip-path="url(#p17786c7dc4)" style="fill: none; stroke: #000000; stroke-width: 1.2"/>
    <path d="M 85.22718 54.554701 
L 63.83471 82.695304 
" clip-path="url(#p17786c7dc4)" style="fill: none; stroke: #000000; stroke-width: 1.2"/>
    <path d="M 85.22718 54.554701 
L 104.986525 88.331545 
" clip-path="url(#p17786c7dc4)" style="fill: none; stroke: #000000; stroke-width: 1.2"/>
    <path d="M 85.22718 54.554701 
L 68.679936 102.864424 
" clip-path="url(#p17786c7dc4)" style="fill: none; stroke: #000000; stroke-width: 1.2"/>
    <path d="M 100.864418 98.645518 
L 63.83471 82.695304 
" clip-path="url(#p17786c7dc4)" style="fill: none; stroke: #000000; stroke-width: 1.2"/>
    <path d="M 100.864418 98.645518 
L 77.717165 82.553857 
" clip-path="url(#p17786c7dc4)" style="fill: none; stroke: #000000; stroke-width: 1.2"/>
    <path d="M 100.864418 98.645518 
L 108.059102 124.153162 
" clip-path="url(#p17786c7dc4)" style="fill: none; stroke: #000000; stroke-width: 1.2"/>
    <path d="M 100.864418 98.645518 
L 130.090148 114.00584 
" clip-path="url(#p17786c7dc4)" style="fill: none; stroke: #000000; stroke-width: 1.2"/>
    <path d="M 100.864418 98.645518 
L 89.071224 83.042395 
" clip-path="url(#p17786c7dc4)" style="fill: none; stroke: #000000; stroke-width: 1.2"/>
    <path d="M 100.864418 98.645518 
L 107.855473 111.807755 
" clip-path="url(#p17786c7dc4)" style="fill: none; stroke: #000000; stroke-width: 1.2"/>
    <path d="M 100.864418 98.645518 
L 77.021569 141.11308 
" clip-path="url(#p17786c7dc4)" style="fill: none; stroke: #000000; stroke-width: 1.2"/>
    <path d="M 100.864418 98.645518 
L 56.235541 111.028781 
" clip-path="url(#p17786c7dc4)" style="fill: none; stroke: #000000; stroke-width: 1.2"/>
    <path d="M 100.864418 98.645518 
L 107.671056 146.115096 
" clip-path="url(#p17786c7dc4)" style="fill: none; stroke: #000000; stroke-width: 1.2"/>
    <path d="M 63.83471 82.695304 
L 77.717165 82.553857 
" clip-path="url(#p17786c7dc4)" style="fill: none; stroke: #000000; stroke-width: 1.2"/>
    <path d="M 63.83471 82.695304 
L 94.633969 104.797908 
" clip-path="url(#p17786c7dc4)" style="fill: none; stroke: #000000; stroke-width: 1.2"/>
    <path d="M 63.83471 82.695304 
L 89.071224 83.042395 
" clip-path="url(#p17786c7dc4)" style="fill: none; stroke: #000000; stroke-width: 1.2"/>
    <path d="M 63.83471 82.695304 
L 104.986525 88.331545 
" clip-path="url(#p17786c7dc4)" style="fill: none; stroke: #000000; stroke-width: 1.2"/>
    <path d="M 63.83471 82.695304 
L 68.679936 102.864424 
" clip-path="url(#p17786c7dc4)" style="fill: none; stroke: #000000; stroke-width: 1.2"/>
    <path d="M 63.83471 82.695304 
L 56.235541 111.028781 
" clip-path="url(#p17786c7dc4)" style="fill: none; stroke: #000000; stroke-width: 1.2"/>
    <path d="M 63.83471 82.695304 
L 55.368595 131.888248 
" clip-path="url(#p17786c7dc4)" style="fill: none; stroke: #000000; stroke-width: 1.2"/>
    <path d="M 63.83471 82.695304 
L 77.03644 118.174563 
" clip-path="url(#p17786c7dc4)" style="fill: none; stroke: #000000; stroke-width: 1.2"/>
    <path d="M 77.717165 82.553857 
L 94.633969 104.797908 
" clip-path="url(#p17786c7dc4)" style="fill: none; stroke: #000000; stroke-width: 1.2"/>
    <path d="M 77.717165 82.553857 
L 82.434559 101.676129 
" clip-path="url(#p17786c7dc4)" style="fill: none; stroke: #000000; stroke-width: 1.2"/>
    <path d="M 77.717165 82.553857 
L 117.924883 94.73461 
" clip-path="url(#p17786c7dc4)" style="fill: none; stroke: #000000; stroke-width: 1.2"/>
    <path d="M 77.717165 82.553857 
L 107.855473 111.807755 
" clip-path="url(#p17786c7dc4)" style="fill: none; stroke: #000000; stroke-width: 1.2"/>
    <path d="M 77.717165 82.553857 
L 56.235541 111.028781 
" clip-path="url(#p17786c7dc4)" style="fill: none; stroke: #000000; stroke-width: 1.2"/>
    <path d="M 77.717165 82.553857 
L 86.296801 130.317486 
" clip-path="url(#p17786c7dc4)" style="fill: none; stroke: #000000; stroke-width: 1.2"/>
    <path d="M 77.717165 82.553857 
L 65.454197 131.816134 
" clip-path="url(#p17786c7dc4)" style="fill: none; stroke: #000000; stroke-width: 1.2"/>
    <path d="M 94.633969 104.797908 
L 108.059102 124.153162 
" clip-path="url(#p17786c7dc4)" style="fill: none; stroke: #000000; stroke-width: 1.2"/>
    <path d="M 94.633969 104.797908 
L 130.090148 114.00584 
" clip-path="url(#p17786c7dc4)" style="fill: none; stroke: #000000; stroke-width: 1.2"/>
    <path d="M 94.633969 104.797908 
L 117.924883 94.73461 
" clip-path="url(#p17786c7dc4)" style="fill: none; stroke: #000000; stroke-width: 1.2"/>
    <path d="M 94.633969 104.797908 
L 68.679936 102.864424 
" clip-path="url(#p17786c7dc4)" style="fill: none; stroke: #000000; stroke-width: 1.2"/>
    <path d="M 94.633969 104.797908 
L 86.296801 130.317486 
" clip-path="url(#p17786c7dc4)" style="fill: none; stroke: #000000; stroke-width: 1.2"/>
    <path d="M 94.633969 104.797908 
L 55.368595 131.888248 
" clip-path="url(#p17786c7dc4)" style="fill: none; stroke: #000000; stroke-width: 1.2"/>
    <path d="M 94.633969 104.797908 
L 99.49608 157.972853 
" clip-path="url(#p17786c7dc4)" style="fill: none; stroke: #000000; stroke-width: 1.2"/>
    <path d="M 108.059102 124.153162 
L 130.090148 114.00584 
" clip-path="url(#p17786c7dc4)" style="fill: none; stroke: #000000; stroke-width: 1.2"/>
    <path d="M 108.059102 124.153162 
L 82.434559 101.676129 
" clip-path="url(#p17786c7dc4)" style="fill: none; stroke: #000000; stroke-width: 1.2"/>
    <path d="M 108.059102 124.153162 
L 89.071224 83.042395 
" clip-path="url(#p17786c7dc4)" style="fill: none; stroke: #000000; stroke-width: 1.2"/>
    <path d="M 108.059102 124.153162 
L 68.679936 102.864424 
" clip-path="url(#p17786c7dc4)" style="fill: none; stroke: #000000; stroke-width: 1.2"/>
    <path d="M 108.059102 124.153162 
L 77.021569 141.11308 
" clip-path="url(#p17786c7dc4)" style="fill: none; stroke: #000000; stroke-width: 1.2"/>
    <path d="M 108.059102 124.153162 
L 99.49608 157.972853 
" clip-path="url(#p17786c7dc4)" style="fill: none; stroke: #000000; stroke-width: 1.2"/>
    <path d="M 108.059102 124.153162 
L 69.12724 152.895315 
" clip-path="url(#p17786c7dc4)" style="fill: none; stroke: #000000; stroke-width: 1.2"/>
    <path d="M 130.090148 114.00584 
L 117.924883 94.73461 
" clip-path="url(#p17786c7dc4)" style="fill: none; stroke: #000000; stroke-width: 1.2"/>
    <path d="M 130.090148 114.00584 
L 104.986525 88.331545 
" clip-path="url(#p17786c7dc4)" style="fill: none; stroke: #000000; stroke-width: 1.2"/>
    <path d="M 130.090148 114.00584 
L 107.855473 111.807755 
" clip-path="url(#p17786c7dc4)" style="fill: none; stroke: #000000; stroke-width: 1.2"/>
    <path d="M 130.090148 114.00584 
L 99.49608 157.972853 
" clip-path="url(#p17786c7dc4)" style="fill: none; stroke: #000000; stroke-width: 1.2"/>
    <path d="M 130.090148 114.00584 
L 107.671056 146.115096 
" clip-path="url(#p17786c7dc4)" style="fill: none; stroke: #000000; stroke-width: 1.2"/>
    <path d="M 130.090148 114.00584 
L 124.009236 136.76684 
" clip-path="url(#p17786c7dc4)" style="fill: none; stroke: #000000; stroke-width: 1.2"/>
    <path d="M 82.434559 101.676129 
L 117.924883 94.73461 
" clip-path="url(#p17786c7dc4)" style="fill: none; stroke: #000000; stroke-width: 1.2"/>
    <path d="M 82.434559 101.676129 
L 89.071224 83.042395 
" clip-path="url(#p17786c7dc4)" style="fill: none; stroke: #000000; stroke-width: 1.2"/>
    <path d="M 82.434559 101.676129 
L 107.855473 111.807755 
" clip-path="url(#p17786c7dc4)" style="fill: none; stroke: #000000; stroke-width: 1.2"/>
    <path d="M 82.434559 101.676129 
L 68.679936 102.864424 
" clip-path="url(#p17786c7dc4)" style="fill: none; stroke: #000000; stroke-width: 1.2"/>
    <path d="M 82.434559 101.676129 
L 65.454197 131.816134 
" clip-path="url(#p17786c7dc4)" style="fill: none; stroke: #000000; stroke-width: 1.2"/>
    <path d="M 82.434559 101.676129 
L 100.567629 136.721609 
" clip-path="url(#p17786c7dc4)" style="fill: none; stroke: #000000; stroke-width: 1.2"/>
    <path d="M 82.434559 101.676129 
L 69.12724 152.895315 
" clip-path="url(#p17786c7dc4)" style="fill: none; stroke: #000000; stroke-width: 1.2"/>
    <path d="M 117.924883 94.73461 
L 89.071224 83.042395 
" clip-path="url(#p17786c7dc4)" style="fill: none; stroke: #000000; stroke-width: 1.2"/>
    <path d="M 117.924883 94.73461 
L 104.986525 88.331545 
" clip-path="url(#p17786c7dc4)" style="fill: none; stroke: #000000; stroke-width: 1.2"/>
    <path d="M 117.924883 94.73461 
L 86.296801 130.317486 
" clip-path="url(#p17786c7dc4)" style="fill: none; stroke: #000000; stroke-width: 1.2"/>
    <path d="M 117.924883 94.73461 
L 100.567629 136.721609 
" clip-path="url(#p17786c7dc4)" style="fill: none; stroke: #000000; stroke-width: 1.2"/>
    <path d="M 117.924883 94.73461 
L 124.009236 136.76684 
" clip-path="url(#p17786c7dc4)" style="fill: none; stroke: #000000; stroke-width: 1.2"/>
    <path d="M 89.071224 83.042395 
L 104.986525 88.331545 
" clip-path="url(#p17786c7dc4)" style="fill: none; stroke: #000000; stroke-width: 1.2"/>
    <path d="M 89.071224 83.042395 
L 77.021569 141.11308 
" clip-path="url(#p17786c7dc4)" style="fill: none; stroke: #000000; stroke-width: 1.2"/>
    <path d="M 89.071224 83.042395 
L 100.567629 136.721609 
" clip-path="url(#p17786c7dc4)" style="fill: none; stroke: #000000; stroke-width: 1.2"/>
    <path d="M 89.071224 83.042395 
L 77.03644 118.174563 
" clip-path="url(#p17786c7dc4)" style="fill: none; stroke: #000000; stroke-width: 1.2"/>
    <path d="M 104.986525 88.331545 
L 107.855473 111.807755 
" clip-path="url(#p17786c7dc4)" style="fill: none; stroke: #000000; stroke-width: 1.2"/>
    <path d="M 104.986525 88.331545 
L 68.679936 102.864424 
" clip-path="url(#p17786c7dc4)" style="fill: none; stroke: #000000; stroke-width: 1.2"/>
    <path d="M 104.986525 88.331545 
L 77.03644 118.174563 
" clip-path="url(#p17786c7dc4)" style="fill: none; stroke: #000000; stroke-width: 1.2"/>
    <path d="M 104.986525 88.331545 
L 124.009236 136.76684 
" clip-path="url(#p17786c7dc4)" style="fill: none; stroke: #000000; stroke-width: 1.2"/>
    <path d="M 104.986525 88.331545 
L 88.188116 146.47221 
" clip-path="url(#p17786c7dc4)" style="fill: none; stroke: #000000; stroke-width: 1.2"/>
    <path d="M 107.855473 111.807755 
L 68.679936 102.864424 
" clip-path="url(#p17786c7dc4)" style="fill: none; stroke: #000000; stroke-width: 1.2"/>
    <path d="M 107.855473 111.807755 
L 107.671056 146.115096 
" clip-path="url(#p17786c7dc4)" style="fill: none; stroke: #000000; stroke-width: 1.2"/>
    <path d="M 107.855473 111.807755 
L 65.454197 131.816134 
" clip-path="url(#p17786c7dc4)" style="fill: none; stroke: #000000; stroke-width: 1.2"/>
    <path d="M 107.855473 111.807755 
L 88.188116 146.47221 
" clip-path="url(#p17786c7dc4)" style="fill: none; stroke: #000000; stroke-width: 1.2"/>
    <path d="M 68.679936 102.864424 
L 55.368595 131.888248 
" clip-path="url(#p17786c7dc4)" style="fill: none; stroke: #000000; stroke-width: 1.2"/>
    <path d="M 68.679936 102.864424 
L 88.188116 146.47221 
" clip-path="url(#p17786c7dc4)" style="fill: none; stroke: #000000; stroke-width: 1.2"/>
    <path d="M 68.679936 102.864424 
L 69.12724 152.895315 
" clip-path="url(#p17786c7dc4)" style="fill: none; stroke: #000000; stroke-width: 1.2"/>
    <path d="M 77.021569 141.11308 
L 56.235541 111.028781 
" clip-path="url(#p17786c7dc4)" style="fill: none; stroke: #000000; stroke-width: 1.2"/>
    <path d="M 77.021569 141.11308 
L 99.49608 157.972853 
" clip-path="url(#p17786c7dc4)" style="fill: none; stroke: #000000; stroke-width: 1.2"/>
    <path d="M 77.021569 141.11308 
L 107.671056 146.115096 
" clip-path="url(#p17786c7dc4)" style="fill: none; stroke: #000000; stroke-width: 1.2"/>
    <path d="M 77.021569 141.11308 
L 100.567629 136.721609 
" clip-path="url(#p17786c7dc4)" style="fill: none; stroke: #000000; stroke-width: 1.2"/>
    <path d="M 77.021569 141.11308 
L 77.03644 118.174563 
" clip-path="url(#p17786c7dc4)" style="fill: none; stroke: #000000; stroke-width: 1.2"/>
    <path d="M 77.021569 141.11308 
L 69.12724 152.895315 
" clip-path="url(#p17786c7dc4)" style="fill: none; stroke: #000000; stroke-width: 1.2"/>
    <path d="M 56.235541 111.028781 
L 86.296801 130.317486 
" clip-path="url(#p17786c7dc4)" style="fill: none; stroke: #000000; stroke-width: 1.2"/>
    <path d="M 56.235541 111.028781 
L 55.368595 131.888248 
" clip-path="url(#p17786c7dc4)" style="fill: none; stroke: #000000; stroke-width: 1.2"/>
    <path d="M 56.235541 111.028781 
L 107.671056 146.115096 
" clip-path="url(#p17786c7dc4)" style="fill: none; stroke: #000000; stroke-width: 1.2"/>
    <path d="M 56.235541 111.028781 
L 65.454197 131.816134 
" clip-path="url(#p17786c7dc4)" style="fill: none; stroke: #000000; stroke-width: 1.2"/>
    <path d="M 56.235541 111.028781 
L 77.03644 118.174563 
" clip-path="url(#p17786c7dc4)" style="fill: none; stroke: #000000; stroke-width: 1.2"/>
    <path d="M 86.296801 130.317486 
L 55.368595 131.888248 
" clip-path="url(#p17786c7dc4)" style="fill: none; stroke: #000000; stroke-width: 1.2"/>
    <path d="M 86.296801 130.317486 
L 99.49608 157.972853 
" clip-path="url(#p17786c7dc4)" style="fill: none; stroke: #000000; stroke-width: 1.2"/>
    <path d="M 86.296801 130.317486 
L 65.454197 131.816134 
" clip-path="url(#p17786c7dc4)" style="fill: none; stroke: #000000; stroke-width: 1.2"/>
    <path d="M 86.296801 130.317486 
L 100.567629 136.721609 
" clip-path="url(#p17786c7dc4)" style="fill: none; stroke: #000000; stroke-width: 1.2"/>
    <path d="M 86.296801 130.317486 
L 124.009236 136.76684 
" clip-path="url(#p17786c7dc4)" style="fill: none; stroke: #000000; stroke-width: 1.2"/>
    <path d="M 55.368595 131.888248 
L 99.49608 157.972853 
" clip-path="url(#p17786c7dc4)" style="fill: none; stroke: #000000; stroke-width: 1.2"/>
    <path d="M 55.368595 131.888248 
L 77.03644 118.174563 
" clip-path="url(#p17786c7dc4)" style="fill: none; stroke: #000000; stroke-width: 1.2"/>
    <path d="M 55.368595 131.888248 
L 88.188116 146.47221 
" clip-path="url(#p17786c7dc4)" style="fill: none; stroke: #000000; stroke-width: 1.2"/>
    <path d="M 55.368595 131.888248 
L 69.12724 152.895315 
" clip-path="url(#p17786c7dc4)" style="fill: none; stroke: #000000; stroke-width: 1.2"/>
    <path d="M 99.49608 157.972853 
L 107.671056 146.115096 
" clip-path="url(#p17786c7dc4)" style="fill: none; stroke: #000000; stroke-width: 1.2"/>
    <path d="M 99.49608 157.972853 
L 124.009236 136.76684 
" clip-path="url(#p17786c7dc4)" style="fill: none; stroke: #000000; stroke-width: 1.2"/>
    <path d="M 99.49608 157.972853 
L 69.12724 152.895315 
" clip-path="url(#p17786c7dc4)" style="fill: none; stroke: #000000; stroke-width: 1.2"/>
    <path d="M 107.671056 146.115096 
L 65.454197 131.816134 
" clip-path="url(#p17786c7dc4)" style="fill: none; stroke: #000000; stroke-width: 1.2"/>
    <path d="M 107.671056 146.115096 
L 124.009236 136.76684 
" clip-path="url(#p17786c7dc4)" style="fill: none; stroke: #000000; stroke-width: 1.2"/>
    <path d="M 107.671056 146.115096 
L 88.188116 146.47221 
" clip-path="url(#p17786c7dc4)" style="fill: none; stroke: #000000; stroke-width: 1.2"/>
    <path d="M 65.454197 131.816134 
L 100.567629 136.721609 
" clip-path="url(#p17786c7dc4)" style="fill: none; stroke: #000000; stroke-width: 1.2"/>
    <path d="M 65.454197 131.816134 
L 88.188116 146.47221 
" clip-path="url(#p17786c7dc4)" style="fill: none; stroke: #000000; stroke-width: 1.2"/>
    <path d="M 65.454197 131.816134 
L 69.12724 152.895315 
" clip-path="url(#p17786c7dc4)" style="fill: none; stroke: #000000; stroke-width: 1.2"/>
    <path d="M 100.567629 136.721609 
L 77.03644 118.174563 
" clip-path="url(#p17786c7dc4)" style="fill: none; stroke: #000000; stroke-width: 1.2"/>
    <path d="M 100.567629 136.721609 
L 124.009236 136.76684 
" clip-path="url(#p17786c7dc4)" style="fill: none; stroke: #000000; stroke-width: 1.2"/>
    <path d="M 100.567629 136.721609 
L 69.12724 152.895315 
" clip-path="url(#p17786c7dc4)" style="fill: none; stroke: #000000; stroke-width: 1.2"/>
    <path d="M 77.03644 118.174563 
L 124.009236 136.76684 
" clip-path="url(#p17786c7dc4)" style="fill: none; stroke: #000000; stroke-width: 1.2"/>
    <path d="M 77.03644 118.174563 
L 88.188116 146.47221 
" clip-path="url(#p17786c7dc4)" style="fill: none; stroke: #000000; stroke-width: 1.2"/>
    <path d="M 124.009236 136.76684 
L 88.188116 146.47221 
" clip-path="url(#p17786c7dc4)" style="fill: none; stroke: #000000; stroke-width: 1.2"/>
    <path d="M 124.009236 136.76684 
L 150.613753 166.026454 
" clip-path="url(#p17786c7dc4)" style="fill: none; stroke: #000000; stroke-width: 1.2"/>
    <path d="M 88.188116 146.47221 
L 69.12724 152.895315 
" clip-path="url(#p17786c7dc4)" style="fill: none; stroke: #000000; stroke-width: 1.2"/>
    <path d="M 170.910733 237.076364 
L 173.291282 195.59255 
" clip-path="url(#p17786c7dc4)" style="fill: none; stroke: #000000; stroke-width: 1.2"/>
    <path d="M 239.831405 208.143594 
L 208.504883 197.920589 
" clip-path="url(#p17786c7dc4)" style="fill: none; stroke: #000000; stroke-width: 1.2"/>
    <path d="M 173.291282 195.59255 
L 150.613753 166.026454 
" clip-path="url(#p17786c7dc4)" style="fill: none; stroke: #000000; stroke-width: 1.2"/>
    <path d="M 173.291282 195.59255 
L 208.504883 197.920589 
" clip-path="url(#p17786c7dc4)" style="fill: none; stroke: #000000; stroke-width: 1.2"/>
   </g>
   <g id="PathCollection_1">
    <defs>
     <path id="C0_0_affed9b1c6" d="M 0 8.944272 
C 2.372049 8.944272 4.647264 8.001847 6.324555 6.324555 
C 8.001847 4.647264 8.944272 2.372049 8.944272 -0 
C 8.944272 -2.372049 8.001847 -4.647264 6.324555 -6.324555 
C 4.647264 -8.001847 2.372049 -8.944272 0 -8.944272 
C -2.372049 -8.944272 -4.647264 -8.001847 -6.324555 -6.324555 
C -8.001847 -4.647264 -8.944272 -2.372049 -8.944272 0 
C -8.944272 2.372049 -8.001847 4.647264 -6.324555 6.324555 
C -4.647264 8.001847 -2.372049 8.944272 0 8.944272 
z
"/>
    </defs>
    <g clip-path="url(#p17786c7dc4)">
     <use xlink:href="#C0_0_affed9b1c6" x="137.618378" y="75.668316" style="fill: #4fd14f; stroke: #4fd14f; stroke-width: 0.5"/>
    </g>
    <g clip-path="url(#p17786c7dc4)">
     <use xlink:href="#C0_0_affed9b1c6" x="144.085657" y="96.976247" style="fill: #4fd14f; stroke: #4fd14f; stroke-width: 0.5"/>
    </g>
    <g clip-path="url(#p17786c7dc4)">
     <use xlink:href="#C0_0_affed9b1c6" x="101.295857" y="55.551746" style="fill: #4fd14f; stroke: #4fd14f; stroke-width: 0.5"/>
    </g>
    <g clip-path="url(#p17786c7dc4)">
     <use xlink:href="#C0_0_affed9b1c6" x="116.71138" y="53.803636" style="fill: #4fd14f; stroke: #4fd14f; stroke-width: 0.5"/>
    </g>
    <g clip-path="url(#p17786c7dc4)">
     <use xlink:href="#C0_0_affed9b1c6" x="127.163338" y="69.44209" style="fill: #4fd14f; stroke: #4fd14f; stroke-width: 0.5"/>
    </g>
    <g clip-path="url(#p17786c7dc4)">
     <use xlink:href="#C0_0_affed9b1c6" x="85.22718" y="54.554701" style="fill: #4fd14f; stroke: #4fd14f; stroke-width: 0.5"/>
    </g>
    <g clip-path="url(#p17786c7dc4)">
     <use xlink:href="#C0_0_affed9b1c6" x="100.864418" y="98.645518" style="fill: #4fd14f; stroke: #4fd14f; stroke-width: 0.5"/>
    </g>
    <g clip-path="url(#p17786c7dc4)">
     <use xlink:href="#C0_0_affed9b1c6" x="63.83471" y="82.695304" style="fill: #4fd14f; stroke: #4fd14f; stroke-width: 0.5"/>
    </g>
    <g clip-path="url(#p17786c7dc4)">
     <use xlink:href="#C0_0_affed9b1c6" x="77.717165" y="82.553857" style="fill: #4fd14f; stroke: #4fd14f; stroke-width: 0.5"/>
    </g>
    <g clip-path="url(#p17786c7dc4)">
     <use xlink:href="#C0_0_affed9b1c6" x="94.633969" y="104.797908" style="fill: #4fd14f; stroke: #4fd14f; stroke-width: 0.5"/>
    </g>
    <g clip-path="url(#p17786c7dc4)">
     <use xlink:href="#C0_0_affed9b1c6" x="108.059102" y="124.153162" style="fill: #4fd14f; stroke: #4fd14f; stroke-width: 0.5"/>
    </g>
    <g clip-path="url(#p17786c7dc4)">
     <use xlink:href="#C0_0_affed9b1c6" x="130.090148" y="114.00584" style="fill: #4fd14f; stroke: #4fd14f; stroke-width: 0.5"/>
    </g>
    <g clip-path="url(#p17786c7dc4)">
     <use xlink:href="#C0_0_affed9b1c6" x="82.434559" y="101.676129" style="fill: #4fd14f; stroke: #4fd14f; stroke-width: 0.5"/>
    </g>
    <g clip-path="url(#p17786c7dc4)">
     <use xlink:href="#C0_0_affed9b1c6" x="117.924883" y="94.73461" style="fill: #4fd14f; stroke: #4fd14f; stroke-width: 0.5"/>
    </g>
    <g clip-path="url(#p17786c7dc4)">
     <use xlink:href="#C0_0_affed9b1c6" x="89.071224" y="83.042395" style="fill: #4fd14f; stroke: #4fd14f; stroke-width: 0.5"/>
    </g>
    <g clip-path="url(#p17786c7dc4)">
     <use xlink:href="#C0_0_affed9b1c6" x="104.986525" y="88.331545" style="fill: #4fd14f; stroke: #4fd14f; stroke-width: 0.5"/>
    </g>
    <g clip-path="url(#p17786c7dc4)">
     <use xlink:href="#C0_0_affed9b1c6" x="107.855473" y="111.807755" style="fill: #4fd14f; stroke: #4fd14f; stroke-width: 0.5"/>
    </g>
    <g clip-path="url(#p17786c7dc4)">
     <use xlink:href="#C0_0_affed9b1c6" x="68.679936" y="102.864424" style="fill: #4fd14f; stroke: #4fd14f; stroke-width: 0.5"/>
    </g>
    <g clip-path="url(#p17786c7dc4)">
     <use xlink:href="#C0_0_affed9b1c6" x="77.021569" y="141.11308" style="fill: #4fd14f; stroke: #4fd14f; stroke-width: 0.5"/>
    </g>
    <g clip-path="url(#p17786c7dc4)">
     <use xlink:href="#C0_0_affed9b1c6" x="56.235541" y="111.028781" style="fill: #4fd14f; stroke: #4fd14f; stroke-width: 0.5"/>
    </g>
    <g clip-path="url(#p17786c7dc4)">
     <use xlink:href="#C0_0_affed9b1c6" x="86.296801" y="130.317486" style="fill: #4fd14f; stroke: #4fd14f; stroke-width: 0.5"/>
    </g>
    <g clip-path="url(#p17786c7dc4)">
     <use xlink:href="#C0_0_affed9b1c6" x="55.368595" y="131.888248" style="fill: #4fd14f; stroke: #4fd14f; stroke-width: 0.5"/>
    </g>
    <g clip-path="url(#p17786c7dc4)">
     <use xlink:href="#C0_0_affed9b1c6" x="99.49608" y="157.972853" style="fill: #4fd14f; stroke: #4fd14f; stroke-width: 0.5"/>
    </g>
    <g clip-path="url(#p17786c7dc4)">
     <use xlink:href="#C0_0_affed9b1c6" x="107.671056" y="146.115096" style="fill: #4fd14f; stroke: #4fd14f; stroke-width: 0.5"/>
    </g>
    <g clip-path="url(#p17786c7dc4)">
     <use xlink:href="#C0_0_affed9b1c6" x="65.454197" y="131.816134" style="fill: #4fd14f; stroke: #4fd14f; stroke-width: 0.5"/>
    </g>
    <g clip-path="url(#p17786c7dc4)">
     <use xlink:href="#C0_0_affed9b1c6" x="100.567629" y="136.721609" style="fill: #4fd14f; stroke: #4fd14f; stroke-width: 0.5"/>
    </g>
    <g clip-path="url(#p17786c7dc4)">
     <use xlink:href="#C0_0_affed9b1c6" x="77.03644" y="118.174563" style="fill: #4fd14f; stroke: #4fd14f; stroke-width: 0.5"/>
    </g>
    <g clip-path="url(#p17786c7dc4)">
     <use xlink:href="#C0_0_affed9b1c6" x="124.009236" y="136.76684" style="fill: #4fd14f; stroke: #4fd14f; stroke-width: 0.5"/>
    </g>
    <g clip-path="url(#p17786c7dc4)">
     <use xlink:href="#C0_0_affed9b1c6" x="88.188116" y="146.47221" style="fill: #4fd14f; stroke: #4fd14f; stroke-width: 0.5"/>
    </g>
    <g clip-path="url(#p17786c7dc4)">
     <use xlink:href="#C0_0_affed9b1c6" x="69.12724" y="152.895315" style="fill: #4fd14f; stroke: #4fd14f; stroke-width: 0.5"/>
    </g>
    <g clip-path="url(#p17786c7dc4)">
     <use xlink:href="#C0_0_affed9b1c6" x="170.910733" y="237.076364" style="fill: #bfbfbf; stroke: #bfbfbf; stroke-width: 0.5"/>
    </g>
    <g clip-path="url(#p17786c7dc4)">
     <use xlink:href="#C0_0_affed9b1c6" x="239.831405" y="208.143594" style="fill: #bfbfbf; stroke: #bfbfbf; stroke-width: 0.5"/>
    </g>
    <g clip-path="url(#p17786c7dc4)">
     <use xlink:href="#C0_0_affed9b1c6" x="173.291282" y="195.59255" style="fill: #666666; stroke: #666666; stroke-width: 0.5"/>
    </g>
    <g clip-path="url(#p17786c7dc4)">
     <use xlink:href="#C0_0_affed9b1c6" x="150.613753" y="166.026454" style="fill: #ff0d0d; stroke: #ff0d0d; stroke-width: 0.5"/>
    </g>
    <g clip-path="url(#p17786c7dc4)">
     <use xlink:href="#C0_0_affed9b1c6" x="208.504883" y="197.920589" style="fill: #ff0d0d; stroke: #ff0d0d; stroke-width: 0.5"/>
    </g>
   </g>
   <g id="text_1">
    <!-- CH2Ni48O2 -->
    <g transform="translate(112.727574 -24.404967) scale(0.1 -0.1)">
     <defs>
      <path id="DejaVuSans-43" d="M 4122 4306 
L 4122 3641 
Q 3803 3938 3442 4084 
Q 3081 4231 2675 4231 
Q 1875 4231 1450 3742 
Q 1025 3253 1025 2328 
Q 1025 1406 1450 917 
Q 1875 428 2675 428 
Q 3081 428 3442 575 
Q 3803 722 4122 1019 
L 4122 359 
Q 3791 134 3420 21 
Q 3050 -91 2638 -91 
Q 1578 -91 968 557 
Q 359 1206 359 2328 
Q 359 3453 968 4101 
Q 1578 4750 2638 4750 
Q 3056 4750 3426 4639 
Q 3797 4528 4122 4306 
z
" transform="scale(0.015625)"/>
      <path id="DejaVuSans-48" d="M 628 4666 
L 1259 4666 
L 1259 2753 
L 3553 2753 
L 3553 4666 
L 4184 4666 
L 4184 0 
L 3553 0 
L 3553 2222 
L 1259 2222 
L 1259 0 
L 628 0 
L 628 4666 
z
" transform="scale(0.015625)"/>
      <path id="DejaVuSans-32" d="M 1228 531 
L 3431 531 
L 3431 0 
L 469 0 
L 469 531 
Q 828 903 1448 1529 
Q 2069 2156 2228 2338 
Q 2531 2678 2651 2914 
Q 2772 3150 2772 3378 
Q 2772 3750 2511 3984 
Q 2250 4219 1831 4219 
Q 1534 4219 1204 4116 
Q 875 4013 500 3803 
L 500 4441 
Q 881 4594 1212 4672 
Q 1544 4750 1819 4750 
Q 2544 4750 2975 4387 
Q 3406 4025 3406 3419 
Q 3406 3131 3298 2873 
Q 3191 2616 2906 2266 
Q 2828 2175 2409 1742 
Q 1991 1309 1228 531 
z
" transform="scale(0.015625)"/>
      <path id="DejaVuSans-4e" d="M 628 4666 
L 1478 4666 
L 3547 763 
L 3547 4666 
L 4159 4666 
L 4159 0 
L 3309 0 
L 1241 3903 
L 1241 0 
L 628 0 
L 628 4666 
z
" transform="scale(0.015625)"/>
      <path id="DejaVuSans-69" d="M 603 3500 
L 1178 3500 
L 1178 0 
L 603 0 
L 603 3500 
z
M 603 4863 
L 1178 4863 
L 1178 4134 
L 603 4134 
L 603 4863 
z
" transform="scale(0.015625)"/>
      <path id="DejaVuSans-34" d="M 2419 4116 
L 825 1625 
L 2419 1625 
L 2419 4116 
z
M 2253 4666 
L 3047 4666 
L 3047 1625 
L 3713 1625 
L 3713 1100 
L 3047 1100 
L 3047 0 
L 2419 0 
L 2419 1100 
L 313 1100 
L 313 1709 
L 2253 4666 
z
" transform="scale(0.015625)"/>
      <path id="DejaVuSans-38" d="M 2034 2216 
Q 1584 2216 1326 1975 
Q 1069 1734 1069 1313 
Q 1069 891 1326 650 
Q 1584 409 2034 409 
Q 2484 409 2743 651 
Q 3003 894 3003 1313 
Q 3003 1734 2745 1975 
Q 2488 2216 2034 2216 
z
M 1403 2484 
Q 997 2584 770 2862 
Q 544 3141 544 3541 
Q 544 4100 942 4425 
Q 1341 4750 2034 4750 
Q 2731 4750 3128 4425 
Q 3525 4100 3525 3541 
Q 3525 3141 3298 2862 
Q 3072 2584 2669 2484 
Q 3125 2378 3379 2068 
Q 3634 1759 3634 1313 
Q 3634 634 3220 271 
Q 2806 -91 2034 -91 
Q 1263 -91 848 271 
Q 434 634 434 1313 
Q 434 1759 690 2068 
Q 947 2378 1403 2484 
z
M 1172 3481 
Q 1172 3119 1398 2916 
Q 1625 2713 2034 2713 
Q 2441 2713 2670 2916 
Q 2900 3119 2900 3481 
Q 2900 3844 2670 4047 
Q 2441 4250 2034 4250 
Q 1625 4250 1398 4047 
Q 1172 3844 1172 3481 
z
" transform="scale(0.015625)"/>
      <path id="DejaVuSans-4f" d="M 2522 4238 
Q 1834 4238 1429 3725 
Q 1025 3213 1025 2328 
Q 1025 1447 1429 934 
Q 1834 422 2522 422 
Q 3209 422 3611 934 
Q 4013 1447 4013 2328 
Q 4013 3213 3611 3725 
Q 3209 4238 2522 4238 
z
M 2522 4750 
Q 3503 4750 4090 4092 
Q 4678 3434 4678 2328 
Q 4678 1225 4090 567 
Q 3503 -91 2522 -91 
Q 1538 -91 948 565 
Q 359 1222 359 2328 
Q 359 3434 948 4092 
Q 1538 4750 2522 4750 
z
" transform="scale(0.015625)"/>
     </defs>
     <use xlink:href="#DejaVuSans-43"/>
     <use xlink:href="#DejaVuSans-48" transform="translate(69.824219 0)"/>
     <use xlink:href="#DejaVuSans-32" transform="translate(145.019531 0)"/>
     <use xlink:href="#DejaVuSans-4e" transform="translate(208.642578 0)"/>
     <use xlink:href="#DejaVuSans-69" transform="translate(283.447266 0)"/>
     <use xlink:href="#DejaVuSans-34" transform="translate(311.230469 0)"/>
     <use xlink:href="#DejaVuSans-38" transform="translate(374.853516 0)"/>
     <use xlink:href="#DejaVuSans-4f" transform="translate(438.476562 0)"/>
     <use xlink:href="#DejaVuSans-32" transform="translate(517.1875 0)"/>
    </g>
    <!-- Error: -7.20 eV -->
    <g transform="translate(112.727574 -13.207154) scale(0.1 -0.1)">
     <defs>
      <path id="DejaVuSans-45" d="M 628 4666 
L 3578 4666 
L 3578 4134 
L 1259 4134 
L 1259 2753 
L 3481 2753 
L 3481 2222 
L 1259 2222 
L 1259 531 
L 3634 531 
L 3634 0 
L 628 0 
L 628 4666 
z
" transform="scale(0.015625)"/>
      <path id="DejaVuSans-72" d="M 2631 2963 
Q 2534 3019 2420 3045 
Q 2306 3072 2169 3072 
Q 1681 3072 1420 2755 
Q 1159 2438 1159 1844 
L 1159 0 
L 581 0 
L 581 3500 
L 1159 3500 
L 1159 2956 
Q 1341 3275 1631 3429 
Q 1922 3584 2338 3584 
Q 2397 3584 2469 3576 
Q 2541 3569 2628 3553 
L 2631 2963 
z
" transform="scale(0.015625)"/>
      <path id="DejaVuSans-6f" d="M 1959 3097 
Q 1497 3097 1228 2736 
Q 959 2375 959 1747 
Q 959 1119 1226 758 
Q 1494 397 1959 397 
Q 2419 397 2687 759 
Q 2956 1122 2956 1747 
Q 2956 2369 2687 2733 
Q 2419 3097 1959 3097 
z
M 1959 3584 
Q 2709 3584 3137 3096 
Q 3566 2609 3566 1747 
Q 3566 888 3137 398 
Q 2709 -91 1959 -91 
Q 1206 -91 779 398 
Q 353 888 353 1747 
Q 353 2609 779 3096 
Q 1206 3584 1959 3584 
z
" transform="scale(0.015625)"/>
      <path id="DejaVuSans-3a" d="M 750 794 
L 1409 794 
L 1409 0 
L 750 0 
L 750 794 
z
M 750 3309 
L 1409 3309 
L 1409 2516 
L 750 2516 
L 750 3309 
z
" transform="scale(0.015625)"/>
      <path id="DejaVuSans-20" transform="scale(0.015625)"/>
      <path id="DejaVuSans-2d" d="M 313 2009 
L 1997 2009 
L 1997 1497 
L 313 1497 
L 313 2009 
z
" transform="scale(0.015625)"/>
      <path id="DejaVuSans-37" d="M 525 4666 
L 3525 4666 
L 3525 4397 
L 1831 0 
L 1172 0 
L 2766 4134 
L 525 4134 
L 525 4666 
z
" transform="scale(0.015625)"/>
      <path id="DejaVuSans-2e" d="M 684 794 
L 1344 794 
L 1344 0 
L 684 0 
L 684 794 
z
" transform="scale(0.015625)"/>
      <path id="DejaVuSans-30" d="M 2034 4250 
Q 1547 4250 1301 3770 
Q 1056 3291 1056 2328 
Q 1056 1369 1301 889 
Q 1547 409 2034 409 
Q 2525 409 2770 889 
Q 3016 1369 3016 2328 
Q 3016 3291 2770 3770 
Q 2525 4250 2034 4250 
z
M 2034 4750 
Q 2819 4750 3233 4129 
Q 3647 3509 3647 2328 
Q 3647 1150 3233 529 
Q 2819 -91 2034 -91 
Q 1250 -91 836 529 
Q 422 1150 422 2328 
Q 422 3509 836 4129 
Q 1250 4750 2034 4750 
z
" transform="scale(0.015625)"/>
      <path id="DejaVuSans-65" d="M 3597 1894 
L 3597 1613 
L 953 1613 
Q 991 1019 1311 708 
Q 1631 397 2203 397 
Q 2534 397 2845 478 
Q 3156 559 3463 722 
L 3463 178 
Q 3153 47 2828 -22 
Q 2503 -91 2169 -91 
Q 1331 -91 842 396 
Q 353 884 353 1716 
Q 353 2575 817 3079 
Q 1281 3584 2069 3584 
Q 2775 3584 3186 3129 
Q 3597 2675 3597 1894 
z
M 3022 2063 
Q 3016 2534 2758 2815 
Q 2500 3097 2075 3097 
Q 1594 3097 1305 2825 
Q 1016 2553 972 2059 
L 3022 2063 
z
" transform="scale(0.015625)"/>
      <path id="DejaVuSans-56" d="M 1831 0 
L 50 4666 
L 709 4666 
L 2188 738 
L 3669 4666 
L 4325 4666 
L 2547 0 
L 1831 0 
z
" transform="scale(0.015625)"/>
     </defs>
     <use xlink:href="#DejaVuSans-45"/>
     <use xlink:href="#DejaVuSans-72" transform="translate(63.183594 0)"/>
     <use xlink:href="#DejaVuSans-72" transform="translate(102.546875 0)"/>
     <use xlink:href="#DejaVuSans-6f" transform="translate(141.410156 0)"/>
     <use xlink:href="#DejaVuSans-72" transform="translate(202.591797 0)"/>
     <use xlink:href="#DejaVuSans-3a" transform="translate(241.955078 0)"/>
     <use xlink:href="#DejaVuSans-20" transform="translate(275.646484 0)"/>
     <use xlink:href="#DejaVuSans-2d" transform="translate(307.433594 0)"/>
     <use xlink:href="#DejaVuSans-37" transform="translate(343.517578 0)"/>
     <use xlink:href="#DejaVuSans-2e" transform="translate(407.140625 0)"/>
     <use xlink:href="#DejaVuSans-32" transform="translate(438.927734 0)"/>
     <use xlink:href="#DejaVuSans-30" transform="translate(502.550781 0)"/>
     <use xlink:href="#DejaVuSans-20" transform="translate(566.173828 0)"/>
     <use xlink:href="#DejaVuSans-65" transform="translate(597.960938 0)"/>
     <use xlink:href="#DejaVuSans-56" transform="translate(659.484375 0)"/>
    </g>
   </g>
  </g>
 </g>
 <defs>
  <clipPath id="p17786c7dc4">
   <rect x="36" y="34.56" width="223.2" height="221.76"/>
  </clipPath>
 </defs>
</svg>
