<?xml version="1.0" encoding="utf-8" standalone="no"?>
<!DOCTYPE svg PUBLIC "-//W3C//DTD SVG 1.1//EN"
  "http://www.w3.org/Graphics/SVG/1.1/DTD/svg11.dtd">
<svg xmlns:xlink="http://www.w3.org/1999/xlink" width="288pt" height="288pt" viewBox="0 0 288 288" xmlns="http://www.w3.org/2000/svg" version="1.1">
 <metadata>
  <rdf:RDF xmlns:dc="http://purl.org/dc/elements/1.1/" xmlns:cc="http://creativecommons.org/ns#" xmlns:rdf="http://www.w3.org/1999/02/22-rdf-syntax-ns#">
   <cc:Work>
    <dc:type rdf:resource="http://purl.org/dc/dcmitype/StillImage"/>
    <dc:date>2025-06-05T10:29:55.889137</dc:date>
    <dc:format>image/svg+xml</dc:format>
    <dc:creator>
     <cc:Agent>
      <dc:title>Matplotlib v3.10.1, https://matplotlib.org/</dc:title>
     </cc:Agent>
    </dc:creator>
   </cc:Work>
  </rdf:RDF>
 </metadata>
 <defs>
  <style type="text/css">*{stroke-linejoin: round; stroke-linecap: butt}</style>
 </defs>
 <g id="figure_1">
  <g id="patch_1">
   <path d="M 0 288 
L 288 288 
L 288 0 
L 0 0 
z
" style="fill: #ffffff"/>
  </g>
  <g id="axes_1">
   <g id="LineCollection_1">
    <path d="M 239.831405 202.587334 
L 204.149643 205.431539 
" clip-path="url(#pe6c08e4c36)" style="fill: none; stroke: #000000; stroke-width: 1.2"/>
    <path d="M 160.498924 120.911414 
L 174.829562 84.687797 
" clip-path="url(#pe6c08e4c36)" style="fill: none; stroke: #000000; stroke-width: 1.2"/>
    <path d="M 160.498924 120.911414 
L 189.127518 106.690805 
" clip-path="url(#pe6c08e4c36)" style="fill: none; stroke: #000000; stroke-width: 1.2"/>
    <path d="M 160.498924 120.911414 
L 131.122121 100.958795 
" clip-path="url(#pe6c08e4c36)" style="fill: none; stroke: #000000; stroke-width: 1.2"/>
    <path d="M 160.498924 120.911414 
L 188.546315 124.818869 
" clip-path="url(#pe6c08e4c36)" style="fill: none; stroke: #000000; stroke-width: 1.2"/>
    <path d="M 160.498924 120.911414 
L 127.37532 119.981467 
" clip-path="url(#pe6c08e4c36)" style="fill: none; stroke: #000000; stroke-width: 1.2"/>
    <path d="M 160.498924 120.911414 
L 160.111905 155.695768 
" clip-path="url(#pe6c08e4c36)" style="fill: none; stroke: #000000; stroke-width: 1.2"/>
    <path d="M 203.907235 65.214752 
L 174.829562 84.687797 
" clip-path="url(#pe6c08e4c36)" style="fill: none; stroke: #000000; stroke-width: 1.2"/>
    <path d="M 95.600856 100.686059 
L 62.46229 98.88601 
" clip-path="url(#pe6c08e4c36)" style="fill: none; stroke: #000000; stroke-width: 1.2"/>
    <path d="M 95.600856 100.686059 
L 95.336069 138.953256 
" clip-path="url(#pe6c08e4c36)" style="fill: none; stroke: #000000; stroke-width: 1.2"/>
    <path d="M 95.600856 100.686059 
L 131.122121 100.958795 
" clip-path="url(#pe6c08e4c36)" style="fill: none; stroke: #000000; stroke-width: 1.2"/>
    <path d="M 95.600856 100.686059 
L 88.971676 66.424763 
" clip-path="url(#pe6c08e4c36)" style="fill: none; stroke: #000000; stroke-width: 1.2"/>
    <path d="M 95.600856 100.686059 
L 74.059193 87.703071 
" clip-path="url(#pe6c08e4c36)" style="fill: none; stroke: #000000; stroke-width: 1.2"/>
    <path d="M 95.600856 100.686059 
L 60.405536 113.816836 
" clip-path="url(#pe6c08e4c36)" style="fill: none; stroke: #000000; stroke-width: 1.2"/>
    <path d="M 223.602054 94.43736 
L 189.127518 106.690805 
" clip-path="url(#pe6c08e4c36)" style="fill: none; stroke: #000000; stroke-width: 1.2"/>
    <path d="M 74.059193 87.703071 
L 86.369304 119.632538 
" clip-path="url(#pe6c08e4c36)" style="fill: none; stroke: #000000; stroke-width: 1.2"/>
    <path d="M 157.40384 103.427118 
L 189.127518 106.690805 
" clip-path="url(#pe6c08e4c36)" style="fill: none; stroke: #000000; stroke-width: 1.2"/>
    <path d="M 157.40384 103.427118 
L 131.122121 100.958795 
" clip-path="url(#pe6c08e4c36)" style="fill: none; stroke: #000000; stroke-width: 1.2"/>
    <path d="M 157.40384 103.427118 
L 188.546315 124.818869 
" clip-path="url(#pe6c08e4c36)" style="fill: none; stroke: #000000; stroke-width: 1.2"/>
    <path d="M 157.40384 103.427118 
L 127.37532 119.981467 
" clip-path="url(#pe6c08e4c36)" style="fill: none; stroke: #000000; stroke-width: 1.2"/>
    <path d="M 60.405536 113.816836 
L 86.369304 119.632538 
" clip-path="url(#pe6c08e4c36)" style="fill: none; stroke: #000000; stroke-width: 1.2"/>
    <path d="M 172.936405 53.803636 
L 174.829562 84.687797 
" clip-path="url(#pe6c08e4c36)" style="fill: none; stroke: #000000; stroke-width: 1.2"/>
    <path d="M 86.369304 119.632538 
L 62.46229 98.88601 
" clip-path="url(#pe6c08e4c36)" style="fill: none; stroke: #000000; stroke-width: 1.2"/>
    <path d="M 86.369304 119.632538 
L 95.336069 138.953256 
" clip-path="url(#pe6c08e4c36)" style="fill: none; stroke: #000000; stroke-width: 1.2"/>
    <path d="M 86.369304 119.632538 
L 127.37532 119.981467 
" clip-path="url(#pe6c08e4c36)" style="fill: none; stroke: #000000; stroke-width: 1.2"/>
    <path d="M 86.369304 119.632538 
L 55.368595 141.582477 
" clip-path="url(#pe6c08e4c36)" style="fill: none; stroke: #000000; stroke-width: 1.2"/>
    <path d="M 188.546315 124.818869 
L 225.769826 124.464273 
" clip-path="url(#pe6c08e4c36)" style="fill: none; stroke: #000000; stroke-width: 1.2"/>
    <path d="M 95.336069 138.953256 
L 122.606595 158.213854 
" clip-path="url(#pe6c08e4c36)" style="fill: none; stroke: #000000; stroke-width: 1.2"/>
    <path d="M 204.149643 205.431539 
L 173.109022 186.447387 
" clip-path="url(#pe6c08e4c36)" style="fill: none; stroke: #000000; stroke-width: 1.2"/>
    <path d="M 204.149643 205.431539 
L 197.437165 237.076364 
" clip-path="url(#pe6c08e4c36)" style="fill: none; stroke: #000000; stroke-width: 1.2"/>
    <path d="M 204.149643 205.431539 
L 227.177044 226.408328 
" clip-path="url(#pe6c08e4c36)" style="fill: none; stroke: #000000; stroke-width: 1.2"/>
    <path d="M 173.109022 186.447387 
L 160.111905 155.695768 
" clip-path="url(#pe6c08e4c36)" style="fill: none; stroke: #000000; stroke-width: 1.2"/>
    <path d="M 173.109022 186.447387 
L 143.332708 207.480173 
" clip-path="url(#pe6c08e4c36)" style="fill: none; stroke: #000000; stroke-width: 1.2"/>
    <path d="M 173.109022 186.447387 
L 163.736025 212.514822 
" clip-path="url(#pe6c08e4c36)" style="fill: none; stroke: #000000; stroke-width: 1.2"/>
    <path d="M 160.111905 155.695768 
L 122.606595 158.213854 
" clip-path="url(#pe6c08e4c36)" style="fill: none; stroke: #000000; stroke-width: 1.2"/>
   </g>
   <g id="PathCollection_1">
    <defs>
     <path id="C0_0_f718d054ed" d="M 0 8.944272 
C 2.372049 8.944272 4.647264 8.001847 6.324555 6.324555 
C 8.001847 4.647264 8.944272 2.372049 8.944272 -0 
C 8.944272 -2.372049 8.001847 -4.647264 6.324555 -6.324555 
C 4.647264 -8.001847 2.372049 -8.944272 0 -8.944272 
C -2.372049 -8.944272 -4.647264 -8.001847 -6.324555 -6.324555 
C -8.001847 -4.647264 -8.944272 -2.372049 -8.944272 0 
C -8.944272 2.372049 -8.001847 4.647264 -6.324555 6.324555 
C -4.647264 8.001847 -2.372049 8.944272 0 8.944272 
z
"/>
    </defs>
    <g clip-path="url(#pe6c08e4c36)">
     <use xlink:href="#C0_0_f718d054ed" x="239.831405" y="202.587334" style="fill: #bfbfbf; stroke: #bfbfbf; stroke-width: 0.5"/>
    </g>
    <g clip-path="url(#pe6c08e4c36)">
     <use xlink:href="#C0_0_f718d054ed" x="160.498924" y="120.911414" style="fill: #175487; stroke: #175487; stroke-width: 0.5"/>
    </g>
    <g clip-path="url(#pe6c08e4c36)">
     <use xlink:href="#C0_0_f718d054ed" x="203.907235" y="65.214752" style="fill: #175487; stroke: #175487; stroke-width: 0.5"/>
    </g>
    <g clip-path="url(#pe6c08e4c36)">
     <use xlink:href="#C0_0_f718d054ed" x="95.600856" y="100.686059" style="fill: #175487; stroke: #175487; stroke-width: 0.5"/>
    </g>
    <g clip-path="url(#pe6c08e4c36)">
     <use xlink:href="#C0_0_f718d054ed" x="88.971676" y="66.424763" style="fill: #ff0d0d; stroke: #ff0d0d; stroke-width: 0.5"/>
    </g>
    <g clip-path="url(#pe6c08e4c36)">
     <use xlink:href="#C0_0_f718d054ed" x="223.602054" y="94.43736" style="fill: #175487; stroke: #175487; stroke-width: 0.5"/>
    </g>
    <g clip-path="url(#pe6c08e4c36)">
     <use xlink:href="#C0_0_f718d054ed" x="74.059193" y="87.703071" style="fill: #ff0d0d; stroke: #ff0d0d; stroke-width: 0.5"/>
    </g>
    <g clip-path="url(#pe6c08e4c36)">
     <use xlink:href="#C0_0_f718d054ed" x="157.40384" y="103.427118" style="fill: #175487; stroke: #175487; stroke-width: 0.5"/>
    </g>
    <g clip-path="url(#pe6c08e4c36)">
     <use xlink:href="#C0_0_f718d054ed" x="60.405536" y="113.816836" style="fill: #ff0d0d; stroke: #ff0d0d; stroke-width: 0.5"/>
    </g>
    <g clip-path="url(#pe6c08e4c36)">
     <use xlink:href="#C0_0_f718d054ed" x="172.936405" y="53.803636" style="fill: #175487; stroke: #175487; stroke-width: 0.5"/>
    </g>
    <g clip-path="url(#pe6c08e4c36)">
     <use xlink:href="#C0_0_f718d054ed" x="86.369304" y="119.632538" style="fill: #175487; stroke: #175487; stroke-width: 0.5"/>
    </g>
    <g clip-path="url(#pe6c08e4c36)">
     <use xlink:href="#C0_0_f718d054ed" x="188.546315" y="124.818869" style="fill: #ff0d0d; stroke: #ff0d0d; stroke-width: 0.5"/>
    </g>
    <g clip-path="url(#pe6c08e4c36)">
     <use xlink:href="#C0_0_f718d054ed" x="127.37532" y="119.981467" style="fill: #ff0d0d; stroke: #ff0d0d; stroke-width: 0.5"/>
    </g>
    <g clip-path="url(#pe6c08e4c36)">
     <use xlink:href="#C0_0_f718d054ed" x="225.769826" y="124.464273" style="fill: #175487; stroke: #175487; stroke-width: 0.5"/>
    </g>
    <g clip-path="url(#pe6c08e4c36)">
     <use xlink:href="#C0_0_f718d054ed" x="131.122121" y="100.958795" style="fill: #ff0d0d; stroke: #ff0d0d; stroke-width: 0.5"/>
    </g>
    <g clip-path="url(#pe6c08e4c36)">
     <use xlink:href="#C0_0_f718d054ed" x="62.46229" y="98.88601" style="fill: #ff0d0d; stroke: #ff0d0d; stroke-width: 0.5"/>
    </g>
    <g clip-path="url(#pe6c08e4c36)">
     <use xlink:href="#C0_0_f718d054ed" x="174.829562" y="84.687797" style="fill: #ff0d0d; stroke: #ff0d0d; stroke-width: 0.5"/>
    </g>
    <g clip-path="url(#pe6c08e4c36)">
     <use xlink:href="#C0_0_f718d054ed" x="95.336069" y="138.953256" style="fill: #ff0d0d; stroke: #ff0d0d; stroke-width: 0.5"/>
    </g>
    <g clip-path="url(#pe6c08e4c36)">
     <use xlink:href="#C0_0_f718d054ed" x="55.368595" y="141.582477" style="fill: #ff0d0d; stroke: #ff0d0d; stroke-width: 0.5"/>
    </g>
    <g clip-path="url(#pe6c08e4c36)">
     <use xlink:href="#C0_0_f718d054ed" x="189.127518" y="106.690805" style="fill: #ff0d0d; stroke: #ff0d0d; stroke-width: 0.5"/>
    </g>
    <g clip-path="url(#pe6c08e4c36)">
     <use xlink:href="#C0_0_f718d054ed" x="204.149643" y="205.431539" style="fill: #666666; stroke: #666666; stroke-width: 0.5"/>
    </g>
    <g clip-path="url(#pe6c08e4c36)">
     <use xlink:href="#C0_0_f718d054ed" x="173.109022" y="186.447387" style="fill: #666666; stroke: #666666; stroke-width: 0.5"/>
    </g>
    <g clip-path="url(#pe6c08e4c36)">
     <use xlink:href="#C0_0_f718d054ed" x="160.111905" y="155.695768" style="fill: #ff0d0d; stroke: #ff0d0d; stroke-width: 0.5"/>
    </g>
    <g clip-path="url(#pe6c08e4c36)">
     <use xlink:href="#C0_0_f718d054ed" x="122.606595" y="158.213854" style="fill: #bfbfbf; stroke: #bfbfbf; stroke-width: 0.5"/>
    </g>
    <g clip-path="url(#pe6c08e4c36)">
     <use xlink:href="#C0_0_f718d054ed" x="143.332708" y="207.480173" style="fill: #bfbfbf; stroke: #bfbfbf; stroke-width: 0.5"/>
    </g>
    <g clip-path="url(#pe6c08e4c36)">
     <use xlink:href="#C0_0_f718d054ed" x="163.736025" y="212.514822" style="fill: #bfbfbf; stroke: #bfbfbf; stroke-width: 0.5"/>
    </g>
    <g clip-path="url(#pe6c08e4c36)">
     <use xlink:href="#C0_0_f718d054ed" x="197.437165" y="237.076364" style="fill: #bfbfbf; stroke: #bfbfbf; stroke-width: 0.5"/>
    </g>
    <g clip-path="url(#pe6c08e4c36)">
     <use xlink:href="#C0_0_f718d054ed" x="227.177044" y="226.408328" style="fill: #bfbfbf; stroke: #bfbfbf; stroke-width: 0.5"/>
    </g>
   </g>
   <g id="text_1">
    <g clip-path="url(#pe6c08e4c36)">
     <!-- H -->
     <g style="fill: #ffffff" transform="translate(234.810155 205.898584) scale(0.12 -0.12)">
      <defs>
       <path id="DejaVuSans-Bold-48" d="M 588 4666 
L 1791 4666 
L 1791 2888 
L 3566 2888 
L 3566 4666 
L 4769 4666 
L 4769 0 
L 3566 0 
L 3566 1978 
L 1791 1978 
L 1791 0 
L 588 0 
L 588 4666 
z
" transform="scale(0.015625)"/>
      </defs>
      <use xlink:href="#DejaVuSans-Bold-48"/>
     </g>
    </g>
   </g>
   <g id="text_2">
    <g clip-path="url(#pe6c08e4c36)">
     <!-- Ir -->
     <g style="fill: #ffffff" transform="translate(155.307987 124.222664) scale(0.12 -0.12)">
      <defs>
       <path id="DejaVuSans-Bold-49" d="M 588 4666 
L 1791 4666 
L 1791 0 
L 588 0 
L 588 4666 
z
" transform="scale(0.015625)"/>
       <path id="DejaVuSans-Bold-72" d="M 3138 2547 
Q 2991 2616 2845 2648 
Q 2700 2681 2553 2681 
Q 2122 2681 1889 2404 
Q 1656 2128 1656 1613 
L 1656 0 
L 538 0 
L 538 3500 
L 1656 3500 
L 1656 2925 
Q 1872 3269 2151 3426 
Q 2431 3584 2822 3584 
Q 2878 3584 2943 3579 
Q 3009 3575 3134 3559 
L 3138 2547 
z
" transform="scale(0.015625)"/>
      </defs>
      <use xlink:href="#DejaVuSans-Bold-49"/>
      <use xlink:href="#DejaVuSans-Bold-72" transform="translate(37.207031 0)"/>
     </g>
    </g>
   </g>
   <g id="text_3">
    <g clip-path="url(#pe6c08e4c36)">
     <!-- Ir -->
     <g style="fill: #ffffff" transform="translate(198.716297 68.526002) scale(0.12 -0.12)">
      <use xlink:href="#DejaVuSans-Bold-49"/>
      <use xlink:href="#DejaVuSans-Bold-72" transform="translate(37.207031 0)"/>
     </g>
    </g>
   </g>
   <g id="text_4">
    <g clip-path="url(#pe6c08e4c36)">
     <!-- Ir -->
     <g style="fill: #ffffff" transform="translate(90.409919 103.997309) scale(0.12 -0.12)">
      <use xlink:href="#DejaVuSans-Bold-49"/>
      <use xlink:href="#DejaVuSans-Bold-72" transform="translate(37.207031 0)"/>
     </g>
    </g>
   </g>
   <g id="text_5">
    <g clip-path="url(#pe6c08e4c36)">
     <!-- O -->
     <g style="fill: #ffffff" transform="translate(83.870738 69.736013) scale(0.12 -0.12)">
      <defs>
       <path id="DejaVuSans-Bold-4f" d="M 2719 3878 
Q 2169 3878 1866 3472 
Q 1563 3066 1563 2328 
Q 1563 1594 1866 1187 
Q 2169 781 2719 781 
Q 3272 781 3575 1187 
Q 3878 1594 3878 2328 
Q 3878 3066 3575 3472 
Q 3272 3878 2719 3878 
z
M 2719 4750 
Q 3844 4750 4481 4106 
Q 5119 3463 5119 2328 
Q 5119 1197 4481 553 
Q 3844 -91 2719 -91 
Q 1597 -91 958 553 
Q 319 1197 319 2328 
Q 319 3463 958 4106 
Q 1597 4750 2719 4750 
z
" transform="scale(0.015625)"/>
      </defs>
      <use xlink:href="#DejaVuSans-Bold-4f"/>
     </g>
    </g>
   </g>
   <g id="text_6">
    <g clip-path="url(#pe6c08e4c36)">
     <!-- Ir -->
     <g style="fill: #ffffff" transform="translate(218.411116 97.74861) scale(0.12 -0.12)">
      <use xlink:href="#DejaVuSans-Bold-49"/>
      <use xlink:href="#DejaVuSans-Bold-72" transform="translate(37.207031 0)"/>
     </g>
    </g>
   </g>
   <g id="text_7">
    <g clip-path="url(#pe6c08e4c36)">
     <!-- O -->
     <g style="fill: #ffffff" transform="translate(68.958256 91.014321) scale(0.12 -0.12)">
      <use xlink:href="#DejaVuSans-Bold-4f"/>
     </g>
    </g>
   </g>
   <g id="text_8">
    <g clip-path="url(#pe6c08e4c36)">
     <!-- Ir -->
     <g style="fill: #ffffff" transform="translate(152.212902 106.738368) scale(0.12 -0.12)">
      <use xlink:href="#DejaVuSans-Bold-49"/>
      <use xlink:href="#DejaVuSans-Bold-72" transform="translate(37.207031 0)"/>
     </g>
    </g>
   </g>
   <g id="text_9">
    <g clip-path="url(#pe6c08e4c36)">
     <!-- O -->
     <g style="fill: #ffffff" transform="translate(55.304598 117.128086) scale(0.12 -0.12)">
      <use xlink:href="#DejaVuSans-Bold-4f"/>
     </g>
    </g>
   </g>
   <g id="text_10">
    <g clip-path="url(#pe6c08e4c36)">
     <!-- Ir -->
     <g style="fill: #ffffff" transform="translate(167.745467 57.114886) scale(0.12 -0.12)">
      <use xlink:href="#DejaVuSans-Bold-49"/>
      <use xlink:href="#DejaVuSans-Bold-72" transform="translate(37.207031 0)"/>
     </g>
    </g>
   </g>
   <g id="text_11">
    <g clip-path="url(#pe6c08e4c36)">
     <!-- Ir -->
     <g style="fill: #ffffff" transform="translate(81.178367 122.943788) scale(0.12 -0.12)">
      <use xlink:href="#DejaVuSans-Bold-49"/>
      <use xlink:href="#DejaVuSans-Bold-72" transform="translate(37.207031 0)"/>
     </g>
    </g>
   </g>
   <g id="text_12">
    <g clip-path="url(#pe6c08e4c36)">
     <!-- O -->
     <g style="fill: #ffffff" transform="translate(183.445378 128.130119) scale(0.12 -0.12)">
      <use xlink:href="#DejaVuSans-Bold-4f"/>
     </g>
    </g>
   </g>
   <g id="text_13">
    <g clip-path="url(#pe6c08e4c36)">
     <!-- O -->
     <g style="fill: #ffffff" transform="translate(122.274382 123.292717) scale(0.12 -0.12)">
      <use xlink:href="#DejaVuSans-Bold-4f"/>
     </g>
    </g>
   </g>
   <g id="text_14">
    <g clip-path="url(#pe6c08e4c36)">
     <!-- Ir -->
     <g style="fill: #ffffff" transform="translate(220.578888 127.775523) scale(0.12 -0.12)">
      <use xlink:href="#DejaVuSans-Bold-49"/>
      <use xlink:href="#DejaVuSans-Bold-72" transform="translate(37.207031 0)"/>
     </g>
    </g>
   </g>
   <g id="text_15">
    <g clip-path="url(#pe6c08e4c36)">
     <!-- O -->
     <g style="fill: #ffffff" transform="translate(126.021184 104.270045) scale(0.12 -0.12)">
      <use xlink:href="#DejaVuSans-Bold-4f"/>
     </g>
    </g>
   </g>
   <g id="text_16">
    <g clip-path="url(#pe6c08e4c36)">
     <!-- O -->
     <g style="fill: #ffffff" transform="translate(57.361353 102.19726) scale(0.12 -0.12)">
      <use xlink:href="#DejaVuSans-Bold-4f"/>
     </g>
    </g>
   </g>
   <g id="text_17">
    <g clip-path="url(#pe6c08e4c36)">
     <!-- O -->
     <g style="fill: #ffffff" transform="translate(169.728625 87.999047) scale(0.12 -0.12)">
      <use xlink:href="#DejaVuSans-Bold-4f"/>
     </g>
    </g>
   </g>
   <g id="text_18">
    <g clip-path="url(#pe6c08e4c36)">
     <!-- O -->
     <g style="fill: #ffffff" transform="translate(90.235132 142.264506) scale(0.12 -0.12)">
      <use xlink:href="#DejaVuSans-Bold-4f"/>
     </g>
    </g>
   </g>
   <g id="text_19">
    <g clip-path="url(#pe6c08e4c36)">
     <!-- O -->
     <g style="fill: #ffffff" transform="translate(50.267658 144.893727) scale(0.12 -0.12)">
      <use xlink:href="#DejaVuSans-Bold-4f"/>
     </g>
    </g>
   </g>
   <g id="text_20">
    <g clip-path="url(#pe6c08e4c36)">
     <!-- O -->
     <g style="fill: #ffffff" transform="translate(184.026581 110.002055) scale(0.12 -0.12)">
      <use xlink:href="#DejaVuSans-Bold-4f"/>
     </g>
    </g>
   </g>
   <g id="text_21">
    <g clip-path="url(#pe6c08e4c36)">
     <!-- C -->
     <g style="fill: #ffffff" transform="translate(199.746205 208.742789) scale(0.12 -0.12)">
      <defs>
       <path id="DejaVuSans-Bold-43" d="M 4288 256 
Q 3956 84 3597 -3 
Q 3238 -91 2847 -91 
Q 1681 -91 1000 561 
Q 319 1213 319 2328 
Q 319 3447 1000 4098 
Q 1681 4750 2847 4750 
Q 3238 4750 3597 4662 
Q 3956 4575 4288 4403 
L 4288 3438 
Q 3953 3666 3628 3772 
Q 3303 3878 2944 3878 
Q 2300 3878 1931 3465 
Q 1563 3053 1563 2328 
Q 1563 1606 1931 1193 
Q 2300 781 2944 781 
Q 3303 781 3628 887 
Q 3953 994 4288 1222 
L 4288 256 
z
" transform="scale(0.015625)"/>
      </defs>
      <use xlink:href="#DejaVuSans-Bold-43"/>
     </g>
    </g>
   </g>
   <g id="text_22">
    <g clip-path="url(#pe6c08e4c36)">
     <!-- C -->
     <g style="fill: #ffffff" transform="translate(168.705585 189.758637) scale(0.12 -0.12)">
      <use xlink:href="#DejaVuSans-Bold-43"/>
     </g>
    </g>
   </g>
   <g id="text_23">
    <g clip-path="url(#pe6c08e4c36)">
     <!-- O -->
     <g style="fill: #ffffff" transform="translate(155.010967 159.007018) scale(0.12 -0.12)">
      <use xlink:href="#DejaVuSans-Bold-4f"/>
     </g>
    </g>
   </g>
   <g id="text_24">
    <g clip-path="url(#pe6c08e4c36)">
     <!-- H -->
     <g style="fill: #ffffff" transform="translate(117.585345 161.525104) scale(0.12 -0.12)">
      <use xlink:href="#DejaVuSans-Bold-48"/>
     </g>
    </g>
   </g>
   <g id="text_25">
    <g clip-path="url(#pe6c08e4c36)">
     <!-- H -->
     <g style="fill: #ffffff" transform="translate(138.311458 210.791423) scale(0.12 -0.12)">
      <use xlink:href="#DejaVuSans-Bold-48"/>
     </g>
    </g>
   </g>
   <g id="text_26">
    <g clip-path="url(#pe6c08e4c36)">
     <!-- H -->
     <g style="fill: #ffffff" transform="translate(158.714775 215.826072) scale(0.12 -0.12)">
      <use xlink:href="#DejaVuSans-Bold-48"/>
     </g>
    </g>
   </g>
   <g id="text_27">
    <g clip-path="url(#pe6c08e4c36)">
     <!-- H -->
     <g style="fill: #ffffff" transform="translate(192.415915 240.387614) scale(0.12 -0.12)">
      <use xlink:href="#DejaVuSans-Bold-48"/>
     </g>
    </g>
   </g>
   <g id="text_28">
    <g clip-path="url(#pe6c08e4c36)">
     <!-- H -->
     <g style="fill: #ffffff" transform="translate(222.155794 229.719578) scale(0.12 -0.12)">
      <use xlink:href="#DejaVuSans-Bold-48"/>
     </g>
    </g>
   </g>
   <g id="text_29">
    <!-- C2H6Ir40O81 -->
    <g transform="translate(153.789767 30.504176) scale(0.1 -0.1)">
     <defs>
      <path id="DejaVuSans-43" d="M 4122 4306 
L 4122 3641 
Q 3803 3938 3442 4084 
Q 3081 4231 2675 4231 
Q 1875 4231 1450 3742 
Q 1025 3253 1025 2328 
Q 1025 1406 1450 917 
Q 1875 428 2675 428 
Q 3081 428 3442 575 
Q 3803 722 4122 1019 
L 4122 359 
Q 3791 134 3420 21 
Q 3050 -91 2638 -91 
Q 1578 -91 968 557 
Q 359 1206 359 2328 
Q 359 3453 968 4101 
Q 1578 4750 2638 4750 
Q 3056 4750 3426 4639 
Q 3797 4528 4122 4306 
z
" transform="scale(0.015625)"/>
      <path id="DejaVuSans-32" d="M 1228 531 
L 3431 531 
L 3431 0 
L 469 0 
L 469 531 
Q 828 903 1448 1529 
Q 2069 2156 2228 2338 
Q 2531 2678 2651 2914 
Q 2772 3150 2772 3378 
Q 2772 3750 2511 3984 
Q 2250 4219 1831 4219 
Q 1534 4219 1204 4116 
Q 875 4013 500 3803 
L 500 4441 
Q 881 4594 1212 4672 
Q 1544 4750 1819 4750 
Q 2544 4750 2975 4387 
Q 3406 4025 3406 3419 
Q 3406 3131 3298 2873 
Q 3191 2616 2906 2266 
Q 2828 2175 2409 1742 
Q 1991 1309 1228 531 
z
" transform="scale(0.015625)"/>
      <path id="DejaVuSans-48" d="M 628 4666 
L 1259 4666 
L 1259 2753 
L 3553 2753 
L 3553 4666 
L 4184 4666 
L 4184 0 
L 3553 0 
L 3553 2222 
L 1259 2222 
L 1259 0 
L 628 0 
L 628 4666 
z
" transform="scale(0.015625)"/>
      <path id="DejaVuSans-36" d="M 2113 2584 
Q 1688 2584 1439 2293 
Q 1191 2003 1191 1497 
Q 1191 994 1439 701 
Q 1688 409 2113 409 
Q 2538 409 2786 701 
Q 3034 994 3034 1497 
Q 3034 2003 2786 2293 
Q 2538 2584 2113 2584 
z
M 3366 4563 
L 3366 3988 
Q 3128 4100 2886 4159 
Q 2644 4219 2406 4219 
Q 1781 4219 1451 3797 
Q 1122 3375 1075 2522 
Q 1259 2794 1537 2939 
Q 1816 3084 2150 3084 
Q 2853 3084 3261 2657 
Q 3669 2231 3669 1497 
Q 3669 778 3244 343 
Q 2819 -91 2113 -91 
Q 1303 -91 875 529 
Q 447 1150 447 2328 
Q 447 3434 972 4092 
Q 1497 4750 2381 4750 
Q 2619 4750 2861 4703 
Q 3103 4656 3366 4563 
z
" transform="scale(0.015625)"/>
      <path id="DejaVuSans-49" d="M 628 4666 
L 1259 4666 
L 1259 0 
L 628 0 
L 628 4666 
z
" transform="scale(0.015625)"/>
      <path id="DejaVuSans-72" d="M 2631 2963 
Q 2534 3019 2420 3045 
Q 2306 3072 2169 3072 
Q 1681 3072 1420 2755 
Q 1159 2438 1159 1844 
L 1159 0 
L 581 0 
L 581 3500 
L 1159 3500 
L 1159 2956 
Q 1341 3275 1631 3429 
Q 1922 3584 2338 3584 
Q 2397 3584 2469 3576 
Q 2541 3569 2628 3553 
L 2631 2963 
z
" transform="scale(0.015625)"/>
      <path id="DejaVuSans-34" d="M 2419 4116 
L 825 1625 
L 2419 1625 
L 2419 4116 
z
M 2253 4666 
L 3047 4666 
L 3047 1625 
L 3713 1625 
L 3713 1100 
L 3047 1100 
L 3047 0 
L 2419 0 
L 2419 1100 
L 313 1100 
L 313 1709 
L 2253 4666 
z
" transform="scale(0.015625)"/>
      <path id="DejaVuSans-30" d="M 2034 4250 
Q 1547 4250 1301 3770 
Q 1056 3291 1056 2328 
Q 1056 1369 1301 889 
Q 1547 409 2034 409 
Q 2525 409 2770 889 
Q 3016 1369 3016 2328 
Q 3016 3291 2770 3770 
Q 2525 4250 2034 4250 
z
M 2034 4750 
Q 2819 4750 3233 4129 
Q 3647 3509 3647 2328 
Q 3647 1150 3233 529 
Q 2819 -91 2034 -91 
Q 1250 -91 836 529 
Q 422 1150 422 2328 
Q 422 3509 836 4129 
Q 1250 4750 2034 4750 
z
" transform="scale(0.015625)"/>
      <path id="DejaVuSans-4f" d="M 2522 4238 
Q 1834 4238 1429 3725 
Q 1025 3213 1025 2328 
Q 1025 1447 1429 934 
Q 1834 422 2522 422 
Q 3209 422 3611 934 
Q 4013 1447 4013 2328 
Q 4013 3213 3611 3725 
Q 3209 4238 2522 4238 
z
M 2522 4750 
Q 3503 4750 4090 4092 
Q 4678 3434 4678 2328 
Q 4678 1225 4090 567 
Q 3503 -91 2522 -91 
Q 1538 -91 948 565 
Q 359 1222 359 2328 
Q 359 3434 948 4092 
Q 1538 4750 2522 4750 
z
" transform="scale(0.015625)"/>
      <path id="DejaVuSans-38" d="M 2034 2216 
Q 1584 2216 1326 1975 
Q 1069 1734 1069 1313 
Q 1069 891 1326 650 
Q 1584 409 2034 409 
Q 2484 409 2743 651 
Q 3003 894 3003 1313 
Q 3003 1734 2745 1975 
Q 2488 2216 2034 2216 
z
M 1403 2484 
Q 997 2584 770 2862 
Q 544 3141 544 3541 
Q 544 4100 942 4425 
Q 1341 4750 2034 4750 
Q 2731 4750 3128 4425 
Q 3525 4100 3525 3541 
Q 3525 3141 3298 2862 
Q 3072 2584 2669 2484 
Q 3125 2378 3379 2068 
Q 3634 1759 3634 1313 
Q 3634 634 3220 271 
Q 2806 -91 2034 -91 
Q 1263 -91 848 271 
Q 434 634 434 1313 
Q 434 1759 690 2068 
Q 947 2378 1403 2484 
z
M 1172 3481 
Q 1172 3119 1398 2916 
Q 1625 2713 2034 2713 
Q 2441 2713 2670 2916 
Q 2900 3119 2900 3481 
Q 2900 3844 2670 4047 
Q 2441 4250 2034 4250 
Q 1625 4250 1398 4047 
Q 1172 3844 1172 3481 
z
" transform="scale(0.015625)"/>
      <path id="DejaVuSans-31" d="M 794 531 
L 1825 531 
L 1825 4091 
L 703 3866 
L 703 4441 
L 1819 4666 
L 2450 4666 
L 2450 531 
L 3481 531 
L 3481 0 
L 794 0 
L 794 531 
z
" transform="scale(0.015625)"/>
     </defs>
     <use xlink:href="#DejaVuSans-43"/>
     <use xlink:href="#DejaVuSans-32" transform="translate(69.824219 0)"/>
     <use xlink:href="#DejaVuSans-48" transform="translate(133.447266 0)"/>
     <use xlink:href="#DejaVuSans-36" transform="translate(208.642578 0)"/>
     <use xlink:href="#DejaVuSans-49" transform="translate(272.265625 0)"/>
     <use xlink:href="#DejaVuSans-72" transform="translate(301.757812 0)"/>
     <use xlink:href="#DejaVuSans-34" transform="translate(342.871094 0)"/>
     <use xlink:href="#DejaVuSans-30" transform="translate(406.494141 0)"/>
     <use xlink:href="#DejaVuSans-4f" transform="translate(470.117188 0)"/>
     <use xlink:href="#DejaVuSans-38" transform="translate(548.828125 0)"/>
     <use xlink:href="#DejaVuSans-31" transform="translate(612.451172 0)"/>
    </g>
    <!-- Error: 1.04 eV -->
    <g transform="translate(153.789767 41.701989) scale(0.1 -0.1)">
     <defs>
      <path id="DejaVuSans-45" d="M 628 4666 
L 3578 4666 
L 3578 4134 
L 1259 4134 
L 1259 2753 
L 3481 2753 
L 3481 2222 
L 1259 2222 
L 1259 531 
L 3634 531 
L 3634 0 
L 628 0 
L 628 4666 
z
" transform="scale(0.015625)"/>
      <path id="DejaVuSans-6f" d="M 1959 3097 
Q 1497 3097 1228 2736 
Q 959 2375 959 1747 
Q 959 1119 1226 758 
Q 1494 397 1959 397 
Q 2419 397 2687 759 
Q 2956 1122 2956 1747 
Q 2956 2369 2687 2733 
Q 2419 3097 1959 3097 
z
M 1959 3584 
Q 2709 3584 3137 3096 
Q 3566 2609 3566 1747 
Q 3566 888 3137 398 
Q 2709 -91 1959 -91 
Q 1206 -91 779 398 
Q 353 888 353 1747 
Q 353 2609 779 3096 
Q 1206 3584 1959 3584 
z
" transform="scale(0.015625)"/>
      <path id="DejaVuSans-3a" d="M 750 794 
L 1409 794 
L 1409 0 
L 750 0 
L 750 794 
z
M 750 3309 
L 1409 3309 
L 1409 2516 
L 750 2516 
L 750 3309 
z
" transform="scale(0.015625)"/>
      <path id="DejaVuSans-20" transform="scale(0.015625)"/>
      <path id="DejaVuSans-2e" d="M 684 794 
L 1344 794 
L 1344 0 
L 684 0 
L 684 794 
z
" transform="scale(0.015625)"/>
      <path id="DejaVuSans-65" d="M 3597 1894 
L 3597 1613 
L 953 1613 
Q 991 1019 1311 708 
Q 1631 397 2203 397 
Q 2534 397 2845 478 
Q 3156 559 3463 722 
L 3463 178 
Q 3153 47 2828 -22 
Q 2503 -91 2169 -91 
Q 1331 -91 842 396 
Q 353 884 353 1716 
Q 353 2575 817 3079 
Q 1281 3584 2069 3584 
Q 2775 3584 3186 3129 
Q 3597 2675 3597 1894 
z
M 3022 2063 
Q 3016 2534 2758 2815 
Q 2500 3097 2075 3097 
Q 1594 3097 1305 2825 
Q 1016 2553 972 2059 
L 3022 2063 
z
" transform="scale(0.015625)"/>
      <path id="DejaVuSans-56" d="M 1831 0 
L 50 4666 
L 709 4666 
L 2188 738 
L 3669 4666 
L 4325 4666 
L 2547 0 
L 1831 0 
z
" transform="scale(0.015625)"/>
     </defs>
     <use xlink:href="#DejaVuSans-45"/>
     <use xlink:href="#DejaVuSans-72" transform="translate(63.183594 0)"/>
     <use xlink:href="#DejaVuSans-72" transform="translate(102.546875 0)"/>
     <use xlink:href="#DejaVuSans-6f" transform="translate(141.410156 0)"/>
     <use xlink:href="#DejaVuSans-72" transform="translate(202.591797 0)"/>
     <use xlink:href="#DejaVuSans-3a" transform="translate(241.955078 0)"/>
     <use xlink:href="#DejaVuSans-20" transform="translate(275.646484 0)"/>
     <use xlink:href="#DejaVuSans-31" transform="translate(307.433594 0)"/>
     <use xlink:href="#DejaVuSans-2e" transform="translate(371.056641 0)"/>
     <use xlink:href="#DejaVuSans-30" transform="translate(402.84375 0)"/>
     <use xlink:href="#DejaVuSans-34" transform="translate(466.466797 0)"/>
     <use xlink:href="#DejaVuSans-20" transform="translate(530.089844 0)"/>
     <use xlink:href="#DejaVuSans-65" transform="translate(561.876953 0)"/>
     <use xlink:href="#DejaVuSans-56" transform="translate(623.400391 0)"/>
    </g>
   </g>
  </g>
 </g>
 <defs>
  <clipPath id="pe6c08e4c36">
   <rect x="36" y="34.56" width="223.2" height="221.76"/>
  </clipPath>
 </defs>
</svg>
