<?xml version="1.0" encoding="utf-8" standalone="no"?>
<!DOCTYPE svg PUBLIC "-//W3C//DTD SVG 1.1//EN"
  "http://www.w3.org/Graphics/SVG/1.1/DTD/svg11.dtd">
<svg xmlns:xlink="http://www.w3.org/1999/xlink" width="460.8pt" height="345.6pt" viewBox="0 0 460.8 345.6" xmlns="http://www.w3.org/2000/svg" version="1.1">
 <metadata>
  <rdf:RDF xmlns:dc="http://purl.org/dc/elements/1.1/" xmlns:cc="http://creativecommons.org/ns#" xmlns:rdf="http://www.w3.org/1999/02/22-rdf-syntax-ns#">
   <cc:Work>
    <dc:type rdf:resource="http://purl.org/dc/dcmitype/StillImage"/>
    <dc:date>2025-06-10T23:50:23.731610</dc:date>
    <dc:format>image/svg+xml</dc:format>
    <dc:creator>
     <cc:Agent>
      <dc:title>Matplotlib v3.10.1, https://matplotlib.org/</dc:title>
     </cc:Agent>
    </dc:creator>
   </cc:Work>
  </rdf:RDF>
 </metadata>
 <defs>
  <style type="text/css">*{stroke-linejoin: round; stroke-linecap: butt}</style>
 </defs>
 <g id="figure_1">
  <g id="patch_1">
   <path d="M 0 345.6 
L 460.8 345.6 
L 460.8 0 
L 0 0 
z
" style="fill: #ffffff"/>
  </g>
  <g id="axes_1">
   <g id="patch_2">
    <path d="M 120.535448 172.676111 
C 127.297856 172.676111 133.784203 169.989378 138.565948 165.207633 
C 143.347692 160.425889 146.034425 153.939541 146.034425 147.177133 
C 146.034425 140.414726 143.347692 133.928378 138.565948 129.146634 
C 133.784203 124.364889 127.297856 121.678156 120.535448 121.678156 
C 113.77304 121.678156 107.286693 124.364889 102.504948 129.146634 
C 97.723204 133.928378 95.036471 140.414726 95.036471 147.177133 
C 95.036471 153.939541 97.723204 160.425889 102.504948 165.207633 
C 107.286693 169.989378 113.77304 172.676111 120.535448 172.676111 
z
" clip-path="url(#p4276bb1989)" style="fill: #ffffff; stroke: #000000; stroke-linejoin: miter"/>
   </g>
   <g id="patch_3">
    <path d="M 319.270899 294.091582 
C 326.033307 294.091582 332.519655 291.404849 337.301399 286.623104 
C 342.083143 281.84136 344.769877 275.355012 344.769877 268.592604 
C 344.769877 261.830197 342.083143 255.343849 337.301399 250.562105 
C 332.519655 245.78036 326.033307 243.093627 319.270899 243.093627 
C 312.508491 243.093627 306.022144 245.78036 301.2404 250.562105 
C 296.458655 255.343849 293.771922 261.830197 293.771922 268.592604 
C 293.771922 275.355012 296.458655 281.84136 301.2404 286.623104 
C 306.022144 291.404849 312.508491 294.091582 319.270899 294.091582 
z
" clip-path="url(#p4276bb1989)" style="fill: #ffffff; stroke: #000000; stroke-linejoin: miter"/>
   </g>
   <g id="patch_4">
    <path d="M 120.151445 301.248 
C 126.913853 301.248 133.400201 298.561267 138.181945 293.779522 
C 142.96369 288.997778 145.650423 282.511431 145.650423 275.749023 
C 145.650423 268.986615 142.96369 262.500267 138.181945 257.718523 
C 133.400201 252.936779 126.913853 250.250046 120.151445 250.250046 
C 113.389038 250.250046 106.90269 252.936779 102.120946 257.718523 
C 97.339201 262.500267 94.652468 268.986615 94.652468 275.749023 
C 94.652468 282.511431 97.339201 288.997778 102.120946 293.779522 
C 106.90269 298.561267 113.389038 301.248 120.151445 301.248 
z
" clip-path="url(#p4276bb1989)" style="fill: #ffffff; stroke: #000000; stroke-linejoin: miter"/>
   </g>
   <g id="patch_5">
    <path d="M 151.731028 253.699491 
C 168.309834 253.699491 184.211848 247.112661 195.934834 235.389675 
C 207.65782 223.666689 214.24465 207.764676 214.24465 191.185869 
C 214.24465 174.607063 207.65782 158.70505 195.934834 146.982064 
C 184.211848 135.259077 168.309834 128.672248 151.731028 128.672248 
C 135.152222 128.672248 119.250209 135.259077 107.527222 146.982064 
C 95.804236 158.70505 89.217407 174.607063 89.217407 191.185869 
C 89.217407 207.764676 95.804236 223.666689 107.527222 235.389675 
C 119.250209 247.112661 135.152222 253.699491 151.731028 253.699491 
z
" clip-path="url(#p4276bb1989)" style="fill: #909090; stroke: #000000; stroke-linejoin: miter"/>
   </g>
   <g id="patch_6">
    <path d="M 275.825382 249.784209 
C 292.404188 249.784209 308.306201 243.19738 320.029188 231.474394 
C 331.752174 219.751407 338.339003 203.849394 338.339003 187.270588 
C 338.339003 170.691782 331.752174 154.789768 320.029188 143.066782 
C 308.306201 131.343796 292.404188 124.756966 275.825382 124.756966 
C 259.246576 124.756966 243.344562 131.343796 231.621576 143.066782 
C 219.89859 154.789768 213.31176 170.691782 213.31176 187.270588 
C 213.31176 203.849394 219.89859 219.751407 231.621576 231.474394 
C 243.344562 243.19738 259.246576 249.784209 275.825382 249.784209 
z
" clip-path="url(#p4276bb1989)" style="fill: #909090; stroke: #000000; stroke-linejoin: miter"/>
   </g>
   <g id="patch_7">
    <path d="M 328.814448 156.38429 
C 343.211833 156.38429 357.021476 150.664149 367.201964 140.483661 
C 377.382452 130.303173 383.102593 116.493529 383.102593 102.096145 
C 383.102593 87.698761 377.382452 73.889118 367.201964 63.70863 
C 357.021476 53.528141 343.211833 47.808 328.814448 47.808 
C 314.417064 47.808 300.607421 53.528141 290.426933 63.70863 
C 280.246445 73.889118 274.526303 87.698761 274.526303 102.096145 
C 274.526303 116.493529 280.246445 130.303173 290.426933 140.483661 
C 300.607421 150.664149 314.417064 156.38429 328.814448 156.38429 
z
" clip-path="url(#p4276bb1989)" style="fill: #ff0d0d; stroke: #000000; stroke-linejoin: miter"/>
   </g>
   <g id="patch_8">
    <path d="M 120.535448 172.676111 
C 127.297856 172.676111 133.784203 169.989378 138.565948 165.207633 
C 143.347692 160.425889 146.034425 153.939541 146.034425 147.177133 
C 146.034425 140.414726 143.347692 133.928378 138.565948 129.146634 
C 133.784203 124.364889 127.297856 121.678156 120.535448 121.678156 
C 113.77304 121.678156 107.286693 124.364889 102.504948 129.146634 
C 97.723204 133.928378 95.036471 140.414726 95.036471 147.177133 
C 95.036471 153.939541 97.723204 160.425889 102.504948 165.207633 
C 107.286693 169.989378 113.77304 172.676111 120.535448 172.676111 
z
" clip-path="url(#p4276bb1989)" style="fill: #ffffff; stroke: #000000; stroke-linejoin: miter"/>
   </g>
  </g>
 </g>
 <defs>
  <clipPath id="p4276bb1989">
   <rect x="81.870277" y="41.472" width="308.579446" height="266.112"/>
  </clipPath>
 </defs>
</svg>
