<?xml version="1.0" encoding="utf-8" standalone="no"?>
<!DOCTYPE svg PUBLIC "-//W3C//DTD SVG 1.1//EN"
  "http://www.w3.org/Graphics/SVG/1.1/DTD/svg11.dtd">
<svg xmlns:xlink="http://www.w3.org/1999/xlink" width="460.8pt" height="345.6pt" viewBox="0 0 460.8 345.6" xmlns="http://www.w3.org/2000/svg" version="1.1">
 <metadata>
  <rdf:RDF xmlns:dc="http://purl.org/dc/elements/1.1/" xmlns:cc="http://creativecommons.org/ns#" xmlns:rdf="http://www.w3.org/1999/02/22-rdf-syntax-ns#">
   <cc:Work>
    <dc:type rdf:resource="http://purl.org/dc/dcmitype/StillImage"/>
    <dc:date>2025-06-10T23:50:30.811036</dc:date>
    <dc:format>image/svg+xml</dc:format>
    <dc:creator>
     <cc:Agent>
      <dc:title>Matplotlib v3.10.1, https://matplotlib.org/</dc:title>
     </cc:Agent>
    </dc:creator>
   </cc:Work>
  </rdf:RDF>
 </metadata>
 <defs>
  <style type="text/css">*{stroke-linejoin: round; stroke-linecap: butt}</style>
 </defs>
 <g id="figure_1">
  <g id="patch_1">
   <path d="M 0 345.6 
L 460.8 345.6 
L 460.8 0 
L 0 0 
z
" style="fill: #ffffff"/>
  </g>
  <g id="axes_1">
   <g id="patch_2">
    <path d="M 325.684404 121.730085 
C 331.300894 121.730085 336.688102 119.49863 340.65956 115.527173 
C 344.631018 111.555715 346.862473 106.168506 346.862473 100.552017 
C 346.862473 94.935528 344.631018 89.548319 340.65956 85.576861 
C 336.688102 81.605403 331.300894 79.373949 325.684404 79.373949 
C 320.067915 79.373949 314.680706 81.605403 310.709248 85.576861 
C 306.737791 89.548319 304.506336 94.935528 304.506336 100.552017 
C 304.506336 106.168506 306.737791 111.555715 310.709248 115.527173 
C 314.680706 119.49863 320.067915 121.730085 325.684404 121.730085 
z
" clip-path="url(#p6993519efc)" style="fill: #ffffff; stroke: #000000; stroke-linejoin: miter"/>
   </g>
   <g id="patch_3">
    <path d="M 146.635596 121.730085 
C 152.252085 121.730085 157.639294 119.49863 161.610752 115.527173 
C 165.582209 111.555715 167.813664 106.168506 167.813664 100.552017 
C 167.813664 94.935528 165.582209 89.548319 161.610752 85.576861 
C 157.639294 81.605403 152.252085 79.373949 146.635596 79.373949 
C 141.019106 79.373949 135.631898 81.605403 131.66044 85.576861 
C 127.688982 89.548319 125.457527 94.935528 125.457527 100.552017 
C 125.457527 106.168506 127.688982 111.555715 131.66044 115.527173 
C 135.631898 119.49863 141.019106 121.730085 146.635596 121.730085 
z
" clip-path="url(#p6993519efc)" style="fill: #ffffff; stroke: #000000; stroke-linejoin: miter"/>
   </g>
   <g id="patch_4">
    <path d="M 236.16 269.682051 
C 241.776489 269.682051 247.163698 267.450597 251.135156 263.479139 
C 255.106613 259.507681 257.338068 254.120472 257.338068 248.503983 
C 257.338068 242.887494 255.106613 237.500285 251.135156 233.528827 
C 247.163698 229.55737 241.776489 227.325915 236.16 227.325915 
C 230.543511 227.325915 225.156302 229.55737 221.184844 233.528827 
C 217.213387 237.500285 214.981932 242.887494 214.981932 248.503983 
C 214.981932 254.120472 217.213387 259.507681 221.184844 263.479139 
C 225.156302 267.450597 230.543511 269.682051 236.16 269.682051 
z
" clip-path="url(#p6993519efc)" style="fill: #ffffff; stroke: #000000; stroke-linejoin: miter"/>
   </g>
   <g id="patch_5">
    <path d="M 236.16 255.057862 
C 249.929458 255.057862 263.136808 249.587199 272.873285 239.850722 
C 282.609762 230.114245 288.080426 216.906895 288.080426 203.137437 
C 288.080426 189.367979 282.609762 176.160629 272.873285 166.424152 
C 263.136808 156.687675 249.929458 151.217011 236.16 151.217011 
C 222.390542 151.217011 209.183192 156.687675 199.446715 166.424152 
C 189.710238 176.160629 184.239574 189.367979 184.239574 203.137437 
C 184.239574 216.906895 189.710238 230.114245 199.446715 239.850722 
C 209.183192 249.587199 222.390542 255.057862 236.16 255.057862 
z
" clip-path="url(#p6993519efc)" style="fill: #909090; stroke: #000000; stroke-linejoin: miter"/>
   </g>
   <g id="patch_6">
    <path d="M 385.039074 208.619754 
C 390.655564 208.619754 396.042773 206.388299 400.01423 202.416841 
C 403.985688 198.445383 406.217143 193.058175 406.217143 187.441685 
C 406.217143 181.825196 403.985688 176.437987 400.01423 172.46653 
C 396.042773 168.495072 390.655564 166.263617 385.039074 166.263617 
C 379.422585 166.263617 374.035376 168.495072 370.063919 172.46653 
C 366.092461 176.437987 363.861006 181.825196 363.861006 187.441685 
C 363.861006 193.058175 366.092461 198.445383 370.063919 202.416841 
C 374.035376 206.388299 379.422585 208.619754 385.039074 208.619754 
z
" clip-path="url(#p6993519efc)" style="fill: #ffffff; stroke: #000000; stroke-linejoin: miter"/>
   </g>
   <g id="patch_7">
    <path d="M 149.304387 196.993057 
C 163.073844 196.993057 176.281195 191.522393 186.017672 181.785916 
C 195.754149 172.049439 201.224812 158.842089 201.224812 145.072631 
C 201.224812 131.303173 195.754149 118.095823 186.017672 108.359346 
C 176.281195 98.622869 163.073844 93.152205 149.304387 93.152205 
C 135.534929 93.152205 122.327578 98.622869 112.591101 108.359346 
C 102.854624 118.095823 97.383961 131.303173 97.383961 145.072631 
C 97.383961 158.842089 102.854624 172.049439 112.591101 181.785916 
C 122.327578 191.522393 135.534929 196.993057 149.304387 196.993057 
z
" clip-path="url(#p6993519efc)" style="fill: #909090; stroke: #000000; stroke-linejoin: miter"/>
   </g>
   <g id="patch_8">
    <path d="M 87.280926 208.619754 
C 92.897415 208.619754 98.284624 206.388299 102.256081 202.416841 
C 106.227539 198.445383 108.458994 193.058175 108.458994 187.441685 
C 108.458994 181.825196 106.227539 176.437987 102.256081 172.46653 
C 98.284624 168.495072 92.897415 166.263617 87.280926 166.263617 
C 81.664436 166.263617 76.277227 168.495072 72.30577 172.46653 
C 68.334312 176.437987 66.102857 181.825196 66.102857 187.441685 
C 66.102857 193.058175 68.334312 198.445383 72.30577 202.416841 
C 76.277227 206.388299 81.664436 208.619754 87.280926 208.619754 
z
" clip-path="url(#p6993519efc)" style="fill: #ffffff; stroke: #000000; stroke-linejoin: miter"/>
   </g>
   <g id="patch_9">
    <path d="M 323.015613 196.993057 
C 336.785071 196.993057 349.992422 191.522393 359.728899 181.785916 
C 369.465376 172.049439 374.936039 158.842089 374.936039 145.072631 
C 374.936039 131.303173 369.465376 118.095823 359.728899 108.359346 
C 349.992422 98.622869 336.785071 93.152205 323.015613 93.152205 
C 309.246156 93.152205 296.038805 98.622869 286.302328 108.359346 
C 276.565851 118.095823 271.095188 131.303173 271.095188 145.072631 
C 271.095188 158.842089 276.565851 172.049439 286.302328 181.785916 
C 296.038805 191.522393 309.246156 196.993057 323.015613 196.993057 
z
" clip-path="url(#p6993519efc)" style="fill: #909090; stroke: #000000; stroke-linejoin: miter"/>
   </g>
   <g id="patch_10">
    <path d="M 236.16 269.682051 
C 241.776489 269.682051 247.163698 267.450597 251.135156 263.479139 
C 255.106613 259.507681 257.338068 254.120472 257.338068 248.503983 
C 257.338068 242.887494 255.106613 237.500285 251.135156 233.528827 
C 247.163698 229.55737 241.776489 227.325915 236.16 227.325915 
C 230.543511 227.325915 225.156302 229.55737 221.184844 233.528827 
C 217.213387 237.500285 214.981932 242.887494 214.981932 248.503983 
C 214.981932 254.120472 217.213387 259.507681 221.184844 263.479139 
C 225.156302 267.450597 230.543511 269.682051 236.16 269.682051 
z
" clip-path="url(#p6993519efc)" style="fill: #ffffff; stroke: #000000; stroke-linejoin: miter"/>
   </g>
   <g id="patch_11">
    <path d="M 325.684404 121.730085 
C 331.300894 121.730085 336.688102 119.49863 340.65956 115.527173 
C 344.631018 111.555715 346.862473 106.168506 346.862473 100.552017 
C 346.862473 94.935528 344.631018 89.548319 340.65956 85.576861 
C 336.688102 81.605403 331.300894 79.373949 325.684404 79.373949 
C 320.067915 79.373949 314.680706 81.605403 310.709248 85.576861 
C 306.737791 89.548319 304.506336 94.935528 304.506336 100.552017 
C 304.506336 106.168506 306.737791 111.555715 310.709248 115.527173 
C 314.680706 119.49863 320.067915 121.730085 325.684404 121.730085 
z
" clip-path="url(#p6993519efc)" style="fill: #ffffff; stroke: #000000; stroke-linejoin: miter"/>
   </g>
   <g id="patch_12">
    <path d="M 146.635596 121.730085 
C 152.252085 121.730085 157.639294 119.49863 161.610752 115.527173 
C 165.582209 111.555715 167.813664 106.168506 167.813664 100.552017 
C 167.813664 94.935528 165.582209 89.548319 161.610752 85.576861 
C 157.639294 81.605403 152.252085 79.373949 146.635596 79.373949 
C 141.019106 79.373949 135.631898 81.605403 131.66044 85.576861 
C 127.688982 89.548319 125.457527 94.935528 125.457527 100.552017 
C 125.457527 106.168506 127.688982 111.555715 131.66044 115.527173 
C 135.631898 119.49863 141.019106 121.730085 146.635596 121.730085 
z
" clip-path="url(#p6993519efc)" style="fill: #ffffff; stroke: #000000; stroke-linejoin: miter"/>
   </g>
  </g>
 </g>
 <defs>
  <clipPath id="p6993519efc">
   <rect x="57.6" y="74.616246" width="357.12" height="199.823508"/>
  </clipPath>
 </defs>
</svg>
