<?xml version="1.0" encoding="utf-8" standalone="no"?>
<!DOCTYPE svg PUBLIC "-//W3C//DTD SVG 1.1//EN"
  "http://www.w3.org/Graphics/SVG/1.1/DTD/svg11.dtd">
<svg xmlns:xlink="http://www.w3.org/1999/xlink" width="460.8pt" height="345.6pt" viewBox="0 0 460.8 345.6" xmlns="http://www.w3.org/2000/svg" version="1.1">
 <metadata>
  <rdf:RDF xmlns:dc="http://purl.org/dc/elements/1.1/" xmlns:cc="http://creativecommons.org/ns#" xmlns:rdf="http://www.w3.org/1999/02/22-rdf-syntax-ns#">
   <cc:Work>
    <dc:type rdf:resource="http://purl.org/dc/dcmitype/StillImage"/>
    <dc:date>2025-06-10T23:56:01.000409</dc:date>
    <dc:format>image/svg+xml</dc:format>
    <dc:creator>
     <cc:Agent>
      <dc:title>Matplotlib v3.10.1, https://matplotlib.org/</dc:title>
     </cc:Agent>
    </dc:creator>
   </cc:Work>
  </rdf:RDF>
 </metadata>
 <defs>
  <style type="text/css">*{stroke-linejoin: round; stroke-linecap: butt}</style>
 </defs>
 <g id="figure_1">
  <g id="patch_1">
   <path d="M 0 345.6 
L 460.8 345.6 
L 460.8 0 
L 0 0 
z
" style="fill: #ffffff"/>
  </g>
  <g id="axes_1">
   <g id="patch_2">
    <path d="M 345.729047 294.07072 
C 360.590489 294.07072 374.845246 288.166206 385.353873 277.657579 
C 395.862499 267.148953 401.767013 252.894196 401.767013 238.032754 
C 401.767013 223.171312 395.862499 208.916555 385.353873 198.407928 
C 374.845246 187.899302 360.590489 181.994788 345.729047 181.994788 
C 330.867605 181.994788 316.612848 187.899302 306.104222 198.407928 
C 295.595595 208.916555 289.691081 223.171312 289.691081 238.032754 
C 289.691081 252.894196 295.595595 267.148953 306.104222 277.657579 
C 316.612848 288.166206 330.867605 294.07072 345.729047 294.07072 
z
" clip-path="url(#pa02075c6d1)" style="fill: #ff0d0d; stroke: #000000; stroke-linejoin: miter"/>
   </g>
   <g id="patch_3">
    <path d="M 269.237076 231.979822 
C 286.350252 231.979822 302.76482 225.180685 314.865663 213.079842 
C 326.966506 200.978999 333.765643 184.564431 333.765643 167.451255 
C 333.765643 150.338079 326.966506 133.923511 314.865663 121.822668 
C 302.76482 109.721825 286.350252 102.922688 269.237076 102.922688 
C 252.1239 102.922688 235.709332 109.721825 223.608489 121.822668 
C 211.507646 133.923511 204.708509 150.338079 204.708509 167.451255 
C 204.708509 184.564431 211.507646 200.978999 223.608489 213.079842 
C 235.709332 225.180685 252.1239 231.979822 269.237076 231.979822 
z
" clip-path="url(#pa02075c6d1)" style="fill: #909090; stroke: #000000; stroke-linejoin: miter"/>
   </g>
   <g id="patch_4">
    <path d="M 156.396025 252.773282 
C 172.383334 252.773282 187.717996 246.421456 199.022731 235.116722 
C 210.327466 223.811987 216.679291 208.477325 216.679291 192.490015 
C 216.679291 176.502706 210.327466 161.168044 199.022731 149.863309 
C 187.717996 138.558575 172.383334 132.206749 156.396025 132.206749 
C 140.408715 132.206749 125.074053 138.558575 113.769318 149.863309 
C 102.464584 161.168044 96.112758 176.502706 96.112758 192.490015 
C 96.112758 208.477325 102.464584 223.811987 113.769318 235.116722 
C 125.074053 246.421456 140.408715 252.773282 156.396025 252.773282 
z
" clip-path="url(#pa02075c6d1)" style="fill: #3050f8; stroke: #000000; stroke-linejoin: miter"/>
   </g>
   <g id="patch_5">
    <path d="M 96.87385 156.794948 
C 103.854224 156.794948 110.54964 154.021616 115.48551 149.085746 
C 120.42138 144.149876 123.194712 137.45446 123.194712 130.474085 
C 123.194712 123.493711 120.42138 116.798295 115.48551 111.862425 
C 110.54964 106.926555 103.854224 104.153223 96.87385 104.153223 
C 89.893475 104.153223 83.198059 106.926555 78.262189 111.862425 
C 73.326319 116.798295 70.552987 123.493711 70.552987 130.474085 
C 70.552987 137.45446 73.326319 144.149876 78.262189 149.085746 
C 83.198059 154.021616 89.893475 156.794948 96.87385 156.794948 
z
" clip-path="url(#pa02075c6d1)" style="fill: #ffffff; stroke: #000000; stroke-linejoin: miter"/>
   </g>
   <g id="patch_6">
    <path d="M 131.277781 301.248 
C 138.258156 301.248 144.953572 298.474668 149.889442 293.538798 
C 154.825312 288.602928 157.598644 281.907512 157.598644 274.927137 
C 157.598644 267.946763 154.825312 261.251347 149.889442 256.315477 
C 144.953572 251.379607 138.258156 248.606275 131.277781 248.606275 
C 124.297407 248.606275 117.601991 251.379607 112.666121 256.315477 
C 107.730251 261.251347 104.956919 267.946763 104.956919 274.927137 
C 104.956919 281.907512 107.730251 288.602928 112.666121 293.538798 
C 117.601991 298.474668 124.297407 301.248 131.277781 301.248 
z
" clip-path="url(#pa02075c6d1)" style="fill: #ffffff; stroke: #000000; stroke-linejoin: miter"/>
   </g>
   <g id="patch_7">
    <path d="M 285.408293 100.449725 
C 292.388667 100.449725 299.084083 97.676393 304.019953 92.740523 
C 308.955824 87.804653 311.729156 81.109237 311.729156 74.128863 
C 311.729156 67.148488 308.955824 60.453072 304.019953 55.517202 
C 299.084083 50.581332 292.388667 47.808 285.408293 47.808 
C 278.427919 47.808 271.732503 50.581332 266.796632 55.517202 
C 261.860762 60.453072 259.08743 67.148488 259.08743 74.128863 
C 259.08743 81.109237 261.860762 87.804653 266.796632 92.740523 
C 271.732503 97.676393 278.427919 100.449725 285.408293 100.449725 
z
" clip-path="url(#pa02075c6d1)" style="fill: #ffffff; stroke: #000000; stroke-linejoin: miter"/>
   </g>
  </g>
 </g>
 <defs>
  <clipPath id="pa02075c6d1">
   <rect x="62.272636" y="41.472" width="347.774727" height="266.112"/>
  </clipPath>
 </defs>
</svg>
