<?xml version="1.0" encoding="utf-8" standalone="no"?>
<!DOCTYPE svg PUBLIC "-//W3C//DTD SVG 1.1//EN"
  "http://www.w3.org/Graphics/SVG/1.1/DTD/svg11.dtd">
<svg xmlns:xlink="http://www.w3.org/1999/xlink" width="460.8pt" height="345.6pt" viewBox="0 0 460.8 345.6" xmlns="http://www.w3.org/2000/svg" version="1.1">
 <metadata>
  <rdf:RDF xmlns:dc="http://purl.org/dc/elements/1.1/" xmlns:cc="http://creativecommons.org/ns#" xmlns:rdf="http://www.w3.org/1999/02/22-rdf-syntax-ns#">
   <cc:Work>
    <dc:type rdf:resource="http://purl.org/dc/dcmitype/StillImage"/>
    <dc:date>2025-06-10T23:52:19.051891</dc:date>
    <dc:format>image/svg+xml</dc:format>
    <dc:creator>
     <cc:Agent>
      <dc:title>Matplotlib v3.10.1, https://matplotlib.org/</dc:title>
     </cc:Agent>
    </dc:creator>
   </cc:Work>
  </rdf:RDF>
 </metadata>
 <defs>
  <style type="text/css">*{stroke-linejoin: round; stroke-linecap: butt}</style>
 </defs>
 <g id="figure_1">
  <g id="patch_1">
   <path d="M 0 345.6 
L 460.8 345.6 
L 460.8 0 
L 0 0 
z
" style="fill: #ffffff"/>
  </g>
  <g id="axes_1">
   <g id="patch_2">
    <path d="M 311.57605 282.68409 
C 317.800252 282.68409 323.770364 280.211188 328.171539 275.810013 
C 332.572714 271.408838 335.045615 265.438726 335.045615 259.214524 
C 335.045615 252.990323 332.572714 247.020211 328.171539 242.619036 
C 323.770364 238.217861 317.800252 235.744959 311.57605 235.744959 
C 305.351849 235.744959 299.381736 238.217861 294.980561 242.619036 
C 290.579386 247.020211 288.106485 252.990323 288.106485 259.214524 
C 288.106485 265.438726 290.579386 271.408838 294.980561 275.810013 
C 299.381736 280.211188 305.351849 282.68409 311.57605 282.68409 
z
" clip-path="url(#p3f7b84a548)" style="fill: #ffffff; stroke: #000000; stroke-linejoin: miter"/>
   </g>
   <g id="patch_3">
    <path d="M 221.745842 113.311041 
C 227.970044 113.311041 233.940156 110.838139 238.341331 106.436964 
C 242.742506 102.035789 245.215407 96.065677 245.215407 89.841476 
C 245.215407 83.617274 242.742506 77.647162 238.341331 73.245987 
C 233.940156 68.844812 227.970044 66.37191 221.745842 66.37191 
C 215.521641 66.37191 209.551528 68.844812 205.150353 73.245987 
C 200.749178 77.647162 198.276277 83.617274 198.276277 89.841476 
C 198.276277 96.065677 200.749178 102.035789 205.150353 106.436964 
C 209.551528 110.838139 215.521641 113.311041 221.745842 113.311041 
z
" clip-path="url(#p3f7b84a548)" style="fill: #ffffff; stroke: #000000; stroke-linejoin: miter"/>
   </g>
   <g id="patch_4">
    <path d="M 112.891697 259.39475 
C 119.115898 259.39475 125.086011 256.921849 129.487186 252.520674 
C 133.888361 248.119499 136.361262 242.149387 136.361262 235.925185 
C 136.361262 229.700984 133.888361 223.730872 129.487186 219.329697 
C 125.086011 214.928522 119.115898 212.45562 112.891697 212.45562 
C 106.667496 212.45562 100.697383 214.928522 96.296208 219.329697 
C 91.895033 223.730872 89.422132 229.700984 89.422132 235.925185 
C 89.422132 242.149387 91.895033 248.119499 96.296208 252.520674 
C 100.697383 256.921849 106.667496 259.39475 112.891697 259.39475 
z
" clip-path="url(#p3f7b84a548)" style="fill: #ffffff; stroke: #000000; stroke-linejoin: miter"/>
   </g>
   <g id="patch_5">
    <path d="M 311.482019 267.603345 
C 326.741352 267.603345 341.377756 261.540748 352.167733 250.75077 
C 362.957711 239.960793 369.020308 225.324389 369.020308 210.065056 
C 369.020308 194.805724 362.957711 180.169319 352.167733 169.379342 
C 341.377756 158.589364 326.741352 152.526767 311.482019 152.526767 
C 296.222686 152.526767 281.586282 158.589364 270.796305 169.379342 
C 260.006327 180.169319 253.94373 194.805724 253.94373 210.065056 
C 253.94373 225.324389 260.006327 239.960793 270.796305 250.75077 
C 281.586282 261.540748 296.222686 267.603345 311.482019 267.603345 
z
" clip-path="url(#p3f7b84a548)" style="fill: #909090; stroke: #000000; stroke-linejoin: miter"/>
   </g>
   <g id="patch_6">
    <path d="M 382.747578 190.221675 
C 388.971779 190.221675 394.941891 187.748774 399.343066 183.347599 
C 403.744241 178.946424 406.217143 172.976311 406.217143 166.75211 
C 406.217143 160.527908 403.744241 154.557796 399.343066 150.156621 
C 394.941891 145.755446 388.971779 143.282545 382.747578 143.282545 
C 376.523376 143.282545 370.553264 145.755446 366.152089 150.156621 
C 361.750914 154.557796 359.278013 160.527908 359.278013 166.75211 
C 359.278013 172.976311 361.750914 178.946424 366.152089 183.347599 
C 370.553264 187.748774 376.523376 190.221675 382.747578 190.221675 
z
" clip-path="url(#p3f7b84a548)" style="fill: #ffffff; stroke: #000000; stroke-linejoin: miter"/>
   </g>
   <g id="patch_7">
    <path d="M 119.855732 243.806486 
C 134.111161 243.806486 147.784644 238.142744 157.864755 228.062634 
C 167.944865 217.982523 173.608607 204.30904 173.608607 190.053611 
C 173.608607 175.798182 167.944865 162.124699 157.864755 152.044589 
C 147.784644 141.964478 134.111161 136.300736 119.855732 136.300736 
C 105.600303 136.300736 91.92682 141.964478 81.84671 152.044589 
C 71.766599 162.124699 66.102857 175.798182 66.102857 190.053611 
C 66.102857 204.30904 71.766599 217.982523 81.84671 228.062634 
C 91.92682 238.142744 105.600303 243.806486 119.855732 243.806486 
z
" clip-path="url(#p3f7b84a548)" style="fill: #3050f8; stroke: #000000; stroke-linejoin: miter"/>
   </g>
   <g id="patch_8">
    <path d="M 219.022213 197.54849 
C 234.281545 197.54849 248.917949 191.485893 259.707927 180.695916 
C 270.497904 169.905938 276.560501 155.269534 276.560501 140.010201 
C 276.560501 124.750869 270.497904 110.114465 259.707927 99.324487 
C 248.917949 88.53451 234.281545 82.471912 219.022213 82.471912 
C 203.76288 82.471912 189.126476 88.53451 178.336498 99.324487 
C 167.546521 110.114465 161.483924 124.750869 161.483924 140.010201 
C 161.483924 155.269534 167.546521 169.905938 178.336498 180.695916 
C 189.126476 191.485893 203.76288 197.54849 219.022213 197.54849 
z
" clip-path="url(#p3f7b84a548)" style="fill: #909090; stroke: #000000; stroke-linejoin: miter"/>
   </g>
   <g id="patch_9">
    <path d="M 112.891697 259.39475 
C 119.115898 259.39475 125.086011 256.921849 129.487186 252.520674 
C 133.888361 248.119499 136.361262 242.149387 136.361262 235.925185 
C 136.361262 229.700984 133.888361 223.730872 129.487186 219.329697 
C 125.086011 214.928522 119.115898 212.45562 112.891697 212.45562 
C 106.667496 212.45562 100.697383 214.928522 96.296208 219.329697 
C 91.895033 223.730872 89.422132 229.700984 89.422132 235.925185 
C 89.422132 242.149387 91.895033 248.119499 96.296208 252.520674 
C 100.697383 256.921849 106.667496 259.39475 112.891697 259.39475 
z
" clip-path="url(#p3f7b84a548)" style="fill: #ffffff; stroke: #000000; stroke-linejoin: miter"/>
   </g>
   <g id="patch_10">
    <path d="M 221.745842 113.311041 
C 227.970044 113.311041 233.940156 110.838139 238.341331 106.436964 
C 242.742506 102.035789 245.215407 96.065677 245.215407 89.841476 
C 245.215407 83.617274 242.742506 77.647162 238.341331 73.245987 
C 233.940156 68.844812 227.970044 66.37191 221.745842 66.37191 
C 215.521641 66.37191 209.551528 68.844812 205.150353 73.245987 
C 200.749178 77.647162 198.276277 83.617274 198.276277 89.841476 
C 198.276277 96.065677 200.749178 102.035789 205.150353 106.436964 
C 209.551528 110.838139 215.521641 113.311041 221.745842 113.311041 
z
" clip-path="url(#p3f7b84a548)" style="fill: #ffffff; stroke: #000000; stroke-linejoin: miter"/>
   </g>
   <g id="patch_11">
    <path d="M 311.57605 282.68409 
C 317.800252 282.68409 323.770364 280.211188 328.171539 275.810013 
C 332.572714 271.408838 335.045615 265.438726 335.045615 259.214524 
C 335.045615 252.990323 332.572714 247.020211 328.171539 242.619036 
C 323.770364 238.217861 317.800252 235.744959 311.57605 235.744959 
C 305.351849 235.744959 299.381736 238.217861 294.980561 242.619036 
C 290.579386 247.020211 288.106485 252.990323 288.106485 259.214524 
C 288.106485 265.438726 290.579386 271.408838 294.980561 275.810013 
C 299.381736 280.211188 305.351849 282.68409 311.57605 282.68409 
z
" clip-path="url(#p3f7b84a548)" style="fill: #ffffff; stroke: #000000; stroke-linejoin: miter"/>
   </g>
  </g>
 </g>
 <defs>
  <clipPath id="p3f7b84a548">
   <rect x="57.6" y="60.964106" width="357.12" height="227.127788"/>
  </clipPath>
 </defs>
</svg>
