<?xml version="1.0" encoding="utf-8" standalone="no"?>
<!DOCTYPE svg PUBLIC "-//W3C//DTD SVG 1.1//EN"
  "http://www.w3.org/Graphics/SVG/1.1/DTD/svg11.dtd">
<svg xmlns:xlink="http://www.w3.org/1999/xlink" width="460.8pt" height="345.6pt" viewBox="0 0 460.8 345.6" xmlns="http://www.w3.org/2000/svg" version="1.1">
 <metadata>
  <rdf:RDF xmlns:dc="http://purl.org/dc/elements/1.1/" xmlns:cc="http://creativecommons.org/ns#" xmlns:rdf="http://www.w3.org/1999/02/22-rdf-syntax-ns#">
   <cc:Work>
    <dc:type rdf:resource="http://purl.org/dc/dcmitype/StillImage"/>
    <dc:date>2025-06-10T23:55:00.221204</dc:date>
    <dc:format>image/svg+xml</dc:format>
    <dc:creator>
     <cc:Agent>
      <dc:title>Matplotlib v3.10.1, https://matplotlib.org/</dc:title>
     </cc:Agent>
    </dc:creator>
   </cc:Work>
  </rdf:RDF>
 </metadata>
 <defs>
  <style type="text/css">*{stroke-linejoin: round; stroke-linecap: butt}</style>
 </defs>
 <g id="figure_1">
  <g id="patch_1">
   <path d="M 0 345.6 
L 460.8 345.6 
L 460.8 0 
L 0 0 
z
" style="fill: #ffffff"/>
  </g>
  <g id="axes_1">
   <g id="patch_2">
    <path d="M 327.530083 297.900395 
C 340.000017 297.900395 351.960893 292.946038 360.778468 284.128464 
C 369.596043 275.310889 374.5504 263.350013 374.5504 250.880079 
C 374.5504 238.410145 369.596043 226.449269 360.778468 217.631694 
C 351.960893 208.81412 340.000017 203.859762 327.530083 203.859762 
C 315.06015 203.859762 303.099273 208.81412 294.281699 217.631694 
C 285.464124 226.449269 280.509767 238.410145 280.509767 250.880079 
C 280.509767 263.350013 285.464124 275.310889 294.281699 284.128464 
C 303.099273 292.946038 315.06015 297.900395 327.530083 297.900395 
z
" clip-path="url(#pdb5dcbd292)" style="fill: #ff0d0d; stroke: #000000; stroke-linejoin: miter"/>
   </g>
   <g id="patch_3">
    <path d="M 263.479009 245.803688 
C 277.838327 245.803688 291.611457 240.098671 301.765028 229.9451 
C 311.918599 219.791529 317.623616 206.018399 317.623616 191.659081 
C 317.623616 177.299764 311.918599 163.526634 301.765028 153.373063 
C 291.611457 143.219492 277.838327 137.514475 263.479009 137.514475 
C 249.119692 137.514475 235.346561 143.219492 225.192991 153.373063 
C 215.03942 163.526634 209.334402 177.299764 209.334402 191.659081 
C 209.334402 206.018399 215.03942 219.791529 225.192991 229.9451 
C 235.346561 240.098671 249.119692 245.803688 263.479009 245.803688 
z
" clip-path="url(#pdb5dcbd292)" style="fill: #909090; stroke: #000000; stroke-linejoin: miter"/>
   </g>
   <g id="patch_4">
    <path d="M 279.127903 141.848633 
C 291.597837 141.848633 303.558713 136.894276 312.376288 128.076701 
C 321.193863 119.259126 326.14822 107.29825 326.14822 94.828316 
C 326.14822 82.358383 321.193863 70.397507 312.376288 61.579932 
C 303.558713 52.762357 291.597837 47.808 279.127903 47.808 
C 266.65797 47.808 254.697093 52.762357 245.879519 61.579932 
C 237.061944 70.397507 232.107587 82.358383 232.107587 94.828316 
C 232.107587 107.29825 237.061944 119.259126 245.879519 128.076701 
C 254.697093 136.894276 266.65797 141.848633 279.127903 141.848633 
z
" clip-path="url(#pdb5dcbd292)" style="fill: #ff0d0d; stroke: #000000; stroke-linejoin: miter"/>
   </g>
   <g id="patch_5">
    <path d="M 348.355105 109.675602 
C 354.212195 109.675602 359.830182 107.348556 363.97177 103.206968 
C 368.113358 99.065379 370.440405 93.447392 370.440405 87.590302 
C 370.440405 81.733212 368.113358 76.115225 363.97177 71.973637 
C 359.830182 67.832048 354.212195 65.505002 348.355105 65.505002 
C 342.498014 65.505002 336.880027 67.832048 332.738439 71.973637 
C 328.596851 76.115225 326.269804 81.733212 326.269804 87.590302 
C 326.269804 93.447392 328.596851 99.065379 332.738439 103.206968 
C 336.880027 107.348556 342.498014 109.675602 348.355105 109.675602 
z
" clip-path="url(#pdb5dcbd292)" style="fill: #ffffff; stroke: #000000; stroke-linejoin: miter"/>
   </g>
   <g id="patch_6">
    <path d="M 168.483401 261.068296 
C 181.898027 261.068296 194.76503 255.738609 204.250603 246.253036 
C 213.736176 236.767463 219.065863 223.90046 219.065863 210.485835 
C 219.065863 197.071209 213.736176 184.204206 204.250603 174.718633 
C 194.76503 165.23306 181.898027 159.903373 168.483401 159.903373 
C 155.068776 159.903373 142.201772 165.23306 132.7162 174.718633 
C 123.230627 184.204206 117.90094 197.071209 117.90094 210.485835 
C 117.90094 223.90046 123.230627 236.767463 132.7162 246.253036 
C 142.201772 255.738609 155.068776 261.068296 168.483401 261.068296 
z
" clip-path="url(#pdb5dcbd292)" style="fill: #3050f8; stroke: #000000; stroke-linejoin: miter"/>
   </g>
   <g id="patch_7">
    <path d="M 119.8549 179.470718 
C 125.71199 179.470718 131.329978 177.143671 135.471566 173.002083 
C 139.613154 168.860495 141.940201 163.242508 141.940201 157.385418 
C 141.940201 151.528328 139.613154 145.91034 135.471566 141.768752 
C 131.329978 137.627164 125.71199 135.300117 119.8549 135.300117 
C 113.99781 135.300117 108.379823 137.627164 104.238235 141.768752 
C 100.096647 145.91034 97.7696 151.528328 97.7696 157.385418 
C 97.7696 163.242508 100.096647 168.860495 104.238235 173.002083 
C 108.379823 177.143671 113.99781 179.470718 119.8549 179.470718 
z
" clip-path="url(#pdb5dcbd292)" style="fill: #ffffff; stroke: #000000; stroke-linejoin: miter"/>
   </g>
   <g id="patch_8">
    <path d="M 147.135971 301.248 
C 152.993061 301.248 158.611048 298.920953 162.752636 294.779365 
C 166.894224 290.637777 169.221271 285.01979 169.221271 279.1627 
C 169.221271 273.30561 166.894224 267.687622 162.752636 263.546034 
C 158.611048 259.404446 152.993061 257.0774 147.135971 257.0774 
C 141.278881 257.0774 135.660893 259.404446 131.519305 263.546034 
C 127.377717 267.687622 125.050671 273.30561 125.050671 279.1627 
C 125.050671 285.01979 127.377717 290.637777 131.519305 294.779365 
C 135.660893 298.920953 141.278881 301.248 147.135971 301.248 
z
" clip-path="url(#pdb5dcbd292)" style="fill: #ffffff; stroke: #000000; stroke-linejoin: miter"/>
   </g>
  </g>
 </g>
 <defs>
  <clipPath id="pdb5dcbd292">
   <rect x="90.85008" y="41.472" width="290.61984" height="266.112"/>
  </clipPath>
 </defs>
</svg>
