<?xml version="1.0" encoding="utf-8" standalone="no"?>
<!DOCTYPE svg PUBLIC "-//W3C//DTD SVG 1.1//EN"
  "http://www.w3.org/Graphics/SVG/1.1/DTD/svg11.dtd">
<svg xmlns:xlink="http://www.w3.org/1999/xlink" width="460.8pt" height="345.6pt" viewBox="0 0 460.8 345.6" xmlns="http://www.w3.org/2000/svg" version="1.1">
 <metadata>
  <rdf:RDF xmlns:dc="http://purl.org/dc/elements/1.1/" xmlns:cc="http://creativecommons.org/ns#" xmlns:rdf="http://www.w3.org/1999/02/22-rdf-syntax-ns#">
   <cc:Work>
    <dc:type rdf:resource="http://purl.org/dc/dcmitype/StillImage"/>
    <dc:date>2025-06-10T23:53:59.235736</dc:date>
    <dc:format>image/svg+xml</dc:format>
    <dc:creator>
     <cc:Agent>
      <dc:title>Matplotlib v3.10.1, https://matplotlib.org/</dc:title>
     </cc:Agent>
    </dc:creator>
   </cc:Work>
  </rdf:RDF>
 </metadata>
 <defs>
  <style type="text/css">*{stroke-linejoin: round; stroke-linecap: butt}</style>
 </defs>
 <g id="figure_1">
  <g id="patch_1">
   <path d="M 0 345.6 
L 460.8 345.6 
L 460.8 0 
L 0 0 
z
" style="fill: #ffffff"/>
  </g>
  <g id="axes_1">
   <g id="patch_2">
    <path d="M 337.67775 108.940381 
C 343.610082 108.940381 349.30024 106.583441 353.495033 102.388648 
C 357.689826 98.193856 360.046766 92.503697 360.046766 86.571365 
C 360.046766 80.639032 357.689826 74.948874 353.495033 70.754082 
C 349.30024 66.559289 343.610082 64.202348 337.67775 64.202348 
C 331.745417 64.202348 326.055259 66.559289 321.860467 70.754082 
C 317.665674 74.948874 315.308733 80.639032 315.308733 86.571365 
C 315.308733 92.503697 317.665674 98.193856 321.860467 102.388648 
C 326.055259 106.583441 331.745417 108.940381 337.67775 108.940381 
z
" clip-path="url(#pe4649f268a)" style="fill: #ffffff; stroke: #000000; stroke-linejoin: miter"/>
   </g>
   <g id="patch_3">
    <path d="M 315.610121 301.248 
C 328.240249 301.248 340.354779 296.229997 349.285628 287.299149 
C 358.216476 278.3683 363.234479 266.25377 363.234479 253.623642 
C 363.234479 240.993515 358.216476 228.878985 349.285628 219.948136 
C 340.354779 211.017287 328.240249 205.999285 315.610121 205.999285 
C 302.979994 205.999285 290.865464 211.017287 281.934615 219.948136 
C 273.003767 228.878985 267.985764 240.993515 267.985764 253.623642 
C 267.985764 266.25377 273.003767 278.3683 281.934615 287.299149 
C 290.865464 296.229997 302.979994 301.248 315.610121 301.248 
z
" clip-path="url(#pe4649f268a)" style="fill: #ff0d0d; stroke: #000000; stroke-linejoin: miter"/>
   </g>
   <g id="patch_4">
    <path d="M 267.727298 143.056715 
C 280.357425 143.056715 292.471956 138.038713 301.402804 129.107864 
C 310.333653 120.177015 315.351656 108.062485 315.351656 95.432358 
C 315.351656 82.80223 310.333653 70.6877 301.402804 61.756851 
C 292.471956 52.826003 280.357425 47.808 267.727298 47.808 
C 255.097171 47.808 242.982641 52.826003 234.051792 61.756851 
C 225.120943 70.6877 220.102941 82.80223 220.102941 95.432358 
C 220.102941 108.062485 225.120943 120.177015 234.051792 129.107864 
C 242.982641 138.038713 255.097171 143.056715 267.727298 143.056715 
z
" clip-path="url(#pe4649f268a)" style="fill: #ff0d0d; stroke: #000000; stroke-linejoin: miter"/>
   </g>
   <g id="patch_5">
    <path d="M 252.989791 246.759629 
C 267.533574 246.759629 281.483639 240.981323 291.767647 230.697315 
C 302.051654 220.413308 307.82996 206.463242 307.82996 191.91946 
C 307.82996 177.375677 302.051654 163.425611 291.767647 153.141604 
C 281.483639 142.857596 267.533574 137.07929 252.989791 137.07929 
C 238.446008 137.07929 224.495943 142.857596 214.211935 153.141604 
C 203.927928 163.425611 198.149622 177.375677 198.149622 191.91946 
C 198.149622 206.463242 203.927928 220.413308 214.211935 230.697315 
C 224.495943 240.981323 238.446008 246.759629 252.989791 246.759629 
z
" clip-path="url(#pe4649f268a)" style="fill: #909090; stroke: #000000; stroke-linejoin: miter"/>
   </g>
   <g id="patch_6">
    <path d="M 156.709879 255.59303 
C 169.340006 255.59303 181.454536 250.575027 190.385385 241.644179 
C 199.316233 232.71333 204.334236 220.5988 204.334236 207.968673 
C 204.334236 195.338545 199.316233 183.224015 190.385385 174.293166 
C 181.454536 165.362318 169.340006 160.344315 156.709879 160.344315 
C 144.079751 160.344315 131.965221 165.362318 123.034372 174.293166 
C 114.103524 183.224015 109.085521 195.338545 109.085521 207.968673 
C 109.085521 220.5988 114.103524 232.71333 123.034372 241.644179 
C 131.965221 250.575027 144.079751 255.59303 156.709879 255.59303 
z
" clip-path="url(#pe4649f268a)" style="fill: #ff0d0d; stroke: #000000; stroke-linejoin: miter"/>
   </g>
   <g id="patch_7">
    <path d="M 148.7457 300.392917 
C 154.678032 300.392917 160.36819 298.035977 164.562983 293.841184 
C 168.757775 289.646392 171.114716 283.956233 171.114716 278.023901 
C 171.114716 272.091568 168.757775 266.40141 164.562983 262.206618 
C 160.36819 258.011825 154.678032 255.654884 148.7457 255.654884 
C 142.813367 255.654884 137.123209 258.011825 132.928416 262.206618 
C 128.733624 266.40141 126.376683 272.091568 126.376683 278.023901 
C 126.376683 283.956233 128.733624 289.646392 132.928416 293.841184 
C 137.123209 298.035977 142.813367 300.392917 148.7457 300.392917 
z
" clip-path="url(#pe4649f268a)" style="fill: #ffffff; stroke: #000000; stroke-linejoin: miter"/>
   </g>
  </g>
 </g>
 <defs>
  <clipPath id="pe4649f268a">
   <rect x="102.731797" y="41.472" width="266.856406" height="266.112"/>
  </clipPath>
 </defs>
</svg>
