<?xml version="1.0" encoding="utf-8" standalone="no"?>
<!DOCTYPE svg PUBLIC "-//W3C//DTD SVG 1.1//EN"
  "http://www.w3.org/Graphics/SVG/1.1/DTD/svg11.dtd">
<svg xmlns:xlink="http://www.w3.org/1999/xlink" width="460.8pt" height="345.6pt" viewBox="0 0 460.8 345.6" xmlns="http://www.w3.org/2000/svg" version="1.1">
 <metadata>
  <rdf:RDF xmlns:dc="http://purl.org/dc/elements/1.1/" xmlns:cc="http://creativecommons.org/ns#" xmlns:rdf="http://www.w3.org/1999/02/22-rdf-syntax-ns#">
   <cc:Work>
    <dc:type rdf:resource="http://purl.org/dc/dcmitype/StillImage"/>
    <dc:date>2025-06-11T12:03:10.363707</dc:date>
    <dc:format>image/svg+xml</dc:format>
    <dc:creator>
     <cc:Agent>
      <dc:title>Matplotlib v3.10.1, https://matplotlib.org/</dc:title>
     </cc:Agent>
    </dc:creator>
   </cc:Work>
  </rdf:RDF>
 </metadata>
 <defs>
  <style type="text/css">*{stroke-linejoin: round; stroke-linecap: butt}</style>
 </defs>
 <g id="figure_1">
  <g id="patch_1">
   <path d="M 0 345.6 
L 460.8 345.6 
L 460.8 0 
L 0 0 
z
" style="fill: #ffffff"/>
  </g>
  <g id="axes_1">
   <g id="patch_2">
    <path d="M 279.894003 235.166927 
C 284.963163 235.166927 289.825385 233.152928 293.409823 229.568491 
C 296.99426 225.984053 299.008259 221.121831 299.008259 216.052671 
C 299.008259 210.983511 296.99426 206.121288 293.409823 202.536851 
C 289.825385 198.952413 284.963163 196.938415 279.894003 196.938415 
C 274.824843 196.938415 269.96262 198.952413 266.378183 202.536851 
C 262.793745 206.121288 260.779747 210.983511 260.779747 216.052671 
C 260.779747 221.121831 262.793745 225.984053 266.378183 229.568491 
C 269.96262 233.152928 274.824843 235.166927 279.894003 235.166927 
z
" clip-path="url(#pd76549806f)" style="fill: #248f8f; stroke: #000000; stroke-linejoin: miter"/>
   </g>
   <g id="patch_3">
    <path d="M 304.221431 216.59513 
C 306.512969 216.59513 308.71096 215.684692 310.331322 214.06433 
C 311.951684 212.443968 312.862122 210.245977 312.862122 207.954439 
C 312.862122 205.662901 311.951684 203.46491 310.331322 201.844547 
C 308.71096 200.224185 306.512969 199.313748 304.221431 199.313748 
C 301.929893 199.313748 299.731901 200.224185 298.111539 201.844547 
C 296.491177 203.46491 295.580739 205.662901 295.580739 207.954439 
C 295.580739 210.245977 296.491177 212.443968 298.111539 214.06433 
C 299.731901 215.684692 301.929893 216.59513 304.221431 216.59513 
z
" clip-path="url(#pd76549806f)" style="fill: #ff0d0d; stroke: #000000; stroke-linejoin: miter"/>
   </g>
   <g id="patch_4">
    <path d="M 270.881574 202.61751 
C 273.173112 202.61751 275.371103 201.707072 276.991465 200.08671 
C 278.611827 198.466348 279.522265 196.268357 279.522265 193.976819 
C 279.522265 191.685281 278.611827 189.48729 276.991465 187.866928 
C 275.371103 186.246565 273.173112 185.336128 270.881574 185.336128 
C 268.590036 185.336128 266.392045 186.246565 264.771683 187.866928 
C 263.151321 189.48729 262.240883 191.685281 262.240883 193.976819 
C 262.240883 196.268357 263.151321 198.466348 264.771683 200.08671 
C 266.392045 201.707072 268.590036 202.61751 270.881574 202.61751 
z
" clip-path="url(#pd76549806f)" style="fill: #ff0d0d; stroke: #000000; stroke-linejoin: miter"/>
   </g>
   <g id="patch_5">
    <path d="M 295.173201 175.846551 
C 297.464739 175.846551 299.66273 174.936113 301.283092 173.315751 
C 302.903454 171.695389 303.813892 169.497398 303.813892 167.20586 
C 303.813892 164.914321 302.903454 162.71633 301.283092 161.095968 
C 299.66273 159.475606 297.464739 158.565168 295.173201 158.565168 
C 292.881663 158.565168 290.683672 159.475606 289.06331 161.095968 
C 287.442948 162.71633 286.53251 164.914321 286.53251 167.20586 
C 286.53251 169.497398 287.442948 171.695389 289.06331 173.315751 
C 290.683672 174.936113 292.881663 175.846551 295.173201 175.846551 
z
" clip-path="url(#pd76549806f)" style="fill: #ff0d0d; stroke: #000000; stroke-linejoin: miter"/>
   </g>
   <g id="patch_6">
    <path d="M 260.093269 259.562556 
C 262.384807 259.562556 264.582798 258.652118 266.20316 257.031756 
C 267.823522 255.411394 268.73396 253.213403 268.73396 250.921864 
C 268.73396 248.630326 267.823522 246.432335 266.20316 244.811973 
C 264.582798 243.191611 262.384807 242.281173 260.093269 242.281173 
C 257.801731 242.281173 255.603739 243.191611 253.983377 244.811973 
C 252.363015 246.432335 251.452577 248.630326 251.452577 250.921864 
C 251.452577 253.213403 252.363015 255.411394 253.983377 257.031756 
C 255.603739 258.652118 257.801731 259.562556 260.093269 259.562556 
z
" clip-path="url(#pd76549806f)" style="fill: #ff0d0d; stroke: #000000; stroke-linejoin: miter"/>
   </g>
   <g id="patch_7">
    <path d="M 259.429009 174.564569 
C 261.720547 174.564569 263.918538 173.654132 265.5389 172.03377 
C 267.159262 170.413407 268.0697 168.215416 268.0697 165.923878 
C 268.0697 163.63234 267.159262 161.434349 265.5389 159.813987 
C 263.918538 158.193625 261.720547 157.283187 259.429009 157.283187 
C 257.137471 157.283187 254.93948 158.193625 253.319118 159.813987 
C 251.698755 161.434349 250.788318 163.63234 250.788318 165.923878 
C 250.788318 168.215416 251.698755 170.413407 253.319118 172.03377 
C 254.93948 173.654132 257.137471 174.564569 259.429009 174.564569 
z
" clip-path="url(#pd76549806f)" style="fill: #ff0d0d; stroke: #000000; stroke-linejoin: miter"/>
   </g>
   <g id="patch_8">
    <path d="M 284.384895 232.791594 
C 286.676433 232.791594 288.874424 231.881156 290.494786 230.260794 
C 292.115148 228.640432 293.025586 226.442441 293.025586 224.150903 
C 293.025586 221.859365 292.115148 219.661373 290.494786 218.041011 
C 288.874424 216.420649 286.676433 215.510211 284.384895 215.510211 
C 282.093357 215.510211 279.895365 216.420649 278.275003 218.041011 
C 276.654641 219.661373 275.744203 221.859365 275.744203 224.150903 
C 275.744203 226.442441 276.654641 228.640432 278.275003 230.260794 
C 279.895365 231.881156 282.093357 232.791594 284.384895 232.791594 
z
" clip-path="url(#pd76549806f)" style="fill: #ff0d0d; stroke: #000000; stroke-linejoin: miter"/>
   </g>
   <g id="patch_9">
    <path d="M 308.712322 235.166927 
C 313.781482 235.166927 318.643705 233.152928 322.228143 229.568491 
C 325.81258 225.984053 327.826579 221.121831 327.826579 216.052671 
C 327.826579 210.983511 325.81258 206.121288 322.228143 202.536851 
C 318.643705 198.952413 313.781482 196.938415 308.712322 196.938415 
C 303.643163 196.938415 298.78094 198.952413 295.196502 202.536851 
C 291.612065 206.121288 289.598066 210.983511 289.598066 216.052671 
C 289.598066 221.121831 291.612065 225.984053 295.196502 229.568491 
C 298.78094 233.152928 303.643163 235.166927 308.712322 235.166927 
z
" clip-path="url(#pd76549806f)" style="fill: #248f8f; stroke: #000000; stroke-linejoin: miter"/>
   </g>
   <g id="patch_10">
    <path d="M 279.564452 199.064606 
C 284.633612 199.064606 289.495835 197.050607 293.080272 193.46617 
C 296.664709 189.881733 298.678708 185.01951 298.678708 179.95035 
C 298.678708 174.88119 296.664709 170.018967 293.080272 166.43453 
C 289.495835 162.850092 284.633612 160.836094 279.564452 160.836094 
C 274.495292 160.836094 269.633069 162.850092 266.048632 166.43453 
C 262.464194 170.018967 260.450196 174.88119 260.450196 179.95035 
C 260.450196 185.01951 262.464194 189.881733 266.048632 193.46617 
C 269.633069 197.050607 274.495292 199.064606 279.564452 199.064606 
z
" clip-path="url(#pd76549806f)" style="fill: #248f8f; stroke: #000000; stroke-linejoin: miter"/>
   </g>
   <g id="patch_11">
    <path d="M 250.417977 162.965705 
C 255.487137 162.965705 260.34936 160.951706 263.933797 157.367269 
C 267.518235 153.782832 269.532233 148.920609 269.532233 143.851449 
C 269.532233 138.782289 267.518235 133.920066 263.933797 130.335629 
C 260.34936 126.751191 255.487137 124.737193 250.417977 124.737193 
C 245.348817 124.737193 240.486595 126.751191 236.902157 130.335629 
C 233.31772 133.920066 231.303721 138.782289 231.303721 143.851449 
C 231.303721 148.920609 233.31772 153.782832 236.902157 157.367269 
C 240.486595 160.951706 245.348817 162.965705 250.417977 162.965705 
z
" clip-path="url(#pd76549806f)" style="fill: #248f8f; stroke: #000000; stroke-linejoin: miter"/>
   </g>
   <g id="patch_12">
    <path d="M 248.640703 231.509612 
C 250.932241 231.509612 253.130232 230.599175 254.750594 228.978813 
C 256.370956 227.358451 257.281394 225.160459 257.281394 222.868921 
C 257.281394 220.577383 256.370956 218.379392 254.750594 216.75903 
C 253.130232 215.138668 250.932241 214.22823 248.640703 214.22823 
C 246.349164 214.22823 244.151173 215.138668 242.530811 216.75903 
C 240.910449 218.379392 240.000011 220.577383 240.000011 222.868921 
C 240.000011 225.160459 240.910449 227.358451 242.530811 228.978813 
C 244.151173 230.599175 246.349164 231.509612 248.640703 231.509612 
z
" clip-path="url(#pd76549806f)" style="fill: #ff0d0d; stroke: #000000; stroke-linejoin: miter"/>
   </g>
   <g id="patch_13">
    <path d="M 333.03975 216.59513 
C 335.331288 216.59513 337.52928 215.684692 339.149642 214.06433 
C 340.770004 212.443968 341.680442 210.245977 341.680442 207.954439 
C 341.680442 205.662901 340.770004 203.46491 339.149642 201.844547 
C 337.52928 200.224185 335.331288 199.313748 333.03975 199.313748 
C 330.748212 199.313748 328.550221 200.224185 326.929859 201.844547 
C 325.309497 203.46491 324.399059 205.662901 324.399059 207.954439 
C 324.399059 210.245977 325.309497 212.443968 326.929859 214.06433 
C 328.550221 215.684692 330.748212 216.59513 333.03975 216.59513 
z
" clip-path="url(#pd76549806f)" style="fill: #ff0d0d; stroke: #000000; stroke-linejoin: miter"/>
   </g>
   <g id="patch_14">
    <path d="M 274.745405 144.393908 
C 277.036943 144.393908 279.234934 143.48347 280.855296 141.863108 
C 282.475659 140.242746 283.386096 138.044755 283.386096 135.753217 
C 283.386096 133.461679 282.475659 131.263688 280.855296 129.643326 
C 279.234934 128.022963 277.036943 127.112526 274.745405 127.112526 
C 272.453867 127.112526 270.255876 128.022963 268.635514 129.643326 
C 267.015152 131.263688 266.104714 133.461679 266.104714 135.753217 
C 266.104714 138.044755 267.015152 140.242746 268.635514 141.863108 
C 270.255876 143.48347 272.453867 144.393908 274.745405 144.393908 
z
" clip-path="url(#pd76549806f)" style="fill: #ff0d0d; stroke: #000000; stroke-linejoin: miter"/>
   </g>
   <g id="patch_15">
    <path d="M 299.699894 202.61751 
C 301.991432 202.61751 304.189423 201.707072 305.809785 200.08671 
C 307.430147 198.466348 308.340585 196.268357 308.340585 193.976819 
C 308.340585 191.685281 307.430147 189.48729 305.809785 187.866928 
C 304.189423 186.246565 301.991432 185.336128 299.699894 185.336128 
C 297.408356 185.336128 295.210365 186.246565 293.590002 187.866928 
C 291.96964 189.48729 291.059203 191.685281 291.059203 193.976819 
C 291.059203 196.268357 291.96964 198.466348 293.590002 200.08671 
C 295.210365 201.707072 297.408356 202.61751 299.699894 202.61751 
z
" clip-path="url(#pd76549806f)" style="fill: #ff0d0d; stroke: #000000; stroke-linejoin: miter"/>
   </g>
   <g id="patch_16">
    <path d="M 241.561081 130.480979 
C 243.852619 130.480979 246.05061 129.570541 247.670972 127.950179 
C 249.291334 126.329817 250.201772 124.131826 250.201772 121.840288 
C 250.201772 119.54875 249.291334 117.350759 247.670972 115.730396 
C 246.05061 114.110034 243.852619 113.199597 241.561081 113.199597 
C 239.269543 113.199597 237.071552 114.110034 235.45119 115.730396 
C 233.830828 117.350759 232.92039 119.54875 232.92039 121.840288 
C 232.92039 124.131826 233.830828 126.329817 235.45119 127.950179 
C 237.071552 129.570541 239.269543 130.480979 241.561081 130.480979 
z
" clip-path="url(#pd76549806f)" style="fill: #ff0d0d; stroke: #000000; stroke-linejoin: miter"/>
   </g>
   <g id="patch_17">
    <path d="M 268.776145 256.009649 
C 273.845305 256.009649 278.707528 253.99565 282.291966 250.411213 
C 285.876403 246.826776 287.890402 241.964553 287.890402 236.895393 
C 287.890402 231.826233 285.876403 226.96401 282.291966 223.379573 
C 278.707528 219.795135 273.845305 217.781137 268.776145 217.781137 
C 263.706985 217.781137 258.844763 219.795135 255.260325 223.379573 
C 251.675888 226.96401 249.661889 231.826233 249.661889 236.895393 
C 249.661889 241.964553 251.675888 246.826776 255.260325 250.411213 
C 258.844763 253.99565 263.706985 256.009649 268.776145 256.009649 
z
" clip-path="url(#pd76549806f)" style="fill: #248f8f; stroke: #000000; stroke-linejoin: miter"/>
   </g>
   <g id="patch_18">
    <path d="M 239.628275 219.907328 
C 244.697435 219.907328 249.559658 217.89333 253.144095 214.308892 
C 256.728532 210.724455 258.742531 205.862232 258.742531 200.793072 
C 258.742531 195.723912 256.728532 190.861689 253.144095 187.277252 
C 249.559658 183.692815 244.697435 181.678816 239.628275 181.678816 
C 234.559115 181.678816 229.696892 183.692815 226.112455 187.277252 
C 222.528017 190.861689 220.514019 195.723912 220.514019 200.793072 
C 220.514019 205.862232 222.528017 210.724455 226.112455 214.308892 
C 229.696892 217.89333 234.559115 219.907328 239.628275 219.907328 
z
" clip-path="url(#pd76549806f)" style="fill: #248f8f; stroke: #000000; stroke-linejoin: miter"/>
   </g>
   <g id="patch_19">
    <path d="M 323.991521 175.846551 
C 326.283059 175.846551 328.48105 174.936113 330.101412 173.315751 
C 331.721774 171.695389 332.632212 169.497398 332.632212 167.20586 
C 332.632212 164.914321 331.721774 162.71633 330.101412 161.095968 
C 328.48105 159.475606 326.283059 158.565168 323.991521 158.565168 
C 321.699983 158.565168 319.501992 159.475606 317.88163 161.095968 
C 316.261267 162.71633 315.35083 164.914321 315.35083 167.20586 
C 315.35083 169.497398 316.261267 171.695389 317.88163 173.315751 
C 319.501992 174.936113 321.699983 175.846551 323.991521 175.846551 
z
" clip-path="url(#pd76549806f)" style="fill: #ff0d0d; stroke: #000000; stroke-linejoin: miter"/>
   </g>
   <g id="patch_20">
    <path d="M 265.78724 103.408876 
C 268.078778 103.408876 270.276769 102.498439 271.897131 100.878077 
C 273.517493 99.257714 274.427931 97.059723 274.427931 94.768185 
C 274.427931 92.476647 273.517493 90.278656 271.897131 88.658294 
C 270.276769 87.037932 268.078778 86.127494 265.78724 86.127494 
C 263.495702 86.127494 261.297711 87.037932 259.677348 88.658294 
C 258.056986 90.278656 257.146549 92.476647 257.146549 94.768185 
C 257.146549 97.059723 258.056986 99.257714 259.677348 100.878077 
C 261.297711 102.498439 263.495702 103.408876 265.78724 103.408876 
z
" clip-path="url(#pd76549806f)" style="fill: #ff0d0d; stroke: #000000; stroke-linejoin: miter"/>
   </g>
   <g id="patch_21">
    <path d="M 263.955702 201.335532 
C 266.24724 201.335532 268.445231 200.425094 270.065593 198.804732 
C 271.685955 197.18437 272.596393 194.986379 272.596393 192.694841 
C 272.596393 190.403303 271.685955 188.205312 270.065593 186.58495 
C 268.445231 184.964587 266.24724 184.05415 263.955702 184.05415 
C 261.664164 184.05415 259.466173 184.964587 257.845811 186.58495 
C 256.225449 188.205312 255.315011 190.403303 255.315011 192.694841 
C 255.315011 194.986379 256.225449 197.18437 257.845811 198.804732 
C 259.466173 200.425094 261.664164 201.335532 263.955702 201.335532 
z
" clip-path="url(#pd76549806f)" style="fill: #ff0d0d; stroke: #000000; stroke-linejoin: miter"/>
   </g>
   <g id="patch_22">
    <path d="M 288.911588 259.562556 
C 291.203126 259.562556 293.401118 258.652118 295.02148 257.031756 
C 296.641842 255.411394 297.55228 253.213403 297.55228 250.921864 
C 297.55228 248.630326 296.641842 246.432335 295.02148 244.811973 
C 293.401118 243.191611 291.203126 242.281173 288.911588 242.281173 
C 286.62005 242.281173 284.422059 243.191611 282.801697 244.811973 
C 281.181335 246.432335 280.270897 248.630326 280.270897 250.921864 
C 280.270897 253.213403 281.181335 255.411394 282.801697 257.031756 
C 284.422059 258.652118 286.62005 259.562556 288.911588 259.562556 
z
" clip-path="url(#pd76549806f)" style="fill: #ff0d0d; stroke: #000000; stroke-linejoin: miter"/>
   </g>
   <g id="patch_23">
    <path d="M 230.617245 187.361339 
C 232.908783 187.361339 235.106774 186.450901 236.727137 184.830539 
C 238.347499 183.210177 239.257936 181.012186 239.257936 178.720648 
C 239.257936 176.42911 238.347499 174.231118 236.727137 172.610756 
C 235.106774 170.990394 232.908783 170.079957 230.617245 170.079957 
C 228.325707 170.079957 226.127716 170.990394 224.507354 172.610756 
C 222.886992 174.231118 221.976554 176.42911 221.976554 178.720648 
C 221.976554 181.012186 222.886992 183.210177 224.507354 184.830539 
C 226.127716 186.450901 228.325707 187.361339 230.617245 187.361339 
z
" clip-path="url(#pd76549806f)" style="fill: #ff0d0d; stroke: #000000; stroke-linejoin: miter"/>
   </g>
   <g id="patch_24">
    <path d="M 288.247329 174.564569 
C 290.538867 174.564569 292.736858 173.654132 294.35722 172.03377 
C 295.977582 170.413407 296.88802 168.215416 296.88802 165.923878 
C 296.88802 163.63234 295.977582 161.434349 294.35722 159.813987 
C 292.736858 158.193625 290.538867 157.283187 288.247329 157.283187 
C 285.955791 157.283187 283.7578 158.193625 282.137437 159.813987 
C 280.517075 161.434349 279.606638 163.63234 279.606638 165.923878 
C 279.606638 168.215416 280.517075 170.413407 282.137437 172.03377 
C 283.7578 173.654132 285.955791 174.564569 288.247329 174.564569 
z
" clip-path="url(#pd76549806f)" style="fill: #ff0d0d; stroke: #000000; stroke-linejoin: miter"/>
   </g>
   <g id="patch_25">
    <path d="M 230.325763 102.555054 
C 232.617301 102.555054 234.815292 101.644616 236.435654 100.024254 
C 238.056016 98.403892 238.966454 96.205901 238.966454 93.914363 
C 238.966454 91.622825 238.056016 89.424834 236.435654 87.804472 
C 234.815292 86.184109 232.617301 85.273672 230.325763 85.273672 
C 228.034225 85.273672 225.836234 86.184109 224.215872 87.804472 
C 222.595509 89.424834 221.685072 91.622825 221.685072 93.914363 
C 221.685072 96.205901 222.595509 98.403892 224.215872 100.024254 
C 225.836234 101.644616 228.034225 102.555054 230.325763 102.555054 
z
" clip-path="url(#pd76549806f)" style="fill: #ff0d0d; stroke: #000000; stroke-linejoin: miter"/>
   </g>
   <g id="patch_26">
    <path d="M 228.839968 276.852371 
C 233.909128 276.852371 238.771351 274.838373 242.355789 271.253935 
C 245.940226 267.669498 247.954225 262.807275 247.954225 257.738115 
C 247.954225 252.668955 245.940226 247.806732 242.355789 244.222295 
C 238.771351 240.637858 233.909128 238.623859 228.839968 238.623859 
C 223.770808 238.623859 218.908586 240.637858 215.324148 244.222295 
C 211.739711 247.806732 209.725712 252.668955 209.725712 257.738115 
C 209.725712 262.807275 211.739711 267.669498 215.324148 271.253935 
C 218.908586 274.838373 223.770808 276.852371 228.839968 276.852371 
z
" clip-path="url(#pd76549806f)" style="fill: #248f8f; stroke: #000000; stroke-linejoin: miter"/>
   </g>
   <g id="patch_27">
    <path d="M 313.203214 232.791594 
C 315.494752 232.791594 317.692744 231.881156 319.313106 230.260794 
C 320.933468 228.640432 321.843906 226.442441 321.843906 224.150903 
C 321.843906 221.859365 320.933468 219.661373 319.313106 218.041011 
C 317.692744 216.420649 315.494752 215.510211 313.203214 215.510211 
C 310.911676 215.510211 308.713685 216.420649 307.093323 218.041011 
C 305.472961 219.661373 304.562523 221.859365 304.562523 224.150903 
C 304.562523 226.442441 305.472961 228.640432 307.093323 230.260794 
C 308.713685 231.881156 310.911676 232.791594 313.203214 232.791594 
z
" clip-path="url(#pd76549806f)" style="fill: #ff0d0d; stroke: #000000; stroke-linejoin: miter"/>
   </g>
   <g id="patch_28">
    <path d="M 254.908869 160.590372 
C 257.200407 160.590372 259.398398 159.679934 261.01876 158.059572 
C 262.639123 156.43921 263.54956 154.241219 263.54956 151.949681 
C 263.54956 149.658143 262.639123 147.460151 261.01876 145.839789 
C 259.398398 144.219427 257.200407 143.30899 254.908869 143.30899 
C 252.617331 143.30899 250.41934 144.219427 248.798978 145.839789 
C 247.178616 147.460151 246.268178 149.658143 246.268178 151.949681 
C 246.268178 154.241219 247.178616 156.43921 248.798978 158.059572 
C 250.41934 159.679934 252.617331 160.590372 254.908869 160.590372 
z
" clip-path="url(#pd76549806f)" style="fill: #ff0d0d; stroke: #000000; stroke-linejoin: miter"/>
   </g>
   <g id="patch_29">
    <path d="M 253.167396 258.280574 
C 255.458934 258.280574 257.656926 257.370137 259.277288 255.749774 
C 260.89765 254.129412 261.808087 251.931421 261.808087 249.639883 
C 261.808087 247.348345 260.89765 245.150354 259.277288 243.529992 
C 257.656926 241.90963 255.458934 240.999192 253.167396 240.999192 
C 250.875858 240.999192 248.677867 241.90963 247.057505 243.529992 
C 245.437143 245.150354 244.526705 247.348345 244.526705 249.639883 
C 244.526705 251.931421 245.437143 254.129412 247.057505 255.749774 
C 248.677867 257.370137 250.875858 258.280574 253.167396 258.280574 
z
" clip-path="url(#pd76549806f)" style="fill: #ff0d0d; stroke: #000000; stroke-linejoin: miter"/>
   </g>
   <g id="patch_30">
    <path d="M 308.382772 199.064606 
C 313.451932 199.064606 318.314154 197.050607 321.898592 193.46617 
C 325.483029 189.881733 327.497028 185.01951 327.497028 179.95035 
C 327.497028 174.88119 325.483029 170.018967 321.898592 166.43453 
C 318.314154 162.850092 313.451932 160.836094 308.382772 160.836094 
C 303.313612 160.836094 298.451389 162.850092 294.866952 166.43453 
C 291.282514 170.018967 289.268516 174.88119 289.268516 179.95035 
C 289.268516 185.01951 291.282514 189.881733 294.866952 193.46617 
C 298.451389 197.050607 303.313612 199.064606 308.382772 199.064606 
z
" clip-path="url(#pd76549806f)" style="fill: #248f8f; stroke: #000000; stroke-linejoin: miter"/>
   </g>
   <g id="patch_31">
    <path d="M 221.723545 91.629945 
C 226.792705 91.629945 231.654928 89.615946 235.239365 86.031509 
C 238.823802 82.447071 240.837801 77.584849 240.837801 72.515689 
C 240.837801 67.446529 238.823802 62.584306 235.239365 58.999868 
C 231.654928 55.415431 226.792705 53.401432 221.723545 53.401432 
C 216.654385 53.401432 211.792162 55.415431 208.207725 58.999868 
C 204.623287 62.584306 202.609289 67.446529 202.609289 72.515689 
C 202.609289 77.584849 204.623287 82.447071 208.207725 86.031509 
C 211.792162 89.615946 216.654385 91.629945 221.723545 91.629945 
z
" clip-path="url(#pd76549806f)" style="fill: #248f8f; stroke: #000000; stroke-linejoin: miter"/>
   </g>
   <g id="patch_32">
    <path d="M 279.236297 162.965705 
C 284.305457 162.965705 289.16768 160.951706 292.752117 157.367269 
C 296.336555 153.782832 298.350553 148.920609 298.350553 143.851449 
C 298.350553 138.782289 296.336555 133.920066 292.752117 130.335629 
C 289.16768 126.751191 284.305457 124.737193 279.236297 124.737193 
C 274.167137 124.737193 269.304914 126.751191 265.720477 130.335629 
C 262.13604 133.920066 260.122041 138.782289 260.122041 143.851449 
C 260.122041 148.920609 262.13604 153.782832 265.720477 157.367269 
C 269.304914 160.951706 274.167137 162.965705 279.236297 162.965705 
z
" clip-path="url(#pd76549806f)" style="fill: #248f8f; stroke: #000000; stroke-linejoin: miter"/>
   </g>
   <g id="patch_33">
    <path d="M 250.317072 126.985058 
C 255.386232 126.985058 260.248455 124.971059 263.832893 121.386622 
C 267.41733 117.802185 269.431329 112.939962 269.431329 107.870802 
C 269.431329 102.801642 267.41733 97.939419 263.832893 94.354982 
C 260.248455 90.770544 255.386232 88.756546 250.317072 88.756546 
C 245.247912 88.756546 240.38569 90.770544 236.801252 94.354982 
C 233.216815 97.939419 231.202816 102.801642 231.202816 107.870802 
C 231.202816 112.939962 233.216815 117.802185 236.801252 121.386622 
C 240.38569 124.971059 245.247912 126.985058 250.317072 126.985058 
z
" clip-path="url(#pd76549806f)" style="fill: #248f8f; stroke: #000000; stroke-linejoin: miter"/>
   </g>
   <g id="patch_34">
    <path d="M 219.82754 244.302954 
C 222.119078 244.302954 224.317069 243.392517 225.937431 241.772155 
C 227.557793 240.151792 228.468231 237.953801 228.468231 235.662263 
C 228.468231 233.370725 227.557793 231.172734 225.937431 229.552372 
C 224.317069 227.93201 222.119078 227.021572 219.82754 227.021572 
C 217.536002 227.021572 215.33801 227.93201 213.717648 229.552372 
C 212.097286 231.172734 211.186849 233.370725 211.186849 235.662263 
C 211.186849 237.953801 212.097286 240.151792 213.717648 241.772155 
C 215.33801 243.392517 217.536002 244.302954 219.82754 244.302954 
z
" clip-path="url(#pd76549806f)" style="fill: #ff0d0d; stroke: #000000; stroke-linejoin: miter"/>
   </g>
   <g id="patch_35">
    <path d="M 277.459022 231.509612 
C 279.75056 231.509612 281.948552 230.599175 283.568914 228.978813 
C 285.189276 227.358451 286.099713 225.160459 286.099713 222.868921 
C 286.099713 220.577383 285.189276 218.379392 283.568914 216.75903 
C 281.948552 215.138668 279.75056 214.22823 277.459022 214.22823 
C 275.167484 214.22823 272.969493 215.138668 271.349131 216.75903 
C 269.728769 218.379392 268.818331 220.577383 268.818331 222.868921 
C 268.818331 225.160459 269.728769 227.358451 271.349131 228.978813 
C 272.969493 230.599175 275.167484 231.509612 277.459022 231.509612 
z
" clip-path="url(#pd76549806f)" style="fill: #ff0d0d; stroke: #000000; stroke-linejoin: miter"/>
   </g>
   <g id="patch_36">
    <path d="M 219.164677 159.308391 
C 221.456215 159.308391 223.654206 158.397953 225.274568 156.777591 
C 226.894931 155.157229 227.805368 152.959237 227.805368 150.667699 
C 227.805368 148.376161 226.894931 146.17817 225.274568 144.557808 
C 223.654206 142.937446 221.456215 142.027008 219.164677 142.027008 
C 216.873139 142.027008 214.675148 142.937446 213.054786 144.557808 
C 211.434424 146.17817 210.523986 148.376161 210.523986 150.667699 
C 210.523986 152.959237 211.434424 155.157229 213.054786 156.777591 
C 214.675148 158.397953 216.873139 159.308391 219.164677 159.308391 
z
" clip-path="url(#pd76549806f)" style="fill: #ff0d0d; stroke: #000000; stroke-linejoin: miter"/>
   </g>
   <g id="patch_37">
    <path d="M 303.563725 144.393908 
C 305.855263 144.393908 308.053254 143.48347 309.673616 141.863108 
C 311.293978 140.242746 312.204416 138.044755 312.204416 135.753217 
C 312.204416 133.461679 311.293978 131.263688 309.673616 129.643326 
C 308.053254 128.022963 305.855263 127.112526 303.563725 127.112526 
C 301.272187 127.112526 299.074196 128.022963 297.453834 129.643326 
C 295.833472 131.263688 294.923034 133.461679 294.923034 135.753217 
C 294.923034 138.044755 295.833472 140.242746 297.453834 141.863108 
C 299.074196 143.48347 301.272187 144.393908 303.563725 144.393908 
z
" clip-path="url(#pd76549806f)" style="fill: #ff0d0d; stroke: #000000; stroke-linejoin: miter"/>
   </g>
   <g id="patch_38">
    <path d="M 245.258285 71.640949 
C 247.549824 71.640949 249.747815 70.730512 251.368177 69.110149 
C 252.988539 67.489787 253.898977 65.291796 253.898977 63.000258 
C 253.898977 60.70872 252.988539 58.510729 251.368177 56.890367 
C 249.747815 55.270005 247.549824 54.359567 245.258285 54.359567 
C 242.966747 54.359567 240.768756 55.270005 239.148394 56.890367 
C 237.528032 58.510729 236.617594 60.70872 236.617594 63.000258 
C 236.617594 65.291796 237.528032 67.489787 239.148394 69.110149 
C 240.768756 70.730512 242.966747 71.640949 245.258285 71.640949 
z
" clip-path="url(#pd76549806f)" style="fill: #ff0d0d; stroke: #000000; stroke-linejoin: miter"/>
   </g>
   <g id="patch_39">
    <path d="M 244.119167 217.531995 
C 246.410705 217.531995 248.608696 216.621557 250.229058 215.001195 
C 251.84942 213.380833 252.759858 211.182842 252.759858 208.891304 
C 252.759858 206.599766 251.84942 204.401775 250.229058 202.781413 
C 248.608696 201.161051 246.410705 200.250613 244.119167 200.250613 
C 241.827629 200.250613 239.629638 201.161051 238.009275 202.781413 
C 236.388913 204.401775 235.478476 206.599766 235.478476 208.891304 
C 235.478476 211.182842 236.388913 213.380833 238.009275 215.001195 
C 239.629638 216.621557 241.827629 217.531995 244.119167 217.531995 
z
" clip-path="url(#pd76549806f)" style="fill: #ff0d0d; stroke: #000000; stroke-linejoin: miter"/>
   </g>
   <g id="patch_40">
    <path d="M 270.402304 130.471491 
C 272.693842 130.471491 274.891833 129.561053 276.512195 127.940691 
C 278.132558 126.320329 279.042995 124.122338 279.042995 121.8308 
C 279.042995 119.539262 278.132558 117.341271 276.512195 115.720908 
C 274.891833 114.100546 272.693842 113.190109 270.402304 113.190109 
C 268.110766 113.190109 265.912775 114.100546 264.292413 115.720908 
C 262.672051 117.341271 261.761613 119.539262 261.761613 121.8308 
C 261.761613 124.122338 262.672051 126.320329 264.292413 127.940691 
C 265.912775 129.561053 268.110766 130.471491 270.402304 130.471491 
z
" clip-path="url(#pd76549806f)" style="fill: #ff0d0d; stroke: #000000; stroke-linejoin: miter"/>
   </g>
   <g id="patch_41">
    <path d="M 297.594465 256.009649 
C 302.663625 256.009649 307.525848 253.99565 311.110285 250.411213 
C 314.694723 246.826776 316.708721 241.964553 316.708721 236.895393 
C 316.708721 231.826233 314.694723 226.96401 311.110285 223.379573 
C 307.525848 219.795135 302.663625 217.781137 297.594465 217.781137 
C 292.525305 217.781137 287.663083 219.795135 284.078645 223.379573 
C 280.494208 226.96401 278.480209 231.826233 278.480209 236.895393 
C 278.480209 241.964553 280.494208 246.826776 284.078645 250.411213 
C 287.663083 253.99565 292.525305 256.009649 297.594465 256.009649 
z
" clip-path="url(#pd76549806f)" style="fill: #248f8f; stroke: #000000; stroke-linejoin: miter"/>
   </g>
   <g id="patch_42">
    <path d="M 268.446595 219.907328 
C 273.515755 219.907328 278.377977 217.89333 281.962415 214.308892 
C 285.546852 210.724455 287.560851 205.862232 287.560851 200.793072 
C 287.560851 195.723912 285.546852 190.861689 281.962415 187.277252 
C 278.377977 183.692815 273.515755 181.678816 268.446595 181.678816 
C 263.377435 181.678816 258.515212 183.692815 254.930774 187.277252 
C 251.346337 190.861689 249.332338 195.723912 249.332338 200.793072 
C 249.332338 205.862232 251.346337 210.724455 254.930774 214.308892 
C 258.515212 217.89333 263.377435 219.907328 268.446595 219.907328 
z
" clip-path="url(#pd76549806f)" style="fill: #248f8f; stroke: #000000; stroke-linejoin: miter"/>
   </g>
   <g id="patch_43">
    <path d="M 239.30012 183.808427 
C 244.36928 183.808427 249.231503 181.794429 252.81594 178.209991 
C 256.400378 174.625554 258.414376 169.763331 258.414376 164.694171 
C 258.414376 159.625011 256.400378 154.762788 252.81594 151.178351 
C 249.231503 147.593913 244.36928 145.579915 239.30012 145.579915 
C 234.23096 145.579915 229.368737 147.593913 225.7843 151.178351 
C 222.199863 154.762788 220.185864 159.625011 220.185864 164.694171 
C 220.185864 169.763331 222.199863 174.625554 225.7843 178.209991 
C 229.368737 181.794429 234.23096 183.808427 239.30012 183.808427 
z
" clip-path="url(#pd76549806f)" style="fill: #248f8f; stroke: #000000; stroke-linejoin: miter"/>
   </g>
   <g id="patch_44">
    <path d="M 210.267228 147.567994 
C 215.336388 147.567994 220.198611 145.553996 223.783048 141.969558 
C 227.367485 138.385121 229.381484 133.522898 229.381484 128.453738 
C 229.381484 123.384578 227.367485 118.522355 223.783048 114.937918 
C 220.198611 111.35348 215.336388 109.339482 210.267228 109.339482 
C 205.198068 109.339482 200.335845 111.35348 196.751408 114.937918 
C 193.16697 118.522355 191.152972 123.384578 191.152972 128.453738 
C 191.152972 133.522898 193.16697 138.385121 196.751408 141.969558 
C 200.335845 145.553996 205.198068 147.567994 210.267228 147.567994 
z
" clip-path="url(#pd76549806f)" style="fill: #248f8f; stroke: #000000; stroke-linejoin: miter"/>
   </g>
   <g id="patch_45">
    <path d="M 209.039234 301.248 
C 211.330772 301.248 213.528764 300.337562 215.149126 298.7172 
C 216.769488 297.096838 217.679925 294.898847 217.679925 292.607309 
C 217.679925 290.315771 216.769488 288.11778 215.149126 286.497418 
C 213.528764 284.877055 211.330772 283.966618 209.039234 283.966618 
C 206.747696 283.966618 204.549705 284.877055 202.929343 286.497418 
C 201.308981 288.11778 200.398543 290.315771 200.398543 292.607309 
C 200.398543 294.898847 201.308981 297.096838 202.929343 298.7172 
C 204.549705 300.337562 206.747696 301.248 209.039234 301.248 
z
" clip-path="url(#pd76549806f)" style="fill: #ff0d0d; stroke: #000000; stroke-linejoin: miter"/>
   </g>
   <g id="patch_46">
    <path d="M 208.374975 216.250014 
C 210.666513 216.250014 212.864504 215.339576 214.484866 213.719214 
C 216.105228 212.098852 217.015666 209.900861 217.015666 207.609323 
C 217.015666 205.317785 216.105228 203.119794 214.484866 201.499431 
C 212.864504 199.879069 210.666513 198.968632 208.374975 198.968632 
C 206.083437 198.968632 203.885445 199.879069 202.265083 201.499431 
C 200.644721 203.119794 199.734284 205.317785 199.734284 207.609323 
C 199.734284 209.900861 200.644721 212.098852 202.265083 213.719214 
C 203.885445 215.339576 206.083437 216.250014 208.374975 216.250014 
z
" clip-path="url(#pd76549806f)" style="fill: #ff0d0d; stroke: #000000; stroke-linejoin: miter"/>
   </g>
   <g id="patch_47">
    <path d="M 294.676963 103.408876 
C 296.968501 103.408876 299.166492 102.498439 300.786854 100.878077 
C 302.407217 99.257714 303.317654 97.059723 303.317654 94.768185 
C 303.317654 92.476647 302.407217 90.278656 300.786854 88.658294 
C 299.166492 87.037932 296.968501 86.127494 294.676963 86.127494 
C 292.385425 86.127494 290.187434 87.037932 288.567072 88.658294 
C 286.94671 90.278656 286.036272 92.476647 286.036272 94.768185 
C 286.036272 97.059723 286.94671 99.257714 288.567072 100.878077 
C 290.187434 102.498439 292.385425 103.408876 294.676963 103.408876 
z
" clip-path="url(#pd76549806f)" style="fill: #ff0d0d; stroke: #000000; stroke-linejoin: miter"/>
   </g>
   <g id="patch_48">
    <path d="M 292.774022 201.335532 
C 295.06556 201.335532 297.263551 200.425094 298.883913 198.804732 
C 300.504275 197.18437 301.414713 194.986379 301.414713 192.694841 
C 301.414713 190.403303 300.504275 188.205312 298.883913 186.58495 
C 297.263551 184.964587 295.06556 184.05415 292.774022 184.05415 
C 290.482484 184.05415 288.284493 184.964587 286.66413 186.58495 
C 285.043768 188.205312 284.133331 190.403303 284.133331 192.694841 
C 284.133331 194.986379 285.043768 197.18437 286.66413 198.804732 
C 288.284493 200.425094 290.482484 201.335532 292.774022 201.335532 
z
" clip-path="url(#pd76549806f)" style="fill: #ff0d0d; stroke: #000000; stroke-linejoin: miter"/>
   </g>
   <g id="patch_49">
    <path d="M 234.596687 129.012104 
C 236.888225 129.012104 239.086216 128.101666 240.706578 126.481304 
C 242.326941 124.860942 243.237378 122.662951 243.237378 120.371413 
C 243.237378 118.079875 242.326941 115.881884 240.706578 114.261522 
C 239.086216 112.64116 236.888225 111.730722 234.596687 111.730722 
C 232.305149 111.730722 230.107158 112.64116 228.486796 114.261522 
C 226.866434 115.881884 225.955996 118.079875 225.955996 120.371413 
C 225.955996 122.662951 226.866434 124.860942 228.486796 126.481304 
C 230.107158 128.101666 232.305149 129.012104 234.596687 129.012104 
z
" clip-path="url(#pd76549806f)" style="fill: #ff0d0d; stroke: #000000; stroke-linejoin: miter"/>
   </g>
   <g id="patch_50">
    <path d="M 233.33086 274.477038 
C 235.622398 274.477038 237.82039 273.5666 239.440752 271.946238 
C 241.061114 270.325876 241.971551 268.127885 241.971551 265.836347 
C 241.971551 263.544809 241.061114 261.346818 239.440752 259.726456 
C 237.82039 258.106094 235.622398 257.195656 233.33086 257.195656 
C 231.039322 257.195656 228.841331 258.106094 227.220969 259.726456 
C 225.600607 261.346818 224.690169 263.544809 224.690169 265.836347 
C 224.690169 268.127885 225.600607 270.325876 227.220969 271.946238 
C 228.841331 273.5666 231.039322 274.477038 233.33086 274.477038 
z
" clip-path="url(#pd76549806f)" style="fill: #ff0d0d; stroke: #000000; stroke-linejoin: miter"/>
   </g>
   <g id="patch_51">
    <path d="M 259.435565 187.361339 
C 261.727103 187.361339 263.925094 186.450901 265.545456 184.830539 
C 267.165818 183.210177 268.076256 181.012186 268.076256 178.720648 
C 268.076256 176.42911 267.165818 174.231118 265.545456 172.610756 
C 263.925094 170.990394 261.727103 170.079957 259.435565 170.079957 
C 257.144027 170.079957 254.946036 170.990394 253.325674 172.610756 
C 251.705312 174.231118 250.794874 176.42911 250.794874 178.720648 
C 250.794874 181.012186 251.705312 183.210177 253.325674 184.830539 
C 254.946036 186.450901 257.144027 187.361339 259.435565 187.361339 
z
" clip-path="url(#pd76549806f)" style="fill: #ff0d0d; stroke: #000000; stroke-linejoin: miter"/>
   </g>
   <g id="patch_52">
    <path d="M 259.090115 102.679318 
C 261.381653 102.679318 263.579644 101.76888 265.200006 100.148518 
C 266.820368 98.528156 267.730806 96.330165 267.730806 94.038627 
C 267.730806 91.747089 266.820368 89.549098 265.200006 87.928736 
C 263.579644 86.308373 261.381653 85.397936 259.090115 85.397936 
C 256.798576 85.397936 254.600585 86.308373 252.980223 87.928736 
C 251.359861 89.549098 250.449423 91.747089 250.449423 94.038627 
C 250.449423 96.330165 251.359861 98.528156 252.980223 100.148518 
C 254.600585 101.76888 256.798576 102.679318 259.090115 102.679318 
z
" clip-path="url(#pd76549806f)" style="fill: #ff0d0d; stroke: #000000; stroke-linejoin: miter"/>
   </g>
   <g id="patch_53">
    <path d="M 201.359938 114.980275 
C 203.651476 114.980275 205.849467 114.069838 207.46983 112.449476 
C 209.090192 110.829113 210.000629 108.631122 210.000629 106.339584 
C 210.000629 104.048046 209.090192 101.850055 207.46983 100.229693 
C 205.849467 98.609331 203.651476 97.698893 201.359938 97.698893 
C 199.0684 97.698893 196.870409 98.609331 195.250047 100.229693 
C 193.629685 101.850055 192.719247 104.048046 192.719247 106.339584 
C 192.719247 108.631122 193.629685 110.829113 195.250047 112.449476 
C 196.870409 114.069838 199.0684 114.980275 201.359938 114.980275 
z
" clip-path="url(#pd76549806f)" style="fill: #ff0d0d; stroke: #000000; stroke-linejoin: miter"/>
   </g>
   <g id="patch_54">
    <path d="M 257.658288 276.852371 
C 262.727448 276.852371 267.589671 274.838373 271.174108 271.253935 
C 274.758546 267.669498 276.772544 262.807275 276.772544 257.738115 
C 276.772544 252.668955 274.758546 247.806732 271.174108 244.222295 
C 267.589671 240.637858 262.727448 238.623859 257.658288 238.623859 
C 252.589128 238.623859 247.726906 240.637858 244.142468 244.222295 
C 240.558031 247.806732 238.544032 252.668955 238.544032 257.738115 
C 238.544032 262.807275 240.558031 267.669498 244.142468 271.253935 
C 247.726906 274.838373 252.589128 276.852371 257.658288 276.852371 
z
" clip-path="url(#pd76549806f)" style="fill: #248f8f; stroke: #000000; stroke-linejoin: miter"/>
   </g>
   <g id="patch_55">
    <path d="M 228.510418 240.75005 
C 233.579578 240.75005 238.4418 238.736052 242.026238 235.151614 
C 245.610675 231.567177 247.624674 226.704954 247.624674 221.635794 
C 247.624674 216.566634 245.610675 211.704412 242.026238 208.119974 
C 238.4418 204.535537 233.579578 202.521538 228.510418 202.521538 
C 223.441258 202.521538 218.579035 204.535537 214.994597 208.119974 
C 211.41016 211.704412 209.396161 216.566634 209.396161 221.635794 
C 209.396161 226.704954 211.41016 231.567177 214.994597 235.151614 
C 218.579035 238.736052 223.441258 240.75005 228.510418 240.75005 
z
" clip-path="url(#pd76549806f)" style="fill: #248f8f; stroke: #000000; stroke-linejoin: miter"/>
   </g>
   <g id="patch_56">
    <path d="M 199.363943 204.651149 
C 204.433103 204.651149 209.295326 202.637151 212.879763 199.052713 
C 216.464201 195.468276 218.478199 190.606053 218.478199 185.536893 
C 218.478199 180.467733 216.464201 175.60551 212.879763 172.021073 
C 209.295326 168.436636 204.433103 166.422637 199.363943 166.422637 
C 194.294783 166.422637 189.43256 168.436636 185.848123 172.021073 
C 182.263685 175.60551 180.249687 180.467733 180.249687 185.536893 
C 180.249687 190.606053 182.263685 195.468276 185.848123 199.052713 
C 189.43256 202.637151 194.294783 204.651149 199.363943 204.651149 
z
" clip-path="url(#pd76549806f)" style="fill: #248f8f; stroke: #000000; stroke-linejoin: miter"/>
   </g>
   <g id="patch_57">
    <path d="M 197.586668 273.195057 
C 199.878206 273.195057 202.076197 272.284619 203.69656 270.664257 
C 205.316922 269.043895 206.227359 266.845904 206.227359 264.554366 
C 206.227359 262.262828 205.316922 260.064837 203.69656 258.444474 
C 202.076197 256.824112 199.878206 255.913675 197.586668 255.913675 
C 195.29513 255.913675 193.097139 256.824112 191.476777 258.444474 
C 189.856415 260.064837 188.945977 262.262828 188.945977 264.554366 
C 188.945977 266.845904 189.856415 269.043895 191.476777 270.664257 
C 193.097139 272.284619 195.29513 273.195057 197.586668 273.195057 
z
" clip-path="url(#pd76549806f)" style="fill: #ff0d0d; stroke: #000000; stroke-linejoin: miter"/>
   </g>
   <g id="patch_58">
    <path d="M 283.727189 160.590372 
C 286.018727 160.590372 288.216718 159.679934 289.83708 158.059572 
C 291.457442 156.43921 292.36788 154.241219 292.36788 151.949681 
C 292.36788 149.658143 291.457442 147.460151 289.83708 145.839789 
C 288.216718 144.219427 286.018727 143.30899 283.727189 143.30899 
C 281.435651 143.30899 279.23766 144.219427 277.617298 145.839789 
C 275.996936 147.460151 275.086498 149.658143 275.086498 151.949681 
C 275.086498 154.241219 275.996936 156.43921 277.617298 158.059572 
C 279.23766 159.679934 281.435651 160.590372 283.727189 160.590372 
z
" clip-path="url(#pd76549806f)" style="fill: #ff0d0d; stroke: #000000; stroke-linejoin: miter"/>
   </g>
   <g id="patch_59">
    <path d="M 225.630698 87.47661 
C 227.922236 87.47661 230.120227 86.566172 231.740589 84.94581 
C 233.360951 83.325448 234.271389 81.127457 234.271389 78.835919 
C 234.271389 76.544381 233.360951 74.34639 231.740589 72.726028 
C 230.120227 71.105666 227.922236 70.195228 225.630698 70.195228 
C 223.33916 70.195228 221.141168 71.105666 219.520806 72.726028 
C 217.900444 74.34639 216.990006 76.544381 216.990006 78.835919 
C 216.990006 81.127457 217.900444 83.325448 219.520806 84.94581 
C 221.141168 86.566172 223.33916 87.47661 225.630698 87.47661 
z
" clip-path="url(#pd76549806f)" style="fill: #ff0d0d; stroke: #000000; stroke-linejoin: miter"/>
   </g>
   <g id="patch_60">
    <path d="M 281.985716 258.280574 
C 284.277254 258.280574 286.475245 257.370137 288.095607 255.749774 
C 289.71597 254.129412 290.626407 251.931421 290.626407 249.639883 
C 290.626407 247.348345 289.71597 245.150354 288.095607 243.529992 
C 286.475245 241.90963 284.277254 240.999192 281.985716 240.999192 
C 279.694178 240.999192 277.496187 241.90963 275.875825 243.529992 
C 274.255463 245.150354 273.345025 247.348345 273.345025 249.639883 
C 273.345025 251.931421 274.255463 254.129412 275.875825 255.749774 
C 277.496187 257.370137 279.694178 258.280574 281.985716 258.280574 
z
" clip-path="url(#pd76549806f)" style="fill: #ff0d0d; stroke: #000000; stroke-linejoin: miter"/>
   </g>
   <g id="patch_61">
    <path d="M 223.691371 186.079352 
C 225.982909 186.079352 228.1809 185.168915 229.801262 183.548553 
C 231.421624 181.92819 232.332062 179.730199 232.332062 177.438661 
C 232.332062 175.147123 231.421624 172.949132 229.801262 171.32877 
C 228.1809 169.708408 225.982909 168.79797 223.691371 168.79797 
C 221.399833 168.79797 219.201842 169.708408 217.58148 171.32877 
C 215.961118 172.949132 215.05068 175.147123 215.05068 177.438661 
C 215.05068 179.730199 215.961118 181.92819 217.58148 183.548553 
C 219.201842 185.168915 221.399833 186.079352 223.691371 186.079352 
z
" clip-path="url(#pd76549806f)" style="fill: #ff0d0d; stroke: #000000; stroke-linejoin: miter"/>
   </g>
   <g id="patch_62">
    <path d="M 250.508974 91.839325 
C 255.578134 91.839325 260.440357 89.825327 264.024794 86.240889 
C 267.609231 82.656452 269.62323 77.794229 269.62323 72.725069 
C 269.62323 67.655909 267.609231 62.793686 264.024794 59.209249 
C 260.440357 55.624811 255.578134 53.610813 250.508974 53.610813 
C 245.439814 53.610813 240.577591 55.624811 236.993154 59.209249 
C 233.408716 62.793686 231.394718 67.655909 231.394718 72.725069 
C 231.394718 77.794229 233.408716 82.656452 236.993154 86.240889 
C 240.577591 89.825327 245.439814 91.839325 250.508974 91.839325 
z
" clip-path="url(#pd76549806f)" style="fill: #248f8f; stroke: #000000; stroke-linejoin: miter"/>
   </g>
   <g id="patch_63">
    <path d="M 279.152994 126.985058 
C 284.222154 126.985058 289.084377 124.971059 292.668814 121.386622 
C 296.253251 117.802185 298.26725 112.939962 298.26725 107.870802 
C 298.26725 102.801642 296.253251 97.939419 292.668814 94.354982 
C 289.084377 90.770544 284.222154 88.756546 279.152994 88.756546 
C 274.083834 88.756546 269.221611 90.770544 265.637174 94.354982 
C 262.052736 97.939419 260.038738 102.801642 260.038738 107.870802 
C 260.038738 112.939962 262.052736 117.802185 265.637174 121.386622 
C 269.221611 124.971059 274.083834 126.985058 279.152994 126.985058 
z
" clip-path="url(#pd76549806f)" style="fill: #248f8f; stroke: #000000; stroke-linejoin: miter"/>
   </g>
   <g id="patch_64">
    <path d="M 248.645859 244.302954 
C 250.937398 244.302954 253.135389 243.392517 254.755751 241.772155 
C 256.376113 240.151792 257.286551 237.953801 257.286551 235.662263 
C 257.286551 233.370725 256.376113 231.172734 254.755751 229.552372 
C 253.135389 227.93201 250.937398 227.021572 248.645859 227.021572 
C 246.354321 227.021572 244.15633 227.93201 242.535968 229.552372 
C 240.915606 231.172734 240.005168 233.370725 240.005168 235.662263 
C 240.005168 237.953801 240.915606 240.151792 242.535968 241.772155 
C 244.15633 243.392517 246.354321 244.302954 248.645859 244.302954 
z
" clip-path="url(#pd76549806f)" style="fill: #ff0d0d; stroke: #000000; stroke-linejoin: miter"/>
   </g>
   <g id="patch_65">
    <path d="M 190.463655 171.971621 
C 192.755193 171.971621 194.953184 171.061183 196.573546 169.440821 
C 198.193908 167.820459 199.104346 165.622468 199.104346 163.33093 
C 199.104346 161.039392 198.193908 158.841401 196.573546 157.221038 
C 194.953184 155.600676 192.755193 154.690239 190.463655 154.690239 
C 188.172117 154.690239 185.974126 155.600676 184.353764 157.221038 
C 182.733402 158.841401 181.822964 161.039392 181.822964 163.33093 
C 181.822964 165.622468 182.733402 167.820459 184.353764 169.440821 
C 185.974126 171.061183 188.172117 171.971621 190.463655 171.971621 
z
" clip-path="url(#pd76549806f)" style="fill: #ff0d0d; stroke: #000000; stroke-linejoin: miter"/>
   </g>
   <g id="patch_66">
    <path d="M 247.982997 159.308391 
C 250.274535 159.308391 252.472526 158.397953 254.092888 156.777591 
C 255.71325 155.157229 256.623688 152.959237 256.623688 150.667699 
C 256.623688 148.376161 255.71325 146.17817 254.092888 144.557808 
C 252.472526 142.937446 250.274535 142.027008 247.982997 142.027008 
C 245.691459 142.027008 243.493468 142.937446 241.873106 144.557808 
C 240.252744 146.17817 239.342306 148.376161 239.342306 150.667699 
C 239.342306 152.959237 240.252744 155.157229 241.873106 156.777591 
C 243.493468 158.397953 245.691459 159.308391 247.982997 159.308391 
z
" clip-path="url(#pd76549806f)" style="fill: #ff0d0d; stroke: #000000; stroke-linejoin: miter"/>
   </g>
   <g id="patch_67">
    <path d="M 189.929859 85.652766 
C 192.221397 85.652766 194.419388 84.742328 196.039751 83.121966 
C 197.660113 81.501604 198.57055 79.303613 198.57055 77.012075 
C 198.57055 74.720537 197.660113 72.522546 196.039751 70.902184 
C 194.419388 69.281821 192.221397 68.371384 189.929859 68.371384 
C 187.638321 68.371384 185.44033 69.281821 183.819968 70.902184 
C 182.199606 72.522546 181.289168 74.720537 181.289168 77.012075 
C 181.289168 79.303613 182.199606 81.501604 183.819968 83.121966 
C 185.44033 84.742328 187.638321 85.652766 189.929859 85.652766 
z
" clip-path="url(#pd76549806f)" style="fill: #ff0d0d; stroke: #000000; stroke-linejoin: miter"/>
   </g>
   <g id="patch_68">
    <path d="M 217.722111 297.695093 
C 222.791271 297.695093 227.653494 295.681095 231.237931 292.096657 
C 234.822369 288.51222 236.836367 283.649997 236.836367 278.580837 
C 236.836367 273.511677 234.822369 268.649455 231.237931 265.065017 
C 227.653494 261.48058 222.791271 259.466581 217.722111 259.466581 
C 212.652951 259.466581 207.790728 261.48058 204.206291 265.065017 
C 200.621854 268.649455 198.607855 273.511677 198.607855 278.580837 
C 198.607855 283.649997 200.621854 288.51222 204.206291 292.096657 
C 207.790728 295.681095 212.652951 297.695093 217.722111 297.695093 
z
" clip-path="url(#pd76549806f)" style="fill: #248f8f; stroke: #000000; stroke-linejoin: miter"/>
   </g>
   <g id="patch_69">
    <path d="M 188.574241 261.592773 
C 193.643401 261.592773 198.505623 259.578774 202.090061 255.994337 
C 205.674498 252.409899 207.688497 247.547676 207.688497 242.478516 
C 207.688497 237.409357 205.674498 232.547134 202.090061 228.962696 
C 198.505623 225.378259 193.643401 223.36426 188.574241 223.36426 
C 183.505081 223.36426 178.642858 225.378259 175.05842 228.962696 
C 171.473983 232.547134 169.459984 237.409357 169.459984 242.478516 
C 169.459984 247.547676 171.473983 252.409899 175.05842 255.994337 
C 178.642858 259.578774 183.505081 261.592773 188.574241 261.592773 
z
" clip-path="url(#pd76549806f)" style="fill: #248f8f; stroke: #000000; stroke-linejoin: miter"/>
   </g>
   <g id="patch_70">
    <path d="M 273.854507 71.640949 
C 276.146045 71.640949 278.344036 70.730512 279.964399 69.110149 
C 281.584761 67.489787 282.495198 65.291796 282.495198 63.000258 
C 282.495198 60.70872 281.584761 58.510729 279.964399 56.890367 
C 278.344036 55.270005 276.146045 54.359567 273.854507 54.359567 
C 271.562969 54.359567 269.364978 55.270005 267.744616 56.890367 
C 266.124254 58.510729 265.213816 60.70872 265.213816 63.000258 
C 265.213816 65.291796 266.124254 67.489787 267.744616 69.110149 
C 269.364978 70.730512 271.562969 71.640949 273.854507 71.640949 
z
" clip-path="url(#pd76549806f)" style="fill: #ff0d0d; stroke: #000000; stroke-linejoin: miter"/>
   </g>
   <g id="patch_71">
    <path d="M 272.937487 217.531995 
C 275.229025 217.531995 277.427016 216.621557 279.047378 215.001195 
C 280.66774 213.380833 281.578178 211.182842 281.578178 208.891304 
C 281.578178 206.599766 280.66774 204.401775 279.047378 202.781413 
C 277.427016 201.161051 275.229025 200.250613 272.937487 200.250613 
C 270.645948 200.250613 268.447957 201.161051 266.827595 202.781413 
C 265.207233 204.401775 264.296795 206.599766 264.296795 208.891304 
C 264.296795 211.182842 265.207233 213.380833 266.827595 215.001195 
C 268.447957 216.621557 270.645948 217.531995 272.937487 217.531995 
z
" clip-path="url(#pd76549806f)" style="fill: #ff0d0d; stroke: #000000; stroke-linejoin: miter"/>
   </g>
   <g id="patch_72">
    <path d="M 214.781868 145.053153 
C 217.073406 145.053153 219.271397 144.142716 220.891759 142.522353 
C 222.512121 140.901991 223.422559 138.704 223.422559 136.412462 
C 223.422559 134.120924 222.512121 131.922933 220.891759 130.302571 
C 219.271397 128.682209 217.073406 127.771771 214.781868 127.771771 
C 212.490329 127.771771 210.292338 128.682209 208.671976 130.302571 
C 207.051614 131.922933 206.141176 134.120924 206.141176 136.412462 
C 206.141176 138.704 207.051614 140.901991 208.671976 142.522353 
C 210.292338 144.142716 212.490329 145.053153 214.781868 145.053153 
z
" clip-path="url(#pd76549806f)" style="fill: #ff0d0d; stroke: #000000; stroke-linejoin: miter"/>
   </g>
   <g id="patch_73">
    <path d="M 212.901668 243.020976 
C 215.193206 243.020976 217.391197 242.110539 219.011559 240.490177 
C 220.631921 238.869814 221.542359 236.671823 221.542359 234.380285 
C 221.542359 232.088747 220.631921 229.890756 219.011559 228.270394 
C 217.391197 226.650032 215.193206 225.739594 212.901668 225.739594 
C 210.61013 225.739594 208.412139 226.650032 206.791776 228.270394 
C 205.171414 229.890756 204.260977 232.088747 204.260977 234.380285 
C 204.260977 236.671823 205.171414 238.869814 206.791776 240.490177 
C 208.412139 242.110539 210.61013 243.020976 212.901668 243.020976 
z
" clip-path="url(#pd76549806f)" style="fill: #ff0d0d; stroke: #000000; stroke-linejoin: miter"/>
   </g>
   <g id="patch_74">
    <path d="M 268.11844 183.808427 
C 273.1876 183.808427 278.049823 181.794429 281.63426 178.209991 
C 285.218697 174.625554 287.232696 169.763331 287.232696 164.694171 
C 287.232696 159.625011 285.218697 154.762788 281.63426 151.178351 
C 278.049823 147.593913 273.1876 145.579915 268.11844 145.579915 
C 263.04928 145.579915 258.187057 147.593913 254.60262 151.178351 
C 251.018182 154.762788 249.004184 159.625011 249.004184 164.694171 
C 249.004184 169.763331 251.018182 174.625554 254.60262 178.209991 
C 258.187057 181.794429 263.04928 183.808427 268.11844 183.808427 
z
" clip-path="url(#pd76549806f)" style="fill: #248f8f; stroke: #000000; stroke-linejoin: miter"/>
   </g>
   <g id="patch_75">
    <path d="M 238.934379 147.236863 
C 244.003539 147.236863 248.865762 145.222864 252.450199 141.638427 
C 256.034636 138.053989 258.048635 133.191767 258.048635 128.122607 
C 258.048635 123.053447 256.034636 118.191224 252.450199 114.606787 
C 248.865762 111.022349 244.003539 109.008351 238.934379 109.008351 
C 233.865219 109.008351 229.002996 111.022349 225.418559 114.606787 
C 221.834121 118.191224 219.820123 123.053447 219.820123 128.122607 
C 219.820123 133.191767 221.834121 138.053989 225.418559 141.638427 
C 229.002996 145.222864 233.865219 147.236863 238.934379 147.236863 
z
" clip-path="url(#pd76549806f)" style="fill: #248f8f; stroke: #000000; stroke-linejoin: miter"/>
   </g>
   <g id="patch_76">
    <path d="M 209.205812 110.296778 
C 214.274972 110.296778 219.137195 108.282779 222.721632 104.698342 
C 226.306069 101.113904 228.320068 96.251682 228.320068 91.182522 
C 228.320068 86.113362 226.306069 81.251139 222.721632 77.666701 
C 219.137195 74.082264 214.274972 72.068265 209.205812 72.068265 
C 204.136652 72.068265 199.274429 74.082264 195.689992 77.666701 
C 192.105554 81.251139 190.091556 86.113362 190.091556 91.182522 
C 190.091556 96.251682 192.105554 101.113904 195.689992 104.698342 
C 199.274429 108.282779 204.136652 110.296778 209.205812 110.296778 
z
" clip-path="url(#pd76549806f)" style="fill: #248f8f; stroke: #000000; stroke-linejoin: miter"/>
   </g>
   <g id="patch_77">
    <path d="M 237.857554 301.248 
C 240.149092 301.248 242.347083 300.337562 243.967445 298.7172 
C 245.587808 297.096838 246.498245 294.898847 246.498245 292.607309 
C 246.498245 290.315771 245.587808 288.11778 243.967445 286.497418 
C 242.347083 284.877055 240.149092 283.966618 237.857554 283.966618 
C 235.566016 283.966618 233.368025 284.877055 231.747663 286.497418 
C 230.127301 288.11778 229.216863 290.315771 229.216863 292.607309 
C 229.216863 294.898847 230.127301 297.096838 231.747663 298.7172 
C 233.368025 300.337562 235.566016 301.248 237.857554 301.248 
z
" clip-path="url(#pd76549806f)" style="fill: #ff0d0d; stroke: #000000; stroke-linejoin: miter"/>
   </g>
   <g id="patch_78">
    <path d="M 179.563211 229.046783 
C 181.854749 229.046783 184.05274 228.136345 185.673102 226.515983 
C 187.293464 224.895621 188.203902 222.69763 188.203902 220.406092 
C 188.203902 218.114554 187.293464 215.916563 185.673102 214.296201 
C 184.05274 212.675839 181.854749 211.765401 179.563211 211.765401 
C 177.271673 211.765401 175.073682 212.675839 173.45332 214.296201 
C 171.832958 215.916563 170.92252 218.114554 170.92252 220.406092 
C 170.92252 222.69763 171.832958 224.895621 173.45332 226.515983 
C 175.073682 228.136345 177.271673 229.046783 179.563211 229.046783 
z
" clip-path="url(#pd76549806f)" style="fill: #ff0d0d; stroke: #000000; stroke-linejoin: miter"/>
   </g>
   <g id="patch_79">
    <path d="M 237.193294 216.250014 
C 239.484833 216.250014 241.682824 215.339576 243.303186 213.719214 
C 244.923548 212.098852 245.833986 209.900861 245.833986 207.609323 
C 245.833986 205.317785 244.923548 203.119794 243.303186 201.499431 
C 241.682824 199.879069 239.484833 198.968632 237.193294 198.968632 
C 234.901756 198.968632 232.703765 199.879069 231.083403 201.499431 
C 229.463041 203.119794 228.552603 205.317785 228.552603 207.609323 
C 228.552603 209.900861 229.463041 212.098852 231.083403 213.719214 
C 232.703765 215.339576 234.901756 216.250014 237.193294 216.250014 
z
" clip-path="url(#pd76549806f)" style="fill: #ff0d0d; stroke: #000000; stroke-linejoin: miter"/>
   </g>
   <g id="patch_80">
    <path d="M 179.310858 144.430336 
C 181.602396 144.430336 183.800387 143.519899 185.420749 141.899537 
C 187.041111 140.279174 187.951549 138.081183 187.951549 135.789645 
C 187.951549 133.498107 187.041111 131.300116 185.420749 129.679754 
C 183.800387 128.059392 181.602396 127.148954 179.310858 127.148954 
C 177.01932 127.148954 174.821328 128.059392 173.200966 129.679754 
C 171.580604 131.300116 170.670166 133.498107 170.670166 135.789645 
C 170.670166 138.081183 171.580604 140.279174 173.200966 141.899537 
C 174.821328 143.519899 177.01932 144.430336 179.310858 144.430336 
z
" clip-path="url(#pd76549806f)" style="fill: #ff0d0d; stroke: #000000; stroke-linejoin: miter"/>
   </g>
   <g id="patch_81">
    <path d="M 263.357828 129.012104 
C 265.649366 129.012104 267.847358 128.101666 269.46772 126.481304 
C 271.088082 124.860942 271.99852 122.662951 271.99852 120.371413 
C 271.99852 118.079875 271.088082 115.881884 269.46772 114.261522 
C 267.847358 112.64116 265.649366 111.730722 263.357828 111.730722 
C 261.06629 111.730722 258.868299 112.64116 257.247937 114.261522 
C 255.627575 115.881884 254.717137 118.079875 254.717137 120.371413 
C 254.717137 122.662951 255.627575 124.860942 257.247937 126.481304 
C 258.868299 128.101666 261.06629 129.012104 263.357828 129.012104 
z
" clip-path="url(#pd76549806f)" style="fill: #ff0d0d; stroke: #000000; stroke-linejoin: miter"/>
   </g>
   <g id="patch_82">
    <path d="M 262.14918 274.477038 
C 264.440718 274.477038 266.638709 273.5666 268.259071 271.946238 
C 269.879434 270.325876 270.789871 268.127885 270.789871 265.836347 
C 270.789871 263.544809 269.879434 261.346818 268.259071 259.726456 
C 266.638709 258.106094 264.440718 257.195656 262.14918 257.195656 
C 259.857642 257.195656 257.659651 258.106094 256.039289 259.726456 
C 254.418927 261.346818 253.508489 263.544809 253.508489 265.836347 
C 253.508489 268.127885 254.418927 270.325876 256.039289 271.946238 
C 257.659651 273.5666 259.857642 274.477038 262.14918 274.477038 
z
" clip-path="url(#pd76549806f)" style="fill: #ff0d0d; stroke: #000000; stroke-linejoin: miter"/>
   </g>
   <g id="patch_83">
    <path d="M 203.854835 202.275816 
C 206.146373 202.275816 208.344364 201.365378 209.964726 199.745016 
C 211.585088 198.124654 212.495526 195.926663 212.495526 193.635125 
C 212.495526 191.343587 211.585088 189.145596 209.964726 187.525234 
C 208.344364 185.904872 206.146373 184.994434 203.854835 184.994434 
C 201.563297 184.994434 199.365306 185.904872 197.744944 187.525234 
C 196.124582 189.145596 195.214144 191.343587 195.214144 193.635125 
C 195.214144 195.926663 196.124582 198.124654 197.744944 199.745016 
C 199.365306 201.365378 201.563297 202.275816 203.854835 202.275816 
z
" clip-path="url(#pd76549806f)" style="fill: #ff0d0d; stroke: #000000; stroke-linejoin: miter"/>
   </g>
   <g id="patch_84">
    <path d="M 230.015752 114.634411 
C 232.30729 114.634411 234.505281 113.723974 236.125643 112.103612 
C 237.746005 110.48325 238.656443 108.285258 238.656443 105.99372 
C 238.656443 103.702182 237.746005 101.504191 236.125643 99.883829 
C 234.505281 98.263467 232.30729 97.353029 230.015752 97.353029 
C 227.724214 97.353029 225.526223 98.263467 223.90586 99.883829 
C 222.285498 101.504191 221.375061 103.702182 221.375061 105.99372 
C 221.375061 108.285258 222.285498 110.48325 223.90586 112.103612 
C 225.526223 113.723974 227.724214 114.634411 230.015752 114.634411 
z
" clip-path="url(#pd76549806f)" style="fill: #ff0d0d; stroke: #000000; stroke-linejoin: miter"/>
   </g>
   <g id="patch_85">
    <path d="M 257.328737 240.75005 
C 262.397897 240.75005 267.26012 238.736052 270.844558 235.151614 
C 274.428995 231.567177 276.442994 226.704954 276.442994 221.635794 
C 276.442994 216.566634 274.428995 211.704412 270.844558 208.119974 
C 267.26012 204.535537 262.397897 202.521538 257.328737 202.521538 
C 252.259577 202.521538 247.397355 204.535537 243.812917 208.119974 
C 240.22848 211.704412 238.214481 216.566634 238.214481 221.635794 
C 238.214481 226.704954 240.22848 231.567177 243.812917 235.151614 
C 247.397355 238.736052 252.259577 240.75005 257.328737 240.75005 
z
" clip-path="url(#pd76549806f)" style="fill: #248f8f; stroke: #000000; stroke-linejoin: miter"/>
   </g>
   <g id="patch_86">
    <path d="M 170.665665 133.614637 
C 175.734825 133.614637 180.597047 131.600638 184.181485 128.016201 
C 187.765922 124.431763 189.779921 119.56954 189.779921 114.50038 
C 189.779921 109.43122 187.765922 104.568998 184.181485 100.98456 
C 180.597047 97.400123 175.734825 95.386124 170.665665 95.386124 
C 165.596505 95.386124 160.734282 97.400123 157.149844 100.98456 
C 153.565407 104.568998 151.551408 109.43122 151.551408 114.50038 
C 151.551408 119.56954 153.565407 124.431763 157.149844 128.016201 
C 160.734282 131.600638 165.596505 133.614637 170.665665 133.614637 
z
" clip-path="url(#pd76549806f)" style="fill: #248f8f; stroke: #000000; stroke-linejoin: miter"/>
   </g>
   <g id="patch_87">
    <path d="M 228.182263 204.651149 
C 233.251423 204.651149 238.113646 202.637151 241.698083 199.052713 
C 245.28252 195.468276 247.296519 190.606053 247.296519 185.536893 
C 247.296519 180.467733 245.28252 175.60551 241.698083 172.021073 
C 238.113646 168.436636 233.251423 166.422637 228.182263 166.422637 
C 223.113103 166.422637 218.25088 168.436636 214.666443 172.021073 
C 211.082005 175.60551 209.068007 180.467733 209.068007 185.536893 
C 209.068007 190.606053 211.082005 195.468276 214.666443 199.052713 
C 218.25088 202.637151 223.113103 204.651149 228.182263 204.651149 
z
" clip-path="url(#pd76549806f)" style="fill: #248f8f; stroke: #000000; stroke-linejoin: miter"/>
   </g>
   <g id="patch_88">
    <path d="M 199.312806 168.443609 
C 204.381966 168.443609 209.244189 166.429611 212.828626 162.845173 
C 216.413064 159.260736 218.427062 154.398513 218.427062 149.329353 
C 218.427062 144.260193 216.413064 139.397971 212.828626 135.813533 
C 209.244189 132.229096 204.381966 130.215097 199.312806 130.215097 
C 194.243646 130.215097 189.381423 132.229096 185.796986 135.813533 
C 182.212549 139.397971 180.19855 144.260193 180.19855 149.329353 
C 180.19855 154.398513 182.212549 159.260736 185.796986 162.845173 
C 189.381423 166.429611 194.243646 168.443609 199.312806 168.443609 
z
" clip-path="url(#pd76549806f)" style="fill: #248f8f; stroke: #000000; stroke-linejoin: miter"/>
   </g>
   <g id="patch_89">
    <path d="M 226.404988 273.195057 
C 228.696526 273.195057 230.894517 272.284619 232.514879 270.664257 
C 234.135241 269.043895 235.045679 266.845904 235.045679 264.554366 
C 235.045679 262.262828 234.135241 260.064837 232.514879 258.444474 
C 230.894517 256.824112 228.696526 255.913675 226.404988 255.913675 
C 224.11345 255.913675 221.915459 256.824112 220.295097 258.444474 
C 218.674735 260.064837 217.764297 262.262828 217.764297 264.554366 
C 217.764297 266.845904 218.674735 269.043895 220.295097 270.664257 
C 221.915459 272.284619 224.11345 273.195057 226.404988 273.195057 
z
" clip-path="url(#pd76549806f)" style="fill: #ff0d0d; stroke: #000000; stroke-linejoin: miter"/>
   </g>
   <g id="patch_90">
    <path d="M 168.110643 200.993835 
C 170.402181 200.993835 172.600172 200.083397 174.220534 198.463035 
C 175.840896 196.842673 176.751334 194.644682 176.751334 192.353144 
C 176.751334 190.061606 175.840896 187.863615 174.220534 186.243253 
C 172.600172 184.62289 170.402181 183.712453 168.110643 183.712453 
C 165.819105 183.712453 163.621114 184.62289 162.000752 186.243253 
C 160.380389 187.863615 159.469952 190.061606 159.469952 192.353144 
C 159.469952 194.644682 160.380389 196.842673 162.000752 198.463035 
C 163.621114 200.083397 165.819105 200.993835 168.110643 200.993835 
z
" clip-path="url(#pd76549806f)" style="fill: #ff0d0d; stroke: #000000; stroke-linejoin: miter"/>
   </g>
   <g id="patch_91">
    <path d="M 254.61721 87.47661 
C 256.908748 87.47661 259.106739 86.566172 260.727102 84.94581 
C 262.347464 83.325448 263.257901 81.127457 263.257901 78.835919 
C 263.257901 76.544381 262.347464 74.34639 260.727102 72.726028 
C 259.106739 71.105666 256.908748 70.195228 254.61721 70.195228 
C 252.325672 70.195228 250.127681 71.105666 248.507319 72.726028 
C 246.886957 74.34639 245.976519 76.544381 245.976519 78.835919 
C 245.976519 81.127457 246.886957 83.325448 248.507319 84.94581 
C 250.127681 86.566172 252.325672 87.47661 254.61721 87.47661 
z
" clip-path="url(#pd76549806f)" style="fill: #ff0d0d; stroke: #000000; stroke-linejoin: miter"/>
   </g>
   <g id="patch_92">
    <path d="M 252.509691 186.079352 
C 254.801229 186.079352 256.99922 185.168915 258.619582 183.548553 
C 260.239944 181.92819 261.150382 179.730199 261.150382 177.438661 
C 261.150382 175.147123 260.239944 172.949132 258.619582 171.32877 
C 256.99922 169.708408 254.801229 168.79797 252.509691 168.79797 
C 250.218153 168.79797 248.020162 169.708408 246.399799 171.32877 
C 244.779437 172.949132 243.869 175.147123 243.869 177.438661 
C 243.869 179.730199 244.779437 181.92819 246.399799 183.548553 
C 248.020162 185.168915 250.218153 186.079352 252.509691 186.079352 
z
" clip-path="url(#pd76549806f)" style="fill: #ff0d0d; stroke: #000000; stroke-linejoin: miter"/>
   </g>
   <g id="patch_93">
    <path d="M 193.793238 112.98589 
C 196.084776 112.98589 198.282767 112.075452 199.903129 110.45509 
C 201.523491 108.834728 202.433929 106.636737 202.433929 104.345199 
C 202.433929 102.053661 201.523491 99.85567 199.903129 98.235308 
C 198.282767 96.614946 196.084776 95.704508 193.793238 95.704508 
C 191.501699 95.704508 189.303708 96.614946 187.683346 98.235308 
C 186.062984 99.85567 185.152546 102.053661 185.152546 104.345199 
C 185.152546 106.636737 186.062984 108.834728 187.683346 110.45509 
C 189.303708 112.075452 191.501699 112.98589 193.793238 112.98589 
z
" clip-path="url(#pd76549806f)" style="fill: #ff0d0d; stroke: #000000; stroke-linejoin: miter"/>
   </g>
   <g id="patch_94">
    <path d="M 219.53208 88.02514 
C 221.823618 88.02514 224.021609 87.114703 225.641971 85.494341 
C 227.262333 83.873978 228.172771 81.675987 228.172771 79.384449 
C 228.172771 77.092911 227.262333 74.89492 225.641971 73.274558 
C 224.021609 71.654196 221.823618 70.743758 219.53208 70.743758 
C 217.240542 70.743758 215.042551 71.654196 213.422189 73.274558 
C 211.801827 74.89492 210.891389 77.092911 210.891389 79.384449 
C 210.891389 81.675987 211.801827 83.873978 213.422189 85.494341 
C 215.042551 87.114703 217.240542 88.02514 219.53208 88.02514 
z
" clip-path="url(#pd76549806f)" style="fill: #ff0d0d; stroke: #000000; stroke-linejoin: miter"/>
   </g>
   <g id="patch_95">
    <path d="M 219.276909 172.103571 
C 221.568447 172.103571 223.766438 171.193133 225.3868 169.572771 
C 227.007162 167.952409 227.9176 165.754418 227.9176 163.46288 
C 227.9176 161.171342 227.007162 158.973351 225.3868 157.352989 
C 223.766438 155.732626 221.568447 154.822189 219.276909 154.822189 
C 216.985371 154.822189 214.78738 155.732626 213.167018 157.352989 
C 211.546656 158.973351 210.636218 161.171342 210.636218 163.46288 
C 210.636218 165.754418 211.546656 167.952409 213.167018 169.572771 
C 214.78738 171.193133 216.985371 172.103571 219.276909 172.103571 
z
" clip-path="url(#pd76549806f)" style="fill: #ff0d0d; stroke: #000000; stroke-linejoin: miter"/>
   </g>
   <g id="patch_96">
    <path d="M 246.540431 297.695093 
C 251.609591 297.695093 256.471814 295.681095 260.056251 292.096657 
C 263.640689 288.51222 265.654687 283.649997 265.654687 278.580837 
C 265.654687 273.511677 263.640689 268.649455 260.056251 265.065017 
C 256.471814 261.48058 251.609591 259.466581 246.540431 259.466581 
C 241.471271 259.466581 236.609048 261.48058 233.024611 265.065017 
C 229.440173 268.649455 227.426175 273.511677 227.426175 278.580837 
C 227.426175 283.649997 229.440173 288.51222 233.024611 292.096657 
C 236.609048 295.681095 241.471271 297.695093 246.540431 297.695093 
z
" clip-path="url(#pd76549806f)" style="fill: #248f8f; stroke: #000000; stroke-linejoin: miter"/>
   </g>
   <g id="patch_97">
    <path d="M 217.39256 261.592773 
C 222.46172 261.592773 227.323943 259.578774 230.90838 255.994337 
C 234.492818 252.409899 236.506817 247.547676 236.506817 242.478516 
C 236.506817 237.409357 234.492818 232.547134 230.90838 228.962696 
C 227.323943 225.378259 222.46172 223.36426 217.39256 223.36426 
C 212.3234 223.36426 207.461178 225.378259 203.87674 228.962696 
C 200.292303 232.547134 198.278304 237.409357 198.278304 242.478516 
C 198.278304 247.547676 200.292303 252.409899 203.87674 255.994337 
C 207.461178 259.578774 212.3234 261.592773 217.39256 261.592773 
z
" clip-path="url(#pd76549806f)" style="fill: #248f8f; stroke: #000000; stroke-linejoin: miter"/>
   </g>
   <g id="patch_98">
    <path d="M 188.246086 225.493872 
C 193.315246 225.493872 198.177469 223.479873 201.761906 219.895436 
C 205.346343 216.310998 207.360342 211.448775 207.360342 206.379615 
C 207.360342 201.310455 205.346343 196.448233 201.761906 192.863795 
C 198.177469 189.279358 193.315246 187.265359 188.246086 187.265359 
C 183.176926 187.265359 178.314703 189.279358 174.730266 192.863795 
C 171.145828 196.448233 169.13183 201.310455 169.13183 206.379615 
C 169.13183 211.448775 171.145828 216.310998 174.730266 219.895436 
C 178.314703 223.479873 183.176926 225.493872 188.246086 225.493872 
z
" clip-path="url(#pd76549806f)" style="fill: #248f8f; stroke: #000000; stroke-linejoin: miter"/>
   </g>
   <g id="patch_99">
    <path d="M 159.121053 188.967639 
C 164.190213 188.967639 169.052436 186.95364 172.636873 183.369203 
C 176.22131 179.784765 178.235309 174.922543 178.235309 169.853383 
C 178.235309 164.784223 176.22131 159.922 172.636873 156.337562 
C 169.052436 152.753125 164.190213 150.739126 159.121053 150.739126 
C 154.051893 150.739126 149.18967 152.753125 145.605233 156.337562 
C 142.020795 159.922 140.006797 164.784223 140.006797 169.853383 
C 140.006797 174.922543 142.020795 179.784765 145.605233 183.369203 
C 149.18967 186.95364 154.051893 188.967639 159.121053 188.967639 
z
" clip-path="url(#pd76549806f)" style="fill: #248f8f; stroke: #000000; stroke-linejoin: miter"/>
   </g>
   <g id="patch_100">
    <path d="M 243.495143 145.053153 
C 245.786681 145.053153 247.984672 144.142716 249.605034 142.522353 
C 251.225397 140.901991 252.135834 138.704 252.135834 136.412462 
C 252.135834 134.120924 251.225397 131.922933 249.605034 130.302571 
C 247.984672 128.682209 245.786681 127.771771 243.495143 127.771771 
C 241.203605 127.771771 239.005614 128.682209 237.385252 130.302571 
C 235.76489 131.922933 234.854452 134.120924 234.854452 136.412462 
C 234.854452 138.704 235.76489 140.901991 237.385252 142.522353 
C 239.005614 144.142716 241.203605 145.053153 243.495143 145.053153 
z
" clip-path="url(#pd76549806f)" style="fill: #ff0d0d; stroke: #000000; stroke-linejoin: miter"/>
   </g>
   <g id="patch_101">
    <path d="M 241.719988 243.020976 
C 244.011526 243.020976 246.209517 242.110539 247.829879 240.490177 
C 249.450241 238.869814 250.360679 236.671823 250.360679 234.380285 
C 250.360679 232.088747 249.450241 229.890756 247.829879 228.270394 
C 246.209517 226.650032 244.011526 225.739594 241.719988 225.739594 
C 239.428449 225.739594 237.230458 226.650032 235.610096 228.270394 
C 233.989734 229.890756 233.079296 232.088747 233.079296 234.380285 
C 233.079296 236.671823 233.989734 238.869814 235.610096 240.490177 
C 237.230458 242.110539 239.428449 243.020976 241.719988 243.020976 
z
" clip-path="url(#pd76549806f)" style="fill: #ff0d0d; stroke: #000000; stroke-linejoin: miter"/>
   </g>
   <g id="patch_102">
    <path d="M 183.517301 170.6562 
C 185.80884 170.6562 188.006831 169.745763 189.627193 168.1254 
C 191.247555 166.505038 192.157993 164.307047 192.157993 162.015509 
C 192.157993 159.723971 191.247555 157.52598 189.627193 155.905618 
C 188.006831 154.285256 185.80884 153.374818 183.517301 153.374818 
C 181.225763 153.374818 179.027772 154.285256 177.40741 155.905618 
C 175.787048 157.52598 174.87661 159.723971 174.87661 162.015509 
C 174.87661 164.307047 175.787048 166.505038 177.40741 168.1254 
C 179.027772 169.745763 181.225763 170.6562 183.517301 170.6562 
z
" clip-path="url(#pd76549806f)" style="fill: #ff0d0d; stroke: #000000; stroke-linejoin: miter"/>
   </g>
   <g id="patch_103">
    <path d="M 238.867987 110.296778 
C 243.937147 110.296778 248.79937 108.282779 252.383807 104.698342 
C 255.968244 101.113904 257.982243 96.251682 257.982243 91.182522 
C 257.982243 86.113362 255.968244 81.251139 252.383807 77.666701 
C 248.79937 74.082264 243.937147 72.068265 238.867987 72.068265 
C 233.798827 72.068265 228.936604 74.082264 225.352167 77.666701 
C 221.767729 81.251139 219.753731 86.113362 219.753731 91.182522 
C 219.753731 96.251682 221.767729 101.113904 225.352167 104.698342 
C 228.936604 108.282779 233.798827 110.296778 238.867987 110.296778 
z
" clip-path="url(#pd76549806f)" style="fill: #248f8f; stroke: #000000; stroke-linejoin: miter"/>
   </g>
   <g id="patch_104">
    <path d="M 208.381531 229.046783 
C 210.673069 229.046783 212.87106 228.136345 214.491422 226.515983 
C 216.111784 224.895621 217.022222 222.69763 217.022222 220.406092 
C 217.022222 218.114554 216.111784 215.916563 214.491422 214.296201 
C 212.87106 212.675839 210.673069 211.765401 208.381531 211.765401 
C 206.089993 211.765401 203.892002 212.675839 202.27164 214.296201 
C 200.651277 215.916563 199.74084 218.114554 199.74084 220.406092 
C 199.74084 222.69763 200.651277 224.895621 202.27164 226.515983 
C 203.892002 228.136345 206.089993 229.046783 208.381531 229.046783 
z
" clip-path="url(#pd76549806f)" style="fill: #ff0d0d; stroke: #000000; stroke-linejoin: miter"/>
   </g>
   <g id="patch_105">
    <path d="M 207.868365 143.524477 
C 210.159903 143.524477 212.357894 142.61404 213.978257 140.993677 
C 215.598619 139.373315 216.509056 137.175324 216.509056 134.883786 
C 216.509056 132.592248 215.598619 130.394257 213.978257 128.773895 
C 212.357894 127.153533 210.159903 126.243095 207.868365 126.243095 
C 205.576827 126.243095 203.378836 127.153533 201.758474 128.773895 
C 200.138112 130.394257 199.227674 132.592248 199.227674 134.883786 
C 199.227674 137.175324 200.138112 139.373315 201.758474 140.993677 
C 203.378836 142.61404 205.576827 143.524477 207.868365 143.524477 
z
" clip-path="url(#pd76549806f)" style="fill: #ff0d0d; stroke: #000000; stroke-linejoin: miter"/>
   </g>
   <g id="patch_106">
    <path d="M 150.199795 156.297148 
C 152.491333 156.297148 154.689324 155.38671 156.309686 153.766348 
C 157.930048 152.145986 158.840486 149.947995 158.840486 147.656457 
C 158.840486 145.364919 157.930048 143.166928 156.309686 141.546565 
C 154.689324 139.926203 152.491333 139.015766 150.199795 139.015766 
C 147.908257 139.015766 145.710266 139.926203 144.089903 141.546565 
C 142.469541 143.166928 141.559104 145.364919 141.559104 147.656457 
C 141.559104 149.947995 142.469541 152.145986 144.089903 153.766348 
C 145.710266 155.38671 147.908257 156.297148 150.199795 156.297148 
z
" clip-path="url(#pd76549806f)" style="fill: #ff0d0d; stroke: #000000; stroke-linejoin: miter"/>
   </g>
   <g id="patch_107">
    <path d="M 206.014914 65.495989 
C 207.091243 65.495989 208.123633 65.068359 208.884712 64.307279 
C 209.645791 63.5462 210.073421 62.513811 210.073421 61.437482 
C 210.073421 60.361154 209.645791 59.328764 208.884712 58.567685 
C 208.123633 57.806605 207.091243 57.378976 206.014914 57.378976 
C 204.938586 57.378976 203.906196 57.806605 203.145117 58.567685 
C 202.384038 59.328764 201.956408 60.361154 201.956408 61.437482 
C 201.956408 62.513811 202.384038 63.5462 203.145117 64.307279 
C 203.906196 65.068359 204.938586 65.495989 206.014914 65.495989 
z
" clip-path="url(#pd76549806f)" style="fill: #ffffff; stroke: #000000; stroke-linejoin: miter"/>
   </g>
   <g id="patch_108">
    <path d="M 232.673155 202.275816 
C 234.964693 202.275816 237.162684 201.365378 238.783046 199.745016 
C 240.403408 198.124654 241.313846 195.926663 241.313846 193.635125 
C 241.313846 191.343587 240.403408 189.145596 238.783046 187.525234 
C 237.162684 185.904872 234.964693 184.994434 232.673155 184.994434 
C 230.381617 184.994434 228.183626 185.904872 226.563263 187.525234 
C 224.942901 189.145596 224.032464 191.343587 224.032464 193.635125 
C 224.032464 195.926663 224.942901 198.124654 226.563263 199.745016 
C 228.183626 201.365378 230.381617 202.275816 232.673155 202.275816 
z
" clip-path="url(#pd76549806f)" style="fill: #ff0d0d; stroke: #000000; stroke-linejoin: miter"/>
   </g>
   <g id="patch_109">
    <path d="M 174.574822 129.322387 
C 176.86636 129.322387 179.064351 128.411949 180.684713 126.791587 
C 182.305075 125.171225 183.215513 122.973234 183.215513 120.681696 
C 183.215513 118.390158 182.305075 116.192166 180.684713 114.571804 
C 179.064351 112.951442 176.86636 112.041005 174.574822 112.041005 
C 172.283284 112.041005 170.085293 112.951442 168.46493 114.571804 
C 166.844568 116.192166 165.934131 118.390158 165.934131 120.681696 
C 165.934131 122.973234 166.844568 125.171225 168.46493 126.791587 
C 170.085293 128.411949 172.283284 129.322387 174.574822 129.322387 
z
" clip-path="url(#pd76549806f)" style="fill: #ff0d0d; stroke: #000000; stroke-linejoin: miter"/>
   </g>
   <g id="patch_110">
    <path d="M 185.14133 55.925013 
C 186.217659 55.925013 187.250049 55.497383 188.011128 54.736304 
C 188.772207 53.975225 189.199837 52.942835 189.199837 51.866506 
C 189.199837 50.790178 188.772207 49.757788 188.011128 48.996709 
C 187.250049 48.23563 186.217659 47.808 185.14133 47.808 
C 184.065002 47.808 183.032612 48.23563 182.271533 48.996709 
C 181.510454 49.757788 181.082824 50.790178 181.082824 51.866506 
C 181.082824 52.942835 181.510454 53.975225 182.271533 54.736304 
C 183.032612 55.497383 184.065002 55.925013 185.14133 55.925013 
z
" clip-path="url(#pd76549806f)" style="fill: #ffffff; stroke: #000000; stroke-linejoin: miter"/>
   </g>
   <g id="patch_111">
    <path d="M 227.838502 168.443609 
C 232.907662 168.443609 237.769885 166.429611 241.354322 162.845173 
C 244.938759 159.260736 246.952758 154.398513 246.952758 149.329353 
C 246.952758 144.260193 244.938759 139.397971 241.354322 135.813533 
C 237.769885 132.229096 232.907662 130.215097 227.838502 130.215097 
C 222.769342 130.215097 217.907119 132.229096 214.322682 135.813533 
C 210.738244 139.397971 208.724246 144.260193 208.724246 149.329353 
C 208.724246 154.398513 210.738244 159.260736 214.322682 162.845173 
C 217.907119 166.429611 222.769342 168.443609 227.838502 168.443609 
z
" clip-path="url(#pd76549806f)" style="fill: #248f8f; stroke: #000000; stroke-linejoin: miter"/>
   </g>
   <g id="patch_112">
    <path d="M 198.94001 131.80232 
C 204.00917 131.80232 208.871393 129.788321 212.45583 126.203884 
C 216.040268 122.619446 218.054266 117.757224 218.054266 112.688064 
C 218.054266 107.618904 216.040268 102.756681 212.45583 99.172244 
C 208.871393 95.587806 204.00917 93.573808 198.94001 93.573808 
C 193.87085 93.573808 189.008628 95.587806 185.42419 99.172244 
C 181.839753 102.756681 179.825754 107.618904 179.825754 112.688064 
C 179.825754 117.757224 181.839753 122.619446 185.42419 126.203884 
C 189.008628 129.788321 193.87085 131.80232 198.94001 131.80232 
z
" clip-path="url(#pd76549806f)" style="fill: #248f8f; stroke: #000000; stroke-linejoin: miter"/>
   </g>
   <g id="patch_113">
    <path d="M 196.928963 200.993835 
C 199.220501 200.993835 201.418492 200.083397 203.038854 198.463035 
C 204.659216 196.842673 205.569654 194.644682 205.569654 192.353144 
C 205.569654 190.061606 204.659216 187.863615 203.038854 186.243253 
C 201.418492 184.62289 199.220501 183.712453 196.928963 183.712453 
C 194.637425 183.712453 192.439433 184.62289 190.819071 186.243253 
C 189.198709 187.863615 188.288272 190.061606 188.288272 192.353144 
C 188.288272 194.644682 189.198709 196.842673 190.819071 198.463035 
C 192.439433 200.083397 194.637425 200.993835 196.928963 200.993835 
z
" clip-path="url(#pd76549806f)" style="fill: #ff0d0d; stroke: #000000; stroke-linejoin: miter"/>
   </g>
   <g id="patch_114">
    <path d="M 139.28025 130.066011 
C 141.571788 130.066011 143.769779 129.155573 145.390141 127.535211 
C 147.010503 125.914849 147.920941 123.716858 147.920941 121.425319 
C 147.920941 119.133781 147.010503 116.93579 145.390141 115.315428 
C 143.769779 113.695066 141.571788 112.784628 139.28025 112.784628 
C 136.988712 112.784628 134.79072 113.695066 133.170358 115.315428 
C 131.549996 116.93579 130.639558 119.133781 130.639558 121.425319 
C 130.639558 123.716858 131.549996 125.914849 133.170358 127.535211 
C 134.79072 129.155573 136.988712 130.066011 139.28025 130.066011 
z
" clip-path="url(#pd76549806f)" style="fill: #ff0d0d; stroke: #000000; stroke-linejoin: miter"/>
   </g>
   <g id="patch_115">
    <path d="M 195.900467 69.35306 
C 198.539208 69.35306 201.070228 68.304677 202.936099 66.438806 
C 204.801971 64.572934 205.850354 62.041914 205.850354 59.403173 
C 205.850354 56.764433 204.801971 54.233413 202.936099 52.367541 
C 201.070228 50.501669 198.539208 49.453287 195.900467 49.453287 
C 193.261726 49.453287 190.730706 50.501669 188.864835 52.367541 
C 186.998963 54.233413 185.95058 56.764433 185.95058 59.403173 
C 185.95058 62.041914 186.998963 64.572934 188.864835 66.438806 
C 190.730706 68.304677 193.261726 69.35306 195.900467 69.35306 
z
" clip-path="url(#pd76549806f)" style="fill: #909090; stroke: #000000; stroke-linejoin: miter"/>
   </g>
   <g id="patch_116">
    <path d="M 223.026892 112.98589 
C 225.31843 112.98589 227.516421 112.075452 229.136783 110.45509 
C 230.757145 108.834728 231.667583 106.636737 231.667583 104.345199 
C 231.667583 102.053661 230.757145 99.85567 229.136783 98.235308 
C 227.516421 96.614946 225.31843 95.704508 223.026892 95.704508 
C 220.735354 95.704508 218.537363 96.614946 216.917001 98.235308 
C 215.296638 99.85567 214.386201 102.053661 214.386201 104.345199 
C 214.386201 106.636737 215.296638 108.834728 216.917001 110.45509 
C 218.537363 112.075452 220.735354 112.98589 223.026892 112.98589 
z
" clip-path="url(#pd76549806f)" style="fill: #ff0d0d; stroke: #000000; stroke-linejoin: miter"/>
   </g>
   <g id="patch_117">
    <path d="M 189.773224 86.108972 
C 192.411965 86.108972 194.942985 85.060589 196.808857 83.194717 
C 198.674728 81.328846 199.723111 78.797826 199.723111 76.159085 
C 199.723111 73.520344 198.674728 70.989324 196.808857 69.123453 
C 194.942985 67.257581 192.411965 66.209198 189.773224 66.209198 
C 187.134483 66.209198 184.603463 67.257581 182.737592 69.123453 
C 180.87172 70.989324 179.823338 73.520344 179.823338 76.159085 
C 179.823338 78.797826 180.87172 81.328846 182.737592 83.194717 
C 184.603463 85.060589 187.134483 86.108972 189.773224 86.108972 
z
" clip-path="url(#pd76549806f)" style="fill: #909090; stroke: #000000; stroke-linejoin: miter"/>
   </g>
   <g id="patch_118">
    <path d="M 217.064406 225.493872 
C 222.133566 225.493872 226.995788 223.479873 230.580226 219.895436 
C 234.164663 216.310998 236.178662 211.448775 236.178662 206.379615 
C 236.178662 201.310455 234.164663 196.448233 230.580226 192.863795 
C 226.995788 189.279358 222.133566 187.265359 217.064406 187.265359 
C 211.995246 187.265359 207.133023 189.279358 203.548585 192.863795 
C 199.964148 196.448233 197.950149 201.310455 197.950149 206.379615 
C 197.950149 211.448775 199.964148 216.310998 203.548585 219.895436 
C 207.133023 223.479873 211.995246 225.493872 217.064406 225.493872 
z
" clip-path="url(#pd76549806f)" style="fill: #248f8f; stroke: #000000; stroke-linejoin: miter"/>
   </g>
   <g id="patch_119">
    <path d="M 188.035802 189.251916 
C 193.104962 189.251916 197.967185 187.237917 201.551622 183.65348 
C 205.136059 180.069042 207.150058 175.206819 207.150058 170.137659 
C 207.150058 165.068499 205.136059 160.206277 201.551622 156.621839 
C 197.967185 153.037402 193.104962 151.023403 188.035802 151.023403 
C 182.966642 151.023403 178.104419 153.037402 174.519982 156.621839 
C 170.935544 160.206277 168.921546 165.068499 168.921546 170.137659 
C 168.921546 175.206819 170.935544 180.069042 174.519982 183.65348 
C 178.104419 187.237917 182.966642 189.251916 188.035802 189.251916 
z
" clip-path="url(#pd76549806f)" style="fill: #248f8f; stroke: #000000; stroke-linejoin: miter"/>
   </g>
   <g id="patch_120">
    <path d="M 158.961695 152.056098 
C 164.030855 152.056098 168.893078 150.042099 172.477515 146.457662 
C 176.061953 142.873225 178.075951 138.011002 178.075951 132.941842 
C 178.075951 127.872682 176.061953 123.010459 172.477515 119.426022 
C 168.893078 115.841584 164.030855 113.827586 158.961695 113.827586 
C 153.892535 113.827586 149.030312 115.841584 145.445875 119.426022 
C 141.861438 123.010459 139.847439 127.872682 139.847439 132.941842 
C 139.847439 138.011002 141.861438 142.873225 145.445875 146.457662 
C 149.030312 150.042099 153.892535 152.056098 158.961695 152.056098 
z
" clip-path="url(#pd76549806f)" style="fill: #248f8f; stroke: #000000; stroke-linejoin: miter"/>
   </g>
   <g id="patch_121">
    <path d="M 201.798374 55.925014 
C 202.874702 55.925014 203.907092 55.497384 204.668171 54.736305 
C 205.42925 53.975226 205.85688 52.942836 205.85688 51.866508 
C 205.85688 50.790179 205.42925 49.757789 204.668171 48.99671 
C 203.907092 48.235631 202.874702 47.808001 201.798374 47.808001 
C 200.722045 47.808001 199.689655 48.235631 198.928576 48.99671 
C 198.167497 49.757789 197.739867 50.790179 197.739867 51.866508 
C 197.739867 52.942836 198.167497 53.975226 198.928576 54.736305 
C 199.689655 55.497384 200.722045 55.925014 201.798374 55.925014 
z
" clip-path="url(#pd76549806f)" style="fill: #ffffff; stroke: #000000; stroke-linejoin: miter"/>
   </g>
   <g id="patch_122">
    <path d="M 184.456847 100.377716 
C 187.095588 100.377716 189.626608 99.329333 191.49248 97.463461 
C 193.358351 95.59759 194.406734 93.06657 194.406734 90.427829 
C 194.406734 87.789088 193.358351 85.258068 191.49248 83.392196 
C 189.626608 81.526325 187.095588 80.477942 184.456847 80.477942 
C 181.818107 80.477942 179.287087 81.526325 177.421215 83.392196 
C 175.555343 85.258068 174.506961 87.789088 174.506961 90.427829 
C 174.506961 93.06657 175.555343 95.59759 177.421215 97.463461 
C 179.287087 99.329333 181.818107 100.377716 184.456847 100.377716 
z
" clip-path="url(#pd76549806f)" style="fill: #909090; stroke: #000000; stroke-linejoin: miter"/>
   </g>
   <g id="patch_123">
    <path d="M 212.344851 170.6562 
C 214.636389 170.6562 216.834381 169.745763 218.454743 168.1254 
C 220.075105 166.505038 220.985542 164.307047 220.985542 162.015509 
C 220.985542 159.723971 220.075105 157.52598 218.454743 155.905618 
C 216.834381 154.285256 214.636389 153.374818 212.344851 153.374818 
C 210.053313 153.374818 207.855322 154.285256 206.23496 155.905618 
C 204.614598 157.52598 203.70416 159.723971 203.70416 162.015509 
C 203.70416 164.307047 204.614598 166.505038 206.23496 168.1254 
C 207.855322 169.745763 210.053313 170.6562 212.344851 170.6562 
z
" clip-path="url(#pd76549806f)" style="fill: #ff0d0d; stroke: #000000; stroke-linejoin: miter"/>
   </g>
   <g id="patch_124">
    <path d="M 179.137181 156.684288 
C 181.428719 156.684288 183.62671 155.77385 185.247072 154.153488 
C 186.867434 152.533126 187.777872 150.335135 187.777872 148.043596 
C 187.777872 145.752058 186.867434 143.554067 185.247072 141.933705 
C 183.62671 140.313343 181.428719 139.402905 179.137181 139.402905 
C 176.845642 139.402905 174.647651 140.313343 173.027289 141.933705 
C 171.406927 143.554067 170.496489 145.752058 170.496489 148.043596 
C 170.496489 150.335135 171.406927 152.533126 173.027289 154.153488 
C 174.647651 155.77385 176.845642 156.684288 179.137181 156.684288 
z
" clip-path="url(#pd76549806f)" style="fill: #ff0d0d; stroke: #000000; stroke-linejoin: miter"/>
   </g>
   <g id="patch_125">
    <path d="M 176.226501 102.976863 
C 177.30283 102.976863 178.33522 102.549234 179.096299 101.788154 
C 179.857378 101.027075 180.285008 99.994685 180.285008 98.918357 
C 180.285008 97.842028 179.857378 96.809639 179.096299 96.04856 
C 178.33522 95.28748 177.30283 94.859851 176.226501 94.859851 
C 175.150173 94.859851 174.117783 95.28748 173.356704 96.04856 
C 172.595625 96.809639 172.167995 97.842028 172.167995 98.918357 
C 172.167995 99.994685 172.595625 101.027075 173.356704 101.788154 
C 174.117783 102.549234 175.150173 102.976863 176.226501 102.976863 
z
" clip-path="url(#pd76549806f)" style="fill: #ffffff; stroke: #000000; stroke-linejoin: miter"/>
   </g>
   <g id="patch_126">
    <path d="M 203.567496 129.322387 
C 205.859034 129.322387 208.057025 128.411949 209.677387 126.791587 
C 211.297749 125.171225 212.208187 122.973234 212.208187 120.681696 
C 212.208187 118.390158 211.297749 116.192166 209.677387 114.571804 
C 208.057025 112.951442 205.859034 112.041005 203.567496 112.041005 
C 201.275958 112.041005 199.077967 112.951442 197.457604 114.571804 
C 195.837242 116.192166 194.926805 118.390158 194.926805 120.681696 
C 194.926805 122.973234 195.837242 125.171225 197.457604 126.791587 
C 199.077967 128.411949 201.275958 129.322387 203.567496 129.322387 
z
" clip-path="url(#pd76549806f)" style="fill: #ff0d0d; stroke: #000000; stroke-linejoin: miter"/>
   </g>
   <g id="patch_127">
    <path d="M 167.317265 127.636887 
C 169.608803 127.636887 171.806794 126.72645 173.427157 125.106087 
C 175.047519 123.485725 175.957956 121.287734 175.957956 118.996196 
C 175.957956 116.704658 175.047519 114.506667 173.427157 112.886305 
C 171.806794 111.265943 169.608803 110.355505 167.317265 110.355505 
C 165.025727 110.355505 162.827736 111.265943 161.207374 112.886305 
C 159.587012 114.506667 158.676574 116.704658 158.676574 118.996196 
C 158.676574 121.287734 159.587012 123.485725 161.207374 125.106087 
C 162.827736 126.72645 165.025727 127.636887 167.317265 127.636887 
z
" clip-path="url(#pd76549806f)" style="fill: #ff0d0d; stroke: #000000; stroke-linejoin: miter"/>
   </g>
   <g id="patch_128">
    <path d="M 187.119593 152.056098 
C 192.188753 152.056098 197.050976 150.042099 200.635414 146.457662 
C 204.219851 142.873225 206.23385 138.011002 206.23385 132.941842 
C 206.23385 127.872682 204.219851 123.010459 200.635414 119.426022 
C 197.050976 115.841584 192.188753 113.827586 187.119593 113.827586 
C 182.050433 113.827586 177.188211 115.841584 173.603773 119.426022 
C 170.019336 123.010459 168.005337 127.872682 168.005337 132.941842 
C 168.005337 138.011002 170.019336 142.873225 173.603773 146.457662 
C 177.188211 150.042099 182.050433 152.056098 187.119593 152.056098 
z
" clip-path="url(#pd76549806f)" style="fill: #248f8f; stroke: #000000; stroke-linejoin: miter"/>
   </g>
  </g>
 </g>
 <defs>
  <clipPath id="pd76549806f">
   <rect x="125.363536" y="41.472" width="221.592927" height="266.112"/>
  </clipPath>
 </defs>
</svg>
