<?xml version="1.0" encoding="utf-8" standalone="no"?>
<!DOCTYPE svg PUBLIC "-//W3C//DTD SVG 1.1//EN"
  "http://www.w3.org/Graphics/SVG/1.1/DTD/svg11.dtd">
<svg xmlns:xlink="http://www.w3.org/1999/xlink" width="460.8pt" height="345.6pt" viewBox="0 0 460.8 345.6" xmlns="http://www.w3.org/2000/svg" version="1.1">
 <metadata>
  <rdf:RDF xmlns:dc="http://purl.org/dc/elements/1.1/" xmlns:cc="http://creativecommons.org/ns#" xmlns:rdf="http://www.w3.org/1999/02/22-rdf-syntax-ns#">
   <cc:Work>
    <dc:type rdf:resource="http://purl.org/dc/dcmitype/StillImage"/>
    <dc:date>2025-06-10T23:52:50.314808</dc:date>
    <dc:format>image/svg+xml</dc:format>
    <dc:creator>
     <cc:Agent>
      <dc:title>Matplotlib v3.10.1, https://matplotlib.org/</dc:title>
     </cc:Agent>
    </dc:creator>
   </cc:Work>
  </rdf:RDF>
 </metadata>
 <defs>
  <style type="text/css">*{stroke-linejoin: round; stroke-linecap: butt}</style>
 </defs>
 <g id="figure_1">
  <g id="patch_1">
   <path d="M 0 345.6 
L 460.8 345.6 
L 460.8 0 
L 0 0 
z
" style="fill: #ffffff"/>
  </g>
  <g id="axes_1">
   <g id="patch_2">
    <path d="M 101.312695 180.277245 
C 107.13683 180.277245 112.723208 177.963291 116.841493 173.845006 
C 120.959779 169.72672 123.273732 164.140343 123.273732 158.316207 
C 123.273732 152.492072 120.959779 146.905694 116.841493 142.787409 
C 112.723208 138.669123 107.13683 136.35517 101.312695 136.35517 
C 95.48856 136.35517 89.902182 138.669123 85.783897 142.787409 
C 81.665611 146.905694 79.351658 152.492072 79.351658 158.316207 
C 79.351658 164.140343 81.665611 169.72672 85.783897 173.845006 
C 89.902182 177.963291 95.48856 180.277245 101.312695 180.277245 
z
" clip-path="url(#pc1ac9e29aa)" style="fill: #ffffff; stroke: #000000; stroke-linejoin: miter"/>
   </g>
   <g id="patch_3">
    <path d="M 371.007305 232.933857 
C 376.83144 232.933857 382.417818 230.619904 386.536103 226.501618 
C 390.654389 222.383333 392.968342 216.796955 392.968342 210.97282 
C 392.968342 205.148685 390.654389 199.562307 386.536103 195.444021 
C 382.417818 191.325736 376.83144 189.011783 371.007305 189.011783 
C 365.18317 189.011783 359.596792 191.325736 355.478507 195.444021 
C 351.360221 199.562307 349.046268 205.148685 349.046268 210.97282 
C 349.046268 216.796955 351.360221 222.383333 355.478507 226.501618 
C 359.596792 230.619904 365.18317 232.933857 371.007305 232.933857 
z
" clip-path="url(#pc1ac9e29aa)" style="fill: #ffffff; stroke: #000000; stroke-linejoin: miter"/>
   </g>
   <g id="patch_4">
    <path d="M 227.519478 301.248 
C 233.343613 301.248 238.929991 298.934047 243.048276 294.815761 
C 247.166562 290.697476 249.480515 285.111098 249.480515 279.286963 
C 249.480515 273.462828 247.166562 267.87645 243.048276 263.758164 
C 238.929991 259.639879 233.343613 257.325925 227.519478 257.325925 
C 221.695343 257.325925 216.108965 259.639879 211.990679 263.758164 
C 207.872394 267.87645 205.55844 273.462828 205.55844 279.286963 
C 205.55844 285.111098 207.872394 290.697476 211.990679 294.815761 
C 216.108965 298.934047 221.695343 301.248 227.519478 301.248 
z
" clip-path="url(#pc1ac9e29aa)" style="fill: #ffffff; stroke: #000000; stroke-linejoin: miter"/>
   </g>
   <g id="patch_5">
    <path d="M 236.511827 255.38871 
C 250.790352 255.38871 264.485988 249.715792 274.582429 239.61935 
C 284.678871 229.522908 290.351789 215.827272 290.351789 201.548747 
C 290.351789 187.270222 284.678871 173.574587 274.582429 163.478145 
C 264.485988 153.381703 250.790352 147.708785 236.511827 147.708785 
C 222.233302 147.708785 208.537666 153.381703 198.441224 163.478145 
C 188.344783 173.574587 182.671864 187.270222 182.671864 201.548747 
C 182.671864 215.827272 188.344783 229.522908 198.441224 239.61935 
C 208.537666 249.715792 222.233302 255.38871 236.511827 255.38871 
z
" clip-path="url(#pc1ac9e29aa)" style="fill: #909090; stroke: #000000; stroke-linejoin: miter"/>
   </g>
   <g id="patch_6">
    <path d="M 317.760343 211.853006 
C 331.099492 211.853006 343.894099 206.553307 353.326301 197.121104 
C 362.758503 187.688902 368.058203 174.894295 368.058203 161.555147 
C 368.058203 148.215999 362.758503 135.421391 353.326301 125.989189 
C 343.894099 116.556987 331.099492 111.257287 317.760343 111.257287 
C 304.421195 111.257287 291.626588 116.556987 282.194386 125.989189 
C 272.762183 135.421391 267.462484 148.215999 267.462484 161.555147 
C 267.462484 174.894295 272.762183 187.688902 282.194386 197.121104 
C 291.626588 206.553307 304.421195 211.853006 317.760343 211.853006 
z
" clip-path="url(#pc1ac9e29aa)" style="fill: #3050f8; stroke: #000000; stroke-linejoin: miter"/>
   </g>
   <g id="patch_7">
    <path d="M 146.871531 199.552735 
C 161.150056 199.552735 174.845692 193.879817 184.942134 183.783375 
C 195.038576 173.686933 200.711494 159.991297 200.711494 145.712772 
C 200.711494 131.434247 195.038576 117.738611 184.942134 107.64217 
C 174.845692 97.545728 161.150056 91.87281 146.871531 91.87281 
C 132.593006 91.87281 118.89737 97.545728 108.800929 107.64217 
C 98.704487 117.738611 93.031569 131.434247 93.031569 145.712772 
C 93.031569 159.991297 98.704487 173.686933 108.800929 183.783375 
C 118.89737 193.879817 132.593006 199.552735 146.871531 199.552735 
z
" clip-path="url(#pc1ac9e29aa)" style="fill: #909090; stroke: #000000; stroke-linejoin: miter"/>
   </g>
   <g id="patch_8">
    <path d="M 162.231491 91.730075 
C 168.055626 91.730075 173.642004 89.416121 177.760289 85.297836 
C 181.878575 81.17955 184.192528 75.593172 184.192528 69.769037 
C 184.192528 63.944902 181.878575 58.358524 177.760289 54.240239 
C 173.642004 50.121953 168.055626 47.808 162.231491 47.808 
C 156.407356 47.808 150.820978 50.121953 146.702692 54.240239 
C 142.584407 58.358524 140.270453 63.944902 140.270453 69.769037 
C 140.270453 75.593172 142.584407 81.17955 146.702692 85.297836 
C 150.820978 89.416121 156.407356 91.730075 162.231491 91.730075 
z
" clip-path="url(#pc1ac9e29aa)" style="fill: #ffffff; stroke: #000000; stroke-linejoin: miter"/>
   </g>
   <g id="patch_9">
    <path d="M 106.042411 191.007771 
C 111.866546 191.007771 117.452924 188.693818 121.571209 184.575533 
C 125.689495 180.457247 128.003448 174.870869 128.003448 169.046734 
C 128.003448 163.222599 125.689495 157.636221 121.571209 153.517936 
C 117.452924 149.39965 111.866546 147.085697 106.042411 147.085697 
C 100.218276 147.085697 94.631898 149.39965 90.513613 153.517936 
C 86.395327 157.636221 84.081374 163.222599 84.081374 169.046734 
C 84.081374 174.870869 86.395327 180.457247 90.513613 184.575533 
C 94.631898 188.693818 100.218276 191.007771 106.042411 191.007771 
z
" clip-path="url(#pc1ac9e29aa)" style="fill: #ffffff; stroke: #000000; stroke-linejoin: miter"/>
   </g>
  </g>
 </g>
 <defs>
  <clipPath id="pc1ac9e29aa">
   <rect x="71.511241" y="41.472" width="329.297519" height="266.112"/>
  </clipPath>
 </defs>
</svg>
