<?xml version="1.0" encoding="utf-8" standalone="no"?>
<!DOCTYPE svg PUBLIC "-//W3C//DTD SVG 1.1//EN"
  "http://www.w3.org/Graphics/SVG/1.1/DTD/svg11.dtd">
<svg xmlns:xlink="http://www.w3.org/1999/xlink" width="460.8pt" height="345.6pt" viewBox="0 0 460.8 345.6" xmlns="http://www.w3.org/2000/svg" version="1.1">
 <metadata>
  <rdf:RDF xmlns:dc="http://purl.org/dc/elements/1.1/" xmlns:cc="http://creativecommons.org/ns#" xmlns:rdf="http://www.w3.org/1999/02/22-rdf-syntax-ns#">
   <cc:Work>
    <dc:type rdf:resource="http://purl.org/dc/dcmitype/StillImage"/>
    <dc:date>2025-06-10T23:55:51.847606</dc:date>
    <dc:format>image/svg+xml</dc:format>
    <dc:creator>
     <cc:Agent>
      <dc:title>Matplotlib v3.10.1, https://matplotlib.org/</dc:title>
     </cc:Agent>
    </dc:creator>
   </cc:Work>
  </rdf:RDF>
 </metadata>
 <defs>
  <style type="text/css">*{stroke-linejoin: round; stroke-linecap: butt}</style>
 </defs>
 <g id="figure_1">
  <g id="patch_1">
   <path d="M 0 345.6 
L 460.8 345.6 
L 460.8 0 
L 0 0 
z
" style="fill: #ffffff"/>
  </g>
  <g id="axes_1">
   <g id="patch_2">
    <path d="M 172.553926 221.807328 
C 188.301501 221.807328 203.406216 215.55075 214.541432 204.415533 
C 225.676649 193.280316 231.933227 178.175601 231.933227 162.428027 
C 231.933227 146.680452 225.676649 131.575737 214.541432 120.44052 
C 203.406216 109.305303 188.301501 103.048725 172.553926 103.048725 
C 156.806351 103.048725 141.701636 109.305303 130.566419 120.44052 
C 119.431202 131.575737 113.174625 146.680452 113.174625 162.428027 
C 113.174625 178.175601 119.431202 193.280316 130.566419 204.415533 
C 141.701636 215.55075 156.806351 221.807328 172.553926 221.807328 
z
" clip-path="url(#pe5ca4439b7)" style="fill: #909090; stroke: #000000; stroke-linejoin: miter"/>
   </g>
   <g id="patch_3">
    <path d="M 237.9732 293.314621 
C 252.68475 293.314621 266.795734 287.46966 277.198371 277.067023 
C 287.601008 266.664386 293.445969 252.553402 293.445969 237.841852 
C 293.445969 223.130302 287.601008 209.019319 277.198371 198.616682 
C 266.795734 188.214045 252.68475 182.369084 237.9732 182.369084 
C 223.26165 182.369084 209.150667 188.214045 198.74803 198.616682 
C 188.345393 209.019319 182.500432 223.130302 182.500432 237.841852 
C 182.500432 252.553402 188.345393 266.664386 198.74803 277.067023 
C 209.150667 287.46966 223.26165 293.314621 237.9732 293.314621 
z
" clip-path="url(#pe5ca4439b7)" style="fill: #3050f8; stroke: #000000; stroke-linejoin: miter"/>
   </g>
   <g id="patch_4">
    <path d="M 341.901493 252.581331 
C 355.577018 252.581331 368.694271 247.147987 378.364327 237.47793 
C 388.034384 227.807873 393.467728 214.690621 393.467728 201.015096 
C 393.467728 187.33957 388.034384 174.222318 378.364327 164.552261 
C 368.694271 154.882204 355.577018 149.44886 341.901493 149.44886 
C 328.225967 149.44886 315.108715 154.882204 305.438658 164.552261 
C 295.768601 174.222318 290.335257 187.33957 290.335257 201.015096 
C 290.335257 214.690621 295.768601 227.807873 305.438658 237.47793 
C 315.108715 247.147987 328.225967 252.581331 341.901493 252.581331 
z
" clip-path="url(#pe5ca4439b7)" style="fill: #ff0d0d; stroke: #000000; stroke-linejoin: miter"/>
   </g>
   <g id="patch_5">
    <path d="M 381.996638 289.978042 
C 388.419991 289.978042 394.581125 287.426016 399.123121 282.88402 
C 403.665118 278.342024 406.217143 272.18089 406.217143 265.757537 
C 406.217143 259.334184 403.665118 253.173051 399.123121 248.631054 
C 394.581125 244.089058 388.419991 241.537033 381.996638 241.537033 
C 375.573286 241.537033 369.412152 244.089058 364.870155 248.631054 
C 360.328159 253.173051 357.776134 259.334184 357.776134 265.757537 
C 357.776134 272.18089 360.328159 278.342024 364.870155 282.88402 
C 369.412152 287.426016 375.573286 289.978042 381.996638 289.978042 
z
" clip-path="url(#pe5ca4439b7)" style="fill: #ffffff; stroke: #000000; stroke-linejoin: miter"/>
   </g>
   <g id="patch_6">
    <path d="M 195.886039 104.182388 
C 202.309391 104.182388 208.470525 101.630363 213.012522 97.088367 
C 217.554518 92.54637 220.106543 86.385237 220.106543 79.961884 
C 220.106543 73.538531 217.554518 67.377397 213.012522 62.835401 
C 208.470525 58.293405 202.309391 55.741379 195.886039 55.741379 
C 189.462686 55.741379 183.301552 58.293405 178.759556 62.835401 
C 174.217559 67.377397 171.665534 73.538531 171.665534 79.961884 
C 171.665534 86.385237 174.217559 92.54637 178.759556 97.088367 
C 183.301552 101.630363 189.462686 104.182388 195.886039 104.182388 
z
" clip-path="url(#pe5ca4439b7)" style="fill: #ffffff; stroke: #000000; stroke-linejoin: miter"/>
   </g>
   <g id="patch_7">
    <path d="M 90.323362 208.796872 
C 96.746714 208.796872 102.907848 206.244847 107.449845 201.702851 
C 111.991841 197.160854 114.543866 190.999721 114.543866 184.576368 
C 114.543866 178.153015 111.991841 171.991881 107.449845 167.449885 
C 102.907848 162.907888 96.746714 160.355863 90.323362 160.355863 
C 83.900009 160.355863 77.738875 162.907888 73.196879 167.449885 
C 68.654882 171.991881 66.102857 178.153015 66.102857 184.576368 
C 66.102857 190.999721 68.654882 197.160854 73.196879 201.702851 
C 77.738875 206.244847 83.900009 208.796872 90.323362 208.796872 
z
" clip-path="url(#pe5ca4439b7)" style="fill: #ffffff; stroke: #000000; stroke-linejoin: miter"/>
   </g>
  </g>
 </g>
 <defs>
  <clipPath id="pe5ca4439b7">
   <rect x="57.6" y="49.802048" width="357.12" height="249.451903"/>
  </clipPath>
 </defs>
</svg>
