<?xml version="1.0" encoding="utf-8" standalone="no"?>
<!DOCTYPE svg PUBLIC "-//W3C//DTD SVG 1.1//EN"
  "http://www.w3.org/Graphics/SVG/1.1/DTD/svg11.dtd">
<svg xmlns:xlink="http://www.w3.org/1999/xlink" width="460.8pt" height="345.6pt" viewBox="0 0 460.8 345.6" xmlns="http://www.w3.org/2000/svg" version="1.1">
 <metadata>
  <rdf:RDF xmlns:dc="http://purl.org/dc/elements/1.1/" xmlns:cc="http://creativecommons.org/ns#" xmlns:rdf="http://www.w3.org/1999/02/22-rdf-syntax-ns#">
   <cc:Work>
    <dc:type rdf:resource="http://purl.org/dc/dcmitype/StillImage"/>
    <dc:date>2025-06-10T23:27:17.863325</dc:date>
    <dc:format>image/svg+xml</dc:format>
    <dc:creator>
     <cc:Agent>
      <dc:title>Matplotlib v3.10.1, https://matplotlib.org/</dc:title>
     </cc:Agent>
    </dc:creator>
   </cc:Work>
  </rdf:RDF>
 </metadata>
 <defs>
  <style type="text/css">*{stroke-linejoin: round; stroke-linecap: butt}</style>
 </defs>
 <g id="figure_1">
  <g id="patch_1">
   <path d="M 0 345.6 
L 460.8 345.6 
L 460.8 0 
L 0 0 
z
" style="fill: #ffffff"/>
  </g>
  <g id="axes_1">
   <g id="patch_2">
    <path d="M 192.726777 167.900232 
C 195.982926 167.900232 199.106149 166.60655 201.408594 164.304106 
C 203.711039 162.001661 205.00472 158.878437 205.00472 155.622289 
C 205.00472 152.36614 203.711039 149.242917 201.408594 146.940472 
C 199.106149 144.638027 195.982926 143.344345 192.726777 143.344345 
C 189.470628 143.344345 186.347405 144.638027 184.04496 146.940472 
C 181.742515 149.242917 180.448834 152.36614 180.448834 155.622289 
C 180.448834 158.878437 181.742515 162.001661 184.04496 164.304106 
C 186.347405 166.60655 189.470628 167.900232 192.726777 167.900232 
z
" clip-path="url(#pba6f375918)" style="fill: #ff0d0d; stroke: #000000; stroke-linejoin: miter"/>
   </g>
   <g id="patch_3">
    <path d="M 192.726777 286.365645 
C 195.982926 286.365645 199.106149 285.071963 201.408594 282.769518 
C 203.711039 280.467073 205.00472 277.34385 205.00472 274.087701 
C 205.00472 270.831553 203.711039 267.708329 201.408594 265.405884 
C 199.106149 263.10344 195.982926 261.809758 192.726777 261.809758 
C 189.470628 261.809758 186.347405 263.10344 184.04496 265.405884 
C 181.742515 267.708329 180.448834 270.831553 180.448834 274.087701 
C 180.448834 277.34385 181.742515 280.467073 184.04496 282.769518 
C 186.347405 285.071963 189.470628 286.365645 192.726777 286.365645 
z
" clip-path="url(#pba6f375918)" style="fill: #ff0d0d; stroke: #000000; stroke-linejoin: miter"/>
   </g>
   <g id="patch_4">
    <path d="M 250.637741 167.900232 
C 253.89389 167.900232 257.017113 166.60655 259.319558 164.304106 
C 261.622003 162.001661 262.915684 158.878437 262.915684 155.622289 
C 262.915684 152.36614 261.622003 149.242917 259.319558 146.940472 
C 257.017113 144.638027 253.89389 143.344345 250.637741 143.344345 
C 247.381592 143.344345 244.258369 144.638027 241.955924 146.940472 
C 239.653479 149.242917 238.359798 152.36614 238.359798 155.622289 
C 238.359798 158.878437 239.653479 162.001661 241.955924 164.304106 
C 244.258369 166.60655 247.381592 167.900232 250.637741 167.900232 
z
" clip-path="url(#pba6f375918)" style="fill: #ff0d0d; stroke: #000000; stroke-linejoin: miter"/>
   </g>
   <g id="patch_5">
    <path d="M 250.637741 286.365645 
C 253.89389 286.365645 257.017113 285.071963 259.319558 282.769518 
C 261.622003 280.467073 262.915684 277.34385 262.915684 274.087701 
C 262.915684 270.831553 261.622003 267.708329 259.319558 265.405884 
C 257.017113 263.10344 253.89389 261.809758 250.637741 261.809758 
C 247.381592 261.809758 244.258369 263.10344 241.955924 265.405884 
C 239.653479 267.708329 238.359798 270.831553 238.359798 274.087701 
C 238.359798 277.34385 239.653479 280.467073 241.955924 282.769518 
C 244.258369 285.071963 247.381592 286.365645 250.637741 286.365645 
z
" clip-path="url(#pba6f375918)" style="fill: #ff0d0d; stroke: #000000; stroke-linejoin: miter"/>
   </g>
   <g id="patch_6">
    <path d="M 279.593223 301.248 
C 286.796218 301.248 293.705167 298.38622 298.798454 293.292933 
C 303.891741 288.199646 306.753522 281.290697 306.753522 274.087701 
C 306.753522 266.884706 303.891741 259.975757 298.798454 254.88247 
C 293.705167 249.789183 286.796218 246.927403 279.593223 246.927403 
C 272.390228 246.927403 265.481279 249.789183 260.387992 254.88247 
C 255.294705 259.975757 252.432924 266.884706 252.432924 274.087701 
C 252.432924 281.290697 255.294705 288.199646 260.387992 293.292933 
C 265.481279 298.38622 272.390228 301.248 279.593223 301.248 
z
" clip-path="url(#pba6f375918)" style="fill: #248f8f; stroke: #000000; stroke-linejoin: miter"/>
   </g>
   <g id="patch_7">
    <path d="M 250.637741 123.549881 
C 257.840736 123.549881 264.749685 120.688101 269.842972 115.594814 
C 274.936259 110.501527 277.79804 103.592578 277.79804 96.389582 
C 277.79804 89.186587 274.936259 82.277638 269.842972 77.184351 
C 264.749685 72.091064 257.840736 69.229284 250.637741 69.229284 
C 243.434746 69.229284 236.525797 72.091064 231.43251 77.184351 
C 226.339223 82.277638 223.477442 89.186587 223.477442 96.389582 
C 223.477442 103.592578 226.339223 110.501527 231.43251 115.594814 
C 236.525797 120.688101 243.434746 123.549881 250.637741 123.549881 
z
" clip-path="url(#pba6f375918)" style="fill: #248f8f; stroke: #000000; stroke-linejoin: miter"/>
   </g>
   <g id="patch_8">
    <path d="M 192.726777 242.015294 
C 199.929772 242.015294 206.838721 239.153513 211.932008 234.060226 
C 217.025295 228.966939 219.887076 222.05799 219.887076 214.854995 
C 219.887076 207.652 217.025295 200.743051 211.932008 195.649764 
C 206.838721 190.556477 199.929772 187.694696 192.726777 187.694696 
C 185.523782 187.694696 178.614833 190.556477 173.521546 195.649764 
C 168.428259 200.743051 165.566478 207.652 165.566478 214.854995 
C 165.566478 222.05799 168.428259 228.966939 173.521546 234.060226 
C 178.614833 239.153513 185.523782 242.015294 192.726777 242.015294 
z
" clip-path="url(#pba6f375918)" style="fill: #248f8f; stroke: #000000; stroke-linejoin: miter"/>
   </g>
   <g id="patch_9">
    <path d="M 221.682259 301.248 
C 228.885254 301.248 235.794203 298.38622 240.88749 293.292933 
C 245.980777 288.199646 248.842558 281.290697 248.842558 274.087701 
C 248.842558 266.884706 245.980777 259.975757 240.88749 254.88247 
C 235.794203 249.789183 228.885254 246.927403 221.682259 246.927403 
C 214.479264 246.927403 207.570315 249.789183 202.477028 254.88247 
C 197.383741 259.975757 194.52196 266.884706 194.52196 274.087701 
C 194.52196 281.290697 197.383741 288.199646 202.477028 293.292933 
C 207.570315 298.38622 214.479264 301.248 221.682259 301.248 
z
" clip-path="url(#pba6f375918)" style="fill: #248f8f; stroke: #000000; stroke-linejoin: miter"/>
   </g>
   <g id="patch_10">
    <path d="M 279.593223 182.782587 
C 286.796218 182.782587 293.705167 179.920807 298.798454 174.82752 
C 303.891741 169.734233 306.753522 162.825284 306.753522 155.622289 
C 306.753522 148.419293 303.891741 141.510344 298.798454 136.417057 
C 293.705167 131.32377 286.796218 128.46199 279.593223 128.46199 
C 272.390228 128.46199 265.481279 131.32377 260.387992 136.417057 
C 255.294705 141.510344 252.432924 148.419293 252.432924 155.622289 
C 252.432924 162.825284 255.294705 169.734233 260.387992 174.82752 
C 265.481279 179.920807 272.390228 182.782587 279.593223 182.782587 
z
" clip-path="url(#pba6f375918)" style="fill: #248f8f; stroke: #000000; stroke-linejoin: miter"/>
   </g>
   <g id="patch_11">
    <path d="M 221.682259 204.118661 
C 224.938408 204.118661 228.061631 202.824979 230.364076 200.522534 
C 232.666521 198.22009 233.960202 195.096866 233.960202 191.840718 
C 233.960202 188.584569 232.666521 185.461345 230.364076 183.158901 
C 228.061631 180.856456 224.938408 179.562774 221.682259 179.562774 
C 218.42611 179.562774 215.302887 180.856456 213.000442 183.158901 
C 210.697997 185.461345 209.404316 188.584569 209.404316 191.840718 
C 209.404316 195.096866 210.697997 198.22009 213.000442 200.522534 
C 215.302887 202.824979 218.42611 204.118661 221.682259 204.118661 
z
" clip-path="url(#pba6f375918)" style="fill: #ff0d0d; stroke: #000000; stroke-linejoin: miter"/>
   </g>
   <g id="patch_12">
    <path d="M 250.637741 242.015294 
C 257.840736 242.015294 264.749685 239.153513 269.842972 234.060226 
C 274.936259 228.966939 277.79804 222.05799 277.79804 214.854995 
C 277.79804 207.652 274.936259 200.743051 269.842972 195.649764 
C 264.749685 190.556477 257.840736 187.694696 250.637741 187.694696 
C 243.434746 187.694696 236.525797 190.556477 231.43251 195.649764 
C 226.339223 200.743051 223.477442 207.652 223.477442 214.854995 
C 223.477442 222.05799 226.339223 228.966939 231.43251 234.060226 
C 236.525797 239.153513 243.434746 242.015294 250.637741 242.015294 
z
" clip-path="url(#pba6f375918)" style="fill: #248f8f; stroke: #000000; stroke-linejoin: miter"/>
   </g>
   <g id="patch_13">
    <path d="M 221.682259 250.147216 
C 224.938408 250.147216 228.061631 248.853534 230.364076 246.551089 
C 232.666521 244.248645 233.960202 241.125421 233.960202 237.869272 
C 233.960202 234.613124 232.666521 231.4899 230.364076 229.187456 
C 228.061631 226.885011 224.938408 225.591329 221.682259 225.591329 
C 218.42611 225.591329 215.302887 226.885011 213.000442 229.187456 
C 210.697997 231.4899 209.404316 234.613124 209.404316 237.869272 
C 209.404316 241.125421 210.697997 244.248645 213.000442 246.551089 
C 215.302887 248.853534 218.42611 250.147216 221.682259 250.147216 
z
" clip-path="url(#pba6f375918)" style="fill: #ff0d0d; stroke: #000000; stroke-linejoin: miter"/>
   </g>
   <g id="patch_14">
    <path d="M 221.682259 85.653248 
C 224.938408 85.653248 228.061631 84.359567 230.364076 82.057122 
C 232.666521 79.754677 233.960202 76.631454 233.960202 73.375305 
C 233.960202 70.119156 232.666521 66.995933 230.364076 64.693488 
C 228.061631 62.391043 224.938408 61.097362 221.682259 61.097362 
C 218.42611 61.097362 215.302887 62.391043 213.000442 64.693488 
C 210.697997 66.995933 209.404316 70.119156 209.404316 73.375305 
C 209.404316 76.631454 210.697997 79.754677 213.000442 82.057122 
C 215.302887 84.359567 218.42611 85.653248 221.682259 85.653248 
z
" clip-path="url(#pba6f375918)" style="fill: #ff0d0d; stroke: #000000; stroke-linejoin: miter"/>
   </g>
   <g id="patch_15">
    <path d="M 279.593223 204.118661 
C 282.849372 204.118661 285.972595 202.824979 288.27504 200.522534 
C 290.577485 198.22009 291.871166 195.096866 291.871166 191.840718 
C 291.871166 188.584569 290.577485 185.461345 288.27504 183.158901 
C 285.972595 180.856456 282.849372 179.562774 279.593223 179.562774 
C 276.337074 179.562774 273.213851 180.856456 270.911406 183.158901 
C 268.608961 185.461345 267.31528 188.584569 267.31528 191.840718 
C 267.31528 195.096866 268.608961 198.22009 270.911406 200.522534 
C 273.213851 202.824979 276.337074 204.118661 279.593223 204.118661 
z
" clip-path="url(#pba6f375918)" style="fill: #ff0d0d; stroke: #000000; stroke-linejoin: miter"/>
   </g>
   <g id="patch_16">
    <path d="M 221.682259 182.782587 
C 228.885254 182.782587 235.794203 179.920807 240.88749 174.82752 
C 245.980777 169.734233 248.842558 162.825284 248.842558 155.622289 
C 248.842558 148.419293 245.980777 141.510344 240.88749 136.417057 
C 235.794203 131.32377 228.885254 128.46199 221.682259 128.46199 
C 214.479264 128.46199 207.570315 131.32377 202.477028 136.417057 
C 197.383741 141.510344 194.52196 148.419293 194.52196 155.622289 
C 194.52196 162.825284 197.383741 169.734233 202.477028 174.82752 
C 207.570315 179.920807 214.479264 182.782587 221.682259 182.782587 
z
" clip-path="url(#pba6f375918)" style="fill: #248f8f; stroke: #000000; stroke-linejoin: miter"/>
   </g>
   <g id="patch_17">
    <path d="M 192.726777 123.549881 
C 199.929772 123.549881 206.838721 120.688101 211.932008 115.594814 
C 217.025295 110.501527 219.887076 103.592578 219.887076 96.389582 
C 219.887076 89.186587 217.025295 82.277638 211.932008 77.184351 
C 206.838721 72.091064 199.929772 69.229284 192.726777 69.229284 
C 185.523782 69.229284 178.614833 72.091064 173.521546 77.184351 
C 168.428259 82.277638 165.566478 89.186587 165.566478 96.389582 
C 165.566478 103.592578 168.428259 110.501527 173.521546 115.594814 
C 178.614833 120.688101 185.523782 123.549881 192.726777 123.549881 
z
" clip-path="url(#pba6f375918)" style="fill: #248f8f; stroke: #000000; stroke-linejoin: miter"/>
   </g>
   <g id="patch_18">
    <path d="M 221.682259 131.681803 
C 224.938408 131.681803 228.061631 130.388121 230.364076 128.085677 
C 232.666521 125.783232 233.960202 122.660008 233.960202 119.40386 
C 233.960202 116.147711 232.666521 113.024488 230.364076 110.722043 
C 228.061631 108.419598 224.938408 107.125917 221.682259 107.125917 
C 218.42611 107.125917 215.302887 108.419598 213.000442 110.722043 
C 210.697997 113.024488 209.404316 116.147711 209.404316 119.40386 
C 209.404316 122.660008 210.697997 125.783232 213.000442 128.085677 
C 215.302887 130.388121 218.42611 131.681803 221.682259 131.681803 
z
" clip-path="url(#pba6f375918)" style="fill: #ff0d0d; stroke: #000000; stroke-linejoin: miter"/>
   </g>
   <g id="patch_19">
    <path d="M 279.593223 85.653248 
C 282.849372 85.653248 285.972595 84.359567 288.27504 82.057122 
C 290.577485 79.754677 291.871166 76.631454 291.871166 73.375305 
C 291.871166 70.119156 290.577485 66.995933 288.27504 64.693488 
C 285.972595 62.391043 282.849372 61.097362 279.593223 61.097362 
C 276.337074 61.097362 273.213851 62.391043 270.911406 64.693488 
C 268.608961 66.995933 267.31528 70.119156 267.31528 73.375305 
C 267.31528 76.631454 268.608961 79.754677 270.911406 82.057122 
C 273.213851 84.359567 276.337074 85.653248 279.593223 85.653248 
z
" clip-path="url(#pba6f375918)" style="fill: #ff0d0d; stroke: #000000; stroke-linejoin: miter"/>
   </g>
   <g id="patch_20">
    <path d="M 279.593223 131.681803 
C 282.849372 131.681803 285.972595 130.388121 288.27504 128.085677 
C 290.577485 125.783232 291.871166 122.660008 291.871166 119.40386 
C 291.871166 116.147711 290.577485 113.024488 288.27504 110.722043 
C 285.972595 108.419598 282.849372 107.125917 279.593223 107.125917 
C 276.337074 107.125917 273.213851 108.419598 270.911406 110.722043 
C 268.608961 113.024488 267.31528 116.147711 267.31528 119.40386 
C 267.31528 122.660008 268.608961 125.783232 270.911406 128.085677 
C 273.213851 130.388121 276.337074 131.681803 279.593223 131.681803 
z
" clip-path="url(#pba6f375918)" style="fill: #ff0d0d; stroke: #000000; stroke-linejoin: miter"/>
   </g>
   <g id="patch_21">
    <path d="M 279.593223 250.147216 
C 282.849372 250.147216 285.972595 248.853534 288.27504 246.551089 
C 290.577485 244.248645 291.871166 241.125421 291.871166 237.869272 
C 291.871166 234.613124 290.577485 231.4899 288.27504 229.187456 
C 285.972595 226.885011 282.849372 225.591329 279.593223 225.591329 
C 276.337074 225.591329 273.213851 226.885011 270.911406 229.187456 
C 268.608961 231.4899 267.31528 234.613124 267.31528 237.869272 
C 267.31528 241.125421 268.608961 244.248645 270.911406 246.551089 
C 273.213851 248.853534 276.337074 250.147216 279.593223 250.147216 
z
" clip-path="url(#pba6f375918)" style="fill: #ff0d0d; stroke: #000000; stroke-linejoin: miter"/>
   </g>
   <g id="patch_22">
    <path d="M 192.726777 286.365645 
C 195.982926 286.365645 199.106149 285.071963 201.408594 282.769518 
C 203.711039 280.467073 205.00472 277.34385 205.00472 274.087701 
C 205.00472 270.831553 203.711039 267.708329 201.408594 265.405884 
C 199.106149 263.10344 195.982926 261.809758 192.726777 261.809758 
C 189.470628 261.809758 186.347405 263.10344 184.04496 265.405884 
C 181.742515 267.708329 180.448834 270.831553 180.448834 274.087701 
C 180.448834 277.34385 181.742515 280.467073 184.04496 282.769518 
C 186.347405 285.071963 189.470628 286.365645 192.726777 286.365645 
z
" clip-path="url(#pba6f375918)" style="fill: #ff0d0d; stroke: #000000; stroke-linejoin: miter"/>
   </g>
   <g id="patch_23">
    <path d="M 192.726777 167.900232 
C 195.982926 167.900232 199.106149 166.60655 201.408594 164.304106 
C 203.711039 162.001661 205.00472 158.878437 205.00472 155.622289 
C 205.00472 152.36614 203.711039 149.242917 201.408594 146.940472 
C 199.106149 144.638027 195.982926 143.344345 192.726777 143.344345 
C 189.470628 143.344345 186.347405 144.638027 184.04496 146.940472 
C 181.742515 149.242917 180.448834 152.36614 180.448834 155.622289 
C 180.448834 158.878437 181.742515 162.001661 184.04496 164.304106 
C 186.347405 166.60655 189.470628 167.900232 192.726777 167.900232 
z
" clip-path="url(#pba6f375918)" style="fill: #ff0d0d; stroke: #000000; stroke-linejoin: miter"/>
   </g>
   <g id="patch_24">
    <path d="M 250.637741 286.365645 
C 253.89389 286.365645 257.017113 285.071963 259.319558 282.769518 
C 261.622003 280.467073 262.915684 277.34385 262.915684 274.087701 
C 262.915684 270.831553 261.622003 267.708329 259.319558 265.405884 
C 257.017113 263.10344 253.89389 261.809758 250.637741 261.809758 
C 247.381592 261.809758 244.258369 263.10344 241.955924 265.405884 
C 239.653479 267.708329 238.359798 270.831553 238.359798 274.087701 
C 238.359798 277.34385 239.653479 280.467073 241.955924 282.769518 
C 244.258369 285.071963 247.381592 286.365645 250.637741 286.365645 
z
" clip-path="url(#pba6f375918)" style="fill: #ff0d0d; stroke: #000000; stroke-linejoin: miter"/>
   </g>
   <g id="patch_25">
    <path d="M 250.637741 167.900232 
C 253.89389 167.900232 257.017113 166.60655 259.319558 164.304106 
C 261.622003 162.001661 262.915684 158.878437 262.915684 155.622289 
C 262.915684 152.36614 261.622003 149.242917 259.319558 146.940472 
C 257.017113 144.638027 253.89389 143.344345 250.637741 143.344345 
C 247.381592 143.344345 244.258369 144.638027 241.955924 146.940472 
C 239.653479 149.242917 238.359798 152.36614 238.359798 155.622289 
C 238.359798 158.878437 239.653479 162.001661 241.955924 164.304106 
C 244.258369 166.60655 247.381592 167.900232 250.637741 167.900232 
z
" clip-path="url(#pba6f375918)" style="fill: #ff0d0d; stroke: #000000; stroke-linejoin: miter"/>
   </g>
   <g id="patch_26">
    <path d="M 250.637741 108.667526 
C 253.89389 108.667526 257.017113 107.373844 259.319558 105.071399 
C 261.622003 102.768955 262.915684 99.645731 262.915684 96.389582 
C 262.915684 93.133434 261.622003 90.01021 259.319558 87.707765 
C 257.017113 85.405321 253.89389 84.111639 250.637741 84.111639 
C 247.381592 84.111639 244.258369 85.405321 241.955924 87.707765 
C 239.653479 90.01021 238.359798 93.133434 238.359798 96.389582 
C 238.359798 99.645731 239.653479 102.768955 241.955924 105.071399 
C 244.258369 107.373844 247.381592 108.667526 250.637741 108.667526 
z
" clip-path="url(#pba6f375918)" style="fill: #ff0d0d; stroke: #000000; stroke-linejoin: miter"/>
   </g>
   <g id="patch_27">
    <path d="M 192.726777 108.667526 
C 195.982926 108.667526 199.106149 107.373844 201.408594 105.071399 
C 203.711039 102.768955 205.00472 99.645731 205.00472 96.389582 
C 205.00472 93.133434 203.711039 90.01021 201.408594 87.707765 
C 199.106149 85.405321 195.982926 84.111639 192.726777 84.111639 
C 189.470628 84.111639 186.347405 85.405321 184.04496 87.707765 
C 181.742515 90.01021 180.448834 93.133434 180.448834 96.389582 
C 180.448834 99.645731 181.742515 102.768955 184.04496 105.071399 
C 186.347405 107.373844 189.470628 108.667526 192.726777 108.667526 
z
" clip-path="url(#pba6f375918)" style="fill: #ff0d0d; stroke: #000000; stroke-linejoin: miter"/>
   </g>
   <g id="patch_28">
    <path d="M 192.726777 227.132938 
C 195.982926 227.132938 199.106149 225.839257 201.408594 223.536812 
C 203.711039 221.234367 205.00472 218.111144 205.00472 214.854995 
C 205.00472 211.598846 203.711039 208.475623 201.408594 206.173178 
C 199.106149 203.870733 195.982926 202.577052 192.726777 202.577052 
C 189.470628 202.577052 186.347405 203.870733 184.04496 206.173178 
C 181.742515 208.475623 180.448834 211.598846 180.448834 214.854995 
C 180.448834 218.111144 181.742515 221.234367 184.04496 223.536812 
C 186.347405 225.839257 189.470628 227.132938 192.726777 227.132938 
z
" clip-path="url(#pba6f375918)" style="fill: #ff0d0d; stroke: #000000; stroke-linejoin: miter"/>
   </g>
   <g id="patch_29">
    <path d="M 250.637741 227.132938 
C 253.89389 227.132938 257.017113 225.839257 259.319558 223.536812 
C 261.622003 221.234367 262.915684 218.111144 262.915684 214.854995 
C 262.915684 211.598846 261.622003 208.475623 259.319558 206.173178 
C 257.017113 203.870733 253.89389 202.577052 250.637741 202.577052 
C 247.381592 202.577052 244.258369 203.870733 241.955924 206.173178 
C 239.653479 208.475623 238.359798 211.598846 238.359798 214.854995 
C 238.359798 218.111144 239.653479 221.234367 241.955924 223.536812 
C 244.258369 225.839257 247.381592 227.132938 250.637741 227.132938 
z
" clip-path="url(#pba6f375918)" style="fill: #ff0d0d; stroke: #000000; stroke-linejoin: miter"/>
   </g>
   <g id="patch_30">
    <path d="M 221.682259 123.549881 
C 228.885254 123.549881 235.794203 120.688101 240.88749 115.594814 
C 245.980777 110.501527 248.842558 103.592578 248.842558 96.389582 
C 248.842558 89.186587 245.980777 82.277638 240.88749 77.184351 
C 235.794203 72.091064 228.885254 69.229284 221.682259 69.229284 
C 214.479264 69.229284 207.570315 72.091064 202.477028 77.184351 
C 197.383741 82.277638 194.52196 89.186587 194.52196 96.389582 
C 194.52196 103.592578 197.383741 110.501527 202.477028 115.594814 
C 207.570315 120.688101 214.479264 123.549881 221.682259 123.549881 
z
" clip-path="url(#pba6f375918)" style="fill: #248f8f; stroke: #000000; stroke-linejoin: miter"/>
   </g>
   <g id="patch_31">
    <path d="M 250.637741 301.248 
C 257.840736 301.248 264.749685 298.38622 269.842972 293.292933 
C 274.936259 288.199646 277.79804 281.290697 277.79804 274.087701 
C 277.79804 266.884706 274.936259 259.975757 269.842972 254.88247 
C 264.749685 249.789183 257.840736 246.927403 250.637741 246.927403 
C 243.434746 246.927403 236.525797 249.789183 231.43251 254.88247 
C 226.339223 259.975757 223.477442 266.884706 223.477442 274.087701 
C 223.477442 281.290697 226.339223 288.199646 231.43251 293.292933 
C 236.525797 298.38622 243.434746 301.248 250.637741 301.248 
z
" clip-path="url(#pba6f375918)" style="fill: #248f8f; stroke: #000000; stroke-linejoin: miter"/>
   </g>
   <g id="patch_32">
    <path d="M 250.637741 182.782587 
C 257.840736 182.782587 264.749685 179.920807 269.842972 174.82752 
C 274.936259 169.734233 277.79804 162.825284 277.79804 155.622289 
C 277.79804 148.419293 274.936259 141.510344 269.842972 136.417057 
C 264.749685 131.32377 257.840736 128.46199 250.637741 128.46199 
C 243.434746 128.46199 236.525797 131.32377 231.43251 136.417057 
C 226.339223 141.510344 223.477442 148.419293 223.477442 155.622289 
C 223.477442 162.825284 226.339223 169.734233 231.43251 174.82752 
C 236.525797 179.920807 243.434746 182.782587 250.637741 182.782587 
z
" clip-path="url(#pba6f375918)" style="fill: #248f8f; stroke: #000000; stroke-linejoin: miter"/>
   </g>
   <g id="patch_33">
    <path d="M 221.682259 242.015294 
C 228.885254 242.015294 235.794203 239.153513 240.88749 234.060226 
C 245.980777 228.966939 248.842558 222.05799 248.842558 214.854995 
C 248.842558 207.652 245.980777 200.743051 240.88749 195.649764 
C 235.794203 190.556477 228.885254 187.694696 221.682259 187.694696 
C 214.479264 187.694696 207.570315 190.556477 202.477028 195.649764 
C 197.383741 200.743051 194.52196 207.652 194.52196 214.854995 
C 194.52196 222.05799 197.383741 228.966939 202.477028 234.060226 
C 207.570315 239.153513 214.479264 242.015294 221.682259 242.015294 
z
" clip-path="url(#pba6f375918)" style="fill: #248f8f; stroke: #000000; stroke-linejoin: miter"/>
   </g>
   <g id="patch_34">
    <path d="M 221.682259 144.885956 
C 224.938408 144.885956 228.061631 143.592275 230.364076 141.28983 
C 232.666521 138.987385 233.960202 135.864162 233.960202 132.608013 
C 233.960202 129.351864 232.666521 126.228641 230.364076 123.926196 
C 228.061631 121.623751 224.938408 120.33007 221.682259 120.33007 
C 218.42611 120.33007 215.302887 121.623751 213.000442 123.926196 
C 210.697997 126.228641 209.404316 129.351864 209.404316 132.608013 
C 209.404316 135.864162 210.697997 138.987385 213.000442 141.28983 
C 215.302887 143.592275 218.42611 144.885956 221.682259 144.885956 
z
" clip-path="url(#pba6f375918)" style="fill: #ff0d0d; stroke: #000000; stroke-linejoin: miter"/>
   </g>
   <g id="patch_35">
    <path d="M 279.593223 263.351369 
C 282.849372 263.351369 285.972595 262.057687 288.27504 259.755243 
C 290.577485 257.452798 291.871166 254.329574 291.871166 251.073426 
C 291.871166 247.817277 290.577485 244.694053 288.27504 242.391609 
C 285.972595 240.089164 282.849372 238.795482 279.593223 238.795482 
C 276.337074 238.795482 273.213851 240.089164 270.911406 242.391609 
C 268.608961 244.694053 267.31528 247.817277 267.31528 251.073426 
C 267.31528 254.329574 268.608961 257.452798 270.911406 259.755243 
C 273.213851 262.057687 276.337074 263.351369 279.593223 263.351369 
z
" clip-path="url(#pba6f375918)" style="fill: #ff0d0d; stroke: #000000; stroke-linejoin: miter"/>
   </g>
   <g id="patch_36">
    <path d="M 221.682259 72.449097 
C 224.938408 72.449097 228.061631 71.155415 230.364076 68.85297 
C 232.666521 66.550526 233.960202 63.427302 233.960202 60.171153 
C 233.960202 56.915005 232.666521 53.791781 230.364076 51.489337 
C 228.061631 49.186892 224.938408 47.89321 221.682259 47.89321 
C 218.42611 47.89321 215.302887 49.186892 213.000442 51.489337 
C 210.697997 53.791781 209.404316 56.915005 209.404316 60.171153 
C 209.404316 63.427302 210.697997 66.550526 213.000442 68.85297 
C 215.302887 71.155415 218.42611 72.449097 221.682259 72.449097 
z
" clip-path="url(#pba6f375918)" style="fill: #ff0d0d; stroke: #000000; stroke-linejoin: miter"/>
   </g>
   <g id="patch_37">
    <path d="M 279.593223 242.015294 
C 286.796218 242.015294 293.705167 239.153513 298.798454 234.060226 
C 303.891741 228.966939 306.753522 222.05799 306.753522 214.854995 
C 306.753522 207.652 303.891741 200.743051 298.798454 195.649764 
C 293.705167 190.556477 286.796218 187.694696 279.593223 187.694696 
C 272.390228 187.694696 265.481279 190.556477 260.387992 195.649764 
C 255.294705 200.743051 252.432924 207.652 252.432924 214.854995 
C 252.432924 222.05799 255.294705 228.966939 260.387992 234.060226 
C 265.481279 239.153513 272.390228 242.015294 279.593223 242.015294 
z
" clip-path="url(#pba6f375918)" style="fill: #248f8f; stroke: #000000; stroke-linejoin: miter"/>
   </g>
   <g id="patch_38">
    <path d="M 192.726777 301.248 
C 199.929772 301.248 206.838721 298.38622 211.932008 293.292933 
C 217.025295 288.199646 219.887076 281.290697 219.887076 274.087701 
C 219.887076 266.884706 217.025295 259.975757 211.932008 254.88247 
C 206.838721 249.789183 199.929772 246.927403 192.726777 246.927403 
C 185.523782 246.927403 178.614833 249.789183 173.521546 254.88247 
C 168.428259 259.975757 165.566478 266.884706 165.566478 274.087701 
C 165.566478 281.290697 168.428259 288.199646 173.521546 293.292933 
C 178.614833 298.38622 185.523782 301.248 192.726777 301.248 
z
" clip-path="url(#pba6f375918)" style="fill: #248f8f; stroke: #000000; stroke-linejoin: miter"/>
   </g>
   <g id="patch_39">
    <path d="M 221.682259 190.914509 
C 224.938408 190.914509 228.061631 189.620828 230.364076 187.318383 
C 232.666521 185.015938 233.960202 181.892715 233.960202 178.636566 
C 233.960202 175.380418 232.666521 172.257194 230.364076 169.954749 
C 228.061631 167.652304 224.938408 166.358623 221.682259 166.358623 
C 218.42611 166.358623 215.302887 167.652304 213.000442 169.954749 
C 210.697997 172.257194 209.404316 175.380418 209.404316 178.636566 
C 209.404316 181.892715 210.697997 185.015938 213.000442 187.318383 
C 215.302887 189.620828 218.42611 190.914509 221.682259 190.914509 
z
" clip-path="url(#pba6f375918)" style="fill: #ff0d0d; stroke: #000000; stroke-linejoin: miter"/>
   </g>
   <g id="patch_40">
    <path d="M 221.682259 263.351369 
C 224.938408 263.351369 228.061631 262.057687 230.364076 259.755243 
C 232.666521 257.452798 233.960202 254.329574 233.960202 251.073426 
C 233.960202 247.817277 232.666521 244.694053 230.364076 242.391609 
C 228.061631 240.089164 224.938408 238.795482 221.682259 238.795482 
C 218.42611 238.795482 215.302887 240.089164 213.000442 242.391609 
C 210.697997 244.694053 209.404316 247.817277 209.404316 251.073426 
C 209.404316 254.329574 210.697997 257.452798 213.000442 259.755243 
C 215.302887 262.057687 218.42611 263.351369 221.682259 263.351369 
z
" clip-path="url(#pba6f375918)" style="fill: #ff0d0d; stroke: #000000; stroke-linejoin: miter"/>
   </g>
   <g id="patch_41">
    <path d="M 279.593223 123.549881 
C 286.796218 123.549881 293.705167 120.688101 298.798454 115.594814 
C 303.891741 110.501527 306.753522 103.592578 306.753522 96.389582 
C 306.753522 89.186587 303.891741 82.277638 298.798454 77.184351 
C 293.705167 72.091064 286.796218 69.229284 279.593223 69.229284 
C 272.390228 69.229284 265.481279 72.091064 260.387992 77.184351 
C 255.294705 82.277638 252.432924 89.186587 252.432924 96.389582 
C 252.432924 103.592578 255.294705 110.501527 260.387992 115.594814 
C 265.481279 120.688101 272.390228 123.549881 279.593223 123.549881 
z
" clip-path="url(#pba6f375918)" style="fill: #248f8f; stroke: #000000; stroke-linejoin: miter"/>
   </g>
   <g id="patch_42">
    <path d="M 192.726777 182.782587 
C 199.929772 182.782587 206.838721 179.920807 211.932008 174.82752 
C 217.025295 169.734233 219.887076 162.825284 219.887076 155.622289 
C 219.887076 148.419293 217.025295 141.510344 211.932008 136.417057 
C 206.838721 131.32377 199.929772 128.46199 192.726777 128.46199 
C 185.523782 128.46199 178.614833 131.32377 173.521546 136.417057 
C 168.428259 141.510344 165.566478 148.419293 165.566478 155.622289 
C 165.566478 162.825284 168.428259 169.734233 173.521546 174.82752 
C 178.614833 179.920807 185.523782 182.782587 192.726777 182.782587 
z
" clip-path="url(#pba6f375918)" style="fill: #248f8f; stroke: #000000; stroke-linejoin: miter"/>
   </g>
   <g id="patch_43">
    <path d="M 279.593223 190.914509 
C 282.849372 190.914509 285.972595 189.620828 288.27504 187.318383 
C 290.577485 185.015938 291.871166 181.892715 291.871166 178.636566 
C 291.871166 175.380418 290.577485 172.257194 288.27504 169.954749 
C 285.972595 167.652304 282.849372 166.358623 279.593223 166.358623 
C 276.337074 166.358623 273.213851 167.652304 270.911406 169.954749 
C 268.608961 172.257194 267.31528 175.380418 267.31528 178.636566 
C 267.31528 181.892715 268.608961 185.015938 270.911406 187.318383 
C 273.213851 189.620828 276.337074 190.914509 279.593223 190.914509 
z
" clip-path="url(#pba6f375918)" style="fill: #ff0d0d; stroke: #000000; stroke-linejoin: miter"/>
   </g>
   <g id="patch_44">
    <path d="M 279.593223 72.449097 
C 282.849372 72.449097 285.972595 71.155415 288.27504 68.85297 
C 290.577485 66.550526 291.871166 63.427302 291.871166 60.171153 
C 291.871166 56.915005 290.577485 53.791781 288.27504 51.489337 
C 285.972595 49.186892 282.849372 47.89321 279.593223 47.89321 
C 276.337074 47.89321 273.213851 49.186892 270.911406 51.489337 
C 268.608961 53.791781 267.31528 56.915005 267.31528 60.171153 
C 267.31528 63.427302 268.608961 66.550526 270.911406 68.85297 
C 273.213851 71.155415 276.337074 72.449097 279.593223 72.449097 
z
" clip-path="url(#pba6f375918)" style="fill: #ff0d0d; stroke: #000000; stroke-linejoin: miter"/>
   </g>
   <g id="patch_45">
    <path d="M 279.593223 144.885956 
C 282.849372 144.885956 285.972595 143.592275 288.27504 141.28983 
C 290.577485 138.987385 291.871166 135.864162 291.871166 132.608013 
C 291.871166 129.351864 290.577485 126.228641 288.27504 123.926196 
C 285.972595 121.623751 282.849372 120.33007 279.593223 120.33007 
C 276.337074 120.33007 273.213851 121.623751 270.911406 123.926196 
C 268.608961 126.228641 267.31528 129.351864 267.31528 132.608013 
C 267.31528 135.864162 268.608961 138.987385 270.911406 141.28983 
C 273.213851 143.592275 276.337074 144.885956 279.593223 144.885956 
z
" clip-path="url(#pba6f375918)" style="fill: #ff0d0d; stroke: #000000; stroke-linejoin: miter"/>
   </g>
   <g id="patch_46">
    <path d="M 250.637741 227.132938 
C 253.89389 227.132938 257.017113 225.839257 259.319558 223.536812 
C 261.622003 221.234367 262.915684 218.111144 262.915684 214.854995 
C 262.915684 211.598846 261.622003 208.475623 259.319558 206.173178 
C 257.017113 203.870733 253.89389 202.577052 250.637741 202.577052 
C 247.381592 202.577052 244.258369 203.870733 241.955924 206.173178 
C 239.653479 208.475623 238.359798 211.598846 238.359798 214.854995 
C 238.359798 218.111144 239.653479 221.234367 241.955924 223.536812 
C 244.258369 225.839257 247.381592 227.132938 250.637741 227.132938 
z
" clip-path="url(#pba6f375918)" style="fill: #ff0d0d; stroke: #000000; stroke-linejoin: miter"/>
   </g>
   <g id="patch_47">
    <path d="M 192.726777 227.132938 
C 195.982926 227.132938 199.106149 225.839257 201.408594 223.536812 
C 203.711039 221.234367 205.00472 218.111144 205.00472 214.854995 
C 205.00472 211.598846 203.711039 208.475623 201.408594 206.173178 
C 199.106149 203.870733 195.982926 202.577052 192.726777 202.577052 
C 189.470628 202.577052 186.347405 203.870733 184.04496 206.173178 
C 181.742515 208.475623 180.448834 211.598846 180.448834 214.854995 
C 180.448834 218.111144 181.742515 221.234367 184.04496 223.536812 
C 186.347405 225.839257 189.470628 227.132938 192.726777 227.132938 
z
" clip-path="url(#pba6f375918)" style="fill: #ff0d0d; stroke: #000000; stroke-linejoin: miter"/>
   </g>
   <g id="patch_48">
    <path d="M 250.637741 108.667526 
C 253.89389 108.667526 257.017113 107.373844 259.319558 105.071399 
C 261.622003 102.768955 262.915684 99.645731 262.915684 96.389582 
C 262.915684 93.133434 261.622003 90.01021 259.319558 87.707765 
C 257.017113 85.405321 253.89389 84.111639 250.637741 84.111639 
C 247.381592 84.111639 244.258369 85.405321 241.955924 87.707765 
C 239.653479 90.01021 238.359798 93.133434 238.359798 96.389582 
C 238.359798 99.645731 239.653479 102.768955 241.955924 105.071399 
C 244.258369 107.373844 247.381592 108.667526 250.637741 108.667526 
z
" clip-path="url(#pba6f375918)" style="fill: #ff0d0d; stroke: #000000; stroke-linejoin: miter"/>
   </g>
   <g id="patch_49">
    <path d="M 192.726777 108.667526 
C 195.982926 108.667526 199.106149 107.373844 201.408594 105.071399 
C 203.711039 102.768955 205.00472 99.645731 205.00472 96.389582 
C 205.00472 93.133434 203.711039 90.01021 201.408594 87.707765 
C 199.106149 85.405321 195.982926 84.111639 192.726777 84.111639 
C 189.470628 84.111639 186.347405 85.405321 184.04496 87.707765 
C 181.742515 90.01021 180.448834 93.133434 180.448834 96.389582 
C 180.448834 99.645731 181.742515 102.768955 184.04496 105.071399 
C 186.347405 107.373844 189.470628 108.667526 192.726777 108.667526 
z
" clip-path="url(#pba6f375918)" style="fill: #ff0d0d; stroke: #000000; stroke-linejoin: miter"/>
   </g>
   <g id="patch_50">
    <path d="M 250.637741 286.365645 
C 253.89389 286.365645 257.017113 285.071963 259.319558 282.769518 
C 261.622003 280.467073 262.915684 277.34385 262.915684 274.087701 
C 262.915684 270.831553 261.622003 267.708329 259.319558 265.405884 
C 257.017113 263.10344 253.89389 261.809758 250.637741 261.809758 
C 247.381592 261.809758 244.258369 263.10344 241.955924 265.405884 
C 239.653479 267.708329 238.359798 270.831553 238.359798 274.087701 
C 238.359798 277.34385 239.653479 280.467073 241.955924 282.769518 
C 244.258369 285.071963 247.381592 286.365645 250.637741 286.365645 
z
" clip-path="url(#pba6f375918)" style="fill: #ff0d0d; stroke: #000000; stroke-linejoin: miter"/>
   </g>
   <g id="patch_51">
    <path d="M 250.637741 167.900232 
C 253.89389 167.900232 257.017113 166.60655 259.319558 164.304106 
C 261.622003 162.001661 262.915684 158.878437 262.915684 155.622289 
C 262.915684 152.36614 261.622003 149.242917 259.319558 146.940472 
C 257.017113 144.638027 253.89389 143.344345 250.637741 143.344345 
C 247.381592 143.344345 244.258369 144.638027 241.955924 146.940472 
C 239.653479 149.242917 238.359798 152.36614 238.359798 155.622289 
C 238.359798 158.878437 239.653479 162.001661 241.955924 164.304106 
C 244.258369 166.60655 247.381592 167.900232 250.637741 167.900232 
z
" clip-path="url(#pba6f375918)" style="fill: #ff0d0d; stroke: #000000; stroke-linejoin: miter"/>
   </g>
   <g id="patch_52">
    <path d="M 192.726777 167.900232 
C 195.982926 167.900232 199.106149 166.60655 201.408594 164.304106 
C 203.711039 162.001661 205.00472 158.878437 205.00472 155.622289 
C 205.00472 152.36614 203.711039 149.242917 201.408594 146.940472 
C 199.106149 144.638027 195.982926 143.344345 192.726777 143.344345 
C 189.470628 143.344345 186.347405 144.638027 184.04496 146.940472 
C 181.742515 149.242917 180.448834 152.36614 180.448834 155.622289 
C 180.448834 158.878437 181.742515 162.001661 184.04496 164.304106 
C 186.347405 166.60655 189.470628 167.900232 192.726777 167.900232 
z
" clip-path="url(#pba6f375918)" style="fill: #ff0d0d; stroke: #000000; stroke-linejoin: miter"/>
   </g>
   <g id="patch_53">
    <path d="M 192.726777 286.365645 
C 195.982926 286.365645 199.106149 285.071963 201.408594 282.769518 
C 203.711039 280.467073 205.00472 277.34385 205.00472 274.087701 
C 205.00472 270.831553 203.711039 267.708329 201.408594 265.405884 
C 199.106149 263.10344 195.982926 261.809758 192.726777 261.809758 
C 189.470628 261.809758 186.347405 263.10344 184.04496 265.405884 
C 181.742515 267.708329 180.448834 270.831553 180.448834 274.087701 
C 180.448834 277.34385 181.742515 280.467073 184.04496 282.769518 
C 186.347405 285.071963 189.470628 286.365645 192.726777 286.365645 
z
" clip-path="url(#pba6f375918)" style="fill: #ff0d0d; stroke: #000000; stroke-linejoin: miter"/>
   </g>
   <g id="patch_54">
    <path d="M 221.682259 182.782587 
C 228.885254 182.782587 235.794203 179.920807 240.88749 174.82752 
C 245.980777 169.734233 248.842558 162.825284 248.842558 155.622289 
C 248.842558 148.419293 245.980777 141.510344 240.88749 136.417057 
C 235.794203 131.32377 228.885254 128.46199 221.682259 128.46199 
C 214.479264 128.46199 207.570315 131.32377 202.477028 136.417057 
C 197.383741 141.510344 194.52196 148.419293 194.52196 155.622289 
C 194.52196 162.825284 197.383741 169.734233 202.477028 174.82752 
C 207.570315 179.920807 214.479264 182.782587 221.682259 182.782587 
z
" clip-path="url(#pba6f375918)" style="fill: #248f8f; stroke: #000000; stroke-linejoin: miter"/>
   </g>
   <g id="patch_55">
    <path d="M 192.726777 123.549881 
C 199.929772 123.549881 206.838721 120.688101 211.932008 115.594814 
C 217.025295 110.501527 219.887076 103.592578 219.887076 96.389582 
C 219.887076 89.186587 217.025295 82.277638 211.932008 77.184351 
C 206.838721 72.091064 199.929772 69.229284 192.726777 69.229284 
C 185.523782 69.229284 178.614833 72.091064 173.521546 77.184351 
C 168.428259 82.277638 165.566478 89.186587 165.566478 96.389582 
C 165.566478 103.592578 168.428259 110.501527 173.521546 115.594814 
C 178.614833 120.688101 185.523782 123.549881 192.726777 123.549881 
z
" clip-path="url(#pba6f375918)" style="fill: #248f8f; stroke: #000000; stroke-linejoin: miter"/>
   </g>
   <g id="patch_56">
    <path d="M 279.593223 250.147216 
C 282.849372 250.147216 285.972595 248.853534 288.27504 246.551089 
C 290.577485 244.248645 291.871166 241.125421 291.871166 237.869272 
C 291.871166 234.613124 290.577485 231.4899 288.27504 229.187456 
C 285.972595 226.885011 282.849372 225.591329 279.593223 225.591329 
C 276.337074 225.591329 273.213851 226.885011 270.911406 229.187456 
C 268.608961 231.4899 267.31528 234.613124 267.31528 237.869272 
C 267.31528 241.125421 268.608961 244.248645 270.911406 246.551089 
C 273.213851 248.853534 276.337074 250.147216 279.593223 250.147216 
z
" clip-path="url(#pba6f375918)" style="fill: #ff0d0d; stroke: #000000; stroke-linejoin: miter"/>
   </g>
   <g id="patch_57">
    <path d="M 279.593223 204.118661 
C 282.849372 204.118661 285.972595 202.824979 288.27504 200.522534 
C 290.577485 198.22009 291.871166 195.096866 291.871166 191.840718 
C 291.871166 188.584569 290.577485 185.461345 288.27504 183.158901 
C 285.972595 180.856456 282.849372 179.562774 279.593223 179.562774 
C 276.337074 179.562774 273.213851 180.856456 270.911406 183.158901 
C 268.608961 185.461345 267.31528 188.584569 267.31528 191.840718 
C 267.31528 195.096866 268.608961 198.22009 270.911406 200.522534 
C 273.213851 202.824979 276.337074 204.118661 279.593223 204.118661 
z
" clip-path="url(#pba6f375918)" style="fill: #ff0d0d; stroke: #000000; stroke-linejoin: miter"/>
   </g>
   <g id="patch_58">
    <path d="M 221.682259 250.147216 
C 224.938408 250.147216 228.061631 248.853534 230.364076 246.551089 
C 232.666521 244.248645 233.960202 241.125421 233.960202 237.869272 
C 233.960202 234.613124 232.666521 231.4899 230.364076 229.187456 
C 228.061631 226.885011 224.938408 225.591329 221.682259 225.591329 
C 218.42611 225.591329 215.302887 226.885011 213.000442 229.187456 
C 210.697997 231.4899 209.404316 234.613124 209.404316 237.869272 
C 209.404316 241.125421 210.697997 244.248645 213.000442 246.551089 
C 215.302887 248.853534 218.42611 250.147216 221.682259 250.147216 
z
" clip-path="url(#pba6f375918)" style="fill: #ff0d0d; stroke: #000000; stroke-linejoin: miter"/>
   </g>
   <g id="patch_59">
    <path d="M 221.682259 204.118661 
C 224.938408 204.118661 228.061631 202.824979 230.364076 200.522534 
C 232.666521 198.22009 233.960202 195.096866 233.960202 191.840718 
C 233.960202 188.584569 232.666521 185.461345 230.364076 183.158901 
C 228.061631 180.856456 224.938408 179.562774 221.682259 179.562774 
C 218.42611 179.562774 215.302887 180.856456 213.000442 183.158901 
C 210.697997 185.461345 209.404316 188.584569 209.404316 191.840718 
C 209.404316 195.096866 210.697997 198.22009 213.000442 200.522534 
C 215.302887 202.824979 218.42611 204.118661 221.682259 204.118661 
z
" clip-path="url(#pba6f375918)" style="fill: #ff0d0d; stroke: #000000; stroke-linejoin: miter"/>
   </g>
   <g id="patch_60">
    <path d="M 250.637741 123.549881 
C 257.840736 123.549881 264.749685 120.688101 269.842972 115.594814 
C 274.936259 110.501527 277.79804 103.592578 277.79804 96.389582 
C 277.79804 89.186587 274.936259 82.277638 269.842972 77.184351 
C 264.749685 72.091064 257.840736 69.229284 250.637741 69.229284 
C 243.434746 69.229284 236.525797 72.091064 231.43251 77.184351 
C 226.339223 82.277638 223.477442 89.186587 223.477442 96.389582 
C 223.477442 103.592578 226.339223 110.501527 231.43251 115.594814 
C 236.525797 120.688101 243.434746 123.549881 250.637741 123.549881 
z
" clip-path="url(#pba6f375918)" style="fill: #248f8f; stroke: #000000; stroke-linejoin: miter"/>
   </g>
   <g id="patch_61">
    <path d="M 279.593223 182.782587 
C 286.796218 182.782587 293.705167 179.920807 298.798454 174.82752 
C 303.891741 169.734233 306.753522 162.825284 306.753522 155.622289 
C 306.753522 148.419293 303.891741 141.510344 298.798454 136.417057 
C 293.705167 131.32377 286.796218 128.46199 279.593223 128.46199 
C 272.390228 128.46199 265.481279 131.32377 260.387992 136.417057 
C 255.294705 141.510344 252.432924 148.419293 252.432924 155.622289 
C 252.432924 162.825284 255.294705 169.734233 260.387992 174.82752 
C 265.481279 179.920807 272.390228 182.782587 279.593223 182.782587 
z
" clip-path="url(#pba6f375918)" style="fill: #248f8f; stroke: #000000; stroke-linejoin: miter"/>
   </g>
   <g id="patch_62">
    <path d="M 279.593223 301.248 
C 286.796218 301.248 293.705167 298.38622 298.798454 293.292933 
C 303.891741 288.199646 306.753522 281.290697 306.753522 274.087701 
C 306.753522 266.884706 303.891741 259.975757 298.798454 254.88247 
C 293.705167 249.789183 286.796218 246.927403 279.593223 246.927403 
C 272.390228 246.927403 265.481279 249.789183 260.387992 254.88247 
C 255.294705 259.975757 252.432924 266.884706 252.432924 274.087701 
C 252.432924 281.290697 255.294705 288.199646 260.387992 293.292933 
C 265.481279 298.38622 272.390228 301.248 279.593223 301.248 
z
" clip-path="url(#pba6f375918)" style="fill: #248f8f; stroke: #000000; stroke-linejoin: miter"/>
   </g>
   <g id="patch_63">
    <path d="M 250.637741 242.015294 
C 257.840736 242.015294 264.749685 239.153513 269.842972 234.060226 
C 274.936259 228.966939 277.79804 222.05799 277.79804 214.854995 
C 277.79804 207.652 274.936259 200.743051 269.842972 195.649764 
C 264.749685 190.556477 257.840736 187.694696 250.637741 187.694696 
C 243.434746 187.694696 236.525797 190.556477 231.43251 195.649764 
C 226.339223 200.743051 223.477442 207.652 223.477442 214.854995 
C 223.477442 222.05799 226.339223 228.966939 231.43251 234.060226 
C 236.525797 239.153513 243.434746 242.015294 250.637741 242.015294 
z
" clip-path="url(#pba6f375918)" style="fill: #248f8f; stroke: #000000; stroke-linejoin: miter"/>
   </g>
   <g id="patch_64">
    <path d="M 192.726777 242.015294 
C 199.929772 242.015294 206.838721 239.153513 211.932008 234.060226 
C 217.025295 228.966939 219.887076 222.05799 219.887076 214.854995 
C 219.887076 207.652 217.025295 200.743051 211.932008 195.649764 
C 206.838721 190.556477 199.929772 187.694696 192.726777 187.694696 
C 185.523782 187.694696 178.614833 190.556477 173.521546 195.649764 
C 168.428259 200.743051 165.566478 207.652 165.566478 214.854995 
C 165.566478 222.05799 168.428259 228.966939 173.521546 234.060226 
C 178.614833 239.153513 185.523782 242.015294 192.726777 242.015294 
z
" clip-path="url(#pba6f375918)" style="fill: #248f8f; stroke: #000000; stroke-linejoin: miter"/>
   </g>
   <g id="patch_65">
    <path d="M 221.682259 301.248 
C 228.885254 301.248 235.794203 298.38622 240.88749 293.292933 
C 245.980777 288.199646 248.842558 281.290697 248.842558 274.087701 
C 248.842558 266.884706 245.980777 259.975757 240.88749 254.88247 
C 235.794203 249.789183 228.885254 246.927403 221.682259 246.927403 
C 214.479264 246.927403 207.570315 249.789183 202.477028 254.88247 
C 197.383741 259.975757 194.52196 266.884706 194.52196 274.087701 
C 194.52196 281.290697 197.383741 288.199646 202.477028 293.292933 
C 207.570315 298.38622 214.479264 301.248 221.682259 301.248 
z
" clip-path="url(#pba6f375918)" style="fill: #248f8f; stroke: #000000; stroke-linejoin: miter"/>
   </g>
   <g id="patch_66">
    <path d="M 279.593223 131.681803 
C 282.849372 131.681803 285.972595 130.388121 288.27504 128.085677 
C 290.577485 125.783232 291.871166 122.660008 291.871166 119.40386 
C 291.871166 116.147711 290.577485 113.024488 288.27504 110.722043 
C 285.972595 108.419598 282.849372 107.125917 279.593223 107.125917 
C 276.337074 107.125917 273.213851 108.419598 270.911406 110.722043 
C 268.608961 113.024488 267.31528 116.147711 267.31528 119.40386 
C 267.31528 122.660008 268.608961 125.783232 270.911406 128.085677 
C 273.213851 130.388121 276.337074 131.681803 279.593223 131.681803 
z
" clip-path="url(#pba6f375918)" style="fill: #ff0d0d; stroke: #000000; stroke-linejoin: miter"/>
   </g>
   <g id="patch_67">
    <path d="M 221.682259 131.681803 
C 224.938408 131.681803 228.061631 130.388121 230.364076 128.085677 
C 232.666521 125.783232 233.960202 122.660008 233.960202 119.40386 
C 233.960202 116.147711 232.666521 113.024488 230.364076 110.722043 
C 228.061631 108.419598 224.938408 107.125917 221.682259 107.125917 
C 218.42611 107.125917 215.302887 108.419598 213.000442 110.722043 
C 210.697997 113.024488 209.404316 116.147711 209.404316 119.40386 
C 209.404316 122.660008 210.697997 125.783232 213.000442 128.085677 
C 215.302887 130.388121 218.42611 131.681803 221.682259 131.681803 
z
" clip-path="url(#pba6f375918)" style="fill: #ff0d0d; stroke: #000000; stroke-linejoin: miter"/>
   </g>
   <g id="patch_68">
    <path d="M 221.682259 85.653248 
C 224.938408 85.653248 228.061631 84.359567 230.364076 82.057122 
C 232.666521 79.754677 233.960202 76.631454 233.960202 73.375305 
C 233.960202 70.119156 232.666521 66.995933 230.364076 64.693488 
C 228.061631 62.391043 224.938408 61.097362 221.682259 61.097362 
C 218.42611 61.097362 215.302887 62.391043 213.000442 64.693488 
C 210.697997 66.995933 209.404316 70.119156 209.404316 73.375305 
C 209.404316 76.631454 210.697997 79.754677 213.000442 82.057122 
C 215.302887 84.359567 218.42611 85.653248 221.682259 85.653248 
z
" clip-path="url(#pba6f375918)" style="fill: #ff0d0d; stroke: #000000; stroke-linejoin: miter"/>
   </g>
   <g id="patch_69">
    <path d="M 279.593223 85.653248 
C 282.849372 85.653248 285.972595 84.359567 288.27504 82.057122 
C 290.577485 79.754677 291.871166 76.631454 291.871166 73.375305 
C 291.871166 70.119156 290.577485 66.995933 288.27504 64.693488 
C 285.972595 62.391043 282.849372 61.097362 279.593223 61.097362 
C 276.337074 61.097362 273.213851 62.391043 270.911406 64.693488 
C 268.608961 66.995933 267.31528 70.119156 267.31528 73.375305 
C 267.31528 76.631454 268.608961 79.754677 270.911406 82.057122 
C 273.213851 84.359567 276.337074 85.653248 279.593223 85.653248 
z
" clip-path="url(#pba6f375918)" style="fill: #ff0d0d; stroke: #000000; stroke-linejoin: miter"/>
   </g>
   <g id="patch_70">
    <path d="M 250.637741 167.900232 
C 253.89389 167.900232 257.017113 166.60655 259.319558 164.304106 
C 261.622003 162.001661 262.915684 158.878437 262.915684 155.622289 
C 262.915684 152.36614 261.622003 149.242917 259.319558 146.940472 
C 257.017113 144.638027 253.89389 143.344345 250.637741 143.344345 
C 247.381592 143.344345 244.258369 144.638027 241.955924 146.940472 
C 239.653479 149.242917 238.359798 152.36614 238.359798 155.622289 
C 238.359798 158.878437 239.653479 162.001661 241.955924 164.304106 
C 244.258369 166.60655 247.381592 167.900232 250.637741 167.900232 
z
" clip-path="url(#pba6f375918)" style="fill: #ff0d0d; stroke: #000000; stroke-linejoin: miter"/>
   </g>
   <g id="patch_71">
    <path d="M 192.726777 286.365645 
C 195.982926 286.365645 199.106149 285.071963 201.408594 282.769518 
C 203.711039 280.467073 205.00472 277.34385 205.00472 274.087701 
C 205.00472 270.831553 203.711039 267.708329 201.408594 265.405884 
C 199.106149 263.10344 195.982926 261.809758 192.726777 261.809758 
C 189.470628 261.809758 186.347405 263.10344 184.04496 265.405884 
C 181.742515 267.708329 180.448834 270.831553 180.448834 274.087701 
C 180.448834 277.34385 181.742515 280.467073 184.04496 282.769518 
C 186.347405 285.071963 189.470628 286.365645 192.726777 286.365645 
z
" clip-path="url(#pba6f375918)" style="fill: #ff0d0d; stroke: #000000; stroke-linejoin: miter"/>
   </g>
   <g id="patch_72">
    <path d="M 192.726777 167.900232 
C 195.982926 167.900232 199.106149 166.60655 201.408594 164.304106 
C 203.711039 162.001661 205.00472 158.878437 205.00472 155.622289 
C 205.00472 152.36614 203.711039 149.242917 201.408594 146.940472 
C 199.106149 144.638027 195.982926 143.344345 192.726777 143.344345 
C 189.470628 143.344345 186.347405 144.638027 184.04496 146.940472 
C 181.742515 149.242917 180.448834 152.36614 180.448834 155.622289 
C 180.448834 158.878437 181.742515 162.001661 184.04496 164.304106 
C 186.347405 166.60655 189.470628 167.900232 192.726777 167.900232 
z
" clip-path="url(#pba6f375918)" style="fill: #ff0d0d; stroke: #000000; stroke-linejoin: miter"/>
   </g>
   <g id="patch_73">
    <path d="M 250.637741 286.365645 
C 253.89389 286.365645 257.017113 285.071963 259.319558 282.769518 
C 261.622003 280.467073 262.915684 277.34385 262.915684 274.087701 
C 262.915684 270.831553 261.622003 267.708329 259.319558 265.405884 
C 257.017113 263.10344 253.89389 261.809758 250.637741 261.809758 
C 247.381592 261.809758 244.258369 263.10344 241.955924 265.405884 
C 239.653479 267.708329 238.359798 270.831553 238.359798 274.087701 
C 238.359798 277.34385 239.653479 280.467073 241.955924 282.769518 
C 244.258369 285.071963 247.381592 286.365645 250.637741 286.365645 
z
" clip-path="url(#pba6f375918)" style="fill: #ff0d0d; stroke: #000000; stroke-linejoin: miter"/>
   </g>
   <g id="patch_74">
    <path d="M 192.726777 108.667526 
C 195.982926 108.667526 199.106149 107.373844 201.408594 105.071399 
C 203.711039 102.768955 205.00472 99.645731 205.00472 96.389582 
C 205.00472 93.133434 203.711039 90.01021 201.408594 87.707765 
C 199.106149 85.405321 195.982926 84.111639 192.726777 84.111639 
C 189.470628 84.111639 186.347405 85.405321 184.04496 87.707765 
C 181.742515 90.01021 180.448834 93.133434 180.448834 96.389582 
C 180.448834 99.645731 181.742515 102.768955 184.04496 105.071399 
C 186.347405 107.373844 189.470628 108.667526 192.726777 108.667526 
z
" clip-path="url(#pba6f375918)" style="fill: #ff0d0d; stroke: #000000; stroke-linejoin: miter"/>
   </g>
   <g id="patch_75">
    <path d="M 250.637741 227.132938 
C 253.89389 227.132938 257.017113 225.839257 259.319558 223.536812 
C 261.622003 221.234367 262.915684 218.111144 262.915684 214.854995 
C 262.915684 211.598846 261.622003 208.475623 259.319558 206.173178 
C 257.017113 203.870733 253.89389 202.577052 250.637741 202.577052 
C 247.381592 202.577052 244.258369 203.870733 241.955924 206.173178 
C 239.653479 208.475623 238.359798 211.598846 238.359798 214.854995 
C 238.359798 218.111144 239.653479 221.234367 241.955924 223.536812 
C 244.258369 225.839257 247.381592 227.132938 250.637741 227.132938 
z
" clip-path="url(#pba6f375918)" style="fill: #ff0d0d; stroke: #000000; stroke-linejoin: miter"/>
   </g>
   <g id="patch_76">
    <path d="M 250.637741 108.667526 
C 253.89389 108.667526 257.017113 107.373844 259.319558 105.071399 
C 261.622003 102.768955 262.915684 99.645731 262.915684 96.389582 
C 262.915684 93.133434 261.622003 90.01021 259.319558 87.707765 
C 257.017113 85.405321 253.89389 84.111639 250.637741 84.111639 
C 247.381592 84.111639 244.258369 85.405321 241.955924 87.707765 
C 239.653479 90.01021 238.359798 93.133434 238.359798 96.389582 
C 238.359798 99.645731 239.653479 102.768955 241.955924 105.071399 
C 244.258369 107.373844 247.381592 108.667526 250.637741 108.667526 
z
" clip-path="url(#pba6f375918)" style="fill: #ff0d0d; stroke: #000000; stroke-linejoin: miter"/>
   </g>
   <g id="patch_77">
    <path d="M 192.726777 227.132938 
C 195.982926 227.132938 199.106149 225.839257 201.408594 223.536812 
C 203.711039 221.234367 205.00472 218.111144 205.00472 214.854995 
C 205.00472 211.598846 203.711039 208.475623 201.408594 206.173178 
C 199.106149 203.870733 195.982926 202.577052 192.726777 202.577052 
C 189.470628 202.577052 186.347405 203.870733 184.04496 206.173178 
C 181.742515 208.475623 180.448834 211.598846 180.448834 214.854995 
C 180.448834 218.111144 181.742515 221.234367 184.04496 223.536812 
C 186.347405 225.839257 189.470628 227.132938 192.726777 227.132938 
z
" clip-path="url(#pba6f375918)" style="fill: #ff0d0d; stroke: #000000; stroke-linejoin: miter"/>
   </g>
   <g id="patch_78">
    <path d="M 221.682259 123.549881 
C 228.885254 123.549881 235.794203 120.688101 240.88749 115.594814 
C 245.980777 110.501527 248.842558 103.592578 248.842558 96.389582 
C 248.842558 89.186587 245.980777 82.277638 240.88749 77.184351 
C 235.794203 72.091064 228.885254 69.229284 221.682259 69.229284 
C 214.479264 69.229284 207.570315 72.091064 202.477028 77.184351 
C 197.383741 82.277638 194.52196 89.186587 194.52196 96.389582 
C 194.52196 103.592578 197.383741 110.501527 202.477028 115.594814 
C 207.570315 120.688101 214.479264 123.549881 221.682259 123.549881 
z
" clip-path="url(#pba6f375918)" style="fill: #248f8f; stroke: #000000; stroke-linejoin: miter"/>
   </g>
   <g id="patch_79">
    <path d="M 221.682259 242.015294 
C 228.885254 242.015294 235.794203 239.153513 240.88749 234.060226 
C 245.980777 228.966939 248.842558 222.05799 248.842558 214.854995 
C 248.842558 207.652 245.980777 200.743051 240.88749 195.649764 
C 235.794203 190.556477 228.885254 187.694696 221.682259 187.694696 
C 214.479264 187.694696 207.570315 190.556477 202.477028 195.649764 
C 197.383741 200.743051 194.52196 207.652 194.52196 214.854995 
C 194.52196 222.05799 197.383741 228.966939 202.477028 234.060226 
C 207.570315 239.153513 214.479264 242.015294 221.682259 242.015294 
z
" clip-path="url(#pba6f375918)" style="fill: #248f8f; stroke: #000000; stroke-linejoin: miter"/>
   </g>
   <g id="patch_80">
    <path d="M 279.593223 242.015294 
C 286.796218 242.015294 293.705167 239.153513 298.798454 234.060226 
C 303.891741 228.966939 306.753522 222.05799 306.753522 214.854995 
C 306.753522 207.652 303.891741 200.743051 298.798454 195.649764 
C 293.705167 190.556477 286.796218 187.694696 279.593223 187.694696 
C 272.390228 187.694696 265.481279 190.556477 260.387992 195.649764 
C 255.294705 200.743051 252.432924 207.652 252.432924 214.854995 
C 252.432924 222.05799 255.294705 228.966939 260.387992 234.060226 
C 265.481279 239.153513 272.390228 242.015294 279.593223 242.015294 
z
" clip-path="url(#pba6f375918)" style="fill: #248f8f; stroke: #000000; stroke-linejoin: miter"/>
   </g>
   <g id="patch_81">
    <path d="M 279.593223 123.549881 
C 286.796218 123.549881 293.705167 120.688101 298.798454 115.594814 
C 303.891741 110.501527 306.753522 103.592578 306.753522 96.389582 
C 306.753522 89.186587 303.891741 82.277638 298.798454 77.184351 
C 293.705167 72.091064 286.796218 69.229284 279.593223 69.229284 
C 272.390228 69.229284 265.481279 72.091064 260.387992 77.184351 
C 255.294705 82.277638 252.432924 89.186587 252.432924 96.389582 
C 252.432924 103.592578 255.294705 110.501527 260.387992 115.594814 
C 265.481279 120.688101 272.390228 123.549881 279.593223 123.549881 
z
" clip-path="url(#pba6f375918)" style="fill: #248f8f; stroke: #000000; stroke-linejoin: miter"/>
   </g>
   <g id="patch_82">
    <path d="M 279.593223 263.436579 
C 282.849372 263.436579 285.972595 262.142898 288.27504 259.840453 
C 290.577485 257.538008 291.871166 254.414785 291.871166 251.158636 
C 291.871166 247.902487 290.577485 244.779264 288.27504 242.476819 
C 285.972595 240.174374 282.849372 238.880693 279.593223 238.880693 
C 276.337074 238.880693 273.213851 240.174374 270.911406 242.476819 
C 268.608961 244.779264 267.31528 247.902487 267.31528 251.158636 
C 267.31528 254.414785 268.608961 257.538008 270.911406 259.840453 
C 273.213851 262.142898 276.337074 263.436579 279.593223 263.436579 
z
" clip-path="url(#pba6f375918)" style="fill: #ff0d0d; stroke: #000000; stroke-linejoin: miter"/>
   </g>
   <g id="patch_83">
    <path d="M 221.682259 263.436579 
C 224.938408 263.436579 228.061631 262.142898 230.364076 259.840453 
C 232.666521 257.538008 233.960202 254.414785 233.960202 251.158636 
C 233.960202 247.902487 232.666521 244.779264 230.364076 242.476819 
C 228.061631 240.174374 224.938408 238.880693 221.682259 238.880693 
C 218.42611 238.880693 215.302887 240.174374 213.000442 242.476819 
C 210.697997 244.779264 209.404316 247.902487 209.404316 251.158636 
C 209.404316 254.414785 210.697997 257.538008 213.000442 259.840453 
C 215.302887 262.142898 218.42611 263.436579 221.682259 263.436579 
z
" clip-path="url(#pba6f375918)" style="fill: #ff0d0d; stroke: #000000; stroke-linejoin: miter"/>
   </g>
   <g id="patch_84">
    <path d="M 221.682259 190.829299 
C 224.938408 190.829299 228.061631 189.535618 230.364076 187.233173 
C 232.666521 184.930728 233.960202 181.807504 233.960202 178.551356 
C 233.960202 175.295207 232.666521 172.171984 230.364076 169.869539 
C 228.061631 167.567094 224.938408 166.273413 221.682259 166.273413 
C 218.42611 166.273413 215.302887 167.567094 213.000442 169.869539 
C 210.697997 172.171984 209.404316 175.295207 209.404316 178.551356 
C 209.404316 181.807504 210.697997 184.930728 213.000442 187.233173 
C 215.302887 189.535618 218.42611 190.829299 221.682259 190.829299 
z
" clip-path="url(#pba6f375918)" style="fill: #ff0d0d; stroke: #000000; stroke-linejoin: miter"/>
   </g>
   <g id="patch_85">
    <path d="M 221.682259 72.363886 
C 224.938408 72.363886 228.061631 71.070205 230.364076 68.76776 
C 232.666521 66.465315 233.960202 63.342092 233.960202 60.085943 
C 233.960202 56.829795 232.666521 53.706571 230.364076 51.404126 
C 228.061631 49.101682 224.938408 47.808 221.682259 47.808 
C 218.42611 47.808 215.302887 49.101682 213.000442 51.404126 
C 210.697997 53.706571 209.404316 56.829795 209.404316 60.085943 
C 209.404316 63.342092 210.697997 66.465315 213.000442 68.76776 
C 215.302887 71.070205 218.42611 72.363886 221.682259 72.363886 
z
" clip-path="url(#pba6f375918)" style="fill: #ff0d0d; stroke: #000000; stroke-linejoin: miter"/>
   </g>
   <g id="patch_86">
    <path d="M 279.593223 72.363886 
C 282.849372 72.363886 285.972595 71.070205 288.27504 68.76776 
C 290.577485 66.465315 291.871166 63.342092 291.871166 60.085943 
C 291.871166 56.829795 290.577485 53.706571 288.27504 51.404126 
C 285.972595 49.101682 282.849372 47.808 279.593223 47.808 
C 276.337074 47.808 273.213851 49.101682 270.911406 51.404126 
C 268.608961 53.706571 267.31528 56.829795 267.31528 60.085943 
C 267.31528 63.342092 268.608961 66.465315 270.911406 68.76776 
C 273.213851 71.070205 276.337074 72.363886 279.593223 72.363886 
z
" clip-path="url(#pba6f375918)" style="fill: #ff0d0d; stroke: #000000; stroke-linejoin: miter"/>
   </g>
   <g id="patch_87">
    <path d="M 279.593223 144.971166 
C 282.849372 144.971166 285.972595 143.677485 288.27504 141.37504 
C 290.577485 139.072595 291.871166 135.949372 291.871166 132.693223 
C 291.871166 129.437075 290.577485 126.313851 288.27504 124.011406 
C 285.972595 121.708962 282.849372 120.41528 279.593223 120.41528 
C 276.337074 120.41528 273.213851 121.708962 270.911406 124.011406 
C 268.608961 126.313851 267.31528 129.437075 267.31528 132.693223 
C 267.31528 135.949372 268.608961 139.072595 270.911406 141.37504 
C 273.213851 143.677485 276.337074 144.971166 279.593223 144.971166 
z
" clip-path="url(#pba6f375918)" style="fill: #ff0d0d; stroke: #000000; stroke-linejoin: miter"/>
   </g>
   <g id="patch_88">
    <path d="M 221.682259 144.971166 
C 224.938408 144.971166 228.061631 143.677485 230.364076 141.37504 
C 232.666521 139.072595 233.960202 135.949372 233.960202 132.693223 
C 233.960202 129.437075 232.666521 126.313851 230.364076 124.011406 
C 228.061631 121.708962 224.938408 120.41528 221.682259 120.41528 
C 218.42611 120.41528 215.302887 121.708962 213.000442 124.011406 
C 210.697997 126.313851 209.404316 129.437075 209.404316 132.693223 
C 209.404316 135.949372 210.697997 139.072595 213.000442 141.37504 
C 215.302887 143.677485 218.42611 144.971166 221.682259 144.971166 
z
" clip-path="url(#pba6f375918)" style="fill: #ff0d0d; stroke: #000000; stroke-linejoin: miter"/>
   </g>
   <g id="patch_89">
    <path d="M 279.593223 190.829299 
C 282.849372 190.829299 285.972595 189.535618 288.27504 187.233173 
C 290.577485 184.930728 291.871166 181.807504 291.871166 178.551356 
C 291.871166 175.295207 290.577485 172.171984 288.27504 169.869539 
C 285.972595 167.567094 282.849372 166.273413 279.593223 166.273413 
C 276.337074 166.273413 273.213851 167.567094 270.911406 169.869539 
C 268.608961 172.171984 267.31528 175.295207 267.31528 178.551356 
C 267.31528 181.807504 268.608961 184.930728 270.911406 187.233173 
C 273.213851 189.535618 276.337074 190.829299 279.593223 190.829299 
z
" clip-path="url(#pba6f375918)" style="fill: #ff0d0d; stroke: #000000; stroke-linejoin: miter"/>
   </g>
   <g id="patch_90">
    <path d="M 192.726777 301.248 
C 199.929772 301.248 206.838721 298.38622 211.932008 293.292933 
C 217.025295 288.199646 219.887076 281.290697 219.887076 274.087701 
C 219.887076 266.884706 217.025295 259.975757 211.932008 254.88247 
C 206.838721 249.789183 199.929772 246.927403 192.726777 246.927403 
C 185.523782 246.927403 178.614833 249.789183 173.521546 254.88247 
C 168.428259 259.975757 165.566478 266.884706 165.566478 274.087701 
C 165.566478 281.290697 168.428259 288.199646 173.521546 293.292933 
C 178.614833 298.38622 185.523782 301.248 192.726777 301.248 
z
" clip-path="url(#pba6f375918)" style="fill: #248f8f; stroke: #000000; stroke-linejoin: miter"/>
   </g>
   <g id="patch_91">
    <path d="M 192.726777 182.782587 
C 199.929772 182.782587 206.838721 179.920807 211.932008 174.82752 
C 217.025295 169.734233 219.887076 162.825284 219.887076 155.622289 
C 219.887076 148.419293 217.025295 141.510344 211.932008 136.417057 
C 206.838721 131.32377 199.929772 128.46199 192.726777 128.46199 
C 185.523782 128.46199 178.614833 131.32377 173.521546 136.417057 
C 168.428259 141.510344 165.566478 148.419293 165.566478 155.622289 
C 165.566478 162.825284 168.428259 169.734233 173.521546 174.82752 
C 178.614833 179.920807 185.523782 182.782587 192.726777 182.782587 
z
" clip-path="url(#pba6f375918)" style="fill: #248f8f; stroke: #000000; stroke-linejoin: miter"/>
   </g>
   <g id="patch_92">
    <path d="M 250.637741 301.248 
C 257.840736 301.248 264.749685 298.38622 269.842972 293.292933 
C 274.936259 288.199646 277.79804 281.290697 277.79804 274.087701 
C 277.79804 266.884706 274.936259 259.975757 269.842972 254.88247 
C 264.749685 249.789183 257.840736 246.927403 250.637741 246.927403 
C 243.434746 246.927403 236.525797 249.789183 231.43251 254.88247 
C 226.339223 259.975757 223.477442 266.884706 223.477442 274.087701 
C 223.477442 281.290697 226.339223 288.199646 231.43251 293.292933 
C 236.525797 298.38622 243.434746 301.248 250.637741 301.248 
z
" clip-path="url(#pba6f375918)" style="fill: #248f8f; stroke: #000000; stroke-linejoin: miter"/>
   </g>
   <g id="patch_93">
    <path d="M 250.637741 182.782587 
C 257.840736 182.782587 264.749685 179.920807 269.842972 174.82752 
C 274.936259 169.734233 277.79804 162.825284 277.79804 155.622289 
C 277.79804 148.419293 274.936259 141.510344 269.842972 136.417057 
C 264.749685 131.32377 257.840736 128.46199 250.637741 128.46199 
C 243.434746 128.46199 236.525797 131.32377 231.43251 136.417057 
C 226.339223 141.510344 223.477442 148.419293 223.477442 155.622289 
C 223.477442 162.825284 226.339223 169.734233 231.43251 174.82752 
C 236.525797 179.920807 243.434746 182.782587 250.637741 182.782587 
z
" clip-path="url(#pba6f375918)" style="fill: #248f8f; stroke: #000000; stroke-linejoin: miter"/>
   </g>
   <g id="patch_94">
    <path d="M 192.726777 227.132938 
C 195.982926 227.132938 199.106149 225.839257 201.408594 223.536812 
C 203.711039 221.234367 205.00472 218.111144 205.00472 214.854995 
C 205.00472 211.598846 203.711039 208.475623 201.408594 206.173178 
C 199.106149 203.870733 195.982926 202.577052 192.726777 202.577052 
C 189.470628 202.577052 186.347405 203.870733 184.04496 206.173178 
C 181.742515 208.475623 180.448834 211.598846 180.448834 214.854995 
C 180.448834 218.111144 181.742515 221.234367 184.04496 223.536812 
C 186.347405 225.839257 189.470628 227.132938 192.726777 227.132938 
z
" clip-path="url(#pba6f375918)" style="fill: #ff0d0d; stroke: #000000; stroke-linejoin: miter"/>
   </g>
   <g id="patch_95">
    <path d="M 192.726777 108.667526 
C 195.982926 108.667526 199.106149 107.373844 201.408594 105.071399 
C 203.711039 102.768955 205.00472 99.645731 205.00472 96.389582 
C 205.00472 93.133434 203.711039 90.01021 201.408594 87.707765 
C 199.106149 85.405321 195.982926 84.111639 192.726777 84.111639 
C 189.470628 84.111639 186.347405 85.405321 184.04496 87.707765 
C 181.742515 90.01021 180.448834 93.133434 180.448834 96.389582 
C 180.448834 99.645731 181.742515 102.768955 184.04496 105.071399 
C 186.347405 107.373844 189.470628 108.667526 192.726777 108.667526 
z
" clip-path="url(#pba6f375918)" style="fill: #ff0d0d; stroke: #000000; stroke-linejoin: miter"/>
   </g>
   <g id="patch_96">
    <path d="M 250.637741 108.667526 
C 253.89389 108.667526 257.017113 107.373844 259.319558 105.071399 
C 261.622003 102.768955 262.915684 99.645731 262.915684 96.389582 
C 262.915684 93.133434 261.622003 90.01021 259.319558 87.707765 
C 257.017113 85.405321 253.89389 84.111639 250.637741 84.111639 
C 247.381592 84.111639 244.258369 85.405321 241.955924 87.707765 
C 239.653479 90.01021 238.359798 93.133434 238.359798 96.389582 
C 238.359798 99.645731 239.653479 102.768955 241.955924 105.071399 
C 244.258369 107.373844 247.381592 108.667526 250.637741 108.667526 
z
" clip-path="url(#pba6f375918)" style="fill: #ff0d0d; stroke: #000000; stroke-linejoin: miter"/>
   </g>
   <g id="patch_97">
    <path d="M 250.637741 227.132938 
C 253.89389 227.132938 257.017113 225.839257 259.319558 223.536812 
C 261.622003 221.234367 262.915684 218.111144 262.915684 214.854995 
C 262.915684 211.598846 261.622003 208.475623 259.319558 206.173178 
C 257.017113 203.870733 253.89389 202.577052 250.637741 202.577052 
C 247.381592 202.577052 244.258369 203.870733 241.955924 206.173178 
C 239.653479 208.475623 238.359798 211.598846 238.359798 214.854995 
C 238.359798 218.111144 239.653479 221.234367 241.955924 223.536812 
C 244.258369 225.839257 247.381592 227.132938 250.637741 227.132938 
z
" clip-path="url(#pba6f375918)" style="fill: #ff0d0d; stroke: #000000; stroke-linejoin: miter"/>
   </g>
   <g id="patch_98">
    <path d="M 250.637741 286.365645 
C 253.89389 286.365645 257.017113 285.071963 259.319558 282.769518 
C 261.622003 280.467073 262.915684 277.34385 262.915684 274.087701 
C 262.915684 270.831553 261.622003 267.708329 259.319558 265.405884 
C 257.017113 263.10344 253.89389 261.809758 250.637741 261.809758 
C 247.381592 261.809758 244.258369 263.10344 241.955924 265.405884 
C 239.653479 267.708329 238.359798 270.831553 238.359798 274.087701 
C 238.359798 277.34385 239.653479 280.467073 241.955924 282.769518 
C 244.258369 285.071963 247.381592 286.365645 250.637741 286.365645 
z
" clip-path="url(#pba6f375918)" style="fill: #ff0d0d; stroke: #000000; stroke-linejoin: miter"/>
   </g>
   <g id="patch_99">
    <path d="M 192.726777 167.900232 
C 195.982926 167.900232 199.106149 166.60655 201.408594 164.304106 
C 203.711039 162.001661 205.00472 158.878437 205.00472 155.622289 
C 205.00472 152.36614 203.711039 149.242917 201.408594 146.940472 
C 199.106149 144.638027 195.982926 143.344345 192.726777 143.344345 
C 189.470628 143.344345 186.347405 144.638027 184.04496 146.940472 
C 181.742515 149.242917 180.448834 152.36614 180.448834 155.622289 
C 180.448834 158.878437 181.742515 162.001661 184.04496 164.304106 
C 186.347405 166.60655 189.470628 167.900232 192.726777 167.900232 
z
" clip-path="url(#pba6f375918)" style="fill: #ff0d0d; stroke: #000000; stroke-linejoin: miter"/>
   </g>
   <g id="patch_100">
    <path d="M 250.637741 167.900232 
C 253.89389 167.900232 257.017113 166.60655 259.319558 164.304106 
C 261.622003 162.001661 262.915684 158.878437 262.915684 155.622289 
C 262.915684 152.36614 261.622003 149.242917 259.319558 146.940472 
C 257.017113 144.638027 253.89389 143.344345 250.637741 143.344345 
C 247.381592 143.344345 244.258369 144.638027 241.955924 146.940472 
C 239.653479 149.242917 238.359798 152.36614 238.359798 155.622289 
C 238.359798 158.878437 239.653479 162.001661 241.955924 164.304106 
C 244.258369 166.60655 247.381592 167.900232 250.637741 167.900232 
z
" clip-path="url(#pba6f375918)" style="fill: #ff0d0d; stroke: #000000; stroke-linejoin: miter"/>
   </g>
   <g id="patch_101">
    <path d="M 192.726777 286.365645 
C 195.982926 286.365645 199.106149 285.071963 201.408594 282.769518 
C 203.711039 280.467073 205.00472 277.34385 205.00472 274.087701 
C 205.00472 270.831553 203.711039 267.708329 201.408594 265.405884 
C 199.106149 263.10344 195.982926 261.809758 192.726777 261.809758 
C 189.470628 261.809758 186.347405 263.10344 184.04496 265.405884 
C 181.742515 267.708329 180.448834 270.831553 180.448834 274.087701 
C 180.448834 277.34385 181.742515 280.467073 184.04496 282.769518 
C 186.347405 285.071963 189.470628 286.365645 192.726777 286.365645 
z
" clip-path="url(#pba6f375918)" style="fill: #ff0d0d; stroke: #000000; stroke-linejoin: miter"/>
   </g>
   <g id="patch_102">
    <path d="M 250.637741 242.015294 
C 257.840736 242.015294 264.749685 239.153513 269.842972 234.060226 
C 274.936259 228.966939 277.79804 222.05799 277.79804 214.854995 
C 277.79804 207.652 274.936259 200.743051 269.842972 195.649764 
C 264.749685 190.556477 257.840736 187.694696 250.637741 187.694696 
C 243.434746 187.694696 236.525797 190.556477 231.43251 195.649764 
C 226.339223 200.743051 223.477442 207.652 223.477442 214.854995 
C 223.477442 222.05799 226.339223 228.966939 231.43251 234.060226 
C 236.525797 239.153513 243.434746 242.015294 250.637741 242.015294 
z
" clip-path="url(#pba6f375918)" style="fill: #248f8f; stroke: #000000; stroke-linejoin: miter"/>
   </g>
   <g id="patch_103">
    <path d="M 192.726777 123.549881 
C 199.929772 123.549881 206.838721 120.688101 211.932008 115.594814 
C 217.025295 110.501527 219.887076 103.592578 219.887076 96.389582 
C 219.887076 89.186587 217.025295 82.277638 211.932008 77.184351 
C 206.838721 72.091064 199.929772 69.229284 192.726777 69.229284 
C 185.523782 69.229284 178.614833 72.091064 173.521546 77.184351 
C 168.428259 82.277638 165.566478 89.186587 165.566478 96.389582 
C 165.566478 103.592578 168.428259 110.501527 173.521546 115.594814 
C 178.614833 120.688101 185.523782 123.549881 192.726777 123.549881 
z
" clip-path="url(#pba6f375918)" style="fill: #248f8f; stroke: #000000; stroke-linejoin: miter"/>
   </g>
   <g id="patch_104">
    <path d="M 192.726777 242.015294 
C 199.929772 242.015294 206.838721 239.153513 211.932008 234.060226 
C 217.025295 228.966939 219.887076 222.05799 219.887076 214.854995 
C 219.887076 207.652 217.025295 200.743051 211.932008 195.649764 
C 206.838721 190.556477 199.929772 187.694696 192.726777 187.694696 
C 185.523782 187.694696 178.614833 190.556477 173.521546 195.649764 
C 168.428259 200.743051 165.566478 207.652 165.566478 214.854995 
C 165.566478 222.05799 168.428259 228.966939 173.521546 234.060226 
C 178.614833 239.153513 185.523782 242.015294 192.726777 242.015294 
z
" clip-path="url(#pba6f375918)" style="fill: #248f8f; stroke: #000000; stroke-linejoin: miter"/>
   </g>
   <g id="patch_105">
    <path d="M 250.637741 123.549881 
C 257.840736 123.549881 264.749685 120.688101 269.842972 115.594814 
C 274.936259 110.501527 277.79804 103.592578 277.79804 96.389582 
C 277.79804 89.186587 274.936259 82.277638 269.842972 77.184351 
C 264.749685 72.091064 257.840736 69.229284 250.637741 69.229284 
C 243.434746 69.229284 236.525797 72.091064 231.43251 77.184351 
C 226.339223 82.277638 223.477442 89.186587 223.477442 96.389582 
C 223.477442 103.592578 226.339223 110.501527 231.43251 115.594814 
C 236.525797 120.688101 243.434746 123.549881 250.637741 123.549881 
z
" clip-path="url(#pba6f375918)" style="fill: #248f8f; stroke: #000000; stroke-linejoin: miter"/>
   </g>
   <g id="patch_106">
    <path d="M 279.593223 86.141011 
C 282.849372 86.141011 285.972595 84.84733 288.27504 82.544885 
C 290.577485 80.24244 291.871166 77.119217 291.871166 73.863068 
C 291.871166 70.60692 290.577485 67.483696 288.27504 65.181251 
C 285.972595 62.878806 282.849372 61.585125 279.593223 61.585125 
C 276.337074 61.585125 273.213851 62.878806 270.911406 65.181251 
C 268.608961 67.483696 267.31528 70.60692 267.31528 73.863068 
C 267.31528 77.119217 268.608961 80.24244 270.911406 82.544885 
C 273.213851 84.84733 276.337074 86.141011 279.593223 86.141011 
z
" clip-path="url(#pba6f375918)" style="fill: #ff0d0d; stroke: #000000; stroke-linejoin: miter"/>
   </g>
   <g id="patch_107">
    <path d="M 279.593223 249.659452 
C 282.849372 249.659452 285.972595 248.365771 288.27504 246.063326 
C 290.577485 243.760881 291.871166 240.637658 291.871166 237.381509 
C 291.871166 234.125361 290.577485 231.002137 288.27504 228.699692 
C 285.972595 226.397248 282.849372 225.103566 279.593223 225.103566 
C 276.337074 225.103566 273.213851 226.397248 270.911406 228.699692 
C 268.608961 231.002137 267.31528 234.125361 267.31528 237.381509 
C 267.31528 240.637658 268.608961 243.760881 270.911406 246.063326 
C 273.213851 248.365771 276.337074 249.659452 279.593223 249.659452 
z
" clip-path="url(#pba6f375918)" style="fill: #ff0d0d; stroke: #000000; stroke-linejoin: miter"/>
   </g>
   <g id="patch_108">
    <path d="M 221.682259 131.19404 
C 224.938408 131.19404 228.061631 129.900358 230.364076 127.597913 
C 232.666521 125.295469 233.960202 122.172245 233.960202 118.916097 
C 233.960202 115.659948 232.666521 112.536724 230.364076 110.23428 
C 228.061631 107.931835 224.938408 106.638153 221.682259 106.638153 
C 218.42611 106.638153 215.302887 107.931835 213.000442 110.23428 
C 210.697997 112.536724 209.404316 115.659948 209.404316 118.916097 
C 209.404316 122.172245 210.697997 125.295469 213.000442 127.597913 
C 215.302887 129.900358 218.42611 131.19404 221.682259 131.19404 
z
" clip-path="url(#pba6f375918)" style="fill: #ff0d0d; stroke: #000000; stroke-linejoin: miter"/>
   </g>
   <g id="patch_109">
    <path d="M 279.593223 204.606424 
C 282.849372 204.606424 285.972595 203.312742 288.27504 201.010298 
C 290.577485 198.707853 291.871166 195.584629 291.871166 192.328481 
C 291.871166 189.072332 290.577485 185.949109 288.27504 183.646664 
C 285.972595 181.344219 282.849372 180.050538 279.593223 180.050538 
C 276.337074 180.050538 273.213851 181.344219 270.911406 183.646664 
C 268.608961 185.949109 267.31528 189.072332 267.31528 192.328481 
C 267.31528 195.584629 268.608961 198.707853 270.911406 201.010298 
C 273.213851 203.312742 276.337074 204.606424 279.593223 204.606424 
z
" clip-path="url(#pba6f375918)" style="fill: #ff0d0d; stroke: #000000; stroke-linejoin: miter"/>
   </g>
   <g id="patch_110">
    <path d="M 279.593223 131.19404 
C 282.849372 131.19404 285.972595 129.900358 288.27504 127.597913 
C 290.577485 125.295469 291.871166 122.172245 291.871166 118.916097 
C 291.871166 115.659948 290.577485 112.536724 288.27504 110.23428 
C 285.972595 107.931835 282.849372 106.638153 279.593223 106.638153 
C 276.337074 106.638153 273.213851 107.931835 270.911406 110.23428 
C 268.608961 112.536724 267.31528 115.659948 267.31528 118.916097 
C 267.31528 122.172245 268.608961 125.295469 270.911406 127.597913 
C 273.213851 129.900358 276.337074 131.19404 279.593223 131.19404 
z
" clip-path="url(#pba6f375918)" style="fill: #ff0d0d; stroke: #000000; stroke-linejoin: miter"/>
   </g>
   <g id="patch_111">
    <path d="M 221.682259 204.606424 
C 224.938408 204.606424 228.061631 203.312742 230.364076 201.010298 
C 232.666521 198.707853 233.960202 195.584629 233.960202 192.328481 
C 233.960202 189.072332 232.666521 185.949109 230.364076 183.646664 
C 228.061631 181.344219 224.938408 180.050538 221.682259 180.050538 
C 218.42611 180.050538 215.302887 181.344219 213.000442 183.646664 
C 210.697997 185.949109 209.404316 189.072332 209.404316 192.328481 
C 209.404316 195.584629 210.697997 198.707853 213.000442 201.010298 
C 215.302887 203.312742 218.42611 204.606424 221.682259 204.606424 
z
" clip-path="url(#pba6f375918)" style="fill: #ff0d0d; stroke: #000000; stroke-linejoin: miter"/>
   </g>
   <g id="patch_112">
    <path d="M 221.682259 249.659452 
C 224.938408 249.659452 228.061631 248.365771 230.364076 246.063326 
C 232.666521 243.760881 233.960202 240.637658 233.960202 237.381509 
C 233.960202 234.125361 232.666521 231.002137 230.364076 228.699692 
C 228.061631 226.397248 224.938408 225.103566 221.682259 225.103566 
C 218.42611 225.103566 215.302887 226.397248 213.000442 228.699692 
C 210.697997 231.002137 209.404316 234.125361 209.404316 237.381509 
C 209.404316 240.637658 210.697997 243.760881 213.000442 246.063326 
C 215.302887 248.365771 218.42611 249.659452 221.682259 249.659452 
z
" clip-path="url(#pba6f375918)" style="fill: #ff0d0d; stroke: #000000; stroke-linejoin: miter"/>
   </g>
   <g id="patch_113">
    <path d="M 221.682259 86.141011 
C 224.938408 86.141011 228.061631 84.84733 230.364076 82.544885 
C 232.666521 80.24244 233.960202 77.119217 233.960202 73.863068 
C 233.960202 70.60692 232.666521 67.483696 230.364076 65.181251 
C 228.061631 62.878806 224.938408 61.585125 221.682259 61.585125 
C 218.42611 61.585125 215.302887 62.878806 213.000442 65.181251 
C 210.697997 67.483696 209.404316 70.60692 209.404316 73.863068 
C 209.404316 77.119217 210.697997 80.24244 213.000442 82.544885 
C 215.302887 84.84733 218.42611 86.141011 221.682259 86.141011 
z
" clip-path="url(#pba6f375918)" style="fill: #ff0d0d; stroke: #000000; stroke-linejoin: miter"/>
   </g>
   <g id="patch_114">
    <path d="M 221.682259 301.248 
C 228.885254 301.248 235.794203 298.38622 240.88749 293.292933 
C 245.980777 288.199646 248.842558 281.290697 248.842558 274.087701 
C 248.842558 266.884706 245.980777 259.975757 240.88749 254.88247 
C 235.794203 249.789183 228.885254 246.927403 221.682259 246.927403 
C 214.479264 246.927403 207.570315 249.789183 202.477028 254.88247 
C 197.383741 259.975757 194.52196 266.884706 194.52196 274.087701 
C 194.52196 281.290697 197.383741 288.199646 202.477028 293.292933 
C 207.570315 298.38622 214.479264 301.248 221.682259 301.248 
z
" clip-path="url(#pba6f375918)" style="fill: #248f8f; stroke: #000000; stroke-linejoin: miter"/>
   </g>
   <g id="patch_115">
    <path d="M 279.593223 182.782587 
C 286.796218 182.782587 293.705167 179.920807 298.798454 174.82752 
C 303.891741 169.734233 306.753522 162.825284 306.753522 155.622289 
C 306.753522 148.419293 303.891741 141.510344 298.798454 136.417057 
C 293.705167 131.32377 286.796218 128.46199 279.593223 128.46199 
C 272.390228 128.46199 265.481279 131.32377 260.387992 136.417057 
C 255.294705 141.510344 252.432924 148.419293 252.432924 155.622289 
C 252.432924 162.825284 255.294705 169.734233 260.387992 174.82752 
C 265.481279 179.920807 272.390228 182.782587 279.593223 182.782587 
z
" clip-path="url(#pba6f375918)" style="fill: #248f8f; stroke: #000000; stroke-linejoin: miter"/>
   </g>
   <g id="patch_116">
    <path d="M 221.682259 182.782587 
C 228.885254 182.782587 235.794203 179.920807 240.88749 174.82752 
C 245.980777 169.734233 248.842558 162.825284 248.842558 155.622289 
C 248.842558 148.419293 245.980777 141.510344 240.88749 136.417057 
C 235.794203 131.32377 228.885254 128.46199 221.682259 128.46199 
C 214.479264 128.46199 207.570315 131.32377 202.477028 136.417057 
C 197.383741 141.510344 194.52196 148.419293 194.52196 155.622289 
C 194.52196 162.825284 197.383741 169.734233 202.477028 174.82752 
C 207.570315 179.920807 214.479264 182.782587 221.682259 182.782587 
z
" clip-path="url(#pba6f375918)" style="fill: #248f8f; stroke: #000000; stroke-linejoin: miter"/>
   </g>
   <g id="patch_117">
    <path d="M 279.593223 301.248 
C 286.796218 301.248 293.705167 298.38622 298.798454 293.292933 
C 303.891741 288.199646 306.753522 281.290697 306.753522 274.087701 
C 306.753522 266.884706 303.891741 259.975757 298.798454 254.88247 
C 293.705167 249.789183 286.796218 246.927403 279.593223 246.927403 
C 272.390228 246.927403 265.481279 249.789183 260.387992 254.88247 
C 255.294705 259.975757 252.432924 266.884706 252.432924 274.087701 
C 252.432924 281.290697 255.294705 288.199646 260.387992 293.292933 
C 265.481279 298.38622 272.390228 301.248 279.593223 301.248 
z
" clip-path="url(#pba6f375918)" style="fill: #248f8f; stroke: #000000; stroke-linejoin: miter"/>
   </g>
   <g id="patch_118">
    <path d="M 192.726777 286.365645 
C 195.982926 286.365645 199.106149 285.071963 201.408594 282.769518 
C 203.711039 280.467073 205.00472 277.34385 205.00472 274.087701 
C 205.00472 270.831553 203.711039 267.708329 201.408594 265.405884 
C 199.106149 263.10344 195.982926 261.809758 192.726777 261.809758 
C 189.470628 261.809758 186.347405 263.10344 184.04496 265.405884 
C 181.742515 267.708329 180.448834 270.831553 180.448834 274.087701 
C 180.448834 277.34385 181.742515 280.467073 184.04496 282.769518 
C 186.347405 285.071963 189.470628 286.365645 192.726777 286.365645 
z
" clip-path="url(#pba6f375918)" style="fill: #ff0d0d; stroke: #000000; stroke-linejoin: miter"/>
   </g>
   <g id="patch_119">
    <path d="M 192.726777 167.900232 
C 195.982926 167.900232 199.106149 166.60655 201.408594 164.304106 
C 203.711039 162.001661 205.00472 158.878437 205.00472 155.622289 
C 205.00472 152.36614 203.711039 149.242917 201.408594 146.940472 
C 199.106149 144.638027 195.982926 143.344345 192.726777 143.344345 
C 189.470628 143.344345 186.347405 144.638027 184.04496 146.940472 
C 181.742515 149.242917 180.448834 152.36614 180.448834 155.622289 
C 180.448834 158.878437 181.742515 162.001661 184.04496 164.304106 
C 186.347405 166.60655 189.470628 167.900232 192.726777 167.900232 
z
" clip-path="url(#pba6f375918)" style="fill: #ff0d0d; stroke: #000000; stroke-linejoin: miter"/>
   </g>
   <g id="patch_120">
    <path d="M 250.637741 286.365645 
C 253.89389 286.365645 257.017113 285.071963 259.319558 282.769518 
C 261.622003 280.467073 262.915684 277.34385 262.915684 274.087701 
C 262.915684 270.831553 261.622003 267.708329 259.319558 265.405884 
C 257.017113 263.10344 253.89389 261.809758 250.637741 261.809758 
C 247.381592 261.809758 244.258369 263.10344 241.955924 265.405884 
C 239.653479 267.708329 238.359798 270.831553 238.359798 274.087701 
C 238.359798 277.34385 239.653479 280.467073 241.955924 282.769518 
C 244.258369 285.071963 247.381592 286.365645 250.637741 286.365645 
z
" clip-path="url(#pba6f375918)" style="fill: #ff0d0d; stroke: #000000; stroke-linejoin: miter"/>
   </g>
   <g id="patch_121">
    <path d="M 250.637741 167.900232 
C 253.89389 167.900232 257.017113 166.60655 259.319558 164.304106 
C 261.622003 162.001661 262.915684 158.878437 262.915684 155.622289 
C 262.915684 152.36614 261.622003 149.242917 259.319558 146.940472 
C 257.017113 144.638027 253.89389 143.344345 250.637741 143.344345 
C 247.381592 143.344345 244.258369 144.638027 241.955924 146.940472 
C 239.653479 149.242917 238.359798 152.36614 238.359798 155.622289 
C 238.359798 158.878437 239.653479 162.001661 241.955924 164.304106 
C 244.258369 166.60655 247.381592 167.900232 250.637741 167.900232 
z
" clip-path="url(#pba6f375918)" style="fill: #ff0d0d; stroke: #000000; stroke-linejoin: miter"/>
   </g>
  </g>
 </g>
 <defs>
  <clipPath id="pba6f375918">
   <rect x="162.036802" y="41.472" width="148.246396" height="266.112"/>
  </clipPath>
 </defs>
</svg>
