<?xml version="1.0" encoding="utf-8" standalone="no"?>
<!DOCTYPE svg PUBLIC "-//W3C//DTD SVG 1.1//EN"
  "http://www.w3.org/Graphics/SVG/1.1/DTD/svg11.dtd">
<svg xmlns:xlink="http://www.w3.org/1999/xlink" width="460.8pt" height="345.6pt" viewBox="0 0 460.8 345.6" xmlns="http://www.w3.org/2000/svg" version="1.1">
 <metadata>
  <rdf:RDF xmlns:dc="http://purl.org/dc/elements/1.1/" xmlns:cc="http://creativecommons.org/ns#" xmlns:rdf="http://www.w3.org/1999/02/22-rdf-syntax-ns#">
   <cc:Work>
    <dc:type rdf:resource="http://purl.org/dc/dcmitype/StillImage"/>
    <dc:date>2025-06-10T23:51:21.364813</dc:date>
    <dc:format>image/svg+xml</dc:format>
    <dc:creator>
     <cc:Agent>
      <dc:title>Matplotlib v3.10.1, https://matplotlib.org/</dc:title>
     </cc:Agent>
    </dc:creator>
   </cc:Work>
  </rdf:RDF>
 </metadata>
 <defs>
  <style type="text/css">*{stroke-linejoin: round; stroke-linecap: butt}</style>
 </defs>
 <g id="figure_1">
  <g id="patch_1">
   <path d="M 0 345.6 
L 460.8 345.6 
L 460.8 0 
L 0 0 
z
" style="fill: #ffffff"/>
  </g>
  <g id="axes_1">
   <g id="patch_2">
    <path d="M 146.67204 128.444759 
C 152.086812 128.444759 157.280538 126.293447 161.10936 122.464625 
C 164.938182 118.635803 167.089494 113.442077 167.089494 108.027305 
C 167.089494 102.612533 164.938182 97.418807 161.10936 93.589985 
C 157.280538 89.761163 152.086812 87.609851 146.67204 87.609851 
C 141.257268 87.609851 136.063542 89.761163 132.23472 93.589985 
C 128.405898 97.418807 126.254586 102.612533 126.254586 108.027305 
C 126.254586 113.442077 128.405898 118.635803 132.23472 122.464625 
C 136.063542 126.293447 141.257268 128.444759 146.67204 128.444759 
z
" clip-path="url(#pba47c9927b)" style="fill: #ffffff; stroke: #000000; stroke-linejoin: miter"/>
   </g>
   <g id="patch_3">
    <path d="M 227.515265 274.013019 
C 232.930037 274.013019 238.123763 271.861707 241.952585 268.032885 
C 245.781407 264.204063 247.932719 259.010337 247.932719 253.595565 
C 247.932719 248.180793 245.781407 242.987067 241.952585 239.158245 
C 238.123763 235.329423 232.930037 233.178111 227.515265 233.178111 
C 222.100493 233.178111 216.906767 235.329423 213.077945 239.158245 
C 209.249123 242.987067 207.097811 248.180793 207.097811 253.595565 
C 207.097811 259.010337 209.249123 264.204063 213.077945 268.032885 
C 216.906767 271.861707 222.100493 274.013019 227.515265 274.013019 
z
" clip-path="url(#pba47c9927b)" style="fill: #ffffff; stroke: #000000; stroke-linejoin: miter"/>
   </g>
   <g id="patch_4">
    <path d="M 385.799689 232.005071 
C 391.214461 232.005071 396.408187 229.85376 400.237009 226.024937 
C 404.065831 222.196115 406.217143 217.002389 406.217143 211.587617 
C 406.217143 206.172845 404.065831 200.979119 400.237009 197.150297 
C 396.408187 193.321475 391.214461 191.170164 385.799689 191.170164 
C 380.384917 191.170164 375.191191 193.321475 371.362369 197.150297 
C 367.533547 200.979119 365.382235 206.172845 365.382235 211.587617 
C 365.382235 217.002389 367.533547 222.196115 371.362369 226.024937 
C 375.191191 229.85376 380.384917 232.005071 385.799689 232.005071 
z
" clip-path="url(#pba47c9927b)" style="fill: #ffffff; stroke: #000000; stroke-linejoin: miter"/>
   </g>
   <g id="patch_5">
    <path d="M 327.863392 213.354765 
C 346.203749 213.354765 363.795402 206.068064 376.763992 193.099473 
C 389.732583 180.130883 397.019284 162.53923 397.019284 144.198873 
C 397.019284 125.858516 389.732583 108.266864 376.763992 95.298273 
C 363.795402 82.329682 346.203749 75.042981 327.863392 75.042981 
C 309.523035 75.042981 291.931383 82.329682 278.962792 95.298273 
C 265.994201 108.266864 258.7075 125.858516 258.7075 144.198873 
C 258.7075 162.53923 265.994201 180.130883 278.962792 193.099473 
C 291.931383 206.068064 309.523035 213.354765 327.863392 213.354765 
z
" clip-path="url(#pba47c9927b)" style="fill: #ffff30; stroke: #000000; stroke-linejoin: miter"/>
   </g>
   <g id="patch_6">
    <path d="M 147.427711 200.61499 
C 160.702636 200.61499 173.435641 195.340807 182.822431 185.954017 
C 192.20922 176.567228 197.483404 163.834222 197.483404 150.559297 
C 197.483404 137.284372 192.20922 124.551366 182.822431 115.164577 
C 173.435641 105.777787 160.702636 100.503604 147.427711 100.503604 
C 134.152786 100.503604 121.41978 105.777787 112.032991 115.164577 
C 102.646201 124.551366 97.372017 137.284372 97.372017 150.559297 
C 97.372017 163.834222 102.646201 176.567228 112.032991 185.954017 
C 121.41978 195.340807 134.152786 200.61499 147.427711 200.61499 
z
" clip-path="url(#pba47c9927b)" style="fill: #909090; stroke: #000000; stroke-linejoin: miter"/>
   </g>
   <g id="patch_7">
    <path d="M 86.520311 210.15203 
C 91.935083 210.15203 97.128809 208.000718 100.957631 204.171896 
C 104.786453 200.343074 106.937765 195.149348 106.937765 189.734576 
C 106.937765 184.319804 104.786453 179.126078 100.957631 175.297256 
C 97.128809 171.468434 91.935083 169.317122 86.520311 169.317122 
C 81.105539 169.317122 75.911813 171.468434 72.082991 175.297256 
C 68.254169 179.126078 66.102857 184.319804 66.102857 189.734576 
C 66.102857 195.149348 68.254169 200.343074 72.082991 204.171896 
C 75.911813 208.000718 81.105539 210.15203 86.520311 210.15203 
z
" clip-path="url(#pba47c9927b)" style="fill: #ffffff; stroke: #000000; stroke-linejoin: miter"/>
   </g>
   <g id="patch_8">
    <path d="M 227.48907 261.257557 
C 240.763995 261.257557 253.497 255.983374 262.88379 246.596584 
C 272.270579 237.209795 277.544763 224.476789 277.544763 211.201864 
C 277.544763 197.926939 272.270579 185.193934 262.88379 175.807144 
C 253.497 166.420355 240.763995 161.146171 227.48907 161.146171 
C 214.214145 161.146171 201.481139 166.420355 192.09435 175.807144 
C 182.70756 185.193934 177.433376 197.926939 177.433376 211.201864 
C 177.433376 224.476789 182.70756 237.209795 192.09435 246.596584 
C 201.481139 255.983374 214.214145 261.257557 227.48907 261.257557 
z
" clip-path="url(#pba47c9927b)" style="fill: #909090; stroke: #000000; stroke-linejoin: miter"/>
   </g>
   <g id="patch_9">
    <path d="M 146.625346 128.388745 
C 152.040118 128.388745 157.233844 126.237433 161.062666 122.408611 
C 164.891488 118.579789 167.0428 113.386063 167.0428 107.971291 
C 167.0428 102.556519 164.891488 97.362793 161.062666 93.533971 
C 157.233844 89.705149 152.040118 87.553837 146.625346 87.553837 
C 141.210574 87.553837 136.016848 89.705149 132.188026 93.533971 
C 128.359204 97.362793 126.207892 102.556519 126.207892 107.971291 
C 126.207892 113.386063 128.359204 118.579789 132.188026 122.408611 
C 136.016848 126.237433 141.210574 128.388745 146.625346 128.388745 
z
" clip-path="url(#pba47c9927b)" style="fill: #ffffff; stroke: #000000; stroke-linejoin: miter"/>
   </g>
   <g id="patch_10">
    <path d="M 227.480205 273.806286 
C 232.894977 273.806286 238.088703 271.654974 241.917525 267.826152 
C 245.746347 263.99733 247.897659 258.803604 247.897659 253.388832 
C 247.897659 247.97406 245.746347 242.780334 241.917525 238.951512 
C 238.088703 235.12269 232.894977 232.971378 227.480205 232.971378 
C 222.065433 232.971378 216.871707 235.12269 213.042885 238.951512 
C 209.214063 242.780334 207.062751 247.97406 207.062751 253.388832 
C 207.062751 258.803604 209.214063 263.99733 213.042885 267.826152 
C 216.871707 271.654974 222.065433 273.806286 227.480205 273.806286 
z
" clip-path="url(#pba47c9927b)" style="fill: #ffffff; stroke: #000000; stroke-linejoin: miter"/>
   </g>
  </g>
 </g>
 <defs>
  <clipPath id="pba47c9927b">
   <rect x="57.6" y="70.06873" width="357.12" height="208.91854"/>
  </clipPath>
 </defs>
</svg>
