<?xml version="1.0" encoding="utf-8" standalone="no"?>
<!DOCTYPE svg PUBLIC "-//W3C//DTD SVG 1.1//EN"
  "http://www.w3.org/Graphics/SVG/1.1/DTD/svg11.dtd">
<svg xmlns:xlink="http://www.w3.org/1999/xlink" width="288pt" height="288pt" viewBox="0 0 288 288" xmlns="http://www.w3.org/2000/svg" version="1.1">
 <metadata>
  <rdf:RDF xmlns:dc="http://purl.org/dc/elements/1.1/" xmlns:cc="http://creativecommons.org/ns#" xmlns:rdf="http://www.w3.org/1999/02/22-rdf-syntax-ns#">
   <cc:Work>
    <dc:type rdf:resource="http://purl.org/dc/dcmitype/StillImage"/>
    <dc:date>2025-05-14T13:02:44.491304</dc:date>
    <dc:format>image/svg+xml</dc:format>
    <dc:creator>
     <cc:Agent>
      <dc:title>Matplotlib v3.10.1, https://matplotlib.org/</dc:title>
     </cc:Agent>
    </dc:creator>
   </cc:Work>
  </rdf:RDF>
 </metadata>
 <defs>
  <style type="text/css">*{stroke-linejoin: round; stroke-linecap: butt}</style>
 </defs>
 <g id="figure_1">
  <g id="patch_1">
   <path d="M 0 288 
L 288 288 
L 288 0 
L 0 0 
z
" style="fill: #ffffff"/>
  </g>
  <g id="axes_1">
   <g id="LineCollection_1">
    <path d="M 134.379529 121.239485 
L 103.836415 124.235195 
" clip-path="url(#pa9ea67f276)" style="fill: none; stroke: #000000; stroke-width: 1.2"/>
    <path d="M 134.379529 121.239485 
L 152.404598 150.697917 
" clip-path="url(#pa9ea67f276)" style="fill: none; stroke: #000000; stroke-width: 1.2"/>
    <path d="M 134.379529 121.239485 
L 146.3692 99.060084 
" clip-path="url(#pa9ea67f276)" style="fill: none; stroke: #000000; stroke-width: 1.2"/>
    <path d="M 134.379529 121.239485 
L 142.027139 147.05952 
" clip-path="url(#pa9ea67f276)" style="fill: none; stroke: #000000; stroke-width: 1.2"/>
    <path d="M 134.379529 121.239485 
L 156.384805 103.602072 
" clip-path="url(#pa9ea67f276)" style="fill: none; stroke: #000000; stroke-width: 1.2"/>
    <path d="M 89.797393 143.234879 
L 66.686161 135.376281 
" clip-path="url(#pa9ea67f276)" style="fill: none; stroke: #000000; stroke-width: 1.2"/>
    <path d="M 89.797393 143.234879 
L 103.836415 124.235195 
" clip-path="url(#pa9ea67f276)" style="fill: none; stroke: #000000; stroke-width: 1.2"/>
    <path d="M 89.797393 143.234879 
L 69.247203 117.007744 
" clip-path="url(#pa9ea67f276)" style="fill: none; stroke: #000000; stroke-width: 1.2"/>
    <path d="M 89.797393 143.234879 
L 98.229358 177.115205 
" clip-path="url(#pa9ea67f276)" style="fill: none; stroke: #000000; stroke-width: 1.2"/>
    <path d="M 89.797393 143.234879 
L 64.441115 158.451419 
" clip-path="url(#pa9ea67f276)" style="fill: none; stroke: #000000; stroke-width: 1.2"/>
    <path d="M 89.797393 143.234879 
L 114.140666 136.628071 
" clip-path="url(#pa9ea67f276)" style="fill: none; stroke: #000000; stroke-width: 1.2"/>
    <path d="M 171.0785 79.835216 
L 197.017554 63.123886 
" clip-path="url(#pa9ea67f276)" style="fill: none; stroke: #000000; stroke-width: 1.2"/>
    <path d="M 171.0785 79.835216 
L 185.162521 55.569412 
" clip-path="url(#pa9ea67f276)" style="fill: none; stroke: #000000; stroke-width: 1.2"/>
    <path d="M 171.0785 79.835216 
L 146.3692 99.060084 
" clip-path="url(#pa9ea67f276)" style="fill: none; stroke: #000000; stroke-width: 1.2"/>
    <path d="M 171.0785 79.835216 
L 196.064714 101.032058 
" clip-path="url(#pa9ea67f276)" style="fill: none; stroke: #000000; stroke-width: 1.2"/>
    <path d="M 171.0785 79.835216 
L 170.877197 53.803636 
" clip-path="url(#pa9ea67f276)" style="fill: none; stroke: #000000; stroke-width: 1.2"/>
    <path d="M 171.0785 79.835216 
L 158.220759 58.263676 
" clip-path="url(#pa9ea67f276)" style="fill: none; stroke: #000000; stroke-width: 1.2"/>
    <path d="M 107.209882 199.470565 
L 98.229358 177.115205 
" clip-path="url(#pa9ea67f276)" style="fill: none; stroke: #000000; stroke-width: 1.2"/>
    <path d="M 107.209882 199.470565 
L 139.019628 188.75516 
" clip-path="url(#pa9ea67f276)" style="fill: none; stroke: #000000; stroke-width: 1.2"/>
    <path d="M 107.209882 199.470565 
L 79.549296 216.088327 
" clip-path="url(#pa9ea67f276)" style="fill: none; stroke: #000000; stroke-width: 1.2"/>
    <path d="M 107.209882 199.470565 
L 109.267681 228.426304 
" clip-path="url(#pa9ea67f276)" style="fill: none; stroke: #000000; stroke-width: 1.2"/>
    <path d="M 107.209882 199.470565 
L 91.256554 184.813343 
" clip-path="url(#pa9ea67f276)" style="fill: none; stroke: #000000; stroke-width: 1.2"/>
    <path d="M 107.209882 199.470565 
L 97.363449 223.856609 
" clip-path="url(#pa9ea67f276)" style="fill: none; stroke: #000000; stroke-width: 1.2"/>
    <path d="M 203.592897 125.701169 
L 236.679951 120.280153 
" clip-path="url(#pa9ea67f276)" style="fill: none; stroke: #000000; stroke-width: 1.2"/>
    <path d="M 203.592897 125.701169 
L 196.064714 101.032058 
" clip-path="url(#pa9ea67f276)" style="fill: none; stroke: #000000; stroke-width: 1.2"/>
    <path d="M 203.592897 125.701169 
L 197.63319 157.349986 
" clip-path="url(#pa9ea67f276)" style="fill: none; stroke: #000000; stroke-width: 1.2"/>
    <path d="M 203.592897 125.701169 
L 206.933605 99.4156 
" clip-path="url(#pa9ea67f276)" style="fill: none; stroke: #000000; stroke-width: 1.2"/>
    <path d="M 203.592897 125.701169 
L 188.206422 147.35005 
" clip-path="url(#pa9ea67f276)" style="fill: none; stroke: #000000; stroke-width: 1.2"/>
    <path d="M 166.510832 180.151187 
L 152.404598 150.697917 
" clip-path="url(#pa9ea67f276)" style="fill: none; stroke: #000000; stroke-width: 1.2"/>
    <path d="M 166.510832 180.151187 
L 139.019628 188.75516 
" clip-path="url(#pa9ea67f276)" style="fill: none; stroke: #000000; stroke-width: 1.2"/>
    <path d="M 166.510832 180.151187 
L 172.962569 200.596165 
" clip-path="url(#pa9ea67f276)" style="fill: none; stroke: #000000; stroke-width: 1.2"/>
    <path d="M 166.510832 180.151187 
L 197.63319 157.349986 
" clip-path="url(#pa9ea67f276)" style="fill: none; stroke: #000000; stroke-width: 1.2"/>
    <path d="M 166.510832 180.151187 
L 146.703914 197.228393 
" clip-path="url(#pa9ea67f276)" style="fill: none; stroke: #000000; stroke-width: 1.2"/>
    <path d="M 166.510832 180.151187 
L 181.051793 177.601806 
" clip-path="url(#pa9ea67f276)" style="fill: none; stroke: #000000; stroke-width: 1.2"/>
    <path d="M 166.510832 180.151187 
L 186.665248 208.28203 
" clip-path="url(#pa9ea67f276)" style="fill: none; stroke: #000000; stroke-width: 1.2"/>
    <path d="M 148.831193 129.495866 
L 152.404598 150.697917 
" clip-path="url(#pa9ea67f276)" style="fill: none; stroke: #000000; stroke-width: 1.2"/>
    <path d="M 148.831193 129.495866 
L 146.3692 99.060084 
" clip-path="url(#pa9ea67f276)" style="fill: none; stroke: #000000; stroke-width: 1.2"/>
    <path d="M 148.831193 129.495866 
L 114.140666 136.628071 
" clip-path="url(#pa9ea67f276)" style="fill: none; stroke: #000000; stroke-width: 1.2"/>
    <path d="M 148.831193 129.495866 
L 142.027139 147.05952 
" clip-path="url(#pa9ea67f276)" style="fill: none; stroke: #000000; stroke-width: 1.2"/>
    <path d="M 148.831193 129.495866 
L 156.384805 103.602072 
" clip-path="url(#pa9ea67f276)" style="fill: none; stroke: #000000; stroke-width: 1.2"/>
    <path d="M 148.831193 129.495866 
L 177.240481 152.910559 
" clip-path="url(#pa9ea67f276)" style="fill: none; stroke: #000000; stroke-width: 1.2"/>
    <path d="M 88.234847 152.416332 
L 66.686161 135.376281 
" clip-path="url(#pa9ea67f276)" style="fill: none; stroke: #000000; stroke-width: 1.2"/>
    <path d="M 88.234847 152.416332 
L 103.836415 124.235195 
" clip-path="url(#pa9ea67f276)" style="fill: none; stroke: #000000; stroke-width: 1.2"/>
    <path d="M 88.234847 152.416332 
L 64.441115 158.451419 
" clip-path="url(#pa9ea67f276)" style="fill: none; stroke: #000000; stroke-width: 1.2"/>
    <path d="M 88.234847 152.416332 
L 114.140666 136.628071 
" clip-path="url(#pa9ea67f276)" style="fill: none; stroke: #000000; stroke-width: 1.2"/>
    <path d="M 88.234847 152.416332 
L 55.368595 147.02524 
" clip-path="url(#pa9ea67f276)" style="fill: none; stroke: #000000; stroke-width: 1.2"/>
    <path d="M 88.234847 152.416332 
L 91.256554 184.813343 
" clip-path="url(#pa9ea67f276)" style="fill: none; stroke: #000000; stroke-width: 1.2"/>
    <path d="M 179.733215 81.291975 
L 197.017554 63.123886 
" clip-path="url(#pa9ea67f276)" style="fill: none; stroke: #000000; stroke-width: 1.2"/>
    <path d="M 179.733215 81.291975 
L 185.162521 55.569412 
" clip-path="url(#pa9ea67f276)" style="fill: none; stroke: #000000; stroke-width: 1.2"/>
    <path d="M 179.733215 81.291975 
L 170.877197 53.803636 
" clip-path="url(#pa9ea67f276)" style="fill: none; stroke: #000000; stroke-width: 1.2"/>
    <path d="M 179.733215 81.291975 
L 158.220759 58.263676 
" clip-path="url(#pa9ea67f276)" style="fill: none; stroke: #000000; stroke-width: 1.2"/>
    <path d="M 179.733215 81.291975 
L 156.384805 103.602072 
" clip-path="url(#pa9ea67f276)" style="fill: none; stroke: #000000; stroke-width: 1.2"/>
    <path d="M 179.733215 81.291975 
L 206.933605 99.4156 
" clip-path="url(#pa9ea67f276)" style="fill: none; stroke: #000000; stroke-width: 1.2"/>
    <path d="M 116.461433 203.666947 
L 98.229358 177.115205 
" clip-path="url(#pa9ea67f276)" style="fill: none; stroke: #000000; stroke-width: 1.2"/>
    <path d="M 116.461433 203.666947 
L 109.267681 228.426304 
" clip-path="url(#pa9ea67f276)" style="fill: none; stroke: #000000; stroke-width: 1.2"/>
    <path d="M 116.461433 203.666947 
L 91.256554 184.813343 
" clip-path="url(#pa9ea67f276)" style="fill: none; stroke: #000000; stroke-width: 1.2"/>
    <path d="M 116.461433 203.666947 
L 146.703914 197.228393 
" clip-path="url(#pa9ea67f276)" style="fill: none; stroke: #000000; stroke-width: 1.2"/>
    <path d="M 116.461433 203.666947 
L 122.554611 237.076364 
" clip-path="url(#pa9ea67f276)" style="fill: none; stroke: #000000; stroke-width: 1.2"/>
    <path d="M 116.461433 203.666947 
L 97.363449 223.856609 
" clip-path="url(#pa9ea67f276)" style="fill: none; stroke: #000000; stroke-width: 1.2"/>
    <path d="M 209.507512 129.997048 
L 196.064714 101.032058 
" clip-path="url(#pa9ea67f276)" style="fill: none; stroke: #000000; stroke-width: 1.2"/>
    <path d="M 209.507512 129.997048 
L 197.63319 157.349986 
" clip-path="url(#pa9ea67f276)" style="fill: none; stroke: #000000; stroke-width: 1.2"/>
    <path d="M 209.507512 129.997048 
L 239.831405 133.98132 
" clip-path="url(#pa9ea67f276)" style="fill: none; stroke: #000000; stroke-width: 1.2"/>
    <path d="M 209.507512 129.997048 
L 206.933605 99.4156 
" clip-path="url(#pa9ea67f276)" style="fill: none; stroke: #000000; stroke-width: 1.2"/>
    <path d="M 209.507512 129.997048 
L 188.206422 147.35005 
" clip-path="url(#pa9ea67f276)" style="fill: none; stroke: #000000; stroke-width: 1.2"/>
    <path d="M 159.157873 171.369027 
L 139.019628 188.75516 
" clip-path="url(#pa9ea67f276)" style="fill: none; stroke: #000000; stroke-width: 1.2"/>
    <path d="M 159.157873 171.369027 
L 172.962569 200.596165 
" clip-path="url(#pa9ea67f276)" style="fill: none; stroke: #000000; stroke-width: 1.2"/>
    <path d="M 159.157873 171.369027 
L 142.027139 147.05952 
" clip-path="url(#pa9ea67f276)" style="fill: none; stroke: #000000; stroke-width: 1.2"/>
    <path d="M 159.157873 171.369027 
L 146.703914 197.228393 
" clip-path="url(#pa9ea67f276)" style="fill: none; stroke: #000000; stroke-width: 1.2"/>
    <path d="M 159.157873 171.369027 
L 181.051793 177.601806 
" clip-path="url(#pa9ea67f276)" style="fill: none; stroke: #000000; stroke-width: 1.2"/>
    <path d="M 159.157873 171.369027 
L 188.206422 147.35005 
" clip-path="url(#pa9ea67f276)" style="fill: none; stroke: #000000; stroke-width: 1.2"/>
    <path d="M 181.051793 177.601806 
L 177.240481 152.910559 
" clip-path="url(#pa9ea67f276)" style="fill: none; stroke: #000000; stroke-width: 1.2"/>
    <path d="M 209.662388 209.437064 
L 210.233301 178.834212 
" clip-path="url(#pa9ea67f276)" style="fill: none; stroke: #000000; stroke-width: 1.2"/>
    <path d="M 209.662388 209.437064 
L 186.665248 208.28203 
" clip-path="url(#pa9ea67f276)" style="fill: none; stroke: #000000; stroke-width: 1.2"/>
    <path d="M 210.233301 178.834212 
L 177.240481 152.910559 
" clip-path="url(#pa9ea67f276)" style="fill: none; stroke: #000000; stroke-width: 1.2"/>
    <path d="M 210.233301 178.834212 
L 238.703794 189.444307 
" clip-path="url(#pa9ea67f276)" style="fill: none; stroke: #000000; stroke-width: 1.2"/>
   </g>
   <g id="PathCollection_1">
    <defs>
     <path id="C0_0_fcec514901" d="M 0 8.944272 
C 2.372049 8.944272 4.647264 8.001847 6.324555 6.324555 
C 8.001847 4.647264 8.944272 2.372049 8.944272 -0 
C 8.944272 -2.372049 8.001847 -4.647264 6.324555 -6.324555 
C 4.647264 -8.001847 2.372049 -8.944272 0 -8.944272 
C -2.372049 -8.944272 -4.647264 -8.001847 -6.324555 -6.324555 
C -8.001847 -4.647264 -8.944272 -2.372049 -8.944272 0 
C -8.944272 2.372049 -8.001847 4.647264 -6.324555 6.324555 
C -4.647264 8.001847 -2.372049 8.944272 0 8.944272 
z
"/>
    </defs>
    <g clip-path="url(#pa9ea67f276)">
     <use xlink:href="#C0_0_fcec514901" x="134.379529" y="121.239485" style="fill: #175487; stroke: #175487; stroke-width: 0.5"/>
    </g>
    <g clip-path="url(#pa9ea67f276)">
     <use xlink:href="#C0_0_fcec514901" x="89.797393" y="143.234879" style="fill: #175487; stroke: #175487; stroke-width: 0.5"/>
    </g>
    <g clip-path="url(#pa9ea67f276)">
     <use xlink:href="#C0_0_fcec514901" x="171.0785" y="79.835216" style="fill: #175487; stroke: #175487; stroke-width: 0.5"/>
    </g>
    <g clip-path="url(#pa9ea67f276)">
     <use xlink:href="#C0_0_fcec514901" x="107.209882" y="199.470565" style="fill: #175487; stroke: #175487; stroke-width: 0.5"/>
    </g>
    <g clip-path="url(#pa9ea67f276)">
     <use xlink:href="#C0_0_fcec514901" x="203.592897" y="125.701169" style="fill: #175487; stroke: #175487; stroke-width: 0.5"/>
    </g>
    <g clip-path="url(#pa9ea67f276)">
     <use xlink:href="#C0_0_fcec514901" x="166.510832" y="180.151187" style="fill: #175487; stroke: #175487; stroke-width: 0.5"/>
    </g>
    <g clip-path="url(#pa9ea67f276)">
     <use xlink:href="#C0_0_fcec514901" x="148.831193" y="129.495866" style="fill: #175487; stroke: #175487; stroke-width: 0.5"/>
    </g>
    <g clip-path="url(#pa9ea67f276)">
     <use xlink:href="#C0_0_fcec514901" x="88.234847" y="152.416332" style="fill: #175487; stroke: #175487; stroke-width: 0.5"/>
    </g>
    <g clip-path="url(#pa9ea67f276)">
     <use xlink:href="#C0_0_fcec514901" x="179.733215" y="81.291975" style="fill: #175487; stroke: #175487; stroke-width: 0.5"/>
    </g>
    <g clip-path="url(#pa9ea67f276)">
     <use xlink:href="#C0_0_fcec514901" x="116.461433" y="203.666947" style="fill: #175487; stroke: #175487; stroke-width: 0.5"/>
    </g>
    <g clip-path="url(#pa9ea67f276)">
     <use xlink:href="#C0_0_fcec514901" x="209.507512" y="129.997048" style="fill: #175487; stroke: #175487; stroke-width: 0.5"/>
    </g>
    <g clip-path="url(#pa9ea67f276)">
     <use xlink:href="#C0_0_fcec514901" x="159.157873" y="171.369027" style="fill: #175487; stroke: #175487; stroke-width: 0.5"/>
    </g>
    <g clip-path="url(#pa9ea67f276)">
     <use xlink:href="#C0_0_fcec514901" x="66.686161" y="135.376281" style="fill: #ff0d0d; stroke: #ff0d0d; stroke-width: 0.5"/>
    </g>
    <g clip-path="url(#pa9ea67f276)">
     <use xlink:href="#C0_0_fcec514901" x="197.017554" y="63.123886" style="fill: #ff0d0d; stroke: #ff0d0d; stroke-width: 0.5"/>
    </g>
    <g clip-path="url(#pa9ea67f276)">
     <use xlink:href="#C0_0_fcec514901" x="103.836415" y="124.235195" style="fill: #ff0d0d; stroke: #ff0d0d; stroke-width: 0.5"/>
    </g>
    <g clip-path="url(#pa9ea67f276)">
     <use xlink:href="#C0_0_fcec514901" x="185.162521" y="55.569412" style="fill: #ff0d0d; stroke: #ff0d0d; stroke-width: 0.5"/>
    </g>
    <g clip-path="url(#pa9ea67f276)">
     <use xlink:href="#C0_0_fcec514901" x="69.247203" y="117.007744" style="fill: #ff0d0d; stroke: #ff0d0d; stroke-width: 0.5"/>
    </g>
    <g clip-path="url(#pa9ea67f276)">
     <use xlink:href="#C0_0_fcec514901" x="152.404598" y="150.697917" style="fill: #ff0d0d; stroke: #ff0d0d; stroke-width: 0.5"/>
    </g>
    <g clip-path="url(#pa9ea67f276)">
     <use xlink:href="#C0_0_fcec514901" x="98.229358" y="177.115205" style="fill: #ff0d0d; stroke: #ff0d0d; stroke-width: 0.5"/>
    </g>
    <g clip-path="url(#pa9ea67f276)">
     <use xlink:href="#C0_0_fcec514901" x="146.3692" y="99.060084" style="fill: #ff0d0d; stroke: #ff0d0d; stroke-width: 0.5"/>
    </g>
    <g clip-path="url(#pa9ea67f276)">
     <use xlink:href="#C0_0_fcec514901" x="139.019628" y="188.75516" style="fill: #ff0d0d; stroke: #ff0d0d; stroke-width: 0.5"/>
    </g>
    <g clip-path="url(#pa9ea67f276)">
     <use xlink:href="#C0_0_fcec514901" x="79.549296" y="216.088327" style="fill: #ff0d0d; stroke: #ff0d0d; stroke-width: 0.5"/>
    </g>
    <g clip-path="url(#pa9ea67f276)">
     <use xlink:href="#C0_0_fcec514901" x="236.679951" y="120.280153" style="fill: #ff0d0d; stroke: #ff0d0d; stroke-width: 0.5"/>
    </g>
    <g clip-path="url(#pa9ea67f276)">
     <use xlink:href="#C0_0_fcec514901" x="172.962569" y="200.596165" style="fill: #ff0d0d; stroke: #ff0d0d; stroke-width: 0.5"/>
    </g>
    <g clip-path="url(#pa9ea67f276)">
     <use xlink:href="#C0_0_fcec514901" x="109.267681" y="228.426304" style="fill: #ff0d0d; stroke: #ff0d0d; stroke-width: 0.5"/>
    </g>
    <g clip-path="url(#pa9ea67f276)">
     <use xlink:href="#C0_0_fcec514901" x="196.064714" y="101.032058" style="fill: #ff0d0d; stroke: #ff0d0d; stroke-width: 0.5"/>
    </g>
    <g clip-path="url(#pa9ea67f276)">
     <use xlink:href="#C0_0_fcec514901" x="197.63319" y="157.349986" style="fill: #ff0d0d; stroke: #ff0d0d; stroke-width: 0.5"/>
    </g>
    <g clip-path="url(#pa9ea67f276)">
     <use xlink:href="#C0_0_fcec514901" x="64.441115" y="158.451419" style="fill: #ff0d0d; stroke: #ff0d0d; stroke-width: 0.5"/>
    </g>
    <g clip-path="url(#pa9ea67f276)">
     <use xlink:href="#C0_0_fcec514901" x="170.877197" y="53.803636" style="fill: #ff0d0d; stroke: #ff0d0d; stroke-width: 0.5"/>
    </g>
    <g clip-path="url(#pa9ea67f276)">
     <use xlink:href="#C0_0_fcec514901" x="114.140666" y="136.628071" style="fill: #ff0d0d; stroke: #ff0d0d; stroke-width: 0.5"/>
    </g>
    <g clip-path="url(#pa9ea67f276)">
     <use xlink:href="#C0_0_fcec514901" x="158.220759" y="58.263676" style="fill: #ff0d0d; stroke: #ff0d0d; stroke-width: 0.5"/>
    </g>
    <g clip-path="url(#pa9ea67f276)">
     <use xlink:href="#C0_0_fcec514901" x="55.368595" y="147.02524" style="fill: #ff0d0d; stroke: #ff0d0d; stroke-width: 0.5"/>
    </g>
    <g clip-path="url(#pa9ea67f276)">
     <use xlink:href="#C0_0_fcec514901" x="142.027139" y="147.05952" style="fill: #ff0d0d; stroke: #ff0d0d; stroke-width: 0.5"/>
    </g>
    <g clip-path="url(#pa9ea67f276)">
     <use xlink:href="#C0_0_fcec514901" x="91.256554" y="184.813343" style="fill: #ff0d0d; stroke: #ff0d0d; stroke-width: 0.5"/>
    </g>
    <g clip-path="url(#pa9ea67f276)">
     <use xlink:href="#C0_0_fcec514901" x="156.384805" y="103.602072" style="fill: #ff0d0d; stroke: #ff0d0d; stroke-width: 0.5"/>
    </g>
    <g clip-path="url(#pa9ea67f276)">
     <use xlink:href="#C0_0_fcec514901" x="146.703914" y="197.228393" style="fill: #ff0d0d; stroke: #ff0d0d; stroke-width: 0.5"/>
    </g>
    <g clip-path="url(#pa9ea67f276)">
     <use xlink:href="#C0_0_fcec514901" x="122.554611" y="237.076364" style="fill: #ff0d0d; stroke: #ff0d0d; stroke-width: 0.5"/>
    </g>
    <g clip-path="url(#pa9ea67f276)">
     <use xlink:href="#C0_0_fcec514901" x="239.831405" y="133.98132" style="fill: #ff0d0d; stroke: #ff0d0d; stroke-width: 0.5"/>
    </g>
    <g clip-path="url(#pa9ea67f276)">
     <use xlink:href="#C0_0_fcec514901" x="181.051793" y="177.601806" style="fill: #ff0d0d; stroke: #ff0d0d; stroke-width: 0.5"/>
    </g>
    <g clip-path="url(#pa9ea67f276)">
     <use xlink:href="#C0_0_fcec514901" x="97.363449" y="223.856609" style="fill: #ff0d0d; stroke: #ff0d0d; stroke-width: 0.5"/>
    </g>
    <g clip-path="url(#pa9ea67f276)">
     <use xlink:href="#C0_0_fcec514901" x="206.933605" y="99.4156" style="fill: #ff0d0d; stroke: #ff0d0d; stroke-width: 0.5"/>
    </g>
    <g clip-path="url(#pa9ea67f276)">
     <use xlink:href="#C0_0_fcec514901" x="188.206422" y="147.35005" style="fill: #ff0d0d; stroke: #ff0d0d; stroke-width: 0.5"/>
    </g>
    <g clip-path="url(#pa9ea67f276)">
     <use xlink:href="#C0_0_fcec514901" x="209.662388" y="209.437064" style="fill: #ff0d0d; stroke: #ff0d0d; stroke-width: 0.5"/>
    </g>
    <g clip-path="url(#pa9ea67f276)">
     <use xlink:href="#C0_0_fcec514901" x="210.233301" y="178.834212" style="fill: #666666; stroke: #666666; stroke-width: 0.5"/>
    </g>
    <g clip-path="url(#pa9ea67f276)">
     <use xlink:href="#C0_0_fcec514901" x="177.240481" y="152.910559" style="fill: #ff0d0d; stroke: #ff0d0d; stroke-width: 0.5"/>
    </g>
    <g clip-path="url(#pa9ea67f276)">
     <use xlink:href="#C0_0_fcec514901" x="186.665248" y="208.28203" style="fill: #bfbfbf; stroke: #bfbfbf; stroke-width: 0.5"/>
    </g>
    <g clip-path="url(#pa9ea67f276)">
     <use xlink:href="#C0_0_fcec514901" x="238.703794" y="189.444307" style="fill: #bfbfbf; stroke: #bfbfbf; stroke-width: 0.5"/>
    </g>
   </g>
   <g id="text_1">
    <g clip-path="url(#pa9ea67f276)">
     <!-- Ir -->
     <g style="fill: #ffffff" transform="translate(129.188592 124.550735) scale(0.12 -0.12)">
      <defs>
       <path id="DejaVuSans-Bold-49" d="M 588 4666 
L 1791 4666 
L 1791 0 
L 588 0 
L 588 4666 
z
" transform="scale(0.015625)"/>
       <path id="DejaVuSans-Bold-72" d="M 3138 2547 
Q 2991 2616 2845 2648 
Q 2700 2681 2553 2681 
Q 2122 2681 1889 2404 
Q 1656 2128 1656 1613 
L 1656 0 
L 538 0 
L 538 3500 
L 1656 3500 
L 1656 2925 
Q 1872 3269 2151 3426 
Q 2431 3584 2822 3584 
Q 2878 3584 2943 3579 
Q 3009 3575 3134 3559 
L 3138 2547 
z
" transform="scale(0.015625)"/>
      </defs>
      <use xlink:href="#DejaVuSans-Bold-49"/>
      <use xlink:href="#DejaVuSans-Bold-72" transform="translate(37.207031 0)"/>
     </g>
    </g>
   </g>
   <g id="text_2">
    <g clip-path="url(#pa9ea67f276)">
     <!-- Ir -->
     <g style="fill: #ffffff" transform="translate(84.606456 146.546129) scale(0.12 -0.12)">
      <use xlink:href="#DejaVuSans-Bold-49"/>
      <use xlink:href="#DejaVuSans-Bold-72" transform="translate(37.207031 0)"/>
     </g>
    </g>
   </g>
   <g id="text_3">
    <g clip-path="url(#pa9ea67f276)">
     <!-- Ir -->
     <g style="fill: #ffffff" transform="translate(165.887563 83.146466) scale(0.12 -0.12)">
      <use xlink:href="#DejaVuSans-Bold-49"/>
      <use xlink:href="#DejaVuSans-Bold-72" transform="translate(37.207031 0)"/>
     </g>
    </g>
   </g>
   <g id="text_4">
    <g clip-path="url(#pa9ea67f276)">
     <!-- Ir -->
     <g style="fill: #ffffff" transform="translate(102.018944 202.781815) scale(0.12 -0.12)">
      <use xlink:href="#DejaVuSans-Bold-49"/>
      <use xlink:href="#DejaVuSans-Bold-72" transform="translate(37.207031 0)"/>
     </g>
    </g>
   </g>
   <g id="text_5">
    <g clip-path="url(#pa9ea67f276)">
     <!-- Ir -->
     <g style="fill: #ffffff" transform="translate(198.40196 129.012419) scale(0.12 -0.12)">
      <use xlink:href="#DejaVuSans-Bold-49"/>
      <use xlink:href="#DejaVuSans-Bold-72" transform="translate(37.207031 0)"/>
     </g>
    </g>
   </g>
   <g id="text_6">
    <g clip-path="url(#pa9ea67f276)">
     <!-- Ir -->
     <g style="fill: #ffffff" transform="translate(161.319895 183.462437) scale(0.12 -0.12)">
      <use xlink:href="#DejaVuSans-Bold-49"/>
      <use xlink:href="#DejaVuSans-Bold-72" transform="translate(37.207031 0)"/>
     </g>
    </g>
   </g>
   <g id="text_7">
    <g clip-path="url(#pa9ea67f276)">
     <!-- Ir -->
     <g style="fill: #ffffff" transform="translate(143.640256 132.807116) scale(0.12 -0.12)">
      <use xlink:href="#DejaVuSans-Bold-49"/>
      <use xlink:href="#DejaVuSans-Bold-72" transform="translate(37.207031 0)"/>
     </g>
    </g>
   </g>
   <g id="text_8">
    <g clip-path="url(#pa9ea67f276)">
     <!-- Ir -->
     <g style="fill: #ffffff" transform="translate(83.04391 155.727582) scale(0.12 -0.12)">
      <use xlink:href="#DejaVuSans-Bold-49"/>
      <use xlink:href="#DejaVuSans-Bold-72" transform="translate(37.207031 0)"/>
     </g>
    </g>
   </g>
   <g id="text_9">
    <g clip-path="url(#pa9ea67f276)">
     <!-- Ir -->
     <g style="fill: #ffffff" transform="translate(174.542278 84.603225) scale(0.12 -0.12)">
      <use xlink:href="#DejaVuSans-Bold-49"/>
      <use xlink:href="#DejaVuSans-Bold-72" transform="translate(37.207031 0)"/>
     </g>
    </g>
   </g>
   <g id="text_10">
    <g clip-path="url(#pa9ea67f276)">
     <!-- Ir -->
     <g style="fill: #ffffff" transform="translate(111.270496 206.978197) scale(0.12 -0.12)">
      <use xlink:href="#DejaVuSans-Bold-49"/>
      <use xlink:href="#DejaVuSans-Bold-72" transform="translate(37.207031 0)"/>
     </g>
    </g>
   </g>
   <g id="text_11">
    <g clip-path="url(#pa9ea67f276)">
     <!-- Ir -->
     <g style="fill: #ffffff" transform="translate(204.316574 133.308298) scale(0.12 -0.12)">
      <use xlink:href="#DejaVuSans-Bold-49"/>
      <use xlink:href="#DejaVuSans-Bold-72" transform="translate(37.207031 0)"/>
     </g>
    </g>
   </g>
   <g id="text_12">
    <g clip-path="url(#pa9ea67f276)">
     <!-- Ir -->
     <g style="fill: #ffffff" transform="translate(153.966935 174.680277) scale(0.12 -0.12)">
      <use xlink:href="#DejaVuSans-Bold-49"/>
      <use xlink:href="#DejaVuSans-Bold-72" transform="translate(37.207031 0)"/>
     </g>
    </g>
   </g>
   <g id="text_13">
    <g clip-path="url(#pa9ea67f276)">
     <!-- O -->
     <g style="fill: #ffffff" transform="translate(61.585224 138.687531) scale(0.12 -0.12)">
      <defs>
       <path id="DejaVuSans-Bold-4f" d="M 2719 3878 
Q 2169 3878 1866 3472 
Q 1563 3066 1563 2328 
Q 1563 1594 1866 1187 
Q 2169 781 2719 781 
Q 3272 781 3575 1187 
Q 3878 1594 3878 2328 
Q 3878 3066 3575 3472 
Q 3272 3878 2719 3878 
z
M 2719 4750 
Q 3844 4750 4481 4106 
Q 5119 3463 5119 2328 
Q 5119 1197 4481 553 
Q 3844 -91 2719 -91 
Q 1597 -91 958 553 
Q 319 1197 319 2328 
Q 319 3463 958 4106 
Q 1597 4750 2719 4750 
z
" transform="scale(0.015625)"/>
      </defs>
      <use xlink:href="#DejaVuSans-Bold-4f"/>
     </g>
    </g>
   </g>
   <g id="text_14">
    <g clip-path="url(#pa9ea67f276)">
     <!-- O -->
     <g style="fill: #ffffff" transform="translate(191.916617 66.435136) scale(0.12 -0.12)">
      <use xlink:href="#DejaVuSans-Bold-4f"/>
     </g>
    </g>
   </g>
   <g id="text_15">
    <g clip-path="url(#pa9ea67f276)">
     <!-- O -->
     <g style="fill: #ffffff" transform="translate(98.735477 127.546445) scale(0.12 -0.12)">
      <use xlink:href="#DejaVuSans-Bold-4f"/>
     </g>
    </g>
   </g>
   <g id="text_16">
    <g clip-path="url(#pa9ea67f276)">
     <!-- O -->
     <g style="fill: #ffffff" transform="translate(180.061584 58.880662) scale(0.12 -0.12)">
      <use xlink:href="#DejaVuSans-Bold-4f"/>
     </g>
    </g>
   </g>
   <g id="text_17">
    <g clip-path="url(#pa9ea67f276)">
     <!-- O -->
     <g style="fill: #ffffff" transform="translate(64.146266 120.318994) scale(0.12 -0.12)">
      <use xlink:href="#DejaVuSans-Bold-4f"/>
     </g>
    </g>
   </g>
   <g id="text_18">
    <g clip-path="url(#pa9ea67f276)">
     <!-- O -->
     <g style="fill: #ffffff" transform="translate(147.30366 154.009167) scale(0.12 -0.12)">
      <use xlink:href="#DejaVuSans-Bold-4f"/>
     </g>
    </g>
   </g>
   <g id="text_19">
    <g clip-path="url(#pa9ea67f276)">
     <!-- O -->
     <g style="fill: #ffffff" transform="translate(93.12842 180.426455) scale(0.12 -0.12)">
      <use xlink:href="#DejaVuSans-Bold-4f"/>
     </g>
    </g>
   </g>
   <g id="text_20">
    <g clip-path="url(#pa9ea67f276)">
     <!-- O -->
     <g style="fill: #ffffff" transform="translate(141.268263 102.371334) scale(0.12 -0.12)">
      <use xlink:href="#DejaVuSans-Bold-4f"/>
     </g>
    </g>
   </g>
   <g id="text_21">
    <g clip-path="url(#pa9ea67f276)">
     <!-- O -->
     <g style="fill: #ffffff" transform="translate(133.918691 192.06641) scale(0.12 -0.12)">
      <use xlink:href="#DejaVuSans-Bold-4f"/>
     </g>
    </g>
   </g>
   <g id="text_22">
    <g clip-path="url(#pa9ea67f276)">
     <!-- O -->
     <g style="fill: #ffffff" transform="translate(74.448359 219.399577) scale(0.12 -0.12)">
      <use xlink:href="#DejaVuSans-Bold-4f"/>
     </g>
    </g>
   </g>
   <g id="text_23">
    <g clip-path="url(#pa9ea67f276)">
     <!-- O -->
     <g style="fill: #ffffff" transform="translate(231.579013 123.591403) scale(0.12 -0.12)">
      <use xlink:href="#DejaVuSans-Bold-4f"/>
     </g>
    </g>
   </g>
   <g id="text_24">
    <g clip-path="url(#pa9ea67f276)">
     <!-- O -->
     <g style="fill: #ffffff" transform="translate(167.861631 203.907415) scale(0.12 -0.12)">
      <use xlink:href="#DejaVuSans-Bold-4f"/>
     </g>
    </g>
   </g>
   <g id="text_25">
    <g clip-path="url(#pa9ea67f276)">
     <!-- O -->
     <g style="fill: #ffffff" transform="translate(104.166744 231.737554) scale(0.12 -0.12)">
      <use xlink:href="#DejaVuSans-Bold-4f"/>
     </g>
    </g>
   </g>
   <g id="text_26">
    <g clip-path="url(#pa9ea67f276)">
     <!-- O -->
     <g style="fill: #ffffff" transform="translate(190.963777 104.343308) scale(0.12 -0.12)">
      <use xlink:href="#DejaVuSans-Bold-4f"/>
     </g>
    </g>
   </g>
   <g id="text_27">
    <g clip-path="url(#pa9ea67f276)">
     <!-- O -->
     <g style="fill: #ffffff" transform="translate(192.532252 160.661236) scale(0.12 -0.12)">
      <use xlink:href="#DejaVuSans-Bold-4f"/>
     </g>
    </g>
   </g>
   <g id="text_28">
    <g clip-path="url(#pa9ea67f276)">
     <!-- O -->
     <g style="fill: #ffffff" transform="translate(59.340178 161.762669) scale(0.12 -0.12)">
      <use xlink:href="#DejaVuSans-Bold-4f"/>
     </g>
    </g>
   </g>
   <g id="text_29">
    <g clip-path="url(#pa9ea67f276)">
     <!-- O -->
     <g style="fill: #ffffff" transform="translate(165.77626 57.114886) scale(0.12 -0.12)">
      <use xlink:href="#DejaVuSans-Bold-4f"/>
     </g>
    </g>
   </g>
   <g id="text_30">
    <g clip-path="url(#pa9ea67f276)">
     <!-- O -->
     <g style="fill: #ffffff" transform="translate(109.039728 139.939321) scale(0.12 -0.12)">
      <use xlink:href="#DejaVuSans-Bold-4f"/>
     </g>
    </g>
   </g>
   <g id="text_31">
    <g clip-path="url(#pa9ea67f276)">
     <!-- O -->
     <g style="fill: #ffffff" transform="translate(153.119821 61.574926) scale(0.12 -0.12)">
      <use xlink:href="#DejaVuSans-Bold-4f"/>
     </g>
    </g>
   </g>
   <g id="text_32">
    <g clip-path="url(#pa9ea67f276)">
     <!-- O -->
     <g style="fill: #ffffff" transform="translate(50.267658 150.33649) scale(0.12 -0.12)">
      <use xlink:href="#DejaVuSans-Bold-4f"/>
     </g>
    </g>
   </g>
   <g id="text_33">
    <g clip-path="url(#pa9ea67f276)">
     <!-- O -->
     <g style="fill: #ffffff" transform="translate(136.926201 150.37077) scale(0.12 -0.12)">
      <use xlink:href="#DejaVuSans-Bold-4f"/>
     </g>
    </g>
   </g>
   <g id="text_34">
    <g clip-path="url(#pa9ea67f276)">
     <!-- O -->
     <g style="fill: #ffffff" transform="translate(86.155617 188.124593) scale(0.12 -0.12)">
      <use xlink:href="#DejaVuSans-Bold-4f"/>
     </g>
    </g>
   </g>
   <g id="text_35">
    <g clip-path="url(#pa9ea67f276)">
     <!-- O -->
     <g style="fill: #ffffff" transform="translate(151.283868 106.913322) scale(0.12 -0.12)">
      <use xlink:href="#DejaVuSans-Bold-4f"/>
     </g>
    </g>
   </g>
   <g id="text_36">
    <g clip-path="url(#pa9ea67f276)">
     <!-- O -->
     <g style="fill: #ffffff" transform="translate(141.602977 200.539643) scale(0.12 -0.12)">
      <use xlink:href="#DejaVuSans-Bold-4f"/>
     </g>
    </g>
   </g>
   <g id="text_37">
    <g clip-path="url(#pa9ea67f276)">
     <!-- O -->
     <g style="fill: #ffffff" transform="translate(117.453674 240.387614) scale(0.12 -0.12)">
      <use xlink:href="#DejaVuSans-Bold-4f"/>
     </g>
    </g>
   </g>
   <g id="text_38">
    <g clip-path="url(#pa9ea67f276)">
     <!-- O -->
     <g style="fill: #ffffff" transform="translate(234.730467 137.29257) scale(0.12 -0.12)">
      <use xlink:href="#DejaVuSans-Bold-4f"/>
     </g>
    </g>
   </g>
   <g id="text_39">
    <g clip-path="url(#pa9ea67f276)">
     <!-- O -->
     <g style="fill: #ffffff" transform="translate(175.950855 180.913056) scale(0.12 -0.12)">
      <use xlink:href="#DejaVuSans-Bold-4f"/>
     </g>
    </g>
   </g>
   <g id="text_40">
    <g clip-path="url(#pa9ea67f276)">
     <!-- O -->
     <g style="fill: #ffffff" transform="translate(92.262511 227.167859) scale(0.12 -0.12)">
      <use xlink:href="#DejaVuSans-Bold-4f"/>
     </g>
    </g>
   </g>
   <g id="text_41">
    <g clip-path="url(#pa9ea67f276)">
     <!-- O -->
     <g style="fill: #ffffff" transform="translate(201.832667 102.72685) scale(0.12 -0.12)">
      <use xlink:href="#DejaVuSans-Bold-4f"/>
     </g>
    </g>
   </g>
   <g id="text_42">
    <g clip-path="url(#pa9ea67f276)">
     <!-- O -->
     <g style="fill: #ffffff" transform="translate(183.105485 150.6613) scale(0.12 -0.12)">
      <use xlink:href="#DejaVuSans-Bold-4f"/>
     </g>
    </g>
   </g>
   <g id="text_43">
    <g clip-path="url(#pa9ea67f276)">
     <!-- O -->
     <g style="fill: #ffffff" transform="translate(204.56145 212.748314) scale(0.12 -0.12)">
      <use xlink:href="#DejaVuSans-Bold-4f"/>
     </g>
    </g>
   </g>
   <g id="text_44">
    <g clip-path="url(#pa9ea67f276)">
     <!-- C -->
     <g style="fill: #ffffff" transform="translate(205.829864 182.145462) scale(0.12 -0.12)">
      <defs>
       <path id="DejaVuSans-Bold-43" d="M 4288 256 
Q 3956 84 3597 -3 
Q 3238 -91 2847 -91 
Q 1681 -91 1000 561 
Q 319 1213 319 2328 
Q 319 3447 1000 4098 
Q 1681 4750 2847 4750 
Q 3238 4750 3597 4662 
Q 3956 4575 4288 4403 
L 4288 3438 
Q 3953 3666 3628 3772 
Q 3303 3878 2944 3878 
Q 2300 3878 1931 3465 
Q 1563 3053 1563 2328 
Q 1563 1606 1931 1193 
Q 2300 781 2944 781 
Q 3303 781 3628 887 
Q 3953 994 4288 1222 
L 4288 256 
z
" transform="scale(0.015625)"/>
      </defs>
      <use xlink:href="#DejaVuSans-Bold-43"/>
     </g>
    </g>
   </g>
   <g id="text_45">
    <g clip-path="url(#pa9ea67f276)">
     <!-- O -->
     <g style="fill: #ffffff" transform="translate(172.139544 156.221809) scale(0.12 -0.12)">
      <use xlink:href="#DejaVuSans-Bold-4f"/>
     </g>
    </g>
   </g>
   <g id="text_46">
    <g clip-path="url(#pa9ea67f276)">
     <!-- H -->
     <g style="fill: #ffffff" transform="translate(181.643998 211.59328) scale(0.12 -0.12)">
      <defs>
       <path id="DejaVuSans-Bold-48" d="M 588 4666 
L 1791 4666 
L 1791 2888 
L 3566 2888 
L 3566 4666 
L 4769 4666 
L 4769 0 
L 3566 0 
L 3566 1978 
L 1791 1978 
L 1791 0 
L 588 0 
L 588 4666 
z
" transform="scale(0.015625)"/>
      </defs>
      <use xlink:href="#DejaVuSans-Bold-48"/>
     </g>
    </g>
   </g>
   <g id="text_47">
    <g clip-path="url(#pa9ea67f276)">
     <!-- H -->
     <g style="fill: #ffffff" transform="translate(233.682544 192.755557) scale(0.12 -0.12)">
      <use xlink:href="#DejaVuSans-Bold-48"/>
     </g>
    </g>
   </g>
   <g id="text_48">
    <!-- CH2Ir40O82 -->
    <g transform="translate(153.551009 49.046795) scale(0.1 -0.1)">
     <defs>
      <path id="DejaVuSans-43" d="M 4122 4306 
L 4122 3641 
Q 3803 3938 3442 4084 
Q 3081 4231 2675 4231 
Q 1875 4231 1450 3742 
Q 1025 3253 1025 2328 
Q 1025 1406 1450 917 
Q 1875 428 2675 428 
Q 3081 428 3442 575 
Q 3803 722 4122 1019 
L 4122 359 
Q 3791 134 3420 21 
Q 3050 -91 2638 -91 
Q 1578 -91 968 557 
Q 359 1206 359 2328 
Q 359 3453 968 4101 
Q 1578 4750 2638 4750 
Q 3056 4750 3426 4639 
Q 3797 4528 4122 4306 
z
" transform="scale(0.015625)"/>
      <path id="DejaVuSans-48" d="M 628 4666 
L 1259 4666 
L 1259 2753 
L 3553 2753 
L 3553 4666 
L 4184 4666 
L 4184 0 
L 3553 0 
L 3553 2222 
L 1259 2222 
L 1259 0 
L 628 0 
L 628 4666 
z
" transform="scale(0.015625)"/>
      <path id="DejaVuSans-32" d="M 1228 531 
L 3431 531 
L 3431 0 
L 469 0 
L 469 531 
Q 828 903 1448 1529 
Q 2069 2156 2228 2338 
Q 2531 2678 2651 2914 
Q 2772 3150 2772 3378 
Q 2772 3750 2511 3984 
Q 2250 4219 1831 4219 
Q 1534 4219 1204 4116 
Q 875 4013 500 3803 
L 500 4441 
Q 881 4594 1212 4672 
Q 1544 4750 1819 4750 
Q 2544 4750 2975 4387 
Q 3406 4025 3406 3419 
Q 3406 3131 3298 2873 
Q 3191 2616 2906 2266 
Q 2828 2175 2409 1742 
Q 1991 1309 1228 531 
z
" transform="scale(0.015625)"/>
      <path id="DejaVuSans-49" d="M 628 4666 
L 1259 4666 
L 1259 0 
L 628 0 
L 628 4666 
z
" transform="scale(0.015625)"/>
      <path id="DejaVuSans-72" d="M 2631 2963 
Q 2534 3019 2420 3045 
Q 2306 3072 2169 3072 
Q 1681 3072 1420 2755 
Q 1159 2438 1159 1844 
L 1159 0 
L 581 0 
L 581 3500 
L 1159 3500 
L 1159 2956 
Q 1341 3275 1631 3429 
Q 1922 3584 2338 3584 
Q 2397 3584 2469 3576 
Q 2541 3569 2628 3553 
L 2631 2963 
z
" transform="scale(0.015625)"/>
      <path id="DejaVuSans-34" d="M 2419 4116 
L 825 1625 
L 2419 1625 
L 2419 4116 
z
M 2253 4666 
L 3047 4666 
L 3047 1625 
L 3713 1625 
L 3713 1100 
L 3047 1100 
L 3047 0 
L 2419 0 
L 2419 1100 
L 313 1100 
L 313 1709 
L 2253 4666 
z
" transform="scale(0.015625)"/>
      <path id="DejaVuSans-30" d="M 2034 4250 
Q 1547 4250 1301 3770 
Q 1056 3291 1056 2328 
Q 1056 1369 1301 889 
Q 1547 409 2034 409 
Q 2525 409 2770 889 
Q 3016 1369 3016 2328 
Q 3016 3291 2770 3770 
Q 2525 4250 2034 4250 
z
M 2034 4750 
Q 2819 4750 3233 4129 
Q 3647 3509 3647 2328 
Q 3647 1150 3233 529 
Q 2819 -91 2034 -91 
Q 1250 -91 836 529 
Q 422 1150 422 2328 
Q 422 3509 836 4129 
Q 1250 4750 2034 4750 
z
" transform="scale(0.015625)"/>
      <path id="DejaVuSans-4f" d="M 2522 4238 
Q 1834 4238 1429 3725 
Q 1025 3213 1025 2328 
Q 1025 1447 1429 934 
Q 1834 422 2522 422 
Q 3209 422 3611 934 
Q 4013 1447 4013 2328 
Q 4013 3213 3611 3725 
Q 3209 4238 2522 4238 
z
M 2522 4750 
Q 3503 4750 4090 4092 
Q 4678 3434 4678 2328 
Q 4678 1225 4090 567 
Q 3503 -91 2522 -91 
Q 1538 -91 948 565 
Q 359 1222 359 2328 
Q 359 3434 948 4092 
Q 1538 4750 2522 4750 
z
" transform="scale(0.015625)"/>
      <path id="DejaVuSans-38" d="M 2034 2216 
Q 1584 2216 1326 1975 
Q 1069 1734 1069 1313 
Q 1069 891 1326 650 
Q 1584 409 2034 409 
Q 2484 409 2743 651 
Q 3003 894 3003 1313 
Q 3003 1734 2745 1975 
Q 2488 2216 2034 2216 
z
M 1403 2484 
Q 997 2584 770 2862 
Q 544 3141 544 3541 
Q 544 4100 942 4425 
Q 1341 4750 2034 4750 
Q 2731 4750 3128 4425 
Q 3525 4100 3525 3541 
Q 3525 3141 3298 2862 
Q 3072 2584 2669 2484 
Q 3125 2378 3379 2068 
Q 3634 1759 3634 1313 
Q 3634 634 3220 271 
Q 2806 -91 2034 -91 
Q 1263 -91 848 271 
Q 434 634 434 1313 
Q 434 1759 690 2068 
Q 947 2378 1403 2484 
z
M 1172 3481 
Q 1172 3119 1398 2916 
Q 1625 2713 2034 2713 
Q 2441 2713 2670 2916 
Q 2900 3119 2900 3481 
Q 2900 3844 2670 4047 
Q 2441 4250 2034 4250 
Q 1625 4250 1398 4047 
Q 1172 3844 1172 3481 
z
" transform="scale(0.015625)"/>
     </defs>
     <use xlink:href="#DejaVuSans-43"/>
     <use xlink:href="#DejaVuSans-48" transform="translate(69.824219 0)"/>
     <use xlink:href="#DejaVuSans-32" transform="translate(145.019531 0)"/>
     <use xlink:href="#DejaVuSans-49" transform="translate(208.642578 0)"/>
     <use xlink:href="#DejaVuSans-72" transform="translate(238.134766 0)"/>
     <use xlink:href="#DejaVuSans-34" transform="translate(279.248047 0)"/>
     <use xlink:href="#DejaVuSans-30" transform="translate(342.871094 0)"/>
     <use xlink:href="#DejaVuSans-4f" transform="translate(406.494141 0)"/>
     <use xlink:href="#DejaVuSans-38" transform="translate(485.205078 0)"/>
     <use xlink:href="#DejaVuSans-32" transform="translate(548.828125 0)"/>
    </g>
    <!-- Error: 2.45 eV -->
    <g transform="translate(153.551009 60.244608) scale(0.1 -0.1)">
     <defs>
      <path id="DejaVuSans-45" d="M 628 4666 
L 3578 4666 
L 3578 4134 
L 1259 4134 
L 1259 2753 
L 3481 2753 
L 3481 2222 
L 1259 2222 
L 1259 531 
L 3634 531 
L 3634 0 
L 628 0 
L 628 4666 
z
" transform="scale(0.015625)"/>
      <path id="DejaVuSans-6f" d="M 1959 3097 
Q 1497 3097 1228 2736 
Q 959 2375 959 1747 
Q 959 1119 1226 758 
Q 1494 397 1959 397 
Q 2419 397 2687 759 
Q 2956 1122 2956 1747 
Q 2956 2369 2687 2733 
Q 2419 3097 1959 3097 
z
M 1959 3584 
Q 2709 3584 3137 3096 
Q 3566 2609 3566 1747 
Q 3566 888 3137 398 
Q 2709 -91 1959 -91 
Q 1206 -91 779 398 
Q 353 888 353 1747 
Q 353 2609 779 3096 
Q 1206 3584 1959 3584 
z
" transform="scale(0.015625)"/>
      <path id="DejaVuSans-3a" d="M 750 794 
L 1409 794 
L 1409 0 
L 750 0 
L 750 794 
z
M 750 3309 
L 1409 3309 
L 1409 2516 
L 750 2516 
L 750 3309 
z
" transform="scale(0.015625)"/>
      <path id="DejaVuSans-20" transform="scale(0.015625)"/>
      <path id="DejaVuSans-2e" d="M 684 794 
L 1344 794 
L 1344 0 
L 684 0 
L 684 794 
z
" transform="scale(0.015625)"/>
      <path id="DejaVuSans-35" d="M 691 4666 
L 3169 4666 
L 3169 4134 
L 1269 4134 
L 1269 2991 
Q 1406 3038 1543 3061 
Q 1681 3084 1819 3084 
Q 2600 3084 3056 2656 
Q 3513 2228 3513 1497 
Q 3513 744 3044 326 
Q 2575 -91 1722 -91 
Q 1428 -91 1123 -41 
Q 819 9 494 109 
L 494 744 
Q 775 591 1075 516 
Q 1375 441 1709 441 
Q 2250 441 2565 725 
Q 2881 1009 2881 1497 
Q 2881 1984 2565 2268 
Q 2250 2553 1709 2553 
Q 1456 2553 1204 2497 
Q 953 2441 691 2322 
L 691 4666 
z
" transform="scale(0.015625)"/>
      <path id="DejaVuSans-65" d="M 3597 1894 
L 3597 1613 
L 953 1613 
Q 991 1019 1311 708 
Q 1631 397 2203 397 
Q 2534 397 2845 478 
Q 3156 559 3463 722 
L 3463 178 
Q 3153 47 2828 -22 
Q 2503 -91 2169 -91 
Q 1331 -91 842 396 
Q 353 884 353 1716 
Q 353 2575 817 3079 
Q 1281 3584 2069 3584 
Q 2775 3584 3186 3129 
Q 3597 2675 3597 1894 
z
M 3022 2063 
Q 3016 2534 2758 2815 
Q 2500 3097 2075 3097 
Q 1594 3097 1305 2825 
Q 1016 2553 972 2059 
L 3022 2063 
z
" transform="scale(0.015625)"/>
      <path id="DejaVuSans-56" d="M 1831 0 
L 50 4666 
L 709 4666 
L 2188 738 
L 3669 4666 
L 4325 4666 
L 2547 0 
L 1831 0 
z
" transform="scale(0.015625)"/>
     </defs>
     <use xlink:href="#DejaVuSans-45"/>
     <use xlink:href="#DejaVuSans-72" transform="translate(63.183594 0)"/>
     <use xlink:href="#DejaVuSans-72" transform="translate(102.546875 0)"/>
     <use xlink:href="#DejaVuSans-6f" transform="translate(141.410156 0)"/>
     <use xlink:href="#DejaVuSans-72" transform="translate(202.591797 0)"/>
     <use xlink:href="#DejaVuSans-3a" transform="translate(241.955078 0)"/>
     <use xlink:href="#DejaVuSans-20" transform="translate(275.646484 0)"/>
     <use xlink:href="#DejaVuSans-32" transform="translate(307.433594 0)"/>
     <use xlink:href="#DejaVuSans-2e" transform="translate(371.056641 0)"/>
     <use xlink:href="#DejaVuSans-34" transform="translate(402.84375 0)"/>
     <use xlink:href="#DejaVuSans-35" transform="translate(466.466797 0)"/>
     <use xlink:href="#DejaVuSans-20" transform="translate(530.089844 0)"/>
     <use xlink:href="#DejaVuSans-65" transform="translate(561.876953 0)"/>
     <use xlink:href="#DejaVuSans-56" transform="translate(623.400391 0)"/>
    </g>
   </g>
  </g>
 </g>
 <defs>
  <clipPath id="pa9ea67f276">
   <rect x="36" y="34.56" width="223.2" height="221.76"/>
  </clipPath>
 </defs>
</svg>
