<?xml version="1.0" encoding="utf-8" standalone="no"?>
<!DOCTYPE svg PUBLIC "-//W3C//DTD SVG 1.1//EN"
  "http://www.w3.org/Graphics/SVG/1.1/DTD/svg11.dtd">
<svg xmlns:xlink="http://www.w3.org/1999/xlink" width="288pt" height="288pt" viewBox="0 0 288 288" xmlns="http://www.w3.org/2000/svg" version="1.1">
 <metadata>
  <rdf:RDF xmlns:dc="http://purl.org/dc/elements/1.1/" xmlns:cc="http://creativecommons.org/ns#" xmlns:rdf="http://www.w3.org/1999/02/22-rdf-syntax-ns#">
   <cc:Work>
    <dc:type rdf:resource="http://purl.org/dc/dcmitype/StillImage"/>
    <dc:date>2025-05-14T13:02:45.340390</dc:date>
    <dc:format>image/svg+xml</dc:format>
    <dc:creator>
     <cc:Agent>
      <dc:title>Matplotlib v3.10.1, https://matplotlib.org/</dc:title>
     </cc:Agent>
    </dc:creator>
   </cc:Work>
  </rdf:RDF>
 </metadata>
 <defs>
  <style type="text/css">*{stroke-linejoin: round; stroke-linecap: butt}</style>
 </defs>
 <g id="figure_1">
  <g id="patch_1">
   <path d="M 0 288 
L 288 288 
L 288 0 
L 0 0 
z
" style="fill: #ffffff"/>
  </g>
  <g id="axes_1">
   <g id="LineCollection_1">
    <path d="M 140.878184 146.553531 
L 155.50238 112.851567 
" clip-path="url(#p22cbab9cfd)" style="fill: none; stroke: #000000; stroke-width: 1.2"/>
    <path d="M 140.878184 146.553531 
L 130.54403 175.155818 
" clip-path="url(#p22cbab9cfd)" style="fill: none; stroke: #000000; stroke-width: 1.2"/>
    <path d="M 140.878184 146.553531 
L 119.006878 130.248183 
" clip-path="url(#p22cbab9cfd)" style="fill: none; stroke: #000000; stroke-width: 1.2"/>
    <path d="M 140.878184 146.553531 
L 146.60807 178.31911 
" clip-path="url(#p22cbab9cfd)" style="fill: none; stroke: #000000; stroke-width: 1.2"/>
    <path d="M 140.878184 146.553531 
L 113.794629 145.800649 
" clip-path="url(#p22cbab9cfd)" style="fill: none; stroke: #000000; stroke-width: 1.2"/>
    <path d="M 140.878184 146.553531 
L 177.721872 155.984785 
" clip-path="url(#p22cbab9cfd)" style="fill: none; stroke: #000000; stroke-width: 1.2"/>
    <path d="M 186.565751 99.748593 
L 189.490059 73.014263 
" clip-path="url(#p22cbab9cfd)" style="fill: none; stroke: #000000; stroke-width: 1.2"/>
    <path d="M 186.565751 99.748593 
L 155.50238 112.851567 
" clip-path="url(#p22cbab9cfd)" style="fill: none; stroke: #000000; stroke-width: 1.2"/>
    <path d="M 186.565751 99.748593 
L 218.082231 102.943236 
" clip-path="url(#p22cbab9cfd)" style="fill: none; stroke: #000000; stroke-width: 1.2"/>
    <path d="M 186.565751 99.748593 
L 213.80458 83.844474 
" clip-path="url(#p22cbab9cfd)" style="fill: none; stroke: #000000; stroke-width: 1.2"/>
    <path d="M 186.565751 99.748593 
L 179.461917 67.768287 
" clip-path="url(#p22cbab9cfd)" style="fill: none; stroke: #000000; stroke-width: 1.2"/>
    <path d="M 186.565751 99.748593 
L 163.978731 117.078685 
" clip-path="url(#p22cbab9cfd)" style="fill: none; stroke: #000000; stroke-width: 1.2"/>
    <path d="M 88.077441 117.872666 
L 71.585987 105.39456 
" clip-path="url(#p22cbab9cfd)" style="fill: none; stroke: #000000; stroke-width: 1.2"/>
    <path d="M 88.077441 117.872666 
L 61.179376 114.393769 
" clip-path="url(#p22cbab9cfd)" style="fill: none; stroke: #000000; stroke-width: 1.2"/>
    <path d="M 88.077441 117.872666 
L 119.006878 130.248183 
" clip-path="url(#p22cbab9cfd)" style="fill: none; stroke: #000000; stroke-width: 1.2"/>
    <path d="M 88.077441 117.872666 
L 79.602527 84.086476 
" clip-path="url(#p22cbab9cfd)" style="fill: none; stroke: #000000; stroke-width: 1.2"/>
    <path d="M 88.077441 117.872666 
L 57.307357 126.921003 
" clip-path="url(#p22cbab9cfd)" style="fill: none; stroke: #000000; stroke-width: 1.2"/>
    <path d="M 88.077441 117.872666 
L 60.808544 140.268137 
" clip-path="url(#p22cbab9cfd)" style="fill: none; stroke: #000000; stroke-width: 1.2"/>
    <path d="M 124.418764 208.212017 
L 130.54403 175.155818 
" clip-path="url(#p22cbab9cfd)" style="fill: none; stroke: #000000; stroke-width: 1.2"/>
    <path d="M 124.418764 208.212017 
L 115.00567 226.739864 
" clip-path="url(#p22cbab9cfd)" style="fill: none; stroke: #000000; stroke-width: 1.2"/>
    <path d="M 124.418764 208.212017 
L 125.756886 235.292049 
" clip-path="url(#p22cbab9cfd)" style="fill: none; stroke: #000000; stroke-width: 1.2"/>
    <path d="M 124.418764 208.212017 
L 92.40126 221.328858 
" clip-path="url(#p22cbab9cfd)" style="fill: none; stroke: #000000; stroke-width: 1.2"/>
    <path d="M 124.418764 208.212017 
L 138.76674 237.076364 
" clip-path="url(#p22cbab9cfd)" style="fill: none; stroke: #000000; stroke-width: 1.2"/>
    <path d="M 124.418764 208.212017 
L 151.561642 231.748896 
" clip-path="url(#p22cbab9cfd)" style="fill: none; stroke: #000000; stroke-width: 1.2"/>
    <path d="M 145.236458 149.483971 
L 130.54403 175.155818 
" clip-path="url(#p22cbab9cfd)" style="fill: none; stroke: #000000; stroke-width: 1.2"/>
    <path d="M 145.236458 149.483971 
L 119.006878 130.248183 
" clip-path="url(#p22cbab9cfd)" style="fill: none; stroke: #000000; stroke-width: 1.2"/>
    <path d="M 145.236458 149.483971 
L 163.978731 117.078685 
" clip-path="url(#p22cbab9cfd)" style="fill: none; stroke: #000000; stroke-width: 1.2"/>
    <path d="M 145.236458 149.483971 
L 146.60807 178.31911 
" clip-path="url(#p22cbab9cfd)" style="fill: none; stroke: #000000; stroke-width: 1.2"/>
    <path d="M 145.236458 149.483971 
L 113.794629 145.800649 
" clip-path="url(#p22cbab9cfd)" style="fill: none; stroke: #000000; stroke-width: 1.2"/>
    <path d="M 145.236458 149.483971 
L 177.721872 155.984785 
" clip-path="url(#p22cbab9cfd)" style="fill: none; stroke: #000000; stroke-width: 1.2"/>
    <path d="M 145.236458 149.483971 
L 164.134451 162.571415 
" clip-path="url(#p22cbab9cfd)" style="fill: none; stroke: #000000; stroke-width: 1.2"/>
    <path d="M 145.236458 149.483971 
L 162.667591 141.078304 
" clip-path="url(#p22cbab9cfd)" style="fill: none; stroke: #000000; stroke-width: 1.2"/>
    <path d="M 158.737426 85.109224 
L 189.490059 73.014263 
" clip-path="url(#p22cbab9cfd)" style="fill: none; stroke: #000000; stroke-width: 1.2"/>
    <path d="M 158.737426 85.109224 
L 155.50238 112.851567 
" clip-path="url(#p22cbab9cfd)" style="fill: none; stroke: #000000; stroke-width: 1.2"/>
    <path d="M 158.737426 85.109224 
L 179.461917 67.768287 
" clip-path="url(#p22cbab9cfd)" style="fill: none; stroke: #000000; stroke-width: 1.2"/>
    <path d="M 158.737426 85.109224 
L 163.978731 117.078685 
" clip-path="url(#p22cbab9cfd)" style="fill: none; stroke: #000000; stroke-width: 1.2"/>
    <path d="M 158.737426 85.109224 
L 157.014627 53.803636 
" clip-path="url(#p22cbab9cfd)" style="fill: none; stroke: #000000; stroke-width: 1.2"/>
    <path d="M 158.737426 85.109224 
L 138.825231 61.167913 
" clip-path="url(#p22cbab9cfd)" style="fill: none; stroke: #000000; stroke-width: 1.2"/>
    <path d="M 81.380749 139.226264 
L 71.585987 105.39456 
" clip-path="url(#p22cbab9cfd)" style="fill: none; stroke: #000000; stroke-width: 1.2"/>
    <path d="M 81.380749 139.226264 
L 61.179376 114.393769 
" clip-path="url(#p22cbab9cfd)" style="fill: none; stroke: #000000; stroke-width: 1.2"/>
    <path d="M 81.380749 139.226264 
L 57.307357 126.921003 
" clip-path="url(#p22cbab9cfd)" style="fill: none; stroke: #000000; stroke-width: 1.2"/>
    <path d="M 81.380749 139.226264 
L 60.808544 140.268137 
" clip-path="url(#p22cbab9cfd)" style="fill: none; stroke: #000000; stroke-width: 1.2"/>
    <path d="M 81.380749 139.226264 
L 113.794629 145.800649 
" clip-path="url(#p22cbab9cfd)" style="fill: none; stroke: #000000; stroke-width: 1.2"/>
    <path d="M 81.380749 139.226264 
L 55.368595 162.402287 
" clip-path="url(#p22cbab9cfd)" style="fill: none; stroke: #000000; stroke-width: 1.2"/>
    <path d="M 147.064645 211.629148 
L 115.00567 226.739864 
" clip-path="url(#p22cbab9cfd)" style="fill: none; stroke: #000000; stroke-width: 1.2"/>
    <path d="M 147.064645 211.629148 
L 125.756886 235.292049 
" clip-path="url(#p22cbab9cfd)" style="fill: none; stroke: #000000; stroke-width: 1.2"/>
    <path d="M 147.064645 211.629148 
L 146.60807 178.31911 
" clip-path="url(#p22cbab9cfd)" style="fill: none; stroke: #000000; stroke-width: 1.2"/>
    <path d="M 147.064645 211.629148 
L 138.76674 237.076364 
" clip-path="url(#p22cbab9cfd)" style="fill: none; stroke: #000000; stroke-width: 1.2"/>
    <path d="M 147.064645 211.629148 
L 151.561642 231.748896 
" clip-path="url(#p22cbab9cfd)" style="fill: none; stroke: #000000; stroke-width: 1.2"/>
    <path d="M 147.064645 211.629148 
L 175.132082 232.909279 
" clip-path="url(#p22cbab9cfd)" style="fill: none; stroke: #000000; stroke-width: 1.2"/>
    <path d="M 177.721872 155.984785 
L 193.837629 180.312512 
" clip-path="url(#p22cbab9cfd)" style="fill: none; stroke: #000000; stroke-width: 1.2"/>
    <path d="M 177.721872 155.984785 
L 164.134451 162.571415 
" clip-path="url(#p22cbab9cfd)" style="fill: none; stroke: #000000; stroke-width: 1.2"/>
    <path d="M 177.721872 155.984785 
L 210.336907 161.843972 
" clip-path="url(#p22cbab9cfd)" style="fill: none; stroke: #000000; stroke-width: 1.2"/>
    <path d="M 164.134451 162.571415 
L 162.667591 141.078304 
" clip-path="url(#p22cbab9cfd)" style="fill: none; stroke: #000000; stroke-width: 1.2"/>
    <path d="M 210.336907 161.843972 
L 232.697111 184.779424 
" clip-path="url(#p22cbab9cfd)" style="fill: none; stroke: #000000; stroke-width: 1.2"/>
    <path d="M 210.336907 161.843972 
L 239.831405 156.17216 
" clip-path="url(#p22cbab9cfd)" style="fill: none; stroke: #000000; stroke-width: 1.2"/>
   </g>
   <g id="PathCollection_1">
    <defs>
     <path id="C0_0_bb85e4409b" d="M 0 8.944272 
C 2.372049 8.944272 4.647264 8.001847 6.324555 6.324555 
C 8.001847 4.647264 8.944272 2.372049 8.944272 -0 
C 8.944272 -2.372049 8.001847 -4.647264 6.324555 -6.324555 
C 4.647264 -8.001847 2.372049 -8.944272 0 -8.944272 
C -2.372049 -8.944272 -4.647264 -8.001847 -6.324555 -6.324555 
C -8.001847 -4.647264 -8.944272 -2.372049 -8.944272 0 
C -8.944272 2.372049 -8.001847 4.647264 -6.324555 6.324555 
C -4.647264 8.001847 -2.372049 8.944272 0 8.944272 
z
"/>
    </defs>
    <g clip-path="url(#p22cbab9cfd)">
     <use xlink:href="#C0_0_bb85e4409b" x="140.878184" y="146.553531" style="fill: #175487; stroke: #175487; stroke-width: 0.5"/>
    </g>
    <g clip-path="url(#p22cbab9cfd)">
     <use xlink:href="#C0_0_bb85e4409b" x="186.565751" y="99.748593" style="fill: #175487; stroke: #175487; stroke-width: 0.5"/>
    </g>
    <g clip-path="url(#p22cbab9cfd)">
     <use xlink:href="#C0_0_bb85e4409b" x="88.077441" y="117.872666" style="fill: #175487; stroke: #175487; stroke-width: 0.5"/>
    </g>
    <g clip-path="url(#p22cbab9cfd)">
     <use xlink:href="#C0_0_bb85e4409b" x="124.418764" y="208.212017" style="fill: #175487; stroke: #175487; stroke-width: 0.5"/>
    </g>
    <g clip-path="url(#p22cbab9cfd)">
     <use xlink:href="#C0_0_bb85e4409b" x="145.236458" y="149.483971" style="fill: #175487; stroke: #175487; stroke-width: 0.5"/>
    </g>
    <g clip-path="url(#p22cbab9cfd)">
     <use xlink:href="#C0_0_bb85e4409b" x="158.737426" y="85.109224" style="fill: #175487; stroke: #175487; stroke-width: 0.5"/>
    </g>
    <g clip-path="url(#p22cbab9cfd)">
     <use xlink:href="#C0_0_bb85e4409b" x="81.380749" y="139.226264" style="fill: #175487; stroke: #175487; stroke-width: 0.5"/>
    </g>
    <g clip-path="url(#p22cbab9cfd)">
     <use xlink:href="#C0_0_bb85e4409b" x="147.064645" y="211.629148" style="fill: #175487; stroke: #175487; stroke-width: 0.5"/>
    </g>
    <g clip-path="url(#p22cbab9cfd)">
     <use xlink:href="#C0_0_bb85e4409b" x="189.490059" y="73.014263" style="fill: #ff0d0d; stroke: #ff0d0d; stroke-width: 0.5"/>
    </g>
    <g clip-path="url(#p22cbab9cfd)">
     <use xlink:href="#C0_0_bb85e4409b" x="71.585987" y="105.39456" style="fill: #ff0d0d; stroke: #ff0d0d; stroke-width: 0.5"/>
    </g>
    <g clip-path="url(#p22cbab9cfd)">
     <use xlink:href="#C0_0_bb85e4409b" x="155.50238" y="112.851567" style="fill: #ff0d0d; stroke: #ff0d0d; stroke-width: 0.5"/>
    </g>
    <g clip-path="url(#p22cbab9cfd)">
     <use xlink:href="#C0_0_bb85e4409b" x="61.179376" y="114.393769" style="fill: #ff0d0d; stroke: #ff0d0d; stroke-width: 0.5"/>
    </g>
    <g clip-path="url(#p22cbab9cfd)">
     <use xlink:href="#C0_0_bb85e4409b" x="218.082231" y="102.943236" style="fill: #ff0d0d; stroke: #ff0d0d; stroke-width: 0.5"/>
    </g>
    <g clip-path="url(#p22cbab9cfd)">
     <use xlink:href="#C0_0_bb85e4409b" x="130.54403" y="175.155818" style="fill: #ff0d0d; stroke: #ff0d0d; stroke-width: 0.5"/>
    </g>
    <g clip-path="url(#p22cbab9cfd)">
     <use xlink:href="#C0_0_bb85e4409b" x="213.80458" y="83.844474" style="fill: #ff0d0d; stroke: #ff0d0d; stroke-width: 0.5"/>
    </g>
    <g clip-path="url(#p22cbab9cfd)">
     <use xlink:href="#C0_0_bb85e4409b" x="119.006878" y="130.248183" style="fill: #ff0d0d; stroke: #ff0d0d; stroke-width: 0.5"/>
    </g>
    <g clip-path="url(#p22cbab9cfd)">
     <use xlink:href="#C0_0_bb85e4409b" x="115.00567" y="226.739864" style="fill: #ff0d0d; stroke: #ff0d0d; stroke-width: 0.5"/>
    </g>
    <g clip-path="url(#p22cbab9cfd)">
     <use xlink:href="#C0_0_bb85e4409b" x="125.756886" y="235.292049" style="fill: #ff0d0d; stroke: #ff0d0d; stroke-width: 0.5"/>
    </g>
    <g clip-path="url(#p22cbab9cfd)">
     <use xlink:href="#C0_0_bb85e4409b" x="79.602527" y="84.086476" style="fill: #ff0d0d; stroke: #ff0d0d; stroke-width: 0.5"/>
    </g>
    <g clip-path="url(#p22cbab9cfd)">
     <use xlink:href="#C0_0_bb85e4409b" x="92.40126" y="221.328858" style="fill: #ff0d0d; stroke: #ff0d0d; stroke-width: 0.5"/>
    </g>
    <g clip-path="url(#p22cbab9cfd)">
     <use xlink:href="#C0_0_bb85e4409b" x="179.461917" y="67.768287" style="fill: #ff0d0d; stroke: #ff0d0d; stroke-width: 0.5"/>
    </g>
    <g clip-path="url(#p22cbab9cfd)">
     <use xlink:href="#C0_0_bb85e4409b" x="57.307357" y="126.921003" style="fill: #ff0d0d; stroke: #ff0d0d; stroke-width: 0.5"/>
    </g>
    <g clip-path="url(#p22cbab9cfd)">
     <use xlink:href="#C0_0_bb85e4409b" x="163.978731" y="117.078685" style="fill: #ff0d0d; stroke: #ff0d0d; stroke-width: 0.5"/>
    </g>
    <g clip-path="url(#p22cbab9cfd)">
     <use xlink:href="#C0_0_bb85e4409b" x="60.808544" y="140.268137" style="fill: #ff0d0d; stroke: #ff0d0d; stroke-width: 0.5"/>
    </g>
    <g clip-path="url(#p22cbab9cfd)">
     <use xlink:href="#C0_0_bb85e4409b" x="157.014627" y="53.803636" style="fill: #ff0d0d; stroke: #ff0d0d; stroke-width: 0.5"/>
    </g>
    <g clip-path="url(#p22cbab9cfd)">
     <use xlink:href="#C0_0_bb85e4409b" x="146.60807" y="178.31911" style="fill: #ff0d0d; stroke: #ff0d0d; stroke-width: 0.5"/>
    </g>
    <g clip-path="url(#p22cbab9cfd)">
     <use xlink:href="#C0_0_bb85e4409b" x="138.825231" y="61.167913" style="fill: #ff0d0d; stroke: #ff0d0d; stroke-width: 0.5"/>
    </g>
    <g clip-path="url(#p22cbab9cfd)">
     <use xlink:href="#C0_0_bb85e4409b" x="113.794629" y="145.800649" style="fill: #ff0d0d; stroke: #ff0d0d; stroke-width: 0.5"/>
    </g>
    <g clip-path="url(#p22cbab9cfd)">
     <use xlink:href="#C0_0_bb85e4409b" x="138.76674" y="237.076364" style="fill: #ff0d0d; stroke: #ff0d0d; stroke-width: 0.5"/>
    </g>
    <g clip-path="url(#p22cbab9cfd)">
     <use xlink:href="#C0_0_bb85e4409b" x="151.561642" y="231.748896" style="fill: #ff0d0d; stroke: #ff0d0d; stroke-width: 0.5"/>
    </g>
    <g clip-path="url(#p22cbab9cfd)">
     <use xlink:href="#C0_0_bb85e4409b" x="55.368595" y="162.402287" style="fill: #ff0d0d; stroke: #ff0d0d; stroke-width: 0.5"/>
    </g>
    <g clip-path="url(#p22cbab9cfd)">
     <use xlink:href="#C0_0_bb85e4409b" x="175.132082" y="232.909279" style="fill: #ff0d0d; stroke: #ff0d0d; stroke-width: 0.5"/>
    </g>
    <g clip-path="url(#p22cbab9cfd)">
     <use xlink:href="#C0_0_bb85e4409b" x="177.721872" y="155.984785" style="fill: #666666; stroke: #666666; stroke-width: 0.5"/>
    </g>
    <g clip-path="url(#p22cbab9cfd)">
     <use xlink:href="#C0_0_bb85e4409b" x="193.837629" y="180.312512" style="fill: #bfbfbf; stroke: #bfbfbf; stroke-width: 0.5"/>
    </g>
    <g clip-path="url(#p22cbab9cfd)">
     <use xlink:href="#C0_0_bb85e4409b" x="164.134451" y="162.571415" style="fill: #0d0dff; stroke: #0d0dff; stroke-width: 0.5"/>
    </g>
    <g clip-path="url(#p22cbab9cfd)">
     <use xlink:href="#C0_0_bb85e4409b" x="162.667591" y="141.078304" style="fill: #bfbfbf; stroke: #bfbfbf; stroke-width: 0.5"/>
    </g>
    <g clip-path="url(#p22cbab9cfd)">
     <use xlink:href="#C0_0_bb85e4409b" x="210.336907" y="161.843972" style="fill: #0d0dff; stroke: #0d0dff; stroke-width: 0.5"/>
    </g>
    <g clip-path="url(#p22cbab9cfd)">
     <use xlink:href="#C0_0_bb85e4409b" x="232.697111" y="184.779424" style="fill: #bfbfbf; stroke: #bfbfbf; stroke-width: 0.5"/>
    </g>
    <g clip-path="url(#p22cbab9cfd)">
     <use xlink:href="#C0_0_bb85e4409b" x="239.831405" y="156.17216" style="fill: #bfbfbf; stroke: #bfbfbf; stroke-width: 0.5"/>
    </g>
   </g>
   <g id="text_1">
    <g clip-path="url(#p22cbab9cfd)">
     <!-- Ir -->
     <g style="fill: #ffffff" transform="translate(135.687247 149.864781) scale(0.12 -0.12)">
      <defs>
       <path id="DejaVuSans-Bold-49" d="M 588 4666 
L 1791 4666 
L 1791 0 
L 588 0 
L 588 4666 
z
" transform="scale(0.015625)"/>
       <path id="DejaVuSans-Bold-72" d="M 3138 2547 
Q 2991 2616 2845 2648 
Q 2700 2681 2553 2681 
Q 2122 2681 1889 2404 
Q 1656 2128 1656 1613 
L 1656 0 
L 538 0 
L 538 3500 
L 1656 3500 
L 1656 2925 
Q 1872 3269 2151 3426 
Q 2431 3584 2822 3584 
Q 2878 3584 2943 3579 
Q 3009 3575 3134 3559 
L 3138 2547 
z
" transform="scale(0.015625)"/>
      </defs>
      <use xlink:href="#DejaVuSans-Bold-49"/>
      <use xlink:href="#DejaVuSans-Bold-72" transform="translate(37.207031 0)"/>
     </g>
    </g>
   </g>
   <g id="text_2">
    <g clip-path="url(#p22cbab9cfd)">
     <!-- Ir -->
     <g style="fill: #ffffff" transform="translate(181.374813 103.059843) scale(0.12 -0.12)">
      <use xlink:href="#DejaVuSans-Bold-49"/>
      <use xlink:href="#DejaVuSans-Bold-72" transform="translate(37.207031 0)"/>
     </g>
    </g>
   </g>
   <g id="text_3">
    <g clip-path="url(#p22cbab9cfd)">
     <!-- Ir -->
     <g style="fill: #ffffff" transform="translate(82.886503 121.183916) scale(0.12 -0.12)">
      <use xlink:href="#DejaVuSans-Bold-49"/>
      <use xlink:href="#DejaVuSans-Bold-72" transform="translate(37.207031 0)"/>
     </g>
    </g>
   </g>
   <g id="text_4">
    <g clip-path="url(#p22cbab9cfd)">
     <!-- Ir -->
     <g style="fill: #ffffff" transform="translate(119.227827 211.523267) scale(0.12 -0.12)">
      <use xlink:href="#DejaVuSans-Bold-49"/>
      <use xlink:href="#DejaVuSans-Bold-72" transform="translate(37.207031 0)"/>
     </g>
    </g>
   </g>
   <g id="text_5">
    <g clip-path="url(#p22cbab9cfd)">
     <!-- Ir -->
     <g style="fill: #ffffff" transform="translate(140.045521 152.795221) scale(0.12 -0.12)">
      <use xlink:href="#DejaVuSans-Bold-49"/>
      <use xlink:href="#DejaVuSans-Bold-72" transform="translate(37.207031 0)"/>
     </g>
    </g>
   </g>
   <g id="text_6">
    <g clip-path="url(#p22cbab9cfd)">
     <!-- Ir -->
     <g style="fill: #ffffff" transform="translate(153.546488 88.420474) scale(0.12 -0.12)">
      <use xlink:href="#DejaVuSans-Bold-49"/>
      <use xlink:href="#DejaVuSans-Bold-72" transform="translate(37.207031 0)"/>
     </g>
    </g>
   </g>
   <g id="text_7">
    <g clip-path="url(#p22cbab9cfd)">
     <!-- Ir -->
     <g style="fill: #ffffff" transform="translate(76.189811 142.537514) scale(0.12 -0.12)">
      <use xlink:href="#DejaVuSans-Bold-49"/>
      <use xlink:href="#DejaVuSans-Bold-72" transform="translate(37.207031 0)"/>
     </g>
    </g>
   </g>
   <g id="text_8">
    <g clip-path="url(#p22cbab9cfd)">
     <!-- Ir -->
     <g style="fill: #ffffff" transform="translate(141.873708 214.940398) scale(0.12 -0.12)">
      <use xlink:href="#DejaVuSans-Bold-49"/>
      <use xlink:href="#DejaVuSans-Bold-72" transform="translate(37.207031 0)"/>
     </g>
    </g>
   </g>
   <g id="text_9">
    <g clip-path="url(#p22cbab9cfd)">
     <!-- O -->
     <g style="fill: #ffffff" transform="translate(184.389122 76.325513) scale(0.12 -0.12)">
      <defs>
       <path id="DejaVuSans-Bold-4f" d="M 2719 3878 
Q 2169 3878 1866 3472 
Q 1563 3066 1563 2328 
Q 1563 1594 1866 1187 
Q 2169 781 2719 781 
Q 3272 781 3575 1187 
Q 3878 1594 3878 2328 
Q 3878 3066 3575 3472 
Q 3272 3878 2719 3878 
z
M 2719 4750 
Q 3844 4750 4481 4106 
Q 5119 3463 5119 2328 
Q 5119 1197 4481 553 
Q 3844 -91 2719 -91 
Q 1597 -91 958 553 
Q 319 1197 319 2328 
Q 319 3463 958 4106 
Q 1597 4750 2719 4750 
z
" transform="scale(0.015625)"/>
      </defs>
      <use xlink:href="#DejaVuSans-Bold-4f"/>
     </g>
    </g>
   </g>
   <g id="text_10">
    <g clip-path="url(#p22cbab9cfd)">
     <!-- O -->
     <g style="fill: #ffffff" transform="translate(66.485049 108.70581) scale(0.12 -0.12)">
      <use xlink:href="#DejaVuSans-Bold-4f"/>
     </g>
    </g>
   </g>
   <g id="text_11">
    <g clip-path="url(#p22cbab9cfd)">
     <!-- O -->
     <g style="fill: #ffffff" transform="translate(150.401442 116.162817) scale(0.12 -0.12)">
      <use xlink:href="#DejaVuSans-Bold-4f"/>
     </g>
    </g>
   </g>
   <g id="text_12">
    <g clip-path="url(#p22cbab9cfd)">
     <!-- O -->
     <g style="fill: #ffffff" transform="translate(56.078438 117.705019) scale(0.12 -0.12)">
      <use xlink:href="#DejaVuSans-Bold-4f"/>
     </g>
    </g>
   </g>
   <g id="text_13">
    <g clip-path="url(#p22cbab9cfd)">
     <!-- O -->
     <g style="fill: #ffffff" transform="translate(212.981294 106.254486) scale(0.12 -0.12)">
      <use xlink:href="#DejaVuSans-Bold-4f"/>
     </g>
    </g>
   </g>
   <g id="text_14">
    <g clip-path="url(#p22cbab9cfd)">
     <!-- O -->
     <g style="fill: #ffffff" transform="translate(125.443092 178.467068) scale(0.12 -0.12)">
      <use xlink:href="#DejaVuSans-Bold-4f"/>
     </g>
    </g>
   </g>
   <g id="text_15">
    <g clip-path="url(#p22cbab9cfd)">
     <!-- O -->
     <g style="fill: #ffffff" transform="translate(208.703643 87.155724) scale(0.12 -0.12)">
      <use xlink:href="#DejaVuSans-Bold-4f"/>
     </g>
    </g>
   </g>
   <g id="text_16">
    <g clip-path="url(#p22cbab9cfd)">
     <!-- O -->
     <g style="fill: #ffffff" transform="translate(113.90594 133.559433) scale(0.12 -0.12)">
      <use xlink:href="#DejaVuSans-Bold-4f"/>
     </g>
    </g>
   </g>
   <g id="text_17">
    <g clip-path="url(#p22cbab9cfd)">
     <!-- O -->
     <g style="fill: #ffffff" transform="translate(109.904732 230.051114) scale(0.12 -0.12)">
      <use xlink:href="#DejaVuSans-Bold-4f"/>
     </g>
    </g>
   </g>
   <g id="text_18">
    <g clip-path="url(#p22cbab9cfd)">
     <!-- O -->
     <g style="fill: #ffffff" transform="translate(120.655949 238.603299) scale(0.12 -0.12)">
      <use xlink:href="#DejaVuSans-Bold-4f"/>
     </g>
    </g>
   </g>
   <g id="text_19">
    <g clip-path="url(#p22cbab9cfd)">
     <!-- O -->
     <g style="fill: #ffffff" transform="translate(74.50159 87.397726) scale(0.12 -0.12)">
      <use xlink:href="#DejaVuSans-Bold-4f"/>
     </g>
    </g>
   </g>
   <g id="text_20">
    <g clip-path="url(#p22cbab9cfd)">
     <!-- O -->
     <g style="fill: #ffffff" transform="translate(87.300322 224.640108) scale(0.12 -0.12)">
      <use xlink:href="#DejaVuSans-Bold-4f"/>
     </g>
    </g>
   </g>
   <g id="text_21">
    <g clip-path="url(#p22cbab9cfd)">
     <!-- O -->
     <g style="fill: #ffffff" transform="translate(174.360979 71.079537) scale(0.12 -0.12)">
      <use xlink:href="#DejaVuSans-Bold-4f"/>
     </g>
    </g>
   </g>
   <g id="text_22">
    <g clip-path="url(#p22cbab9cfd)">
     <!-- O -->
     <g style="fill: #ffffff" transform="translate(52.20642 130.232253) scale(0.12 -0.12)">
      <use xlink:href="#DejaVuSans-Bold-4f"/>
     </g>
    </g>
   </g>
   <g id="text_23">
    <g clip-path="url(#p22cbab9cfd)">
     <!-- O -->
     <g style="fill: #ffffff" transform="translate(158.877794 120.389935) scale(0.12 -0.12)">
      <use xlink:href="#DejaVuSans-Bold-4f"/>
     </g>
    </g>
   </g>
   <g id="text_24">
    <g clip-path="url(#p22cbab9cfd)">
     <!-- O -->
     <g style="fill: #ffffff" transform="translate(55.707607 143.579387) scale(0.12 -0.12)">
      <use xlink:href="#DejaVuSans-Bold-4f"/>
     </g>
    </g>
   </g>
   <g id="text_25">
    <g clip-path="url(#p22cbab9cfd)">
     <!-- O -->
     <g style="fill: #ffffff" transform="translate(151.91369 57.114886) scale(0.12 -0.12)">
      <use xlink:href="#DejaVuSans-Bold-4f"/>
     </g>
    </g>
   </g>
   <g id="text_26">
    <g clip-path="url(#p22cbab9cfd)">
     <!-- O -->
     <g style="fill: #ffffff" transform="translate(141.507133 181.63036) scale(0.12 -0.12)">
      <use xlink:href="#DejaVuSans-Bold-4f"/>
     </g>
    </g>
   </g>
   <g id="text_27">
    <g clip-path="url(#p22cbab9cfd)">
     <!-- O -->
     <g style="fill: #ffffff" transform="translate(133.724294 64.479163) scale(0.12 -0.12)">
      <use xlink:href="#DejaVuSans-Bold-4f"/>
     </g>
    </g>
   </g>
   <g id="text_28">
    <g clip-path="url(#p22cbab9cfd)">
     <!-- O -->
     <g style="fill: #ffffff" transform="translate(108.693691 149.111899) scale(0.12 -0.12)">
      <use xlink:href="#DejaVuSans-Bold-4f"/>
     </g>
    </g>
   </g>
   <g id="text_29">
    <g clip-path="url(#p22cbab9cfd)">
     <!-- O -->
     <g style="fill: #ffffff" transform="translate(133.665802 240.387614) scale(0.12 -0.12)">
      <use xlink:href="#DejaVuSans-Bold-4f"/>
     </g>
    </g>
   </g>
   <g id="text_30">
    <g clip-path="url(#p22cbab9cfd)">
     <!-- O -->
     <g style="fill: #ffffff" transform="translate(146.460704 235.060146) scale(0.12 -0.12)">
      <use xlink:href="#DejaVuSans-Bold-4f"/>
     </g>
    </g>
   </g>
   <g id="text_31">
    <g clip-path="url(#p22cbab9cfd)">
     <!-- O -->
     <g style="fill: #ffffff" transform="translate(50.267658 165.713537) scale(0.12 -0.12)">
      <use xlink:href="#DejaVuSans-Bold-4f"/>
     </g>
    </g>
   </g>
   <g id="text_32">
    <g clip-path="url(#p22cbab9cfd)">
     <!-- O -->
     <g style="fill: #ffffff" transform="translate(170.031145 236.220529) scale(0.12 -0.12)">
      <use xlink:href="#DejaVuSans-Bold-4f"/>
     </g>
    </g>
   </g>
   <g id="text_33">
    <g clip-path="url(#p22cbab9cfd)">
     <!-- C -->
     <g style="fill: #ffffff" transform="translate(173.318435 159.296035) scale(0.12 -0.12)">
      <defs>
       <path id="DejaVuSans-Bold-43" d="M 4288 256 
Q 3956 84 3597 -3 
Q 3238 -91 2847 -91 
Q 1681 -91 1000 561 
Q 319 1213 319 2328 
Q 319 3447 1000 4098 
Q 1681 4750 2847 4750 
Q 3238 4750 3597 4662 
Q 3956 4575 4288 4403 
L 4288 3438 
Q 3953 3666 3628 3772 
Q 3303 3878 2944 3878 
Q 2300 3878 1931 3465 
Q 1563 3053 1563 2328 
Q 1563 1606 1931 1193 
Q 2300 781 2944 781 
Q 3303 781 3628 887 
Q 3953 994 4288 1222 
L 4288 256 
z
" transform="scale(0.015625)"/>
      </defs>
      <use xlink:href="#DejaVuSans-Bold-43"/>
     </g>
    </g>
   </g>
   <g id="text_34">
    <g clip-path="url(#p22cbab9cfd)">
     <!-- H -->
     <g style="fill: #ffffff" transform="translate(188.816379 183.623762) scale(0.12 -0.12)">
      <defs>
       <path id="DejaVuSans-Bold-48" d="M 588 4666 
L 1791 4666 
L 1791 2888 
L 3566 2888 
L 3566 4666 
L 4769 4666 
L 4769 0 
L 3566 0 
L 3566 1978 
L 1791 1978 
L 1791 0 
L 588 0 
L 588 4666 
z
" transform="scale(0.015625)"/>
      </defs>
      <use xlink:href="#DejaVuSans-Bold-48"/>
     </g>
    </g>
   </g>
   <g id="text_35">
    <g clip-path="url(#p22cbab9cfd)">
     <!-- N -->
     <g style="fill: #ffffff" transform="translate(159.113201 165.882665) scale(0.12 -0.12)">
      <defs>
       <path id="DejaVuSans-Bold-4e" d="M 588 4666 
L 1931 4666 
L 3628 1466 
L 3628 4666 
L 4769 4666 
L 4769 0 
L 3425 0 
L 1728 3200 
L 1728 0 
L 588 0 
L 588 4666 
z
" transform="scale(0.015625)"/>
      </defs>
      <use xlink:href="#DejaVuSans-Bold-4e"/>
     </g>
    </g>
   </g>
   <g id="text_36">
    <g clip-path="url(#p22cbab9cfd)">
     <!-- H -->
     <g style="fill: #ffffff" transform="translate(157.646341 144.389554) scale(0.12 -0.12)">
      <use xlink:href="#DejaVuSans-Bold-48"/>
     </g>
    </g>
   </g>
   <g id="text_37">
    <g clip-path="url(#p22cbab9cfd)">
     <!-- N -->
     <g style="fill: #ffffff" transform="translate(205.315657 165.155222) scale(0.12 -0.12)">
      <use xlink:href="#DejaVuSans-Bold-4e"/>
     </g>
    </g>
   </g>
   <g id="text_38">
    <g clip-path="url(#p22cbab9cfd)">
     <!-- H -->
     <g style="fill: #ffffff" transform="translate(227.675861 188.090674) scale(0.12 -0.12)">
      <use xlink:href="#DejaVuSans-Bold-48"/>
     </g>
    </g>
   </g>
   <g id="text_39">
    <g clip-path="url(#p22cbab9cfd)">
     <!-- H -->
     <g style="fill: #ffffff" transform="translate(234.810155 159.48341) scale(0.12 -0.12)">
      <use xlink:href="#DejaVuSans-Bold-48"/>
     </g>
    </g>
   </g>
   <g id="text_40">
    <!-- CH4Ir40N2O80 -->
    <g transform="translate(145.585997 47.941505) scale(0.1 -0.1)">
     <defs>
      <path id="DejaVuSans-43" d="M 4122 4306 
L 4122 3641 
Q 3803 3938 3442 4084 
Q 3081 4231 2675 4231 
Q 1875 4231 1450 3742 
Q 1025 3253 1025 2328 
Q 1025 1406 1450 917 
Q 1875 428 2675 428 
Q 3081 428 3442 575 
Q 3803 722 4122 1019 
L 4122 359 
Q 3791 134 3420 21 
Q 3050 -91 2638 -91 
Q 1578 -91 968 557 
Q 359 1206 359 2328 
Q 359 3453 968 4101 
Q 1578 4750 2638 4750 
Q 3056 4750 3426 4639 
Q 3797 4528 4122 4306 
z
" transform="scale(0.015625)"/>
      <path id="DejaVuSans-48" d="M 628 4666 
L 1259 4666 
L 1259 2753 
L 3553 2753 
L 3553 4666 
L 4184 4666 
L 4184 0 
L 3553 0 
L 3553 2222 
L 1259 2222 
L 1259 0 
L 628 0 
L 628 4666 
z
" transform="scale(0.015625)"/>
      <path id="DejaVuSans-34" d="M 2419 4116 
L 825 1625 
L 2419 1625 
L 2419 4116 
z
M 2253 4666 
L 3047 4666 
L 3047 1625 
L 3713 1625 
L 3713 1100 
L 3047 1100 
L 3047 0 
L 2419 0 
L 2419 1100 
L 313 1100 
L 313 1709 
L 2253 4666 
z
" transform="scale(0.015625)"/>
      <path id="DejaVuSans-49" d="M 628 4666 
L 1259 4666 
L 1259 0 
L 628 0 
L 628 4666 
z
" transform="scale(0.015625)"/>
      <path id="DejaVuSans-72" d="M 2631 2963 
Q 2534 3019 2420 3045 
Q 2306 3072 2169 3072 
Q 1681 3072 1420 2755 
Q 1159 2438 1159 1844 
L 1159 0 
L 581 0 
L 581 3500 
L 1159 3500 
L 1159 2956 
Q 1341 3275 1631 3429 
Q 1922 3584 2338 3584 
Q 2397 3584 2469 3576 
Q 2541 3569 2628 3553 
L 2631 2963 
z
" transform="scale(0.015625)"/>
      <path id="DejaVuSans-30" d="M 2034 4250 
Q 1547 4250 1301 3770 
Q 1056 3291 1056 2328 
Q 1056 1369 1301 889 
Q 1547 409 2034 409 
Q 2525 409 2770 889 
Q 3016 1369 3016 2328 
Q 3016 3291 2770 3770 
Q 2525 4250 2034 4250 
z
M 2034 4750 
Q 2819 4750 3233 4129 
Q 3647 3509 3647 2328 
Q 3647 1150 3233 529 
Q 2819 -91 2034 -91 
Q 1250 -91 836 529 
Q 422 1150 422 2328 
Q 422 3509 836 4129 
Q 1250 4750 2034 4750 
z
" transform="scale(0.015625)"/>
      <path id="DejaVuSans-4e" d="M 628 4666 
L 1478 4666 
L 3547 763 
L 3547 4666 
L 4159 4666 
L 4159 0 
L 3309 0 
L 1241 3903 
L 1241 0 
L 628 0 
L 628 4666 
z
" transform="scale(0.015625)"/>
      <path id="DejaVuSans-32" d="M 1228 531 
L 3431 531 
L 3431 0 
L 469 0 
L 469 531 
Q 828 903 1448 1529 
Q 2069 2156 2228 2338 
Q 2531 2678 2651 2914 
Q 2772 3150 2772 3378 
Q 2772 3750 2511 3984 
Q 2250 4219 1831 4219 
Q 1534 4219 1204 4116 
Q 875 4013 500 3803 
L 500 4441 
Q 881 4594 1212 4672 
Q 1544 4750 1819 4750 
Q 2544 4750 2975 4387 
Q 3406 4025 3406 3419 
Q 3406 3131 3298 2873 
Q 3191 2616 2906 2266 
Q 2828 2175 2409 1742 
Q 1991 1309 1228 531 
z
" transform="scale(0.015625)"/>
      <path id="DejaVuSans-4f" d="M 2522 4238 
Q 1834 4238 1429 3725 
Q 1025 3213 1025 2328 
Q 1025 1447 1429 934 
Q 1834 422 2522 422 
Q 3209 422 3611 934 
Q 4013 1447 4013 2328 
Q 4013 3213 3611 3725 
Q 3209 4238 2522 4238 
z
M 2522 4750 
Q 3503 4750 4090 4092 
Q 4678 3434 4678 2328 
Q 4678 1225 4090 567 
Q 3503 -91 2522 -91 
Q 1538 -91 948 565 
Q 359 1222 359 2328 
Q 359 3434 948 4092 
Q 1538 4750 2522 4750 
z
" transform="scale(0.015625)"/>
      <path id="DejaVuSans-38" d="M 2034 2216 
Q 1584 2216 1326 1975 
Q 1069 1734 1069 1313 
Q 1069 891 1326 650 
Q 1584 409 2034 409 
Q 2484 409 2743 651 
Q 3003 894 3003 1313 
Q 3003 1734 2745 1975 
Q 2488 2216 2034 2216 
z
M 1403 2484 
Q 997 2584 770 2862 
Q 544 3141 544 3541 
Q 544 4100 942 4425 
Q 1341 4750 2034 4750 
Q 2731 4750 3128 4425 
Q 3525 4100 3525 3541 
Q 3525 3141 3298 2862 
Q 3072 2584 2669 2484 
Q 3125 2378 3379 2068 
Q 3634 1759 3634 1313 
Q 3634 634 3220 271 
Q 2806 -91 2034 -91 
Q 1263 -91 848 271 
Q 434 634 434 1313 
Q 434 1759 690 2068 
Q 947 2378 1403 2484 
z
M 1172 3481 
Q 1172 3119 1398 2916 
Q 1625 2713 2034 2713 
Q 2441 2713 2670 2916 
Q 2900 3119 2900 3481 
Q 2900 3844 2670 4047 
Q 2441 4250 2034 4250 
Q 1625 4250 1398 4047 
Q 1172 3844 1172 3481 
z
" transform="scale(0.015625)"/>
     </defs>
     <use xlink:href="#DejaVuSans-43"/>
     <use xlink:href="#DejaVuSans-48" transform="translate(69.824219 0)"/>
     <use xlink:href="#DejaVuSans-34" transform="translate(145.019531 0)"/>
     <use xlink:href="#DejaVuSans-49" transform="translate(208.642578 0)"/>
     <use xlink:href="#DejaVuSans-72" transform="translate(238.134766 0)"/>
     <use xlink:href="#DejaVuSans-34" transform="translate(279.248047 0)"/>
     <use xlink:href="#DejaVuSans-30" transform="translate(342.871094 0)"/>
     <use xlink:href="#DejaVuSans-4e" transform="translate(406.494141 0)"/>
     <use xlink:href="#DejaVuSans-32" transform="translate(481.298828 0)"/>
     <use xlink:href="#DejaVuSans-4f" transform="translate(544.921875 0)"/>
     <use xlink:href="#DejaVuSans-38" transform="translate(623.632812 0)"/>
     <use xlink:href="#DejaVuSans-30" transform="translate(687.255859 0)"/>
    </g>
    <!-- Error: 2.45 eV -->
    <g transform="translate(145.585997 59.139317) scale(0.1 -0.1)">
     <defs>
      <path id="DejaVuSans-45" d="M 628 4666 
L 3578 4666 
L 3578 4134 
L 1259 4134 
L 1259 2753 
L 3481 2753 
L 3481 2222 
L 1259 2222 
L 1259 531 
L 3634 531 
L 3634 0 
L 628 0 
L 628 4666 
z
" transform="scale(0.015625)"/>
      <path id="DejaVuSans-6f" d="M 1959 3097 
Q 1497 3097 1228 2736 
Q 959 2375 959 1747 
Q 959 1119 1226 758 
Q 1494 397 1959 397 
Q 2419 397 2687 759 
Q 2956 1122 2956 1747 
Q 2956 2369 2687 2733 
Q 2419 3097 1959 3097 
z
M 1959 3584 
Q 2709 3584 3137 3096 
Q 3566 2609 3566 1747 
Q 3566 888 3137 398 
Q 2709 -91 1959 -91 
Q 1206 -91 779 398 
Q 353 888 353 1747 
Q 353 2609 779 3096 
Q 1206 3584 1959 3584 
z
" transform="scale(0.015625)"/>
      <path id="DejaVuSans-3a" d="M 750 794 
L 1409 794 
L 1409 0 
L 750 0 
L 750 794 
z
M 750 3309 
L 1409 3309 
L 1409 2516 
L 750 2516 
L 750 3309 
z
" transform="scale(0.015625)"/>
      <path id="DejaVuSans-20" transform="scale(0.015625)"/>
      <path id="DejaVuSans-2e" d="M 684 794 
L 1344 794 
L 1344 0 
L 684 0 
L 684 794 
z
" transform="scale(0.015625)"/>
      <path id="DejaVuSans-35" d="M 691 4666 
L 3169 4666 
L 3169 4134 
L 1269 4134 
L 1269 2991 
Q 1406 3038 1543 3061 
Q 1681 3084 1819 3084 
Q 2600 3084 3056 2656 
Q 3513 2228 3513 1497 
Q 3513 744 3044 326 
Q 2575 -91 1722 -91 
Q 1428 -91 1123 -41 
Q 819 9 494 109 
L 494 744 
Q 775 591 1075 516 
Q 1375 441 1709 441 
Q 2250 441 2565 725 
Q 2881 1009 2881 1497 
Q 2881 1984 2565 2268 
Q 2250 2553 1709 2553 
Q 1456 2553 1204 2497 
Q 953 2441 691 2322 
L 691 4666 
z
" transform="scale(0.015625)"/>
      <path id="DejaVuSans-65" d="M 3597 1894 
L 3597 1613 
L 953 1613 
Q 991 1019 1311 708 
Q 1631 397 2203 397 
Q 2534 397 2845 478 
Q 3156 559 3463 722 
L 3463 178 
Q 3153 47 2828 -22 
Q 2503 -91 2169 -91 
Q 1331 -91 842 396 
Q 353 884 353 1716 
Q 353 2575 817 3079 
Q 1281 3584 2069 3584 
Q 2775 3584 3186 3129 
Q 3597 2675 3597 1894 
z
M 3022 2063 
Q 3016 2534 2758 2815 
Q 2500 3097 2075 3097 
Q 1594 3097 1305 2825 
Q 1016 2553 972 2059 
L 3022 2063 
z
" transform="scale(0.015625)"/>
      <path id="DejaVuSans-56" d="M 1831 0 
L 50 4666 
L 709 4666 
L 2188 738 
L 3669 4666 
L 4325 4666 
L 2547 0 
L 1831 0 
z
" transform="scale(0.015625)"/>
     </defs>
     <use xlink:href="#DejaVuSans-45"/>
     <use xlink:href="#DejaVuSans-72" transform="translate(63.183594 0)"/>
     <use xlink:href="#DejaVuSans-72" transform="translate(102.546875 0)"/>
     <use xlink:href="#DejaVuSans-6f" transform="translate(141.410156 0)"/>
     <use xlink:href="#DejaVuSans-72" transform="translate(202.591797 0)"/>
     <use xlink:href="#DejaVuSans-3a" transform="translate(241.955078 0)"/>
     <use xlink:href="#DejaVuSans-20" transform="translate(275.646484 0)"/>
     <use xlink:href="#DejaVuSans-32" transform="translate(307.433594 0)"/>
     <use xlink:href="#DejaVuSans-2e" transform="translate(371.056641 0)"/>
     <use xlink:href="#DejaVuSans-34" transform="translate(402.84375 0)"/>
     <use xlink:href="#DejaVuSans-35" transform="translate(466.466797 0)"/>
     <use xlink:href="#DejaVuSans-20" transform="translate(530.089844 0)"/>
     <use xlink:href="#DejaVuSans-65" transform="translate(561.876953 0)"/>
     <use xlink:href="#DejaVuSans-56" transform="translate(623.400391 0)"/>
    </g>
   </g>
  </g>
 </g>
 <defs>
  <clipPath id="p22cbab9cfd">
   <rect x="36" y="34.56" width="223.2" height="221.76"/>
  </clipPath>
 </defs>
</svg>
