<?xml version="1.0" encoding="utf-8" standalone="no"?>
<!DOCTYPE svg PUBLIC "-//W3C//DTD SVG 1.1//EN"
  "http://www.w3.org/Graphics/SVG/1.1/DTD/svg11.dtd">
<svg xmlns:xlink="http://www.w3.org/1999/xlink" width="288pt" height="288pt" viewBox="0 0 288 288" xmlns="http://www.w3.org/2000/svg" version="1.1">
 <metadata>
  <rdf:RDF xmlns:dc="http://purl.org/dc/elements/1.1/" xmlns:cc="http://creativecommons.org/ns#" xmlns:rdf="http://www.w3.org/1999/02/22-rdf-syntax-ns#">
   <cc:Work>
    <dc:type rdf:resource="http://purl.org/dc/dcmitype/StillImage"/>
    <dc:date>2025-06-30T11:56:48.106416</dc:date>
    <dc:format>image/svg+xml</dc:format>
    <dc:creator>
     <cc:Agent>
      <dc:title>Matplotlib v3.10.1, https://matplotlib.org/</dc:title>
     </cc:Agent>
    </dc:creator>
   </cc:Work>
  </rdf:RDF>
 </metadata>
 <defs>
  <style type="text/css">*{stroke-linejoin: round; stroke-linecap: butt}</style>
 </defs>
 <g id="figure_1">
  <g id="patch_1">
   <path d="M 0 288 
L 288 288 
L 288 0 
L 0 0 
z
" style="fill: #ffffff"/>
  </g>
  <g id="axes_1">
   <g id="LineCollection_1">
    <path d="M 116.609754 61.946819 
L 90.923385 72.769752 
" clip-path="url(#p9700517f5b)" style="fill: none; stroke: #000000; stroke-width: 1.2"/>
    <path d="M 116.609754 61.946819 
L 129.056003 80.535057 
" clip-path="url(#p9700517f5b)" style="fill: none; stroke: #000000; stroke-width: 1.2"/>
    <path d="M 116.609754 61.946819 
L 147.674657 53.803636 
" clip-path="url(#p9700517f5b)" style="fill: none; stroke: #000000; stroke-width: 1.2"/>
    <path d="M 116.609754 61.946819 
L 180.626478 63.874437 
" clip-path="url(#p9700517f5b)" style="fill: none; stroke: #000000; stroke-width: 1.2"/>
    <path d="M 116.609754 61.946819 
L 55.368595 91.595214 
" clip-path="url(#p9700517f5b)" style="fill: none; stroke: #000000; stroke-width: 1.2"/>
    <path d="M 116.609754 61.946819 
L 75.41009 98.741364 
" clip-path="url(#p9700517f5b)" style="fill: none; stroke: #000000; stroke-width: 1.2"/>
    <path d="M 116.609754 61.946819 
L 191.765927 84.052418 
" clip-path="url(#p9700517f5b)" style="fill: none; stroke: #000000; stroke-width: 1.2"/>
    <path d="M 116.609754 61.946819 
L 111.659207 103.704103 
" clip-path="url(#p9700517f5b)" style="fill: none; stroke: #000000; stroke-width: 1.2"/>
    <path d="M 116.609754 61.946819 
L 139.284712 114.546012 
" clip-path="url(#p9700517f5b)" style="fill: none; stroke: #000000; stroke-width: 1.2"/>
    <path d="M 90.923385 72.769752 
L 129.056003 80.535057 
" clip-path="url(#p9700517f5b)" style="fill: none; stroke: #000000; stroke-width: 1.2"/>
    <path d="M 90.923385 72.769752 
L 147.674657 53.803636 
" clip-path="url(#p9700517f5b)" style="fill: none; stroke: #000000; stroke-width: 1.2"/>
    <path d="M 90.923385 72.769752 
L 158.132424 68.755687 
" clip-path="url(#p9700517f5b)" style="fill: none; stroke: #000000; stroke-width: 1.2"/>
    <path d="M 90.923385 72.769752 
L 55.368595 91.595214 
" clip-path="url(#p9700517f5b)" style="fill: none; stroke: #000000; stroke-width: 1.2"/>
    <path d="M 90.923385 72.769752 
L 60.018303 113.23251 
" clip-path="url(#p9700517f5b)" style="fill: none; stroke: #000000; stroke-width: 1.2"/>
    <path d="M 90.923385 72.769752 
L 170.489959 90.801658 
" clip-path="url(#p9700517f5b)" style="fill: none; stroke: #000000; stroke-width: 1.2"/>
    <path d="M 90.923385 72.769752 
L 111.659207 103.704103 
" clip-path="url(#p9700517f5b)" style="fill: none; stroke: #000000; stroke-width: 1.2"/>
    <path d="M 90.923385 72.769752 
L 118.88581 124.24538 
" clip-path="url(#p9700517f5b)" style="fill: none; stroke: #000000; stroke-width: 1.2"/>
    <path d="M 129.056003 80.535057 
L 158.132424 68.755687 
" clip-path="url(#p9700517f5b)" style="fill: none; stroke: #000000; stroke-width: 1.2"/>
    <path d="M 129.056003 80.535057 
L 180.626478 63.874437 
" clip-path="url(#p9700517f5b)" style="fill: none; stroke: #000000; stroke-width: 1.2"/>
    <path d="M 129.056003 80.535057 
L 60.018303 113.23251 
" clip-path="url(#p9700517f5b)" style="fill: none; stroke: #000000; stroke-width: 1.2"/>
    <path d="M 129.056003 80.535057 
L 75.41009 98.741364 
" clip-path="url(#p9700517f5b)" style="fill: none; stroke: #000000; stroke-width: 1.2"/>
    <path d="M 129.056003 80.535057 
L 197.026648 102.176512 
" clip-path="url(#p9700517f5b)" style="fill: none; stroke: #000000; stroke-width: 1.2"/>
    <path d="M 129.056003 80.535057 
L 118.88581 124.24538 
" clip-path="url(#p9700517f5b)" style="fill: none; stroke: #000000; stroke-width: 1.2"/>
    <path d="M 129.056003 80.535057 
L 139.284712 114.546012 
" clip-path="url(#p9700517f5b)" style="fill: none; stroke: #000000; stroke-width: 1.2"/>
    <path d="M 147.674657 53.803636 
L 158.132424 68.755687 
" clip-path="url(#p9700517f5b)" style="fill: none; stroke: #000000; stroke-width: 1.2"/>
    <path d="M 147.674657 53.803636 
L 180.626478 63.874437 
" clip-path="url(#p9700517f5b)" style="fill: none; stroke: #000000; stroke-width: 1.2"/>
    <path d="M 147.674657 53.803636 
L 113.618593 72.243243 
" clip-path="url(#p9700517f5b)" style="fill: none; stroke: #000000; stroke-width: 1.2"/>
    <path d="M 147.674657 53.803636 
L 89.79605 86.215326 
" clip-path="url(#p9700517f5b)" style="fill: none; stroke: #000000; stroke-width: 1.2"/>
    <path d="M 147.674657 53.803636 
L 191.765927 84.052418 
" clip-path="url(#p9700517f5b)" style="fill: none; stroke: #000000; stroke-width: 1.2"/>
    <path d="M 147.674657 53.803636 
L 170.489959 90.801658 
" clip-path="url(#p9700517f5b)" style="fill: none; stroke: #000000; stroke-width: 1.2"/>
    <path d="M 147.674657 53.803636 
L 146.046797 101.320768 
" clip-path="url(#p9700517f5b)" style="fill: none; stroke: #000000; stroke-width: 1.2"/>
    <path d="M 158.132424 68.755687 
L 180.626478 63.874437 
" clip-path="url(#p9700517f5b)" style="fill: none; stroke: #000000; stroke-width: 1.2"/>
    <path d="M 158.132424 68.755687 
L 89.79605 86.215326 
" clip-path="url(#p9700517f5b)" style="fill: none; stroke: #000000; stroke-width: 1.2"/>
    <path d="M 158.132424 68.755687 
L 118.751219 93.0319 
" clip-path="url(#p9700517f5b)" style="fill: none; stroke: #000000; stroke-width: 1.2"/>
    <path d="M 158.132424 68.755687 
L 170.489959 90.801658 
" clip-path="url(#p9700517f5b)" style="fill: none; stroke: #000000; stroke-width: 1.2"/>
    <path d="M 158.132424 68.755687 
L 197.026648 102.176512 
" clip-path="url(#p9700517f5b)" style="fill: none; stroke: #000000; stroke-width: 1.2"/>
    <path d="M 158.132424 68.755687 
L 154.609555 121.274626 
" clip-path="url(#p9700517f5b)" style="fill: none; stroke: #000000; stroke-width: 1.2"/>
    <path d="M 180.626478 63.874437 
L 113.618593 72.243243 
" clip-path="url(#p9700517f5b)" style="fill: none; stroke: #000000; stroke-width: 1.2"/>
    <path d="M 180.626478 63.874437 
L 118.751219 93.0319 
" clip-path="url(#p9700517f5b)" style="fill: none; stroke: #000000; stroke-width: 1.2"/>
    <path d="M 180.626478 63.874437 
L 191.765927 84.052418 
" clip-path="url(#p9700517f5b)" style="fill: none; stroke: #000000; stroke-width: 1.2"/>
    <path d="M 180.626478 63.874437 
L 197.026648 102.176512 
" clip-path="url(#p9700517f5b)" style="fill: none; stroke: #000000; stroke-width: 1.2"/>
    <path d="M 180.626478 63.874437 
L 175.071907 109.616873 
" clip-path="url(#p9700517f5b)" style="fill: none; stroke: #000000; stroke-width: 1.2"/>
    <path d="M 113.618593 72.243243 
L 89.79605 86.215326 
" clip-path="url(#p9700517f5b)" style="fill: none; stroke: #000000; stroke-width: 1.2"/>
    <path d="M 113.618593 72.243243 
L 118.751219 93.0319 
" clip-path="url(#p9700517f5b)" style="fill: none; stroke: #000000; stroke-width: 1.2"/>
    <path d="M 113.618593 72.243243 
L 55.368595 91.595214 
" clip-path="url(#p9700517f5b)" style="fill: none; stroke: #000000; stroke-width: 1.2"/>
    <path d="M 113.618593 72.243243 
L 75.41009 98.741364 
" clip-path="url(#p9700517f5b)" style="fill: none; stroke: #000000; stroke-width: 1.2"/>
    <path d="M 113.618593 72.243243 
L 146.046797 101.320768 
" clip-path="url(#p9700517f5b)" style="fill: none; stroke: #000000; stroke-width: 1.2"/>
    <path d="M 113.618593 72.243243 
L 175.071907 109.616873 
" clip-path="url(#p9700517f5b)" style="fill: none; stroke: #000000; stroke-width: 1.2"/>
    <path d="M 113.618593 72.243243 
L 96.782301 123.231039 
" clip-path="url(#p9700517f5b)" style="fill: none; stroke: #000000; stroke-width: 1.2"/>
    <path d="M 89.79605 86.215326 
L 118.751219 93.0319 
" clip-path="url(#p9700517f5b)" style="fill: none; stroke: #000000; stroke-width: 1.2"/>
    <path d="M 89.79605 86.215326 
L 55.368595 91.595214 
" clip-path="url(#p9700517f5b)" style="fill: none; stroke: #000000; stroke-width: 1.2"/>
    <path d="M 89.79605 86.215326 
L 60.018303 113.23251 
" clip-path="url(#p9700517f5b)" style="fill: none; stroke: #000000; stroke-width: 1.2"/>
    <path d="M 89.79605 86.215326 
L 146.046797 101.320768 
" clip-path="url(#p9700517f5b)" style="fill: none; stroke: #000000; stroke-width: 1.2"/>
    <path d="M 89.79605 86.215326 
L 154.609555 121.274626 
" clip-path="url(#p9700517f5b)" style="fill: none; stroke: #000000; stroke-width: 1.2"/>
    <path d="M 89.79605 86.215326 
L 82.06351 134.595009 
" clip-path="url(#p9700517f5b)" style="fill: none; stroke: #000000; stroke-width: 1.2"/>
    <path d="M 118.751219 93.0319 
L 60.018303 113.23251 
" clip-path="url(#p9700517f5b)" style="fill: none; stroke: #000000; stroke-width: 1.2"/>
    <path d="M 118.751219 93.0319 
L 75.41009 98.741364 
" clip-path="url(#p9700517f5b)" style="fill: none; stroke: #000000; stroke-width: 1.2"/>
    <path d="M 118.751219 93.0319 
L 154.609555 121.274626 
" clip-path="url(#p9700517f5b)" style="fill: none; stroke: #000000; stroke-width: 1.2"/>
    <path d="M 118.751219 93.0319 
L 175.071907 109.616873 
" clip-path="url(#p9700517f5b)" style="fill: none; stroke: #000000; stroke-width: 1.2"/>
    <path d="M 118.751219 93.0319 
L 110.198937 140.949165 
" clip-path="url(#p9700517f5b)" style="fill: none; stroke: #000000; stroke-width: 1.2"/>
    <path d="M 55.368595 91.595214 
L 60.018303 113.23251 
" clip-path="url(#p9700517f5b)" style="fill: none; stroke: #000000; stroke-width: 1.2"/>
    <path d="M 55.368595 91.595214 
L 75.41009 98.741364 
" clip-path="url(#p9700517f5b)" style="fill: none; stroke: #000000; stroke-width: 1.2"/>
    <path d="M 55.368595 91.595214 
L 96.782301 123.231039 
" clip-path="url(#p9700517f5b)" style="fill: none; stroke: #000000; stroke-width: 1.2"/>
    <path d="M 55.368595 91.595214 
L 82.06351 134.595009 
" clip-path="url(#p9700517f5b)" style="fill: none; stroke: #000000; stroke-width: 1.2"/>
    <path d="M 55.368595 91.595214 
L 111.659207 103.704103 
" clip-path="url(#p9700517f5b)" style="fill: none; stroke: #000000; stroke-width: 1.2"/>
    <path d="M 60.018303 113.23251 
L 75.41009 98.741364 
" clip-path="url(#p9700517f5b)" style="fill: none; stroke: #000000; stroke-width: 1.2"/>
    <path d="M 60.018303 113.23251 
L 82.06351 134.595009 
" clip-path="url(#p9700517f5b)" style="fill: none; stroke: #000000; stroke-width: 1.2"/>
    <path d="M 60.018303 113.23251 
L 110.198937 140.949165 
" clip-path="url(#p9700517f5b)" style="fill: none; stroke: #000000; stroke-width: 1.2"/>
    <path d="M 60.018303 113.23251 
L 118.88581 124.24538 
" clip-path="url(#p9700517f5b)" style="fill: none; stroke: #000000; stroke-width: 1.2"/>
    <path d="M 75.41009 98.741364 
L 96.782301 123.231039 
" clip-path="url(#p9700517f5b)" style="fill: none; stroke: #000000; stroke-width: 1.2"/>
    <path d="M 75.41009 98.741364 
L 110.198937 140.949165 
" clip-path="url(#p9700517f5b)" style="fill: none; stroke: #000000; stroke-width: 1.2"/>
    <path d="M 75.41009 98.741364 
L 139.284712 114.546012 
" clip-path="url(#p9700517f5b)" style="fill: none; stroke: #000000; stroke-width: 1.2"/>
    <path d="M 191.765927 84.052418 
L 170.489959 90.801658 
" clip-path="url(#p9700517f5b)" style="fill: none; stroke: #000000; stroke-width: 1.2"/>
    <path d="M 191.765927 84.052418 
L 197.026648 102.176512 
" clip-path="url(#p9700517f5b)" style="fill: none; stroke: #000000; stroke-width: 1.2"/>
    <path d="M 191.765927 84.052418 
L 146.046797 101.320768 
" clip-path="url(#p9700517f5b)" style="fill: none; stroke: #000000; stroke-width: 1.2"/>
    <path d="M 191.765927 84.052418 
L 175.071907 109.616873 
" clip-path="url(#p9700517f5b)" style="fill: none; stroke: #000000; stroke-width: 1.2"/>
    <path d="M 191.765927 84.052418 
L 111.659207 103.704103 
" clip-path="url(#p9700517f5b)" style="fill: none; stroke: #000000; stroke-width: 1.2"/>
    <path d="M 191.765927 84.052418 
L 139.284712 114.546012 
" clip-path="url(#p9700517f5b)" style="fill: none; stroke: #000000; stroke-width: 1.2"/>
    <path d="M 191.765927 84.052418 
L 181.297282 128.927374 
" clip-path="url(#p9700517f5b)" style="fill: none; stroke: #000000; stroke-width: 1.2"/>
    <path d="M 191.765927 84.052418 
L 214.53611 112.013617 
" clip-path="url(#p9700517f5b)" style="fill: none; stroke: #000000; stroke-width: 1.2"/>
    <path d="M 191.765927 84.052418 
L 229.115328 125.888811 
" clip-path="url(#p9700517f5b)" style="fill: none; stroke: #000000; stroke-width: 1.2"/>
    <path d="M 170.489959 90.801658 
L 197.026648 102.176512 
" clip-path="url(#p9700517f5b)" style="fill: none; stroke: #000000; stroke-width: 1.2"/>
    <path d="M 170.489959 90.801658 
L 146.046797 101.320768 
" clip-path="url(#p9700517f5b)" style="fill: none; stroke: #000000; stroke-width: 1.2"/>
    <path d="M 170.489959 90.801658 
L 154.609555 121.274626 
" clip-path="url(#p9700517f5b)" style="fill: none; stroke: #000000; stroke-width: 1.2"/>
    <path d="M 170.489959 90.801658 
L 111.659207 103.704103 
" clip-path="url(#p9700517f5b)" style="fill: none; stroke: #000000; stroke-width: 1.2"/>
    <path d="M 170.489959 90.801658 
L 118.88581 124.24538 
" clip-path="url(#p9700517f5b)" style="fill: none; stroke: #000000; stroke-width: 1.2"/>
    <path d="M 170.489959 90.801658 
L 153.069655 138.995323 
" clip-path="url(#p9700517f5b)" style="fill: none; stroke: #000000; stroke-width: 1.2"/>
    <path d="M 170.489959 90.801658 
L 214.53611 112.013617 
" clip-path="url(#p9700517f5b)" style="fill: none; stroke: #000000; stroke-width: 1.2"/>
    <path d="M 170.489959 90.801658 
L 212.559778 136.051771 
" clip-path="url(#p9700517f5b)" style="fill: none; stroke: #000000; stroke-width: 1.2"/>
    <path d="M 197.026648 102.176512 
L 154.609555 121.274626 
" clip-path="url(#p9700517f5b)" style="fill: none; stroke: #000000; stroke-width: 1.2"/>
    <path d="M 197.026648 102.176512 
L 175.071907 109.616873 
" clip-path="url(#p9700517f5b)" style="fill: none; stroke: #000000; stroke-width: 1.2"/>
    <path d="M 197.026648 102.176512 
L 118.88581 124.24538 
" clip-path="url(#p9700517f5b)" style="fill: none; stroke: #000000; stroke-width: 1.2"/>
    <path d="M 197.026648 102.176512 
L 139.284712 114.546012 
" clip-path="url(#p9700517f5b)" style="fill: none; stroke: #000000; stroke-width: 1.2"/>
    <path d="M 197.026648 102.176512 
L 175.63299 155.773835 
" clip-path="url(#p9700517f5b)" style="fill: none; stroke: #000000; stroke-width: 1.2"/>
    <path d="M 197.026648 102.176512 
L 212.559778 136.051771 
" clip-path="url(#p9700517f5b)" style="fill: none; stroke: #000000; stroke-width: 1.2"/>
    <path d="M 197.026648 102.176512 
L 229.115328 125.888811 
" clip-path="url(#p9700517f5b)" style="fill: none; stroke: #000000; stroke-width: 1.2"/>
    <path d="M 146.046797 101.320768 
L 154.609555 121.274626 
" clip-path="url(#p9700517f5b)" style="fill: none; stroke: #000000; stroke-width: 1.2"/>
    <path d="M 146.046797 101.320768 
L 175.071907 109.616873 
" clip-path="url(#p9700517f5b)" style="fill: none; stroke: #000000; stroke-width: 1.2"/>
    <path d="M 146.046797 101.320768 
L 96.782301 123.231039 
" clip-path="url(#p9700517f5b)" style="fill: none; stroke: #000000; stroke-width: 1.2"/>
    <path d="M 146.046797 101.320768 
L 82.06351 134.595009 
" clip-path="url(#p9700517f5b)" style="fill: none; stroke: #000000; stroke-width: 1.2"/>
    <path d="M 146.046797 101.320768 
L 214.53611 112.013617 
" clip-path="url(#p9700517f5b)" style="fill: none; stroke: #000000; stroke-width: 1.2"/>
    <path d="M 146.046797 101.320768 
L 177.006392 140.815276 
" clip-path="url(#p9700517f5b)" style="fill: none; stroke: #000000; stroke-width: 1.2"/>
    <path d="M 146.046797 101.320768 
L 155.961257 155.323226 
" clip-path="url(#p9700517f5b)" style="fill: none; stroke: #000000; stroke-width: 1.2"/>
    <path d="M 154.609555 121.274626 
L 175.071907 109.616873 
" clip-path="url(#p9700517f5b)" style="fill: none; stroke: #000000; stroke-width: 1.2"/>
    <path d="M 154.609555 121.274626 
L 82.06351 134.595009 
" clip-path="url(#p9700517f5b)" style="fill: none; stroke: #000000; stroke-width: 1.2"/>
    <path d="M 154.609555 121.274626 
L 110.198937 140.949165 
" clip-path="url(#p9700517f5b)" style="fill: none; stroke: #000000; stroke-width: 1.2"/>
    <path d="M 154.609555 121.274626 
L 212.559778 136.051771 
" clip-path="url(#p9700517f5b)" style="fill: none; stroke: #000000; stroke-width: 1.2"/>
    <path d="M 154.609555 121.274626 
L 155.961257 155.323226 
" clip-path="url(#p9700517f5b)" style="fill: none; stroke: #000000; stroke-width: 1.2"/>
    <path d="M 154.609555 121.274626 
L 190.312308 159.57719 
" clip-path="url(#p9700517f5b)" style="fill: none; stroke: #000000; stroke-width: 1.2"/>
    <path d="M 175.071907 109.616873 
L 96.782301 123.231039 
" clip-path="url(#p9700517f5b)" style="fill: none; stroke: #000000; stroke-width: 1.2"/>
    <path d="M 175.071907 109.616873 
L 110.198937 140.949165 
" clip-path="url(#p9700517f5b)" style="fill: none; stroke: #000000; stroke-width: 1.2"/>
    <path d="M 175.071907 109.616873 
L 229.115328 125.888811 
" clip-path="url(#p9700517f5b)" style="fill: none; stroke: #000000; stroke-width: 1.2"/>
    <path d="M 175.071907 109.616873 
L 177.006392 140.815276 
" clip-path="url(#p9700517f5b)" style="fill: none; stroke: #000000; stroke-width: 1.2"/>
    <path d="M 175.071907 109.616873 
L 190.312308 159.57719 
" clip-path="url(#p9700517f5b)" style="fill: none; stroke: #000000; stroke-width: 1.2"/>
    <path d="M 96.782301 123.231039 
L 82.06351 134.595009 
" clip-path="url(#p9700517f5b)" style="fill: none; stroke: #000000; stroke-width: 1.2"/>
    <path d="M 96.782301 123.231039 
L 110.198937 140.949165 
" clip-path="url(#p9700517f5b)" style="fill: none; stroke: #000000; stroke-width: 1.2"/>
    <path d="M 96.782301 123.231039 
L 111.659207 103.704103 
" clip-path="url(#p9700517f5b)" style="fill: none; stroke: #000000; stroke-width: 1.2"/>
    <path d="M 96.782301 123.231039 
L 139.284712 114.546012 
" clip-path="url(#p9700517f5b)" style="fill: none; stroke: #000000; stroke-width: 1.2"/>
    <path d="M 96.782301 123.231039 
L 177.006392 140.815276 
" clip-path="url(#p9700517f5b)" style="fill: none; stroke: #000000; stroke-width: 1.2"/>
    <path d="M 96.782301 123.231039 
L 102.645169 153.890776 
" clip-path="url(#p9700517f5b)" style="fill: none; stroke: #000000; stroke-width: 1.2"/>
    <path d="M 96.782301 123.231039 
L 132.990009 163.30481 
" clip-path="url(#p9700517f5b)" style="fill: none; stroke: #000000; stroke-width: 1.2"/>
    <path d="M 82.06351 134.595009 
L 110.198937 140.949165 
" clip-path="url(#p9700517f5b)" style="fill: none; stroke: #000000; stroke-width: 1.2"/>
    <path d="M 82.06351 134.595009 
L 111.659207 103.704103 
" clip-path="url(#p9700517f5b)" style="fill: none; stroke: #000000; stroke-width: 1.2"/>
    <path d="M 82.06351 134.595009 
L 118.88581 124.24538 
" clip-path="url(#p9700517f5b)" style="fill: none; stroke: #000000; stroke-width: 1.2"/>
    <path d="M 82.06351 134.595009 
L 155.961257 155.323226 
" clip-path="url(#p9700517f5b)" style="fill: none; stroke: #000000; stroke-width: 1.2"/>
    <path d="M 82.06351 134.595009 
L 102.645169 153.890776 
" clip-path="url(#p9700517f5b)" style="fill: none; stroke: #000000; stroke-width: 1.2"/>
    <path d="M 82.06351 134.595009 
L 123.655212 171.662716 
" clip-path="url(#p9700517f5b)" style="fill: none; stroke: #000000; stroke-width: 1.2"/>
    <path d="M 110.198937 140.949165 
L 118.88581 124.24538 
" clip-path="url(#p9700517f5b)" style="fill: none; stroke: #000000; stroke-width: 1.2"/>
    <path d="M 110.198937 140.949165 
L 139.284712 114.546012 
" clip-path="url(#p9700517f5b)" style="fill: none; stroke: #000000; stroke-width: 1.2"/>
    <path d="M 110.198937 140.949165 
L 190.312308 159.57719 
" clip-path="url(#p9700517f5b)" style="fill: none; stroke: #000000; stroke-width: 1.2"/>
    <path d="M 110.198937 140.949165 
L 123.655212 171.662716 
" clip-path="url(#p9700517f5b)" style="fill: none; stroke: #000000; stroke-width: 1.2"/>
    <path d="M 110.198937 140.949165 
L 132.990009 163.30481 
" clip-path="url(#p9700517f5b)" style="fill: none; stroke: #000000; stroke-width: 1.2"/>
    <path d="M 111.659207 103.704103 
L 118.88581 124.24538 
" clip-path="url(#p9700517f5b)" style="fill: none; stroke: #000000; stroke-width: 1.2"/>
    <path d="M 111.659207 103.704103 
L 139.284712 114.546012 
" clip-path="url(#p9700517f5b)" style="fill: none; stroke: #000000; stroke-width: 1.2"/>
    <path d="M 111.659207 103.704103 
L 181.297282 128.927374 
" clip-path="url(#p9700517f5b)" style="fill: none; stroke: #000000; stroke-width: 1.2"/>
    <path d="M 111.659207 103.704103 
L 153.069655 138.995323 
" clip-path="url(#p9700517f5b)" style="fill: none; stroke: #000000; stroke-width: 1.2"/>
    <path d="M 111.659207 103.704103 
L 102.645169 153.890776 
" clip-path="url(#p9700517f5b)" style="fill: none; stroke: #000000; stroke-width: 1.2"/>
    <path d="M 118.88581 124.24538 
L 139.284712 114.546012 
" clip-path="url(#p9700517f5b)" style="fill: none; stroke: #000000; stroke-width: 1.2"/>
    <path d="M 118.88581 124.24538 
L 153.069655 138.995323 
" clip-path="url(#p9700517f5b)" style="fill: none; stroke: #000000; stroke-width: 1.2"/>
    <path d="M 118.88581 124.24538 
L 175.63299 155.773835 
" clip-path="url(#p9700517f5b)" style="fill: none; stroke: #000000; stroke-width: 1.2"/>
    <path d="M 118.88581 124.24538 
L 123.655212 171.662716 
" clip-path="url(#p9700517f5b)" style="fill: none; stroke: #000000; stroke-width: 1.2"/>
    <path d="M 139.284712 114.546012 
L 181.297282 128.927374 
" clip-path="url(#p9700517f5b)" style="fill: none; stroke: #000000; stroke-width: 1.2"/>
    <path d="M 139.284712 114.546012 
L 175.63299 155.773835 
" clip-path="url(#p9700517f5b)" style="fill: none; stroke: #000000; stroke-width: 1.2"/>
    <path d="M 139.284712 114.546012 
L 132.990009 163.30481 
" clip-path="url(#p9700517f5b)" style="fill: none; stroke: #000000; stroke-width: 1.2"/>
    <path d="M 181.297282 128.927374 
L 153.069655 138.995323 
" clip-path="url(#p9700517f5b)" style="fill: none; stroke: #000000; stroke-width: 1.2"/>
    <path d="M 181.297282 128.927374 
L 175.63299 155.773835 
" clip-path="url(#p9700517f5b)" style="fill: none; stroke: #000000; stroke-width: 1.2"/>
    <path d="M 181.297282 128.927374 
L 214.53611 112.013617 
" clip-path="url(#p9700517f5b)" style="fill: none; stroke: #000000; stroke-width: 1.2"/>
    <path d="M 181.297282 128.927374 
L 229.115328 125.888811 
" clip-path="url(#p9700517f5b)" style="fill: none; stroke: #000000; stroke-width: 1.2"/>
    <path d="M 181.297282 128.927374 
L 102.645169 153.890776 
" clip-path="url(#p9700517f5b)" style="fill: none; stroke: #000000; stroke-width: 1.2"/>
    <path d="M 181.297282 128.927374 
L 132.990009 163.30481 
" clip-path="url(#p9700517f5b)" style="fill: none; stroke: #000000; stroke-width: 1.2"/>
    <path d="M 153.069655 138.995323 
L 175.63299 155.773835 
" clip-path="url(#p9700517f5b)" style="fill: none; stroke: #000000; stroke-width: 1.2"/>
    <path d="M 153.069655 138.995323 
L 214.53611 112.013617 
" clip-path="url(#p9700517f5b)" style="fill: none; stroke: #000000; stroke-width: 1.2"/>
    <path d="M 153.069655 138.995323 
L 212.559778 136.051771 
" clip-path="url(#p9700517f5b)" style="fill: none; stroke: #000000; stroke-width: 1.2"/>
    <path d="M 153.069655 138.995323 
L 102.645169 153.890776 
" clip-path="url(#p9700517f5b)" style="fill: none; stroke: #000000; stroke-width: 1.2"/>
    <path d="M 153.069655 138.995323 
L 123.655212 171.662716 
" clip-path="url(#p9700517f5b)" style="fill: none; stroke: #000000; stroke-width: 1.2"/>
    <path d="M 175.63299 155.773835 
L 212.559778 136.051771 
" clip-path="url(#p9700517f5b)" style="fill: none; stroke: #000000; stroke-width: 1.2"/>
    <path d="M 175.63299 155.773835 
L 229.115328 125.888811 
" clip-path="url(#p9700517f5b)" style="fill: none; stroke: #000000; stroke-width: 1.2"/>
    <path d="M 175.63299 155.773835 
L 123.655212 171.662716 
" clip-path="url(#p9700517f5b)" style="fill: none; stroke: #000000; stroke-width: 1.2"/>
    <path d="M 175.63299 155.773835 
L 132.990009 163.30481 
" clip-path="url(#p9700517f5b)" style="fill: none; stroke: #000000; stroke-width: 1.2"/>
    <path d="M 175.63299 155.773835 
L 139.522183 198.370654 
" clip-path="url(#p9700517f5b)" style="fill: none; stroke: #000000; stroke-width: 1.2"/>
    <path d="M 214.53611 112.013617 
L 212.559778 136.051771 
" clip-path="url(#p9700517f5b)" style="fill: none; stroke: #000000; stroke-width: 1.2"/>
    <path d="M 214.53611 112.013617 
L 229.115328 125.888811 
" clip-path="url(#p9700517f5b)" style="fill: none; stroke: #000000; stroke-width: 1.2"/>
    <path d="M 214.53611 112.013617 
L 177.006392 140.815276 
" clip-path="url(#p9700517f5b)" style="fill: none; stroke: #000000; stroke-width: 1.2"/>
    <path d="M 214.53611 112.013617 
L 155.961257 155.323226 
" clip-path="url(#p9700517f5b)" style="fill: none; stroke: #000000; stroke-width: 1.2"/>
    <path d="M 212.559778 136.051771 
L 229.115328 125.888811 
" clip-path="url(#p9700517f5b)" style="fill: none; stroke: #000000; stroke-width: 1.2"/>
    <path d="M 212.559778 136.051771 
L 155.961257 155.323226 
" clip-path="url(#p9700517f5b)" style="fill: none; stroke: #000000; stroke-width: 1.2"/>
    <path d="M 212.559778 136.051771 
L 190.312308 159.57719 
" clip-path="url(#p9700517f5b)" style="fill: none; stroke: #000000; stroke-width: 1.2"/>
    <path d="M 229.115328 125.888811 
L 177.006392 140.815276 
" clip-path="url(#p9700517f5b)" style="fill: none; stroke: #000000; stroke-width: 1.2"/>
    <path d="M 229.115328 125.888811 
L 190.312308 159.57719 
" clip-path="url(#p9700517f5b)" style="fill: none; stroke: #000000; stroke-width: 1.2"/>
    <path d="M 177.006392 140.815276 
L 155.961257 155.323226 
" clip-path="url(#p9700517f5b)" style="fill: none; stroke: #000000; stroke-width: 1.2"/>
    <path d="M 177.006392 140.815276 
L 190.312308 159.57719 
" clip-path="url(#p9700517f5b)" style="fill: none; stroke: #000000; stroke-width: 1.2"/>
    <path d="M 177.006392 140.815276 
L 102.645169 153.890776 
" clip-path="url(#p9700517f5b)" style="fill: none; stroke: #000000; stroke-width: 1.2"/>
    <path d="M 177.006392 140.815276 
L 132.990009 163.30481 
" clip-path="url(#p9700517f5b)" style="fill: none; stroke: #000000; stroke-width: 1.2"/>
    <path d="M 155.961257 155.323226 
L 190.312308 159.57719 
" clip-path="url(#p9700517f5b)" style="fill: none; stroke: #000000; stroke-width: 1.2"/>
    <path d="M 155.961257 155.323226 
L 102.645169 153.890776 
" clip-path="url(#p9700517f5b)" style="fill: none; stroke: #000000; stroke-width: 1.2"/>
    <path d="M 155.961257 155.323226 
L 123.655212 171.662716 
" clip-path="url(#p9700517f5b)" style="fill: none; stroke: #000000; stroke-width: 1.2"/>
    <path d="M 155.961257 155.323226 
L 184.843463 192.661001 
" clip-path="url(#p9700517f5b)" style="fill: none; stroke: #000000; stroke-width: 1.2"/>
    <path d="M 190.312308 159.57719 
L 123.655212 171.662716 
" clip-path="url(#p9700517f5b)" style="fill: none; stroke: #000000; stroke-width: 1.2"/>
    <path d="M 190.312308 159.57719 
L 132.990009 163.30481 
" clip-path="url(#p9700517f5b)" style="fill: none; stroke: #000000; stroke-width: 1.2"/>
    <path d="M 190.312308 159.57719 
L 239.831405 184.313604 
" clip-path="url(#p9700517f5b)" style="fill: none; stroke: #000000; stroke-width: 1.2"/>
    <path d="M 190.312308 159.57719 
L 184.843463 192.661001 
" clip-path="url(#p9700517f5b)" style="fill: none; stroke: #000000; stroke-width: 1.2"/>
    <path d="M 102.645169 153.890776 
L 123.655212 171.662716 
" clip-path="url(#p9700517f5b)" style="fill: none; stroke: #000000; stroke-width: 1.2"/>
    <path d="M 102.645169 153.890776 
L 132.990009 163.30481 
" clip-path="url(#p9700517f5b)" style="fill: none; stroke: #000000; stroke-width: 1.2"/>
    <path d="M 123.655212 171.662716 
L 132.990009 163.30481 
" clip-path="url(#p9700517f5b)" style="fill: none; stroke: #000000; stroke-width: 1.2"/>
    <path d="M 123.655212 171.662716 
L 139.522183 198.370654 
" clip-path="url(#p9700517f5b)" style="fill: none; stroke: #000000; stroke-width: 1.2"/>
    <path d="M 123.655212 171.662716 
L 184.843463 192.661001 
" clip-path="url(#p9700517f5b)" style="fill: none; stroke: #000000; stroke-width: 1.2"/>
    <path d="M 132.990009 163.30481 
L 84.775327 199.611502 
" clip-path="url(#p9700517f5b)" style="fill: none; stroke: #000000; stroke-width: 1.2"/>
    <path d="M 132.990009 163.30481 
L 139.522183 198.370654 
" clip-path="url(#p9700517f5b)" style="fill: none; stroke: #000000; stroke-width: 1.2"/>
    <path d="M 122.689965 237.076364 
L 139.522183 198.370654 
" clip-path="url(#p9700517f5b)" style="fill: none; stroke: #000000; stroke-width: 1.2"/>
    <path d="M 84.775327 199.611502 
L 139.522183 198.370654 
" clip-path="url(#p9700517f5b)" style="fill: none; stroke: #000000; stroke-width: 1.2"/>
    <path d="M 215.929289 227.411997 
L 184.843463 192.661001 
" clip-path="url(#p9700517f5b)" style="fill: none; stroke: #000000; stroke-width: 1.2"/>
    <path d="M 239.831405 184.313604 
L 184.843463 192.661001 
" clip-path="url(#p9700517f5b)" style="fill: none; stroke: #000000; stroke-width: 1.2"/>
    <path d="M 139.522183 198.370654 
L 184.843463 192.661001 
" clip-path="url(#p9700517f5b)" style="fill: none; stroke: #000000; stroke-width: 1.2"/>
   </g>
   <g id="PathCollection_1">
    <defs>
     <path id="C0_0_508e0b97f3" d="M 0 8.944272 
C 2.372049 8.944272 4.647264 8.001847 6.324555 6.324555 
C 8.001847 4.647264 8.944272 2.372049 8.944272 -0 
C 8.944272 -2.372049 8.001847 -4.647264 6.324555 -6.324555 
C 4.647264 -8.001847 2.372049 -8.944272 0 -8.944272 
C -2.372049 -8.944272 -4.647264 -8.001847 -6.324555 -6.324555 
C -8.001847 -4.647264 -8.944272 -2.372049 -8.944272 0 
C -8.944272 2.372049 -8.001847 4.647264 -6.324555 6.324555 
C -4.647264 8.001847 -2.372049 8.944272 0 8.944272 
z
"/>
    </defs>
    <g clip-path="url(#p9700517f5b)">
     <use xlink:href="#C0_0_508e0b97f3" x="116.609754" y="61.946819" style="fill: #f08fa1; stroke: #f08fa1; stroke-width: 0.5"/>
    </g>
    <g clip-path="url(#p9700517f5b)">
     <use xlink:href="#C0_0_508e0b97f3" x="90.923385" y="72.769752" style="fill: #f08fa1; stroke: #f08fa1; stroke-width: 0.5"/>
    </g>
    <g clip-path="url(#p9700517f5b)">
     <use xlink:href="#C0_0_508e0b97f3" x="129.056003" y="80.535057" style="fill: #f08fa1; stroke: #f08fa1; stroke-width: 0.5"/>
    </g>
    <g clip-path="url(#p9700517f5b)">
     <use xlink:href="#C0_0_508e0b97f3" x="147.674657" y="53.803636" style="fill: #f08fa1; stroke: #f08fa1; stroke-width: 0.5"/>
    </g>
    <g clip-path="url(#p9700517f5b)">
     <use xlink:href="#C0_0_508e0b97f3" x="158.132424" y="68.755687" style="fill: #f08fa1; stroke: #f08fa1; stroke-width: 0.5"/>
    </g>
    <g clip-path="url(#p9700517f5b)">
     <use xlink:href="#C0_0_508e0b97f3" x="180.626478" y="63.874437" style="fill: #f08fa1; stroke: #f08fa1; stroke-width: 0.5"/>
    </g>
    <g clip-path="url(#p9700517f5b)">
     <use xlink:href="#C0_0_508e0b97f3" x="113.618593" y="72.243243" style="fill: #f08fa1; stroke: #f08fa1; stroke-width: 0.5"/>
    </g>
    <g clip-path="url(#p9700517f5b)">
     <use xlink:href="#C0_0_508e0b97f3" x="89.79605" y="86.215326" style="fill: #f08fa1; stroke: #f08fa1; stroke-width: 0.5"/>
    </g>
    <g clip-path="url(#p9700517f5b)">
     <use xlink:href="#C0_0_508e0b97f3" x="118.751219" y="93.0319" style="fill: #f08fa1; stroke: #f08fa1; stroke-width: 0.5"/>
    </g>
    <g clip-path="url(#p9700517f5b)">
     <use xlink:href="#C0_0_508e0b97f3" x="55.368595" y="91.595214" style="fill: #f08fa1; stroke: #f08fa1; stroke-width: 0.5"/>
    </g>
    <g clip-path="url(#p9700517f5b)">
     <use xlink:href="#C0_0_508e0b97f3" x="60.018303" y="113.23251" style="fill: #f08fa1; stroke: #f08fa1; stroke-width: 0.5"/>
    </g>
    <g clip-path="url(#p9700517f5b)">
     <use xlink:href="#C0_0_508e0b97f3" x="75.41009" y="98.741364" style="fill: #f08fa1; stroke: #f08fa1; stroke-width: 0.5"/>
    </g>
    <g clip-path="url(#p9700517f5b)">
     <use xlink:href="#C0_0_508e0b97f3" x="191.765927" y="84.052418" style="fill: #f08fa1; stroke: #f08fa1; stroke-width: 0.5"/>
    </g>
    <g clip-path="url(#p9700517f5b)">
     <use xlink:href="#C0_0_508e0b97f3" x="170.489959" y="90.801658" style="fill: #f08fa1; stroke: #f08fa1; stroke-width: 0.5"/>
    </g>
    <g clip-path="url(#p9700517f5b)">
     <use xlink:href="#C0_0_508e0b97f3" x="197.026648" y="102.176512" style="fill: #f08fa1; stroke: #f08fa1; stroke-width: 0.5"/>
    </g>
    <g clip-path="url(#p9700517f5b)">
     <use xlink:href="#C0_0_508e0b97f3" x="146.046797" y="101.320768" style="fill: #f08fa1; stroke: #f08fa1; stroke-width: 0.5"/>
    </g>
    <g clip-path="url(#p9700517f5b)">
     <use xlink:href="#C0_0_508e0b97f3" x="154.609555" y="121.274626" style="fill: #f08fa1; stroke: #f08fa1; stroke-width: 0.5"/>
    </g>
    <g clip-path="url(#p9700517f5b)">
     <use xlink:href="#C0_0_508e0b97f3" x="175.071907" y="109.616873" style="fill: #f08fa1; stroke: #f08fa1; stroke-width: 0.5"/>
    </g>
    <g clip-path="url(#p9700517f5b)">
     <use xlink:href="#C0_0_508e0b97f3" x="96.782301" y="123.231039" style="fill: #f08fa1; stroke: #f08fa1; stroke-width: 0.5"/>
    </g>
    <g clip-path="url(#p9700517f5b)">
     <use xlink:href="#C0_0_508e0b97f3" x="82.06351" y="134.595009" style="fill: #f08fa1; stroke: #f08fa1; stroke-width: 0.5"/>
    </g>
    <g clip-path="url(#p9700517f5b)">
     <use xlink:href="#C0_0_508e0b97f3" x="110.198937" y="140.949165" style="fill: #f08fa1; stroke: #f08fa1; stroke-width: 0.5"/>
    </g>
    <g clip-path="url(#p9700517f5b)">
     <use xlink:href="#C0_0_508e0b97f3" x="111.659207" y="103.704103" style="fill: #f08fa1; stroke: #f08fa1; stroke-width: 0.5"/>
    </g>
    <g clip-path="url(#p9700517f5b)">
     <use xlink:href="#C0_0_508e0b97f3" x="118.88581" y="124.24538" style="fill: #f08fa1; stroke: #f08fa1; stroke-width: 0.5"/>
    </g>
    <g clip-path="url(#p9700517f5b)">
     <use xlink:href="#C0_0_508e0b97f3" x="139.284712" y="114.546012" style="fill: #f08fa1; stroke: #f08fa1; stroke-width: 0.5"/>
    </g>
    <g clip-path="url(#p9700517f5b)">
     <use xlink:href="#C0_0_508e0b97f3" x="181.297282" y="128.927374" style="fill: #f08fa1; stroke: #f08fa1; stroke-width: 0.5"/>
    </g>
    <g clip-path="url(#p9700517f5b)">
     <use xlink:href="#C0_0_508e0b97f3" x="153.069655" y="138.995323" style="fill: #f08fa1; stroke: #f08fa1; stroke-width: 0.5"/>
    </g>
    <g clip-path="url(#p9700517f5b)">
     <use xlink:href="#C0_0_508e0b97f3" x="175.63299" y="155.773835" style="fill: #f08fa1; stroke: #f08fa1; stroke-width: 0.5"/>
    </g>
    <g clip-path="url(#p9700517f5b)">
     <use xlink:href="#C0_0_508e0b97f3" x="214.53611" y="112.013617" style="fill: #f08fa1; stroke: #f08fa1; stroke-width: 0.5"/>
    </g>
    <g clip-path="url(#p9700517f5b)">
     <use xlink:href="#C0_0_508e0b97f3" x="212.559778" y="136.051771" style="fill: #f08fa1; stroke: #f08fa1; stroke-width: 0.5"/>
    </g>
    <g clip-path="url(#p9700517f5b)">
     <use xlink:href="#C0_0_508e0b97f3" x="229.115328" y="125.888811" style="fill: #f08fa1; stroke: #f08fa1; stroke-width: 0.5"/>
    </g>
    <g clip-path="url(#p9700517f5b)">
     <use xlink:href="#C0_0_508e0b97f3" x="177.006392" y="140.815276" style="fill: #f08fa1; stroke: #f08fa1; stroke-width: 0.5"/>
    </g>
    <g clip-path="url(#p9700517f5b)">
     <use xlink:href="#C0_0_508e0b97f3" x="155.961257" y="155.323226" style="fill: #f08fa1; stroke: #f08fa1; stroke-width: 0.5"/>
    </g>
    <g clip-path="url(#p9700517f5b)">
     <use xlink:href="#C0_0_508e0b97f3" x="190.312308" y="159.57719" style="fill: #f08fa1; stroke: #f08fa1; stroke-width: 0.5"/>
    </g>
    <g clip-path="url(#p9700517f5b)">
     <use xlink:href="#C0_0_508e0b97f3" x="102.645169" y="153.890776" style="fill: #f08fa1; stroke: #f08fa1; stroke-width: 0.5"/>
    </g>
    <g clip-path="url(#p9700517f5b)">
     <use xlink:href="#C0_0_508e0b97f3" x="123.655212" y="171.662716" style="fill: #f08fa1; stroke: #f08fa1; stroke-width: 0.5"/>
    </g>
    <g clip-path="url(#p9700517f5b)">
     <use xlink:href="#C0_0_508e0b97f3" x="132.990009" y="163.30481" style="fill: #f08fa1; stroke: #f08fa1; stroke-width: 0.5"/>
    </g>
    <g clip-path="url(#p9700517f5b)">
     <use xlink:href="#C0_0_508e0b97f3" x="122.689965" y="237.076364" style="fill: #bfbfbf; stroke: #bfbfbf; stroke-width: 0.5"/>
    </g>
    <g clip-path="url(#p9700517f5b)">
     <use xlink:href="#C0_0_508e0b97f3" x="84.775327" y="199.611502" style="fill: #bfbfbf; stroke: #bfbfbf; stroke-width: 0.5"/>
    </g>
    <g clip-path="url(#p9700517f5b)">
     <use xlink:href="#C0_0_508e0b97f3" x="215.929289" y="227.411997" style="fill: #bfbfbf; stroke: #bfbfbf; stroke-width: 0.5"/>
    </g>
    <g clip-path="url(#p9700517f5b)">
     <use xlink:href="#C0_0_508e0b97f3" x="239.831405" y="184.313604" style="fill: #bfbfbf; stroke: #bfbfbf; stroke-width: 0.5"/>
    </g>
    <g clip-path="url(#p9700517f5b)">
     <use xlink:href="#C0_0_508e0b97f3" x="139.522183" y="198.370654" style="fill: #666666; stroke: #666666; stroke-width: 0.5"/>
    </g>
    <g clip-path="url(#p9700517f5b)">
     <use xlink:href="#C0_0_508e0b97f3" x="184.843463" y="192.661001" style="fill: #666666; stroke: #666666; stroke-width: 0.5"/>
    </g>
   </g>
   <g id="text_1">
    <!-- C2H4Co48 -->
    <g transform="translate(149.417326 14.694505) scale(0.1 -0.1)">
     <defs>
      <path id="DejaVuSans-43" d="M 4122 4306 
L 4122 3641 
Q 3803 3938 3442 4084 
Q 3081 4231 2675 4231 
Q 1875 4231 1450 3742 
Q 1025 3253 1025 2328 
Q 1025 1406 1450 917 
Q 1875 428 2675 428 
Q 3081 428 3442 575 
Q 3803 722 4122 1019 
L 4122 359 
Q 3791 134 3420 21 
Q 3050 -91 2638 -91 
Q 1578 -91 968 557 
Q 359 1206 359 2328 
Q 359 3453 968 4101 
Q 1578 4750 2638 4750 
Q 3056 4750 3426 4639 
Q 3797 4528 4122 4306 
z
" transform="scale(0.015625)"/>
      <path id="DejaVuSans-32" d="M 1228 531 
L 3431 531 
L 3431 0 
L 469 0 
L 469 531 
Q 828 903 1448 1529 
Q 2069 2156 2228 2338 
Q 2531 2678 2651 2914 
Q 2772 3150 2772 3378 
Q 2772 3750 2511 3984 
Q 2250 4219 1831 4219 
Q 1534 4219 1204 4116 
Q 875 4013 500 3803 
L 500 4441 
Q 881 4594 1212 4672 
Q 1544 4750 1819 4750 
Q 2544 4750 2975 4387 
Q 3406 4025 3406 3419 
Q 3406 3131 3298 2873 
Q 3191 2616 2906 2266 
Q 2828 2175 2409 1742 
Q 1991 1309 1228 531 
z
" transform="scale(0.015625)"/>
      <path id="DejaVuSans-48" d="M 628 4666 
L 1259 4666 
L 1259 2753 
L 3553 2753 
L 3553 4666 
L 4184 4666 
L 4184 0 
L 3553 0 
L 3553 2222 
L 1259 2222 
L 1259 0 
L 628 0 
L 628 4666 
z
" transform="scale(0.015625)"/>
      <path id="DejaVuSans-34" d="M 2419 4116 
L 825 1625 
L 2419 1625 
L 2419 4116 
z
M 2253 4666 
L 3047 4666 
L 3047 1625 
L 3713 1625 
L 3713 1100 
L 3047 1100 
L 3047 0 
L 2419 0 
L 2419 1100 
L 313 1100 
L 313 1709 
L 2253 4666 
z
" transform="scale(0.015625)"/>
      <path id="DejaVuSans-6f" d="M 1959 3097 
Q 1497 3097 1228 2736 
Q 959 2375 959 1747 
Q 959 1119 1226 758 
Q 1494 397 1959 397 
Q 2419 397 2687 759 
Q 2956 1122 2956 1747 
Q 2956 2369 2687 2733 
Q 2419 3097 1959 3097 
z
M 1959 3584 
Q 2709 3584 3137 3096 
Q 3566 2609 3566 1747 
Q 3566 888 3137 398 
Q 2709 -91 1959 -91 
Q 1206 -91 779 398 
Q 353 888 353 1747 
Q 353 2609 779 3096 
Q 1206 3584 1959 3584 
z
" transform="scale(0.015625)"/>
      <path id="DejaVuSans-38" d="M 2034 2216 
Q 1584 2216 1326 1975 
Q 1069 1734 1069 1313 
Q 1069 891 1326 650 
Q 1584 409 2034 409 
Q 2484 409 2743 651 
Q 3003 894 3003 1313 
Q 3003 1734 2745 1975 
Q 2488 2216 2034 2216 
z
M 1403 2484 
Q 997 2584 770 2862 
Q 544 3141 544 3541 
Q 544 4100 942 4425 
Q 1341 4750 2034 4750 
Q 2731 4750 3128 4425 
Q 3525 4100 3525 3541 
Q 3525 3141 3298 2862 
Q 3072 2584 2669 2484 
Q 3125 2378 3379 2068 
Q 3634 1759 3634 1313 
Q 3634 634 3220 271 
Q 2806 -91 2034 -91 
Q 1263 -91 848 271 
Q 434 634 434 1313 
Q 434 1759 690 2068 
Q 947 2378 1403 2484 
z
M 1172 3481 
Q 1172 3119 1398 2916 
Q 1625 2713 2034 2713 
Q 2441 2713 2670 2916 
Q 2900 3119 2900 3481 
Q 2900 3844 2670 4047 
Q 2441 4250 2034 4250 
Q 1625 4250 1398 4047 
Q 1172 3844 1172 3481 
z
" transform="scale(0.015625)"/>
     </defs>
     <use xlink:href="#DejaVuSans-43"/>
     <use xlink:href="#DejaVuSans-32" transform="translate(69.824219 0)"/>
     <use xlink:href="#DejaVuSans-48" transform="translate(133.447266 0)"/>
     <use xlink:href="#DejaVuSans-34" transform="translate(208.642578 0)"/>
     <use xlink:href="#DejaVuSans-43" transform="translate(272.265625 0)"/>
     <use xlink:href="#DejaVuSans-6f" transform="translate(342.089844 0)"/>
     <use xlink:href="#DejaVuSans-34" transform="translate(403.271484 0)"/>
     <use xlink:href="#DejaVuSans-38" transform="translate(466.894531 0)"/>
    </g>
    <!-- Error: -9.32 eV -->
    <g transform="translate(149.417326 25.892318) scale(0.1 -0.1)">
     <defs>
      <path id="DejaVuSans-45" d="M 628 4666 
L 3578 4666 
L 3578 4134 
L 1259 4134 
L 1259 2753 
L 3481 2753 
L 3481 2222 
L 1259 2222 
L 1259 531 
L 3634 531 
L 3634 0 
L 628 0 
L 628 4666 
z
" transform="scale(0.015625)"/>
      <path id="DejaVuSans-72" d="M 2631 2963 
Q 2534 3019 2420 3045 
Q 2306 3072 2169 3072 
Q 1681 3072 1420 2755 
Q 1159 2438 1159 1844 
L 1159 0 
L 581 0 
L 581 3500 
L 1159 3500 
L 1159 2956 
Q 1341 3275 1631 3429 
Q 1922 3584 2338 3584 
Q 2397 3584 2469 3576 
Q 2541 3569 2628 3553 
L 2631 2963 
z
" transform="scale(0.015625)"/>
      <path id="DejaVuSans-3a" d="M 750 794 
L 1409 794 
L 1409 0 
L 750 0 
L 750 794 
z
M 750 3309 
L 1409 3309 
L 1409 2516 
L 750 2516 
L 750 3309 
z
" transform="scale(0.015625)"/>
      <path id="DejaVuSans-20" transform="scale(0.015625)"/>
      <path id="DejaVuSans-2d" d="M 313 2009 
L 1997 2009 
L 1997 1497 
L 313 1497 
L 313 2009 
z
" transform="scale(0.015625)"/>
      <path id="DejaVuSans-39" d="M 703 97 
L 703 672 
Q 941 559 1184 500 
Q 1428 441 1663 441 
Q 2288 441 2617 861 
Q 2947 1281 2994 2138 
Q 2813 1869 2534 1725 
Q 2256 1581 1919 1581 
Q 1219 1581 811 2004 
Q 403 2428 403 3163 
Q 403 3881 828 4315 
Q 1253 4750 1959 4750 
Q 2769 4750 3195 4129 
Q 3622 3509 3622 2328 
Q 3622 1225 3098 567 
Q 2575 -91 1691 -91 
Q 1453 -91 1209 -44 
Q 966 3 703 97 
z
M 1959 2075 
Q 2384 2075 2632 2365 
Q 2881 2656 2881 3163 
Q 2881 3666 2632 3958 
Q 2384 4250 1959 4250 
Q 1534 4250 1286 3958 
Q 1038 3666 1038 3163 
Q 1038 2656 1286 2365 
Q 1534 2075 1959 2075 
z
" transform="scale(0.015625)"/>
      <path id="DejaVuSans-2e" d="M 684 794 
L 1344 794 
L 1344 0 
L 684 0 
L 684 794 
z
" transform="scale(0.015625)"/>
      <path id="DejaVuSans-33" d="M 2597 2516 
Q 3050 2419 3304 2112 
Q 3559 1806 3559 1356 
Q 3559 666 3084 287 
Q 2609 -91 1734 -91 
Q 1441 -91 1130 -33 
Q 819 25 488 141 
L 488 750 
Q 750 597 1062 519 
Q 1375 441 1716 441 
Q 2309 441 2620 675 
Q 2931 909 2931 1356 
Q 2931 1769 2642 2001 
Q 2353 2234 1838 2234 
L 1294 2234 
L 1294 2753 
L 1863 2753 
Q 2328 2753 2575 2939 
Q 2822 3125 2822 3475 
Q 2822 3834 2567 4026 
Q 2313 4219 1838 4219 
Q 1578 4219 1281 4162 
Q 984 4106 628 3988 
L 628 4550 
Q 988 4650 1302 4700 
Q 1616 4750 1894 4750 
Q 2613 4750 3031 4423 
Q 3450 4097 3450 3541 
Q 3450 3153 3228 2886 
Q 3006 2619 2597 2516 
z
" transform="scale(0.015625)"/>
      <path id="DejaVuSans-65" d="M 3597 1894 
L 3597 1613 
L 953 1613 
Q 991 1019 1311 708 
Q 1631 397 2203 397 
Q 2534 397 2845 478 
Q 3156 559 3463 722 
L 3463 178 
Q 3153 47 2828 -22 
Q 2503 -91 2169 -91 
Q 1331 -91 842 396 
Q 353 884 353 1716 
Q 353 2575 817 3079 
Q 1281 3584 2069 3584 
Q 2775 3584 3186 3129 
Q 3597 2675 3597 1894 
z
M 3022 2063 
Q 3016 2534 2758 2815 
Q 2500 3097 2075 3097 
Q 1594 3097 1305 2825 
Q 1016 2553 972 2059 
L 3022 2063 
z
" transform="scale(0.015625)"/>
      <path id="DejaVuSans-56" d="M 1831 0 
L 50 4666 
L 709 4666 
L 2188 738 
L 3669 4666 
L 4325 4666 
L 2547 0 
L 1831 0 
z
" transform="scale(0.015625)"/>
     </defs>
     <use xlink:href="#DejaVuSans-45"/>
     <use xlink:href="#DejaVuSans-72" transform="translate(63.183594 0)"/>
     <use xlink:href="#DejaVuSans-72" transform="translate(102.546875 0)"/>
     <use xlink:href="#DejaVuSans-6f" transform="translate(141.410156 0)"/>
     <use xlink:href="#DejaVuSans-72" transform="translate(202.591797 0)"/>
     <use xlink:href="#DejaVuSans-3a" transform="translate(241.955078 0)"/>
     <use xlink:href="#DejaVuSans-20" transform="translate(275.646484 0)"/>
     <use xlink:href="#DejaVuSans-2d" transform="translate(307.433594 0)"/>
     <use xlink:href="#DejaVuSans-39" transform="translate(343.517578 0)"/>
     <use xlink:href="#DejaVuSans-2e" transform="translate(407.140625 0)"/>
     <use xlink:href="#DejaVuSans-33" transform="translate(438.927734 0)"/>
     <use xlink:href="#DejaVuSans-32" transform="translate(502.550781 0)"/>
     <use xlink:href="#DejaVuSans-20" transform="translate(566.173828 0)"/>
     <use xlink:href="#DejaVuSans-65" transform="translate(597.960938 0)"/>
     <use xlink:href="#DejaVuSans-56" transform="translate(659.484375 0)"/>
    </g>
   </g>
  </g>
 </g>
 <defs>
  <clipPath id="p9700517f5b">
   <rect x="36" y="34.56" width="223.2" height="221.76"/>
  </clipPath>
 </defs>
</svg>
