<?xml version="1.0" encoding="utf-8" standalone="no"?>
<!DOCTYPE svg PUBLIC "-//W3C//DTD SVG 1.1//EN"
  "http://www.w3.org/Graphics/SVG/1.1/DTD/svg11.dtd">
<svg xmlns:xlink="http://www.w3.org/1999/xlink" width="288pt" height="288pt" viewBox="0 0 288 288" xmlns="http://www.w3.org/2000/svg" version="1.1">
 <metadata>
  <rdf:RDF xmlns:dc="http://purl.org/dc/elements/1.1/" xmlns:cc="http://creativecommons.org/ns#" xmlns:rdf="http://www.w3.org/1999/02/22-rdf-syntax-ns#">
   <cc:Work>
    <dc:type rdf:resource="http://purl.org/dc/dcmitype/StillImage"/>
    <dc:date>2025-06-30T11:56:43.614345</dc:date>
    <dc:format>image/svg+xml</dc:format>
    <dc:creator>
     <cc:Agent>
      <dc:title>Matplotlib v3.10.1, https://matplotlib.org/</dc:title>
     </cc:Agent>
    </dc:creator>
   </cc:Work>
  </rdf:RDF>
 </metadata>
 <defs>
  <style type="text/css">*{stroke-linejoin: round; stroke-linecap: butt}</style>
 </defs>
 <g id="figure_1">
  <g id="patch_1">
   <path d="M 0 288 
L 288 288 
L 288 0 
L 0 0 
z
" style="fill: #ffffff"/>
  </g>
  <g id="axes_1">
   <g id="LineCollection_1">
    <path d="M 105.472233 58.611746 
L 89.656409 53.803636 
" clip-path="url(#p71c53e898b)" style="fill: none; stroke: #000000; stroke-width: 1.2"/>
    <path d="M 105.472233 58.611746 
L 137.589331 76.678123 
" clip-path="url(#p71c53e898b)" style="fill: none; stroke: #000000; stroke-width: 1.2"/>
    <path d="M 105.472233 58.611746 
L 129.437803 64.81107 
" clip-path="url(#p71c53e898b)" style="fill: none; stroke: #000000; stroke-width: 1.2"/>
    <path d="M 105.472233 58.611746 
L 78.598146 61.949909 
" clip-path="url(#p71c53e898b)" style="fill: none; stroke: #000000; stroke-width: 1.2"/>
    <path d="M 105.472233 58.611746 
L 129.769707 86.195049 
" clip-path="url(#p71c53e898b)" style="fill: none; stroke: #000000; stroke-width: 1.2"/>
    <path d="M 105.472233 58.611746 
L 71.083475 83.792675 
" clip-path="url(#p71c53e898b)" style="fill: none; stroke: #000000; stroke-width: 1.2"/>
    <path d="M 105.472233 58.611746 
L 75.046117 131.522245 
" clip-path="url(#p71c53e898b)" style="fill: none; stroke: #000000; stroke-width: 1.2"/>
    <path d="M 105.472233 58.611746 
L 87.581199 96.933142 
" clip-path="url(#p71c53e898b)" style="fill: none; stroke: #000000; stroke-width: 1.2"/>
    <path d="M 105.472233 58.611746 
L 130.862093 110.149076 
" clip-path="url(#p71c53e898b)" style="fill: none; stroke: #000000; stroke-width: 1.2"/>
    <path d="M 105.472233 58.611746 
L 79.425035 105.593707 
" clip-path="url(#p71c53e898b)" style="fill: none; stroke: #000000; stroke-width: 1.2"/>
    <path d="M 89.656409 53.803636 
L 137.589331 76.678123 
" clip-path="url(#p71c53e898b)" style="fill: none; stroke: #000000; stroke-width: 1.2"/>
    <path d="M 89.656409 53.803636 
L 129.437803 64.81107 
" clip-path="url(#p71c53e898b)" style="fill: none; stroke: #000000; stroke-width: 1.2"/>
    <path d="M 89.656409 53.803636 
L 86.308053 75.093393 
" clip-path="url(#p71c53e898b)" style="fill: none; stroke: #000000; stroke-width: 1.2"/>
    <path d="M 89.656409 53.803636 
L 115.61987 78.915453 
" clip-path="url(#p71c53e898b)" style="fill: none; stroke: #000000; stroke-width: 1.2"/>
    <path d="M 89.656409 53.803636 
L 71.083475 83.792675 
" clip-path="url(#p71c53e898b)" style="fill: none; stroke: #000000; stroke-width: 1.2"/>
    <path d="M 89.656409 53.803636 
L 60.807382 115.757089 
" clip-path="url(#p71c53e898b)" style="fill: none; stroke: #000000; stroke-width: 1.2"/>
    <path d="M 89.656409 53.803636 
L 111.517224 100.778797 
" clip-path="url(#p71c53e898b)" style="fill: none; stroke: #000000; stroke-width: 1.2"/>
    <path d="M 89.656409 53.803636 
L 60.708158 93.556908 
" clip-path="url(#p71c53e898b)" style="fill: none; stroke: #000000; stroke-width: 1.2"/>
    <path d="M 89.656409 53.803636 
L 87.581199 96.933142 
" clip-path="url(#p71c53e898b)" style="fill: none; stroke: #000000; stroke-width: 1.2"/>
    <path d="M 178.356984 91.384906 
L 137.589331 76.678123 
" clip-path="url(#p71c53e898b)" style="fill: none; stroke: #000000; stroke-width: 1.2"/>
    <path d="M 178.356984 91.384906 
L 162.644035 79.290207 
" clip-path="url(#p71c53e898b)" style="fill: none; stroke: #000000; stroke-width: 1.2"/>
    <path d="M 178.356984 91.384906 
L 129.437803 64.81107 
" clip-path="url(#p71c53e898b)" style="fill: none; stroke: #000000; stroke-width: 1.2"/>
    <path d="M 178.356984 91.384906 
L 129.769707 86.195049 
" clip-path="url(#p71c53e898b)" style="fill: none; stroke: #000000; stroke-width: 1.2"/>
    <path d="M 178.356984 91.384906 
L 157.587564 88.344825 
" clip-path="url(#p71c53e898b)" style="fill: none; stroke: #000000; stroke-width: 1.2"/>
    <path d="M 178.356984 91.384906 
L 157.888921 115.952374 
" clip-path="url(#p71c53e898b)" style="fill: none; stroke: #000000; stroke-width: 1.2"/>
    <path d="M 178.356984 91.384906 
L 160.448201 152.715435 
" clip-path="url(#p71c53e898b)" style="fill: none; stroke: #000000; stroke-width: 1.2"/>
    <path d="M 178.356984 91.384906 
L 168.152329 126.173991 
" clip-path="url(#p71c53e898b)" style="fill: none; stroke: #000000; stroke-width: 1.2"/>
    <path d="M 178.356984 91.384906 
L 130.862093 110.149076 
" clip-path="url(#p71c53e898b)" style="fill: none; stroke: #000000; stroke-width: 1.2"/>
    <path d="M 178.356984 91.384906 
L 159.797158 132.853031 
" clip-path="url(#p71c53e898b)" style="fill: none; stroke: #000000; stroke-width: 1.2"/>
    <path d="M 137.589331 76.678123 
L 162.644035 79.290207 
" clip-path="url(#p71c53e898b)" style="fill: none; stroke: #000000; stroke-width: 1.2"/>
    <path d="M 137.589331 76.678123 
L 129.437803 64.81107 
" clip-path="url(#p71c53e898b)" style="fill: none; stroke: #000000; stroke-width: 1.2"/>
    <path d="M 137.589331 76.678123 
L 86.308053 75.093393 
" clip-path="url(#p71c53e898b)" style="fill: none; stroke: #000000; stroke-width: 1.2"/>
    <path d="M 137.589331 76.678123 
L 167.230751 104.732409 
" clip-path="url(#p71c53e898b)" style="fill: none; stroke: #000000; stroke-width: 1.2"/>
    <path d="M 137.589331 76.678123 
L 115.61987 78.915453 
" clip-path="url(#p71c53e898b)" style="fill: none; stroke: #000000; stroke-width: 1.2"/>
    <path d="M 137.589331 76.678123 
L 111.517224 100.778797 
" clip-path="url(#p71c53e898b)" style="fill: none; stroke: #000000; stroke-width: 1.2"/>
    <path d="M 137.589331 76.678123 
L 87.581199 96.933142 
" clip-path="url(#p71c53e898b)" style="fill: none; stroke: #000000; stroke-width: 1.2"/>
    <path d="M 137.589331 76.678123 
L 111.824176 145.092696 
" clip-path="url(#p71c53e898b)" style="fill: none; stroke: #000000; stroke-width: 1.2"/>
    <path d="M 137.589331 76.678123 
L 168.152329 126.173991 
" clip-path="url(#p71c53e898b)" style="fill: none; stroke: #000000; stroke-width: 1.2"/>
    <path d="M 137.589331 76.678123 
L 130.862093 110.149076 
" clip-path="url(#p71c53e898b)" style="fill: none; stroke: #000000; stroke-width: 1.2"/>
    <path d="M 137.589331 76.678123 
L 118.482327 121.599699 
" clip-path="url(#p71c53e898b)" style="fill: none; stroke: #000000; stroke-width: 1.2"/>
    <path d="M 162.644035 79.290207 
L 129.437803 64.81107 
" clip-path="url(#p71c53e898b)" style="fill: none; stroke: #000000; stroke-width: 1.2"/>
    <path d="M 162.644035 79.290207 
L 167.230751 104.732409 
" clip-path="url(#p71c53e898b)" style="fill: none; stroke: #000000; stroke-width: 1.2"/>
    <path d="M 162.644035 79.290207 
L 115.61987 78.915453 
" clip-path="url(#p71c53e898b)" style="fill: none; stroke: #000000; stroke-width: 1.2"/>
    <path d="M 162.644035 79.290207 
L 157.888921 115.952374 
" clip-path="url(#p71c53e898b)" style="fill: none; stroke: #000000; stroke-width: 1.2"/>
    <path d="M 162.644035 79.290207 
L 111.517224 100.778797 
" clip-path="url(#p71c53e898b)" style="fill: none; stroke: #000000; stroke-width: 1.2"/>
    <path d="M 162.644035 79.290207 
L 136.093946 148.316892 
" clip-path="url(#p71c53e898b)" style="fill: none; stroke: #000000; stroke-width: 1.2"/>
    <path d="M 162.644035 79.290207 
L 141.683644 129.992584 
" clip-path="url(#p71c53e898b)" style="fill: none; stroke: #000000; stroke-width: 1.2"/>
    <path d="M 162.644035 79.290207 
L 168.152329 126.173991 
" clip-path="url(#p71c53e898b)" style="fill: none; stroke: #000000; stroke-width: 1.2"/>
    <path d="M 129.437803 64.81107 
L 78.598146 61.949909 
" clip-path="url(#p71c53e898b)" style="fill: none; stroke: #000000; stroke-width: 1.2"/>
    <path d="M 129.437803 64.81107 
L 129.769707 86.195049 
" clip-path="url(#p71c53e898b)" style="fill: none; stroke: #000000; stroke-width: 1.2"/>
    <path d="M 129.437803 64.81107 
L 157.587564 88.344825 
" clip-path="url(#p71c53e898b)" style="fill: none; stroke: #000000; stroke-width: 1.2"/>
    <path d="M 129.437803 64.81107 
L 71.083475 83.792675 
" clip-path="url(#p71c53e898b)" style="fill: none; stroke: #000000; stroke-width: 1.2"/>
    <path d="M 129.437803 64.81107 
L 157.888921 115.952374 
" clip-path="url(#p71c53e898b)" style="fill: none; stroke: #000000; stroke-width: 1.2"/>
    <path d="M 129.437803 64.81107 
L 111.517224 100.778797 
" clip-path="url(#p71c53e898b)" style="fill: none; stroke: #000000; stroke-width: 1.2"/>
    <path d="M 129.437803 64.81107 
L 104.74034 130.835385 
" clip-path="url(#p71c53e898b)" style="fill: none; stroke: #000000; stroke-width: 1.2"/>
    <path d="M 129.437803 64.81107 
L 104.991057 109.016749 
" clip-path="url(#p71c53e898b)" style="fill: none; stroke: #000000; stroke-width: 1.2"/>
    <path d="M 129.437803 64.81107 
L 130.862093 110.149076 
" clip-path="url(#p71c53e898b)" style="fill: none; stroke: #000000; stroke-width: 1.2"/>
    <path d="M 86.308053 75.093393 
L 78.598146 61.949909 
" clip-path="url(#p71c53e898b)" style="fill: none; stroke: #000000; stroke-width: 1.2"/>
    <path d="M 86.308053 75.093393 
L 129.769707 86.195049 
" clip-path="url(#p71c53e898b)" style="fill: none; stroke: #000000; stroke-width: 1.2"/>
    <path d="M 86.308053 75.093393 
L 115.61987 78.915453 
" clip-path="url(#p71c53e898b)" style="fill: none; stroke: #000000; stroke-width: 1.2"/>
    <path d="M 86.308053 75.093393 
L 60.708158 93.556908 
" clip-path="url(#p71c53e898b)" style="fill: none; stroke: #000000; stroke-width: 1.2"/>
    <path d="M 86.308053 75.093393 
L 87.581199 96.933142 
" clip-path="url(#p71c53e898b)" style="fill: none; stroke: #000000; stroke-width: 1.2"/>
    <path d="M 86.308053 75.093393 
L 66.16899 143.278949 
" clip-path="url(#p71c53e898b)" style="fill: none; stroke: #000000; stroke-width: 1.2"/>
    <path d="M 86.308053 75.093393 
L 79.425035 105.593707 
" clip-path="url(#p71c53e898b)" style="fill: none; stroke: #000000; stroke-width: 1.2"/>
    <path d="M 86.308053 75.093393 
L 118.482327 121.599699 
" clip-path="url(#p71c53e898b)" style="fill: none; stroke: #000000; stroke-width: 1.2"/>
    <path d="M 78.598146 61.949909 
L 129.769707 86.195049 
" clip-path="url(#p71c53e898b)" style="fill: none; stroke: #000000; stroke-width: 1.2"/>
    <path d="M 78.598146 61.949909 
L 115.61987 78.915453 
" clip-path="url(#p71c53e898b)" style="fill: none; stroke: #000000; stroke-width: 1.2"/>
    <path d="M 78.598146 61.949909 
L 71.083475 83.792675 
" clip-path="url(#p71c53e898b)" style="fill: none; stroke: #000000; stroke-width: 1.2"/>
    <path d="M 78.598146 61.949909 
L 60.708158 93.556908 
" clip-path="url(#p71c53e898b)" style="fill: none; stroke: #000000; stroke-width: 1.2"/>
    <path d="M 78.598146 61.949909 
L 55.368595 125.683056 
" clip-path="url(#p71c53e898b)" style="fill: none; stroke: #000000; stroke-width: 1.2"/>
    <path d="M 78.598146 61.949909 
L 104.991057 109.016749 
" clip-path="url(#p71c53e898b)" style="fill: none; stroke: #000000; stroke-width: 1.2"/>
    <path d="M 78.598146 61.949909 
L 79.425035 105.593707 
" clip-path="url(#p71c53e898b)" style="fill: none; stroke: #000000; stroke-width: 1.2"/>
    <path d="M 167.230751 104.732409 
L 129.769707 86.195049 
" clip-path="url(#p71c53e898b)" style="fill: none; stroke: #000000; stroke-width: 1.2"/>
    <path d="M 167.230751 104.732409 
L 157.587564 88.344825 
" clip-path="url(#p71c53e898b)" style="fill: none; stroke: #000000; stroke-width: 1.2"/>
    <path d="M 167.230751 104.732409 
L 115.61987 78.915453 
" clip-path="url(#p71c53e898b)" style="fill: none; stroke: #000000; stroke-width: 1.2"/>
    <path d="M 167.230751 104.732409 
L 141.683644 129.992584 
" clip-path="url(#p71c53e898b)" style="fill: none; stroke: #000000; stroke-width: 1.2"/>
    <path d="M 167.230751 104.732409 
L 168.152329 126.173991 
" clip-path="url(#p71c53e898b)" style="fill: none; stroke: #000000; stroke-width: 1.2"/>
    <path d="M 167.230751 104.732409 
L 129.668353 171.185146 
" clip-path="url(#p71c53e898b)" style="fill: none; stroke: #000000; stroke-width: 1.2"/>
    <path d="M 167.230751 104.732409 
L 159.797158 132.853031 
" clip-path="url(#p71c53e898b)" style="fill: none; stroke: #000000; stroke-width: 1.2"/>
    <path d="M 167.230751 104.732409 
L 118.482327 121.599699 
" clip-path="url(#p71c53e898b)" style="fill: none; stroke: #000000; stroke-width: 1.2"/>
    <path d="M 129.769707 86.195049 
L 157.587564 88.344825 
" clip-path="url(#p71c53e898b)" style="fill: none; stroke: #000000; stroke-width: 1.2"/>
    <path d="M 129.769707 86.195049 
L 115.61987 78.915453 
" clip-path="url(#p71c53e898b)" style="fill: none; stroke: #000000; stroke-width: 1.2"/>
    <path d="M 129.769707 86.195049 
L 104.991057 109.016749 
" clip-path="url(#p71c53e898b)" style="fill: none; stroke: #000000; stroke-width: 1.2"/>
    <path d="M 129.769707 86.195049 
L 130.862093 110.149076 
" clip-path="url(#p71c53e898b)" style="fill: none; stroke: #000000; stroke-width: 1.2"/>
    <path d="M 129.769707 86.195049 
L 79.425035 105.593707 
" clip-path="url(#p71c53e898b)" style="fill: none; stroke: #000000; stroke-width: 1.2"/>
    <path d="M 129.769707 86.195049 
L 105.611505 154.056829 
" clip-path="url(#p71c53e898b)" style="fill: none; stroke: #000000; stroke-width: 1.2"/>
    <path d="M 129.769707 86.195049 
L 159.797158 132.853031 
" clip-path="url(#p71c53e898b)" style="fill: none; stroke: #000000; stroke-width: 1.2"/>
    <path d="M 129.769707 86.195049 
L 118.482327 121.599699 
" clip-path="url(#p71c53e898b)" style="fill: none; stroke: #000000; stroke-width: 1.2"/>
    <path d="M 157.587564 88.344825 
L 115.61987 78.915453 
" clip-path="url(#p71c53e898b)" style="fill: none; stroke: #000000; stroke-width: 1.2"/>
    <path d="M 157.587564 88.344825 
L 157.888921 115.952374 
" clip-path="url(#p71c53e898b)" style="fill: none; stroke: #000000; stroke-width: 1.2"/>
    <path d="M 157.587564 88.344825 
L 141.683644 129.992584 
" clip-path="url(#p71c53e898b)" style="fill: none; stroke: #000000; stroke-width: 1.2"/>
    <path d="M 157.587564 88.344825 
L 104.991057 109.016749 
" clip-path="url(#p71c53e898b)" style="fill: none; stroke: #000000; stroke-width: 1.2"/>
    <path d="M 157.587564 88.344825 
L 141.241246 158.224804 
" clip-path="url(#p71c53e898b)" style="fill: none; stroke: #000000; stroke-width: 1.2"/>
    <path d="M 157.587564 88.344825 
L 159.797158 132.853031 
" clip-path="url(#p71c53e898b)" style="fill: none; stroke: #000000; stroke-width: 1.2"/>
    <path d="M 115.61987 78.915453 
L 111.517224 100.778797 
" clip-path="url(#p71c53e898b)" style="fill: none; stroke: #000000; stroke-width: 1.2"/>
    <path d="M 115.61987 78.915453 
L 60.708158 93.556908 
" clip-path="url(#p71c53e898b)" style="fill: none; stroke: #000000; stroke-width: 1.2"/>
    <path d="M 115.61987 78.915453 
L 141.683644 129.992584 
" clip-path="url(#p71c53e898b)" style="fill: none; stroke: #000000; stroke-width: 1.2"/>
    <path d="M 115.61987 78.915453 
L 104.991057 109.016749 
" clip-path="url(#p71c53e898b)" style="fill: none; stroke: #000000; stroke-width: 1.2"/>
    <path d="M 115.61987 78.915453 
L 91.373487 145.087972 
" clip-path="url(#p71c53e898b)" style="fill: none; stroke: #000000; stroke-width: 1.2"/>
    <path d="M 115.61987 78.915453 
L 118.482327 121.599699 
" clip-path="url(#p71c53e898b)" style="fill: none; stroke: #000000; stroke-width: 1.2"/>
    <path d="M 71.083475 83.792675 
L 60.807382 115.757089 
" clip-path="url(#p71c53e898b)" style="fill: none; stroke: #000000; stroke-width: 1.2"/>
    <path d="M 71.083475 83.792675 
L 111.517224 100.778797 
" clip-path="url(#p71c53e898b)" style="fill: none; stroke: #000000; stroke-width: 1.2"/>
    <path d="M 71.083475 83.792675 
L 104.74034 130.835385 
" clip-path="url(#p71c53e898b)" style="fill: none; stroke: #000000; stroke-width: 1.2"/>
    <path d="M 71.083475 83.792675 
L 55.368595 125.683056 
" clip-path="url(#p71c53e898b)" style="fill: none; stroke: #000000; stroke-width: 1.2"/>
    <path d="M 71.083475 83.792675 
L 104.991057 109.016749 
" clip-path="url(#p71c53e898b)" style="fill: none; stroke: #000000; stroke-width: 1.2"/>
    <path d="M 71.083475 83.792675 
L 75.046117 131.522245 
" clip-path="url(#p71c53e898b)" style="fill: none; stroke: #000000; stroke-width: 1.2"/>
    <path d="M 60.807382 115.757089 
L 111.517224 100.778797 
" clip-path="url(#p71c53e898b)" style="fill: none; stroke: #000000; stroke-width: 1.2"/>
    <path d="M 60.807382 115.757089 
L 104.74034 130.835385 
" clip-path="url(#p71c53e898b)" style="fill: none; stroke: #000000; stroke-width: 1.2"/>
    <path d="M 60.807382 115.757089 
L 60.708158 93.556908 
" clip-path="url(#p71c53e898b)" style="fill: none; stroke: #000000; stroke-width: 1.2"/>
    <path d="M 60.807382 115.757089 
L 91.373487 145.087972 
" clip-path="url(#p71c53e898b)" style="fill: none; stroke: #000000; stroke-width: 1.2"/>
    <path d="M 60.807382 115.757089 
L 75.046117 131.522245 
" clip-path="url(#p71c53e898b)" style="fill: none; stroke: #000000; stroke-width: 1.2"/>
    <path d="M 60.807382 115.757089 
L 87.581199 96.933142 
" clip-path="url(#p71c53e898b)" style="fill: none; stroke: #000000; stroke-width: 1.2"/>
    <path d="M 60.807382 115.757089 
L 111.824176 145.092696 
" clip-path="url(#p71c53e898b)" style="fill: none; stroke: #000000; stroke-width: 1.2"/>
    <path d="M 60.807382 115.757089 
L 66.16899 143.278949 
" clip-path="url(#p71c53e898b)" style="fill: none; stroke: #000000; stroke-width: 1.2"/>
    <path d="M 157.888921 115.952374 
L 111.517224 100.778797 
" clip-path="url(#p71c53e898b)" style="fill: none; stroke: #000000; stroke-width: 1.2"/>
    <path d="M 157.888921 115.952374 
L 136.093946 148.316892 
" clip-path="url(#p71c53e898b)" style="fill: none; stroke: #000000; stroke-width: 1.2"/>
    <path d="M 157.888921 115.952374 
L 104.74034 130.835385 
" clip-path="url(#p71c53e898b)" style="fill: none; stroke: #000000; stroke-width: 1.2"/>
    <path d="M 157.888921 115.952374 
L 104.991057 109.016749 
" clip-path="url(#p71c53e898b)" style="fill: none; stroke: #000000; stroke-width: 1.2"/>
    <path d="M 157.888921 115.952374 
L 141.241246 158.224804 
" clip-path="url(#p71c53e898b)" style="fill: none; stroke: #000000; stroke-width: 1.2"/>
    <path d="M 157.888921 115.952374 
L 160.448201 152.715435 
" clip-path="url(#p71c53e898b)" style="fill: none; stroke: #000000; stroke-width: 1.2"/>
    <path d="M 157.888921 115.952374 
L 192.322664 159.281938 
" clip-path="url(#p71c53e898b)" style="fill: none; stroke: #000000; stroke-width: 1.2"/>
    <path d="M 111.517224 100.778797 
L 136.093946 148.316892 
" clip-path="url(#p71c53e898b)" style="fill: none; stroke: #000000; stroke-width: 1.2"/>
    <path d="M 111.517224 100.778797 
L 104.74034 130.835385 
" clip-path="url(#p71c53e898b)" style="fill: none; stroke: #000000; stroke-width: 1.2"/>
    <path d="M 111.517224 100.778797 
L 60.708158 93.556908 
" clip-path="url(#p71c53e898b)" style="fill: none; stroke: #000000; stroke-width: 1.2"/>
    <path d="M 111.517224 100.778797 
L 141.683644 129.992584 
" clip-path="url(#p71c53e898b)" style="fill: none; stroke: #000000; stroke-width: 1.2"/>
    <path d="M 111.517224 100.778797 
L 91.373487 145.087972 
" clip-path="url(#p71c53e898b)" style="fill: none; stroke: #000000; stroke-width: 1.2"/>
    <path d="M 111.517224 100.778797 
L 111.824176 145.092696 
" clip-path="url(#p71c53e898b)" style="fill: none; stroke: #000000; stroke-width: 1.2"/>
    <path d="M 136.093946 148.316892 
L 104.74034 130.835385 
" clip-path="url(#p71c53e898b)" style="fill: none; stroke: #000000; stroke-width: 1.2"/>
    <path d="M 136.093946 148.316892 
L 141.683644 129.992584 
" clip-path="url(#p71c53e898b)" style="fill: none; stroke: #000000; stroke-width: 1.2"/>
    <path d="M 136.093946 148.316892 
L 91.373487 145.087972 
" clip-path="url(#p71c53e898b)" style="fill: none; stroke: #000000; stroke-width: 1.2"/>
    <path d="M 136.093946 148.316892 
L 160.448201 152.715435 
" clip-path="url(#p71c53e898b)" style="fill: none; stroke: #000000; stroke-width: 1.2"/>
    <path d="M 136.093946 148.316892 
L 111.824176 145.092696 
" clip-path="url(#p71c53e898b)" style="fill: none; stroke: #000000; stroke-width: 1.2"/>
    <path d="M 136.093946 148.316892 
L 168.152329 126.173991 
" clip-path="url(#p71c53e898b)" style="fill: none; stroke: #000000; stroke-width: 1.2"/>
    <path d="M 136.093946 148.316892 
L 129.668353 171.185146 
" clip-path="url(#p71c53e898b)" style="fill: none; stroke: #000000; stroke-width: 1.2"/>
    <path d="M 104.74034 130.835385 
L 55.368595 125.683056 
" clip-path="url(#p71c53e898b)" style="fill: none; stroke: #000000; stroke-width: 1.2"/>
    <path d="M 104.74034 130.835385 
L 104.991057 109.016749 
" clip-path="url(#p71c53e898b)" style="fill: none; stroke: #000000; stroke-width: 1.2"/>
    <path d="M 104.74034 130.835385 
L 141.241246 158.224804 
" clip-path="url(#p71c53e898b)" style="fill: none; stroke: #000000; stroke-width: 1.2"/>
    <path d="M 104.74034 130.835385 
L 75.046117 131.522245 
" clip-path="url(#p71c53e898b)" style="fill: none; stroke: #000000; stroke-width: 1.2"/>
    <path d="M 104.74034 130.835385 
L 160.448201 152.715435 
" clip-path="url(#p71c53e898b)" style="fill: none; stroke: #000000; stroke-width: 1.2"/>
    <path d="M 104.74034 130.835385 
L 111.824176 145.092696 
" clip-path="url(#p71c53e898b)" style="fill: none; stroke: #000000; stroke-width: 1.2"/>
    <path d="M 104.74034 130.835385 
L 130.862093 110.149076 
" clip-path="url(#p71c53e898b)" style="fill: none; stroke: #000000; stroke-width: 1.2"/>
    <path d="M 104.74034 130.835385 
L 105.611505 154.056829 
" clip-path="url(#p71c53e898b)" style="fill: none; stroke: #000000; stroke-width: 1.2"/>
    <path d="M 60.708158 93.556908 
L 55.368595 125.683056 
" clip-path="url(#p71c53e898b)" style="fill: none; stroke: #000000; stroke-width: 1.2"/>
    <path d="M 60.708158 93.556908 
L 104.991057 109.016749 
" clip-path="url(#p71c53e898b)" style="fill: none; stroke: #000000; stroke-width: 1.2"/>
    <path d="M 60.708158 93.556908 
L 91.373487 145.087972 
" clip-path="url(#p71c53e898b)" style="fill: none; stroke: #000000; stroke-width: 1.2"/>
    <path d="M 60.708158 93.556908 
L 66.16899 143.278949 
" clip-path="url(#p71c53e898b)" style="fill: none; stroke: #000000; stroke-width: 1.2"/>
    <path d="M 55.368595 125.683056 
L 104.991057 109.016749 
" clip-path="url(#p71c53e898b)" style="fill: none; stroke: #000000; stroke-width: 1.2"/>
    <path d="M 55.368595 125.683056 
L 91.373487 145.087972 
" clip-path="url(#p71c53e898b)" style="fill: none; stroke: #000000; stroke-width: 1.2"/>
    <path d="M 55.368595 125.683056 
L 75.046117 131.522245 
" clip-path="url(#p71c53e898b)" style="fill: none; stroke: #000000; stroke-width: 1.2"/>
    <path d="M 55.368595 125.683056 
L 66.16899 143.278949 
" clip-path="url(#p71c53e898b)" style="fill: none; stroke: #000000; stroke-width: 1.2"/>
    <path d="M 55.368595 125.683056 
L 79.425035 105.593707 
" clip-path="url(#p71c53e898b)" style="fill: none; stroke: #000000; stroke-width: 1.2"/>
    <path d="M 55.368595 125.683056 
L 105.611505 154.056829 
" clip-path="url(#p71c53e898b)" style="fill: none; stroke: #000000; stroke-width: 1.2"/>
    <path d="M 141.683644 129.992584 
L 104.991057 109.016749 
" clip-path="url(#p71c53e898b)" style="fill: none; stroke: #000000; stroke-width: 1.2"/>
    <path d="M 141.683644 129.992584 
L 141.241246 158.224804 
" clip-path="url(#p71c53e898b)" style="fill: none; stroke: #000000; stroke-width: 1.2"/>
    <path d="M 141.683644 129.992584 
L 91.373487 145.087972 
" clip-path="url(#p71c53e898b)" style="fill: none; stroke: #000000; stroke-width: 1.2"/>
    <path d="M 141.683644 129.992584 
L 129.668353 171.185146 
" clip-path="url(#p71c53e898b)" style="fill: none; stroke: #000000; stroke-width: 1.2"/>
    <path d="M 141.683644 129.992584 
L 157.928985 191.613749 
" clip-path="url(#p71c53e898b)" style="fill: none; stroke: #000000; stroke-width: 1.2"/>
    <path d="M 104.991057 109.016749 
L 141.241246 158.224804 
" clip-path="url(#p71c53e898b)" style="fill: none; stroke: #000000; stroke-width: 1.2"/>
    <path d="M 104.991057 109.016749 
L 91.373487 145.087972 
" clip-path="url(#p71c53e898b)" style="fill: none; stroke: #000000; stroke-width: 1.2"/>
    <path d="M 104.991057 109.016749 
L 105.611505 154.056829 
" clip-path="url(#p71c53e898b)" style="fill: none; stroke: #000000; stroke-width: 1.2"/>
    <path d="M 141.241246 158.224804 
L 91.373487 145.087972 
" clip-path="url(#p71c53e898b)" style="fill: none; stroke: #000000; stroke-width: 1.2"/>
    <path d="M 141.241246 158.224804 
L 160.448201 152.715435 
" clip-path="url(#p71c53e898b)" style="fill: none; stroke: #000000; stroke-width: 1.2"/>
    <path d="M 141.241246 158.224804 
L 129.668353 171.185146 
" clip-path="url(#p71c53e898b)" style="fill: none; stroke: #000000; stroke-width: 1.2"/>
    <path d="M 141.241246 158.224804 
L 105.611505 154.056829 
" clip-path="url(#p71c53e898b)" style="fill: none; stroke: #000000; stroke-width: 1.2"/>
    <path d="M 141.241246 158.224804 
L 159.797158 132.853031 
" clip-path="url(#p71c53e898b)" style="fill: none; stroke: #000000; stroke-width: 1.2"/>
    <path d="M 141.241246 158.224804 
L 157.928985 191.613749 
" clip-path="url(#p71c53e898b)" style="fill: none; stroke: #000000; stroke-width: 1.2"/>
    <path d="M 141.241246 158.224804 
L 192.322664 159.281938 
" clip-path="url(#p71c53e898b)" style="fill: none; stroke: #000000; stroke-width: 1.2"/>
    <path d="M 91.373487 145.087972 
L 111.824176 145.092696 
" clip-path="url(#p71c53e898b)" style="fill: none; stroke: #000000; stroke-width: 1.2"/>
    <path d="M 91.373487 145.087972 
L 66.16899 143.278949 
" clip-path="url(#p71c53e898b)" style="fill: none; stroke: #000000; stroke-width: 1.2"/>
    <path d="M 91.373487 145.087972 
L 129.668353 171.185146 
" clip-path="url(#p71c53e898b)" style="fill: none; stroke: #000000; stroke-width: 1.2"/>
    <path d="M 91.373487 145.087972 
L 105.611505 154.056829 
" clip-path="url(#p71c53e898b)" style="fill: none; stroke: #000000; stroke-width: 1.2"/>
    <path d="M 91.373487 145.087972 
L 118.482327 121.599699 
" clip-path="url(#p71c53e898b)" style="fill: none; stroke: #000000; stroke-width: 1.2"/>
    <path d="M 75.046117 131.522245 
L 87.581199 96.933142 
" clip-path="url(#p71c53e898b)" style="fill: none; stroke: #000000; stroke-width: 1.2"/>
    <path d="M 75.046117 131.522245 
L 111.824176 145.092696 
" clip-path="url(#p71c53e898b)" style="fill: none; stroke: #000000; stroke-width: 1.2"/>
    <path d="M 75.046117 131.522245 
L 130.862093 110.149076 
" clip-path="url(#p71c53e898b)" style="fill: none; stroke: #000000; stroke-width: 1.2"/>
    <path d="M 75.046117 131.522245 
L 79.425035 105.593707 
" clip-path="url(#p71c53e898b)" style="fill: none; stroke: #000000; stroke-width: 1.2"/>
    <path d="M 75.046117 131.522245 
L 105.611505 154.056829 
" clip-path="url(#p71c53e898b)" style="fill: none; stroke: #000000; stroke-width: 1.2"/>
    <path d="M 87.581199 96.933142 
L 111.824176 145.092696 
" clip-path="url(#p71c53e898b)" style="fill: none; stroke: #000000; stroke-width: 1.2"/>
    <path d="M 87.581199 96.933142 
L 130.862093 110.149076 
" clip-path="url(#p71c53e898b)" style="fill: none; stroke: #000000; stroke-width: 1.2"/>
    <path d="M 87.581199 96.933142 
L 66.16899 143.278949 
" clip-path="url(#p71c53e898b)" style="fill: none; stroke: #000000; stroke-width: 1.2"/>
    <path d="M 87.581199 96.933142 
L 118.482327 121.599699 
" clip-path="url(#p71c53e898b)" style="fill: none; stroke: #000000; stroke-width: 1.2"/>
    <path d="M 160.448201 152.715435 
L 111.824176 145.092696 
" clip-path="url(#p71c53e898b)" style="fill: none; stroke: #000000; stroke-width: 1.2"/>
    <path d="M 160.448201 152.715435 
L 168.152329 126.173991 
" clip-path="url(#p71c53e898b)" style="fill: none; stroke: #000000; stroke-width: 1.2"/>
    <path d="M 160.448201 152.715435 
L 130.862093 110.149076 
" clip-path="url(#p71c53e898b)" style="fill: none; stroke: #000000; stroke-width: 1.2"/>
    <path d="M 160.448201 152.715435 
L 105.611505 154.056829 
" clip-path="url(#p71c53e898b)" style="fill: none; stroke: #000000; stroke-width: 1.2"/>
    <path d="M 160.448201 152.715435 
L 159.797158 132.853031 
" clip-path="url(#p71c53e898b)" style="fill: none; stroke: #000000; stroke-width: 1.2"/>
    <path d="M 160.448201 152.715435 
L 196.511628 187.594206 
" clip-path="url(#p71c53e898b)" style="fill: none; stroke: #000000; stroke-width: 1.2"/>
    <path d="M 160.448201 152.715435 
L 192.322664 159.281938 
" clip-path="url(#p71c53e898b)" style="fill: none; stroke: #000000; stroke-width: 1.2"/>
    <path d="M 111.824176 145.092696 
L 168.152329 126.173991 
" clip-path="url(#p71c53e898b)" style="fill: none; stroke: #000000; stroke-width: 1.2"/>
    <path d="M 111.824176 145.092696 
L 130.862093 110.149076 
" clip-path="url(#p71c53e898b)" style="fill: none; stroke: #000000; stroke-width: 1.2"/>
    <path d="M 111.824176 145.092696 
L 66.16899 143.278949 
" clip-path="url(#p71c53e898b)" style="fill: none; stroke: #000000; stroke-width: 1.2"/>
    <path d="M 111.824176 145.092696 
L 129.668353 171.185146 
" clip-path="url(#p71c53e898b)" style="fill: none; stroke: #000000; stroke-width: 1.2"/>
    <path d="M 111.824176 145.092696 
L 118.482327 121.599699 
" clip-path="url(#p71c53e898b)" style="fill: none; stroke: #000000; stroke-width: 1.2"/>
    <path d="M 168.152329 126.173991 
L 130.862093 110.149076 
" clip-path="url(#p71c53e898b)" style="fill: none; stroke: #000000; stroke-width: 1.2"/>
    <path d="M 168.152329 126.173991 
L 129.668353 171.185146 
" clip-path="url(#p71c53e898b)" style="fill: none; stroke: #000000; stroke-width: 1.2"/>
    <path d="M 168.152329 126.173991 
L 118.482327 121.599699 
" clip-path="url(#p71c53e898b)" style="fill: none; stroke: #000000; stroke-width: 1.2"/>
    <path d="M 130.862093 110.149076 
L 79.425035 105.593707 
" clip-path="url(#p71c53e898b)" style="fill: none; stroke: #000000; stroke-width: 1.2"/>
    <path d="M 130.862093 110.149076 
L 105.611505 154.056829 
" clip-path="url(#p71c53e898b)" style="fill: none; stroke: #000000; stroke-width: 1.2"/>
    <path d="M 130.862093 110.149076 
L 159.797158 132.853031 
" clip-path="url(#p71c53e898b)" style="fill: none; stroke: #000000; stroke-width: 1.2"/>
    <path d="M 66.16899 143.278949 
L 79.425035 105.593707 
" clip-path="url(#p71c53e898b)" style="fill: none; stroke: #000000; stroke-width: 1.2"/>
    <path d="M 66.16899 143.278949 
L 105.611505 154.056829 
" clip-path="url(#p71c53e898b)" style="fill: none; stroke: #000000; stroke-width: 1.2"/>
    <path d="M 66.16899 143.278949 
L 118.482327 121.599699 
" clip-path="url(#p71c53e898b)" style="fill: none; stroke: #000000; stroke-width: 1.2"/>
    <path d="M 79.425035 105.593707 
L 105.611505 154.056829 
" clip-path="url(#p71c53e898b)" style="fill: none; stroke: #000000; stroke-width: 1.2"/>
    <path d="M 79.425035 105.593707 
L 118.482327 121.599699 
" clip-path="url(#p71c53e898b)" style="fill: none; stroke: #000000; stroke-width: 1.2"/>
    <path d="M 129.668353 171.185146 
L 105.611505 154.056829 
" clip-path="url(#p71c53e898b)" style="fill: none; stroke: #000000; stroke-width: 1.2"/>
    <path d="M 129.668353 171.185146 
L 159.797158 132.853031 
" clip-path="url(#p71c53e898b)" style="fill: none; stroke: #000000; stroke-width: 1.2"/>
    <path d="M 129.668353 171.185146 
L 118.482327 121.599699 
" clip-path="url(#p71c53e898b)" style="fill: none; stroke: #000000; stroke-width: 1.2"/>
    <path d="M 129.668353 171.185146 
L 124.416318 217.20106 
" clip-path="url(#p71c53e898b)" style="fill: none; stroke: #000000; stroke-width: 1.2"/>
    <path d="M 129.668353 171.185146 
L 157.928985 191.613749 
" clip-path="url(#p71c53e898b)" style="fill: none; stroke: #000000; stroke-width: 1.2"/>
    <path d="M 105.611505 154.056829 
L 159.797158 132.853031 
" clip-path="url(#p71c53e898b)" style="fill: none; stroke: #000000; stroke-width: 1.2"/>
    <path d="M 105.611505 154.056829 
L 118.482327 121.599699 
" clip-path="url(#p71c53e898b)" style="fill: none; stroke: #000000; stroke-width: 1.2"/>
    <path d="M 159.797158 132.853031 
L 118.482327 121.599699 
" clip-path="url(#p71c53e898b)" style="fill: none; stroke: #000000; stroke-width: 1.2"/>
    <path d="M 169.739281 237.076364 
L 157.928985 191.613749 
" clip-path="url(#p71c53e898b)" style="fill: none; stroke: #000000; stroke-width: 1.2"/>
    <path d="M 124.416318 217.20106 
L 157.928985 191.613749 
" clip-path="url(#p71c53e898b)" style="fill: none; stroke: #000000; stroke-width: 1.2"/>
    <path d="M 239.831405 162.877422 
L 192.322664 159.281938 
" clip-path="url(#p71c53e898b)" style="fill: none; stroke: #000000; stroke-width: 1.2"/>
    <path d="M 196.511628 187.594206 
L 192.322664 159.281938 
" clip-path="url(#p71c53e898b)" style="fill: none; stroke: #000000; stroke-width: 1.2"/>
    <path d="M 157.928985 191.613749 
L 192.322664 159.281938 
" clip-path="url(#p71c53e898b)" style="fill: none; stroke: #000000; stroke-width: 1.2"/>
   </g>
   <g id="PathCollection_1">
    <defs>
     <path id="C0_0_c7a77bb3ff" d="M 0 8.944272 
C 2.372049 8.944272 4.647264 8.001847 6.324555 6.324555 
C 8.001847 4.647264 8.944272 2.372049 8.944272 -0 
C 8.944272 -2.372049 8.001847 -4.647264 6.324555 -6.324555 
C 4.647264 -8.001847 2.372049 -8.944272 0 -8.944272 
C -2.372049 -8.944272 -4.647264 -8.001847 -6.324555 -6.324555 
C -8.001847 -4.647264 -8.944272 -2.372049 -8.944272 0 
C -8.944272 2.372049 -8.001847 4.647264 -6.324555 6.324555 
C -4.647264 8.001847 -2.372049 8.944272 0 8.944272 
z
"/>
    </defs>
    <g clip-path="url(#p71c53e898b)">
     <use xlink:href="#C0_0_c7a77bb3ff" x="105.472233" y="58.611746" style="fill: #e06633; stroke: #e06633; stroke-width: 0.5"/>
    </g>
    <g clip-path="url(#p71c53e898b)">
     <use xlink:href="#C0_0_c7a77bb3ff" x="89.656409" y="53.803636" style="fill: #e06633; stroke: #e06633; stroke-width: 0.5"/>
    </g>
    <g clip-path="url(#p71c53e898b)">
     <use xlink:href="#C0_0_c7a77bb3ff" x="178.356984" y="91.384906" style="fill: #e06633; stroke: #e06633; stroke-width: 0.5"/>
    </g>
    <g clip-path="url(#p71c53e898b)">
     <use xlink:href="#C0_0_c7a77bb3ff" x="137.589331" y="76.678123" style="fill: #e06633; stroke: #e06633; stroke-width: 0.5"/>
    </g>
    <g clip-path="url(#p71c53e898b)">
     <use xlink:href="#C0_0_c7a77bb3ff" x="162.644035" y="79.290207" style="fill: #e06633; stroke: #e06633; stroke-width: 0.5"/>
    </g>
    <g clip-path="url(#p71c53e898b)">
     <use xlink:href="#C0_0_c7a77bb3ff" x="129.437803" y="64.81107" style="fill: #e06633; stroke: #e06633; stroke-width: 0.5"/>
    </g>
    <g clip-path="url(#p71c53e898b)">
     <use xlink:href="#C0_0_c7a77bb3ff" x="86.308053" y="75.093393" style="fill: #e06633; stroke: #e06633; stroke-width: 0.5"/>
    </g>
    <g clip-path="url(#p71c53e898b)">
     <use xlink:href="#C0_0_c7a77bb3ff" x="78.598146" y="61.949909" style="fill: #e06633; stroke: #e06633; stroke-width: 0.5"/>
    </g>
    <g clip-path="url(#p71c53e898b)">
     <use xlink:href="#C0_0_c7a77bb3ff" x="167.230751" y="104.732409" style="fill: #e06633; stroke: #e06633; stroke-width: 0.5"/>
    </g>
    <g clip-path="url(#p71c53e898b)">
     <use xlink:href="#C0_0_c7a77bb3ff" x="129.769707" y="86.195049" style="fill: #e06633; stroke: #e06633; stroke-width: 0.5"/>
    </g>
    <g clip-path="url(#p71c53e898b)">
     <use xlink:href="#C0_0_c7a77bb3ff" x="157.587564" y="88.344825" style="fill: #e06633; stroke: #e06633; stroke-width: 0.5"/>
    </g>
    <g clip-path="url(#p71c53e898b)">
     <use xlink:href="#C0_0_c7a77bb3ff" x="115.61987" y="78.915453" style="fill: #e06633; stroke: #e06633; stroke-width: 0.5"/>
    </g>
    <g clip-path="url(#p71c53e898b)">
     <use xlink:href="#C0_0_c7a77bb3ff" x="71.083475" y="83.792675" style="fill: #e06633; stroke: #e06633; stroke-width: 0.5"/>
    </g>
    <g clip-path="url(#p71c53e898b)">
     <use xlink:href="#C0_0_c7a77bb3ff" x="60.807382" y="115.757089" style="fill: #e06633; stroke: #e06633; stroke-width: 0.5"/>
    </g>
    <g clip-path="url(#p71c53e898b)">
     <use xlink:href="#C0_0_c7a77bb3ff" x="157.888921" y="115.952374" style="fill: #e06633; stroke: #e06633; stroke-width: 0.5"/>
    </g>
    <g clip-path="url(#p71c53e898b)">
     <use xlink:href="#C0_0_c7a77bb3ff" x="111.517224" y="100.778797" style="fill: #e06633; stroke: #e06633; stroke-width: 0.5"/>
    </g>
    <g clip-path="url(#p71c53e898b)">
     <use xlink:href="#C0_0_c7a77bb3ff" x="136.093946" y="148.316892" style="fill: #e06633; stroke: #e06633; stroke-width: 0.5"/>
    </g>
    <g clip-path="url(#p71c53e898b)">
     <use xlink:href="#C0_0_c7a77bb3ff" x="104.74034" y="130.835385" style="fill: #e06633; stroke: #e06633; stroke-width: 0.5"/>
    </g>
    <g clip-path="url(#p71c53e898b)">
     <use xlink:href="#C0_0_c7a77bb3ff" x="60.708158" y="93.556908" style="fill: #e06633; stroke: #e06633; stroke-width: 0.5"/>
    </g>
    <g clip-path="url(#p71c53e898b)">
     <use xlink:href="#C0_0_c7a77bb3ff" x="55.368595" y="125.683056" style="fill: #e06633; stroke: #e06633; stroke-width: 0.5"/>
    </g>
    <g clip-path="url(#p71c53e898b)">
     <use xlink:href="#C0_0_c7a77bb3ff" x="141.683644" y="129.992584" style="fill: #e06633; stroke: #e06633; stroke-width: 0.5"/>
    </g>
    <g clip-path="url(#p71c53e898b)">
     <use xlink:href="#C0_0_c7a77bb3ff" x="104.991057" y="109.016749" style="fill: #e06633; stroke: #e06633; stroke-width: 0.5"/>
    </g>
    <g clip-path="url(#p71c53e898b)">
     <use xlink:href="#C0_0_c7a77bb3ff" x="141.241246" y="158.224804" style="fill: #e06633; stroke: #e06633; stroke-width: 0.5"/>
    </g>
    <g clip-path="url(#p71c53e898b)">
     <use xlink:href="#C0_0_c7a77bb3ff" x="91.373487" y="145.087972" style="fill: #e06633; stroke: #e06633; stroke-width: 0.5"/>
    </g>
    <g clip-path="url(#p71c53e898b)">
     <use xlink:href="#C0_0_c7a77bb3ff" x="75.046117" y="131.522245" style="fill: #e06633; stroke: #e06633; stroke-width: 0.5"/>
    </g>
    <g clip-path="url(#p71c53e898b)">
     <use xlink:href="#C0_0_c7a77bb3ff" x="87.581199" y="96.933142" style="fill: #e06633; stroke: #e06633; stroke-width: 0.5"/>
    </g>
    <g clip-path="url(#p71c53e898b)">
     <use xlink:href="#C0_0_c7a77bb3ff" x="160.448201" y="152.715435" style="fill: #e06633; stroke: #e06633; stroke-width: 0.5"/>
    </g>
    <g clip-path="url(#p71c53e898b)">
     <use xlink:href="#C0_0_c7a77bb3ff" x="111.824176" y="145.092696" style="fill: #e06633; stroke: #e06633; stroke-width: 0.5"/>
    </g>
    <g clip-path="url(#p71c53e898b)">
     <use xlink:href="#C0_0_c7a77bb3ff" x="168.152329" y="126.173991" style="fill: #e06633; stroke: #e06633; stroke-width: 0.5"/>
    </g>
    <g clip-path="url(#p71c53e898b)">
     <use xlink:href="#C0_0_c7a77bb3ff" x="130.862093" y="110.149076" style="fill: #e06633; stroke: #e06633; stroke-width: 0.5"/>
    </g>
    <g clip-path="url(#p71c53e898b)">
     <use xlink:href="#C0_0_c7a77bb3ff" x="66.16899" y="143.278949" style="fill: #e06633; stroke: #e06633; stroke-width: 0.5"/>
    </g>
    <g clip-path="url(#p71c53e898b)">
     <use xlink:href="#C0_0_c7a77bb3ff" x="79.425035" y="105.593707" style="fill: #e06633; stroke: #e06633; stroke-width: 0.5"/>
    </g>
    <g clip-path="url(#p71c53e898b)">
     <use xlink:href="#C0_0_c7a77bb3ff" x="129.668353" y="171.185146" style="fill: #e06633; stroke: #e06633; stroke-width: 0.5"/>
    </g>
    <g clip-path="url(#p71c53e898b)">
     <use xlink:href="#C0_0_c7a77bb3ff" x="105.611505" y="154.056829" style="fill: #e06633; stroke: #e06633; stroke-width: 0.5"/>
    </g>
    <g clip-path="url(#p71c53e898b)">
     <use xlink:href="#C0_0_c7a77bb3ff" x="159.797158" y="132.853031" style="fill: #e06633; stroke: #e06633; stroke-width: 0.5"/>
    </g>
    <g clip-path="url(#p71c53e898b)">
     <use xlink:href="#C0_0_c7a77bb3ff" x="118.482327" y="121.599699" style="fill: #e06633; stroke: #e06633; stroke-width: 0.5"/>
    </g>
    <g clip-path="url(#p71c53e898b)">
     <use xlink:href="#C0_0_c7a77bb3ff" x="169.739281" y="237.076364" style="fill: #bfbfbf; stroke: #bfbfbf; stroke-width: 0.5"/>
    </g>
    <g clip-path="url(#p71c53e898b)">
     <use xlink:href="#C0_0_c7a77bb3ff" x="124.416318" y="217.20106" style="fill: #bfbfbf; stroke: #bfbfbf; stroke-width: 0.5"/>
    </g>
    <g clip-path="url(#p71c53e898b)">
     <use xlink:href="#C0_0_c7a77bb3ff" x="239.831405" y="162.877422" style="fill: #bfbfbf; stroke: #bfbfbf; stroke-width: 0.5"/>
    </g>
    <g clip-path="url(#p71c53e898b)">
     <use xlink:href="#C0_0_c7a77bb3ff" x="196.511628" y="187.594206" style="fill: #bfbfbf; stroke: #bfbfbf; stroke-width: 0.5"/>
    </g>
    <g clip-path="url(#p71c53e898b)">
     <use xlink:href="#C0_0_c7a77bb3ff" x="157.928985" y="191.613749" style="fill: #666666; stroke: #666666; stroke-width: 0.5"/>
    </g>
    <g clip-path="url(#p71c53e898b)">
     <use xlink:href="#C0_0_c7a77bb3ff" x="192.322664" y="159.281938" style="fill: #666666; stroke: #666666; stroke-width: 0.5"/>
    </g>
   </g>
   <g id="text_1">
    <!-- C2H4Fe48 -->
    <g transform="translate(128.435384 6.174283) scale(0.1 -0.1)">
     <defs>
      <path id="DejaVuSans-43" d="M 4122 4306 
L 4122 3641 
Q 3803 3938 3442 4084 
Q 3081 4231 2675 4231 
Q 1875 4231 1450 3742 
Q 1025 3253 1025 2328 
Q 1025 1406 1450 917 
Q 1875 428 2675 428 
Q 3081 428 3442 575 
Q 3803 722 4122 1019 
L 4122 359 
Q 3791 134 3420 21 
Q 3050 -91 2638 -91 
Q 1578 -91 968 557 
Q 359 1206 359 2328 
Q 359 3453 968 4101 
Q 1578 4750 2638 4750 
Q 3056 4750 3426 4639 
Q 3797 4528 4122 4306 
z
" transform="scale(0.015625)"/>
      <path id="DejaVuSans-32" d="M 1228 531 
L 3431 531 
L 3431 0 
L 469 0 
L 469 531 
Q 828 903 1448 1529 
Q 2069 2156 2228 2338 
Q 2531 2678 2651 2914 
Q 2772 3150 2772 3378 
Q 2772 3750 2511 3984 
Q 2250 4219 1831 4219 
Q 1534 4219 1204 4116 
Q 875 4013 500 3803 
L 500 4441 
Q 881 4594 1212 4672 
Q 1544 4750 1819 4750 
Q 2544 4750 2975 4387 
Q 3406 4025 3406 3419 
Q 3406 3131 3298 2873 
Q 3191 2616 2906 2266 
Q 2828 2175 2409 1742 
Q 1991 1309 1228 531 
z
" transform="scale(0.015625)"/>
      <path id="DejaVuSans-48" d="M 628 4666 
L 1259 4666 
L 1259 2753 
L 3553 2753 
L 3553 4666 
L 4184 4666 
L 4184 0 
L 3553 0 
L 3553 2222 
L 1259 2222 
L 1259 0 
L 628 0 
L 628 4666 
z
" transform="scale(0.015625)"/>
      <path id="DejaVuSans-34" d="M 2419 4116 
L 825 1625 
L 2419 1625 
L 2419 4116 
z
M 2253 4666 
L 3047 4666 
L 3047 1625 
L 3713 1625 
L 3713 1100 
L 3047 1100 
L 3047 0 
L 2419 0 
L 2419 1100 
L 313 1100 
L 313 1709 
L 2253 4666 
z
" transform="scale(0.015625)"/>
      <path id="DejaVuSans-46" d="M 628 4666 
L 3309 4666 
L 3309 4134 
L 1259 4134 
L 1259 2759 
L 3109 2759 
L 3109 2228 
L 1259 2228 
L 1259 0 
L 628 0 
L 628 4666 
z
" transform="scale(0.015625)"/>
      <path id="DejaVuSans-65" d="M 3597 1894 
L 3597 1613 
L 953 1613 
Q 991 1019 1311 708 
Q 1631 397 2203 397 
Q 2534 397 2845 478 
Q 3156 559 3463 722 
L 3463 178 
Q 3153 47 2828 -22 
Q 2503 -91 2169 -91 
Q 1331 -91 842 396 
Q 353 884 353 1716 
Q 353 2575 817 3079 
Q 1281 3584 2069 3584 
Q 2775 3584 3186 3129 
Q 3597 2675 3597 1894 
z
M 3022 2063 
Q 3016 2534 2758 2815 
Q 2500 3097 2075 3097 
Q 1594 3097 1305 2825 
Q 1016 2553 972 2059 
L 3022 2063 
z
" transform="scale(0.015625)"/>
      <path id="DejaVuSans-38" d="M 2034 2216 
Q 1584 2216 1326 1975 
Q 1069 1734 1069 1313 
Q 1069 891 1326 650 
Q 1584 409 2034 409 
Q 2484 409 2743 651 
Q 3003 894 3003 1313 
Q 3003 1734 2745 1975 
Q 2488 2216 2034 2216 
z
M 1403 2484 
Q 997 2584 770 2862 
Q 544 3141 544 3541 
Q 544 4100 942 4425 
Q 1341 4750 2034 4750 
Q 2731 4750 3128 4425 
Q 3525 4100 3525 3541 
Q 3525 3141 3298 2862 
Q 3072 2584 2669 2484 
Q 3125 2378 3379 2068 
Q 3634 1759 3634 1313 
Q 3634 634 3220 271 
Q 2806 -91 2034 -91 
Q 1263 -91 848 271 
Q 434 634 434 1313 
Q 434 1759 690 2068 
Q 947 2378 1403 2484 
z
M 1172 3481 
Q 1172 3119 1398 2916 
Q 1625 2713 2034 2713 
Q 2441 2713 2670 2916 
Q 2900 3119 2900 3481 
Q 2900 3844 2670 4047 
Q 2441 4250 2034 4250 
Q 1625 4250 1398 4047 
Q 1172 3844 1172 3481 
z
" transform="scale(0.015625)"/>
     </defs>
     <use xlink:href="#DejaVuSans-43"/>
     <use xlink:href="#DejaVuSans-32" transform="translate(69.824219 0)"/>
     <use xlink:href="#DejaVuSans-48" transform="translate(133.447266 0)"/>
     <use xlink:href="#DejaVuSans-34" transform="translate(208.642578 0)"/>
     <use xlink:href="#DejaVuSans-46" transform="translate(272.265625 0)"/>
     <use xlink:href="#DejaVuSans-65" transform="translate(324.285156 0)"/>
     <use xlink:href="#DejaVuSans-34" transform="translate(385.808594 0)"/>
     <use xlink:href="#DejaVuSans-38" transform="translate(449.431641 0)"/>
    </g>
    <!-- Error: -10.41 eV -->
    <g transform="translate(128.435384 17.372095) scale(0.1 -0.1)">
     <defs>
      <path id="DejaVuSans-45" d="M 628 4666 
L 3578 4666 
L 3578 4134 
L 1259 4134 
L 1259 2753 
L 3481 2753 
L 3481 2222 
L 1259 2222 
L 1259 531 
L 3634 531 
L 3634 0 
L 628 0 
L 628 4666 
z
" transform="scale(0.015625)"/>
      <path id="DejaVuSans-72" d="M 2631 2963 
Q 2534 3019 2420 3045 
Q 2306 3072 2169 3072 
Q 1681 3072 1420 2755 
Q 1159 2438 1159 1844 
L 1159 0 
L 581 0 
L 581 3500 
L 1159 3500 
L 1159 2956 
Q 1341 3275 1631 3429 
Q 1922 3584 2338 3584 
Q 2397 3584 2469 3576 
Q 2541 3569 2628 3553 
L 2631 2963 
z
" transform="scale(0.015625)"/>
      <path id="DejaVuSans-6f" d="M 1959 3097 
Q 1497 3097 1228 2736 
Q 959 2375 959 1747 
Q 959 1119 1226 758 
Q 1494 397 1959 397 
Q 2419 397 2687 759 
Q 2956 1122 2956 1747 
Q 2956 2369 2687 2733 
Q 2419 3097 1959 3097 
z
M 1959 3584 
Q 2709 3584 3137 3096 
Q 3566 2609 3566 1747 
Q 3566 888 3137 398 
Q 2709 -91 1959 -91 
Q 1206 -91 779 398 
Q 353 888 353 1747 
Q 353 2609 779 3096 
Q 1206 3584 1959 3584 
z
" transform="scale(0.015625)"/>
      <path id="DejaVuSans-3a" d="M 750 794 
L 1409 794 
L 1409 0 
L 750 0 
L 750 794 
z
M 750 3309 
L 1409 3309 
L 1409 2516 
L 750 2516 
L 750 3309 
z
" transform="scale(0.015625)"/>
      <path id="DejaVuSans-20" transform="scale(0.015625)"/>
      <path id="DejaVuSans-2d" d="M 313 2009 
L 1997 2009 
L 1997 1497 
L 313 1497 
L 313 2009 
z
" transform="scale(0.015625)"/>
      <path id="DejaVuSans-31" d="M 794 531 
L 1825 531 
L 1825 4091 
L 703 3866 
L 703 4441 
L 1819 4666 
L 2450 4666 
L 2450 531 
L 3481 531 
L 3481 0 
L 794 0 
L 794 531 
z
" transform="scale(0.015625)"/>
      <path id="DejaVuSans-30" d="M 2034 4250 
Q 1547 4250 1301 3770 
Q 1056 3291 1056 2328 
Q 1056 1369 1301 889 
Q 1547 409 2034 409 
Q 2525 409 2770 889 
Q 3016 1369 3016 2328 
Q 3016 3291 2770 3770 
Q 2525 4250 2034 4250 
z
M 2034 4750 
Q 2819 4750 3233 4129 
Q 3647 3509 3647 2328 
Q 3647 1150 3233 529 
Q 2819 -91 2034 -91 
Q 1250 -91 836 529 
Q 422 1150 422 2328 
Q 422 3509 836 4129 
Q 1250 4750 2034 4750 
z
" transform="scale(0.015625)"/>
      <path id="DejaVuSans-2e" d="M 684 794 
L 1344 794 
L 1344 0 
L 684 0 
L 684 794 
z
" transform="scale(0.015625)"/>
      <path id="DejaVuSans-56" d="M 1831 0 
L 50 4666 
L 709 4666 
L 2188 738 
L 3669 4666 
L 4325 4666 
L 2547 0 
L 1831 0 
z
" transform="scale(0.015625)"/>
     </defs>
     <use xlink:href="#DejaVuSans-45"/>
     <use xlink:href="#DejaVuSans-72" transform="translate(63.183594 0)"/>
     <use xlink:href="#DejaVuSans-72" transform="translate(102.546875 0)"/>
     <use xlink:href="#DejaVuSans-6f" transform="translate(141.410156 0)"/>
     <use xlink:href="#DejaVuSans-72" transform="translate(202.591797 0)"/>
     <use xlink:href="#DejaVuSans-3a" transform="translate(241.955078 0)"/>
     <use xlink:href="#DejaVuSans-20" transform="translate(275.646484 0)"/>
     <use xlink:href="#DejaVuSans-2d" transform="translate(307.433594 0)"/>
     <use xlink:href="#DejaVuSans-31" transform="translate(343.517578 0)"/>
     <use xlink:href="#DejaVuSans-30" transform="translate(407.140625 0)"/>
     <use xlink:href="#DejaVuSans-2e" transform="translate(470.763672 0)"/>
     <use xlink:href="#DejaVuSans-34" transform="translate(502.550781 0)"/>
     <use xlink:href="#DejaVuSans-31" transform="translate(566.173828 0)"/>
     <use xlink:href="#DejaVuSans-20" transform="translate(629.796875 0)"/>
     <use xlink:href="#DejaVuSans-65" transform="translate(661.583984 0)"/>
     <use xlink:href="#DejaVuSans-56" transform="translate(723.107422 0)"/>
    </g>
   </g>
  </g>
 </g>
 <defs>
  <clipPath id="p71c53e898b">
   <rect x="36" y="34.56" width="223.2" height="221.76"/>
  </clipPath>
 </defs>
</svg>
