<?xml version="1.0" encoding="utf-8" standalone="no"?>
<!DOCTYPE svg PUBLIC "-//W3C//DTD SVG 1.1//EN"
  "http://www.w3.org/Graphics/SVG/1.1/DTD/svg11.dtd">
<svg xmlns:xlink="http://www.w3.org/1999/xlink" width="288pt" height="288pt" viewBox="0 0 288 288" xmlns="http://www.w3.org/2000/svg" version="1.1">
 <metadata>
  <rdf:RDF xmlns:dc="http://purl.org/dc/elements/1.1/" xmlns:cc="http://creativecommons.org/ns#" xmlns:rdf="http://www.w3.org/1999/02/22-rdf-syntax-ns#">
   <cc:Work>
    <dc:type rdf:resource="http://purl.org/dc/dcmitype/StillImage"/>
    <dc:date>2025-06-30T11:56:44.676915</dc:date>
    <dc:format>image/svg+xml</dc:format>
    <dc:creator>
     <cc:Agent>
      <dc:title>Matplotlib v3.10.1, https://matplotlib.org/</dc:title>
     </cc:Agent>
    </dc:creator>
   </cc:Work>
  </rdf:RDF>
 </metadata>
 <defs>
  <style type="text/css">*{stroke-linejoin: round; stroke-linecap: butt}</style>
 </defs>
 <g id="figure_1">
  <g id="patch_1">
   <path d="M 0 288 
L 288 288 
L 288 0 
L 0 0 
z
" style="fill: #ffffff"/>
  </g>
  <g id="axes_1">
   <g id="LineCollection_1">
    <path d="M 69.449863 71.139642 
L 55.368595 83.525136 
" clip-path="url(#p087626d9b7)" style="fill: none; stroke: #000000; stroke-width: 1.2"/>
    <path d="M 69.449863 71.139642 
L 111.370063 53.803636 
" clip-path="url(#p087626d9b7)" style="fill: none; stroke: #000000; stroke-width: 1.2"/>
    <path d="M 69.449863 71.139642 
L 101.932697 65.354317 
" clip-path="url(#p087626d9b7)" style="fill: none; stroke: #000000; stroke-width: 1.2"/>
    <path d="M 69.449863 71.139642 
L 113.011148 70.679055 
" clip-path="url(#p087626d9b7)" style="fill: none; stroke: #000000; stroke-width: 1.2"/>
    <path d="M 69.449863 71.139642 
L 98.877923 81.624349 
" clip-path="url(#p087626d9b7)" style="fill: none; stroke: #000000; stroke-width: 1.2"/>
    <path d="M 69.449863 71.139642 
L 104.893572 94.099268 
" clip-path="url(#p087626d9b7)" style="fill: none; stroke: #000000; stroke-width: 1.2"/>
    <path d="M 69.449863 71.139642 
L 72.531749 104.432873 
" clip-path="url(#p087626d9b7)" style="fill: none; stroke: #000000; stroke-width: 1.2"/>
    <path d="M 69.449863 71.139642 
L 78.256923 118.285597 
" clip-path="url(#p087626d9b7)" style="fill: none; stroke: #000000; stroke-width: 1.2"/>
    <path d="M 55.368595 83.525136 
L 101.932697 65.354317 
" clip-path="url(#p087626d9b7)" style="fill: none; stroke: #000000; stroke-width: 1.2"/>
    <path d="M 55.368595 83.525136 
L 86.470353 59.235961 
" clip-path="url(#p087626d9b7)" style="fill: none; stroke: #000000; stroke-width: 1.2"/>
    <path d="M 55.368595 83.525136 
L 98.877923 81.624349 
" clip-path="url(#p087626d9b7)" style="fill: none; stroke: #000000; stroke-width: 1.2"/>
    <path d="M 55.368595 83.525136 
L 82.468378 74.712822 
" clip-path="url(#p087626d9b7)" style="fill: none; stroke: #000000; stroke-width: 1.2"/>
    <path d="M 55.368595 83.525136 
L 84.718776 103.012223 
" clip-path="url(#p087626d9b7)" style="fill: none; stroke: #000000; stroke-width: 1.2"/>
    <path d="M 55.368595 83.525136 
L 78.256923 118.285597 
" clip-path="url(#p087626d9b7)" style="fill: none; stroke: #000000; stroke-width: 1.2"/>
    <path d="M 55.368595 83.525136 
L 58.618808 111.840069 
" clip-path="url(#p087626d9b7)" style="fill: none; stroke: #000000; stroke-width: 1.2"/>
    <path d="M 111.370063 53.803636 
L 101.932697 65.354317 
" clip-path="url(#p087626d9b7)" style="fill: none; stroke: #000000; stroke-width: 1.2"/>
    <path d="M 111.370063 53.803636 
L 86.470353 59.235961 
" clip-path="url(#p087626d9b7)" style="fill: none; stroke: #000000; stroke-width: 1.2"/>
    <path d="M 111.370063 53.803636 
L 129.752628 58.196822 
" clip-path="url(#p087626d9b7)" style="fill: none; stroke: #000000; stroke-width: 1.2"/>
    <path d="M 111.370063 53.803636 
L 148.116296 70.371927 
" clip-path="url(#p087626d9b7)" style="fill: none; stroke: #000000; stroke-width: 1.2"/>
    <path d="M 111.370063 53.803636 
L 83.881535 89.417015 
" clip-path="url(#p087626d9b7)" style="fill: none; stroke: #000000; stroke-width: 1.2"/>
    <path d="M 111.370063 53.803636 
L 104.893572 94.099268 
" clip-path="url(#p087626d9b7)" style="fill: none; stroke: #000000; stroke-width: 1.2"/>
    <path d="M 111.370063 53.803636 
L 143.4673 89.586548 
" clip-path="url(#p087626d9b7)" style="fill: none; stroke: #000000; stroke-width: 1.2"/>
    <path d="M 101.932697 65.354317 
L 86.470353 59.235961 
" clip-path="url(#p087626d9b7)" style="fill: none; stroke: #000000; stroke-width: 1.2"/>
    <path d="M 101.932697 65.354317 
L 148.116296 70.371927 
" clip-path="url(#p087626d9b7)" style="fill: none; stroke: #000000; stroke-width: 1.2"/>
    <path d="M 101.932697 65.354317 
L 130.479729 72.147297 
" clip-path="url(#p087626d9b7)" style="fill: none; stroke: #000000; stroke-width: 1.2"/>
    <path d="M 101.932697 65.354317 
L 104.893572 94.099268 
" clip-path="url(#p087626d9b7)" style="fill: none; stroke: #000000; stroke-width: 1.2"/>
    <path d="M 101.932697 65.354317 
L 84.718776 103.012223 
" clip-path="url(#p087626d9b7)" style="fill: none; stroke: #000000; stroke-width: 1.2"/>
    <path d="M 101.932697 65.354317 
L 143.662086 101.66168 
" clip-path="url(#p087626d9b7)" style="fill: none; stroke: #000000; stroke-width: 1.2"/>
    <path d="M 86.470353 59.235961 
L 129.752628 58.196822 
" clip-path="url(#p087626d9b7)" style="fill: none; stroke: #000000; stroke-width: 1.2"/>
    <path d="M 86.470353 59.235961 
L 130.479729 72.147297 
" clip-path="url(#p087626d9b7)" style="fill: none; stroke: #000000; stroke-width: 1.2"/>
    <path d="M 86.470353 59.235961 
L 83.881535 89.417015 
" clip-path="url(#p087626d9b7)" style="fill: none; stroke: #000000; stroke-width: 1.2"/>
    <path d="M 86.470353 59.235961 
L 84.718776 103.012223 
" clip-path="url(#p087626d9b7)" style="fill: none; stroke: #000000; stroke-width: 1.2"/>
    <path d="M 86.470353 59.235961 
L 125.358747 94.655012 
" clip-path="url(#p087626d9b7)" style="fill: none; stroke: #000000; stroke-width: 1.2"/>
    <path d="M 129.752628 58.196822 
L 148.116296 70.371927 
" clip-path="url(#p087626d9b7)" style="fill: none; stroke: #000000; stroke-width: 1.2"/>
    <path d="M 129.752628 58.196822 
L 130.479729 72.147297 
" clip-path="url(#p087626d9b7)" style="fill: none; stroke: #000000; stroke-width: 1.2"/>
    <path d="M 129.752628 58.196822 
L 113.011148 70.679055 
" clip-path="url(#p087626d9b7)" style="fill: none; stroke: #000000; stroke-width: 1.2"/>
    <path d="M 129.752628 58.196822 
L 82.468378 74.712822 
" clip-path="url(#p087626d9b7)" style="fill: none; stroke: #000000; stroke-width: 1.2"/>
    <path d="M 129.752628 58.196822 
L 143.4673 89.586548 
" clip-path="url(#p087626d9b7)" style="fill: none; stroke: #000000; stroke-width: 1.2"/>
    <path d="M 129.752628 58.196822 
L 125.358747 94.655012 
" clip-path="url(#p087626d9b7)" style="fill: none; stroke: #000000; stroke-width: 1.2"/>
    <path d="M 129.752628 58.196822 
L 104.768474 101.517327 
" clip-path="url(#p087626d9b7)" style="fill: none; stroke: #000000; stroke-width: 1.2"/>
    <path d="M 148.116296 70.371927 
L 130.479729 72.147297 
" clip-path="url(#p087626d9b7)" style="fill: none; stroke: #000000; stroke-width: 1.2"/>
    <path d="M 148.116296 70.371927 
L 113.011148 70.679055 
" clip-path="url(#p087626d9b7)" style="fill: none; stroke: #000000; stroke-width: 1.2"/>
    <path d="M 148.116296 70.371927 
L 98.877923 81.624349 
" clip-path="url(#p087626d9b7)" style="fill: none; stroke: #000000; stroke-width: 1.2"/>
    <path d="M 148.116296 70.371927 
L 143.4673 89.586548 
" clip-path="url(#p087626d9b7)" style="fill: none; stroke: #000000; stroke-width: 1.2"/>
    <path d="M 148.116296 70.371927 
L 143.662086 101.66168 
" clip-path="url(#p087626d9b7)" style="fill: none; stroke: #000000; stroke-width: 1.2"/>
    <path d="M 148.116296 70.371927 
L 128.243426 109.800522 
" clip-path="url(#p087626d9b7)" style="fill: none; stroke: #000000; stroke-width: 1.2"/>
    <path d="M 130.479729 72.147297 
L 98.877923 81.624349 
" clip-path="url(#p087626d9b7)" style="fill: none; stroke: #000000; stroke-width: 1.2"/>
    <path d="M 130.479729 72.147297 
L 82.468378 74.712822 
" clip-path="url(#p087626d9b7)" style="fill: none; stroke: #000000; stroke-width: 1.2"/>
    <path d="M 130.479729 72.147297 
L 143.662086 101.66168 
" clip-path="url(#p087626d9b7)" style="fill: none; stroke: #000000; stroke-width: 1.2"/>
    <path d="M 130.479729 72.147297 
L 125.358747 94.655012 
" clip-path="url(#p087626d9b7)" style="fill: none; stroke: #000000; stroke-width: 1.2"/>
    <path d="M 130.479729 72.147297 
L 108.667868 116.219442 
" clip-path="url(#p087626d9b7)" style="fill: none; stroke: #000000; stroke-width: 1.2"/>
    <path d="M 113.011148 70.679055 
L 98.877923 81.624349 
" clip-path="url(#p087626d9b7)" style="fill: none; stroke: #000000; stroke-width: 1.2"/>
    <path d="M 113.011148 70.679055 
L 82.468378 74.712822 
" clip-path="url(#p087626d9b7)" style="fill: none; stroke: #000000; stroke-width: 1.2"/>
    <path d="M 113.011148 70.679055 
L 104.768474 101.517327 
" clip-path="url(#p087626d9b7)" style="fill: none; stroke: #000000; stroke-width: 1.2"/>
    <path d="M 113.011148 70.679055 
L 128.243426 109.800522 
" clip-path="url(#p087626d9b7)" style="fill: none; stroke: #000000; stroke-width: 1.2"/>
    <path d="M 113.011148 70.679055 
L 72.531749 104.432873 
" clip-path="url(#p087626d9b7)" style="fill: none; stroke: #000000; stroke-width: 1.2"/>
    <path d="M 98.877923 81.624349 
L 82.468378 74.712822 
" clip-path="url(#p087626d9b7)" style="fill: none; stroke: #000000; stroke-width: 1.2"/>
    <path d="M 98.877923 81.624349 
L 128.243426 109.800522 
" clip-path="url(#p087626d9b7)" style="fill: none; stroke: #000000; stroke-width: 1.2"/>
    <path d="M 98.877923 81.624349 
L 108.667868 116.219442 
" clip-path="url(#p087626d9b7)" style="fill: none; stroke: #000000; stroke-width: 1.2"/>
    <path d="M 98.877923 81.624349 
L 78.256923 118.285597 
" clip-path="url(#p087626d9b7)" style="fill: none; stroke: #000000; stroke-width: 1.2"/>
    <path d="M 82.468378 74.712822 
L 104.768474 101.517327 
" clip-path="url(#p087626d9b7)" style="fill: none; stroke: #000000; stroke-width: 1.2"/>
    <path d="M 82.468378 74.712822 
L 108.667868 116.219442 
" clip-path="url(#p087626d9b7)" style="fill: none; stroke: #000000; stroke-width: 1.2"/>
    <path d="M 82.468378 74.712822 
L 58.618808 111.840069 
" clip-path="url(#p087626d9b7)" style="fill: none; stroke: #000000; stroke-width: 1.2"/>
    <path d="M 83.881535 89.417015 
L 104.893572 94.099268 
" clip-path="url(#p087626d9b7)" style="fill: none; stroke: #000000; stroke-width: 1.2"/>
    <path d="M 83.881535 89.417015 
L 84.718776 103.012223 
" clip-path="url(#p087626d9b7)" style="fill: none; stroke: #000000; stroke-width: 1.2"/>
    <path d="M 83.881535 89.417015 
L 143.4673 89.586548 
" clip-path="url(#p087626d9b7)" style="fill: none; stroke: #000000; stroke-width: 1.2"/>
    <path d="M 83.881535 89.417015 
L 125.358747 94.655012 
" clip-path="url(#p087626d9b7)" style="fill: none; stroke: #000000; stroke-width: 1.2"/>
    <path d="M 83.881535 89.417015 
L 72.531749 104.432873 
" clip-path="url(#p087626d9b7)" style="fill: none; stroke: #000000; stroke-width: 1.2"/>
    <path d="M 83.881535 89.417015 
L 58.618808 111.840069 
" clip-path="url(#p087626d9b7)" style="fill: none; stroke: #000000; stroke-width: 1.2"/>
    <path d="M 83.881535 89.417015 
L 62.223779 130.883956 
" clip-path="url(#p087626d9b7)" style="fill: none; stroke: #000000; stroke-width: 1.2"/>
    <path d="M 83.881535 89.417015 
L 116.513993 120.918552 
" clip-path="url(#p087626d9b7)" style="fill: none; stroke: #000000; stroke-width: 1.2"/>
    <path d="M 83.881535 89.417015 
L 94.471639 130.023112 
" clip-path="url(#p087626d9b7)" style="fill: none; stroke: #000000; stroke-width: 1.2"/>
    <path d="M 104.893572 94.099268 
L 84.718776 103.012223 
" clip-path="url(#p087626d9b7)" style="fill: none; stroke: #000000; stroke-width: 1.2"/>
    <path d="M 104.893572 94.099268 
L 143.4673 89.586548 
" clip-path="url(#p087626d9b7)" style="fill: none; stroke: #000000; stroke-width: 1.2"/>
    <path d="M 104.893572 94.099268 
L 143.662086 101.66168 
" clip-path="url(#p087626d9b7)" style="fill: none; stroke: #000000; stroke-width: 1.2"/>
    <path d="M 104.893572 94.099268 
L 72.531749 104.432873 
" clip-path="url(#p087626d9b7)" style="fill: none; stroke: #000000; stroke-width: 1.2"/>
    <path d="M 104.893572 94.099268 
L 78.256923 118.285597 
" clip-path="url(#p087626d9b7)" style="fill: none; stroke: #000000; stroke-width: 1.2"/>
    <path d="M 104.893572 94.099268 
L 83.095799 141.961931 
" clip-path="url(#p087626d9b7)" style="fill: none; stroke: #000000; stroke-width: 1.2"/>
    <path d="M 104.893572 94.099268 
L 116.513993 120.918552 
" clip-path="url(#p087626d9b7)" style="fill: none; stroke: #000000; stroke-width: 1.2"/>
    <path d="M 104.893572 94.099268 
L 116.891601 135.251937 
" clip-path="url(#p087626d9b7)" style="fill: none; stroke: #000000; stroke-width: 1.2"/>
    <path d="M 84.718776 103.012223 
L 143.662086 101.66168 
" clip-path="url(#p087626d9b7)" style="fill: none; stroke: #000000; stroke-width: 1.2"/>
    <path d="M 84.718776 103.012223 
L 125.358747 94.655012 
" clip-path="url(#p087626d9b7)" style="fill: none; stroke: #000000; stroke-width: 1.2"/>
    <path d="M 84.718776 103.012223 
L 78.256923 118.285597 
" clip-path="url(#p087626d9b7)" style="fill: none; stroke: #000000; stroke-width: 1.2"/>
    <path d="M 84.718776 103.012223 
L 58.618808 111.840069 
" clip-path="url(#p087626d9b7)" style="fill: none; stroke: #000000; stroke-width: 1.2"/>
    <path d="M 84.718776 103.012223 
L 69.713697 146.40174 
" clip-path="url(#p087626d9b7)" style="fill: none; stroke: #000000; stroke-width: 1.2"/>
    <path d="M 84.718776 103.012223 
L 116.891601 135.251937 
" clip-path="url(#p087626d9b7)" style="fill: none; stroke: #000000; stroke-width: 1.2"/>
    <path d="M 84.718776 103.012223 
L 94.471639 130.023112 
" clip-path="url(#p087626d9b7)" style="fill: none; stroke: #000000; stroke-width: 1.2"/>
    <path d="M 143.4673 89.586548 
L 143.662086 101.66168 
" clip-path="url(#p087626d9b7)" style="fill: none; stroke: #000000; stroke-width: 1.2"/>
    <path d="M 143.4673 89.586548 
L 125.358747 94.655012 
" clip-path="url(#p087626d9b7)" style="fill: none; stroke: #000000; stroke-width: 1.2"/>
    <path d="M 143.4673 89.586548 
L 104.768474 101.517327 
" clip-path="url(#p087626d9b7)" style="fill: none; stroke: #000000; stroke-width: 1.2"/>
    <path d="M 143.4673 89.586548 
L 128.243426 109.800522 
" clip-path="url(#p087626d9b7)" style="fill: none; stroke: #000000; stroke-width: 1.2"/>
    <path d="M 143.4673 89.586548 
L 116.513993 120.918552 
" clip-path="url(#p087626d9b7)" style="fill: none; stroke: #000000; stroke-width: 1.2"/>
    <path d="M 143.4673 89.586548 
L 140.985678 120.541987 
" clip-path="url(#p087626d9b7)" style="fill: none; stroke: #000000; stroke-width: 1.2"/>
    <path d="M 143.4673 89.586548 
L 154.544088 128.47156 
" clip-path="url(#p087626d9b7)" style="fill: none; stroke: #000000; stroke-width: 1.2"/>
    <path d="M 143.662086 101.66168 
L 125.358747 94.655012 
" clip-path="url(#p087626d9b7)" style="fill: none; stroke: #000000; stroke-width: 1.2"/>
    <path d="M 143.662086 101.66168 
L 128.243426 109.800522 
" clip-path="url(#p087626d9b7)" style="fill: none; stroke: #000000; stroke-width: 1.2"/>
    <path d="M 143.662086 101.66168 
L 108.667868 116.219442 
" clip-path="url(#p087626d9b7)" style="fill: none; stroke: #000000; stroke-width: 1.2"/>
    <path d="M 143.662086 101.66168 
L 116.891601 135.251937 
" clip-path="url(#p087626d9b7)" style="fill: none; stroke: #000000; stroke-width: 1.2"/>
    <path d="M 143.662086 101.66168 
L 154.544088 128.47156 
" clip-path="url(#p087626d9b7)" style="fill: none; stroke: #000000; stroke-width: 1.2"/>
    <path d="M 143.662086 101.66168 
L 138.830214 138.371148 
" clip-path="url(#p087626d9b7)" style="fill: none; stroke: #000000; stroke-width: 1.2"/>
    <path d="M 125.358747 94.655012 
L 104.768474 101.517327 
" clip-path="url(#p087626d9b7)" style="fill: none; stroke: #000000; stroke-width: 1.2"/>
    <path d="M 125.358747 94.655012 
L 108.667868 116.219442 
" clip-path="url(#p087626d9b7)" style="fill: none; stroke: #000000; stroke-width: 1.2"/>
    <path d="M 125.358747 94.655012 
L 94.471639 130.023112 
" clip-path="url(#p087626d9b7)" style="fill: none; stroke: #000000; stroke-width: 1.2"/>
    <path d="M 125.358747 94.655012 
L 140.985678 120.541987 
" clip-path="url(#p087626d9b7)" style="fill: none; stroke: #000000; stroke-width: 1.2"/>
    <path d="M 125.358747 94.655012 
L 138.830214 138.371148 
" clip-path="url(#p087626d9b7)" style="fill: none; stroke: #000000; stroke-width: 1.2"/>
    <path d="M 104.768474 101.517327 
L 128.243426 109.800522 
" clip-path="url(#p087626d9b7)" style="fill: none; stroke: #000000; stroke-width: 1.2"/>
    <path d="M 104.768474 101.517327 
L 108.667868 116.219442 
" clip-path="url(#p087626d9b7)" style="fill: none; stroke: #000000; stroke-width: 1.2"/>
    <path d="M 104.768474 101.517327 
L 72.531749 104.432873 
" clip-path="url(#p087626d9b7)" style="fill: none; stroke: #000000; stroke-width: 1.2"/>
    <path d="M 104.768474 101.517327 
L 58.618808 111.840069 
" clip-path="url(#p087626d9b7)" style="fill: none; stroke: #000000; stroke-width: 1.2"/>
    <path d="M 104.768474 101.517327 
L 140.985678 120.541987 
" clip-path="url(#p087626d9b7)" style="fill: none; stroke: #000000; stroke-width: 1.2"/>
    <path d="M 104.768474 101.517327 
L 109.234579 139.292007 
" clip-path="url(#p087626d9b7)" style="fill: none; stroke: #000000; stroke-width: 1.2"/>
    <path d="M 104.768474 101.517327 
L 94.954898 147.60927 
" clip-path="url(#p087626d9b7)" style="fill: none; stroke: #000000; stroke-width: 1.2"/>
    <path d="M 128.243426 109.800522 
L 108.667868 116.219442 
" clip-path="url(#p087626d9b7)" style="fill: none; stroke: #000000; stroke-width: 1.2"/>
    <path d="M 128.243426 109.800522 
L 72.531749 104.432873 
" clip-path="url(#p087626d9b7)" style="fill: none; stroke: #000000; stroke-width: 1.2"/>
    <path d="M 128.243426 109.800522 
L 78.256923 118.285597 
" clip-path="url(#p087626d9b7)" style="fill: none; stroke: #000000; stroke-width: 1.2"/>
    <path d="M 128.243426 109.800522 
L 154.544088 128.47156 
" clip-path="url(#p087626d9b7)" style="fill: none; stroke: #000000; stroke-width: 1.2"/>
    <path d="M 128.243426 109.800522 
L 109.234579 139.292007 
" clip-path="url(#p087626d9b7)" style="fill: none; stroke: #000000; stroke-width: 1.2"/>
    <path d="M 128.243426 109.800522 
L 117.533532 152.159266 
" clip-path="url(#p087626d9b7)" style="fill: none; stroke: #000000; stroke-width: 1.2"/>
    <path d="M 108.667868 116.219442 
L 78.256923 118.285597 
" clip-path="url(#p087626d9b7)" style="fill: none; stroke: #000000; stroke-width: 1.2"/>
    <path d="M 108.667868 116.219442 
L 58.618808 111.840069 
" clip-path="url(#p087626d9b7)" style="fill: none; stroke: #000000; stroke-width: 1.2"/>
    <path d="M 108.667868 116.219442 
L 138.830214 138.371148 
" clip-path="url(#p087626d9b7)" style="fill: none; stroke: #000000; stroke-width: 1.2"/>
    <path d="M 108.667868 116.219442 
L 117.533532 152.159266 
" clip-path="url(#p087626d9b7)" style="fill: none; stroke: #000000; stroke-width: 1.2"/>
    <path d="M 108.667868 116.219442 
L 94.954898 147.60927 
" clip-path="url(#p087626d9b7)" style="fill: none; stroke: #000000; stroke-width: 1.2"/>
    <path d="M 72.531749 104.432873 
L 78.256923 118.285597 
" clip-path="url(#p087626d9b7)" style="fill: none; stroke: #000000; stroke-width: 1.2"/>
    <path d="M 72.531749 104.432873 
L 58.618808 111.840069 
" clip-path="url(#p087626d9b7)" style="fill: none; stroke: #000000; stroke-width: 1.2"/>
    <path d="M 72.531749 104.432873 
L 62.223779 130.883956 
" clip-path="url(#p087626d9b7)" style="fill: none; stroke: #000000; stroke-width: 1.2"/>
    <path d="M 72.531749 104.432873 
L 83.095799 141.961931 
" clip-path="url(#p087626d9b7)" style="fill: none; stroke: #000000; stroke-width: 1.2"/>
    <path d="M 72.531749 104.432873 
L 109.234579 139.292007 
" clip-path="url(#p087626d9b7)" style="fill: none; stroke: #000000; stroke-width: 1.2"/>
    <path d="M 78.256923 118.285597 
L 58.618808 111.840069 
" clip-path="url(#p087626d9b7)" style="fill: none; stroke: #000000; stroke-width: 1.2"/>
    <path d="M 78.256923 118.285597 
L 83.095799 141.961931 
" clip-path="url(#p087626d9b7)" style="fill: none; stroke: #000000; stroke-width: 1.2"/>
    <path d="M 78.256923 118.285597 
L 69.713697 146.40174 
" clip-path="url(#p087626d9b7)" style="fill: none; stroke: #000000; stroke-width: 1.2"/>
    <path d="M 78.256923 118.285597 
L 117.533532 152.159266 
" clip-path="url(#p087626d9b7)" style="fill: none; stroke: #000000; stroke-width: 1.2"/>
    <path d="M 58.618808 111.840069 
L 62.223779 130.883956 
" clip-path="url(#p087626d9b7)" style="fill: none; stroke: #000000; stroke-width: 1.2"/>
    <path d="M 58.618808 111.840069 
L 69.713697 146.40174 
" clip-path="url(#p087626d9b7)" style="fill: none; stroke: #000000; stroke-width: 1.2"/>
    <path d="M 58.618808 111.840069 
L 94.954898 147.60927 
" clip-path="url(#p087626d9b7)" style="fill: none; stroke: #000000; stroke-width: 1.2"/>
    <path d="M 62.223779 130.883956 
L 83.095799 141.961931 
" clip-path="url(#p087626d9b7)" style="fill: none; stroke: #000000; stroke-width: 1.2"/>
    <path d="M 62.223779 130.883956 
L 69.713697 146.40174 
" clip-path="url(#p087626d9b7)" style="fill: none; stroke: #000000; stroke-width: 1.2"/>
    <path d="M 62.223779 130.883956 
L 116.513993 120.918552 
" clip-path="url(#p087626d9b7)" style="fill: none; stroke: #000000; stroke-width: 1.2"/>
    <path d="M 62.223779 130.883956 
L 94.471639 130.023112 
" clip-path="url(#p087626d9b7)" style="fill: none; stroke: #000000; stroke-width: 1.2"/>
    <path d="M 62.223779 130.883956 
L 109.234579 139.292007 
" clip-path="url(#p087626d9b7)" style="fill: none; stroke: #000000; stroke-width: 1.2"/>
    <path d="M 62.223779 130.883956 
L 94.954898 147.60927 
" clip-path="url(#p087626d9b7)" style="fill: none; stroke: #000000; stroke-width: 1.2"/>
    <path d="M 83.095799 141.961931 
L 69.713697 146.40174 
" clip-path="url(#p087626d9b7)" style="fill: none; stroke: #000000; stroke-width: 1.2"/>
    <path d="M 83.095799 141.961931 
L 116.513993 120.918552 
" clip-path="url(#p087626d9b7)" style="fill: none; stroke: #000000; stroke-width: 1.2"/>
    <path d="M 83.095799 141.961931 
L 116.891601 135.251937 
" clip-path="url(#p087626d9b7)" style="fill: none; stroke: #000000; stroke-width: 1.2"/>
    <path d="M 83.095799 141.961931 
L 109.234579 139.292007 
" clip-path="url(#p087626d9b7)" style="fill: none; stroke: #000000; stroke-width: 1.2"/>
    <path d="M 83.095799 141.961931 
L 117.533532 152.159266 
" clip-path="url(#p087626d9b7)" style="fill: none; stroke: #000000; stroke-width: 1.2"/>
    <path d="M 69.713697 146.40174 
L 116.891601 135.251937 
" clip-path="url(#p087626d9b7)" style="fill: none; stroke: #000000; stroke-width: 1.2"/>
    <path d="M 69.713697 146.40174 
L 94.471639 130.023112 
" clip-path="url(#p087626d9b7)" style="fill: none; stroke: #000000; stroke-width: 1.2"/>
    <path d="M 69.713697 146.40174 
L 117.533532 152.159266 
" clip-path="url(#p087626d9b7)" style="fill: none; stroke: #000000; stroke-width: 1.2"/>
    <path d="M 69.713697 146.40174 
L 94.954898 147.60927 
" clip-path="url(#p087626d9b7)" style="fill: none; stroke: #000000; stroke-width: 1.2"/>
    <path d="M 116.513993 120.918552 
L 116.891601 135.251937 
" clip-path="url(#p087626d9b7)" style="fill: none; stroke: #000000; stroke-width: 1.2"/>
    <path d="M 116.513993 120.918552 
L 94.471639 130.023112 
" clip-path="url(#p087626d9b7)" style="fill: none; stroke: #000000; stroke-width: 1.2"/>
    <path d="M 116.513993 120.918552 
L 140.985678 120.541987 
" clip-path="url(#p087626d9b7)" style="fill: none; stroke: #000000; stroke-width: 1.2"/>
    <path d="M 116.513993 120.918552 
L 154.544088 128.47156 
" clip-path="url(#p087626d9b7)" style="fill: none; stroke: #000000; stroke-width: 1.2"/>
    <path d="M 116.891601 135.251937 
L 94.471639 130.023112 
" clip-path="url(#p087626d9b7)" style="fill: none; stroke: #000000; stroke-width: 1.2"/>
    <path d="M 116.891601 135.251937 
L 154.544088 128.47156 
" clip-path="url(#p087626d9b7)" style="fill: none; stroke: #000000; stroke-width: 1.2"/>
    <path d="M 116.891601 135.251937 
L 138.830214 138.371148 
" clip-path="url(#p087626d9b7)" style="fill: none; stroke: #000000; stroke-width: 1.2"/>
    <path d="M 94.471639 130.023112 
L 140.985678 120.541987 
" clip-path="url(#p087626d9b7)" style="fill: none; stroke: #000000; stroke-width: 1.2"/>
    <path d="M 94.471639 130.023112 
L 138.830214 138.371148 
" clip-path="url(#p087626d9b7)" style="fill: none; stroke: #000000; stroke-width: 1.2"/>
    <path d="M 140.985678 120.541987 
L 154.544088 128.47156 
" clip-path="url(#p087626d9b7)" style="fill: none; stroke: #000000; stroke-width: 1.2"/>
    <path d="M 140.985678 120.541987 
L 138.830214 138.371148 
" clip-path="url(#p087626d9b7)" style="fill: none; stroke: #000000; stroke-width: 1.2"/>
    <path d="M 140.985678 120.541987 
L 109.234579 139.292007 
" clip-path="url(#p087626d9b7)" style="fill: none; stroke: #000000; stroke-width: 1.2"/>
    <path d="M 140.985678 120.541987 
L 94.954898 147.60927 
" clip-path="url(#p087626d9b7)" style="fill: none; stroke: #000000; stroke-width: 1.2"/>
    <path d="M 154.544088 128.47156 
L 138.830214 138.371148 
" clip-path="url(#p087626d9b7)" style="fill: none; stroke: #000000; stroke-width: 1.2"/>
    <path d="M 154.544088 128.47156 
L 109.234579 139.292007 
" clip-path="url(#p087626d9b7)" style="fill: none; stroke: #000000; stroke-width: 1.2"/>
    <path d="M 154.544088 128.47156 
L 117.533532 152.159266 
" clip-path="url(#p087626d9b7)" style="fill: none; stroke: #000000; stroke-width: 1.2"/>
    <path d="M 154.544088 128.47156 
L 169.049713 157.930261 
" clip-path="url(#p087626d9b7)" style="fill: none; stroke: #000000; stroke-width: 1.2"/>
    <path d="M 138.830214 138.371148 
L 117.533532 152.159266 
" clip-path="url(#p087626d9b7)" style="fill: none; stroke: #000000; stroke-width: 1.2"/>
    <path d="M 138.830214 138.371148 
L 94.954898 147.60927 
" clip-path="url(#p087626d9b7)" style="fill: none; stroke: #000000; stroke-width: 1.2"/>
    <path d="M 138.830214 138.371148 
L 169.049713 157.930261 
" clip-path="url(#p087626d9b7)" style="fill: none; stroke: #000000; stroke-width: 1.2"/>
    <path d="M 109.234579 139.292007 
L 117.533532 152.159266 
" clip-path="url(#p087626d9b7)" style="fill: none; stroke: #000000; stroke-width: 1.2"/>
    <path d="M 109.234579 139.292007 
L 94.954898 147.60927 
" clip-path="url(#p087626d9b7)" style="fill: none; stroke: #000000; stroke-width: 1.2"/>
    <path d="M 117.533532 152.159266 
L 94.954898 147.60927 
" clip-path="url(#p087626d9b7)" style="fill: none; stroke: #000000; stroke-width: 1.2"/>
    <path d="M 117.533532 152.159266 
L 146.556002 179.380196 
" clip-path="url(#p087626d9b7)" style="fill: none; stroke: #000000; stroke-width: 1.2"/>
    <path d="M 149.78308 237.076364 
L 169.142071 200.710459 
" clip-path="url(#p087626d9b7)" style="fill: none; stroke: #000000; stroke-width: 1.2"/>
    <path d="M 184.562194 232.325074 
L 169.142071 200.710459 
" clip-path="url(#p087626d9b7)" style="fill: none; stroke: #000000; stroke-width: 1.2"/>
    <path d="M 169.049713 157.930261 
L 169.142071 200.710459 
" clip-path="url(#p087626d9b7)" style="fill: none; stroke: #000000; stroke-width: 1.2"/>
    <path d="M 223.387422 213.984844 
L 196.353972 188.13897 
" clip-path="url(#p087626d9b7)" style="fill: none; stroke: #000000; stroke-width: 1.2"/>
    <path d="M 146.556002 179.380196 
L 196.353972 188.13897 
" clip-path="url(#p087626d9b7)" style="fill: none; stroke: #000000; stroke-width: 1.2"/>
    <path d="M 239.831405 183.010729 
L 196.353972 188.13897 
" clip-path="url(#p087626d9b7)" style="fill: none; stroke: #000000; stroke-width: 1.2"/>
    <path d="M 169.142071 200.710459 
L 196.353972 188.13897 
" clip-path="url(#p087626d9b7)" style="fill: none; stroke: #000000; stroke-width: 1.2"/>
   </g>
   <g id="PathCollection_1">
    <defs>
     <path id="C0_0_68d6bc6210" d="M 0 8.944272 
C 2.372049 8.944272 4.647264 8.001847 6.324555 6.324555 
C 8.001847 4.647264 8.944272 2.372049 8.944272 -0 
C 8.944272 -2.372049 8.001847 -4.647264 6.324555 -6.324555 
C 4.647264 -8.001847 2.372049 -8.944272 0 -8.944272 
C -2.372049 -8.944272 -4.647264 -8.001847 -6.324555 -6.324555 
C -8.001847 -4.647264 -8.944272 -2.372049 -8.944272 0 
C -8.944272 2.372049 -8.001847 4.647264 -6.324555 6.324555 
C -4.647264 8.001847 -2.372049 8.944272 0 8.944272 
z
"/>
    </defs>
    <g clip-path="url(#p087626d9b7)">
     <use xlink:href="#C0_0_68d6bc6210" x="69.449863" y="71.139642" style="fill: #f08fa1; stroke: #f08fa1; stroke-width: 0.5"/>
    </g>
    <g clip-path="url(#p087626d9b7)">
     <use xlink:href="#C0_0_68d6bc6210" x="55.368595" y="83.525136" style="fill: #f08fa1; stroke: #f08fa1; stroke-width: 0.5"/>
    </g>
    <g clip-path="url(#p087626d9b7)">
     <use xlink:href="#C0_0_68d6bc6210" x="111.370063" y="53.803636" style="fill: #f08fa1; stroke: #f08fa1; stroke-width: 0.5"/>
    </g>
    <g clip-path="url(#p087626d9b7)">
     <use xlink:href="#C0_0_68d6bc6210" x="101.932697" y="65.354317" style="fill: #f08fa1; stroke: #f08fa1; stroke-width: 0.5"/>
    </g>
    <g clip-path="url(#p087626d9b7)">
     <use xlink:href="#C0_0_68d6bc6210" x="86.470353" y="59.235961" style="fill: #f08fa1; stroke: #f08fa1; stroke-width: 0.5"/>
    </g>
    <g clip-path="url(#p087626d9b7)">
     <use xlink:href="#C0_0_68d6bc6210" x="129.752628" y="58.196822" style="fill: #f08fa1; stroke: #f08fa1; stroke-width: 0.5"/>
    </g>
    <g clip-path="url(#p087626d9b7)">
     <use xlink:href="#C0_0_68d6bc6210" x="148.116296" y="70.371927" style="fill: #f08fa1; stroke: #f08fa1; stroke-width: 0.5"/>
    </g>
    <g clip-path="url(#p087626d9b7)">
     <use xlink:href="#C0_0_68d6bc6210" x="130.479729" y="72.147297" style="fill: #f08fa1; stroke: #f08fa1; stroke-width: 0.5"/>
    </g>
    <g clip-path="url(#p087626d9b7)">
     <use xlink:href="#C0_0_68d6bc6210" x="113.011148" y="70.679055" style="fill: #f08fa1; stroke: #f08fa1; stroke-width: 0.5"/>
    </g>
    <g clip-path="url(#p087626d9b7)">
     <use xlink:href="#C0_0_68d6bc6210" x="98.877923" y="81.624349" style="fill: #f08fa1; stroke: #f08fa1; stroke-width: 0.5"/>
    </g>
    <g clip-path="url(#p087626d9b7)">
     <use xlink:href="#C0_0_68d6bc6210" x="82.468378" y="74.712822" style="fill: #f08fa1; stroke: #f08fa1; stroke-width: 0.5"/>
    </g>
    <g clip-path="url(#p087626d9b7)">
     <use xlink:href="#C0_0_68d6bc6210" x="83.881535" y="89.417015" style="fill: #f08fa1; stroke: #f08fa1; stroke-width: 0.5"/>
    </g>
    <g clip-path="url(#p087626d9b7)">
     <use xlink:href="#C0_0_68d6bc6210" x="104.893572" y="94.099268" style="fill: #f08fa1; stroke: #f08fa1; stroke-width: 0.5"/>
    </g>
    <g clip-path="url(#p087626d9b7)">
     <use xlink:href="#C0_0_68d6bc6210" x="84.718776" y="103.012223" style="fill: #f08fa1; stroke: #f08fa1; stroke-width: 0.5"/>
    </g>
    <g clip-path="url(#p087626d9b7)">
     <use xlink:href="#C0_0_68d6bc6210" x="143.4673" y="89.586548" style="fill: #f08fa1; stroke: #f08fa1; stroke-width: 0.5"/>
    </g>
    <g clip-path="url(#p087626d9b7)">
     <use xlink:href="#C0_0_68d6bc6210" x="143.662086" y="101.66168" style="fill: #f08fa1; stroke: #f08fa1; stroke-width: 0.5"/>
    </g>
    <g clip-path="url(#p087626d9b7)">
     <use xlink:href="#C0_0_68d6bc6210" x="125.358747" y="94.655012" style="fill: #f08fa1; stroke: #f08fa1; stroke-width: 0.5"/>
    </g>
    <g clip-path="url(#p087626d9b7)">
     <use xlink:href="#C0_0_68d6bc6210" x="104.768474" y="101.517327" style="fill: #f08fa1; stroke: #f08fa1; stroke-width: 0.5"/>
    </g>
    <g clip-path="url(#p087626d9b7)">
     <use xlink:href="#C0_0_68d6bc6210" x="128.243426" y="109.800522" style="fill: #f08fa1; stroke: #f08fa1; stroke-width: 0.5"/>
    </g>
    <g clip-path="url(#p087626d9b7)">
     <use xlink:href="#C0_0_68d6bc6210" x="108.667868" y="116.219442" style="fill: #f08fa1; stroke: #f08fa1; stroke-width: 0.5"/>
    </g>
    <g clip-path="url(#p087626d9b7)">
     <use xlink:href="#C0_0_68d6bc6210" x="72.531749" y="104.432873" style="fill: #f08fa1; stroke: #f08fa1; stroke-width: 0.5"/>
    </g>
    <g clip-path="url(#p087626d9b7)">
     <use xlink:href="#C0_0_68d6bc6210" x="78.256923" y="118.285597" style="fill: #f08fa1; stroke: #f08fa1; stroke-width: 0.5"/>
    </g>
    <g clip-path="url(#p087626d9b7)">
     <use xlink:href="#C0_0_68d6bc6210" x="58.618808" y="111.840069" style="fill: #f08fa1; stroke: #f08fa1; stroke-width: 0.5"/>
    </g>
    <g clip-path="url(#p087626d9b7)">
     <use xlink:href="#C0_0_68d6bc6210" x="62.223779" y="130.883956" style="fill: #f08fa1; stroke: #f08fa1; stroke-width: 0.5"/>
    </g>
    <g clip-path="url(#p087626d9b7)">
     <use xlink:href="#C0_0_68d6bc6210" x="83.095799" y="141.961931" style="fill: #f08fa1; stroke: #f08fa1; stroke-width: 0.5"/>
    </g>
    <g clip-path="url(#p087626d9b7)">
     <use xlink:href="#C0_0_68d6bc6210" x="69.713697" y="146.40174" style="fill: #f08fa1; stroke: #f08fa1; stroke-width: 0.5"/>
    </g>
    <g clip-path="url(#p087626d9b7)">
     <use xlink:href="#C0_0_68d6bc6210" x="116.513993" y="120.918552" style="fill: #f08fa1; stroke: #f08fa1; stroke-width: 0.5"/>
    </g>
    <g clip-path="url(#p087626d9b7)">
     <use xlink:href="#C0_0_68d6bc6210" x="116.891601" y="135.251937" style="fill: #f08fa1; stroke: #f08fa1; stroke-width: 0.5"/>
    </g>
    <g clip-path="url(#p087626d9b7)">
     <use xlink:href="#C0_0_68d6bc6210" x="94.471639" y="130.023112" style="fill: #f08fa1; stroke: #f08fa1; stroke-width: 0.5"/>
    </g>
    <g clip-path="url(#p087626d9b7)">
     <use xlink:href="#C0_0_68d6bc6210" x="140.985678" y="120.541987" style="fill: #f08fa1; stroke: #f08fa1; stroke-width: 0.5"/>
    </g>
    <g clip-path="url(#p087626d9b7)">
     <use xlink:href="#C0_0_68d6bc6210" x="154.544088" y="128.47156" style="fill: #f08fa1; stroke: #f08fa1; stroke-width: 0.5"/>
    </g>
    <g clip-path="url(#p087626d9b7)">
     <use xlink:href="#C0_0_68d6bc6210" x="138.830214" y="138.371148" style="fill: #f08fa1; stroke: #f08fa1; stroke-width: 0.5"/>
    </g>
    <g clip-path="url(#p087626d9b7)">
     <use xlink:href="#C0_0_68d6bc6210" x="109.234579" y="139.292007" style="fill: #f08fa1; stroke: #f08fa1; stroke-width: 0.5"/>
    </g>
    <g clip-path="url(#p087626d9b7)">
     <use xlink:href="#C0_0_68d6bc6210" x="117.533532" y="152.159266" style="fill: #f08fa1; stroke: #f08fa1; stroke-width: 0.5"/>
    </g>
    <g clip-path="url(#p087626d9b7)">
     <use xlink:href="#C0_0_68d6bc6210" x="94.954898" y="147.60927" style="fill: #f08fa1; stroke: #f08fa1; stroke-width: 0.5"/>
    </g>
    <g clip-path="url(#p087626d9b7)">
     <use xlink:href="#C0_0_68d6bc6210" x="149.78308" y="237.076364" style="fill: #bfbfbf; stroke: #bfbfbf; stroke-width: 0.5"/>
    </g>
    <g clip-path="url(#p087626d9b7)">
     <use xlink:href="#C0_0_68d6bc6210" x="184.562194" y="232.325074" style="fill: #bfbfbf; stroke: #bfbfbf; stroke-width: 0.5"/>
    </g>
    <g clip-path="url(#p087626d9b7)">
     <use xlink:href="#C0_0_68d6bc6210" x="169.049713" y="157.930261" style="fill: #bfbfbf; stroke: #bfbfbf; stroke-width: 0.5"/>
    </g>
    <g clip-path="url(#p087626d9b7)">
     <use xlink:href="#C0_0_68d6bc6210" x="223.387422" y="213.984844" style="fill: #bfbfbf; stroke: #bfbfbf; stroke-width: 0.5"/>
    </g>
    <g clip-path="url(#p087626d9b7)">
     <use xlink:href="#C0_0_68d6bc6210" x="146.556002" y="179.380196" style="fill: #bfbfbf; stroke: #bfbfbf; stroke-width: 0.5"/>
    </g>
    <g clip-path="url(#p087626d9b7)">
     <use xlink:href="#C0_0_68d6bc6210" x="239.831405" y="183.010729" style="fill: #bfbfbf; stroke: #bfbfbf; stroke-width: 0.5"/>
    </g>
    <g clip-path="url(#p087626d9b7)">
     <use xlink:href="#C0_0_68d6bc6210" x="169.142071" y="200.710459" style="fill: #666666; stroke: #666666; stroke-width: 0.5"/>
    </g>
    <g clip-path="url(#p087626d9b7)">
     <use xlink:href="#C0_0_68d6bc6210" x="196.353972" y="188.13897" style="fill: #666666; stroke: #666666; stroke-width: 0.5"/>
    </g>
   </g>
   <g id="text_1">
    <!-- C2H6Co48 -->
    <g transform="translate(123.495763 6.074102) scale(0.1 -0.1)">
     <defs>
      <path id="DejaVuSans-43" d="M 4122 4306 
L 4122 3641 
Q 3803 3938 3442 4084 
Q 3081 4231 2675 4231 
Q 1875 4231 1450 3742 
Q 1025 3253 1025 2328 
Q 1025 1406 1450 917 
Q 1875 428 2675 428 
Q 3081 428 3442 575 
Q 3803 722 4122 1019 
L 4122 359 
Q 3791 134 3420 21 
Q 3050 -91 2638 -91 
Q 1578 -91 968 557 
Q 359 1206 359 2328 
Q 359 3453 968 4101 
Q 1578 4750 2638 4750 
Q 3056 4750 3426 4639 
Q 3797 4528 4122 4306 
z
" transform="scale(0.015625)"/>
      <path id="DejaVuSans-32" d="M 1228 531 
L 3431 531 
L 3431 0 
L 469 0 
L 469 531 
Q 828 903 1448 1529 
Q 2069 2156 2228 2338 
Q 2531 2678 2651 2914 
Q 2772 3150 2772 3378 
Q 2772 3750 2511 3984 
Q 2250 4219 1831 4219 
Q 1534 4219 1204 4116 
Q 875 4013 500 3803 
L 500 4441 
Q 881 4594 1212 4672 
Q 1544 4750 1819 4750 
Q 2544 4750 2975 4387 
Q 3406 4025 3406 3419 
Q 3406 3131 3298 2873 
Q 3191 2616 2906 2266 
Q 2828 2175 2409 1742 
Q 1991 1309 1228 531 
z
" transform="scale(0.015625)"/>
      <path id="DejaVuSans-48" d="M 628 4666 
L 1259 4666 
L 1259 2753 
L 3553 2753 
L 3553 4666 
L 4184 4666 
L 4184 0 
L 3553 0 
L 3553 2222 
L 1259 2222 
L 1259 0 
L 628 0 
L 628 4666 
z
" transform="scale(0.015625)"/>
      <path id="DejaVuSans-36" d="M 2113 2584 
Q 1688 2584 1439 2293 
Q 1191 2003 1191 1497 
Q 1191 994 1439 701 
Q 1688 409 2113 409 
Q 2538 409 2786 701 
Q 3034 994 3034 1497 
Q 3034 2003 2786 2293 
Q 2538 2584 2113 2584 
z
M 3366 4563 
L 3366 3988 
Q 3128 4100 2886 4159 
Q 2644 4219 2406 4219 
Q 1781 4219 1451 3797 
Q 1122 3375 1075 2522 
Q 1259 2794 1537 2939 
Q 1816 3084 2150 3084 
Q 2853 3084 3261 2657 
Q 3669 2231 3669 1497 
Q 3669 778 3244 343 
Q 2819 -91 2113 -91 
Q 1303 -91 875 529 
Q 447 1150 447 2328 
Q 447 3434 972 4092 
Q 1497 4750 2381 4750 
Q 2619 4750 2861 4703 
Q 3103 4656 3366 4563 
z
" transform="scale(0.015625)"/>
      <path id="DejaVuSans-6f" d="M 1959 3097 
Q 1497 3097 1228 2736 
Q 959 2375 959 1747 
Q 959 1119 1226 758 
Q 1494 397 1959 397 
Q 2419 397 2687 759 
Q 2956 1122 2956 1747 
Q 2956 2369 2687 2733 
Q 2419 3097 1959 3097 
z
M 1959 3584 
Q 2709 3584 3137 3096 
Q 3566 2609 3566 1747 
Q 3566 888 3137 398 
Q 2709 -91 1959 -91 
Q 1206 -91 779 398 
Q 353 888 353 1747 
Q 353 2609 779 3096 
Q 1206 3584 1959 3584 
z
" transform="scale(0.015625)"/>
      <path id="DejaVuSans-34" d="M 2419 4116 
L 825 1625 
L 2419 1625 
L 2419 4116 
z
M 2253 4666 
L 3047 4666 
L 3047 1625 
L 3713 1625 
L 3713 1100 
L 3047 1100 
L 3047 0 
L 2419 0 
L 2419 1100 
L 313 1100 
L 313 1709 
L 2253 4666 
z
" transform="scale(0.015625)"/>
      <path id="DejaVuSans-38" d="M 2034 2216 
Q 1584 2216 1326 1975 
Q 1069 1734 1069 1313 
Q 1069 891 1326 650 
Q 1584 409 2034 409 
Q 2484 409 2743 651 
Q 3003 894 3003 1313 
Q 3003 1734 2745 1975 
Q 2488 2216 2034 2216 
z
M 1403 2484 
Q 997 2584 770 2862 
Q 544 3141 544 3541 
Q 544 4100 942 4425 
Q 1341 4750 2034 4750 
Q 2731 4750 3128 4425 
Q 3525 4100 3525 3541 
Q 3525 3141 3298 2862 
Q 3072 2584 2669 2484 
Q 3125 2378 3379 2068 
Q 3634 1759 3634 1313 
Q 3634 634 3220 271 
Q 2806 -91 2034 -91 
Q 1263 -91 848 271 
Q 434 634 434 1313 
Q 434 1759 690 2068 
Q 947 2378 1403 2484 
z
M 1172 3481 
Q 1172 3119 1398 2916 
Q 1625 2713 2034 2713 
Q 2441 2713 2670 2916 
Q 2900 3119 2900 3481 
Q 2900 3844 2670 4047 
Q 2441 4250 2034 4250 
Q 1625 4250 1398 4047 
Q 1172 3844 1172 3481 
z
" transform="scale(0.015625)"/>
     </defs>
     <use xlink:href="#DejaVuSans-43"/>
     <use xlink:href="#DejaVuSans-32" transform="translate(69.824219 0)"/>
     <use xlink:href="#DejaVuSans-48" transform="translate(133.447266 0)"/>
     <use xlink:href="#DejaVuSans-36" transform="translate(208.642578 0)"/>
     <use xlink:href="#DejaVuSans-43" transform="translate(272.265625 0)"/>
     <use xlink:href="#DejaVuSans-6f" transform="translate(342.089844 0)"/>
     <use xlink:href="#DejaVuSans-34" transform="translate(403.271484 0)"/>
     <use xlink:href="#DejaVuSans-38" transform="translate(466.894531 0)"/>
    </g>
    <!-- Error: -6.91 eV -->
    <g transform="translate(123.495763 17.271915) scale(0.1 -0.1)">
     <defs>
      <path id="DejaVuSans-45" d="M 628 4666 
L 3578 4666 
L 3578 4134 
L 1259 4134 
L 1259 2753 
L 3481 2753 
L 3481 2222 
L 1259 2222 
L 1259 531 
L 3634 531 
L 3634 0 
L 628 0 
L 628 4666 
z
" transform="scale(0.015625)"/>
      <path id="DejaVuSans-72" d="M 2631 2963 
Q 2534 3019 2420 3045 
Q 2306 3072 2169 3072 
Q 1681 3072 1420 2755 
Q 1159 2438 1159 1844 
L 1159 0 
L 581 0 
L 581 3500 
L 1159 3500 
L 1159 2956 
Q 1341 3275 1631 3429 
Q 1922 3584 2338 3584 
Q 2397 3584 2469 3576 
Q 2541 3569 2628 3553 
L 2631 2963 
z
" transform="scale(0.015625)"/>
      <path id="DejaVuSans-3a" d="M 750 794 
L 1409 794 
L 1409 0 
L 750 0 
L 750 794 
z
M 750 3309 
L 1409 3309 
L 1409 2516 
L 750 2516 
L 750 3309 
z
" transform="scale(0.015625)"/>
      <path id="DejaVuSans-20" transform="scale(0.015625)"/>
      <path id="DejaVuSans-2d" d="M 313 2009 
L 1997 2009 
L 1997 1497 
L 313 1497 
L 313 2009 
z
" transform="scale(0.015625)"/>
      <path id="DejaVuSans-2e" d="M 684 794 
L 1344 794 
L 1344 0 
L 684 0 
L 684 794 
z
" transform="scale(0.015625)"/>
      <path id="DejaVuSans-39" d="M 703 97 
L 703 672 
Q 941 559 1184 500 
Q 1428 441 1663 441 
Q 2288 441 2617 861 
Q 2947 1281 2994 2138 
Q 2813 1869 2534 1725 
Q 2256 1581 1919 1581 
Q 1219 1581 811 2004 
Q 403 2428 403 3163 
Q 403 3881 828 4315 
Q 1253 4750 1959 4750 
Q 2769 4750 3195 4129 
Q 3622 3509 3622 2328 
Q 3622 1225 3098 567 
Q 2575 -91 1691 -91 
Q 1453 -91 1209 -44 
Q 966 3 703 97 
z
M 1959 2075 
Q 2384 2075 2632 2365 
Q 2881 2656 2881 3163 
Q 2881 3666 2632 3958 
Q 2384 4250 1959 4250 
Q 1534 4250 1286 3958 
Q 1038 3666 1038 3163 
Q 1038 2656 1286 2365 
Q 1534 2075 1959 2075 
z
" transform="scale(0.015625)"/>
      <path id="DejaVuSans-31" d="M 794 531 
L 1825 531 
L 1825 4091 
L 703 3866 
L 703 4441 
L 1819 4666 
L 2450 4666 
L 2450 531 
L 3481 531 
L 3481 0 
L 794 0 
L 794 531 
z
" transform="scale(0.015625)"/>
      <path id="DejaVuSans-65" d="M 3597 1894 
L 3597 1613 
L 953 1613 
Q 991 1019 1311 708 
Q 1631 397 2203 397 
Q 2534 397 2845 478 
Q 3156 559 3463 722 
L 3463 178 
Q 3153 47 2828 -22 
Q 2503 -91 2169 -91 
Q 1331 -91 842 396 
Q 353 884 353 1716 
Q 353 2575 817 3079 
Q 1281 3584 2069 3584 
Q 2775 3584 3186 3129 
Q 3597 2675 3597 1894 
z
M 3022 2063 
Q 3016 2534 2758 2815 
Q 2500 3097 2075 3097 
Q 1594 3097 1305 2825 
Q 1016 2553 972 2059 
L 3022 2063 
z
" transform="scale(0.015625)"/>
      <path id="DejaVuSans-56" d="M 1831 0 
L 50 4666 
L 709 4666 
L 2188 738 
L 3669 4666 
L 4325 4666 
L 2547 0 
L 1831 0 
z
" transform="scale(0.015625)"/>
     </defs>
     <use xlink:href="#DejaVuSans-45"/>
     <use xlink:href="#DejaVuSans-72" transform="translate(63.183594 0)"/>
     <use xlink:href="#DejaVuSans-72" transform="translate(102.546875 0)"/>
     <use xlink:href="#DejaVuSans-6f" transform="translate(141.410156 0)"/>
     <use xlink:href="#DejaVuSans-72" transform="translate(202.591797 0)"/>
     <use xlink:href="#DejaVuSans-3a" transform="translate(241.955078 0)"/>
     <use xlink:href="#DejaVuSans-20" transform="translate(275.646484 0)"/>
     <use xlink:href="#DejaVuSans-2d" transform="translate(307.433594 0)"/>
     <use xlink:href="#DejaVuSans-36" transform="translate(343.517578 0)"/>
     <use xlink:href="#DejaVuSans-2e" transform="translate(407.140625 0)"/>
     <use xlink:href="#DejaVuSans-39" transform="translate(438.927734 0)"/>
     <use xlink:href="#DejaVuSans-31" transform="translate(502.550781 0)"/>
     <use xlink:href="#DejaVuSans-20" transform="translate(566.173828 0)"/>
     <use xlink:href="#DejaVuSans-65" transform="translate(597.960938 0)"/>
     <use xlink:href="#DejaVuSans-56" transform="translate(659.484375 0)"/>
    </g>
   </g>
  </g>
 </g>
 <defs>
  <clipPath id="p087626d9b7">
   <rect x="36" y="34.56" width="223.2" height="221.76"/>
  </clipPath>
 </defs>
</svg>
