<?xml version="1.0" encoding="utf-8" standalone="no"?>
<!DOCTYPE svg PUBLIC "-//W3C//DTD SVG 1.1//EN"
  "http://www.w3.org/Graphics/SVG/1.1/DTD/svg11.dtd">
<svg xmlns:xlink="http://www.w3.org/1999/xlink" width="288pt" height="288pt" viewBox="0 0 288 288" xmlns="http://www.w3.org/2000/svg" version="1.1">
 <metadata>
  <rdf:RDF xmlns:dc="http://purl.org/dc/elements/1.1/" xmlns:cc="http://creativecommons.org/ns#" xmlns:rdf="http://www.w3.org/1999/02/22-rdf-syntax-ns#">
   <cc:Work>
    <dc:type rdf:resource="http://purl.org/dc/dcmitype/StillImage"/>
    <dc:date>2025-06-30T11:56:44.604327</dc:date>
    <dc:format>image/svg+xml</dc:format>
    <dc:creator>
     <cc:Agent>
      <dc:title>Matplotlib v3.10.1, https://matplotlib.org/</dc:title>
     </cc:Agent>
    </dc:creator>
   </cc:Work>
  </rdf:RDF>
 </metadata>
 <defs>
  <style type="text/css">*{stroke-linejoin: round; stroke-linecap: butt}</style>
 </defs>
 <g id="figure_1">
  <g id="patch_1">
   <path d="M 0 288 
L 288 288 
L 288 0 
L 0 0 
z
" style="fill: #ffffff"/>
  </g>
  <g id="axes_1">
   <g id="LineCollection_1">
    <path d="M 128.310568 73.582052 
L 144.715047 95.729115 
" clip-path="url(#pc754d09b87)" style="fill: none; stroke: #000000; stroke-width: 1.2"/>
    <path d="M 128.310568 73.582052 
L 90.792318 59.846408 
" clip-path="url(#pc754d09b87)" style="fill: none; stroke: #000000; stroke-width: 1.2"/>
    <path d="M 128.310568 73.582052 
L 120.036425 58.991523 
" clip-path="url(#pc754d09b87)" style="fill: none; stroke: #000000; stroke-width: 1.2"/>
    <path d="M 128.310568 73.582052 
L 140.322898 76.351308 
" clip-path="url(#pc754d09b87)" style="fill: none; stroke: #000000; stroke-width: 1.2"/>
    <path d="M 128.310568 73.582052 
L 92.624689 98.519424 
" clip-path="url(#pc754d09b87)" style="fill: none; stroke: #000000; stroke-width: 1.2"/>
    <path d="M 128.310568 73.582052 
L 129.962851 112.08683 
" clip-path="url(#pc754d09b87)" style="fill: none; stroke: #000000; stroke-width: 1.2"/>
    <path d="M 128.310568 73.582052 
L 111.755353 101.779912 
" clip-path="url(#pc754d09b87)" style="fill: none; stroke: #000000; stroke-width: 1.2"/>
    <path d="M 144.715047 95.729115 
L 140.322898 76.351308 
" clip-path="url(#pc754d09b87)" style="fill: none; stroke: #000000; stroke-width: 1.2"/>
    <path d="M 144.715047 95.729115 
L 102.161247 88.345378 
" clip-path="url(#pc754d09b87)" style="fill: none; stroke: #000000; stroke-width: 1.2"/>
    <path d="M 144.715047 95.729115 
L 106.384297 117.877704 
" clip-path="url(#pc754d09b87)" style="fill: none; stroke: #000000; stroke-width: 1.2"/>
    <path d="M 144.715047 95.729115 
L 129.962851 112.08683 
" clip-path="url(#pc754d09b87)" style="fill: none; stroke: #000000; stroke-width: 1.2"/>
    <path d="M 90.792318 59.846408 
L 120.036425 58.991523 
" clip-path="url(#pc754d09b87)" style="fill: none; stroke: #000000; stroke-width: 1.2"/>
    <path d="M 90.792318 59.846408 
L 67.442305 85.850055 
" clip-path="url(#pc754d09b87)" style="fill: none; stroke: #000000; stroke-width: 1.2"/>
    <path d="M 90.792318 59.846408 
L 71.539857 105.288963 
" clip-path="url(#pc754d09b87)" style="fill: none; stroke: #000000; stroke-width: 1.2"/>
    <path d="M 90.792318 59.846408 
L 111.755353 101.779912 
" clip-path="url(#pc754d09b87)" style="fill: none; stroke: #000000; stroke-width: 1.2"/>
    <path d="M 120.036425 58.991523 
L 140.322898 76.351308 
" clip-path="url(#pc754d09b87)" style="fill: none; stroke: #000000; stroke-width: 1.2"/>
    <path d="M 120.036425 58.991523 
L 102.867752 53.803636 
" clip-path="url(#pc754d09b87)" style="fill: none; stroke: #000000; stroke-width: 1.2"/>
    <path d="M 120.036425 58.991523 
L 111.755353 101.779912 
" clip-path="url(#pc754d09b87)" style="fill: none; stroke: #000000; stroke-width: 1.2"/>
    <path d="M 120.036425 58.991523 
L 88.828488 85.061713 
" clip-path="url(#pc754d09b87)" style="fill: none; stroke: #000000; stroke-width: 1.2"/>
    <path d="M 120.036425 58.991523 
L 116.143689 90.012197 
" clip-path="url(#pc754d09b87)" style="fill: none; stroke: #000000; stroke-width: 1.2"/>
    <path d="M 140.322898 76.351308 
L 102.867752 53.803636 
" clip-path="url(#pc754d09b87)" style="fill: none; stroke: #000000; stroke-width: 1.2"/>
    <path d="M 140.322898 76.351308 
L 129.962851 112.08683 
" clip-path="url(#pc754d09b87)" style="fill: none; stroke: #000000; stroke-width: 1.2"/>
    <path d="M 140.322898 76.351308 
L 116.143689 90.012197 
" clip-path="url(#pc754d09b87)" style="fill: none; stroke: #000000; stroke-width: 1.2"/>
    <path d="M 140.322898 76.351308 
L 101.96606 106.066098 
" clip-path="url(#pc754d09b87)" style="fill: none; stroke: #000000; stroke-width: 1.2"/>
    <path d="M 102.867752 53.803636 
L 74.211373 72.401556 
" clip-path="url(#pc754d09b87)" style="fill: none; stroke: #000000; stroke-width: 1.2"/>
    <path d="M 102.867752 53.803636 
L 116.143689 90.012197 
" clip-path="url(#pc754d09b87)" style="fill: none; stroke: #000000; stroke-width: 1.2"/>
    <path d="M 102.867752 53.803636 
L 76.223017 91.456332 
" clip-path="url(#pc754d09b87)" style="fill: none; stroke: #000000; stroke-width: 1.2"/>
    <path d="M 102.161247 88.345378 
L 74.211373 72.401556 
" clip-path="url(#pc754d09b87)" style="fill: none; stroke: #000000; stroke-width: 1.2"/>
    <path d="M 102.161247 88.345378 
L 67.442305 85.850055 
" clip-path="url(#pc754d09b87)" style="fill: none; stroke: #000000; stroke-width: 1.2"/>
    <path d="M 102.161247 88.345378 
L 106.384297 117.877704 
" clip-path="url(#pc754d09b87)" style="fill: none; stroke: #000000; stroke-width: 1.2"/>
    <path d="M 102.161247 88.345378 
L 129.962851 112.08683 
" clip-path="url(#pc754d09b87)" style="fill: none; stroke: #000000; stroke-width: 1.2"/>
    <path d="M 102.161247 88.345378 
L 88.828488 85.061713 
" clip-path="url(#pc754d09b87)" style="fill: none; stroke: #000000; stroke-width: 1.2"/>
    <path d="M 102.161247 88.345378 
L 101.96606 106.066098 
" clip-path="url(#pc754d09b87)" style="fill: none; stroke: #000000; stroke-width: 1.2"/>
    <path d="M 102.161247 88.345378 
L 70.233773 125.241204 
" clip-path="url(#pc754d09b87)" style="fill: none; stroke: #000000; stroke-width: 1.2"/>
    <path d="M 102.161247 88.345378 
L 55.368595 101.144797 
" clip-path="url(#pc754d09b87)" style="fill: none; stroke: #000000; stroke-width: 1.2"/>
    <path d="M 102.161247 88.345378 
L 104.332161 133.304361 
" clip-path="url(#pc754d09b87)" style="fill: none; stroke: #000000; stroke-width: 1.2"/>
    <path d="M 74.211373 72.401556 
L 67.442305 85.850055 
" clip-path="url(#pc754d09b87)" style="fill: none; stroke: #000000; stroke-width: 1.2"/>
    <path d="M 74.211373 72.401556 
L 92.624689 98.519424 
" clip-path="url(#pc754d09b87)" style="fill: none; stroke: #000000; stroke-width: 1.2"/>
    <path d="M 74.211373 72.401556 
L 88.828488 85.061713 
" clip-path="url(#pc754d09b87)" style="fill: none; stroke: #000000; stroke-width: 1.2"/>
    <path d="M 74.211373 72.401556 
L 116.143689 90.012197 
" clip-path="url(#pc754d09b87)" style="fill: none; stroke: #000000; stroke-width: 1.2"/>
    <path d="M 74.211373 72.401556 
L 76.223017 91.456332 
" clip-path="url(#pc754d09b87)" style="fill: none; stroke: #000000; stroke-width: 1.2"/>
    <path d="M 74.211373 72.401556 
L 55.368595 101.144797 
" clip-path="url(#pc754d09b87)" style="fill: none; stroke: #000000; stroke-width: 1.2"/>
    <path d="M 74.211373 72.401556 
L 55.554026 116.978195 
" clip-path="url(#pc754d09b87)" style="fill: none; stroke: #000000; stroke-width: 1.2"/>
    <path d="M 74.211373 72.401556 
L 86.657034 114.223745 
" clip-path="url(#pc754d09b87)" style="fill: none; stroke: #000000; stroke-width: 1.2"/>
    <path d="M 67.442305 85.850055 
L 92.624689 98.519424 
" clip-path="url(#pc754d09b87)" style="fill: none; stroke: #000000; stroke-width: 1.2"/>
    <path d="M 67.442305 85.850055 
L 71.539857 105.288963 
" clip-path="url(#pc754d09b87)" style="fill: none; stroke: #000000; stroke-width: 1.2"/>
    <path d="M 67.442305 85.850055 
L 111.755353 101.779912 
" clip-path="url(#pc754d09b87)" style="fill: none; stroke: #000000; stroke-width: 1.2"/>
    <path d="M 67.442305 85.850055 
L 101.96606 106.066098 
" clip-path="url(#pc754d09b87)" style="fill: none; stroke: #000000; stroke-width: 1.2"/>
    <path d="M 67.442305 85.850055 
L 55.368595 101.144797 
" clip-path="url(#pc754d09b87)" style="fill: none; stroke: #000000; stroke-width: 1.2"/>
    <path d="M 67.442305 85.850055 
L 78.78722 130.261338 
" clip-path="url(#pc754d09b87)" style="fill: none; stroke: #000000; stroke-width: 1.2"/>
    <path d="M 67.442305 85.850055 
L 56.808386 128.554412 
" clip-path="url(#pc754d09b87)" style="fill: none; stroke: #000000; stroke-width: 1.2"/>
    <path d="M 92.624689 98.519424 
L 106.384297 117.877704 
" clip-path="url(#pc754d09b87)" style="fill: none; stroke: #000000; stroke-width: 1.2"/>
    <path d="M 92.624689 98.519424 
L 129.962851 112.08683 
" clip-path="url(#pc754d09b87)" style="fill: none; stroke: #000000; stroke-width: 1.2"/>
    <path d="M 92.624689 98.519424 
L 111.755353 101.779912 
" clip-path="url(#pc754d09b87)" style="fill: none; stroke: #000000; stroke-width: 1.2"/>
    <path d="M 92.624689 98.519424 
L 76.223017 91.456332 
" clip-path="url(#pc754d09b87)" style="fill: none; stroke: #000000; stroke-width: 1.2"/>
    <path d="M 92.624689 98.519424 
L 78.78722 130.261338 
" clip-path="url(#pc754d09b87)" style="fill: none; stroke: #000000; stroke-width: 1.2"/>
    <path d="M 92.624689 98.519424 
L 55.554026 116.978195 
" clip-path="url(#pc754d09b87)" style="fill: none; stroke: #000000; stroke-width: 1.2"/>
    <path d="M 92.624689 98.519424 
L 98.465824 147.912745 
" clip-path="url(#pc754d09b87)" style="fill: none; stroke: #000000; stroke-width: 1.2"/>
    <path d="M 106.384297 117.877704 
L 129.962851 112.08683 
" clip-path="url(#pc754d09b87)" style="fill: none; stroke: #000000; stroke-width: 1.2"/>
    <path d="M 106.384297 117.877704 
L 71.539857 105.288963 
" clip-path="url(#pc754d09b87)" style="fill: none; stroke: #000000; stroke-width: 1.2"/>
    <path d="M 106.384297 117.877704 
L 88.828488 85.061713 
" clip-path="url(#pc754d09b87)" style="fill: none; stroke: #000000; stroke-width: 1.2"/>
    <path d="M 106.384297 117.877704 
L 76.223017 91.456332 
" clip-path="url(#pc754d09b87)" style="fill: none; stroke: #000000; stroke-width: 1.2"/>
    <path d="M 106.384297 117.877704 
L 70.233773 125.241204 
" clip-path="url(#pc754d09b87)" style="fill: none; stroke: #000000; stroke-width: 1.2"/>
    <path d="M 106.384297 117.877704 
L 98.465824 147.912745 
" clip-path="url(#pc754d09b87)" style="fill: none; stroke: #000000; stroke-width: 1.2"/>
    <path d="M 106.384297 117.877704 
L 65.49218 143.164183 
" clip-path="url(#pc754d09b87)" style="fill: none; stroke: #000000; stroke-width: 1.2"/>
    <path d="M 129.962851 112.08683 
L 111.755353 101.779912 
" clip-path="url(#pc754d09b87)" style="fill: none; stroke: #000000; stroke-width: 1.2"/>
    <path d="M 129.962851 112.08683 
L 116.143689 90.012197 
" clip-path="url(#pc754d09b87)" style="fill: none; stroke: #000000; stroke-width: 1.2"/>
    <path d="M 129.962851 112.08683 
L 101.96606 106.066098 
" clip-path="url(#pc754d09b87)" style="fill: none; stroke: #000000; stroke-width: 1.2"/>
    <path d="M 129.962851 112.08683 
L 98.465824 147.912745 
" clip-path="url(#pc754d09b87)" style="fill: none; stroke: #000000; stroke-width: 1.2"/>
    <path d="M 129.962851 112.08683 
L 104.332161 133.304361 
" clip-path="url(#pc754d09b87)" style="fill: none; stroke: #000000; stroke-width: 1.2"/>
    <path d="M 129.962851 112.08683 
L 122.25725 135.653712 
" clip-path="url(#pc754d09b87)" style="fill: none; stroke: #000000; stroke-width: 1.2"/>
    <path d="M 71.539857 105.288963 
L 111.755353 101.779912 
" clip-path="url(#pc754d09b87)" style="fill: none; stroke: #000000; stroke-width: 1.2"/>
    <path d="M 71.539857 105.288963 
L 88.828488 85.061713 
" clip-path="url(#pc754d09b87)" style="fill: none; stroke: #000000; stroke-width: 1.2"/>
    <path d="M 71.539857 105.288963 
L 101.96606 106.066098 
" clip-path="url(#pc754d09b87)" style="fill: none; stroke: #000000; stroke-width: 1.2"/>
    <path d="M 71.539857 105.288963 
L 76.223017 91.456332 
" clip-path="url(#pc754d09b87)" style="fill: none; stroke: #000000; stroke-width: 1.2"/>
    <path d="M 71.539857 105.288963 
L 56.808386 128.554412 
" clip-path="url(#pc754d09b87)" style="fill: none; stroke: #000000; stroke-width: 1.2"/>
    <path d="M 71.539857 105.288963 
L 88.194055 143.423973 
" clip-path="url(#pc754d09b87)" style="fill: none; stroke: #000000; stroke-width: 1.2"/>
    <path d="M 71.539857 105.288963 
L 65.49218 143.164183 
" clip-path="url(#pc754d09b87)" style="fill: none; stroke: #000000; stroke-width: 1.2"/>
    <path d="M 111.755353 101.779912 
L 88.828488 85.061713 
" clip-path="url(#pc754d09b87)" style="fill: none; stroke: #000000; stroke-width: 1.2"/>
    <path d="M 111.755353 101.779912 
L 116.143689 90.012197 
" clip-path="url(#pc754d09b87)" style="fill: none; stroke: #000000; stroke-width: 1.2"/>
    <path d="M 111.755353 101.779912 
L 78.78722 130.261338 
" clip-path="url(#pc754d09b87)" style="fill: none; stroke: #000000; stroke-width: 1.2"/>
    <path d="M 111.755353 101.779912 
L 88.194055 143.423973 
" clip-path="url(#pc754d09b87)" style="fill: none; stroke: #000000; stroke-width: 1.2"/>
    <path d="M 111.755353 101.779912 
L 122.25725 135.653712 
" clip-path="url(#pc754d09b87)" style="fill: none; stroke: #000000; stroke-width: 1.2"/>
    <path d="M 88.828488 85.061713 
L 116.143689 90.012197 
" clip-path="url(#pc754d09b87)" style="fill: none; stroke: #000000; stroke-width: 1.2"/>
    <path d="M 88.828488 85.061713 
L 70.233773 125.241204 
" clip-path="url(#pc754d09b87)" style="fill: none; stroke: #000000; stroke-width: 1.2"/>
    <path d="M 88.828488 85.061713 
L 88.194055 143.423973 
" clip-path="url(#pc754d09b87)" style="fill: none; stroke: #000000; stroke-width: 1.2"/>
    <path d="M 88.828488 85.061713 
L 86.657034 114.223745 
" clip-path="url(#pc754d09b87)" style="fill: none; stroke: #000000; stroke-width: 1.2"/>
    <path d="M 116.143689 90.012197 
L 101.96606 106.066098 
" clip-path="url(#pc754d09b87)" style="fill: none; stroke: #000000; stroke-width: 1.2"/>
    <path d="M 116.143689 90.012197 
L 76.223017 91.456332 
" clip-path="url(#pc754d09b87)" style="fill: none; stroke: #000000; stroke-width: 1.2"/>
    <path d="M 116.143689 90.012197 
L 86.657034 114.223745 
" clip-path="url(#pc754d09b87)" style="fill: none; stroke: #000000; stroke-width: 1.2"/>
    <path d="M 116.143689 90.012197 
L 122.25725 135.653712 
" clip-path="url(#pc754d09b87)" style="fill: none; stroke: #000000; stroke-width: 1.2"/>
    <path d="M 116.143689 90.012197 
L 89.478821 134.756095 
" clip-path="url(#pc754d09b87)" style="fill: none; stroke: #000000; stroke-width: 1.2"/>
    <path d="M 101.96606 106.066098 
L 76.223017 91.456332 
" clip-path="url(#pc754d09b87)" style="fill: none; stroke: #000000; stroke-width: 1.2"/>
    <path d="M 101.96606 106.066098 
L 104.332161 133.304361 
" clip-path="url(#pc754d09b87)" style="fill: none; stroke: #000000; stroke-width: 1.2"/>
    <path d="M 101.96606 106.066098 
L 56.808386 128.554412 
" clip-path="url(#pc754d09b87)" style="fill: none; stroke: #000000; stroke-width: 1.2"/>
    <path d="M 101.96606 106.066098 
L 89.478821 134.756095 
" clip-path="url(#pc754d09b87)" style="fill: none; stroke: #000000; stroke-width: 1.2"/>
    <path d="M 76.223017 91.456332 
L 55.554026 116.978195 
" clip-path="url(#pc754d09b87)" style="fill: none; stroke: #000000; stroke-width: 1.2"/>
    <path d="M 76.223017 91.456332 
L 89.478821 134.756095 
" clip-path="url(#pc754d09b87)" style="fill: none; stroke: #000000; stroke-width: 1.2"/>
    <path d="M 76.223017 91.456332 
L 65.49218 143.164183 
" clip-path="url(#pc754d09b87)" style="fill: none; stroke: #000000; stroke-width: 1.2"/>
    <path d="M 70.233773 125.241204 
L 55.368595 101.144797 
" clip-path="url(#pc754d09b87)" style="fill: none; stroke: #000000; stroke-width: 1.2"/>
    <path d="M 70.233773 125.241204 
L 98.465824 147.912745 
" clip-path="url(#pc754d09b87)" style="fill: none; stroke: #000000; stroke-width: 1.2"/>
    <path d="M 70.233773 125.241204 
L 104.332161 133.304361 
" clip-path="url(#pc754d09b87)" style="fill: none; stroke: #000000; stroke-width: 1.2"/>
    <path d="M 70.233773 125.241204 
L 88.194055 143.423973 
" clip-path="url(#pc754d09b87)" style="fill: none; stroke: #000000; stroke-width: 1.2"/>
    <path d="M 70.233773 125.241204 
L 86.657034 114.223745 
" clip-path="url(#pc754d09b87)" style="fill: none; stroke: #000000; stroke-width: 1.2"/>
    <path d="M 70.233773 125.241204 
L 65.49218 143.164183 
" clip-path="url(#pc754d09b87)" style="fill: none; stroke: #000000; stroke-width: 1.2"/>
    <path d="M 55.368595 101.144797 
L 78.78722 130.261338 
" clip-path="url(#pc754d09b87)" style="fill: none; stroke: #000000; stroke-width: 1.2"/>
    <path d="M 55.368595 101.144797 
L 55.554026 116.978195 
" clip-path="url(#pc754d09b87)" style="fill: none; stroke: #000000; stroke-width: 1.2"/>
    <path d="M 55.368595 101.144797 
L 104.332161 133.304361 
" clip-path="url(#pc754d09b87)" style="fill: none; stroke: #000000; stroke-width: 1.2"/>
    <path d="M 55.368595 101.144797 
L 56.808386 128.554412 
" clip-path="url(#pc754d09b87)" style="fill: none; stroke: #000000; stroke-width: 1.2"/>
    <path d="M 55.368595 101.144797 
L 86.657034 114.223745 
" clip-path="url(#pc754d09b87)" style="fill: none; stroke: #000000; stroke-width: 1.2"/>
    <path d="M 78.78722 130.261338 
L 55.554026 116.978195 
" clip-path="url(#pc754d09b87)" style="fill: none; stroke: #000000; stroke-width: 1.2"/>
    <path d="M 78.78722 130.261338 
L 98.465824 147.912745 
" clip-path="url(#pc754d09b87)" style="fill: none; stroke: #000000; stroke-width: 1.2"/>
    <path d="M 78.78722 130.261338 
L 56.808386 128.554412 
" clip-path="url(#pc754d09b87)" style="fill: none; stroke: #000000; stroke-width: 1.2"/>
    <path d="M 78.78722 130.261338 
L 88.194055 143.423973 
" clip-path="url(#pc754d09b87)" style="fill: none; stroke: #000000; stroke-width: 1.2"/>
    <path d="M 78.78722 130.261338 
L 122.25725 135.653712 
" clip-path="url(#pc754d09b87)" style="fill: none; stroke: #000000; stroke-width: 1.2"/>
    <path d="M 55.554026 116.978195 
L 98.465824 147.912745 
" clip-path="url(#pc754d09b87)" style="fill: none; stroke: #000000; stroke-width: 1.2"/>
    <path d="M 55.554026 116.978195 
L 86.657034 114.223745 
" clip-path="url(#pc754d09b87)" style="fill: none; stroke: #000000; stroke-width: 1.2"/>
    <path d="M 55.554026 116.978195 
L 89.478821 134.756095 
" clip-path="url(#pc754d09b87)" style="fill: none; stroke: #000000; stroke-width: 1.2"/>
    <path d="M 55.554026 116.978195 
L 65.49218 143.164183 
" clip-path="url(#pc754d09b87)" style="fill: none; stroke: #000000; stroke-width: 1.2"/>
    <path d="M 98.465824 147.912745 
L 104.332161 133.304361 
" clip-path="url(#pc754d09b87)" style="fill: none; stroke: #000000; stroke-width: 1.2"/>
    <path d="M 98.465824 147.912745 
L 122.25725 135.653712 
" clip-path="url(#pc754d09b87)" style="fill: none; stroke: #000000; stroke-width: 1.2"/>
    <path d="M 98.465824 147.912745 
L 65.49218 143.164183 
" clip-path="url(#pc754d09b87)" style="fill: none; stroke: #000000; stroke-width: 1.2"/>
    <path d="M 104.332161 133.304361 
L 56.808386 128.554412 
" clip-path="url(#pc754d09b87)" style="fill: none; stroke: #000000; stroke-width: 1.2"/>
    <path d="M 104.332161 133.304361 
L 122.25725 135.653712 
" clip-path="url(#pc754d09b87)" style="fill: none; stroke: #000000; stroke-width: 1.2"/>
    <path d="M 104.332161 133.304361 
L 89.478821 134.756095 
" clip-path="url(#pc754d09b87)" style="fill: none; stroke: #000000; stroke-width: 1.2"/>
    <path d="M 56.808386 128.554412 
L 88.194055 143.423973 
" clip-path="url(#pc754d09b87)" style="fill: none; stroke: #000000; stroke-width: 1.2"/>
    <path d="M 56.808386 128.554412 
L 89.478821 134.756095 
" clip-path="url(#pc754d09b87)" style="fill: none; stroke: #000000; stroke-width: 1.2"/>
    <path d="M 56.808386 128.554412 
L 65.49218 143.164183 
" clip-path="url(#pc754d09b87)" style="fill: none; stroke: #000000; stroke-width: 1.2"/>
    <path d="M 88.194055 143.423973 
L 86.657034 114.223745 
" clip-path="url(#pc754d09b87)" style="fill: none; stroke: #000000; stroke-width: 1.2"/>
    <path d="M 88.194055 143.423973 
L 122.25725 135.653712 
" clip-path="url(#pc754d09b87)" style="fill: none; stroke: #000000; stroke-width: 1.2"/>
    <path d="M 88.194055 143.423973 
L 65.49218 143.164183 
" clip-path="url(#pc754d09b87)" style="fill: none; stroke: #000000; stroke-width: 1.2"/>
    <path d="M 86.657034 114.223745 
L 122.25725 135.653712 
" clip-path="url(#pc754d09b87)" style="fill: none; stroke: #000000; stroke-width: 1.2"/>
    <path d="M 86.657034 114.223745 
L 89.478821 134.756095 
" clip-path="url(#pc754d09b87)" style="fill: none; stroke: #000000; stroke-width: 1.2"/>
    <path d="M 122.25725 135.653712 
L 89.478821 134.756095 
" clip-path="url(#pc754d09b87)" style="fill: none; stroke: #000000; stroke-width: 1.2"/>
    <path d="M 122.25725 135.653712 
L 145.986297 164.547557 
" clip-path="url(#pc754d09b87)" style="fill: none; stroke: #000000; stroke-width: 1.2"/>
    <path d="M 89.478821 134.756095 
L 65.49218 143.164183 
" clip-path="url(#pc754d09b87)" style="fill: none; stroke: #000000; stroke-width: 1.2"/>
    <path d="M 145.500519 232.555954 
L 166.026638 195.170701 
" clip-path="url(#pc754d09b87)" style="fill: none; stroke: #000000; stroke-width: 1.2"/>
    <path d="M 167.210954 228.606906 
L 166.026638 195.170701 
" clip-path="url(#pc754d09b87)" style="fill: none; stroke: #000000; stroke-width: 1.2"/>
    <path d="M 145.986297 164.547557 
L 166.026638 195.170701 
" clip-path="url(#pc754d09b87)" style="fill: none; stroke: #000000; stroke-width: 1.2"/>
    <path d="M 213.728524 237.076364 
L 205.160288 199.199173 
" clip-path="url(#pc754d09b87)" style="fill: none; stroke: #000000; stroke-width: 1.2"/>
    <path d="M 236.27567 212.209649 
L 205.160288 199.199173 
" clip-path="url(#pc754d09b87)" style="fill: none; stroke: #000000; stroke-width: 1.2"/>
    <path d="M 239.831405 182.298536 
L 205.160288 199.199173 
" clip-path="url(#pc754d09b87)" style="fill: none; stroke: #000000; stroke-width: 1.2"/>
    <path d="M 166.026638 195.170701 
L 205.160288 199.199173 
" clip-path="url(#pc754d09b87)" style="fill: none; stroke: #000000; stroke-width: 1.2"/>
   </g>
   <g id="PathCollection_1">
    <defs>
     <path id="C0_0_3b8f686c56" d="M 0 8.944272 
C 2.372049 8.944272 4.647264 8.001847 6.324555 6.324555 
C 8.001847 4.647264 8.944272 2.372049 8.944272 -0 
C 8.944272 -2.372049 8.001847 -4.647264 6.324555 -6.324555 
C 4.647264 -8.001847 2.372049 -8.944272 0 -8.944272 
C -2.372049 -8.944272 -4.647264 -8.001847 -6.324555 -6.324555 
C -8.001847 -4.647264 -8.944272 -2.372049 -8.944272 0 
C -8.944272 2.372049 -8.001847 4.647264 -6.324555 6.324555 
C -4.647264 8.001847 -2.372049 8.944272 0 8.944272 
z
"/>
    </defs>
    <g clip-path="url(#pc754d09b87)">
     <use xlink:href="#C0_0_3b8f686c56" x="128.310568" y="73.582052" style="fill: #4fd14f; stroke: #4fd14f; stroke-width: 0.5"/>
    </g>
    <g clip-path="url(#pc754d09b87)">
     <use xlink:href="#C0_0_3b8f686c56" x="144.715047" y="95.729115" style="fill: #4fd14f; stroke: #4fd14f; stroke-width: 0.5"/>
    </g>
    <g clip-path="url(#pc754d09b87)">
     <use xlink:href="#C0_0_3b8f686c56" x="90.792318" y="59.846408" style="fill: #4fd14f; stroke: #4fd14f; stroke-width: 0.5"/>
    </g>
    <g clip-path="url(#pc754d09b87)">
     <use xlink:href="#C0_0_3b8f686c56" x="120.036425" y="58.991523" style="fill: #4fd14f; stroke: #4fd14f; stroke-width: 0.5"/>
    </g>
    <g clip-path="url(#pc754d09b87)">
     <use xlink:href="#C0_0_3b8f686c56" x="140.322898" y="76.351308" style="fill: #4fd14f; stroke: #4fd14f; stroke-width: 0.5"/>
    </g>
    <g clip-path="url(#pc754d09b87)">
     <use xlink:href="#C0_0_3b8f686c56" x="102.867752" y="53.803636" style="fill: #4fd14f; stroke: #4fd14f; stroke-width: 0.5"/>
    </g>
    <g clip-path="url(#pc754d09b87)">
     <use xlink:href="#C0_0_3b8f686c56" x="102.161247" y="88.345378" style="fill: #4fd14f; stroke: #4fd14f; stroke-width: 0.5"/>
    </g>
    <g clip-path="url(#pc754d09b87)">
     <use xlink:href="#C0_0_3b8f686c56" x="74.211373" y="72.401556" style="fill: #4fd14f; stroke: #4fd14f; stroke-width: 0.5"/>
    </g>
    <g clip-path="url(#pc754d09b87)">
     <use xlink:href="#C0_0_3b8f686c56" x="67.442305" y="85.850055" style="fill: #4fd14f; stroke: #4fd14f; stroke-width: 0.5"/>
    </g>
    <g clip-path="url(#pc754d09b87)">
     <use xlink:href="#C0_0_3b8f686c56" x="92.624689" y="98.519424" style="fill: #4fd14f; stroke: #4fd14f; stroke-width: 0.5"/>
    </g>
    <g clip-path="url(#pc754d09b87)">
     <use xlink:href="#C0_0_3b8f686c56" x="106.384297" y="117.877704" style="fill: #4fd14f; stroke: #4fd14f; stroke-width: 0.5"/>
    </g>
    <g clip-path="url(#pc754d09b87)">
     <use xlink:href="#C0_0_3b8f686c56" x="129.962851" y="112.08683" style="fill: #4fd14f; stroke: #4fd14f; stroke-width: 0.5"/>
    </g>
    <g clip-path="url(#pc754d09b87)">
     <use xlink:href="#C0_0_3b8f686c56" x="71.539857" y="105.288963" style="fill: #4fd14f; stroke: #4fd14f; stroke-width: 0.5"/>
    </g>
    <g clip-path="url(#pc754d09b87)">
     <use xlink:href="#C0_0_3b8f686c56" x="111.755353" y="101.779912" style="fill: #4fd14f; stroke: #4fd14f; stroke-width: 0.5"/>
    </g>
    <g clip-path="url(#pc754d09b87)">
     <use xlink:href="#C0_0_3b8f686c56" x="88.828488" y="85.061713" style="fill: #4fd14f; stroke: #4fd14f; stroke-width: 0.5"/>
    </g>
    <g clip-path="url(#pc754d09b87)">
     <use xlink:href="#C0_0_3b8f686c56" x="116.143689" y="90.012197" style="fill: #4fd14f; stroke: #4fd14f; stroke-width: 0.5"/>
    </g>
    <g clip-path="url(#pc754d09b87)">
     <use xlink:href="#C0_0_3b8f686c56" x="101.96606" y="106.066098" style="fill: #4fd14f; stroke: #4fd14f; stroke-width: 0.5"/>
    </g>
    <g clip-path="url(#pc754d09b87)">
     <use xlink:href="#C0_0_3b8f686c56" x="76.223017" y="91.456332" style="fill: #4fd14f; stroke: #4fd14f; stroke-width: 0.5"/>
    </g>
    <g clip-path="url(#pc754d09b87)">
     <use xlink:href="#C0_0_3b8f686c56" x="70.233773" y="125.241204" style="fill: #4fd14f; stroke: #4fd14f; stroke-width: 0.5"/>
    </g>
    <g clip-path="url(#pc754d09b87)">
     <use xlink:href="#C0_0_3b8f686c56" x="55.368595" y="101.144797" style="fill: #4fd14f; stroke: #4fd14f; stroke-width: 0.5"/>
    </g>
    <g clip-path="url(#pc754d09b87)">
     <use xlink:href="#C0_0_3b8f686c56" x="78.78722" y="130.261338" style="fill: #4fd14f; stroke: #4fd14f; stroke-width: 0.5"/>
    </g>
    <g clip-path="url(#pc754d09b87)">
     <use xlink:href="#C0_0_3b8f686c56" x="55.554026" y="116.978195" style="fill: #4fd14f; stroke: #4fd14f; stroke-width: 0.5"/>
    </g>
    <g clip-path="url(#pc754d09b87)">
     <use xlink:href="#C0_0_3b8f686c56" x="98.465824" y="147.912745" style="fill: #4fd14f; stroke: #4fd14f; stroke-width: 0.5"/>
    </g>
    <g clip-path="url(#pc754d09b87)">
     <use xlink:href="#C0_0_3b8f686c56" x="104.332161" y="133.304361" style="fill: #4fd14f; stroke: #4fd14f; stroke-width: 0.5"/>
    </g>
    <g clip-path="url(#pc754d09b87)">
     <use xlink:href="#C0_0_3b8f686c56" x="56.808386" y="128.554412" style="fill: #4fd14f; stroke: #4fd14f; stroke-width: 0.5"/>
    </g>
    <g clip-path="url(#pc754d09b87)">
     <use xlink:href="#C0_0_3b8f686c56" x="88.194055" y="143.423973" style="fill: #4fd14f; stroke: #4fd14f; stroke-width: 0.5"/>
    </g>
    <g clip-path="url(#pc754d09b87)">
     <use xlink:href="#C0_0_3b8f686c56" x="86.657034" y="114.223745" style="fill: #4fd14f; stroke: #4fd14f; stroke-width: 0.5"/>
    </g>
    <g clip-path="url(#pc754d09b87)">
     <use xlink:href="#C0_0_3b8f686c56" x="122.25725" y="135.653712" style="fill: #4fd14f; stroke: #4fd14f; stroke-width: 0.5"/>
    </g>
    <g clip-path="url(#pc754d09b87)">
     <use xlink:href="#C0_0_3b8f686c56" x="89.478821" y="134.756095" style="fill: #4fd14f; stroke: #4fd14f; stroke-width: 0.5"/>
    </g>
    <g clip-path="url(#pc754d09b87)">
     <use xlink:href="#C0_0_3b8f686c56" x="65.49218" y="143.164183" style="fill: #4fd14f; stroke: #4fd14f; stroke-width: 0.5"/>
    </g>
    <g clip-path="url(#pc754d09b87)">
     <use xlink:href="#C0_0_3b8f686c56" x="145.500519" y="232.555954" style="fill: #bfbfbf; stroke: #bfbfbf; stroke-width: 0.5"/>
    </g>
    <g clip-path="url(#pc754d09b87)">
     <use xlink:href="#C0_0_3b8f686c56" x="167.210954" y="228.606906" style="fill: #bfbfbf; stroke: #bfbfbf; stroke-width: 0.5"/>
    </g>
    <g clip-path="url(#pc754d09b87)">
     <use xlink:href="#C0_0_3b8f686c56" x="145.986297" y="164.547557" style="fill: #bfbfbf; stroke: #bfbfbf; stroke-width: 0.5"/>
    </g>
    <g clip-path="url(#pc754d09b87)">
     <use xlink:href="#C0_0_3b8f686c56" x="213.728524" y="237.076364" style="fill: #bfbfbf; stroke: #bfbfbf; stroke-width: 0.5"/>
    </g>
    <g clip-path="url(#pc754d09b87)">
     <use xlink:href="#C0_0_3b8f686c56" x="236.27567" y="212.209649" style="fill: #bfbfbf; stroke: #bfbfbf; stroke-width: 0.5"/>
    </g>
    <g clip-path="url(#pc754d09b87)">
     <use xlink:href="#C0_0_3b8f686c56" x="239.831405" y="182.298536" style="fill: #bfbfbf; stroke: #bfbfbf; stroke-width: 0.5"/>
    </g>
    <g clip-path="url(#pc754d09b87)">
     <use xlink:href="#C0_0_3b8f686c56" x="166.026638" y="195.170701" style="fill: #666666; stroke: #666666; stroke-width: 0.5"/>
    </g>
    <g clip-path="url(#pc754d09b87)">
     <use xlink:href="#C0_0_3b8f686c56" x="205.160288" y="199.199173" style="fill: #666666; stroke: #666666; stroke-width: 0.5"/>
    </g>
   </g>
   <g id="text_1">
    <!-- C2H6Ni48 -->
    <g transform="translate(118.429382 -0.599486) scale(0.1 -0.1)">
     <defs>
      <path id="DejaVuSans-43" d="M 4122 4306 
L 4122 3641 
Q 3803 3938 3442 4084 
Q 3081 4231 2675 4231 
Q 1875 4231 1450 3742 
Q 1025 3253 1025 2328 
Q 1025 1406 1450 917 
Q 1875 428 2675 428 
Q 3081 428 3442 575 
Q 3803 722 4122 1019 
L 4122 359 
Q 3791 134 3420 21 
Q 3050 -91 2638 -91 
Q 1578 -91 968 557 
Q 359 1206 359 2328 
Q 359 3453 968 4101 
Q 1578 4750 2638 4750 
Q 3056 4750 3426 4639 
Q 3797 4528 4122 4306 
z
" transform="scale(0.015625)"/>
      <path id="DejaVuSans-32" d="M 1228 531 
L 3431 531 
L 3431 0 
L 469 0 
L 469 531 
Q 828 903 1448 1529 
Q 2069 2156 2228 2338 
Q 2531 2678 2651 2914 
Q 2772 3150 2772 3378 
Q 2772 3750 2511 3984 
Q 2250 4219 1831 4219 
Q 1534 4219 1204 4116 
Q 875 4013 500 3803 
L 500 4441 
Q 881 4594 1212 4672 
Q 1544 4750 1819 4750 
Q 2544 4750 2975 4387 
Q 3406 4025 3406 3419 
Q 3406 3131 3298 2873 
Q 3191 2616 2906 2266 
Q 2828 2175 2409 1742 
Q 1991 1309 1228 531 
z
" transform="scale(0.015625)"/>
      <path id="DejaVuSans-48" d="M 628 4666 
L 1259 4666 
L 1259 2753 
L 3553 2753 
L 3553 4666 
L 4184 4666 
L 4184 0 
L 3553 0 
L 3553 2222 
L 1259 2222 
L 1259 0 
L 628 0 
L 628 4666 
z
" transform="scale(0.015625)"/>
      <path id="DejaVuSans-36" d="M 2113 2584 
Q 1688 2584 1439 2293 
Q 1191 2003 1191 1497 
Q 1191 994 1439 701 
Q 1688 409 2113 409 
Q 2538 409 2786 701 
Q 3034 994 3034 1497 
Q 3034 2003 2786 2293 
Q 2538 2584 2113 2584 
z
M 3366 4563 
L 3366 3988 
Q 3128 4100 2886 4159 
Q 2644 4219 2406 4219 
Q 1781 4219 1451 3797 
Q 1122 3375 1075 2522 
Q 1259 2794 1537 2939 
Q 1816 3084 2150 3084 
Q 2853 3084 3261 2657 
Q 3669 2231 3669 1497 
Q 3669 778 3244 343 
Q 2819 -91 2113 -91 
Q 1303 -91 875 529 
Q 447 1150 447 2328 
Q 447 3434 972 4092 
Q 1497 4750 2381 4750 
Q 2619 4750 2861 4703 
Q 3103 4656 3366 4563 
z
" transform="scale(0.015625)"/>
      <path id="DejaVuSans-4e" d="M 628 4666 
L 1478 4666 
L 3547 763 
L 3547 4666 
L 4159 4666 
L 4159 0 
L 3309 0 
L 1241 3903 
L 1241 0 
L 628 0 
L 628 4666 
z
" transform="scale(0.015625)"/>
      <path id="DejaVuSans-69" d="M 603 3500 
L 1178 3500 
L 1178 0 
L 603 0 
L 603 3500 
z
M 603 4863 
L 1178 4863 
L 1178 4134 
L 603 4134 
L 603 4863 
z
" transform="scale(0.015625)"/>
      <path id="DejaVuSans-34" d="M 2419 4116 
L 825 1625 
L 2419 1625 
L 2419 4116 
z
M 2253 4666 
L 3047 4666 
L 3047 1625 
L 3713 1625 
L 3713 1100 
L 3047 1100 
L 3047 0 
L 2419 0 
L 2419 1100 
L 313 1100 
L 313 1709 
L 2253 4666 
z
" transform="scale(0.015625)"/>
      <path id="DejaVuSans-38" d="M 2034 2216 
Q 1584 2216 1326 1975 
Q 1069 1734 1069 1313 
Q 1069 891 1326 650 
Q 1584 409 2034 409 
Q 2484 409 2743 651 
Q 3003 894 3003 1313 
Q 3003 1734 2745 1975 
Q 2488 2216 2034 2216 
z
M 1403 2484 
Q 997 2584 770 2862 
Q 544 3141 544 3541 
Q 544 4100 942 4425 
Q 1341 4750 2034 4750 
Q 2731 4750 3128 4425 
Q 3525 4100 3525 3541 
Q 3525 3141 3298 2862 
Q 3072 2584 2669 2484 
Q 3125 2378 3379 2068 
Q 3634 1759 3634 1313 
Q 3634 634 3220 271 
Q 2806 -91 2034 -91 
Q 1263 -91 848 271 
Q 434 634 434 1313 
Q 434 1759 690 2068 
Q 947 2378 1403 2484 
z
M 1172 3481 
Q 1172 3119 1398 2916 
Q 1625 2713 2034 2713 
Q 2441 2713 2670 2916 
Q 2900 3119 2900 3481 
Q 2900 3844 2670 4047 
Q 2441 4250 2034 4250 
Q 1625 4250 1398 4047 
Q 1172 3844 1172 3481 
z
" transform="scale(0.015625)"/>
     </defs>
     <use xlink:href="#DejaVuSans-43"/>
     <use xlink:href="#DejaVuSans-32" transform="translate(69.824219 0)"/>
     <use xlink:href="#DejaVuSans-48" transform="translate(133.447266 0)"/>
     <use xlink:href="#DejaVuSans-36" transform="translate(208.642578 0)"/>
     <use xlink:href="#DejaVuSans-4e" transform="translate(272.265625 0)"/>
     <use xlink:href="#DejaVuSans-69" transform="translate(347.070312 0)"/>
     <use xlink:href="#DejaVuSans-34" transform="translate(374.853516 0)"/>
     <use xlink:href="#DejaVuSans-38" transform="translate(438.476562 0)"/>
    </g>
    <!-- Error: -7.17 eV -->
    <g transform="translate(118.429382 10.598326) scale(0.1 -0.1)">
     <defs>
      <path id="DejaVuSans-45" d="M 628 4666 
L 3578 4666 
L 3578 4134 
L 1259 4134 
L 1259 2753 
L 3481 2753 
L 3481 2222 
L 1259 2222 
L 1259 531 
L 3634 531 
L 3634 0 
L 628 0 
L 628 4666 
z
" transform="scale(0.015625)"/>
      <path id="DejaVuSans-72" d="M 2631 2963 
Q 2534 3019 2420 3045 
Q 2306 3072 2169 3072 
Q 1681 3072 1420 2755 
Q 1159 2438 1159 1844 
L 1159 0 
L 581 0 
L 581 3500 
L 1159 3500 
L 1159 2956 
Q 1341 3275 1631 3429 
Q 1922 3584 2338 3584 
Q 2397 3584 2469 3576 
Q 2541 3569 2628 3553 
L 2631 2963 
z
" transform="scale(0.015625)"/>
      <path id="DejaVuSans-6f" d="M 1959 3097 
Q 1497 3097 1228 2736 
Q 959 2375 959 1747 
Q 959 1119 1226 758 
Q 1494 397 1959 397 
Q 2419 397 2687 759 
Q 2956 1122 2956 1747 
Q 2956 2369 2687 2733 
Q 2419 3097 1959 3097 
z
M 1959 3584 
Q 2709 3584 3137 3096 
Q 3566 2609 3566 1747 
Q 3566 888 3137 398 
Q 2709 -91 1959 -91 
Q 1206 -91 779 398 
Q 353 888 353 1747 
Q 353 2609 779 3096 
Q 1206 3584 1959 3584 
z
" transform="scale(0.015625)"/>
      <path id="DejaVuSans-3a" d="M 750 794 
L 1409 794 
L 1409 0 
L 750 0 
L 750 794 
z
M 750 3309 
L 1409 3309 
L 1409 2516 
L 750 2516 
L 750 3309 
z
" transform="scale(0.015625)"/>
      <path id="DejaVuSans-20" transform="scale(0.015625)"/>
      <path id="DejaVuSans-2d" d="M 313 2009 
L 1997 2009 
L 1997 1497 
L 313 1497 
L 313 2009 
z
" transform="scale(0.015625)"/>
      <path id="DejaVuSans-37" d="M 525 4666 
L 3525 4666 
L 3525 4397 
L 1831 0 
L 1172 0 
L 2766 4134 
L 525 4134 
L 525 4666 
z
" transform="scale(0.015625)"/>
      <path id="DejaVuSans-2e" d="M 684 794 
L 1344 794 
L 1344 0 
L 684 0 
L 684 794 
z
" transform="scale(0.015625)"/>
      <path id="DejaVuSans-31" d="M 794 531 
L 1825 531 
L 1825 4091 
L 703 3866 
L 703 4441 
L 1819 4666 
L 2450 4666 
L 2450 531 
L 3481 531 
L 3481 0 
L 794 0 
L 794 531 
z
" transform="scale(0.015625)"/>
      <path id="DejaVuSans-65" d="M 3597 1894 
L 3597 1613 
L 953 1613 
Q 991 1019 1311 708 
Q 1631 397 2203 397 
Q 2534 397 2845 478 
Q 3156 559 3463 722 
L 3463 178 
Q 3153 47 2828 -22 
Q 2503 -91 2169 -91 
Q 1331 -91 842 396 
Q 353 884 353 1716 
Q 353 2575 817 3079 
Q 1281 3584 2069 3584 
Q 2775 3584 3186 3129 
Q 3597 2675 3597 1894 
z
M 3022 2063 
Q 3016 2534 2758 2815 
Q 2500 3097 2075 3097 
Q 1594 3097 1305 2825 
Q 1016 2553 972 2059 
L 3022 2063 
z
" transform="scale(0.015625)"/>
      <path id="DejaVuSans-56" d="M 1831 0 
L 50 4666 
L 709 4666 
L 2188 738 
L 3669 4666 
L 4325 4666 
L 2547 0 
L 1831 0 
z
" transform="scale(0.015625)"/>
     </defs>
     <use xlink:href="#DejaVuSans-45"/>
     <use xlink:href="#DejaVuSans-72" transform="translate(63.183594 0)"/>
     <use xlink:href="#DejaVuSans-72" transform="translate(102.546875 0)"/>
     <use xlink:href="#DejaVuSans-6f" transform="translate(141.410156 0)"/>
     <use xlink:href="#DejaVuSans-72" transform="translate(202.591797 0)"/>
     <use xlink:href="#DejaVuSans-3a" transform="translate(241.955078 0)"/>
     <use xlink:href="#DejaVuSans-20" transform="translate(275.646484 0)"/>
     <use xlink:href="#DejaVuSans-2d" transform="translate(307.433594 0)"/>
     <use xlink:href="#DejaVuSans-37" transform="translate(343.517578 0)"/>
     <use xlink:href="#DejaVuSans-2e" transform="translate(407.140625 0)"/>
     <use xlink:href="#DejaVuSans-31" transform="translate(438.927734 0)"/>
     <use xlink:href="#DejaVuSans-37" transform="translate(502.550781 0)"/>
     <use xlink:href="#DejaVuSans-20" transform="translate(566.173828 0)"/>
     <use xlink:href="#DejaVuSans-65" transform="translate(597.960938 0)"/>
     <use xlink:href="#DejaVuSans-56" transform="translate(659.484375 0)"/>
    </g>
   </g>
  </g>
 </g>
 <defs>
  <clipPath id="pc754d09b87">
   <rect x="36" y="34.56" width="223.2" height="221.76"/>
  </clipPath>
 </defs>
</svg>
