<?xml version="1.0" encoding="utf-8" standalone="no"?>
<!DOCTYPE svg PUBLIC "-//W3C//DTD SVG 1.1//EN"
  "http://www.w3.org/Graphics/SVG/1.1/DTD/svg11.dtd">
<svg xmlns:xlink="http://www.w3.org/1999/xlink" width="288pt" height="288pt" viewBox="0 0 288 288" xmlns="http://www.w3.org/2000/svg" version="1.1">
 <metadata>
  <rdf:RDF xmlns:dc="http://purl.org/dc/elements/1.1/" xmlns:cc="http://creativecommons.org/ns#" xmlns:rdf="http://www.w3.org/1999/02/22-rdf-syntax-ns#">
   <cc:Work>
    <dc:type rdf:resource="http://purl.org/dc/dcmitype/StillImage"/>
    <dc:date>2025-06-30T11:56:42.450052</dc:date>
    <dc:format>image/svg+xml</dc:format>
    <dc:creator>
     <cc:Agent>
      <dc:title>Matplotlib v3.10.1, https://matplotlib.org/</dc:title>
     </cc:Agent>
    </dc:creator>
   </cc:Work>
  </rdf:RDF>
 </metadata>
 <defs>
  <style type="text/css">*{stroke-linejoin: round; stroke-linecap: butt}</style>
 </defs>
 <g id="figure_1">
  <g id="patch_1">
   <path d="M 0 288 
L 288 288 
L 288 0 
L 0 0 
z
" style="fill: #ffffff"/>
  </g>
  <g id="axes_1">
   <g id="LineCollection_1">
    <path d="M 150.365259 79.800079 
L 167.047373 101.102001 
" clip-path="url(#pb073ab0e23)" style="fill: none; stroke: #000000; stroke-width: 1.2"/>
    <path d="M 150.365259 79.800079 
L 110.731262 56.941448 
" clip-path="url(#pb073ab0e23)" style="fill: none; stroke: #000000; stroke-width: 1.2"/>
    <path d="M 150.365259 79.800079 
L 145.903896 63.078104 
" clip-path="url(#pb073ab0e23)" style="fill: none; stroke: #000000; stroke-width: 1.2"/>
    <path d="M 150.365259 79.800079 
L 165.65799 80.623343 
" clip-path="url(#pb073ab0e23)" style="fill: none; stroke: #000000; stroke-width: 1.2"/>
    <path d="M 150.365259 79.800079 
L 99.934908 98.038523 
" clip-path="url(#pb073ab0e23)" style="fill: none; stroke: #000000; stroke-width: 1.2"/>
    <path d="M 150.365259 79.800079 
L 145.052002 117.266745 
" clip-path="url(#pb073ab0e23)" style="fill: none; stroke: #000000; stroke-width: 1.2"/>
    <path d="M 150.365259 79.800079 
L 123.924145 105.607898 
" clip-path="url(#pb073ab0e23)" style="fill: none; stroke: #000000; stroke-width: 1.2"/>
    <path d="M 167.047373 101.102001 
L 165.65799 80.623343 
" clip-path="url(#pb073ab0e23)" style="fill: none; stroke: #000000; stroke-width: 1.2"/>
    <path d="M 167.047373 101.102001 
L 120.505895 84.450715 
" clip-path="url(#pb073ab0e23)" style="fill: none; stroke: #000000; stroke-width: 1.2"/>
    <path d="M 167.047373 101.102001 
L 116.244549 115.482805 
" clip-path="url(#pb073ab0e23)" style="fill: none; stroke: #000000; stroke-width: 1.2"/>
    <path d="M 167.047373 101.102001 
L 145.052002 117.266745 
" clip-path="url(#pb073ab0e23)" style="fill: none; stroke: #000000; stroke-width: 1.2"/>
    <path d="M 110.731262 56.941448 
L 145.903896 63.078104 
" clip-path="url(#pb073ab0e23)" style="fill: none; stroke: #000000; stroke-width: 1.2"/>
    <path d="M 110.731262 56.941448 
L 76.879865 76.907124 
" clip-path="url(#pb073ab0e23)" style="fill: none; stroke: #000000; stroke-width: 1.2"/>
    <path d="M 110.731262 56.941448 
L 77.076962 97.229385 
" clip-path="url(#pb073ab0e23)" style="fill: none; stroke: #000000; stroke-width: 1.2"/>
    <path d="M 110.731262 56.941448 
L 123.924145 105.607898 
" clip-path="url(#pb073ab0e23)" style="fill: none; stroke: #000000; stroke-width: 1.2"/>
    <path d="M 145.903896 63.078104 
L 165.65799 80.623343 
" clip-path="url(#pb073ab0e23)" style="fill: none; stroke: #000000; stroke-width: 1.2"/>
    <path d="M 145.903896 63.078104 
L 127.808928 53.803636 
" clip-path="url(#pb073ab0e23)" style="fill: none; stroke: #000000; stroke-width: 1.2"/>
    <path d="M 145.903896 63.078104 
L 123.924145 105.607898 
" clip-path="url(#pb073ab0e23)" style="fill: none; stroke: #000000; stroke-width: 1.2"/>
    <path d="M 145.903896 63.078104 
L 104.055548 83.22804 
" clip-path="url(#pb073ab0e23)" style="fill: none; stroke: #000000; stroke-width: 1.2"/>
    <path d="M 145.903896 63.078104 
L 136.126198 96.812326 
" clip-path="url(#pb073ab0e23)" style="fill: none; stroke: #000000; stroke-width: 1.2"/>
    <path d="M 165.65799 80.623343 
L 127.808928 53.803636 
" clip-path="url(#pb073ab0e23)" style="fill: none; stroke: #000000; stroke-width: 1.2"/>
    <path d="M 165.65799 80.623343 
L 145.052002 117.266745 
" clip-path="url(#pb073ab0e23)" style="fill: none; stroke: #000000; stroke-width: 1.2"/>
    <path d="M 165.65799 80.623343 
L 136.126198 96.812326 
" clip-path="url(#pb073ab0e23)" style="fill: none; stroke: #000000; stroke-width: 1.2"/>
    <path d="M 165.65799 80.623343 
L 112.382622 97.813634 
" clip-path="url(#pb073ab0e23)" style="fill: none; stroke: #000000; stroke-width: 1.2"/>
    <path d="M 127.808928 53.803636 
L 91.151038 66.817815 
" clip-path="url(#pb073ab0e23)" style="fill: none; stroke: #000000; stroke-width: 1.2"/>
    <path d="M 127.808928 53.803636 
L 136.126198 96.812326 
" clip-path="url(#pb073ab0e23)" style="fill: none; stroke: #000000; stroke-width: 1.2"/>
    <path d="M 127.808928 53.803636 
L 86.244839 84.206029 
" clip-path="url(#pb073ab0e23)" style="fill: none; stroke: #000000; stroke-width: 1.2"/>
    <path d="M 120.505895 84.450715 
L 91.151038 66.817815 
" clip-path="url(#pb073ab0e23)" style="fill: none; stroke: #000000; stroke-width: 1.2"/>
    <path d="M 120.505895 84.450715 
L 76.879865 76.907124 
" clip-path="url(#pb073ab0e23)" style="fill: none; stroke: #000000; stroke-width: 1.2"/>
    <path d="M 120.505895 84.450715 
L 116.244549 115.482805 
" clip-path="url(#pb073ab0e23)" style="fill: none; stroke: #000000; stroke-width: 1.2"/>
    <path d="M 120.505895 84.450715 
L 145.052002 117.266745 
" clip-path="url(#pb073ab0e23)" style="fill: none; stroke: #000000; stroke-width: 1.2"/>
    <path d="M 120.505895 84.450715 
L 104.055548 83.22804 
" clip-path="url(#pb073ab0e23)" style="fill: none; stroke: #000000; stroke-width: 1.2"/>
    <path d="M 120.505895 84.450715 
L 112.382622 97.813634 
" clip-path="url(#pb073ab0e23)" style="fill: none; stroke: #000000; stroke-width: 1.2"/>
    <path d="M 120.505895 84.450715 
L 74.530097 115.774011 
" clip-path="url(#pb073ab0e23)" style="fill: none; stroke: #000000; stroke-width: 1.2"/>
    <path d="M 120.505895 84.450715 
L 61.503604 90.74953 
" clip-path="url(#pb073ab0e23)" style="fill: none; stroke: #000000; stroke-width: 1.2"/>
    <path d="M 120.505895 84.450715 
L 112.21512 130.011635 
" clip-path="url(#pb073ab0e23)" style="fill: none; stroke: #000000; stroke-width: 1.2"/>
    <path d="M 91.151038 66.817815 
L 76.879865 76.907124 
" clip-path="url(#pb073ab0e23)" style="fill: none; stroke: #000000; stroke-width: 1.2"/>
    <path d="M 91.151038 66.817815 
L 99.934908 98.038523 
" clip-path="url(#pb073ab0e23)" style="fill: none; stroke: #000000; stroke-width: 1.2"/>
    <path d="M 91.151038 66.817815 
L 104.055548 83.22804 
" clip-path="url(#pb073ab0e23)" style="fill: none; stroke: #000000; stroke-width: 1.2"/>
    <path d="M 91.151038 66.817815 
L 136.126198 96.812326 
" clip-path="url(#pb073ab0e23)" style="fill: none; stroke: #000000; stroke-width: 1.2"/>
    <path d="M 91.151038 66.817815 
L 86.244839 84.206029 
" clip-path="url(#pb073ab0e23)" style="fill: none; stroke: #000000; stroke-width: 1.2"/>
    <path d="M 91.151038 66.817815 
L 61.503604 90.74953 
" clip-path="url(#pb073ab0e23)" style="fill: none; stroke: #000000; stroke-width: 1.2"/>
    <path d="M 91.151038 66.817815 
L 56.726524 106.952017 
" clip-path="url(#pb073ab0e23)" style="fill: none; stroke: #000000; stroke-width: 1.2"/>
    <path d="M 91.151038 66.817815 
L 98.36499 114.988019 
" clip-path="url(#pb073ab0e23)" style="fill: none; stroke: #000000; stroke-width: 1.2"/>
    <path d="M 76.879865 76.907124 
L 99.934908 98.038523 
" clip-path="url(#pb073ab0e23)" style="fill: none; stroke: #000000; stroke-width: 1.2"/>
    <path d="M 76.879865 76.907124 
L 77.076962 97.229385 
" clip-path="url(#pb073ab0e23)" style="fill: none; stroke: #000000; stroke-width: 1.2"/>
    <path d="M 76.879865 76.907124 
L 123.924145 105.607898 
" clip-path="url(#pb073ab0e23)" style="fill: none; stroke: #000000; stroke-width: 1.2"/>
    <path d="M 76.879865 76.907124 
L 112.382622 97.813634 
" clip-path="url(#pb073ab0e23)" style="fill: none; stroke: #000000; stroke-width: 1.2"/>
    <path d="M 76.879865 76.907124 
L 61.503604 90.74953 
" clip-path="url(#pb073ab0e23)" style="fill: none; stroke: #000000; stroke-width: 1.2"/>
    <path d="M 76.879865 76.907124 
L 78.211771 128.137301 
" clip-path="url(#pb073ab0e23)" style="fill: none; stroke: #000000; stroke-width: 1.2"/>
    <path d="M 76.879865 76.907124 
L 55.368595 116.577395 
" clip-path="url(#pb073ab0e23)" style="fill: none; stroke: #000000; stroke-width: 1.2"/>
    <path d="M 99.934908 98.038523 
L 116.244549 115.482805 
" clip-path="url(#pb073ab0e23)" style="fill: none; stroke: #000000; stroke-width: 1.2"/>
    <path d="M 99.934908 98.038523 
L 145.052002 117.266745 
" clip-path="url(#pb073ab0e23)" style="fill: none; stroke: #000000; stroke-width: 1.2"/>
    <path d="M 99.934908 98.038523 
L 123.924145 105.607898 
" clip-path="url(#pb073ab0e23)" style="fill: none; stroke: #000000; stroke-width: 1.2"/>
    <path d="M 99.934908 98.038523 
L 86.244839 84.206029 
" clip-path="url(#pb073ab0e23)" style="fill: none; stroke: #000000; stroke-width: 1.2"/>
    <path d="M 99.934908 98.038523 
L 78.211771 128.137301 
" clip-path="url(#pb073ab0e23)" style="fill: none; stroke: #000000; stroke-width: 1.2"/>
    <path d="M 99.934908 98.038523 
L 56.726524 106.952017 
" clip-path="url(#pb073ab0e23)" style="fill: none; stroke: #000000; stroke-width: 1.2"/>
    <path d="M 99.934908 98.038523 
L 100.033631 145.358327 
" clip-path="url(#pb073ab0e23)" style="fill: none; stroke: #000000; stroke-width: 1.2"/>
    <path d="M 116.244549 115.482805 
L 145.052002 117.266745 
" clip-path="url(#pb073ab0e23)" style="fill: none; stroke: #000000; stroke-width: 1.2"/>
    <path d="M 116.244549 115.482805 
L 77.076962 97.229385 
" clip-path="url(#pb073ab0e23)" style="fill: none; stroke: #000000; stroke-width: 1.2"/>
    <path d="M 116.244549 115.482805 
L 104.055548 83.22804 
" clip-path="url(#pb073ab0e23)" style="fill: none; stroke: #000000; stroke-width: 1.2"/>
    <path d="M 116.244549 115.482805 
L 86.244839 84.206029 
" clip-path="url(#pb073ab0e23)" style="fill: none; stroke: #000000; stroke-width: 1.2"/>
    <path d="M 116.244549 115.482805 
L 74.530097 115.774011 
" clip-path="url(#pb073ab0e23)" style="fill: none; stroke: #000000; stroke-width: 1.2"/>
    <path d="M 116.244549 115.482805 
L 100.033631 145.358327 
" clip-path="url(#pb073ab0e23)" style="fill: none; stroke: #000000; stroke-width: 1.2"/>
    <path d="M 116.244549 115.482805 
L 60.673954 132.695646 
" clip-path="url(#pb073ab0e23)" style="fill: none; stroke: #000000; stroke-width: 1.2"/>
    <path d="M 145.052002 117.266745 
L 123.924145 105.607898 
" clip-path="url(#pb073ab0e23)" style="fill: none; stroke: #000000; stroke-width: 1.2"/>
    <path d="M 145.052002 117.266745 
L 136.126198 96.812326 
" clip-path="url(#pb073ab0e23)" style="fill: none; stroke: #000000; stroke-width: 1.2"/>
    <path d="M 145.052002 117.266745 
L 112.382622 97.813634 
" clip-path="url(#pb073ab0e23)" style="fill: none; stroke: #000000; stroke-width: 1.2"/>
    <path d="M 145.052002 117.266745 
L 100.033631 145.358327 
" clip-path="url(#pb073ab0e23)" style="fill: none; stroke: #000000; stroke-width: 1.2"/>
    <path d="M 145.052002 117.266745 
L 112.21512 130.011635 
" clip-path="url(#pb073ab0e23)" style="fill: none; stroke: #000000; stroke-width: 1.2"/>
    <path d="M 145.052002 117.266745 
L 130.070939 142.850054 
" clip-path="url(#pb073ab0e23)" style="fill: none; stroke: #000000; stroke-width: 1.2"/>
    <path d="M 77.076962 97.229385 
L 123.924145 105.607898 
" clip-path="url(#pb073ab0e23)" style="fill: none; stroke: #000000; stroke-width: 1.2"/>
    <path d="M 77.076962 97.229385 
L 104.055548 83.22804 
" clip-path="url(#pb073ab0e23)" style="fill: none; stroke: #000000; stroke-width: 1.2"/>
    <path d="M 77.076962 97.229385 
L 112.382622 97.813634 
" clip-path="url(#pb073ab0e23)" style="fill: none; stroke: #000000; stroke-width: 1.2"/>
    <path d="M 77.076962 97.229385 
L 86.244839 84.206029 
" clip-path="url(#pb073ab0e23)" style="fill: none; stroke: #000000; stroke-width: 1.2"/>
    <path d="M 77.076962 97.229385 
L 55.368595 116.577395 
" clip-path="url(#pb073ab0e23)" style="fill: none; stroke: #000000; stroke-width: 1.2"/>
    <path d="M 77.076962 97.229385 
L 88.041612 140.76498 
" clip-path="url(#pb073ab0e23)" style="fill: none; stroke: #000000; stroke-width: 1.2"/>
    <path d="M 77.076962 97.229385 
L 60.673954 132.695646 
" clip-path="url(#pb073ab0e23)" style="fill: none; stroke: #000000; stroke-width: 1.2"/>
    <path d="M 123.924145 105.607898 
L 104.055548 83.22804 
" clip-path="url(#pb073ab0e23)" style="fill: none; stroke: #000000; stroke-width: 1.2"/>
    <path d="M 123.924145 105.607898 
L 136.126198 96.812326 
" clip-path="url(#pb073ab0e23)" style="fill: none; stroke: #000000; stroke-width: 1.2"/>
    <path d="M 123.924145 105.607898 
L 78.211771 128.137301 
" clip-path="url(#pb073ab0e23)" style="fill: none; stroke: #000000; stroke-width: 1.2"/>
    <path d="M 123.924145 105.607898 
L 88.041612 140.76498 
" clip-path="url(#pb073ab0e23)" style="fill: none; stroke: #000000; stroke-width: 1.2"/>
    <path d="M 123.924145 105.607898 
L 130.070939 142.850054 
" clip-path="url(#pb073ab0e23)" style="fill: none; stroke: #000000; stroke-width: 1.2"/>
    <path d="M 104.055548 83.22804 
L 136.126198 96.812326 
" clip-path="url(#pb073ab0e23)" style="fill: none; stroke: #000000; stroke-width: 1.2"/>
    <path d="M 104.055548 83.22804 
L 74.530097 115.774011 
" clip-path="url(#pb073ab0e23)" style="fill: none; stroke: #000000; stroke-width: 1.2"/>
    <path d="M 104.055548 83.22804 
L 88.041612 140.76498 
" clip-path="url(#pb073ab0e23)" style="fill: none; stroke: #000000; stroke-width: 1.2"/>
    <path d="M 104.055548 83.22804 
L 98.36499 114.988019 
" clip-path="url(#pb073ab0e23)" style="fill: none; stroke: #000000; stroke-width: 1.2"/>
    <path d="M 136.126198 96.812326 
L 112.382622 97.813634 
" clip-path="url(#pb073ab0e23)" style="fill: none; stroke: #000000; stroke-width: 1.2"/>
    <path d="M 136.126198 96.812326 
L 86.244839 84.206029 
" clip-path="url(#pb073ab0e23)" style="fill: none; stroke: #000000; stroke-width: 1.2"/>
    <path d="M 136.126198 96.812326 
L 98.36499 114.988019 
" clip-path="url(#pb073ab0e23)" style="fill: none; stroke: #000000; stroke-width: 1.2"/>
    <path d="M 136.126198 96.812326 
L 130.070939 142.850054 
" clip-path="url(#pb073ab0e23)" style="fill: none; stroke: #000000; stroke-width: 1.2"/>
    <path d="M 136.126198 96.812326 
L 93.015815 132.038165 
" clip-path="url(#pb073ab0e23)" style="fill: none; stroke: #000000; stroke-width: 1.2"/>
    <path d="M 112.382622 97.813634 
L 86.244839 84.206029 
" clip-path="url(#pb073ab0e23)" style="fill: none; stroke: #000000; stroke-width: 1.2"/>
    <path d="M 112.382622 97.813634 
L 112.21512 130.011635 
" clip-path="url(#pb073ab0e23)" style="fill: none; stroke: #000000; stroke-width: 1.2"/>
    <path d="M 112.382622 97.813634 
L 55.368595 116.577395 
" clip-path="url(#pb073ab0e23)" style="fill: none; stroke: #000000; stroke-width: 1.2"/>
    <path d="M 112.382622 97.813634 
L 93.015815 132.038165 
" clip-path="url(#pb073ab0e23)" style="fill: none; stroke: #000000; stroke-width: 1.2"/>
    <path d="M 86.244839 84.206029 
L 56.726524 106.952017 
" clip-path="url(#pb073ab0e23)" style="fill: none; stroke: #000000; stroke-width: 1.2"/>
    <path d="M 86.244839 84.206029 
L 93.015815 132.038165 
" clip-path="url(#pb073ab0e23)" style="fill: none; stroke: #000000; stroke-width: 1.2"/>
    <path d="M 86.244839 84.206029 
L 60.673954 132.695646 
" clip-path="url(#pb073ab0e23)" style="fill: none; stroke: #000000; stroke-width: 1.2"/>
    <path d="M 74.530097 115.774011 
L 61.503604 90.74953 
" clip-path="url(#pb073ab0e23)" style="fill: none; stroke: #000000; stroke-width: 1.2"/>
    <path d="M 74.530097 115.774011 
L 100.033631 145.358327 
" clip-path="url(#pb073ab0e23)" style="fill: none; stroke: #000000; stroke-width: 1.2"/>
    <path d="M 74.530097 115.774011 
L 112.21512 130.011635 
" clip-path="url(#pb073ab0e23)" style="fill: none; stroke: #000000; stroke-width: 1.2"/>
    <path d="M 74.530097 115.774011 
L 88.041612 140.76498 
" clip-path="url(#pb073ab0e23)" style="fill: none; stroke: #000000; stroke-width: 1.2"/>
    <path d="M 74.530097 115.774011 
L 98.36499 114.988019 
" clip-path="url(#pb073ab0e23)" style="fill: none; stroke: #000000; stroke-width: 1.2"/>
    <path d="M 74.530097 115.774011 
L 60.673954 132.695646 
" clip-path="url(#pb073ab0e23)" style="fill: none; stroke: #000000; stroke-width: 1.2"/>
    <path d="M 61.503604 90.74953 
L 78.211771 128.137301 
" clip-path="url(#pb073ab0e23)" style="fill: none; stroke: #000000; stroke-width: 1.2"/>
    <path d="M 61.503604 90.74953 
L 56.726524 106.952017 
" clip-path="url(#pb073ab0e23)" style="fill: none; stroke: #000000; stroke-width: 1.2"/>
    <path d="M 61.503604 90.74953 
L 112.21512 130.011635 
" clip-path="url(#pb073ab0e23)" style="fill: none; stroke: #000000; stroke-width: 1.2"/>
    <path d="M 61.503604 90.74953 
L 55.368595 116.577395 
" clip-path="url(#pb073ab0e23)" style="fill: none; stroke: #000000; stroke-width: 1.2"/>
    <path d="M 61.503604 90.74953 
L 98.36499 114.988019 
" clip-path="url(#pb073ab0e23)" style="fill: none; stroke: #000000; stroke-width: 1.2"/>
    <path d="M 78.211771 128.137301 
L 56.726524 106.952017 
" clip-path="url(#pb073ab0e23)" style="fill: none; stroke: #000000; stroke-width: 1.2"/>
    <path d="M 78.211771 128.137301 
L 100.033631 145.358327 
" clip-path="url(#pb073ab0e23)" style="fill: none; stroke: #000000; stroke-width: 1.2"/>
    <path d="M 78.211771 128.137301 
L 55.368595 116.577395 
" clip-path="url(#pb073ab0e23)" style="fill: none; stroke: #000000; stroke-width: 1.2"/>
    <path d="M 78.211771 128.137301 
L 88.041612 140.76498 
" clip-path="url(#pb073ab0e23)" style="fill: none; stroke: #000000; stroke-width: 1.2"/>
    <path d="M 78.211771 128.137301 
L 130.070939 142.850054 
" clip-path="url(#pb073ab0e23)" style="fill: none; stroke: #000000; stroke-width: 1.2"/>
    <path d="M 56.726524 106.952017 
L 100.033631 145.358327 
" clip-path="url(#pb073ab0e23)" style="fill: none; stroke: #000000; stroke-width: 1.2"/>
    <path d="M 56.726524 106.952017 
L 98.36499 114.988019 
" clip-path="url(#pb073ab0e23)" style="fill: none; stroke: #000000; stroke-width: 1.2"/>
    <path d="M 56.726524 106.952017 
L 93.015815 132.038165 
" clip-path="url(#pb073ab0e23)" style="fill: none; stroke: #000000; stroke-width: 1.2"/>
    <path d="M 56.726524 106.952017 
L 60.673954 132.695646 
" clip-path="url(#pb073ab0e23)" style="fill: none; stroke: #000000; stroke-width: 1.2"/>
    <path d="M 100.033631 145.358327 
L 112.21512 130.011635 
" clip-path="url(#pb073ab0e23)" style="fill: none; stroke: #000000; stroke-width: 1.2"/>
    <path d="M 100.033631 145.358327 
L 130.070939 142.850054 
" clip-path="url(#pb073ab0e23)" style="fill: none; stroke: #000000; stroke-width: 1.2"/>
    <path d="M 100.033631 145.358327 
L 60.673954 132.695646 
" clip-path="url(#pb073ab0e23)" style="fill: none; stroke: #000000; stroke-width: 1.2"/>
    <path d="M 112.21512 130.011635 
L 55.368595 116.577395 
" clip-path="url(#pb073ab0e23)" style="fill: none; stroke: #000000; stroke-width: 1.2"/>
    <path d="M 112.21512 130.011635 
L 130.070939 142.850054 
" clip-path="url(#pb073ab0e23)" style="fill: none; stroke: #000000; stroke-width: 1.2"/>
    <path d="M 112.21512 130.011635 
L 93.015815 132.038165 
" clip-path="url(#pb073ab0e23)" style="fill: none; stroke: #000000; stroke-width: 1.2"/>
    <path d="M 55.368595 116.577395 
L 88.041612 140.76498 
" clip-path="url(#pb073ab0e23)" style="fill: none; stroke: #000000; stroke-width: 1.2"/>
    <path d="M 55.368595 116.577395 
L 93.015815 132.038165 
" clip-path="url(#pb073ab0e23)" style="fill: none; stroke: #000000; stroke-width: 1.2"/>
    <path d="M 55.368595 116.577395 
L 60.673954 132.695646 
" clip-path="url(#pb073ab0e23)" style="fill: none; stroke: #000000; stroke-width: 1.2"/>
    <path d="M 88.041612 140.76498 
L 98.36499 114.988019 
" clip-path="url(#pb073ab0e23)" style="fill: none; stroke: #000000; stroke-width: 1.2"/>
    <path d="M 88.041612 140.76498 
L 130.070939 142.850054 
" clip-path="url(#pb073ab0e23)" style="fill: none; stroke: #000000; stroke-width: 1.2"/>
    <path d="M 88.041612 140.76498 
L 60.673954 132.695646 
" clip-path="url(#pb073ab0e23)" style="fill: none; stroke: #000000; stroke-width: 1.2"/>
    <path d="M 98.36499 114.988019 
L 130.070939 142.850054 
" clip-path="url(#pb073ab0e23)" style="fill: none; stroke: #000000; stroke-width: 1.2"/>
    <path d="M 98.36499 114.988019 
L 93.015815 132.038165 
" clip-path="url(#pb073ab0e23)" style="fill: none; stroke: #000000; stroke-width: 1.2"/>
    <path d="M 130.070939 142.850054 
L 93.015815 132.038165 
" clip-path="url(#pb073ab0e23)" style="fill: none; stroke: #000000; stroke-width: 1.2"/>
    <path d="M 130.070939 142.850054 
L 127.424468 182.15956 
" clip-path="url(#pb073ab0e23)" style="fill: none; stroke: #000000; stroke-width: 1.2"/>
    <path d="M 130.070939 142.850054 
L 162.582108 168.482364 
" clip-path="url(#pb073ab0e23)" style="fill: none; stroke: #000000; stroke-width: 1.2"/>
    <path d="M 93.015815 132.038165 
L 60.673954 132.695646 
" clip-path="url(#pb073ab0e23)" style="fill: none; stroke: #000000; stroke-width: 1.2"/>
    <path d="M 186.455894 237.076364 
L 191.904902 197.15709 
" clip-path="url(#pb073ab0e23)" style="fill: none; stroke: #000000; stroke-width: 1.2"/>
    <path d="M 220.412248 221.557708 
L 191.904902 197.15709 
" clip-path="url(#pb073ab0e23)" style="fill: none; stroke: #000000; stroke-width: 1.2"/>
    <path d="M 239.831405 193.234821 
L 191.904902 197.15709 
" clip-path="url(#pb073ab0e23)" style="fill: none; stroke: #000000; stroke-width: 1.2"/>
    <path d="M 93.432462 213.353973 
L 127.424468 182.15956 
" clip-path="url(#pb073ab0e23)" style="fill: none; stroke: #000000; stroke-width: 1.2"/>
    <path d="M 123.55414 217.750206 
L 127.424468 182.15956 
" clip-path="url(#pb073ab0e23)" style="fill: none; stroke: #000000; stroke-width: 1.2"/>
    <path d="M 207.618992 160.772383 
L 162.582108 168.482364 
" clip-path="url(#pb073ab0e23)" style="fill: none; stroke: #000000; stroke-width: 1.2"/>
    <path d="M 127.424468 182.15956 
L 162.582108 168.482364 
" clip-path="url(#pb073ab0e23)" style="fill: none; stroke: #000000; stroke-width: 1.2"/>
    <path d="M 162.582108 168.482364 
L 191.904902 197.15709 
" clip-path="url(#pb073ab0e23)" style="fill: none; stroke: #000000; stroke-width: 1.2"/>
   </g>
   <g id="PathCollection_1">
    <defs>
     <path id="C0_0_1f87bff738" d="M 0 8.944272 
C 2.372049 8.944272 4.647264 8.001847 6.324555 6.324555 
C 8.001847 4.647264 8.944272 2.372049 8.944272 -0 
C 8.944272 -2.372049 8.001847 -4.647264 6.324555 -6.324555 
C 4.647264 -8.001847 2.372049 -8.944272 0 -8.944272 
C -2.372049 -8.944272 -4.647264 -8.001847 -6.324555 -6.324555 
C -8.001847 -4.647264 -8.944272 -2.372049 -8.944272 0 
C -8.944272 2.372049 -8.001847 4.647264 -6.324555 6.324555 
C -4.647264 8.001847 -2.372049 8.944272 0 8.944272 
z
"/>
    </defs>
    <g clip-path="url(#pb073ab0e23)">
     <use xlink:href="#C0_0_1f87bff738" x="150.365259" y="79.800079" style="fill: #c78033; stroke: #c78033; stroke-width: 0.5"/>
    </g>
    <g clip-path="url(#pb073ab0e23)">
     <use xlink:href="#C0_0_1f87bff738" x="167.047373" y="101.102001" style="fill: #c78033; stroke: #c78033; stroke-width: 0.5"/>
    </g>
    <g clip-path="url(#pb073ab0e23)">
     <use xlink:href="#C0_0_1f87bff738" x="110.731262" y="56.941448" style="fill: #c78033; stroke: #c78033; stroke-width: 0.5"/>
    </g>
    <g clip-path="url(#pb073ab0e23)">
     <use xlink:href="#C0_0_1f87bff738" x="145.903896" y="63.078104" style="fill: #c78033; stroke: #c78033; stroke-width: 0.5"/>
    </g>
    <g clip-path="url(#pb073ab0e23)">
     <use xlink:href="#C0_0_1f87bff738" x="165.65799" y="80.623343" style="fill: #c78033; stroke: #c78033; stroke-width: 0.5"/>
    </g>
    <g clip-path="url(#pb073ab0e23)">
     <use xlink:href="#C0_0_1f87bff738" x="127.808928" y="53.803636" style="fill: #c78033; stroke: #c78033; stroke-width: 0.5"/>
    </g>
    <g clip-path="url(#pb073ab0e23)">
     <use xlink:href="#C0_0_1f87bff738" x="120.505895" y="84.450715" style="fill: #c78033; stroke: #c78033; stroke-width: 0.5"/>
    </g>
    <g clip-path="url(#pb073ab0e23)">
     <use xlink:href="#C0_0_1f87bff738" x="91.151038" y="66.817815" style="fill: #c78033; stroke: #c78033; stroke-width: 0.5"/>
    </g>
    <g clip-path="url(#pb073ab0e23)">
     <use xlink:href="#C0_0_1f87bff738" x="76.879865" y="76.907124" style="fill: #c78033; stroke: #c78033; stroke-width: 0.5"/>
    </g>
    <g clip-path="url(#pb073ab0e23)">
     <use xlink:href="#C0_0_1f87bff738" x="99.934908" y="98.038523" style="fill: #c78033; stroke: #c78033; stroke-width: 0.5"/>
    </g>
    <g clip-path="url(#pb073ab0e23)">
     <use xlink:href="#C0_0_1f87bff738" x="116.244549" y="115.482805" style="fill: #c78033; stroke: #c78033; stroke-width: 0.5"/>
    </g>
    <g clip-path="url(#pb073ab0e23)">
     <use xlink:href="#C0_0_1f87bff738" x="145.052002" y="117.266745" style="fill: #c78033; stroke: #c78033; stroke-width: 0.5"/>
    </g>
    <g clip-path="url(#pb073ab0e23)">
     <use xlink:href="#C0_0_1f87bff738" x="77.076962" y="97.229385" style="fill: #c78033; stroke: #c78033; stroke-width: 0.5"/>
    </g>
    <g clip-path="url(#pb073ab0e23)">
     <use xlink:href="#C0_0_1f87bff738" x="123.924145" y="105.607898" style="fill: #c78033; stroke: #c78033; stroke-width: 0.5"/>
    </g>
    <g clip-path="url(#pb073ab0e23)">
     <use xlink:href="#C0_0_1f87bff738" x="104.055548" y="83.22804" style="fill: #c78033; stroke: #c78033; stroke-width: 0.5"/>
    </g>
    <g clip-path="url(#pb073ab0e23)">
     <use xlink:href="#C0_0_1f87bff738" x="136.126198" y="96.812326" style="fill: #c78033; stroke: #c78033; stroke-width: 0.5"/>
    </g>
    <g clip-path="url(#pb073ab0e23)">
     <use xlink:href="#C0_0_1f87bff738" x="112.382622" y="97.813634" style="fill: #c78033; stroke: #c78033; stroke-width: 0.5"/>
    </g>
    <g clip-path="url(#pb073ab0e23)">
     <use xlink:href="#C0_0_1f87bff738" x="86.244839" y="84.206029" style="fill: #c78033; stroke: #c78033; stroke-width: 0.5"/>
    </g>
    <g clip-path="url(#pb073ab0e23)">
     <use xlink:href="#C0_0_1f87bff738" x="74.530097" y="115.774011" style="fill: #c78033; stroke: #c78033; stroke-width: 0.5"/>
    </g>
    <g clip-path="url(#pb073ab0e23)">
     <use xlink:href="#C0_0_1f87bff738" x="61.503604" y="90.74953" style="fill: #c78033; stroke: #c78033; stroke-width: 0.5"/>
    </g>
    <g clip-path="url(#pb073ab0e23)">
     <use xlink:href="#C0_0_1f87bff738" x="78.211771" y="128.137301" style="fill: #c78033; stroke: #c78033; stroke-width: 0.5"/>
    </g>
    <g clip-path="url(#pb073ab0e23)">
     <use xlink:href="#C0_0_1f87bff738" x="56.726524" y="106.952017" style="fill: #c78033; stroke: #c78033; stroke-width: 0.5"/>
    </g>
    <g clip-path="url(#pb073ab0e23)">
     <use xlink:href="#C0_0_1f87bff738" x="100.033631" y="145.358327" style="fill: #c78033; stroke: #c78033; stroke-width: 0.5"/>
    </g>
    <g clip-path="url(#pb073ab0e23)">
     <use xlink:href="#C0_0_1f87bff738" x="112.21512" y="130.011635" style="fill: #c78033; stroke: #c78033; stroke-width: 0.5"/>
    </g>
    <g clip-path="url(#pb073ab0e23)">
     <use xlink:href="#C0_0_1f87bff738" x="55.368595" y="116.577395" style="fill: #c78033; stroke: #c78033; stroke-width: 0.5"/>
    </g>
    <g clip-path="url(#pb073ab0e23)">
     <use xlink:href="#C0_0_1f87bff738" x="88.041612" y="140.76498" style="fill: #c78033; stroke: #c78033; stroke-width: 0.5"/>
    </g>
    <g clip-path="url(#pb073ab0e23)">
     <use xlink:href="#C0_0_1f87bff738" x="98.36499" y="114.988019" style="fill: #c78033; stroke: #c78033; stroke-width: 0.5"/>
    </g>
    <g clip-path="url(#pb073ab0e23)">
     <use xlink:href="#C0_0_1f87bff738" x="130.070939" y="142.850054" style="fill: #c78033; stroke: #c78033; stroke-width: 0.5"/>
    </g>
    <g clip-path="url(#pb073ab0e23)">
     <use xlink:href="#C0_0_1f87bff738" x="93.015815" y="132.038165" style="fill: #c78033; stroke: #c78033; stroke-width: 0.5"/>
    </g>
    <g clip-path="url(#pb073ab0e23)">
     <use xlink:href="#C0_0_1f87bff738" x="60.673954" y="132.695646" style="fill: #c78033; stroke: #c78033; stroke-width: 0.5"/>
    </g>
    <g clip-path="url(#pb073ab0e23)">
     <use xlink:href="#C0_0_1f87bff738" x="186.455894" y="237.076364" style="fill: #bfbfbf; stroke: #bfbfbf; stroke-width: 0.5"/>
    </g>
    <g clip-path="url(#pb073ab0e23)">
     <use xlink:href="#C0_0_1f87bff738" x="220.412248" y="221.557708" style="fill: #bfbfbf; stroke: #bfbfbf; stroke-width: 0.5"/>
    </g>
    <g clip-path="url(#pb073ab0e23)">
     <use xlink:href="#C0_0_1f87bff738" x="239.831405" y="193.234821" style="fill: #bfbfbf; stroke: #bfbfbf; stroke-width: 0.5"/>
    </g>
    <g clip-path="url(#pb073ab0e23)">
     <use xlink:href="#C0_0_1f87bff738" x="93.432462" y="213.353973" style="fill: #bfbfbf; stroke: #bfbfbf; stroke-width: 0.5"/>
    </g>
    <g clip-path="url(#pb073ab0e23)">
     <use xlink:href="#C0_0_1f87bff738" x="123.55414" y="217.750206" style="fill: #bfbfbf; stroke: #bfbfbf; stroke-width: 0.5"/>
    </g>
    <g clip-path="url(#pb073ab0e23)">
     <use xlink:href="#C0_0_1f87bff738" x="207.618992" y="160.772383" style="fill: #bfbfbf; stroke: #bfbfbf; stroke-width: 0.5"/>
    </g>
    <g clip-path="url(#pb073ab0e23)">
     <use xlink:href="#C0_0_1f87bff738" x="127.424468" y="182.15956" style="fill: #666666; stroke: #666666; stroke-width: 0.5"/>
    </g>
    <g clip-path="url(#pb073ab0e23)">
     <use xlink:href="#C0_0_1f87bff738" x="162.582108" y="168.482364" style="fill: #666666; stroke: #666666; stroke-width: 0.5"/>
    </g>
    <g clip-path="url(#pb073ab0e23)">
     <use xlink:href="#C0_0_1f87bff738" x="191.904902" y="197.15709" style="fill: #666666; stroke: #666666; stroke-width: 0.5"/>
    </g>
   </g>
   <g id="text_1">
    <!-- C3H6Cu48 -->
    <g transform="translate(124.879477 11.601083) scale(0.1 -0.1)">
     <defs>
      <path id="DejaVuSans-43" d="M 4122 4306 
L 4122 3641 
Q 3803 3938 3442 4084 
Q 3081 4231 2675 4231 
Q 1875 4231 1450 3742 
Q 1025 3253 1025 2328 
Q 1025 1406 1450 917 
Q 1875 428 2675 428 
Q 3081 428 3442 575 
Q 3803 722 4122 1019 
L 4122 359 
Q 3791 134 3420 21 
Q 3050 -91 2638 -91 
Q 1578 -91 968 557 
Q 359 1206 359 2328 
Q 359 3453 968 4101 
Q 1578 4750 2638 4750 
Q 3056 4750 3426 4639 
Q 3797 4528 4122 4306 
z
" transform="scale(0.015625)"/>
      <path id="DejaVuSans-33" d="M 2597 2516 
Q 3050 2419 3304 2112 
Q 3559 1806 3559 1356 
Q 3559 666 3084 287 
Q 2609 -91 1734 -91 
Q 1441 -91 1130 -33 
Q 819 25 488 141 
L 488 750 
Q 750 597 1062 519 
Q 1375 441 1716 441 
Q 2309 441 2620 675 
Q 2931 909 2931 1356 
Q 2931 1769 2642 2001 
Q 2353 2234 1838 2234 
L 1294 2234 
L 1294 2753 
L 1863 2753 
Q 2328 2753 2575 2939 
Q 2822 3125 2822 3475 
Q 2822 3834 2567 4026 
Q 2313 4219 1838 4219 
Q 1578 4219 1281 4162 
Q 984 4106 628 3988 
L 628 4550 
Q 988 4650 1302 4700 
Q 1616 4750 1894 4750 
Q 2613 4750 3031 4423 
Q 3450 4097 3450 3541 
Q 3450 3153 3228 2886 
Q 3006 2619 2597 2516 
z
" transform="scale(0.015625)"/>
      <path id="DejaVuSans-48" d="M 628 4666 
L 1259 4666 
L 1259 2753 
L 3553 2753 
L 3553 4666 
L 4184 4666 
L 4184 0 
L 3553 0 
L 3553 2222 
L 1259 2222 
L 1259 0 
L 628 0 
L 628 4666 
z
" transform="scale(0.015625)"/>
      <path id="DejaVuSans-36" d="M 2113 2584 
Q 1688 2584 1439 2293 
Q 1191 2003 1191 1497 
Q 1191 994 1439 701 
Q 1688 409 2113 409 
Q 2538 409 2786 701 
Q 3034 994 3034 1497 
Q 3034 2003 2786 2293 
Q 2538 2584 2113 2584 
z
M 3366 4563 
L 3366 3988 
Q 3128 4100 2886 4159 
Q 2644 4219 2406 4219 
Q 1781 4219 1451 3797 
Q 1122 3375 1075 2522 
Q 1259 2794 1537 2939 
Q 1816 3084 2150 3084 
Q 2853 3084 3261 2657 
Q 3669 2231 3669 1497 
Q 3669 778 3244 343 
Q 2819 -91 2113 -91 
Q 1303 -91 875 529 
Q 447 1150 447 2328 
Q 447 3434 972 4092 
Q 1497 4750 2381 4750 
Q 2619 4750 2861 4703 
Q 3103 4656 3366 4563 
z
" transform="scale(0.015625)"/>
      <path id="DejaVuSans-75" d="M 544 1381 
L 544 3500 
L 1119 3500 
L 1119 1403 
Q 1119 906 1312 657 
Q 1506 409 1894 409 
Q 2359 409 2629 706 
Q 2900 1003 2900 1516 
L 2900 3500 
L 3475 3500 
L 3475 0 
L 2900 0 
L 2900 538 
Q 2691 219 2414 64 
Q 2138 -91 1772 -91 
Q 1169 -91 856 284 
Q 544 659 544 1381 
z
M 1991 3584 
L 1991 3584 
z
" transform="scale(0.015625)"/>
      <path id="DejaVuSans-34" d="M 2419 4116 
L 825 1625 
L 2419 1625 
L 2419 4116 
z
M 2253 4666 
L 3047 4666 
L 3047 1625 
L 3713 1625 
L 3713 1100 
L 3047 1100 
L 3047 0 
L 2419 0 
L 2419 1100 
L 313 1100 
L 313 1709 
L 2253 4666 
z
" transform="scale(0.015625)"/>
      <path id="DejaVuSans-38" d="M 2034 2216 
Q 1584 2216 1326 1975 
Q 1069 1734 1069 1313 
Q 1069 891 1326 650 
Q 1584 409 2034 409 
Q 2484 409 2743 651 
Q 3003 894 3003 1313 
Q 3003 1734 2745 1975 
Q 2488 2216 2034 2216 
z
M 1403 2484 
Q 997 2584 770 2862 
Q 544 3141 544 3541 
Q 544 4100 942 4425 
Q 1341 4750 2034 4750 
Q 2731 4750 3128 4425 
Q 3525 4100 3525 3541 
Q 3525 3141 3298 2862 
Q 3072 2584 2669 2484 
Q 3125 2378 3379 2068 
Q 3634 1759 3634 1313 
Q 3634 634 3220 271 
Q 2806 -91 2034 -91 
Q 1263 -91 848 271 
Q 434 634 434 1313 
Q 434 1759 690 2068 
Q 947 2378 1403 2484 
z
M 1172 3481 
Q 1172 3119 1398 2916 
Q 1625 2713 2034 2713 
Q 2441 2713 2670 2916 
Q 2900 3119 2900 3481 
Q 2900 3844 2670 4047 
Q 2441 4250 2034 4250 
Q 1625 4250 1398 4047 
Q 1172 3844 1172 3481 
z
" transform="scale(0.015625)"/>
     </defs>
     <use xlink:href="#DejaVuSans-43"/>
     <use xlink:href="#DejaVuSans-33" transform="translate(69.824219 0)"/>
     <use xlink:href="#DejaVuSans-48" transform="translate(133.447266 0)"/>
     <use xlink:href="#DejaVuSans-36" transform="translate(208.642578 0)"/>
     <use xlink:href="#DejaVuSans-43" transform="translate(272.265625 0)"/>
     <use xlink:href="#DejaVuSans-75" transform="translate(342.089844 0)"/>
     <use xlink:href="#DejaVuSans-34" transform="translate(405.46875 0)"/>
     <use xlink:href="#DejaVuSans-38" transform="translate(469.091797 0)"/>
    </g>
    <!-- Error: -6.81 eV -->
    <g transform="translate(124.879477 22.798895) scale(0.1 -0.1)">
     <defs>
      <path id="DejaVuSans-45" d="M 628 4666 
L 3578 4666 
L 3578 4134 
L 1259 4134 
L 1259 2753 
L 3481 2753 
L 3481 2222 
L 1259 2222 
L 1259 531 
L 3634 531 
L 3634 0 
L 628 0 
L 628 4666 
z
" transform="scale(0.015625)"/>
      <path id="DejaVuSans-72" d="M 2631 2963 
Q 2534 3019 2420 3045 
Q 2306 3072 2169 3072 
Q 1681 3072 1420 2755 
Q 1159 2438 1159 1844 
L 1159 0 
L 581 0 
L 581 3500 
L 1159 3500 
L 1159 2956 
Q 1341 3275 1631 3429 
Q 1922 3584 2338 3584 
Q 2397 3584 2469 3576 
Q 2541 3569 2628 3553 
L 2631 2963 
z
" transform="scale(0.015625)"/>
      <path id="DejaVuSans-6f" d="M 1959 3097 
Q 1497 3097 1228 2736 
Q 959 2375 959 1747 
Q 959 1119 1226 758 
Q 1494 397 1959 397 
Q 2419 397 2687 759 
Q 2956 1122 2956 1747 
Q 2956 2369 2687 2733 
Q 2419 3097 1959 3097 
z
M 1959 3584 
Q 2709 3584 3137 3096 
Q 3566 2609 3566 1747 
Q 3566 888 3137 398 
Q 2709 -91 1959 -91 
Q 1206 -91 779 398 
Q 353 888 353 1747 
Q 353 2609 779 3096 
Q 1206 3584 1959 3584 
z
" transform="scale(0.015625)"/>
      <path id="DejaVuSans-3a" d="M 750 794 
L 1409 794 
L 1409 0 
L 750 0 
L 750 794 
z
M 750 3309 
L 1409 3309 
L 1409 2516 
L 750 2516 
L 750 3309 
z
" transform="scale(0.015625)"/>
      <path id="DejaVuSans-20" transform="scale(0.015625)"/>
      <path id="DejaVuSans-2d" d="M 313 2009 
L 1997 2009 
L 1997 1497 
L 313 1497 
L 313 2009 
z
" transform="scale(0.015625)"/>
      <path id="DejaVuSans-2e" d="M 684 794 
L 1344 794 
L 1344 0 
L 684 0 
L 684 794 
z
" transform="scale(0.015625)"/>
      <path id="DejaVuSans-31" d="M 794 531 
L 1825 531 
L 1825 4091 
L 703 3866 
L 703 4441 
L 1819 4666 
L 2450 4666 
L 2450 531 
L 3481 531 
L 3481 0 
L 794 0 
L 794 531 
z
" transform="scale(0.015625)"/>
      <path id="DejaVuSans-65" d="M 3597 1894 
L 3597 1613 
L 953 1613 
Q 991 1019 1311 708 
Q 1631 397 2203 397 
Q 2534 397 2845 478 
Q 3156 559 3463 722 
L 3463 178 
Q 3153 47 2828 -22 
Q 2503 -91 2169 -91 
Q 1331 -91 842 396 
Q 353 884 353 1716 
Q 353 2575 817 3079 
Q 1281 3584 2069 3584 
Q 2775 3584 3186 3129 
Q 3597 2675 3597 1894 
z
M 3022 2063 
Q 3016 2534 2758 2815 
Q 2500 3097 2075 3097 
Q 1594 3097 1305 2825 
Q 1016 2553 972 2059 
L 3022 2063 
z
" transform="scale(0.015625)"/>
      <path id="DejaVuSans-56" d="M 1831 0 
L 50 4666 
L 709 4666 
L 2188 738 
L 3669 4666 
L 4325 4666 
L 2547 0 
L 1831 0 
z
" transform="scale(0.015625)"/>
     </defs>
     <use xlink:href="#DejaVuSans-45"/>
     <use xlink:href="#DejaVuSans-72" transform="translate(63.183594 0)"/>
     <use xlink:href="#DejaVuSans-72" transform="translate(102.546875 0)"/>
     <use xlink:href="#DejaVuSans-6f" transform="translate(141.410156 0)"/>
     <use xlink:href="#DejaVuSans-72" transform="translate(202.591797 0)"/>
     <use xlink:href="#DejaVuSans-3a" transform="translate(241.955078 0)"/>
     <use xlink:href="#DejaVuSans-20" transform="translate(275.646484 0)"/>
     <use xlink:href="#DejaVuSans-2d" transform="translate(307.433594 0)"/>
     <use xlink:href="#DejaVuSans-36" transform="translate(343.517578 0)"/>
     <use xlink:href="#DejaVuSans-2e" transform="translate(407.140625 0)"/>
     <use xlink:href="#DejaVuSans-38" transform="translate(438.927734 0)"/>
     <use xlink:href="#DejaVuSans-31" transform="translate(502.550781 0)"/>
     <use xlink:href="#DejaVuSans-20" transform="translate(566.173828 0)"/>
     <use xlink:href="#DejaVuSans-65" transform="translate(597.960938 0)"/>
     <use xlink:href="#DejaVuSans-56" transform="translate(659.484375 0)"/>
    </g>
   </g>
  </g>
 </g>
 <defs>
  <clipPath id="pb073ab0e23">
   <rect x="36" y="34.56" width="223.2" height="221.76"/>
  </clipPath>
 </defs>
</svg>
