<?xml version="1.0" encoding="utf-8" standalone="no"?>
<!DOCTYPE svg PUBLIC "-//W3C//DTD SVG 1.1//EN"
  "http://www.w3.org/Graphics/SVG/1.1/DTD/svg11.dtd">
<svg xmlns:xlink="http://www.w3.org/1999/xlink" width="288pt" height="288pt" viewBox="0 0 288 288" xmlns="http://www.w3.org/2000/svg" version="1.1">
 <metadata>
  <rdf:RDF xmlns:dc="http://purl.org/dc/elements/1.1/" xmlns:cc="http://creativecommons.org/ns#" xmlns:rdf="http://www.w3.org/1999/02/22-rdf-syntax-ns#">
   <cc:Work>
    <dc:type rdf:resource="http://purl.org/dc/dcmitype/StillImage"/>
    <dc:date>2025-06-30T11:56:46.945671</dc:date>
    <dc:format>image/svg+xml</dc:format>
    <dc:creator>
     <cc:Agent>
      <dc:title>Matplotlib v3.10.1, https://matplotlib.org/</dc:title>
     </cc:Agent>
    </dc:creator>
   </cc:Work>
  </rdf:RDF>
 </metadata>
 <defs>
  <style type="text/css">*{stroke-linejoin: round; stroke-linecap: butt}</style>
 </defs>
 <g id="figure_1">
  <g id="patch_1">
   <path d="M 0 288 
L 288 288 
L 288 0 
L 0 0 
z
" style="fill: #ffffff"/>
  </g>
  <g id="axes_1">
   <g id="LineCollection_1">
    <path d="M 86.063318 54.02247 
L 132.110899 58.170031 
" clip-path="url(#p4f6c81d03d)" style="fill: none; stroke: #000000; stroke-width: 1.2"/>
    <path d="M 86.063318 54.02247 
L 115.20438 54.144141 
" clip-path="url(#p4f6c81d03d)" style="fill: none; stroke: #000000; stroke-width: 1.2"/>
    <path d="M 86.063318 54.02247 
L 118.584195 63.448031 
" clip-path="url(#p4f6c81d03d)" style="fill: none; stroke: #000000; stroke-width: 1.2"/>
    <path d="M 86.063318 54.02247 
L 57.342677 64.148055 
" clip-path="url(#p4f6c81d03d)" style="fill: none; stroke: #000000; stroke-width: 1.2"/>
    <path d="M 86.063318 54.02247 
L 74.691418 67.702371 
" clip-path="url(#p4f6c81d03d)" style="fill: none; stroke: #000000; stroke-width: 1.2"/>
    <path d="M 86.063318 54.02247 
L 55.368595 71.382603 
" clip-path="url(#p4f6c81d03d)" style="fill: none; stroke: #000000; stroke-width: 1.2"/>
    <path d="M 86.063318 54.02247 
L 118.766368 87.453571 
" clip-path="url(#p4f6c81d03d)" style="fill: none; stroke: #000000; stroke-width: 1.2"/>
    <path d="M 86.063318 54.02247 
L 87.222686 84.235664 
" clip-path="url(#p4f6c81d03d)" style="fill: none; stroke: #000000; stroke-width: 1.2"/>
    <path d="M 86.063318 54.02247 
L 58.590552 90.173657 
" clip-path="url(#p4f6c81d03d)" style="fill: none; stroke: #000000; stroke-width: 1.2"/>
    <path d="M 132.110899 58.170031 
L 115.20438 54.144141 
" clip-path="url(#p4f6c81d03d)" style="fill: none; stroke: #000000; stroke-width: 1.2"/>
    <path d="M 132.110899 58.170031 
L 118.584195 63.448031 
" clip-path="url(#p4f6c81d03d)" style="fill: none; stroke: #000000; stroke-width: 1.2"/>
    <path d="M 132.110899 58.170031 
L 100.410982 53.803636 
" clip-path="url(#p4f6c81d03d)" style="fill: none; stroke: #000000; stroke-width: 1.2"/>
    <path d="M 132.110899 58.170031 
L 104.263021 68.982671 
" clip-path="url(#p4f6c81d03d)" style="fill: none; stroke: #000000; stroke-width: 1.2"/>
    <path d="M 132.110899 58.170031 
L 73.384878 58.590173 
" clip-path="url(#p4f6c81d03d)" style="fill: none; stroke: #000000; stroke-width: 1.2"/>
    <path d="M 132.110899 58.170031 
L 118.766368 87.453571 
" clip-path="url(#p4f6c81d03d)" style="fill: none; stroke: #000000; stroke-width: 1.2"/>
    <path d="M 132.110899 58.170031 
L 132.378787 80.952228 
" clip-path="url(#p4f6c81d03d)" style="fill: none; stroke: #000000; stroke-width: 1.2"/>
    <path d="M 132.110899 58.170031 
L 105.63336 96.575727 
" clip-path="url(#p4f6c81d03d)" style="fill: none; stroke: #000000; stroke-width: 1.2"/>
    <path d="M 115.20438 54.144141 
L 89.766548 66.325398 
" clip-path="url(#p4f6c81d03d)" style="fill: none; stroke: #000000; stroke-width: 1.2"/>
    <path d="M 115.20438 54.144141 
L 137.014665 67.4542 
" clip-path="url(#p4f6c81d03d)" style="fill: none; stroke: #000000; stroke-width: 1.2"/>
    <path d="M 115.20438 54.144141 
L 100.410982 53.803636 
" clip-path="url(#p4f6c81d03d)" style="fill: none; stroke: #000000; stroke-width: 1.2"/>
    <path d="M 115.20438 54.144141 
L 55.368595 71.382603 
" clip-path="url(#p4f6c81d03d)" style="fill: none; stroke: #000000; stroke-width: 1.2"/>
    <path d="M 115.20438 54.144141 
L 87.222686 84.235664 
" clip-path="url(#p4f6c81d03d)" style="fill: none; stroke: #000000; stroke-width: 1.2"/>
    <path d="M 115.20438 54.144141 
L 132.378787 80.952228 
" clip-path="url(#p4f6c81d03d)" style="fill: none; stroke: #000000; stroke-width: 1.2"/>
    <path d="M 115.20438 54.144141 
L 122.676935 92.988692 
" clip-path="url(#p4f6c81d03d)" style="fill: none; stroke: #000000; stroke-width: 1.2"/>
    <path d="M 89.766548 66.325398 
L 137.014665 67.4542 
" clip-path="url(#p4f6c81d03d)" style="fill: none; stroke: #000000; stroke-width: 1.2"/>
    <path d="M 89.766548 66.325398 
L 118.584195 63.448031 
" clip-path="url(#p4f6c81d03d)" style="fill: none; stroke: #000000; stroke-width: 1.2"/>
    <path d="M 89.766548 66.325398 
L 57.342677 64.148055 
" clip-path="url(#p4f6c81d03d)" style="fill: none; stroke: #000000; stroke-width: 1.2"/>
    <path d="M 89.766548 66.325398 
L 55.368595 71.382603 
" clip-path="url(#p4f6c81d03d)" style="fill: none; stroke: #000000; stroke-width: 1.2"/>
    <path d="M 89.766548 66.325398 
L 73.384878 58.590173 
" clip-path="url(#p4f6c81d03d)" style="fill: none; stroke: #000000; stroke-width: 1.2"/>
    <path d="M 89.766548 66.325398 
L 122.676935 92.988692 
" clip-path="url(#p4f6c81d03d)" style="fill: none; stroke: #000000; stroke-width: 1.2"/>
    <path d="M 89.766548 66.325398 
L 90.571533 97.88519 
" clip-path="url(#p4f6c81d03d)" style="fill: none; stroke: #000000; stroke-width: 1.2"/>
    <path d="M 89.766548 66.325398 
L 60.155426 96.477986 
" clip-path="url(#p4f6c81d03d)" style="fill: none; stroke: #000000; stroke-width: 1.2"/>
    <path d="M 137.014665 67.4542 
L 118.584195 63.448031 
" clip-path="url(#p4f6c81d03d)" style="fill: none; stroke: #000000; stroke-width: 1.2"/>
    <path d="M 137.014665 67.4542 
L 100.410982 53.803636 
" clip-path="url(#p4f6c81d03d)" style="fill: none; stroke: #000000; stroke-width: 1.2"/>
    <path d="M 137.014665 67.4542 
L 74.691418 67.702371 
" clip-path="url(#p4f6c81d03d)" style="fill: none; stroke: #000000; stroke-width: 1.2"/>
    <path d="M 137.014665 67.4542 
L 104.263021 68.982671 
" clip-path="url(#p4f6c81d03d)" style="fill: none; stroke: #000000; stroke-width: 1.2"/>
    <path d="M 137.014665 67.4542 
L 122.676935 92.988692 
" clip-path="url(#p4f6c81d03d)" style="fill: none; stroke: #000000; stroke-width: 1.2"/>
    <path d="M 137.014665 67.4542 
L 136.393314 96.907741 
" clip-path="url(#p4f6c81d03d)" style="fill: none; stroke: #000000; stroke-width: 1.2"/>
    <path d="M 137.014665 67.4542 
L 105.069374 90.296387 
" clip-path="url(#p4f6c81d03d)" style="fill: none; stroke: #000000; stroke-width: 1.2"/>
    <path d="M 118.584195 63.448031 
L 57.342677 64.148055 
" clip-path="url(#p4f6c81d03d)" style="fill: none; stroke: #000000; stroke-width: 1.2"/>
    <path d="M 118.584195 63.448031 
L 104.263021 68.982671 
" clip-path="url(#p4f6c81d03d)" style="fill: none; stroke: #000000; stroke-width: 1.2"/>
    <path d="M 118.584195 63.448031 
L 118.766368 87.453571 
" clip-path="url(#p4f6c81d03d)" style="fill: none; stroke: #000000; stroke-width: 1.2"/>
    <path d="M 118.584195 63.448031 
L 90.571533 97.88519 
" clip-path="url(#p4f6c81d03d)" style="fill: none; stroke: #000000; stroke-width: 1.2"/>
    <path d="M 118.584195 63.448031 
L 136.393314 96.907741 
" clip-path="url(#p4f6c81d03d)" style="fill: none; stroke: #000000; stroke-width: 1.2"/>
    <path d="M 100.410982 53.803636 
L 57.342677 64.148055 
" clip-path="url(#p4f6c81d03d)" style="fill: none; stroke: #000000; stroke-width: 1.2"/>
    <path d="M 100.410982 53.803636 
L 74.691418 67.702371 
" clip-path="url(#p4f6c81d03d)" style="fill: none; stroke: #000000; stroke-width: 1.2"/>
    <path d="M 100.410982 53.803636 
L 73.384878 58.590173 
" clip-path="url(#p4f6c81d03d)" style="fill: none; stroke: #000000; stroke-width: 1.2"/>
    <path d="M 100.410982 53.803636 
L 132.378787 80.952228 
" clip-path="url(#p4f6c81d03d)" style="fill: none; stroke: #000000; stroke-width: 1.2"/>
    <path d="M 100.410982 53.803636 
L 73.880615 86.232622 
" clip-path="url(#p4f6c81d03d)" style="fill: none; stroke: #000000; stroke-width: 1.2"/>
    <path d="M 100.410982 53.803636 
L 105.069374 90.296387 
" clip-path="url(#p4f6c81d03d)" style="fill: none; stroke: #000000; stroke-width: 1.2"/>
    <path d="M 57.342677 64.148055 
L 74.691418 67.702371 
" clip-path="url(#p4f6c81d03d)" style="fill: none; stroke: #000000; stroke-width: 1.2"/>
    <path d="M 57.342677 64.148055 
L 73.384878 58.590173 
" clip-path="url(#p4f6c81d03d)" style="fill: none; stroke: #000000; stroke-width: 1.2"/>
    <path d="M 57.342677 64.148055 
L 90.571533 97.88519 
" clip-path="url(#p4f6c81d03d)" style="fill: none; stroke: #000000; stroke-width: 1.2"/>
    <path d="M 57.342677 64.148055 
L 73.880615 86.232622 
" clip-path="url(#p4f6c81d03d)" style="fill: none; stroke: #000000; stroke-width: 1.2"/>
    <path d="M 57.342677 64.148055 
L 58.590552 90.173657 
" clip-path="url(#p4f6c81d03d)" style="fill: none; stroke: #000000; stroke-width: 1.2"/>
    <path d="M 74.691418 67.702371 
L 104.263021 68.982671 
" clip-path="url(#p4f6c81d03d)" style="fill: none; stroke: #000000; stroke-width: 1.2"/>
    <path d="M 74.691418 67.702371 
L 55.368595 71.382603 
" clip-path="url(#p4f6c81d03d)" style="fill: none; stroke: #000000; stroke-width: 1.2"/>
    <path d="M 74.691418 67.702371 
L 105.069374 90.296387 
" clip-path="url(#p4f6c81d03d)" style="fill: none; stroke: #000000; stroke-width: 1.2"/>
    <path d="M 74.691418 67.702371 
L 58.590552 90.173657 
" clip-path="url(#p4f6c81d03d)" style="fill: none; stroke: #000000; stroke-width: 1.2"/>
    <path d="M 74.691418 67.702371 
L 78.101277 101.498136 
" clip-path="url(#p4f6c81d03d)" style="fill: none; stroke: #000000; stroke-width: 1.2"/>
    <path d="M 104.263021 68.982671 
L 55.368595 71.382603 
" clip-path="url(#p4f6c81d03d)" style="fill: none; stroke: #000000; stroke-width: 1.2"/>
    <path d="M 104.263021 68.982671 
L 73.384878 58.590173 
" clip-path="url(#p4f6c81d03d)" style="fill: none; stroke: #000000; stroke-width: 1.2"/>
    <path d="M 104.263021 68.982671 
L 136.393314 96.907741 
" clip-path="url(#p4f6c81d03d)" style="fill: none; stroke: #000000; stroke-width: 1.2"/>
    <path d="M 104.263021 68.982671 
L 78.101277 101.498136 
" clip-path="url(#p4f6c81d03d)" style="fill: none; stroke: #000000; stroke-width: 1.2"/>
    <path d="M 104.263021 68.982671 
L 105.63336 96.575727 
" clip-path="url(#p4f6c81d03d)" style="fill: none; stroke: #000000; stroke-width: 1.2"/>
    <path d="M 55.368595 71.382603 
L 73.384878 58.590173 
" clip-path="url(#p4f6c81d03d)" style="fill: none; stroke: #000000; stroke-width: 1.2"/>
    <path d="M 55.368595 71.382603 
L 87.222686 84.235664 
" clip-path="url(#p4f6c81d03d)" style="fill: none; stroke: #000000; stroke-width: 1.2"/>
    <path d="M 55.368595 71.382603 
L 78.101277 101.498136 
" clip-path="url(#p4f6c81d03d)" style="fill: none; stroke: #000000; stroke-width: 1.2"/>
    <path d="M 55.368595 71.382603 
L 60.155426 96.477986 
" clip-path="url(#p4f6c81d03d)" style="fill: none; stroke: #000000; stroke-width: 1.2"/>
    <path d="M 73.384878 58.590173 
L 73.880615 86.232622 
" clip-path="url(#p4f6c81d03d)" style="fill: none; stroke: #000000; stroke-width: 1.2"/>
    <path d="M 73.384878 58.590173 
L 105.63336 96.575727 
" clip-path="url(#p4f6c81d03d)" style="fill: none; stroke: #000000; stroke-width: 1.2"/>
    <path d="M 73.384878 58.590173 
L 60.155426 96.477986 
" clip-path="url(#p4f6c81d03d)" style="fill: none; stroke: #000000; stroke-width: 1.2"/>
    <path d="M 118.766368 87.453571 
L 87.222686 84.235664 
" clip-path="url(#p4f6c81d03d)" style="fill: none; stroke: #000000; stroke-width: 1.2"/>
    <path d="M 118.766368 87.453571 
L 132.378787 80.952228 
" clip-path="url(#p4f6c81d03d)" style="fill: none; stroke: #000000; stroke-width: 1.2"/>
    <path d="M 118.766368 87.453571 
L 90.571533 97.88519 
" clip-path="url(#p4f6c81d03d)" style="fill: none; stroke: #000000; stroke-width: 1.2"/>
    <path d="M 118.766368 87.453571 
L 136.393314 96.907741 
" clip-path="url(#p4f6c81d03d)" style="fill: none; stroke: #000000; stroke-width: 1.2"/>
    <path d="M 118.766368 87.453571 
L 58.590552 90.173657 
" clip-path="url(#p4f6c81d03d)" style="fill: none; stroke: #000000; stroke-width: 1.2"/>
    <path d="M 118.766368 87.453571 
L 105.63336 96.575727 
" clip-path="url(#p4f6c81d03d)" style="fill: none; stroke: #000000; stroke-width: 1.2"/>
    <path d="M 118.766368 87.453571 
L 90.39955 126.01641 
" clip-path="url(#p4f6c81d03d)" style="fill: none; stroke: #000000; stroke-width: 1.2"/>
    <path d="M 118.766368 87.453571 
L 121.315472 110.3384 
" clip-path="url(#p4f6c81d03d)" style="fill: none; stroke: #000000; stroke-width: 1.2"/>
    <path d="M 118.766368 87.453571 
L 135.258134 122.901309 
" clip-path="url(#p4f6c81d03d)" style="fill: none; stroke: #000000; stroke-width: 1.2"/>
    <path d="M 87.222686 84.235664 
L 132.378787 80.952228 
" clip-path="url(#p4f6c81d03d)" style="fill: none; stroke: #000000; stroke-width: 1.2"/>
    <path d="M 87.222686 84.235664 
L 122.676935 92.988692 
" clip-path="url(#p4f6c81d03d)" style="fill: none; stroke: #000000; stroke-width: 1.2"/>
    <path d="M 87.222686 84.235664 
L 58.590552 90.173657 
" clip-path="url(#p4f6c81d03d)" style="fill: none; stroke: #000000; stroke-width: 1.2"/>
    <path d="M 87.222686 84.235664 
L 78.101277 101.498136 
" clip-path="url(#p4f6c81d03d)" style="fill: none; stroke: #000000; stroke-width: 1.2"/>
    <path d="M 87.222686 84.235664 
L 60.155426 96.477986 
" clip-path="url(#p4f6c81d03d)" style="fill: none; stroke: #000000; stroke-width: 1.2"/>
    <path d="M 87.222686 84.235664 
L 121.315472 110.3384 
" clip-path="url(#p4f6c81d03d)" style="fill: none; stroke: #000000; stroke-width: 1.2"/>
    <path d="M 87.222686 84.235664 
L 91.623636 117.818868 
" clip-path="url(#p4f6c81d03d)" style="fill: none; stroke: #000000; stroke-width: 1.2"/>
    <path d="M 87.222686 84.235664 
L 58.936512 117.642291 
" clip-path="url(#p4f6c81d03d)" style="fill: none; stroke: #000000; stroke-width: 1.2"/>
    <path d="M 132.378787 80.952228 
L 122.676935 92.988692 
" clip-path="url(#p4f6c81d03d)" style="fill: none; stroke: #000000; stroke-width: 1.2"/>
    <path d="M 132.378787 80.952228 
L 73.880615 86.232622 
" clip-path="url(#p4f6c81d03d)" style="fill: none; stroke: #000000; stroke-width: 1.2"/>
    <path d="M 132.378787 80.952228 
L 105.069374 90.296387 
" clip-path="url(#p4f6c81d03d)" style="fill: none; stroke: #000000; stroke-width: 1.2"/>
    <path d="M 132.378787 80.952228 
L 105.63336 96.575727 
" clip-path="url(#p4f6c81d03d)" style="fill: none; stroke: #000000; stroke-width: 1.2"/>
    <path d="M 132.378787 80.952228 
L 121.315472 110.3384 
" clip-path="url(#p4f6c81d03d)" style="fill: none; stroke: #000000; stroke-width: 1.2"/>
    <path d="M 132.378787 80.952228 
L 139.401019 110.851059 
" clip-path="url(#p4f6c81d03d)" style="fill: none; stroke: #000000; stroke-width: 1.2"/>
    <path d="M 132.378787 80.952228 
L 105.921445 118.102027 
" clip-path="url(#p4f6c81d03d)" style="fill: none; stroke: #000000; stroke-width: 1.2"/>
    <path d="M 122.676935 92.988692 
L 90.571533 97.88519 
" clip-path="url(#p4f6c81d03d)" style="fill: none; stroke: #000000; stroke-width: 1.2"/>
    <path d="M 122.676935 92.988692 
L 136.393314 96.907741 
" clip-path="url(#p4f6c81d03d)" style="fill: none; stroke: #000000; stroke-width: 1.2"/>
    <path d="M 122.676935 92.988692 
L 105.069374 90.296387 
" clip-path="url(#p4f6c81d03d)" style="fill: none; stroke: #000000; stroke-width: 1.2"/>
    <path d="M 122.676935 92.988692 
L 60.155426 96.477986 
" clip-path="url(#p4f6c81d03d)" style="fill: none; stroke: #000000; stroke-width: 1.2"/>
    <path d="M 122.676935 92.988692 
L 139.401019 110.851059 
" clip-path="url(#p4f6c81d03d)" style="fill: none; stroke: #000000; stroke-width: 1.2"/>
    <path d="M 122.676935 92.988692 
L 91.623636 117.818868 
" clip-path="url(#p4f6c81d03d)" style="fill: none; stroke: #000000; stroke-width: 1.2"/>
    <path d="M 122.676935 92.988692 
L 121.577053 127.66631 
" clip-path="url(#p4f6c81d03d)" style="fill: none; stroke: #000000; stroke-width: 1.2"/>
    <path d="M 90.571533 97.88519 
L 136.393314 96.907741 
" clip-path="url(#p4f6c81d03d)" style="fill: none; stroke: #000000; stroke-width: 1.2"/>
    <path d="M 90.571533 97.88519 
L 73.880615 86.232622 
" clip-path="url(#p4f6c81d03d)" style="fill: none; stroke: #000000; stroke-width: 1.2"/>
    <path d="M 90.571533 97.88519 
L 58.590552 90.173657 
" clip-path="url(#p4f6c81d03d)" style="fill: none; stroke: #000000; stroke-width: 1.2"/>
    <path d="M 90.571533 97.88519 
L 60.155426 96.477986 
" clip-path="url(#p4f6c81d03d)" style="fill: none; stroke: #000000; stroke-width: 1.2"/>
    <path d="M 90.571533 97.88519 
L 90.39955 126.01641 
" clip-path="url(#p4f6c81d03d)" style="fill: none; stroke: #000000; stroke-width: 1.2"/>
    <path d="M 90.571533 97.88519 
L 121.577053 127.66631 
" clip-path="url(#p4f6c81d03d)" style="fill: none; stroke: #000000; stroke-width: 1.2"/>
    <path d="M 90.571533 97.88519 
L 62.00627 123.864193 
" clip-path="url(#p4f6c81d03d)" style="fill: none; stroke: #000000; stroke-width: 1.2"/>
    <path d="M 136.393314 96.907741 
L 105.069374 90.296387 
" clip-path="url(#p4f6c81d03d)" style="fill: none; stroke: #000000; stroke-width: 1.2"/>
    <path d="M 136.393314 96.907741 
L 78.101277 101.498136 
" clip-path="url(#p4f6c81d03d)" style="fill: none; stroke: #000000; stroke-width: 1.2"/>
    <path d="M 136.393314 96.907741 
L 105.63336 96.575727 
" clip-path="url(#p4f6c81d03d)" style="fill: none; stroke: #000000; stroke-width: 1.2"/>
    <path d="M 136.393314 96.907741 
L 121.577053 127.66631 
" clip-path="url(#p4f6c81d03d)" style="fill: none; stroke: #000000; stroke-width: 1.2"/>
    <path d="M 136.393314 96.907741 
L 135.258134 122.901309 
" clip-path="url(#p4f6c81d03d)" style="fill: none; stroke: #000000; stroke-width: 1.2"/>
    <path d="M 136.393314 96.907741 
L 107.578678 130.693379 
" clip-path="url(#p4f6c81d03d)" style="fill: none; stroke: #000000; stroke-width: 1.2"/>
    <path d="M 73.880615 86.232622 
L 105.069374 90.296387 
" clip-path="url(#p4f6c81d03d)" style="fill: none; stroke: #000000; stroke-width: 1.2"/>
    <path d="M 73.880615 86.232622 
L 58.590552 90.173657 
" clip-path="url(#p4f6c81d03d)" style="fill: none; stroke: #000000; stroke-width: 1.2"/>
    <path d="M 73.880615 86.232622 
L 105.63336 96.575727 
" clip-path="url(#p4f6c81d03d)" style="fill: none; stroke: #000000; stroke-width: 1.2"/>
    <path d="M 73.880615 86.232622 
L 60.155426 96.477986 
" clip-path="url(#p4f6c81d03d)" style="fill: none; stroke: #000000; stroke-width: 1.2"/>
    <path d="M 73.880615 86.232622 
L 105.921445 118.102027 
" clip-path="url(#p4f6c81d03d)" style="fill: none; stroke: #000000; stroke-width: 1.2"/>
    <path d="M 73.880615 86.232622 
L 75.933101 116.093398 
" clip-path="url(#p4f6c81d03d)" style="fill: none; stroke: #000000; stroke-width: 1.2"/>
    <path d="M 73.880615 86.232622 
L 62.00627 123.864193 
" clip-path="url(#p4f6c81d03d)" style="fill: none; stroke: #000000; stroke-width: 1.2"/>
    <path d="M 105.069374 90.296387 
L 58.590552 90.173657 
" clip-path="url(#p4f6c81d03d)" style="fill: none; stroke: #000000; stroke-width: 1.2"/>
    <path d="M 105.069374 90.296387 
L 78.101277 101.498136 
" clip-path="url(#p4f6c81d03d)" style="fill: none; stroke: #000000; stroke-width: 1.2"/>
    <path d="M 105.069374 90.296387 
L 139.401019 110.851059 
" clip-path="url(#p4f6c81d03d)" style="fill: none; stroke: #000000; stroke-width: 1.2"/>
    <path d="M 105.069374 90.296387 
L 75.933101 116.093398 
" clip-path="url(#p4f6c81d03d)" style="fill: none; stroke: #000000; stroke-width: 1.2"/>
    <path d="M 105.069374 90.296387 
L 107.578678 130.693379 
" clip-path="url(#p4f6c81d03d)" style="fill: none; stroke: #000000; stroke-width: 1.2"/>
    <path d="M 58.590552 90.173657 
L 78.101277 101.498136 
" clip-path="url(#p4f6c81d03d)" style="fill: none; stroke: #000000; stroke-width: 1.2"/>
    <path d="M 58.590552 90.173657 
L 90.39955 126.01641 
" clip-path="url(#p4f6c81d03d)" style="fill: none; stroke: #000000; stroke-width: 1.2"/>
    <path d="M 58.590552 90.173657 
L 75.933101 116.093398 
" clip-path="url(#p4f6c81d03d)" style="fill: none; stroke: #000000; stroke-width: 1.2"/>
    <path d="M 58.590552 90.173657 
L 58.936512 117.642291 
" clip-path="url(#p4f6c81d03d)" style="fill: none; stroke: #000000; stroke-width: 1.2"/>
    <path d="M 78.101277 101.498136 
L 105.63336 96.575727 
" clip-path="url(#p4f6c81d03d)" style="fill: none; stroke: #000000; stroke-width: 1.2"/>
    <path d="M 78.101277 101.498136 
L 60.155426 96.477986 
" clip-path="url(#p4f6c81d03d)" style="fill: none; stroke: #000000; stroke-width: 1.2"/>
    <path d="M 78.101277 101.498136 
L 58.936512 117.642291 
" clip-path="url(#p4f6c81d03d)" style="fill: none; stroke: #000000; stroke-width: 1.2"/>
    <path d="M 78.101277 101.498136 
L 107.578678 130.693379 
" clip-path="url(#p4f6c81d03d)" style="fill: none; stroke: #000000; stroke-width: 1.2"/>
    <path d="M 78.101277 101.498136 
L 78.488851 131.191346 
" clip-path="url(#p4f6c81d03d)" style="fill: none; stroke: #000000; stroke-width: 1.2"/>
    <path d="M 105.63336 96.575727 
L 60.155426 96.477986 
" clip-path="url(#p4f6c81d03d)" style="fill: none; stroke: #000000; stroke-width: 1.2"/>
    <path d="M 105.63336 96.575727 
L 135.258134 122.901309 
" clip-path="url(#p4f6c81d03d)" style="fill: none; stroke: #000000; stroke-width: 1.2"/>
    <path d="M 105.63336 96.575727 
L 105.921445 118.102027 
" clip-path="url(#p4f6c81d03d)" style="fill: none; stroke: #000000; stroke-width: 1.2"/>
    <path d="M 105.63336 96.575727 
L 78.488851 131.191346 
" clip-path="url(#p4f6c81d03d)" style="fill: none; stroke: #000000; stroke-width: 1.2"/>
    <path d="M 60.155426 96.477986 
L 91.623636 117.818868 
" clip-path="url(#p4f6c81d03d)" style="fill: none; stroke: #000000; stroke-width: 1.2"/>
    <path d="M 60.155426 96.477986 
L 78.488851 131.191346 
" clip-path="url(#p4f6c81d03d)" style="fill: none; stroke: #000000; stroke-width: 1.2"/>
    <path d="M 60.155426 96.477986 
L 62.00627 123.864193 
" clip-path="url(#p4f6c81d03d)" style="fill: none; stroke: #000000; stroke-width: 1.2"/>
    <path d="M 90.39955 126.01641 
L 121.315472 110.3384 
" clip-path="url(#p4f6c81d03d)" style="fill: none; stroke: #000000; stroke-width: 1.2"/>
    <path d="M 90.39955 126.01641 
L 121.577053 127.66631 
" clip-path="url(#p4f6c81d03d)" style="fill: none; stroke: #000000; stroke-width: 1.2"/>
    <path d="M 90.39955 126.01641 
L 135.258134 122.901309 
" clip-path="url(#p4f6c81d03d)" style="fill: none; stroke: #000000; stroke-width: 1.2"/>
    <path d="M 90.39955 126.01641 
L 75.933101 116.093398 
" clip-path="url(#p4f6c81d03d)" style="fill: none; stroke: #000000; stroke-width: 1.2"/>
    <path d="M 90.39955 126.01641 
L 58.936512 117.642291 
" clip-path="url(#p4f6c81d03d)" style="fill: none; stroke: #000000; stroke-width: 1.2"/>
    <path d="M 90.39955 126.01641 
L 62.00627 123.864193 
" clip-path="url(#p4f6c81d03d)" style="fill: none; stroke: #000000; stroke-width: 1.2"/>
    <path d="M 121.315472 110.3384 
L 139.401019 110.851059 
" clip-path="url(#p4f6c81d03d)" style="fill: none; stroke: #000000; stroke-width: 1.2"/>
    <path d="M 121.315472 110.3384 
L 91.623636 117.818868 
" clip-path="url(#p4f6c81d03d)" style="fill: none; stroke: #000000; stroke-width: 1.2"/>
    <path d="M 121.315472 110.3384 
L 135.258134 122.901309 
" clip-path="url(#p4f6c81d03d)" style="fill: none; stroke: #000000; stroke-width: 1.2"/>
    <path d="M 121.315472 110.3384 
L 105.921445 118.102027 
" clip-path="url(#p4f6c81d03d)" style="fill: none; stroke: #000000; stroke-width: 1.2"/>
    <path d="M 121.315472 110.3384 
L 58.936512 117.642291 
" clip-path="url(#p4f6c81d03d)" style="fill: none; stroke: #000000; stroke-width: 1.2"/>
    <path d="M 139.401019 110.851059 
L 91.623636 117.818868 
" clip-path="url(#p4f6c81d03d)" style="fill: none; stroke: #000000; stroke-width: 1.2"/>
    <path d="M 139.401019 110.851059 
L 121.577053 127.66631 
" clip-path="url(#p4f6c81d03d)" style="fill: none; stroke: #000000; stroke-width: 1.2"/>
    <path d="M 139.401019 110.851059 
L 105.921445 118.102027 
" clip-path="url(#p4f6c81d03d)" style="fill: none; stroke: #000000; stroke-width: 1.2"/>
    <path d="M 139.401019 110.851059 
L 75.933101 116.093398 
" clip-path="url(#p4f6c81d03d)" style="fill: none; stroke: #000000; stroke-width: 1.2"/>
    <path d="M 139.401019 110.851059 
L 107.578678 130.693379 
" clip-path="url(#p4f6c81d03d)" style="fill: none; stroke: #000000; stroke-width: 1.2"/>
    <path d="M 91.623636 117.818868 
L 121.577053 127.66631 
" clip-path="url(#p4f6c81d03d)" style="fill: none; stroke: #000000; stroke-width: 1.2"/>
    <path d="M 91.623636 117.818868 
L 58.936512 117.642291 
" clip-path="url(#p4f6c81d03d)" style="fill: none; stroke: #000000; stroke-width: 1.2"/>
    <path d="M 91.623636 117.818868 
L 78.488851 131.191346 
" clip-path="url(#p4f6c81d03d)" style="fill: none; stroke: #000000; stroke-width: 1.2"/>
    <path d="M 91.623636 117.818868 
L 62.00627 123.864193 
" clip-path="url(#p4f6c81d03d)" style="fill: none; stroke: #000000; stroke-width: 1.2"/>
    <path d="M 121.577053 127.66631 
L 135.258134 122.901309 
" clip-path="url(#p4f6c81d03d)" style="fill: none; stroke: #000000; stroke-width: 1.2"/>
    <path d="M 121.577053 127.66631 
L 107.578678 130.693379 
" clip-path="url(#p4f6c81d03d)" style="fill: none; stroke: #000000; stroke-width: 1.2"/>
    <path d="M 121.577053 127.66631 
L 62.00627 123.864193 
" clip-path="url(#p4f6c81d03d)" style="fill: none; stroke: #000000; stroke-width: 1.2"/>
    <path d="M 121.577053 127.66631 
L 138.888838 148.594824 
" clip-path="url(#p4f6c81d03d)" style="fill: none; stroke: #000000; stroke-width: 1.2"/>
    <path d="M 135.258134 122.901309 
L 105.921445 118.102027 
" clip-path="url(#p4f6c81d03d)" style="fill: none; stroke: #000000; stroke-width: 1.2"/>
    <path d="M 135.258134 122.901309 
L 107.578678 130.693379 
" clip-path="url(#p4f6c81d03d)" style="fill: none; stroke: #000000; stroke-width: 1.2"/>
    <path d="M 135.258134 122.901309 
L 78.488851 131.191346 
" clip-path="url(#p4f6c81d03d)" style="fill: none; stroke: #000000; stroke-width: 1.2"/>
    <path d="M 135.258134 122.901309 
L 138.888838 148.594824 
" clip-path="url(#p4f6c81d03d)" style="fill: none; stroke: #000000; stroke-width: 1.2"/>
    <path d="M 105.921445 118.102027 
L 75.933101 116.093398 
" clip-path="url(#p4f6c81d03d)" style="fill: none; stroke: #000000; stroke-width: 1.2"/>
    <path d="M 105.921445 118.102027 
L 78.488851 131.191346 
" clip-path="url(#p4f6c81d03d)" style="fill: none; stroke: #000000; stroke-width: 1.2"/>
    <path d="M 105.921445 118.102027 
L 62.00627 123.864193 
" clip-path="url(#p4f6c81d03d)" style="fill: none; stroke: #000000; stroke-width: 1.2"/>
    <path d="M 75.933101 116.093398 
L 58.936512 117.642291 
" clip-path="url(#p4f6c81d03d)" style="fill: none; stroke: #000000; stroke-width: 1.2"/>
    <path d="M 75.933101 116.093398 
L 107.578678 130.693379 
" clip-path="url(#p4f6c81d03d)" style="fill: none; stroke: #000000; stroke-width: 1.2"/>
    <path d="M 75.933101 116.093398 
L 62.00627 123.864193 
" clip-path="url(#p4f6c81d03d)" style="fill: none; stroke: #000000; stroke-width: 1.2"/>
    <path d="M 58.936512 117.642291 
L 107.578678 130.693379 
" clip-path="url(#p4f6c81d03d)" style="fill: none; stroke: #000000; stroke-width: 1.2"/>
    <path d="M 58.936512 117.642291 
L 78.488851 131.191346 
" clip-path="url(#p4f6c81d03d)" style="fill: none; stroke: #000000; stroke-width: 1.2"/>
    <path d="M 107.578678 130.693379 
L 78.488851 131.191346 
" clip-path="url(#p4f6c81d03d)" style="fill: none; stroke: #000000; stroke-width: 1.2"/>
    <path d="M 107.578678 130.693379 
L 138.888838 148.594824 
" clip-path="url(#p4f6c81d03d)" style="fill: none; stroke: #000000; stroke-width: 1.2"/>
    <path d="M 78.488851 131.191346 
L 62.00627 123.864193 
" clip-path="url(#p4f6c81d03d)" style="fill: none; stroke: #000000; stroke-width: 1.2"/>
    <path d="M 76.404002 226.137405 
L 115.60659 208.845603 
" clip-path="url(#p4f6c81d03d)" style="fill: none; stroke: #000000; stroke-width: 1.2"/>
    <path d="M 101.184831 236.584988 
L 115.60659 208.845603 
" clip-path="url(#p4f6c81d03d)" style="fill: none; stroke: #000000; stroke-width: 1.2"/>
    <path d="M 134.038107 237.076364 
L 115.60659 208.845603 
" clip-path="url(#p4f6c81d03d)" style="fill: none; stroke: #000000; stroke-width: 1.2"/>
    <path d="M 205.211949 217.649235 
L 194.483041 187.59492 
" clip-path="url(#p4f6c81d03d)" style="fill: none; stroke: #000000; stroke-width: 1.2"/>
    <path d="M 230.18876 200.970073 
L 194.483041 187.59492 
" clip-path="url(#p4f6c81d03d)" style="fill: none; stroke: #000000; stroke-width: 1.2"/>
    <path d="M 239.831405 180.60982 
L 194.483041 187.59492 
" clip-path="url(#p4f6c81d03d)" style="fill: none; stroke: #000000; stroke-width: 1.2"/>
    <path d="M 154.902288 200.918863 
L 145.556582 179.238382 
" clip-path="url(#p4f6c81d03d)" style="fill: none; stroke: #000000; stroke-width: 1.2"/>
    <path d="M 185.684706 144.110521 
L 138.888838 148.594824 
" clip-path="url(#p4f6c81d03d)" style="fill: none; stroke: #000000; stroke-width: 1.2"/>
    <path d="M 115.60659 208.845603 
L 145.556582 179.238382 
" clip-path="url(#p4f6c81d03d)" style="fill: none; stroke: #000000; stroke-width: 1.2"/>
    <path d="M 145.556582 179.238382 
L 194.483041 187.59492 
" clip-path="url(#p4f6c81d03d)" style="fill: none; stroke: #000000; stroke-width: 1.2"/>
    <path d="M 145.556582 179.238382 
L 138.888838 148.594824 
" clip-path="url(#p4f6c81d03d)" style="fill: none; stroke: #000000; stroke-width: 1.2"/>
   </g>
   <g id="PathCollection_1">
    <defs>
     <path id="C0_0_b0fb361fa4" d="M 0 8.944272 
C 2.372049 8.944272 4.647264 8.001847 6.324555 6.324555 
C 8.001847 4.647264 8.944272 2.372049 8.944272 -0 
C 8.944272 -2.372049 8.001847 -4.647264 6.324555 -6.324555 
C 4.647264 -8.001847 2.372049 -8.944272 0 -8.944272 
C -2.372049 -8.944272 -4.647264 -8.001847 -6.324555 -6.324555 
C -8.001847 -4.647264 -8.944272 -2.372049 -8.944272 0 
C -8.944272 2.372049 -8.001847 4.647264 -6.324555 6.324555 
C -4.647264 8.001847 -2.372049 8.944272 0 8.944272 
z
"/>
    </defs>
    <g clip-path="url(#p4f6c81d03d)">
     <use xlink:href="#C0_0_b0fb361fa4" x="86.063318" y="54.02247" style="fill: #4fd14f; stroke: #4fd14f; stroke-width: 0.5"/>
    </g>
    <g clip-path="url(#p4f6c81d03d)">
     <use xlink:href="#C0_0_b0fb361fa4" x="132.110899" y="58.170031" style="fill: #4fd14f; stroke: #4fd14f; stroke-width: 0.5"/>
    </g>
    <g clip-path="url(#p4f6c81d03d)">
     <use xlink:href="#C0_0_b0fb361fa4" x="115.20438" y="54.144141" style="fill: #4fd14f; stroke: #4fd14f; stroke-width: 0.5"/>
    </g>
    <g clip-path="url(#p4f6c81d03d)">
     <use xlink:href="#C0_0_b0fb361fa4" x="89.766548" y="66.325398" style="fill: #4fd14f; stroke: #4fd14f; stroke-width: 0.5"/>
    </g>
    <g clip-path="url(#p4f6c81d03d)">
     <use xlink:href="#C0_0_b0fb361fa4" x="137.014665" y="67.4542" style="fill: #4fd14f; stroke: #4fd14f; stroke-width: 0.5"/>
    </g>
    <g clip-path="url(#p4f6c81d03d)">
     <use xlink:href="#C0_0_b0fb361fa4" x="118.584195" y="63.448031" style="fill: #4fd14f; stroke: #4fd14f; stroke-width: 0.5"/>
    </g>
    <g clip-path="url(#p4f6c81d03d)">
     <use xlink:href="#C0_0_b0fb361fa4" x="100.410982" y="53.803636" style="fill: #4fd14f; stroke: #4fd14f; stroke-width: 0.5"/>
    </g>
    <g clip-path="url(#p4f6c81d03d)">
     <use xlink:href="#C0_0_b0fb361fa4" x="57.342677" y="64.148055" style="fill: #4fd14f; stroke: #4fd14f; stroke-width: 0.5"/>
    </g>
    <g clip-path="url(#p4f6c81d03d)">
     <use xlink:href="#C0_0_b0fb361fa4" x="74.691418" y="67.702371" style="fill: #4fd14f; stroke: #4fd14f; stroke-width: 0.5"/>
    </g>
    <g clip-path="url(#p4f6c81d03d)">
     <use xlink:href="#C0_0_b0fb361fa4" x="104.263021" y="68.982671" style="fill: #4fd14f; stroke: #4fd14f; stroke-width: 0.5"/>
    </g>
    <g clip-path="url(#p4f6c81d03d)">
     <use xlink:href="#C0_0_b0fb361fa4" x="55.368595" y="71.382603" style="fill: #4fd14f; stroke: #4fd14f; stroke-width: 0.5"/>
    </g>
    <g clip-path="url(#p4f6c81d03d)">
     <use xlink:href="#C0_0_b0fb361fa4" x="73.384878" y="58.590173" style="fill: #4fd14f; stroke: #4fd14f; stroke-width: 0.5"/>
    </g>
    <g clip-path="url(#p4f6c81d03d)">
     <use xlink:href="#C0_0_b0fb361fa4" x="118.766368" y="87.453571" style="fill: #4fd14f; stroke: #4fd14f; stroke-width: 0.5"/>
    </g>
    <g clip-path="url(#p4f6c81d03d)">
     <use xlink:href="#C0_0_b0fb361fa4" x="87.222686" y="84.235664" style="fill: #4fd14f; stroke: #4fd14f; stroke-width: 0.5"/>
    </g>
    <g clip-path="url(#p4f6c81d03d)">
     <use xlink:href="#C0_0_b0fb361fa4" x="132.378787" y="80.952228" style="fill: #4fd14f; stroke: #4fd14f; stroke-width: 0.5"/>
    </g>
    <g clip-path="url(#p4f6c81d03d)">
     <use xlink:href="#C0_0_b0fb361fa4" x="122.676935" y="92.988692" style="fill: #4fd14f; stroke: #4fd14f; stroke-width: 0.5"/>
    </g>
    <g clip-path="url(#p4f6c81d03d)">
     <use xlink:href="#C0_0_b0fb361fa4" x="90.571533" y="97.88519" style="fill: #4fd14f; stroke: #4fd14f; stroke-width: 0.5"/>
    </g>
    <g clip-path="url(#p4f6c81d03d)">
     <use xlink:href="#C0_0_b0fb361fa4" x="136.393314" y="96.907741" style="fill: #4fd14f; stroke: #4fd14f; stroke-width: 0.5"/>
    </g>
    <g clip-path="url(#p4f6c81d03d)">
     <use xlink:href="#C0_0_b0fb361fa4" x="73.880615" y="86.232622" style="fill: #4fd14f; stroke: #4fd14f; stroke-width: 0.5"/>
    </g>
    <g clip-path="url(#p4f6c81d03d)">
     <use xlink:href="#C0_0_b0fb361fa4" x="105.069374" y="90.296387" style="fill: #4fd14f; stroke: #4fd14f; stroke-width: 0.5"/>
    </g>
    <g clip-path="url(#p4f6c81d03d)">
     <use xlink:href="#C0_0_b0fb361fa4" x="58.590552" y="90.173657" style="fill: #4fd14f; stroke: #4fd14f; stroke-width: 0.5"/>
    </g>
    <g clip-path="url(#p4f6c81d03d)">
     <use xlink:href="#C0_0_b0fb361fa4" x="78.101277" y="101.498136" style="fill: #4fd14f; stroke: #4fd14f; stroke-width: 0.5"/>
    </g>
    <g clip-path="url(#p4f6c81d03d)">
     <use xlink:href="#C0_0_b0fb361fa4" x="105.63336" y="96.575727" style="fill: #4fd14f; stroke: #4fd14f; stroke-width: 0.5"/>
    </g>
    <g clip-path="url(#p4f6c81d03d)">
     <use xlink:href="#C0_0_b0fb361fa4" x="60.155426" y="96.477986" style="fill: #4fd14f; stroke: #4fd14f; stroke-width: 0.5"/>
    </g>
    <g clip-path="url(#p4f6c81d03d)">
     <use xlink:href="#C0_0_b0fb361fa4" x="90.39955" y="126.01641" style="fill: #4fd14f; stroke: #4fd14f; stroke-width: 0.5"/>
    </g>
    <g clip-path="url(#p4f6c81d03d)">
     <use xlink:href="#C0_0_b0fb361fa4" x="121.315472" y="110.3384" style="fill: #4fd14f; stroke: #4fd14f; stroke-width: 0.5"/>
    </g>
    <g clip-path="url(#p4f6c81d03d)">
     <use xlink:href="#C0_0_b0fb361fa4" x="139.401019" y="110.851059" style="fill: #4fd14f; stroke: #4fd14f; stroke-width: 0.5"/>
    </g>
    <g clip-path="url(#p4f6c81d03d)">
     <use xlink:href="#C0_0_b0fb361fa4" x="91.623636" y="117.818868" style="fill: #4fd14f; stroke: #4fd14f; stroke-width: 0.5"/>
    </g>
    <g clip-path="url(#p4f6c81d03d)">
     <use xlink:href="#C0_0_b0fb361fa4" x="121.577053" y="127.66631" style="fill: #4fd14f; stroke: #4fd14f; stroke-width: 0.5"/>
    </g>
    <g clip-path="url(#p4f6c81d03d)">
     <use xlink:href="#C0_0_b0fb361fa4" x="135.258134" y="122.901309" style="fill: #4fd14f; stroke: #4fd14f; stroke-width: 0.5"/>
    </g>
    <g clip-path="url(#p4f6c81d03d)">
     <use xlink:href="#C0_0_b0fb361fa4" x="105.921445" y="118.102027" style="fill: #4fd14f; stroke: #4fd14f; stroke-width: 0.5"/>
    </g>
    <g clip-path="url(#p4f6c81d03d)">
     <use xlink:href="#C0_0_b0fb361fa4" x="75.933101" y="116.093398" style="fill: #4fd14f; stroke: #4fd14f; stroke-width: 0.5"/>
    </g>
    <g clip-path="url(#p4f6c81d03d)">
     <use xlink:href="#C0_0_b0fb361fa4" x="58.936512" y="117.642291" style="fill: #4fd14f; stroke: #4fd14f; stroke-width: 0.5"/>
    </g>
    <g clip-path="url(#p4f6c81d03d)">
     <use xlink:href="#C0_0_b0fb361fa4" x="107.578678" y="130.693379" style="fill: #4fd14f; stroke: #4fd14f; stroke-width: 0.5"/>
    </g>
    <g clip-path="url(#p4f6c81d03d)">
     <use xlink:href="#C0_0_b0fb361fa4" x="78.488851" y="131.191346" style="fill: #4fd14f; stroke: #4fd14f; stroke-width: 0.5"/>
    </g>
    <g clip-path="url(#p4f6c81d03d)">
     <use xlink:href="#C0_0_b0fb361fa4" x="62.00627" y="123.864193" style="fill: #4fd14f; stroke: #4fd14f; stroke-width: 0.5"/>
    </g>
    <g clip-path="url(#p4f6c81d03d)">
     <use xlink:href="#C0_0_b0fb361fa4" x="76.404002" y="226.137405" style="fill: #bfbfbf; stroke: #bfbfbf; stroke-width: 0.5"/>
    </g>
    <g clip-path="url(#p4f6c81d03d)">
     <use xlink:href="#C0_0_b0fb361fa4" x="101.184831" y="236.584988" style="fill: #bfbfbf; stroke: #bfbfbf; stroke-width: 0.5"/>
    </g>
    <g clip-path="url(#p4f6c81d03d)">
     <use xlink:href="#C0_0_b0fb361fa4" x="134.038107" y="237.076364" style="fill: #bfbfbf; stroke: #bfbfbf; stroke-width: 0.5"/>
    </g>
    <g clip-path="url(#p4f6c81d03d)">
     <use xlink:href="#C0_0_b0fb361fa4" x="205.211949" y="217.649235" style="fill: #bfbfbf; stroke: #bfbfbf; stroke-width: 0.5"/>
    </g>
    <g clip-path="url(#p4f6c81d03d)">
     <use xlink:href="#C0_0_b0fb361fa4" x="230.18876" y="200.970073" style="fill: #bfbfbf; stroke: #bfbfbf; stroke-width: 0.5"/>
    </g>
    <g clip-path="url(#p4f6c81d03d)">
     <use xlink:href="#C0_0_b0fb361fa4" x="239.831405" y="180.60982" style="fill: #bfbfbf; stroke: #bfbfbf; stroke-width: 0.5"/>
    </g>
    <g clip-path="url(#p4f6c81d03d)">
     <use xlink:href="#C0_0_b0fb361fa4" x="154.902288" y="200.918863" style="fill: #bfbfbf; stroke: #bfbfbf; stroke-width: 0.5"/>
    </g>
    <g clip-path="url(#p4f6c81d03d)">
     <use xlink:href="#C0_0_b0fb361fa4" x="185.684706" y="144.110521" style="fill: #bfbfbf; stroke: #bfbfbf; stroke-width: 0.5"/>
    </g>
    <g clip-path="url(#p4f6c81d03d)">
     <use xlink:href="#C0_0_b0fb361fa4" x="115.60659" y="208.845603" style="fill: #666666; stroke: #666666; stroke-width: 0.5"/>
    </g>
    <g clip-path="url(#p4f6c81d03d)">
     <use xlink:href="#C0_0_b0fb361fa4" x="145.556582" y="179.238382" style="fill: #666666; stroke: #666666; stroke-width: 0.5"/>
    </g>
    <g clip-path="url(#p4f6c81d03d)">
     <use xlink:href="#C0_0_b0fb361fa4" x="194.483041" y="187.59492" style="fill: #666666; stroke: #666666; stroke-width: 0.5"/>
    </g>
    <g clip-path="url(#p4f6c81d03d)">
     <use xlink:href="#C0_0_b0fb361fa4" x="138.888838" y="148.594824" style="fill: #b2b200; stroke: #b2b200; stroke-width: 0.5"/>
    </g>
   </g>
   <g id="text_1">
    <!-- C3H8Ni48S -->
    <g transform="translate(117.828391 -0.075152) scale(0.1 -0.1)">
     <defs>
      <path id="DejaVuSans-43" d="M 4122 4306 
L 4122 3641 
Q 3803 3938 3442 4084 
Q 3081 4231 2675 4231 
Q 1875 4231 1450 3742 
Q 1025 3253 1025 2328 
Q 1025 1406 1450 917 
Q 1875 428 2675 428 
Q 3081 428 3442 575 
Q 3803 722 4122 1019 
L 4122 359 
Q 3791 134 3420 21 
Q 3050 -91 2638 -91 
Q 1578 -91 968 557 
Q 359 1206 359 2328 
Q 359 3453 968 4101 
Q 1578 4750 2638 4750 
Q 3056 4750 3426 4639 
Q 3797 4528 4122 4306 
z
" transform="scale(0.015625)"/>
      <path id="DejaVuSans-33" d="M 2597 2516 
Q 3050 2419 3304 2112 
Q 3559 1806 3559 1356 
Q 3559 666 3084 287 
Q 2609 -91 1734 -91 
Q 1441 -91 1130 -33 
Q 819 25 488 141 
L 488 750 
Q 750 597 1062 519 
Q 1375 441 1716 441 
Q 2309 441 2620 675 
Q 2931 909 2931 1356 
Q 2931 1769 2642 2001 
Q 2353 2234 1838 2234 
L 1294 2234 
L 1294 2753 
L 1863 2753 
Q 2328 2753 2575 2939 
Q 2822 3125 2822 3475 
Q 2822 3834 2567 4026 
Q 2313 4219 1838 4219 
Q 1578 4219 1281 4162 
Q 984 4106 628 3988 
L 628 4550 
Q 988 4650 1302 4700 
Q 1616 4750 1894 4750 
Q 2613 4750 3031 4423 
Q 3450 4097 3450 3541 
Q 3450 3153 3228 2886 
Q 3006 2619 2597 2516 
z
" transform="scale(0.015625)"/>
      <path id="DejaVuSans-48" d="M 628 4666 
L 1259 4666 
L 1259 2753 
L 3553 2753 
L 3553 4666 
L 4184 4666 
L 4184 0 
L 3553 0 
L 3553 2222 
L 1259 2222 
L 1259 0 
L 628 0 
L 628 4666 
z
" transform="scale(0.015625)"/>
      <path id="DejaVuSans-38" d="M 2034 2216 
Q 1584 2216 1326 1975 
Q 1069 1734 1069 1313 
Q 1069 891 1326 650 
Q 1584 409 2034 409 
Q 2484 409 2743 651 
Q 3003 894 3003 1313 
Q 3003 1734 2745 1975 
Q 2488 2216 2034 2216 
z
M 1403 2484 
Q 997 2584 770 2862 
Q 544 3141 544 3541 
Q 544 4100 942 4425 
Q 1341 4750 2034 4750 
Q 2731 4750 3128 4425 
Q 3525 4100 3525 3541 
Q 3525 3141 3298 2862 
Q 3072 2584 2669 2484 
Q 3125 2378 3379 2068 
Q 3634 1759 3634 1313 
Q 3634 634 3220 271 
Q 2806 -91 2034 -91 
Q 1263 -91 848 271 
Q 434 634 434 1313 
Q 434 1759 690 2068 
Q 947 2378 1403 2484 
z
M 1172 3481 
Q 1172 3119 1398 2916 
Q 1625 2713 2034 2713 
Q 2441 2713 2670 2916 
Q 2900 3119 2900 3481 
Q 2900 3844 2670 4047 
Q 2441 4250 2034 4250 
Q 1625 4250 1398 4047 
Q 1172 3844 1172 3481 
z
" transform="scale(0.015625)"/>
      <path id="DejaVuSans-4e" d="M 628 4666 
L 1478 4666 
L 3547 763 
L 3547 4666 
L 4159 4666 
L 4159 0 
L 3309 0 
L 1241 3903 
L 1241 0 
L 628 0 
L 628 4666 
z
" transform="scale(0.015625)"/>
      <path id="DejaVuSans-69" d="M 603 3500 
L 1178 3500 
L 1178 0 
L 603 0 
L 603 3500 
z
M 603 4863 
L 1178 4863 
L 1178 4134 
L 603 4134 
L 603 4863 
z
" transform="scale(0.015625)"/>
      <path id="DejaVuSans-34" d="M 2419 4116 
L 825 1625 
L 2419 1625 
L 2419 4116 
z
M 2253 4666 
L 3047 4666 
L 3047 1625 
L 3713 1625 
L 3713 1100 
L 3047 1100 
L 3047 0 
L 2419 0 
L 2419 1100 
L 313 1100 
L 313 1709 
L 2253 4666 
z
" transform="scale(0.015625)"/>
      <path id="DejaVuSans-53" d="M 3425 4513 
L 3425 3897 
Q 3066 4069 2747 4153 
Q 2428 4238 2131 4238 
Q 1616 4238 1336 4038 
Q 1056 3838 1056 3469 
Q 1056 3159 1242 3001 
Q 1428 2844 1947 2747 
L 2328 2669 
Q 3034 2534 3370 2195 
Q 3706 1856 3706 1288 
Q 3706 609 3251 259 
Q 2797 -91 1919 -91 
Q 1588 -91 1214 -16 
Q 841 59 441 206 
L 441 856 
Q 825 641 1194 531 
Q 1563 422 1919 422 
Q 2459 422 2753 634 
Q 3047 847 3047 1241 
Q 3047 1584 2836 1778 
Q 2625 1972 2144 2069 
L 1759 2144 
Q 1053 2284 737 2584 
Q 422 2884 422 3419 
Q 422 4038 858 4394 
Q 1294 4750 2059 4750 
Q 2388 4750 2728 4690 
Q 3069 4631 3425 4513 
z
" transform="scale(0.015625)"/>
     </defs>
     <use xlink:href="#DejaVuSans-43"/>
     <use xlink:href="#DejaVuSans-33" transform="translate(69.824219 0)"/>
     <use xlink:href="#DejaVuSans-48" transform="translate(133.447266 0)"/>
     <use xlink:href="#DejaVuSans-38" transform="translate(208.642578 0)"/>
     <use xlink:href="#DejaVuSans-4e" transform="translate(272.265625 0)"/>
     <use xlink:href="#DejaVuSans-69" transform="translate(347.070312 0)"/>
     <use xlink:href="#DejaVuSans-34" transform="translate(374.853516 0)"/>
     <use xlink:href="#DejaVuSans-38" transform="translate(438.476562 0)"/>
     <use xlink:href="#DejaVuSans-53" transform="translate(502.099609 0)"/>
    </g>
    <!-- Error: -8.71 eV -->
    <g transform="translate(117.828391 11.12266) scale(0.1 -0.1)">
     <defs>
      <path id="DejaVuSans-45" d="M 628 4666 
L 3578 4666 
L 3578 4134 
L 1259 4134 
L 1259 2753 
L 3481 2753 
L 3481 2222 
L 1259 2222 
L 1259 531 
L 3634 531 
L 3634 0 
L 628 0 
L 628 4666 
z
" transform="scale(0.015625)"/>
      <path id="DejaVuSans-72" d="M 2631 2963 
Q 2534 3019 2420 3045 
Q 2306 3072 2169 3072 
Q 1681 3072 1420 2755 
Q 1159 2438 1159 1844 
L 1159 0 
L 581 0 
L 581 3500 
L 1159 3500 
L 1159 2956 
Q 1341 3275 1631 3429 
Q 1922 3584 2338 3584 
Q 2397 3584 2469 3576 
Q 2541 3569 2628 3553 
L 2631 2963 
z
" transform="scale(0.015625)"/>
      <path id="DejaVuSans-6f" d="M 1959 3097 
Q 1497 3097 1228 2736 
Q 959 2375 959 1747 
Q 959 1119 1226 758 
Q 1494 397 1959 397 
Q 2419 397 2687 759 
Q 2956 1122 2956 1747 
Q 2956 2369 2687 2733 
Q 2419 3097 1959 3097 
z
M 1959 3584 
Q 2709 3584 3137 3096 
Q 3566 2609 3566 1747 
Q 3566 888 3137 398 
Q 2709 -91 1959 -91 
Q 1206 -91 779 398 
Q 353 888 353 1747 
Q 353 2609 779 3096 
Q 1206 3584 1959 3584 
z
" transform="scale(0.015625)"/>
      <path id="DejaVuSans-3a" d="M 750 794 
L 1409 794 
L 1409 0 
L 750 0 
L 750 794 
z
M 750 3309 
L 1409 3309 
L 1409 2516 
L 750 2516 
L 750 3309 
z
" transform="scale(0.015625)"/>
      <path id="DejaVuSans-20" transform="scale(0.015625)"/>
      <path id="DejaVuSans-2d" d="M 313 2009 
L 1997 2009 
L 1997 1497 
L 313 1497 
L 313 2009 
z
" transform="scale(0.015625)"/>
      <path id="DejaVuSans-2e" d="M 684 794 
L 1344 794 
L 1344 0 
L 684 0 
L 684 794 
z
" transform="scale(0.015625)"/>
      <path id="DejaVuSans-37" d="M 525 4666 
L 3525 4666 
L 3525 4397 
L 1831 0 
L 1172 0 
L 2766 4134 
L 525 4134 
L 525 4666 
z
" transform="scale(0.015625)"/>
      <path id="DejaVuSans-31" d="M 794 531 
L 1825 531 
L 1825 4091 
L 703 3866 
L 703 4441 
L 1819 4666 
L 2450 4666 
L 2450 531 
L 3481 531 
L 3481 0 
L 794 0 
L 794 531 
z
" transform="scale(0.015625)"/>
      <path id="DejaVuSans-65" d="M 3597 1894 
L 3597 1613 
L 953 1613 
Q 991 1019 1311 708 
Q 1631 397 2203 397 
Q 2534 397 2845 478 
Q 3156 559 3463 722 
L 3463 178 
Q 3153 47 2828 -22 
Q 2503 -91 2169 -91 
Q 1331 -91 842 396 
Q 353 884 353 1716 
Q 353 2575 817 3079 
Q 1281 3584 2069 3584 
Q 2775 3584 3186 3129 
Q 3597 2675 3597 1894 
z
M 3022 2063 
Q 3016 2534 2758 2815 
Q 2500 3097 2075 3097 
Q 1594 3097 1305 2825 
Q 1016 2553 972 2059 
L 3022 2063 
z
" transform="scale(0.015625)"/>
      <path id="DejaVuSans-56" d="M 1831 0 
L 50 4666 
L 709 4666 
L 2188 738 
L 3669 4666 
L 4325 4666 
L 2547 0 
L 1831 0 
z
" transform="scale(0.015625)"/>
     </defs>
     <use xlink:href="#DejaVuSans-45"/>
     <use xlink:href="#DejaVuSans-72" transform="translate(63.183594 0)"/>
     <use xlink:href="#DejaVuSans-72" transform="translate(102.546875 0)"/>
     <use xlink:href="#DejaVuSans-6f" transform="translate(141.410156 0)"/>
     <use xlink:href="#DejaVuSans-72" transform="translate(202.591797 0)"/>
     <use xlink:href="#DejaVuSans-3a" transform="translate(241.955078 0)"/>
     <use xlink:href="#DejaVuSans-20" transform="translate(275.646484 0)"/>
     <use xlink:href="#DejaVuSans-2d" transform="translate(307.433594 0)"/>
     <use xlink:href="#DejaVuSans-38" transform="translate(343.517578 0)"/>
     <use xlink:href="#DejaVuSans-2e" transform="translate(407.140625 0)"/>
     <use xlink:href="#DejaVuSans-37" transform="translate(438.927734 0)"/>
     <use xlink:href="#DejaVuSans-31" transform="translate(502.550781 0)"/>
     <use xlink:href="#DejaVuSans-20" transform="translate(566.173828 0)"/>
     <use xlink:href="#DejaVuSans-65" transform="translate(597.960938 0)"/>
     <use xlink:href="#DejaVuSans-56" transform="translate(659.484375 0)"/>
    </g>
   </g>
  </g>
 </g>
 <defs>
  <clipPath id="p4f6c81d03d">
   <rect x="36" y="34.56" width="223.2" height="221.76"/>
  </clipPath>
 </defs>
</svg>
