<?xml version="1.0" encoding="utf-8" standalone="no"?>
<!DOCTYPE svg PUBLIC "-//W3C//DTD SVG 1.1//EN"
  "http://www.w3.org/Graphics/SVG/1.1/DTD/svg11.dtd">
<svg xmlns:xlink="http://www.w3.org/1999/xlink" width="288pt" height="288pt" viewBox="0 0 288 288" xmlns="http://www.w3.org/2000/svg" version="1.1">
 <metadata>
  <rdf:RDF xmlns:dc="http://purl.org/dc/elements/1.1/" xmlns:cc="http://creativecommons.org/ns#" xmlns:rdf="http://www.w3.org/1999/02/22-rdf-syntax-ns#">
   <cc:Work>
    <dc:type rdf:resource="http://purl.org/dc/dcmitype/StillImage"/>
    <dc:date>2025-06-30T11:56:49.494745</dc:date>
    <dc:format>image/svg+xml</dc:format>
    <dc:creator>
     <cc:Agent>
      <dc:title>Matplotlib v3.10.1, https://matplotlib.org/</dc:title>
     </cc:Agent>
    </dc:creator>
   </cc:Work>
  </rdf:RDF>
 </metadata>
 <defs>
  <style type="text/css">*{stroke-linejoin: round; stroke-linecap: butt}</style>
 </defs>
 <g id="figure_1">
  <g id="patch_1">
   <path d="M 0 288 
L 288 288 
L 288 0 
L 0 0 
z
" style="fill: #ffffff"/>
  </g>
  <g id="axes_1">
   <g id="LineCollection_1">
    <path d="M 73.081992 72.137041 
L 56.604878 90.848506 
" clip-path="url(#p487f30ff05)" style="fill: none; stroke: #000000; stroke-width: 1.2"/>
    <path d="M 73.081992 72.137041 
L 124.483622 66.156382 
" clip-path="url(#p487f30ff05)" style="fill: none; stroke: #000000; stroke-width: 1.2"/>
    <path d="M 73.081992 72.137041 
L 116.928516 88.403324 
" clip-path="url(#p487f30ff05)" style="fill: none; stroke: #000000; stroke-width: 1.2"/>
    <path d="M 73.081992 72.137041 
L 112.47297 53.803636 
" clip-path="url(#p487f30ff05)" style="fill: none; stroke: #000000; stroke-width: 1.2"/>
    <path d="M 73.081992 72.137041 
L 109.262051 74.765479 
" clip-path="url(#p487f30ff05)" style="fill: none; stroke: #000000; stroke-width: 1.2"/>
    <path d="M 73.081992 72.137041 
L 108.069959 122.445678 
" clip-path="url(#p487f30ff05)" style="fill: none; stroke: #000000; stroke-width: 1.2"/>
    <path d="M 73.081992 72.137041 
L 68.795654 106.410105 
" clip-path="url(#p487f30ff05)" style="fill: none; stroke: #000000; stroke-width: 1.2"/>
    <path d="M 73.081992 72.137041 
L 77.94617 126.13207 
" clip-path="url(#p487f30ff05)" style="fill: none; stroke: #000000; stroke-width: 1.2"/>
    <path d="M 56.604878 90.848506 
L 116.928516 88.403324 
" clip-path="url(#p487f30ff05)" style="fill: none; stroke: #000000; stroke-width: 1.2"/>
    <path d="M 56.604878 90.848506 
L 93.040247 79.625715 
" clip-path="url(#p487f30ff05)" style="fill: none; stroke: #000000; stroke-width: 1.2"/>
    <path d="M 56.604878 90.848506 
L 109.262051 74.765479 
" clip-path="url(#p487f30ff05)" style="fill: none; stroke: #000000; stroke-width: 1.2"/>
    <path d="M 56.604878 90.848506 
L 87.530413 69.009444 
" clip-path="url(#p487f30ff05)" style="fill: none; stroke: #000000; stroke-width: 1.2"/>
    <path d="M 56.604878 90.848506 
L 87.40511 140.350201 
" clip-path="url(#p487f30ff05)" style="fill: none; stroke: #000000; stroke-width: 1.2"/>
    <path d="M 56.604878 90.848506 
L 77.94617 126.13207 
" clip-path="url(#p487f30ff05)" style="fill: none; stroke: #000000; stroke-width: 1.2"/>
    <path d="M 56.604878 90.848506 
L 56.357906 126.484012 
" clip-path="url(#p487f30ff05)" style="fill: none; stroke: #000000; stroke-width: 1.2"/>
    <path d="M 124.483622 66.156382 
L 116.928516 88.403324 
" clip-path="url(#p487f30ff05)" style="fill: none; stroke: #000000; stroke-width: 1.2"/>
    <path d="M 124.483622 66.156382 
L 93.040247 79.625715 
" clip-path="url(#p487f30ff05)" style="fill: none; stroke: #000000; stroke-width: 1.2"/>
    <path d="M 124.483622 66.156382 
L 143.414517 64.522635 
" clip-path="url(#p487f30ff05)" style="fill: none; stroke: #000000; stroke-width: 1.2"/>
    <path d="M 124.483622 66.156382 
L 163.593225 78.209621 
" clip-path="url(#p487f30ff05)" style="fill: none; stroke: #000000; stroke-width: 1.2"/>
    <path d="M 124.483622 66.156382 
L 89.20656 116.408438 
" clip-path="url(#p487f30ff05)" style="fill: none; stroke: #000000; stroke-width: 1.2"/>
    <path d="M 124.483622 66.156382 
L 108.069959 122.445678 
" clip-path="url(#p487f30ff05)" style="fill: none; stroke: #000000; stroke-width: 1.2"/>
    <path d="M 124.483622 66.156382 
L 157.015331 111.190131 
" clip-path="url(#p487f30ff05)" style="fill: none; stroke: #000000; stroke-width: 1.2"/>
    <path d="M 116.928516 88.403324 
L 93.040247 79.625715 
" clip-path="url(#p487f30ff05)" style="fill: none; stroke: #000000; stroke-width: 1.2"/>
    <path d="M 116.928516 88.403324 
L 163.593225 78.209621 
" clip-path="url(#p487f30ff05)" style="fill: none; stroke: #000000; stroke-width: 1.2"/>
    <path d="M 116.928516 88.403324 
L 146.977658 85.506171 
" clip-path="url(#p487f30ff05)" style="fill: none; stroke: #000000; stroke-width: 1.2"/>
    <path d="M 116.928516 88.403324 
L 108.069959 122.445678 
" clip-path="url(#p487f30ff05)" style="fill: none; stroke: #000000; stroke-width: 1.2"/>
    <path d="M 116.928516 88.403324 
L 87.40511 140.350201 
" clip-path="url(#p487f30ff05)" style="fill: none; stroke: #000000; stroke-width: 1.2"/>
    <path d="M 116.928516 88.403324 
L 153.607321 132.167172 
" clip-path="url(#p487f30ff05)" style="fill: none; stroke: #000000; stroke-width: 1.2"/>
    <path d="M 93.040247 79.625715 
L 143.414517 64.522635 
" clip-path="url(#p487f30ff05)" style="fill: none; stroke: #000000; stroke-width: 1.2"/>
    <path d="M 93.040247 79.625715 
L 146.977658 85.506171 
" clip-path="url(#p487f30ff05)" style="fill: none; stroke: #000000; stroke-width: 1.2"/>
    <path d="M 93.040247 79.625715 
L 89.20656 116.408438 
" clip-path="url(#p487f30ff05)" style="fill: none; stroke: #000000; stroke-width: 1.2"/>
    <path d="M 93.040247 79.625715 
L 87.40511 140.350201 
" clip-path="url(#p487f30ff05)" style="fill: none; stroke: #000000; stroke-width: 1.2"/>
    <path d="M 93.040247 79.625715 
L 135.431319 123.278013 
" clip-path="url(#p487f30ff05)" style="fill: none; stroke: #000000; stroke-width: 1.2"/>
    <path d="M 143.414517 64.522635 
L 163.593225 78.209621 
" clip-path="url(#p487f30ff05)" style="fill: none; stroke: #000000; stroke-width: 1.2"/>
    <path d="M 143.414517 64.522635 
L 146.977658 85.506171 
" clip-path="url(#p487f30ff05)" style="fill: none; stroke: #000000; stroke-width: 1.2"/>
    <path d="M 143.414517 64.522635 
L 112.47297 53.803636 
" clip-path="url(#p487f30ff05)" style="fill: none; stroke: #000000; stroke-width: 1.2"/>
    <path d="M 143.414517 64.522635 
L 87.530413 69.009444 
" clip-path="url(#p487f30ff05)" style="fill: none; stroke: #000000; stroke-width: 1.2"/>
    <path d="M 143.414517 64.522635 
L 157.015331 111.190131 
" clip-path="url(#p487f30ff05)" style="fill: none; stroke: #000000; stroke-width: 1.2"/>
    <path d="M 143.414517 64.522635 
L 135.431319 123.278013 
" clip-path="url(#p487f30ff05)" style="fill: none; stroke: #000000; stroke-width: 1.2"/>
    <path d="M 143.414517 64.522635 
L 108.201825 102.59489 
" clip-path="url(#p487f30ff05)" style="fill: none; stroke: #000000; stroke-width: 1.2"/>
    <path d="M 163.593225 78.209621 
L 146.977658 85.506171 
" clip-path="url(#p487f30ff05)" style="fill: none; stroke: #000000; stroke-width: 1.2"/>
    <path d="M 163.593225 78.209621 
L 112.47297 53.803636 
" clip-path="url(#p487f30ff05)" style="fill: none; stroke: #000000; stroke-width: 1.2"/>
    <path d="M 163.593225 78.209621 
L 109.262051 74.765479 
" clip-path="url(#p487f30ff05)" style="fill: none; stroke: #000000; stroke-width: 1.2"/>
    <path d="M 163.593225 78.209621 
L 157.015331 111.190131 
" clip-path="url(#p487f30ff05)" style="fill: none; stroke: #000000; stroke-width: 1.2"/>
    <path d="M 163.593225 78.209621 
L 153.607321 132.167172 
" clip-path="url(#p487f30ff05)" style="fill: none; stroke: #000000; stroke-width: 1.2"/>
    <path d="M 163.593225 78.209621 
L 134.851379 109.685312 
" clip-path="url(#p487f30ff05)" style="fill: none; stroke: #000000; stroke-width: 1.2"/>
    <path d="M 146.977658 85.506171 
L 109.262051 74.765479 
" clip-path="url(#p487f30ff05)" style="fill: none; stroke: #000000; stroke-width: 1.2"/>
    <path d="M 146.977658 85.506171 
L 87.530413 69.009444 
" clip-path="url(#p487f30ff05)" style="fill: none; stroke: #000000; stroke-width: 1.2"/>
    <path d="M 146.977658 85.506171 
L 153.607321 132.167172 
" clip-path="url(#p487f30ff05)" style="fill: none; stroke: #000000; stroke-width: 1.2"/>
    <path d="M 146.977658 85.506171 
L 135.431319 123.278013 
" clip-path="url(#p487f30ff05)" style="fill: none; stroke: #000000; stroke-width: 1.2"/>
    <path d="M 146.977658 85.506171 
L 117.479304 129.917515 
" clip-path="url(#p487f30ff05)" style="fill: none; stroke: #000000; stroke-width: 1.2"/>
    <path d="M 112.47297 53.803636 
L 109.262051 74.765479 
" clip-path="url(#p487f30ff05)" style="fill: none; stroke: #000000; stroke-width: 1.2"/>
    <path d="M 112.47297 53.803636 
L 87.530413 69.009444 
" clip-path="url(#p487f30ff05)" style="fill: none; stroke: #000000; stroke-width: 1.2"/>
    <path d="M 112.47297 53.803636 
L 108.201825 102.59489 
" clip-path="url(#p487f30ff05)" style="fill: none; stroke: #000000; stroke-width: 1.2"/>
    <path d="M 112.47297 53.803636 
L 134.851379 109.685312 
" clip-path="url(#p487f30ff05)" style="fill: none; stroke: #000000; stroke-width: 1.2"/>
    <path d="M 112.47297 53.803636 
L 68.795654 106.410105 
" clip-path="url(#p487f30ff05)" style="fill: none; stroke: #000000; stroke-width: 1.2"/>
    <path d="M 109.262051 74.765479 
L 87.530413 69.009444 
" clip-path="url(#p487f30ff05)" style="fill: none; stroke: #000000; stroke-width: 1.2"/>
    <path d="M 109.262051 74.765479 
L 134.851379 109.685312 
" clip-path="url(#p487f30ff05)" style="fill: none; stroke: #000000; stroke-width: 1.2"/>
    <path d="M 109.262051 74.765479 
L 117.479304 129.917515 
" clip-path="url(#p487f30ff05)" style="fill: none; stroke: #000000; stroke-width: 1.2"/>
    <path d="M 109.262051 74.765479 
L 77.94617 126.13207 
" clip-path="url(#p487f30ff05)" style="fill: none; stroke: #000000; stroke-width: 1.2"/>
    <path d="M 87.530413 69.009444 
L 108.201825 102.59489 
" clip-path="url(#p487f30ff05)" style="fill: none; stroke: #000000; stroke-width: 1.2"/>
    <path d="M 87.530413 69.009444 
L 117.479304 129.917515 
" clip-path="url(#p487f30ff05)" style="fill: none; stroke: #000000; stroke-width: 1.2"/>
    <path d="M 87.530413 69.009444 
L 56.357906 126.484012 
" clip-path="url(#p487f30ff05)" style="fill: none; stroke: #000000; stroke-width: 1.2"/>
    <path d="M 89.20656 116.408438 
L 108.069959 122.445678 
" clip-path="url(#p487f30ff05)" style="fill: none; stroke: #000000; stroke-width: 1.2"/>
    <path d="M 89.20656 116.408438 
L 87.40511 140.350201 
" clip-path="url(#p487f30ff05)" style="fill: none; stroke: #000000; stroke-width: 1.2"/>
    <path d="M 89.20656 116.408438 
L 157.015331 111.190131 
" clip-path="url(#p487f30ff05)" style="fill: none; stroke: #000000; stroke-width: 1.2"/>
    <path d="M 89.20656 116.408438 
L 135.431319 123.278013 
" clip-path="url(#p487f30ff05)" style="fill: none; stroke: #000000; stroke-width: 1.2"/>
    <path d="M 89.20656 116.408438 
L 68.795654 106.410105 
" clip-path="url(#p487f30ff05)" style="fill: none; stroke: #000000; stroke-width: 1.2"/>
    <path d="M 89.20656 116.408438 
L 56.357906 126.484012 
" clip-path="url(#p487f30ff05)" style="fill: none; stroke: #000000; stroke-width: 1.2"/>
    <path d="M 89.20656 116.408438 
L 55.368595 154.241765 
" clip-path="url(#p487f30ff05)" style="fill: none; stroke: #000000; stroke-width: 1.2"/>
    <path d="M 89.20656 116.408438 
L 117.46466 160.810943 
" clip-path="url(#p487f30ff05)" style="fill: none; stroke: #000000; stroke-width: 1.2"/>
    <path d="M 89.20656 116.408438 
L 94.753883 179.470374 
" clip-path="url(#p487f30ff05)" style="fill: none; stroke: #000000; stroke-width: 1.2"/>
    <path d="M 108.069959 122.445678 
L 87.40511 140.350201 
" clip-path="url(#p487f30ff05)" style="fill: none; stroke: #000000; stroke-width: 1.2"/>
    <path d="M 108.069959 122.445678 
L 157.015331 111.190131 
" clip-path="url(#p487f30ff05)" style="fill: none; stroke: #000000; stroke-width: 1.2"/>
    <path d="M 108.069959 122.445678 
L 153.607321 132.167172 
" clip-path="url(#p487f30ff05)" style="fill: none; stroke: #000000; stroke-width: 1.2"/>
    <path d="M 108.069959 122.445678 
L 68.795654 106.410105 
" clip-path="url(#p487f30ff05)" style="fill: none; stroke: #000000; stroke-width: 1.2"/>
    <path d="M 108.069959 122.445678 
L 77.94617 126.13207 
" clip-path="url(#p487f30ff05)" style="fill: none; stroke: #000000; stroke-width: 1.2"/>
    <path d="M 108.069959 122.445678 
L 77.913276 164.811157 
" clip-path="url(#p487f30ff05)" style="fill: none; stroke: #000000; stroke-width: 1.2"/>
    <path d="M 108.069959 122.445678 
L 117.46466 160.810943 
" clip-path="url(#p487f30ff05)" style="fill: none; stroke: #000000; stroke-width: 1.2"/>
    <path d="M 108.069959 122.445678 
L 115.261602 186.111266 
" clip-path="url(#p487f30ff05)" style="fill: none; stroke: #000000; stroke-width: 1.2"/>
    <path d="M 87.40511 140.350201 
L 153.607321 132.167172 
" clip-path="url(#p487f30ff05)" style="fill: none; stroke: #000000; stroke-width: 1.2"/>
    <path d="M 87.40511 140.350201 
L 135.431319 123.278013 
" clip-path="url(#p487f30ff05)" style="fill: none; stroke: #000000; stroke-width: 1.2"/>
    <path d="M 87.40511 140.350201 
L 77.94617 126.13207 
" clip-path="url(#p487f30ff05)" style="fill: none; stroke: #000000; stroke-width: 1.2"/>
    <path d="M 87.40511 140.350201 
L 56.357906 126.484012 
" clip-path="url(#p487f30ff05)" style="fill: none; stroke: #000000; stroke-width: 1.2"/>
    <path d="M 87.40511 140.350201 
L 68.590418 179.493681 
" clip-path="url(#p487f30ff05)" style="fill: none; stroke: #000000; stroke-width: 1.2"/>
    <path d="M 87.40511 140.350201 
L 115.261602 186.111266 
" clip-path="url(#p487f30ff05)" style="fill: none; stroke: #000000; stroke-width: 1.2"/>
    <path d="M 87.40511 140.350201 
L 94.753883 179.470374 
" clip-path="url(#p487f30ff05)" style="fill: none; stroke: #000000; stroke-width: 1.2"/>
    <path d="M 157.015331 111.190131 
L 153.607321 132.167172 
" clip-path="url(#p487f30ff05)" style="fill: none; stroke: #000000; stroke-width: 1.2"/>
    <path d="M 157.015331 111.190131 
L 135.431319 123.278013 
" clip-path="url(#p487f30ff05)" style="fill: none; stroke: #000000; stroke-width: 1.2"/>
    <path d="M 157.015331 111.190131 
L 108.201825 102.59489 
" clip-path="url(#p487f30ff05)" style="fill: none; stroke: #000000; stroke-width: 1.2"/>
    <path d="M 157.015331 111.190131 
L 134.851379 109.685312 
" clip-path="url(#p487f30ff05)" style="fill: none; stroke: #000000; stroke-width: 1.2"/>
    <path d="M 157.015331 111.190131 
L 117.46466 160.810943 
" clip-path="url(#p487f30ff05)" style="fill: none; stroke: #000000; stroke-width: 1.2"/>
    <path d="M 157.015331 111.190131 
L 145.801134 150.257646 
" clip-path="url(#p487f30ff05)" style="fill: none; stroke: #000000; stroke-width: 1.2"/>
    <path d="M 157.015331 111.190131 
L 162.041159 160.660823 
" clip-path="url(#p487f30ff05)" style="fill: none; stroke: #000000; stroke-width: 1.2"/>
    <path d="M 153.607321 132.167172 
L 135.431319 123.278013 
" clip-path="url(#p487f30ff05)" style="fill: none; stroke: #000000; stroke-width: 1.2"/>
    <path d="M 153.607321 132.167172 
L 134.851379 109.685312 
" clip-path="url(#p487f30ff05)" style="fill: none; stroke: #000000; stroke-width: 1.2"/>
    <path d="M 153.607321 132.167172 
L 117.479304 129.917515 
" clip-path="url(#p487f30ff05)" style="fill: none; stroke: #000000; stroke-width: 1.2"/>
    <path d="M 153.607321 132.167172 
L 115.261602 186.111266 
" clip-path="url(#p487f30ff05)" style="fill: none; stroke: #000000; stroke-width: 1.2"/>
    <path d="M 153.607321 132.167172 
L 162.041159 160.660823 
" clip-path="url(#p487f30ff05)" style="fill: none; stroke: #000000; stroke-width: 1.2"/>
    <path d="M 153.607321 132.167172 
L 143.788263 178.992507 
" clip-path="url(#p487f30ff05)" style="fill: none; stroke: #000000; stroke-width: 1.2"/>
    <path d="M 135.431319 123.278013 
L 108.201825 102.59489 
" clip-path="url(#p487f30ff05)" style="fill: none; stroke: #000000; stroke-width: 1.2"/>
    <path d="M 135.431319 123.278013 
L 117.479304 129.917515 
" clip-path="url(#p487f30ff05)" style="fill: none; stroke: #000000; stroke-width: 1.2"/>
    <path d="M 135.431319 123.278013 
L 94.753883 179.470374 
" clip-path="url(#p487f30ff05)" style="fill: none; stroke: #000000; stroke-width: 1.2"/>
    <path d="M 135.431319 123.278013 
L 145.801134 150.257646 
" clip-path="url(#p487f30ff05)" style="fill: none; stroke: #000000; stroke-width: 1.2"/>
    <path d="M 135.431319 123.278013 
L 143.788263 178.992507 
" clip-path="url(#p487f30ff05)" style="fill: none; stroke: #000000; stroke-width: 1.2"/>
    <path d="M 108.201825 102.59489 
L 134.851379 109.685312 
" clip-path="url(#p487f30ff05)" style="fill: none; stroke: #000000; stroke-width: 1.2"/>
    <path d="M 108.201825 102.59489 
L 117.479304 129.917515 
" clip-path="url(#p487f30ff05)" style="fill: none; stroke: #000000; stroke-width: 1.2"/>
    <path d="M 108.201825 102.59489 
L 68.795654 106.410105 
" clip-path="url(#p487f30ff05)" style="fill: none; stroke: #000000; stroke-width: 1.2"/>
    <path d="M 108.201825 102.59489 
L 56.357906 126.484012 
" clip-path="url(#p487f30ff05)" style="fill: none; stroke: #000000; stroke-width: 1.2"/>
    <path d="M 108.201825 102.59489 
L 145.801134 150.257646 
" clip-path="url(#p487f30ff05)" style="fill: none; stroke: #000000; stroke-width: 1.2"/>
    <path d="M 108.201825 102.59489 
L 106.432853 147.816208 
" clip-path="url(#p487f30ff05)" style="fill: none; stroke: #000000; stroke-width: 1.2"/>
    <path d="M 108.201825 102.59489 
L 95.763132 167.538301 
" clip-path="url(#p487f30ff05)" style="fill: none; stroke: #000000; stroke-width: 1.2"/>
    <path d="M 134.851379 109.685312 
L 117.479304 129.917515 
" clip-path="url(#p487f30ff05)" style="fill: none; stroke: #000000; stroke-width: 1.2"/>
    <path d="M 134.851379 109.685312 
L 68.795654 106.410105 
" clip-path="url(#p487f30ff05)" style="fill: none; stroke: #000000; stroke-width: 1.2"/>
    <path d="M 134.851379 109.685312 
L 77.94617 126.13207 
" clip-path="url(#p487f30ff05)" style="fill: none; stroke: #000000; stroke-width: 1.2"/>
    <path d="M 134.851379 109.685312 
L 162.041159 160.660823 
" clip-path="url(#p487f30ff05)" style="fill: none; stroke: #000000; stroke-width: 1.2"/>
    <path d="M 134.851379 109.685312 
L 106.432853 147.816208 
" clip-path="url(#p487f30ff05)" style="fill: none; stroke: #000000; stroke-width: 1.2"/>
    <path d="M 134.851379 109.685312 
L 130.817267 167.262492 
" clip-path="url(#p487f30ff05)" style="fill: none; stroke: #000000; stroke-width: 1.2"/>
    <path d="M 117.479304 129.917515 
L 77.94617 126.13207 
" clip-path="url(#p487f30ff05)" style="fill: none; stroke: #000000; stroke-width: 1.2"/>
    <path d="M 117.479304 129.917515 
L 56.357906 126.484012 
" clip-path="url(#p487f30ff05)" style="fill: none; stroke: #000000; stroke-width: 1.2"/>
    <path d="M 117.479304 129.917515 
L 143.788263 178.992507 
" clip-path="url(#p487f30ff05)" style="fill: none; stroke: #000000; stroke-width: 1.2"/>
    <path d="M 117.479304 129.917515 
L 130.817267 167.262492 
" clip-path="url(#p487f30ff05)" style="fill: none; stroke: #000000; stroke-width: 1.2"/>
    <path d="M 117.479304 129.917515 
L 95.763132 167.538301 
" clip-path="url(#p487f30ff05)" style="fill: none; stroke: #000000; stroke-width: 1.2"/>
    <path d="M 68.795654 106.410105 
L 77.94617 126.13207 
" clip-path="url(#p487f30ff05)" style="fill: none; stroke: #000000; stroke-width: 1.2"/>
    <path d="M 68.795654 106.410105 
L 56.357906 126.484012 
" clip-path="url(#p487f30ff05)" style="fill: none; stroke: #000000; stroke-width: 1.2"/>
    <path d="M 68.795654 106.410105 
L 55.368595 154.241765 
" clip-path="url(#p487f30ff05)" style="fill: none; stroke: #000000; stroke-width: 1.2"/>
    <path d="M 68.795654 106.410105 
L 77.913276 164.811157 
" clip-path="url(#p487f30ff05)" style="fill: none; stroke: #000000; stroke-width: 1.2"/>
    <path d="M 68.795654 106.410105 
L 106.432853 147.816208 
" clip-path="url(#p487f30ff05)" style="fill: none; stroke: #000000; stroke-width: 1.2"/>
    <path d="M 77.94617 126.13207 
L 56.357906 126.484012 
" clip-path="url(#p487f30ff05)" style="fill: none; stroke: #000000; stroke-width: 1.2"/>
    <path d="M 77.94617 126.13207 
L 77.913276 164.811157 
" clip-path="url(#p487f30ff05)" style="fill: none; stroke: #000000; stroke-width: 1.2"/>
    <path d="M 77.94617 126.13207 
L 68.590418 179.493681 
" clip-path="url(#p487f30ff05)" style="fill: none; stroke: #000000; stroke-width: 1.2"/>
    <path d="M 77.94617 126.13207 
L 130.817267 167.262492 
" clip-path="url(#p487f30ff05)" style="fill: none; stroke: #000000; stroke-width: 1.2"/>
    <path d="M 56.357906 126.484012 
L 55.368595 154.241765 
" clip-path="url(#p487f30ff05)" style="fill: none; stroke: #000000; stroke-width: 1.2"/>
    <path d="M 56.357906 126.484012 
L 68.590418 179.493681 
" clip-path="url(#p487f30ff05)" style="fill: none; stroke: #000000; stroke-width: 1.2"/>
    <path d="M 56.357906 126.484012 
L 95.763132 167.538301 
" clip-path="url(#p487f30ff05)" style="fill: none; stroke: #000000; stroke-width: 1.2"/>
    <path d="M 55.368595 154.241765 
L 77.913276 164.811157 
" clip-path="url(#p487f30ff05)" style="fill: none; stroke: #000000; stroke-width: 1.2"/>
    <path d="M 55.368595 154.241765 
L 68.590418 179.493681 
" clip-path="url(#p487f30ff05)" style="fill: none; stroke: #000000; stroke-width: 1.2"/>
    <path d="M 55.368595 154.241765 
L 117.46466 160.810943 
" clip-path="url(#p487f30ff05)" style="fill: none; stroke: #000000; stroke-width: 1.2"/>
    <path d="M 55.368595 154.241765 
L 94.753883 179.470374 
" clip-path="url(#p487f30ff05)" style="fill: none; stroke: #000000; stroke-width: 1.2"/>
    <path d="M 55.368595 154.241765 
L 106.432853 147.816208 
" clip-path="url(#p487f30ff05)" style="fill: none; stroke: #000000; stroke-width: 1.2"/>
    <path d="M 55.368595 154.241765 
L 95.763132 167.538301 
" clip-path="url(#p487f30ff05)" style="fill: none; stroke: #000000; stroke-width: 1.2"/>
    <path d="M 77.913276 164.811157 
L 68.590418 179.493681 
" clip-path="url(#p487f30ff05)" style="fill: none; stroke: #000000; stroke-width: 1.2"/>
    <path d="M 77.913276 164.811157 
L 117.46466 160.810943 
" clip-path="url(#p487f30ff05)" style="fill: none; stroke: #000000; stroke-width: 1.2"/>
    <path d="M 77.913276 164.811157 
L 115.261602 186.111266 
" clip-path="url(#p487f30ff05)" style="fill: none; stroke: #000000; stroke-width: 1.2"/>
    <path d="M 77.913276 164.811157 
L 106.432853 147.816208 
" clip-path="url(#p487f30ff05)" style="fill: none; stroke: #000000; stroke-width: 1.2"/>
    <path d="M 77.913276 164.811157 
L 130.817267 167.262492 
" clip-path="url(#p487f30ff05)" style="fill: none; stroke: #000000; stroke-width: 1.2"/>
    <path d="M 68.590418 179.493681 
L 115.261602 186.111266 
" clip-path="url(#p487f30ff05)" style="fill: none; stroke: #000000; stroke-width: 1.2"/>
    <path d="M 68.590418 179.493681 
L 94.753883 179.470374 
" clip-path="url(#p487f30ff05)" style="fill: none; stroke: #000000; stroke-width: 1.2"/>
    <path d="M 68.590418 179.493681 
L 130.817267 167.262492 
" clip-path="url(#p487f30ff05)" style="fill: none; stroke: #000000; stroke-width: 1.2"/>
    <path d="M 68.590418 179.493681 
L 95.763132 167.538301 
" clip-path="url(#p487f30ff05)" style="fill: none; stroke: #000000; stroke-width: 1.2"/>
    <path d="M 117.46466 160.810943 
L 115.261602 186.111266 
" clip-path="url(#p487f30ff05)" style="fill: none; stroke: #000000; stroke-width: 1.2"/>
    <path d="M 117.46466 160.810943 
L 94.753883 179.470374 
" clip-path="url(#p487f30ff05)" style="fill: none; stroke: #000000; stroke-width: 1.2"/>
    <path d="M 117.46466 160.810943 
L 145.801134 150.257646 
" clip-path="url(#p487f30ff05)" style="fill: none; stroke: #000000; stroke-width: 1.2"/>
    <path d="M 117.46466 160.810943 
L 162.041159 160.660823 
" clip-path="url(#p487f30ff05)" style="fill: none; stroke: #000000; stroke-width: 1.2"/>
    <path d="M 115.261602 186.111266 
L 94.753883 179.470374 
" clip-path="url(#p487f30ff05)" style="fill: none; stroke: #000000; stroke-width: 1.2"/>
    <path d="M 115.261602 186.111266 
L 162.041159 160.660823 
" clip-path="url(#p487f30ff05)" style="fill: none; stroke: #000000; stroke-width: 1.2"/>
    <path d="M 115.261602 186.111266 
L 143.788263 178.992507 
" clip-path="url(#p487f30ff05)" style="fill: none; stroke: #000000; stroke-width: 1.2"/>
    <path d="M 115.261602 186.111266 
L 104.78819 237.076364 
" clip-path="url(#p487f30ff05)" style="fill: none; stroke: #000000; stroke-width: 1.2"/>
    <path d="M 115.261602 186.111266 
L 141.070666 214.598778 
" clip-path="url(#p487f30ff05)" style="fill: none; stroke: #000000; stroke-width: 1.2"/>
    <path d="M 94.753883 179.470374 
L 145.801134 150.257646 
" clip-path="url(#p487f30ff05)" style="fill: none; stroke: #000000; stroke-width: 1.2"/>
    <path d="M 94.753883 179.470374 
L 143.788263 178.992507 
" clip-path="url(#p487f30ff05)" style="fill: none; stroke: #000000; stroke-width: 1.2"/>
    <path d="M 145.801134 150.257646 
L 162.041159 160.660823 
" clip-path="url(#p487f30ff05)" style="fill: none; stroke: #000000; stroke-width: 1.2"/>
    <path d="M 145.801134 150.257646 
L 143.788263 178.992507 
" clip-path="url(#p487f30ff05)" style="fill: none; stroke: #000000; stroke-width: 1.2"/>
    <path d="M 145.801134 150.257646 
L 106.432853 147.816208 
" clip-path="url(#p487f30ff05)" style="fill: none; stroke: #000000; stroke-width: 1.2"/>
    <path d="M 145.801134 150.257646 
L 95.763132 167.538301 
" clip-path="url(#p487f30ff05)" style="fill: none; stroke: #000000; stroke-width: 1.2"/>
    <path d="M 162.041159 160.660823 
L 143.788263 178.992507 
" clip-path="url(#p487f30ff05)" style="fill: none; stroke: #000000; stroke-width: 1.2"/>
    <path d="M 162.041159 160.660823 
L 106.432853 147.816208 
" clip-path="url(#p487f30ff05)" style="fill: none; stroke: #000000; stroke-width: 1.2"/>
    <path d="M 162.041159 160.660823 
L 130.817267 167.262492 
" clip-path="url(#p487f30ff05)" style="fill: none; stroke: #000000; stroke-width: 1.2"/>
    <path d="M 162.041159 160.660823 
L 141.070666 214.598778 
" clip-path="url(#p487f30ff05)" style="fill: none; stroke: #000000; stroke-width: 1.2"/>
    <path d="M 162.041159 160.660823 
L 174.828977 197.391515 
" clip-path="url(#p487f30ff05)" style="fill: none; stroke: #000000; stroke-width: 1.2"/>
    <path d="M 162.041159 160.660823 
L 194.572544 170.129508 
" clip-path="url(#p487f30ff05)" style="fill: none; stroke: #000000; stroke-width: 1.2"/>
    <path d="M 143.788263 178.992507 
L 130.817267 167.262492 
" clip-path="url(#p487f30ff05)" style="fill: none; stroke: #000000; stroke-width: 1.2"/>
    <path d="M 143.788263 178.992507 
L 95.763132 167.538301 
" clip-path="url(#p487f30ff05)" style="fill: none; stroke: #000000; stroke-width: 1.2"/>
    <path d="M 143.788263 178.992507 
L 165.7898 228.572086 
" clip-path="url(#p487f30ff05)" style="fill: none; stroke: #000000; stroke-width: 1.2"/>
    <path d="M 143.788263 178.992507 
L 141.070666 214.598778 
" clip-path="url(#p487f30ff05)" style="fill: none; stroke: #000000; stroke-width: 1.2"/>
    <path d="M 106.432853 147.816208 
L 130.817267 167.262492 
" clip-path="url(#p487f30ff05)" style="fill: none; stroke: #000000; stroke-width: 1.2"/>
    <path d="M 106.432853 147.816208 
L 95.763132 167.538301 
" clip-path="url(#p487f30ff05)" style="fill: none; stroke: #000000; stroke-width: 1.2"/>
    <path d="M 130.817267 167.262492 
L 95.763132 167.538301 
" clip-path="url(#p487f30ff05)" style="fill: none; stroke: #000000; stroke-width: 1.2"/>
    <path d="M 130.817267 167.262492 
L 174.828977 197.391515 
" clip-path="url(#p487f30ff05)" style="fill: none; stroke: #000000; stroke-width: 1.2"/>
    <path d="M 130.817267 167.262492 
L 194.572544 170.129508 
" clip-path="url(#p487f30ff05)" style="fill: none; stroke: #000000; stroke-width: 1.2"/>
    <path d="M 165.7898 228.572086 
L 141.070666 214.598778 
" clip-path="url(#p487f30ff05)" style="fill: none; stroke: #000000; stroke-width: 1.2"/>
    <path d="M 104.78819 237.076364 
L 141.070666 214.598778 
" clip-path="url(#p487f30ff05)" style="fill: none; stroke: #000000; stroke-width: 1.2"/>
    <path d="M 239.831405 179.866337 
L 194.572544 170.129508 
" clip-path="url(#p487f30ff05)" style="fill: none; stroke: #000000; stroke-width: 1.2"/>
    <path d="M 141.070666 214.598778 
L 174.828977 197.391515 
" clip-path="url(#p487f30ff05)" style="fill: none; stroke: #000000; stroke-width: 1.2"/>
    <path d="M 174.828977 197.391515 
L 194.572544 170.129508 
" clip-path="url(#p487f30ff05)" style="fill: none; stroke: #000000; stroke-width: 1.2"/>
   </g>
   <g id="PathCollection_1">
    <defs>
     <path id="C0_0_d806d4e452" d="M 0 8.944272 
C 2.372049 8.944272 4.647264 8.001847 6.324555 6.324555 
C 8.001847 4.647264 8.944272 2.372049 8.944272 -0 
C 8.944272 -2.372049 8.001847 -4.647264 6.324555 -6.324555 
C 4.647264 -8.001847 2.372049 -8.944272 0 -8.944272 
C -2.372049 -8.944272 -4.647264 -8.001847 -6.324555 -6.324555 
C -8.001847 -4.647264 -8.944272 -2.372049 -8.944272 0 
C -8.944272 2.372049 -8.001847 4.647264 -6.324555 6.324555 
C -4.647264 8.001847 -2.372049 8.944272 0 8.944272 
z
"/>
    </defs>
    <g clip-path="url(#p487f30ff05)">
     <use xlink:href="#C0_0_d806d4e452" x="73.081992" y="72.137041" style="fill: #f08fa1; stroke: #f08fa1; stroke-width: 0.5"/>
    </g>
    <g clip-path="url(#p487f30ff05)">
     <use xlink:href="#C0_0_d806d4e452" x="56.604878" y="90.848506" style="fill: #f08fa1; stroke: #f08fa1; stroke-width: 0.5"/>
    </g>
    <g clip-path="url(#p487f30ff05)">
     <use xlink:href="#C0_0_d806d4e452" x="124.483622" y="66.156382" style="fill: #f08fa1; stroke: #f08fa1; stroke-width: 0.5"/>
    </g>
    <g clip-path="url(#p487f30ff05)">
     <use xlink:href="#C0_0_d806d4e452" x="116.928516" y="88.403324" style="fill: #f08fa1; stroke: #f08fa1; stroke-width: 0.5"/>
    </g>
    <g clip-path="url(#p487f30ff05)">
     <use xlink:href="#C0_0_d806d4e452" x="93.040247" y="79.625715" style="fill: #f08fa1; stroke: #f08fa1; stroke-width: 0.5"/>
    </g>
    <g clip-path="url(#p487f30ff05)">
     <use xlink:href="#C0_0_d806d4e452" x="143.414517" y="64.522635" style="fill: #f08fa1; stroke: #f08fa1; stroke-width: 0.5"/>
    </g>
    <g clip-path="url(#p487f30ff05)">
     <use xlink:href="#C0_0_d806d4e452" x="163.593225" y="78.209621" style="fill: #f08fa1; stroke: #f08fa1; stroke-width: 0.5"/>
    </g>
    <g clip-path="url(#p487f30ff05)">
     <use xlink:href="#C0_0_d806d4e452" x="146.977658" y="85.506171" style="fill: #f08fa1; stroke: #f08fa1; stroke-width: 0.5"/>
    </g>
    <g clip-path="url(#p487f30ff05)">
     <use xlink:href="#C0_0_d806d4e452" x="112.47297" y="53.803636" style="fill: #f08fa1; stroke: #f08fa1; stroke-width: 0.5"/>
    </g>
    <g clip-path="url(#p487f30ff05)">
     <use xlink:href="#C0_0_d806d4e452" x="109.262051" y="74.765479" style="fill: #f08fa1; stroke: #f08fa1; stroke-width: 0.5"/>
    </g>
    <g clip-path="url(#p487f30ff05)">
     <use xlink:href="#C0_0_d806d4e452" x="87.530413" y="69.009444" style="fill: #f08fa1; stroke: #f08fa1; stroke-width: 0.5"/>
    </g>
    <g clip-path="url(#p487f30ff05)">
     <use xlink:href="#C0_0_d806d4e452" x="89.20656" y="116.408438" style="fill: #f08fa1; stroke: #f08fa1; stroke-width: 0.5"/>
    </g>
    <g clip-path="url(#p487f30ff05)">
     <use xlink:href="#C0_0_d806d4e452" x="108.069959" y="122.445678" style="fill: #f08fa1; stroke: #f08fa1; stroke-width: 0.5"/>
    </g>
    <g clip-path="url(#p487f30ff05)">
     <use xlink:href="#C0_0_d806d4e452" x="87.40511" y="140.350201" style="fill: #f08fa1; stroke: #f08fa1; stroke-width: 0.5"/>
    </g>
    <g clip-path="url(#p487f30ff05)">
     <use xlink:href="#C0_0_d806d4e452" x="157.015331" y="111.190131" style="fill: #f08fa1; stroke: #f08fa1; stroke-width: 0.5"/>
    </g>
    <g clip-path="url(#p487f30ff05)">
     <use xlink:href="#C0_0_d806d4e452" x="153.607321" y="132.167172" style="fill: #f08fa1; stroke: #f08fa1; stroke-width: 0.5"/>
    </g>
    <g clip-path="url(#p487f30ff05)">
     <use xlink:href="#C0_0_d806d4e452" x="135.431319" y="123.278013" style="fill: #f08fa1; stroke: #f08fa1; stroke-width: 0.5"/>
    </g>
    <g clip-path="url(#p487f30ff05)">
     <use xlink:href="#C0_0_d806d4e452" x="108.201825" y="102.59489" style="fill: #f08fa1; stroke: #f08fa1; stroke-width: 0.5"/>
    </g>
    <g clip-path="url(#p487f30ff05)">
     <use xlink:href="#C0_0_d806d4e452" x="134.851379" y="109.685312" style="fill: #f08fa1; stroke: #f08fa1; stroke-width: 0.5"/>
    </g>
    <g clip-path="url(#p487f30ff05)">
     <use xlink:href="#C0_0_d806d4e452" x="117.479304" y="129.917515" style="fill: #f08fa1; stroke: #f08fa1; stroke-width: 0.5"/>
    </g>
    <g clip-path="url(#p487f30ff05)">
     <use xlink:href="#C0_0_d806d4e452" x="68.795654" y="106.410105" style="fill: #f08fa1; stroke: #f08fa1; stroke-width: 0.5"/>
    </g>
    <g clip-path="url(#p487f30ff05)">
     <use xlink:href="#C0_0_d806d4e452" x="77.94617" y="126.13207" style="fill: #f08fa1; stroke: #f08fa1; stroke-width: 0.5"/>
    </g>
    <g clip-path="url(#p487f30ff05)">
     <use xlink:href="#C0_0_d806d4e452" x="56.357906" y="126.484012" style="fill: #f08fa1; stroke: #f08fa1; stroke-width: 0.5"/>
    </g>
    <g clip-path="url(#p487f30ff05)">
     <use xlink:href="#C0_0_d806d4e452" x="55.368595" y="154.241765" style="fill: #f08fa1; stroke: #f08fa1; stroke-width: 0.5"/>
    </g>
    <g clip-path="url(#p487f30ff05)">
     <use xlink:href="#C0_0_d806d4e452" x="77.913276" y="164.811157" style="fill: #f08fa1; stroke: #f08fa1; stroke-width: 0.5"/>
    </g>
    <g clip-path="url(#p487f30ff05)">
     <use xlink:href="#C0_0_d806d4e452" x="68.590418" y="179.493681" style="fill: #f08fa1; stroke: #f08fa1; stroke-width: 0.5"/>
    </g>
    <g clip-path="url(#p487f30ff05)">
     <use xlink:href="#C0_0_d806d4e452" x="117.46466" y="160.810943" style="fill: #f08fa1; stroke: #f08fa1; stroke-width: 0.5"/>
    </g>
    <g clip-path="url(#p487f30ff05)">
     <use xlink:href="#C0_0_d806d4e452" x="115.261602" y="186.111266" style="fill: #f08fa1; stroke: #f08fa1; stroke-width: 0.5"/>
    </g>
    <g clip-path="url(#p487f30ff05)">
     <use xlink:href="#C0_0_d806d4e452" x="94.753883" y="179.470374" style="fill: #f08fa1; stroke: #f08fa1; stroke-width: 0.5"/>
    </g>
    <g clip-path="url(#p487f30ff05)">
     <use xlink:href="#C0_0_d806d4e452" x="145.801134" y="150.257646" style="fill: #f08fa1; stroke: #f08fa1; stroke-width: 0.5"/>
    </g>
    <g clip-path="url(#p487f30ff05)">
     <use xlink:href="#C0_0_d806d4e452" x="162.041159" y="160.660823" style="fill: #f08fa1; stroke: #f08fa1; stroke-width: 0.5"/>
    </g>
    <g clip-path="url(#p487f30ff05)">
     <use xlink:href="#C0_0_d806d4e452" x="143.788263" y="178.992507" style="fill: #f08fa1; stroke: #f08fa1; stroke-width: 0.5"/>
    </g>
    <g clip-path="url(#p487f30ff05)">
     <use xlink:href="#C0_0_d806d4e452" x="106.432853" y="147.816208" style="fill: #f08fa1; stroke: #f08fa1; stroke-width: 0.5"/>
    </g>
    <g clip-path="url(#p487f30ff05)">
     <use xlink:href="#C0_0_d806d4e452" x="130.817267" y="167.262492" style="fill: #f08fa1; stroke: #f08fa1; stroke-width: 0.5"/>
    </g>
    <g clip-path="url(#p487f30ff05)">
     <use xlink:href="#C0_0_d806d4e452" x="95.763132" y="167.538301" style="fill: #f08fa1; stroke: #f08fa1; stroke-width: 0.5"/>
    </g>
    <g clip-path="url(#p487f30ff05)">
     <use xlink:href="#C0_0_d806d4e452" x="165.7898" y="228.572086" style="fill: #bfbfbf; stroke: #bfbfbf; stroke-width: 0.5"/>
    </g>
    <g clip-path="url(#p487f30ff05)">
     <use xlink:href="#C0_0_d806d4e452" x="104.78819" y="237.076364" style="fill: #bfbfbf; stroke: #bfbfbf; stroke-width: 0.5"/>
    </g>
    <g clip-path="url(#p487f30ff05)">
     <use xlink:href="#C0_0_d806d4e452" x="239.831405" y="179.866337" style="fill: #bfbfbf; stroke: #bfbfbf; stroke-width: 0.5"/>
    </g>
    <g clip-path="url(#p487f30ff05)">
     <use xlink:href="#C0_0_d806d4e452" x="141.070666" y="214.598778" style="fill: #666666; stroke: #666666; stroke-width: 0.5"/>
    </g>
    <g clip-path="url(#p487f30ff05)">
     <use xlink:href="#C0_0_d806d4e452" x="174.828977" y="197.391515" style="fill: #0d0dff; stroke: #0d0dff; stroke-width: 0.5"/>
    </g>
    <g clip-path="url(#p487f30ff05)">
     <use xlink:href="#C0_0_d806d4e452" x="194.572544" y="170.129508" style="fill: #ff0d0d; stroke: #ff0d0d; stroke-width: 0.5"/>
    </g>
   </g>
   <g id="text_1">
    <!-- CH3Co48NO -->
    <g transform="translate(122.095837 10.005339) scale(0.1 -0.1)">
     <defs>
      <path id="DejaVuSans-43" d="M 4122 4306 
L 4122 3641 
Q 3803 3938 3442 4084 
Q 3081 4231 2675 4231 
Q 1875 4231 1450 3742 
Q 1025 3253 1025 2328 
Q 1025 1406 1450 917 
Q 1875 428 2675 428 
Q 3081 428 3442 575 
Q 3803 722 4122 1019 
L 4122 359 
Q 3791 134 3420 21 
Q 3050 -91 2638 -91 
Q 1578 -91 968 557 
Q 359 1206 359 2328 
Q 359 3453 968 4101 
Q 1578 4750 2638 4750 
Q 3056 4750 3426 4639 
Q 3797 4528 4122 4306 
z
" transform="scale(0.015625)"/>
      <path id="DejaVuSans-48" d="M 628 4666 
L 1259 4666 
L 1259 2753 
L 3553 2753 
L 3553 4666 
L 4184 4666 
L 4184 0 
L 3553 0 
L 3553 2222 
L 1259 2222 
L 1259 0 
L 628 0 
L 628 4666 
z
" transform="scale(0.015625)"/>
      <path id="DejaVuSans-33" d="M 2597 2516 
Q 3050 2419 3304 2112 
Q 3559 1806 3559 1356 
Q 3559 666 3084 287 
Q 2609 -91 1734 -91 
Q 1441 -91 1130 -33 
Q 819 25 488 141 
L 488 750 
Q 750 597 1062 519 
Q 1375 441 1716 441 
Q 2309 441 2620 675 
Q 2931 909 2931 1356 
Q 2931 1769 2642 2001 
Q 2353 2234 1838 2234 
L 1294 2234 
L 1294 2753 
L 1863 2753 
Q 2328 2753 2575 2939 
Q 2822 3125 2822 3475 
Q 2822 3834 2567 4026 
Q 2313 4219 1838 4219 
Q 1578 4219 1281 4162 
Q 984 4106 628 3988 
L 628 4550 
Q 988 4650 1302 4700 
Q 1616 4750 1894 4750 
Q 2613 4750 3031 4423 
Q 3450 4097 3450 3541 
Q 3450 3153 3228 2886 
Q 3006 2619 2597 2516 
z
" transform="scale(0.015625)"/>
      <path id="DejaVuSans-6f" d="M 1959 3097 
Q 1497 3097 1228 2736 
Q 959 2375 959 1747 
Q 959 1119 1226 758 
Q 1494 397 1959 397 
Q 2419 397 2687 759 
Q 2956 1122 2956 1747 
Q 2956 2369 2687 2733 
Q 2419 3097 1959 3097 
z
M 1959 3584 
Q 2709 3584 3137 3096 
Q 3566 2609 3566 1747 
Q 3566 888 3137 398 
Q 2709 -91 1959 -91 
Q 1206 -91 779 398 
Q 353 888 353 1747 
Q 353 2609 779 3096 
Q 1206 3584 1959 3584 
z
" transform="scale(0.015625)"/>
      <path id="DejaVuSans-34" d="M 2419 4116 
L 825 1625 
L 2419 1625 
L 2419 4116 
z
M 2253 4666 
L 3047 4666 
L 3047 1625 
L 3713 1625 
L 3713 1100 
L 3047 1100 
L 3047 0 
L 2419 0 
L 2419 1100 
L 313 1100 
L 313 1709 
L 2253 4666 
z
" transform="scale(0.015625)"/>
      <path id="DejaVuSans-38" d="M 2034 2216 
Q 1584 2216 1326 1975 
Q 1069 1734 1069 1313 
Q 1069 891 1326 650 
Q 1584 409 2034 409 
Q 2484 409 2743 651 
Q 3003 894 3003 1313 
Q 3003 1734 2745 1975 
Q 2488 2216 2034 2216 
z
M 1403 2484 
Q 997 2584 770 2862 
Q 544 3141 544 3541 
Q 544 4100 942 4425 
Q 1341 4750 2034 4750 
Q 2731 4750 3128 4425 
Q 3525 4100 3525 3541 
Q 3525 3141 3298 2862 
Q 3072 2584 2669 2484 
Q 3125 2378 3379 2068 
Q 3634 1759 3634 1313 
Q 3634 634 3220 271 
Q 2806 -91 2034 -91 
Q 1263 -91 848 271 
Q 434 634 434 1313 
Q 434 1759 690 2068 
Q 947 2378 1403 2484 
z
M 1172 3481 
Q 1172 3119 1398 2916 
Q 1625 2713 2034 2713 
Q 2441 2713 2670 2916 
Q 2900 3119 2900 3481 
Q 2900 3844 2670 4047 
Q 2441 4250 2034 4250 
Q 1625 4250 1398 4047 
Q 1172 3844 1172 3481 
z
" transform="scale(0.015625)"/>
      <path id="DejaVuSans-4e" d="M 628 4666 
L 1478 4666 
L 3547 763 
L 3547 4666 
L 4159 4666 
L 4159 0 
L 3309 0 
L 1241 3903 
L 1241 0 
L 628 0 
L 628 4666 
z
" transform="scale(0.015625)"/>
      <path id="DejaVuSans-4f" d="M 2522 4238 
Q 1834 4238 1429 3725 
Q 1025 3213 1025 2328 
Q 1025 1447 1429 934 
Q 1834 422 2522 422 
Q 3209 422 3611 934 
Q 4013 1447 4013 2328 
Q 4013 3213 3611 3725 
Q 3209 4238 2522 4238 
z
M 2522 4750 
Q 3503 4750 4090 4092 
Q 4678 3434 4678 2328 
Q 4678 1225 4090 567 
Q 3503 -91 2522 -91 
Q 1538 -91 948 565 
Q 359 1222 359 2328 
Q 359 3434 948 4092 
Q 1538 4750 2522 4750 
z
" transform="scale(0.015625)"/>
     </defs>
     <use xlink:href="#DejaVuSans-43"/>
     <use xlink:href="#DejaVuSans-48" transform="translate(69.824219 0)"/>
     <use xlink:href="#DejaVuSans-33" transform="translate(145.019531 0)"/>
     <use xlink:href="#DejaVuSans-43" transform="translate(208.642578 0)"/>
     <use xlink:href="#DejaVuSans-6f" transform="translate(278.466797 0)"/>
     <use xlink:href="#DejaVuSans-34" transform="translate(339.648438 0)"/>
     <use xlink:href="#DejaVuSans-38" transform="translate(403.271484 0)"/>
     <use xlink:href="#DejaVuSans-4e" transform="translate(466.894531 0)"/>
     <use xlink:href="#DejaVuSans-4f" transform="translate(541.699219 0)"/>
    </g>
    <!-- Error: -9.57 eV -->
    <g transform="translate(122.095837 21.203152) scale(0.1 -0.1)">
     <defs>
      <path id="DejaVuSans-45" d="M 628 4666 
L 3578 4666 
L 3578 4134 
L 1259 4134 
L 1259 2753 
L 3481 2753 
L 3481 2222 
L 1259 2222 
L 1259 531 
L 3634 531 
L 3634 0 
L 628 0 
L 628 4666 
z
" transform="scale(0.015625)"/>
      <path id="DejaVuSans-72" d="M 2631 2963 
Q 2534 3019 2420 3045 
Q 2306 3072 2169 3072 
Q 1681 3072 1420 2755 
Q 1159 2438 1159 1844 
L 1159 0 
L 581 0 
L 581 3500 
L 1159 3500 
L 1159 2956 
Q 1341 3275 1631 3429 
Q 1922 3584 2338 3584 
Q 2397 3584 2469 3576 
Q 2541 3569 2628 3553 
L 2631 2963 
z
" transform="scale(0.015625)"/>
      <path id="DejaVuSans-3a" d="M 750 794 
L 1409 794 
L 1409 0 
L 750 0 
L 750 794 
z
M 750 3309 
L 1409 3309 
L 1409 2516 
L 750 2516 
L 750 3309 
z
" transform="scale(0.015625)"/>
      <path id="DejaVuSans-20" transform="scale(0.015625)"/>
      <path id="DejaVuSans-2d" d="M 313 2009 
L 1997 2009 
L 1997 1497 
L 313 1497 
L 313 2009 
z
" transform="scale(0.015625)"/>
      <path id="DejaVuSans-39" d="M 703 97 
L 703 672 
Q 941 559 1184 500 
Q 1428 441 1663 441 
Q 2288 441 2617 861 
Q 2947 1281 2994 2138 
Q 2813 1869 2534 1725 
Q 2256 1581 1919 1581 
Q 1219 1581 811 2004 
Q 403 2428 403 3163 
Q 403 3881 828 4315 
Q 1253 4750 1959 4750 
Q 2769 4750 3195 4129 
Q 3622 3509 3622 2328 
Q 3622 1225 3098 567 
Q 2575 -91 1691 -91 
Q 1453 -91 1209 -44 
Q 966 3 703 97 
z
M 1959 2075 
Q 2384 2075 2632 2365 
Q 2881 2656 2881 3163 
Q 2881 3666 2632 3958 
Q 2384 4250 1959 4250 
Q 1534 4250 1286 3958 
Q 1038 3666 1038 3163 
Q 1038 2656 1286 2365 
Q 1534 2075 1959 2075 
z
" transform="scale(0.015625)"/>
      <path id="DejaVuSans-2e" d="M 684 794 
L 1344 794 
L 1344 0 
L 684 0 
L 684 794 
z
" transform="scale(0.015625)"/>
      <path id="DejaVuSans-35" d="M 691 4666 
L 3169 4666 
L 3169 4134 
L 1269 4134 
L 1269 2991 
Q 1406 3038 1543 3061 
Q 1681 3084 1819 3084 
Q 2600 3084 3056 2656 
Q 3513 2228 3513 1497 
Q 3513 744 3044 326 
Q 2575 -91 1722 -91 
Q 1428 -91 1123 -41 
Q 819 9 494 109 
L 494 744 
Q 775 591 1075 516 
Q 1375 441 1709 441 
Q 2250 441 2565 725 
Q 2881 1009 2881 1497 
Q 2881 1984 2565 2268 
Q 2250 2553 1709 2553 
Q 1456 2553 1204 2497 
Q 953 2441 691 2322 
L 691 4666 
z
" transform="scale(0.015625)"/>
      <path id="DejaVuSans-37" d="M 525 4666 
L 3525 4666 
L 3525 4397 
L 1831 0 
L 1172 0 
L 2766 4134 
L 525 4134 
L 525 4666 
z
" transform="scale(0.015625)"/>
      <path id="DejaVuSans-65" d="M 3597 1894 
L 3597 1613 
L 953 1613 
Q 991 1019 1311 708 
Q 1631 397 2203 397 
Q 2534 397 2845 478 
Q 3156 559 3463 722 
L 3463 178 
Q 3153 47 2828 -22 
Q 2503 -91 2169 -91 
Q 1331 -91 842 396 
Q 353 884 353 1716 
Q 353 2575 817 3079 
Q 1281 3584 2069 3584 
Q 2775 3584 3186 3129 
Q 3597 2675 3597 1894 
z
M 3022 2063 
Q 3016 2534 2758 2815 
Q 2500 3097 2075 3097 
Q 1594 3097 1305 2825 
Q 1016 2553 972 2059 
L 3022 2063 
z
" transform="scale(0.015625)"/>
      <path id="DejaVuSans-56" d="M 1831 0 
L 50 4666 
L 709 4666 
L 2188 738 
L 3669 4666 
L 4325 4666 
L 2547 0 
L 1831 0 
z
" transform="scale(0.015625)"/>
     </defs>
     <use xlink:href="#DejaVuSans-45"/>
     <use xlink:href="#DejaVuSans-72" transform="translate(63.183594 0)"/>
     <use xlink:href="#DejaVuSans-72" transform="translate(102.546875 0)"/>
     <use xlink:href="#DejaVuSans-6f" transform="translate(141.410156 0)"/>
     <use xlink:href="#DejaVuSans-72" transform="translate(202.591797 0)"/>
     <use xlink:href="#DejaVuSans-3a" transform="translate(241.955078 0)"/>
     <use xlink:href="#DejaVuSans-20" transform="translate(275.646484 0)"/>
     <use xlink:href="#DejaVuSans-2d" transform="translate(307.433594 0)"/>
     <use xlink:href="#DejaVuSans-39" transform="translate(343.517578 0)"/>
     <use xlink:href="#DejaVuSans-2e" transform="translate(407.140625 0)"/>
     <use xlink:href="#DejaVuSans-35" transform="translate(438.927734 0)"/>
     <use xlink:href="#DejaVuSans-37" transform="translate(502.550781 0)"/>
     <use xlink:href="#DejaVuSans-20" transform="translate(566.173828 0)"/>
     <use xlink:href="#DejaVuSans-65" transform="translate(597.960938 0)"/>
     <use xlink:href="#DejaVuSans-56" transform="translate(659.484375 0)"/>
    </g>
   </g>
  </g>
 </g>
 <defs>
  <clipPath id="p487f30ff05">
   <rect x="36" y="34.56" width="223.2" height="221.76"/>
  </clipPath>
 </defs>
</svg>
