<?xml version="1.0" encoding="utf-8" standalone="no"?>
<!DOCTYPE svg PUBLIC "-//W3C//DTD SVG 1.1//EN"
  "http://www.w3.org/Graphics/SVG/1.1/DTD/svg11.dtd">
<svg xmlns:xlink="http://www.w3.org/1999/xlink" width="288pt" height="288pt" viewBox="0 0 288 288" xmlns="http://www.w3.org/2000/svg" version="1.1">
 <metadata>
  <rdf:RDF xmlns:dc="http://purl.org/dc/elements/1.1/" xmlns:cc="http://creativecommons.org/ns#" xmlns:rdf="http://www.w3.org/1999/02/22-rdf-syntax-ns#">
   <cc:Work>
    <dc:type rdf:resource="http://purl.org/dc/dcmitype/StillImage"/>
    <dc:date>2025-06-30T11:56:48.733084</dc:date>
    <dc:format>image/svg+xml</dc:format>
    <dc:creator>
     <cc:Agent>
      <dc:title>Matplotlib v3.10.1, https://matplotlib.org/</dc:title>
     </cc:Agent>
    </dc:creator>
   </cc:Work>
  </rdf:RDF>
 </metadata>
 <defs>
  <style type="text/css">*{stroke-linejoin: round; stroke-linecap: butt}</style>
 </defs>
 <g id="figure_1">
  <g id="patch_1">
   <path d="M 0 288 
L 288 288 
L 288 0 
L 0 0 
z
" style="fill: #ffffff"/>
  </g>
  <g id="axes_1">
   <g id="LineCollection_1">
    <path d="M 130.994584 53.803636 
L 165.073949 73.43012 
" clip-path="url(#pcd6de707af)" style="fill: none; stroke: #000000; stroke-width: 1.2"/>
    <path d="M 130.994584 53.803636 
L 114.866555 57.844124 
" clip-path="url(#pcd6de707af)" style="fill: none; stroke: #000000; stroke-width: 1.2"/>
    <path d="M 130.994584 53.803636 
L 149.450862 69.21364 
" clip-path="url(#pcd6de707af)" style="fill: none; stroke: #000000; stroke-width: 1.2"/>
    <path d="M 130.994584 53.803636 
L 88.194808 61.725482 
" clip-path="url(#pcd6de707af)" style="fill: none; stroke: #000000; stroke-width: 1.2"/>
    <path d="M 130.994584 53.803636 
L 115.120547 95.989332 
" clip-path="url(#pcd6de707af)" style="fill: none; stroke: #000000; stroke-width: 1.2"/>
    <path d="M 130.994584 53.803636 
L 80.910586 92.500375 
" clip-path="url(#pcd6de707af)" style="fill: none; stroke: #000000; stroke-width: 1.2"/>
    <path d="M 130.994584 53.803636 
L 146.1541 95.654327 
" clip-path="url(#pcd6de707af)" style="fill: none; stroke: #000000; stroke-width: 1.2"/>
    <path d="M 169.498705 92.364949 
L 165.073949 73.43012 
" clip-path="url(#pcd6de707af)" style="fill: none; stroke: #000000; stroke-width: 1.2"/>
    <path d="M 169.498705 92.364949 
L 102.37267 72.729002 
" clip-path="url(#pcd6de707af)" style="fill: none; stroke: #000000; stroke-width: 1.2"/>
    <path d="M 169.498705 92.364949 
L 149.450862 69.21364 
" clip-path="url(#pcd6de707af)" style="fill: none; stroke: #000000; stroke-width: 1.2"/>
    <path d="M 169.498705 92.364949 
L 125.762999 74.348113 
" clip-path="url(#pcd6de707af)" style="fill: none; stroke: #000000; stroke-width: 1.2"/>
    <path d="M 169.498705 92.364949 
L 102.89676 122.414871 
" clip-path="url(#pcd6de707af)" style="fill: none; stroke: #000000; stroke-width: 1.2"/>
    <path d="M 169.498705 92.364949 
L 156.031986 118.341302 
" clip-path="url(#pcd6de707af)" style="fill: none; stroke: #000000; stroke-width: 1.2"/>
    <path d="M 169.498705 92.364949 
L 137.47891 118.367671 
" clip-path="url(#pcd6de707af)" style="fill: none; stroke: #000000; stroke-width: 1.2"/>
    <path d="M 165.073949 73.43012 
L 114.866555 57.844124 
" clip-path="url(#pcd6de707af)" style="fill: none; stroke: #000000; stroke-width: 1.2"/>
    <path d="M 165.073949 73.43012 
L 125.762999 74.348113 
" clip-path="url(#pcd6de707af)" style="fill: none; stroke: #000000; stroke-width: 1.2"/>
    <path d="M 165.073949 73.43012 
L 115.120547 95.989332 
" clip-path="url(#pcd6de707af)" style="fill: none; stroke: #000000; stroke-width: 1.2"/>
    <path d="M 165.073949 73.43012 
L 132.178925 105.413894 
" clip-path="url(#pcd6de707af)" style="fill: none; stroke: #000000; stroke-width: 1.2"/>
    <path d="M 165.073949 73.43012 
L 156.031986 118.341302 
" clip-path="url(#pcd6de707af)" style="fill: none; stroke: #000000; stroke-width: 1.2"/>
    <path d="M 102.37267 72.729002 
L 114.866555 57.844124 
" clip-path="url(#pcd6de707af)" style="fill: none; stroke: #000000; stroke-width: 1.2"/>
    <path d="M 102.37267 72.729002 
L 149.450862 69.21364 
" clip-path="url(#pcd6de707af)" style="fill: none; stroke: #000000; stroke-width: 1.2"/>
    <path d="M 102.37267 72.729002 
L 64.222947 70.476426 
" clip-path="url(#pcd6de707af)" style="fill: none; stroke: #000000; stroke-width: 1.2"/>
    <path d="M 102.37267 72.729002 
L 62.435578 113.129248 
" clip-path="url(#pcd6de707af)" style="fill: none; stroke: #000000; stroke-width: 1.2"/>
    <path d="M 102.37267 72.729002 
L 95.490448 100.80564 
" clip-path="url(#pcd6de707af)" style="fill: none; stroke: #000000; stroke-width: 1.2"/>
    <path d="M 102.37267 72.729002 
L 137.47891 118.367671 
" clip-path="url(#pcd6de707af)" style="fill: none; stroke: #000000; stroke-width: 1.2"/>
    <path d="M 114.866555 57.844124 
L 149.450862 69.21364 
" clip-path="url(#pcd6de707af)" style="fill: none; stroke: #000000; stroke-width: 1.2"/>
    <path d="M 114.866555 57.844124 
L 64.222947 70.476426 
" clip-path="url(#pcd6de707af)" style="fill: none; stroke: #000000; stroke-width: 1.2"/>
    <path d="M 114.866555 57.844124 
L 132.178925 105.413894 
" clip-path="url(#pcd6de707af)" style="fill: none; stroke: #000000; stroke-width: 1.2"/>
    <path d="M 114.866555 57.844124 
L 95.490448 100.80564 
" clip-path="url(#pcd6de707af)" style="fill: none; stroke: #000000; stroke-width: 1.2"/>
    <path d="M 114.866555 57.844124 
L 146.1541 95.654327 
" clip-path="url(#pcd6de707af)" style="fill: none; stroke: #000000; stroke-width: 1.2"/>
    <path d="M 149.450862 69.21364 
L 125.762999 74.348113 
" clip-path="url(#pcd6de707af)" style="fill: none; stroke: #000000; stroke-width: 1.2"/>
    <path d="M 149.450862 69.21364 
L 88.194808 61.725482 
" clip-path="url(#pcd6de707af)" style="fill: none; stroke: #000000; stroke-width: 1.2"/>
    <path d="M 149.450862 69.21364 
L 137.47891 118.367671 
" clip-path="url(#pcd6de707af)" style="fill: none; stroke: #000000; stroke-width: 1.2"/>
    <path d="M 149.450862 69.21364 
L 146.1541 95.654327 
" clip-path="url(#pcd6de707af)" style="fill: none; stroke: #000000; stroke-width: 1.2"/>
    <path d="M 149.450862 69.21364 
L 116.654686 109.846076 
" clip-path="url(#pcd6de707af)" style="fill: none; stroke: #000000; stroke-width: 1.2"/>
    <path d="M 125.762999 74.348113 
L 88.194808 61.725482 
" clip-path="url(#pcd6de707af)" style="fill: none; stroke: #000000; stroke-width: 1.2"/>
    <path d="M 125.762999 74.348113 
L 64.222947 70.476426 
" clip-path="url(#pcd6de707af)" style="fill: none; stroke: #000000; stroke-width: 1.2"/>
    <path d="M 125.762999 74.348113 
L 156.031986 118.341302 
" clip-path="url(#pcd6de707af)" style="fill: none; stroke: #000000; stroke-width: 1.2"/>
    <path d="M 125.762999 74.348113 
L 116.654686 109.846076 
" clip-path="url(#pcd6de707af)" style="fill: none; stroke: #000000; stroke-width: 1.2"/>
    <path d="M 125.762999 74.348113 
L 82.379428 113.497958 
" clip-path="url(#pcd6de707af)" style="fill: none; stroke: #000000; stroke-width: 1.2"/>
    <path d="M 88.194808 61.725482 
L 64.222947 70.476426 
" clip-path="url(#pcd6de707af)" style="fill: none; stroke: #000000; stroke-width: 1.2"/>
    <path d="M 88.194808 61.725482 
L 80.910586 92.500375 
" clip-path="url(#pcd6de707af)" style="fill: none; stroke: #000000; stroke-width: 1.2"/>
    <path d="M 88.194808 61.725482 
L 116.654686 109.846076 
" clip-path="url(#pcd6de707af)" style="fill: none; stroke: #000000; stroke-width: 1.2"/>
    <path d="M 88.194808 61.725482 
L 61.389291 103.896884 
" clip-path="url(#pcd6de707af)" style="fill: none; stroke: #000000; stroke-width: 1.2"/>
    <path d="M 64.222947 70.476426 
L 95.490448 100.80564 
" clip-path="url(#pcd6de707af)" style="fill: none; stroke: #000000; stroke-width: 1.2"/>
    <path d="M 64.222947 70.476426 
L 82.379428 113.497958 
" clip-path="url(#pcd6de707af)" style="fill: none; stroke: #000000; stroke-width: 1.2"/>
    <path d="M 64.222947 70.476426 
L 61.389291 103.896884 
" clip-path="url(#pcd6de707af)" style="fill: none; stroke: #000000; stroke-width: 1.2"/>
    <path d="M 115.120547 95.989332 
L 80.910586 92.500375 
" clip-path="url(#pcd6de707af)" style="fill: none; stroke: #000000; stroke-width: 1.2"/>
    <path d="M 115.120547 95.989332 
L 62.435578 113.129248 
" clip-path="url(#pcd6de707af)" style="fill: none; stroke: #000000; stroke-width: 1.2"/>
    <path d="M 115.120547 95.989332 
L 132.178925 105.413894 
" clip-path="url(#pcd6de707af)" style="fill: none; stroke: #000000; stroke-width: 1.2"/>
    <path d="M 115.120547 95.989332 
L 156.031986 118.341302 
" clip-path="url(#pcd6de707af)" style="fill: none; stroke: #000000; stroke-width: 1.2"/>
    <path d="M 115.120547 95.989332 
L 146.1541 95.654327 
" clip-path="url(#pcd6de707af)" style="fill: none; stroke: #000000; stroke-width: 1.2"/>
    <path d="M 115.120547 95.989332 
L 82.379428 113.497958 
" clip-path="url(#pcd6de707af)" style="fill: none; stroke: #000000; stroke-width: 1.2"/>
    <path d="M 115.120547 95.989332 
L 150.922469 133.020485 
" clip-path="url(#pcd6de707af)" style="fill: none; stroke: #000000; stroke-width: 1.2"/>
    <path d="M 115.120547 95.989332 
L 73.214191 132.619424 
" clip-path="url(#pcd6de707af)" style="fill: none; stroke: #000000; stroke-width: 1.2"/>
    <path d="M 115.120547 95.989332 
L 112.967177 150.47172 
" clip-path="url(#pcd6de707af)" style="fill: none; stroke: #000000; stroke-width: 1.2"/>
    <path d="M 80.910586 92.500375 
L 62.435578 113.129248 
" clip-path="url(#pcd6de707af)" style="fill: none; stroke: #000000; stroke-width: 1.2"/>
    <path d="M 80.910586 92.500375 
L 102.89676 122.414871 
" clip-path="url(#pcd6de707af)" style="fill: none; stroke: #000000; stroke-width: 1.2"/>
    <path d="M 80.910586 92.500375 
L 146.1541 95.654327 
" clip-path="url(#pcd6de707af)" style="fill: none; stroke: #000000; stroke-width: 1.2"/>
    <path d="M 80.910586 92.500375 
L 116.654686 109.846076 
" clip-path="url(#pcd6de707af)" style="fill: none; stroke: #000000; stroke-width: 1.2"/>
    <path d="M 80.910586 92.500375 
L 61.389291 103.896884 
" clip-path="url(#pcd6de707af)" style="fill: none; stroke: #000000; stroke-width: 1.2"/>
    <path d="M 80.910586 92.500375 
L 73.214191 132.619424 
" clip-path="url(#pcd6de707af)" style="fill: none; stroke: #000000; stroke-width: 1.2"/>
    <path d="M 80.910586 92.500375 
L 55.368595 140.041725 
" clip-path="url(#pcd6de707af)" style="fill: none; stroke: #000000; stroke-width: 1.2"/>
    <path d="M 80.910586 92.500375 
L 112.12584 138.740416 
" clip-path="url(#pcd6de707af)" style="fill: none; stroke: #000000; stroke-width: 1.2"/>
    <path d="M 62.435578 113.129248 
L 102.89676 122.414871 
" clip-path="url(#pcd6de707af)" style="fill: none; stroke: #000000; stroke-width: 1.2"/>
    <path d="M 62.435578 113.129248 
L 95.490448 100.80564 
" clip-path="url(#pcd6de707af)" style="fill: none; stroke: #000000; stroke-width: 1.2"/>
    <path d="M 62.435578 113.129248 
L 137.47891 118.367671 
" clip-path="url(#pcd6de707af)" style="fill: none; stroke: #000000; stroke-width: 1.2"/>
    <path d="M 62.435578 113.129248 
L 82.379428 113.497958 
" clip-path="url(#pcd6de707af)" style="fill: none; stroke: #000000; stroke-width: 1.2"/>
    <path d="M 62.435578 113.129248 
L 73.214191 132.619424 
" clip-path="url(#pcd6de707af)" style="fill: none; stroke: #000000; stroke-width: 1.2"/>
    <path d="M 62.435578 113.129248 
L 96.88035 163.525158 
" clip-path="url(#pcd6de707af)" style="fill: none; stroke: #000000; stroke-width: 1.2"/>
    <path d="M 62.435578 113.129248 
L 63.566635 150.178111 
" clip-path="url(#pcd6de707af)" style="fill: none; stroke: #000000; stroke-width: 1.2"/>
    <path d="M 102.89676 122.414871 
L 132.178925 105.413894 
" clip-path="url(#pcd6de707af)" style="fill: none; stroke: #000000; stroke-width: 1.2"/>
    <path d="M 102.89676 122.414871 
L 156.031986 118.341302 
" clip-path="url(#pcd6de707af)" style="fill: none; stroke: #000000; stroke-width: 1.2"/>
    <path d="M 102.89676 122.414871 
L 137.47891 118.367671 
" clip-path="url(#pcd6de707af)" style="fill: none; stroke: #000000; stroke-width: 1.2"/>
    <path d="M 102.89676 122.414871 
L 61.389291 103.896884 
" clip-path="url(#pcd6de707af)" style="fill: none; stroke: #000000; stroke-width: 1.2"/>
    <path d="M 102.89676 122.414871 
L 96.88035 163.525158 
" clip-path="url(#pcd6de707af)" style="fill: none; stroke: #000000; stroke-width: 1.2"/>
    <path d="M 102.89676 122.414871 
L 55.368595 140.041725 
" clip-path="url(#pcd6de707af)" style="fill: none; stroke: #000000; stroke-width: 1.2"/>
    <path d="M 102.89676 122.414871 
L 126.396508 160.05699 
" clip-path="url(#pcd6de707af)" style="fill: none; stroke: #000000; stroke-width: 1.2"/>
    <path d="M 132.178925 105.413894 
L 156.031986 118.341302 
" clip-path="url(#pcd6de707af)" style="fill: none; stroke: #000000; stroke-width: 1.2"/>
    <path d="M 132.178925 105.413894 
L 95.490448 100.80564 
" clip-path="url(#pcd6de707af)" style="fill: none; stroke: #000000; stroke-width: 1.2"/>
    <path d="M 132.178925 105.413894 
L 146.1541 95.654327 
" clip-path="url(#pcd6de707af)" style="fill: none; stroke: #000000; stroke-width: 1.2"/>
    <path d="M 132.178925 105.413894 
L 61.389291 103.896884 
" clip-path="url(#pcd6de707af)" style="fill: none; stroke: #000000; stroke-width: 1.2"/>
    <path d="M 132.178925 105.413894 
L 150.922469 133.020485 
" clip-path="url(#pcd6de707af)" style="fill: none; stroke: #000000; stroke-width: 1.2"/>
    <path d="M 132.178925 105.413894 
L 126.396508 160.05699 
" clip-path="url(#pcd6de707af)" style="fill: none; stroke: #000000; stroke-width: 1.2"/>
    <path d="M 132.178925 105.413894 
L 91.648745 140.165885 
" clip-path="url(#pcd6de707af)" style="fill: none; stroke: #000000; stroke-width: 1.2"/>
    <path d="M 156.031986 118.341302 
L 137.47891 118.367671 
" clip-path="url(#pcd6de707af)" style="fill: none; stroke: #000000; stroke-width: 1.2"/>
    <path d="M 156.031986 118.341302 
L 116.654686 109.846076 
" clip-path="url(#pcd6de707af)" style="fill: none; stroke: #000000; stroke-width: 1.2"/>
    <path d="M 156.031986 118.341302 
L 82.379428 113.497958 
" clip-path="url(#pcd6de707af)" style="fill: none; stroke: #000000; stroke-width: 1.2"/>
    <path d="M 156.031986 118.341302 
L 126.396508 160.05699 
" clip-path="url(#pcd6de707af)" style="fill: none; stroke: #000000; stroke-width: 1.2"/>
    <path d="M 156.031986 118.341302 
L 112.967177 150.47172 
" clip-path="url(#pcd6de707af)" style="fill: none; stroke: #000000; stroke-width: 1.2"/>
    <path d="M 156.031986 118.341302 
L 149.802226 157.151042 
" clip-path="url(#pcd6de707af)" style="fill: none; stroke: #000000; stroke-width: 1.2"/>
    <path d="M 95.490448 100.80564 
L 137.47891 118.367671 
" clip-path="url(#pcd6de707af)" style="fill: none; stroke: #000000; stroke-width: 1.2"/>
    <path d="M 95.490448 100.80564 
L 146.1541 95.654327 
" clip-path="url(#pcd6de707af)" style="fill: none; stroke: #000000; stroke-width: 1.2"/>
    <path d="M 95.490448 100.80564 
L 82.379428 113.497958 
" clip-path="url(#pcd6de707af)" style="fill: none; stroke: #000000; stroke-width: 1.2"/>
    <path d="M 95.490448 100.80564 
L 61.389291 103.896884 
" clip-path="url(#pcd6de707af)" style="fill: none; stroke: #000000; stroke-width: 1.2"/>
    <path d="M 95.490448 100.80564 
L 63.566635 150.178111 
" clip-path="url(#pcd6de707af)" style="fill: none; stroke: #000000; stroke-width: 1.2"/>
    <path d="M 95.490448 100.80564 
L 137.278994 145.722224 
" clip-path="url(#pcd6de707af)" style="fill: none; stroke: #000000; stroke-width: 1.2"/>
    <path d="M 95.490448 100.80564 
L 91.648745 140.165885 
" clip-path="url(#pcd6de707af)" style="fill: none; stroke: #000000; stroke-width: 1.2"/>
    <path d="M 137.47891 118.367671 
L 146.1541 95.654327 
" clip-path="url(#pcd6de707af)" style="fill: none; stroke: #000000; stroke-width: 1.2"/>
    <path d="M 137.47891 118.367671 
L 116.654686 109.846076 
" clip-path="url(#pcd6de707af)" style="fill: none; stroke: #000000; stroke-width: 1.2"/>
    <path d="M 137.47891 118.367671 
L 96.88035 163.525158 
" clip-path="url(#pcd6de707af)" style="fill: none; stroke: #000000; stroke-width: 1.2"/>
    <path d="M 137.47891 118.367671 
L 137.278994 145.722224 
" clip-path="url(#pcd6de707af)" style="fill: none; stroke: #000000; stroke-width: 1.2"/>
    <path d="M 137.47891 118.367671 
L 149.802226 157.151042 
" clip-path="url(#pcd6de707af)" style="fill: none; stroke: #000000; stroke-width: 1.2"/>
    <path d="M 146.1541 95.654327 
L 116.654686 109.846076 
" clip-path="url(#pcd6de707af)" style="fill: none; stroke: #000000; stroke-width: 1.2"/>
    <path d="M 146.1541 95.654327 
L 150.922469 133.020485 
" clip-path="url(#pcd6de707af)" style="fill: none; stroke: #000000; stroke-width: 1.2"/>
    <path d="M 146.1541 95.654327 
L 137.278994 145.722224 
" clip-path="url(#pcd6de707af)" style="fill: none; stroke: #000000; stroke-width: 1.2"/>
    <path d="M 146.1541 95.654327 
L 112.12584 138.740416 
" clip-path="url(#pcd6de707af)" style="fill: none; stroke: #000000; stroke-width: 1.2"/>
    <path d="M 116.654686 109.846076 
L 82.379428 113.497958 
" clip-path="url(#pcd6de707af)" style="fill: none; stroke: #000000; stroke-width: 1.2"/>
    <path d="M 116.654686 109.846076 
L 61.389291 103.896884 
" clip-path="url(#pcd6de707af)" style="fill: none; stroke: #000000; stroke-width: 1.2"/>
    <path d="M 116.654686 109.846076 
L 112.12584 138.740416 
" clip-path="url(#pcd6de707af)" style="fill: none; stroke: #000000; stroke-width: 1.2"/>
    <path d="M 116.654686 109.846076 
L 149.802226 157.151042 
" clip-path="url(#pcd6de707af)" style="fill: none; stroke: #000000; stroke-width: 1.2"/>
    <path d="M 116.654686 109.846076 
L 82.754868 158.333718 
" clip-path="url(#pcd6de707af)" style="fill: none; stroke: #000000; stroke-width: 1.2"/>
    <path d="M 82.379428 113.497958 
L 61.389291 103.896884 
" clip-path="url(#pcd6de707af)" style="fill: none; stroke: #000000; stroke-width: 1.2"/>
    <path d="M 82.379428 113.497958 
L 112.967177 150.47172 
" clip-path="url(#pcd6de707af)" style="fill: none; stroke: #000000; stroke-width: 1.2"/>
    <path d="M 82.379428 113.497958 
L 63.566635 150.178111 
" clip-path="url(#pcd6de707af)" style="fill: none; stroke: #000000; stroke-width: 1.2"/>
    <path d="M 82.379428 113.497958 
L 82.754868 158.333718 
" clip-path="url(#pcd6de707af)" style="fill: none; stroke: #000000; stroke-width: 1.2"/>
    <path d="M 61.389291 103.896884 
L 55.368595 140.041725 
" clip-path="url(#pcd6de707af)" style="fill: none; stroke: #000000; stroke-width: 1.2"/>
    <path d="M 61.389291 103.896884 
L 82.754868 158.333718 
" clip-path="url(#pcd6de707af)" style="fill: none; stroke: #000000; stroke-width: 1.2"/>
    <path d="M 61.389291 103.896884 
L 91.648745 140.165885 
" clip-path="url(#pcd6de707af)" style="fill: none; stroke: #000000; stroke-width: 1.2"/>
    <path d="M 150.922469 133.020485 
L 73.214191 132.619424 
" clip-path="url(#pcd6de707af)" style="fill: none; stroke: #000000; stroke-width: 1.2"/>
    <path d="M 150.922469 133.020485 
L 126.396508 160.05699 
" clip-path="url(#pcd6de707af)" style="fill: none; stroke: #000000; stroke-width: 1.2"/>
    <path d="M 150.922469 133.020485 
L 112.967177 150.47172 
" clip-path="url(#pcd6de707af)" style="fill: none; stroke: #000000; stroke-width: 1.2"/>
    <path d="M 150.922469 133.020485 
L 137.278994 145.722224 
" clip-path="url(#pcd6de707af)" style="fill: none; stroke: #000000; stroke-width: 1.2"/>
    <path d="M 150.922469 133.020485 
L 112.12584 138.740416 
" clip-path="url(#pcd6de707af)" style="fill: none; stroke: #000000; stroke-width: 1.2"/>
    <path d="M 150.922469 133.020485 
L 91.648745 140.165885 
" clip-path="url(#pcd6de707af)" style="fill: none; stroke: #000000; stroke-width: 1.2"/>
    <path d="M 73.214191 132.619424 
L 96.88035 163.525158 
" clip-path="url(#pcd6de707af)" style="fill: none; stroke: #000000; stroke-width: 1.2"/>
    <path d="M 73.214191 132.619424 
L 55.368595 140.041725 
" clip-path="url(#pcd6de707af)" style="fill: none; stroke: #000000; stroke-width: 1.2"/>
    <path d="M 73.214191 132.619424 
L 112.967177 150.47172 
" clip-path="url(#pcd6de707af)" style="fill: none; stroke: #000000; stroke-width: 1.2"/>
    <path d="M 73.214191 132.619424 
L 63.566635 150.178111 
" clip-path="url(#pcd6de707af)" style="fill: none; stroke: #000000; stroke-width: 1.2"/>
    <path d="M 73.214191 132.619424 
L 112.12584 138.740416 
" clip-path="url(#pcd6de707af)" style="fill: none; stroke: #000000; stroke-width: 1.2"/>
    <path d="M 96.88035 163.525158 
L 55.368595 140.041725 
" clip-path="url(#pcd6de707af)" style="fill: none; stroke: #000000; stroke-width: 1.2"/>
    <path d="M 96.88035 163.525158 
L 126.396508 160.05699 
" clip-path="url(#pcd6de707af)" style="fill: none; stroke: #000000; stroke-width: 1.2"/>
    <path d="M 96.88035 163.525158 
L 63.566635 150.178111 
" clip-path="url(#pcd6de707af)" style="fill: none; stroke: #000000; stroke-width: 1.2"/>
    <path d="M 96.88035 163.525158 
L 137.278994 145.722224 
" clip-path="url(#pcd6de707af)" style="fill: none; stroke: #000000; stroke-width: 1.2"/>
    <path d="M 96.88035 163.525158 
L 149.802226 157.151042 
" clip-path="url(#pcd6de707af)" style="fill: none; stroke: #000000; stroke-width: 1.2"/>
    <path d="M 55.368595 140.041725 
L 126.396508 160.05699 
" clip-path="url(#pcd6de707af)" style="fill: none; stroke: #000000; stroke-width: 1.2"/>
    <path d="M 55.368595 140.041725 
L 112.12584 138.740416 
" clip-path="url(#pcd6de707af)" style="fill: none; stroke: #000000; stroke-width: 1.2"/>
    <path d="M 55.368595 140.041725 
L 82.754868 158.333718 
" clip-path="url(#pcd6de707af)" style="fill: none; stroke: #000000; stroke-width: 1.2"/>
    <path d="M 55.368595 140.041725 
L 91.648745 140.165885 
" clip-path="url(#pcd6de707af)" style="fill: none; stroke: #000000; stroke-width: 1.2"/>
    <path d="M 126.396508 160.05699 
L 112.967177 150.47172 
" clip-path="url(#pcd6de707af)" style="fill: none; stroke: #000000; stroke-width: 1.2"/>
    <path d="M 126.396508 160.05699 
L 149.802226 157.151042 
" clip-path="url(#pcd6de707af)" style="fill: none; stroke: #000000; stroke-width: 1.2"/>
    <path d="M 126.396508 160.05699 
L 91.648745 140.165885 
" clip-path="url(#pcd6de707af)" style="fill: none; stroke: #000000; stroke-width: 1.2"/>
    <path d="M 112.967177 150.47172 
L 63.566635 150.178111 
" clip-path="url(#pcd6de707af)" style="fill: none; stroke: #000000; stroke-width: 1.2"/>
    <path d="M 112.967177 150.47172 
L 149.802226 157.151042 
" clip-path="url(#pcd6de707af)" style="fill: none; stroke: #000000; stroke-width: 1.2"/>
    <path d="M 112.967177 150.47172 
L 82.754868 158.333718 
" clip-path="url(#pcd6de707af)" style="fill: none; stroke: #000000; stroke-width: 1.2"/>
    <path d="M 63.566635 150.178111 
L 137.278994 145.722224 
" clip-path="url(#pcd6de707af)" style="fill: none; stroke: #000000; stroke-width: 1.2"/>
    <path d="M 63.566635 150.178111 
L 82.754868 158.333718 
" clip-path="url(#pcd6de707af)" style="fill: none; stroke: #000000; stroke-width: 1.2"/>
    <path d="M 63.566635 150.178111 
L 91.648745 140.165885 
" clip-path="url(#pcd6de707af)" style="fill: none; stroke: #000000; stroke-width: 1.2"/>
    <path d="M 137.278994 145.722224 
L 112.12584 138.740416 
" clip-path="url(#pcd6de707af)" style="fill: none; stroke: #000000; stroke-width: 1.2"/>
    <path d="M 137.278994 145.722224 
L 149.802226 157.151042 
" clip-path="url(#pcd6de707af)" style="fill: none; stroke: #000000; stroke-width: 1.2"/>
    <path d="M 137.278994 145.722224 
L 91.648745 140.165885 
" clip-path="url(#pcd6de707af)" style="fill: none; stroke: #000000; stroke-width: 1.2"/>
    <path d="M 137.278994 145.722224 
L 187.945376 166.144193 
" clip-path="url(#pcd6de707af)" style="fill: none; stroke: #000000; stroke-width: 1.2"/>
    <path d="M 112.12584 138.740416 
L 149.802226 157.151042 
" clip-path="url(#pcd6de707af)" style="fill: none; stroke: #000000; stroke-width: 1.2"/>
    <path d="M 112.12584 138.740416 
L 82.754868 158.333718 
" clip-path="url(#pcd6de707af)" style="fill: none; stroke: #000000; stroke-width: 1.2"/>
    <path d="M 149.802226 157.151042 
L 82.754868 158.333718 
" clip-path="url(#pcd6de707af)" style="fill: none; stroke: #000000; stroke-width: 1.2"/>
    <path d="M 149.802226 157.151042 
L 167.828558 196.307678 
" clip-path="url(#pcd6de707af)" style="fill: none; stroke: #000000; stroke-width: 1.2"/>
    <path d="M 149.802226 157.151042 
L 187.945376 166.144193 
" clip-path="url(#pcd6de707af)" style="fill: none; stroke: #000000; stroke-width: 1.2"/>
    <path d="M 82.754868 158.333718 
L 91.648745 140.165885 
" clip-path="url(#pcd6de707af)" style="fill: none; stroke: #000000; stroke-width: 1.2"/>
    <path d="M 155.428402 237.076364 
L 167.828558 196.307678 
" clip-path="url(#pcd6de707af)" style="fill: none; stroke: #000000; stroke-width: 1.2"/>
    <path d="M 207.532248 220.261359 
L 167.828558 196.307678 
" clip-path="url(#pcd6de707af)" style="fill: none; stroke: #000000; stroke-width: 1.2"/>
    <path d="M 239.831405 168.124877 
L 187.945376 166.144193 
" clip-path="url(#pcd6de707af)" style="fill: none; stroke: #000000; stroke-width: 1.2"/>
    <path d="M 167.828558 196.307678 
L 187.945376 166.144193 
" clip-path="url(#pcd6de707af)" style="fill: none; stroke: #000000; stroke-width: 1.2"/>
   </g>
   <g id="PathCollection_1">
    <defs>
     <path id="C0_0_78944dd4ee" d="M 0 8.944272 
C 2.372049 8.944272 4.647264 8.001847 6.324555 6.324555 
C 8.001847 4.647264 8.944272 2.372049 8.944272 -0 
C 8.944272 -2.372049 8.001847 -4.647264 6.324555 -6.324555 
C 4.647264 -8.001847 2.372049 -8.944272 0 -8.944272 
C -2.372049 -8.944272 -4.647264 -8.001847 -6.324555 -6.324555 
C -8.001847 -4.647264 -8.944272 -2.372049 -8.944272 0 
C -8.944272 2.372049 -8.001847 4.647264 -6.324555 6.324555 
C -4.647264 8.001847 -2.372049 8.944272 0 8.944272 
z
"/>
    </defs>
    <g clip-path="url(#pcd6de707af)">
     <use xlink:href="#C0_0_78944dd4ee" x="130.994584" y="53.803636" style="fill: #4fd14f; stroke: #4fd14f; stroke-width: 0.5"/>
    </g>
    <g clip-path="url(#pcd6de707af)">
     <use xlink:href="#C0_0_78944dd4ee" x="169.498705" y="92.364949" style="fill: #4fd14f; stroke: #4fd14f; stroke-width: 0.5"/>
    </g>
    <g clip-path="url(#pcd6de707af)">
     <use xlink:href="#C0_0_78944dd4ee" x="165.073949" y="73.43012" style="fill: #4fd14f; stroke: #4fd14f; stroke-width: 0.5"/>
    </g>
    <g clip-path="url(#pcd6de707af)">
     <use xlink:href="#C0_0_78944dd4ee" x="102.37267" y="72.729002" style="fill: #4fd14f; stroke: #4fd14f; stroke-width: 0.5"/>
    </g>
    <g clip-path="url(#pcd6de707af)">
     <use xlink:href="#C0_0_78944dd4ee" x="114.866555" y="57.844124" style="fill: #4fd14f; stroke: #4fd14f; stroke-width: 0.5"/>
    </g>
    <g clip-path="url(#pcd6de707af)">
     <use xlink:href="#C0_0_78944dd4ee" x="149.450862" y="69.21364" style="fill: #4fd14f; stroke: #4fd14f; stroke-width: 0.5"/>
    </g>
    <g clip-path="url(#pcd6de707af)">
     <use xlink:href="#C0_0_78944dd4ee" x="125.762999" y="74.348113" style="fill: #4fd14f; stroke: #4fd14f; stroke-width: 0.5"/>
    </g>
    <g clip-path="url(#pcd6de707af)">
     <use xlink:href="#C0_0_78944dd4ee" x="88.194808" y="61.725482" style="fill: #4fd14f; stroke: #4fd14f; stroke-width: 0.5"/>
    </g>
    <g clip-path="url(#pcd6de707af)">
     <use xlink:href="#C0_0_78944dd4ee" x="64.222947" y="70.476426" style="fill: #4fd14f; stroke: #4fd14f; stroke-width: 0.5"/>
    </g>
    <g clip-path="url(#pcd6de707af)">
     <use xlink:href="#C0_0_78944dd4ee" x="115.120547" y="95.989332" style="fill: #4fd14f; stroke: #4fd14f; stroke-width: 0.5"/>
    </g>
    <g clip-path="url(#pcd6de707af)">
     <use xlink:href="#C0_0_78944dd4ee" x="80.910586" y="92.500375" style="fill: #4fd14f; stroke: #4fd14f; stroke-width: 0.5"/>
    </g>
    <g clip-path="url(#pcd6de707af)">
     <use xlink:href="#C0_0_78944dd4ee" x="62.435578" y="113.129248" style="fill: #4fd14f; stroke: #4fd14f; stroke-width: 0.5"/>
    </g>
    <g clip-path="url(#pcd6de707af)">
     <use xlink:href="#C0_0_78944dd4ee" x="102.89676" y="122.414871" style="fill: #4fd14f; stroke: #4fd14f; stroke-width: 0.5"/>
    </g>
    <g clip-path="url(#pcd6de707af)">
     <use xlink:href="#C0_0_78944dd4ee" x="132.178925" y="105.413894" style="fill: #4fd14f; stroke: #4fd14f; stroke-width: 0.5"/>
    </g>
    <g clip-path="url(#pcd6de707af)">
     <use xlink:href="#C0_0_78944dd4ee" x="156.031986" y="118.341302" style="fill: #4fd14f; stroke: #4fd14f; stroke-width: 0.5"/>
    </g>
    <g clip-path="url(#pcd6de707af)">
     <use xlink:href="#C0_0_78944dd4ee" x="95.490448" y="100.80564" style="fill: #4fd14f; stroke: #4fd14f; stroke-width: 0.5"/>
    </g>
    <g clip-path="url(#pcd6de707af)">
     <use xlink:href="#C0_0_78944dd4ee" x="137.47891" y="118.367671" style="fill: #4fd14f; stroke: #4fd14f; stroke-width: 0.5"/>
    </g>
    <g clip-path="url(#pcd6de707af)">
     <use xlink:href="#C0_0_78944dd4ee" x="146.1541" y="95.654327" style="fill: #4fd14f; stroke: #4fd14f; stroke-width: 0.5"/>
    </g>
    <g clip-path="url(#pcd6de707af)">
     <use xlink:href="#C0_0_78944dd4ee" x="116.654686" y="109.846076" style="fill: #4fd14f; stroke: #4fd14f; stroke-width: 0.5"/>
    </g>
    <g clip-path="url(#pcd6de707af)">
     <use xlink:href="#C0_0_78944dd4ee" x="82.379428" y="113.497958" style="fill: #4fd14f; stroke: #4fd14f; stroke-width: 0.5"/>
    </g>
    <g clip-path="url(#pcd6de707af)">
     <use xlink:href="#C0_0_78944dd4ee" x="61.389291" y="103.896884" style="fill: #4fd14f; stroke: #4fd14f; stroke-width: 0.5"/>
    </g>
    <g clip-path="url(#pcd6de707af)">
     <use xlink:href="#C0_0_78944dd4ee" x="150.922469" y="133.020485" style="fill: #4fd14f; stroke: #4fd14f; stroke-width: 0.5"/>
    </g>
    <g clip-path="url(#pcd6de707af)">
     <use xlink:href="#C0_0_78944dd4ee" x="73.214191" y="132.619424" style="fill: #4fd14f; stroke: #4fd14f; stroke-width: 0.5"/>
    </g>
    <g clip-path="url(#pcd6de707af)">
     <use xlink:href="#C0_0_78944dd4ee" x="96.88035" y="163.525158" style="fill: #4fd14f; stroke: #4fd14f; stroke-width: 0.5"/>
    </g>
    <g clip-path="url(#pcd6de707af)">
     <use xlink:href="#C0_0_78944dd4ee" x="55.368595" y="140.041725" style="fill: #4fd14f; stroke: #4fd14f; stroke-width: 0.5"/>
    </g>
    <g clip-path="url(#pcd6de707af)">
     <use xlink:href="#C0_0_78944dd4ee" x="126.396508" y="160.05699" style="fill: #4fd14f; stroke: #4fd14f; stroke-width: 0.5"/>
    </g>
    <g clip-path="url(#pcd6de707af)">
     <use xlink:href="#C0_0_78944dd4ee" x="112.967177" y="150.47172" style="fill: #4fd14f; stroke: #4fd14f; stroke-width: 0.5"/>
    </g>
    <g clip-path="url(#pcd6de707af)">
     <use xlink:href="#C0_0_78944dd4ee" x="63.566635" y="150.178111" style="fill: #4fd14f; stroke: #4fd14f; stroke-width: 0.5"/>
    </g>
    <g clip-path="url(#pcd6de707af)">
     <use xlink:href="#C0_0_78944dd4ee" x="137.278994" y="145.722224" style="fill: #4fd14f; stroke: #4fd14f; stroke-width: 0.5"/>
    </g>
    <g clip-path="url(#pcd6de707af)">
     <use xlink:href="#C0_0_78944dd4ee" x="112.12584" y="138.740416" style="fill: #4fd14f; stroke: #4fd14f; stroke-width: 0.5"/>
    </g>
    <g clip-path="url(#pcd6de707af)">
     <use xlink:href="#C0_0_78944dd4ee" x="149.802226" y="157.151042" style="fill: #4fd14f; stroke: #4fd14f; stroke-width: 0.5"/>
    </g>
    <g clip-path="url(#pcd6de707af)">
     <use xlink:href="#C0_0_78944dd4ee" x="82.754868" y="158.333718" style="fill: #4fd14f; stroke: #4fd14f; stroke-width: 0.5"/>
    </g>
    <g clip-path="url(#pcd6de707af)">
     <use xlink:href="#C0_0_78944dd4ee" x="91.648745" y="140.165885" style="fill: #4fd14f; stroke: #4fd14f; stroke-width: 0.5"/>
    </g>
    <g clip-path="url(#pcd6de707af)">
     <use xlink:href="#C0_0_78944dd4ee" x="155.428402" y="237.076364" style="fill: #bfbfbf; stroke: #bfbfbf; stroke-width: 0.5"/>
    </g>
    <g clip-path="url(#pcd6de707af)">
     <use xlink:href="#C0_0_78944dd4ee" x="207.532248" y="220.261359" style="fill: #bfbfbf; stroke: #bfbfbf; stroke-width: 0.5"/>
    </g>
    <g clip-path="url(#pcd6de707af)">
     <use xlink:href="#C0_0_78944dd4ee" x="239.831405" y="168.124877" style="fill: #bfbfbf; stroke: #bfbfbf; stroke-width: 0.5"/>
    </g>
    <g clip-path="url(#pcd6de707af)">
     <use xlink:href="#C0_0_78944dd4ee" x="167.828558" y="196.307678" style="fill: #666666; stroke: #666666; stroke-width: 0.5"/>
    </g>
    <g clip-path="url(#pcd6de707af)">
     <use xlink:href="#C0_0_78944dd4ee" x="187.945376" y="166.144193" style="fill: #0d0dff; stroke: #0d0dff; stroke-width: 0.5"/>
    </g>
   </g>
   <g id="text_1">
    <!-- CH3NNi48 -->
    <g transform="translate(125.631427 9.120182) scale(0.1 -0.1)">
     <defs>
      <path id="DejaVuSans-43" d="M 4122 4306 
L 4122 3641 
Q 3803 3938 3442 4084 
Q 3081 4231 2675 4231 
Q 1875 4231 1450 3742 
Q 1025 3253 1025 2328 
Q 1025 1406 1450 917 
Q 1875 428 2675 428 
Q 3081 428 3442 575 
Q 3803 722 4122 1019 
L 4122 359 
Q 3791 134 3420 21 
Q 3050 -91 2638 -91 
Q 1578 -91 968 557 
Q 359 1206 359 2328 
Q 359 3453 968 4101 
Q 1578 4750 2638 4750 
Q 3056 4750 3426 4639 
Q 3797 4528 4122 4306 
z
" transform="scale(0.015625)"/>
      <path id="DejaVuSans-48" d="M 628 4666 
L 1259 4666 
L 1259 2753 
L 3553 2753 
L 3553 4666 
L 4184 4666 
L 4184 0 
L 3553 0 
L 3553 2222 
L 1259 2222 
L 1259 0 
L 628 0 
L 628 4666 
z
" transform="scale(0.015625)"/>
      <path id="DejaVuSans-33" d="M 2597 2516 
Q 3050 2419 3304 2112 
Q 3559 1806 3559 1356 
Q 3559 666 3084 287 
Q 2609 -91 1734 -91 
Q 1441 -91 1130 -33 
Q 819 25 488 141 
L 488 750 
Q 750 597 1062 519 
Q 1375 441 1716 441 
Q 2309 441 2620 675 
Q 2931 909 2931 1356 
Q 2931 1769 2642 2001 
Q 2353 2234 1838 2234 
L 1294 2234 
L 1294 2753 
L 1863 2753 
Q 2328 2753 2575 2939 
Q 2822 3125 2822 3475 
Q 2822 3834 2567 4026 
Q 2313 4219 1838 4219 
Q 1578 4219 1281 4162 
Q 984 4106 628 3988 
L 628 4550 
Q 988 4650 1302 4700 
Q 1616 4750 1894 4750 
Q 2613 4750 3031 4423 
Q 3450 4097 3450 3541 
Q 3450 3153 3228 2886 
Q 3006 2619 2597 2516 
z
" transform="scale(0.015625)"/>
      <path id="DejaVuSans-4e" d="M 628 4666 
L 1478 4666 
L 3547 763 
L 3547 4666 
L 4159 4666 
L 4159 0 
L 3309 0 
L 1241 3903 
L 1241 0 
L 628 0 
L 628 4666 
z
" transform="scale(0.015625)"/>
      <path id="DejaVuSans-69" d="M 603 3500 
L 1178 3500 
L 1178 0 
L 603 0 
L 603 3500 
z
M 603 4863 
L 1178 4863 
L 1178 4134 
L 603 4134 
L 603 4863 
z
" transform="scale(0.015625)"/>
      <path id="DejaVuSans-34" d="M 2419 4116 
L 825 1625 
L 2419 1625 
L 2419 4116 
z
M 2253 4666 
L 3047 4666 
L 3047 1625 
L 3713 1625 
L 3713 1100 
L 3047 1100 
L 3047 0 
L 2419 0 
L 2419 1100 
L 313 1100 
L 313 1709 
L 2253 4666 
z
" transform="scale(0.015625)"/>
      <path id="DejaVuSans-38" d="M 2034 2216 
Q 1584 2216 1326 1975 
Q 1069 1734 1069 1313 
Q 1069 891 1326 650 
Q 1584 409 2034 409 
Q 2484 409 2743 651 
Q 3003 894 3003 1313 
Q 3003 1734 2745 1975 
Q 2488 2216 2034 2216 
z
M 1403 2484 
Q 997 2584 770 2862 
Q 544 3141 544 3541 
Q 544 4100 942 4425 
Q 1341 4750 2034 4750 
Q 2731 4750 3128 4425 
Q 3525 4100 3525 3541 
Q 3525 3141 3298 2862 
Q 3072 2584 2669 2484 
Q 3125 2378 3379 2068 
Q 3634 1759 3634 1313 
Q 3634 634 3220 271 
Q 2806 -91 2034 -91 
Q 1263 -91 848 271 
Q 434 634 434 1313 
Q 434 1759 690 2068 
Q 947 2378 1403 2484 
z
M 1172 3481 
Q 1172 3119 1398 2916 
Q 1625 2713 2034 2713 
Q 2441 2713 2670 2916 
Q 2900 3119 2900 3481 
Q 2900 3844 2670 4047 
Q 2441 4250 2034 4250 
Q 1625 4250 1398 4047 
Q 1172 3844 1172 3481 
z
" transform="scale(0.015625)"/>
     </defs>
     <use xlink:href="#DejaVuSans-43"/>
     <use xlink:href="#DejaVuSans-48" transform="translate(69.824219 0)"/>
     <use xlink:href="#DejaVuSans-33" transform="translate(145.019531 0)"/>
     <use xlink:href="#DejaVuSans-4e" transform="translate(208.642578 0)"/>
     <use xlink:href="#DejaVuSans-4e" transform="translate(283.447266 0)"/>
     <use xlink:href="#DejaVuSans-69" transform="translate(358.251953 0)"/>
     <use xlink:href="#DejaVuSans-34" transform="translate(386.035156 0)"/>
     <use xlink:href="#DejaVuSans-38" transform="translate(449.658203 0)"/>
    </g>
    <!-- Error: -8.26 eV -->
    <g transform="translate(125.631427 20.317995) scale(0.1 -0.1)">
     <defs>
      <path id="DejaVuSans-45" d="M 628 4666 
L 3578 4666 
L 3578 4134 
L 1259 4134 
L 1259 2753 
L 3481 2753 
L 3481 2222 
L 1259 2222 
L 1259 531 
L 3634 531 
L 3634 0 
L 628 0 
L 628 4666 
z
" transform="scale(0.015625)"/>
      <path id="DejaVuSans-72" d="M 2631 2963 
Q 2534 3019 2420 3045 
Q 2306 3072 2169 3072 
Q 1681 3072 1420 2755 
Q 1159 2438 1159 1844 
L 1159 0 
L 581 0 
L 581 3500 
L 1159 3500 
L 1159 2956 
Q 1341 3275 1631 3429 
Q 1922 3584 2338 3584 
Q 2397 3584 2469 3576 
Q 2541 3569 2628 3553 
L 2631 2963 
z
" transform="scale(0.015625)"/>
      <path id="DejaVuSans-6f" d="M 1959 3097 
Q 1497 3097 1228 2736 
Q 959 2375 959 1747 
Q 959 1119 1226 758 
Q 1494 397 1959 397 
Q 2419 397 2687 759 
Q 2956 1122 2956 1747 
Q 2956 2369 2687 2733 
Q 2419 3097 1959 3097 
z
M 1959 3584 
Q 2709 3584 3137 3096 
Q 3566 2609 3566 1747 
Q 3566 888 3137 398 
Q 2709 -91 1959 -91 
Q 1206 -91 779 398 
Q 353 888 353 1747 
Q 353 2609 779 3096 
Q 1206 3584 1959 3584 
z
" transform="scale(0.015625)"/>
      <path id="DejaVuSans-3a" d="M 750 794 
L 1409 794 
L 1409 0 
L 750 0 
L 750 794 
z
M 750 3309 
L 1409 3309 
L 1409 2516 
L 750 2516 
L 750 3309 
z
" transform="scale(0.015625)"/>
      <path id="DejaVuSans-20" transform="scale(0.015625)"/>
      <path id="DejaVuSans-2d" d="M 313 2009 
L 1997 2009 
L 1997 1497 
L 313 1497 
L 313 2009 
z
" transform="scale(0.015625)"/>
      <path id="DejaVuSans-2e" d="M 684 794 
L 1344 794 
L 1344 0 
L 684 0 
L 684 794 
z
" transform="scale(0.015625)"/>
      <path id="DejaVuSans-32" d="M 1228 531 
L 3431 531 
L 3431 0 
L 469 0 
L 469 531 
Q 828 903 1448 1529 
Q 2069 2156 2228 2338 
Q 2531 2678 2651 2914 
Q 2772 3150 2772 3378 
Q 2772 3750 2511 3984 
Q 2250 4219 1831 4219 
Q 1534 4219 1204 4116 
Q 875 4013 500 3803 
L 500 4441 
Q 881 4594 1212 4672 
Q 1544 4750 1819 4750 
Q 2544 4750 2975 4387 
Q 3406 4025 3406 3419 
Q 3406 3131 3298 2873 
Q 3191 2616 2906 2266 
Q 2828 2175 2409 1742 
Q 1991 1309 1228 531 
z
" transform="scale(0.015625)"/>
      <path id="DejaVuSans-36" d="M 2113 2584 
Q 1688 2584 1439 2293 
Q 1191 2003 1191 1497 
Q 1191 994 1439 701 
Q 1688 409 2113 409 
Q 2538 409 2786 701 
Q 3034 994 3034 1497 
Q 3034 2003 2786 2293 
Q 2538 2584 2113 2584 
z
M 3366 4563 
L 3366 3988 
Q 3128 4100 2886 4159 
Q 2644 4219 2406 4219 
Q 1781 4219 1451 3797 
Q 1122 3375 1075 2522 
Q 1259 2794 1537 2939 
Q 1816 3084 2150 3084 
Q 2853 3084 3261 2657 
Q 3669 2231 3669 1497 
Q 3669 778 3244 343 
Q 2819 -91 2113 -91 
Q 1303 -91 875 529 
Q 447 1150 447 2328 
Q 447 3434 972 4092 
Q 1497 4750 2381 4750 
Q 2619 4750 2861 4703 
Q 3103 4656 3366 4563 
z
" transform="scale(0.015625)"/>
      <path id="DejaVuSans-65" d="M 3597 1894 
L 3597 1613 
L 953 1613 
Q 991 1019 1311 708 
Q 1631 397 2203 397 
Q 2534 397 2845 478 
Q 3156 559 3463 722 
L 3463 178 
Q 3153 47 2828 -22 
Q 2503 -91 2169 -91 
Q 1331 -91 842 396 
Q 353 884 353 1716 
Q 353 2575 817 3079 
Q 1281 3584 2069 3584 
Q 2775 3584 3186 3129 
Q 3597 2675 3597 1894 
z
M 3022 2063 
Q 3016 2534 2758 2815 
Q 2500 3097 2075 3097 
Q 1594 3097 1305 2825 
Q 1016 2553 972 2059 
L 3022 2063 
z
" transform="scale(0.015625)"/>
      <path id="DejaVuSans-56" d="M 1831 0 
L 50 4666 
L 709 4666 
L 2188 738 
L 3669 4666 
L 4325 4666 
L 2547 0 
L 1831 0 
z
" transform="scale(0.015625)"/>
     </defs>
     <use xlink:href="#DejaVuSans-45"/>
     <use xlink:href="#DejaVuSans-72" transform="translate(63.183594 0)"/>
     <use xlink:href="#DejaVuSans-72" transform="translate(102.546875 0)"/>
     <use xlink:href="#DejaVuSans-6f" transform="translate(141.410156 0)"/>
     <use xlink:href="#DejaVuSans-72" transform="translate(202.591797 0)"/>
     <use xlink:href="#DejaVuSans-3a" transform="translate(241.955078 0)"/>
     <use xlink:href="#DejaVuSans-20" transform="translate(275.646484 0)"/>
     <use xlink:href="#DejaVuSans-2d" transform="translate(307.433594 0)"/>
     <use xlink:href="#DejaVuSans-38" transform="translate(343.517578 0)"/>
     <use xlink:href="#DejaVuSans-2e" transform="translate(407.140625 0)"/>
     <use xlink:href="#DejaVuSans-32" transform="translate(438.927734 0)"/>
     <use xlink:href="#DejaVuSans-36" transform="translate(502.550781 0)"/>
     <use xlink:href="#DejaVuSans-20" transform="translate(566.173828 0)"/>
     <use xlink:href="#DejaVuSans-65" transform="translate(597.960938 0)"/>
     <use xlink:href="#DejaVuSans-56" transform="translate(659.484375 0)"/>
    </g>
   </g>
  </g>
 </g>
 <defs>
  <clipPath id="pcd6de707af">
   <rect x="36" y="34.56" width="223.2" height="221.76"/>
  </clipPath>
 </defs>
</svg>
