<?xml version="1.0" encoding="utf-8" standalone="no"?>
<!DOCTYPE svg PUBLIC "-//W3C//DTD SVG 1.1//EN"
  "http://www.w3.org/Graphics/SVG/1.1/DTD/svg11.dtd">
<svg xmlns:xlink="http://www.w3.org/1999/xlink" width="288pt" height="288pt" viewBox="0 0 288 288" xmlns="http://www.w3.org/2000/svg" version="1.1">
 <metadata>
  <rdf:RDF xmlns:dc="http://purl.org/dc/elements/1.1/" xmlns:cc="http://creativecommons.org/ns#" xmlns:rdf="http://www.w3.org/1999/02/22-rdf-syntax-ns#">
   <cc:Work>
    <dc:type rdf:resource="http://purl.org/dc/dcmitype/StillImage"/>
    <dc:date>2025-06-30T11:56:48.032761</dc:date>
    <dc:format>image/svg+xml</dc:format>
    <dc:creator>
     <cc:Agent>
      <dc:title>Matplotlib v3.10.1, https://matplotlib.org/</dc:title>
     </cc:Agent>
    </dc:creator>
   </cc:Work>
  </rdf:RDF>
 </metadata>
 <defs>
  <style type="text/css">*{stroke-linejoin: round; stroke-linecap: butt}</style>
 </defs>
 <g id="figure_1">
  <g id="patch_1">
   <path d="M 0 288 
L 288 288 
L 288 0 
L 0 0 
z
" style="fill: #ffffff"/>
  </g>
  <g id="axes_1">
   <g id="LineCollection_1">
    <path d="M 144.371573 57.898645 
L 78.427058 55.670788 
" clip-path="url(#p6168c56f20)" style="fill: none; stroke: #000000; stroke-width: 1.2"/>
    <path d="M 144.371573 57.898645 
L 166.722177 83.072733 
" clip-path="url(#p6168c56f20)" style="fill: none; stroke: #000000; stroke-width: 1.2"/>
    <path d="M 144.371573 57.898645 
L 126.684419 53.803636 
" clip-path="url(#p6168c56f20)" style="fill: none; stroke: #000000; stroke-width: 1.2"/>
    <path d="M 144.371573 57.898645 
L 156.487143 70.305589 
" clip-path="url(#p6168c56f20)" style="fill: none; stroke: #000000; stroke-width: 1.2"/>
    <path d="M 144.371573 57.898645 
L 109.960099 54.726007 
" clip-path="url(#p6168c56f20)" style="fill: none; stroke: #000000; stroke-width: 1.2"/>
    <path d="M 144.371573 57.898645 
L 128.210148 111.548681 
" clip-path="url(#p6168c56f20)" style="fill: none; stroke: #000000; stroke-width: 1.2"/>
    <path d="M 144.371573 57.898645 
L 105.252988 89.390954 
" clip-path="url(#p6168c56f20)" style="fill: none; stroke: #000000; stroke-width: 1.2"/>
    <path d="M 144.371573 57.898645 
L 151.947668 99.753588 
" clip-path="url(#p6168c56f20)" style="fill: none; stroke: #000000; stroke-width: 1.2"/>
    <path d="M 78.427058 55.670788 
L 121.152947 69.49365 
" clip-path="url(#p6168c56f20)" style="fill: none; stroke: #000000; stroke-width: 1.2"/>
    <path d="M 78.427058 55.670788 
L 95.064465 59.69396 
" clip-path="url(#p6168c56f20)" style="fill: none; stroke: #000000; stroke-width: 1.2"/>
    <path d="M 78.427058 55.670788 
L 109.960099 54.726007 
" clip-path="url(#p6168c56f20)" style="fill: none; stroke: #000000; stroke-width: 1.2"/>
    <path d="M 78.427058 55.670788 
L 105.252988 89.390954 
" clip-path="url(#p6168c56f20)" style="fill: none; stroke: #000000; stroke-width: 1.2"/>
    <path d="M 78.427058 55.670788 
L 62.205222 99.965539 
" clip-path="url(#p6168c56f20)" style="fill: none; stroke: #000000; stroke-width: 1.2"/>
    <path d="M 78.427058 55.670788 
L 80.788207 102.775139 
" clip-path="url(#p6168c56f20)" style="fill: none; stroke: #000000; stroke-width: 1.2"/>
    <path d="M 121.152947 69.49365 
L 166.722177 83.072733 
" clip-path="url(#p6168c56f20)" style="fill: none; stroke: #000000; stroke-width: 1.2"/>
    <path d="M 121.152947 69.49365 
L 95.064465 59.69396 
" clip-path="url(#p6168c56f20)" style="fill: none; stroke: #000000; stroke-width: 1.2"/>
    <path d="M 121.152947 69.49365 
L 156.487143 70.305589 
" clip-path="url(#p6168c56f20)" style="fill: none; stroke: #000000; stroke-width: 1.2"/>
    <path d="M 121.152947 69.49365 
L 138.30476 75.555618 
" clip-path="url(#p6168c56f20)" style="fill: none; stroke: #000000; stroke-width: 1.2"/>
    <path d="M 121.152947 69.49365 
L 80.788207 102.775139 
" clip-path="url(#p6168c56f20)" style="fill: none; stroke: #000000; stroke-width: 1.2"/>
    <path d="M 121.152947 69.49365 
L 142.863683 119.33689 
" clip-path="url(#p6168c56f20)" style="fill: none; stroke: #000000; stroke-width: 1.2"/>
    <path d="M 121.152947 69.49365 
L 111.710085 110.543675 
" clip-path="url(#p6168c56f20)" style="fill: none; stroke: #000000; stroke-width: 1.2"/>
    <path d="M 166.722177 83.072733 
L 126.684419 53.803636 
" clip-path="url(#p6168c56f20)" style="fill: none; stroke: #000000; stroke-width: 1.2"/>
    <path d="M 166.722177 83.072733 
L 138.30476 75.555618 
" clip-path="url(#p6168c56f20)" style="fill: none; stroke: #000000; stroke-width: 1.2"/>
    <path d="M 166.722177 83.072733 
L 128.210148 111.548681 
" clip-path="url(#p6168c56f20)" style="fill: none; stroke: #000000; stroke-width: 1.2"/>
    <path d="M 166.722177 83.072733 
L 119.067376 96.638861 
" clip-path="url(#p6168c56f20)" style="fill: none; stroke: #000000; stroke-width: 1.2"/>
    <path d="M 166.722177 83.072733 
L 142.863683 119.33689 
" clip-path="url(#p6168c56f20)" style="fill: none; stroke: #000000; stroke-width: 1.2"/>
    <path d="M 95.064465 59.69396 
L 126.684419 53.803636 
" clip-path="url(#p6168c56f20)" style="fill: none; stroke: #000000; stroke-width: 1.2"/>
    <path d="M 95.064465 59.69396 
L 156.487143 70.305589 
" clip-path="url(#p6168c56f20)" style="fill: none; stroke: #000000; stroke-width: 1.2"/>
    <path d="M 95.064465 59.69396 
L 71.260533 62.170432 
" clip-path="url(#p6168c56f20)" style="fill: none; stroke: #000000; stroke-width: 1.2"/>
    <path d="M 95.064465 59.69396 
L 62.205222 99.965539 
" clip-path="url(#p6168c56f20)" style="fill: none; stroke: #000000; stroke-width: 1.2"/>
    <path d="M 95.064465 59.69396 
L 88.860443 90.405075 
" clip-path="url(#p6168c56f20)" style="fill: none; stroke: #000000; stroke-width: 1.2"/>
    <path d="M 95.064465 59.69396 
L 111.710085 110.543675 
" clip-path="url(#p6168c56f20)" style="fill: none; stroke: #000000; stroke-width: 1.2"/>
    <path d="M 126.684419 53.803636 
L 156.487143 70.305589 
" clip-path="url(#p6168c56f20)" style="fill: none; stroke: #000000; stroke-width: 1.2"/>
    <path d="M 126.684419 53.803636 
L 71.260533 62.170432 
" clip-path="url(#p6168c56f20)" style="fill: none; stroke: #000000; stroke-width: 1.2"/>
    <path d="M 126.684419 53.803636 
L 119.067376 96.638861 
" clip-path="url(#p6168c56f20)" style="fill: none; stroke: #000000; stroke-width: 1.2"/>
    <path d="M 126.684419 53.803636 
L 88.860443 90.405075 
" clip-path="url(#p6168c56f20)" style="fill: none; stroke: #000000; stroke-width: 1.2"/>
    <path d="M 126.684419 53.803636 
L 151.947668 99.753588 
" clip-path="url(#p6168c56f20)" style="fill: none; stroke: #000000; stroke-width: 1.2"/>
    <path d="M 156.487143 70.305589 
L 138.30476 75.555618 
" clip-path="url(#p6168c56f20)" style="fill: none; stroke: #000000; stroke-width: 1.2"/>
    <path d="M 156.487143 70.305589 
L 109.960099 54.726007 
" clip-path="url(#p6168c56f20)" style="fill: none; stroke: #000000; stroke-width: 1.2"/>
    <path d="M 156.487143 70.305589 
L 111.710085 110.543675 
" clip-path="url(#p6168c56f20)" style="fill: none; stroke: #000000; stroke-width: 1.2"/>
    <path d="M 156.487143 70.305589 
L 151.947668 99.753588 
" clip-path="url(#p6168c56f20)" style="fill: none; stroke: #000000; stroke-width: 1.2"/>
    <path d="M 156.487143 70.305589 
L 133.882808 105.727192 
" clip-path="url(#p6168c56f20)" style="fill: none; stroke: #000000; stroke-width: 1.2"/>
    <path d="M 138.30476 75.555618 
L 109.960099 54.726007 
" clip-path="url(#p6168c56f20)" style="fill: none; stroke: #000000; stroke-width: 1.2"/>
    <path d="M 138.30476 75.555618 
L 71.260533 62.170432 
" clip-path="url(#p6168c56f20)" style="fill: none; stroke: #000000; stroke-width: 1.2"/>
    <path d="M 138.30476 75.555618 
L 142.863683 119.33689 
" clip-path="url(#p6168c56f20)" style="fill: none; stroke: #000000; stroke-width: 1.2"/>
    <path d="M 138.30476 75.555618 
L 133.882808 105.727192 
" clip-path="url(#p6168c56f20)" style="fill: none; stroke: #000000; stroke-width: 1.2"/>
    <path d="M 138.30476 75.555618 
L 91.035707 111.112242 
" clip-path="url(#p6168c56f20)" style="fill: none; stroke: #000000; stroke-width: 1.2"/>
    <path d="M 109.960099 54.726007 
L 71.260533 62.170432 
" clip-path="url(#p6168c56f20)" style="fill: none; stroke: #000000; stroke-width: 1.2"/>
    <path d="M 109.960099 54.726007 
L 105.252988 89.390954 
" clip-path="url(#p6168c56f20)" style="fill: none; stroke: #000000; stroke-width: 1.2"/>
    <path d="M 109.960099 54.726007 
L 133.882808 105.727192 
" clip-path="url(#p6168c56f20)" style="fill: none; stroke: #000000; stroke-width: 1.2"/>
    <path d="M 109.960099 54.726007 
L 67.956834 90.761726 
" clip-path="url(#p6168c56f20)" style="fill: none; stroke: #000000; stroke-width: 1.2"/>
    <path d="M 71.260533 62.170432 
L 88.860443 90.405075 
" clip-path="url(#p6168c56f20)" style="fill: none; stroke: #000000; stroke-width: 1.2"/>
    <path d="M 71.260533 62.170432 
L 91.035707 111.112242 
" clip-path="url(#p6168c56f20)" style="fill: none; stroke: #000000; stroke-width: 1.2"/>
    <path d="M 71.260533 62.170432 
L 67.956834 90.761726 
" clip-path="url(#p6168c56f20)" style="fill: none; stroke: #000000; stroke-width: 1.2"/>
    <path d="M 128.210148 111.548681 
L 105.252988 89.390954 
" clip-path="url(#p6168c56f20)" style="fill: none; stroke: #000000; stroke-width: 1.2"/>
    <path d="M 128.210148 111.548681 
L 62.205222 99.965539 
" clip-path="url(#p6168c56f20)" style="fill: none; stroke: #000000; stroke-width: 1.2"/>
    <path d="M 128.210148 111.548681 
L 119.067376 96.638861 
" clip-path="url(#p6168c56f20)" style="fill: none; stroke: #000000; stroke-width: 1.2"/>
    <path d="M 128.210148 111.548681 
L 142.863683 119.33689 
" clip-path="url(#p6168c56f20)" style="fill: none; stroke: #000000; stroke-width: 1.2"/>
    <path d="M 128.210148 111.548681 
L 151.947668 99.753588 
" clip-path="url(#p6168c56f20)" style="fill: none; stroke: #000000; stroke-width: 1.2"/>
    <path d="M 128.210148 111.548681 
L 91.035707 111.112242 
" clip-path="url(#p6168c56f20)" style="fill: none; stroke: #000000; stroke-width: 1.2"/>
    <path d="M 128.210148 111.548681 
L 138.634753 142.950424 
" clip-path="url(#p6168c56f20)" style="fill: none; stroke: #000000; stroke-width: 1.2"/>
    <path d="M 128.210148 111.548681 
L 93.223375 133.153584 
" clip-path="url(#p6168c56f20)" style="fill: none; stroke: #000000; stroke-width: 1.2"/>
    <path d="M 128.210148 111.548681 
L 106.347714 159.233221 
" clip-path="url(#p6168c56f20)" style="fill: none; stroke: #000000; stroke-width: 1.2"/>
    <path d="M 105.252988 89.390954 
L 62.205222 99.965539 
" clip-path="url(#p6168c56f20)" style="fill: none; stroke: #000000; stroke-width: 1.2"/>
    <path d="M 105.252988 89.390954 
L 80.788207 102.775139 
" clip-path="url(#p6168c56f20)" style="fill: none; stroke: #000000; stroke-width: 1.2"/>
    <path d="M 105.252988 89.390954 
L 151.947668 99.753588 
" clip-path="url(#p6168c56f20)" style="fill: none; stroke: #000000; stroke-width: 1.2"/>
    <path d="M 105.252988 89.390954 
L 133.882808 105.727192 
" clip-path="url(#p6168c56f20)" style="fill: none; stroke: #000000; stroke-width: 1.2"/>
    <path d="M 105.252988 89.390954 
L 67.956834 90.761726 
" clip-path="url(#p6168c56f20)" style="fill: none; stroke: #000000; stroke-width: 1.2"/>
    <path d="M 105.252988 89.390954 
L 93.223375 133.153584 
" clip-path="url(#p6168c56f20)" style="fill: none; stroke: #000000; stroke-width: 1.2"/>
    <path d="M 105.252988 89.390954 
L 60.301965 123.993502 
" clip-path="url(#p6168c56f20)" style="fill: none; stroke: #000000; stroke-width: 1.2"/>
    <path d="M 105.252988 89.390954 
L 145.751536 132.810177 
" clip-path="url(#p6168c56f20)" style="fill: none; stroke: #000000; stroke-width: 1.2"/>
    <path d="M 62.205222 99.965539 
L 80.788207 102.775139 
" clip-path="url(#p6168c56f20)" style="fill: none; stroke: #000000; stroke-width: 1.2"/>
    <path d="M 62.205222 99.965539 
L 88.860443 90.405075 
" clip-path="url(#p6168c56f20)" style="fill: none; stroke: #000000; stroke-width: 1.2"/>
    <path d="M 62.205222 99.965539 
L 111.710085 110.543675 
" clip-path="url(#p6168c56f20)" style="fill: none; stroke: #000000; stroke-width: 1.2"/>
    <path d="M 62.205222 99.965539 
L 91.035707 111.112242 
" clip-path="url(#p6168c56f20)" style="fill: none; stroke: #000000; stroke-width: 1.2"/>
    <path d="M 62.205222 99.965539 
L 93.223375 133.153584 
" clip-path="url(#p6168c56f20)" style="fill: none; stroke: #000000; stroke-width: 1.2"/>
    <path d="M 62.205222 99.965539 
L 71.334922 150.190026 
" clip-path="url(#p6168c56f20)" style="fill: none; stroke: #000000; stroke-width: 1.2"/>
    <path d="M 62.205222 99.965539 
L 55.368595 135.530506 
" clip-path="url(#p6168c56f20)" style="fill: none; stroke: #000000; stroke-width: 1.2"/>
    <path d="M 80.788207 102.775139 
L 119.067376 96.638861 
" clip-path="url(#p6168c56f20)" style="fill: none; stroke: #000000; stroke-width: 1.2"/>
    <path d="M 80.788207 102.775139 
L 142.863683 119.33689 
" clip-path="url(#p6168c56f20)" style="fill: none; stroke: #000000; stroke-width: 1.2"/>
    <path d="M 80.788207 102.775139 
L 111.710085 110.543675 
" clip-path="url(#p6168c56f20)" style="fill: none; stroke: #000000; stroke-width: 1.2"/>
    <path d="M 80.788207 102.775139 
L 67.956834 90.761726 
" clip-path="url(#p6168c56f20)" style="fill: none; stroke: #000000; stroke-width: 1.2"/>
    <path d="M 80.788207 102.775139 
L 71.334922 150.190026 
" clip-path="url(#p6168c56f20)" style="fill: none; stroke: #000000; stroke-width: 1.2"/>
    <path d="M 80.788207 102.775139 
L 60.301965 123.993502 
" clip-path="url(#p6168c56f20)" style="fill: none; stroke: #000000; stroke-width: 1.2"/>
    <path d="M 80.788207 102.775139 
L 100.439366 145.061836 
" clip-path="url(#p6168c56f20)" style="fill: none; stroke: #000000; stroke-width: 1.2"/>
    <path d="M 119.067376 96.638861 
L 142.863683 119.33689 
" clip-path="url(#p6168c56f20)" style="fill: none; stroke: #000000; stroke-width: 1.2"/>
    <path d="M 119.067376 96.638861 
L 88.860443 90.405075 
" clip-path="url(#p6168c56f20)" style="fill: none; stroke: #000000; stroke-width: 1.2"/>
    <path d="M 119.067376 96.638861 
L 151.947668 99.753588 
" clip-path="url(#p6168c56f20)" style="fill: none; stroke: #000000; stroke-width: 1.2"/>
    <path d="M 119.067376 96.638861 
L 67.956834 90.761726 
" clip-path="url(#p6168c56f20)" style="fill: none; stroke: #000000; stroke-width: 1.2"/>
    <path d="M 119.067376 96.638861 
L 138.634753 142.950424 
" clip-path="url(#p6168c56f20)" style="fill: none; stroke: #000000; stroke-width: 1.2"/>
    <path d="M 119.067376 96.638861 
L 100.439366 145.061836 
" clip-path="url(#p6168c56f20)" style="fill: none; stroke: #000000; stroke-width: 1.2"/>
    <path d="M 119.067376 96.638861 
L 75.855942 128.371003 
" clip-path="url(#p6168c56f20)" style="fill: none; stroke: #000000; stroke-width: 1.2"/>
    <path d="M 142.863683 119.33689 
L 111.710085 110.543675 
" clip-path="url(#p6168c56f20)" style="fill: none; stroke: #000000; stroke-width: 1.2"/>
    <path d="M 142.863683 119.33689 
L 133.882808 105.727192 
" clip-path="url(#p6168c56f20)" style="fill: none; stroke: #000000; stroke-width: 1.2"/>
    <path d="M 142.863683 119.33689 
L 91.035707 111.112242 
" clip-path="url(#p6168c56f20)" style="fill: none; stroke: #000000; stroke-width: 1.2"/>
    <path d="M 142.863683 119.33689 
L 100.439366 145.061836 
" clip-path="url(#p6168c56f20)" style="fill: none; stroke: #000000; stroke-width: 1.2"/>
    <path d="M 142.863683 119.33689 
L 106.347714 159.233221 
" clip-path="url(#p6168c56f20)" style="fill: none; stroke: #000000; stroke-width: 1.2"/>
    <path d="M 142.863683 119.33689 
L 130.772725 157.146388 
" clip-path="url(#p6168c56f20)" style="fill: none; stroke: #000000; stroke-width: 1.2"/>
    <path d="M 88.860443 90.405075 
L 111.710085 110.543675 
" clip-path="url(#p6168c56f20)" style="fill: none; stroke: #000000; stroke-width: 1.2"/>
    <path d="M 88.860443 90.405075 
L 151.947668 99.753588 
" clip-path="url(#p6168c56f20)" style="fill: none; stroke: #000000; stroke-width: 1.2"/>
    <path d="M 88.860443 90.405075 
L 91.035707 111.112242 
" clip-path="url(#p6168c56f20)" style="fill: none; stroke: #000000; stroke-width: 1.2"/>
    <path d="M 88.860443 90.405075 
L 67.956834 90.761726 
" clip-path="url(#p6168c56f20)" style="fill: none; stroke: #000000; stroke-width: 1.2"/>
    <path d="M 88.860443 90.405075 
L 55.368595 135.530506 
" clip-path="url(#p6168c56f20)" style="fill: none; stroke: #000000; stroke-width: 1.2"/>
    <path d="M 88.860443 90.405075 
L 115.519019 141.511684 
" clip-path="url(#p6168c56f20)" style="fill: none; stroke: #000000; stroke-width: 1.2"/>
    <path d="M 88.860443 90.405075 
L 75.855942 128.371003 
" clip-path="url(#p6168c56f20)" style="fill: none; stroke: #000000; stroke-width: 1.2"/>
    <path d="M 111.710085 110.543675 
L 151.947668 99.753588 
" clip-path="url(#p6168c56f20)" style="fill: none; stroke: #000000; stroke-width: 1.2"/>
    <path d="M 111.710085 110.543675 
L 133.882808 105.727192 
" clip-path="url(#p6168c56f20)" style="fill: none; stroke: #000000; stroke-width: 1.2"/>
    <path d="M 111.710085 110.543675 
L 71.334922 150.190026 
" clip-path="url(#p6168c56f20)" style="fill: none; stroke: #000000; stroke-width: 1.2"/>
    <path d="M 111.710085 110.543675 
L 115.519019 141.511684 
" clip-path="url(#p6168c56f20)" style="fill: none; stroke: #000000; stroke-width: 1.2"/>
    <path d="M 111.710085 110.543675 
L 130.772725 157.146388 
" clip-path="url(#p6168c56f20)" style="fill: none; stroke: #000000; stroke-width: 1.2"/>
    <path d="M 151.947668 99.753588 
L 133.882808 105.727192 
" clip-path="url(#p6168c56f20)" style="fill: none; stroke: #000000; stroke-width: 1.2"/>
    <path d="M 151.947668 99.753588 
L 138.634753 142.950424 
" clip-path="url(#p6168c56f20)" style="fill: none; stroke: #000000; stroke-width: 1.2"/>
    <path d="M 151.947668 99.753588 
L 115.519019 141.511684 
" clip-path="url(#p6168c56f20)" style="fill: none; stroke: #000000; stroke-width: 1.2"/>
    <path d="M 151.947668 99.753588 
L 145.751536 132.810177 
" clip-path="url(#p6168c56f20)" style="fill: none; stroke: #000000; stroke-width: 1.2"/>
    <path d="M 133.882808 105.727192 
L 91.035707 111.112242 
" clip-path="url(#p6168c56f20)" style="fill: none; stroke: #000000; stroke-width: 1.2"/>
    <path d="M 133.882808 105.727192 
L 67.956834 90.761726 
" clip-path="url(#p6168c56f20)" style="fill: none; stroke: #000000; stroke-width: 1.2"/>
    <path d="M 133.882808 105.727192 
L 145.751536 132.810177 
" clip-path="url(#p6168c56f20)" style="fill: none; stroke: #000000; stroke-width: 1.2"/>
    <path d="M 133.882808 105.727192 
L 130.772725 157.146388 
" clip-path="url(#p6168c56f20)" style="fill: none; stroke: #000000; stroke-width: 1.2"/>
    <path d="M 133.882808 105.727192 
L 87.863124 148.89035 
" clip-path="url(#p6168c56f20)" style="fill: none; stroke: #000000; stroke-width: 1.2"/>
    <path d="M 91.035707 111.112242 
L 67.956834 90.761726 
" clip-path="url(#p6168c56f20)" style="fill: none; stroke: #000000; stroke-width: 1.2"/>
    <path d="M 91.035707 111.112242 
L 106.347714 159.233221 
" clip-path="url(#p6168c56f20)" style="fill: none; stroke: #000000; stroke-width: 1.2"/>
    <path d="M 91.035707 111.112242 
L 55.368595 135.530506 
" clip-path="url(#p6168c56f20)" style="fill: none; stroke: #000000; stroke-width: 1.2"/>
    <path d="M 91.035707 111.112242 
L 87.863124 148.89035 
" clip-path="url(#p6168c56f20)" style="fill: none; stroke: #000000; stroke-width: 1.2"/>
    <path d="M 67.956834 90.761726 
L 60.301965 123.993502 
" clip-path="url(#p6168c56f20)" style="fill: none; stroke: #000000; stroke-width: 1.2"/>
    <path d="M 67.956834 90.761726 
L 87.863124 148.89035 
" clip-path="url(#p6168c56f20)" style="fill: none; stroke: #000000; stroke-width: 1.2"/>
    <path d="M 67.956834 90.761726 
L 75.855942 128.371003 
" clip-path="url(#p6168c56f20)" style="fill: none; stroke: #000000; stroke-width: 1.2"/>
    <path d="M 138.634753 142.950424 
L 93.223375 133.153584 
" clip-path="url(#p6168c56f20)" style="fill: none; stroke: #000000; stroke-width: 1.2"/>
    <path d="M 138.634753 142.950424 
L 100.439366 145.061836 
" clip-path="url(#p6168c56f20)" style="fill: none; stroke: #000000; stroke-width: 1.2"/>
    <path d="M 138.634753 142.950424 
L 106.347714 159.233221 
" clip-path="url(#p6168c56f20)" style="fill: none; stroke: #000000; stroke-width: 1.2"/>
    <path d="M 138.634753 142.950424 
L 115.519019 141.511684 
" clip-path="url(#p6168c56f20)" style="fill: none; stroke: #000000; stroke-width: 1.2"/>
    <path d="M 138.634753 142.950424 
L 145.751536 132.810177 
" clip-path="url(#p6168c56f20)" style="fill: none; stroke: #000000; stroke-width: 1.2"/>
    <path d="M 138.634753 142.950424 
L 75.855942 128.371003 
" clip-path="url(#p6168c56f20)" style="fill: none; stroke: #000000; stroke-width: 1.2"/>
    <path d="M 93.223375 133.153584 
L 71.334922 150.190026 
" clip-path="url(#p6168c56f20)" style="fill: none; stroke: #000000; stroke-width: 1.2"/>
    <path d="M 93.223375 133.153584 
L 60.301965 123.993502 
" clip-path="url(#p6168c56f20)" style="fill: none; stroke: #000000; stroke-width: 1.2"/>
    <path d="M 93.223375 133.153584 
L 106.347714 159.233221 
" clip-path="url(#p6168c56f20)" style="fill: none; stroke: #000000; stroke-width: 1.2"/>
    <path d="M 93.223375 133.153584 
L 55.368595 135.530506 
" clip-path="url(#p6168c56f20)" style="fill: none; stroke: #000000; stroke-width: 1.2"/>
    <path d="M 93.223375 133.153584 
L 145.751536 132.810177 
" clip-path="url(#p6168c56f20)" style="fill: none; stroke: #000000; stroke-width: 1.2"/>
    <path d="M 71.334922 150.190026 
L 60.301965 123.993502 
" clip-path="url(#p6168c56f20)" style="fill: none; stroke: #000000; stroke-width: 1.2"/>
    <path d="M 71.334922 150.190026 
L 100.439366 145.061836 
" clip-path="url(#p6168c56f20)" style="fill: none; stroke: #000000; stroke-width: 1.2"/>
    <path d="M 71.334922 150.190026 
L 55.368595 135.530506 
" clip-path="url(#p6168c56f20)" style="fill: none; stroke: #000000; stroke-width: 1.2"/>
    <path d="M 71.334922 150.190026 
L 115.519019 141.511684 
" clip-path="url(#p6168c56f20)" style="fill: none; stroke: #000000; stroke-width: 1.2"/>
    <path d="M 71.334922 150.190026 
L 130.772725 157.146388 
" clip-path="url(#p6168c56f20)" style="fill: none; stroke: #000000; stroke-width: 1.2"/>
    <path d="M 60.301965 123.993502 
L 100.439366 145.061836 
" clip-path="url(#p6168c56f20)" style="fill: none; stroke: #000000; stroke-width: 1.2"/>
    <path d="M 60.301965 123.993502 
L 145.751536 132.810177 
" clip-path="url(#p6168c56f20)" style="fill: none; stroke: #000000; stroke-width: 1.2"/>
    <path d="M 60.301965 123.993502 
L 87.863124 148.89035 
" clip-path="url(#p6168c56f20)" style="fill: none; stroke: #000000; stroke-width: 1.2"/>
    <path d="M 60.301965 123.993502 
L 75.855942 128.371003 
" clip-path="url(#p6168c56f20)" style="fill: none; stroke: #000000; stroke-width: 1.2"/>
    <path d="M 100.439366 145.061836 
L 106.347714 159.233221 
" clip-path="url(#p6168c56f20)" style="fill: none; stroke: #000000; stroke-width: 1.2"/>
    <path d="M 100.439366 145.061836 
L 130.772725 157.146388 
" clip-path="url(#p6168c56f20)" style="fill: none; stroke: #000000; stroke-width: 1.2"/>
    <path d="M 100.439366 145.061836 
L 75.855942 128.371003 
" clip-path="url(#p6168c56f20)" style="fill: none; stroke: #000000; stroke-width: 1.2"/>
    <path d="M 106.347714 159.233221 
L 55.368595 135.530506 
" clip-path="url(#p6168c56f20)" style="fill: none; stroke: #000000; stroke-width: 1.2"/>
    <path d="M 106.347714 159.233221 
L 130.772725 157.146388 
" clip-path="url(#p6168c56f20)" style="fill: none; stroke: #000000; stroke-width: 1.2"/>
    <path d="M 106.347714 159.233221 
L 87.863124 148.89035 
" clip-path="url(#p6168c56f20)" style="fill: none; stroke: #000000; stroke-width: 1.2"/>
    <path d="M 55.368595 135.530506 
L 115.519019 141.511684 
" clip-path="url(#p6168c56f20)" style="fill: none; stroke: #000000; stroke-width: 1.2"/>
    <path d="M 55.368595 135.530506 
L 87.863124 148.89035 
" clip-path="url(#p6168c56f20)" style="fill: none; stroke: #000000; stroke-width: 1.2"/>
    <path d="M 55.368595 135.530506 
L 75.855942 128.371003 
" clip-path="url(#p6168c56f20)" style="fill: none; stroke: #000000; stroke-width: 1.2"/>
    <path d="M 115.519019 141.511684 
L 145.751536 132.810177 
" clip-path="url(#p6168c56f20)" style="fill: none; stroke: #000000; stroke-width: 1.2"/>
    <path d="M 115.519019 141.511684 
L 130.772725 157.146388 
" clip-path="url(#p6168c56f20)" style="fill: none; stroke: #000000; stroke-width: 1.2"/>
    <path d="M 115.519019 141.511684 
L 75.855942 128.371003 
" clip-path="url(#p6168c56f20)" style="fill: none; stroke: #000000; stroke-width: 1.2"/>
    <path d="M 115.519019 141.511684 
L 160.118685 174.697089 
" clip-path="url(#p6168c56f20)" style="fill: none; stroke: #000000; stroke-width: 1.2"/>
    <path d="M 145.751536 132.810177 
L 130.772725 157.146388 
" clip-path="url(#p6168c56f20)" style="fill: none; stroke: #000000; stroke-width: 1.2"/>
    <path d="M 145.751536 132.810177 
L 87.863124 148.89035 
" clip-path="url(#p6168c56f20)" style="fill: none; stroke: #000000; stroke-width: 1.2"/>
    <path d="M 145.751536 132.810177 
L 194.013676 153.740585 
" clip-path="url(#p6168c56f20)" style="fill: none; stroke: #000000; stroke-width: 1.2"/>
    <path d="M 130.772725 157.146388 
L 87.863124 148.89035 
" clip-path="url(#p6168c56f20)" style="fill: none; stroke: #000000; stroke-width: 1.2"/>
    <path d="M 130.772725 157.146388 
L 137.732957 199.771736 
" clip-path="url(#p6168c56f20)" style="fill: none; stroke: #000000; stroke-width: 1.2"/>
    <path d="M 130.772725 157.146388 
L 160.118685 174.697089 
" clip-path="url(#p6168c56f20)" style="fill: none; stroke: #000000; stroke-width: 1.2"/>
    <path d="M 87.863124 148.89035 
L 75.855942 128.371003 
" clip-path="url(#p6168c56f20)" style="fill: none; stroke: #000000; stroke-width: 1.2"/>
    <path d="M 116.538522 237.076364 
L 137.732957 199.771736 
" clip-path="url(#p6168c56f20)" style="fill: none; stroke: #000000; stroke-width: 1.2"/>
    <path d="M 169.491227 229.621042 
L 137.732957 199.771736 
" clip-path="url(#p6168c56f20)" style="fill: none; stroke: #000000; stroke-width: 1.2"/>
    <path d="M 239.831405 161.656226 
L 194.013676 153.740585 
" clip-path="url(#p6168c56f20)" style="fill: none; stroke: #000000; stroke-width: 1.2"/>
    <path d="M 137.732957 199.771736 
L 160.118685 174.697089 
" clip-path="url(#p6168c56f20)" style="fill: none; stroke: #000000; stroke-width: 1.2"/>
    <path d="M 160.118685 174.697089 
L 194.013676 153.740585 
" clip-path="url(#p6168c56f20)" style="fill: none; stroke: #000000; stroke-width: 1.2"/>
   </g>
   <g id="PathCollection_1">
    <defs>
     <path id="C0_0_98f5874569" d="M 0 8.944272 
C 2.372049 8.944272 4.647264 8.001847 6.324555 6.324555 
C 8.001847 4.647264 8.944272 2.372049 8.944272 -0 
C 8.944272 -2.372049 8.001847 -4.647264 6.324555 -6.324555 
C 4.647264 -8.001847 2.372049 -8.944272 0 -8.944272 
C -2.372049 -8.944272 -4.647264 -8.001847 -6.324555 -6.324555 
C -8.001847 -4.647264 -8.944272 -2.372049 -8.944272 0 
C -8.944272 2.372049 -8.001847 4.647264 -6.324555 6.324555 
C -4.647264 8.001847 -2.372049 8.944272 0 8.944272 
z
"/>
    </defs>
    <g clip-path="url(#p6168c56f20)">
     <use xlink:href="#C0_0_98f5874569" x="144.371573" y="57.898645" style="fill: #4fd14f; stroke: #4fd14f; stroke-width: 0.5"/>
    </g>
    <g clip-path="url(#p6168c56f20)">
     <use xlink:href="#C0_0_98f5874569" x="78.427058" y="55.670788" style="fill: #4fd14f; stroke: #4fd14f; stroke-width: 0.5"/>
    </g>
    <g clip-path="url(#p6168c56f20)">
     <use xlink:href="#C0_0_98f5874569" x="121.152947" y="69.49365" style="fill: #4fd14f; stroke: #4fd14f; stroke-width: 0.5"/>
    </g>
    <g clip-path="url(#p6168c56f20)">
     <use xlink:href="#C0_0_98f5874569" x="166.722177" y="83.072733" style="fill: #4fd14f; stroke: #4fd14f; stroke-width: 0.5"/>
    </g>
    <g clip-path="url(#p6168c56f20)">
     <use xlink:href="#C0_0_98f5874569" x="95.064465" y="59.69396" style="fill: #4fd14f; stroke: #4fd14f; stroke-width: 0.5"/>
    </g>
    <g clip-path="url(#p6168c56f20)">
     <use xlink:href="#C0_0_98f5874569" x="126.684419" y="53.803636" style="fill: #4fd14f; stroke: #4fd14f; stroke-width: 0.5"/>
    </g>
    <g clip-path="url(#p6168c56f20)">
     <use xlink:href="#C0_0_98f5874569" x="156.487143" y="70.305589" style="fill: #4fd14f; stroke: #4fd14f; stroke-width: 0.5"/>
    </g>
    <g clip-path="url(#p6168c56f20)">
     <use xlink:href="#C0_0_98f5874569" x="138.30476" y="75.555618" style="fill: #4fd14f; stroke: #4fd14f; stroke-width: 0.5"/>
    </g>
    <g clip-path="url(#p6168c56f20)">
     <use xlink:href="#C0_0_98f5874569" x="109.960099" y="54.726007" style="fill: #4fd14f; stroke: #4fd14f; stroke-width: 0.5"/>
    </g>
    <g clip-path="url(#p6168c56f20)">
     <use xlink:href="#C0_0_98f5874569" x="71.260533" y="62.170432" style="fill: #4fd14f; stroke: #4fd14f; stroke-width: 0.5"/>
    </g>
    <g clip-path="url(#p6168c56f20)">
     <use xlink:href="#C0_0_98f5874569" x="128.210148" y="111.548681" style="fill: #4fd14f; stroke: #4fd14f; stroke-width: 0.5"/>
    </g>
    <g clip-path="url(#p6168c56f20)">
     <use xlink:href="#C0_0_98f5874569" x="105.252988" y="89.390954" style="fill: #4fd14f; stroke: #4fd14f; stroke-width: 0.5"/>
    </g>
    <g clip-path="url(#p6168c56f20)">
     <use xlink:href="#C0_0_98f5874569" x="62.205222" y="99.965539" style="fill: #4fd14f; stroke: #4fd14f; stroke-width: 0.5"/>
    </g>
    <g clip-path="url(#p6168c56f20)">
     <use xlink:href="#C0_0_98f5874569" x="80.788207" y="102.775139" style="fill: #4fd14f; stroke: #4fd14f; stroke-width: 0.5"/>
    </g>
    <g clip-path="url(#p6168c56f20)">
     <use xlink:href="#C0_0_98f5874569" x="119.067376" y="96.638861" style="fill: #4fd14f; stroke: #4fd14f; stroke-width: 0.5"/>
    </g>
    <g clip-path="url(#p6168c56f20)">
     <use xlink:href="#C0_0_98f5874569" x="142.863683" y="119.33689" style="fill: #4fd14f; stroke: #4fd14f; stroke-width: 0.5"/>
    </g>
    <g clip-path="url(#p6168c56f20)">
     <use xlink:href="#C0_0_98f5874569" x="88.860443" y="90.405075" style="fill: #4fd14f; stroke: #4fd14f; stroke-width: 0.5"/>
    </g>
    <g clip-path="url(#p6168c56f20)">
     <use xlink:href="#C0_0_98f5874569" x="111.710085" y="110.543675" style="fill: #4fd14f; stroke: #4fd14f; stroke-width: 0.5"/>
    </g>
    <g clip-path="url(#p6168c56f20)">
     <use xlink:href="#C0_0_98f5874569" x="151.947668" y="99.753588" style="fill: #4fd14f; stroke: #4fd14f; stroke-width: 0.5"/>
    </g>
    <g clip-path="url(#p6168c56f20)">
     <use xlink:href="#C0_0_98f5874569" x="133.882808" y="105.727192" style="fill: #4fd14f; stroke: #4fd14f; stroke-width: 0.5"/>
    </g>
    <g clip-path="url(#p6168c56f20)">
     <use xlink:href="#C0_0_98f5874569" x="91.035707" y="111.112242" style="fill: #4fd14f; stroke: #4fd14f; stroke-width: 0.5"/>
    </g>
    <g clip-path="url(#p6168c56f20)">
     <use xlink:href="#C0_0_98f5874569" x="67.956834" y="90.761726" style="fill: #4fd14f; stroke: #4fd14f; stroke-width: 0.5"/>
    </g>
    <g clip-path="url(#p6168c56f20)">
     <use xlink:href="#C0_0_98f5874569" x="138.634753" y="142.950424" style="fill: #4fd14f; stroke: #4fd14f; stroke-width: 0.5"/>
    </g>
    <g clip-path="url(#p6168c56f20)">
     <use xlink:href="#C0_0_98f5874569" x="93.223375" y="133.153584" style="fill: #4fd14f; stroke: #4fd14f; stroke-width: 0.5"/>
    </g>
    <g clip-path="url(#p6168c56f20)">
     <use xlink:href="#C0_0_98f5874569" x="71.334922" y="150.190026" style="fill: #4fd14f; stroke: #4fd14f; stroke-width: 0.5"/>
    </g>
    <g clip-path="url(#p6168c56f20)">
     <use xlink:href="#C0_0_98f5874569" x="60.301965" y="123.993502" style="fill: #4fd14f; stroke: #4fd14f; stroke-width: 0.5"/>
    </g>
    <g clip-path="url(#p6168c56f20)">
     <use xlink:href="#C0_0_98f5874569" x="100.439366" y="145.061836" style="fill: #4fd14f; stroke: #4fd14f; stroke-width: 0.5"/>
    </g>
    <g clip-path="url(#p6168c56f20)">
     <use xlink:href="#C0_0_98f5874569" x="106.347714" y="159.233221" style="fill: #4fd14f; stroke: #4fd14f; stroke-width: 0.5"/>
    </g>
    <g clip-path="url(#p6168c56f20)">
     <use xlink:href="#C0_0_98f5874569" x="55.368595" y="135.530506" style="fill: #4fd14f; stroke: #4fd14f; stroke-width: 0.5"/>
    </g>
    <g clip-path="url(#p6168c56f20)">
     <use xlink:href="#C0_0_98f5874569" x="115.519019" y="141.511684" style="fill: #4fd14f; stroke: #4fd14f; stroke-width: 0.5"/>
    </g>
    <g clip-path="url(#p6168c56f20)">
     <use xlink:href="#C0_0_98f5874569" x="145.751536" y="132.810177" style="fill: #4fd14f; stroke: #4fd14f; stroke-width: 0.5"/>
    </g>
    <g clip-path="url(#p6168c56f20)">
     <use xlink:href="#C0_0_98f5874569" x="130.772725" y="157.146388" style="fill: #4fd14f; stroke: #4fd14f; stroke-width: 0.5"/>
    </g>
    <g clip-path="url(#p6168c56f20)">
     <use xlink:href="#C0_0_98f5874569" x="87.863124" y="148.89035" style="fill: #4fd14f; stroke: #4fd14f; stroke-width: 0.5"/>
    </g>
    <g clip-path="url(#p6168c56f20)">
     <use xlink:href="#C0_0_98f5874569" x="75.855942" y="128.371003" style="fill: #4fd14f; stroke: #4fd14f; stroke-width: 0.5"/>
    </g>
    <g clip-path="url(#p6168c56f20)">
     <use xlink:href="#C0_0_98f5874569" x="116.538522" y="237.076364" style="fill: #bfbfbf; stroke: #bfbfbf; stroke-width: 0.5"/>
    </g>
    <g clip-path="url(#p6168c56f20)">
     <use xlink:href="#C0_0_98f5874569" x="169.491227" y="229.621042" style="fill: #bfbfbf; stroke: #bfbfbf; stroke-width: 0.5"/>
    </g>
    <g clip-path="url(#p6168c56f20)">
     <use xlink:href="#C0_0_98f5874569" x="239.831405" y="161.656226" style="fill: #bfbfbf; stroke: #bfbfbf; stroke-width: 0.5"/>
    </g>
    <g clip-path="url(#p6168c56f20)">
     <use xlink:href="#C0_0_98f5874569" x="137.732957" y="199.771736" style="fill: #666666; stroke: #666666; stroke-width: 0.5"/>
    </g>
    <g clip-path="url(#p6168c56f20)">
     <use xlink:href="#C0_0_98f5874569" x="160.118685" y="174.697089" style="fill: #0d0dff; stroke: #0d0dff; stroke-width: 0.5"/>
    </g>
    <g clip-path="url(#p6168c56f20)">
     <use xlink:href="#C0_0_98f5874569" x="194.013676" y="153.740585" style="fill: #ff0d0d; stroke: #ff0d0d; stroke-width: 0.5"/>
    </g>
   </g>
   <g id="text_1">
    <!-- CH3NNi48O -->
    <g transform="translate(121.424753 -0.093113) scale(0.1 -0.1)">
     <defs>
      <path id="DejaVuSans-43" d="M 4122 4306 
L 4122 3641 
Q 3803 3938 3442 4084 
Q 3081 4231 2675 4231 
Q 1875 4231 1450 3742 
Q 1025 3253 1025 2328 
Q 1025 1406 1450 917 
Q 1875 428 2675 428 
Q 3081 428 3442 575 
Q 3803 722 4122 1019 
L 4122 359 
Q 3791 134 3420 21 
Q 3050 -91 2638 -91 
Q 1578 -91 968 557 
Q 359 1206 359 2328 
Q 359 3453 968 4101 
Q 1578 4750 2638 4750 
Q 3056 4750 3426 4639 
Q 3797 4528 4122 4306 
z
" transform="scale(0.015625)"/>
      <path id="DejaVuSans-48" d="M 628 4666 
L 1259 4666 
L 1259 2753 
L 3553 2753 
L 3553 4666 
L 4184 4666 
L 4184 0 
L 3553 0 
L 3553 2222 
L 1259 2222 
L 1259 0 
L 628 0 
L 628 4666 
z
" transform="scale(0.015625)"/>
      <path id="DejaVuSans-33" d="M 2597 2516 
Q 3050 2419 3304 2112 
Q 3559 1806 3559 1356 
Q 3559 666 3084 287 
Q 2609 -91 1734 -91 
Q 1441 -91 1130 -33 
Q 819 25 488 141 
L 488 750 
Q 750 597 1062 519 
Q 1375 441 1716 441 
Q 2309 441 2620 675 
Q 2931 909 2931 1356 
Q 2931 1769 2642 2001 
Q 2353 2234 1838 2234 
L 1294 2234 
L 1294 2753 
L 1863 2753 
Q 2328 2753 2575 2939 
Q 2822 3125 2822 3475 
Q 2822 3834 2567 4026 
Q 2313 4219 1838 4219 
Q 1578 4219 1281 4162 
Q 984 4106 628 3988 
L 628 4550 
Q 988 4650 1302 4700 
Q 1616 4750 1894 4750 
Q 2613 4750 3031 4423 
Q 3450 4097 3450 3541 
Q 3450 3153 3228 2886 
Q 3006 2619 2597 2516 
z
" transform="scale(0.015625)"/>
      <path id="DejaVuSans-4e" d="M 628 4666 
L 1478 4666 
L 3547 763 
L 3547 4666 
L 4159 4666 
L 4159 0 
L 3309 0 
L 1241 3903 
L 1241 0 
L 628 0 
L 628 4666 
z
" transform="scale(0.015625)"/>
      <path id="DejaVuSans-69" d="M 603 3500 
L 1178 3500 
L 1178 0 
L 603 0 
L 603 3500 
z
M 603 4863 
L 1178 4863 
L 1178 4134 
L 603 4134 
L 603 4863 
z
" transform="scale(0.015625)"/>
      <path id="DejaVuSans-34" d="M 2419 4116 
L 825 1625 
L 2419 1625 
L 2419 4116 
z
M 2253 4666 
L 3047 4666 
L 3047 1625 
L 3713 1625 
L 3713 1100 
L 3047 1100 
L 3047 0 
L 2419 0 
L 2419 1100 
L 313 1100 
L 313 1709 
L 2253 4666 
z
" transform="scale(0.015625)"/>
      <path id="DejaVuSans-38" d="M 2034 2216 
Q 1584 2216 1326 1975 
Q 1069 1734 1069 1313 
Q 1069 891 1326 650 
Q 1584 409 2034 409 
Q 2484 409 2743 651 
Q 3003 894 3003 1313 
Q 3003 1734 2745 1975 
Q 2488 2216 2034 2216 
z
M 1403 2484 
Q 997 2584 770 2862 
Q 544 3141 544 3541 
Q 544 4100 942 4425 
Q 1341 4750 2034 4750 
Q 2731 4750 3128 4425 
Q 3525 4100 3525 3541 
Q 3525 3141 3298 2862 
Q 3072 2584 2669 2484 
Q 3125 2378 3379 2068 
Q 3634 1759 3634 1313 
Q 3634 634 3220 271 
Q 2806 -91 2034 -91 
Q 1263 -91 848 271 
Q 434 634 434 1313 
Q 434 1759 690 2068 
Q 947 2378 1403 2484 
z
M 1172 3481 
Q 1172 3119 1398 2916 
Q 1625 2713 2034 2713 
Q 2441 2713 2670 2916 
Q 2900 3119 2900 3481 
Q 2900 3844 2670 4047 
Q 2441 4250 2034 4250 
Q 1625 4250 1398 4047 
Q 1172 3844 1172 3481 
z
" transform="scale(0.015625)"/>
      <path id="DejaVuSans-4f" d="M 2522 4238 
Q 1834 4238 1429 3725 
Q 1025 3213 1025 2328 
Q 1025 1447 1429 934 
Q 1834 422 2522 422 
Q 3209 422 3611 934 
Q 4013 1447 4013 2328 
Q 4013 3213 3611 3725 
Q 3209 4238 2522 4238 
z
M 2522 4750 
Q 3503 4750 4090 4092 
Q 4678 3434 4678 2328 
Q 4678 1225 4090 567 
Q 3503 -91 2522 -91 
Q 1538 -91 948 565 
Q 359 1222 359 2328 
Q 359 3434 948 4092 
Q 1538 4750 2522 4750 
z
" transform="scale(0.015625)"/>
     </defs>
     <use xlink:href="#DejaVuSans-43"/>
     <use xlink:href="#DejaVuSans-48" transform="translate(69.824219 0)"/>
     <use xlink:href="#DejaVuSans-33" transform="translate(145.019531 0)"/>
     <use xlink:href="#DejaVuSans-4e" transform="translate(208.642578 0)"/>
     <use xlink:href="#DejaVuSans-4e" transform="translate(283.447266 0)"/>
     <use xlink:href="#DejaVuSans-69" transform="translate(358.251953 0)"/>
     <use xlink:href="#DejaVuSans-34" transform="translate(386.035156 0)"/>
     <use xlink:href="#DejaVuSans-38" transform="translate(449.658203 0)"/>
     <use xlink:href="#DejaVuSans-4f" transform="translate(513.28125 0)"/>
    </g>
    <!-- Error: -9.05 eV -->
    <g transform="translate(121.424753 11.1047) scale(0.1 -0.1)">
     <defs>
      <path id="DejaVuSans-45" d="M 628 4666 
L 3578 4666 
L 3578 4134 
L 1259 4134 
L 1259 2753 
L 3481 2753 
L 3481 2222 
L 1259 2222 
L 1259 531 
L 3634 531 
L 3634 0 
L 628 0 
L 628 4666 
z
" transform="scale(0.015625)"/>
      <path id="DejaVuSans-72" d="M 2631 2963 
Q 2534 3019 2420 3045 
Q 2306 3072 2169 3072 
Q 1681 3072 1420 2755 
Q 1159 2438 1159 1844 
L 1159 0 
L 581 0 
L 581 3500 
L 1159 3500 
L 1159 2956 
Q 1341 3275 1631 3429 
Q 1922 3584 2338 3584 
Q 2397 3584 2469 3576 
Q 2541 3569 2628 3553 
L 2631 2963 
z
" transform="scale(0.015625)"/>
      <path id="DejaVuSans-6f" d="M 1959 3097 
Q 1497 3097 1228 2736 
Q 959 2375 959 1747 
Q 959 1119 1226 758 
Q 1494 397 1959 397 
Q 2419 397 2687 759 
Q 2956 1122 2956 1747 
Q 2956 2369 2687 2733 
Q 2419 3097 1959 3097 
z
M 1959 3584 
Q 2709 3584 3137 3096 
Q 3566 2609 3566 1747 
Q 3566 888 3137 398 
Q 2709 -91 1959 -91 
Q 1206 -91 779 398 
Q 353 888 353 1747 
Q 353 2609 779 3096 
Q 1206 3584 1959 3584 
z
" transform="scale(0.015625)"/>
      <path id="DejaVuSans-3a" d="M 750 794 
L 1409 794 
L 1409 0 
L 750 0 
L 750 794 
z
M 750 3309 
L 1409 3309 
L 1409 2516 
L 750 2516 
L 750 3309 
z
" transform="scale(0.015625)"/>
      <path id="DejaVuSans-20" transform="scale(0.015625)"/>
      <path id="DejaVuSans-2d" d="M 313 2009 
L 1997 2009 
L 1997 1497 
L 313 1497 
L 313 2009 
z
" transform="scale(0.015625)"/>
      <path id="DejaVuSans-39" d="M 703 97 
L 703 672 
Q 941 559 1184 500 
Q 1428 441 1663 441 
Q 2288 441 2617 861 
Q 2947 1281 2994 2138 
Q 2813 1869 2534 1725 
Q 2256 1581 1919 1581 
Q 1219 1581 811 2004 
Q 403 2428 403 3163 
Q 403 3881 828 4315 
Q 1253 4750 1959 4750 
Q 2769 4750 3195 4129 
Q 3622 3509 3622 2328 
Q 3622 1225 3098 567 
Q 2575 -91 1691 -91 
Q 1453 -91 1209 -44 
Q 966 3 703 97 
z
M 1959 2075 
Q 2384 2075 2632 2365 
Q 2881 2656 2881 3163 
Q 2881 3666 2632 3958 
Q 2384 4250 1959 4250 
Q 1534 4250 1286 3958 
Q 1038 3666 1038 3163 
Q 1038 2656 1286 2365 
Q 1534 2075 1959 2075 
z
" transform="scale(0.015625)"/>
      <path id="DejaVuSans-2e" d="M 684 794 
L 1344 794 
L 1344 0 
L 684 0 
L 684 794 
z
" transform="scale(0.015625)"/>
      <path id="DejaVuSans-30" d="M 2034 4250 
Q 1547 4250 1301 3770 
Q 1056 3291 1056 2328 
Q 1056 1369 1301 889 
Q 1547 409 2034 409 
Q 2525 409 2770 889 
Q 3016 1369 3016 2328 
Q 3016 3291 2770 3770 
Q 2525 4250 2034 4250 
z
M 2034 4750 
Q 2819 4750 3233 4129 
Q 3647 3509 3647 2328 
Q 3647 1150 3233 529 
Q 2819 -91 2034 -91 
Q 1250 -91 836 529 
Q 422 1150 422 2328 
Q 422 3509 836 4129 
Q 1250 4750 2034 4750 
z
" transform="scale(0.015625)"/>
      <path id="DejaVuSans-35" d="M 691 4666 
L 3169 4666 
L 3169 4134 
L 1269 4134 
L 1269 2991 
Q 1406 3038 1543 3061 
Q 1681 3084 1819 3084 
Q 2600 3084 3056 2656 
Q 3513 2228 3513 1497 
Q 3513 744 3044 326 
Q 2575 -91 1722 -91 
Q 1428 -91 1123 -41 
Q 819 9 494 109 
L 494 744 
Q 775 591 1075 516 
Q 1375 441 1709 441 
Q 2250 441 2565 725 
Q 2881 1009 2881 1497 
Q 2881 1984 2565 2268 
Q 2250 2553 1709 2553 
Q 1456 2553 1204 2497 
Q 953 2441 691 2322 
L 691 4666 
z
" transform="scale(0.015625)"/>
      <path id="DejaVuSans-65" d="M 3597 1894 
L 3597 1613 
L 953 1613 
Q 991 1019 1311 708 
Q 1631 397 2203 397 
Q 2534 397 2845 478 
Q 3156 559 3463 722 
L 3463 178 
Q 3153 47 2828 -22 
Q 2503 -91 2169 -91 
Q 1331 -91 842 396 
Q 353 884 353 1716 
Q 353 2575 817 3079 
Q 1281 3584 2069 3584 
Q 2775 3584 3186 3129 
Q 3597 2675 3597 1894 
z
M 3022 2063 
Q 3016 2534 2758 2815 
Q 2500 3097 2075 3097 
Q 1594 3097 1305 2825 
Q 1016 2553 972 2059 
L 3022 2063 
z
" transform="scale(0.015625)"/>
      <path id="DejaVuSans-56" d="M 1831 0 
L 50 4666 
L 709 4666 
L 2188 738 
L 3669 4666 
L 4325 4666 
L 2547 0 
L 1831 0 
z
" transform="scale(0.015625)"/>
     </defs>
     <use xlink:href="#DejaVuSans-45"/>
     <use xlink:href="#DejaVuSans-72" transform="translate(63.183594 0)"/>
     <use xlink:href="#DejaVuSans-72" transform="translate(102.546875 0)"/>
     <use xlink:href="#DejaVuSans-6f" transform="translate(141.410156 0)"/>
     <use xlink:href="#DejaVuSans-72" transform="translate(202.591797 0)"/>
     <use xlink:href="#DejaVuSans-3a" transform="translate(241.955078 0)"/>
     <use xlink:href="#DejaVuSans-20" transform="translate(275.646484 0)"/>
     <use xlink:href="#DejaVuSans-2d" transform="translate(307.433594 0)"/>
     <use xlink:href="#DejaVuSans-39" transform="translate(343.517578 0)"/>
     <use xlink:href="#DejaVuSans-2e" transform="translate(407.140625 0)"/>
     <use xlink:href="#DejaVuSans-30" transform="translate(438.927734 0)"/>
     <use xlink:href="#DejaVuSans-35" transform="translate(502.550781 0)"/>
     <use xlink:href="#DejaVuSans-20" transform="translate(566.173828 0)"/>
     <use xlink:href="#DejaVuSans-65" transform="translate(597.960938 0)"/>
     <use xlink:href="#DejaVuSans-56" transform="translate(659.484375 0)"/>
    </g>
   </g>
  </g>
 </g>
 <defs>
  <clipPath id="p6168c56f20">
   <rect x="36" y="34.56" width="223.2" height="221.76"/>
  </clipPath>
 </defs>
</svg>
