<?xml version="1.0" encoding="utf-8" standalone="no"?>
<!DOCTYPE svg PUBLIC "-//W3C//DTD SVG 1.1//EN"
  "http://www.w3.org/Graphics/SVG/1.1/DTD/svg11.dtd">
<svg xmlns:xlink="http://www.w3.org/1999/xlink" width="288pt" height="288pt" viewBox="0 0 288 288" xmlns="http://www.w3.org/2000/svg" version="1.1">
 <metadata>
  <rdf:RDF xmlns:dc="http://purl.org/dc/elements/1.1/" xmlns:cc="http://creativecommons.org/ns#" xmlns:rdf="http://www.w3.org/1999/02/22-rdf-syntax-ns#">
   <cc:Work>
    <dc:type rdf:resource="http://purl.org/dc/dcmitype/StillImage"/>
    <dc:date>2025-06-30T11:56:43.764033</dc:date>
    <dc:format>image/svg+xml</dc:format>
    <dc:creator>
     <cc:Agent>
      <dc:title>Matplotlib v3.10.1, https://matplotlib.org/</dc:title>
     </cc:Agent>
    </dc:creator>
   </cc:Work>
  </rdf:RDF>
 </metadata>
 <defs>
  <style type="text/css">*{stroke-linejoin: round; stroke-linecap: butt}</style>
 </defs>
 <g id="figure_1">
  <g id="patch_1">
   <path d="M 0 288 
L 288 288 
L 288 0 
L 0 0 
z
" style="fill: #ffffff"/>
  </g>
  <g id="axes_1">
   <g id="LineCollection_1">
    <path d="M 90.748926 65.293495 
L 110.076591 61.551937 
" clip-path="url(#pd4a99a666c)" style="fill: none; stroke: #000000; stroke-width: 1.2"/>
    <path d="M 90.748926 65.293495 
L 127.007524 70.416357 
" clip-path="url(#pd4a99a666c)" style="fill: none; stroke: #000000; stroke-width: 1.2"/>
    <path d="M 90.748926 65.293495 
L 135.097495 53.803636 
" clip-path="url(#pd4a99a666c)" style="fill: none; stroke: #000000; stroke-width: 1.2"/>
    <path d="M 90.748926 65.293495 
L 151.990953 64.492143 
" clip-path="url(#pd4a99a666c)" style="fill: none; stroke: #000000; stroke-width: 1.2"/>
    <path d="M 90.748926 65.293495 
L 59.831729 85.811605 
" clip-path="url(#pd4a99a666c)" style="fill: none; stroke: #000000; stroke-width: 1.2"/>
    <path d="M 90.748926 65.293495 
L 66.789067 101.360156 
" clip-path="url(#pd4a99a666c)" style="fill: none; stroke: #000000; stroke-width: 1.2"/>
    <path d="M 90.748926 65.293495 
L 147.338509 91.044186 
" clip-path="url(#pd4a99a666c)" style="fill: none; stroke: #000000; stroke-width: 1.2"/>
    <path d="M 90.748926 65.293495 
L 94.213753 104.331335 
" clip-path="url(#pd4a99a666c)" style="fill: none; stroke: #000000; stroke-width: 1.2"/>
    <path d="M 90.748926 65.293495 
L 109.356862 109.638312 
" clip-path="url(#pd4a99a666c)" style="fill: none; stroke: #000000; stroke-width: 1.2"/>
    <path d="M 110.076591 61.551937 
L 127.007524 70.416357 
" clip-path="url(#pd4a99a666c)" style="fill: none; stroke: #000000; stroke-width: 1.2"/>
    <path d="M 110.076591 61.551937 
L 135.097495 53.803636 
" clip-path="url(#pd4a99a666c)" style="fill: none; stroke: #000000; stroke-width: 1.2"/>
    <path d="M 110.076591 61.551937 
L 168.506172 67.511681 
" clip-path="url(#pd4a99a666c)" style="fill: none; stroke: #000000; stroke-width: 1.2"/>
    <path d="M 110.076591 61.551937 
L 59.831729 85.811605 
" clip-path="url(#pd4a99a666c)" style="fill: none; stroke: #000000; stroke-width: 1.2"/>
    <path d="M 110.076591 61.551937 
L 81.947057 90.844407 
" clip-path="url(#pd4a99a666c)" style="fill: none; stroke: #000000; stroke-width: 1.2"/>
    <path d="M 110.076591 61.551937 
L 163.875297 88.838734 
" clip-path="url(#pd4a99a666c)" style="fill: none; stroke: #000000; stroke-width: 1.2"/>
    <path d="M 110.076591 61.551937 
L 94.213753 104.331335 
" clip-path="url(#pd4a99a666c)" style="fill: none; stroke: #000000; stroke-width: 1.2"/>
    <path d="M 110.076591 61.551937 
L 130.563231 110.94048 
" clip-path="url(#pd4a99a666c)" style="fill: none; stroke: #000000; stroke-width: 1.2"/>
    <path d="M 127.007524 70.416357 
L 168.506172 67.511681 
" clip-path="url(#pd4a99a666c)" style="fill: none; stroke: #000000; stroke-width: 1.2"/>
    <path d="M 127.007524 70.416357 
L 151.990953 64.492143 
" clip-path="url(#pd4a99a666c)" style="fill: none; stroke: #000000; stroke-width: 1.2"/>
    <path d="M 127.007524 70.416357 
L 81.947057 90.844407 
" clip-path="url(#pd4a99a666c)" style="fill: none; stroke: #000000; stroke-width: 1.2"/>
    <path d="M 127.007524 70.416357 
L 66.789067 101.360156 
" clip-path="url(#pd4a99a666c)" style="fill: none; stroke: #000000; stroke-width: 1.2"/>
    <path d="M 127.007524 70.416357 
L 178.054578 98.103694 
" clip-path="url(#pd4a99a666c)" style="fill: none; stroke: #000000; stroke-width: 1.2"/>
    <path d="M 127.007524 70.416357 
L 130.563231 110.94048 
" clip-path="url(#pd4a99a666c)" style="fill: none; stroke: #000000; stroke-width: 1.2"/>
    <path d="M 127.007524 70.416357 
L 109.356862 109.638312 
" clip-path="url(#pd4a99a666c)" style="fill: none; stroke: #000000; stroke-width: 1.2"/>
    <path d="M 135.097495 53.803636 
L 168.506172 67.511681 
" clip-path="url(#pd4a99a666c)" style="fill: none; stroke: #000000; stroke-width: 1.2"/>
    <path d="M 135.097495 53.803636 
L 151.990953 64.492143 
" clip-path="url(#pd4a99a666c)" style="fill: none; stroke: #000000; stroke-width: 1.2"/>
    <path d="M 135.097495 53.803636 
L 91.836799 80.503012 
" clip-path="url(#pd4a99a666c)" style="fill: none; stroke: #000000; stroke-width: 1.2"/>
    <path d="M 135.097495 53.803636 
L 110.431302 75.694459 
" clip-path="url(#pd4a99a666c)" style="fill: none; stroke: #000000; stroke-width: 1.2"/>
    <path d="M 135.097495 53.803636 
L 147.338509 91.044186 
" clip-path="url(#pd4a99a666c)" style="fill: none; stroke: #000000; stroke-width: 1.2"/>
    <path d="M 135.097495 53.803636 
L 163.875297 88.838734 
" clip-path="url(#pd4a99a666c)" style="fill: none; stroke: #000000; stroke-width: 1.2"/>
    <path d="M 135.097495 53.803636 
L 123.445431 104.300729 
" clip-path="url(#pd4a99a666c)" style="fill: none; stroke: #000000; stroke-width: 1.2"/>
    <path d="M 168.506172 67.511681 
L 151.990953 64.492143 
" clip-path="url(#pd4a99a666c)" style="fill: none; stroke: #000000; stroke-width: 1.2"/>
    <path d="M 168.506172 67.511681 
L 110.431302 75.694459 
" clip-path="url(#pd4a99a666c)" style="fill: none; stroke: #000000; stroke-width: 1.2"/>
    <path d="M 168.506172 67.511681 
L 126.004892 86.215629 
" clip-path="url(#pd4a99a666c)" style="fill: none; stroke: #000000; stroke-width: 1.2"/>
    <path d="M 168.506172 67.511681 
L 163.875297 88.838734 
" clip-path="url(#pd4a99a666c)" style="fill: none; stroke: #000000; stroke-width: 1.2"/>
    <path d="M 168.506172 67.511681 
L 178.054578 98.103694 
" clip-path="url(#pd4a99a666c)" style="fill: none; stroke: #000000; stroke-width: 1.2"/>
    <path d="M 168.506172 67.511681 
L 157.412718 115.441503 
" clip-path="url(#pd4a99a666c)" style="fill: none; stroke: #000000; stroke-width: 1.2"/>
    <path d="M 151.990953 64.492143 
L 91.836799 80.503012 
" clip-path="url(#pd4a99a666c)" style="fill: none; stroke: #000000; stroke-width: 1.2"/>
    <path d="M 151.990953 64.492143 
L 126.004892 86.215629 
" clip-path="url(#pd4a99a666c)" style="fill: none; stroke: #000000; stroke-width: 1.2"/>
    <path d="M 151.990953 64.492143 
L 147.338509 91.044186 
" clip-path="url(#pd4a99a666c)" style="fill: none; stroke: #000000; stroke-width: 1.2"/>
    <path d="M 151.990953 64.492143 
L 178.054578 98.103694 
" clip-path="url(#pd4a99a666c)" style="fill: none; stroke: #000000; stroke-width: 1.2"/>
    <path d="M 151.990953 64.492143 
L 141.632685 118.671962 
" clip-path="url(#pd4a99a666c)" style="fill: none; stroke: #000000; stroke-width: 1.2"/>
    <path d="M 91.836799 80.503012 
L 110.431302 75.694459 
" clip-path="url(#pd4a99a666c)" style="fill: none; stroke: #000000; stroke-width: 1.2"/>
    <path d="M 91.836799 80.503012 
L 126.004892 86.215629 
" clip-path="url(#pd4a99a666c)" style="fill: none; stroke: #000000; stroke-width: 1.2"/>
    <path d="M 91.836799 80.503012 
L 59.831729 85.811605 
" clip-path="url(#pd4a99a666c)" style="fill: none; stroke: #000000; stroke-width: 1.2"/>
    <path d="M 91.836799 80.503012 
L 66.789067 101.360156 
" clip-path="url(#pd4a99a666c)" style="fill: none; stroke: #000000; stroke-width: 1.2"/>
    <path d="M 91.836799 80.503012 
L 123.445431 104.300729 
" clip-path="url(#pd4a99a666c)" style="fill: none; stroke: #000000; stroke-width: 1.2"/>
    <path d="M 91.836799 80.503012 
L 141.632685 118.671962 
" clip-path="url(#pd4a99a666c)" style="fill: none; stroke: #000000; stroke-width: 1.2"/>
    <path d="M 91.836799 80.503012 
L 74.143234 125.247254 
" clip-path="url(#pd4a99a666c)" style="fill: none; stroke: #000000; stroke-width: 1.2"/>
    <path d="M 110.431302 75.694459 
L 126.004892 86.215629 
" clip-path="url(#pd4a99a666c)" style="fill: none; stroke: #000000; stroke-width: 1.2"/>
    <path d="M 110.431302 75.694459 
L 59.831729 85.811605 
" clip-path="url(#pd4a99a666c)" style="fill: none; stroke: #000000; stroke-width: 1.2"/>
    <path d="M 110.431302 75.694459 
L 81.947057 90.844407 
" clip-path="url(#pd4a99a666c)" style="fill: none; stroke: #000000; stroke-width: 1.2"/>
    <path d="M 110.431302 75.694459 
L 123.445431 104.300729 
" clip-path="url(#pd4a99a666c)" style="fill: none; stroke: #000000; stroke-width: 1.2"/>
    <path d="M 110.431302 75.694459 
L 157.412718 115.441503 
" clip-path="url(#pd4a99a666c)" style="fill: none; stroke: #000000; stroke-width: 1.2"/>
    <path d="M 110.431302 75.694459 
L 90.568099 125.537166 
" clip-path="url(#pd4a99a666c)" style="fill: none; stroke: #000000; stroke-width: 1.2"/>
    <path d="M 126.004892 86.215629 
L 81.947057 90.844407 
" clip-path="url(#pd4a99a666c)" style="fill: none; stroke: #000000; stroke-width: 1.2"/>
    <path d="M 126.004892 86.215629 
L 66.789067 101.360156 
" clip-path="url(#pd4a99a666c)" style="fill: none; stroke: #000000; stroke-width: 1.2"/>
    <path d="M 126.004892 86.215629 
L 157.412718 115.441503 
" clip-path="url(#pd4a99a666c)" style="fill: none; stroke: #000000; stroke-width: 1.2"/>
    <path d="M 126.004892 86.215629 
L 141.632685 118.671962 
" clip-path="url(#pd4a99a666c)" style="fill: none; stroke: #000000; stroke-width: 1.2"/>
    <path d="M 126.004892 86.215629 
L 105.745481 133.671104 
" clip-path="url(#pd4a99a666c)" style="fill: none; stroke: #000000; stroke-width: 1.2"/>
    <path d="M 59.831729 85.811605 
L 81.947057 90.844407 
" clip-path="url(#pd4a99a666c)" style="fill: none; stroke: #000000; stroke-width: 1.2"/>
    <path d="M 59.831729 85.811605 
L 66.789067 101.360156 
" clip-path="url(#pd4a99a666c)" style="fill: none; stroke: #000000; stroke-width: 1.2"/>
    <path d="M 59.831729 85.811605 
L 74.143234 125.247254 
" clip-path="url(#pd4a99a666c)" style="fill: none; stroke: #000000; stroke-width: 1.2"/>
    <path d="M 59.831729 85.811605 
L 90.568099 125.537166 
" clip-path="url(#pd4a99a666c)" style="fill: none; stroke: #000000; stroke-width: 1.2"/>
    <path d="M 59.831729 85.811605 
L 94.213753 104.331335 
" clip-path="url(#pd4a99a666c)" style="fill: none; stroke: #000000; stroke-width: 1.2"/>
    <path d="M 81.947057 90.844407 
L 66.789067 101.360156 
" clip-path="url(#pd4a99a666c)" style="fill: none; stroke: #000000; stroke-width: 1.2"/>
    <path d="M 81.947057 90.844407 
L 90.568099 125.537166 
" clip-path="url(#pd4a99a666c)" style="fill: none; stroke: #000000; stroke-width: 1.2"/>
    <path d="M 81.947057 90.844407 
L 105.745481 133.671104 
" clip-path="url(#pd4a99a666c)" style="fill: none; stroke: #000000; stroke-width: 1.2"/>
    <path d="M 81.947057 90.844407 
L 130.563231 110.94048 
" clip-path="url(#pd4a99a666c)" style="fill: none; stroke: #000000; stroke-width: 1.2"/>
    <path d="M 66.789067 101.360156 
L 74.143234 125.247254 
" clip-path="url(#pd4a99a666c)" style="fill: none; stroke: #000000; stroke-width: 1.2"/>
    <path d="M 66.789067 101.360156 
L 105.745481 133.671104 
" clip-path="url(#pd4a99a666c)" style="fill: none; stroke: #000000; stroke-width: 1.2"/>
    <path d="M 66.789067 101.360156 
L 109.356862 109.638312 
" clip-path="url(#pd4a99a666c)" style="fill: none; stroke: #000000; stroke-width: 1.2"/>
    <path d="M 147.338509 91.044186 
L 163.875297 88.838734 
" clip-path="url(#pd4a99a666c)" style="fill: none; stroke: #000000; stroke-width: 1.2"/>
    <path d="M 147.338509 91.044186 
L 178.054578 98.103694 
" clip-path="url(#pd4a99a666c)" style="fill: none; stroke: #000000; stroke-width: 1.2"/>
    <path d="M 147.338509 91.044186 
L 123.445431 104.300729 
" clip-path="url(#pd4a99a666c)" style="fill: none; stroke: #000000; stroke-width: 1.2"/>
    <path d="M 147.338509 91.044186 
L 141.632685 118.671962 
" clip-path="url(#pd4a99a666c)" style="fill: none; stroke: #000000; stroke-width: 1.2"/>
    <path d="M 147.338509 91.044186 
L 94.213753 104.331335 
" clip-path="url(#pd4a99a666c)" style="fill: none; stroke: #000000; stroke-width: 1.2"/>
    <path d="M 147.338509 91.044186 
L 109.356862 109.638312 
" clip-path="url(#pd4a99a666c)" style="fill: none; stroke: #000000; stroke-width: 1.2"/>
    <path d="M 147.338509 91.044186 
L 123.76318 135.544904 
" clip-path="url(#pd4a99a666c)" style="fill: none; stroke: #000000; stroke-width: 1.2"/>
    <path d="M 147.338509 91.044186 
L 174.907217 118.402899 
" clip-path="url(#pd4a99a666c)" style="fill: none; stroke: #000000; stroke-width: 1.2"/>
    <path d="M 147.338509 91.044186 
L 180.804538 135.722722 
" clip-path="url(#pd4a99a666c)" style="fill: none; stroke: #000000; stroke-width: 1.2"/>
    <path d="M 163.875297 88.838734 
L 178.054578 98.103694 
" clip-path="url(#pd4a99a666c)" style="fill: none; stroke: #000000; stroke-width: 1.2"/>
    <path d="M 163.875297 88.838734 
L 123.445431 104.300729 
" clip-path="url(#pd4a99a666c)" style="fill: none; stroke: #000000; stroke-width: 1.2"/>
    <path d="M 163.875297 88.838734 
L 157.412718 115.441503 
" clip-path="url(#pd4a99a666c)" style="fill: none; stroke: #000000; stroke-width: 1.2"/>
    <path d="M 163.875297 88.838734 
L 94.213753 104.331335 
" clip-path="url(#pd4a99a666c)" style="fill: none; stroke: #000000; stroke-width: 1.2"/>
    <path d="M 163.875297 88.838734 
L 130.563231 110.94048 
" clip-path="url(#pd4a99a666c)" style="fill: none; stroke: #000000; stroke-width: 1.2"/>
    <path d="M 163.875297 88.838734 
L 145.072976 135.161907 
" clip-path="url(#pd4a99a666c)" style="fill: none; stroke: #000000; stroke-width: 1.2"/>
    <path d="M 163.875297 88.838734 
L 174.907217 118.402899 
" clip-path="url(#pd4a99a666c)" style="fill: none; stroke: #000000; stroke-width: 1.2"/>
    <path d="M 163.875297 88.838734 
L 193.917019 129.176868 
" clip-path="url(#pd4a99a666c)" style="fill: none; stroke: #000000; stroke-width: 1.2"/>
    <path d="M 178.054578 98.103694 
L 157.412718 115.441503 
" clip-path="url(#pd4a99a666c)" style="fill: none; stroke: #000000; stroke-width: 1.2"/>
    <path d="M 178.054578 98.103694 
L 141.632685 118.671962 
" clip-path="url(#pd4a99a666c)" style="fill: none; stroke: #000000; stroke-width: 1.2"/>
    <path d="M 178.054578 98.103694 
L 130.563231 110.94048 
" clip-path="url(#pd4a99a666c)" style="fill: none; stroke: #000000; stroke-width: 1.2"/>
    <path d="M 178.054578 98.103694 
L 109.356862 109.638312 
" clip-path="url(#pd4a99a666c)" style="fill: none; stroke: #000000; stroke-width: 1.2"/>
    <path d="M 178.054578 98.103694 
L 160.47674 143.777921 
" clip-path="url(#pd4a99a666c)" style="fill: none; stroke: #000000; stroke-width: 1.2"/>
    <path d="M 178.054578 98.103694 
L 193.917019 129.176868 
" clip-path="url(#pd4a99a666c)" style="fill: none; stroke: #000000; stroke-width: 1.2"/>
    <path d="M 178.054578 98.103694 
L 180.804538 135.722722 
" clip-path="url(#pd4a99a666c)" style="fill: none; stroke: #000000; stroke-width: 1.2"/>
    <path d="M 123.445431 104.300729 
L 157.412718 115.441503 
" clip-path="url(#pd4a99a666c)" style="fill: none; stroke: #000000; stroke-width: 1.2"/>
    <path d="M 123.445431 104.300729 
L 141.632685 118.671962 
" clip-path="url(#pd4a99a666c)" style="fill: none; stroke: #000000; stroke-width: 1.2"/>
    <path d="M 123.445431 104.300729 
L 74.143234 125.247254 
" clip-path="url(#pd4a99a666c)" style="fill: none; stroke: #000000; stroke-width: 1.2"/>
    <path d="M 123.445431 104.300729 
L 90.568099 125.537166 
" clip-path="url(#pd4a99a666c)" style="fill: none; stroke: #000000; stroke-width: 1.2"/>
    <path d="M 123.445431 104.300729 
L 174.907217 118.402899 
" clip-path="url(#pd4a99a666c)" style="fill: none; stroke: #000000; stroke-width: 1.2"/>
    <path d="M 123.445431 104.300729 
L 124.987587 149.873097 
" clip-path="url(#pd4a99a666c)" style="fill: none; stroke: #000000; stroke-width: 1.2"/>
    <path d="M 123.445431 104.300729 
L 141.355909 153.064448 
" clip-path="url(#pd4a99a666c)" style="fill: none; stroke: #000000; stroke-width: 1.2"/>
    <path d="M 157.412718 115.441503 
L 141.632685 118.671962 
" clip-path="url(#pd4a99a666c)" style="fill: none; stroke: #000000; stroke-width: 1.2"/>
    <path d="M 157.412718 115.441503 
L 90.568099 125.537166 
" clip-path="url(#pd4a99a666c)" style="fill: none; stroke: #000000; stroke-width: 1.2"/>
    <path d="M 157.412718 115.441503 
L 105.745481 133.671104 
" clip-path="url(#pd4a99a666c)" style="fill: none; stroke: #000000; stroke-width: 1.2"/>
    <path d="M 157.412718 115.441503 
L 193.917019 129.176868 
" clip-path="url(#pd4a99a666c)" style="fill: none; stroke: #000000; stroke-width: 1.2"/>
    <path d="M 157.412718 115.441503 
L 141.355909 153.064448 
" clip-path="url(#pd4a99a666c)" style="fill: none; stroke: #000000; stroke-width: 1.2"/>
    <path d="M 157.412718 115.441503 
L 160.318076 161.35123 
" clip-path="url(#pd4a99a666c)" style="fill: none; stroke: #000000; stroke-width: 1.2"/>
    <path d="M 141.632685 118.671962 
L 74.143234 125.247254 
" clip-path="url(#pd4a99a666c)" style="fill: none; stroke: #000000; stroke-width: 1.2"/>
    <path d="M 141.632685 118.671962 
L 105.745481 133.671104 
" clip-path="url(#pd4a99a666c)" style="fill: none; stroke: #000000; stroke-width: 1.2"/>
    <path d="M 141.632685 118.671962 
L 180.804538 135.722722 
" clip-path="url(#pd4a99a666c)" style="fill: none; stroke: #000000; stroke-width: 1.2"/>
    <path d="M 141.632685 118.671962 
L 124.987587 149.873097 
" clip-path="url(#pd4a99a666c)" style="fill: none; stroke: #000000; stroke-width: 1.2"/>
    <path d="M 141.632685 118.671962 
L 160.318076 161.35123 
" clip-path="url(#pd4a99a666c)" style="fill: none; stroke: #000000; stroke-width: 1.2"/>
    <path d="M 74.143234 125.247254 
L 90.568099 125.537166 
" clip-path="url(#pd4a99a666c)" style="fill: none; stroke: #000000; stroke-width: 1.2"/>
    <path d="M 74.143234 125.247254 
L 105.745481 133.671104 
" clip-path="url(#pd4a99a666c)" style="fill: none; stroke: #000000; stroke-width: 1.2"/>
    <path d="M 74.143234 125.247254 
L 94.213753 104.331335 
" clip-path="url(#pd4a99a666c)" style="fill: none; stroke: #000000; stroke-width: 1.2"/>
    <path d="M 74.143234 125.247254 
L 109.356862 109.638312 
" clip-path="url(#pd4a99a666c)" style="fill: none; stroke: #000000; stroke-width: 1.2"/>
    <path d="M 74.143234 125.247254 
L 124.987587 149.873097 
" clip-path="url(#pd4a99a666c)" style="fill: none; stroke: #000000; stroke-width: 1.2"/>
    <path d="M 74.143234 125.247254 
L 83.859208 153.319392 
" clip-path="url(#pd4a99a666c)" style="fill: none; stroke: #000000; stroke-width: 1.2"/>
    <path d="M 74.143234 125.247254 
L 101.388063 159.122344 
" clip-path="url(#pd4a99a666c)" style="fill: none; stroke: #000000; stroke-width: 1.2"/>
    <path d="M 90.568099 125.537166 
L 105.745481 133.671104 
" clip-path="url(#pd4a99a666c)" style="fill: none; stroke: #000000; stroke-width: 1.2"/>
    <path d="M 90.568099 125.537166 
L 94.213753 104.331335 
" clip-path="url(#pd4a99a666c)" style="fill: none; stroke: #000000; stroke-width: 1.2"/>
    <path d="M 90.568099 125.537166 
L 130.563231 110.94048 
" clip-path="url(#pd4a99a666c)" style="fill: none; stroke: #000000; stroke-width: 1.2"/>
    <path d="M 90.568099 125.537166 
L 141.355909 153.064448 
" clip-path="url(#pd4a99a666c)" style="fill: none; stroke: #000000; stroke-width: 1.2"/>
    <path d="M 90.568099 125.537166 
L 83.859208 153.319392 
" clip-path="url(#pd4a99a666c)" style="fill: none; stroke: #000000; stroke-width: 1.2"/>
    <path d="M 90.568099 125.537166 
L 120.861334 165.251109 
" clip-path="url(#pd4a99a666c)" style="fill: none; stroke: #000000; stroke-width: 1.2"/>
    <path d="M 105.745481 133.671104 
L 130.563231 110.94048 
" clip-path="url(#pd4a99a666c)" style="fill: none; stroke: #000000; stroke-width: 1.2"/>
    <path d="M 105.745481 133.671104 
L 109.356862 109.638312 
" clip-path="url(#pd4a99a666c)" style="fill: none; stroke: #000000; stroke-width: 1.2"/>
    <path d="M 105.745481 133.671104 
L 160.318076 161.35123 
" clip-path="url(#pd4a99a666c)" style="fill: none; stroke: #000000; stroke-width: 1.2"/>
    <path d="M 105.745481 133.671104 
L 120.861334 165.251109 
" clip-path="url(#pd4a99a666c)" style="fill: none; stroke: #000000; stroke-width: 1.2"/>
    <path d="M 105.745481 133.671104 
L 101.388063 159.122344 
" clip-path="url(#pd4a99a666c)" style="fill: none; stroke: #000000; stroke-width: 1.2"/>
    <path d="M 94.213753 104.331335 
L 130.563231 110.94048 
" clip-path="url(#pd4a99a666c)" style="fill: none; stroke: #000000; stroke-width: 1.2"/>
    <path d="M 94.213753 104.331335 
L 109.356862 109.638312 
" clip-path="url(#pd4a99a666c)" style="fill: none; stroke: #000000; stroke-width: 1.2"/>
    <path d="M 94.213753 104.331335 
L 123.76318 135.544904 
" clip-path="url(#pd4a99a666c)" style="fill: none; stroke: #000000; stroke-width: 1.2"/>
    <path d="M 94.213753 104.331335 
L 145.072976 135.161907 
" clip-path="url(#pd4a99a666c)" style="fill: none; stroke: #000000; stroke-width: 1.2"/>
    <path d="M 94.213753 104.331335 
L 83.859208 153.319392 
" clip-path="url(#pd4a99a666c)" style="fill: none; stroke: #000000; stroke-width: 1.2"/>
    <path d="M 130.563231 110.94048 
L 109.356862 109.638312 
" clip-path="url(#pd4a99a666c)" style="fill: none; stroke: #000000; stroke-width: 1.2"/>
    <path d="M 130.563231 110.94048 
L 145.072976 135.161907 
" clip-path="url(#pd4a99a666c)" style="fill: none; stroke: #000000; stroke-width: 1.2"/>
    <path d="M 130.563231 110.94048 
L 160.47674 143.777921 
" clip-path="url(#pd4a99a666c)" style="fill: none; stroke: #000000; stroke-width: 1.2"/>
    <path d="M 130.563231 110.94048 
L 120.861334 165.251109 
" clip-path="url(#pd4a99a666c)" style="fill: none; stroke: #000000; stroke-width: 1.2"/>
    <path d="M 109.356862 109.638312 
L 123.76318 135.544904 
" clip-path="url(#pd4a99a666c)" style="fill: none; stroke: #000000; stroke-width: 1.2"/>
    <path d="M 109.356862 109.638312 
L 160.47674 143.777921 
" clip-path="url(#pd4a99a666c)" style="fill: none; stroke: #000000; stroke-width: 1.2"/>
    <path d="M 109.356862 109.638312 
L 101.388063 159.122344 
" clip-path="url(#pd4a99a666c)" style="fill: none; stroke: #000000; stroke-width: 1.2"/>
    <path d="M 123.76318 135.544904 
L 145.072976 135.161907 
" clip-path="url(#pd4a99a666c)" style="fill: none; stroke: #000000; stroke-width: 1.2"/>
    <path d="M 123.76318 135.544904 
L 160.47674 143.777921 
" clip-path="url(#pd4a99a666c)" style="fill: none; stroke: #000000; stroke-width: 1.2"/>
    <path d="M 123.76318 135.544904 
L 174.907217 118.402899 
" clip-path="url(#pd4a99a666c)" style="fill: none; stroke: #000000; stroke-width: 1.2"/>
    <path d="M 123.76318 135.544904 
L 180.804538 135.722722 
" clip-path="url(#pd4a99a666c)" style="fill: none; stroke: #000000; stroke-width: 1.2"/>
    <path d="M 123.76318 135.544904 
L 83.859208 153.319392 
" clip-path="url(#pd4a99a666c)" style="fill: none; stroke: #000000; stroke-width: 1.2"/>
    <path d="M 123.76318 135.544904 
L 101.388063 159.122344 
" clip-path="url(#pd4a99a666c)" style="fill: none; stroke: #000000; stroke-width: 1.2"/>
    <path d="M 145.072976 135.161907 
L 160.47674 143.777921 
" clip-path="url(#pd4a99a666c)" style="fill: none; stroke: #000000; stroke-width: 1.2"/>
    <path d="M 145.072976 135.161907 
L 174.907217 118.402899 
" clip-path="url(#pd4a99a666c)" style="fill: none; stroke: #000000; stroke-width: 1.2"/>
    <path d="M 145.072976 135.161907 
L 193.917019 129.176868 
" clip-path="url(#pd4a99a666c)" style="fill: none; stroke: #000000; stroke-width: 1.2"/>
    <path d="M 145.072976 135.161907 
L 83.859208 153.319392 
" clip-path="url(#pd4a99a666c)" style="fill: none; stroke: #000000; stroke-width: 1.2"/>
    <path d="M 145.072976 135.161907 
L 120.861334 165.251109 
" clip-path="url(#pd4a99a666c)" style="fill: none; stroke: #000000; stroke-width: 1.2"/>
    <path d="M 160.47674 143.777921 
L 193.917019 129.176868 
" clip-path="url(#pd4a99a666c)" style="fill: none; stroke: #000000; stroke-width: 1.2"/>
    <path d="M 160.47674 143.777921 
L 180.804538 135.722722 
" clip-path="url(#pd4a99a666c)" style="fill: none; stroke: #000000; stroke-width: 1.2"/>
    <path d="M 160.47674 143.777921 
L 120.861334 165.251109 
" clip-path="url(#pd4a99a666c)" style="fill: none; stroke: #000000; stroke-width: 1.2"/>
    <path d="M 160.47674 143.777921 
L 101.388063 159.122344 
" clip-path="url(#pd4a99a666c)" style="fill: none; stroke: #000000; stroke-width: 1.2"/>
    <path d="M 174.907217 118.402899 
L 193.917019 129.176868 
" clip-path="url(#pd4a99a666c)" style="fill: none; stroke: #000000; stroke-width: 1.2"/>
    <path d="M 174.907217 118.402899 
L 180.804538 135.722722 
" clip-path="url(#pd4a99a666c)" style="fill: none; stroke: #000000; stroke-width: 1.2"/>
    <path d="M 174.907217 118.402899 
L 124.987587 149.873097 
" clip-path="url(#pd4a99a666c)" style="fill: none; stroke: #000000; stroke-width: 1.2"/>
    <path d="M 174.907217 118.402899 
L 141.355909 153.064448 
" clip-path="url(#pd4a99a666c)" style="fill: none; stroke: #000000; stroke-width: 1.2"/>
    <path d="M 193.917019 129.176868 
L 180.804538 135.722722 
" clip-path="url(#pd4a99a666c)" style="fill: none; stroke: #000000; stroke-width: 1.2"/>
    <path d="M 193.917019 129.176868 
L 141.355909 153.064448 
" clip-path="url(#pd4a99a666c)" style="fill: none; stroke: #000000; stroke-width: 1.2"/>
    <path d="M 193.917019 129.176868 
L 160.318076 161.35123 
" clip-path="url(#pd4a99a666c)" style="fill: none; stroke: #000000; stroke-width: 1.2"/>
    <path d="M 180.804538 135.722722 
L 124.987587 149.873097 
" clip-path="url(#pd4a99a666c)" style="fill: none; stroke: #000000; stroke-width: 1.2"/>
    <path d="M 180.804538 135.722722 
L 160.318076 161.35123 
" clip-path="url(#pd4a99a666c)" style="fill: none; stroke: #000000; stroke-width: 1.2"/>
    <path d="M 124.987587 149.873097 
L 141.355909 153.064448 
" clip-path="url(#pd4a99a666c)" style="fill: none; stroke: #000000; stroke-width: 1.2"/>
    <path d="M 124.987587 149.873097 
L 160.318076 161.35123 
" clip-path="url(#pd4a99a666c)" style="fill: none; stroke: #000000; stroke-width: 1.2"/>
    <path d="M 124.987587 149.873097 
L 83.859208 153.319392 
" clip-path="url(#pd4a99a666c)" style="fill: none; stroke: #000000; stroke-width: 1.2"/>
    <path d="M 124.987587 149.873097 
L 101.388063 159.122344 
" clip-path="url(#pd4a99a666c)" style="fill: none; stroke: #000000; stroke-width: 1.2"/>
    <path d="M 141.355909 153.064448 
L 160.318076 161.35123 
" clip-path="url(#pd4a99a666c)" style="fill: none; stroke: #000000; stroke-width: 1.2"/>
    <path d="M 141.355909 153.064448 
L 83.859208 153.319392 
" clip-path="url(#pd4a99a666c)" style="fill: none; stroke: #000000; stroke-width: 1.2"/>
    <path d="M 141.355909 153.064448 
L 120.861334 165.251109 
" clip-path="url(#pd4a99a666c)" style="fill: none; stroke: #000000; stroke-width: 1.2"/>
    <path d="M 141.355909 153.064448 
L 102.157334 189.006717 
" clip-path="url(#pd4a99a666c)" style="fill: none; stroke: #000000; stroke-width: 1.2"/>
    <path d="M 160.318076 161.35123 
L 120.861334 165.251109 
" clip-path="url(#pd4a99a666c)" style="fill: none; stroke: #000000; stroke-width: 1.2"/>
    <path d="M 160.318076 161.35123 
L 101.388063 159.122344 
" clip-path="url(#pd4a99a666c)" style="fill: none; stroke: #000000; stroke-width: 1.2"/>
    <path d="M 160.318076 161.35123 
L 144.931254 197.821496 
" clip-path="url(#pd4a99a666c)" style="fill: none; stroke: #000000; stroke-width: 1.2"/>
    <path d="M 160.318076 161.35123 
L 189.799558 193.669957 
" clip-path="url(#pd4a99a666c)" style="fill: none; stroke: #000000; stroke-width: 1.2"/>
    <path d="M 83.859208 153.319392 
L 120.861334 165.251109 
" clip-path="url(#pd4a99a666c)" style="fill: none; stroke: #000000; stroke-width: 1.2"/>
    <path d="M 83.859208 153.319392 
L 101.388063 159.122344 
" clip-path="url(#pd4a99a666c)" style="fill: none; stroke: #000000; stroke-width: 1.2"/>
    <path d="M 83.859208 153.319392 
L 55.368595 185.804812 
" clip-path="url(#pd4a99a666c)" style="fill: none; stroke: #000000; stroke-width: 1.2"/>
    <path d="M 83.859208 153.319392 
L 102.157334 189.006717 
" clip-path="url(#pd4a99a666c)" style="fill: none; stroke: #000000; stroke-width: 1.2"/>
    <path d="M 120.861334 165.251109 
L 101.388063 159.122344 
" clip-path="url(#pd4a99a666c)" style="fill: none; stroke: #000000; stroke-width: 1.2"/>
    <path d="M 120.861334 165.251109 
L 144.931254 197.821496 
" clip-path="url(#pd4a99a666c)" style="fill: none; stroke: #000000; stroke-width: 1.2"/>
    <path d="M 120.861334 165.251109 
L 102.157334 189.006717 
" clip-path="url(#pd4a99a666c)" style="fill: none; stroke: #000000; stroke-width: 1.2"/>
    <path d="M 205.575599 230.658126 
L 189.799558 193.669957 
" clip-path="url(#pd4a99a666c)" style="fill: none; stroke: #000000; stroke-width: 1.2"/>
    <path d="M 239.831405 202.235819 
L 189.799558 193.669957 
" clip-path="url(#pd4a99a666c)" style="fill: none; stroke: #000000; stroke-width: 1.2"/>
    <path d="M 55.368595 185.804812 
L 102.157334 189.006717 
" clip-path="url(#pd4a99a666c)" style="fill: none; stroke: #000000; stroke-width: 1.2"/>
    <path d="M 132.543535 237.076364 
L 144.931254 197.821496 
" clip-path="url(#pd4a99a666c)" style="fill: none; stroke: #000000; stroke-width: 1.2"/>
    <path d="M 144.931254 197.821496 
L 102.157334 189.006717 
" clip-path="url(#pd4a99a666c)" style="fill: none; stroke: #000000; stroke-width: 1.2"/>
    <path d="M 144.931254 197.821496 
L 189.799558 193.669957 
" clip-path="url(#pd4a99a666c)" style="fill: none; stroke: #000000; stroke-width: 1.2"/>
   </g>
   <g id="PathCollection_1">
    <defs>
     <path id="C0_0_a80542e619" d="M 0 8.944272 
C 2.372049 8.944272 4.647264 8.001847 6.324555 6.324555 
C 8.001847 4.647264 8.944272 2.372049 8.944272 -0 
C 8.944272 -2.372049 8.001847 -4.647264 6.324555 -6.324555 
C 4.647264 -8.001847 2.372049 -8.944272 0 -8.944272 
C -2.372049 -8.944272 -4.647264 -8.001847 -6.324555 -6.324555 
C -8.001847 -4.647264 -8.944272 -2.372049 -8.944272 0 
C -8.944272 2.372049 -8.001847 4.647264 -6.324555 6.324555 
C -4.647264 8.001847 -2.372049 8.944272 0 8.944272 
z
"/>
    </defs>
    <g clip-path="url(#pd4a99a666c)">
     <use xlink:href="#C0_0_a80542e619" x="90.748926" y="65.293495" style="fill: #f08fa1; stroke: #f08fa1; stroke-width: 0.5"/>
    </g>
    <g clip-path="url(#pd4a99a666c)">
     <use xlink:href="#C0_0_a80542e619" x="110.076591" y="61.551937" style="fill: #f08fa1; stroke: #f08fa1; stroke-width: 0.5"/>
    </g>
    <g clip-path="url(#pd4a99a666c)">
     <use xlink:href="#C0_0_a80542e619" x="127.007524" y="70.416357" style="fill: #f08fa1; stroke: #f08fa1; stroke-width: 0.5"/>
    </g>
    <g clip-path="url(#pd4a99a666c)">
     <use xlink:href="#C0_0_a80542e619" x="135.097495" y="53.803636" style="fill: #f08fa1; stroke: #f08fa1; stroke-width: 0.5"/>
    </g>
    <g clip-path="url(#pd4a99a666c)">
     <use xlink:href="#C0_0_a80542e619" x="168.506172" y="67.511681" style="fill: #f08fa1; stroke: #f08fa1; stroke-width: 0.5"/>
    </g>
    <g clip-path="url(#pd4a99a666c)">
     <use xlink:href="#C0_0_a80542e619" x="151.990953" y="64.492143" style="fill: #f08fa1; stroke: #f08fa1; stroke-width: 0.5"/>
    </g>
    <g clip-path="url(#pd4a99a666c)">
     <use xlink:href="#C0_0_a80542e619" x="91.836799" y="80.503012" style="fill: #f08fa1; stroke: #f08fa1; stroke-width: 0.5"/>
    </g>
    <g clip-path="url(#pd4a99a666c)">
     <use xlink:href="#C0_0_a80542e619" x="110.431302" y="75.694459" style="fill: #f08fa1; stroke: #f08fa1; stroke-width: 0.5"/>
    </g>
    <g clip-path="url(#pd4a99a666c)">
     <use xlink:href="#C0_0_a80542e619" x="126.004892" y="86.215629" style="fill: #f08fa1; stroke: #f08fa1; stroke-width: 0.5"/>
    </g>
    <g clip-path="url(#pd4a99a666c)">
     <use xlink:href="#C0_0_a80542e619" x="59.831729" y="85.811605" style="fill: #f08fa1; stroke: #f08fa1; stroke-width: 0.5"/>
    </g>
    <g clip-path="url(#pd4a99a666c)">
     <use xlink:href="#C0_0_a80542e619" x="81.947057" y="90.844407" style="fill: #f08fa1; stroke: #f08fa1; stroke-width: 0.5"/>
    </g>
    <g clip-path="url(#pd4a99a666c)">
     <use xlink:href="#C0_0_a80542e619" x="66.789067" y="101.360156" style="fill: #f08fa1; stroke: #f08fa1; stroke-width: 0.5"/>
    </g>
    <g clip-path="url(#pd4a99a666c)">
     <use xlink:href="#C0_0_a80542e619" x="147.338509" y="91.044186" style="fill: #f08fa1; stroke: #f08fa1; stroke-width: 0.5"/>
    </g>
    <g clip-path="url(#pd4a99a666c)">
     <use xlink:href="#C0_0_a80542e619" x="163.875297" y="88.838734" style="fill: #f08fa1; stroke: #f08fa1; stroke-width: 0.5"/>
    </g>
    <g clip-path="url(#pd4a99a666c)">
     <use xlink:href="#C0_0_a80542e619" x="178.054578" y="98.103694" style="fill: #f08fa1; stroke: #f08fa1; stroke-width: 0.5"/>
    </g>
    <g clip-path="url(#pd4a99a666c)">
     <use xlink:href="#C0_0_a80542e619" x="123.445431" y="104.300729" style="fill: #f08fa1; stroke: #f08fa1; stroke-width: 0.5"/>
    </g>
    <g clip-path="url(#pd4a99a666c)">
     <use xlink:href="#C0_0_a80542e619" x="157.412718" y="115.441503" style="fill: #f08fa1; stroke: #f08fa1; stroke-width: 0.5"/>
    </g>
    <g clip-path="url(#pd4a99a666c)">
     <use xlink:href="#C0_0_a80542e619" x="141.632685" y="118.671962" style="fill: #f08fa1; stroke: #f08fa1; stroke-width: 0.5"/>
    </g>
    <g clip-path="url(#pd4a99a666c)">
     <use xlink:href="#C0_0_a80542e619" x="74.143234" y="125.247254" style="fill: #f08fa1; stroke: #f08fa1; stroke-width: 0.5"/>
    </g>
    <g clip-path="url(#pd4a99a666c)">
     <use xlink:href="#C0_0_a80542e619" x="90.568099" y="125.537166" style="fill: #f08fa1; stroke: #f08fa1; stroke-width: 0.5"/>
    </g>
    <g clip-path="url(#pd4a99a666c)">
     <use xlink:href="#C0_0_a80542e619" x="105.745481" y="133.671104" style="fill: #f08fa1; stroke: #f08fa1; stroke-width: 0.5"/>
    </g>
    <g clip-path="url(#pd4a99a666c)">
     <use xlink:href="#C0_0_a80542e619" x="94.213753" y="104.331335" style="fill: #f08fa1; stroke: #f08fa1; stroke-width: 0.5"/>
    </g>
    <g clip-path="url(#pd4a99a666c)">
     <use xlink:href="#C0_0_a80542e619" x="130.563231" y="110.94048" style="fill: #f08fa1; stroke: #f08fa1; stroke-width: 0.5"/>
    </g>
    <g clip-path="url(#pd4a99a666c)">
     <use xlink:href="#C0_0_a80542e619" x="109.356862" y="109.638312" style="fill: #f08fa1; stroke: #f08fa1; stroke-width: 0.5"/>
    </g>
    <g clip-path="url(#pd4a99a666c)">
     <use xlink:href="#C0_0_a80542e619" x="123.76318" y="135.544904" style="fill: #f08fa1; stroke: #f08fa1; stroke-width: 0.5"/>
    </g>
    <g clip-path="url(#pd4a99a666c)">
     <use xlink:href="#C0_0_a80542e619" x="145.072976" y="135.161907" style="fill: #f08fa1; stroke: #f08fa1; stroke-width: 0.5"/>
    </g>
    <g clip-path="url(#pd4a99a666c)">
     <use xlink:href="#C0_0_a80542e619" x="160.47674" y="143.777921" style="fill: #f08fa1; stroke: #f08fa1; stroke-width: 0.5"/>
    </g>
    <g clip-path="url(#pd4a99a666c)">
     <use xlink:href="#C0_0_a80542e619" x="174.907217" y="118.402899" style="fill: #f08fa1; stroke: #f08fa1; stroke-width: 0.5"/>
    </g>
    <g clip-path="url(#pd4a99a666c)">
     <use xlink:href="#C0_0_a80542e619" x="193.917019" y="129.176868" style="fill: #f08fa1; stroke: #f08fa1; stroke-width: 0.5"/>
    </g>
    <g clip-path="url(#pd4a99a666c)">
     <use xlink:href="#C0_0_a80542e619" x="180.804538" y="135.722722" style="fill: #f08fa1; stroke: #f08fa1; stroke-width: 0.5"/>
    </g>
    <g clip-path="url(#pd4a99a666c)">
     <use xlink:href="#C0_0_a80542e619" x="124.987587" y="149.873097" style="fill: #f08fa1; stroke: #f08fa1; stroke-width: 0.5"/>
    </g>
    <g clip-path="url(#pd4a99a666c)">
     <use xlink:href="#C0_0_a80542e619" x="141.355909" y="153.064448" style="fill: #f08fa1; stroke: #f08fa1; stroke-width: 0.5"/>
    </g>
    <g clip-path="url(#pd4a99a666c)">
     <use xlink:href="#C0_0_a80542e619" x="160.318076" y="161.35123" style="fill: #f08fa1; stroke: #f08fa1; stroke-width: 0.5"/>
    </g>
    <g clip-path="url(#pd4a99a666c)">
     <use xlink:href="#C0_0_a80542e619" x="83.859208" y="153.319392" style="fill: #f08fa1; stroke: #f08fa1; stroke-width: 0.5"/>
    </g>
    <g clip-path="url(#pd4a99a666c)">
     <use xlink:href="#C0_0_a80542e619" x="120.861334" y="165.251109" style="fill: #f08fa1; stroke: #f08fa1; stroke-width: 0.5"/>
    </g>
    <g clip-path="url(#pd4a99a666c)">
     <use xlink:href="#C0_0_a80542e619" x="101.388063" y="159.122344" style="fill: #f08fa1; stroke: #f08fa1; stroke-width: 0.5"/>
    </g>
    <g clip-path="url(#pd4a99a666c)">
     <use xlink:href="#C0_0_a80542e619" x="205.575599" y="230.658126" style="fill: #bfbfbf; stroke: #bfbfbf; stroke-width: 0.5"/>
    </g>
    <g clip-path="url(#pd4a99a666c)">
     <use xlink:href="#C0_0_a80542e619" x="239.831405" y="202.235819" style="fill: #bfbfbf; stroke: #bfbfbf; stroke-width: 0.5"/>
    </g>
    <g clip-path="url(#pd4a99a666c)">
     <use xlink:href="#C0_0_a80542e619" x="55.368595" y="185.804812" style="fill: #bfbfbf; stroke: #bfbfbf; stroke-width: 0.5"/>
    </g>
    <g clip-path="url(#pd4a99a666c)">
     <use xlink:href="#C0_0_a80542e619" x="132.543535" y="237.076364" style="fill: #bfbfbf; stroke: #bfbfbf; stroke-width: 0.5"/>
    </g>
    <g clip-path="url(#pd4a99a666c)">
     <use xlink:href="#C0_0_a80542e619" x="144.931254" y="197.821496" style="fill: #666666; stroke: #666666; stroke-width: 0.5"/>
    </g>
    <g clip-path="url(#pd4a99a666c)">
     <use xlink:href="#C0_0_a80542e619" x="102.157334" y="189.006717" style="fill: #0d0dff; stroke: #0d0dff; stroke-width: 0.5"/>
    </g>
    <g clip-path="url(#pd4a99a666c)">
     <use xlink:href="#C0_0_a80542e619" x="189.799558" y="193.669957" style="fill: #0d0dff; stroke: #0d0dff; stroke-width: 0.5"/>
    </g>
   </g>
   <g id="text_1">
    <!-- CH4Co48N2 -->
    <g transform="translate(134.693966 14.272611) scale(0.1 -0.1)">
     <defs>
      <path id="DejaVuSans-43" d="M 4122 4306 
L 4122 3641 
Q 3803 3938 3442 4084 
Q 3081 4231 2675 4231 
Q 1875 4231 1450 3742 
Q 1025 3253 1025 2328 
Q 1025 1406 1450 917 
Q 1875 428 2675 428 
Q 3081 428 3442 575 
Q 3803 722 4122 1019 
L 4122 359 
Q 3791 134 3420 21 
Q 3050 -91 2638 -91 
Q 1578 -91 968 557 
Q 359 1206 359 2328 
Q 359 3453 968 4101 
Q 1578 4750 2638 4750 
Q 3056 4750 3426 4639 
Q 3797 4528 4122 4306 
z
" transform="scale(0.015625)"/>
      <path id="DejaVuSans-48" d="M 628 4666 
L 1259 4666 
L 1259 2753 
L 3553 2753 
L 3553 4666 
L 4184 4666 
L 4184 0 
L 3553 0 
L 3553 2222 
L 1259 2222 
L 1259 0 
L 628 0 
L 628 4666 
z
" transform="scale(0.015625)"/>
      <path id="DejaVuSans-34" d="M 2419 4116 
L 825 1625 
L 2419 1625 
L 2419 4116 
z
M 2253 4666 
L 3047 4666 
L 3047 1625 
L 3713 1625 
L 3713 1100 
L 3047 1100 
L 3047 0 
L 2419 0 
L 2419 1100 
L 313 1100 
L 313 1709 
L 2253 4666 
z
" transform="scale(0.015625)"/>
      <path id="DejaVuSans-6f" d="M 1959 3097 
Q 1497 3097 1228 2736 
Q 959 2375 959 1747 
Q 959 1119 1226 758 
Q 1494 397 1959 397 
Q 2419 397 2687 759 
Q 2956 1122 2956 1747 
Q 2956 2369 2687 2733 
Q 2419 3097 1959 3097 
z
M 1959 3584 
Q 2709 3584 3137 3096 
Q 3566 2609 3566 1747 
Q 3566 888 3137 398 
Q 2709 -91 1959 -91 
Q 1206 -91 779 398 
Q 353 888 353 1747 
Q 353 2609 779 3096 
Q 1206 3584 1959 3584 
z
" transform="scale(0.015625)"/>
      <path id="DejaVuSans-38" d="M 2034 2216 
Q 1584 2216 1326 1975 
Q 1069 1734 1069 1313 
Q 1069 891 1326 650 
Q 1584 409 2034 409 
Q 2484 409 2743 651 
Q 3003 894 3003 1313 
Q 3003 1734 2745 1975 
Q 2488 2216 2034 2216 
z
M 1403 2484 
Q 997 2584 770 2862 
Q 544 3141 544 3541 
Q 544 4100 942 4425 
Q 1341 4750 2034 4750 
Q 2731 4750 3128 4425 
Q 3525 4100 3525 3541 
Q 3525 3141 3298 2862 
Q 3072 2584 2669 2484 
Q 3125 2378 3379 2068 
Q 3634 1759 3634 1313 
Q 3634 634 3220 271 
Q 2806 -91 2034 -91 
Q 1263 -91 848 271 
Q 434 634 434 1313 
Q 434 1759 690 2068 
Q 947 2378 1403 2484 
z
M 1172 3481 
Q 1172 3119 1398 2916 
Q 1625 2713 2034 2713 
Q 2441 2713 2670 2916 
Q 2900 3119 2900 3481 
Q 2900 3844 2670 4047 
Q 2441 4250 2034 4250 
Q 1625 4250 1398 4047 
Q 1172 3844 1172 3481 
z
" transform="scale(0.015625)"/>
      <path id="DejaVuSans-4e" d="M 628 4666 
L 1478 4666 
L 3547 763 
L 3547 4666 
L 4159 4666 
L 4159 0 
L 3309 0 
L 1241 3903 
L 1241 0 
L 628 0 
L 628 4666 
z
" transform="scale(0.015625)"/>
      <path id="DejaVuSans-32" d="M 1228 531 
L 3431 531 
L 3431 0 
L 469 0 
L 469 531 
Q 828 903 1448 1529 
Q 2069 2156 2228 2338 
Q 2531 2678 2651 2914 
Q 2772 3150 2772 3378 
Q 2772 3750 2511 3984 
Q 2250 4219 1831 4219 
Q 1534 4219 1204 4116 
Q 875 4013 500 3803 
L 500 4441 
Q 881 4594 1212 4672 
Q 1544 4750 1819 4750 
Q 2544 4750 2975 4387 
Q 3406 4025 3406 3419 
Q 3406 3131 3298 2873 
Q 3191 2616 2906 2266 
Q 2828 2175 2409 1742 
Q 1991 1309 1228 531 
z
" transform="scale(0.015625)"/>
     </defs>
     <use xlink:href="#DejaVuSans-43"/>
     <use xlink:href="#DejaVuSans-48" transform="translate(69.824219 0)"/>
     <use xlink:href="#DejaVuSans-34" transform="translate(145.019531 0)"/>
     <use xlink:href="#DejaVuSans-43" transform="translate(208.642578 0)"/>
     <use xlink:href="#DejaVuSans-6f" transform="translate(278.466797 0)"/>
     <use xlink:href="#DejaVuSans-34" transform="translate(339.648438 0)"/>
     <use xlink:href="#DejaVuSans-38" transform="translate(403.271484 0)"/>
     <use xlink:href="#DejaVuSans-4e" transform="translate(466.894531 0)"/>
     <use xlink:href="#DejaVuSans-32" transform="translate(541.699219 0)"/>
    </g>
    <!-- Error: -8.84 eV -->
    <g transform="translate(134.693966 25.470424) scale(0.1 -0.1)">
     <defs>
      <path id="DejaVuSans-45" d="M 628 4666 
L 3578 4666 
L 3578 4134 
L 1259 4134 
L 1259 2753 
L 3481 2753 
L 3481 2222 
L 1259 2222 
L 1259 531 
L 3634 531 
L 3634 0 
L 628 0 
L 628 4666 
z
" transform="scale(0.015625)"/>
      <path id="DejaVuSans-72" d="M 2631 2963 
Q 2534 3019 2420 3045 
Q 2306 3072 2169 3072 
Q 1681 3072 1420 2755 
Q 1159 2438 1159 1844 
L 1159 0 
L 581 0 
L 581 3500 
L 1159 3500 
L 1159 2956 
Q 1341 3275 1631 3429 
Q 1922 3584 2338 3584 
Q 2397 3584 2469 3576 
Q 2541 3569 2628 3553 
L 2631 2963 
z
" transform="scale(0.015625)"/>
      <path id="DejaVuSans-3a" d="M 750 794 
L 1409 794 
L 1409 0 
L 750 0 
L 750 794 
z
M 750 3309 
L 1409 3309 
L 1409 2516 
L 750 2516 
L 750 3309 
z
" transform="scale(0.015625)"/>
      <path id="DejaVuSans-20" transform="scale(0.015625)"/>
      <path id="DejaVuSans-2d" d="M 313 2009 
L 1997 2009 
L 1997 1497 
L 313 1497 
L 313 2009 
z
" transform="scale(0.015625)"/>
      <path id="DejaVuSans-2e" d="M 684 794 
L 1344 794 
L 1344 0 
L 684 0 
L 684 794 
z
" transform="scale(0.015625)"/>
      <path id="DejaVuSans-65" d="M 3597 1894 
L 3597 1613 
L 953 1613 
Q 991 1019 1311 708 
Q 1631 397 2203 397 
Q 2534 397 2845 478 
Q 3156 559 3463 722 
L 3463 178 
Q 3153 47 2828 -22 
Q 2503 -91 2169 -91 
Q 1331 -91 842 396 
Q 353 884 353 1716 
Q 353 2575 817 3079 
Q 1281 3584 2069 3584 
Q 2775 3584 3186 3129 
Q 3597 2675 3597 1894 
z
M 3022 2063 
Q 3016 2534 2758 2815 
Q 2500 3097 2075 3097 
Q 1594 3097 1305 2825 
Q 1016 2553 972 2059 
L 3022 2063 
z
" transform="scale(0.015625)"/>
      <path id="DejaVuSans-56" d="M 1831 0 
L 50 4666 
L 709 4666 
L 2188 738 
L 3669 4666 
L 4325 4666 
L 2547 0 
L 1831 0 
z
" transform="scale(0.015625)"/>
     </defs>
     <use xlink:href="#DejaVuSans-45"/>
     <use xlink:href="#DejaVuSans-72" transform="translate(63.183594 0)"/>
     <use xlink:href="#DejaVuSans-72" transform="translate(102.546875 0)"/>
     <use xlink:href="#DejaVuSans-6f" transform="translate(141.410156 0)"/>
     <use xlink:href="#DejaVuSans-72" transform="translate(202.591797 0)"/>
     <use xlink:href="#DejaVuSans-3a" transform="translate(241.955078 0)"/>
     <use xlink:href="#DejaVuSans-20" transform="translate(275.646484 0)"/>
     <use xlink:href="#DejaVuSans-2d" transform="translate(307.433594 0)"/>
     <use xlink:href="#DejaVuSans-38" transform="translate(343.517578 0)"/>
     <use xlink:href="#DejaVuSans-2e" transform="translate(407.140625 0)"/>
     <use xlink:href="#DejaVuSans-38" transform="translate(438.927734 0)"/>
     <use xlink:href="#DejaVuSans-34" transform="translate(502.550781 0)"/>
     <use xlink:href="#DejaVuSans-20" transform="translate(566.173828 0)"/>
     <use xlink:href="#DejaVuSans-65" transform="translate(597.960938 0)"/>
     <use xlink:href="#DejaVuSans-56" transform="translate(659.484375 0)"/>
    </g>
   </g>
  </g>
 </g>
 <defs>
  <clipPath id="pd4a99a666c">
   <rect x="36" y="34.56" width="223.2" height="221.76"/>
  </clipPath>
 </defs>
</svg>
