<?xml version="1.0" encoding="utf-8" standalone="no"?>
<!DOCTYPE svg PUBLIC "-//W3C//DTD SVG 1.1//EN"
  "http://www.w3.org/Graphics/SVG/1.1/DTD/svg11.dtd">
<svg xmlns:xlink="http://www.w3.org/1999/xlink" width="288pt" height="288pt" viewBox="0 0 288 288" xmlns="http://www.w3.org/2000/svg" version="1.1">
 <metadata>
  <rdf:RDF xmlns:dc="http://purl.org/dc/elements/1.1/" xmlns:cc="http://creativecommons.org/ns#" xmlns:rdf="http://www.w3.org/1999/02/22-rdf-syntax-ns#">
   <cc:Work>
    <dc:type rdf:resource="http://purl.org/dc/dcmitype/StillImage"/>
    <dc:date>2025-06-30T11:56:45.750856</dc:date>
    <dc:format>image/svg+xml</dc:format>
    <dc:creator>
     <cc:Agent>
      <dc:title>Matplotlib v3.10.1, https://matplotlib.org/</dc:title>
     </cc:Agent>
    </dc:creator>
   </cc:Work>
  </rdf:RDF>
 </metadata>
 <defs>
  <style type="text/css">*{stroke-linejoin: round; stroke-linecap: butt}</style>
 </defs>
 <g id="figure_1">
  <g id="patch_1">
   <path d="M 0 288 
L 288 288 
L 288 0 
L 0 0 
z
" style="fill: #ffffff"/>
  </g>
  <g id="axes_1">
   <g id="LineCollection_1">
    <path d="M 83.043675 82.277512 
L 127.001595 95.138956 
" clip-path="url(#pfef1268a99)" style="fill: none; stroke: #000000; stroke-width: 1.2"/>
    <path d="M 83.043675 82.277512 
L 137.239341 56.942534 
" clip-path="url(#pfef1268a99)" style="fill: none; stroke: #000000; stroke-width: 1.2"/>
    <path d="M 83.043675 82.277512 
L 101.069788 53.803636 
" clip-path="url(#pfef1268a99)" style="fill: none; stroke: #000000; stroke-width: 1.2"/>
    <path d="M 83.043675 82.277512 
L 136.099761 102.235299 
" clip-path="url(#pfef1268a99)" style="fill: none; stroke: #000000; stroke-width: 1.2"/>
    <path d="M 83.043675 82.277512 
L 78.295752 54.16365 
" clip-path="url(#pfef1268a99)" style="fill: none; stroke: #000000; stroke-width: 1.2"/>
    <path d="M 83.043675 82.277512 
L 56.909677 114.973488 
" clip-path="url(#pfef1268a99)" style="fill: none; stroke: #000000; stroke-width: 1.2"/>
    <path d="M 83.043675 82.277512 
L 70.957469 139.282553 
" clip-path="url(#pfef1268a99)" style="fill: none; stroke: #000000; stroke-width: 1.2"/>
    <path d="M 83.043675 82.277512 
L 118.06162 123.526207 
" clip-path="url(#pfef1268a99)" style="fill: none; stroke: #000000; stroke-width: 1.2"/>
    <path d="M 83.043675 82.277512 
L 78.237733 120.685201 
" clip-path="url(#pfef1268a99)" style="fill: none; stroke: #000000; stroke-width: 1.2"/>
    <path d="M 177.454888 101.951926 
L 127.001595 95.138956 
" clip-path="url(#pfef1268a99)" style="fill: none; stroke: #000000; stroke-width: 1.2"/>
    <path d="M 177.454888 101.951926 
L 174.049996 63.318825 
" clip-path="url(#pfef1268a99)" style="fill: none; stroke: #000000; stroke-width: 1.2"/>
    <path d="M 177.454888 101.951926 
L 137.239341 56.942534 
" clip-path="url(#pfef1268a99)" style="fill: none; stroke: #000000; stroke-width: 1.2"/>
    <path d="M 177.454888 101.951926 
L 136.099761 102.235299 
" clip-path="url(#pfef1268a99)" style="fill: none; stroke: #000000; stroke-width: 1.2"/>
    <path d="M 177.454888 101.951926 
L 188.980686 83.056464 
" clip-path="url(#pfef1268a99)" style="fill: none; stroke: #000000; stroke-width: 1.2"/>
    <path d="M 177.454888 101.951926 
L 164.16534 74.25645 
" clip-path="url(#pfef1268a99)" style="fill: none; stroke: #000000; stroke-width: 1.2"/>
    <path d="M 177.454888 101.951926 
L 141.33291 140.780351 
" clip-path="url(#pfef1268a99)" style="fill: none; stroke: #000000; stroke-width: 1.2"/>
    <path d="M 177.454888 101.951926 
L 159.126041 130.797459 
" clip-path="url(#pfef1268a99)" style="fill: none; stroke: #000000; stroke-width: 1.2"/>
    <path d="M 177.454888 101.951926 
L 118.06162 123.526207 
" clip-path="url(#pfef1268a99)" style="fill: none; stroke: #000000; stroke-width: 1.2"/>
    <path d="M 177.454888 101.951926 
L 167.271716 145.570089 
" clip-path="url(#pfef1268a99)" style="fill: none; stroke: #000000; stroke-width: 1.2"/>
    <path d="M 127.001595 95.138956 
L 174.049996 63.318825 
" clip-path="url(#pfef1268a99)" style="fill: none; stroke: #000000; stroke-width: 1.2"/>
    <path d="M 127.001595 95.138956 
L 137.239341 56.942534 
" clip-path="url(#pfef1268a99)" style="fill: none; stroke: #000000; stroke-width: 1.2"/>
    <path d="M 127.001595 95.138956 
L 83.042457 96.41411 
" clip-path="url(#pfef1268a99)" style="fill: none; stroke: #000000; stroke-width: 1.2"/>
    <path d="M 127.001595 95.138956 
L 180.548888 112.831789 
" clip-path="url(#pfef1268a99)" style="fill: none; stroke: #000000; stroke-width: 1.2"/>
    <path d="M 127.001595 95.138956 
L 140.27608 68.323825 
" clip-path="url(#pfef1268a99)" style="fill: none; stroke: #000000; stroke-width: 1.2"/>
    <path d="M 127.001595 95.138956 
L 114.434453 65.228385 
" clip-path="url(#pfef1268a99)" style="fill: none; stroke: #000000; stroke-width: 1.2"/>
    <path d="M 127.001595 95.138956 
L 70.957469 139.282553 
" clip-path="url(#pfef1268a99)" style="fill: none; stroke: #000000; stroke-width: 1.2"/>
    <path d="M 127.001595 95.138956 
L 96.641558 132.286488 
" clip-path="url(#pfef1268a99)" style="fill: none; stroke: #000000; stroke-width: 1.2"/>
    <path d="M 127.001595 95.138956 
L 159.126041 130.797459 
" clip-path="url(#pfef1268a99)" style="fill: none; stroke: #000000; stroke-width: 1.2"/>
    <path d="M 127.001595 95.138956 
L 118.06162 123.526207 
" clip-path="url(#pfef1268a99)" style="fill: none; stroke: #000000; stroke-width: 1.2"/>
    <path d="M 127.001595 95.138956 
L 120.2573 137.185245 
" clip-path="url(#pfef1268a99)" style="fill: none; stroke: #000000; stroke-width: 1.2"/>
    <path d="M 174.049996 63.318825 
L 137.239341 56.942534 
" clip-path="url(#pfef1268a99)" style="fill: none; stroke: #000000; stroke-width: 1.2"/>
    <path d="M 174.049996 63.318825 
L 180.548888 112.831789 
" clip-path="url(#pfef1268a99)" style="fill: none; stroke: #000000; stroke-width: 1.2"/>
    <path d="M 174.049996 63.318825 
L 140.27608 68.323825 
" clip-path="url(#pfef1268a99)" style="fill: none; stroke: #000000; stroke-width: 1.2"/>
    <path d="M 174.049996 63.318825 
L 164.16534 74.25645 
" clip-path="url(#pfef1268a99)" style="fill: none; stroke: #000000; stroke-width: 1.2"/>
    <path d="M 174.049996 63.318825 
L 114.434453 65.228385 
" clip-path="url(#pfef1268a99)" style="fill: none; stroke: #000000; stroke-width: 1.2"/>
    <path d="M 174.049996 63.318825 
L 148.223932 106.839145 
" clip-path="url(#pfef1268a99)" style="fill: none; stroke: #000000; stroke-width: 1.2"/>
    <path d="M 174.049996 63.318825 
L 167.332693 87.832755 
" clip-path="url(#pfef1268a99)" style="fill: none; stroke: #000000; stroke-width: 1.2"/>
    <path d="M 174.049996 63.318825 
L 159.126041 130.797459 
" clip-path="url(#pfef1268a99)" style="fill: none; stroke: #000000; stroke-width: 1.2"/>
    <path d="M 137.239341 56.942534 
L 101.069788 53.803636 
" clip-path="url(#pfef1268a99)" style="fill: none; stroke: #000000; stroke-width: 1.2"/>
    <path d="M 137.239341 56.942534 
L 136.099761 102.235299 
" clip-path="url(#pfef1268a99)" style="fill: none; stroke: #000000; stroke-width: 1.2"/>
    <path d="M 137.239341 56.942534 
L 188.980686 83.056464 
" clip-path="url(#pfef1268a99)" style="fill: none; stroke: #000000; stroke-width: 1.2"/>
    <path d="M 137.239341 56.942534 
L 78.295752 54.16365 
" clip-path="url(#pfef1268a99)" style="fill: none; stroke: #000000; stroke-width: 1.2"/>
    <path d="M 137.239341 56.942534 
L 164.16534 74.25645 
" clip-path="url(#pfef1268a99)" style="fill: none; stroke: #000000; stroke-width: 1.2"/>
    <path d="M 137.239341 56.942534 
L 114.434453 65.228385 
" clip-path="url(#pfef1268a99)" style="fill: none; stroke: #000000; stroke-width: 1.2"/>
    <path d="M 137.239341 56.942534 
L 108.383675 96.214644 
" clip-path="url(#pfef1268a99)" style="fill: none; stroke: #000000; stroke-width: 1.2"/>
    <path d="M 137.239341 56.942534 
L 126.418399 77.194184 
" clip-path="url(#pfef1268a99)" style="fill: none; stroke: #000000; stroke-width: 1.2"/>
    <path d="M 137.239341 56.942534 
L 118.06162 123.526207 
" clip-path="url(#pfef1268a99)" style="fill: none; stroke: #000000; stroke-width: 1.2"/>
    <path d="M 83.042457 96.41411 
L 101.069788 53.803636 
" clip-path="url(#pfef1268a99)" style="fill: none; stroke: #000000; stroke-width: 1.2"/>
    <path d="M 83.042457 96.41411 
L 136.099761 102.235299 
" clip-path="url(#pfef1268a99)" style="fill: none; stroke: #000000; stroke-width: 1.2"/>
    <path d="M 83.042457 96.41411 
L 140.27608 68.323825 
" clip-path="url(#pfef1268a99)" style="fill: none; stroke: #000000; stroke-width: 1.2"/>
    <path d="M 83.042457 96.41411 
L 75.254382 65.272949 
" clip-path="url(#pfef1268a99)" style="fill: none; stroke: #000000; stroke-width: 1.2"/>
    <path d="M 83.042457 96.41411 
L 70.957469 139.282553 
" clip-path="url(#pfef1268a99)" style="fill: none; stroke: #000000; stroke-width: 1.2"/>
    <path d="M 83.042457 96.41411 
L 57.644801 127.717277 
" clip-path="url(#pfef1268a99)" style="fill: none; stroke: #000000; stroke-width: 1.2"/>
    <path d="M 83.042457 96.41411 
L 78.237733 120.685201 
" clip-path="url(#pfef1268a99)" style="fill: none; stroke: #000000; stroke-width: 1.2"/>
    <path d="M 83.042457 96.41411 
L 120.2573 137.185245 
" clip-path="url(#pfef1268a99)" style="fill: none; stroke: #000000; stroke-width: 1.2"/>
    <path d="M 101.069788 53.803636 
L 136.099761 102.235299 
" clip-path="url(#pfef1268a99)" style="fill: none; stroke: #000000; stroke-width: 1.2"/>
    <path d="M 101.069788 53.803636 
L 140.27608 68.323825 
" clip-path="url(#pfef1268a99)" style="fill: none; stroke: #000000; stroke-width: 1.2"/>
    <path d="M 101.069788 53.803636 
L 78.295752 54.16365 
" clip-path="url(#pfef1268a99)" style="fill: none; stroke: #000000; stroke-width: 1.2"/>
    <path d="M 101.069788 53.803636 
L 75.254382 65.272949 
" clip-path="url(#pfef1268a99)" style="fill: none; stroke: #000000; stroke-width: 1.2"/>
    <path d="M 101.069788 53.803636 
L 66.599279 89.519621 
" clip-path="url(#pfef1268a99)" style="fill: none; stroke: #000000; stroke-width: 1.2"/>
    <path d="M 101.069788 53.803636 
L 126.418399 77.194184 
" clip-path="url(#pfef1268a99)" style="fill: none; stroke: #000000; stroke-width: 1.2"/>
    <path d="M 101.069788 53.803636 
L 78.237733 120.685201 
" clip-path="url(#pfef1268a99)" style="fill: none; stroke: #000000; stroke-width: 1.2"/>
    <path d="M 180.548888 112.831789 
L 136.099761 102.235299 
" clip-path="url(#pfef1268a99)" style="fill: none; stroke: #000000; stroke-width: 1.2"/>
    <path d="M 180.548888 112.831789 
L 188.980686 83.056464 
" clip-path="url(#pfef1268a99)" style="fill: none; stroke: #000000; stroke-width: 1.2"/>
    <path d="M 180.548888 112.831789 
L 140.27608 68.323825 
" clip-path="url(#pfef1268a99)" style="fill: none; stroke: #000000; stroke-width: 1.2"/>
    <path d="M 180.548888 112.831789 
L 167.332693 87.832755 
" clip-path="url(#pfef1268a99)" style="fill: none; stroke: #000000; stroke-width: 1.2"/>
    <path d="M 180.548888 112.831789 
L 159.126041 130.797459 
" clip-path="url(#pfef1268a99)" style="fill: none; stroke: #000000; stroke-width: 1.2"/>
    <path d="M 180.548888 112.831789 
L 143.900337 153.538691 
" clip-path="url(#pfef1268a99)" style="fill: none; stroke: #000000; stroke-width: 1.2"/>
    <path d="M 180.548888 112.831789 
L 167.271716 145.570089 
" clip-path="url(#pfef1268a99)" style="fill: none; stroke: #000000; stroke-width: 1.2"/>
    <path d="M 180.548888 112.831789 
L 120.2573 137.185245 
" clip-path="url(#pfef1268a99)" style="fill: none; stroke: #000000; stroke-width: 1.2"/>
    <path d="M 136.099761 102.235299 
L 188.980686 83.056464 
" clip-path="url(#pfef1268a99)" style="fill: none; stroke: #000000; stroke-width: 1.2"/>
    <path d="M 136.099761 102.235299 
L 140.27608 68.323825 
" clip-path="url(#pfef1268a99)" style="fill: none; stroke: #000000; stroke-width: 1.2"/>
    <path d="M 136.099761 102.235299 
L 126.418399 77.194184 
" clip-path="url(#pfef1268a99)" style="fill: none; stroke: #000000; stroke-width: 1.2"/>
    <path d="M 136.099761 102.235299 
L 118.06162 123.526207 
" clip-path="url(#pfef1268a99)" style="fill: none; stroke: #000000; stroke-width: 1.2"/>
    <path d="M 136.099761 102.235299 
L 78.237733 120.685201 
" clip-path="url(#pfef1268a99)" style="fill: none; stroke: #000000; stroke-width: 1.2"/>
    <path d="M 136.099761 102.235299 
L 106.164039 141.356465 
" clip-path="url(#pfef1268a99)" style="fill: none; stroke: #000000; stroke-width: 1.2"/>
    <path d="M 136.099761 102.235299 
L 167.271716 145.570089 
" clip-path="url(#pfef1268a99)" style="fill: none; stroke: #000000; stroke-width: 1.2"/>
    <path d="M 136.099761 102.235299 
L 120.2573 137.185245 
" clip-path="url(#pfef1268a99)" style="fill: none; stroke: #000000; stroke-width: 1.2"/>
    <path d="M 188.980686 83.056464 
L 140.27608 68.323825 
" clip-path="url(#pfef1268a99)" style="fill: none; stroke: #000000; stroke-width: 1.2"/>
    <path d="M 188.980686 83.056464 
L 164.16534 74.25645 
" clip-path="url(#pfef1268a99)" style="fill: none; stroke: #000000; stroke-width: 1.2"/>
    <path d="M 188.980686 83.056464 
L 167.332693 87.832755 
" clip-path="url(#pfef1268a99)" style="fill: none; stroke: #000000; stroke-width: 1.2"/>
    <path d="M 188.980686 83.056464 
L 126.418399 77.194184 
" clip-path="url(#pfef1268a99)" style="fill: none; stroke: #000000; stroke-width: 1.2"/>
    <path d="M 188.980686 83.056464 
L 170.691082 121.056191 
" clip-path="url(#pfef1268a99)" style="fill: none; stroke: #000000; stroke-width: 1.2"/>
    <path d="M 188.980686 83.056464 
L 167.271716 145.570089 
" clip-path="url(#pfef1268a99)" style="fill: none; stroke: #000000; stroke-width: 1.2"/>
    <path d="M 140.27608 68.323825 
L 114.434453 65.228385 
" clip-path="url(#pfef1268a99)" style="fill: none; stroke: #000000; stroke-width: 1.2"/>
    <path d="M 140.27608 68.323825 
L 75.254382 65.272949 
" clip-path="url(#pfef1268a99)" style="fill: none; stroke: #000000; stroke-width: 1.2"/>
    <path d="M 140.27608 68.323825 
L 167.332693 87.832755 
" clip-path="url(#pfef1268a99)" style="fill: none; stroke: #000000; stroke-width: 1.2"/>
    <path d="M 140.27608 68.323825 
L 126.418399 77.194184 
" clip-path="url(#pfef1268a99)" style="fill: none; stroke: #000000; stroke-width: 1.2"/>
    <path d="M 140.27608 68.323825 
L 110.092672 107.953236 
" clip-path="url(#pfef1268a99)" style="fill: none; stroke: #000000; stroke-width: 1.2"/>
    <path d="M 140.27608 68.323825 
L 120.2573 137.185245 
" clip-path="url(#pfef1268a99)" style="fill: none; stroke: #000000; stroke-width: 1.2"/>
    <path d="M 78.295752 54.16365 
L 55.368595 92.623651 
" clip-path="url(#pfef1268a99)" style="fill: none; stroke: #000000; stroke-width: 1.2"/>
    <path d="M 78.295752 54.16365 
L 114.434453 65.228385 
" clip-path="url(#pfef1268a99)" style="fill: none; stroke: #000000; stroke-width: 1.2"/>
    <path d="M 78.295752 54.16365 
L 108.383675 96.214644 
" clip-path="url(#pfef1268a99)" style="fill: none; stroke: #000000; stroke-width: 1.2"/>
    <path d="M 78.295752 54.16365 
L 66.599279 89.519621 
" clip-path="url(#pfef1268a99)" style="fill: none; stroke: #000000; stroke-width: 1.2"/>
    <path d="M 78.295752 54.16365 
L 126.418399 77.194184 
" clip-path="url(#pfef1268a99)" style="fill: none; stroke: #000000; stroke-width: 1.2"/>
    <path d="M 78.295752 54.16365 
L 56.909677 114.973488 
" clip-path="url(#pfef1268a99)" style="fill: none; stroke: #000000; stroke-width: 1.2"/>
    <path d="M 55.368595 92.623651 
L 114.434453 65.228385 
" clip-path="url(#pfef1268a99)" style="fill: none; stroke: #000000; stroke-width: 1.2"/>
    <path d="M 55.368595 92.623651 
L 108.383675 96.214644 
" clip-path="url(#pfef1268a99)" style="fill: none; stroke: #000000; stroke-width: 1.2"/>
    <path d="M 55.368595 92.623651 
L 75.254382 65.272949 
" clip-path="url(#pfef1268a99)" style="fill: none; stroke: #000000; stroke-width: 1.2"/>
    <path d="M 55.368595 92.623651 
L 110.092672 107.953236 
" clip-path="url(#pfef1268a99)" style="fill: none; stroke: #000000; stroke-width: 1.2"/>
    <path d="M 55.368595 92.623651 
L 56.909677 114.973488 
" clip-path="url(#pfef1268a99)" style="fill: none; stroke: #000000; stroke-width: 1.2"/>
    <path d="M 55.368595 92.623651 
L 70.957469 139.282553 
" clip-path="url(#pfef1268a99)" style="fill: none; stroke: #000000; stroke-width: 1.2"/>
    <path d="M 55.368595 92.623651 
L 96.641558 132.286488 
" clip-path="url(#pfef1268a99)" style="fill: none; stroke: #000000; stroke-width: 1.2"/>
    <path d="M 55.368595 92.623651 
L 57.644801 127.717277 
" clip-path="url(#pfef1268a99)" style="fill: none; stroke: #000000; stroke-width: 1.2"/>
    <path d="M 164.16534 74.25645 
L 114.434453 65.228385 
" clip-path="url(#pfef1268a99)" style="fill: none; stroke: #000000; stroke-width: 1.2"/>
    <path d="M 164.16534 74.25645 
L 148.223932 106.839145 
" clip-path="url(#pfef1268a99)" style="fill: none; stroke: #000000; stroke-width: 1.2"/>
    <path d="M 164.16534 74.25645 
L 108.383675 96.214644 
" clip-path="url(#pfef1268a99)" style="fill: none; stroke: #000000; stroke-width: 1.2"/>
    <path d="M 164.16534 74.25645 
L 126.418399 77.194184 
" clip-path="url(#pfef1268a99)" style="fill: none; stroke: #000000; stroke-width: 1.2"/>
    <path d="M 164.16534 74.25645 
L 170.691082 121.056191 
" clip-path="url(#pfef1268a99)" style="fill: none; stroke: #000000; stroke-width: 1.2"/>
    <path d="M 164.16534 74.25645 
L 141.33291 140.780351 
" clip-path="url(#pfef1268a99)" style="fill: none; stroke: #000000; stroke-width: 1.2"/>
    <path d="M 114.434453 65.228385 
L 148.223932 106.839145 
" clip-path="url(#pfef1268a99)" style="fill: none; stroke: #000000; stroke-width: 1.2"/>
    <path d="M 114.434453 65.228385 
L 108.383675 96.214644 
" clip-path="url(#pfef1268a99)" style="fill: none; stroke: #000000; stroke-width: 1.2"/>
    <path d="M 114.434453 65.228385 
L 75.254382 65.272949 
" clip-path="url(#pfef1268a99)" style="fill: none; stroke: #000000; stroke-width: 1.2"/>
    <path d="M 114.434453 65.228385 
L 167.332693 87.832755 
" clip-path="url(#pfef1268a99)" style="fill: none; stroke: #000000; stroke-width: 1.2"/>
    <path d="M 114.434453 65.228385 
L 110.092672 107.953236 
" clip-path="url(#pfef1268a99)" style="fill: none; stroke: #000000; stroke-width: 1.2"/>
    <path d="M 114.434453 65.228385 
L 96.641558 132.286488 
" clip-path="url(#pfef1268a99)" style="fill: none; stroke: #000000; stroke-width: 1.2"/>
    <path d="M 148.223932 106.839145 
L 108.383675 96.214644 
" clip-path="url(#pfef1268a99)" style="fill: none; stroke: #000000; stroke-width: 1.2"/>
    <path d="M 148.223932 106.839145 
L 167.332693 87.832755 
" clip-path="url(#pfef1268a99)" style="fill: none; stroke: #000000; stroke-width: 1.2"/>
    <path d="M 148.223932 106.839145 
L 110.092672 107.953236 
" clip-path="url(#pfef1268a99)" style="fill: none; stroke: #000000; stroke-width: 1.2"/>
    <path d="M 148.223932 106.839145 
L 141.33291 140.780351 
" clip-path="url(#pfef1268a99)" style="fill: none; stroke: #000000; stroke-width: 1.2"/>
    <path d="M 148.223932 106.839145 
L 96.641558 132.286488 
" clip-path="url(#pfef1268a99)" style="fill: none; stroke: #000000; stroke-width: 1.2"/>
    <path d="M 148.223932 106.839145 
L 159.126041 130.797459 
" clip-path="url(#pfef1268a99)" style="fill: none; stroke: #000000; stroke-width: 1.2"/>
    <path d="M 148.223932 106.839145 
L 143.900337 153.538691 
" clip-path="url(#pfef1268a99)" style="fill: none; stroke: #000000; stroke-width: 1.2"/>
    <path d="M 108.383675 96.214644 
L 66.599279 89.519621 
" clip-path="url(#pfef1268a99)" style="fill: none; stroke: #000000; stroke-width: 1.2"/>
    <path d="M 108.383675 96.214644 
L 126.418399 77.194184 
" clip-path="url(#pfef1268a99)" style="fill: none; stroke: #000000; stroke-width: 1.2"/>
    <path d="M 108.383675 96.214644 
L 170.691082 121.056191 
" clip-path="url(#pfef1268a99)" style="fill: none; stroke: #000000; stroke-width: 1.2"/>
    <path d="M 108.383675 96.214644 
L 56.909677 114.973488 
" clip-path="url(#pfef1268a99)" style="fill: none; stroke: #000000; stroke-width: 1.2"/>
    <path d="M 108.383675 96.214644 
L 141.33291 140.780351 
" clip-path="url(#pfef1268a99)" style="fill: none; stroke: #000000; stroke-width: 1.2"/>
    <path d="M 108.383675 96.214644 
L 96.641558 132.286488 
" clip-path="url(#pfef1268a99)" style="fill: none; stroke: #000000; stroke-width: 1.2"/>
    <path d="M 108.383675 96.214644 
L 118.06162 123.526207 
" clip-path="url(#pfef1268a99)" style="fill: none; stroke: #000000; stroke-width: 1.2"/>
    <path d="M 108.383675 96.214644 
L 106.164039 141.356465 
" clip-path="url(#pfef1268a99)" style="fill: none; stroke: #000000; stroke-width: 1.2"/>
    <path d="M 75.254382 65.272949 
L 66.599279 89.519621 
" clip-path="url(#pfef1268a99)" style="fill: none; stroke: #000000; stroke-width: 1.2"/>
    <path d="M 75.254382 65.272949 
L 126.418399 77.194184 
" clip-path="url(#pfef1268a99)" style="fill: none; stroke: #000000; stroke-width: 1.2"/>
    <path d="M 75.254382 65.272949 
L 110.092672 107.953236 
" clip-path="url(#pfef1268a99)" style="fill: none; stroke: #000000; stroke-width: 1.2"/>
    <path d="M 75.254382 65.272949 
L 57.644801 127.717277 
" clip-path="url(#pfef1268a99)" style="fill: none; stroke: #000000; stroke-width: 1.2"/>
    <path d="M 66.599279 89.519621 
L 126.418399 77.194184 
" clip-path="url(#pfef1268a99)" style="fill: none; stroke: #000000; stroke-width: 1.2"/>
    <path d="M 66.599279 89.519621 
L 110.092672 107.953236 
" clip-path="url(#pfef1268a99)" style="fill: none; stroke: #000000; stroke-width: 1.2"/>
    <path d="M 66.599279 89.519621 
L 56.909677 114.973488 
" clip-path="url(#pfef1268a99)" style="fill: none; stroke: #000000; stroke-width: 1.2"/>
    <path d="M 66.599279 89.519621 
L 57.644801 127.717277 
" clip-path="url(#pfef1268a99)" style="fill: none; stroke: #000000; stroke-width: 1.2"/>
    <path d="M 66.599279 89.519621 
L 78.237733 120.685201 
" clip-path="url(#pfef1268a99)" style="fill: none; stroke: #000000; stroke-width: 1.2"/>
    <path d="M 66.599279 89.519621 
L 106.164039 141.356465 
" clip-path="url(#pfef1268a99)" style="fill: none; stroke: #000000; stroke-width: 1.2"/>
    <path d="M 167.332693 87.832755 
L 126.418399 77.194184 
" clip-path="url(#pfef1268a99)" style="fill: none; stroke: #000000; stroke-width: 1.2"/>
    <path d="M 167.332693 87.832755 
L 170.691082 121.056191 
" clip-path="url(#pfef1268a99)" style="fill: none; stroke: #000000; stroke-width: 1.2"/>
    <path d="M 167.332693 87.832755 
L 110.092672 107.953236 
" clip-path="url(#pfef1268a99)" style="fill: none; stroke: #000000; stroke-width: 1.2"/>
    <path d="M 167.332693 87.832755 
L 143.900337 153.538691 
" clip-path="url(#pfef1268a99)" style="fill: none; stroke: #000000; stroke-width: 1.2"/>
    <path d="M 126.418399 77.194184 
L 170.691082 121.056191 
" clip-path="url(#pfef1268a99)" style="fill: none; stroke: #000000; stroke-width: 1.2"/>
    <path d="M 126.418399 77.194184 
L 110.092672 107.953236 
" clip-path="url(#pfef1268a99)" style="fill: none; stroke: #000000; stroke-width: 1.2"/>
    <path d="M 126.418399 77.194184 
L 106.164039 141.356465 
" clip-path="url(#pfef1268a99)" style="fill: none; stroke: #000000; stroke-width: 1.2"/>
    <path d="M 170.691082 121.056191 
L 110.092672 107.953236 
" clip-path="url(#pfef1268a99)" style="fill: none; stroke: #000000; stroke-width: 1.2"/>
    <path d="M 170.691082 121.056191 
L 141.33291 140.780351 
" clip-path="url(#pfef1268a99)" style="fill: none; stroke: #000000; stroke-width: 1.2"/>
    <path d="M 170.691082 121.056191 
L 143.900337 153.538691 
" clip-path="url(#pfef1268a99)" style="fill: none; stroke: #000000; stroke-width: 1.2"/>
    <path d="M 170.691082 121.056191 
L 106.164039 141.356465 
" clip-path="url(#pfef1268a99)" style="fill: none; stroke: #000000; stroke-width: 1.2"/>
    <path d="M 170.691082 121.056191 
L 167.271716 145.570089 
" clip-path="url(#pfef1268a99)" style="fill: none; stroke: #000000; stroke-width: 1.2"/>
    <path d="M 170.691082 121.056191 
L 230.959699 138.141367 
" clip-path="url(#pfef1268a99)" style="fill: none; stroke: #000000; stroke-width: 1.2"/>
    <path d="M 170.691082 121.056191 
L 191.75099 163.468596 
" clip-path="url(#pfef1268a99)" style="fill: none; stroke: #000000; stroke-width: 1.2"/>
    <path d="M 170.691082 121.056191 
L 228.580294 122.040126 
" clip-path="url(#pfef1268a99)" style="fill: none; stroke: #000000; stroke-width: 1.2"/>
    <path d="M 110.092672 107.953236 
L 96.641558 132.286488 
" clip-path="url(#pfef1268a99)" style="fill: none; stroke: #000000; stroke-width: 1.2"/>
    <path d="M 110.092672 107.953236 
L 57.644801 127.717277 
" clip-path="url(#pfef1268a99)" style="fill: none; stroke: #000000; stroke-width: 1.2"/>
    <path d="M 110.092672 107.953236 
L 143.900337 153.538691 
" clip-path="url(#pfef1268a99)" style="fill: none; stroke: #000000; stroke-width: 1.2"/>
    <path d="M 110.092672 107.953236 
L 106.164039 141.356465 
" clip-path="url(#pfef1268a99)" style="fill: none; stroke: #000000; stroke-width: 1.2"/>
    <path d="M 110.092672 107.953236 
L 120.2573 137.185245 
" clip-path="url(#pfef1268a99)" style="fill: none; stroke: #000000; stroke-width: 1.2"/>
    <path d="M 56.909677 114.973488 
L 70.957469 139.282553 
" clip-path="url(#pfef1268a99)" style="fill: none; stroke: #000000; stroke-width: 1.2"/>
    <path d="M 56.909677 114.973488 
L 96.641558 132.286488 
" clip-path="url(#pfef1268a99)" style="fill: none; stroke: #000000; stroke-width: 1.2"/>
    <path d="M 56.909677 114.973488 
L 118.06162 123.526207 
" clip-path="url(#pfef1268a99)" style="fill: none; stroke: #000000; stroke-width: 1.2"/>
    <path d="M 56.909677 114.973488 
L 78.237733 120.685201 
" clip-path="url(#pfef1268a99)" style="fill: none; stroke: #000000; stroke-width: 1.2"/>
    <path d="M 56.909677 114.973488 
L 106.164039 141.356465 
" clip-path="url(#pfef1268a99)" style="fill: none; stroke: #000000; stroke-width: 1.2"/>
    <path d="M 70.957469 139.282553 
L 96.641558 132.286488 
" clip-path="url(#pfef1268a99)" style="fill: none; stroke: #000000; stroke-width: 1.2"/>
    <path d="M 70.957469 139.282553 
L 118.06162 123.526207 
" clip-path="url(#pfef1268a99)" style="fill: none; stroke: #000000; stroke-width: 1.2"/>
    <path d="M 70.957469 139.282553 
L 57.644801 127.717277 
" clip-path="url(#pfef1268a99)" style="fill: none; stroke: #000000; stroke-width: 1.2"/>
    <path d="M 70.957469 139.282553 
L 120.2573 137.185245 
" clip-path="url(#pfef1268a99)" style="fill: none; stroke: #000000; stroke-width: 1.2"/>
    <path d="M 141.33291 140.780351 
L 96.641558 132.286488 
" clip-path="url(#pfef1268a99)" style="fill: none; stroke: #000000; stroke-width: 1.2"/>
    <path d="M 141.33291 140.780351 
L 159.126041 130.797459 
" clip-path="url(#pfef1268a99)" style="fill: none; stroke: #000000; stroke-width: 1.2"/>
    <path d="M 141.33291 140.780351 
L 118.06162 123.526207 
" clip-path="url(#pfef1268a99)" style="fill: none; stroke: #000000; stroke-width: 1.2"/>
    <path d="M 141.33291 140.780351 
L 106.164039 141.356465 
" clip-path="url(#pfef1268a99)" style="fill: none; stroke: #000000; stroke-width: 1.2"/>
    <path d="M 141.33291 140.780351 
L 167.271716 145.570089 
" clip-path="url(#pfef1268a99)" style="fill: none; stroke: #000000; stroke-width: 1.2"/>
    <path d="M 96.641558 132.286488 
L 159.126041 130.797459 
" clip-path="url(#pfef1268a99)" style="fill: none; stroke: #000000; stroke-width: 1.2"/>
    <path d="M 96.641558 132.286488 
L 118.06162 123.526207 
" clip-path="url(#pfef1268a99)" style="fill: none; stroke: #000000; stroke-width: 1.2"/>
    <path d="M 96.641558 132.286488 
L 57.644801 127.717277 
" clip-path="url(#pfef1268a99)" style="fill: none; stroke: #000000; stroke-width: 1.2"/>
    <path d="M 96.641558 132.286488 
L 143.900337 153.538691 
" clip-path="url(#pfef1268a99)" style="fill: none; stroke: #000000; stroke-width: 1.2"/>
    <path d="M 96.641558 132.286488 
L 120.2573 137.185245 
" clip-path="url(#pfef1268a99)" style="fill: none; stroke: #000000; stroke-width: 1.2"/>
    <path d="M 159.126041 130.797459 
L 118.06162 123.526207 
" clip-path="url(#pfef1268a99)" style="fill: none; stroke: #000000; stroke-width: 1.2"/>
    <path d="M 159.126041 130.797459 
L 143.900337 153.538691 
" clip-path="url(#pfef1268a99)" style="fill: none; stroke: #000000; stroke-width: 1.2"/>
    <path d="M 159.126041 130.797459 
L 120.2573 137.185245 
" clip-path="url(#pfef1268a99)" style="fill: none; stroke: #000000; stroke-width: 1.2"/>
    <path d="M 118.06162 123.526207 
L 78.237733 120.685201 
" clip-path="url(#pfef1268a99)" style="fill: none; stroke: #000000; stroke-width: 1.2"/>
    <path d="M 118.06162 123.526207 
L 106.164039 141.356465 
" clip-path="url(#pfef1268a99)" style="fill: none; stroke: #000000; stroke-width: 1.2"/>
    <path d="M 118.06162 123.526207 
L 167.271716 145.570089 
" clip-path="url(#pfef1268a99)" style="fill: none; stroke: #000000; stroke-width: 1.2"/>
    <path d="M 57.644801 127.717277 
L 78.237733 120.685201 
" clip-path="url(#pfef1268a99)" style="fill: none; stroke: #000000; stroke-width: 1.2"/>
    <path d="M 57.644801 127.717277 
L 106.164039 141.356465 
" clip-path="url(#pfef1268a99)" style="fill: none; stroke: #000000; stroke-width: 1.2"/>
    <path d="M 57.644801 127.717277 
L 120.2573 137.185245 
" clip-path="url(#pfef1268a99)" style="fill: none; stroke: #000000; stroke-width: 1.2"/>
    <path d="M 78.237733 120.685201 
L 106.164039 141.356465 
" clip-path="url(#pfef1268a99)" style="fill: none; stroke: #000000; stroke-width: 1.2"/>
    <path d="M 78.237733 120.685201 
L 120.2573 137.185245 
" clip-path="url(#pfef1268a99)" style="fill: none; stroke: #000000; stroke-width: 1.2"/>
    <path d="M 143.900337 153.538691 
L 106.164039 141.356465 
" clip-path="url(#pfef1268a99)" style="fill: none; stroke: #000000; stroke-width: 1.2"/>
    <path d="M 143.900337 153.538691 
L 167.271716 145.570089 
" clip-path="url(#pfef1268a99)" style="fill: none; stroke: #000000; stroke-width: 1.2"/>
    <path d="M 143.900337 153.538691 
L 120.2573 137.185245 
" clip-path="url(#pfef1268a99)" style="fill: none; stroke: #000000; stroke-width: 1.2"/>
    <path d="M 143.900337 153.538691 
L 146.998005 197.010024 
" clip-path="url(#pfef1268a99)" style="fill: none; stroke: #000000; stroke-width: 1.2"/>
    <path d="M 143.900337 153.538691 
L 191.75099 163.468596 
" clip-path="url(#pfef1268a99)" style="fill: none; stroke: #000000; stroke-width: 1.2"/>
    <path d="M 106.164039 141.356465 
L 167.271716 145.570089 
" clip-path="url(#pfef1268a99)" style="fill: none; stroke: #000000; stroke-width: 1.2"/>
    <path d="M 106.164039 141.356465 
L 120.2573 137.185245 
" clip-path="url(#pfef1268a99)" style="fill: none; stroke: #000000; stroke-width: 1.2"/>
    <path d="M 167.271716 145.570089 
L 120.2573 137.185245 
" clip-path="url(#pfef1268a99)" style="fill: none; stroke: #000000; stroke-width: 1.2"/>
    <path d="M 167.271716 145.570089 
L 191.75099 163.468596 
" clip-path="url(#pfef1268a99)" style="fill: none; stroke: #000000; stroke-width: 1.2"/>
    <path d="M 167.271716 145.570089 
L 191.87773 191.366595 
" clip-path="url(#pfef1268a99)" style="fill: none; stroke: #000000; stroke-width: 1.2"/>
    <path d="M 185.909638 237.076364 
L 191.87773 191.366595 
" clip-path="url(#pfef1268a99)" style="fill: none; stroke: #000000; stroke-width: 1.2"/>
    <path d="M 239.831405 210.805024 
L 191.87773 191.366595 
" clip-path="url(#pfef1268a99)" style="fill: none; stroke: #000000; stroke-width: 1.2"/>
    <path d="M 230.959699 138.141367 
L 228.580294 122.040126 
" clip-path="url(#pfef1268a99)" style="fill: none; stroke: #000000; stroke-width: 1.2"/>
    <path d="M 146.998005 197.010024 
L 191.75099 163.468596 
" clip-path="url(#pfef1268a99)" style="fill: none; stroke: #000000; stroke-width: 1.2"/>
    <path d="M 191.75099 163.468596 
L 228.580294 122.040126 
" clip-path="url(#pfef1268a99)" style="fill: none; stroke: #000000; stroke-width: 1.2"/>
    <path d="M 191.75099 163.468596 
L 191.87773 191.366595 
" clip-path="url(#pfef1268a99)" style="fill: none; stroke: #000000; stroke-width: 1.2"/>
   </g>
   <g id="PathCollection_1">
    <defs>
     <path id="C0_0_af9ea0b941" d="M 0 8.944272 
C 2.372049 8.944272 4.647264 8.001847 6.324555 6.324555 
C 8.001847 4.647264 8.944272 2.372049 8.944272 -0 
C 8.944272 -2.372049 8.001847 -4.647264 6.324555 -6.324555 
C 4.647264 -8.001847 2.372049 -8.944272 0 -8.944272 
C -2.372049 -8.944272 -4.647264 -8.001847 -6.324555 -6.324555 
C -8.001847 -4.647264 -8.944272 -2.372049 -8.944272 0 
C -8.944272 2.372049 -8.001847 4.647264 -6.324555 6.324555 
C -4.647264 8.001847 -2.372049 8.944272 0 8.944272 
z
"/>
    </defs>
    <g clip-path="url(#pfef1268a99)">
     <use xlink:href="#C0_0_af9ea0b941" x="83.043675" y="82.277512" style="fill: #e06633; stroke: #e06633; stroke-width: 0.5"/>
    </g>
    <g clip-path="url(#pfef1268a99)">
     <use xlink:href="#C0_0_af9ea0b941" x="177.454888" y="101.951926" style="fill: #e06633; stroke: #e06633; stroke-width: 0.5"/>
    </g>
    <g clip-path="url(#pfef1268a99)">
     <use xlink:href="#C0_0_af9ea0b941" x="127.001595" y="95.138956" style="fill: #e06633; stroke: #e06633; stroke-width: 0.5"/>
    </g>
    <g clip-path="url(#pfef1268a99)">
     <use xlink:href="#C0_0_af9ea0b941" x="174.049996" y="63.318825" style="fill: #e06633; stroke: #e06633; stroke-width: 0.5"/>
    </g>
    <g clip-path="url(#pfef1268a99)">
     <use xlink:href="#C0_0_af9ea0b941" x="137.239341" y="56.942534" style="fill: #e06633; stroke: #e06633; stroke-width: 0.5"/>
    </g>
    <g clip-path="url(#pfef1268a99)">
     <use xlink:href="#C0_0_af9ea0b941" x="83.042457" y="96.41411" style="fill: #e06633; stroke: #e06633; stroke-width: 0.5"/>
    </g>
    <g clip-path="url(#pfef1268a99)">
     <use xlink:href="#C0_0_af9ea0b941" x="101.069788" y="53.803636" style="fill: #e06633; stroke: #e06633; stroke-width: 0.5"/>
    </g>
    <g clip-path="url(#pfef1268a99)">
     <use xlink:href="#C0_0_af9ea0b941" x="180.548888" y="112.831789" style="fill: #e06633; stroke: #e06633; stroke-width: 0.5"/>
    </g>
    <g clip-path="url(#pfef1268a99)">
     <use xlink:href="#C0_0_af9ea0b941" x="136.099761" y="102.235299" style="fill: #e06633; stroke: #e06633; stroke-width: 0.5"/>
    </g>
    <g clip-path="url(#pfef1268a99)">
     <use xlink:href="#C0_0_af9ea0b941" x="188.980686" y="83.056464" style="fill: #e06633; stroke: #e06633; stroke-width: 0.5"/>
    </g>
    <g clip-path="url(#pfef1268a99)">
     <use xlink:href="#C0_0_af9ea0b941" x="140.27608" y="68.323825" style="fill: #e06633; stroke: #e06633; stroke-width: 0.5"/>
    </g>
    <g clip-path="url(#pfef1268a99)">
     <use xlink:href="#C0_0_af9ea0b941" x="78.295752" y="54.16365" style="fill: #e06633; stroke: #e06633; stroke-width: 0.5"/>
    </g>
    <g clip-path="url(#pfef1268a99)">
     <use xlink:href="#C0_0_af9ea0b941" x="55.368595" y="92.623651" style="fill: #e06633; stroke: #e06633; stroke-width: 0.5"/>
    </g>
    <g clip-path="url(#pfef1268a99)">
     <use xlink:href="#C0_0_af9ea0b941" x="164.16534" y="74.25645" style="fill: #e06633; stroke: #e06633; stroke-width: 0.5"/>
    </g>
    <g clip-path="url(#pfef1268a99)">
     <use xlink:href="#C0_0_af9ea0b941" x="114.434453" y="65.228385" style="fill: #e06633; stroke: #e06633; stroke-width: 0.5"/>
    </g>
    <g clip-path="url(#pfef1268a99)">
     <use xlink:href="#C0_0_af9ea0b941" x="148.223932" y="106.839145" style="fill: #e06633; stroke: #e06633; stroke-width: 0.5"/>
    </g>
    <g clip-path="url(#pfef1268a99)">
     <use xlink:href="#C0_0_af9ea0b941" x="108.383675" y="96.214644" style="fill: #e06633; stroke: #e06633; stroke-width: 0.5"/>
    </g>
    <g clip-path="url(#pfef1268a99)">
     <use xlink:href="#C0_0_af9ea0b941" x="75.254382" y="65.272949" style="fill: #e06633; stroke: #e06633; stroke-width: 0.5"/>
    </g>
    <g clip-path="url(#pfef1268a99)">
     <use xlink:href="#C0_0_af9ea0b941" x="66.599279" y="89.519621" style="fill: #e06633; stroke: #e06633; stroke-width: 0.5"/>
    </g>
    <g clip-path="url(#pfef1268a99)">
     <use xlink:href="#C0_0_af9ea0b941" x="167.332693" y="87.832755" style="fill: #e06633; stroke: #e06633; stroke-width: 0.5"/>
    </g>
    <g clip-path="url(#pfef1268a99)">
     <use xlink:href="#C0_0_af9ea0b941" x="126.418399" y="77.194184" style="fill: #e06633; stroke: #e06633; stroke-width: 0.5"/>
    </g>
    <g clip-path="url(#pfef1268a99)">
     <use xlink:href="#C0_0_af9ea0b941" x="170.691082" y="121.056191" style="fill: #e06633; stroke: #e06633; stroke-width: 0.5"/>
    </g>
    <g clip-path="url(#pfef1268a99)">
     <use xlink:href="#C0_0_af9ea0b941" x="110.092672" y="107.953236" style="fill: #e06633; stroke: #e06633; stroke-width: 0.5"/>
    </g>
    <g clip-path="url(#pfef1268a99)">
     <use xlink:href="#C0_0_af9ea0b941" x="56.909677" y="114.973488" style="fill: #e06633; stroke: #e06633; stroke-width: 0.5"/>
    </g>
    <g clip-path="url(#pfef1268a99)">
     <use xlink:href="#C0_0_af9ea0b941" x="70.957469" y="139.282553" style="fill: #e06633; stroke: #e06633; stroke-width: 0.5"/>
    </g>
    <g clip-path="url(#pfef1268a99)">
     <use xlink:href="#C0_0_af9ea0b941" x="141.33291" y="140.780351" style="fill: #e06633; stroke: #e06633; stroke-width: 0.5"/>
    </g>
    <g clip-path="url(#pfef1268a99)">
     <use xlink:href="#C0_0_af9ea0b941" x="96.641558" y="132.286488" style="fill: #e06633; stroke: #e06633; stroke-width: 0.5"/>
    </g>
    <g clip-path="url(#pfef1268a99)">
     <use xlink:href="#C0_0_af9ea0b941" x="159.126041" y="130.797459" style="fill: #e06633; stroke: #e06633; stroke-width: 0.5"/>
    </g>
    <g clip-path="url(#pfef1268a99)">
     <use xlink:href="#C0_0_af9ea0b941" x="118.06162" y="123.526207" style="fill: #e06633; stroke: #e06633; stroke-width: 0.5"/>
    </g>
    <g clip-path="url(#pfef1268a99)">
     <use xlink:href="#C0_0_af9ea0b941" x="57.644801" y="127.717277" style="fill: #e06633; stroke: #e06633; stroke-width: 0.5"/>
    </g>
    <g clip-path="url(#pfef1268a99)">
     <use xlink:href="#C0_0_af9ea0b941" x="78.237733" y="120.685201" style="fill: #e06633; stroke: #e06633; stroke-width: 0.5"/>
    </g>
    <g clip-path="url(#pfef1268a99)">
     <use xlink:href="#C0_0_af9ea0b941" x="143.900337" y="153.538691" style="fill: #e06633; stroke: #e06633; stroke-width: 0.5"/>
    </g>
    <g clip-path="url(#pfef1268a99)">
     <use xlink:href="#C0_0_af9ea0b941" x="106.164039" y="141.356465" style="fill: #e06633; stroke: #e06633; stroke-width: 0.5"/>
    </g>
    <g clip-path="url(#pfef1268a99)">
     <use xlink:href="#C0_0_af9ea0b941" x="167.271716" y="145.570089" style="fill: #e06633; stroke: #e06633; stroke-width: 0.5"/>
    </g>
    <g clip-path="url(#pfef1268a99)">
     <use xlink:href="#C0_0_af9ea0b941" x="120.2573" y="137.185245" style="fill: #e06633; stroke: #e06633; stroke-width: 0.5"/>
    </g>
    <g clip-path="url(#pfef1268a99)">
     <use xlink:href="#C0_0_af9ea0b941" x="185.909638" y="237.076364" style="fill: #bfbfbf; stroke: #bfbfbf; stroke-width: 0.5"/>
    </g>
    <g clip-path="url(#pfef1268a99)">
     <use xlink:href="#C0_0_af9ea0b941" x="239.831405" y="210.805024" style="fill: #bfbfbf; stroke: #bfbfbf; stroke-width: 0.5"/>
    </g>
    <g clip-path="url(#pfef1268a99)">
     <use xlink:href="#C0_0_af9ea0b941" x="230.959699" y="138.141367" style="fill: #bfbfbf; stroke: #bfbfbf; stroke-width: 0.5"/>
    </g>
    <g clip-path="url(#pfef1268a99)">
     <use xlink:href="#C0_0_af9ea0b941" x="146.998005" y="197.010024" style="fill: #bfbfbf; stroke: #bfbfbf; stroke-width: 0.5"/>
    </g>
    <g clip-path="url(#pfef1268a99)">
     <use xlink:href="#C0_0_af9ea0b941" x="191.75099" y="163.468596" style="fill: #666666; stroke: #666666; stroke-width: 0.5"/>
    </g>
    <g clip-path="url(#pfef1268a99)">
     <use xlink:href="#C0_0_af9ea0b941" x="228.580294" y="122.040126" style="fill: #0d0dff; stroke: #0d0dff; stroke-width: 0.5"/>
    </g>
    <g clip-path="url(#pfef1268a99)">
     <use xlink:href="#C0_0_af9ea0b941" x="191.87773" y="191.366595" style="fill: #0d0dff; stroke: #0d0dff; stroke-width: 0.5"/>
    </g>
   </g>
   <g id="text_1">
    <!-- CH4Fe48N2 -->
    <g transform="translate(138.708336 -6.42585) scale(0.1 -0.1)">
     <defs>
      <path id="DejaVuSans-43" d="M 4122 4306 
L 4122 3641 
Q 3803 3938 3442 4084 
Q 3081 4231 2675 4231 
Q 1875 4231 1450 3742 
Q 1025 3253 1025 2328 
Q 1025 1406 1450 917 
Q 1875 428 2675 428 
Q 3081 428 3442 575 
Q 3803 722 4122 1019 
L 4122 359 
Q 3791 134 3420 21 
Q 3050 -91 2638 -91 
Q 1578 -91 968 557 
Q 359 1206 359 2328 
Q 359 3453 968 4101 
Q 1578 4750 2638 4750 
Q 3056 4750 3426 4639 
Q 3797 4528 4122 4306 
z
" transform="scale(0.015625)"/>
      <path id="DejaVuSans-48" d="M 628 4666 
L 1259 4666 
L 1259 2753 
L 3553 2753 
L 3553 4666 
L 4184 4666 
L 4184 0 
L 3553 0 
L 3553 2222 
L 1259 2222 
L 1259 0 
L 628 0 
L 628 4666 
z
" transform="scale(0.015625)"/>
      <path id="DejaVuSans-34" d="M 2419 4116 
L 825 1625 
L 2419 1625 
L 2419 4116 
z
M 2253 4666 
L 3047 4666 
L 3047 1625 
L 3713 1625 
L 3713 1100 
L 3047 1100 
L 3047 0 
L 2419 0 
L 2419 1100 
L 313 1100 
L 313 1709 
L 2253 4666 
z
" transform="scale(0.015625)"/>
      <path id="DejaVuSans-46" d="M 628 4666 
L 3309 4666 
L 3309 4134 
L 1259 4134 
L 1259 2759 
L 3109 2759 
L 3109 2228 
L 1259 2228 
L 1259 0 
L 628 0 
L 628 4666 
z
" transform="scale(0.015625)"/>
      <path id="DejaVuSans-65" d="M 3597 1894 
L 3597 1613 
L 953 1613 
Q 991 1019 1311 708 
Q 1631 397 2203 397 
Q 2534 397 2845 478 
Q 3156 559 3463 722 
L 3463 178 
Q 3153 47 2828 -22 
Q 2503 -91 2169 -91 
Q 1331 -91 842 396 
Q 353 884 353 1716 
Q 353 2575 817 3079 
Q 1281 3584 2069 3584 
Q 2775 3584 3186 3129 
Q 3597 2675 3597 1894 
z
M 3022 2063 
Q 3016 2534 2758 2815 
Q 2500 3097 2075 3097 
Q 1594 3097 1305 2825 
Q 1016 2553 972 2059 
L 3022 2063 
z
" transform="scale(0.015625)"/>
      <path id="DejaVuSans-38" d="M 2034 2216 
Q 1584 2216 1326 1975 
Q 1069 1734 1069 1313 
Q 1069 891 1326 650 
Q 1584 409 2034 409 
Q 2484 409 2743 651 
Q 3003 894 3003 1313 
Q 3003 1734 2745 1975 
Q 2488 2216 2034 2216 
z
M 1403 2484 
Q 997 2584 770 2862 
Q 544 3141 544 3541 
Q 544 4100 942 4425 
Q 1341 4750 2034 4750 
Q 2731 4750 3128 4425 
Q 3525 4100 3525 3541 
Q 3525 3141 3298 2862 
Q 3072 2584 2669 2484 
Q 3125 2378 3379 2068 
Q 3634 1759 3634 1313 
Q 3634 634 3220 271 
Q 2806 -91 2034 -91 
Q 1263 -91 848 271 
Q 434 634 434 1313 
Q 434 1759 690 2068 
Q 947 2378 1403 2484 
z
M 1172 3481 
Q 1172 3119 1398 2916 
Q 1625 2713 2034 2713 
Q 2441 2713 2670 2916 
Q 2900 3119 2900 3481 
Q 2900 3844 2670 4047 
Q 2441 4250 2034 4250 
Q 1625 4250 1398 4047 
Q 1172 3844 1172 3481 
z
" transform="scale(0.015625)"/>
      <path id="DejaVuSans-4e" d="M 628 4666 
L 1478 4666 
L 3547 763 
L 3547 4666 
L 4159 4666 
L 4159 0 
L 3309 0 
L 1241 3903 
L 1241 0 
L 628 0 
L 628 4666 
z
" transform="scale(0.015625)"/>
      <path id="DejaVuSans-32" d="M 1228 531 
L 3431 531 
L 3431 0 
L 469 0 
L 469 531 
Q 828 903 1448 1529 
Q 2069 2156 2228 2338 
Q 2531 2678 2651 2914 
Q 2772 3150 2772 3378 
Q 2772 3750 2511 3984 
Q 2250 4219 1831 4219 
Q 1534 4219 1204 4116 
Q 875 4013 500 3803 
L 500 4441 
Q 881 4594 1212 4672 
Q 1544 4750 1819 4750 
Q 2544 4750 2975 4387 
Q 3406 4025 3406 3419 
Q 3406 3131 3298 2873 
Q 3191 2616 2906 2266 
Q 2828 2175 2409 1742 
Q 1991 1309 1228 531 
z
" transform="scale(0.015625)"/>
     </defs>
     <use xlink:href="#DejaVuSans-43"/>
     <use xlink:href="#DejaVuSans-48" transform="translate(69.824219 0)"/>
     <use xlink:href="#DejaVuSans-34" transform="translate(145.019531 0)"/>
     <use xlink:href="#DejaVuSans-46" transform="translate(208.642578 0)"/>
     <use xlink:href="#DejaVuSans-65" transform="translate(260.662109 0)"/>
     <use xlink:href="#DejaVuSans-34" transform="translate(322.185547 0)"/>
     <use xlink:href="#DejaVuSans-38" transform="translate(385.808594 0)"/>
     <use xlink:href="#DejaVuSans-4e" transform="translate(449.431641 0)"/>
     <use xlink:href="#DejaVuSans-32" transform="translate(524.236328 0)"/>
    </g>
    <!-- Error: -10.13 eV -->
    <g transform="translate(138.708336 4.771962) scale(0.1 -0.1)">
     <defs>
      <path id="DejaVuSans-45" d="M 628 4666 
L 3578 4666 
L 3578 4134 
L 1259 4134 
L 1259 2753 
L 3481 2753 
L 3481 2222 
L 1259 2222 
L 1259 531 
L 3634 531 
L 3634 0 
L 628 0 
L 628 4666 
z
" transform="scale(0.015625)"/>
      <path id="DejaVuSans-72" d="M 2631 2963 
Q 2534 3019 2420 3045 
Q 2306 3072 2169 3072 
Q 1681 3072 1420 2755 
Q 1159 2438 1159 1844 
L 1159 0 
L 581 0 
L 581 3500 
L 1159 3500 
L 1159 2956 
Q 1341 3275 1631 3429 
Q 1922 3584 2338 3584 
Q 2397 3584 2469 3576 
Q 2541 3569 2628 3553 
L 2631 2963 
z
" transform="scale(0.015625)"/>
      <path id="DejaVuSans-6f" d="M 1959 3097 
Q 1497 3097 1228 2736 
Q 959 2375 959 1747 
Q 959 1119 1226 758 
Q 1494 397 1959 397 
Q 2419 397 2687 759 
Q 2956 1122 2956 1747 
Q 2956 2369 2687 2733 
Q 2419 3097 1959 3097 
z
M 1959 3584 
Q 2709 3584 3137 3096 
Q 3566 2609 3566 1747 
Q 3566 888 3137 398 
Q 2709 -91 1959 -91 
Q 1206 -91 779 398 
Q 353 888 353 1747 
Q 353 2609 779 3096 
Q 1206 3584 1959 3584 
z
" transform="scale(0.015625)"/>
      <path id="DejaVuSans-3a" d="M 750 794 
L 1409 794 
L 1409 0 
L 750 0 
L 750 794 
z
M 750 3309 
L 1409 3309 
L 1409 2516 
L 750 2516 
L 750 3309 
z
" transform="scale(0.015625)"/>
      <path id="DejaVuSans-20" transform="scale(0.015625)"/>
      <path id="DejaVuSans-2d" d="M 313 2009 
L 1997 2009 
L 1997 1497 
L 313 1497 
L 313 2009 
z
" transform="scale(0.015625)"/>
      <path id="DejaVuSans-31" d="M 794 531 
L 1825 531 
L 1825 4091 
L 703 3866 
L 703 4441 
L 1819 4666 
L 2450 4666 
L 2450 531 
L 3481 531 
L 3481 0 
L 794 0 
L 794 531 
z
" transform="scale(0.015625)"/>
      <path id="DejaVuSans-30" d="M 2034 4250 
Q 1547 4250 1301 3770 
Q 1056 3291 1056 2328 
Q 1056 1369 1301 889 
Q 1547 409 2034 409 
Q 2525 409 2770 889 
Q 3016 1369 3016 2328 
Q 3016 3291 2770 3770 
Q 2525 4250 2034 4250 
z
M 2034 4750 
Q 2819 4750 3233 4129 
Q 3647 3509 3647 2328 
Q 3647 1150 3233 529 
Q 2819 -91 2034 -91 
Q 1250 -91 836 529 
Q 422 1150 422 2328 
Q 422 3509 836 4129 
Q 1250 4750 2034 4750 
z
" transform="scale(0.015625)"/>
      <path id="DejaVuSans-2e" d="M 684 794 
L 1344 794 
L 1344 0 
L 684 0 
L 684 794 
z
" transform="scale(0.015625)"/>
      <path id="DejaVuSans-33" d="M 2597 2516 
Q 3050 2419 3304 2112 
Q 3559 1806 3559 1356 
Q 3559 666 3084 287 
Q 2609 -91 1734 -91 
Q 1441 -91 1130 -33 
Q 819 25 488 141 
L 488 750 
Q 750 597 1062 519 
Q 1375 441 1716 441 
Q 2309 441 2620 675 
Q 2931 909 2931 1356 
Q 2931 1769 2642 2001 
Q 2353 2234 1838 2234 
L 1294 2234 
L 1294 2753 
L 1863 2753 
Q 2328 2753 2575 2939 
Q 2822 3125 2822 3475 
Q 2822 3834 2567 4026 
Q 2313 4219 1838 4219 
Q 1578 4219 1281 4162 
Q 984 4106 628 3988 
L 628 4550 
Q 988 4650 1302 4700 
Q 1616 4750 1894 4750 
Q 2613 4750 3031 4423 
Q 3450 4097 3450 3541 
Q 3450 3153 3228 2886 
Q 3006 2619 2597 2516 
z
" transform="scale(0.015625)"/>
      <path id="DejaVuSans-56" d="M 1831 0 
L 50 4666 
L 709 4666 
L 2188 738 
L 3669 4666 
L 4325 4666 
L 2547 0 
L 1831 0 
z
" transform="scale(0.015625)"/>
     </defs>
     <use xlink:href="#DejaVuSans-45"/>
     <use xlink:href="#DejaVuSans-72" transform="translate(63.183594 0)"/>
     <use xlink:href="#DejaVuSans-72" transform="translate(102.546875 0)"/>
     <use xlink:href="#DejaVuSans-6f" transform="translate(141.410156 0)"/>
     <use xlink:href="#DejaVuSans-72" transform="translate(202.591797 0)"/>
     <use xlink:href="#DejaVuSans-3a" transform="translate(241.955078 0)"/>
     <use xlink:href="#DejaVuSans-20" transform="translate(275.646484 0)"/>
     <use xlink:href="#DejaVuSans-2d" transform="translate(307.433594 0)"/>
     <use xlink:href="#DejaVuSans-31" transform="translate(343.517578 0)"/>
     <use xlink:href="#DejaVuSans-30" transform="translate(407.140625 0)"/>
     <use xlink:href="#DejaVuSans-2e" transform="translate(470.763672 0)"/>
     <use xlink:href="#DejaVuSans-31" transform="translate(502.550781 0)"/>
     <use xlink:href="#DejaVuSans-33" transform="translate(566.173828 0)"/>
     <use xlink:href="#DejaVuSans-20" transform="translate(629.796875 0)"/>
     <use xlink:href="#DejaVuSans-65" transform="translate(661.583984 0)"/>
     <use xlink:href="#DejaVuSans-56" transform="translate(723.107422 0)"/>
    </g>
   </g>
  </g>
 </g>
 <defs>
  <clipPath id="pfef1268a99">
   <rect x="36" y="34.56" width="223.2" height="221.76"/>
  </clipPath>
 </defs>
</svg>
