<?xml version="1.0" encoding="utf-8" standalone="no"?>
<!DOCTYPE svg PUBLIC "-//W3C//DTD SVG 1.1//EN"
  "http://www.w3.org/Graphics/SVG/1.1/DTD/svg11.dtd">
<svg xmlns:xlink="http://www.w3.org/1999/xlink" width="288pt" height="288pt" viewBox="0 0 288 288" xmlns="http://www.w3.org/2000/svg" version="1.1">
 <metadata>
  <rdf:RDF xmlns:dc="http://purl.org/dc/elements/1.1/" xmlns:cc="http://creativecommons.org/ns#" xmlns:rdf="http://www.w3.org/1999/02/22-rdf-syntax-ns#">
   <cc:Work>
    <dc:type rdf:resource="http://purl.org/dc/dcmitype/StillImage"/>
    <dc:date>2025-05-13T12:44:44.404644</dc:date>
    <dc:format>image/svg+xml</dc:format>
    <dc:creator>
     <cc:Agent>
      <dc:title>Matplotlib v3.10.1, https://matplotlib.org/</dc:title>
     </cc:Agent>
    </dc:creator>
   </cc:Work>
  </rdf:RDF>
 </metadata>
 <defs>
  <style type="text/css">*{stroke-linejoin: round; stroke-linecap: butt}</style>
 </defs>
 <g id="figure_1">
  <g id="patch_1">
   <path d="M 0 288 
L 288 288 
L 288 0 
L 0 0 
z
" style="fill: #ffffff"/>
  </g>
  <g id="axes_1">
   <g id="LineCollection_1">
    <path d="M 205.205611 115.586947 
L 186.875119 140.352781 
" clip-path="url(#p99021ea391)" style="fill: none; stroke: #000000; stroke-width: 1.2"/>
    <path d="M 237.310727 191.250399 
L 213.753857 179.582751 
" clip-path="url(#p99021ea391)" style="fill: none; stroke: #000000; stroke-width: 1.2"/>
    <path d="M 239.831405 165.855892 
L 213.753857 179.582751 
" clip-path="url(#p99021ea391)" style="fill: none; stroke: #000000; stroke-width: 1.2"/>
    <path d="M 152.984849 83.305706 
L 176.747422 64.703118 
" clip-path="url(#p99021ea391)" style="fill: none; stroke: #000000; stroke-width: 1.2"/>
    <path d="M 152.984849 83.305706 
L 143.386751 109.157885 
" clip-path="url(#p99021ea391)" style="fill: none; stroke: #000000; stroke-width: 1.2"/>
    <path d="M 152.984849 83.305706 
L 153.357168 56.149143 
" clip-path="url(#p99021ea391)" style="fill: none; stroke: #000000; stroke-width: 1.2"/>
    <path d="M 152.984849 83.305706 
L 132.969636 107.224933 
" clip-path="url(#p99021ea391)" style="fill: none; stroke: #000000; stroke-width: 1.2"/>
    <path d="M 152.984849 83.305706 
L 139.722449 53.803636 
" clip-path="url(#p99021ea391)" style="fill: none; stroke: #000000; stroke-width: 1.2"/>
    <path d="M 82.133047 121.285099 
L 66.214991 110.054934 
" clip-path="url(#p99021ea391)" style="fill: none; stroke: #000000; stroke-width: 1.2"/>
    <path d="M 82.133047 121.285099 
L 110.94162 131.401083 
" clip-path="url(#p99021ea391)" style="fill: none; stroke: #000000; stroke-width: 1.2"/>
    <path d="M 82.133047 121.285099 
L 71.338321 87.848091 
" clip-path="url(#p99021ea391)" style="fill: none; stroke: #000000; stroke-width: 1.2"/>
    <path d="M 82.133047 121.285099 
L 57.75022 120.213014 
" clip-path="url(#p99021ea391)" style="fill: none; stroke: #000000; stroke-width: 1.2"/>
    <path d="M 82.133047 121.285099 
L 59.590415 146.355455 
" clip-path="url(#p99021ea391)" style="fill: none; stroke: #000000; stroke-width: 1.2"/>
    <path d="M 82.133047 121.285099 
L 55.368595 133.240515 
" clip-path="url(#p99021ea391)" style="fill: none; stroke: #000000; stroke-width: 1.2"/>
    <path d="M 109.775186 203.454958 
L 84.660896 218.816178 
" clip-path="url(#p99021ea391)" style="fill: none; stroke: #000000; stroke-width: 1.2"/>
    <path d="M 109.775186 203.454958 
L 106.917524 230.411194 
" clip-path="url(#p99021ea391)" style="fill: none; stroke: #000000; stroke-width: 1.2"/>
    <path d="M 109.775186 203.454958 
L 130.579759 180.976362 
" clip-path="url(#p99021ea391)" style="fill: none; stroke: #000000; stroke-width: 1.2"/>
    <path d="M 109.775186 203.454958 
L 120.187834 234.431063 
" clip-path="url(#p99021ea391)" style="fill: none; stroke: #000000; stroke-width: 1.2"/>
    <path d="M 109.775186 203.454958 
L 119.749912 179.622642 
" clip-path="url(#p99021ea391)" style="fill: none; stroke: #000000; stroke-width: 1.2"/>
    <path d="M 137.179915 144.804397 
L 143.386751 109.157885 
" clip-path="url(#p99021ea391)" style="fill: none; stroke: #000000; stroke-width: 1.2"/>
    <path d="M 137.179915 144.804397 
L 110.94162 131.401083 
" clip-path="url(#p99021ea391)" style="fill: none; stroke: #000000; stroke-width: 1.2"/>
    <path d="M 137.179915 144.804397 
L 156.552508 142.839976 
" clip-path="url(#p99021ea391)" style="fill: none; stroke: #000000; stroke-width: 1.2"/>
    <path d="M 137.179915 144.804397 
L 130.579759 180.976362 
" clip-path="url(#p99021ea391)" style="fill: none; stroke: #000000; stroke-width: 1.2"/>
    <path d="M 137.179915 144.804397 
L 108.089622 146.673009 
" clip-path="url(#p99021ea391)" style="fill: none; stroke: #000000; stroke-width: 1.2"/>
    <path d="M 137.179915 144.804397 
L 153.778463 162.947536 
" clip-path="url(#p99021ea391)" style="fill: none; stroke: #000000; stroke-width: 1.2"/>
    <path d="M 137.179915 144.804397 
L 164.210742 161.392911 
" clip-path="url(#p99021ea391)" style="fill: none; stroke: #000000; stroke-width: 1.2"/>
    <path d="M 137.179915 144.804397 
L 163.277172 131.480517 
" clip-path="url(#p99021ea391)" style="fill: none; stroke: #000000; stroke-width: 1.2"/>
    <path d="M 132.487019 79.84755 
L 143.386751 109.157885 
" clip-path="url(#p99021ea391)" style="fill: none; stroke: #000000; stroke-width: 1.2"/>
    <path d="M 132.487019 79.84755 
L 153.357168 56.149143 
" clip-path="url(#p99021ea391)" style="fill: none; stroke: #000000; stroke-width: 1.2"/>
    <path d="M 132.487019 79.84755 
L 115.073514 54.428613 
" clip-path="url(#p99021ea391)" style="fill: none; stroke: #000000; stroke-width: 1.2"/>
    <path d="M 132.487019 79.84755 
L 132.969636 107.224933 
" clip-path="url(#p99021ea391)" style="fill: none; stroke: #000000; stroke-width: 1.2"/>
    <path d="M 132.487019 79.84755 
L 139.722449 53.803636 
" clip-path="url(#p99021ea391)" style="fill: none; stroke: #000000; stroke-width: 1.2"/>
    <path d="M 78.12792 143.150627 
L 66.214991 110.054934 
" clip-path="url(#p99021ea391)" style="fill: none; stroke: #000000; stroke-width: 1.2"/>
    <path d="M 78.12792 143.150627 
L 57.75022 120.213014 
" clip-path="url(#p99021ea391)" style="fill: none; stroke: #000000; stroke-width: 1.2"/>
    <path d="M 78.12792 143.150627 
L 59.590415 146.355455 
" clip-path="url(#p99021ea391)" style="fill: none; stroke: #000000; stroke-width: 1.2"/>
    <path d="M 78.12792 143.150627 
L 108.089622 146.673009 
" clip-path="url(#p99021ea391)" style="fill: none; stroke: #000000; stroke-width: 1.2"/>
    <path d="M 78.12792 143.150627 
L 56.461142 169.011502 
" clip-path="url(#p99021ea391)" style="fill: none; stroke: #000000; stroke-width: 1.2"/>
    <path d="M 78.12792 143.150627 
L 55.368595 133.240515 
" clip-path="url(#p99021ea391)" style="fill: none; stroke: #000000; stroke-width: 1.2"/>
    <path d="M 129.763042 209.401385 
L 106.917524 230.411194 
" clip-path="url(#p99021ea391)" style="fill: none; stroke: #000000; stroke-width: 1.2"/>
    <path d="M 129.763042 209.401385 
L 130.579759 180.976362 
" clip-path="url(#p99021ea391)" style="fill: none; stroke: #000000; stroke-width: 1.2"/>
    <path d="M 129.763042 209.401385 
L 144.424068 237.076364 
" clip-path="url(#p99021ea391)" style="fill: none; stroke: #000000; stroke-width: 1.2"/>
    <path d="M 129.763042 209.401385 
L 120.187834 234.431063 
" clip-path="url(#p99021ea391)" style="fill: none; stroke: #000000; stroke-width: 1.2"/>
    <path d="M 129.763042 209.401385 
L 119.749912 179.622642 
" clip-path="url(#p99021ea391)" style="fill: none; stroke: #000000; stroke-width: 1.2"/>
    <path d="M 130.086192 145.216124 
L 110.94162 131.401083 
" clip-path="url(#p99021ea391)" style="fill: none; stroke: #000000; stroke-width: 1.2"/>
    <path d="M 130.086192 145.216124 
L 156.552508 142.839976 
" clip-path="url(#p99021ea391)" style="fill: none; stroke: #000000; stroke-width: 1.2"/>
    <path d="M 130.086192 145.216124 
L 132.969636 107.224933 
" clip-path="url(#p99021ea391)" style="fill: none; stroke: #000000; stroke-width: 1.2"/>
    <path d="M 130.086192 145.216124 
L 108.089622 146.673009 
" clip-path="url(#p99021ea391)" style="fill: none; stroke: #000000; stroke-width: 1.2"/>
    <path d="M 130.086192 145.216124 
L 153.778463 162.947536 
" clip-path="url(#p99021ea391)" style="fill: none; stroke: #000000; stroke-width: 1.2"/>
    <path d="M 130.086192 145.216124 
L 119.749912 179.622642 
" clip-path="url(#p99021ea391)" style="fill: none; stroke: #000000; stroke-width: 1.2"/>
    <path d="M 156.552508 142.839976 
L 186.875119 140.352781 
" clip-path="url(#p99021ea391)" style="fill: none; stroke: #000000; stroke-width: 1.2"/>
    <path d="M 156.552508 142.839976 
L 163.277172 131.480517 
" clip-path="url(#p99021ea391)" style="fill: none; stroke: #000000; stroke-width: 1.2"/>
    <path d="M 153.778463 162.947536 
L 186.074036 168.709941 
" clip-path="url(#p99021ea391)" style="fill: none; stroke: #000000; stroke-width: 1.2"/>
    <path d="M 153.778463 162.947536 
L 164.210742 161.392911 
" clip-path="url(#p99021ea391)" style="fill: none; stroke: #000000; stroke-width: 1.2"/>
    <path d="M 186.074036 168.709941 
L 186.875119 140.352781 
" clip-path="url(#p99021ea391)" style="fill: none; stroke: #000000; stroke-width: 1.2"/>
    <path d="M 186.074036 168.709941 
L 213.753857 179.582751 
" clip-path="url(#p99021ea391)" style="fill: none; stroke: #000000; stroke-width: 1.2"/>
    <path d="M 186.074036 168.709941 
L 191.026623 197.533803 
" clip-path="url(#p99021ea391)" style="fill: none; stroke: #000000; stroke-width: 1.2"/>
    <path d="M 186.074036 168.709941 
L 164.210742 161.392911 
" clip-path="url(#p99021ea391)" style="fill: none; stroke: #000000; stroke-width: 1.2"/>
    <path d="M 186.875119 140.352781 
L 212.451685 133.720032 
" clip-path="url(#p99021ea391)" style="fill: none; stroke: #000000; stroke-width: 1.2"/>
    <path d="M 186.875119 140.352781 
L 163.277172 131.480517 
" clip-path="url(#p99021ea391)" style="fill: none; stroke: #000000; stroke-width: 1.2"/>
    <path d="M 213.753857 179.582751 
L 222.498523 210.90799 
" clip-path="url(#p99021ea391)" style="fill: none; stroke: #000000; stroke-width: 1.2"/>
   </g>
   <g id="PathCollection_1">
    <defs>
     <path id="C0_0_cd50347ba4" d="M 0 8.944272 
C 2.372049 8.944272 4.647264 8.001847 6.324555 6.324555 
C 8.001847 4.647264 8.944272 2.372049 8.944272 -0 
C 8.944272 -2.372049 8.001847 -4.647264 6.324555 -6.324555 
C 4.647264 -8.001847 2.372049 -8.944272 0 -8.944272 
C -2.372049 -8.944272 -4.647264 -8.001847 -6.324555 -6.324555 
C -8.001847 -4.647264 -8.944272 -2.372049 -8.944272 0 
C -8.944272 2.372049 -8.001847 4.647264 -6.324555 6.324555 
C -4.647264 8.001847 -2.372049 8.944272 0 8.944272 
z
"/>
    </defs>
    <g clip-path="url(#p99021ea391)">
     <use xlink:href="#C0_0_cd50347ba4" x="205.205611" y="115.586947" style="fill: #bfbfbf; stroke: #bfbfbf; stroke-width: 0.5"/>
    </g>
    <g clip-path="url(#p99021ea391)">
     <use xlink:href="#C0_0_cd50347ba4" x="237.310727" y="191.250399" style="fill: #bfbfbf; stroke: #bfbfbf; stroke-width: 0.5"/>
    </g>
    <g clip-path="url(#p99021ea391)">
     <use xlink:href="#C0_0_cd50347ba4" x="239.831405" y="165.855892" style="fill: #bfbfbf; stroke: #bfbfbf; stroke-width: 0.5"/>
    </g>
    <g clip-path="url(#p99021ea391)">
     <use xlink:href="#C0_0_cd50347ba4" x="152.984849" y="83.305706" style="fill: #175487; stroke: #175487; stroke-width: 0.5"/>
    </g>
    <g clip-path="url(#p99021ea391)">
     <use xlink:href="#C0_0_cd50347ba4" x="82.133047" y="121.285099" style="fill: #175487; stroke: #175487; stroke-width: 0.5"/>
    </g>
    <g clip-path="url(#p99021ea391)">
     <use xlink:href="#C0_0_cd50347ba4" x="109.775186" y="203.454958" style="fill: #175487; stroke: #175487; stroke-width: 0.5"/>
    </g>
    <g clip-path="url(#p99021ea391)">
     <use xlink:href="#C0_0_cd50347ba4" x="137.179915" y="144.804397" style="fill: #175487; stroke: #175487; stroke-width: 0.5"/>
    </g>
    <g clip-path="url(#p99021ea391)">
     <use xlink:href="#C0_0_cd50347ba4" x="132.487019" y="79.84755" style="fill: #175487; stroke: #175487; stroke-width: 0.5"/>
    </g>
    <g clip-path="url(#p99021ea391)">
     <use xlink:href="#C0_0_cd50347ba4" x="78.12792" y="143.150627" style="fill: #175487; stroke: #175487; stroke-width: 0.5"/>
    </g>
    <g clip-path="url(#p99021ea391)">
     <use xlink:href="#C0_0_cd50347ba4" x="129.763042" y="209.401385" style="fill: #175487; stroke: #175487; stroke-width: 0.5"/>
    </g>
    <g clip-path="url(#p99021ea391)">
     <use xlink:href="#C0_0_cd50347ba4" x="130.086192" y="145.216124" style="fill: #175487; stroke: #175487; stroke-width: 0.5"/>
    </g>
    <g clip-path="url(#p99021ea391)">
     <use xlink:href="#C0_0_cd50347ba4" x="176.747422" y="64.703118" style="fill: #ff0d0d; stroke: #ff0d0d; stroke-width: 0.5"/>
    </g>
    <g clip-path="url(#p99021ea391)">
     <use xlink:href="#C0_0_cd50347ba4" x="143.386751" y="109.157885" style="fill: #ff0d0d; stroke: #ff0d0d; stroke-width: 0.5"/>
    </g>
    <g clip-path="url(#p99021ea391)">
     <use xlink:href="#C0_0_cd50347ba4" x="66.214991" y="110.054934" style="fill: #ff0d0d; stroke: #ff0d0d; stroke-width: 0.5"/>
    </g>
    <g clip-path="url(#p99021ea391)">
     <use xlink:href="#C0_0_cd50347ba4" x="153.357168" y="56.149143" style="fill: #ff0d0d; stroke: #ff0d0d; stroke-width: 0.5"/>
    </g>
    <g clip-path="url(#p99021ea391)">
     <use xlink:href="#C0_0_cd50347ba4" x="110.94162" y="131.401083" style="fill: #ff0d0d; stroke: #ff0d0d; stroke-width: 0.5"/>
    </g>
    <g clip-path="url(#p99021ea391)">
     <use xlink:href="#C0_0_cd50347ba4" x="71.338321" y="87.848091" style="fill: #ff0d0d; stroke: #ff0d0d; stroke-width: 0.5"/>
    </g>
    <g clip-path="url(#p99021ea391)">
     <use xlink:href="#C0_0_cd50347ba4" x="84.660896" y="218.816178" style="fill: #ff0d0d; stroke: #ff0d0d; stroke-width: 0.5"/>
    </g>
    <g clip-path="url(#p99021ea391)">
     <use xlink:href="#C0_0_cd50347ba4" x="156.552508" y="142.839976" style="fill: #ff0d0d; stroke: #ff0d0d; stroke-width: 0.5"/>
    </g>
    <g clip-path="url(#p99021ea391)">
     <use xlink:href="#C0_0_cd50347ba4" x="57.75022" y="120.213014" style="fill: #ff0d0d; stroke: #ff0d0d; stroke-width: 0.5"/>
    </g>
    <g clip-path="url(#p99021ea391)">
     <use xlink:href="#C0_0_cd50347ba4" x="106.917524" y="230.411194" style="fill: #ff0d0d; stroke: #ff0d0d; stroke-width: 0.5"/>
    </g>
    <g clip-path="url(#p99021ea391)">
     <use xlink:href="#C0_0_cd50347ba4" x="130.579759" y="180.976362" style="fill: #ff0d0d; stroke: #ff0d0d; stroke-width: 0.5"/>
    </g>
    <g clip-path="url(#p99021ea391)">
     <use xlink:href="#C0_0_cd50347ba4" x="115.073514" y="54.428613" style="fill: #ff0d0d; stroke: #ff0d0d; stroke-width: 0.5"/>
    </g>
    <g clip-path="url(#p99021ea391)">
     <use xlink:href="#C0_0_cd50347ba4" x="132.969636" y="107.224933" style="fill: #ff0d0d; stroke: #ff0d0d; stroke-width: 0.5"/>
    </g>
    <g clip-path="url(#p99021ea391)">
     <use xlink:href="#C0_0_cd50347ba4" x="59.590415" y="146.355455" style="fill: #ff0d0d; stroke: #ff0d0d; stroke-width: 0.5"/>
    </g>
    <g clip-path="url(#p99021ea391)">
     <use xlink:href="#C0_0_cd50347ba4" x="139.722449" y="53.803636" style="fill: #ff0d0d; stroke: #ff0d0d; stroke-width: 0.5"/>
    </g>
    <g clip-path="url(#p99021ea391)">
     <use xlink:href="#C0_0_cd50347ba4" x="108.089622" y="146.673009" style="fill: #ff0d0d; stroke: #ff0d0d; stroke-width: 0.5"/>
    </g>
    <g clip-path="url(#p99021ea391)">
     <use xlink:href="#C0_0_cd50347ba4" x="56.461142" y="169.011502" style="fill: #ff0d0d; stroke: #ff0d0d; stroke-width: 0.5"/>
    </g>
    <g clip-path="url(#p99021ea391)">
     <use xlink:href="#C0_0_cd50347ba4" x="144.424068" y="237.076364" style="fill: #ff0d0d; stroke: #ff0d0d; stroke-width: 0.5"/>
    </g>
    <g clip-path="url(#p99021ea391)">
     <use xlink:href="#C0_0_cd50347ba4" x="153.778463" y="162.947536" style="fill: #ff0d0d; stroke: #ff0d0d; stroke-width: 0.5"/>
    </g>
    <g clip-path="url(#p99021ea391)">
     <use xlink:href="#C0_0_cd50347ba4" x="55.368595" y="133.240515" style="fill: #ff0d0d; stroke: #ff0d0d; stroke-width: 0.5"/>
    </g>
    <g clip-path="url(#p99021ea391)">
     <use xlink:href="#C0_0_cd50347ba4" x="120.187834" y="234.431063" style="fill: #ff0d0d; stroke: #ff0d0d; stroke-width: 0.5"/>
    </g>
    <g clip-path="url(#p99021ea391)">
     <use xlink:href="#C0_0_cd50347ba4" x="119.749912" y="179.622642" style="fill: #ff0d0d; stroke: #ff0d0d; stroke-width: 0.5"/>
    </g>
    <g clip-path="url(#p99021ea391)">
     <use xlink:href="#C0_0_cd50347ba4" x="186.074036" y="168.709941" style="fill: #666666; stroke: #666666; stroke-width: 0.5"/>
    </g>
    <g clip-path="url(#p99021ea391)">
     <use xlink:href="#C0_0_cd50347ba4" x="186.875119" y="140.352781" style="fill: #666666; stroke: #666666; stroke-width: 0.5"/>
    </g>
    <g clip-path="url(#p99021ea391)">
     <use xlink:href="#C0_0_cd50347ba4" x="213.753857" y="179.582751" style="fill: #666666; stroke: #666666; stroke-width: 0.5"/>
    </g>
    <g clip-path="url(#p99021ea391)">
     <use xlink:href="#C0_0_cd50347ba4" x="191.026623" y="197.533803" style="fill: #bfbfbf; stroke: #bfbfbf; stroke-width: 0.5"/>
    </g>
    <g clip-path="url(#p99021ea391)">
     <use xlink:href="#C0_0_cd50347ba4" x="164.210742" y="161.392911" style="fill: #bfbfbf; stroke: #bfbfbf; stroke-width: 0.5"/>
    </g>
    <g clip-path="url(#p99021ea391)">
     <use xlink:href="#C0_0_cd50347ba4" x="212.451685" y="133.720032" style="fill: #bfbfbf; stroke: #bfbfbf; stroke-width: 0.5"/>
    </g>
    <g clip-path="url(#p99021ea391)">
     <use xlink:href="#C0_0_cd50347ba4" x="222.498523" y="210.90799" style="fill: #bfbfbf; stroke: #bfbfbf; stroke-width: 0.5"/>
    </g>
    <g clip-path="url(#p99021ea391)">
     <use xlink:href="#C0_0_cd50347ba4" x="163.277172" y="131.480517" style="fill: #bfbfbf; stroke: #bfbfbf; stroke-width: 0.5"/>
    </g>
   </g>
   <g id="text_1">
    <g clip-path="url(#p99021ea391)">
     <!-- H -->
     <g style="fill: #ffffff" transform="translate(200.184361 118.898197) scale(0.12 -0.12)">
      <defs>
       <path id="DejaVuSans-Bold-48" d="M 588 4666 
L 1791 4666 
L 1791 2888 
L 3566 2888 
L 3566 4666 
L 4769 4666 
L 4769 0 
L 3566 0 
L 3566 1978 
L 1791 1978 
L 1791 0 
L 588 0 
L 588 4666 
z
" transform="scale(0.015625)"/>
      </defs>
      <use xlink:href="#DejaVuSans-Bold-48"/>
     </g>
    </g>
   </g>
   <g id="text_2">
    <g clip-path="url(#p99021ea391)">
     <!-- H -->
     <g style="fill: #ffffff" transform="translate(232.289477 194.561649) scale(0.12 -0.12)">
      <use xlink:href="#DejaVuSans-Bold-48"/>
     </g>
    </g>
   </g>
   <g id="text_3">
    <g clip-path="url(#p99021ea391)">
     <!-- H -->
     <g style="fill: #ffffff" transform="translate(234.810155 169.167142) scale(0.12 -0.12)">
      <use xlink:href="#DejaVuSans-Bold-48"/>
     </g>
    </g>
   </g>
   <g id="text_4">
    <g clip-path="url(#p99021ea391)">
     <!-- Ir -->
     <g style="fill: #ffffff" transform="translate(147.793912 86.616956) scale(0.12 -0.12)">
      <defs>
       <path id="DejaVuSans-Bold-49" d="M 588 4666 
L 1791 4666 
L 1791 0 
L 588 0 
L 588 4666 
z
" transform="scale(0.015625)"/>
       <path id="DejaVuSans-Bold-72" d="M 3138 2547 
Q 2991 2616 2845 2648 
Q 2700 2681 2553 2681 
Q 2122 2681 1889 2404 
Q 1656 2128 1656 1613 
L 1656 0 
L 538 0 
L 538 3500 
L 1656 3500 
L 1656 2925 
Q 1872 3269 2151 3426 
Q 2431 3584 2822 3584 
Q 2878 3584 2943 3579 
Q 3009 3575 3134 3559 
L 3138 2547 
z
" transform="scale(0.015625)"/>
      </defs>
      <use xlink:href="#DejaVuSans-Bold-49"/>
      <use xlink:href="#DejaVuSans-Bold-72" transform="translate(37.207031 0)"/>
     </g>
    </g>
   </g>
   <g id="text_5">
    <g clip-path="url(#p99021ea391)">
     <!-- Ir -->
     <g style="fill: #ffffff" transform="translate(76.94211 124.596349) scale(0.12 -0.12)">
      <use xlink:href="#DejaVuSans-Bold-49"/>
      <use xlink:href="#DejaVuSans-Bold-72" transform="translate(37.207031 0)"/>
     </g>
    </g>
   </g>
   <g id="text_6">
    <g clip-path="url(#p99021ea391)">
     <!-- Ir -->
     <g style="fill: #ffffff" transform="translate(104.584248 206.766208) scale(0.12 -0.12)">
      <use xlink:href="#DejaVuSans-Bold-49"/>
      <use xlink:href="#DejaVuSans-Bold-72" transform="translate(37.207031 0)"/>
     </g>
    </g>
   </g>
   <g id="text_7">
    <g clip-path="url(#p99021ea391)">
     <!-- Ir -->
     <g style="fill: #ffffff" transform="translate(131.988978 148.115647) scale(0.12 -0.12)">
      <use xlink:href="#DejaVuSans-Bold-49"/>
      <use xlink:href="#DejaVuSans-Bold-72" transform="translate(37.207031 0)"/>
     </g>
    </g>
   </g>
   <g id="text_8">
    <g clip-path="url(#p99021ea391)">
     <!-- Ir -->
     <g style="fill: #ffffff" transform="translate(127.296081 83.1588) scale(0.12 -0.12)">
      <use xlink:href="#DejaVuSans-Bold-49"/>
      <use xlink:href="#DejaVuSans-Bold-72" transform="translate(37.207031 0)"/>
     </g>
    </g>
   </g>
   <g id="text_9">
    <g clip-path="url(#p99021ea391)">
     <!-- Ir -->
     <g style="fill: #ffffff" transform="translate(72.936983 146.461877) scale(0.12 -0.12)">
      <use xlink:href="#DejaVuSans-Bold-49"/>
      <use xlink:href="#DejaVuSans-Bold-72" transform="translate(37.207031 0)"/>
     </g>
    </g>
   </g>
   <g id="text_10">
    <g clip-path="url(#p99021ea391)">
     <!-- Ir -->
     <g style="fill: #ffffff" transform="translate(124.572105 212.712635) scale(0.12 -0.12)">
      <use xlink:href="#DejaVuSans-Bold-49"/>
      <use xlink:href="#DejaVuSans-Bold-72" transform="translate(37.207031 0)"/>
     </g>
    </g>
   </g>
   <g id="text_11">
    <g clip-path="url(#p99021ea391)">
     <!-- Ir -->
     <g style="fill: #ffffff" transform="translate(124.895254 148.527374) scale(0.12 -0.12)">
      <use xlink:href="#DejaVuSans-Bold-49"/>
      <use xlink:href="#DejaVuSans-Bold-72" transform="translate(37.207031 0)"/>
     </g>
    </g>
   </g>
   <g id="text_12">
    <g clip-path="url(#p99021ea391)">
     <!-- O -->
     <g style="fill: #ffffff" transform="translate(171.646484 68.014368) scale(0.12 -0.12)">
      <defs>
       <path id="DejaVuSans-Bold-4f" d="M 2719 3878 
Q 2169 3878 1866 3472 
Q 1563 3066 1563 2328 
Q 1563 1594 1866 1187 
Q 2169 781 2719 781 
Q 3272 781 3575 1187 
Q 3878 1594 3878 2328 
Q 3878 3066 3575 3472 
Q 3272 3878 2719 3878 
z
M 2719 4750 
Q 3844 4750 4481 4106 
Q 5119 3463 5119 2328 
Q 5119 1197 4481 553 
Q 3844 -91 2719 -91 
Q 1597 -91 958 553 
Q 319 1197 319 2328 
Q 319 3463 958 4106 
Q 1597 4750 2719 4750 
z
" transform="scale(0.015625)"/>
      </defs>
      <use xlink:href="#DejaVuSans-Bold-4f"/>
     </g>
    </g>
   </g>
   <g id="text_13">
    <g clip-path="url(#p99021ea391)">
     <!-- O -->
     <g style="fill: #ffffff" transform="translate(138.285813 112.469135) scale(0.12 -0.12)">
      <use xlink:href="#DejaVuSans-Bold-4f"/>
     </g>
    </g>
   </g>
   <g id="text_14">
    <g clip-path="url(#p99021ea391)">
     <!-- O -->
     <g style="fill: #ffffff" transform="translate(61.114054 113.366184) scale(0.12 -0.12)">
      <use xlink:href="#DejaVuSans-Bold-4f"/>
     </g>
    </g>
   </g>
   <g id="text_15">
    <g clip-path="url(#p99021ea391)">
     <!-- O -->
     <g style="fill: #ffffff" transform="translate(148.256231 59.460393) scale(0.12 -0.12)">
      <use xlink:href="#DejaVuSans-Bold-4f"/>
     </g>
    </g>
   </g>
   <g id="text_16">
    <g clip-path="url(#p99021ea391)">
     <!-- O -->
     <g style="fill: #ffffff" transform="translate(105.840682 134.712333) scale(0.12 -0.12)">
      <use xlink:href="#DejaVuSans-Bold-4f"/>
     </g>
    </g>
   </g>
   <g id="text_17">
    <g clip-path="url(#p99021ea391)">
     <!-- O -->
     <g style="fill: #ffffff" transform="translate(66.237384 91.159341) scale(0.12 -0.12)">
      <use xlink:href="#DejaVuSans-Bold-4f"/>
     </g>
    </g>
   </g>
   <g id="text_18">
    <g clip-path="url(#p99021ea391)">
     <!-- O -->
     <g style="fill: #ffffff" transform="translate(79.559958 222.127428) scale(0.12 -0.12)">
      <use xlink:href="#DejaVuSans-Bold-4f"/>
     </g>
    </g>
   </g>
   <g id="text_19">
    <g clip-path="url(#p99021ea391)">
     <!-- O -->
     <g style="fill: #ffffff" transform="translate(151.451571 146.151226) scale(0.12 -0.12)">
      <use xlink:href="#DejaVuSans-Bold-4f"/>
     </g>
    </g>
   </g>
   <g id="text_20">
    <g clip-path="url(#p99021ea391)">
     <!-- O -->
     <g style="fill: #ffffff" transform="translate(52.649282 123.524264) scale(0.12 -0.12)">
      <use xlink:href="#DejaVuSans-Bold-4f"/>
     </g>
    </g>
   </g>
   <g id="text_21">
    <g clip-path="url(#p99021ea391)">
     <!-- O -->
     <g style="fill: #ffffff" transform="translate(101.816586 233.722444) scale(0.12 -0.12)">
      <use xlink:href="#DejaVuSans-Bold-4f"/>
     </g>
    </g>
   </g>
   <g id="text_22">
    <g clip-path="url(#p99021ea391)">
     <!-- O -->
     <g style="fill: #ffffff" transform="translate(125.478821 184.287612) scale(0.12 -0.12)">
      <use xlink:href="#DejaVuSans-Bold-4f"/>
     </g>
    </g>
   </g>
   <g id="text_23">
    <g clip-path="url(#p99021ea391)">
     <!-- O -->
     <g style="fill: #ffffff" transform="translate(109.972576 57.739863) scale(0.12 -0.12)">
      <use xlink:href="#DejaVuSans-Bold-4f"/>
     </g>
    </g>
   </g>
   <g id="text_24">
    <g clip-path="url(#p99021ea391)">
     <!-- O -->
     <g style="fill: #ffffff" transform="translate(127.868698 110.536183) scale(0.12 -0.12)">
      <use xlink:href="#DejaVuSans-Bold-4f"/>
     </g>
    </g>
   </g>
   <g id="text_25">
    <g clip-path="url(#p99021ea391)">
     <!-- O -->
     <g style="fill: #ffffff" transform="translate(54.489478 149.666705) scale(0.12 -0.12)">
      <use xlink:href="#DejaVuSans-Bold-4f"/>
     </g>
    </g>
   </g>
   <g id="text_26">
    <g clip-path="url(#p99021ea391)">
     <!-- O -->
     <g style="fill: #ffffff" transform="translate(134.621511 57.114886) scale(0.12 -0.12)">
      <use xlink:href="#DejaVuSans-Bold-4f"/>
     </g>
    </g>
   </g>
   <g id="text_27">
    <g clip-path="url(#p99021ea391)">
     <!-- O -->
     <g style="fill: #ffffff" transform="translate(102.988685 149.984259) scale(0.12 -0.12)">
      <use xlink:href="#DejaVuSans-Bold-4f"/>
     </g>
    </g>
   </g>
   <g id="text_28">
    <g clip-path="url(#p99021ea391)">
     <!-- O -->
     <g style="fill: #ffffff" transform="translate(51.360205 172.322752) scale(0.12 -0.12)">
      <use xlink:href="#DejaVuSans-Bold-4f"/>
     </g>
    </g>
   </g>
   <g id="text_29">
    <g clip-path="url(#p99021ea391)">
     <!-- O -->
     <g style="fill: #ffffff" transform="translate(139.323131 240.387614) scale(0.12 -0.12)">
      <use xlink:href="#DejaVuSans-Bold-4f"/>
     </g>
    </g>
   </g>
   <g id="text_30">
    <g clip-path="url(#p99021ea391)">
     <!-- O -->
     <g style="fill: #ffffff" transform="translate(148.677526 166.258786) scale(0.12 -0.12)">
      <use xlink:href="#DejaVuSans-Bold-4f"/>
     </g>
    </g>
   </g>
   <g id="text_31">
    <g clip-path="url(#p99021ea391)">
     <!-- O -->
     <g style="fill: #ffffff" transform="translate(50.267658 136.551765) scale(0.12 -0.12)">
      <use xlink:href="#DejaVuSans-Bold-4f"/>
     </g>
    </g>
   </g>
   <g id="text_32">
    <g clip-path="url(#p99021ea391)">
     <!-- O -->
     <g style="fill: #ffffff" transform="translate(115.086896 237.742313) scale(0.12 -0.12)">
      <use xlink:href="#DejaVuSans-Bold-4f"/>
     </g>
    </g>
   </g>
   <g id="text_33">
    <g clip-path="url(#p99021ea391)">
     <!-- O -->
     <g style="fill: #ffffff" transform="translate(114.648974 182.933892) scale(0.12 -0.12)">
      <use xlink:href="#DejaVuSans-Bold-4f"/>
     </g>
    </g>
   </g>
   <g id="text_34">
    <g clip-path="url(#p99021ea391)">
     <!-- C -->
     <g style="fill: #ffffff" transform="translate(181.670598 172.021191) scale(0.12 -0.12)">
      <defs>
       <path id="DejaVuSans-Bold-43" d="M 4288 256 
Q 3956 84 3597 -3 
Q 3238 -91 2847 -91 
Q 1681 -91 1000 561 
Q 319 1213 319 2328 
Q 319 3447 1000 4098 
Q 1681 4750 2847 4750 
Q 3238 4750 3597 4662 
Q 3956 4575 4288 4403 
L 4288 3438 
Q 3953 3666 3628 3772 
Q 3303 3878 2944 3878 
Q 2300 3878 1931 3465 
Q 1563 3053 1563 2328 
Q 1563 1606 1931 1193 
Q 2300 781 2944 781 
Q 3303 781 3628 887 
Q 3953 994 4288 1222 
L 4288 256 
z
" transform="scale(0.015625)"/>
      </defs>
      <use xlink:href="#DejaVuSans-Bold-43"/>
     </g>
    </g>
   </g>
   <g id="text_35">
    <g clip-path="url(#p99021ea391)">
     <!-- C -->
     <g style="fill: #ffffff" transform="translate(182.471682 143.664031) scale(0.12 -0.12)">
      <use xlink:href="#DejaVuSans-Bold-43"/>
     </g>
    </g>
   </g>
   <g id="text_36">
    <g clip-path="url(#p99021ea391)">
     <!-- C -->
     <g style="fill: #ffffff" transform="translate(209.350419 182.894001) scale(0.12 -0.12)">
      <use xlink:href="#DejaVuSans-Bold-43"/>
     </g>
    </g>
   </g>
   <g id="text_37">
    <g clip-path="url(#p99021ea391)">
     <!-- H -->
     <g style="fill: #ffffff" transform="translate(186.005373 200.845053) scale(0.12 -0.12)">
      <use xlink:href="#DejaVuSans-Bold-48"/>
     </g>
    </g>
   </g>
   <g id="text_38">
    <g clip-path="url(#p99021ea391)">
     <!-- H -->
     <g style="fill: #ffffff" transform="translate(159.189492 164.704161) scale(0.12 -0.12)">
      <use xlink:href="#DejaVuSans-Bold-48"/>
     </g>
    </g>
   </g>
   <g id="text_39">
    <g clip-path="url(#p99021ea391)">
     <!-- H -->
     <g style="fill: #ffffff" transform="translate(207.430435 137.031282) scale(0.12 -0.12)">
      <use xlink:href="#DejaVuSans-Bold-48"/>
     </g>
    </g>
   </g>
   <g id="text_40">
    <g clip-path="url(#p99021ea391)">
     <!-- H -->
     <g style="fill: #ffffff" transform="translate(217.477273 214.21924) scale(0.12 -0.12)">
      <use xlink:href="#DejaVuSans-Bold-48"/>
     </g>
    </g>
   </g>
   <g id="text_41">
    <g clip-path="url(#p99021ea391)">
     <!-- H -->
     <g style="fill: #ffffff" transform="translate(158.255922 134.791767) scale(0.12 -0.12)">
      <use xlink:href="#DejaVuSans-Bold-48"/>
     </g>
    </g>
   </g>
   <g id="text_42">
    <!-- C3H8Ir40O80 -->
    <g transform="translate(140.603431 31.246658) scale(0.1 -0.1)">
     <defs>
      <path id="DejaVuSans-43" d="M 4122 4306 
L 4122 3641 
Q 3803 3938 3442 4084 
Q 3081 4231 2675 4231 
Q 1875 4231 1450 3742 
Q 1025 3253 1025 2328 
Q 1025 1406 1450 917 
Q 1875 428 2675 428 
Q 3081 428 3442 575 
Q 3803 722 4122 1019 
L 4122 359 
Q 3791 134 3420 21 
Q 3050 -91 2638 -91 
Q 1578 -91 968 557 
Q 359 1206 359 2328 
Q 359 3453 968 4101 
Q 1578 4750 2638 4750 
Q 3056 4750 3426 4639 
Q 3797 4528 4122 4306 
z
" transform="scale(0.015625)"/>
      <path id="DejaVuSans-33" d="M 2597 2516 
Q 3050 2419 3304 2112 
Q 3559 1806 3559 1356 
Q 3559 666 3084 287 
Q 2609 -91 1734 -91 
Q 1441 -91 1130 -33 
Q 819 25 488 141 
L 488 750 
Q 750 597 1062 519 
Q 1375 441 1716 441 
Q 2309 441 2620 675 
Q 2931 909 2931 1356 
Q 2931 1769 2642 2001 
Q 2353 2234 1838 2234 
L 1294 2234 
L 1294 2753 
L 1863 2753 
Q 2328 2753 2575 2939 
Q 2822 3125 2822 3475 
Q 2822 3834 2567 4026 
Q 2313 4219 1838 4219 
Q 1578 4219 1281 4162 
Q 984 4106 628 3988 
L 628 4550 
Q 988 4650 1302 4700 
Q 1616 4750 1894 4750 
Q 2613 4750 3031 4423 
Q 3450 4097 3450 3541 
Q 3450 3153 3228 2886 
Q 3006 2619 2597 2516 
z
" transform="scale(0.015625)"/>
      <path id="DejaVuSans-48" d="M 628 4666 
L 1259 4666 
L 1259 2753 
L 3553 2753 
L 3553 4666 
L 4184 4666 
L 4184 0 
L 3553 0 
L 3553 2222 
L 1259 2222 
L 1259 0 
L 628 0 
L 628 4666 
z
" transform="scale(0.015625)"/>
      <path id="DejaVuSans-38" d="M 2034 2216 
Q 1584 2216 1326 1975 
Q 1069 1734 1069 1313 
Q 1069 891 1326 650 
Q 1584 409 2034 409 
Q 2484 409 2743 651 
Q 3003 894 3003 1313 
Q 3003 1734 2745 1975 
Q 2488 2216 2034 2216 
z
M 1403 2484 
Q 997 2584 770 2862 
Q 544 3141 544 3541 
Q 544 4100 942 4425 
Q 1341 4750 2034 4750 
Q 2731 4750 3128 4425 
Q 3525 4100 3525 3541 
Q 3525 3141 3298 2862 
Q 3072 2584 2669 2484 
Q 3125 2378 3379 2068 
Q 3634 1759 3634 1313 
Q 3634 634 3220 271 
Q 2806 -91 2034 -91 
Q 1263 -91 848 271 
Q 434 634 434 1313 
Q 434 1759 690 2068 
Q 947 2378 1403 2484 
z
M 1172 3481 
Q 1172 3119 1398 2916 
Q 1625 2713 2034 2713 
Q 2441 2713 2670 2916 
Q 2900 3119 2900 3481 
Q 2900 3844 2670 4047 
Q 2441 4250 2034 4250 
Q 1625 4250 1398 4047 
Q 1172 3844 1172 3481 
z
" transform="scale(0.015625)"/>
      <path id="DejaVuSans-49" d="M 628 4666 
L 1259 4666 
L 1259 0 
L 628 0 
L 628 4666 
z
" transform="scale(0.015625)"/>
      <path id="DejaVuSans-72" d="M 2631 2963 
Q 2534 3019 2420 3045 
Q 2306 3072 2169 3072 
Q 1681 3072 1420 2755 
Q 1159 2438 1159 1844 
L 1159 0 
L 581 0 
L 581 3500 
L 1159 3500 
L 1159 2956 
Q 1341 3275 1631 3429 
Q 1922 3584 2338 3584 
Q 2397 3584 2469 3576 
Q 2541 3569 2628 3553 
L 2631 2963 
z
" transform="scale(0.015625)"/>
      <path id="DejaVuSans-34" d="M 2419 4116 
L 825 1625 
L 2419 1625 
L 2419 4116 
z
M 2253 4666 
L 3047 4666 
L 3047 1625 
L 3713 1625 
L 3713 1100 
L 3047 1100 
L 3047 0 
L 2419 0 
L 2419 1100 
L 313 1100 
L 313 1709 
L 2253 4666 
z
" transform="scale(0.015625)"/>
      <path id="DejaVuSans-30" d="M 2034 4250 
Q 1547 4250 1301 3770 
Q 1056 3291 1056 2328 
Q 1056 1369 1301 889 
Q 1547 409 2034 409 
Q 2525 409 2770 889 
Q 3016 1369 3016 2328 
Q 3016 3291 2770 3770 
Q 2525 4250 2034 4250 
z
M 2034 4750 
Q 2819 4750 3233 4129 
Q 3647 3509 3647 2328 
Q 3647 1150 3233 529 
Q 2819 -91 2034 -91 
Q 1250 -91 836 529 
Q 422 1150 422 2328 
Q 422 3509 836 4129 
Q 1250 4750 2034 4750 
z
" transform="scale(0.015625)"/>
      <path id="DejaVuSans-4f" d="M 2522 4238 
Q 1834 4238 1429 3725 
Q 1025 3213 1025 2328 
Q 1025 1447 1429 934 
Q 1834 422 2522 422 
Q 3209 422 3611 934 
Q 4013 1447 4013 2328 
Q 4013 3213 3611 3725 
Q 3209 4238 2522 4238 
z
M 2522 4750 
Q 3503 4750 4090 4092 
Q 4678 3434 4678 2328 
Q 4678 1225 4090 567 
Q 3503 -91 2522 -91 
Q 1538 -91 948 565 
Q 359 1222 359 2328 
Q 359 3434 948 4092 
Q 1538 4750 2522 4750 
z
" transform="scale(0.015625)"/>
     </defs>
     <use xlink:href="#DejaVuSans-43"/>
     <use xlink:href="#DejaVuSans-33" transform="translate(69.824219 0)"/>
     <use xlink:href="#DejaVuSans-48" transform="translate(133.447266 0)"/>
     <use xlink:href="#DejaVuSans-38" transform="translate(208.642578 0)"/>
     <use xlink:href="#DejaVuSans-49" transform="translate(272.265625 0)"/>
     <use xlink:href="#DejaVuSans-72" transform="translate(301.757812 0)"/>
     <use xlink:href="#DejaVuSans-34" transform="translate(342.871094 0)"/>
     <use xlink:href="#DejaVuSans-30" transform="translate(406.494141 0)"/>
     <use xlink:href="#DejaVuSans-4f" transform="translate(470.117188 0)"/>
     <use xlink:href="#DejaVuSans-38" transform="translate(548.828125 0)"/>
     <use xlink:href="#DejaVuSans-30" transform="translate(612.451172 0)"/>
    </g>
    <!-- Error: 1.72 eV -->
    <g transform="translate(140.603431 42.444471) scale(0.1 -0.1)">
     <defs>
      <path id="DejaVuSans-45" d="M 628 4666 
L 3578 4666 
L 3578 4134 
L 1259 4134 
L 1259 2753 
L 3481 2753 
L 3481 2222 
L 1259 2222 
L 1259 531 
L 3634 531 
L 3634 0 
L 628 0 
L 628 4666 
z
" transform="scale(0.015625)"/>
      <path id="DejaVuSans-6f" d="M 1959 3097 
Q 1497 3097 1228 2736 
Q 959 2375 959 1747 
Q 959 1119 1226 758 
Q 1494 397 1959 397 
Q 2419 397 2687 759 
Q 2956 1122 2956 1747 
Q 2956 2369 2687 2733 
Q 2419 3097 1959 3097 
z
M 1959 3584 
Q 2709 3584 3137 3096 
Q 3566 2609 3566 1747 
Q 3566 888 3137 398 
Q 2709 -91 1959 -91 
Q 1206 -91 779 398 
Q 353 888 353 1747 
Q 353 2609 779 3096 
Q 1206 3584 1959 3584 
z
" transform="scale(0.015625)"/>
      <path id="DejaVuSans-3a" d="M 750 794 
L 1409 794 
L 1409 0 
L 750 0 
L 750 794 
z
M 750 3309 
L 1409 3309 
L 1409 2516 
L 750 2516 
L 750 3309 
z
" transform="scale(0.015625)"/>
      <path id="DejaVuSans-20" transform="scale(0.015625)"/>
      <path id="DejaVuSans-31" d="M 794 531 
L 1825 531 
L 1825 4091 
L 703 3866 
L 703 4441 
L 1819 4666 
L 2450 4666 
L 2450 531 
L 3481 531 
L 3481 0 
L 794 0 
L 794 531 
z
" transform="scale(0.015625)"/>
      <path id="DejaVuSans-2e" d="M 684 794 
L 1344 794 
L 1344 0 
L 684 0 
L 684 794 
z
" transform="scale(0.015625)"/>
      <path id="DejaVuSans-37" d="M 525 4666 
L 3525 4666 
L 3525 4397 
L 1831 0 
L 1172 0 
L 2766 4134 
L 525 4134 
L 525 4666 
z
" transform="scale(0.015625)"/>
      <path id="DejaVuSans-32" d="M 1228 531 
L 3431 531 
L 3431 0 
L 469 0 
L 469 531 
Q 828 903 1448 1529 
Q 2069 2156 2228 2338 
Q 2531 2678 2651 2914 
Q 2772 3150 2772 3378 
Q 2772 3750 2511 3984 
Q 2250 4219 1831 4219 
Q 1534 4219 1204 4116 
Q 875 4013 500 3803 
L 500 4441 
Q 881 4594 1212 4672 
Q 1544 4750 1819 4750 
Q 2544 4750 2975 4387 
Q 3406 4025 3406 3419 
Q 3406 3131 3298 2873 
Q 3191 2616 2906 2266 
Q 2828 2175 2409 1742 
Q 1991 1309 1228 531 
z
" transform="scale(0.015625)"/>
      <path id="DejaVuSans-65" d="M 3597 1894 
L 3597 1613 
L 953 1613 
Q 991 1019 1311 708 
Q 1631 397 2203 397 
Q 2534 397 2845 478 
Q 3156 559 3463 722 
L 3463 178 
Q 3153 47 2828 -22 
Q 2503 -91 2169 -91 
Q 1331 -91 842 396 
Q 353 884 353 1716 
Q 353 2575 817 3079 
Q 1281 3584 2069 3584 
Q 2775 3584 3186 3129 
Q 3597 2675 3597 1894 
z
M 3022 2063 
Q 3016 2534 2758 2815 
Q 2500 3097 2075 3097 
Q 1594 3097 1305 2825 
Q 1016 2553 972 2059 
L 3022 2063 
z
" transform="scale(0.015625)"/>
      <path id="DejaVuSans-56" d="M 1831 0 
L 50 4666 
L 709 4666 
L 2188 738 
L 3669 4666 
L 4325 4666 
L 2547 0 
L 1831 0 
z
" transform="scale(0.015625)"/>
     </defs>
     <use xlink:href="#DejaVuSans-45"/>
     <use xlink:href="#DejaVuSans-72" transform="translate(63.183594 0)"/>
     <use xlink:href="#DejaVuSans-72" transform="translate(102.546875 0)"/>
     <use xlink:href="#DejaVuSans-6f" transform="translate(141.410156 0)"/>
     <use xlink:href="#DejaVuSans-72" transform="translate(202.591797 0)"/>
     <use xlink:href="#DejaVuSans-3a" transform="translate(241.955078 0)"/>
     <use xlink:href="#DejaVuSans-20" transform="translate(275.646484 0)"/>
     <use xlink:href="#DejaVuSans-31" transform="translate(307.433594 0)"/>
     <use xlink:href="#DejaVuSans-2e" transform="translate(371.056641 0)"/>
     <use xlink:href="#DejaVuSans-37" transform="translate(402.84375 0)"/>
     <use xlink:href="#DejaVuSans-32" transform="translate(466.466797 0)"/>
     <use xlink:href="#DejaVuSans-20" transform="translate(530.089844 0)"/>
     <use xlink:href="#DejaVuSans-65" transform="translate(561.876953 0)"/>
     <use xlink:href="#DejaVuSans-56" transform="translate(623.400391 0)"/>
    </g>
   </g>
  </g>
 </g>
 <defs>
  <clipPath id="p99021ea391">
   <rect x="36" y="34.56" width="223.2" height="221.76"/>
  </clipPath>
 </defs>
</svg>
