<?xml version="1.0" encoding="utf-8" standalone="no"?>
<!DOCTYPE svg PUBLIC "-//W3C//DTD SVG 1.1//EN"
  "http://www.w3.org/Graphics/SVG/1.1/DTD/svg11.dtd">
<svg xmlns:xlink="http://www.w3.org/1999/xlink" width="288pt" height="288pt" viewBox="0 0 288 288" xmlns="http://www.w3.org/2000/svg" version="1.1">
 <metadata>
  <rdf:RDF xmlns:dc="http://purl.org/dc/elements/1.1/" xmlns:cc="http://creativecommons.org/ns#" xmlns:rdf="http://www.w3.org/1999/02/22-rdf-syntax-ns#">
   <cc:Work>
    <dc:type rdf:resource="http://purl.org/dc/dcmitype/StillImage"/>
    <dc:date>2025-05-13T13:13:55.018243</dc:date>
    <dc:format>image/svg+xml</dc:format>
    <dc:creator>
     <cc:Agent>
      <dc:title>Matplotlib v3.10.1, https://matplotlib.org/</dc:title>
     </cc:Agent>
    </dc:creator>
   </cc:Work>
  </rdf:RDF>
 </metadata>
 <defs>
  <style type="text/css">*{stroke-linejoin: round; stroke-linecap: butt}</style>
 </defs>
 <g id="figure_1">
  <g id="patch_1">
   <path d="M 0 288 
L 288 288 
L 288 0 
L 0 0 
z
" style="fill: #ffffff"/>
  </g>
  <g id="axes_1">
   <g id="LineCollection_1">
    <path d="M 239.831405 204.6702 
L 214.618944 208.76326 
" clip-path="url(#pfc7526b4d8)" style="fill: none; stroke: #000000; stroke-width: 1.2"/>
    <path d="M 176.494702 191.544534 
L 153.187962 171.568024 
" clip-path="url(#pfc7526b4d8)" style="fill: none; stroke: #000000; stroke-width: 1.2"/>
    <path d="M 176.494702 191.544534 
L 198.085634 185.847869 
" clip-path="url(#pfc7526b4d8)" style="fill: none; stroke: #000000; stroke-width: 1.2"/>
    <path d="M 176.494702 191.544534 
L 179.260481 219.183294 
" clip-path="url(#pfc7526b4d8)" style="fill: none; stroke: #000000; stroke-width: 1.2"/>
    <path d="M 219.488559 182.845733 
L 198.085634 185.847869 
" clip-path="url(#pfc7526b4d8)" style="fill: none; stroke: #000000; stroke-width: 1.2"/>
    <path d="M 115.476096 128.626208 
L 90.872047 137.161031 
" clip-path="url(#pfc7526b4d8)" style="fill: none; stroke: #000000; stroke-width: 1.2"/>
    <path d="M 115.476096 128.626208 
L 137.213115 150.747467 
" clip-path="url(#pfc7526b4d8)" style="fill: none; stroke: #000000; stroke-width: 1.2"/>
    <path d="M 115.476096 128.626208 
L 120.089979 105.875726 
" clip-path="url(#pfc7526b4d8)" style="fill: none; stroke: #000000; stroke-width: 1.2"/>
    <path d="M 115.476096 128.626208 
L 126.109538 148.78175 
" clip-path="url(#pfc7526b4d8)" style="fill: none; stroke: #000000; stroke-width: 1.2"/>
    <path d="M 115.476096 128.626208 
L 128.816228 106.385195 
" clip-path="url(#pfc7526b4d8)" style="fill: none; stroke: #000000; stroke-width: 1.2"/>
    <path d="M 83.022742 156.503216 
L 62.507457 154.230601 
" clip-path="url(#pfc7526b4d8)" style="fill: none; stroke: #000000; stroke-width: 1.2"/>
    <path d="M 83.022742 156.503216 
L 90.872047 137.161031 
" clip-path="url(#pfc7526b4d8)" style="fill: none; stroke: #000000; stroke-width: 1.2"/>
    <path d="M 83.022742 156.503216 
L 61.392131 137.397541 
" clip-path="url(#pfc7526b4d8)" style="fill: none; stroke: #000000; stroke-width: 1.2"/>
    <path d="M 83.022742 156.503216 
L 94.827043 185.201658 
" clip-path="url(#pfc7526b4d8)" style="fill: none; stroke: #000000; stroke-width: 1.2"/>
    <path d="M 83.022742 156.503216 
L 64.511147 175.383976 
" clip-path="url(#pfc7526b4d8)" style="fill: none; stroke: #000000; stroke-width: 1.2"/>
    <path d="M 83.022742 156.503216 
L 103.072487 146.319132 
" clip-path="url(#pfc7526b4d8)" style="fill: none; stroke: #000000; stroke-width: 1.2"/>
    <path d="M 131.034693 79.646986 
L 147.552168 56.392076 
" clip-path="url(#pfc7526b4d8)" style="fill: none; stroke: #000000; stroke-width: 1.2"/>
    <path d="M 131.034693 79.646986 
L 136.073731 53.803636 
" clip-path="url(#pfc7526b4d8)" style="fill: none; stroke: #000000; stroke-width: 1.2"/>
    <path d="M 131.034693 79.646986 
L 120.089979 105.875726 
" clip-path="url(#pfc7526b4d8)" style="fill: none; stroke: #000000; stroke-width: 1.2"/>
    <path d="M 131.034693 79.646986 
L 154.79831 90.941074 
" clip-path="url(#pfc7526b4d8)" style="fill: none; stroke: #000000; stroke-width: 1.2"/>
    <path d="M 131.034693 79.646986 
L 124.08829 56.970774 
" clip-path="url(#pfc7526b4d8)" style="fill: none; stroke: #000000; stroke-width: 1.2"/>
    <path d="M 131.034693 79.646986 
L 115.076825 65.120353 
" clip-path="url(#pfc7526b4d8)" style="fill: none; stroke: #000000; stroke-width: 1.2"/>
    <path d="M 106.502605 202.988623 
L 94.827043 185.201658 
" clip-path="url(#pfc7526b4d8)" style="fill: none; stroke: #000000; stroke-width: 1.2"/>
    <path d="M 106.502605 202.988623 
L 130.712323 186.443943 
" clip-path="url(#pfc7526b4d8)" style="fill: none; stroke: #000000; stroke-width: 1.2"/>
    <path d="M 106.502605 202.988623 
L 85.766661 223.535641 
" clip-path="url(#pfc7526b4d8)" style="fill: none; stroke: #000000; stroke-width: 1.2"/>
    <path d="M 106.502605 202.988623 
L 100.468631 226.744618 
" clip-path="url(#pfc7526b4d8)" style="fill: none; stroke: #000000; stroke-width: 1.2"/>
    <path d="M 106.502605 202.988623 
L 90.619524 193.510091 
" clip-path="url(#pfc7526b4d8)" style="fill: none; stroke: #000000; stroke-width: 1.2"/>
    <path d="M 106.502605 202.988623 
L 110.65531 229.070303 
" clip-path="url(#pfc7526b4d8)" style="fill: none; stroke: #000000; stroke-width: 1.2"/>
    <path d="M 165.733029 111.785839 
L 189.518603 93.085727 
" clip-path="url(#pfc7526b4d8)" style="fill: none; stroke: #000000; stroke-width: 1.2"/>
    <path d="M 165.733029 111.785839 
L 154.79831 90.941074 
" clip-path="url(#pfc7526b4d8)" style="fill: none; stroke: #000000; stroke-width: 1.2"/>
    <path d="M 165.733029 111.785839 
L 169.354673 141.934217 
" clip-path="url(#pfc7526b4d8)" style="fill: none; stroke: #000000; stroke-width: 1.2"/>
    <path d="M 165.733029 111.785839 
L 163.201924 86.543176 
" clip-path="url(#pfc7526b4d8)" style="fill: none; stroke: #000000; stroke-width: 1.2"/>
    <path d="M 165.733029 111.785839 
L 155.938525 134.709409 
" clip-path="url(#pfc7526b4d8)" style="fill: none; stroke: #000000; stroke-width: 1.2"/>
    <path d="M 153.187962 171.568024 
L 137.213115 150.747467 
" clip-path="url(#pfc7526b4d8)" style="fill: none; stroke: #000000; stroke-width: 1.2"/>
    <path d="M 153.187962 171.568024 
L 130.712323 186.443943 
" clip-path="url(#pfc7526b4d8)" style="fill: none; stroke: #000000; stroke-width: 1.2"/>
    <path d="M 153.187962 171.568024 
L 156.058774 190.058933 
" clip-path="url(#pfc7526b4d8)" style="fill: none; stroke: #000000; stroke-width: 1.2"/>
    <path d="M 153.187962 171.568024 
L 169.354673 141.934217 
" clip-path="url(#pfc7526b4d8)" style="fill: none; stroke: #000000; stroke-width: 1.2"/>
    <path d="M 153.187962 171.568024 
L 137.398308 192.163112 
" clip-path="url(#pfc7526b4d8)" style="fill: none; stroke: #000000; stroke-width: 1.2"/>
    <path d="M 153.187962 171.568024 
L 165.041895 177.408005 
" clip-path="url(#pfc7526b4d8)" style="fill: none; stroke: #000000; stroke-width: 1.2"/>
    <path d="M 131.331363 131.801354 
L 137.213115 150.747467 
" clip-path="url(#pfc7526b4d8)" style="fill: none; stroke: #000000; stroke-width: 1.2"/>
    <path d="M 131.331363 131.801354 
L 120.089979 105.875726 
" clip-path="url(#pfc7526b4d8)" style="fill: none; stroke: #000000; stroke-width: 1.2"/>
    <path d="M 131.331363 131.801354 
L 103.072487 146.319132 
" clip-path="url(#pfc7526b4d8)" style="fill: none; stroke: #000000; stroke-width: 1.2"/>
    <path d="M 131.331363 131.801354 
L 126.109538 148.78175 
" clip-path="url(#pfc7526b4d8)" style="fill: none; stroke: #000000; stroke-width: 1.2"/>
    <path d="M 131.331363 131.801354 
L 128.816228 106.385195 
" clip-path="url(#pfc7526b4d8)" style="fill: none; stroke: #000000; stroke-width: 1.2"/>
    <path d="M 131.331363 131.801354 
L 163.614885 142.581683 
" clip-path="url(#pfc7526b4d8)" style="fill: none; stroke: #000000; stroke-width: 1.2"/>
    <path d="M 83.308625 165.064423 
L 62.507457 154.230601 
" clip-path="url(#pfc7526b4d8)" style="fill: none; stroke: #000000; stroke-width: 1.2"/>
    <path d="M 83.308625 165.064423 
L 90.872047 137.161031 
" clip-path="url(#pfc7526b4d8)" style="fill: none; stroke: #000000; stroke-width: 1.2"/>
    <path d="M 83.308625 165.064423 
L 64.511147 175.383976 
" clip-path="url(#pfc7526b4d8)" style="fill: none; stroke: #000000; stroke-width: 1.2"/>
    <path d="M 83.308625 165.064423 
L 103.072487 146.319132 
" clip-path="url(#pfc7526b4d8)" style="fill: none; stroke: #000000; stroke-width: 1.2"/>
    <path d="M 83.308625 165.064423 
L 55.368595 167.086583 
" clip-path="url(#pfc7526b4d8)" style="fill: none; stroke: #000000; stroke-width: 1.2"/>
    <path d="M 83.308625 165.064423 
L 90.619524 193.510091 
" clip-path="url(#pfc7526b4d8)" style="fill: none; stroke: #000000; stroke-width: 1.2"/>
    <path d="M 138.368059 78.032852 
L 147.552168 56.392076 
" clip-path="url(#pfc7526b4d8)" style="fill: none; stroke: #000000; stroke-width: 1.2"/>
    <path d="M 138.368059 78.032852 
L 136.073731 53.803636 
" clip-path="url(#pfc7526b4d8)" style="fill: none; stroke: #000000; stroke-width: 1.2"/>
    <path d="M 138.368059 78.032852 
L 124.08829 56.970774 
" clip-path="url(#pfc7526b4d8)" style="fill: none; stroke: #000000; stroke-width: 1.2"/>
    <path d="M 138.368059 78.032852 
L 115.076825 65.120353 
" clip-path="url(#pfc7526b4d8)" style="fill: none; stroke: #000000; stroke-width: 1.2"/>
    <path d="M 138.368059 78.032852 
L 128.816228 106.385195 
" clip-path="url(#pfc7526b4d8)" style="fill: none; stroke: #000000; stroke-width: 1.2"/>
    <path d="M 138.368059 78.032852 
L 163.201924 86.543176 
" clip-path="url(#pfc7526b4d8)" style="fill: none; stroke: #000000; stroke-width: 1.2"/>
    <path d="M 114.068598 205.582584 
L 94.827043 185.201658 
" clip-path="url(#pfc7526b4d8)" style="fill: none; stroke: #000000; stroke-width: 1.2"/>
    <path d="M 114.068598 205.582584 
L 100.468631 226.744618 
" clip-path="url(#pfc7526b4d8)" style="fill: none; stroke: #000000; stroke-width: 1.2"/>
    <path d="M 114.068598 205.582584 
L 90.619524 193.510091 
" clip-path="url(#pfc7526b4d8)" style="fill: none; stroke: #000000; stroke-width: 1.2"/>
    <path d="M 114.068598 205.582584 
L 137.398308 192.163112 
" clip-path="url(#pfc7526b4d8)" style="fill: none; stroke: #000000; stroke-width: 1.2"/>
    <path d="M 114.068598 205.582584 
L 120.865603 236.031314 
" clip-path="url(#pfc7526b4d8)" style="fill: none; stroke: #000000; stroke-width: 1.2"/>
    <path d="M 114.068598 205.582584 
L 110.65531 229.070303 
" clip-path="url(#pfc7526b4d8)" style="fill: none; stroke: #000000; stroke-width: 1.2"/>
    <path d="M 171.647601 113.374442 
L 154.79831 90.941074 
" clip-path="url(#pfc7526b4d8)" style="fill: none; stroke: #000000; stroke-width: 1.2"/>
    <path d="M 171.647601 113.374442 
L 169.354673 141.934217 
" clip-path="url(#pfc7526b4d8)" style="fill: none; stroke: #000000; stroke-width: 1.2"/>
    <path d="M 171.647601 113.374442 
L 195.694372 101.678457 
" clip-path="url(#pfc7526b4d8)" style="fill: none; stroke: #000000; stroke-width: 1.2"/>
    <path d="M 171.647601 113.374442 
L 163.201924 86.543176 
" clip-path="url(#pfc7526b4d8)" style="fill: none; stroke: #000000; stroke-width: 1.2"/>
    <path d="M 171.647601 113.374442 
L 155.938525 134.709409 
" clip-path="url(#pfc7526b4d8)" style="fill: none; stroke: #000000; stroke-width: 1.2"/>
    <path d="M 142.496864 166.291351 
L 130.712323 186.443943 
" clip-path="url(#pfc7526b4d8)" style="fill: none; stroke: #000000; stroke-width: 1.2"/>
    <path d="M 142.496864 166.291351 
L 156.058774 190.058933 
" clip-path="url(#pfc7526b4d8)" style="fill: none; stroke: #000000; stroke-width: 1.2"/>
    <path d="M 142.496864 166.291351 
L 126.109538 148.78175 
" clip-path="url(#pfc7526b4d8)" style="fill: none; stroke: #000000; stroke-width: 1.2"/>
    <path d="M 142.496864 166.291351 
L 137.398308 192.163112 
" clip-path="url(#pfc7526b4d8)" style="fill: none; stroke: #000000; stroke-width: 1.2"/>
    <path d="M 142.496864 166.291351 
L 165.041895 177.408005 
" clip-path="url(#pfc7526b4d8)" style="fill: none; stroke: #000000; stroke-width: 1.2"/>
    <path d="M 142.496864 166.291351 
L 155.938525 134.709409 
" clip-path="url(#pfc7526b4d8)" style="fill: none; stroke: #000000; stroke-width: 1.2"/>
    <path d="M 198.085634 185.847869 
L 192.875874 156.377142 
" clip-path="url(#pfc7526b4d8)" style="fill: none; stroke: #000000; stroke-width: 1.2"/>
    <path d="M 198.085634 185.847869 
L 214.618944 208.76326 
" clip-path="url(#pfc7526b4d8)" style="fill: none; stroke: #000000; stroke-width: 1.2"/>
    <path d="M 192.875874 156.377142 
L 163.614885 142.581683 
" clip-path="url(#pfc7526b4d8)" style="fill: none; stroke: #000000; stroke-width: 1.2"/>
    <path d="M 192.875874 156.377142 
L 216.585021 151.728475 
" clip-path="url(#pfc7526b4d8)" style="fill: none; stroke: #000000; stroke-width: 1.2"/>
    <path d="M 192.875874 156.377142 
L 213.016151 137.346906 
" clip-path="url(#pfc7526b4d8)" style="fill: none; stroke: #000000; stroke-width: 1.2"/>
    <path d="M 214.618944 208.76326 
L 215.893278 237.076364 
" clip-path="url(#pfc7526b4d8)" style="fill: none; stroke: #000000; stroke-width: 1.2"/>
    <path d="M 214.618944 208.76326 
L 231.544118 225.195597 
" clip-path="url(#pfc7526b4d8)" style="fill: none; stroke: #000000; stroke-width: 1.2"/>
   </g>
   <g id="PathCollection_1">
    <defs>
     <path id="C0_0_48150f052c" d="M 0 8.944272 
C 2.372049 8.944272 4.647264 8.001847 6.324555 6.324555 
C 8.001847 4.647264 8.944272 2.372049 8.944272 -0 
C 8.944272 -2.372049 8.001847 -4.647264 6.324555 -6.324555 
C 4.647264 -8.001847 2.372049 -8.944272 0 -8.944272 
C -2.372049 -8.944272 -4.647264 -8.001847 -6.324555 -6.324555 
C -8.001847 -4.647264 -8.944272 -2.372049 -8.944272 0 
C -8.944272 2.372049 -8.001847 4.647264 -6.324555 6.324555 
C -4.647264 8.001847 -2.372049 8.944272 0 8.944272 
z
"/>
    </defs>
    <g clip-path="url(#pfc7526b4d8)">
     <use xlink:href="#C0_0_48150f052c" x="239.831405" y="204.6702" style="fill: #bfbfbf; stroke: #bfbfbf; stroke-width: 0.5"/>
    </g>
    <g clip-path="url(#pfc7526b4d8)">
     <use xlink:href="#C0_0_48150f052c" x="176.494702" y="191.544534" style="fill: #b2b200; stroke: #b2b200; stroke-width: 0.5"/>
    </g>
    <g clip-path="url(#pfc7526b4d8)">
     <use xlink:href="#C0_0_48150f052c" x="179.260481" y="219.183294" style="fill: #bfbfbf; stroke: #bfbfbf; stroke-width: 0.5"/>
    </g>
    <g clip-path="url(#pfc7526b4d8)">
     <use xlink:href="#C0_0_48150f052c" x="219.488559" y="182.845733" style="fill: #bfbfbf; stroke: #bfbfbf; stroke-width: 0.5"/>
    </g>
    <g clip-path="url(#pfc7526b4d8)">
     <use xlink:href="#C0_0_48150f052c" x="115.476096" y="128.626208" style="fill: #175487; stroke: #175487; stroke-width: 0.5"/>
    </g>
    <g clip-path="url(#pfc7526b4d8)">
     <use xlink:href="#C0_0_48150f052c" x="83.022742" y="156.503216" style="fill: #175487; stroke: #175487; stroke-width: 0.5"/>
    </g>
    <g clip-path="url(#pfc7526b4d8)">
     <use xlink:href="#C0_0_48150f052c" x="131.034693" y="79.646986" style="fill: #175487; stroke: #175487; stroke-width: 0.5"/>
    </g>
    <g clip-path="url(#pfc7526b4d8)">
     <use xlink:href="#C0_0_48150f052c" x="106.502605" y="202.988623" style="fill: #175487; stroke: #175487; stroke-width: 0.5"/>
    </g>
    <g clip-path="url(#pfc7526b4d8)">
     <use xlink:href="#C0_0_48150f052c" x="165.733029" y="111.785839" style="fill: #175487; stroke: #175487; stroke-width: 0.5"/>
    </g>
    <g clip-path="url(#pfc7526b4d8)">
     <use xlink:href="#C0_0_48150f052c" x="153.187962" y="171.568024" style="fill: #175487; stroke: #175487; stroke-width: 0.5"/>
    </g>
    <g clip-path="url(#pfc7526b4d8)">
     <use xlink:href="#C0_0_48150f052c" x="131.331363" y="131.801354" style="fill: #175487; stroke: #175487; stroke-width: 0.5"/>
    </g>
    <g clip-path="url(#pfc7526b4d8)">
     <use xlink:href="#C0_0_48150f052c" x="83.308625" y="165.064423" style="fill: #175487; stroke: #175487; stroke-width: 0.5"/>
    </g>
    <g clip-path="url(#pfc7526b4d8)">
     <use xlink:href="#C0_0_48150f052c" x="138.368059" y="78.032852" style="fill: #175487; stroke: #175487; stroke-width: 0.5"/>
    </g>
    <g clip-path="url(#pfc7526b4d8)">
     <use xlink:href="#C0_0_48150f052c" x="114.068598" y="205.582584" style="fill: #175487; stroke: #175487; stroke-width: 0.5"/>
    </g>
    <g clip-path="url(#pfc7526b4d8)">
     <use xlink:href="#C0_0_48150f052c" x="171.647601" y="113.374442" style="fill: #175487; stroke: #175487; stroke-width: 0.5"/>
    </g>
    <g clip-path="url(#pfc7526b4d8)">
     <use xlink:href="#C0_0_48150f052c" x="142.496864" y="166.291351" style="fill: #175487; stroke: #175487; stroke-width: 0.5"/>
    </g>
    <g clip-path="url(#pfc7526b4d8)">
     <use xlink:href="#C0_0_48150f052c" x="62.507457" y="154.230601" style="fill: #ff0d0d; stroke: #ff0d0d; stroke-width: 0.5"/>
    </g>
    <g clip-path="url(#pfc7526b4d8)">
     <use xlink:href="#C0_0_48150f052c" x="147.552168" y="56.392076" style="fill: #ff0d0d; stroke: #ff0d0d; stroke-width: 0.5"/>
    </g>
    <g clip-path="url(#pfc7526b4d8)">
     <use xlink:href="#C0_0_48150f052c" x="90.872047" y="137.161031" style="fill: #ff0d0d; stroke: #ff0d0d; stroke-width: 0.5"/>
    </g>
    <g clip-path="url(#pfc7526b4d8)">
     <use xlink:href="#C0_0_48150f052c" x="136.073731" y="53.803636" style="fill: #ff0d0d; stroke: #ff0d0d; stroke-width: 0.5"/>
    </g>
    <g clip-path="url(#pfc7526b4d8)">
     <use xlink:href="#C0_0_48150f052c" x="61.392131" y="137.397541" style="fill: #ff0d0d; stroke: #ff0d0d; stroke-width: 0.5"/>
    </g>
    <g clip-path="url(#pfc7526b4d8)">
     <use xlink:href="#C0_0_48150f052c" x="137.213115" y="150.747467" style="fill: #ff0d0d; stroke: #ff0d0d; stroke-width: 0.5"/>
    </g>
    <g clip-path="url(#pfc7526b4d8)">
     <use xlink:href="#C0_0_48150f052c" x="94.827043" y="185.201658" style="fill: #ff0d0d; stroke: #ff0d0d; stroke-width: 0.5"/>
    </g>
    <g clip-path="url(#pfc7526b4d8)">
     <use xlink:href="#C0_0_48150f052c" x="120.089979" y="105.875726" style="fill: #ff0d0d; stroke: #ff0d0d; stroke-width: 0.5"/>
    </g>
    <g clip-path="url(#pfc7526b4d8)">
     <use xlink:href="#C0_0_48150f052c" x="130.712323" y="186.443943" style="fill: #ff0d0d; stroke: #ff0d0d; stroke-width: 0.5"/>
    </g>
    <g clip-path="url(#pfc7526b4d8)">
     <use xlink:href="#C0_0_48150f052c" x="85.766661" y="223.535641" style="fill: #ff0d0d; stroke: #ff0d0d; stroke-width: 0.5"/>
    </g>
    <g clip-path="url(#pfc7526b4d8)">
     <use xlink:href="#C0_0_48150f052c" x="189.518603" y="93.085727" style="fill: #ff0d0d; stroke: #ff0d0d; stroke-width: 0.5"/>
    </g>
    <g clip-path="url(#pfc7526b4d8)">
     <use xlink:href="#C0_0_48150f052c" x="156.058774" y="190.058933" style="fill: #ff0d0d; stroke: #ff0d0d; stroke-width: 0.5"/>
    </g>
    <g clip-path="url(#pfc7526b4d8)">
     <use xlink:href="#C0_0_48150f052c" x="100.468631" y="226.744618" style="fill: #ff0d0d; stroke: #ff0d0d; stroke-width: 0.5"/>
    </g>
    <g clip-path="url(#pfc7526b4d8)">
     <use xlink:href="#C0_0_48150f052c" x="154.79831" y="90.941074" style="fill: #ff0d0d; stroke: #ff0d0d; stroke-width: 0.5"/>
    </g>
    <g clip-path="url(#pfc7526b4d8)">
     <use xlink:href="#C0_0_48150f052c" x="169.354673" y="141.934217" style="fill: #ff0d0d; stroke: #ff0d0d; stroke-width: 0.5"/>
    </g>
    <g clip-path="url(#pfc7526b4d8)">
     <use xlink:href="#C0_0_48150f052c" x="64.511147" y="175.383976" style="fill: #ff0d0d; stroke: #ff0d0d; stroke-width: 0.5"/>
    </g>
    <g clip-path="url(#pfc7526b4d8)">
     <use xlink:href="#C0_0_48150f052c" x="124.08829" y="56.970774" style="fill: #ff0d0d; stroke: #ff0d0d; stroke-width: 0.5"/>
    </g>
    <g clip-path="url(#pfc7526b4d8)">
     <use xlink:href="#C0_0_48150f052c" x="103.072487" y="146.319132" style="fill: #ff0d0d; stroke: #ff0d0d; stroke-width: 0.5"/>
    </g>
    <g clip-path="url(#pfc7526b4d8)">
     <use xlink:href="#C0_0_48150f052c" x="115.076825" y="65.120353" style="fill: #ff0d0d; stroke: #ff0d0d; stroke-width: 0.5"/>
    </g>
    <g clip-path="url(#pfc7526b4d8)">
     <use xlink:href="#C0_0_48150f052c" x="55.368595" y="167.086583" style="fill: #ff0d0d; stroke: #ff0d0d; stroke-width: 0.5"/>
    </g>
    <g clip-path="url(#pfc7526b4d8)">
     <use xlink:href="#C0_0_48150f052c" x="126.109538" y="148.78175" style="fill: #ff0d0d; stroke: #ff0d0d; stroke-width: 0.5"/>
    </g>
    <g clip-path="url(#pfc7526b4d8)">
     <use xlink:href="#C0_0_48150f052c" x="90.619524" y="193.510091" style="fill: #ff0d0d; stroke: #ff0d0d; stroke-width: 0.5"/>
    </g>
    <g clip-path="url(#pfc7526b4d8)">
     <use xlink:href="#C0_0_48150f052c" x="128.816228" y="106.385195" style="fill: #ff0d0d; stroke: #ff0d0d; stroke-width: 0.5"/>
    </g>
    <g clip-path="url(#pfc7526b4d8)">
     <use xlink:href="#C0_0_48150f052c" x="137.398308" y="192.163112" style="fill: #ff0d0d; stroke: #ff0d0d; stroke-width: 0.5"/>
    </g>
    <g clip-path="url(#pfc7526b4d8)">
     <use xlink:href="#C0_0_48150f052c" x="120.865603" y="236.031314" style="fill: #ff0d0d; stroke: #ff0d0d; stroke-width: 0.5"/>
    </g>
    <g clip-path="url(#pfc7526b4d8)">
     <use xlink:href="#C0_0_48150f052c" x="195.694372" y="101.678457" style="fill: #ff0d0d; stroke: #ff0d0d; stroke-width: 0.5"/>
    </g>
    <g clip-path="url(#pfc7526b4d8)">
     <use xlink:href="#C0_0_48150f052c" x="165.041895" y="177.408005" style="fill: #ff0d0d; stroke: #ff0d0d; stroke-width: 0.5"/>
    </g>
    <g clip-path="url(#pfc7526b4d8)">
     <use xlink:href="#C0_0_48150f052c" x="110.65531" y="229.070303" style="fill: #ff0d0d; stroke: #ff0d0d; stroke-width: 0.5"/>
    </g>
    <g clip-path="url(#pfc7526b4d8)">
     <use xlink:href="#C0_0_48150f052c" x="163.201924" y="86.543176" style="fill: #ff0d0d; stroke: #ff0d0d; stroke-width: 0.5"/>
    </g>
    <g clip-path="url(#pfc7526b4d8)">
     <use xlink:href="#C0_0_48150f052c" x="155.938525" y="134.709409" style="fill: #ff0d0d; stroke: #ff0d0d; stroke-width: 0.5"/>
    </g>
    <g clip-path="url(#pfc7526b4d8)">
     <use xlink:href="#C0_0_48150f052c" x="198.085634" y="185.847869" style="fill: #666666; stroke: #666666; stroke-width: 0.5"/>
    </g>
    <g clip-path="url(#pfc7526b4d8)">
     <use xlink:href="#C0_0_48150f052c" x="192.875874" y="156.377142" style="fill: #666666; stroke: #666666; stroke-width: 0.5"/>
    </g>
    <g clip-path="url(#pfc7526b4d8)">
     <use xlink:href="#C0_0_48150f052c" x="214.618944" y="208.76326" style="fill: #666666; stroke: #666666; stroke-width: 0.5"/>
    </g>
    <g clip-path="url(#pfc7526b4d8)">
     <use xlink:href="#C0_0_48150f052c" x="163.614885" y="142.581683" style="fill: #bfbfbf; stroke: #bfbfbf; stroke-width: 0.5"/>
    </g>
    <g clip-path="url(#pfc7526b4d8)">
     <use xlink:href="#C0_0_48150f052c" x="216.585021" y="151.728475" style="fill: #bfbfbf; stroke: #bfbfbf; stroke-width: 0.5"/>
    </g>
    <g clip-path="url(#pfc7526b4d8)">
     <use xlink:href="#C0_0_48150f052c" x="213.016151" y="137.346906" style="fill: #bfbfbf; stroke: #bfbfbf; stroke-width: 0.5"/>
    </g>
    <g clip-path="url(#pfc7526b4d8)">
     <use xlink:href="#C0_0_48150f052c" x="215.893278" y="237.076364" style="fill: #bfbfbf; stroke: #bfbfbf; stroke-width: 0.5"/>
    </g>
    <g clip-path="url(#pfc7526b4d8)">
     <use xlink:href="#C0_0_48150f052c" x="231.544118" y="225.195597" style="fill: #bfbfbf; stroke: #bfbfbf; stroke-width: 0.5"/>
    </g>
   </g>
   <g id="text_1">
    <g clip-path="url(#pfc7526b4d8)">
     <!-- H -->
     <g style="fill: #ffffff" transform="translate(234.810155 207.98145) scale(0.12 -0.12)">
      <defs>
       <path id="DejaVuSans-Bold-48" d="M 588 4666 
L 1791 4666 
L 1791 2888 
L 3566 2888 
L 3566 4666 
L 4769 4666 
L 4769 0 
L 3566 0 
L 3566 1978 
L 1791 1978 
L 1791 0 
L 588 0 
L 588 4666 
z
" transform="scale(0.015625)"/>
      </defs>
      <use xlink:href="#DejaVuSans-Bold-48"/>
     </g>
    </g>
   </g>
   <g id="text_2">
    <g clip-path="url(#pfc7526b4d8)">
     <!-- S -->
     <g style="fill: #ffffff" transform="translate(172.173764 194.855784) scale(0.12 -0.12)">
      <defs>
       <path id="DejaVuSans-Bold-53" d="M 3834 4519 
L 3834 3531 
Q 3450 3703 3084 3790 
Q 2719 3878 2394 3878 
Q 1963 3878 1756 3759 
Q 1550 3641 1550 3391 
Q 1550 3203 1689 3098 
Q 1828 2994 2194 2919 
L 2706 2816 
Q 3484 2659 3812 2340 
Q 4141 2022 4141 1434 
Q 4141 663 3683 286 
Q 3225 -91 2284 -91 
Q 1841 -91 1394 -6 
Q 947 78 500 244 
L 500 1259 
Q 947 1022 1364 901 
Q 1781 781 2169 781 
Q 2563 781 2772 912 
Q 2981 1044 2981 1288 
Q 2981 1506 2839 1625 
Q 2697 1744 2272 1838 
L 1806 1941 
Q 1106 2091 782 2419 
Q 459 2747 459 3303 
Q 459 4000 909 4375 
Q 1359 4750 2203 4750 
Q 2588 4750 2994 4692 
Q 3400 4634 3834 4519 
z
" transform="scale(0.015625)"/>
      </defs>
      <use xlink:href="#DejaVuSans-Bold-53"/>
     </g>
    </g>
   </g>
   <g id="text_3">
    <g clip-path="url(#pfc7526b4d8)">
     <!-- H -->
     <g style="fill: #ffffff" transform="translate(174.239231 222.494544) scale(0.12 -0.12)">
      <use xlink:href="#DejaVuSans-Bold-48"/>
     </g>
    </g>
   </g>
   <g id="text_4">
    <g clip-path="url(#pfc7526b4d8)">
     <!-- H -->
     <g style="fill: #ffffff" transform="translate(214.467309 186.156983) scale(0.12 -0.12)">
      <use xlink:href="#DejaVuSans-Bold-48"/>
     </g>
    </g>
   </g>
   <g id="text_5">
    <g clip-path="url(#pfc7526b4d8)">
     <!-- Ir -->
     <g style="fill: #ffffff" transform="translate(110.285158 131.937458) scale(0.12 -0.12)">
      <defs>
       <path id="DejaVuSans-Bold-49" d="M 588 4666 
L 1791 4666 
L 1791 0 
L 588 0 
L 588 4666 
z
" transform="scale(0.015625)"/>
       <path id="DejaVuSans-Bold-72" d="M 3138 2547 
Q 2991 2616 2845 2648 
Q 2700 2681 2553 2681 
Q 2122 2681 1889 2404 
Q 1656 2128 1656 1613 
L 1656 0 
L 538 0 
L 538 3500 
L 1656 3500 
L 1656 2925 
Q 1872 3269 2151 3426 
Q 2431 3584 2822 3584 
Q 2878 3584 2943 3579 
Q 3009 3575 3134 3559 
L 3138 2547 
z
" transform="scale(0.015625)"/>
      </defs>
      <use xlink:href="#DejaVuSans-Bold-49"/>
      <use xlink:href="#DejaVuSans-Bold-72" transform="translate(37.207031 0)"/>
     </g>
    </g>
   </g>
   <g id="text_6">
    <g clip-path="url(#pfc7526b4d8)">
     <!-- Ir -->
     <g style="fill: #ffffff" transform="translate(77.831805 159.814466) scale(0.12 -0.12)">
      <use xlink:href="#DejaVuSans-Bold-49"/>
      <use xlink:href="#DejaVuSans-Bold-72" transform="translate(37.207031 0)"/>
     </g>
    </g>
   </g>
   <g id="text_7">
    <g clip-path="url(#pfc7526b4d8)">
     <!-- Ir -->
     <g style="fill: #ffffff" transform="translate(125.843756 82.958236) scale(0.12 -0.12)">
      <use xlink:href="#DejaVuSans-Bold-49"/>
      <use xlink:href="#DejaVuSans-Bold-72" transform="translate(37.207031 0)"/>
     </g>
    </g>
   </g>
   <g id="text_8">
    <g clip-path="url(#pfc7526b4d8)">
     <!-- Ir -->
     <g style="fill: #ffffff" transform="translate(101.311668 206.299873) scale(0.12 -0.12)">
      <use xlink:href="#DejaVuSans-Bold-49"/>
      <use xlink:href="#DejaVuSans-Bold-72" transform="translate(37.207031 0)"/>
     </g>
    </g>
   </g>
   <g id="text_9">
    <g clip-path="url(#pfc7526b4d8)">
     <!-- Ir -->
     <g style="fill: #ffffff" transform="translate(160.542091 115.097089) scale(0.12 -0.12)">
      <use xlink:href="#DejaVuSans-Bold-49"/>
      <use xlink:href="#DejaVuSans-Bold-72" transform="translate(37.207031 0)"/>
     </g>
    </g>
   </g>
   <g id="text_10">
    <g clip-path="url(#pfc7526b4d8)">
     <!-- Ir -->
     <g style="fill: #ffffff" transform="translate(147.997025 174.879274) scale(0.12 -0.12)">
      <use xlink:href="#DejaVuSans-Bold-49"/>
      <use xlink:href="#DejaVuSans-Bold-72" transform="translate(37.207031 0)"/>
     </g>
    </g>
   </g>
   <g id="text_11">
    <g clip-path="url(#pfc7526b4d8)">
     <!-- Ir -->
     <g style="fill: #ffffff" transform="translate(126.140426 135.112604) scale(0.12 -0.12)">
      <use xlink:href="#DejaVuSans-Bold-49"/>
      <use xlink:href="#DejaVuSans-Bold-72" transform="translate(37.207031 0)"/>
     </g>
    </g>
   </g>
   <g id="text_12">
    <g clip-path="url(#pfc7526b4d8)">
     <!-- Ir -->
     <g style="fill: #ffffff" transform="translate(78.117688 168.375673) scale(0.12 -0.12)">
      <use xlink:href="#DejaVuSans-Bold-49"/>
      <use xlink:href="#DejaVuSans-Bold-72" transform="translate(37.207031 0)"/>
     </g>
    </g>
   </g>
   <g id="text_13">
    <g clip-path="url(#pfc7526b4d8)">
     <!-- Ir -->
     <g style="fill: #ffffff" transform="translate(133.177121 81.344102) scale(0.12 -0.12)">
      <use xlink:href="#DejaVuSans-Bold-49"/>
      <use xlink:href="#DejaVuSans-Bold-72" transform="translate(37.207031 0)"/>
     </g>
    </g>
   </g>
   <g id="text_14">
    <g clip-path="url(#pfc7526b4d8)">
     <!-- Ir -->
     <g style="fill: #ffffff" transform="translate(108.877661 208.893834) scale(0.12 -0.12)">
      <use xlink:href="#DejaVuSans-Bold-49"/>
      <use xlink:href="#DejaVuSans-Bold-72" transform="translate(37.207031 0)"/>
     </g>
    </g>
   </g>
   <g id="text_15">
    <g clip-path="url(#pfc7526b4d8)">
     <!-- Ir -->
     <g style="fill: #ffffff" transform="translate(166.456664 116.685692) scale(0.12 -0.12)">
      <use xlink:href="#DejaVuSans-Bold-49"/>
      <use xlink:href="#DejaVuSans-Bold-72" transform="translate(37.207031 0)"/>
     </g>
    </g>
   </g>
   <g id="text_16">
    <g clip-path="url(#pfc7526b4d8)">
     <!-- Ir -->
     <g style="fill: #ffffff" transform="translate(137.305927 169.602601) scale(0.12 -0.12)">
      <use xlink:href="#DejaVuSans-Bold-49"/>
      <use xlink:href="#DejaVuSans-Bold-72" transform="translate(37.207031 0)"/>
     </g>
    </g>
   </g>
   <g id="text_17">
    <g clip-path="url(#pfc7526b4d8)">
     <!-- O -->
     <g style="fill: #ffffff" transform="translate(57.406519 157.541851) scale(0.12 -0.12)">
      <defs>
       <path id="DejaVuSans-Bold-4f" d="M 2719 3878 
Q 2169 3878 1866 3472 
Q 1563 3066 1563 2328 
Q 1563 1594 1866 1187 
Q 2169 781 2719 781 
Q 3272 781 3575 1187 
Q 3878 1594 3878 2328 
Q 3878 3066 3575 3472 
Q 3272 3878 2719 3878 
z
M 2719 4750 
Q 3844 4750 4481 4106 
Q 5119 3463 5119 2328 
Q 5119 1197 4481 553 
Q 3844 -91 2719 -91 
Q 1597 -91 958 553 
Q 319 1197 319 2328 
Q 319 3463 958 4106 
Q 1597 4750 2719 4750 
z
" transform="scale(0.015625)"/>
      </defs>
      <use xlink:href="#DejaVuSans-Bold-4f"/>
     </g>
    </g>
   </g>
   <g id="text_18">
    <g clip-path="url(#pfc7526b4d8)">
     <!-- O -->
     <g style="fill: #ffffff" transform="translate(142.45123 59.703326) scale(0.12 -0.12)">
      <use xlink:href="#DejaVuSans-Bold-4f"/>
     </g>
    </g>
   </g>
   <g id="text_19">
    <g clip-path="url(#pfc7526b4d8)">
     <!-- O -->
     <g style="fill: #ffffff" transform="translate(85.771109 140.472281) scale(0.12 -0.12)">
      <use xlink:href="#DejaVuSans-Bold-4f"/>
     </g>
    </g>
   </g>
   <g id="text_20">
    <g clip-path="url(#pfc7526b4d8)">
     <!-- O -->
     <g style="fill: #ffffff" transform="translate(130.972794 57.114886) scale(0.12 -0.12)">
      <use xlink:href="#DejaVuSans-Bold-4f"/>
     </g>
    </g>
   </g>
   <g id="text_21">
    <g clip-path="url(#pfc7526b4d8)">
     <!-- O -->
     <g style="fill: #ffffff" transform="translate(56.291194 140.708791) scale(0.12 -0.12)">
      <use xlink:href="#DejaVuSans-Bold-4f"/>
     </g>
    </g>
   </g>
   <g id="text_22">
    <g clip-path="url(#pfc7526b4d8)">
     <!-- O -->
     <g style="fill: #ffffff" transform="translate(132.112178 154.058717) scale(0.12 -0.12)">
      <use xlink:href="#DejaVuSans-Bold-4f"/>
     </g>
    </g>
   </g>
   <g id="text_23">
    <g clip-path="url(#pfc7526b4d8)">
     <!-- O -->
     <g style="fill: #ffffff" transform="translate(89.726105 188.512908) scale(0.12 -0.12)">
      <use xlink:href="#DejaVuSans-Bold-4f"/>
     </g>
    </g>
   </g>
   <g id="text_24">
    <g clip-path="url(#pfc7526b4d8)">
     <!-- O -->
     <g style="fill: #ffffff" transform="translate(114.989041 109.186976) scale(0.12 -0.12)">
      <use xlink:href="#DejaVuSans-Bold-4f"/>
     </g>
    </g>
   </g>
   <g id="text_25">
    <g clip-path="url(#pfc7526b4d8)">
     <!-- O -->
     <g style="fill: #ffffff" transform="translate(125.611385 189.755193) scale(0.12 -0.12)">
      <use xlink:href="#DejaVuSans-Bold-4f"/>
     </g>
    </g>
   </g>
   <g id="text_26">
    <g clip-path="url(#pfc7526b4d8)">
     <!-- O -->
     <g style="fill: #ffffff" transform="translate(80.665724 226.846891) scale(0.12 -0.12)">
      <use xlink:href="#DejaVuSans-Bold-4f"/>
     </g>
    </g>
   </g>
   <g id="text_27">
    <g clip-path="url(#pfc7526b4d8)">
     <!-- O -->
     <g style="fill: #ffffff" transform="translate(184.417666 96.396977) scale(0.12 -0.12)">
      <use xlink:href="#DejaVuSans-Bold-4f"/>
     </g>
    </g>
   </g>
   <g id="text_28">
    <g clip-path="url(#pfc7526b4d8)">
     <!-- O -->
     <g style="fill: #ffffff" transform="translate(150.957837 193.370183) scale(0.12 -0.12)">
      <use xlink:href="#DejaVuSans-Bold-4f"/>
     </g>
    </g>
   </g>
   <g id="text_29">
    <g clip-path="url(#pfc7526b4d8)">
     <!-- O -->
     <g style="fill: #ffffff" transform="translate(95.367693 230.055868) scale(0.12 -0.12)">
      <use xlink:href="#DejaVuSans-Bold-4f"/>
     </g>
    </g>
   </g>
   <g id="text_30">
    <g clip-path="url(#pfc7526b4d8)">
     <!-- O -->
     <g style="fill: #ffffff" transform="translate(149.697373 94.252324) scale(0.12 -0.12)">
      <use xlink:href="#DejaVuSans-Bold-4f"/>
     </g>
    </g>
   </g>
   <g id="text_31">
    <g clip-path="url(#pfc7526b4d8)">
     <!-- O -->
     <g style="fill: #ffffff" transform="translate(164.253736 145.245467) scale(0.12 -0.12)">
      <use xlink:href="#DejaVuSans-Bold-4f"/>
     </g>
    </g>
   </g>
   <g id="text_32">
    <g clip-path="url(#pfc7526b4d8)">
     <!-- O -->
     <g style="fill: #ffffff" transform="translate(59.410209 178.695226) scale(0.12 -0.12)">
      <use xlink:href="#DejaVuSans-Bold-4f"/>
     </g>
    </g>
   </g>
   <g id="text_33">
    <g clip-path="url(#pfc7526b4d8)">
     <!-- O -->
     <g style="fill: #ffffff" transform="translate(118.987353 60.282024) scale(0.12 -0.12)">
      <use xlink:href="#DejaVuSans-Bold-4f"/>
     </g>
    </g>
   </g>
   <g id="text_34">
    <g clip-path="url(#pfc7526b4d8)">
     <!-- O -->
     <g style="fill: #ffffff" transform="translate(97.971549 149.630382) scale(0.12 -0.12)">
      <use xlink:href="#DejaVuSans-Bold-4f"/>
     </g>
    </g>
   </g>
   <g id="text_35">
    <g clip-path="url(#pfc7526b4d8)">
     <!-- O -->
     <g style="fill: #ffffff" transform="translate(109.975888 68.431603) scale(0.12 -0.12)">
      <use xlink:href="#DejaVuSans-Bold-4f"/>
     </g>
    </g>
   </g>
   <g id="text_36">
    <g clip-path="url(#pfc7526b4d8)">
     <!-- O -->
     <g style="fill: #ffffff" transform="translate(50.267658 170.397833) scale(0.12 -0.12)">
      <use xlink:href="#DejaVuSans-Bold-4f"/>
     </g>
    </g>
   </g>
   <g id="text_37">
    <g clip-path="url(#pfc7526b4d8)">
     <!-- O -->
     <g style="fill: #ffffff" transform="translate(121.008601 152.093) scale(0.12 -0.12)">
      <use xlink:href="#DejaVuSans-Bold-4f"/>
     </g>
    </g>
   </g>
   <g id="text_38">
    <g clip-path="url(#pfc7526b4d8)">
     <!-- O -->
     <g style="fill: #ffffff" transform="translate(85.518587 196.821341) scale(0.12 -0.12)">
      <use xlink:href="#DejaVuSans-Bold-4f"/>
     </g>
    </g>
   </g>
   <g id="text_39">
    <g clip-path="url(#pfc7526b4d8)">
     <!-- O -->
     <g style="fill: #ffffff" transform="translate(123.715291 109.696445) scale(0.12 -0.12)">
      <use xlink:href="#DejaVuSans-Bold-4f"/>
     </g>
    </g>
   </g>
   <g id="text_40">
    <g clip-path="url(#pfc7526b4d8)">
     <!-- O -->
     <g style="fill: #ffffff" transform="translate(132.297371 195.474362) scale(0.12 -0.12)">
      <use xlink:href="#DejaVuSans-Bold-4f"/>
     </g>
    </g>
   </g>
   <g id="text_41">
    <g clip-path="url(#pfc7526b4d8)">
     <!-- O -->
     <g style="fill: #ffffff" transform="translate(115.764665 239.342564) scale(0.12 -0.12)">
      <use xlink:href="#DejaVuSans-Bold-4f"/>
     </g>
    </g>
   </g>
   <g id="text_42">
    <g clip-path="url(#pfc7526b4d8)">
     <!-- O -->
     <g style="fill: #ffffff" transform="translate(190.593435 104.989707) scale(0.12 -0.12)">
      <use xlink:href="#DejaVuSans-Bold-4f"/>
     </g>
    </g>
   </g>
   <g id="text_43">
    <g clip-path="url(#pfc7526b4d8)">
     <!-- O -->
     <g style="fill: #ffffff" transform="translate(159.940957 180.719255) scale(0.12 -0.12)">
      <use xlink:href="#DejaVuSans-Bold-4f"/>
     </g>
    </g>
   </g>
   <g id="text_44">
    <g clip-path="url(#pfc7526b4d8)">
     <!-- O -->
     <g style="fill: #ffffff" transform="translate(105.554373 232.381553) scale(0.12 -0.12)">
      <use xlink:href="#DejaVuSans-Bold-4f"/>
     </g>
    </g>
   </g>
   <g id="text_45">
    <g clip-path="url(#pfc7526b4d8)">
     <!-- O -->
     <g style="fill: #ffffff" transform="translate(158.100987 89.854426) scale(0.12 -0.12)">
      <use xlink:href="#DejaVuSans-Bold-4f"/>
     </g>
    </g>
   </g>
   <g id="text_46">
    <g clip-path="url(#pfc7526b4d8)">
     <!-- O -->
     <g style="fill: #ffffff" transform="translate(150.837588 138.020659) scale(0.12 -0.12)">
      <use xlink:href="#DejaVuSans-Bold-4f"/>
     </g>
    </g>
   </g>
   <g id="text_47">
    <g clip-path="url(#pfc7526b4d8)">
     <!-- C -->
     <g style="fill: #ffffff" transform="translate(193.682197 189.159119) scale(0.12 -0.12)">
      <defs>
       <path id="DejaVuSans-Bold-43" d="M 4288 256 
Q 3956 84 3597 -3 
Q 3238 -91 2847 -91 
Q 1681 -91 1000 561 
Q 319 1213 319 2328 
Q 319 3447 1000 4098 
Q 1681 4750 2847 4750 
Q 3238 4750 3597 4662 
Q 3956 4575 4288 4403 
L 4288 3438 
Q 3953 3666 3628 3772 
Q 3303 3878 2944 3878 
Q 2300 3878 1931 3465 
Q 1563 3053 1563 2328 
Q 1563 1606 1931 1193 
Q 2300 781 2944 781 
Q 3303 781 3628 887 
Q 3953 994 4288 1222 
L 4288 256 
z
" transform="scale(0.015625)"/>
      </defs>
      <use xlink:href="#DejaVuSans-Bold-43"/>
     </g>
    </g>
   </g>
   <g id="text_48">
    <g clip-path="url(#pfc7526b4d8)">
     <!-- C -->
     <g style="fill: #ffffff" transform="translate(188.472436 159.688392) scale(0.12 -0.12)">
      <use xlink:href="#DejaVuSans-Bold-43"/>
     </g>
    </g>
   </g>
   <g id="text_49">
    <g clip-path="url(#pfc7526b4d8)">
     <!-- C -->
     <g style="fill: #ffffff" transform="translate(210.215506 212.07451) scale(0.12 -0.12)">
      <use xlink:href="#DejaVuSans-Bold-43"/>
     </g>
    </g>
   </g>
   <g id="text_50">
    <g clip-path="url(#pfc7526b4d8)">
     <!-- H -->
     <g style="fill: #ffffff" transform="translate(158.593635 145.892933) scale(0.12 -0.12)">
      <use xlink:href="#DejaVuSans-Bold-48"/>
     </g>
    </g>
   </g>
   <g id="text_51">
    <g clip-path="url(#pfc7526b4d8)">
     <!-- H -->
     <g style="fill: #ffffff" transform="translate(211.563771 155.039725) scale(0.12 -0.12)">
      <use xlink:href="#DejaVuSans-Bold-48"/>
     </g>
    </g>
   </g>
   <g id="text_52">
    <g clip-path="url(#pfc7526b4d8)">
     <!-- H -->
     <g style="fill: #ffffff" transform="translate(207.994901 140.658156) scale(0.12 -0.12)">
      <use xlink:href="#DejaVuSans-Bold-48"/>
     </g>
    </g>
   </g>
   <g id="text_53">
    <g clip-path="url(#pfc7526b4d8)">
     <!-- H -->
     <g style="fill: #ffffff" transform="translate(210.872028 240.387614) scale(0.12 -0.12)">
      <use xlink:href="#DejaVuSans-Bold-48"/>
     </g>
    </g>
   </g>
   <g id="text_54">
    <g clip-path="url(#pfc7526b4d8)">
     <!-- H -->
     <g style="fill: #ffffff" transform="translate(226.522868 228.506847) scale(0.12 -0.12)">
      <use xlink:href="#DejaVuSans-Bold-48"/>
     </g>
    </g>
   </g>
   <g id="text_55">
    <!-- C3H8Ir40O80S -->
    <g transform="translate(145.350812 42.403206) scale(0.1 -0.1)">
     <defs>
      <path id="DejaVuSans-43" d="M 4122 4306 
L 4122 3641 
Q 3803 3938 3442 4084 
Q 3081 4231 2675 4231 
Q 1875 4231 1450 3742 
Q 1025 3253 1025 2328 
Q 1025 1406 1450 917 
Q 1875 428 2675 428 
Q 3081 428 3442 575 
Q 3803 722 4122 1019 
L 4122 359 
Q 3791 134 3420 21 
Q 3050 -91 2638 -91 
Q 1578 -91 968 557 
Q 359 1206 359 2328 
Q 359 3453 968 4101 
Q 1578 4750 2638 4750 
Q 3056 4750 3426 4639 
Q 3797 4528 4122 4306 
z
" transform="scale(0.015625)"/>
      <path id="DejaVuSans-33" d="M 2597 2516 
Q 3050 2419 3304 2112 
Q 3559 1806 3559 1356 
Q 3559 666 3084 287 
Q 2609 -91 1734 -91 
Q 1441 -91 1130 -33 
Q 819 25 488 141 
L 488 750 
Q 750 597 1062 519 
Q 1375 441 1716 441 
Q 2309 441 2620 675 
Q 2931 909 2931 1356 
Q 2931 1769 2642 2001 
Q 2353 2234 1838 2234 
L 1294 2234 
L 1294 2753 
L 1863 2753 
Q 2328 2753 2575 2939 
Q 2822 3125 2822 3475 
Q 2822 3834 2567 4026 
Q 2313 4219 1838 4219 
Q 1578 4219 1281 4162 
Q 984 4106 628 3988 
L 628 4550 
Q 988 4650 1302 4700 
Q 1616 4750 1894 4750 
Q 2613 4750 3031 4423 
Q 3450 4097 3450 3541 
Q 3450 3153 3228 2886 
Q 3006 2619 2597 2516 
z
" transform="scale(0.015625)"/>
      <path id="DejaVuSans-48" d="M 628 4666 
L 1259 4666 
L 1259 2753 
L 3553 2753 
L 3553 4666 
L 4184 4666 
L 4184 0 
L 3553 0 
L 3553 2222 
L 1259 2222 
L 1259 0 
L 628 0 
L 628 4666 
z
" transform="scale(0.015625)"/>
      <path id="DejaVuSans-38" d="M 2034 2216 
Q 1584 2216 1326 1975 
Q 1069 1734 1069 1313 
Q 1069 891 1326 650 
Q 1584 409 2034 409 
Q 2484 409 2743 651 
Q 3003 894 3003 1313 
Q 3003 1734 2745 1975 
Q 2488 2216 2034 2216 
z
M 1403 2484 
Q 997 2584 770 2862 
Q 544 3141 544 3541 
Q 544 4100 942 4425 
Q 1341 4750 2034 4750 
Q 2731 4750 3128 4425 
Q 3525 4100 3525 3541 
Q 3525 3141 3298 2862 
Q 3072 2584 2669 2484 
Q 3125 2378 3379 2068 
Q 3634 1759 3634 1313 
Q 3634 634 3220 271 
Q 2806 -91 2034 -91 
Q 1263 -91 848 271 
Q 434 634 434 1313 
Q 434 1759 690 2068 
Q 947 2378 1403 2484 
z
M 1172 3481 
Q 1172 3119 1398 2916 
Q 1625 2713 2034 2713 
Q 2441 2713 2670 2916 
Q 2900 3119 2900 3481 
Q 2900 3844 2670 4047 
Q 2441 4250 2034 4250 
Q 1625 4250 1398 4047 
Q 1172 3844 1172 3481 
z
" transform="scale(0.015625)"/>
      <path id="DejaVuSans-49" d="M 628 4666 
L 1259 4666 
L 1259 0 
L 628 0 
L 628 4666 
z
" transform="scale(0.015625)"/>
      <path id="DejaVuSans-72" d="M 2631 2963 
Q 2534 3019 2420 3045 
Q 2306 3072 2169 3072 
Q 1681 3072 1420 2755 
Q 1159 2438 1159 1844 
L 1159 0 
L 581 0 
L 581 3500 
L 1159 3500 
L 1159 2956 
Q 1341 3275 1631 3429 
Q 1922 3584 2338 3584 
Q 2397 3584 2469 3576 
Q 2541 3569 2628 3553 
L 2631 2963 
z
" transform="scale(0.015625)"/>
      <path id="DejaVuSans-34" d="M 2419 4116 
L 825 1625 
L 2419 1625 
L 2419 4116 
z
M 2253 4666 
L 3047 4666 
L 3047 1625 
L 3713 1625 
L 3713 1100 
L 3047 1100 
L 3047 0 
L 2419 0 
L 2419 1100 
L 313 1100 
L 313 1709 
L 2253 4666 
z
" transform="scale(0.015625)"/>
      <path id="DejaVuSans-30" d="M 2034 4250 
Q 1547 4250 1301 3770 
Q 1056 3291 1056 2328 
Q 1056 1369 1301 889 
Q 1547 409 2034 409 
Q 2525 409 2770 889 
Q 3016 1369 3016 2328 
Q 3016 3291 2770 3770 
Q 2525 4250 2034 4250 
z
M 2034 4750 
Q 2819 4750 3233 4129 
Q 3647 3509 3647 2328 
Q 3647 1150 3233 529 
Q 2819 -91 2034 -91 
Q 1250 -91 836 529 
Q 422 1150 422 2328 
Q 422 3509 836 4129 
Q 1250 4750 2034 4750 
z
" transform="scale(0.015625)"/>
      <path id="DejaVuSans-4f" d="M 2522 4238 
Q 1834 4238 1429 3725 
Q 1025 3213 1025 2328 
Q 1025 1447 1429 934 
Q 1834 422 2522 422 
Q 3209 422 3611 934 
Q 4013 1447 4013 2328 
Q 4013 3213 3611 3725 
Q 3209 4238 2522 4238 
z
M 2522 4750 
Q 3503 4750 4090 4092 
Q 4678 3434 4678 2328 
Q 4678 1225 4090 567 
Q 3503 -91 2522 -91 
Q 1538 -91 948 565 
Q 359 1222 359 2328 
Q 359 3434 948 4092 
Q 1538 4750 2522 4750 
z
" transform="scale(0.015625)"/>
      <path id="DejaVuSans-53" d="M 3425 4513 
L 3425 3897 
Q 3066 4069 2747 4153 
Q 2428 4238 2131 4238 
Q 1616 4238 1336 4038 
Q 1056 3838 1056 3469 
Q 1056 3159 1242 3001 
Q 1428 2844 1947 2747 
L 2328 2669 
Q 3034 2534 3370 2195 
Q 3706 1856 3706 1288 
Q 3706 609 3251 259 
Q 2797 -91 1919 -91 
Q 1588 -91 1214 -16 
Q 841 59 441 206 
L 441 856 
Q 825 641 1194 531 
Q 1563 422 1919 422 
Q 2459 422 2753 634 
Q 3047 847 3047 1241 
Q 3047 1584 2836 1778 
Q 2625 1972 2144 2069 
L 1759 2144 
Q 1053 2284 737 2584 
Q 422 2884 422 3419 
Q 422 4038 858 4394 
Q 1294 4750 2059 4750 
Q 2388 4750 2728 4690 
Q 3069 4631 3425 4513 
z
" transform="scale(0.015625)"/>
     </defs>
     <use xlink:href="#DejaVuSans-43"/>
     <use xlink:href="#DejaVuSans-33" transform="translate(69.824219 0)"/>
     <use xlink:href="#DejaVuSans-48" transform="translate(133.447266 0)"/>
     <use xlink:href="#DejaVuSans-38" transform="translate(208.642578 0)"/>
     <use xlink:href="#DejaVuSans-49" transform="translate(272.265625 0)"/>
     <use xlink:href="#DejaVuSans-72" transform="translate(301.757812 0)"/>
     <use xlink:href="#DejaVuSans-34" transform="translate(342.871094 0)"/>
     <use xlink:href="#DejaVuSans-30" transform="translate(406.494141 0)"/>
     <use xlink:href="#DejaVuSans-4f" transform="translate(470.117188 0)"/>
     <use xlink:href="#DejaVuSans-38" transform="translate(548.828125 0)"/>
     <use xlink:href="#DejaVuSans-30" transform="translate(612.451172 0)"/>
     <use xlink:href="#DejaVuSans-53" transform="translate(676.074219 0)"/>
    </g>
    <!-- Error: -2.11 eV -->
    <g transform="translate(145.350812 53.601019) scale(0.1 -0.1)">
     <defs>
      <path id="DejaVuSans-45" d="M 628 4666 
L 3578 4666 
L 3578 4134 
L 1259 4134 
L 1259 2753 
L 3481 2753 
L 3481 2222 
L 1259 2222 
L 1259 531 
L 3634 531 
L 3634 0 
L 628 0 
L 628 4666 
z
" transform="scale(0.015625)"/>
      <path id="DejaVuSans-6f" d="M 1959 3097 
Q 1497 3097 1228 2736 
Q 959 2375 959 1747 
Q 959 1119 1226 758 
Q 1494 397 1959 397 
Q 2419 397 2687 759 
Q 2956 1122 2956 1747 
Q 2956 2369 2687 2733 
Q 2419 3097 1959 3097 
z
M 1959 3584 
Q 2709 3584 3137 3096 
Q 3566 2609 3566 1747 
Q 3566 888 3137 398 
Q 2709 -91 1959 -91 
Q 1206 -91 779 398 
Q 353 888 353 1747 
Q 353 2609 779 3096 
Q 1206 3584 1959 3584 
z
" transform="scale(0.015625)"/>
      <path id="DejaVuSans-3a" d="M 750 794 
L 1409 794 
L 1409 0 
L 750 0 
L 750 794 
z
M 750 3309 
L 1409 3309 
L 1409 2516 
L 750 2516 
L 750 3309 
z
" transform="scale(0.015625)"/>
      <path id="DejaVuSans-20" transform="scale(0.015625)"/>
      <path id="DejaVuSans-2d" d="M 313 2009 
L 1997 2009 
L 1997 1497 
L 313 1497 
L 313 2009 
z
" transform="scale(0.015625)"/>
      <path id="DejaVuSans-32" d="M 1228 531 
L 3431 531 
L 3431 0 
L 469 0 
L 469 531 
Q 828 903 1448 1529 
Q 2069 2156 2228 2338 
Q 2531 2678 2651 2914 
Q 2772 3150 2772 3378 
Q 2772 3750 2511 3984 
Q 2250 4219 1831 4219 
Q 1534 4219 1204 4116 
Q 875 4013 500 3803 
L 500 4441 
Q 881 4594 1212 4672 
Q 1544 4750 1819 4750 
Q 2544 4750 2975 4387 
Q 3406 4025 3406 3419 
Q 3406 3131 3298 2873 
Q 3191 2616 2906 2266 
Q 2828 2175 2409 1742 
Q 1991 1309 1228 531 
z
" transform="scale(0.015625)"/>
      <path id="DejaVuSans-2e" d="M 684 794 
L 1344 794 
L 1344 0 
L 684 0 
L 684 794 
z
" transform="scale(0.015625)"/>
      <path id="DejaVuSans-31" d="M 794 531 
L 1825 531 
L 1825 4091 
L 703 3866 
L 703 4441 
L 1819 4666 
L 2450 4666 
L 2450 531 
L 3481 531 
L 3481 0 
L 794 0 
L 794 531 
z
" transform="scale(0.015625)"/>
      <path id="DejaVuSans-65" d="M 3597 1894 
L 3597 1613 
L 953 1613 
Q 991 1019 1311 708 
Q 1631 397 2203 397 
Q 2534 397 2845 478 
Q 3156 559 3463 722 
L 3463 178 
Q 3153 47 2828 -22 
Q 2503 -91 2169 -91 
Q 1331 -91 842 396 
Q 353 884 353 1716 
Q 353 2575 817 3079 
Q 1281 3584 2069 3584 
Q 2775 3584 3186 3129 
Q 3597 2675 3597 1894 
z
M 3022 2063 
Q 3016 2534 2758 2815 
Q 2500 3097 2075 3097 
Q 1594 3097 1305 2825 
Q 1016 2553 972 2059 
L 3022 2063 
z
" transform="scale(0.015625)"/>
      <path id="DejaVuSans-56" d="M 1831 0 
L 50 4666 
L 709 4666 
L 2188 738 
L 3669 4666 
L 4325 4666 
L 2547 0 
L 1831 0 
z
" transform="scale(0.015625)"/>
     </defs>
     <use xlink:href="#DejaVuSans-45"/>
     <use xlink:href="#DejaVuSans-72" transform="translate(63.183594 0)"/>
     <use xlink:href="#DejaVuSans-72" transform="translate(102.546875 0)"/>
     <use xlink:href="#DejaVuSans-6f" transform="translate(141.410156 0)"/>
     <use xlink:href="#DejaVuSans-72" transform="translate(202.591797 0)"/>
     <use xlink:href="#DejaVuSans-3a" transform="translate(241.955078 0)"/>
     <use xlink:href="#DejaVuSans-20" transform="translate(275.646484 0)"/>
     <use xlink:href="#DejaVuSans-2d" transform="translate(307.433594 0)"/>
     <use xlink:href="#DejaVuSans-32" transform="translate(343.517578 0)"/>
     <use xlink:href="#DejaVuSans-2e" transform="translate(407.140625 0)"/>
     <use xlink:href="#DejaVuSans-31" transform="translate(438.927734 0)"/>
     <use xlink:href="#DejaVuSans-31" transform="translate(502.550781 0)"/>
     <use xlink:href="#DejaVuSans-20" transform="translate(566.173828 0)"/>
     <use xlink:href="#DejaVuSans-65" transform="translate(597.960938 0)"/>
     <use xlink:href="#DejaVuSans-56" transform="translate(659.484375 0)"/>
    </g>
   </g>
  </g>
 </g>
 <defs>
  <clipPath id="pfc7526b4d8">
   <rect x="36" y="34.56" width="223.2" height="221.76"/>
  </clipPath>
 </defs>
</svg>
