<?xml version="1.0" encoding="utf-8" standalone="no"?>
<!DOCTYPE svg PUBLIC "-//W3C//DTD SVG 1.1//EN"
  "http://www.w3.org/Graphics/SVG/1.1/DTD/svg11.dtd">
<svg xmlns:xlink="http://www.w3.org/1999/xlink" width="288pt" height="288pt" viewBox="0 0 288 288" xmlns="http://www.w3.org/2000/svg" version="1.1">
 <metadata>
  <rdf:RDF xmlns:dc="http://purl.org/dc/elements/1.1/" xmlns:cc="http://creativecommons.org/ns#" xmlns:rdf="http://www.w3.org/1999/02/22-rdf-syntax-ns#">
   <cc:Work>
    <dc:type rdf:resource="http://purl.org/dc/dcmitype/StillImage"/>
    <dc:date>2025-06-30T12:10:42.695100</dc:date>
    <dc:format>image/svg+xml</dc:format>
    <dc:creator>
     <cc:Agent>
      <dc:title>Matplotlib v3.10.1, https://matplotlib.org/</dc:title>
     </cc:Agent>
    </dc:creator>
   </cc:Work>
  </rdf:RDF>
 </metadata>
 <defs>
  <style type="text/css">*{stroke-linejoin: round; stroke-linecap: butt}</style>
 </defs>
 <g id="figure_1">
  <g id="patch_1">
   <path d="M 0 288 
L 288 288 
L 288 0 
L 0 0 
z
" style="fill: #ffffff"/>
  </g>
  <g id="axes_1">
   <g id="LineCollection_1">
    <path d="M 55.368595 77.528255 
L 71.858265 66.426277 
" clip-path="url(#p503076d844)" style="fill: none; stroke: #000000; stroke-width: 1.2"/>
    <path d="M 55.368595 77.528255 
L 104.557438 65.019445 
" clip-path="url(#p503076d844)" style="fill: none; stroke: #000000; stroke-width: 1.2"/>
    <path d="M 55.368595 77.528255 
L 86.851165 59.789602 
" clip-path="url(#p503076d844)" style="fill: none; stroke: #000000; stroke-width: 1.2"/>
    <path d="M 55.368595 77.528255 
L 93.524511 73.101217 
" clip-path="url(#p503076d844)" style="fill: none; stroke: #000000; stroke-width: 1.2"/>
    <path d="M 55.368595 77.528255 
L 90.346507 100.306798 
" clip-path="url(#p503076d844)" style="fill: none; stroke: #000000; stroke-width: 1.2"/>
    <path d="M 55.368595 77.528255 
L 62.632946 95.615264 
" clip-path="url(#p503076d844)" style="fill: none; stroke: #000000; stroke-width: 1.2"/>
    <path d="M 55.368595 77.528255 
L 74.37153 106.682451 
" clip-path="url(#p503076d844)" style="fill: none; stroke: #000000; stroke-width: 1.2"/>
    <path d="M 71.858265 66.426277 
L 104.557438 65.019445 
" clip-path="url(#p503076d844)" style="fill: none; stroke: #000000; stroke-width: 1.2"/>
    <path d="M 71.858265 66.426277 
L 123.967802 54.291099 
" clip-path="url(#p503076d844)" style="fill: none; stroke: #000000; stroke-width: 1.2"/>
    <path d="M 71.858265 66.426277 
L 93.524511 73.101217 
" clip-path="url(#p503076d844)" style="fill: none; stroke: #000000; stroke-width: 1.2"/>
    <path d="M 71.858265 66.426277 
L 110.813461 56.089098 
" clip-path="url(#p503076d844)" style="fill: none; stroke: #000000; stroke-width: 1.2"/>
    <path d="M 71.858265 66.426277 
L 112.773919 92.046809 
" clip-path="url(#p503076d844)" style="fill: none; stroke: #000000; stroke-width: 1.2"/>
    <path d="M 71.858265 66.426277 
L 74.37153 106.682451 
" clip-path="url(#p503076d844)" style="fill: none; stroke: #000000; stroke-width: 1.2"/>
    <path d="M 71.858265 66.426277 
L 80.699661 90.811438 
" clip-path="url(#p503076d844)" style="fill: none; stroke: #000000; stroke-width: 1.2"/>
    <path d="M 104.557438 65.019445 
L 123.967802 54.291099 
" clip-path="url(#p503076d844)" style="fill: none; stroke: #000000; stroke-width: 1.2"/>
    <path d="M 104.557438 65.019445 
L 133.162222 64.630245 
" clip-path="url(#p503076d844)" style="fill: none; stroke: #000000; stroke-width: 1.2"/>
    <path d="M 104.557438 65.019445 
L 153.040737 66.259769 
" clip-path="url(#p503076d844)" style="fill: none; stroke: #000000; stroke-width: 1.2"/>
    <path d="M 104.557438 65.019445 
L 90.346507 100.306798 
" clip-path="url(#p503076d844)" style="fill: none; stroke: #000000; stroke-width: 1.2"/>
    <path d="M 104.557438 65.019445 
L 112.773919 92.046809 
" clip-path="url(#p503076d844)" style="fill: none; stroke: #000000; stroke-width: 1.2"/>
    <path d="M 104.557438 65.019445 
L 148.377972 96.132701 
" clip-path="url(#p503076d844)" style="fill: none; stroke: #000000; stroke-width: 1.2"/>
    <path d="M 123.967802 54.291099 
L 146.248391 53.803636 
" clip-path="url(#p503076d844)" style="fill: none; stroke: #000000; stroke-width: 1.2"/>
    <path d="M 123.967802 54.291099 
L 153.040737 66.259769 
" clip-path="url(#p503076d844)" style="fill: none; stroke: #000000; stroke-width: 1.2"/>
    <path d="M 123.967802 54.291099 
L 100.957391 83.71681 
" clip-path="url(#p503076d844)" style="fill: none; stroke: #000000; stroke-width: 1.2"/>
    <path d="M 123.967802 54.291099 
L 112.773919 92.046809 
" clip-path="url(#p503076d844)" style="fill: none; stroke: #000000; stroke-width: 1.2"/>
    <path d="M 123.967802 54.291099 
L 159.028978 84.222798 
" clip-path="url(#p503076d844)" style="fill: none; stroke: #000000; stroke-width: 1.2"/>
    <path d="M 146.248391 53.803636 
L 133.162222 64.630245 
" clip-path="url(#p503076d844)" style="fill: none; stroke: #000000; stroke-width: 1.2"/>
    <path d="M 146.248391 53.803636 
L 153.040737 66.259769 
" clip-path="url(#p503076d844)" style="fill: none; stroke: #000000; stroke-width: 1.2"/>
    <path d="M 146.248391 53.803636 
L 86.851165 59.789602 
" clip-path="url(#p503076d844)" style="fill: none; stroke: #000000; stroke-width: 1.2"/>
    <path d="M 146.248391 53.803636 
L 110.813461 56.089098 
" clip-path="url(#p503076d844)" style="fill: none; stroke: #000000; stroke-width: 1.2"/>
    <path d="M 146.248391 53.803636 
L 141.068135 85.62061 
" clip-path="url(#p503076d844)" style="fill: none; stroke: #000000; stroke-width: 1.2"/>
    <path d="M 146.248391 53.803636 
L 159.028978 84.222798 
" clip-path="url(#p503076d844)" style="fill: none; stroke: #000000; stroke-width: 1.2"/>
    <path d="M 146.248391 53.803636 
L 118.372179 81.271681 
" clip-path="url(#p503076d844)" style="fill: none; stroke: #000000; stroke-width: 1.2"/>
    <path d="M 133.162222 64.630245 
L 153.040737 66.259769 
" clip-path="url(#p503076d844)" style="fill: none; stroke: #000000; stroke-width: 1.2"/>
    <path d="M 133.162222 64.630245 
L 86.851165 59.789602 
" clip-path="url(#p503076d844)" style="fill: none; stroke: #000000; stroke-width: 1.2"/>
    <path d="M 133.162222 64.630245 
L 93.524511 73.101217 
" clip-path="url(#p503076d844)" style="fill: none; stroke: #000000; stroke-width: 1.2"/>
    <path d="M 133.162222 64.630245 
L 141.068135 85.62061 
" clip-path="url(#p503076d844)" style="fill: none; stroke: #000000; stroke-width: 1.2"/>
    <path d="M 133.162222 64.630245 
L 148.377972 96.132701 
" clip-path="url(#p503076d844)" style="fill: none; stroke: #000000; stroke-width: 1.2"/>
    <path d="M 133.162222 64.630245 
L 107.887382 100.215075 
" clip-path="url(#p503076d844)" style="fill: none; stroke: #000000; stroke-width: 1.2"/>
    <path d="M 153.040737 66.259769 
L 93.524511 73.101217 
" clip-path="url(#p503076d844)" style="fill: none; stroke: #000000; stroke-width: 1.2"/>
    <path d="M 153.040737 66.259769 
L 110.813461 56.089098 
" clip-path="url(#p503076d844)" style="fill: none; stroke: #000000; stroke-width: 1.2"/>
    <path d="M 153.040737 66.259769 
L 148.377972 96.132701 
" clip-path="url(#p503076d844)" style="fill: none; stroke: #000000; stroke-width: 1.2"/>
    <path d="M 153.040737 66.259769 
L 159.028978 84.222798 
" clip-path="url(#p503076d844)" style="fill: none; stroke: #000000; stroke-width: 1.2"/>
    <path d="M 153.040737 66.259769 
L 129.390161 97.205042 
" clip-path="url(#p503076d844)" style="fill: none; stroke: #000000; stroke-width: 1.2"/>
    <path d="M 86.851165 59.789602 
L 93.524511 73.101217 
" clip-path="url(#p503076d844)" style="fill: none; stroke: #000000; stroke-width: 1.2"/>
    <path d="M 86.851165 59.789602 
L 110.813461 56.089098 
" clip-path="url(#p503076d844)" style="fill: none; stroke: #000000; stroke-width: 1.2"/>
    <path d="M 86.851165 59.789602 
L 118.372179 81.271681 
" clip-path="url(#p503076d844)" style="fill: none; stroke: #000000; stroke-width: 1.2"/>
    <path d="M 86.851165 59.789602 
L 107.887382 100.215075 
" clip-path="url(#p503076d844)" style="fill: none; stroke: #000000; stroke-width: 1.2"/>
    <path d="M 86.851165 59.789602 
L 62.632946 95.615264 
" clip-path="url(#p503076d844)" style="fill: none; stroke: #000000; stroke-width: 1.2"/>
    <path d="M 93.524511 73.101217 
L 110.813461 56.089098 
" clip-path="url(#p503076d844)" style="fill: none; stroke: #000000; stroke-width: 1.2"/>
    <path d="M 93.524511 73.101217 
L 107.887382 100.215075 
" clip-path="url(#p503076d844)" style="fill: none; stroke: #000000; stroke-width: 1.2"/>
    <path d="M 93.524511 73.101217 
L 129.390161 97.205042 
" clip-path="url(#p503076d844)" style="fill: none; stroke: #000000; stroke-width: 1.2"/>
    <path d="M 93.524511 73.101217 
L 74.37153 106.682451 
" clip-path="url(#p503076d844)" style="fill: none; stroke: #000000; stroke-width: 1.2"/>
    <path d="M 110.813461 56.089098 
L 118.372179 81.271681 
" clip-path="url(#p503076d844)" style="fill: none; stroke: #000000; stroke-width: 1.2"/>
    <path d="M 110.813461 56.089098 
L 129.390161 97.205042 
" clip-path="url(#p503076d844)" style="fill: none; stroke: #000000; stroke-width: 1.2"/>
    <path d="M 110.813461 56.089098 
L 80.699661 90.811438 
" clip-path="url(#p503076d844)" style="fill: none; stroke: #000000; stroke-width: 1.2"/>
    <path d="M 100.957391 83.71681 
L 90.346507 100.306798 
" clip-path="url(#p503076d844)" style="fill: none; stroke: #000000; stroke-width: 1.2"/>
    <path d="M 100.957391 83.71681 
L 112.773919 92.046809 
" clip-path="url(#p503076d844)" style="fill: none; stroke: #000000; stroke-width: 1.2"/>
    <path d="M 100.957391 83.71681 
L 141.068135 85.62061 
" clip-path="url(#p503076d844)" style="fill: none; stroke: #000000; stroke-width: 1.2"/>
    <path d="M 100.957391 83.71681 
L 159.028978 84.222798 
" clip-path="url(#p503076d844)" style="fill: none; stroke: #000000; stroke-width: 1.2"/>
    <path d="M 100.957391 83.71681 
L 62.632946 95.615264 
" clip-path="url(#p503076d844)" style="fill: none; stroke: #000000; stroke-width: 1.2"/>
    <path d="M 100.957391 83.71681 
L 80.699661 90.811438 
" clip-path="url(#p503076d844)" style="fill: none; stroke: #000000; stroke-width: 1.2"/>
    <path d="M 100.957391 83.71681 
L 70.357232 116.781057 
" clip-path="url(#p503076d844)" style="fill: none; stroke: #000000; stroke-width: 1.2"/>
    <path d="M 100.957391 83.71681 
L 108.337792 117.209547 
" clip-path="url(#p503076d844)" style="fill: none; stroke: #000000; stroke-width: 1.2"/>
    <path d="M 100.957391 83.71681 
L 134.367944 114.114418 
" clip-path="url(#p503076d844)" style="fill: none; stroke: #000000; stroke-width: 1.2"/>
    <path d="M 90.346507 100.306798 
L 112.773919 92.046809 
" clip-path="url(#p503076d844)" style="fill: none; stroke: #000000; stroke-width: 1.2"/>
    <path d="M 90.346507 100.306798 
L 141.068135 85.62061 
" clip-path="url(#p503076d844)" style="fill: none; stroke: #000000; stroke-width: 1.2"/>
    <path d="M 90.346507 100.306798 
L 148.377972 96.132701 
" clip-path="url(#p503076d844)" style="fill: none; stroke: #000000; stroke-width: 1.2"/>
    <path d="M 90.346507 100.306798 
L 62.632946 95.615264 
" clip-path="url(#p503076d844)" style="fill: none; stroke: #000000; stroke-width: 1.2"/>
    <path d="M 90.346507 100.306798 
L 74.37153 106.682451 
" clip-path="url(#p503076d844)" style="fill: none; stroke: #000000; stroke-width: 1.2"/>
    <path d="M 90.346507 100.306798 
L 71.896258 132.136195 
" clip-path="url(#p503076d844)" style="fill: none; stroke: #000000; stroke-width: 1.2"/>
    <path d="M 90.346507 100.306798 
L 108.337792 117.209547 
" clip-path="url(#p503076d844)" style="fill: none; stroke: #000000; stroke-width: 1.2"/>
    <path d="M 90.346507 100.306798 
L 122.614872 130.75431 
" clip-path="url(#p503076d844)" style="fill: none; stroke: #000000; stroke-width: 1.2"/>
    <path d="M 112.773919 92.046809 
L 148.377972 96.132701 
" clip-path="url(#p503076d844)" style="fill: none; stroke: #000000; stroke-width: 1.2"/>
    <path d="M 112.773919 92.046809 
L 159.028978 84.222798 
" clip-path="url(#p503076d844)" style="fill: none; stroke: #000000; stroke-width: 1.2"/>
    <path d="M 112.773919 92.046809 
L 74.37153 106.682451 
" clip-path="url(#p503076d844)" style="fill: none; stroke: #000000; stroke-width: 1.2"/>
    <path d="M 112.773919 92.046809 
L 80.699661 90.811438 
" clip-path="url(#p503076d844)" style="fill: none; stroke: #000000; stroke-width: 1.2"/>
    <path d="M 112.773919 92.046809 
L 88.788384 129.689725 
" clip-path="url(#p503076d844)" style="fill: none; stroke: #000000; stroke-width: 1.2"/>
    <path d="M 112.773919 92.046809 
L 122.614872 130.75431 
" clip-path="url(#p503076d844)" style="fill: none; stroke: #000000; stroke-width: 1.2"/>
    <path d="M 112.773919 92.046809 
L 134.367944 114.114418 
" clip-path="url(#p503076d844)" style="fill: none; stroke: #000000; stroke-width: 1.2"/>
    <path d="M 141.068135 85.62061 
L 148.377972 96.132701 
" clip-path="url(#p503076d844)" style="fill: none; stroke: #000000; stroke-width: 1.2"/>
    <path d="M 141.068135 85.62061 
L 159.028978 84.222798 
" clip-path="url(#p503076d844)" style="fill: none; stroke: #000000; stroke-width: 1.2"/>
    <path d="M 141.068135 85.62061 
L 118.372179 81.271681 
" clip-path="url(#p503076d844)" style="fill: none; stroke: #000000; stroke-width: 1.2"/>
    <path d="M 141.068135 85.62061 
L 107.887382 100.215075 
" clip-path="url(#p503076d844)" style="fill: none; stroke: #000000; stroke-width: 1.2"/>
    <path d="M 141.068135 85.62061 
L 108.337792 117.209547 
" clip-path="url(#p503076d844)" style="fill: none; stroke: #000000; stroke-width: 1.2"/>
    <path d="M 141.068135 85.62061 
L 158.665491 106.153131 
" clip-path="url(#p503076d844)" style="fill: none; stroke: #000000; stroke-width: 1.2"/>
    <path d="M 141.068135 85.62061 
L 145.201934 123.550096 
" clip-path="url(#p503076d844)" style="fill: none; stroke: #000000; stroke-width: 1.2"/>
    <path d="M 148.377972 96.132701 
L 159.028978 84.222798 
" clip-path="url(#p503076d844)" style="fill: none; stroke: #000000; stroke-width: 1.2"/>
    <path d="M 148.377972 96.132701 
L 107.887382 100.215075 
" clip-path="url(#p503076d844)" style="fill: none; stroke: #000000; stroke-width: 1.2"/>
    <path d="M 148.377972 96.132701 
L 129.390161 97.205042 
" clip-path="url(#p503076d844)" style="fill: none; stroke: #000000; stroke-width: 1.2"/>
    <path d="M 148.377972 96.132701 
L 122.614872 130.75431 
" clip-path="url(#p503076d844)" style="fill: none; stroke: #000000; stroke-width: 1.2"/>
    <path d="M 148.377972 96.132701 
L 145.201934 123.550096 
" clip-path="url(#p503076d844)" style="fill: none; stroke: #000000; stroke-width: 1.2"/>
    <path d="M 148.377972 96.132701 
L 163.44126 120.364305 
" clip-path="url(#p503076d844)" style="fill: none; stroke: #000000; stroke-width: 1.2"/>
    <path d="M 159.028978 84.222798 
L 118.372179 81.271681 
" clip-path="url(#p503076d844)" style="fill: none; stroke: #000000; stroke-width: 1.2"/>
    <path d="M 159.028978 84.222798 
L 129.390161 97.205042 
" clip-path="url(#p503076d844)" style="fill: none; stroke: #000000; stroke-width: 1.2"/>
    <path d="M 159.028978 84.222798 
L 134.367944 114.114418 
" clip-path="url(#p503076d844)" style="fill: none; stroke: #000000; stroke-width: 1.2"/>
    <path d="M 159.028978 84.222798 
L 158.665491 106.153131 
" clip-path="url(#p503076d844)" style="fill: none; stroke: #000000; stroke-width: 1.2"/>
    <path d="M 159.028978 84.222798 
L 163.44126 120.364305 
" clip-path="url(#p503076d844)" style="fill: none; stroke: #000000; stroke-width: 1.2"/>
    <path d="M 118.372179 81.271681 
L 107.887382 100.215075 
" clip-path="url(#p503076d844)" style="fill: none; stroke: #000000; stroke-width: 1.2"/>
    <path d="M 118.372179 81.271681 
L 129.390161 97.205042 
" clip-path="url(#p503076d844)" style="fill: none; stroke: #000000; stroke-width: 1.2"/>
    <path d="M 118.372179 81.271681 
L 62.632946 95.615264 
" clip-path="url(#p503076d844)" style="fill: none; stroke: #000000; stroke-width: 1.2"/>
    <path d="M 118.372179 81.271681 
L 80.699661 90.811438 
" clip-path="url(#p503076d844)" style="fill: none; stroke: #000000; stroke-width: 1.2"/>
    <path d="M 118.372179 81.271681 
L 158.665491 106.153131 
" clip-path="url(#p503076d844)" style="fill: none; stroke: #000000; stroke-width: 1.2"/>
    <path d="M 118.372179 81.271681 
L 98.354049 122.73578 
" clip-path="url(#p503076d844)" style="fill: none; stroke: #000000; stroke-width: 1.2"/>
    <path d="M 118.372179 81.271681 
L 122.638168 119.555149 
" clip-path="url(#p503076d844)" style="fill: none; stroke: #000000; stroke-width: 1.2"/>
    <path d="M 107.887382 100.215075 
L 129.390161 97.205042 
" clip-path="url(#p503076d844)" style="fill: none; stroke: #000000; stroke-width: 1.2"/>
    <path d="M 107.887382 100.215075 
L 62.632946 95.615264 
" clip-path="url(#p503076d844)" style="fill: none; stroke: #000000; stroke-width: 1.2"/>
    <path d="M 107.887382 100.215075 
L 74.37153 106.682451 
" clip-path="url(#p503076d844)" style="fill: none; stroke: #000000; stroke-width: 1.2"/>
    <path d="M 107.887382 100.215075 
L 145.201934 123.550096 
" clip-path="url(#p503076d844)" style="fill: none; stroke: #000000; stroke-width: 1.2"/>
    <path d="M 107.887382 100.215075 
L 98.354049 122.73578 
" clip-path="url(#p503076d844)" style="fill: none; stroke: #000000; stroke-width: 1.2"/>
    <path d="M 107.887382 100.215075 
L 115.346319 137.076117 
" clip-path="url(#p503076d844)" style="fill: none; stroke: #000000; stroke-width: 1.2"/>
    <path d="M 129.390161 97.205042 
L 74.37153 106.682451 
" clip-path="url(#p503076d844)" style="fill: none; stroke: #000000; stroke-width: 1.2"/>
    <path d="M 129.390161 97.205042 
L 80.699661 90.811438 
" clip-path="url(#p503076d844)" style="fill: none; stroke: #000000; stroke-width: 1.2"/>
    <path d="M 129.390161 97.205042 
L 163.44126 120.364305 
" clip-path="url(#p503076d844)" style="fill: none; stroke: #000000; stroke-width: 1.2"/>
    <path d="M 129.390161 97.205042 
L 115.346319 137.076117 
" clip-path="url(#p503076d844)" style="fill: none; stroke: #000000; stroke-width: 1.2"/>
    <path d="M 129.390161 97.205042 
L 122.638168 119.555149 
" clip-path="url(#p503076d844)" style="fill: none; stroke: #000000; stroke-width: 1.2"/>
    <path d="M 62.632946 95.615264 
L 74.37153 106.682451 
" clip-path="url(#p503076d844)" style="fill: none; stroke: #000000; stroke-width: 1.2"/>
    <path d="M 62.632946 95.615264 
L 80.699661 90.811438 
" clip-path="url(#p503076d844)" style="fill: none; stroke: #000000; stroke-width: 1.2"/>
    <path d="M 62.632946 95.615264 
L 70.357232 116.781057 
" clip-path="url(#p503076d844)" style="fill: none; stroke: #000000; stroke-width: 1.2"/>
    <path d="M 62.632946 95.615264 
L 71.896258 132.136195 
" clip-path="url(#p503076d844)" style="fill: none; stroke: #000000; stroke-width: 1.2"/>
    <path d="M 62.632946 95.615264 
L 98.354049 122.73578 
" clip-path="url(#p503076d844)" style="fill: none; stroke: #000000; stroke-width: 1.2"/>
    <path d="M 74.37153 106.682451 
L 80.699661 90.811438 
" clip-path="url(#p503076d844)" style="fill: none; stroke: #000000; stroke-width: 1.2"/>
    <path d="M 74.37153 106.682451 
L 71.896258 132.136195 
" clip-path="url(#p503076d844)" style="fill: none; stroke: #000000; stroke-width: 1.2"/>
    <path d="M 74.37153 106.682451 
L 88.788384 129.689725 
" clip-path="url(#p503076d844)" style="fill: none; stroke: #000000; stroke-width: 1.2"/>
    <path d="M 74.37153 106.682451 
L 115.346319 137.076117 
" clip-path="url(#p503076d844)" style="fill: none; stroke: #000000; stroke-width: 1.2"/>
    <path d="M 80.699661 90.811438 
L 70.357232 116.781057 
" clip-path="url(#p503076d844)" style="fill: none; stroke: #000000; stroke-width: 1.2"/>
    <path d="M 80.699661 90.811438 
L 88.788384 129.689725 
" clip-path="url(#p503076d844)" style="fill: none; stroke: #000000; stroke-width: 1.2"/>
    <path d="M 80.699661 90.811438 
L 122.638168 119.555149 
" clip-path="url(#p503076d844)" style="fill: none; stroke: #000000; stroke-width: 1.2"/>
    <path d="M 70.357232 116.781057 
L 71.896258 132.136195 
" clip-path="url(#p503076d844)" style="fill: none; stroke: #000000; stroke-width: 1.2"/>
    <path d="M 70.357232 116.781057 
L 88.788384 129.689725 
" clip-path="url(#p503076d844)" style="fill: none; stroke: #000000; stroke-width: 1.2"/>
    <path d="M 70.357232 116.781057 
L 108.337792 117.209547 
" clip-path="url(#p503076d844)" style="fill: none; stroke: #000000; stroke-width: 1.2"/>
    <path d="M 70.357232 116.781057 
L 134.367944 114.114418 
" clip-path="url(#p503076d844)" style="fill: none; stroke: #000000; stroke-width: 1.2"/>
    <path d="M 70.357232 116.781057 
L 98.354049 122.73578 
" clip-path="url(#p503076d844)" style="fill: none; stroke: #000000; stroke-width: 1.2"/>
    <path d="M 70.357232 116.781057 
L 122.638168 119.555149 
" clip-path="url(#p503076d844)" style="fill: none; stroke: #000000; stroke-width: 1.2"/>
    <path d="M 71.896258 132.136195 
L 88.788384 129.689725 
" clip-path="url(#p503076d844)" style="fill: none; stroke: #000000; stroke-width: 1.2"/>
    <path d="M 71.896258 132.136195 
L 108.337792 117.209547 
" clip-path="url(#p503076d844)" style="fill: none; stroke: #000000; stroke-width: 1.2"/>
    <path d="M 71.896258 132.136195 
L 122.614872 130.75431 
" clip-path="url(#p503076d844)" style="fill: none; stroke: #000000; stroke-width: 1.2"/>
    <path d="M 71.896258 132.136195 
L 98.354049 122.73578 
" clip-path="url(#p503076d844)" style="fill: none; stroke: #000000; stroke-width: 1.2"/>
    <path d="M 71.896258 132.136195 
L 115.346319 137.076117 
" clip-path="url(#p503076d844)" style="fill: none; stroke: #000000; stroke-width: 1.2"/>
    <path d="M 88.788384 129.689725 
L 122.614872 130.75431 
" clip-path="url(#p503076d844)" style="fill: none; stroke: #000000; stroke-width: 1.2"/>
    <path d="M 88.788384 129.689725 
L 134.367944 114.114418 
" clip-path="url(#p503076d844)" style="fill: none; stroke: #000000; stroke-width: 1.2"/>
    <path d="M 88.788384 129.689725 
L 115.346319 137.076117 
" clip-path="url(#p503076d844)" style="fill: none; stroke: #000000; stroke-width: 1.2"/>
    <path d="M 88.788384 129.689725 
L 122.638168 119.555149 
" clip-path="url(#p503076d844)" style="fill: none; stroke: #000000; stroke-width: 1.2"/>
    <path d="M 108.337792 117.209547 
L 122.614872 130.75431 
" clip-path="url(#p503076d844)" style="fill: none; stroke: #000000; stroke-width: 1.2"/>
    <path d="M 108.337792 117.209547 
L 134.367944 114.114418 
" clip-path="url(#p503076d844)" style="fill: none; stroke: #000000; stroke-width: 1.2"/>
    <path d="M 108.337792 117.209547 
L 158.665491 106.153131 
" clip-path="url(#p503076d844)" style="fill: none; stroke: #000000; stroke-width: 1.2"/>
    <path d="M 108.337792 117.209547 
L 145.201934 123.550096 
" clip-path="url(#p503076d844)" style="fill: none; stroke: #000000; stroke-width: 1.2"/>
    <path d="M 122.614872 130.75431 
L 134.367944 114.114418 
" clip-path="url(#p503076d844)" style="fill: none; stroke: #000000; stroke-width: 1.2"/>
    <path d="M 122.614872 130.75431 
L 145.201934 123.550096 
" clip-path="url(#p503076d844)" style="fill: none; stroke: #000000; stroke-width: 1.2"/>
    <path d="M 122.614872 130.75431 
L 163.44126 120.364305 
" clip-path="url(#p503076d844)" style="fill: none; stroke: #000000; stroke-width: 1.2"/>
    <path d="M 134.367944 114.114418 
L 158.665491 106.153131 
" clip-path="url(#p503076d844)" style="fill: none; stroke: #000000; stroke-width: 1.2"/>
    <path d="M 134.367944 114.114418 
L 163.44126 120.364305 
" clip-path="url(#p503076d844)" style="fill: none; stroke: #000000; stroke-width: 1.2"/>
    <path d="M 158.665491 106.153131 
L 145.201934 123.550096 
" clip-path="url(#p503076d844)" style="fill: none; stroke: #000000; stroke-width: 1.2"/>
    <path d="M 158.665491 106.153131 
L 163.44126 120.364305 
" clip-path="url(#p503076d844)" style="fill: none; stroke: #000000; stroke-width: 1.2"/>
    <path d="M 158.665491 106.153131 
L 98.354049 122.73578 
" clip-path="url(#p503076d844)" style="fill: none; stroke: #000000; stroke-width: 1.2"/>
    <path d="M 158.665491 106.153131 
L 122.638168 119.555149 
" clip-path="url(#p503076d844)" style="fill: none; stroke: #000000; stroke-width: 1.2"/>
    <path d="M 145.201934 123.550096 
L 163.44126 120.364305 
" clip-path="url(#p503076d844)" style="fill: none; stroke: #000000; stroke-width: 1.2"/>
    <path d="M 145.201934 123.550096 
L 98.354049 122.73578 
" clip-path="url(#p503076d844)" style="fill: none; stroke: #000000; stroke-width: 1.2"/>
    <path d="M 145.201934 123.550096 
L 115.346319 137.076117 
" clip-path="url(#p503076d844)" style="fill: none; stroke: #000000; stroke-width: 1.2"/>
    <path d="M 163.44126 120.364305 
L 115.346319 137.076117 
" clip-path="url(#p503076d844)" style="fill: none; stroke: #000000; stroke-width: 1.2"/>
    <path d="M 163.44126 120.364305 
L 122.638168 119.555149 
" clip-path="url(#p503076d844)" style="fill: none; stroke: #000000; stroke-width: 1.2"/>
    <path d="M 163.44126 120.364305 
L 193.590099 143.238037 
" clip-path="url(#p503076d844)" style="fill: none; stroke: #000000; stroke-width: 1.2"/>
    <path d="M 98.354049 122.73578 
L 115.346319 137.076117 
" clip-path="url(#p503076d844)" style="fill: none; stroke: #000000; stroke-width: 1.2"/>
    <path d="M 98.354049 122.73578 
L 122.638168 119.555149 
" clip-path="url(#p503076d844)" style="fill: none; stroke: #000000; stroke-width: 1.2"/>
    <path d="M 115.346319 137.076117 
L 122.638168 119.555149 
" clip-path="url(#p503076d844)" style="fill: none; stroke: #000000; stroke-width: 1.2"/>
    <path d="M 115.346319 137.076117 
L 133.225437 167.445257 
" clip-path="url(#p503076d844)" style="fill: none; stroke: #000000; stroke-width: 1.2"/>
    <path d="M 169.607874 237.076364 
L 193.450678 206.847166 
" clip-path="url(#p503076d844)" style="fill: none; stroke: #000000; stroke-width: 1.2"/>
    <path d="M 209.391448 233.350919 
L 193.450678 206.847166 
" clip-path="url(#p503076d844)" style="fill: none; stroke: #000000; stroke-width: 1.2"/>
    <path d="M 239.831405 212.803622 
L 193.450678 206.847166 
" clip-path="url(#p503076d844)" style="fill: none; stroke: #000000; stroke-width: 1.2"/>
    <path d="M 238.174154 137.905964 
L 193.590099 143.238037 
" clip-path="url(#p503076d844)" style="fill: none; stroke: #000000; stroke-width: 1.2"/>
    <path d="M 178.517106 176.703208 
L 193.450678 206.847166 
" clip-path="url(#p503076d844)" style="fill: none; stroke: #000000; stroke-width: 1.2"/>
    <path d="M 178.517106 176.703208 
L 133.225437 167.445257 
" clip-path="url(#p503076d844)" style="fill: none; stroke: #000000; stroke-width: 1.2"/>
    <path d="M 178.517106 176.703208 
L 193.590099 143.238037 
" clip-path="url(#p503076d844)" style="fill: none; stroke: #000000; stroke-width: 1.2"/>
   </g>
   <g id="PathCollection_1">
    <defs>
     <path id="C0_0_03f43a5001" d="M 0 8.944272 
C 2.372049 8.944272 4.647264 8.001847 6.324555 6.324555 
C 8.001847 4.647264 8.944272 2.372049 8.944272 -0 
C 8.944272 -2.372049 8.001847 -4.647264 6.324555 -6.324555 
C 4.647264 -8.001847 2.372049 -8.944272 0 -8.944272 
C -2.372049 -8.944272 -4.647264 -8.001847 -6.324555 -6.324555 
C -8.001847 -4.647264 -8.944272 -2.372049 -8.944272 0 
C -8.944272 2.372049 -8.001847 4.647264 -6.324555 6.324555 
C -4.647264 8.001847 -2.372049 8.944272 0 8.944272 
z
"/>
    </defs>
    <g clip-path="url(#p503076d844)">
     <use xlink:href="#C0_0_03f43a5001" x="55.368595" y="77.528255" style="fill: #f08fa1; stroke: #f08fa1; stroke-width: 0.5"/>
    </g>
    <g clip-path="url(#p503076d844)">
     <use xlink:href="#C0_0_03f43a5001" x="71.858265" y="66.426277" style="fill: #f08fa1; stroke: #f08fa1; stroke-width: 0.5"/>
    </g>
    <g clip-path="url(#p503076d844)">
     <use xlink:href="#C0_0_03f43a5001" x="104.557438" y="65.019445" style="fill: #f08fa1; stroke: #f08fa1; stroke-width: 0.5"/>
    </g>
    <g clip-path="url(#p503076d844)">
     <use xlink:href="#C0_0_03f43a5001" x="123.967802" y="54.291099" style="fill: #f08fa1; stroke: #f08fa1; stroke-width: 0.5"/>
    </g>
    <g clip-path="url(#p503076d844)">
     <use xlink:href="#C0_0_03f43a5001" x="146.248391" y="53.803636" style="fill: #f08fa1; stroke: #f08fa1; stroke-width: 0.5"/>
    </g>
    <g clip-path="url(#p503076d844)">
     <use xlink:href="#C0_0_03f43a5001" x="133.162222" y="64.630245" style="fill: #f08fa1; stroke: #f08fa1; stroke-width: 0.5"/>
    </g>
    <g clip-path="url(#p503076d844)">
     <use xlink:href="#C0_0_03f43a5001" x="153.040737" y="66.259769" style="fill: #f08fa1; stroke: #f08fa1; stroke-width: 0.5"/>
    </g>
    <g clip-path="url(#p503076d844)">
     <use xlink:href="#C0_0_03f43a5001" x="86.851165" y="59.789602" style="fill: #f08fa1; stroke: #f08fa1; stroke-width: 0.5"/>
    </g>
    <g clip-path="url(#p503076d844)">
     <use xlink:href="#C0_0_03f43a5001" x="93.524511" y="73.101217" style="fill: #f08fa1; stroke: #f08fa1; stroke-width: 0.5"/>
    </g>
    <g clip-path="url(#p503076d844)">
     <use xlink:href="#C0_0_03f43a5001" x="110.813461" y="56.089098" style="fill: #f08fa1; stroke: #f08fa1; stroke-width: 0.5"/>
    </g>
    <g clip-path="url(#p503076d844)">
     <use xlink:href="#C0_0_03f43a5001" x="100.957391" y="83.71681" style="fill: #f08fa1; stroke: #f08fa1; stroke-width: 0.5"/>
    </g>
    <g clip-path="url(#p503076d844)">
     <use xlink:href="#C0_0_03f43a5001" x="90.346507" y="100.306798" style="fill: #f08fa1; stroke: #f08fa1; stroke-width: 0.5"/>
    </g>
    <g clip-path="url(#p503076d844)">
     <use xlink:href="#C0_0_03f43a5001" x="112.773919" y="92.046809" style="fill: #f08fa1; stroke: #f08fa1; stroke-width: 0.5"/>
    </g>
    <g clip-path="url(#p503076d844)">
     <use xlink:href="#C0_0_03f43a5001" x="141.068135" y="85.62061" style="fill: #f08fa1; stroke: #f08fa1; stroke-width: 0.5"/>
    </g>
    <g clip-path="url(#p503076d844)">
     <use xlink:href="#C0_0_03f43a5001" x="148.377972" y="96.132701" style="fill: #f08fa1; stroke: #f08fa1; stroke-width: 0.5"/>
    </g>
    <g clip-path="url(#p503076d844)">
     <use xlink:href="#C0_0_03f43a5001" x="159.028978" y="84.222798" style="fill: #f08fa1; stroke: #f08fa1; stroke-width: 0.5"/>
    </g>
    <g clip-path="url(#p503076d844)">
     <use xlink:href="#C0_0_03f43a5001" x="118.372179" y="81.271681" style="fill: #f08fa1; stroke: #f08fa1; stroke-width: 0.5"/>
    </g>
    <g clip-path="url(#p503076d844)">
     <use xlink:href="#C0_0_03f43a5001" x="107.887382" y="100.215075" style="fill: #f08fa1; stroke: #f08fa1; stroke-width: 0.5"/>
    </g>
    <g clip-path="url(#p503076d844)">
     <use xlink:href="#C0_0_03f43a5001" x="129.390161" y="97.205042" style="fill: #f08fa1; stroke: #f08fa1; stroke-width: 0.5"/>
    </g>
    <g clip-path="url(#p503076d844)">
     <use xlink:href="#C0_0_03f43a5001" x="62.632946" y="95.615264" style="fill: #f08fa1; stroke: #f08fa1; stroke-width: 0.5"/>
    </g>
    <g clip-path="url(#p503076d844)">
     <use xlink:href="#C0_0_03f43a5001" x="74.37153" y="106.682451" style="fill: #f08fa1; stroke: #f08fa1; stroke-width: 0.5"/>
    </g>
    <g clip-path="url(#p503076d844)">
     <use xlink:href="#C0_0_03f43a5001" x="80.699661" y="90.811438" style="fill: #f08fa1; stroke: #f08fa1; stroke-width: 0.5"/>
    </g>
    <g clip-path="url(#p503076d844)">
     <use xlink:href="#C0_0_03f43a5001" x="70.357232" y="116.781057" style="fill: #f08fa1; stroke: #f08fa1; stroke-width: 0.5"/>
    </g>
    <g clip-path="url(#p503076d844)">
     <use xlink:href="#C0_0_03f43a5001" x="71.896258" y="132.136195" style="fill: #f08fa1; stroke: #f08fa1; stroke-width: 0.5"/>
    </g>
    <g clip-path="url(#p503076d844)">
     <use xlink:href="#C0_0_03f43a5001" x="88.788384" y="129.689725" style="fill: #f08fa1; stroke: #f08fa1; stroke-width: 0.5"/>
    </g>
    <g clip-path="url(#p503076d844)">
     <use xlink:href="#C0_0_03f43a5001" x="108.337792" y="117.209547" style="fill: #f08fa1; stroke: #f08fa1; stroke-width: 0.5"/>
    </g>
    <g clip-path="url(#p503076d844)">
     <use xlink:href="#C0_0_03f43a5001" x="122.614872" y="130.75431" style="fill: #f08fa1; stroke: #f08fa1; stroke-width: 0.5"/>
    </g>
    <g clip-path="url(#p503076d844)">
     <use xlink:href="#C0_0_03f43a5001" x="134.367944" y="114.114418" style="fill: #f08fa1; stroke: #f08fa1; stroke-width: 0.5"/>
    </g>
    <g clip-path="url(#p503076d844)">
     <use xlink:href="#C0_0_03f43a5001" x="158.665491" y="106.153131" style="fill: #f08fa1; stroke: #f08fa1; stroke-width: 0.5"/>
    </g>
    <g clip-path="url(#p503076d844)">
     <use xlink:href="#C0_0_03f43a5001" x="145.201934" y="123.550096" style="fill: #f08fa1; stroke: #f08fa1; stroke-width: 0.5"/>
    </g>
    <g clip-path="url(#p503076d844)">
     <use xlink:href="#C0_0_03f43a5001" x="163.44126" y="120.364305" style="fill: #f08fa1; stroke: #f08fa1; stroke-width: 0.5"/>
    </g>
    <g clip-path="url(#p503076d844)">
     <use xlink:href="#C0_0_03f43a5001" x="98.354049" y="122.73578" style="fill: #f08fa1; stroke: #f08fa1; stroke-width: 0.5"/>
    </g>
    <g clip-path="url(#p503076d844)">
     <use xlink:href="#C0_0_03f43a5001" x="115.346319" y="137.076117" style="fill: #f08fa1; stroke: #f08fa1; stroke-width: 0.5"/>
    </g>
    <g clip-path="url(#p503076d844)">
     <use xlink:href="#C0_0_03f43a5001" x="122.638168" y="119.555149" style="fill: #f08fa1; stroke: #f08fa1; stroke-width: 0.5"/>
    </g>
    <g clip-path="url(#p503076d844)">
     <use xlink:href="#C0_0_03f43a5001" x="169.607874" y="237.076364" style="fill: #bfbfbf; stroke: #bfbfbf; stroke-width: 0.5"/>
    </g>
    <g clip-path="url(#p503076d844)">
     <use xlink:href="#C0_0_03f43a5001" x="209.391448" y="233.350919" style="fill: #bfbfbf; stroke: #bfbfbf; stroke-width: 0.5"/>
    </g>
    <g clip-path="url(#p503076d844)">
     <use xlink:href="#C0_0_03f43a5001" x="239.831405" y="212.803622" style="fill: #bfbfbf; stroke: #bfbfbf; stroke-width: 0.5"/>
    </g>
    <g clip-path="url(#p503076d844)">
     <use xlink:href="#C0_0_03f43a5001" x="238.174154" y="137.905964" style="fill: #bfbfbf; stroke: #bfbfbf; stroke-width: 0.5"/>
    </g>
    <g clip-path="url(#p503076d844)">
     <use xlink:href="#C0_0_03f43a5001" x="178.517106" y="176.703208" style="fill: #666666; stroke: #666666; stroke-width: 0.5"/>
    </g>
    <g clip-path="url(#p503076d844)">
     <use xlink:href="#C0_0_03f43a5001" x="193.450678" y="206.847166" style="fill: #666666; stroke: #666666; stroke-width: 0.5"/>
    </g>
    <g clip-path="url(#p503076d844)">
     <use xlink:href="#C0_0_03f43a5001" x="133.225437" y="167.445257" style="fill: #ff0d0d; stroke: #ff0d0d; stroke-width: 0.5"/>
    </g>
    <g clip-path="url(#p503076d844)">
     <use xlink:href="#C0_0_03f43a5001" x="193.590099" y="143.238037" style="fill: #ff0d0d; stroke: #ff0d0d; stroke-width: 0.5"/>
    </g>
   </g>
   <g id="text_1">
    <!-- C2H4Co48O2 -->
    <g transform="translate(132.713378 -10.306413) scale(0.1 -0.1)">
     <defs>
      <path id="DejaVuSans-43" d="M 4122 4306 
L 4122 3641 
Q 3803 3938 3442 4084 
Q 3081 4231 2675 4231 
Q 1875 4231 1450 3742 
Q 1025 3253 1025 2328 
Q 1025 1406 1450 917 
Q 1875 428 2675 428 
Q 3081 428 3442 575 
Q 3803 722 4122 1019 
L 4122 359 
Q 3791 134 3420 21 
Q 3050 -91 2638 -91 
Q 1578 -91 968 557 
Q 359 1206 359 2328 
Q 359 3453 968 4101 
Q 1578 4750 2638 4750 
Q 3056 4750 3426 4639 
Q 3797 4528 4122 4306 
z
" transform="scale(0.015625)"/>
      <path id="DejaVuSans-32" d="M 1228 531 
L 3431 531 
L 3431 0 
L 469 0 
L 469 531 
Q 828 903 1448 1529 
Q 2069 2156 2228 2338 
Q 2531 2678 2651 2914 
Q 2772 3150 2772 3378 
Q 2772 3750 2511 3984 
Q 2250 4219 1831 4219 
Q 1534 4219 1204 4116 
Q 875 4013 500 3803 
L 500 4441 
Q 881 4594 1212 4672 
Q 1544 4750 1819 4750 
Q 2544 4750 2975 4387 
Q 3406 4025 3406 3419 
Q 3406 3131 3298 2873 
Q 3191 2616 2906 2266 
Q 2828 2175 2409 1742 
Q 1991 1309 1228 531 
z
" transform="scale(0.015625)"/>
      <path id="DejaVuSans-48" d="M 628 4666 
L 1259 4666 
L 1259 2753 
L 3553 2753 
L 3553 4666 
L 4184 4666 
L 4184 0 
L 3553 0 
L 3553 2222 
L 1259 2222 
L 1259 0 
L 628 0 
L 628 4666 
z
" transform="scale(0.015625)"/>
      <path id="DejaVuSans-34" d="M 2419 4116 
L 825 1625 
L 2419 1625 
L 2419 4116 
z
M 2253 4666 
L 3047 4666 
L 3047 1625 
L 3713 1625 
L 3713 1100 
L 3047 1100 
L 3047 0 
L 2419 0 
L 2419 1100 
L 313 1100 
L 313 1709 
L 2253 4666 
z
" transform="scale(0.015625)"/>
      <path id="DejaVuSans-6f" d="M 1959 3097 
Q 1497 3097 1228 2736 
Q 959 2375 959 1747 
Q 959 1119 1226 758 
Q 1494 397 1959 397 
Q 2419 397 2687 759 
Q 2956 1122 2956 1747 
Q 2956 2369 2687 2733 
Q 2419 3097 1959 3097 
z
M 1959 3584 
Q 2709 3584 3137 3096 
Q 3566 2609 3566 1747 
Q 3566 888 3137 398 
Q 2709 -91 1959 -91 
Q 1206 -91 779 398 
Q 353 888 353 1747 
Q 353 2609 779 3096 
Q 1206 3584 1959 3584 
z
" transform="scale(0.015625)"/>
      <path id="DejaVuSans-38" d="M 2034 2216 
Q 1584 2216 1326 1975 
Q 1069 1734 1069 1313 
Q 1069 891 1326 650 
Q 1584 409 2034 409 
Q 2484 409 2743 651 
Q 3003 894 3003 1313 
Q 3003 1734 2745 1975 
Q 2488 2216 2034 2216 
z
M 1403 2484 
Q 997 2584 770 2862 
Q 544 3141 544 3541 
Q 544 4100 942 4425 
Q 1341 4750 2034 4750 
Q 2731 4750 3128 4425 
Q 3525 4100 3525 3541 
Q 3525 3141 3298 2862 
Q 3072 2584 2669 2484 
Q 3125 2378 3379 2068 
Q 3634 1759 3634 1313 
Q 3634 634 3220 271 
Q 2806 -91 2034 -91 
Q 1263 -91 848 271 
Q 434 634 434 1313 
Q 434 1759 690 2068 
Q 947 2378 1403 2484 
z
M 1172 3481 
Q 1172 3119 1398 2916 
Q 1625 2713 2034 2713 
Q 2441 2713 2670 2916 
Q 2900 3119 2900 3481 
Q 2900 3844 2670 4047 
Q 2441 4250 2034 4250 
Q 1625 4250 1398 4047 
Q 1172 3844 1172 3481 
z
" transform="scale(0.015625)"/>
      <path id="DejaVuSans-4f" d="M 2522 4238 
Q 1834 4238 1429 3725 
Q 1025 3213 1025 2328 
Q 1025 1447 1429 934 
Q 1834 422 2522 422 
Q 3209 422 3611 934 
Q 4013 1447 4013 2328 
Q 4013 3213 3611 3725 
Q 3209 4238 2522 4238 
z
M 2522 4750 
Q 3503 4750 4090 4092 
Q 4678 3434 4678 2328 
Q 4678 1225 4090 567 
Q 3503 -91 2522 -91 
Q 1538 -91 948 565 
Q 359 1222 359 2328 
Q 359 3434 948 4092 
Q 1538 4750 2522 4750 
z
" transform="scale(0.015625)"/>
     </defs>
     <use xlink:href="#DejaVuSans-43"/>
     <use xlink:href="#DejaVuSans-32" transform="translate(69.824219 0)"/>
     <use xlink:href="#DejaVuSans-48" transform="translate(133.447266 0)"/>
     <use xlink:href="#DejaVuSans-34" transform="translate(208.642578 0)"/>
     <use xlink:href="#DejaVuSans-43" transform="translate(272.265625 0)"/>
     <use xlink:href="#DejaVuSans-6f" transform="translate(342.089844 0)"/>
     <use xlink:href="#DejaVuSans-34" transform="translate(403.271484 0)"/>
     <use xlink:href="#DejaVuSans-38" transform="translate(466.894531 0)"/>
     <use xlink:href="#DejaVuSans-4f" transform="translate(530.517578 0)"/>
     <use xlink:href="#DejaVuSans-32" transform="translate(609.228516 0)"/>
    </g>
    <!-- Error: -6.94 eV -->
    <g transform="translate(132.713378 0.8914) scale(0.1 -0.1)">
     <defs>
      <path id="DejaVuSans-45" d="M 628 4666 
L 3578 4666 
L 3578 4134 
L 1259 4134 
L 1259 2753 
L 3481 2753 
L 3481 2222 
L 1259 2222 
L 1259 531 
L 3634 531 
L 3634 0 
L 628 0 
L 628 4666 
z
" transform="scale(0.015625)"/>
      <path id="DejaVuSans-72" d="M 2631 2963 
Q 2534 3019 2420 3045 
Q 2306 3072 2169 3072 
Q 1681 3072 1420 2755 
Q 1159 2438 1159 1844 
L 1159 0 
L 581 0 
L 581 3500 
L 1159 3500 
L 1159 2956 
Q 1341 3275 1631 3429 
Q 1922 3584 2338 3584 
Q 2397 3584 2469 3576 
Q 2541 3569 2628 3553 
L 2631 2963 
z
" transform="scale(0.015625)"/>
      <path id="DejaVuSans-3a" d="M 750 794 
L 1409 794 
L 1409 0 
L 750 0 
L 750 794 
z
M 750 3309 
L 1409 3309 
L 1409 2516 
L 750 2516 
L 750 3309 
z
" transform="scale(0.015625)"/>
      <path id="DejaVuSans-20" transform="scale(0.015625)"/>
      <path id="DejaVuSans-2d" d="M 313 2009 
L 1997 2009 
L 1997 1497 
L 313 1497 
L 313 2009 
z
" transform="scale(0.015625)"/>
      <path id="DejaVuSans-36" d="M 2113 2584 
Q 1688 2584 1439 2293 
Q 1191 2003 1191 1497 
Q 1191 994 1439 701 
Q 1688 409 2113 409 
Q 2538 409 2786 701 
Q 3034 994 3034 1497 
Q 3034 2003 2786 2293 
Q 2538 2584 2113 2584 
z
M 3366 4563 
L 3366 3988 
Q 3128 4100 2886 4159 
Q 2644 4219 2406 4219 
Q 1781 4219 1451 3797 
Q 1122 3375 1075 2522 
Q 1259 2794 1537 2939 
Q 1816 3084 2150 3084 
Q 2853 3084 3261 2657 
Q 3669 2231 3669 1497 
Q 3669 778 3244 343 
Q 2819 -91 2113 -91 
Q 1303 -91 875 529 
Q 447 1150 447 2328 
Q 447 3434 972 4092 
Q 1497 4750 2381 4750 
Q 2619 4750 2861 4703 
Q 3103 4656 3366 4563 
z
" transform="scale(0.015625)"/>
      <path id="DejaVuSans-2e" d="M 684 794 
L 1344 794 
L 1344 0 
L 684 0 
L 684 794 
z
" transform="scale(0.015625)"/>
      <path id="DejaVuSans-39" d="M 703 97 
L 703 672 
Q 941 559 1184 500 
Q 1428 441 1663 441 
Q 2288 441 2617 861 
Q 2947 1281 2994 2138 
Q 2813 1869 2534 1725 
Q 2256 1581 1919 1581 
Q 1219 1581 811 2004 
Q 403 2428 403 3163 
Q 403 3881 828 4315 
Q 1253 4750 1959 4750 
Q 2769 4750 3195 4129 
Q 3622 3509 3622 2328 
Q 3622 1225 3098 567 
Q 2575 -91 1691 -91 
Q 1453 -91 1209 -44 
Q 966 3 703 97 
z
M 1959 2075 
Q 2384 2075 2632 2365 
Q 2881 2656 2881 3163 
Q 2881 3666 2632 3958 
Q 2384 4250 1959 4250 
Q 1534 4250 1286 3958 
Q 1038 3666 1038 3163 
Q 1038 2656 1286 2365 
Q 1534 2075 1959 2075 
z
" transform="scale(0.015625)"/>
      <path id="DejaVuSans-65" d="M 3597 1894 
L 3597 1613 
L 953 1613 
Q 991 1019 1311 708 
Q 1631 397 2203 397 
Q 2534 397 2845 478 
Q 3156 559 3463 722 
L 3463 178 
Q 3153 47 2828 -22 
Q 2503 -91 2169 -91 
Q 1331 -91 842 396 
Q 353 884 353 1716 
Q 353 2575 817 3079 
Q 1281 3584 2069 3584 
Q 2775 3584 3186 3129 
Q 3597 2675 3597 1894 
z
M 3022 2063 
Q 3016 2534 2758 2815 
Q 2500 3097 2075 3097 
Q 1594 3097 1305 2825 
Q 1016 2553 972 2059 
L 3022 2063 
z
" transform="scale(0.015625)"/>
      <path id="DejaVuSans-56" d="M 1831 0 
L 50 4666 
L 709 4666 
L 2188 738 
L 3669 4666 
L 4325 4666 
L 2547 0 
L 1831 0 
z
" transform="scale(0.015625)"/>
     </defs>
     <use xlink:href="#DejaVuSans-45"/>
     <use xlink:href="#DejaVuSans-72" transform="translate(63.183594 0)"/>
     <use xlink:href="#DejaVuSans-72" transform="translate(102.546875 0)"/>
     <use xlink:href="#DejaVuSans-6f" transform="translate(141.410156 0)"/>
     <use xlink:href="#DejaVuSans-72" transform="translate(202.591797 0)"/>
     <use xlink:href="#DejaVuSans-3a" transform="translate(241.955078 0)"/>
     <use xlink:href="#DejaVuSans-20" transform="translate(275.646484 0)"/>
     <use xlink:href="#DejaVuSans-2d" transform="translate(307.433594 0)"/>
     <use xlink:href="#DejaVuSans-36" transform="translate(343.517578 0)"/>
     <use xlink:href="#DejaVuSans-2e" transform="translate(407.140625 0)"/>
     <use xlink:href="#DejaVuSans-39" transform="translate(438.927734 0)"/>
     <use xlink:href="#DejaVuSans-34" transform="translate(502.550781 0)"/>
     <use xlink:href="#DejaVuSans-20" transform="translate(566.173828 0)"/>
     <use xlink:href="#DejaVuSans-65" transform="translate(597.960938 0)"/>
     <use xlink:href="#DejaVuSans-56" transform="translate(659.484375 0)"/>
    </g>
   </g>
  </g>
 </g>
 <defs>
  <clipPath id="p503076d844">
   <rect x="36" y="34.56" width="223.2" height="221.76"/>
  </clipPath>
 </defs>
</svg>
