<?xml version="1.0" encoding="utf-8" standalone="no"?>
<!DOCTYPE svg PUBLIC "-//W3C//DTD SVG 1.1//EN"
  "http://www.w3.org/Graphics/SVG/1.1/DTD/svg11.dtd">
<svg xmlns:xlink="http://www.w3.org/1999/xlink" width="288pt" height="288pt" viewBox="0 0 288 288" xmlns="http://www.w3.org/2000/svg" version="1.1">
 <metadata>
  <rdf:RDF xmlns:dc="http://purl.org/dc/elements/1.1/" xmlns:cc="http://creativecommons.org/ns#" xmlns:rdf="http://www.w3.org/1999/02/22-rdf-syntax-ns#">
   <cc:Work>
    <dc:type rdf:resource="http://purl.org/dc/dcmitype/StillImage"/>
    <dc:date>2025-06-30T12:10:39.343519</dc:date>
    <dc:format>image/svg+xml</dc:format>
    <dc:creator>
     <cc:Agent>
      <dc:title>Matplotlib v3.10.1, https://matplotlib.org/</dc:title>
     </cc:Agent>
    </dc:creator>
   </cc:Work>
  </rdf:RDF>
 </metadata>
 <defs>
  <style type="text/css">*{stroke-linejoin: round; stroke-linecap: butt}</style>
 </defs>
 <g id="figure_1">
  <g id="patch_1">
   <path d="M 0 288 
L 288 288 
L 288 0 
L 0 0 
z
" style="fill: #ffffff"/>
  </g>
  <g id="axes_1">
   <g id="LineCollection_1">
    <path d="M 123.1576 53.803636 
L 147.781999 67.04666 
" clip-path="url(#pec79718696)" style="fill: none; stroke: #000000; stroke-width: 1.2"/>
    <path d="M 123.1576 53.803636 
L 132.283375 70.775302 
" clip-path="url(#pec79718696)" style="fill: none; stroke: #000000; stroke-width: 1.2"/>
    <path d="M 123.1576 53.803636 
L 93.268336 61.073605 
" clip-path="url(#pec79718696)" style="fill: none; stroke: #000000; stroke-width: 1.2"/>
    <path d="M 123.1576 53.803636 
L 160.212388 68.981884 
" clip-path="url(#pec79718696)" style="fill: none; stroke: #000000; stroke-width: 1.2"/>
    <path d="M 123.1576 53.803636 
L 106.453436 64.059865 
" clip-path="url(#pec79718696)" style="fill: none; stroke: #000000; stroke-width: 1.2"/>
    <path d="M 123.1576 53.803636 
L 81.307471 65.510708 
" clip-path="url(#pec79718696)" style="fill: none; stroke: #000000; stroke-width: 1.2"/>
    <path d="M 123.1576 53.803636 
L 111.601709 87.517391 
" clip-path="url(#pec79718696)" style="fill: none; stroke: #000000; stroke-width: 1.2"/>
    <path d="M 123.1576 53.803636 
L 87.080387 95.176068 
" clip-path="url(#pec79718696)" style="fill: none; stroke: #000000; stroke-width: 1.2"/>
    <path d="M 123.1576 53.803636 
L 141.116718 94.813092 
" clip-path="url(#pec79718696)" style="fill: none; stroke: #000000; stroke-width: 1.2"/>
    <path d="M 147.781999 67.04666 
L 173.898343 83.596113 
" clip-path="url(#pec79718696)" style="fill: none; stroke: #000000; stroke-width: 1.2"/>
    <path d="M 147.781999 67.04666 
L 96.635629 78.781019 
" clip-path="url(#pec79718696)" style="fill: none; stroke: #000000; stroke-width: 1.2"/>
    <path d="M 147.781999 67.04666 
L 93.268336 61.073605 
" clip-path="url(#pec79718696)" style="fill: none; stroke: #000000; stroke-width: 1.2"/>
    <path d="M 147.781999 67.04666 
L 120.76418 67.107735 
" clip-path="url(#pec79718696)" style="fill: none; stroke: #000000; stroke-width: 1.2"/>
    <path d="M 147.781999 67.04666 
L 106.453436 64.059865 
" clip-path="url(#pec79718696)" style="fill: none; stroke: #000000; stroke-width: 1.2"/>
    <path d="M 147.781999 67.04666 
L 111.601709 87.517391 
" clip-path="url(#pec79718696)" style="fill: none; stroke: #000000; stroke-width: 1.2"/>
    <path d="M 147.781999 67.04666 
L 105.607609 104.415393 
" clip-path="url(#pec79718696)" style="fill: none; stroke: #000000; stroke-width: 1.2"/>
    <path d="M 147.781999 67.04666 
L 151.71402 104.085105 
" clip-path="url(#pec79718696)" style="fill: none; stroke: #000000; stroke-width: 1.2"/>
    <path d="M 173.898343 83.596113 
L 96.635629 78.781019 
" clip-path="url(#pec79718696)" style="fill: none; stroke: #000000; stroke-width: 1.2"/>
    <path d="M 173.898343 83.596113 
L 132.283375 70.775302 
" clip-path="url(#pec79718696)" style="fill: none; stroke: #000000; stroke-width: 1.2"/>
    <path d="M 173.898343 83.596113 
L 120.76418 67.107735 
" clip-path="url(#pec79718696)" style="fill: none; stroke: #000000; stroke-width: 1.2"/>
    <path d="M 173.898343 83.596113 
L 160.212388 68.981884 
" clip-path="url(#pec79718696)" style="fill: none; stroke: #000000; stroke-width: 1.2"/>
    <path d="M 173.898343 83.596113 
L 142.396149 79.567724 
" clip-path="url(#pec79718696)" style="fill: none; stroke: #000000; stroke-width: 1.2"/>
    <path d="M 173.898343 83.596113 
L 151.71402 104.085105 
" clip-path="url(#pec79718696)" style="fill: none; stroke: #000000; stroke-width: 1.2"/>
    <path d="M 173.898343 83.596113 
L 134.522286 114.767059 
" clip-path="url(#pec79718696)" style="fill: none; stroke: #000000; stroke-width: 1.2"/>
    <path d="M 173.898343 83.596113 
L 167.578404 108.450802 
" clip-path="url(#pec79718696)" style="fill: none; stroke: #000000; stroke-width: 1.2"/>
    <path d="M 96.635629 78.781019 
L 132.283375 70.775302 
" clip-path="url(#pec79718696)" style="fill: none; stroke: #000000; stroke-width: 1.2"/>
    <path d="M 96.635629 78.781019 
L 106.453436 64.059865 
" clip-path="url(#pec79718696)" style="fill: none; stroke: #000000; stroke-width: 1.2"/>
    <path d="M 96.635629 78.781019 
L 62.283007 74.517295 
" clip-path="url(#pec79718696)" style="fill: none; stroke: #000000; stroke-width: 1.2"/>
    <path d="M 96.635629 78.781019 
L 81.307471 65.510708 
" clip-path="url(#pec79718696)" style="fill: none; stroke: #000000; stroke-width: 1.2"/>
    <path d="M 96.635629 78.781019 
L 105.607609 104.415393 
" clip-path="url(#pec79718696)" style="fill: none; stroke: #000000; stroke-width: 1.2"/>
    <path d="M 96.635629 78.781019 
L 134.522286 114.767059 
" clip-path="url(#pec79718696)" style="fill: none; stroke: #000000; stroke-width: 1.2"/>
    <path d="M 96.635629 78.781019 
L 60.779911 104.489451 
" clip-path="url(#pec79718696)" style="fill: none; stroke: #000000; stroke-width: 1.2"/>
    <path d="M 132.283375 70.775302 
L 93.268336 61.073605 
" clip-path="url(#pec79718696)" style="fill: none; stroke: #000000; stroke-width: 1.2"/>
    <path d="M 132.283375 70.775302 
L 142.396149 79.567724 
" clip-path="url(#pec79718696)" style="fill: none; stroke: #000000; stroke-width: 1.2"/>
    <path d="M 132.283375 70.775302 
L 81.307471 65.510708 
" clip-path="url(#pec79718696)" style="fill: none; stroke: #000000; stroke-width: 1.2"/>
    <path d="M 132.283375 70.775302 
L 134.522286 114.767059 
" clip-path="url(#pec79718696)" style="fill: none; stroke: #000000; stroke-width: 1.2"/>
    <path d="M 132.283375 70.775302 
L 87.080387 95.176068 
" clip-path="url(#pec79718696)" style="fill: none; stroke: #000000; stroke-width: 1.2"/>
    <path d="M 132.283375 70.775302 
L 123.466396 104.333916 
" clip-path="url(#pec79718696)" style="fill: none; stroke: #000000; stroke-width: 1.2"/>
    <path d="M 93.268336 61.073605 
L 120.76418 67.107735 
" clip-path="url(#pec79718696)" style="fill: none; stroke: #000000; stroke-width: 1.2"/>
    <path d="M 93.268336 61.073605 
L 142.396149 79.567724 
" clip-path="url(#pec79718696)" style="fill: none; stroke: #000000; stroke-width: 1.2"/>
    <path d="M 93.268336 61.073605 
L 62.283007 74.517295 
" clip-path="url(#pec79718696)" style="fill: none; stroke: #000000; stroke-width: 1.2"/>
    <path d="M 93.268336 61.073605 
L 111.601709 87.517391 
" clip-path="url(#pec79718696)" style="fill: none; stroke: #000000; stroke-width: 1.2"/>
    <path d="M 93.268336 61.073605 
L 123.466396 104.333916 
" clip-path="url(#pec79718696)" style="fill: none; stroke: #000000; stroke-width: 1.2"/>
    <path d="M 93.268336 61.073605 
L 73.592585 94.949789 
" clip-path="url(#pec79718696)" style="fill: none; stroke: #000000; stroke-width: 1.2"/>
    <path d="M 120.76418 67.107735 
L 160.212388 68.981884 
" clip-path="url(#pec79718696)" style="fill: none; stroke: #000000; stroke-width: 1.2"/>
    <path d="M 120.76418 67.107735 
L 62.283007 74.517295 
" clip-path="url(#pec79718696)" style="fill: none; stroke: #000000; stroke-width: 1.2"/>
    <path d="M 120.76418 67.107735 
L 81.307471 65.510708 
" clip-path="url(#pec79718696)" style="fill: none; stroke: #000000; stroke-width: 1.2"/>
    <path d="M 120.76418 67.107735 
L 151.71402 104.085105 
" clip-path="url(#pec79718696)" style="fill: none; stroke: #000000; stroke-width: 1.2"/>
    <path d="M 120.76418 67.107735 
L 116.473165 98.317209 
" clip-path="url(#pec79718696)" style="fill: none; stroke: #000000; stroke-width: 1.2"/>
    <path d="M 120.76418 67.107735 
L 73.592585 94.949789 
" clip-path="url(#pec79718696)" style="fill: none; stroke: #000000; stroke-width: 1.2"/>
    <path d="M 160.212388 68.981884 
L 106.453436 64.059865 
" clip-path="url(#pec79718696)" style="fill: none; stroke: #000000; stroke-width: 1.2"/>
    <path d="M 160.212388 68.981884 
L 142.396149 79.567724 
" clip-path="url(#pec79718696)" style="fill: none; stroke: #000000; stroke-width: 1.2"/>
    <path d="M 160.212388 68.981884 
L 81.307471 65.510708 
" clip-path="url(#pec79718696)" style="fill: none; stroke: #000000; stroke-width: 1.2"/>
    <path d="M 160.212388 68.981884 
L 116.473165 98.317209 
" clip-path="url(#pec79718696)" style="fill: none; stroke: #000000; stroke-width: 1.2"/>
    <path d="M 160.212388 68.981884 
L 167.578404 108.450802 
" clip-path="url(#pec79718696)" style="fill: none; stroke: #000000; stroke-width: 1.2"/>
    <path d="M 160.212388 68.981884 
L 141.116718 94.813092 
" clip-path="url(#pec79718696)" style="fill: none; stroke: #000000; stroke-width: 1.2"/>
    <path d="M 106.453436 64.059865 
L 142.396149 79.567724 
" clip-path="url(#pec79718696)" style="fill: none; stroke: #000000; stroke-width: 1.2"/>
    <path d="M 106.453436 64.059865 
L 62.283007 74.517295 
" clip-path="url(#pec79718696)" style="fill: none; stroke: #000000; stroke-width: 1.2"/>
    <path d="M 106.453436 64.059865 
L 105.607609 104.415393 
" clip-path="url(#pec79718696)" style="fill: none; stroke: #000000; stroke-width: 1.2"/>
    <path d="M 106.453436 64.059865 
L 141.116718 94.813092 
" clip-path="url(#pec79718696)" style="fill: none; stroke: #000000; stroke-width: 1.2"/>
    <path d="M 106.453436 64.059865 
L 90.607637 105.674421 
" clip-path="url(#pec79718696)" style="fill: none; stroke: #000000; stroke-width: 1.2"/>
    <path d="M 142.396149 79.567724 
L 62.283007 74.517295 
" clip-path="url(#pec79718696)" style="fill: none; stroke: #000000; stroke-width: 1.2"/>
    <path d="M 142.396149 79.567724 
L 123.466396 104.333916 
" clip-path="url(#pec79718696)" style="fill: none; stroke: #000000; stroke-width: 1.2"/>
    <path d="M 142.396149 79.567724 
L 167.578404 108.450802 
" clip-path="url(#pec79718696)" style="fill: none; stroke: #000000; stroke-width: 1.2"/>
    <path d="M 142.396149 79.567724 
L 90.607637 105.674421 
" clip-path="url(#pec79718696)" style="fill: none; stroke: #000000; stroke-width: 1.2"/>
    <path d="M 62.283007 74.517295 
L 81.307471 65.510708 
" clip-path="url(#pec79718696)" style="fill: none; stroke: #000000; stroke-width: 1.2"/>
    <path d="M 62.283007 74.517295 
L 90.607637 105.674421 
" clip-path="url(#pec79718696)" style="fill: none; stroke: #000000; stroke-width: 1.2"/>
    <path d="M 62.283007 74.517295 
L 73.592585 94.949789 
" clip-path="url(#pec79718696)" style="fill: none; stroke: #000000; stroke-width: 1.2"/>
    <path d="M 62.283007 74.517295 
L 60.779911 104.489451 
" clip-path="url(#pec79718696)" style="fill: none; stroke: #000000; stroke-width: 1.2"/>
    <path d="M 81.307471 65.510708 
L 87.080387 95.176068 
" clip-path="url(#pec79718696)" style="fill: none; stroke: #000000; stroke-width: 1.2"/>
    <path d="M 81.307471 65.510708 
L 116.473165 98.317209 
" clip-path="url(#pec79718696)" style="fill: none; stroke: #000000; stroke-width: 1.2"/>
    <path d="M 81.307471 65.510708 
L 60.779911 104.489451 
" clip-path="url(#pec79718696)" style="fill: none; stroke: #000000; stroke-width: 1.2"/>
    <path d="M 111.601709 87.517391 
L 105.607609 104.415393 
" clip-path="url(#pec79718696)" style="fill: none; stroke: #000000; stroke-width: 1.2"/>
    <path d="M 111.601709 87.517391 
L 151.71402 104.085105 
" clip-path="url(#pec79718696)" style="fill: none; stroke: #000000; stroke-width: 1.2"/>
    <path d="M 111.601709 87.517391 
L 87.080387 95.176068 
" clip-path="url(#pec79718696)" style="fill: none; stroke: #000000; stroke-width: 1.2"/>
    <path d="M 111.601709 87.517391 
L 123.466396 104.333916 
" clip-path="url(#pec79718696)" style="fill: none; stroke: #000000; stroke-width: 1.2"/>
    <path d="M 111.601709 87.517391 
L 141.116718 94.813092 
" clip-path="url(#pec79718696)" style="fill: none; stroke: #000000; stroke-width: 1.2"/>
    <path d="M 111.601709 87.517391 
L 73.592585 94.949789 
" clip-path="url(#pec79718696)" style="fill: none; stroke: #000000; stroke-width: 1.2"/>
    <path d="M 111.601709 87.517391 
L 107.470239 121.287222 
" clip-path="url(#pec79718696)" style="fill: none; stroke: #000000; stroke-width: 1.2"/>
    <path d="M 111.601709 87.517391 
L 133.528333 130.938105 
" clip-path="url(#pec79718696)" style="fill: none; stroke: #000000; stroke-width: 1.2"/>
    <path d="M 111.601709 87.517391 
L 78.019156 123.351926 
" clip-path="url(#pec79718696)" style="fill: none; stroke: #000000; stroke-width: 1.2"/>
    <path d="M 105.607609 104.415393 
L 151.71402 104.085105 
" clip-path="url(#pec79718696)" style="fill: none; stroke: #000000; stroke-width: 1.2"/>
    <path d="M 105.607609 104.415393 
L 134.522286 114.767059 
" clip-path="url(#pec79718696)" style="fill: none; stroke: #000000; stroke-width: 1.2"/>
    <path d="M 105.607609 104.415393 
L 141.116718 94.813092 
" clip-path="url(#pec79718696)" style="fill: none; stroke: #000000; stroke-width: 1.2"/>
    <path d="M 105.607609 104.415393 
L 90.607637 105.674421 
" clip-path="url(#pec79718696)" style="fill: none; stroke: #000000; stroke-width: 1.2"/>
    <path d="M 105.607609 104.415393 
L 60.779911 104.489451 
" clip-path="url(#pec79718696)" style="fill: none; stroke: #000000; stroke-width: 1.2"/>
    <path d="M 105.607609 104.415393 
L 133.528333 130.938105 
" clip-path="url(#pec79718696)" style="fill: none; stroke: #000000; stroke-width: 1.2"/>
    <path d="M 105.607609 104.415393 
L 90.479187 145.794351 
" clip-path="url(#pec79718696)" style="fill: none; stroke: #000000; stroke-width: 1.2"/>
    <path d="M 105.607609 104.415393 
L 92.982299 133.507615 
" clip-path="url(#pec79718696)" style="fill: none; stroke: #000000; stroke-width: 1.2"/>
    <path d="M 151.71402 104.085105 
L 134.522286 114.767059 
" clip-path="url(#pec79718696)" style="fill: none; stroke: #000000; stroke-width: 1.2"/>
    <path d="M 151.71402 104.085105 
L 116.473165 98.317209 
" clip-path="url(#pec79718696)" style="fill: none; stroke: #000000; stroke-width: 1.2"/>
    <path d="M 151.71402 104.085105 
L 167.578404 108.450802 
" clip-path="url(#pec79718696)" style="fill: none; stroke: #000000; stroke-width: 1.2"/>
    <path d="M 151.71402 104.085105 
L 73.592585 94.949789 
" clip-path="url(#pec79718696)" style="fill: none; stroke: #000000; stroke-width: 1.2"/>
    <path d="M 151.71402 104.085105 
L 133.528333 130.938105 
" clip-path="url(#pec79718696)" style="fill: none; stroke: #000000; stroke-width: 1.2"/>
    <path d="M 151.71402 104.085105 
L 156.096558 142.777624 
" clip-path="url(#pec79718696)" style="fill: none; stroke: #000000; stroke-width: 1.2"/>
    <path d="M 151.71402 104.085105 
L 108.91678 134.889947 
" clip-path="url(#pec79718696)" style="fill: none; stroke: #000000; stroke-width: 1.2"/>
    <path d="M 134.522286 114.767059 
L 87.080387 95.176068 
" clip-path="url(#pec79718696)" style="fill: none; stroke: #000000; stroke-width: 1.2"/>
    <path d="M 134.522286 114.767059 
L 123.466396 104.333916 
" clip-path="url(#pec79718696)" style="fill: none; stroke: #000000; stroke-width: 1.2"/>
    <path d="M 134.522286 114.767059 
L 167.578404 108.450802 
" clip-path="url(#pec79718696)" style="fill: none; stroke: #000000; stroke-width: 1.2"/>
    <path d="M 134.522286 114.767059 
L 60.779911 104.489451 
" clip-path="url(#pec79718696)" style="fill: none; stroke: #000000; stroke-width: 1.2"/>
    <path d="M 134.522286 114.767059 
L 156.096558 142.777624 
" clip-path="url(#pec79718696)" style="fill: none; stroke: #000000; stroke-width: 1.2"/>
    <path d="M 134.522286 114.767059 
L 90.479187 145.794351 
" clip-path="url(#pec79718696)" style="fill: none; stroke: #000000; stroke-width: 1.2"/>
    <path d="M 134.522286 114.767059 
L 109.730785 144.37047 
" clip-path="url(#pec79718696)" style="fill: none; stroke: #000000; stroke-width: 1.2"/>
    <path d="M 87.080387 95.176068 
L 123.466396 104.333916 
" clip-path="url(#pec79718696)" style="fill: none; stroke: #000000; stroke-width: 1.2"/>
    <path d="M 87.080387 95.176068 
L 116.473165 98.317209 
" clip-path="url(#pec79718696)" style="fill: none; stroke: #000000; stroke-width: 1.2"/>
    <path d="M 87.080387 95.176068 
L 141.116718 94.813092 
" clip-path="url(#pec79718696)" style="fill: none; stroke: #000000; stroke-width: 1.2"/>
    <path d="M 87.080387 95.176068 
L 60.779911 104.489451 
" clip-path="url(#pec79718696)" style="fill: none; stroke: #000000; stroke-width: 1.2"/>
    <path d="M 87.080387 95.176068 
L 107.470239 121.287222 
" clip-path="url(#pec79718696)" style="fill: none; stroke: #000000; stroke-width: 1.2"/>
    <path d="M 87.080387 95.176068 
L 109.730785 144.37047 
" clip-path="url(#pec79718696)" style="fill: none; stroke: #000000; stroke-width: 1.2"/>
    <path d="M 87.080387 95.176068 
L 73.380476 130.925811 
" clip-path="url(#pec79718696)" style="fill: none; stroke: #000000; stroke-width: 1.2"/>
    <path d="M 123.466396 104.333916 
L 167.578404 108.450802 
" clip-path="url(#pec79718696)" style="fill: none; stroke: #000000; stroke-width: 1.2"/>
    <path d="M 123.466396 104.333916 
L 90.607637 105.674421 
" clip-path="url(#pec79718696)" style="fill: none; stroke: #000000; stroke-width: 1.2"/>
    <path d="M 123.466396 104.333916 
L 73.592585 94.949789 
" clip-path="url(#pec79718696)" style="fill: none; stroke: #000000; stroke-width: 1.2"/>
    <path d="M 123.466396 104.333916 
L 109.730785 144.37047 
" clip-path="url(#pec79718696)" style="fill: none; stroke: #000000; stroke-width: 1.2"/>
    <path d="M 123.466396 104.333916 
L 78.019156 123.351926 
" clip-path="url(#pec79718696)" style="fill: none; stroke: #000000; stroke-width: 1.2"/>
    <path d="M 123.466396 104.333916 
L 129.636357 140.118808 
" clip-path="url(#pec79718696)" style="fill: none; stroke: #000000; stroke-width: 1.2"/>
    <path d="M 116.473165 98.317209 
L 167.578404 108.450802 
" clip-path="url(#pec79718696)" style="fill: none; stroke: #000000; stroke-width: 1.2"/>
    <path d="M 116.473165 98.317209 
L 141.116718 94.813092 
" clip-path="url(#pec79718696)" style="fill: none; stroke: #000000; stroke-width: 1.2"/>
    <path d="M 116.473165 98.317209 
L 73.592585 94.949789 
" clip-path="url(#pec79718696)" style="fill: none; stroke: #000000; stroke-width: 1.2"/>
    <path d="M 116.473165 98.317209 
L 60.779911 104.489451 
" clip-path="url(#pec79718696)" style="fill: none; stroke: #000000; stroke-width: 1.2"/>
    <path d="M 116.473165 98.317209 
L 108.91678 134.889947 
" clip-path="url(#pec79718696)" style="fill: none; stroke: #000000; stroke-width: 1.2"/>
    <path d="M 116.473165 98.317209 
L 152.091484 127.752201 
" clip-path="url(#pec79718696)" style="fill: none; stroke: #000000; stroke-width: 1.2"/>
    <path d="M 116.473165 98.317209 
L 73.380476 130.925811 
" clip-path="url(#pec79718696)" style="fill: none; stroke: #000000; stroke-width: 1.2"/>
    <path d="M 167.578404 108.450802 
L 141.116718 94.813092 
" clip-path="url(#pec79718696)" style="fill: none; stroke: #000000; stroke-width: 1.2"/>
    <path d="M 167.578404 108.450802 
L 90.607637 105.674421 
" clip-path="url(#pec79718696)" style="fill: none; stroke: #000000; stroke-width: 1.2"/>
    <path d="M 167.578404 108.450802 
L 156.096558 142.777624 
" clip-path="url(#pec79718696)" style="fill: none; stroke: #000000; stroke-width: 1.2"/>
    <path d="M 167.578404 108.450802 
L 152.091484 127.752201 
" clip-path="url(#pec79718696)" style="fill: none; stroke: #000000; stroke-width: 1.2"/>
    <path d="M 167.578404 108.450802 
L 129.636357 140.118808 
" clip-path="url(#pec79718696)" style="fill: none; stroke: #000000; stroke-width: 1.2"/>
    <path d="M 141.116718 94.813092 
L 90.607637 105.674421 
" clip-path="url(#pec79718696)" style="fill: none; stroke: #000000; stroke-width: 1.2"/>
    <path d="M 141.116718 94.813092 
L 107.470239 121.287222 
" clip-path="url(#pec79718696)" style="fill: none; stroke: #000000; stroke-width: 1.2"/>
    <path d="M 141.116718 94.813092 
L 152.091484 127.752201 
" clip-path="url(#pec79718696)" style="fill: none; stroke: #000000; stroke-width: 1.2"/>
    <path d="M 141.116718 94.813092 
L 92.982299 133.507615 
" clip-path="url(#pec79718696)" style="fill: none; stroke: #000000; stroke-width: 1.2"/>
    <path d="M 90.607637 105.674421 
L 73.592585 94.949789 
" clip-path="url(#pec79718696)" style="fill: none; stroke: #000000; stroke-width: 1.2"/>
    <path d="M 90.607637 105.674421 
L 60.779911 104.489451 
" clip-path="url(#pec79718696)" style="fill: none; stroke: #000000; stroke-width: 1.2"/>
    <path d="M 90.607637 105.674421 
L 92.982299 133.507615 
" clip-path="url(#pec79718696)" style="fill: none; stroke: #000000; stroke-width: 1.2"/>
    <path d="M 90.607637 105.674421 
L 129.636357 140.118808 
" clip-path="url(#pec79718696)" style="fill: none; stroke: #000000; stroke-width: 1.2"/>
    <path d="M 90.607637 105.674421 
L 55.368595 129.123026 
" clip-path="url(#pec79718696)" style="fill: none; stroke: #000000; stroke-width: 1.2"/>
    <path d="M 73.592585 94.949789 
L 60.779911 104.489451 
" clip-path="url(#pec79718696)" style="fill: none; stroke: #000000; stroke-width: 1.2"/>
    <path d="M 73.592585 94.949789 
L 78.019156 123.351926 
" clip-path="url(#pec79718696)" style="fill: none; stroke: #000000; stroke-width: 1.2"/>
    <path d="M 73.592585 94.949789 
L 108.91678 134.889947 
" clip-path="url(#pec79718696)" style="fill: none; stroke: #000000; stroke-width: 1.2"/>
    <path d="M 73.592585 94.949789 
L 55.368595 129.123026 
" clip-path="url(#pec79718696)" style="fill: none; stroke: #000000; stroke-width: 1.2"/>
    <path d="M 60.779911 104.489451 
L 90.479187 145.794351 
" clip-path="url(#pec79718696)" style="fill: none; stroke: #000000; stroke-width: 1.2"/>
    <path d="M 60.779911 104.489451 
L 55.368595 129.123026 
" clip-path="url(#pec79718696)" style="fill: none; stroke: #000000; stroke-width: 1.2"/>
    <path d="M 60.779911 104.489451 
L 73.380476 130.925811 
" clip-path="url(#pec79718696)" style="fill: none; stroke: #000000; stroke-width: 1.2"/>
    <path d="M 107.470239 121.287222 
L 133.528333 130.938105 
" clip-path="url(#pec79718696)" style="fill: none; stroke: #000000; stroke-width: 1.2"/>
    <path d="M 107.470239 121.287222 
L 109.730785 144.37047 
" clip-path="url(#pec79718696)" style="fill: none; stroke: #000000; stroke-width: 1.2"/>
    <path d="M 107.470239 121.287222 
L 78.019156 123.351926 
" clip-path="url(#pec79718696)" style="fill: none; stroke: #000000; stroke-width: 1.2"/>
    <path d="M 107.470239 121.287222 
L 152.091484 127.752201 
" clip-path="url(#pec79718696)" style="fill: none; stroke: #000000; stroke-width: 1.2"/>
    <path d="M 107.470239 121.287222 
L 92.982299 133.507615 
" clip-path="url(#pec79718696)" style="fill: none; stroke: #000000; stroke-width: 1.2"/>
    <path d="M 107.470239 121.287222 
L 73.380476 130.925811 
" clip-path="url(#pec79718696)" style="fill: none; stroke: #000000; stroke-width: 1.2"/>
    <path d="M 133.528333 130.938105 
L 156.096558 142.777624 
" clip-path="url(#pec79718696)" style="fill: none; stroke: #000000; stroke-width: 1.2"/>
    <path d="M 133.528333 130.938105 
L 90.479187 145.794351 
" clip-path="url(#pec79718696)" style="fill: none; stroke: #000000; stroke-width: 1.2"/>
    <path d="M 133.528333 130.938105 
L 78.019156 123.351926 
" clip-path="url(#pec79718696)" style="fill: none; stroke: #000000; stroke-width: 1.2"/>
    <path d="M 133.528333 130.938105 
L 108.91678 134.889947 
" clip-path="url(#pec79718696)" style="fill: none; stroke: #000000; stroke-width: 1.2"/>
    <path d="M 133.528333 130.938105 
L 92.982299 133.507615 
" clip-path="url(#pec79718696)" style="fill: none; stroke: #000000; stroke-width: 1.2"/>
    <path d="M 156.096558 142.777624 
L 90.479187 145.794351 
" clip-path="url(#pec79718696)" style="fill: none; stroke: #000000; stroke-width: 1.2"/>
    <path d="M 156.096558 142.777624 
L 109.730785 144.37047 
" clip-path="url(#pec79718696)" style="fill: none; stroke: #000000; stroke-width: 1.2"/>
    <path d="M 156.096558 142.777624 
L 108.91678 134.889947 
" clip-path="url(#pec79718696)" style="fill: none; stroke: #000000; stroke-width: 1.2"/>
    <path d="M 156.096558 142.777624 
L 152.091484 127.752201 
" clip-path="url(#pec79718696)" style="fill: none; stroke: #000000; stroke-width: 1.2"/>
    <path d="M 156.096558 142.777624 
L 129.636357 140.118808 
" clip-path="url(#pec79718696)" style="fill: none; stroke: #000000; stroke-width: 1.2"/>
    <path d="M 156.096558 142.777624 
L 182.308446 172.421344 
" clip-path="url(#pec79718696)" style="fill: none; stroke: #000000; stroke-width: 1.2"/>
    <path d="M 156.096558 142.777624 
L 184.96257 147.331593 
" clip-path="url(#pec79718696)" style="fill: none; stroke: #000000; stroke-width: 1.2"/>
    <path d="M 90.479187 145.794351 
L 109.730785 144.37047 
" clip-path="url(#pec79718696)" style="fill: none; stroke: #000000; stroke-width: 1.2"/>
    <path d="M 90.479187 145.794351 
L 92.982299 133.507615 
" clip-path="url(#pec79718696)" style="fill: none; stroke: #000000; stroke-width: 1.2"/>
    <path d="M 90.479187 145.794351 
L 55.368595 129.123026 
" clip-path="url(#pec79718696)" style="fill: none; stroke: #000000; stroke-width: 1.2"/>
    <path d="M 90.479187 145.794351 
L 73.380476 130.925811 
" clip-path="url(#pec79718696)" style="fill: none; stroke: #000000; stroke-width: 1.2"/>
    <path d="M 109.730785 144.37047 
L 78.019156 123.351926 
" clip-path="url(#pec79718696)" style="fill: none; stroke: #000000; stroke-width: 1.2"/>
    <path d="M 109.730785 144.37047 
L 129.636357 140.118808 
" clip-path="url(#pec79718696)" style="fill: none; stroke: #000000; stroke-width: 1.2"/>
    <path d="M 109.730785 144.37047 
L 73.380476 130.925811 
" clip-path="url(#pec79718696)" style="fill: none; stroke: #000000; stroke-width: 1.2"/>
    <path d="M 78.019156 123.351926 
L 108.91678 134.889947 
" clip-path="url(#pec79718696)" style="fill: none; stroke: #000000; stroke-width: 1.2"/>
    <path d="M 78.019156 123.351926 
L 129.636357 140.118808 
" clip-path="url(#pec79718696)" style="fill: none; stroke: #000000; stroke-width: 1.2"/>
    <path d="M 78.019156 123.351926 
L 55.368595 129.123026 
" clip-path="url(#pec79718696)" style="fill: none; stroke: #000000; stroke-width: 1.2"/>
    <path d="M 108.91678 134.889947 
L 152.091484 127.752201 
" clip-path="url(#pec79718696)" style="fill: none; stroke: #000000; stroke-width: 1.2"/>
    <path d="M 108.91678 134.889947 
L 55.368595 129.123026 
" clip-path="url(#pec79718696)" style="fill: none; stroke: #000000; stroke-width: 1.2"/>
    <path d="M 108.91678 134.889947 
L 73.380476 130.925811 
" clip-path="url(#pec79718696)" style="fill: none; stroke: #000000; stroke-width: 1.2"/>
    <path d="M 152.091484 127.752201 
L 92.982299 133.507615 
" clip-path="url(#pec79718696)" style="fill: none; stroke: #000000; stroke-width: 1.2"/>
    <path d="M 152.091484 127.752201 
L 129.636357 140.118808 
" clip-path="url(#pec79718696)" style="fill: none; stroke: #000000; stroke-width: 1.2"/>
    <path d="M 152.091484 127.752201 
L 73.380476 130.925811 
" clip-path="url(#pec79718696)" style="fill: none; stroke: #000000; stroke-width: 1.2"/>
    <path d="M 152.091484 127.752201 
L 184.96257 147.331593 
" clip-path="url(#pec79718696)" style="fill: none; stroke: #000000; stroke-width: 1.2"/>
    <path d="M 92.982299 133.507615 
L 129.636357 140.118808 
" clip-path="url(#pec79718696)" style="fill: none; stroke: #000000; stroke-width: 1.2"/>
    <path d="M 92.982299 133.507615 
L 55.368595 129.123026 
" clip-path="url(#pec79718696)" style="fill: none; stroke: #000000; stroke-width: 1.2"/>
    <path d="M 129.636357 140.118808 
L 55.368595 129.123026 
" clip-path="url(#pec79718696)" style="fill: none; stroke: #000000; stroke-width: 1.2"/>
    <path d="M 129.636357 140.118808 
L 184.96257 147.331593 
" clip-path="url(#pec79718696)" style="fill: none; stroke: #000000; stroke-width: 1.2"/>
    <path d="M 55.368595 129.123026 
L 73.380476 130.925811 
" clip-path="url(#pec79718696)" style="fill: none; stroke: #000000; stroke-width: 1.2"/>
    <path d="M 150.759829 237.076364 
L 182.943945 206.974998 
" clip-path="url(#pec79718696)" style="fill: none; stroke: #000000; stroke-width: 1.2"/>
    <path d="M 194.026326 236.786419 
L 182.943945 206.974998 
" clip-path="url(#pec79718696)" style="fill: none; stroke: #000000; stroke-width: 1.2"/>
    <path d="M 234.210606 220.723418 
L 182.943945 206.974998 
" clip-path="url(#pec79718696)" style="fill: none; stroke: #000000; stroke-width: 1.2"/>
    <path d="M 237.34468 175.741043 
L 182.308446 172.421344 
" clip-path="url(#pec79718696)" style="fill: none; stroke: #000000; stroke-width: 1.2"/>
    <path d="M 239.831405 140.51767 
L 184.96257 147.331593 
" clip-path="url(#pec79718696)" style="fill: none; stroke: #000000; stroke-width: 1.2"/>
    <path d="M 182.943945 206.974998 
L 182.308446 172.421344 
" clip-path="url(#pec79718696)" style="fill: none; stroke: #000000; stroke-width: 1.2"/>
    <path d="M 182.308446 172.421344 
L 184.96257 147.331593 
" clip-path="url(#pec79718696)" style="fill: none; stroke: #000000; stroke-width: 1.2"/>
   </g>
   <g id="PathCollection_1">
    <defs>
     <path id="C0_0_2758efbf2d" d="M 0 8.944272 
C 2.372049 8.944272 4.647264 8.001847 6.324555 6.324555 
C 8.001847 4.647264 8.944272 2.372049 8.944272 -0 
C 8.944272 -2.372049 8.001847 -4.647264 6.324555 -6.324555 
C 4.647264 -8.001847 2.372049 -8.944272 0 -8.944272 
C -2.372049 -8.944272 -4.647264 -8.001847 -6.324555 -6.324555 
C -8.001847 -4.647264 -8.944272 -2.372049 -8.944272 0 
C -8.944272 2.372049 -8.001847 4.647264 -6.324555 6.324555 
C -4.647264 8.001847 -2.372049 8.944272 0 8.944272 
z
"/>
    </defs>
    <g clip-path="url(#pec79718696)">
     <use xlink:href="#C0_0_2758efbf2d" x="123.1576" y="53.803636" style="fill: #266696; stroke: #266696; stroke-width: 0.5"/>
    </g>
    <g clip-path="url(#pec79718696)">
     <use xlink:href="#C0_0_2758efbf2d" x="147.781999" y="67.04666" style="fill: #266696; stroke: #266696; stroke-width: 0.5"/>
    </g>
    <g clip-path="url(#pec79718696)">
     <use xlink:href="#C0_0_2758efbf2d" x="173.898343" y="83.596113" style="fill: #266696; stroke: #266696; stroke-width: 0.5"/>
    </g>
    <g clip-path="url(#pec79718696)">
     <use xlink:href="#C0_0_2758efbf2d" x="96.635629" y="78.781019" style="fill: #266696; stroke: #266696; stroke-width: 0.5"/>
    </g>
    <g clip-path="url(#pec79718696)">
     <use xlink:href="#C0_0_2758efbf2d" x="132.283375" y="70.775302" style="fill: #266696; stroke: #266696; stroke-width: 0.5"/>
    </g>
    <g clip-path="url(#pec79718696)">
     <use xlink:href="#C0_0_2758efbf2d" x="93.268336" y="61.073605" style="fill: #266696; stroke: #266696; stroke-width: 0.5"/>
    </g>
    <g clip-path="url(#pec79718696)">
     <use xlink:href="#C0_0_2758efbf2d" x="120.76418" y="67.107735" style="fill: #266696; stroke: #266696; stroke-width: 0.5"/>
    </g>
    <g clip-path="url(#pec79718696)">
     <use xlink:href="#C0_0_2758efbf2d" x="160.212388" y="68.981884" style="fill: #266696; stroke: #266696; stroke-width: 0.5"/>
    </g>
    <g clip-path="url(#pec79718696)">
     <use xlink:href="#C0_0_2758efbf2d" x="106.453436" y="64.059865" style="fill: #266696; stroke: #266696; stroke-width: 0.5"/>
    </g>
    <g clip-path="url(#pec79718696)">
     <use xlink:href="#C0_0_2758efbf2d" x="142.396149" y="79.567724" style="fill: #266696; stroke: #266696; stroke-width: 0.5"/>
    </g>
    <g clip-path="url(#pec79718696)">
     <use xlink:href="#C0_0_2758efbf2d" x="62.283007" y="74.517295" style="fill: #266696; stroke: #266696; stroke-width: 0.5"/>
    </g>
    <g clip-path="url(#pec79718696)">
     <use xlink:href="#C0_0_2758efbf2d" x="81.307471" y="65.510708" style="fill: #266696; stroke: #266696; stroke-width: 0.5"/>
    </g>
    <g clip-path="url(#pec79718696)">
     <use xlink:href="#C0_0_2758efbf2d" x="111.601709" y="87.517391" style="fill: #266696; stroke: #266696; stroke-width: 0.5"/>
    </g>
    <g clip-path="url(#pec79718696)">
     <use xlink:href="#C0_0_2758efbf2d" x="105.607609" y="104.415393" style="fill: #266696; stroke: #266696; stroke-width: 0.5"/>
    </g>
    <g clip-path="url(#pec79718696)">
     <use xlink:href="#C0_0_2758efbf2d" x="151.71402" y="104.085105" style="fill: #266696; stroke: #266696; stroke-width: 0.5"/>
    </g>
    <g clip-path="url(#pec79718696)">
     <use xlink:href="#C0_0_2758efbf2d" x="134.522286" y="114.767059" style="fill: #266696; stroke: #266696; stroke-width: 0.5"/>
    </g>
    <g clip-path="url(#pec79718696)">
     <use xlink:href="#C0_0_2758efbf2d" x="87.080387" y="95.176068" style="fill: #266696; stroke: #266696; stroke-width: 0.5"/>
    </g>
    <g clip-path="url(#pec79718696)">
     <use xlink:href="#C0_0_2758efbf2d" x="123.466396" y="104.333916" style="fill: #266696; stroke: #266696; stroke-width: 0.5"/>
    </g>
    <g clip-path="url(#pec79718696)">
     <use xlink:href="#C0_0_2758efbf2d" x="116.473165" y="98.317209" style="fill: #266696; stroke: #266696; stroke-width: 0.5"/>
    </g>
    <g clip-path="url(#pec79718696)">
     <use xlink:href="#C0_0_2758efbf2d" x="167.578404" y="108.450802" style="fill: #266696; stroke: #266696; stroke-width: 0.5"/>
    </g>
    <g clip-path="url(#pec79718696)">
     <use xlink:href="#C0_0_2758efbf2d" x="141.116718" y="94.813092" style="fill: #266696; stroke: #266696; stroke-width: 0.5"/>
    </g>
    <g clip-path="url(#pec79718696)">
     <use xlink:href="#C0_0_2758efbf2d" x="90.607637" y="105.674421" style="fill: #266696; stroke: #266696; stroke-width: 0.5"/>
    </g>
    <g clip-path="url(#pec79718696)">
     <use xlink:href="#C0_0_2758efbf2d" x="73.592585" y="94.949789" style="fill: #266696; stroke: #266696; stroke-width: 0.5"/>
    </g>
    <g clip-path="url(#pec79718696)">
     <use xlink:href="#C0_0_2758efbf2d" x="60.779911" y="104.489451" style="fill: #266696; stroke: #266696; stroke-width: 0.5"/>
    </g>
    <g clip-path="url(#pec79718696)">
     <use xlink:href="#C0_0_2758efbf2d" x="107.470239" y="121.287222" style="fill: #266696; stroke: #266696; stroke-width: 0.5"/>
    </g>
    <g clip-path="url(#pec79718696)">
     <use xlink:href="#C0_0_2758efbf2d" x="133.528333" y="130.938105" style="fill: #266696; stroke: #266696; stroke-width: 0.5"/>
    </g>
    <g clip-path="url(#pec79718696)">
     <use xlink:href="#C0_0_2758efbf2d" x="156.096558" y="142.777624" style="fill: #266696; stroke: #266696; stroke-width: 0.5"/>
    </g>
    <g clip-path="url(#pec79718696)">
     <use xlink:href="#C0_0_2758efbf2d" x="90.479187" y="145.794351" style="fill: #266696; stroke: #266696; stroke-width: 0.5"/>
    </g>
    <g clip-path="url(#pec79718696)">
     <use xlink:href="#C0_0_2758efbf2d" x="109.730785" y="144.37047" style="fill: #266696; stroke: #266696; stroke-width: 0.5"/>
    </g>
    <g clip-path="url(#pec79718696)">
     <use xlink:href="#C0_0_2758efbf2d" x="78.019156" y="123.351926" style="fill: #266696; stroke: #266696; stroke-width: 0.5"/>
    </g>
    <g clip-path="url(#pec79718696)">
     <use xlink:href="#C0_0_2758efbf2d" x="108.91678" y="134.889947" style="fill: #266696; stroke: #266696; stroke-width: 0.5"/>
    </g>
    <g clip-path="url(#pec79718696)">
     <use xlink:href="#C0_0_2758efbf2d" x="152.091484" y="127.752201" style="fill: #266696; stroke: #266696; stroke-width: 0.5"/>
    </g>
    <g clip-path="url(#pec79718696)">
     <use xlink:href="#C0_0_2758efbf2d" x="92.982299" y="133.507615" style="fill: #266696; stroke: #266696; stroke-width: 0.5"/>
    </g>
    <g clip-path="url(#pec79718696)">
     <use xlink:href="#C0_0_2758efbf2d" x="129.636357" y="140.118808" style="fill: #266696; stroke: #266696; stroke-width: 0.5"/>
    </g>
    <g clip-path="url(#pec79718696)">
     <use xlink:href="#C0_0_2758efbf2d" x="55.368595" y="129.123026" style="fill: #266696; stroke: #266696; stroke-width: 0.5"/>
    </g>
    <g clip-path="url(#pec79718696)">
     <use xlink:href="#C0_0_2758efbf2d" x="73.380476" y="130.925811" style="fill: #266696; stroke: #266696; stroke-width: 0.5"/>
    </g>
    <g clip-path="url(#pec79718696)">
     <use xlink:href="#C0_0_2758efbf2d" x="150.759829" y="237.076364" style="fill: #bfbfbf; stroke: #bfbfbf; stroke-width: 0.5"/>
    </g>
    <g clip-path="url(#pec79718696)">
     <use xlink:href="#C0_0_2758efbf2d" x="194.026326" y="236.786419" style="fill: #bfbfbf; stroke: #bfbfbf; stroke-width: 0.5"/>
    </g>
    <g clip-path="url(#pec79718696)">
     <use xlink:href="#C0_0_2758efbf2d" x="234.210606" y="220.723418" style="fill: #bfbfbf; stroke: #bfbfbf; stroke-width: 0.5"/>
    </g>
    <g clip-path="url(#pec79718696)">
     <use xlink:href="#C0_0_2758efbf2d" x="237.34468" y="175.741043" style="fill: #bfbfbf; stroke: #bfbfbf; stroke-width: 0.5"/>
    </g>
    <g clip-path="url(#pec79718696)">
     <use xlink:href="#C0_0_2758efbf2d" x="239.831405" y="140.51767" style="fill: #bfbfbf; stroke: #bfbfbf; stroke-width: 0.5"/>
    </g>
    <g clip-path="url(#pec79718696)">
     <use xlink:href="#C0_0_2758efbf2d" x="182.943945" y="206.974998" style="fill: #666666; stroke: #666666; stroke-width: 0.5"/>
    </g>
    <g clip-path="url(#pec79718696)">
     <use xlink:href="#C0_0_2758efbf2d" x="182.308446" y="172.421344" style="fill: #666666; stroke: #666666; stroke-width: 0.5"/>
    </g>
    <g clip-path="url(#pec79718696)">
     <use xlink:href="#C0_0_2758efbf2d" x="184.96257" y="147.331593" style="fill: #0d0dff; stroke: #0d0dff; stroke-width: 0.5"/>
    </g>
   </g>
   <g id="text_1">
    <!-- C2H5NOs48 -->
    <g transform="translate(134.892459 -0.270624) scale(0.1 -0.1)">
     <defs>
      <path id="DejaVuSans-43" d="M 4122 4306 
L 4122 3641 
Q 3803 3938 3442 4084 
Q 3081 4231 2675 4231 
Q 1875 4231 1450 3742 
Q 1025 3253 1025 2328 
Q 1025 1406 1450 917 
Q 1875 428 2675 428 
Q 3081 428 3442 575 
Q 3803 722 4122 1019 
L 4122 359 
Q 3791 134 3420 21 
Q 3050 -91 2638 -91 
Q 1578 -91 968 557 
Q 359 1206 359 2328 
Q 359 3453 968 4101 
Q 1578 4750 2638 4750 
Q 3056 4750 3426 4639 
Q 3797 4528 4122 4306 
z
" transform="scale(0.015625)"/>
      <path id="DejaVuSans-32" d="M 1228 531 
L 3431 531 
L 3431 0 
L 469 0 
L 469 531 
Q 828 903 1448 1529 
Q 2069 2156 2228 2338 
Q 2531 2678 2651 2914 
Q 2772 3150 2772 3378 
Q 2772 3750 2511 3984 
Q 2250 4219 1831 4219 
Q 1534 4219 1204 4116 
Q 875 4013 500 3803 
L 500 4441 
Q 881 4594 1212 4672 
Q 1544 4750 1819 4750 
Q 2544 4750 2975 4387 
Q 3406 4025 3406 3419 
Q 3406 3131 3298 2873 
Q 3191 2616 2906 2266 
Q 2828 2175 2409 1742 
Q 1991 1309 1228 531 
z
" transform="scale(0.015625)"/>
      <path id="DejaVuSans-48" d="M 628 4666 
L 1259 4666 
L 1259 2753 
L 3553 2753 
L 3553 4666 
L 4184 4666 
L 4184 0 
L 3553 0 
L 3553 2222 
L 1259 2222 
L 1259 0 
L 628 0 
L 628 4666 
z
" transform="scale(0.015625)"/>
      <path id="DejaVuSans-35" d="M 691 4666 
L 3169 4666 
L 3169 4134 
L 1269 4134 
L 1269 2991 
Q 1406 3038 1543 3061 
Q 1681 3084 1819 3084 
Q 2600 3084 3056 2656 
Q 3513 2228 3513 1497 
Q 3513 744 3044 326 
Q 2575 -91 1722 -91 
Q 1428 -91 1123 -41 
Q 819 9 494 109 
L 494 744 
Q 775 591 1075 516 
Q 1375 441 1709 441 
Q 2250 441 2565 725 
Q 2881 1009 2881 1497 
Q 2881 1984 2565 2268 
Q 2250 2553 1709 2553 
Q 1456 2553 1204 2497 
Q 953 2441 691 2322 
L 691 4666 
z
" transform="scale(0.015625)"/>
      <path id="DejaVuSans-4e" d="M 628 4666 
L 1478 4666 
L 3547 763 
L 3547 4666 
L 4159 4666 
L 4159 0 
L 3309 0 
L 1241 3903 
L 1241 0 
L 628 0 
L 628 4666 
z
" transform="scale(0.015625)"/>
      <path id="DejaVuSans-4f" d="M 2522 4238 
Q 1834 4238 1429 3725 
Q 1025 3213 1025 2328 
Q 1025 1447 1429 934 
Q 1834 422 2522 422 
Q 3209 422 3611 934 
Q 4013 1447 4013 2328 
Q 4013 3213 3611 3725 
Q 3209 4238 2522 4238 
z
M 2522 4750 
Q 3503 4750 4090 4092 
Q 4678 3434 4678 2328 
Q 4678 1225 4090 567 
Q 3503 -91 2522 -91 
Q 1538 -91 948 565 
Q 359 1222 359 2328 
Q 359 3434 948 4092 
Q 1538 4750 2522 4750 
z
" transform="scale(0.015625)"/>
      <path id="DejaVuSans-73" d="M 2834 3397 
L 2834 2853 
Q 2591 2978 2328 3040 
Q 2066 3103 1784 3103 
Q 1356 3103 1142 2972 
Q 928 2841 928 2578 
Q 928 2378 1081 2264 
Q 1234 2150 1697 2047 
L 1894 2003 
Q 2506 1872 2764 1633 
Q 3022 1394 3022 966 
Q 3022 478 2636 193 
Q 2250 -91 1575 -91 
Q 1294 -91 989 -36 
Q 684 19 347 128 
L 347 722 
Q 666 556 975 473 
Q 1284 391 1588 391 
Q 1994 391 2212 530 
Q 2431 669 2431 922 
Q 2431 1156 2273 1281 
Q 2116 1406 1581 1522 
L 1381 1569 
Q 847 1681 609 1914 
Q 372 2147 372 2553 
Q 372 3047 722 3315 
Q 1072 3584 1716 3584 
Q 2034 3584 2315 3537 
Q 2597 3491 2834 3397 
z
" transform="scale(0.015625)"/>
      <path id="DejaVuSans-34" d="M 2419 4116 
L 825 1625 
L 2419 1625 
L 2419 4116 
z
M 2253 4666 
L 3047 4666 
L 3047 1625 
L 3713 1625 
L 3713 1100 
L 3047 1100 
L 3047 0 
L 2419 0 
L 2419 1100 
L 313 1100 
L 313 1709 
L 2253 4666 
z
" transform="scale(0.015625)"/>
      <path id="DejaVuSans-38" d="M 2034 2216 
Q 1584 2216 1326 1975 
Q 1069 1734 1069 1313 
Q 1069 891 1326 650 
Q 1584 409 2034 409 
Q 2484 409 2743 651 
Q 3003 894 3003 1313 
Q 3003 1734 2745 1975 
Q 2488 2216 2034 2216 
z
M 1403 2484 
Q 997 2584 770 2862 
Q 544 3141 544 3541 
Q 544 4100 942 4425 
Q 1341 4750 2034 4750 
Q 2731 4750 3128 4425 
Q 3525 4100 3525 3541 
Q 3525 3141 3298 2862 
Q 3072 2584 2669 2484 
Q 3125 2378 3379 2068 
Q 3634 1759 3634 1313 
Q 3634 634 3220 271 
Q 2806 -91 2034 -91 
Q 1263 -91 848 271 
Q 434 634 434 1313 
Q 434 1759 690 2068 
Q 947 2378 1403 2484 
z
M 1172 3481 
Q 1172 3119 1398 2916 
Q 1625 2713 2034 2713 
Q 2441 2713 2670 2916 
Q 2900 3119 2900 3481 
Q 2900 3844 2670 4047 
Q 2441 4250 2034 4250 
Q 1625 4250 1398 4047 
Q 1172 3844 1172 3481 
z
" transform="scale(0.015625)"/>
     </defs>
     <use xlink:href="#DejaVuSans-43"/>
     <use xlink:href="#DejaVuSans-32" transform="translate(69.824219 0)"/>
     <use xlink:href="#DejaVuSans-48" transform="translate(133.447266 0)"/>
     <use xlink:href="#DejaVuSans-35" transform="translate(208.642578 0)"/>
     <use xlink:href="#DejaVuSans-4e" transform="translate(272.265625 0)"/>
     <use xlink:href="#DejaVuSans-4f" transform="translate(347.070312 0)"/>
     <use xlink:href="#DejaVuSans-73" transform="translate(425.78125 0)"/>
     <use xlink:href="#DejaVuSans-34" transform="translate(477.880859 0)"/>
     <use xlink:href="#DejaVuSans-38" transform="translate(541.503906 0)"/>
    </g>
    <!-- Error: -6.28 eV -->
    <g transform="translate(134.892459 10.927188) scale(0.1 -0.1)">
     <defs>
      <path id="DejaVuSans-45" d="M 628 4666 
L 3578 4666 
L 3578 4134 
L 1259 4134 
L 1259 2753 
L 3481 2753 
L 3481 2222 
L 1259 2222 
L 1259 531 
L 3634 531 
L 3634 0 
L 628 0 
L 628 4666 
z
" transform="scale(0.015625)"/>
      <path id="DejaVuSans-72" d="M 2631 2963 
Q 2534 3019 2420 3045 
Q 2306 3072 2169 3072 
Q 1681 3072 1420 2755 
Q 1159 2438 1159 1844 
L 1159 0 
L 581 0 
L 581 3500 
L 1159 3500 
L 1159 2956 
Q 1341 3275 1631 3429 
Q 1922 3584 2338 3584 
Q 2397 3584 2469 3576 
Q 2541 3569 2628 3553 
L 2631 2963 
z
" transform="scale(0.015625)"/>
      <path id="DejaVuSans-6f" d="M 1959 3097 
Q 1497 3097 1228 2736 
Q 959 2375 959 1747 
Q 959 1119 1226 758 
Q 1494 397 1959 397 
Q 2419 397 2687 759 
Q 2956 1122 2956 1747 
Q 2956 2369 2687 2733 
Q 2419 3097 1959 3097 
z
M 1959 3584 
Q 2709 3584 3137 3096 
Q 3566 2609 3566 1747 
Q 3566 888 3137 398 
Q 2709 -91 1959 -91 
Q 1206 -91 779 398 
Q 353 888 353 1747 
Q 353 2609 779 3096 
Q 1206 3584 1959 3584 
z
" transform="scale(0.015625)"/>
      <path id="DejaVuSans-3a" d="M 750 794 
L 1409 794 
L 1409 0 
L 750 0 
L 750 794 
z
M 750 3309 
L 1409 3309 
L 1409 2516 
L 750 2516 
L 750 3309 
z
" transform="scale(0.015625)"/>
      <path id="DejaVuSans-20" transform="scale(0.015625)"/>
      <path id="DejaVuSans-2d" d="M 313 2009 
L 1997 2009 
L 1997 1497 
L 313 1497 
L 313 2009 
z
" transform="scale(0.015625)"/>
      <path id="DejaVuSans-36" d="M 2113 2584 
Q 1688 2584 1439 2293 
Q 1191 2003 1191 1497 
Q 1191 994 1439 701 
Q 1688 409 2113 409 
Q 2538 409 2786 701 
Q 3034 994 3034 1497 
Q 3034 2003 2786 2293 
Q 2538 2584 2113 2584 
z
M 3366 4563 
L 3366 3988 
Q 3128 4100 2886 4159 
Q 2644 4219 2406 4219 
Q 1781 4219 1451 3797 
Q 1122 3375 1075 2522 
Q 1259 2794 1537 2939 
Q 1816 3084 2150 3084 
Q 2853 3084 3261 2657 
Q 3669 2231 3669 1497 
Q 3669 778 3244 343 
Q 2819 -91 2113 -91 
Q 1303 -91 875 529 
Q 447 1150 447 2328 
Q 447 3434 972 4092 
Q 1497 4750 2381 4750 
Q 2619 4750 2861 4703 
Q 3103 4656 3366 4563 
z
" transform="scale(0.015625)"/>
      <path id="DejaVuSans-2e" d="M 684 794 
L 1344 794 
L 1344 0 
L 684 0 
L 684 794 
z
" transform="scale(0.015625)"/>
      <path id="DejaVuSans-65" d="M 3597 1894 
L 3597 1613 
L 953 1613 
Q 991 1019 1311 708 
Q 1631 397 2203 397 
Q 2534 397 2845 478 
Q 3156 559 3463 722 
L 3463 178 
Q 3153 47 2828 -22 
Q 2503 -91 2169 -91 
Q 1331 -91 842 396 
Q 353 884 353 1716 
Q 353 2575 817 3079 
Q 1281 3584 2069 3584 
Q 2775 3584 3186 3129 
Q 3597 2675 3597 1894 
z
M 3022 2063 
Q 3016 2534 2758 2815 
Q 2500 3097 2075 3097 
Q 1594 3097 1305 2825 
Q 1016 2553 972 2059 
L 3022 2063 
z
" transform="scale(0.015625)"/>
      <path id="DejaVuSans-56" d="M 1831 0 
L 50 4666 
L 709 4666 
L 2188 738 
L 3669 4666 
L 4325 4666 
L 2547 0 
L 1831 0 
z
" transform="scale(0.015625)"/>
     </defs>
     <use xlink:href="#DejaVuSans-45"/>
     <use xlink:href="#DejaVuSans-72" transform="translate(63.183594 0)"/>
     <use xlink:href="#DejaVuSans-72" transform="translate(102.546875 0)"/>
     <use xlink:href="#DejaVuSans-6f" transform="translate(141.410156 0)"/>
     <use xlink:href="#DejaVuSans-72" transform="translate(202.591797 0)"/>
     <use xlink:href="#DejaVuSans-3a" transform="translate(241.955078 0)"/>
     <use xlink:href="#DejaVuSans-20" transform="translate(275.646484 0)"/>
     <use xlink:href="#DejaVuSans-2d" transform="translate(307.433594 0)"/>
     <use xlink:href="#DejaVuSans-36" transform="translate(343.517578 0)"/>
     <use xlink:href="#DejaVuSans-2e" transform="translate(407.140625 0)"/>
     <use xlink:href="#DejaVuSans-32" transform="translate(438.927734 0)"/>
     <use xlink:href="#DejaVuSans-38" transform="translate(502.550781 0)"/>
     <use xlink:href="#DejaVuSans-20" transform="translate(566.173828 0)"/>
     <use xlink:href="#DejaVuSans-65" transform="translate(597.960938 0)"/>
     <use xlink:href="#DejaVuSans-56" transform="translate(659.484375 0)"/>
    </g>
   </g>
  </g>
 </g>
 <defs>
  <clipPath id="pec79718696">
   <rect x="36" y="34.56" width="223.2" height="221.76"/>
  </clipPath>
 </defs>
</svg>
