<?xml version="1.0" encoding="utf-8" standalone="no"?>
<!DOCTYPE svg PUBLIC "-//W3C//DTD SVG 1.1//EN"
  "http://www.w3.org/Graphics/SVG/1.1/DTD/svg11.dtd">
<svg xmlns:xlink="http://www.w3.org/1999/xlink" width="288pt" height="288pt" viewBox="0 0 288 288" xmlns="http://www.w3.org/2000/svg" version="1.1">
 <metadata>
  <rdf:RDF xmlns:dc="http://purl.org/dc/elements/1.1/" xmlns:cc="http://creativecommons.org/ns#" xmlns:rdf="http://www.w3.org/1999/02/22-rdf-syntax-ns#">
   <cc:Work>
    <dc:type rdf:resource="http://purl.org/dc/dcmitype/StillImage"/>
    <dc:date>2025-06-30T12:10:36.621316</dc:date>
    <dc:format>image/svg+xml</dc:format>
    <dc:creator>
     <cc:Agent>
      <dc:title>Matplotlib v3.10.1, https://matplotlib.org/</dc:title>
     </cc:Agent>
    </dc:creator>
   </cc:Work>
  </rdf:RDF>
 </metadata>
 <defs>
  <style type="text/css">*{stroke-linejoin: round; stroke-linecap: butt}</style>
 </defs>
 <g id="figure_1">
  <g id="patch_1">
   <path d="M 0 288 
L 288 288 
L 288 0 
L 0 0 
z
" style="fill: #ffffff"/>
  </g>
  <g id="axes_1">
   <g id="LineCollection_1">
    <path d="M 70.778758 58.683914 
L 55.368595 73.496752 
" clip-path="url(#pcb6573c58f)" style="fill: none; stroke: #000000; stroke-width: 1.2"/>
    <path d="M 70.778758 58.683914 
L 100.337646 67.007218 
" clip-path="url(#pcb6573c58f)" style="fill: none; stroke: #000000; stroke-width: 1.2"/>
    <path d="M 70.778758 58.683914 
L 100.466738 53.803636 
" clip-path="url(#pcb6573c58f)" style="fill: none; stroke: #000000; stroke-width: 1.2"/>
    <path d="M 70.778758 58.683914 
L 62.608092 68.24103 
" clip-path="url(#pcb6573c58f)" style="fill: none; stroke: #000000; stroke-width: 1.2"/>
    <path d="M 70.778758 58.683914 
L 106.551459 73.013041 
" clip-path="url(#pcb6573c58f)" style="fill: none; stroke: #000000; stroke-width: 1.2"/>
    <path d="M 70.778758 58.683914 
L 119.063252 54.422821 
" clip-path="url(#pcb6573c58f)" style="fill: none; stroke: #000000; stroke-width: 1.2"/>
    <path d="M 70.778758 58.683914 
L 66.844114 92.672326 
" clip-path="url(#pcb6573c58f)" style="fill: none; stroke: #000000; stroke-width: 1.2"/>
    <path d="M 70.778758 58.683914 
L 102.486966 99.423252 
" clip-path="url(#pcb6573c58f)" style="fill: none; stroke: #000000; stroke-width: 1.2"/>
    <path d="M 70.778758 58.683914 
L 76.179469 103.976421 
" clip-path="url(#pcb6573c58f)" style="fill: none; stroke: #000000; stroke-width: 1.2"/>
    <path d="M 55.368595 73.496752 
L 100.337646 67.007218 
" clip-path="url(#pcb6573c58f)" style="fill: none; stroke: #000000; stroke-width: 1.2"/>
    <path d="M 55.368595 73.496752 
L 100.466738 53.803636 
" clip-path="url(#pcb6573c58f)" style="fill: none; stroke: #000000; stroke-width: 1.2"/>
    <path d="M 55.368595 73.496752 
L 74.312153 79.998608 
" clip-path="url(#pcb6573c58f)" style="fill: none; stroke: #000000; stroke-width: 1.2"/>
    <path d="M 55.368595 73.496752 
L 127.813781 65.643612 
" clip-path="url(#pcb6573c58f)" style="fill: none; stroke: #000000; stroke-width: 1.2"/>
    <path d="M 55.368595 73.496752 
L 86.319645 60.078578 
" clip-path="url(#pcb6573c58f)" style="fill: none; stroke: #000000; stroke-width: 1.2"/>
    <path d="M 55.368595 73.496752 
L 66.844114 92.672326 
" clip-path="url(#pcb6573c58f)" style="fill: none; stroke: #000000; stroke-width: 1.2"/>
    <path d="M 55.368595 73.496752 
L 75.609024 111.143672 
" clip-path="url(#pcb6573c58f)" style="fill: none; stroke: #000000; stroke-width: 1.2"/>
    <path d="M 55.368595 73.496752 
L 93.639135 98.195987 
" clip-path="url(#pcb6573c58f)" style="fill: none; stroke: #000000; stroke-width: 1.2"/>
    <path d="M 100.337646 67.007218 
L 133.689869 58.60649 
" clip-path="url(#pcb6573c58f)" style="fill: none; stroke: #000000; stroke-width: 1.2"/>
    <path d="M 100.337646 67.007218 
L 146.738082 70.927228 
" clip-path="url(#pcb6573c58f)" style="fill: none; stroke: #000000; stroke-width: 1.2"/>
    <path d="M 100.337646 67.007218 
L 74.312153 79.998608 
" clip-path="url(#pcb6573c58f)" style="fill: none; stroke: #000000; stroke-width: 1.2"/>
    <path d="M 100.337646 67.007218 
L 119.063252 54.422821 
" clip-path="url(#pcb6573c58f)" style="fill: none; stroke: #000000; stroke-width: 1.2"/>
    <path d="M 100.337646 67.007218 
L 102.486966 99.423252 
" clip-path="url(#pcb6573c58f)" style="fill: none; stroke: #000000; stroke-width: 1.2"/>
    <path d="M 100.337646 67.007218 
L 75.609024 111.143672 
" clip-path="url(#pcb6573c58f)" style="fill: none; stroke: #000000; stroke-width: 1.2"/>
    <path d="M 100.337646 67.007218 
L 144.425779 99.330341 
" clip-path="url(#pcb6573c58f)" style="fill: none; stroke: #000000; stroke-width: 1.2"/>
    <path d="M 133.689869 58.60649 
L 146.738082 70.927228 
" clip-path="url(#pcb6573c58f)" style="fill: none; stroke: #000000; stroke-width: 1.2"/>
    <path d="M 133.689869 58.60649 
L 100.466738 53.803636 
" clip-path="url(#pcb6573c58f)" style="fill: none; stroke: #000000; stroke-width: 1.2"/>
    <path d="M 133.689869 58.60649 
L 62.608092 68.24103 
" clip-path="url(#pcb6573c58f)" style="fill: none; stroke: #000000; stroke-width: 1.2"/>
    <path d="M 133.689869 58.60649 
L 119.063252 54.422821 
" clip-path="url(#pcb6573c58f)" style="fill: none; stroke: #000000; stroke-width: 1.2"/>
    <path d="M 133.689869 58.60649 
L 86.319645 60.078578 
" clip-path="url(#pcb6573c58f)" style="fill: none; stroke: #000000; stroke-width: 1.2"/>
    <path d="M 133.689869 58.60649 
L 144.425779 99.330341 
" clip-path="url(#pcb6573c58f)" style="fill: none; stroke: #000000; stroke-width: 1.2"/>
    <path d="M 133.689869 58.60649 
L 103.969729 89.898785 
" clip-path="url(#pcb6573c58f)" style="fill: none; stroke: #000000; stroke-width: 1.2"/>
    <path d="M 133.689869 58.60649 
L 125.262689 90.154594 
" clip-path="url(#pcb6573c58f)" style="fill: none; stroke: #000000; stroke-width: 1.2"/>
    <path d="M 146.738082 70.927228 
L 100.466738 53.803636 
" clip-path="url(#pcb6573c58f)" style="fill: none; stroke: #000000; stroke-width: 1.2"/>
    <path d="M 146.738082 70.927228 
L 74.312153 79.998608 
" clip-path="url(#pcb6573c58f)" style="fill: none; stroke: #000000; stroke-width: 1.2"/>
    <path d="M 146.738082 70.927228 
L 106.551459 73.013041 
" clip-path="url(#pcb6573c58f)" style="fill: none; stroke: #000000; stroke-width: 1.2"/>
    <path d="M 146.738082 70.927228 
L 127.813781 65.643612 
" clip-path="url(#pcb6573c58f)" style="fill: none; stroke: #000000; stroke-width: 1.2"/>
    <path d="M 146.738082 70.927228 
L 144.425779 99.330341 
" clip-path="url(#pcb6573c58f)" style="fill: none; stroke: #000000; stroke-width: 1.2"/>
    <path d="M 146.738082 70.927228 
L 139.205742 89.864576 
" clip-path="url(#pcb6573c58f)" style="fill: none; stroke: #000000; stroke-width: 1.2"/>
    <path d="M 146.738082 70.927228 
L 113.055557 110.267939 
" clip-path="url(#pcb6573c58f)" style="fill: none; stroke: #000000; stroke-width: 1.2"/>
    <path d="M 100.466738 53.803636 
L 62.608092 68.24103 
" clip-path="url(#pcb6573c58f)" style="fill: none; stroke: #000000; stroke-width: 1.2"/>
    <path d="M 100.466738 53.803636 
L 127.813781 65.643612 
" clip-path="url(#pcb6573c58f)" style="fill: none; stroke: #000000; stroke-width: 1.2"/>
    <path d="M 100.466738 53.803636 
L 66.844114 92.672326 
" clip-path="url(#pcb6573c58f)" style="fill: none; stroke: #000000; stroke-width: 1.2"/>
    <path d="M 100.466738 53.803636 
L 103.969729 89.898785 
" clip-path="url(#pcb6573c58f)" style="fill: none; stroke: #000000; stroke-width: 1.2"/>
    <path d="M 100.466738 53.803636 
L 139.205742 89.864576 
" clip-path="url(#pcb6573c58f)" style="fill: none; stroke: #000000; stroke-width: 1.2"/>
    <path d="M 74.312153 79.998608 
L 62.608092 68.24103 
" clip-path="url(#pcb6573c58f)" style="fill: none; stroke: #000000; stroke-width: 1.2"/>
    <path d="M 74.312153 79.998608 
L 106.551459 73.013041 
" clip-path="url(#pcb6573c58f)" style="fill: none; stroke: #000000; stroke-width: 1.2"/>
    <path d="M 74.312153 79.998608 
L 86.319645 60.078578 
" clip-path="url(#pcb6573c58f)" style="fill: none; stroke: #000000; stroke-width: 1.2"/>
    <path d="M 74.312153 79.998608 
L 75.609024 111.143672 
" clip-path="url(#pcb6573c58f)" style="fill: none; stroke: #000000; stroke-width: 1.2"/>
    <path d="M 74.312153 79.998608 
L 60.051271 104.327026 
" clip-path="url(#pcb6573c58f)" style="fill: none; stroke: #000000; stroke-width: 1.2"/>
    <path d="M 74.312153 79.998608 
L 113.055557 110.267939 
" clip-path="url(#pcb6573c58f)" style="fill: none; stroke: #000000; stroke-width: 1.2"/>
    <path d="M 62.608092 68.24103 
L 106.551459 73.013041 
" clip-path="url(#pcb6573c58f)" style="fill: none; stroke: #000000; stroke-width: 1.2"/>
    <path d="M 62.608092 68.24103 
L 86.319645 60.078578 
" clip-path="url(#pcb6573c58f)" style="fill: none; stroke: #000000; stroke-width: 1.2"/>
    <path d="M 62.608092 68.24103 
L 103.969729 89.898785 
" clip-path="url(#pcb6573c58f)" style="fill: none; stroke: #000000; stroke-width: 1.2"/>
    <path d="M 62.608092 68.24103 
L 60.051271 104.327026 
" clip-path="url(#pcb6573c58f)" style="fill: none; stroke: #000000; stroke-width: 1.2"/>
    <path d="M 62.608092 68.24103 
L 76.179469 103.976421 
" clip-path="url(#pcb6573c58f)" style="fill: none; stroke: #000000; stroke-width: 1.2"/>
    <path d="M 106.551459 73.013041 
L 127.813781 65.643612 
" clip-path="url(#pcb6573c58f)" style="fill: none; stroke: #000000; stroke-width: 1.2"/>
    <path d="M 106.551459 73.013041 
L 119.063252 54.422821 
" clip-path="url(#pcb6573c58f)" style="fill: none; stroke: #000000; stroke-width: 1.2"/>
    <path d="M 106.551459 73.013041 
L 113.055557 110.267939 
" clip-path="url(#pcb6573c58f)" style="fill: none; stroke: #000000; stroke-width: 1.2"/>
    <path d="M 106.551459 73.013041 
L 76.179469 103.976421 
" clip-path="url(#pcb6573c58f)" style="fill: none; stroke: #000000; stroke-width: 1.2"/>
    <path d="M 106.551459 73.013041 
L 134.107335 103.855772 
" clip-path="url(#pcb6573c58f)" style="fill: none; stroke: #000000; stroke-width: 1.2"/>
    <path d="M 127.813781 65.643612 
L 119.063252 54.422821 
" clip-path="url(#pcb6573c58f)" style="fill: none; stroke: #000000; stroke-width: 1.2"/>
    <path d="M 127.813781 65.643612 
L 86.319645 60.078578 
" clip-path="url(#pcb6573c58f)" style="fill: none; stroke: #000000; stroke-width: 1.2"/>
    <path d="M 127.813781 65.643612 
L 139.205742 89.864576 
" clip-path="url(#pcb6573c58f)" style="fill: none; stroke: #000000; stroke-width: 1.2"/>
    <path d="M 127.813781 65.643612 
L 134.107335 103.855772 
" clip-path="url(#pcb6573c58f)" style="fill: none; stroke: #000000; stroke-width: 1.2"/>
    <path d="M 127.813781 65.643612 
L 93.639135 98.195987 
" clip-path="url(#pcb6573c58f)" style="fill: none; stroke: #000000; stroke-width: 1.2"/>
    <path d="M 119.063252 54.422821 
L 86.319645 60.078578 
" clip-path="url(#pcb6573c58f)" style="fill: none; stroke: #000000; stroke-width: 1.2"/>
    <path d="M 119.063252 54.422821 
L 102.486966 99.423252 
" clip-path="url(#pcb6573c58f)" style="fill: none; stroke: #000000; stroke-width: 1.2"/>
    <path d="M 119.063252 54.422821 
L 134.107335 103.855772 
" clip-path="url(#pcb6573c58f)" style="fill: none; stroke: #000000; stroke-width: 1.2"/>
    <path d="M 119.063252 54.422821 
L 125.262689 90.154594 
" clip-path="url(#pcb6573c58f)" style="fill: none; stroke: #000000; stroke-width: 1.2"/>
    <path d="M 86.319645 60.078578 
L 60.051271 104.327026 
" clip-path="url(#pcb6573c58f)" style="fill: none; stroke: #000000; stroke-width: 1.2"/>
    <path d="M 86.319645 60.078578 
L 93.639135 98.195987 
" clip-path="url(#pcb6573c58f)" style="fill: none; stroke: #000000; stroke-width: 1.2"/>
    <path d="M 86.319645 60.078578 
L 125.262689 90.154594 
" clip-path="url(#pcb6573c58f)" style="fill: none; stroke: #000000; stroke-width: 1.2"/>
    <path d="M 66.844114 92.672326 
L 102.486966 99.423252 
" clip-path="url(#pcb6573c58f)" style="fill: none; stroke: #000000; stroke-width: 1.2"/>
    <path d="M 66.844114 92.672326 
L 75.609024 111.143672 
" clip-path="url(#pcb6573c58f)" style="fill: none; stroke: #000000; stroke-width: 1.2"/>
    <path d="M 66.844114 92.672326 
L 103.969729 89.898785 
" clip-path="url(#pcb6573c58f)" style="fill: none; stroke: #000000; stroke-width: 1.2"/>
    <path d="M 66.844114 92.672326 
L 139.205742 89.864576 
" clip-path="url(#pcb6573c58f)" style="fill: none; stroke: #000000; stroke-width: 1.2"/>
    <path d="M 66.844114 92.672326 
L 76.179469 103.976421 
" clip-path="url(#pcb6573c58f)" style="fill: none; stroke: #000000; stroke-width: 1.2"/>
    <path d="M 66.844114 92.672326 
L 93.639135 98.195987 
" clip-path="url(#pcb6573c58f)" style="fill: none; stroke: #000000; stroke-width: 1.2"/>
    <path d="M 66.844114 92.672326 
L 68.075282 124.907255 
" clip-path="url(#pcb6573c58f)" style="fill: none; stroke: #000000; stroke-width: 1.2"/>
    <path d="M 66.844114 92.672326 
L 76.557661 135.478845 
" clip-path="url(#pcb6573c58f)" style="fill: none; stroke: #000000; stroke-width: 1.2"/>
    <path d="M 66.844114 92.672326 
L 108.489625 124.439413 
" clip-path="url(#pcb6573c58f)" style="fill: none; stroke: #000000; stroke-width: 1.2"/>
    <path d="M 102.486966 99.423252 
L 75.609024 111.143672 
" clip-path="url(#pcb6573c58f)" style="fill: none; stroke: #000000; stroke-width: 1.2"/>
    <path d="M 102.486966 99.423252 
L 144.425779 99.330341 
" clip-path="url(#pcb6573c58f)" style="fill: none; stroke: #000000; stroke-width: 1.2"/>
    <path d="M 102.486966 99.423252 
L 76.179469 103.976421 
" clip-path="url(#pcb6573c58f)" style="fill: none; stroke: #000000; stroke-width: 1.2"/>
    <path d="M 102.486966 99.423252 
L 134.107335 103.855772 
" clip-path="url(#pcb6573c58f)" style="fill: none; stroke: #000000; stroke-width: 1.2"/>
    <path d="M 102.486966 99.423252 
L 125.262689 90.154594 
" clip-path="url(#pcb6573c58f)" style="fill: none; stroke: #000000; stroke-width: 1.2"/>
    <path d="M 102.486966 99.423252 
L 76.557661 135.478845 
" clip-path="url(#pcb6573c58f)" style="fill: none; stroke: #000000; stroke-width: 1.2"/>
    <path d="M 102.486966 99.423252 
L 134.287163 124.834295 
" clip-path="url(#pcb6573c58f)" style="fill: none; stroke: #000000; stroke-width: 1.2"/>
    <path d="M 102.486966 99.423252 
L 104.151515 142.045679 
" clip-path="url(#pcb6573c58f)" style="fill: none; stroke: #000000; stroke-width: 1.2"/>
    <path d="M 75.609024 111.143672 
L 144.425779 99.330341 
" clip-path="url(#pcb6573c58f)" style="fill: none; stroke: #000000; stroke-width: 1.2"/>
    <path d="M 75.609024 111.143672 
L 60.051271 104.327026 
" clip-path="url(#pcb6573c58f)" style="fill: none; stroke: #000000; stroke-width: 1.2"/>
    <path d="M 75.609024 111.143672 
L 113.055557 110.267939 
" clip-path="url(#pcb6573c58f)" style="fill: none; stroke: #000000; stroke-width: 1.2"/>
    <path d="M 75.609024 111.143672 
L 93.639135 98.195987 
" clip-path="url(#pcb6573c58f)" style="fill: none; stroke: #000000; stroke-width: 1.2"/>
    <path d="M 75.609024 111.143672 
L 76.557661 135.478845 
" clip-path="url(#pcb6573c58f)" style="fill: none; stroke: #000000; stroke-width: 1.2"/>
    <path d="M 75.609024 111.143672 
L 116.04897 144.332694 
" clip-path="url(#pcb6573c58f)" style="fill: none; stroke: #000000; stroke-width: 1.2"/>
    <path d="M 75.609024 111.143672 
L 64.123844 136.739071 
" clip-path="url(#pcb6573c58f)" style="fill: none; stroke: #000000; stroke-width: 1.2"/>
    <path d="M 144.425779 99.330341 
L 103.969729 89.898785 
" clip-path="url(#pcb6573c58f)" style="fill: none; stroke: #000000; stroke-width: 1.2"/>
    <path d="M 144.425779 99.330341 
L 139.205742 89.864576 
" clip-path="url(#pcb6573c58f)" style="fill: none; stroke: #000000; stroke-width: 1.2"/>
    <path d="M 144.425779 99.330341 
L 113.055557 110.267939 
" clip-path="url(#pcb6573c58f)" style="fill: none; stroke: #000000; stroke-width: 1.2"/>
    <path d="M 144.425779 99.330341 
L 125.262689 90.154594 
" clip-path="url(#pcb6573c58f)" style="fill: none; stroke: #000000; stroke-width: 1.2"/>
    <path d="M 144.425779 99.330341 
L 116.04897 144.332694 
" clip-path="url(#pcb6573c58f)" style="fill: none; stroke: #000000; stroke-width: 1.2"/>
    <path d="M 144.425779 99.330341 
L 134.287163 124.834295 
" clip-path="url(#pcb6573c58f)" style="fill: none; stroke: #000000; stroke-width: 1.2"/>
    <path d="M 144.425779 99.330341 
L 150.285847 119.366041 
" clip-path="url(#pcb6573c58f)" style="fill: none; stroke: #000000; stroke-width: 1.2"/>
    <path d="M 103.969729 89.898785 
L 139.205742 89.864576 
" clip-path="url(#pcb6573c58f)" style="fill: none; stroke: #000000; stroke-width: 1.2"/>
    <path d="M 103.969729 89.898785 
L 60.051271 104.327026 
" clip-path="url(#pcb6573c58f)" style="fill: none; stroke: #000000; stroke-width: 1.2"/>
    <path d="M 103.969729 89.898785 
L 76.179469 103.976421 
" clip-path="url(#pcb6573c58f)" style="fill: none; stroke: #000000; stroke-width: 1.2"/>
    <path d="M 103.969729 89.898785 
L 125.262689 90.154594 
" clip-path="url(#pcb6573c58f)" style="fill: none; stroke: #000000; stroke-width: 1.2"/>
    <path d="M 103.969729 89.898785 
L 68.075282 124.907255 
" clip-path="url(#pcb6573c58f)" style="fill: none; stroke: #000000; stroke-width: 1.2"/>
    <path d="M 103.969729 89.898785 
L 150.285847 119.366041 
" clip-path="url(#pcb6573c58f)" style="fill: none; stroke: #000000; stroke-width: 1.2"/>
    <path d="M 103.969729 89.898785 
L 98.431925 127.244969 
" clip-path="url(#pcb6573c58f)" style="fill: none; stroke: #000000; stroke-width: 1.2"/>
    <path d="M 139.205742 89.864576 
L 113.055557 110.267939 
" clip-path="url(#pcb6573c58f)" style="fill: none; stroke: #000000; stroke-width: 1.2"/>
    <path d="M 139.205742 89.864576 
L 134.107335 103.855772 
" clip-path="url(#pcb6573c58f)" style="fill: none; stroke: #000000; stroke-width: 1.2"/>
    <path d="M 139.205742 89.864576 
L 93.639135 98.195987 
" clip-path="url(#pcb6573c58f)" style="fill: none; stroke: #000000; stroke-width: 1.2"/>
    <path d="M 139.205742 89.864576 
L 150.285847 119.366041 
" clip-path="url(#pcb6573c58f)" style="fill: none; stroke: #000000; stroke-width: 1.2"/>
    <path d="M 139.205742 89.864576 
L 108.489625 124.439413 
" clip-path="url(#pcb6573c58f)" style="fill: none; stroke: #000000; stroke-width: 1.2"/>
    <path d="M 139.205742 89.864576 
L 147.675444 133.643289 
" clip-path="url(#pcb6573c58f)" style="fill: none; stroke: #000000; stroke-width: 1.2"/>
    <path d="M 60.051271 104.327026 
L 113.055557 110.267939 
" clip-path="url(#pcb6573c58f)" style="fill: none; stroke: #000000; stroke-width: 1.2"/>
    <path d="M 60.051271 104.327026 
L 76.179469 103.976421 
" clip-path="url(#pcb6573c58f)" style="fill: none; stroke: #000000; stroke-width: 1.2"/>
    <path d="M 60.051271 104.327026 
L 93.639135 98.195987 
" clip-path="url(#pcb6573c58f)" style="fill: none; stroke: #000000; stroke-width: 1.2"/>
    <path d="M 60.051271 104.327026 
L 125.262689 90.154594 
" clip-path="url(#pcb6573c58f)" style="fill: none; stroke: #000000; stroke-width: 1.2"/>
    <path d="M 60.051271 104.327026 
L 64.123844 136.739071 
" clip-path="url(#pcb6573c58f)" style="fill: none; stroke: #000000; stroke-width: 1.2"/>
    <path d="M 60.051271 104.327026 
L 84.853888 145.600948 
" clip-path="url(#pcb6573c58f)" style="fill: none; stroke: #000000; stroke-width: 1.2"/>
    <path d="M 60.051271 104.327026 
L 98.431925 127.244969 
" clip-path="url(#pcb6573c58f)" style="fill: none; stroke: #000000; stroke-width: 1.2"/>
    <path d="M 113.055557 110.267939 
L 76.179469 103.976421 
" clip-path="url(#pcb6573c58f)" style="fill: none; stroke: #000000; stroke-width: 1.2"/>
    <path d="M 113.055557 110.267939 
L 134.107335 103.855772 
" clip-path="url(#pcb6573c58f)" style="fill: none; stroke: #000000; stroke-width: 1.2"/>
    <path d="M 113.055557 110.267939 
L 116.04897 144.332694 
" clip-path="url(#pcb6573c58f)" style="fill: none; stroke: #000000; stroke-width: 1.2"/>
    <path d="M 113.055557 110.267939 
L 84.853888 145.600948 
" clip-path="url(#pcb6573c58f)" style="fill: none; stroke: #000000; stroke-width: 1.2"/>
    <path d="M 113.055557 110.267939 
L 147.675444 133.643289 
" clip-path="url(#pcb6573c58f)" style="fill: none; stroke: #000000; stroke-width: 1.2"/>
    <path d="M 76.179469 103.976421 
L 134.107335 103.855772 
" clip-path="url(#pcb6573c58f)" style="fill: none; stroke: #000000; stroke-width: 1.2"/>
    <path d="M 76.179469 103.976421 
L 68.075282 124.907255 
" clip-path="url(#pcb6573c58f)" style="fill: none; stroke: #000000; stroke-width: 1.2"/>
    <path d="M 76.179469 103.976421 
L 84.853888 145.600948 
" clip-path="url(#pcb6573c58f)" style="fill: none; stroke: #000000; stroke-width: 1.2"/>
    <path d="M 76.179469 103.976421 
L 104.151515 142.045679 
" clip-path="url(#pcb6573c58f)" style="fill: none; stroke: #000000; stroke-width: 1.2"/>
    <path d="M 134.107335 103.855772 
L 93.639135 98.195987 
" clip-path="url(#pcb6573c58f)" style="fill: none; stroke: #000000; stroke-width: 1.2"/>
    <path d="M 134.107335 103.855772 
L 125.262689 90.154594 
" clip-path="url(#pcb6573c58f)" style="fill: none; stroke: #000000; stroke-width: 1.2"/>
    <path d="M 134.107335 103.855772 
L 104.151515 142.045679 
" clip-path="url(#pcb6573c58f)" style="fill: none; stroke: #000000; stroke-width: 1.2"/>
    <path d="M 134.107335 103.855772 
L 147.675444 133.643289 
" clip-path="url(#pcb6573c58f)" style="fill: none; stroke: #000000; stroke-width: 1.2"/>
    <path d="M 134.107335 103.855772 
L 129.456188 136.940157 
" clip-path="url(#pcb6573c58f)" style="fill: none; stroke: #000000; stroke-width: 1.2"/>
    <path d="M 93.639135 98.195987 
L 125.262689 90.154594 
" clip-path="url(#pcb6573c58f)" style="fill: none; stroke: #000000; stroke-width: 1.2"/>
    <path d="M 93.639135 98.195987 
L 108.489625 124.439413 
" clip-path="url(#pcb6573c58f)" style="fill: none; stroke: #000000; stroke-width: 1.2"/>
    <path d="M 93.639135 98.195987 
L 64.123844 136.739071 
" clip-path="url(#pcb6573c58f)" style="fill: none; stroke: #000000; stroke-width: 1.2"/>
    <path d="M 93.639135 98.195987 
L 129.456188 136.940157 
" clip-path="url(#pcb6573c58f)" style="fill: none; stroke: #000000; stroke-width: 1.2"/>
    <path d="M 125.262689 90.154594 
L 134.287163 124.834295 
" clip-path="url(#pcb6573c58f)" style="fill: none; stroke: #000000; stroke-width: 1.2"/>
    <path d="M 125.262689 90.154594 
L 129.456188 136.940157 
" clip-path="url(#pcb6573c58f)" style="fill: none; stroke: #000000; stroke-width: 1.2"/>
    <path d="M 125.262689 90.154594 
L 98.431925 127.244969 
" clip-path="url(#pcb6573c58f)" style="fill: none; stroke: #000000; stroke-width: 1.2"/>
    <path d="M 68.075282 124.907255 
L 76.557661 135.478845 
" clip-path="url(#pcb6573c58f)" style="fill: none; stroke: #000000; stroke-width: 1.2"/>
    <path d="M 68.075282 124.907255 
L 150.285847 119.366041 
" clip-path="url(#pcb6573c58f)" style="fill: none; stroke: #000000; stroke-width: 1.2"/>
    <path d="M 68.075282 124.907255 
L 108.489625 124.439413 
" clip-path="url(#pcb6573c58f)" style="fill: none; stroke: #000000; stroke-width: 1.2"/>
    <path d="M 68.075282 124.907255 
L 84.853888 145.600948 
" clip-path="url(#pcb6573c58f)" style="fill: none; stroke: #000000; stroke-width: 1.2"/>
    <path d="M 68.075282 124.907255 
L 104.151515 142.045679 
" clip-path="url(#pcb6573c58f)" style="fill: none; stroke: #000000; stroke-width: 1.2"/>
    <path d="M 68.075282 124.907255 
L 98.431925 127.244969 
" clip-path="url(#pcb6573c58f)" style="fill: none; stroke: #000000; stroke-width: 1.2"/>
    <path d="M 76.557661 135.478845 
L 116.04897 144.332694 
" clip-path="url(#pcb6573c58f)" style="fill: none; stroke: #000000; stroke-width: 1.2"/>
    <path d="M 76.557661 135.478845 
L 134.287163 124.834295 
" clip-path="url(#pcb6573c58f)" style="fill: none; stroke: #000000; stroke-width: 1.2"/>
    <path d="M 76.557661 135.478845 
L 108.489625 124.439413 
" clip-path="url(#pcb6573c58f)" style="fill: none; stroke: #000000; stroke-width: 1.2"/>
    <path d="M 76.557661 135.478845 
L 64.123844 136.739071 
" clip-path="url(#pcb6573c58f)" style="fill: none; stroke: #000000; stroke-width: 1.2"/>
    <path d="M 76.557661 135.478845 
L 104.151515 142.045679 
" clip-path="url(#pcb6573c58f)" style="fill: none; stroke: #000000; stroke-width: 1.2"/>
    <path d="M 116.04897 144.332694 
L 134.287163 124.834295 
" clip-path="url(#pcb6573c58f)" style="fill: none; stroke: #000000; stroke-width: 1.2"/>
    <path d="M 116.04897 144.332694 
L 150.285847 119.366041 
" clip-path="url(#pcb6573c58f)" style="fill: none; stroke: #000000; stroke-width: 1.2"/>
    <path d="M 116.04897 144.332694 
L 64.123844 136.739071 
" clip-path="url(#pcb6573c58f)" style="fill: none; stroke: #000000; stroke-width: 1.2"/>
    <path d="M 116.04897 144.332694 
L 84.853888 145.600948 
" clip-path="url(#pcb6573c58f)" style="fill: none; stroke: #000000; stroke-width: 1.2"/>
    <path d="M 116.04897 144.332694 
L 147.675444 133.643289 
" clip-path="url(#pcb6573c58f)" style="fill: none; stroke: #000000; stroke-width: 1.2"/>
    <path d="M 116.04897 144.332694 
L 118.556108 181.58539 
" clip-path="url(#pcb6573c58f)" style="fill: none; stroke: #000000; stroke-width: 1.2"/>
    <path d="M 134.287163 124.834295 
L 150.285847 119.366041 
" clip-path="url(#pcb6573c58f)" style="fill: none; stroke: #000000; stroke-width: 1.2"/>
    <path d="M 134.287163 124.834295 
L 104.151515 142.045679 
" clip-path="url(#pcb6573c58f)" style="fill: none; stroke: #000000; stroke-width: 1.2"/>
    <path d="M 134.287163 124.834295 
L 129.456188 136.940157 
" clip-path="url(#pcb6573c58f)" style="fill: none; stroke: #000000; stroke-width: 1.2"/>
    <path d="M 134.287163 124.834295 
L 98.431925 127.244969 
" clip-path="url(#pcb6573c58f)" style="fill: none; stroke: #000000; stroke-width: 1.2"/>
    <path d="M 150.285847 119.366041 
L 108.489625 124.439413 
" clip-path="url(#pcb6573c58f)" style="fill: none; stroke: #000000; stroke-width: 1.2"/>
    <path d="M 150.285847 119.366041 
L 147.675444 133.643289 
" clip-path="url(#pcb6573c58f)" style="fill: none; stroke: #000000; stroke-width: 1.2"/>
    <path d="M 150.285847 119.366041 
L 98.431925 127.244969 
" clip-path="url(#pcb6573c58f)" style="fill: none; stroke: #000000; stroke-width: 1.2"/>
    <path d="M 150.285847 119.366041 
L 188.378483 138.141646 
" clip-path="url(#pcb6573c58f)" style="fill: none; stroke: #000000; stroke-width: 1.2"/>
    <path d="M 108.489625 124.439413 
L 64.123844 136.739071 
" clip-path="url(#pcb6573c58f)" style="fill: none; stroke: #000000; stroke-width: 1.2"/>
    <path d="M 108.489625 124.439413 
L 147.675444 133.643289 
" clip-path="url(#pcb6573c58f)" style="fill: none; stroke: #000000; stroke-width: 1.2"/>
    <path d="M 108.489625 124.439413 
L 129.456188 136.940157 
" clip-path="url(#pcb6573c58f)" style="fill: none; stroke: #000000; stroke-width: 1.2"/>
    <path d="M 64.123844 136.739071 
L 84.853888 145.600948 
" clip-path="url(#pcb6573c58f)" style="fill: none; stroke: #000000; stroke-width: 1.2"/>
    <path d="M 64.123844 136.739071 
L 129.456188 136.940157 
" clip-path="url(#pcb6573c58f)" style="fill: none; stroke: #000000; stroke-width: 1.2"/>
    <path d="M 64.123844 136.739071 
L 98.431925 127.244969 
" clip-path="url(#pcb6573c58f)" style="fill: none; stroke: #000000; stroke-width: 1.2"/>
    <path d="M 84.853888 145.600948 
L 104.151515 142.045679 
" clip-path="url(#pcb6573c58f)" style="fill: none; stroke: #000000; stroke-width: 1.2"/>
    <path d="M 84.853888 145.600948 
L 147.675444 133.643289 
" clip-path="url(#pcb6573c58f)" style="fill: none; stroke: #000000; stroke-width: 1.2"/>
    <path d="M 84.853888 145.600948 
L 98.431925 127.244969 
" clip-path="url(#pcb6573c58f)" style="fill: none; stroke: #000000; stroke-width: 1.2"/>
    <path d="M 84.853888 145.600948 
L 84.340862 176.677262 
" clip-path="url(#pcb6573c58f)" style="fill: none; stroke: #000000; stroke-width: 1.2"/>
    <path d="M 104.151515 142.045679 
L 147.675444 133.643289 
" clip-path="url(#pcb6573c58f)" style="fill: none; stroke: #000000; stroke-width: 1.2"/>
    <path d="M 104.151515 142.045679 
L 129.456188 136.940157 
" clip-path="url(#pcb6573c58f)" style="fill: none; stroke: #000000; stroke-width: 1.2"/>
    <path d="M 104.151515 142.045679 
L 84.340862 176.677262 
" clip-path="url(#pcb6573c58f)" style="fill: none; stroke: #000000; stroke-width: 1.2"/>
    <path d="M 147.675444 133.643289 
L 129.456188 136.940157 
" clip-path="url(#pcb6573c58f)" style="fill: none; stroke: #000000; stroke-width: 1.2"/>
    <path d="M 147.675444 133.643289 
L 171.437481 154.529389 
" clip-path="url(#pcb6573c58f)" style="fill: none; stroke: #000000; stroke-width: 1.2"/>
    <path d="M 147.675444 133.643289 
L 188.378483 138.141646 
" clip-path="url(#pcb6573c58f)" style="fill: none; stroke: #000000; stroke-width: 1.2"/>
    <path d="M 129.456188 136.940157 
L 98.431925 127.244969 
" clip-path="url(#pcb6573c58f)" style="fill: none; stroke: #000000; stroke-width: 1.2"/>
    <path d="M 129.456188 136.940157 
L 171.437481 154.529389 
" clip-path="url(#pcb6573c58f)" style="fill: none; stroke: #000000; stroke-width: 1.2"/>
    <path d="M 84.340862 176.677262 
L 118.299763 206.455885 
" clip-path="url(#pcb6573c58f)" style="fill: none; stroke: #000000; stroke-width: 1.2"/>
    <path d="M 98.696897 237.076364 
L 118.299763 206.455885 
" clip-path="url(#pcb6573c58f)" style="fill: none; stroke: #000000; stroke-width: 1.2"/>
    <path d="M 118.556108 181.58539 
L 118.299763 206.455885 
" clip-path="url(#pcb6573c58f)" style="fill: none; stroke: #000000; stroke-width: 1.2"/>
    <path d="M 239.831405 184.13414 
L 196.453718 176.423219 
" clip-path="url(#pcb6573c58f)" style="fill: none; stroke: #000000; stroke-width: 1.2"/>
    <path d="M 171.437481 154.529389 
L 196.453718 176.423219 
" clip-path="url(#pcb6573c58f)" style="fill: none; stroke: #000000; stroke-width: 1.2"/>
    <path d="M 188.378483 138.141646 
L 196.453718 176.423219 
" clip-path="url(#pcb6573c58f)" style="fill: none; stroke: #000000; stroke-width: 1.2"/>
    <path d="M 118.299763 206.455885 
L 170.720716 211.910237 
" clip-path="url(#pcb6573c58f)" style="fill: none; stroke: #000000; stroke-width: 1.2"/>
    <path d="M 196.453718 176.423219 
L 170.720716 211.910237 
" clip-path="url(#pcb6573c58f)" style="fill: none; stroke: #000000; stroke-width: 1.2"/>
   </g>
   <g id="PathCollection_1">
    <defs>
     <path id="C0_0_bc9e2eb897" d="M 0 8.944272 
C 2.372049 8.944272 4.647264 8.001847 6.324555 6.324555 
C 8.001847 4.647264 8.944272 2.372049 8.944272 -0 
C 8.944272 -2.372049 8.001847 -4.647264 6.324555 -6.324555 
C 4.647264 -8.001847 2.372049 -8.944272 0 -8.944272 
C -2.372049 -8.944272 -4.647264 -8.001847 -6.324555 -6.324555 
C -8.001847 -4.647264 -8.944272 -2.372049 -8.944272 0 
C -8.944272 2.372049 -8.001847 4.647264 -6.324555 6.324555 
C -4.647264 8.001847 -2.372049 8.944272 0 8.944272 
z
"/>
    </defs>
    <g clip-path="url(#pcb6573c58f)">
     <use xlink:href="#C0_0_bc9e2eb897" x="70.778758" y="58.683914" style="fill: #c78033; stroke: #c78033; stroke-width: 0.5"/>
    </g>
    <g clip-path="url(#pcb6573c58f)">
     <use xlink:href="#C0_0_bc9e2eb897" x="55.368595" y="73.496752" style="fill: #c78033; stroke: #c78033; stroke-width: 0.5"/>
    </g>
    <g clip-path="url(#pcb6573c58f)">
     <use xlink:href="#C0_0_bc9e2eb897" x="100.337646" y="67.007218" style="fill: #c78033; stroke: #c78033; stroke-width: 0.5"/>
    </g>
    <g clip-path="url(#pcb6573c58f)">
     <use xlink:href="#C0_0_bc9e2eb897" x="133.689869" y="58.60649" style="fill: #c78033; stroke: #c78033; stroke-width: 0.5"/>
    </g>
    <g clip-path="url(#pcb6573c58f)">
     <use xlink:href="#C0_0_bc9e2eb897" x="146.738082" y="70.927228" style="fill: #c78033; stroke: #c78033; stroke-width: 0.5"/>
    </g>
    <g clip-path="url(#pcb6573c58f)">
     <use xlink:href="#C0_0_bc9e2eb897" x="100.466738" y="53.803636" style="fill: #c78033; stroke: #c78033; stroke-width: 0.5"/>
    </g>
    <g clip-path="url(#pcb6573c58f)">
     <use xlink:href="#C0_0_bc9e2eb897" x="74.312153" y="79.998608" style="fill: #c78033; stroke: #c78033; stroke-width: 0.5"/>
    </g>
    <g clip-path="url(#pcb6573c58f)">
     <use xlink:href="#C0_0_bc9e2eb897" x="62.608092" y="68.24103" style="fill: #c78033; stroke: #c78033; stroke-width: 0.5"/>
    </g>
    <g clip-path="url(#pcb6573c58f)">
     <use xlink:href="#C0_0_bc9e2eb897" x="106.551459" y="73.013041" style="fill: #c78033; stroke: #c78033; stroke-width: 0.5"/>
    </g>
    <g clip-path="url(#pcb6573c58f)">
     <use xlink:href="#C0_0_bc9e2eb897" x="127.813781" y="65.643612" style="fill: #c78033; stroke: #c78033; stroke-width: 0.5"/>
    </g>
    <g clip-path="url(#pcb6573c58f)">
     <use xlink:href="#C0_0_bc9e2eb897" x="119.063252" y="54.422821" style="fill: #c78033; stroke: #c78033; stroke-width: 0.5"/>
    </g>
    <g clip-path="url(#pcb6573c58f)">
     <use xlink:href="#C0_0_bc9e2eb897" x="86.319645" y="60.078578" style="fill: #c78033; stroke: #c78033; stroke-width: 0.5"/>
    </g>
    <g clip-path="url(#pcb6573c58f)">
     <use xlink:href="#C0_0_bc9e2eb897" x="66.844114" y="92.672326" style="fill: #c78033; stroke: #c78033; stroke-width: 0.5"/>
    </g>
    <g clip-path="url(#pcb6573c58f)">
     <use xlink:href="#C0_0_bc9e2eb897" x="102.486966" y="99.423252" style="fill: #c78033; stroke: #c78033; stroke-width: 0.5"/>
    </g>
    <g clip-path="url(#pcb6573c58f)">
     <use xlink:href="#C0_0_bc9e2eb897" x="75.609024" y="111.143672" style="fill: #c78033; stroke: #c78033; stroke-width: 0.5"/>
    </g>
    <g clip-path="url(#pcb6573c58f)">
     <use xlink:href="#C0_0_bc9e2eb897" x="144.425779" y="99.330341" style="fill: #c78033; stroke: #c78033; stroke-width: 0.5"/>
    </g>
    <g clip-path="url(#pcb6573c58f)">
     <use xlink:href="#C0_0_bc9e2eb897" x="103.969729" y="89.898785" style="fill: #c78033; stroke: #c78033; stroke-width: 0.5"/>
    </g>
    <g clip-path="url(#pcb6573c58f)">
     <use xlink:href="#C0_0_bc9e2eb897" x="139.205742" y="89.864576" style="fill: #c78033; stroke: #c78033; stroke-width: 0.5"/>
    </g>
    <g clip-path="url(#pcb6573c58f)">
     <use xlink:href="#C0_0_bc9e2eb897" x="60.051271" y="104.327026" style="fill: #c78033; stroke: #c78033; stroke-width: 0.5"/>
    </g>
    <g clip-path="url(#pcb6573c58f)">
     <use xlink:href="#C0_0_bc9e2eb897" x="113.055557" y="110.267939" style="fill: #c78033; stroke: #c78033; stroke-width: 0.5"/>
    </g>
    <g clip-path="url(#pcb6573c58f)">
     <use xlink:href="#C0_0_bc9e2eb897" x="76.179469" y="103.976421" style="fill: #c78033; stroke: #c78033; stroke-width: 0.5"/>
    </g>
    <g clip-path="url(#pcb6573c58f)">
     <use xlink:href="#C0_0_bc9e2eb897" x="134.107335" y="103.855772" style="fill: #c78033; stroke: #c78033; stroke-width: 0.5"/>
    </g>
    <g clip-path="url(#pcb6573c58f)">
     <use xlink:href="#C0_0_bc9e2eb897" x="93.639135" y="98.195987" style="fill: #c78033; stroke: #c78033; stroke-width: 0.5"/>
    </g>
    <g clip-path="url(#pcb6573c58f)">
     <use xlink:href="#C0_0_bc9e2eb897" x="125.262689" y="90.154594" style="fill: #c78033; stroke: #c78033; stroke-width: 0.5"/>
    </g>
    <g clip-path="url(#pcb6573c58f)">
     <use xlink:href="#C0_0_bc9e2eb897" x="68.075282" y="124.907255" style="fill: #c78033; stroke: #c78033; stroke-width: 0.5"/>
    </g>
    <g clip-path="url(#pcb6573c58f)">
     <use xlink:href="#C0_0_bc9e2eb897" x="76.557661" y="135.478845" style="fill: #c78033; stroke: #c78033; stroke-width: 0.5"/>
    </g>
    <g clip-path="url(#pcb6573c58f)">
     <use xlink:href="#C0_0_bc9e2eb897" x="116.04897" y="144.332694" style="fill: #c78033; stroke: #c78033; stroke-width: 0.5"/>
    </g>
    <g clip-path="url(#pcb6573c58f)">
     <use xlink:href="#C0_0_bc9e2eb897" x="134.287163" y="124.834295" style="fill: #c78033; stroke: #c78033; stroke-width: 0.5"/>
    </g>
    <g clip-path="url(#pcb6573c58f)">
     <use xlink:href="#C0_0_bc9e2eb897" x="150.285847" y="119.366041" style="fill: #c78033; stroke: #c78033; stroke-width: 0.5"/>
    </g>
    <g clip-path="url(#pcb6573c58f)">
     <use xlink:href="#C0_0_bc9e2eb897" x="108.489625" y="124.439413" style="fill: #c78033; stroke: #c78033; stroke-width: 0.5"/>
    </g>
    <g clip-path="url(#pcb6573c58f)">
     <use xlink:href="#C0_0_bc9e2eb897" x="64.123844" y="136.739071" style="fill: #c78033; stroke: #c78033; stroke-width: 0.5"/>
    </g>
    <g clip-path="url(#pcb6573c58f)">
     <use xlink:href="#C0_0_bc9e2eb897" x="84.853888" y="145.600948" style="fill: #c78033; stroke: #c78033; stroke-width: 0.5"/>
    </g>
    <g clip-path="url(#pcb6573c58f)">
     <use xlink:href="#C0_0_bc9e2eb897" x="104.151515" y="142.045679" style="fill: #c78033; stroke: #c78033; stroke-width: 0.5"/>
    </g>
    <g clip-path="url(#pcb6573c58f)">
     <use xlink:href="#C0_0_bc9e2eb897" x="147.675444" y="133.643289" style="fill: #c78033; stroke: #c78033; stroke-width: 0.5"/>
    </g>
    <g clip-path="url(#pcb6573c58f)">
     <use xlink:href="#C0_0_bc9e2eb897" x="129.456188" y="136.940157" style="fill: #c78033; stroke: #c78033; stroke-width: 0.5"/>
    </g>
    <g clip-path="url(#pcb6573c58f)">
     <use xlink:href="#C0_0_bc9e2eb897" x="98.431925" y="127.244969" style="fill: #c78033; stroke: #c78033; stroke-width: 0.5"/>
    </g>
    <g clip-path="url(#pcb6573c58f)">
     <use xlink:href="#C0_0_bc9e2eb897" x="84.340862" y="176.677262" style="fill: #bfbfbf; stroke: #bfbfbf; stroke-width: 0.5"/>
    </g>
    <g clip-path="url(#pcb6573c58f)">
     <use xlink:href="#C0_0_bc9e2eb897" x="98.696897" y="237.076364" style="fill: #bfbfbf; stroke: #bfbfbf; stroke-width: 0.5"/>
    </g>
    <g clip-path="url(#pcb6573c58f)">
     <use xlink:href="#C0_0_bc9e2eb897" x="118.556108" y="181.58539" style="fill: #bfbfbf; stroke: #bfbfbf; stroke-width: 0.5"/>
    </g>
    <g clip-path="url(#pcb6573c58f)">
     <use xlink:href="#C0_0_bc9e2eb897" x="239.831405" y="184.13414" style="fill: #bfbfbf; stroke: #bfbfbf; stroke-width: 0.5"/>
    </g>
    <g clip-path="url(#pcb6573c58f)">
     <use xlink:href="#C0_0_bc9e2eb897" x="171.437481" y="154.529389" style="fill: #bfbfbf; stroke: #bfbfbf; stroke-width: 0.5"/>
    </g>
    <g clip-path="url(#pcb6573c58f)">
     <use xlink:href="#C0_0_bc9e2eb897" x="188.378483" y="138.141646" style="fill: #bfbfbf; stroke: #bfbfbf; stroke-width: 0.5"/>
    </g>
    <g clip-path="url(#pcb6573c58f)">
     <use xlink:href="#C0_0_bc9e2eb897" x="118.299763" y="206.455885" style="fill: #666666; stroke: #666666; stroke-width: 0.5"/>
    </g>
    <g clip-path="url(#pcb6573c58f)">
     <use xlink:href="#C0_0_bc9e2eb897" x="196.453718" y="176.423219" style="fill: #666666; stroke: #666666; stroke-width: 0.5"/>
    </g>
    <g clip-path="url(#pcb6573c58f)">
     <use xlink:href="#C0_0_bc9e2eb897" x="170.720716" y="211.910237" style="fill: #ff0d0d; stroke: #ff0d0d; stroke-width: 0.5"/>
    </g>
   </g>
   <g id="text_1">
    <!-- C2H6Cu48O -->
    <g transform="translate(117.725183 -3.341526) scale(0.1 -0.1)">
     <defs>
      <path id="DejaVuSans-43" d="M 4122 4306 
L 4122 3641 
Q 3803 3938 3442 4084 
Q 3081 4231 2675 4231 
Q 1875 4231 1450 3742 
Q 1025 3253 1025 2328 
Q 1025 1406 1450 917 
Q 1875 428 2675 428 
Q 3081 428 3442 575 
Q 3803 722 4122 1019 
L 4122 359 
Q 3791 134 3420 21 
Q 3050 -91 2638 -91 
Q 1578 -91 968 557 
Q 359 1206 359 2328 
Q 359 3453 968 4101 
Q 1578 4750 2638 4750 
Q 3056 4750 3426 4639 
Q 3797 4528 4122 4306 
z
" transform="scale(0.015625)"/>
      <path id="DejaVuSans-32" d="M 1228 531 
L 3431 531 
L 3431 0 
L 469 0 
L 469 531 
Q 828 903 1448 1529 
Q 2069 2156 2228 2338 
Q 2531 2678 2651 2914 
Q 2772 3150 2772 3378 
Q 2772 3750 2511 3984 
Q 2250 4219 1831 4219 
Q 1534 4219 1204 4116 
Q 875 4013 500 3803 
L 500 4441 
Q 881 4594 1212 4672 
Q 1544 4750 1819 4750 
Q 2544 4750 2975 4387 
Q 3406 4025 3406 3419 
Q 3406 3131 3298 2873 
Q 3191 2616 2906 2266 
Q 2828 2175 2409 1742 
Q 1991 1309 1228 531 
z
" transform="scale(0.015625)"/>
      <path id="DejaVuSans-48" d="M 628 4666 
L 1259 4666 
L 1259 2753 
L 3553 2753 
L 3553 4666 
L 4184 4666 
L 4184 0 
L 3553 0 
L 3553 2222 
L 1259 2222 
L 1259 0 
L 628 0 
L 628 4666 
z
" transform="scale(0.015625)"/>
      <path id="DejaVuSans-36" d="M 2113 2584 
Q 1688 2584 1439 2293 
Q 1191 2003 1191 1497 
Q 1191 994 1439 701 
Q 1688 409 2113 409 
Q 2538 409 2786 701 
Q 3034 994 3034 1497 
Q 3034 2003 2786 2293 
Q 2538 2584 2113 2584 
z
M 3366 4563 
L 3366 3988 
Q 3128 4100 2886 4159 
Q 2644 4219 2406 4219 
Q 1781 4219 1451 3797 
Q 1122 3375 1075 2522 
Q 1259 2794 1537 2939 
Q 1816 3084 2150 3084 
Q 2853 3084 3261 2657 
Q 3669 2231 3669 1497 
Q 3669 778 3244 343 
Q 2819 -91 2113 -91 
Q 1303 -91 875 529 
Q 447 1150 447 2328 
Q 447 3434 972 4092 
Q 1497 4750 2381 4750 
Q 2619 4750 2861 4703 
Q 3103 4656 3366 4563 
z
" transform="scale(0.015625)"/>
      <path id="DejaVuSans-75" d="M 544 1381 
L 544 3500 
L 1119 3500 
L 1119 1403 
Q 1119 906 1312 657 
Q 1506 409 1894 409 
Q 2359 409 2629 706 
Q 2900 1003 2900 1516 
L 2900 3500 
L 3475 3500 
L 3475 0 
L 2900 0 
L 2900 538 
Q 2691 219 2414 64 
Q 2138 -91 1772 -91 
Q 1169 -91 856 284 
Q 544 659 544 1381 
z
M 1991 3584 
L 1991 3584 
z
" transform="scale(0.015625)"/>
      <path id="DejaVuSans-34" d="M 2419 4116 
L 825 1625 
L 2419 1625 
L 2419 4116 
z
M 2253 4666 
L 3047 4666 
L 3047 1625 
L 3713 1625 
L 3713 1100 
L 3047 1100 
L 3047 0 
L 2419 0 
L 2419 1100 
L 313 1100 
L 313 1709 
L 2253 4666 
z
" transform="scale(0.015625)"/>
      <path id="DejaVuSans-38" d="M 2034 2216 
Q 1584 2216 1326 1975 
Q 1069 1734 1069 1313 
Q 1069 891 1326 650 
Q 1584 409 2034 409 
Q 2484 409 2743 651 
Q 3003 894 3003 1313 
Q 3003 1734 2745 1975 
Q 2488 2216 2034 2216 
z
M 1403 2484 
Q 997 2584 770 2862 
Q 544 3141 544 3541 
Q 544 4100 942 4425 
Q 1341 4750 2034 4750 
Q 2731 4750 3128 4425 
Q 3525 4100 3525 3541 
Q 3525 3141 3298 2862 
Q 3072 2584 2669 2484 
Q 3125 2378 3379 2068 
Q 3634 1759 3634 1313 
Q 3634 634 3220 271 
Q 2806 -91 2034 -91 
Q 1263 -91 848 271 
Q 434 634 434 1313 
Q 434 1759 690 2068 
Q 947 2378 1403 2484 
z
M 1172 3481 
Q 1172 3119 1398 2916 
Q 1625 2713 2034 2713 
Q 2441 2713 2670 2916 
Q 2900 3119 2900 3481 
Q 2900 3844 2670 4047 
Q 2441 4250 2034 4250 
Q 1625 4250 1398 4047 
Q 1172 3844 1172 3481 
z
" transform="scale(0.015625)"/>
      <path id="DejaVuSans-4f" d="M 2522 4238 
Q 1834 4238 1429 3725 
Q 1025 3213 1025 2328 
Q 1025 1447 1429 934 
Q 1834 422 2522 422 
Q 3209 422 3611 934 
Q 4013 1447 4013 2328 
Q 4013 3213 3611 3725 
Q 3209 4238 2522 4238 
z
M 2522 4750 
Q 3503 4750 4090 4092 
Q 4678 3434 4678 2328 
Q 4678 1225 4090 567 
Q 3503 -91 2522 -91 
Q 1538 -91 948 565 
Q 359 1222 359 2328 
Q 359 3434 948 4092 
Q 1538 4750 2522 4750 
z
" transform="scale(0.015625)"/>
     </defs>
     <use xlink:href="#DejaVuSans-43"/>
     <use xlink:href="#DejaVuSans-32" transform="translate(69.824219 0)"/>
     <use xlink:href="#DejaVuSans-48" transform="translate(133.447266 0)"/>
     <use xlink:href="#DejaVuSans-36" transform="translate(208.642578 0)"/>
     <use xlink:href="#DejaVuSans-43" transform="translate(272.265625 0)"/>
     <use xlink:href="#DejaVuSans-75" transform="translate(342.089844 0)"/>
     <use xlink:href="#DejaVuSans-34" transform="translate(405.46875 0)"/>
     <use xlink:href="#DejaVuSans-38" transform="translate(469.091797 0)"/>
     <use xlink:href="#DejaVuSans-4f" transform="translate(532.714844 0)"/>
    </g>
    <!-- Error: -7.57 eV -->
    <g transform="translate(117.725183 7.856287) scale(0.1 -0.1)">
     <defs>
      <path id="DejaVuSans-45" d="M 628 4666 
L 3578 4666 
L 3578 4134 
L 1259 4134 
L 1259 2753 
L 3481 2753 
L 3481 2222 
L 1259 2222 
L 1259 531 
L 3634 531 
L 3634 0 
L 628 0 
L 628 4666 
z
" transform="scale(0.015625)"/>
      <path id="DejaVuSans-72" d="M 2631 2963 
Q 2534 3019 2420 3045 
Q 2306 3072 2169 3072 
Q 1681 3072 1420 2755 
Q 1159 2438 1159 1844 
L 1159 0 
L 581 0 
L 581 3500 
L 1159 3500 
L 1159 2956 
Q 1341 3275 1631 3429 
Q 1922 3584 2338 3584 
Q 2397 3584 2469 3576 
Q 2541 3569 2628 3553 
L 2631 2963 
z
" transform="scale(0.015625)"/>
      <path id="DejaVuSans-6f" d="M 1959 3097 
Q 1497 3097 1228 2736 
Q 959 2375 959 1747 
Q 959 1119 1226 758 
Q 1494 397 1959 397 
Q 2419 397 2687 759 
Q 2956 1122 2956 1747 
Q 2956 2369 2687 2733 
Q 2419 3097 1959 3097 
z
M 1959 3584 
Q 2709 3584 3137 3096 
Q 3566 2609 3566 1747 
Q 3566 888 3137 398 
Q 2709 -91 1959 -91 
Q 1206 -91 779 398 
Q 353 888 353 1747 
Q 353 2609 779 3096 
Q 1206 3584 1959 3584 
z
" transform="scale(0.015625)"/>
      <path id="DejaVuSans-3a" d="M 750 794 
L 1409 794 
L 1409 0 
L 750 0 
L 750 794 
z
M 750 3309 
L 1409 3309 
L 1409 2516 
L 750 2516 
L 750 3309 
z
" transform="scale(0.015625)"/>
      <path id="DejaVuSans-20" transform="scale(0.015625)"/>
      <path id="DejaVuSans-2d" d="M 313 2009 
L 1997 2009 
L 1997 1497 
L 313 1497 
L 313 2009 
z
" transform="scale(0.015625)"/>
      <path id="DejaVuSans-37" d="M 525 4666 
L 3525 4666 
L 3525 4397 
L 1831 0 
L 1172 0 
L 2766 4134 
L 525 4134 
L 525 4666 
z
" transform="scale(0.015625)"/>
      <path id="DejaVuSans-2e" d="M 684 794 
L 1344 794 
L 1344 0 
L 684 0 
L 684 794 
z
" transform="scale(0.015625)"/>
      <path id="DejaVuSans-35" d="M 691 4666 
L 3169 4666 
L 3169 4134 
L 1269 4134 
L 1269 2991 
Q 1406 3038 1543 3061 
Q 1681 3084 1819 3084 
Q 2600 3084 3056 2656 
Q 3513 2228 3513 1497 
Q 3513 744 3044 326 
Q 2575 -91 1722 -91 
Q 1428 -91 1123 -41 
Q 819 9 494 109 
L 494 744 
Q 775 591 1075 516 
Q 1375 441 1709 441 
Q 2250 441 2565 725 
Q 2881 1009 2881 1497 
Q 2881 1984 2565 2268 
Q 2250 2553 1709 2553 
Q 1456 2553 1204 2497 
Q 953 2441 691 2322 
L 691 4666 
z
" transform="scale(0.015625)"/>
      <path id="DejaVuSans-65" d="M 3597 1894 
L 3597 1613 
L 953 1613 
Q 991 1019 1311 708 
Q 1631 397 2203 397 
Q 2534 397 2845 478 
Q 3156 559 3463 722 
L 3463 178 
Q 3153 47 2828 -22 
Q 2503 -91 2169 -91 
Q 1331 -91 842 396 
Q 353 884 353 1716 
Q 353 2575 817 3079 
Q 1281 3584 2069 3584 
Q 2775 3584 3186 3129 
Q 3597 2675 3597 1894 
z
M 3022 2063 
Q 3016 2534 2758 2815 
Q 2500 3097 2075 3097 
Q 1594 3097 1305 2825 
Q 1016 2553 972 2059 
L 3022 2063 
z
" transform="scale(0.015625)"/>
      <path id="DejaVuSans-56" d="M 1831 0 
L 50 4666 
L 709 4666 
L 2188 738 
L 3669 4666 
L 4325 4666 
L 2547 0 
L 1831 0 
z
" transform="scale(0.015625)"/>
     </defs>
     <use xlink:href="#DejaVuSans-45"/>
     <use xlink:href="#DejaVuSans-72" transform="translate(63.183594 0)"/>
     <use xlink:href="#DejaVuSans-72" transform="translate(102.546875 0)"/>
     <use xlink:href="#DejaVuSans-6f" transform="translate(141.410156 0)"/>
     <use xlink:href="#DejaVuSans-72" transform="translate(202.591797 0)"/>
     <use xlink:href="#DejaVuSans-3a" transform="translate(241.955078 0)"/>
     <use xlink:href="#DejaVuSans-20" transform="translate(275.646484 0)"/>
     <use xlink:href="#DejaVuSans-2d" transform="translate(307.433594 0)"/>
     <use xlink:href="#DejaVuSans-37" transform="translate(343.517578 0)"/>
     <use xlink:href="#DejaVuSans-2e" transform="translate(407.140625 0)"/>
     <use xlink:href="#DejaVuSans-35" transform="translate(438.927734 0)"/>
     <use xlink:href="#DejaVuSans-37" transform="translate(502.550781 0)"/>
     <use xlink:href="#DejaVuSans-20" transform="translate(566.173828 0)"/>
     <use xlink:href="#DejaVuSans-65" transform="translate(597.960938 0)"/>
     <use xlink:href="#DejaVuSans-56" transform="translate(659.484375 0)"/>
    </g>
   </g>
  </g>
 </g>
 <defs>
  <clipPath id="pcb6573c58f">
   <rect x="36" y="34.56" width="223.2" height="221.76"/>
  </clipPath>
 </defs>
</svg>
