<?xml version="1.0" encoding="utf-8" standalone="no"?>
<!DOCTYPE svg PUBLIC "-//W3C//DTD SVG 1.1//EN"
  "http://www.w3.org/Graphics/SVG/1.1/DTD/svg11.dtd">
<svg xmlns:xlink="http://www.w3.org/1999/xlink" width="288pt" height="288pt" viewBox="0 0 288 288" xmlns="http://www.w3.org/2000/svg" version="1.1">
 <metadata>
  <rdf:RDF xmlns:dc="http://purl.org/dc/elements/1.1/" xmlns:cc="http://creativecommons.org/ns#" xmlns:rdf="http://www.w3.org/1999/02/22-rdf-syntax-ns#">
   <cc:Work>
    <dc:type rdf:resource="http://purl.org/dc/dcmitype/StillImage"/>
    <dc:date>2025-06-30T12:10:40.807964</dc:date>
    <dc:format>image/svg+xml</dc:format>
    <dc:creator>
     <cc:Agent>
      <dc:title>Matplotlib v3.10.1, https://matplotlib.org/</dc:title>
     </cc:Agent>
    </dc:creator>
   </cc:Work>
  </rdf:RDF>
 </metadata>
 <defs>
  <style type="text/css">*{stroke-linejoin: round; stroke-linecap: butt}</style>
 </defs>
 <g id="figure_1">
  <g id="patch_1">
   <path d="M 0 288 
L 288 288 
L 288 0 
L 0 0 
z
" style="fill: #ffffff"/>
  </g>
  <g id="axes_1">
   <g id="LineCollection_1">
    <path d="M 143.602092 62.591356 
L 82.709674 58.276053 
" clip-path="url(#pa3ef9fc371)" style="fill: none; stroke: #000000; stroke-width: 1.2"/>
    <path d="M 143.602092 62.591356 
L 126.817603 54.793823 
" clip-path="url(#pa3ef9fc371)" style="fill: none; stroke: #000000; stroke-width: 1.2"/>
    <path d="M 143.602092 62.591356 
L 101.130193 53.803636 
" clip-path="url(#pa3ef9fc371)" style="fill: none; stroke: #000000; stroke-width: 1.2"/>
    <path d="M 143.602092 62.591356 
L 99.335002 70.152081 
" clip-path="url(#pa3ef9fc371)" style="fill: none; stroke: #000000; stroke-width: 1.2"/>
    <path d="M 143.602092 62.591356 
L 156.822259 81.608131 
" clip-path="url(#pa3ef9fc371)" style="fill: none; stroke: #000000; stroke-width: 1.2"/>
    <path d="M 143.602092 62.591356 
L 114.868027 66.335677 
" clip-path="url(#pa3ef9fc371)" style="fill: none; stroke: #000000; stroke-width: 1.2"/>
    <path d="M 143.602092 62.591356 
L 96.259212 89.805049 
" clip-path="url(#pa3ef9fc371)" style="fill: none; stroke: #000000; stroke-width: 1.2"/>
    <path d="M 143.602092 62.591356 
L 147.229956 97.112338 
" clip-path="url(#pa3ef9fc371)" style="fill: none; stroke: #000000; stroke-width: 1.2"/>
    <path d="M 143.602092 62.591356 
L 132.868064 105.647217 
" clip-path="url(#pa3ef9fc371)" style="fill: none; stroke: #000000; stroke-width: 1.2"/>
    <path d="M 82.709674 58.276053 
L 126.817603 54.793823 
" clip-path="url(#pa3ef9fc371)" style="fill: none; stroke: #000000; stroke-width: 1.2"/>
    <path d="M 82.709674 58.276053 
L 101.130193 53.803636 
" clip-path="url(#pa3ef9fc371)" style="fill: none; stroke: #000000; stroke-width: 1.2"/>
    <path d="M 82.709674 58.276053 
L 121.771822 76.630062 
" clip-path="url(#pa3ef9fc371)" style="fill: none; stroke: #000000; stroke-width: 1.2"/>
    <path d="M 82.709674 58.276053 
L 86.768382 75.862847 
" clip-path="url(#pa3ef9fc371)" style="fill: none; stroke: #000000; stroke-width: 1.2"/>
    <path d="M 82.709674 58.276053 
L 57.292256 76.223519 
" clip-path="url(#pa3ef9fc371)" style="fill: none; stroke: #000000; stroke-width: 1.2"/>
    <path d="M 82.709674 58.276053 
L 96.259212 89.805049 
" clip-path="url(#pa3ef9fc371)" style="fill: none; stroke: #000000; stroke-width: 1.2"/>
    <path d="M 82.709674 58.276053 
L 108.91863 104.139056 
" clip-path="url(#pa3ef9fc371)" style="fill: none; stroke: #000000; stroke-width: 1.2"/>
    <path d="M 82.709674 58.276053 
L 58.949809 105.292867 
" clip-path="url(#pa3ef9fc371)" style="fill: none; stroke: #000000; stroke-width: 1.2"/>
    <path d="M 126.817603 54.793823 
L 74.807037 61.36376 
" clip-path="url(#pa3ef9fc371)" style="fill: none; stroke: #000000; stroke-width: 1.2"/>
    <path d="M 126.817603 54.793823 
L 139.214289 71.612909 
" clip-path="url(#pa3ef9fc371)" style="fill: none; stroke: #000000; stroke-width: 1.2"/>
    <path d="M 126.817603 54.793823 
L 121.771822 76.630062 
" clip-path="url(#pa3ef9fc371)" style="fill: none; stroke: #000000; stroke-width: 1.2"/>
    <path d="M 126.817603 54.793823 
L 114.868027 66.335677 
" clip-path="url(#pa3ef9fc371)" style="fill: none; stroke: #000000; stroke-width: 1.2"/>
    <path d="M 126.817603 54.793823 
L 147.229956 97.112338 
" clip-path="url(#pa3ef9fc371)" style="fill: none; stroke: #000000; stroke-width: 1.2"/>
    <path d="M 126.817603 54.793823 
L 108.91863 104.139056 
" clip-path="url(#pa3ef9fc371)" style="fill: none; stroke: #000000; stroke-width: 1.2"/>
    <path d="M 126.817603 54.793823 
L 119.207886 96.238736 
" clip-path="url(#pa3ef9fc371)" style="fill: none; stroke: #000000; stroke-width: 1.2"/>
    <path d="M 74.807037 61.36376 
L 139.214289 71.612909 
" clip-path="url(#pa3ef9fc371)" style="fill: none; stroke: #000000; stroke-width: 1.2"/>
    <path d="M 74.807037 61.36376 
L 101.130193 53.803636 
" clip-path="url(#pa3ef9fc371)" style="fill: none; stroke: #000000; stroke-width: 1.2"/>
    <path d="M 74.807037 61.36376 
L 99.335002 70.152081 
" clip-path="url(#pa3ef9fc371)" style="fill: none; stroke: #000000; stroke-width: 1.2"/>
    <path d="M 74.807037 61.36376 
L 114.868027 66.335677 
" clip-path="url(#pa3ef9fc371)" style="fill: none; stroke: #000000; stroke-width: 1.2"/>
    <path d="M 74.807037 61.36376 
L 57.292256 76.223519 
" clip-path="url(#pa3ef9fc371)" style="fill: none; stroke: #000000; stroke-width: 1.2"/>
    <path d="M 74.807037 61.36376 
L 119.207886 96.238736 
" clip-path="url(#pa3ef9fc371)" style="fill: none; stroke: #000000; stroke-width: 1.2"/>
    <path d="M 74.807037 61.36376 
L 65.946286 95.308654 
" clip-path="url(#pa3ef9fc371)" style="fill: none; stroke: #000000; stroke-width: 1.2"/>
    <path d="M 74.807037 61.36376 
L 80.19428 99.853004 
" clip-path="url(#pa3ef9fc371)" style="fill: none; stroke: #000000; stroke-width: 1.2"/>
    <path d="M 139.214289 71.612909 
L 101.130193 53.803636 
" clip-path="url(#pa3ef9fc371)" style="fill: none; stroke: #000000; stroke-width: 1.2"/>
    <path d="M 139.214289 71.612909 
L 121.771822 76.630062 
" clip-path="url(#pa3ef9fc371)" style="fill: none; stroke: #000000; stroke-width: 1.2"/>
    <path d="M 139.214289 71.612909 
L 156.822259 81.608131 
" clip-path="url(#pa3ef9fc371)" style="fill: none; stroke: #000000; stroke-width: 1.2"/>
    <path d="M 139.214289 71.612909 
L 86.768382 75.862847 
" clip-path="url(#pa3ef9fc371)" style="fill: none; stroke: #000000; stroke-width: 1.2"/>
    <path d="M 139.214289 71.612909 
L 119.207886 96.238736 
" clip-path="url(#pa3ef9fc371)" style="fill: none; stroke: #000000; stroke-width: 1.2"/>
    <path d="M 139.214289 71.612909 
L 96.345294 108.528982 
" clip-path="url(#pa3ef9fc371)" style="fill: none; stroke: #000000; stroke-width: 1.2"/>
    <path d="M 139.214289 71.612909 
L 147.88129 114.281716 
" clip-path="url(#pa3ef9fc371)" style="fill: none; stroke: #000000; stroke-width: 1.2"/>
    <path d="M 101.130193 53.803636 
L 99.335002 70.152081 
" clip-path="url(#pa3ef9fc371)" style="fill: none; stroke: #000000; stroke-width: 1.2"/>
    <path d="M 101.130193 53.803636 
L 86.768382 75.862847 
" clip-path="url(#pa3ef9fc371)" style="fill: none; stroke: #000000; stroke-width: 1.2"/>
    <path d="M 101.130193 53.803636 
L 96.259212 89.805049 
" clip-path="url(#pa3ef9fc371)" style="fill: none; stroke: #000000; stroke-width: 1.2"/>
    <path d="M 101.130193 53.803636 
L 65.946286 95.308654 
" clip-path="url(#pa3ef9fc371)" style="fill: none; stroke: #000000; stroke-width: 1.2"/>
    <path d="M 101.130193 53.803636 
L 96.345294 108.528982 
" clip-path="url(#pa3ef9fc371)" style="fill: none; stroke: #000000; stroke-width: 1.2"/>
    <path d="M 121.771822 76.630062 
L 99.335002 70.152081 
" clip-path="url(#pa3ef9fc371)" style="fill: none; stroke: #000000; stroke-width: 1.2"/>
    <path d="M 121.771822 76.630062 
L 156.822259 81.608131 
" clip-path="url(#pa3ef9fc371)" style="fill: none; stroke: #000000; stroke-width: 1.2"/>
    <path d="M 121.771822 76.630062 
L 57.292256 76.223519 
" clip-path="url(#pa3ef9fc371)" style="fill: none; stroke: #000000; stroke-width: 1.2"/>
    <path d="M 121.771822 76.630062 
L 108.91863 104.139056 
" clip-path="url(#pa3ef9fc371)" style="fill: none; stroke: #000000; stroke-width: 1.2"/>
    <path d="M 121.771822 76.630062 
L 84.593991 114.794407 
" clip-path="url(#pa3ef9fc371)" style="fill: none; stroke: #000000; stroke-width: 1.2"/>
    <path d="M 121.771822 76.630062 
L 147.88129 114.281716 
" clip-path="url(#pa3ef9fc371)" style="fill: none; stroke: #000000; stroke-width: 1.2"/>
    <path d="M 99.335002 70.152081 
L 156.822259 81.608131 
" clip-path="url(#pa3ef9fc371)" style="fill: none; stroke: #000000; stroke-width: 1.2"/>
    <path d="M 99.335002 70.152081 
L 57.292256 76.223519 
" clip-path="url(#pa3ef9fc371)" style="fill: none; stroke: #000000; stroke-width: 1.2"/>
    <path d="M 99.335002 70.152081 
L 65.946286 95.308654 
" clip-path="url(#pa3ef9fc371)" style="fill: none; stroke: #000000; stroke-width: 1.2"/>
    <path d="M 99.335002 70.152081 
L 84.593991 114.794407 
" clip-path="url(#pa3ef9fc371)" style="fill: none; stroke: #000000; stroke-width: 1.2"/>
    <path d="M 99.335002 70.152081 
L 132.868064 105.647217 
" clip-path="url(#pa3ef9fc371)" style="fill: none; stroke: #000000; stroke-width: 1.2"/>
    <path d="M 156.822259 81.608131 
L 86.768382 75.862847 
" clip-path="url(#pa3ef9fc371)" style="fill: none; stroke: #000000; stroke-width: 1.2"/>
    <path d="M 156.822259 81.608131 
L 114.868027 66.335677 
" clip-path="url(#pa3ef9fc371)" style="fill: none; stroke: #000000; stroke-width: 1.2"/>
    <path d="M 156.822259 81.608131 
L 147.88129 114.281716 
" clip-path="url(#pa3ef9fc371)" style="fill: none; stroke: #000000; stroke-width: 1.2"/>
    <path d="M 156.822259 81.608131 
L 132.868064 105.647217 
" clip-path="url(#pa3ef9fc371)" style="fill: none; stroke: #000000; stroke-width: 1.2"/>
    <path d="M 156.822259 81.608131 
L 120.8481 113.549881 
" clip-path="url(#pa3ef9fc371)" style="fill: none; stroke: #000000; stroke-width: 1.2"/>
    <path d="M 86.768382 75.862847 
L 114.868027 66.335677 
" clip-path="url(#pa3ef9fc371)" style="fill: none; stroke: #000000; stroke-width: 1.2"/>
    <path d="M 86.768382 75.862847 
L 57.292256 76.223519 
" clip-path="url(#pa3ef9fc371)" style="fill: none; stroke: #000000; stroke-width: 1.2"/>
    <path d="M 86.768382 75.862847 
L 96.345294 108.528982 
" clip-path="url(#pa3ef9fc371)" style="fill: none; stroke: #000000; stroke-width: 1.2"/>
    <path d="M 86.768382 75.862847 
L 120.8481 113.549881 
" clip-path="url(#pa3ef9fc371)" style="fill: none; stroke: #000000; stroke-width: 1.2"/>
    <path d="M 86.768382 75.862847 
L 58.949809 105.292867 
" clip-path="url(#pa3ef9fc371)" style="fill: none; stroke: #000000; stroke-width: 1.2"/>
    <path d="M 114.868027 66.335677 
L 57.292256 76.223519 
" clip-path="url(#pa3ef9fc371)" style="fill: none; stroke: #000000; stroke-width: 1.2"/>
    <path d="M 114.868027 66.335677 
L 147.229956 97.112338 
" clip-path="url(#pa3ef9fc371)" style="fill: none; stroke: #000000; stroke-width: 1.2"/>
    <path d="M 114.868027 66.335677 
L 120.8481 113.549881 
" clip-path="url(#pa3ef9fc371)" style="fill: none; stroke: #000000; stroke-width: 1.2"/>
    <path d="M 114.868027 66.335677 
L 80.19428 99.853004 
" clip-path="url(#pa3ef9fc371)" style="fill: none; stroke: #000000; stroke-width: 1.2"/>
    <path d="M 57.292256 76.223519 
L 84.593991 114.794407 
" clip-path="url(#pa3ef9fc371)" style="fill: none; stroke: #000000; stroke-width: 1.2"/>
    <path d="M 57.292256 76.223519 
L 58.949809 105.292867 
" clip-path="url(#pa3ef9fc371)" style="fill: none; stroke: #000000; stroke-width: 1.2"/>
    <path d="M 57.292256 76.223519 
L 80.19428 99.853004 
" clip-path="url(#pa3ef9fc371)" style="fill: none; stroke: #000000; stroke-width: 1.2"/>
    <path d="M 96.259212 89.805049 
L 147.229956 97.112338 
" clip-path="url(#pa3ef9fc371)" style="fill: none; stroke: #000000; stroke-width: 1.2"/>
    <path d="M 96.259212 89.805049 
L 108.91863 104.139056 
" clip-path="url(#pa3ef9fc371)" style="fill: none; stroke: #000000; stroke-width: 1.2"/>
    <path d="M 96.259212 89.805049 
L 65.946286 95.308654 
" clip-path="url(#pa3ef9fc371)" style="fill: none; stroke: #000000; stroke-width: 1.2"/>
    <path d="M 96.259212 89.805049 
L 96.345294 108.528982 
" clip-path="url(#pa3ef9fc371)" style="fill: none; stroke: #000000; stroke-width: 1.2"/>
    <path d="M 96.259212 89.805049 
L 132.868064 105.647217 
" clip-path="url(#pa3ef9fc371)" style="fill: none; stroke: #000000; stroke-width: 1.2"/>
    <path d="M 96.259212 89.805049 
L 58.949809 105.292867 
" clip-path="url(#pa3ef9fc371)" style="fill: none; stroke: #000000; stroke-width: 1.2"/>
    <path d="M 96.259212 89.805049 
L 95.858802 131.24865 
" clip-path="url(#pa3ef9fc371)" style="fill: none; stroke: #000000; stroke-width: 1.2"/>
    <path d="M 96.259212 89.805049 
L 130.631423 127.512941 
" clip-path="url(#pa3ef9fc371)" style="fill: none; stroke: #000000; stroke-width: 1.2"/>
    <path d="M 96.259212 89.805049 
L 64.868178 130.01801 
" clip-path="url(#pa3ef9fc371)" style="fill: none; stroke: #000000; stroke-width: 1.2"/>
    <path d="M 147.229956 97.112338 
L 108.91863 104.139056 
" clip-path="url(#pa3ef9fc371)" style="fill: none; stroke: #000000; stroke-width: 1.2"/>
    <path d="M 147.229956 97.112338 
L 119.207886 96.238736 
" clip-path="url(#pa3ef9fc371)" style="fill: none; stroke: #000000; stroke-width: 1.2"/>
    <path d="M 147.229956 97.112338 
L 132.868064 105.647217 
" clip-path="url(#pa3ef9fc371)" style="fill: none; stroke: #000000; stroke-width: 1.2"/>
    <path d="M 147.229956 97.112338 
L 120.8481 113.549881 
" clip-path="url(#pa3ef9fc371)" style="fill: none; stroke: #000000; stroke-width: 1.2"/>
    <path d="M 147.229956 97.112338 
L 80.19428 99.853004 
" clip-path="url(#pa3ef9fc371)" style="fill: none; stroke: #000000; stroke-width: 1.2"/>
    <path d="M 147.229956 97.112338 
L 130.631423 127.512941 
" clip-path="url(#pa3ef9fc371)" style="fill: none; stroke: #000000; stroke-width: 1.2"/>
    <path d="M 147.229956 97.112338 
L 111.438049 134.540883 
" clip-path="url(#pa3ef9fc371)" style="fill: none; stroke: #000000; stroke-width: 1.2"/>
    <path d="M 147.229956 97.112338 
L 151.038914 137.920961 
" clip-path="url(#pa3ef9fc371)" style="fill: none; stroke: #000000; stroke-width: 1.2"/>
    <path d="M 108.91863 104.139056 
L 119.207886 96.238736 
" clip-path="url(#pa3ef9fc371)" style="fill: none; stroke: #000000; stroke-width: 1.2"/>
    <path d="M 108.91863 104.139056 
L 84.593991 114.794407 
" clip-path="url(#pa3ef9fc371)" style="fill: none; stroke: #000000; stroke-width: 1.2"/>
    <path d="M 108.91863 104.139056 
L 147.88129 114.281716 
" clip-path="url(#pa3ef9fc371)" style="fill: none; stroke: #000000; stroke-width: 1.2"/>
    <path d="M 108.91863 104.139056 
L 58.949809 105.292867 
" clip-path="url(#pa3ef9fc371)" style="fill: none; stroke: #000000; stroke-width: 1.2"/>
    <path d="M 108.91863 104.139056 
L 130.631423 127.512941 
" clip-path="url(#pa3ef9fc371)" style="fill: none; stroke: #000000; stroke-width: 1.2"/>
    <path d="M 108.91863 104.139056 
L 134.561863 143.140932 
" clip-path="url(#pa3ef9fc371)" style="fill: none; stroke: #000000; stroke-width: 1.2"/>
    <path d="M 108.91863 104.139056 
L 73.513622 147.490408 
" clip-path="url(#pa3ef9fc371)" style="fill: none; stroke: #000000; stroke-width: 1.2"/>
    <path d="M 119.207886 96.238736 
L 65.946286 95.308654 
" clip-path="url(#pa3ef9fc371)" style="fill: none; stroke: #000000; stroke-width: 1.2"/>
    <path d="M 119.207886 96.238736 
L 96.345294 108.528982 
" clip-path="url(#pa3ef9fc371)" style="fill: none; stroke: #000000; stroke-width: 1.2"/>
    <path d="M 119.207886 96.238736 
L 147.88129 114.281716 
" clip-path="url(#pa3ef9fc371)" style="fill: none; stroke: #000000; stroke-width: 1.2"/>
    <path d="M 119.207886 96.238736 
L 80.19428 99.853004 
" clip-path="url(#pa3ef9fc371)" style="fill: none; stroke: #000000; stroke-width: 1.2"/>
    <path d="M 119.207886 96.238736 
L 134.561863 143.140932 
" clip-path="url(#pa3ef9fc371)" style="fill: none; stroke: #000000; stroke-width: 1.2"/>
    <path d="M 119.207886 96.238736 
L 111.438049 134.540883 
" clip-path="url(#pa3ef9fc371)" style="fill: none; stroke: #000000; stroke-width: 1.2"/>
    <path d="M 119.207886 96.238736 
L 80.43507 139.609441 
" clip-path="url(#pa3ef9fc371)" style="fill: none; stroke: #000000; stroke-width: 1.2"/>
    <path d="M 65.946286 95.308654 
L 96.345294 108.528982 
" clip-path="url(#pa3ef9fc371)" style="fill: none; stroke: #000000; stroke-width: 1.2"/>
    <path d="M 65.946286 95.308654 
L 84.593991 114.794407 
" clip-path="url(#pa3ef9fc371)" style="fill: none; stroke: #000000; stroke-width: 1.2"/>
    <path d="M 65.946286 95.308654 
L 132.868064 105.647217 
" clip-path="url(#pa3ef9fc371)" style="fill: none; stroke: #000000; stroke-width: 1.2"/>
    <path d="M 65.946286 95.308654 
L 80.19428 99.853004 
" clip-path="url(#pa3ef9fc371)" style="fill: none; stroke: #000000; stroke-width: 1.2"/>
    <path d="M 65.946286 95.308654 
L 95.858802 131.24865 
" clip-path="url(#pa3ef9fc371)" style="fill: none; stroke: #000000; stroke-width: 1.2"/>
    <path d="M 65.946286 95.308654 
L 80.43507 139.609441 
" clip-path="url(#pa3ef9fc371)" style="fill: none; stroke: #000000; stroke-width: 1.2"/>
    <path d="M 65.946286 95.308654 
L 55.368595 135.06831 
" clip-path="url(#pa3ef9fc371)" style="fill: none; stroke: #000000; stroke-width: 1.2"/>
    <path d="M 96.345294 108.528982 
L 147.88129 114.281716 
" clip-path="url(#pa3ef9fc371)" style="fill: none; stroke: #000000; stroke-width: 1.2"/>
    <path d="M 96.345294 108.528982 
L 120.8481 113.549881 
" clip-path="url(#pa3ef9fc371)" style="fill: none; stroke: #000000; stroke-width: 1.2"/>
    <path d="M 96.345294 108.528982 
L 58.949809 105.292867 
" clip-path="url(#pa3ef9fc371)" style="fill: none; stroke: #000000; stroke-width: 1.2"/>
    <path d="M 96.345294 108.528982 
L 80.43507 139.609441 
" clip-path="url(#pa3ef9fc371)" style="fill: none; stroke: #000000; stroke-width: 1.2"/>
    <path d="M 96.345294 108.528982 
L 64.868178 130.01801 
" clip-path="url(#pa3ef9fc371)" style="fill: none; stroke: #000000; stroke-width: 1.2"/>
    <path d="M 96.345294 108.528982 
L 124.092873 151.686246 
" clip-path="url(#pa3ef9fc371)" style="fill: none; stroke: #000000; stroke-width: 1.2"/>
    <path d="M 84.593991 114.794407 
L 147.88129 114.281716 
" clip-path="url(#pa3ef9fc371)" style="fill: none; stroke: #000000; stroke-width: 1.2"/>
    <path d="M 84.593991 114.794407 
L 132.868064 105.647217 
" clip-path="url(#pa3ef9fc371)" style="fill: none; stroke: #000000; stroke-width: 1.2"/>
    <path d="M 84.593991 114.794407 
L 58.949809 105.292867 
" clip-path="url(#pa3ef9fc371)" style="fill: none; stroke: #000000; stroke-width: 1.2"/>
    <path d="M 84.593991 114.794407 
L 80.19428 99.853004 
" clip-path="url(#pa3ef9fc371)" style="fill: none; stroke: #000000; stroke-width: 1.2"/>
    <path d="M 84.593991 114.794407 
L 73.513622 147.490408 
" clip-path="url(#pa3ef9fc371)" style="fill: none; stroke: #000000; stroke-width: 1.2"/>
    <path d="M 84.593991 114.794407 
L 111.710018 153.310731 
" clip-path="url(#pa3ef9fc371)" style="fill: none; stroke: #000000; stroke-width: 1.2"/>
    <path d="M 84.593991 114.794407 
L 55.368595 135.06831 
" clip-path="url(#pa3ef9fc371)" style="fill: none; stroke: #000000; stroke-width: 1.2"/>
    <path d="M 147.88129 114.281716 
L 132.868064 105.647217 
" clip-path="url(#pa3ef9fc371)" style="fill: none; stroke: #000000; stroke-width: 1.2"/>
    <path d="M 147.88129 114.281716 
L 120.8481 113.549881 
" clip-path="url(#pa3ef9fc371)" style="fill: none; stroke: #000000; stroke-width: 1.2"/>
    <path d="M 147.88129 114.281716 
L 134.561863 143.140932 
" clip-path="url(#pa3ef9fc371)" style="fill: none; stroke: #000000; stroke-width: 1.2"/>
    <path d="M 147.88129 114.281716 
L 111.710018 153.310731 
" clip-path="url(#pa3ef9fc371)" style="fill: none; stroke: #000000; stroke-width: 1.2"/>
    <path d="M 147.88129 114.281716 
L 124.092873 151.686246 
" clip-path="url(#pa3ef9fc371)" style="fill: none; stroke: #000000; stroke-width: 1.2"/>
    <path d="M 132.868064 105.647217 
L 120.8481 113.549881 
" clip-path="url(#pa3ef9fc371)" style="fill: none; stroke: #000000; stroke-width: 1.2"/>
    <path d="M 132.868064 105.647217 
L 95.858802 131.24865 
" clip-path="url(#pa3ef9fc371)" style="fill: none; stroke: #000000; stroke-width: 1.2"/>
    <path d="M 132.868064 105.647217 
L 111.710018 153.310731 
" clip-path="url(#pa3ef9fc371)" style="fill: none; stroke: #000000; stroke-width: 1.2"/>
    <path d="M 132.868064 105.647217 
L 151.038914 137.920961 
" clip-path="url(#pa3ef9fc371)" style="fill: none; stroke: #000000; stroke-width: 1.2"/>
    <path d="M 120.8481 113.549881 
L 58.949809 105.292867 
" clip-path="url(#pa3ef9fc371)" style="fill: none; stroke: #000000; stroke-width: 1.2"/>
    <path d="M 120.8481 113.549881 
L 80.19428 99.853004 
" clip-path="url(#pa3ef9fc371)" style="fill: none; stroke: #000000; stroke-width: 1.2"/>
    <path d="M 120.8481 113.549881 
L 151.038914 137.920961 
" clip-path="url(#pa3ef9fc371)" style="fill: none; stroke: #000000; stroke-width: 1.2"/>
    <path d="M 120.8481 113.549881 
L 124.092873 151.686246 
" clip-path="url(#pa3ef9fc371)" style="fill: none; stroke: #000000; stroke-width: 1.2"/>
    <path d="M 120.8481 113.549881 
L 88.327656 147.463368 
" clip-path="url(#pa3ef9fc371)" style="fill: none; stroke: #000000; stroke-width: 1.2"/>
    <path d="M 58.949809 105.292867 
L 80.19428 99.853004 
" clip-path="url(#pa3ef9fc371)" style="fill: none; stroke: #000000; stroke-width: 1.2"/>
    <path d="M 58.949809 105.292867 
L 64.868178 130.01801 
" clip-path="url(#pa3ef9fc371)" style="fill: none; stroke: #000000; stroke-width: 1.2"/>
    <path d="M 58.949809 105.292867 
L 73.513622 147.490408 
" clip-path="url(#pa3ef9fc371)" style="fill: none; stroke: #000000; stroke-width: 1.2"/>
    <path d="M 58.949809 105.292867 
L 88.327656 147.463368 
" clip-path="url(#pa3ef9fc371)" style="fill: none; stroke: #000000; stroke-width: 1.2"/>
    <path d="M 80.19428 99.853004 
L 111.438049 134.540883 
" clip-path="url(#pa3ef9fc371)" style="fill: none; stroke: #000000; stroke-width: 1.2"/>
    <path d="M 80.19428 99.853004 
L 88.327656 147.463368 
" clip-path="url(#pa3ef9fc371)" style="fill: none; stroke: #000000; stroke-width: 1.2"/>
    <path d="M 80.19428 99.853004 
L 55.368595 135.06831 
" clip-path="url(#pa3ef9fc371)" style="fill: none; stroke: #000000; stroke-width: 1.2"/>
    <path d="M 95.858802 131.24865 
L 130.631423 127.512941 
" clip-path="url(#pa3ef9fc371)" style="fill: none; stroke: #000000; stroke-width: 1.2"/>
    <path d="M 95.858802 131.24865 
L 80.43507 139.609441 
" clip-path="url(#pa3ef9fc371)" style="fill: none; stroke: #000000; stroke-width: 1.2"/>
    <path d="M 95.858802 131.24865 
L 64.868178 130.01801 
" clip-path="url(#pa3ef9fc371)" style="fill: none; stroke: #000000; stroke-width: 1.2"/>
    <path d="M 95.858802 131.24865 
L 111.710018 153.310731 
" clip-path="url(#pa3ef9fc371)" style="fill: none; stroke: #000000; stroke-width: 1.2"/>
    <path d="M 95.858802 131.24865 
L 151.038914 137.920961 
" clip-path="url(#pa3ef9fc371)" style="fill: none; stroke: #000000; stroke-width: 1.2"/>
    <path d="M 95.858802 131.24865 
L 55.368595 135.06831 
" clip-path="url(#pa3ef9fc371)" style="fill: none; stroke: #000000; stroke-width: 1.2"/>
    <path d="M 130.631423 127.512941 
L 134.561863 143.140932 
" clip-path="url(#pa3ef9fc371)" style="fill: none; stroke: #000000; stroke-width: 1.2"/>
    <path d="M 130.631423 127.512941 
L 111.438049 134.540883 
" clip-path="url(#pa3ef9fc371)" style="fill: none; stroke: #000000; stroke-width: 1.2"/>
    <path d="M 130.631423 127.512941 
L 64.868178 130.01801 
" clip-path="url(#pa3ef9fc371)" style="fill: none; stroke: #000000; stroke-width: 1.2"/>
    <path d="M 130.631423 127.512941 
L 73.513622 147.490408 
" clip-path="url(#pa3ef9fc371)" style="fill: none; stroke: #000000; stroke-width: 1.2"/>
    <path d="M 130.631423 127.512941 
L 151.038914 137.920961 
" clip-path="url(#pa3ef9fc371)" style="fill: none; stroke: #000000; stroke-width: 1.2"/>
    <path d="M 134.561863 143.140932 
L 111.438049 134.540883 
" clip-path="url(#pa3ef9fc371)" style="fill: none; stroke: #000000; stroke-width: 1.2"/>
    <path d="M 134.561863 143.140932 
L 80.43507 139.609441 
" clip-path="url(#pa3ef9fc371)" style="fill: none; stroke: #000000; stroke-width: 1.2"/>
    <path d="M 134.561863 143.140932 
L 73.513622 147.490408 
" clip-path="url(#pa3ef9fc371)" style="fill: none; stroke: #000000; stroke-width: 1.2"/>
    <path d="M 134.561863 143.140932 
L 111.710018 153.310731 
" clip-path="url(#pa3ef9fc371)" style="fill: none; stroke: #000000; stroke-width: 1.2"/>
    <path d="M 134.561863 143.140932 
L 124.092873 151.686246 
" clip-path="url(#pa3ef9fc371)" style="fill: none; stroke: #000000; stroke-width: 1.2"/>
    <path d="M 134.561863 143.140932 
L 116.828125 180.957107 
" clip-path="url(#pa3ef9fc371)" style="fill: none; stroke: #000000; stroke-width: 1.2"/>
    <path d="M 111.438049 134.540883 
L 80.43507 139.609441 
" clip-path="url(#pa3ef9fc371)" style="fill: none; stroke: #000000; stroke-width: 1.2"/>
    <path d="M 111.438049 134.540883 
L 151.038914 137.920961 
" clip-path="url(#pa3ef9fc371)" style="fill: none; stroke: #000000; stroke-width: 1.2"/>
    <path d="M 111.438049 134.540883 
L 88.327656 147.463368 
" clip-path="url(#pa3ef9fc371)" style="fill: none; stroke: #000000; stroke-width: 1.2"/>
    <path d="M 111.438049 134.540883 
L 55.368595 135.06831 
" clip-path="url(#pa3ef9fc371)" style="fill: none; stroke: #000000; stroke-width: 1.2"/>
    <path d="M 80.43507 139.609441 
L 64.868178 130.01801 
" clip-path="url(#pa3ef9fc371)" style="fill: none; stroke: #000000; stroke-width: 1.2"/>
    <path d="M 80.43507 139.609441 
L 124.092873 151.686246 
" clip-path="url(#pa3ef9fc371)" style="fill: none; stroke: #000000; stroke-width: 1.2"/>
    <path d="M 80.43507 139.609441 
L 55.368595 135.06831 
" clip-path="url(#pa3ef9fc371)" style="fill: none; stroke: #000000; stroke-width: 1.2"/>
    <path d="M 64.868178 130.01801 
L 73.513622 147.490408 
" clip-path="url(#pa3ef9fc371)" style="fill: none; stroke: #000000; stroke-width: 1.2"/>
    <path d="M 64.868178 130.01801 
L 124.092873 151.686246 
" clip-path="url(#pa3ef9fc371)" style="fill: none; stroke: #000000; stroke-width: 1.2"/>
    <path d="M 64.868178 130.01801 
L 88.327656 147.463368 
" clip-path="url(#pa3ef9fc371)" style="fill: none; stroke: #000000; stroke-width: 1.2"/>
    <path d="M 73.513622 147.490408 
L 111.710018 153.310731 
" clip-path="url(#pa3ef9fc371)" style="fill: none; stroke: #000000; stroke-width: 1.2"/>
    <path d="M 73.513622 147.490408 
L 88.327656 147.463368 
" clip-path="url(#pa3ef9fc371)" style="fill: none; stroke: #000000; stroke-width: 1.2"/>
    <path d="M 73.513622 147.490408 
L 55.368595 135.06831 
" clip-path="url(#pa3ef9fc371)" style="fill: none; stroke: #000000; stroke-width: 1.2"/>
    <path d="M 111.710018 153.310731 
L 151.038914 137.920961 
" clip-path="url(#pa3ef9fc371)" style="fill: none; stroke: #000000; stroke-width: 1.2"/>
    <path d="M 111.710018 153.310731 
L 124.092873 151.686246 
" clip-path="url(#pa3ef9fc371)" style="fill: none; stroke: #000000; stroke-width: 1.2"/>
    <path d="M 111.710018 153.310731 
L 55.368595 135.06831 
" clip-path="url(#pa3ef9fc371)" style="fill: none; stroke: #000000; stroke-width: 1.2"/>
    <path d="M 111.710018 153.310731 
L 116.828125 180.957107 
" clip-path="url(#pa3ef9fc371)" style="fill: none; stroke: #000000; stroke-width: 1.2"/>
    <path d="M 111.710018 153.310731 
L 153.271503 172.730267 
" clip-path="url(#pa3ef9fc371)" style="fill: none; stroke: #000000; stroke-width: 1.2"/>
    <path d="M 151.038914 137.920961 
L 124.092873 151.686246 
" clip-path="url(#pa3ef9fc371)" style="fill: none; stroke: #000000; stroke-width: 1.2"/>
    <path d="M 151.038914 137.920961 
L 88.327656 147.463368 
" clip-path="url(#pa3ef9fc371)" style="fill: none; stroke: #000000; stroke-width: 1.2"/>
    <path d="M 151.038914 137.920961 
L 153.271503 172.730267 
" clip-path="url(#pa3ef9fc371)" style="fill: none; stroke: #000000; stroke-width: 1.2"/>
    <path d="M 124.092873 151.686246 
L 88.327656 147.463368 
" clip-path="url(#pa3ef9fc371)" style="fill: none; stroke: #000000; stroke-width: 1.2"/>
    <path d="M 124.092873 151.686246 
L 116.828125 180.957107 
" clip-path="url(#pa3ef9fc371)" style="fill: none; stroke: #000000; stroke-width: 1.2"/>
    <path d="M 124.092873 151.686246 
L 153.271503 172.730267 
" clip-path="url(#pa3ef9fc371)" style="fill: none; stroke: #000000; stroke-width: 1.2"/>
    <path d="M 88.327656 147.463368 
L 55.368595 135.06831 
" clip-path="url(#pa3ef9fc371)" style="fill: none; stroke: #000000; stroke-width: 1.2"/>
    <path d="M 180.012191 237.076364 
L 188.836513 196.623792 
" clip-path="url(#pa3ef9fc371)" style="fill: none; stroke: #000000; stroke-width: 1.2"/>
    <path d="M 218.190967 220.964811 
L 188.836513 196.623792 
" clip-path="url(#pa3ef9fc371)" style="fill: none; stroke: #000000; stroke-width: 1.2"/>
    <path d="M 239.831405 192.947248 
L 188.836513 196.623792 
" clip-path="url(#pa3ef9fc371)" style="fill: none; stroke: #000000; stroke-width: 1.2"/>
    <path d="M 89.656795 212.859159 
L 116.828125 180.957107 
" clip-path="url(#pa3ef9fc371)" style="fill: none; stroke: #000000; stroke-width: 1.2"/>
    <path d="M 116.828125 180.957107 
L 153.271503 172.730267 
" clip-path="url(#pa3ef9fc371)" style="fill: none; stroke: #000000; stroke-width: 1.2"/>
    <path d="M 153.271503 172.730267 
L 188.836513 196.623792 
" clip-path="url(#pa3ef9fc371)" style="fill: none; stroke: #000000; stroke-width: 1.2"/>
   </g>
   <g id="PathCollection_1">
    <defs>
     <path id="C0_0_9f0eae9d06" d="M 0 8.944272 
C 2.372049 8.944272 4.647264 8.001847 6.324555 6.324555 
C 8.001847 4.647264 8.944272 2.372049 8.944272 -0 
C 8.944272 -2.372049 8.001847 -4.647264 6.324555 -6.324555 
C 4.647264 -8.001847 2.372049 -8.944272 0 -8.944272 
C -2.372049 -8.944272 -4.647264 -8.001847 -6.324555 -6.324555 
C -8.001847 -4.647264 -8.944272 -2.372049 -8.944272 0 
C -8.944272 2.372049 -8.001847 4.647264 -6.324555 6.324555 
C -4.647264 8.001847 -2.372049 8.944272 0 8.944272 
z
"/>
    </defs>
    <g clip-path="url(#pa3ef9fc371)">
     <use xlink:href="#C0_0_9f0eae9d06" x="143.602092" y="62.591356" style="fill: #4fd14f; stroke: #4fd14f; stroke-width: 0.5"/>
    </g>
    <g clip-path="url(#pa3ef9fc371)">
     <use xlink:href="#C0_0_9f0eae9d06" x="82.709674" y="58.276053" style="fill: #4fd14f; stroke: #4fd14f; stroke-width: 0.5"/>
    </g>
    <g clip-path="url(#pa3ef9fc371)">
     <use xlink:href="#C0_0_9f0eae9d06" x="126.817603" y="54.793823" style="fill: #4fd14f; stroke: #4fd14f; stroke-width: 0.5"/>
    </g>
    <g clip-path="url(#pa3ef9fc371)">
     <use xlink:href="#C0_0_9f0eae9d06" x="74.807037" y="61.36376" style="fill: #4fd14f; stroke: #4fd14f; stroke-width: 0.5"/>
    </g>
    <g clip-path="url(#pa3ef9fc371)">
     <use xlink:href="#C0_0_9f0eae9d06" x="139.214289" y="71.612909" style="fill: #4fd14f; stroke: #4fd14f; stroke-width: 0.5"/>
    </g>
    <g clip-path="url(#pa3ef9fc371)">
     <use xlink:href="#C0_0_9f0eae9d06" x="101.130193" y="53.803636" style="fill: #4fd14f; stroke: #4fd14f; stroke-width: 0.5"/>
    </g>
    <g clip-path="url(#pa3ef9fc371)">
     <use xlink:href="#C0_0_9f0eae9d06" x="121.771822" y="76.630062" style="fill: #4fd14f; stroke: #4fd14f; stroke-width: 0.5"/>
    </g>
    <g clip-path="url(#pa3ef9fc371)">
     <use xlink:href="#C0_0_9f0eae9d06" x="99.335002" y="70.152081" style="fill: #4fd14f; stroke: #4fd14f; stroke-width: 0.5"/>
    </g>
    <g clip-path="url(#pa3ef9fc371)">
     <use xlink:href="#C0_0_9f0eae9d06" x="156.822259" y="81.608131" style="fill: #4fd14f; stroke: #4fd14f; stroke-width: 0.5"/>
    </g>
    <g clip-path="url(#pa3ef9fc371)">
     <use xlink:href="#C0_0_9f0eae9d06" x="86.768382" y="75.862847" style="fill: #4fd14f; stroke: #4fd14f; stroke-width: 0.5"/>
    </g>
    <g clip-path="url(#pa3ef9fc371)">
     <use xlink:href="#C0_0_9f0eae9d06" x="114.868027" y="66.335677" style="fill: #4fd14f; stroke: #4fd14f; stroke-width: 0.5"/>
    </g>
    <g clip-path="url(#pa3ef9fc371)">
     <use xlink:href="#C0_0_9f0eae9d06" x="57.292256" y="76.223519" style="fill: #4fd14f; stroke: #4fd14f; stroke-width: 0.5"/>
    </g>
    <g clip-path="url(#pa3ef9fc371)">
     <use xlink:href="#C0_0_9f0eae9d06" x="96.259212" y="89.805049" style="fill: #4fd14f; stroke: #4fd14f; stroke-width: 0.5"/>
    </g>
    <g clip-path="url(#pa3ef9fc371)">
     <use xlink:href="#C0_0_9f0eae9d06" x="147.229956" y="97.112338" style="fill: #4fd14f; stroke: #4fd14f; stroke-width: 0.5"/>
    </g>
    <g clip-path="url(#pa3ef9fc371)">
     <use xlink:href="#C0_0_9f0eae9d06" x="108.91863" y="104.139056" style="fill: #4fd14f; stroke: #4fd14f; stroke-width: 0.5"/>
    </g>
    <g clip-path="url(#pa3ef9fc371)">
     <use xlink:href="#C0_0_9f0eae9d06" x="119.207886" y="96.238736" style="fill: #4fd14f; stroke: #4fd14f; stroke-width: 0.5"/>
    </g>
    <g clip-path="url(#pa3ef9fc371)">
     <use xlink:href="#C0_0_9f0eae9d06" x="65.946286" y="95.308654" style="fill: #4fd14f; stroke: #4fd14f; stroke-width: 0.5"/>
    </g>
    <g clip-path="url(#pa3ef9fc371)">
     <use xlink:href="#C0_0_9f0eae9d06" x="96.345294" y="108.528982" style="fill: #4fd14f; stroke: #4fd14f; stroke-width: 0.5"/>
    </g>
    <g clip-path="url(#pa3ef9fc371)">
     <use xlink:href="#C0_0_9f0eae9d06" x="84.593991" y="114.794407" style="fill: #4fd14f; stroke: #4fd14f; stroke-width: 0.5"/>
    </g>
    <g clip-path="url(#pa3ef9fc371)">
     <use xlink:href="#C0_0_9f0eae9d06" x="147.88129" y="114.281716" style="fill: #4fd14f; stroke: #4fd14f; stroke-width: 0.5"/>
    </g>
    <g clip-path="url(#pa3ef9fc371)">
     <use xlink:href="#C0_0_9f0eae9d06" x="132.868064" y="105.647217" style="fill: #4fd14f; stroke: #4fd14f; stroke-width: 0.5"/>
    </g>
    <g clip-path="url(#pa3ef9fc371)">
     <use xlink:href="#C0_0_9f0eae9d06" x="120.8481" y="113.549881" style="fill: #4fd14f; stroke: #4fd14f; stroke-width: 0.5"/>
    </g>
    <g clip-path="url(#pa3ef9fc371)">
     <use xlink:href="#C0_0_9f0eae9d06" x="58.949809" y="105.292867" style="fill: #4fd14f; stroke: #4fd14f; stroke-width: 0.5"/>
    </g>
    <g clip-path="url(#pa3ef9fc371)">
     <use xlink:href="#C0_0_9f0eae9d06" x="80.19428" y="99.853004" style="fill: #4fd14f; stroke: #4fd14f; stroke-width: 0.5"/>
    </g>
    <g clip-path="url(#pa3ef9fc371)">
     <use xlink:href="#C0_0_9f0eae9d06" x="95.858802" y="131.24865" style="fill: #4fd14f; stroke: #4fd14f; stroke-width: 0.5"/>
    </g>
    <g clip-path="url(#pa3ef9fc371)">
     <use xlink:href="#C0_0_9f0eae9d06" x="130.631423" y="127.512941" style="fill: #4fd14f; stroke: #4fd14f; stroke-width: 0.5"/>
    </g>
    <g clip-path="url(#pa3ef9fc371)">
     <use xlink:href="#C0_0_9f0eae9d06" x="134.561863" y="143.140932" style="fill: #4fd14f; stroke: #4fd14f; stroke-width: 0.5"/>
    </g>
    <g clip-path="url(#pa3ef9fc371)">
     <use xlink:href="#C0_0_9f0eae9d06" x="111.438049" y="134.540883" style="fill: #4fd14f; stroke: #4fd14f; stroke-width: 0.5"/>
    </g>
    <g clip-path="url(#pa3ef9fc371)">
     <use xlink:href="#C0_0_9f0eae9d06" x="80.43507" y="139.609441" style="fill: #4fd14f; stroke: #4fd14f; stroke-width: 0.5"/>
    </g>
    <g clip-path="url(#pa3ef9fc371)">
     <use xlink:href="#C0_0_9f0eae9d06" x="64.868178" y="130.01801" style="fill: #4fd14f; stroke: #4fd14f; stroke-width: 0.5"/>
    </g>
    <g clip-path="url(#pa3ef9fc371)">
     <use xlink:href="#C0_0_9f0eae9d06" x="73.513622" y="147.490408" style="fill: #4fd14f; stroke: #4fd14f; stroke-width: 0.5"/>
    </g>
    <g clip-path="url(#pa3ef9fc371)">
     <use xlink:href="#C0_0_9f0eae9d06" x="111.710018" y="153.310731" style="fill: #4fd14f; stroke: #4fd14f; stroke-width: 0.5"/>
    </g>
    <g clip-path="url(#pa3ef9fc371)">
     <use xlink:href="#C0_0_9f0eae9d06" x="151.038914" y="137.920961" style="fill: #4fd14f; stroke: #4fd14f; stroke-width: 0.5"/>
    </g>
    <g clip-path="url(#pa3ef9fc371)">
     <use xlink:href="#C0_0_9f0eae9d06" x="124.092873" y="151.686246" style="fill: #4fd14f; stroke: #4fd14f; stroke-width: 0.5"/>
    </g>
    <g clip-path="url(#pa3ef9fc371)">
     <use xlink:href="#C0_0_9f0eae9d06" x="88.327656" y="147.463368" style="fill: #4fd14f; stroke: #4fd14f; stroke-width: 0.5"/>
    </g>
    <g clip-path="url(#pa3ef9fc371)">
     <use xlink:href="#C0_0_9f0eae9d06" x="55.368595" y="135.06831" style="fill: #4fd14f; stroke: #4fd14f; stroke-width: 0.5"/>
    </g>
    <g clip-path="url(#pa3ef9fc371)">
     <use xlink:href="#C0_0_9f0eae9d06" x="180.012191" y="237.076364" style="fill: #bfbfbf; stroke: #bfbfbf; stroke-width: 0.5"/>
    </g>
    <g clip-path="url(#pa3ef9fc371)">
     <use xlink:href="#C0_0_9f0eae9d06" x="218.190967" y="220.964811" style="fill: #bfbfbf; stroke: #bfbfbf; stroke-width: 0.5"/>
    </g>
    <g clip-path="url(#pa3ef9fc371)">
     <use xlink:href="#C0_0_9f0eae9d06" x="239.831405" y="192.947248" style="fill: #bfbfbf; stroke: #bfbfbf; stroke-width: 0.5"/>
    </g>
    <g clip-path="url(#pa3ef9fc371)">
     <use xlink:href="#C0_0_9f0eae9d06" x="89.656795" y="212.859159" style="fill: #bfbfbf; stroke: #bfbfbf; stroke-width: 0.5"/>
    </g>
    <g clip-path="url(#pa3ef9fc371)">
     <use xlink:href="#C0_0_9f0eae9d06" x="116.828125" y="180.957107" style="fill: #666666; stroke: #666666; stroke-width: 0.5"/>
    </g>
    <g clip-path="url(#pa3ef9fc371)">
     <use xlink:href="#C0_0_9f0eae9d06" x="153.271503" y="172.730267" style="fill: #666666; stroke: #666666; stroke-width: 0.5"/>
    </g>
    <g clip-path="url(#pa3ef9fc371)">
     <use xlink:href="#C0_0_9f0eae9d06" x="188.836513" y="196.623792" style="fill: #666666; stroke: #666666; stroke-width: 0.5"/>
    </g>
   </g>
   <g id="text_1">
    <!-- C3H4Ni48 -->
    <g transform="translate(120.011527 2.857954) scale(0.1 -0.1)">
     <defs>
      <path id="DejaVuSans-43" d="M 4122 4306 
L 4122 3641 
Q 3803 3938 3442 4084 
Q 3081 4231 2675 4231 
Q 1875 4231 1450 3742 
Q 1025 3253 1025 2328 
Q 1025 1406 1450 917 
Q 1875 428 2675 428 
Q 3081 428 3442 575 
Q 3803 722 4122 1019 
L 4122 359 
Q 3791 134 3420 21 
Q 3050 -91 2638 -91 
Q 1578 -91 968 557 
Q 359 1206 359 2328 
Q 359 3453 968 4101 
Q 1578 4750 2638 4750 
Q 3056 4750 3426 4639 
Q 3797 4528 4122 4306 
z
" transform="scale(0.015625)"/>
      <path id="DejaVuSans-33" d="M 2597 2516 
Q 3050 2419 3304 2112 
Q 3559 1806 3559 1356 
Q 3559 666 3084 287 
Q 2609 -91 1734 -91 
Q 1441 -91 1130 -33 
Q 819 25 488 141 
L 488 750 
Q 750 597 1062 519 
Q 1375 441 1716 441 
Q 2309 441 2620 675 
Q 2931 909 2931 1356 
Q 2931 1769 2642 2001 
Q 2353 2234 1838 2234 
L 1294 2234 
L 1294 2753 
L 1863 2753 
Q 2328 2753 2575 2939 
Q 2822 3125 2822 3475 
Q 2822 3834 2567 4026 
Q 2313 4219 1838 4219 
Q 1578 4219 1281 4162 
Q 984 4106 628 3988 
L 628 4550 
Q 988 4650 1302 4700 
Q 1616 4750 1894 4750 
Q 2613 4750 3031 4423 
Q 3450 4097 3450 3541 
Q 3450 3153 3228 2886 
Q 3006 2619 2597 2516 
z
" transform="scale(0.015625)"/>
      <path id="DejaVuSans-48" d="M 628 4666 
L 1259 4666 
L 1259 2753 
L 3553 2753 
L 3553 4666 
L 4184 4666 
L 4184 0 
L 3553 0 
L 3553 2222 
L 1259 2222 
L 1259 0 
L 628 0 
L 628 4666 
z
" transform="scale(0.015625)"/>
      <path id="DejaVuSans-34" d="M 2419 4116 
L 825 1625 
L 2419 1625 
L 2419 4116 
z
M 2253 4666 
L 3047 4666 
L 3047 1625 
L 3713 1625 
L 3713 1100 
L 3047 1100 
L 3047 0 
L 2419 0 
L 2419 1100 
L 313 1100 
L 313 1709 
L 2253 4666 
z
" transform="scale(0.015625)"/>
      <path id="DejaVuSans-4e" d="M 628 4666 
L 1478 4666 
L 3547 763 
L 3547 4666 
L 4159 4666 
L 4159 0 
L 3309 0 
L 1241 3903 
L 1241 0 
L 628 0 
L 628 4666 
z
" transform="scale(0.015625)"/>
      <path id="DejaVuSans-69" d="M 603 3500 
L 1178 3500 
L 1178 0 
L 603 0 
L 603 3500 
z
M 603 4863 
L 1178 4863 
L 1178 4134 
L 603 4134 
L 603 4863 
z
" transform="scale(0.015625)"/>
      <path id="DejaVuSans-38" d="M 2034 2216 
Q 1584 2216 1326 1975 
Q 1069 1734 1069 1313 
Q 1069 891 1326 650 
Q 1584 409 2034 409 
Q 2484 409 2743 651 
Q 3003 894 3003 1313 
Q 3003 1734 2745 1975 
Q 2488 2216 2034 2216 
z
M 1403 2484 
Q 997 2584 770 2862 
Q 544 3141 544 3541 
Q 544 4100 942 4425 
Q 1341 4750 2034 4750 
Q 2731 4750 3128 4425 
Q 3525 4100 3525 3541 
Q 3525 3141 3298 2862 
Q 3072 2584 2669 2484 
Q 3125 2378 3379 2068 
Q 3634 1759 3634 1313 
Q 3634 634 3220 271 
Q 2806 -91 2034 -91 
Q 1263 -91 848 271 
Q 434 634 434 1313 
Q 434 1759 690 2068 
Q 947 2378 1403 2484 
z
M 1172 3481 
Q 1172 3119 1398 2916 
Q 1625 2713 2034 2713 
Q 2441 2713 2670 2916 
Q 2900 3119 2900 3481 
Q 2900 3844 2670 4047 
Q 2441 4250 2034 4250 
Q 1625 4250 1398 4047 
Q 1172 3844 1172 3481 
z
" transform="scale(0.015625)"/>
     </defs>
     <use xlink:href="#DejaVuSans-43"/>
     <use xlink:href="#DejaVuSans-33" transform="translate(69.824219 0)"/>
     <use xlink:href="#DejaVuSans-48" transform="translate(133.447266 0)"/>
     <use xlink:href="#DejaVuSans-34" transform="translate(208.642578 0)"/>
     <use xlink:href="#DejaVuSans-4e" transform="translate(272.265625 0)"/>
     <use xlink:href="#DejaVuSans-69" transform="translate(347.070312 0)"/>
     <use xlink:href="#DejaVuSans-34" transform="translate(374.853516 0)"/>
     <use xlink:href="#DejaVuSans-38" transform="translate(438.476562 0)"/>
    </g>
    <!-- Error: -6.54 eV -->
    <g transform="translate(120.011527 14.055767) scale(0.1 -0.1)">
     <defs>
      <path id="DejaVuSans-45" d="M 628 4666 
L 3578 4666 
L 3578 4134 
L 1259 4134 
L 1259 2753 
L 3481 2753 
L 3481 2222 
L 1259 2222 
L 1259 531 
L 3634 531 
L 3634 0 
L 628 0 
L 628 4666 
z
" transform="scale(0.015625)"/>
      <path id="DejaVuSans-72" d="M 2631 2963 
Q 2534 3019 2420 3045 
Q 2306 3072 2169 3072 
Q 1681 3072 1420 2755 
Q 1159 2438 1159 1844 
L 1159 0 
L 581 0 
L 581 3500 
L 1159 3500 
L 1159 2956 
Q 1341 3275 1631 3429 
Q 1922 3584 2338 3584 
Q 2397 3584 2469 3576 
Q 2541 3569 2628 3553 
L 2631 2963 
z
" transform="scale(0.015625)"/>
      <path id="DejaVuSans-6f" d="M 1959 3097 
Q 1497 3097 1228 2736 
Q 959 2375 959 1747 
Q 959 1119 1226 758 
Q 1494 397 1959 397 
Q 2419 397 2687 759 
Q 2956 1122 2956 1747 
Q 2956 2369 2687 2733 
Q 2419 3097 1959 3097 
z
M 1959 3584 
Q 2709 3584 3137 3096 
Q 3566 2609 3566 1747 
Q 3566 888 3137 398 
Q 2709 -91 1959 -91 
Q 1206 -91 779 398 
Q 353 888 353 1747 
Q 353 2609 779 3096 
Q 1206 3584 1959 3584 
z
" transform="scale(0.015625)"/>
      <path id="DejaVuSans-3a" d="M 750 794 
L 1409 794 
L 1409 0 
L 750 0 
L 750 794 
z
M 750 3309 
L 1409 3309 
L 1409 2516 
L 750 2516 
L 750 3309 
z
" transform="scale(0.015625)"/>
      <path id="DejaVuSans-20" transform="scale(0.015625)"/>
      <path id="DejaVuSans-2d" d="M 313 2009 
L 1997 2009 
L 1997 1497 
L 313 1497 
L 313 2009 
z
" transform="scale(0.015625)"/>
      <path id="DejaVuSans-36" d="M 2113 2584 
Q 1688 2584 1439 2293 
Q 1191 2003 1191 1497 
Q 1191 994 1439 701 
Q 1688 409 2113 409 
Q 2538 409 2786 701 
Q 3034 994 3034 1497 
Q 3034 2003 2786 2293 
Q 2538 2584 2113 2584 
z
M 3366 4563 
L 3366 3988 
Q 3128 4100 2886 4159 
Q 2644 4219 2406 4219 
Q 1781 4219 1451 3797 
Q 1122 3375 1075 2522 
Q 1259 2794 1537 2939 
Q 1816 3084 2150 3084 
Q 2853 3084 3261 2657 
Q 3669 2231 3669 1497 
Q 3669 778 3244 343 
Q 2819 -91 2113 -91 
Q 1303 -91 875 529 
Q 447 1150 447 2328 
Q 447 3434 972 4092 
Q 1497 4750 2381 4750 
Q 2619 4750 2861 4703 
Q 3103 4656 3366 4563 
z
" transform="scale(0.015625)"/>
      <path id="DejaVuSans-2e" d="M 684 794 
L 1344 794 
L 1344 0 
L 684 0 
L 684 794 
z
" transform="scale(0.015625)"/>
      <path id="DejaVuSans-35" d="M 691 4666 
L 3169 4666 
L 3169 4134 
L 1269 4134 
L 1269 2991 
Q 1406 3038 1543 3061 
Q 1681 3084 1819 3084 
Q 2600 3084 3056 2656 
Q 3513 2228 3513 1497 
Q 3513 744 3044 326 
Q 2575 -91 1722 -91 
Q 1428 -91 1123 -41 
Q 819 9 494 109 
L 494 744 
Q 775 591 1075 516 
Q 1375 441 1709 441 
Q 2250 441 2565 725 
Q 2881 1009 2881 1497 
Q 2881 1984 2565 2268 
Q 2250 2553 1709 2553 
Q 1456 2553 1204 2497 
Q 953 2441 691 2322 
L 691 4666 
z
" transform="scale(0.015625)"/>
      <path id="DejaVuSans-65" d="M 3597 1894 
L 3597 1613 
L 953 1613 
Q 991 1019 1311 708 
Q 1631 397 2203 397 
Q 2534 397 2845 478 
Q 3156 559 3463 722 
L 3463 178 
Q 3153 47 2828 -22 
Q 2503 -91 2169 -91 
Q 1331 -91 842 396 
Q 353 884 353 1716 
Q 353 2575 817 3079 
Q 1281 3584 2069 3584 
Q 2775 3584 3186 3129 
Q 3597 2675 3597 1894 
z
M 3022 2063 
Q 3016 2534 2758 2815 
Q 2500 3097 2075 3097 
Q 1594 3097 1305 2825 
Q 1016 2553 972 2059 
L 3022 2063 
z
" transform="scale(0.015625)"/>
      <path id="DejaVuSans-56" d="M 1831 0 
L 50 4666 
L 709 4666 
L 2188 738 
L 3669 4666 
L 4325 4666 
L 2547 0 
L 1831 0 
z
" transform="scale(0.015625)"/>
     </defs>
     <use xlink:href="#DejaVuSans-45"/>
     <use xlink:href="#DejaVuSans-72" transform="translate(63.183594 0)"/>
     <use xlink:href="#DejaVuSans-72" transform="translate(102.546875 0)"/>
     <use xlink:href="#DejaVuSans-6f" transform="translate(141.410156 0)"/>
     <use xlink:href="#DejaVuSans-72" transform="translate(202.591797 0)"/>
     <use xlink:href="#DejaVuSans-3a" transform="translate(241.955078 0)"/>
     <use xlink:href="#DejaVuSans-20" transform="translate(275.646484 0)"/>
     <use xlink:href="#DejaVuSans-2d" transform="translate(307.433594 0)"/>
     <use xlink:href="#DejaVuSans-36" transform="translate(343.517578 0)"/>
     <use xlink:href="#DejaVuSans-2e" transform="translate(407.140625 0)"/>
     <use xlink:href="#DejaVuSans-35" transform="translate(438.927734 0)"/>
     <use xlink:href="#DejaVuSans-34" transform="translate(502.550781 0)"/>
     <use xlink:href="#DejaVuSans-20" transform="translate(566.173828 0)"/>
     <use xlink:href="#DejaVuSans-65" transform="translate(597.960938 0)"/>
     <use xlink:href="#DejaVuSans-56" transform="translate(659.484375 0)"/>
    </g>
   </g>
  </g>
 </g>
 <defs>
  <clipPath id="pa3ef9fc371">
   <rect x="36" y="34.56" width="223.2" height="221.76"/>
  </clipPath>
 </defs>
</svg>
