<?xml version="1.0" encoding="utf-8" standalone="no"?>
<!DOCTYPE svg PUBLIC "-//W3C//DTD SVG 1.1//EN"
  "http://www.w3.org/Graphics/SVG/1.1/DTD/svg11.dtd">
<svg xmlns:xlink="http://www.w3.org/1999/xlink" width="288pt" height="288pt" viewBox="0 0 288 288" xmlns="http://www.w3.org/2000/svg" version="1.1">
 <metadata>
  <rdf:RDF xmlns:dc="http://purl.org/dc/elements/1.1/" xmlns:cc="http://creativecommons.org/ns#" xmlns:rdf="http://www.w3.org/1999/02/22-rdf-syntax-ns#">
   <cc:Work>
    <dc:type rdf:resource="http://purl.org/dc/dcmitype/StillImage"/>
    <dc:date>2025-06-30T12:10:41.415529</dc:date>
    <dc:format>image/svg+xml</dc:format>
    <dc:creator>
     <cc:Agent>
      <dc:title>Matplotlib v3.10.1, https://matplotlib.org/</dc:title>
     </cc:Agent>
    </dc:creator>
   </cc:Work>
  </rdf:RDF>
 </metadata>
 <defs>
  <style type="text/css">*{stroke-linejoin: round; stroke-linecap: butt}</style>
 </defs>
 <g id="figure_1">
  <g id="patch_1">
   <path d="M 0 288 
L 288 288 
L 288 0 
L 0 0 
z
" style="fill: #ffffff"/>
  </g>
  <g id="axes_1">
   <g id="LineCollection_1">
    <path d="M 98.551186 53.803636 
L 72.15046 61.785444 
" clip-path="url(#p22ee2f8c4a)" style="fill: none; stroke: #000000; stroke-width: 1.2"/>
    <path d="M 98.551186 53.803636 
L 116.509711 68.012204 
" clip-path="url(#p22ee2f8c4a)" style="fill: none; stroke: #000000; stroke-width: 1.2"/>
    <path d="M 98.551186 53.803636 
L 86.906551 56.113646 
" clip-path="url(#p22ee2f8c4a)" style="fill: none; stroke: #000000; stroke-width: 1.2"/>
    <path d="M 98.551186 53.803636 
L 62.862235 69.56653 
" clip-path="url(#p22ee2f8c4a)" style="fill: none; stroke: #000000; stroke-width: 1.2"/>
    <path d="M 98.551186 53.803636 
L 127.608744 69.529975 
" clip-path="url(#p22ee2f8c4a)" style="fill: none; stroke: #000000; stroke-width: 1.2"/>
    <path d="M 98.551186 53.803636 
L 99.823614 65.554186 
" clip-path="url(#p22ee2f8c4a)" style="fill: none; stroke: #000000; stroke-width: 1.2"/>
    <path d="M 98.551186 53.803636 
L 74.726212 89.647573 
" clip-path="url(#p22ee2f8c4a)" style="fill: none; stroke: #000000; stroke-width: 1.2"/>
    <path d="M 98.551186 53.803636 
L 109.226365 93.386196 
" clip-path="url(#p22ee2f8c4a)" style="fill: none; stroke: #000000; stroke-width: 1.2"/>
    <path d="M 98.551186 53.803636 
L 96.388123 101.641758 
" clip-path="url(#p22ee2f8c4a)" style="fill: none; stroke: #000000; stroke-width: 1.2"/>
    <path d="M 72.15046 61.785444 
L 116.509711 68.012204 
" clip-path="url(#p22ee2f8c4a)" style="fill: none; stroke: #000000; stroke-width: 1.2"/>
    <path d="M 72.15046 61.785444 
L 86.906551 56.113646 
" clip-path="url(#p22ee2f8c4a)" style="fill: none; stroke: #000000; stroke-width: 1.2"/>
    <path d="M 72.15046 61.785444 
L 94.761573 77.325407 
" clip-path="url(#p22ee2f8c4a)" style="fill: none; stroke: #000000; stroke-width: 1.2"/>
    <path d="M 72.15046 61.785444 
L 115.008051 57.292716 
" clip-path="url(#p22ee2f8c4a)" style="fill: none; stroke: #000000; stroke-width: 1.2"/>
    <path d="M 72.15046 61.785444 
L 55.368595 79.119887 
" clip-path="url(#p22ee2f8c4a)" style="fill: none; stroke: #000000; stroke-width: 1.2"/>
    <path d="M 72.15046 61.785444 
L 74.726212 89.647573 
" clip-path="url(#p22ee2f8c4a)" style="fill: none; stroke: #000000; stroke-width: 1.2"/>
    <path d="M 72.15046 61.785444 
L 88.329569 108.856981 
" clip-path="url(#p22ee2f8c4a)" style="fill: none; stroke: #000000; stroke-width: 1.2"/>
    <path d="M 72.15046 61.785444 
L 90.746815 93.015091 
" clip-path="url(#p22ee2f8c4a)" style="fill: none; stroke: #000000; stroke-width: 1.2"/>
    <path d="M 116.509711 68.012204 
L 79.094064 71.918592 
" clip-path="url(#p22ee2f8c4a)" style="fill: none; stroke: #000000; stroke-width: 1.2"/>
    <path d="M 116.509711 68.012204 
L 136.684855 75.84169 
" clip-path="url(#p22ee2f8c4a)" style="fill: none; stroke: #000000; stroke-width: 1.2"/>
    <path d="M 116.509711 68.012204 
L 94.761573 77.325407 
" clip-path="url(#p22ee2f8c4a)" style="fill: none; stroke: #000000; stroke-width: 1.2"/>
    <path d="M 116.509711 68.012204 
L 99.823614 65.554186 
" clip-path="url(#p22ee2f8c4a)" style="fill: none; stroke: #000000; stroke-width: 1.2"/>
    <path d="M 116.509711 68.012204 
L 109.226365 93.386196 
" clip-path="url(#p22ee2f8c4a)" style="fill: none; stroke: #000000; stroke-width: 1.2"/>
    <path d="M 116.509711 68.012204 
L 88.329569 108.856981 
" clip-path="url(#p22ee2f8c4a)" style="fill: none; stroke: #000000; stroke-width: 1.2"/>
    <path d="M 116.509711 68.012204 
L 109.260762 107.587608 
" clip-path="url(#p22ee2f8c4a)" style="fill: none; stroke: #000000; stroke-width: 1.2"/>
    <path d="M 79.094064 71.918592 
L 136.684855 75.84169 
" clip-path="url(#p22ee2f8c4a)" style="fill: none; stroke: #000000; stroke-width: 1.2"/>
    <path d="M 79.094064 71.918592 
L 86.906551 56.113646 
" clip-path="url(#p22ee2f8c4a)" style="fill: none; stroke: #000000; stroke-width: 1.2"/>
    <path d="M 79.094064 71.918592 
L 62.862235 69.56653 
" clip-path="url(#p22ee2f8c4a)" style="fill: none; stroke: #000000; stroke-width: 1.2"/>
    <path d="M 79.094064 71.918592 
L 99.823614 65.554186 
" clip-path="url(#p22ee2f8c4a)" style="fill: none; stroke: #000000; stroke-width: 1.2"/>
    <path d="M 79.094064 71.918592 
L 55.368595 79.119887 
" clip-path="url(#p22ee2f8c4a)" style="fill: none; stroke: #000000; stroke-width: 1.2"/>
    <path d="M 79.094064 71.918592 
L 109.260762 107.587608 
" clip-path="url(#p22ee2f8c4a)" style="fill: none; stroke: #000000; stroke-width: 1.2"/>
    <path d="M 79.094064 71.918592 
L 61.239416 98.363799 
" clip-path="url(#p22ee2f8c4a)" style="fill: none; stroke: #000000; stroke-width: 1.2"/>
    <path d="M 79.094064 71.918592 
L 76.645489 104.34795 
" clip-path="url(#p22ee2f8c4a)" style="fill: none; stroke: #000000; stroke-width: 1.2"/>
    <path d="M 136.684855 75.84169 
L 86.906551 56.113646 
" clip-path="url(#p22ee2f8c4a)" style="fill: none; stroke: #000000; stroke-width: 1.2"/>
    <path d="M 136.684855 75.84169 
L 94.761573 77.325407 
" clip-path="url(#p22ee2f8c4a)" style="fill: none; stroke: #000000; stroke-width: 1.2"/>
    <path d="M 136.684855 75.84169 
L 127.608744 69.529975 
" clip-path="url(#p22ee2f8c4a)" style="fill: none; stroke: #000000; stroke-width: 1.2"/>
    <path d="M 136.684855 75.84169 
L 115.008051 57.292716 
" clip-path="url(#p22ee2f8c4a)" style="fill: none; stroke: #000000; stroke-width: 1.2"/>
    <path d="M 136.684855 75.84169 
L 109.260762 107.587608 
" clip-path="url(#p22ee2f8c4a)" style="fill: none; stroke: #000000; stroke-width: 1.2"/>
    <path d="M 136.684855 75.84169 
L 119.978958 91.853287 
" clip-path="url(#p22ee2f8c4a)" style="fill: none; stroke: #000000; stroke-width: 1.2"/>
    <path d="M 136.684855 75.84169 
L 127.605608 110.136447 
" clip-path="url(#p22ee2f8c4a)" style="fill: none; stroke: #000000; stroke-width: 1.2"/>
    <path d="M 86.906551 56.113646 
L 62.862235 69.56653 
" clip-path="url(#p22ee2f8c4a)" style="fill: none; stroke: #000000; stroke-width: 1.2"/>
    <path d="M 86.906551 56.113646 
L 115.008051 57.292716 
" clip-path="url(#p22ee2f8c4a)" style="fill: none; stroke: #000000; stroke-width: 1.2"/>
    <path d="M 86.906551 56.113646 
L 74.726212 89.647573 
" clip-path="url(#p22ee2f8c4a)" style="fill: none; stroke: #000000; stroke-width: 1.2"/>
    <path d="M 86.906551 56.113646 
L 61.239416 98.363799 
" clip-path="url(#p22ee2f8c4a)" style="fill: none; stroke: #000000; stroke-width: 1.2"/>
    <path d="M 86.906551 56.113646 
L 119.978958 91.853287 
" clip-path="url(#p22ee2f8c4a)" style="fill: none; stroke: #000000; stroke-width: 1.2"/>
    <path d="M 94.761573 77.325407 
L 62.862235 69.56653 
" clip-path="url(#p22ee2f8c4a)" style="fill: none; stroke: #000000; stroke-width: 1.2"/>
    <path d="M 94.761573 77.325407 
L 127.608744 69.529975 
" clip-path="url(#p22ee2f8c4a)" style="fill: none; stroke: #000000; stroke-width: 1.2"/>
    <path d="M 94.761573 77.325407 
L 55.368595 79.119887 
" clip-path="url(#p22ee2f8c4a)" style="fill: none; stroke: #000000; stroke-width: 1.2"/>
    <path d="M 94.761573 77.325407 
L 88.329569 108.856981 
" clip-path="url(#p22ee2f8c4a)" style="fill: none; stroke: #000000; stroke-width: 1.2"/>
    <path d="M 94.761573 77.325407 
L 64.176461 111.774244 
" clip-path="url(#p22ee2f8c4a)" style="fill: none; stroke: #000000; stroke-width: 1.2"/>
    <path d="M 94.761573 77.325407 
L 127.605608 110.136447 
" clip-path="url(#p22ee2f8c4a)" style="fill: none; stroke: #000000; stroke-width: 1.2"/>
    <path d="M 62.862235 69.56653 
L 127.608744 69.529975 
" clip-path="url(#p22ee2f8c4a)" style="fill: none; stroke: #000000; stroke-width: 1.2"/>
    <path d="M 62.862235 69.56653 
L 55.368595 79.119887 
" clip-path="url(#p22ee2f8c4a)" style="fill: none; stroke: #000000; stroke-width: 1.2"/>
    <path d="M 62.862235 69.56653 
L 61.239416 98.363799 
" clip-path="url(#p22ee2f8c4a)" style="fill: none; stroke: #000000; stroke-width: 1.2"/>
    <path d="M 62.862235 69.56653 
L 64.176461 111.774244 
" clip-path="url(#p22ee2f8c4a)" style="fill: none; stroke: #000000; stroke-width: 1.2"/>
    <path d="M 62.862235 69.56653 
L 96.388123 101.641758 
" clip-path="url(#p22ee2f8c4a)" style="fill: none; stroke: #000000; stroke-width: 1.2"/>
    <path d="M 127.608744 69.529975 
L 115.008051 57.292716 
" clip-path="url(#p22ee2f8c4a)" style="fill: none; stroke: #000000; stroke-width: 1.2"/>
    <path d="M 127.608744 69.529975 
L 99.823614 65.554186 
" clip-path="url(#p22ee2f8c4a)" style="fill: none; stroke: #000000; stroke-width: 1.2"/>
    <path d="M 127.608744 69.529975 
L 127.605608 110.136447 
" clip-path="url(#p22ee2f8c4a)" style="fill: none; stroke: #000000; stroke-width: 1.2"/>
    <path d="M 127.608744 69.529975 
L 96.388123 101.641758 
" clip-path="url(#p22ee2f8c4a)" style="fill: none; stroke: #000000; stroke-width: 1.2"/>
    <path d="M 127.608744 69.529975 
L 133.53118 96.226645 
" clip-path="url(#p22ee2f8c4a)" style="fill: none; stroke: #000000; stroke-width: 1.2"/>
    <path d="M 115.008051 57.292716 
L 99.823614 65.554186 
" clip-path="url(#p22ee2f8c4a)" style="fill: none; stroke: #000000; stroke-width: 1.2"/>
    <path d="M 115.008051 57.292716 
L 55.368595 79.119887 
" clip-path="url(#p22ee2f8c4a)" style="fill: none; stroke: #000000; stroke-width: 1.2"/>
    <path d="M 115.008051 57.292716 
L 119.978958 91.853287 
" clip-path="url(#p22ee2f8c4a)" style="fill: none; stroke: #000000; stroke-width: 1.2"/>
    <path d="M 115.008051 57.292716 
L 133.53118 96.226645 
" clip-path="url(#p22ee2f8c4a)" style="fill: none; stroke: #000000; stroke-width: 1.2"/>
    <path d="M 115.008051 57.292716 
L 90.746815 93.015091 
" clip-path="url(#p22ee2f8c4a)" style="fill: none; stroke: #000000; stroke-width: 1.2"/>
    <path d="M 99.823614 65.554186 
L 55.368595 79.119887 
" clip-path="url(#p22ee2f8c4a)" style="fill: none; stroke: #000000; stroke-width: 1.2"/>
    <path d="M 99.823614 65.554186 
L 109.226365 93.386196 
" clip-path="url(#p22ee2f8c4a)" style="fill: none; stroke: #000000; stroke-width: 1.2"/>
    <path d="M 99.823614 65.554186 
L 133.53118 96.226645 
" clip-path="url(#p22ee2f8c4a)" style="fill: none; stroke: #000000; stroke-width: 1.2"/>
    <path d="M 99.823614 65.554186 
L 76.645489 104.34795 
" clip-path="url(#p22ee2f8c4a)" style="fill: none; stroke: #000000; stroke-width: 1.2"/>
    <path d="M 55.368595 79.119887 
L 64.176461 111.774244 
" clip-path="url(#p22ee2f8c4a)" style="fill: none; stroke: #000000; stroke-width: 1.2"/>
    <path d="M 55.368595 79.119887 
L 90.746815 93.015091 
" clip-path="url(#p22ee2f8c4a)" style="fill: none; stroke: #000000; stroke-width: 1.2"/>
    <path d="M 55.368595 79.119887 
L 76.645489 104.34795 
" clip-path="url(#p22ee2f8c4a)" style="fill: none; stroke: #000000; stroke-width: 1.2"/>
    <path d="M 74.726212 89.647573 
L 109.226365 93.386196 
" clip-path="url(#p22ee2f8c4a)" style="fill: none; stroke: #000000; stroke-width: 1.2"/>
    <path d="M 74.726212 89.647573 
L 88.329569 108.856981 
" clip-path="url(#p22ee2f8c4a)" style="fill: none; stroke: #000000; stroke-width: 1.2"/>
    <path d="M 74.726212 89.647573 
L 61.239416 98.363799 
" clip-path="url(#p22ee2f8c4a)" style="fill: none; stroke: #000000; stroke-width: 1.2"/>
    <path d="M 74.726212 89.647573 
L 119.978958 91.853287 
" clip-path="url(#p22ee2f8c4a)" style="fill: none; stroke: #000000; stroke-width: 1.2"/>
    <path d="M 74.726212 89.647573 
L 96.388123 101.641758 
" clip-path="url(#p22ee2f8c4a)" style="fill: none; stroke: #000000; stroke-width: 1.2"/>
    <path d="M 74.726212 89.647573 
L 90.746815 93.015091 
" clip-path="url(#p22ee2f8c4a)" style="fill: none; stroke: #000000; stroke-width: 1.2"/>
    <path d="M 74.726212 89.647573 
L 66.947048 126.365085 
" clip-path="url(#p22ee2f8c4a)" style="fill: none; stroke: #000000; stroke-width: 1.2"/>
    <path d="M 74.726212 89.647573 
L 83.452461 128.376642 
" clip-path="url(#p22ee2f8c4a)" style="fill: none; stroke: #000000; stroke-width: 1.2"/>
    <path d="M 74.726212 89.647573 
L 112.28583 119.975659 
" clip-path="url(#p22ee2f8c4a)" style="fill: none; stroke: #000000; stroke-width: 1.2"/>
    <path d="M 109.226365 93.386196 
L 88.329569 108.856981 
" clip-path="url(#p22ee2f8c4a)" style="fill: none; stroke: #000000; stroke-width: 1.2"/>
    <path d="M 109.226365 93.386196 
L 109.260762 107.587608 
" clip-path="url(#p22ee2f8c4a)" style="fill: none; stroke: #000000; stroke-width: 1.2"/>
    <path d="M 109.226365 93.386196 
L 96.388123 101.641758 
" clip-path="url(#p22ee2f8c4a)" style="fill: none; stroke: #000000; stroke-width: 1.2"/>
    <path d="M 109.226365 93.386196 
L 133.53118 96.226645 
" clip-path="url(#p22ee2f8c4a)" style="fill: none; stroke: #000000; stroke-width: 1.2"/>
    <path d="M 109.226365 93.386196 
L 76.645489 104.34795 
" clip-path="url(#p22ee2f8c4a)" style="fill: none; stroke: #000000; stroke-width: 1.2"/>
    <path d="M 109.226365 93.386196 
L 83.452461 128.376642 
" clip-path="url(#p22ee2f8c4a)" style="fill: none; stroke: #000000; stroke-width: 1.2"/>
    <path d="M 109.226365 93.386196 
L 84.969208 142.592678 
" clip-path="url(#p22ee2f8c4a)" style="fill: none; stroke: #000000; stroke-width: 1.2"/>
    <path d="M 109.226365 93.386196 
L 123.676614 128.179626 
" clip-path="url(#p22ee2f8c4a)" style="fill: none; stroke: #000000; stroke-width: 1.2"/>
    <path d="M 88.329569 108.856981 
L 109.260762 107.587608 
" clip-path="url(#p22ee2f8c4a)" style="fill: none; stroke: #000000; stroke-width: 1.2"/>
    <path d="M 88.329569 108.856981 
L 64.176461 111.774244 
" clip-path="url(#p22ee2f8c4a)" style="fill: none; stroke: #000000; stroke-width: 1.2"/>
    <path d="M 88.329569 108.856981 
L 127.605608 110.136447 
" clip-path="url(#p22ee2f8c4a)" style="fill: none; stroke: #000000; stroke-width: 1.2"/>
    <path d="M 88.329569 108.856981 
L 90.746815 93.015091 
" clip-path="url(#p22ee2f8c4a)" style="fill: none; stroke: #000000; stroke-width: 1.2"/>
    <path d="M 88.329569 108.856981 
L 83.452461 128.376642 
" clip-path="url(#p22ee2f8c4a)" style="fill: none; stroke: #000000; stroke-width: 1.2"/>
    <path d="M 88.329569 108.856981 
L 117.274148 144.772531 
" clip-path="url(#p22ee2f8c4a)" style="fill: none; stroke: #000000; stroke-width: 1.2"/>
    <path d="M 88.329569 108.856981 
L 73.336242 141.081501 
" clip-path="url(#p22ee2f8c4a)" style="fill: none; stroke: #000000; stroke-width: 1.2"/>
    <path d="M 109.260762 107.587608 
L 61.239416 98.363799 
" clip-path="url(#p22ee2f8c4a)" style="fill: none; stroke: #000000; stroke-width: 1.2"/>
    <path d="M 109.260762 107.587608 
L 119.978958 91.853287 
" clip-path="url(#p22ee2f8c4a)" style="fill: none; stroke: #000000; stroke-width: 1.2"/>
    <path d="M 109.260762 107.587608 
L 127.605608 110.136447 
" clip-path="url(#p22ee2f8c4a)" style="fill: none; stroke: #000000; stroke-width: 1.2"/>
    <path d="M 109.260762 107.587608 
L 76.645489 104.34795 
" clip-path="url(#p22ee2f8c4a)" style="fill: none; stroke: #000000; stroke-width: 1.2"/>
    <path d="M 109.260762 107.587608 
L 117.274148 144.772531 
" clip-path="url(#p22ee2f8c4a)" style="fill: none; stroke: #000000; stroke-width: 1.2"/>
    <path d="M 109.260762 107.587608 
L 84.969208 142.592678 
" clip-path="url(#p22ee2f8c4a)" style="fill: none; stroke: #000000; stroke-width: 1.2"/>
    <path d="M 109.260762 107.587608 
L 97.190845 132.021381 
" clip-path="url(#p22ee2f8c4a)" style="fill: none; stroke: #000000; stroke-width: 1.2"/>
    <path d="M 61.239416 98.363799 
L 119.978958 91.853287 
" clip-path="url(#p22ee2f8c4a)" style="fill: none; stroke: #000000; stroke-width: 1.2"/>
    <path d="M 61.239416 98.363799 
L 64.176461 111.774244 
" clip-path="url(#p22ee2f8c4a)" style="fill: none; stroke: #000000; stroke-width: 1.2"/>
    <path d="M 61.239416 98.363799 
L 96.388123 101.641758 
" clip-path="url(#p22ee2f8c4a)" style="fill: none; stroke: #000000; stroke-width: 1.2"/>
    <path d="M 61.239416 98.363799 
L 76.645489 104.34795 
" clip-path="url(#p22ee2f8c4a)" style="fill: none; stroke: #000000; stroke-width: 1.2"/>
    <path d="M 61.239416 98.363799 
L 66.947048 126.365085 
" clip-path="url(#p22ee2f8c4a)" style="fill: none; stroke: #000000; stroke-width: 1.2"/>
    <path d="M 61.239416 98.363799 
L 97.190845 132.021381 
" clip-path="url(#p22ee2f8c4a)" style="fill: none; stroke: #000000; stroke-width: 1.2"/>
    <path d="M 61.239416 98.363799 
L 56.464839 135.757304 
" clip-path="url(#p22ee2f8c4a)" style="fill: none; stroke: #000000; stroke-width: 1.2"/>
    <path d="M 119.978958 91.853287 
L 127.605608 110.136447 
" clip-path="url(#p22ee2f8c4a)" style="fill: none; stroke: #000000; stroke-width: 1.2"/>
    <path d="M 119.978958 91.853287 
L 133.53118 96.226645 
" clip-path="url(#p22ee2f8c4a)" style="fill: none; stroke: #000000; stroke-width: 1.2"/>
    <path d="M 119.978958 91.853287 
L 90.746815 93.015091 
" clip-path="url(#p22ee2f8c4a)" style="fill: none; stroke: #000000; stroke-width: 1.2"/>
    <path d="M 119.978958 91.853287 
L 97.190845 132.021381 
" clip-path="url(#p22ee2f8c4a)" style="fill: none; stroke: #000000; stroke-width: 1.2"/>
    <path d="M 119.978958 91.853287 
L 112.28583 119.975659 
" clip-path="url(#p22ee2f8c4a)" style="fill: none; stroke: #000000; stroke-width: 1.2"/>
    <path d="M 119.978958 91.853287 
L 142.240414 128.063914 
" clip-path="url(#p22ee2f8c4a)" style="fill: none; stroke: #000000; stroke-width: 1.2"/>
    <path d="M 64.176461 111.774244 
L 127.605608 110.136447 
" clip-path="url(#p22ee2f8c4a)" style="fill: none; stroke: #000000; stroke-width: 1.2"/>
    <path d="M 64.176461 111.774244 
L 96.388123 101.641758 
" clip-path="url(#p22ee2f8c4a)" style="fill: none; stroke: #000000; stroke-width: 1.2"/>
    <path d="M 64.176461 111.774244 
L 90.746815 93.015091 
" clip-path="url(#p22ee2f8c4a)" style="fill: none; stroke: #000000; stroke-width: 1.2"/>
    <path d="M 64.176461 111.774244 
L 76.645489 104.34795 
" clip-path="url(#p22ee2f8c4a)" style="fill: none; stroke: #000000; stroke-width: 1.2"/>
    <path d="M 64.176461 111.774244 
L 73.336242 141.081501 
" clip-path="url(#p22ee2f8c4a)" style="fill: none; stroke: #000000; stroke-width: 1.2"/>
    <path d="M 64.176461 111.774244 
L 99.717183 145.836798 
" clip-path="url(#p22ee2f8c4a)" style="fill: none; stroke: #000000; stroke-width: 1.2"/>
    <path d="M 64.176461 111.774244 
L 56.464839 135.757304 
" clip-path="url(#p22ee2f8c4a)" style="fill: none; stroke: #000000; stroke-width: 1.2"/>
    <path d="M 127.605608 110.136447 
L 96.388123 101.641758 
" clip-path="url(#p22ee2f8c4a)" style="fill: none; stroke: #000000; stroke-width: 1.2"/>
    <path d="M 127.605608 110.136447 
L 133.53118 96.226645 
" clip-path="url(#p22ee2f8c4a)" style="fill: none; stroke: #000000; stroke-width: 1.2"/>
    <path d="M 127.605608 110.136447 
L 117.274148 144.772531 
" clip-path="url(#p22ee2f8c4a)" style="fill: none; stroke: #000000; stroke-width: 1.2"/>
    <path d="M 127.605608 110.136447 
L 99.717183 145.836798 
" clip-path="url(#p22ee2f8c4a)" style="fill: none; stroke: #000000; stroke-width: 1.2"/>
    <path d="M 127.605608 110.136447 
L 142.240414 128.063914 
" clip-path="url(#p22ee2f8c4a)" style="fill: none; stroke: #000000; stroke-width: 1.2"/>
    <path d="M 96.388123 101.641758 
L 133.53118 96.226645 
" clip-path="url(#p22ee2f8c4a)" style="fill: none; stroke: #000000; stroke-width: 1.2"/>
    <path d="M 96.388123 101.641758 
L 66.947048 126.365085 
" clip-path="url(#p22ee2f8c4a)" style="fill: none; stroke: #000000; stroke-width: 1.2"/>
    <path d="M 96.388123 101.641758 
L 99.717183 145.836798 
" clip-path="url(#p22ee2f8c4a)" style="fill: none; stroke: #000000; stroke-width: 1.2"/>
    <path d="M 96.388123 101.641758 
L 123.676614 128.179626 
" clip-path="url(#p22ee2f8c4a)" style="fill: none; stroke: #000000; stroke-width: 1.2"/>
    <path d="M 133.53118 96.226645 
L 90.746815 93.015091 
" clip-path="url(#p22ee2f8c4a)" style="fill: none; stroke: #000000; stroke-width: 1.2"/>
    <path d="M 133.53118 96.226645 
L 76.645489 104.34795 
" clip-path="url(#p22ee2f8c4a)" style="fill: none; stroke: #000000; stroke-width: 1.2"/>
    <path d="M 133.53118 96.226645 
L 123.676614 128.179626 
" clip-path="url(#p22ee2f8c4a)" style="fill: none; stroke: #000000; stroke-width: 1.2"/>
    <path d="M 133.53118 96.226645 
L 142.240414 128.063914 
" clip-path="url(#p22ee2f8c4a)" style="fill: none; stroke: #000000; stroke-width: 1.2"/>
    <path d="M 133.53118 96.226645 
L 106.587776 133.51867 
" clip-path="url(#p22ee2f8c4a)" style="fill: none; stroke: #000000; stroke-width: 1.2"/>
    <path d="M 90.746815 93.015091 
L 76.645489 104.34795 
" clip-path="url(#p22ee2f8c4a)" style="fill: none; stroke: #000000; stroke-width: 1.2"/>
    <path d="M 90.746815 93.015091 
L 112.28583 119.975659 
" clip-path="url(#p22ee2f8c4a)" style="fill: none; stroke: #000000; stroke-width: 1.2"/>
    <path d="M 90.746815 93.015091 
L 73.336242 141.081501 
" clip-path="url(#p22ee2f8c4a)" style="fill: none; stroke: #000000; stroke-width: 1.2"/>
    <path d="M 90.746815 93.015091 
L 106.587776 133.51867 
" clip-path="url(#p22ee2f8c4a)" style="fill: none; stroke: #000000; stroke-width: 1.2"/>
    <path d="M 76.645489 104.34795 
L 84.969208 142.592678 
" clip-path="url(#p22ee2f8c4a)" style="fill: none; stroke: #000000; stroke-width: 1.2"/>
    <path d="M 76.645489 104.34795 
L 106.587776 133.51867 
" clip-path="url(#p22ee2f8c4a)" style="fill: none; stroke: #000000; stroke-width: 1.2"/>
    <path d="M 76.645489 104.34795 
L 56.464839 135.757304 
" clip-path="url(#p22ee2f8c4a)" style="fill: none; stroke: #000000; stroke-width: 1.2"/>
    <path d="M 66.947048 126.365085 
L 83.452461 128.376642 
" clip-path="url(#p22ee2f8c4a)" style="fill: none; stroke: #000000; stroke-width: 1.2"/>
    <path d="M 66.947048 126.365085 
L 97.190845 132.021381 
" clip-path="url(#p22ee2f8c4a)" style="fill: none; stroke: #000000; stroke-width: 1.2"/>
    <path d="M 66.947048 126.365085 
L 112.28583 119.975659 
" clip-path="url(#p22ee2f8c4a)" style="fill: none; stroke: #000000; stroke-width: 1.2"/>
    <path d="M 66.947048 126.365085 
L 99.717183 145.836798 
" clip-path="url(#p22ee2f8c4a)" style="fill: none; stroke: #000000; stroke-width: 1.2"/>
    <path d="M 66.947048 126.365085 
L 123.676614 128.179626 
" clip-path="url(#p22ee2f8c4a)" style="fill: none; stroke: #000000; stroke-width: 1.2"/>
    <path d="M 66.947048 126.365085 
L 56.464839 135.757304 
" clip-path="url(#p22ee2f8c4a)" style="fill: none; stroke: #000000; stroke-width: 1.2"/>
    <path d="M 83.452461 128.376642 
L 117.274148 144.772531 
" clip-path="url(#p22ee2f8c4a)" style="fill: none; stroke: #000000; stroke-width: 1.2"/>
    <path d="M 83.452461 128.376642 
L 84.969208 142.592678 
" clip-path="url(#p22ee2f8c4a)" style="fill: none; stroke: #000000; stroke-width: 1.2"/>
    <path d="M 83.452461 128.376642 
L 112.28583 119.975659 
" clip-path="url(#p22ee2f8c4a)" style="fill: none; stroke: #000000; stroke-width: 1.2"/>
    <path d="M 83.452461 128.376642 
L 73.336242 141.081501 
" clip-path="url(#p22ee2f8c4a)" style="fill: none; stroke: #000000; stroke-width: 1.2"/>
    <path d="M 83.452461 128.376642 
L 123.676614 128.179626 
" clip-path="url(#p22ee2f8c4a)" style="fill: none; stroke: #000000; stroke-width: 1.2"/>
    <path d="M 117.274148 144.772531 
L 84.969208 142.592678 
" clip-path="url(#p22ee2f8c4a)" style="fill: none; stroke: #000000; stroke-width: 1.2"/>
    <path d="M 117.274148 144.772531 
L 97.190845 132.021381 
" clip-path="url(#p22ee2f8c4a)" style="fill: none; stroke: #000000; stroke-width: 1.2"/>
    <path d="M 117.274148 144.772531 
L 73.336242 141.081501 
" clip-path="url(#p22ee2f8c4a)" style="fill: none; stroke: #000000; stroke-width: 1.2"/>
    <path d="M 117.274148 144.772531 
L 99.717183 145.836798 
" clip-path="url(#p22ee2f8c4a)" style="fill: none; stroke: #000000; stroke-width: 1.2"/>
    <path d="M 117.274148 144.772531 
L 142.240414 128.063914 
" clip-path="url(#p22ee2f8c4a)" style="fill: none; stroke: #000000; stroke-width: 1.2"/>
    <path d="M 117.274148 144.772531 
L 106.353933 184.201339 
" clip-path="url(#p22ee2f8c4a)" style="fill: none; stroke: #000000; stroke-width: 1.2"/>
    <path d="M 84.969208 142.592678 
L 97.190845 132.021381 
" clip-path="url(#p22ee2f8c4a)" style="fill: none; stroke: #000000; stroke-width: 1.2"/>
    <path d="M 84.969208 142.592678 
L 123.676614 128.179626 
" clip-path="url(#p22ee2f8c4a)" style="fill: none; stroke: #000000; stroke-width: 1.2"/>
    <path d="M 84.969208 142.592678 
L 106.587776 133.51867 
" clip-path="url(#p22ee2f8c4a)" style="fill: none; stroke: #000000; stroke-width: 1.2"/>
    <path d="M 84.969208 142.592678 
L 56.464839 135.757304 
" clip-path="url(#p22ee2f8c4a)" style="fill: none; stroke: #000000; stroke-width: 1.2"/>
    <path d="M 97.190845 132.021381 
L 112.28583 119.975659 
" clip-path="url(#p22ee2f8c4a)" style="fill: none; stroke: #000000; stroke-width: 1.2"/>
    <path d="M 97.190845 132.021381 
L 142.240414 128.063914 
" clip-path="url(#p22ee2f8c4a)" style="fill: none; stroke: #000000; stroke-width: 1.2"/>
    <path d="M 97.190845 132.021381 
L 56.464839 135.757304 
" clip-path="url(#p22ee2f8c4a)" style="fill: none; stroke: #000000; stroke-width: 1.2"/>
    <path d="M 112.28583 119.975659 
L 73.336242 141.081501 
" clip-path="url(#p22ee2f8c4a)" style="fill: none; stroke: #000000; stroke-width: 1.2"/>
    <path d="M 112.28583 119.975659 
L 142.240414 128.063914 
" clip-path="url(#p22ee2f8c4a)" style="fill: none; stroke: #000000; stroke-width: 1.2"/>
    <path d="M 112.28583 119.975659 
L 106.587776 133.51867 
" clip-path="url(#p22ee2f8c4a)" style="fill: none; stroke: #000000; stroke-width: 1.2"/>
    <path d="M 73.336242 141.081501 
L 99.717183 145.836798 
" clip-path="url(#p22ee2f8c4a)" style="fill: none; stroke: #000000; stroke-width: 1.2"/>
    <path d="M 73.336242 141.081501 
L 106.587776 133.51867 
" clip-path="url(#p22ee2f8c4a)" style="fill: none; stroke: #000000; stroke-width: 1.2"/>
    <path d="M 73.336242 141.081501 
L 56.464839 135.757304 
" clip-path="url(#p22ee2f8c4a)" style="fill: none; stroke: #000000; stroke-width: 1.2"/>
    <path d="M 99.717183 145.836798 
L 123.676614 128.179626 
" clip-path="url(#p22ee2f8c4a)" style="fill: none; stroke: #000000; stroke-width: 1.2"/>
    <path d="M 99.717183 145.836798 
L 142.240414 128.063914 
" clip-path="url(#p22ee2f8c4a)" style="fill: none; stroke: #000000; stroke-width: 1.2"/>
    <path d="M 99.717183 145.836798 
L 56.464839 135.757304 
" clip-path="url(#p22ee2f8c4a)" style="fill: none; stroke: #000000; stroke-width: 1.2"/>
    <path d="M 99.717183 145.836798 
L 118.744793 179.059097 
" clip-path="url(#p22ee2f8c4a)" style="fill: none; stroke: #000000; stroke-width: 1.2"/>
    <path d="M 123.676614 128.179626 
L 142.240414 128.063914 
" clip-path="url(#p22ee2f8c4a)" style="fill: none; stroke: #000000; stroke-width: 1.2"/>
    <path d="M 123.676614 128.179626 
L 106.587776 133.51867 
" clip-path="url(#p22ee2f8c4a)" style="fill: none; stroke: #000000; stroke-width: 1.2"/>
    <path d="M 142.240414 128.063914 
L 106.587776 133.51867 
" clip-path="url(#p22ee2f8c4a)" style="fill: none; stroke: #000000; stroke-width: 1.2"/>
    <path d="M 142.240414 128.063914 
L 178.00878 141.029548 
" clip-path="url(#p22ee2f8c4a)" style="fill: none; stroke: #000000; stroke-width: 1.2"/>
    <path d="M 106.587776 133.51867 
L 56.464839 135.757304 
" clip-path="url(#p22ee2f8c4a)" style="fill: none; stroke: #000000; stroke-width: 1.2"/>
    <path d="M 120.768462 237.076364 
L 136.905862 204.144843 
" clip-path="url(#p22ee2f8c4a)" style="fill: none; stroke: #000000; stroke-width: 1.2"/>
    <path d="M 106.353933 184.201339 
L 136.905862 204.144843 
" clip-path="url(#p22ee2f8c4a)" style="fill: none; stroke: #000000; stroke-width: 1.2"/>
    <path d="M 118.744793 179.059097 
L 136.905862 204.144843 
" clip-path="url(#p22ee2f8c4a)" style="fill: none; stroke: #000000; stroke-width: 1.2"/>
    <path d="M 178.00878 141.029548 
L 199.99337 170.976936 
" clip-path="url(#p22ee2f8c4a)" style="fill: none; stroke: #000000; stroke-width: 1.2"/>
    <path d="M 232.162982 185.769867 
L 199.99337 170.976936 
" clip-path="url(#p22ee2f8c4a)" style="fill: none; stroke: #000000; stroke-width: 1.2"/>
    <path d="M 239.831405 158.84775 
L 199.99337 170.976936 
" clip-path="url(#p22ee2f8c4a)" style="fill: none; stroke: #000000; stroke-width: 1.2"/>
    <path d="M 136.905862 204.144843 
L 179.723507 205.585582 
" clip-path="url(#p22ee2f8c4a)" style="fill: none; stroke: #000000; stroke-width: 1.2"/>
    <path d="M 179.723507 205.585582 
L 199.99337 170.976936 
" clip-path="url(#p22ee2f8c4a)" style="fill: none; stroke: #000000; stroke-width: 1.2"/>
    <path d="M 179.723507 205.585582 
L 195.613954 236.57658 
" clip-path="url(#p22ee2f8c4a)" style="fill: none; stroke: #000000; stroke-width: 1.2"/>
   </g>
   <g id="PathCollection_1">
    <defs>
     <path id="C0_0_06db31e865" d="M 0 8.944272 
C 2.372049 8.944272 4.647264 8.001847 6.324555 6.324555 
C 8.001847 4.647264 8.944272 2.372049 8.944272 -0 
C 8.944272 -2.372049 8.001847 -4.647264 6.324555 -6.324555 
C 4.647264 -8.001847 2.372049 -8.944272 0 -8.944272 
C -2.372049 -8.944272 -4.647264 -8.001847 -6.324555 -6.324555 
C -8.001847 -4.647264 -8.944272 -2.372049 -8.944272 0 
C -8.944272 2.372049 -8.001847 4.647264 -6.324555 6.324555 
C -4.647264 8.001847 -2.372049 8.944272 0 8.944272 
z
"/>
    </defs>
    <g clip-path="url(#p22ee2f8c4a)">
     <use xlink:href="#C0_0_06db31e865" x="98.551186" y="53.803636" style="fill: #175487; stroke: #175487; stroke-width: 0.5"/>
    </g>
    <g clip-path="url(#p22ee2f8c4a)">
     <use xlink:href="#C0_0_06db31e865" x="72.15046" y="61.785444" style="fill: #175487; stroke: #175487; stroke-width: 0.5"/>
    </g>
    <g clip-path="url(#p22ee2f8c4a)">
     <use xlink:href="#C0_0_06db31e865" x="116.509711" y="68.012204" style="fill: #175487; stroke: #175487; stroke-width: 0.5"/>
    </g>
    <g clip-path="url(#p22ee2f8c4a)">
     <use xlink:href="#C0_0_06db31e865" x="79.094064" y="71.918592" style="fill: #175487; stroke: #175487; stroke-width: 0.5"/>
    </g>
    <g clip-path="url(#p22ee2f8c4a)">
     <use xlink:href="#C0_0_06db31e865" x="136.684855" y="75.84169" style="fill: #175487; stroke: #175487; stroke-width: 0.5"/>
    </g>
    <g clip-path="url(#p22ee2f8c4a)">
     <use xlink:href="#C0_0_06db31e865" x="86.906551" y="56.113646" style="fill: #175487; stroke: #175487; stroke-width: 0.5"/>
    </g>
    <g clip-path="url(#p22ee2f8c4a)">
     <use xlink:href="#C0_0_06db31e865" x="94.761573" y="77.325407" style="fill: #175487; stroke: #175487; stroke-width: 0.5"/>
    </g>
    <g clip-path="url(#p22ee2f8c4a)">
     <use xlink:href="#C0_0_06db31e865" x="62.862235" y="69.56653" style="fill: #175487; stroke: #175487; stroke-width: 0.5"/>
    </g>
    <g clip-path="url(#p22ee2f8c4a)">
     <use xlink:href="#C0_0_06db31e865" x="127.608744" y="69.529975" style="fill: #175487; stroke: #175487; stroke-width: 0.5"/>
    </g>
    <g clip-path="url(#p22ee2f8c4a)">
     <use xlink:href="#C0_0_06db31e865" x="115.008051" y="57.292716" style="fill: #175487; stroke: #175487; stroke-width: 0.5"/>
    </g>
    <g clip-path="url(#p22ee2f8c4a)">
     <use xlink:href="#C0_0_06db31e865" x="99.823614" y="65.554186" style="fill: #175487; stroke: #175487; stroke-width: 0.5"/>
    </g>
    <g clip-path="url(#p22ee2f8c4a)">
     <use xlink:href="#C0_0_06db31e865" x="55.368595" y="79.119887" style="fill: #175487; stroke: #175487; stroke-width: 0.5"/>
    </g>
    <g clip-path="url(#p22ee2f8c4a)">
     <use xlink:href="#C0_0_06db31e865" x="74.726212" y="89.647573" style="fill: #175487; stroke: #175487; stroke-width: 0.5"/>
    </g>
    <g clip-path="url(#p22ee2f8c4a)">
     <use xlink:href="#C0_0_06db31e865" x="109.226365" y="93.386196" style="fill: #175487; stroke: #175487; stroke-width: 0.5"/>
    </g>
    <g clip-path="url(#p22ee2f8c4a)">
     <use xlink:href="#C0_0_06db31e865" x="88.329569" y="108.856981" style="fill: #175487; stroke: #175487; stroke-width: 0.5"/>
    </g>
    <g clip-path="url(#p22ee2f8c4a)">
     <use xlink:href="#C0_0_06db31e865" x="109.260762" y="107.587608" style="fill: #175487; stroke: #175487; stroke-width: 0.5"/>
    </g>
    <g clip-path="url(#p22ee2f8c4a)">
     <use xlink:href="#C0_0_06db31e865" x="61.239416" y="98.363799" style="fill: #175487; stroke: #175487; stroke-width: 0.5"/>
    </g>
    <g clip-path="url(#p22ee2f8c4a)">
     <use xlink:href="#C0_0_06db31e865" x="119.978958" y="91.853287" style="fill: #175487; stroke: #175487; stroke-width: 0.5"/>
    </g>
    <g clip-path="url(#p22ee2f8c4a)">
     <use xlink:href="#C0_0_06db31e865" x="64.176461" y="111.774244" style="fill: #175487; stroke: #175487; stroke-width: 0.5"/>
    </g>
    <g clip-path="url(#p22ee2f8c4a)">
     <use xlink:href="#C0_0_06db31e865" x="127.605608" y="110.136447" style="fill: #175487; stroke: #175487; stroke-width: 0.5"/>
    </g>
    <g clip-path="url(#p22ee2f8c4a)">
     <use xlink:href="#C0_0_06db31e865" x="96.388123" y="101.641758" style="fill: #175487; stroke: #175487; stroke-width: 0.5"/>
    </g>
    <g clip-path="url(#p22ee2f8c4a)">
     <use xlink:href="#C0_0_06db31e865" x="133.53118" y="96.226645" style="fill: #175487; stroke: #175487; stroke-width: 0.5"/>
    </g>
    <g clip-path="url(#p22ee2f8c4a)">
     <use xlink:href="#C0_0_06db31e865" x="90.746815" y="93.015091" style="fill: #175487; stroke: #175487; stroke-width: 0.5"/>
    </g>
    <g clip-path="url(#p22ee2f8c4a)">
     <use xlink:href="#C0_0_06db31e865" x="76.645489" y="104.34795" style="fill: #175487; stroke: #175487; stroke-width: 0.5"/>
    </g>
    <g clip-path="url(#p22ee2f8c4a)">
     <use xlink:href="#C0_0_06db31e865" x="66.947048" y="126.365085" style="fill: #175487; stroke: #175487; stroke-width: 0.5"/>
    </g>
    <g clip-path="url(#p22ee2f8c4a)">
     <use xlink:href="#C0_0_06db31e865" x="83.452461" y="128.376642" style="fill: #175487; stroke: #175487; stroke-width: 0.5"/>
    </g>
    <g clip-path="url(#p22ee2f8c4a)">
     <use xlink:href="#C0_0_06db31e865" x="117.274148" y="144.772531" style="fill: #175487; stroke: #175487; stroke-width: 0.5"/>
    </g>
    <g clip-path="url(#p22ee2f8c4a)">
     <use xlink:href="#C0_0_06db31e865" x="84.969208" y="142.592678" style="fill: #175487; stroke: #175487; stroke-width: 0.5"/>
    </g>
    <g clip-path="url(#p22ee2f8c4a)">
     <use xlink:href="#C0_0_06db31e865" x="97.190845" y="132.021381" style="fill: #175487; stroke: #175487; stroke-width: 0.5"/>
    </g>
    <g clip-path="url(#p22ee2f8c4a)">
     <use xlink:href="#C0_0_06db31e865" x="112.28583" y="119.975659" style="fill: #175487; stroke: #175487; stroke-width: 0.5"/>
    </g>
    <g clip-path="url(#p22ee2f8c4a)">
     <use xlink:href="#C0_0_06db31e865" x="73.336242" y="141.081501" style="fill: #175487; stroke: #175487; stroke-width: 0.5"/>
    </g>
    <g clip-path="url(#p22ee2f8c4a)">
     <use xlink:href="#C0_0_06db31e865" x="99.717183" y="145.836798" style="fill: #175487; stroke: #175487; stroke-width: 0.5"/>
    </g>
    <g clip-path="url(#p22ee2f8c4a)">
     <use xlink:href="#C0_0_06db31e865" x="123.676614" y="128.179626" style="fill: #175487; stroke: #175487; stroke-width: 0.5"/>
    </g>
    <g clip-path="url(#p22ee2f8c4a)">
     <use xlink:href="#C0_0_06db31e865" x="142.240414" y="128.063914" style="fill: #175487; stroke: #175487; stroke-width: 0.5"/>
    </g>
    <g clip-path="url(#p22ee2f8c4a)">
     <use xlink:href="#C0_0_06db31e865" x="106.587776" y="133.51867" style="fill: #175487; stroke: #175487; stroke-width: 0.5"/>
    </g>
    <g clip-path="url(#p22ee2f8c4a)">
     <use xlink:href="#C0_0_06db31e865" x="56.464839" y="135.757304" style="fill: #175487; stroke: #175487; stroke-width: 0.5"/>
    </g>
    <g clip-path="url(#p22ee2f8c4a)">
     <use xlink:href="#C0_0_06db31e865" x="120.768462" y="237.076364" style="fill: #bfbfbf; stroke: #bfbfbf; stroke-width: 0.5"/>
    </g>
    <g clip-path="url(#p22ee2f8c4a)">
     <use xlink:href="#C0_0_06db31e865" x="106.353933" y="184.201339" style="fill: #bfbfbf; stroke: #bfbfbf; stroke-width: 0.5"/>
    </g>
    <g clip-path="url(#p22ee2f8c4a)">
     <use xlink:href="#C0_0_06db31e865" x="118.744793" y="179.059097" style="fill: #bfbfbf; stroke: #bfbfbf; stroke-width: 0.5"/>
    </g>
    <g clip-path="url(#p22ee2f8c4a)">
     <use xlink:href="#C0_0_06db31e865" x="178.00878" y="141.029548" style="fill: #bfbfbf; stroke: #bfbfbf; stroke-width: 0.5"/>
    </g>
    <g clip-path="url(#p22ee2f8c4a)">
     <use xlink:href="#C0_0_06db31e865" x="232.162982" y="185.769867" style="fill: #bfbfbf; stroke: #bfbfbf; stroke-width: 0.5"/>
    </g>
    <g clip-path="url(#p22ee2f8c4a)">
     <use xlink:href="#C0_0_06db31e865" x="239.831405" y="158.84775" style="fill: #bfbfbf; stroke: #bfbfbf; stroke-width: 0.5"/>
    </g>
    <g clip-path="url(#p22ee2f8c4a)">
     <use xlink:href="#C0_0_06db31e865" x="136.905862" y="204.144843" style="fill: #666666; stroke: #666666; stroke-width: 0.5"/>
    </g>
    <g clip-path="url(#p22ee2f8c4a)">
     <use xlink:href="#C0_0_06db31e865" x="179.723507" y="205.585582" style="fill: #666666; stroke: #666666; stroke-width: 0.5"/>
    </g>
    <g clip-path="url(#p22ee2f8c4a)">
     <use xlink:href="#C0_0_06db31e865" x="199.99337" y="170.976936" style="fill: #666666; stroke: #666666; stroke-width: 0.5"/>
    </g>
    <g clip-path="url(#p22ee2f8c4a)">
     <use xlink:href="#C0_0_06db31e865" x="195.613954" y="236.57658" style="fill: #ff0d0d; stroke: #ff0d0d; stroke-width: 0.5"/>
    </g>
   </g>
   <g id="text_1">
    <!-- C3H6Ir48O -->
    <g transform="translate(116.314888 3.537183) scale(0.1 -0.1)">
     <defs>
      <path id="DejaVuSans-43" d="M 4122 4306 
L 4122 3641 
Q 3803 3938 3442 4084 
Q 3081 4231 2675 4231 
Q 1875 4231 1450 3742 
Q 1025 3253 1025 2328 
Q 1025 1406 1450 917 
Q 1875 428 2675 428 
Q 3081 428 3442 575 
Q 3803 722 4122 1019 
L 4122 359 
Q 3791 134 3420 21 
Q 3050 -91 2638 -91 
Q 1578 -91 968 557 
Q 359 1206 359 2328 
Q 359 3453 968 4101 
Q 1578 4750 2638 4750 
Q 3056 4750 3426 4639 
Q 3797 4528 4122 4306 
z
" transform="scale(0.015625)"/>
      <path id="DejaVuSans-33" d="M 2597 2516 
Q 3050 2419 3304 2112 
Q 3559 1806 3559 1356 
Q 3559 666 3084 287 
Q 2609 -91 1734 -91 
Q 1441 -91 1130 -33 
Q 819 25 488 141 
L 488 750 
Q 750 597 1062 519 
Q 1375 441 1716 441 
Q 2309 441 2620 675 
Q 2931 909 2931 1356 
Q 2931 1769 2642 2001 
Q 2353 2234 1838 2234 
L 1294 2234 
L 1294 2753 
L 1863 2753 
Q 2328 2753 2575 2939 
Q 2822 3125 2822 3475 
Q 2822 3834 2567 4026 
Q 2313 4219 1838 4219 
Q 1578 4219 1281 4162 
Q 984 4106 628 3988 
L 628 4550 
Q 988 4650 1302 4700 
Q 1616 4750 1894 4750 
Q 2613 4750 3031 4423 
Q 3450 4097 3450 3541 
Q 3450 3153 3228 2886 
Q 3006 2619 2597 2516 
z
" transform="scale(0.015625)"/>
      <path id="DejaVuSans-48" d="M 628 4666 
L 1259 4666 
L 1259 2753 
L 3553 2753 
L 3553 4666 
L 4184 4666 
L 4184 0 
L 3553 0 
L 3553 2222 
L 1259 2222 
L 1259 0 
L 628 0 
L 628 4666 
z
" transform="scale(0.015625)"/>
      <path id="DejaVuSans-36" d="M 2113 2584 
Q 1688 2584 1439 2293 
Q 1191 2003 1191 1497 
Q 1191 994 1439 701 
Q 1688 409 2113 409 
Q 2538 409 2786 701 
Q 3034 994 3034 1497 
Q 3034 2003 2786 2293 
Q 2538 2584 2113 2584 
z
M 3366 4563 
L 3366 3988 
Q 3128 4100 2886 4159 
Q 2644 4219 2406 4219 
Q 1781 4219 1451 3797 
Q 1122 3375 1075 2522 
Q 1259 2794 1537 2939 
Q 1816 3084 2150 3084 
Q 2853 3084 3261 2657 
Q 3669 2231 3669 1497 
Q 3669 778 3244 343 
Q 2819 -91 2113 -91 
Q 1303 -91 875 529 
Q 447 1150 447 2328 
Q 447 3434 972 4092 
Q 1497 4750 2381 4750 
Q 2619 4750 2861 4703 
Q 3103 4656 3366 4563 
z
" transform="scale(0.015625)"/>
      <path id="DejaVuSans-49" d="M 628 4666 
L 1259 4666 
L 1259 0 
L 628 0 
L 628 4666 
z
" transform="scale(0.015625)"/>
      <path id="DejaVuSans-72" d="M 2631 2963 
Q 2534 3019 2420 3045 
Q 2306 3072 2169 3072 
Q 1681 3072 1420 2755 
Q 1159 2438 1159 1844 
L 1159 0 
L 581 0 
L 581 3500 
L 1159 3500 
L 1159 2956 
Q 1341 3275 1631 3429 
Q 1922 3584 2338 3584 
Q 2397 3584 2469 3576 
Q 2541 3569 2628 3553 
L 2631 2963 
z
" transform="scale(0.015625)"/>
      <path id="DejaVuSans-34" d="M 2419 4116 
L 825 1625 
L 2419 1625 
L 2419 4116 
z
M 2253 4666 
L 3047 4666 
L 3047 1625 
L 3713 1625 
L 3713 1100 
L 3047 1100 
L 3047 0 
L 2419 0 
L 2419 1100 
L 313 1100 
L 313 1709 
L 2253 4666 
z
" transform="scale(0.015625)"/>
      <path id="DejaVuSans-38" d="M 2034 2216 
Q 1584 2216 1326 1975 
Q 1069 1734 1069 1313 
Q 1069 891 1326 650 
Q 1584 409 2034 409 
Q 2484 409 2743 651 
Q 3003 894 3003 1313 
Q 3003 1734 2745 1975 
Q 2488 2216 2034 2216 
z
M 1403 2484 
Q 997 2584 770 2862 
Q 544 3141 544 3541 
Q 544 4100 942 4425 
Q 1341 4750 2034 4750 
Q 2731 4750 3128 4425 
Q 3525 4100 3525 3541 
Q 3525 3141 3298 2862 
Q 3072 2584 2669 2484 
Q 3125 2378 3379 2068 
Q 3634 1759 3634 1313 
Q 3634 634 3220 271 
Q 2806 -91 2034 -91 
Q 1263 -91 848 271 
Q 434 634 434 1313 
Q 434 1759 690 2068 
Q 947 2378 1403 2484 
z
M 1172 3481 
Q 1172 3119 1398 2916 
Q 1625 2713 2034 2713 
Q 2441 2713 2670 2916 
Q 2900 3119 2900 3481 
Q 2900 3844 2670 4047 
Q 2441 4250 2034 4250 
Q 1625 4250 1398 4047 
Q 1172 3844 1172 3481 
z
" transform="scale(0.015625)"/>
      <path id="DejaVuSans-4f" d="M 2522 4238 
Q 1834 4238 1429 3725 
Q 1025 3213 1025 2328 
Q 1025 1447 1429 934 
Q 1834 422 2522 422 
Q 3209 422 3611 934 
Q 4013 1447 4013 2328 
Q 4013 3213 3611 3725 
Q 3209 4238 2522 4238 
z
M 2522 4750 
Q 3503 4750 4090 4092 
Q 4678 3434 4678 2328 
Q 4678 1225 4090 567 
Q 3503 -91 2522 -91 
Q 1538 -91 948 565 
Q 359 1222 359 2328 
Q 359 3434 948 4092 
Q 1538 4750 2522 4750 
z
" transform="scale(0.015625)"/>
     </defs>
     <use xlink:href="#DejaVuSans-43"/>
     <use xlink:href="#DejaVuSans-33" transform="translate(69.824219 0)"/>
     <use xlink:href="#DejaVuSans-48" transform="translate(133.447266 0)"/>
     <use xlink:href="#DejaVuSans-36" transform="translate(208.642578 0)"/>
     <use xlink:href="#DejaVuSans-49" transform="translate(272.265625 0)"/>
     <use xlink:href="#DejaVuSans-72" transform="translate(301.757812 0)"/>
     <use xlink:href="#DejaVuSans-34" transform="translate(342.871094 0)"/>
     <use xlink:href="#DejaVuSans-38" transform="translate(406.494141 0)"/>
     <use xlink:href="#DejaVuSans-4f" transform="translate(470.117188 0)"/>
    </g>
    <!-- Error: -7.74 eV -->
    <g transform="translate(116.314888 14.734996) scale(0.1 -0.1)">
     <defs>
      <path id="DejaVuSans-45" d="M 628 4666 
L 3578 4666 
L 3578 4134 
L 1259 4134 
L 1259 2753 
L 3481 2753 
L 3481 2222 
L 1259 2222 
L 1259 531 
L 3634 531 
L 3634 0 
L 628 0 
L 628 4666 
z
" transform="scale(0.015625)"/>
      <path id="DejaVuSans-6f" d="M 1959 3097 
Q 1497 3097 1228 2736 
Q 959 2375 959 1747 
Q 959 1119 1226 758 
Q 1494 397 1959 397 
Q 2419 397 2687 759 
Q 2956 1122 2956 1747 
Q 2956 2369 2687 2733 
Q 2419 3097 1959 3097 
z
M 1959 3584 
Q 2709 3584 3137 3096 
Q 3566 2609 3566 1747 
Q 3566 888 3137 398 
Q 2709 -91 1959 -91 
Q 1206 -91 779 398 
Q 353 888 353 1747 
Q 353 2609 779 3096 
Q 1206 3584 1959 3584 
z
" transform="scale(0.015625)"/>
      <path id="DejaVuSans-3a" d="M 750 794 
L 1409 794 
L 1409 0 
L 750 0 
L 750 794 
z
M 750 3309 
L 1409 3309 
L 1409 2516 
L 750 2516 
L 750 3309 
z
" transform="scale(0.015625)"/>
      <path id="DejaVuSans-20" transform="scale(0.015625)"/>
      <path id="DejaVuSans-2d" d="M 313 2009 
L 1997 2009 
L 1997 1497 
L 313 1497 
L 313 2009 
z
" transform="scale(0.015625)"/>
      <path id="DejaVuSans-37" d="M 525 4666 
L 3525 4666 
L 3525 4397 
L 1831 0 
L 1172 0 
L 2766 4134 
L 525 4134 
L 525 4666 
z
" transform="scale(0.015625)"/>
      <path id="DejaVuSans-2e" d="M 684 794 
L 1344 794 
L 1344 0 
L 684 0 
L 684 794 
z
" transform="scale(0.015625)"/>
      <path id="DejaVuSans-65" d="M 3597 1894 
L 3597 1613 
L 953 1613 
Q 991 1019 1311 708 
Q 1631 397 2203 397 
Q 2534 397 2845 478 
Q 3156 559 3463 722 
L 3463 178 
Q 3153 47 2828 -22 
Q 2503 -91 2169 -91 
Q 1331 -91 842 396 
Q 353 884 353 1716 
Q 353 2575 817 3079 
Q 1281 3584 2069 3584 
Q 2775 3584 3186 3129 
Q 3597 2675 3597 1894 
z
M 3022 2063 
Q 3016 2534 2758 2815 
Q 2500 3097 2075 3097 
Q 1594 3097 1305 2825 
Q 1016 2553 972 2059 
L 3022 2063 
z
" transform="scale(0.015625)"/>
      <path id="DejaVuSans-56" d="M 1831 0 
L 50 4666 
L 709 4666 
L 2188 738 
L 3669 4666 
L 4325 4666 
L 2547 0 
L 1831 0 
z
" transform="scale(0.015625)"/>
     </defs>
     <use xlink:href="#DejaVuSans-45"/>
     <use xlink:href="#DejaVuSans-72" transform="translate(63.183594 0)"/>
     <use xlink:href="#DejaVuSans-72" transform="translate(102.546875 0)"/>
     <use xlink:href="#DejaVuSans-6f" transform="translate(141.410156 0)"/>
     <use xlink:href="#DejaVuSans-72" transform="translate(202.591797 0)"/>
     <use xlink:href="#DejaVuSans-3a" transform="translate(241.955078 0)"/>
     <use xlink:href="#DejaVuSans-20" transform="translate(275.646484 0)"/>
     <use xlink:href="#DejaVuSans-2d" transform="translate(307.433594 0)"/>
     <use xlink:href="#DejaVuSans-37" transform="translate(343.517578 0)"/>
     <use xlink:href="#DejaVuSans-2e" transform="translate(407.140625 0)"/>
     <use xlink:href="#DejaVuSans-37" transform="translate(438.927734 0)"/>
     <use xlink:href="#DejaVuSans-34" transform="translate(502.550781 0)"/>
     <use xlink:href="#DejaVuSans-20" transform="translate(566.173828 0)"/>
     <use xlink:href="#DejaVuSans-65" transform="translate(597.960938 0)"/>
     <use xlink:href="#DejaVuSans-56" transform="translate(659.484375 0)"/>
    </g>
   </g>
  </g>
 </g>
 <defs>
  <clipPath id="p22ee2f8c4a">
   <rect x="36" y="34.56" width="223.2" height="221.76"/>
  </clipPath>
 </defs>
</svg>
