<?xml version="1.0" encoding="utf-8" standalone="no"?>
<!DOCTYPE svg PUBLIC "-//W3C//DTD SVG 1.1//EN"
  "http://www.w3.org/Graphics/SVG/1.1/DTD/svg11.dtd">
<svg xmlns:xlink="http://www.w3.org/1999/xlink" width="288pt" height="288pt" viewBox="0 0 288 288" xmlns="http://www.w3.org/2000/svg" version="1.1">
 <metadata>
  <rdf:RDF xmlns:dc="http://purl.org/dc/elements/1.1/" xmlns:cc="http://creativecommons.org/ns#" xmlns:rdf="http://www.w3.org/1999/02/22-rdf-syntax-ns#">
   <cc:Work>
    <dc:type rdf:resource="http://purl.org/dc/dcmitype/StillImage"/>
    <dc:date>2025-06-30T12:10:38.959663</dc:date>
    <dc:format>image/svg+xml</dc:format>
    <dc:creator>
     <cc:Agent>
      <dc:title>Matplotlib v3.10.1, https://matplotlib.org/</dc:title>
     </cc:Agent>
    </dc:creator>
   </cc:Work>
  </rdf:RDF>
 </metadata>
 <defs>
  <style type="text/css">*{stroke-linejoin: round; stroke-linecap: butt}</style>
 </defs>
 <g id="figure_1">
  <g id="patch_1">
   <path d="M 0 288 
L 288 288 
L 288 0 
L 0 0 
z
" style="fill: #ffffff"/>
  </g>
  <g id="axes_1">
   <g id="LineCollection_1">
    <path d="M 87.301781 65.778873 
L 121.409962 81.585248 
" clip-path="url(#pa3bbe74d2d)" style="fill: none; stroke: #000000; stroke-width: 1.2"/>
    <path d="M 87.301781 65.778873 
L 115.243149 66.958554 
" clip-path="url(#pa3bbe74d2d)" style="fill: none; stroke: #000000; stroke-width: 1.2"/>
    <path d="M 87.301781 65.778873 
L 93.591177 53.803636 
" clip-path="url(#pa3bbe74d2d)" style="fill: none; stroke: #000000; stroke-width: 1.2"/>
    <path d="M 87.301781 65.778873 
L 128.553175 80.821883 
" clip-path="url(#pa3bbe74d2d)" style="fill: none; stroke: #000000; stroke-width: 1.2"/>
    <path d="M 87.301781 65.778873 
L 65.543328 75.544176 
" clip-path="url(#pa3bbe74d2d)" style="fill: none; stroke: #000000; stroke-width: 1.2"/>
    <path d="M 87.301781 65.778873 
L 64.28411 115.400747 
" clip-path="url(#pa3bbe74d2d)" style="fill: none; stroke: #000000; stroke-width: 1.2"/>
    <path d="M 87.301781 65.778873 
L 77.611245 91.849296 
" clip-path="url(#pa3bbe74d2d)" style="fill: none; stroke: #000000; stroke-width: 1.2"/>
    <path d="M 87.301781 65.778873 
L 109.448702 103.666541 
" clip-path="url(#pa3bbe74d2d)" style="fill: none; stroke: #000000; stroke-width: 1.2"/>
    <path d="M 87.301781 65.778873 
L 85.570317 86.728107 
" clip-path="url(#pa3bbe74d2d)" style="fill: none; stroke: #000000; stroke-width: 1.2"/>
    <path d="M 151.311978 95.680571 
L 121.409962 81.585248 
" clip-path="url(#pa3bbe74d2d)" style="fill: none; stroke: #000000; stroke-width: 1.2"/>
    <path d="M 151.311978 95.680571 
L 145.393732 74.782939 
" clip-path="url(#pa3bbe74d2d)" style="fill: none; stroke: #000000; stroke-width: 1.2"/>
    <path d="M 151.311978 95.680571 
L 115.243149 66.958554 
" clip-path="url(#pa3bbe74d2d)" style="fill: none; stroke: #000000; stroke-width: 1.2"/>
    <path d="M 151.311978 95.680571 
L 128.553175 80.821883 
" clip-path="url(#pa3bbe74d2d)" style="fill: none; stroke: #000000; stroke-width: 1.2"/>
    <path d="M 151.311978 95.680571 
L 150.471266 83.437924 
" clip-path="url(#pa3bbe74d2d)" style="fill: none; stroke: #000000; stroke-width: 1.2"/>
    <path d="M 151.311978 95.680571 
L 127.557704 101.079072 
" clip-path="url(#pa3bbe74d2d)" style="fill: none; stroke: #000000; stroke-width: 1.2"/>
    <path d="M 151.311978 95.680571 
L 115.488882 138.059316 
" clip-path="url(#pa3bbe74d2d)" style="fill: none; stroke: #000000; stroke-width: 1.2"/>
    <path d="M 151.311978 95.680571 
L 141.443025 115.594002 
" clip-path="url(#pa3bbe74d2d)" style="fill: none; stroke: #000000; stroke-width: 1.2"/>
    <path d="M 151.311978 95.680571 
L 109.448702 103.666541 
" clip-path="url(#pa3bbe74d2d)" style="fill: none; stroke: #000000; stroke-width: 1.2"/>
    <path d="M 151.311978 95.680571 
L 148.592777 120.23832 
" clip-path="url(#pa3bbe74d2d)" style="fill: none; stroke: #000000; stroke-width: 1.2"/>
    <path d="M 121.409962 81.585248 
L 145.393732 74.782939 
" clip-path="url(#pa3bbe74d2d)" style="fill: none; stroke: #000000; stroke-width: 1.2"/>
    <path d="M 121.409962 81.585248 
L 115.243149 66.958554 
" clip-path="url(#pa3bbe74d2d)" style="fill: none; stroke: #000000; stroke-width: 1.2"/>
    <path d="M 121.409962 81.585248 
L 100.723707 64.116287 
" clip-path="url(#pa3bbe74d2d)" style="fill: none; stroke: #000000; stroke-width: 1.2"/>
    <path d="M 121.409962 81.585248 
L 159.384076 95.974416 
" clip-path="url(#pa3bbe74d2d)" style="fill: none; stroke: #000000; stroke-width: 1.2"/>
    <path d="M 121.409962 81.585248 
L 124.899911 66.314497 
" clip-path="url(#pa3bbe74d2d)" style="fill: none; stroke: #000000; stroke-width: 1.2"/>
    <path d="M 121.409962 81.585248 
L 97.52048 86.36286 
" clip-path="url(#pa3bbe74d2d)" style="fill: none; stroke: #000000; stroke-width: 1.2"/>
    <path d="M 121.409962 81.585248 
L 77.611245 91.849296 
" clip-path="url(#pa3bbe74d2d)" style="fill: none; stroke: #000000; stroke-width: 1.2"/>
    <path d="M 121.409962 81.585248 
L 91.546143 126.524455 
" clip-path="url(#pa3bbe74d2d)" style="fill: none; stroke: #000000; stroke-width: 1.2"/>
    <path d="M 121.409962 81.585248 
L 141.443025 115.594002 
" clip-path="url(#pa3bbe74d2d)" style="fill: none; stroke: #000000; stroke-width: 1.2"/>
    <path d="M 121.409962 81.585248 
L 109.448702 103.666541 
" clip-path="url(#pa3bbe74d2d)" style="fill: none; stroke: #000000; stroke-width: 1.2"/>
    <path d="M 121.409962 81.585248 
L 118.067715 104.00589 
" clip-path="url(#pa3bbe74d2d)" style="fill: none; stroke: #000000; stroke-width: 1.2"/>
    <path d="M 145.393732 74.782939 
L 115.243149 66.958554 
" clip-path="url(#pa3bbe74d2d)" style="fill: none; stroke: #000000; stroke-width: 1.2"/>
    <path d="M 145.393732 74.782939 
L 159.384076 95.974416 
" clip-path="url(#pa3bbe74d2d)" style="fill: none; stroke: #000000; stroke-width: 1.2"/>
    <path d="M 145.393732 74.782939 
L 124.899911 66.314497 
" clip-path="url(#pa3bbe74d2d)" style="fill: none; stroke: #000000; stroke-width: 1.2"/>
    <path d="M 145.393732 74.782939 
L 127.557704 101.079072 
" clip-path="url(#pa3bbe74d2d)" style="fill: none; stroke: #000000; stroke-width: 1.2"/>
    <path d="M 145.393732 74.782939 
L 97.52048 86.36286 
" clip-path="url(#pa3bbe74d2d)" style="fill: none; stroke: #000000; stroke-width: 1.2"/>
    <path d="M 145.393732 74.782939 
L 117.534757 121.280384 
" clip-path="url(#pa3bbe74d2d)" style="fill: none; stroke: #000000; stroke-width: 1.2"/>
    <path d="M 145.393732 74.782939 
L 137.184849 103.616122 
" clip-path="url(#pa3bbe74d2d)" style="fill: none; stroke: #000000; stroke-width: 1.2"/>
    <path d="M 145.393732 74.782939 
L 141.443025 115.594002 
" clip-path="url(#pa3bbe74d2d)" style="fill: none; stroke: #000000; stroke-width: 1.2"/>
    <path d="M 115.243149 66.958554 
L 93.591177 53.803636 
" clip-path="url(#pa3bbe74d2d)" style="fill: none; stroke: #000000; stroke-width: 1.2"/>
    <path d="M 115.243149 66.958554 
L 128.553175 80.821883 
" clip-path="url(#pa3bbe74d2d)" style="fill: none; stroke: #000000; stroke-width: 1.2"/>
    <path d="M 115.243149 66.958554 
L 150.471266 83.437924 
" clip-path="url(#pa3bbe74d2d)" style="fill: none; stroke: #000000; stroke-width: 1.2"/>
    <path d="M 115.243149 66.958554 
L 65.543328 75.544176 
" clip-path="url(#pa3bbe74d2d)" style="fill: none; stroke: #000000; stroke-width: 1.2"/>
    <path d="M 115.243149 66.958554 
L 127.557704 101.079072 
" clip-path="url(#pa3bbe74d2d)" style="fill: none; stroke: #000000; stroke-width: 1.2"/>
    <path d="M 115.243149 66.958554 
L 97.52048 86.36286 
" clip-path="url(#pa3bbe74d2d)" style="fill: none; stroke: #000000; stroke-width: 1.2"/>
    <path d="M 115.243149 66.958554 
L 85.697216 112.34857 
" clip-path="url(#pa3bbe74d2d)" style="fill: none; stroke: #000000; stroke-width: 1.2"/>
    <path d="M 115.243149 66.958554 
L 104.142232 89.190046 
" clip-path="url(#pa3bbe74d2d)" style="fill: none; stroke: #000000; stroke-width: 1.2"/>
    <path d="M 115.243149 66.958554 
L 109.448702 103.666541 
" clip-path="url(#pa3bbe74d2d)" style="fill: none; stroke: #000000; stroke-width: 1.2"/>
    <path d="M 100.723707 64.116287 
L 93.591177 53.803636 
" clip-path="url(#pa3bbe74d2d)" style="fill: none; stroke: #000000; stroke-width: 1.2"/>
    <path d="M 100.723707 64.116287 
L 128.553175 80.821883 
" clip-path="url(#pa3bbe74d2d)" style="fill: none; stroke: #000000; stroke-width: 1.2"/>
    <path d="M 100.723707 64.116287 
L 124.899911 66.314497 
" clip-path="url(#pa3bbe74d2d)" style="fill: none; stroke: #000000; stroke-width: 1.2"/>
    <path d="M 100.723707 64.116287 
L 74.424147 72.42067 
" clip-path="url(#pa3bbe74d2d)" style="fill: none; stroke: #000000; stroke-width: 1.2"/>
    <path d="M 100.723707 64.116287 
L 77.611245 91.849296 
" clip-path="url(#pa3bbe74d2d)" style="fill: none; stroke: #000000; stroke-width: 1.2"/>
    <path d="M 100.723707 64.116287 
L 70.92582 111.5885 
" clip-path="url(#pa3bbe74d2d)" style="fill: none; stroke: #000000; stroke-width: 1.2"/>
    <path d="M 100.723707 64.116287 
L 85.570317 86.728107 
" clip-path="url(#pa3bbe74d2d)" style="fill: none; stroke: #000000; stroke-width: 1.2"/>
    <path d="M 100.723707 64.116287 
L 118.067715 104.00589 
" clip-path="url(#pa3bbe74d2d)" style="fill: none; stroke: #000000; stroke-width: 1.2"/>
    <path d="M 93.591177 53.803636 
L 128.553175 80.821883 
" clip-path="url(#pa3bbe74d2d)" style="fill: none; stroke: #000000; stroke-width: 1.2"/>
    <path d="M 93.591177 53.803636 
L 124.899911 66.314497 
" clip-path="url(#pa3bbe74d2d)" style="fill: none; stroke: #000000; stroke-width: 1.2"/>
    <path d="M 93.591177 53.803636 
L 65.543328 75.544176 
" clip-path="url(#pa3bbe74d2d)" style="fill: none; stroke: #000000; stroke-width: 1.2"/>
    <path d="M 93.591177 53.803636 
L 74.424147 72.42067 
" clip-path="url(#pa3bbe74d2d)" style="fill: none; stroke: #000000; stroke-width: 1.2"/>
    <path d="M 93.591177 53.803636 
L 63.545241 94.370547 
" clip-path="url(#pa3bbe74d2d)" style="fill: none; stroke: #000000; stroke-width: 1.2"/>
    <path d="M 93.591177 53.803636 
L 104.142232 89.190046 
" clip-path="url(#pa3bbe74d2d)" style="fill: none; stroke: #000000; stroke-width: 1.2"/>
    <path d="M 93.591177 53.803636 
L 85.570317 86.728107 
" clip-path="url(#pa3bbe74d2d)" style="fill: none; stroke: #000000; stroke-width: 1.2"/>
    <path d="M 159.384076 95.974416 
L 128.553175 80.821883 
" clip-path="url(#pa3bbe74d2d)" style="fill: none; stroke: #000000; stroke-width: 1.2"/>
    <path d="M 159.384076 95.974416 
L 150.471266 83.437924 
" clip-path="url(#pa3bbe74d2d)" style="fill: none; stroke: #000000; stroke-width: 1.2"/>
    <path d="M 159.384076 95.974416 
L 124.899911 66.314497 
" clip-path="url(#pa3bbe74d2d)" style="fill: none; stroke: #000000; stroke-width: 1.2"/>
    <path d="M 159.384076 95.974416 
L 137.184849 103.616122 
" clip-path="url(#pa3bbe74d2d)" style="fill: none; stroke: #000000; stroke-width: 1.2"/>
    <path d="M 159.384076 95.974416 
L 141.443025 115.594002 
" clip-path="url(#pa3bbe74d2d)" style="fill: none; stroke: #000000; stroke-width: 1.2"/>
    <path d="M 159.384076 95.974416 
L 133.000654 135.832377 
" clip-path="url(#pa3bbe74d2d)" style="fill: none; stroke: #000000; stroke-width: 1.2"/>
    <path d="M 159.384076 95.974416 
L 148.592777 120.23832 
" clip-path="url(#pa3bbe74d2d)" style="fill: none; stroke: #000000; stroke-width: 1.2"/>
    <path d="M 159.384076 95.974416 
L 118.067715 104.00589 
" clip-path="url(#pa3bbe74d2d)" style="fill: none; stroke: #000000; stroke-width: 1.2"/>
    <path d="M 128.553175 80.821883 
L 150.471266 83.437924 
" clip-path="url(#pa3bbe74d2d)" style="fill: none; stroke: #000000; stroke-width: 1.2"/>
    <path d="M 128.553175 80.821883 
L 124.899911 66.314497 
" clip-path="url(#pa3bbe74d2d)" style="fill: none; stroke: #000000; stroke-width: 1.2"/>
    <path d="M 128.553175 80.821883 
L 104.142232 89.190046 
" clip-path="url(#pa3bbe74d2d)" style="fill: none; stroke: #000000; stroke-width: 1.2"/>
    <path d="M 128.553175 80.821883 
L 109.448702 103.666541 
" clip-path="url(#pa3bbe74d2d)" style="fill: none; stroke: #000000; stroke-width: 1.2"/>
    <path d="M 128.553175 80.821883 
L 85.570317 86.728107 
" clip-path="url(#pa3bbe74d2d)" style="fill: none; stroke: #000000; stroke-width: 1.2"/>
    <path d="M 128.553175 80.821883 
L 99.786388 124.694984 
" clip-path="url(#pa3bbe74d2d)" style="fill: none; stroke: #000000; stroke-width: 1.2"/>
    <path d="M 128.553175 80.821883 
L 148.592777 120.23832 
" clip-path="url(#pa3bbe74d2d)" style="fill: none; stroke: #000000; stroke-width: 1.2"/>
    <path d="M 128.553175 80.821883 
L 118.067715 104.00589 
" clip-path="url(#pa3bbe74d2d)" style="fill: none; stroke: #000000; stroke-width: 1.2"/>
    <path d="M 150.471266 83.437924 
L 124.899911 66.314497 
" clip-path="url(#pa3bbe74d2d)" style="fill: none; stroke: #000000; stroke-width: 1.2"/>
    <path d="M 150.471266 83.437924 
L 127.557704 101.079072 
" clip-path="url(#pa3bbe74d2d)" style="fill: none; stroke: #000000; stroke-width: 1.2"/>
    <path d="M 150.471266 83.437924 
L 137.184849 103.616122 
" clip-path="url(#pa3bbe74d2d)" style="fill: none; stroke: #000000; stroke-width: 1.2"/>
    <path d="M 150.471266 83.437924 
L 104.142232 89.190046 
" clip-path="url(#pa3bbe74d2d)" style="fill: none; stroke: #000000; stroke-width: 1.2"/>
    <path d="M 150.471266 83.437924 
L 121.386844 130.56423 
" clip-path="url(#pa3bbe74d2d)" style="fill: none; stroke: #000000; stroke-width: 1.2"/>
    <path d="M 150.471266 83.437924 
L 148.592777 120.23832 
" clip-path="url(#pa3bbe74d2d)" style="fill: none; stroke: #000000; stroke-width: 1.2"/>
    <path d="M 124.899911 66.314497 
L 97.52048 86.36286 
" clip-path="url(#pa3bbe74d2d)" style="fill: none; stroke: #000000; stroke-width: 1.2"/>
    <path d="M 124.899911 66.314497 
L 74.424147 72.42067 
" clip-path="url(#pa3bbe74d2d)" style="fill: none; stroke: #000000; stroke-width: 1.2"/>
    <path d="M 124.899911 66.314497 
L 137.184849 103.616122 
" clip-path="url(#pa3bbe74d2d)" style="fill: none; stroke: #000000; stroke-width: 1.2"/>
    <path d="M 124.899911 66.314497 
L 104.142232 89.190046 
" clip-path="url(#pa3bbe74d2d)" style="fill: none; stroke: #000000; stroke-width: 1.2"/>
    <path d="M 124.899911 66.314497 
L 95.047786 110.656511 
" clip-path="url(#pa3bbe74d2d)" style="fill: none; stroke: #000000; stroke-width: 1.2"/>
    <path d="M 124.899911 66.314497 
L 118.067715 104.00589 
" clip-path="url(#pa3bbe74d2d)" style="fill: none; stroke: #000000; stroke-width: 1.2"/>
    <path d="M 65.543328 75.544176 
L 55.368595 102.754965 
" clip-path="url(#pa3bbe74d2d)" style="fill: none; stroke: #000000; stroke-width: 1.2"/>
    <path d="M 65.543328 75.544176 
L 97.52048 86.36286 
" clip-path="url(#pa3bbe74d2d)" style="fill: none; stroke: #000000; stroke-width: 1.2"/>
    <path d="M 65.543328 75.544176 
L 85.697216 112.34857 
" clip-path="url(#pa3bbe74d2d)" style="fill: none; stroke: #000000; stroke-width: 1.2"/>
    <path d="M 65.543328 75.544176 
L 63.545241 94.370547 
" clip-path="url(#pa3bbe74d2d)" style="fill: none; stroke: #000000; stroke-width: 1.2"/>
    <path d="M 65.543328 75.544176 
L 104.142232 89.190046 
" clip-path="url(#pa3bbe74d2d)" style="fill: none; stroke: #000000; stroke-width: 1.2"/>
    <path d="M 65.543328 75.544176 
L 64.28411 115.400747 
" clip-path="url(#pa3bbe74d2d)" style="fill: none; stroke: #000000; stroke-width: 1.2"/>
    <path d="M 55.368595 102.754965 
L 97.52048 86.36286 
" clip-path="url(#pa3bbe74d2d)" style="fill: none; stroke: #000000; stroke-width: 1.2"/>
    <path d="M 55.368595 102.754965 
L 85.697216 112.34857 
" clip-path="url(#pa3bbe74d2d)" style="fill: none; stroke: #000000; stroke-width: 1.2"/>
    <path d="M 55.368595 102.754965 
L 74.424147 72.42067 
" clip-path="url(#pa3bbe74d2d)" style="fill: none; stroke: #000000; stroke-width: 1.2"/>
    <path d="M 55.368595 102.754965 
L 95.047786 110.656511 
" clip-path="url(#pa3bbe74d2d)" style="fill: none; stroke: #000000; stroke-width: 1.2"/>
    <path d="M 55.368595 102.754965 
L 64.28411 115.400747 
" clip-path="url(#pa3bbe74d2d)" style="fill: none; stroke: #000000; stroke-width: 1.2"/>
    <path d="M 55.368595 102.754965 
L 77.611245 91.849296 
" clip-path="url(#pa3bbe74d2d)" style="fill: none; stroke: #000000; stroke-width: 1.2"/>
    <path d="M 55.368595 102.754965 
L 91.546143 126.524455 
" clip-path="url(#pa3bbe74d2d)" style="fill: none; stroke: #000000; stroke-width: 1.2"/>
    <path d="M 55.368595 102.754965 
L 70.92582 111.5885 
" clip-path="url(#pa3bbe74d2d)" style="fill: none; stroke: #000000; stroke-width: 1.2"/>
    <path d="M 127.557704 101.079072 
L 97.52048 86.36286 
" clip-path="url(#pa3bbe74d2d)" style="fill: none; stroke: #000000; stroke-width: 1.2"/>
    <path d="M 127.557704 101.079072 
L 117.534757 121.280384 
" clip-path="url(#pa3bbe74d2d)" style="fill: none; stroke: #000000; stroke-width: 1.2"/>
    <path d="M 127.557704 101.079072 
L 85.697216 112.34857 
" clip-path="url(#pa3bbe74d2d)" style="fill: none; stroke: #000000; stroke-width: 1.2"/>
    <path d="M 127.557704 101.079072 
L 104.142232 89.190046 
" clip-path="url(#pa3bbe74d2d)" style="fill: none; stroke: #000000; stroke-width: 1.2"/>
    <path d="M 127.557704 101.079072 
L 121.386844 130.56423 
" clip-path="url(#pa3bbe74d2d)" style="fill: none; stroke: #000000; stroke-width: 1.2"/>
    <path d="M 127.557704 101.079072 
L 115.488882 138.059316 
" clip-path="url(#pa3bbe74d2d)" style="fill: none; stroke: #000000; stroke-width: 1.2"/>
    <path d="M 97.52048 86.36286 
L 117.534757 121.280384 
" clip-path="url(#pa3bbe74d2d)" style="fill: none; stroke: #000000; stroke-width: 1.2"/>
    <path d="M 97.52048 86.36286 
L 85.697216 112.34857 
" clip-path="url(#pa3bbe74d2d)" style="fill: none; stroke: #000000; stroke-width: 1.2"/>
    <path d="M 97.52048 86.36286 
L 74.424147 72.42067 
" clip-path="url(#pa3bbe74d2d)" style="fill: none; stroke: #000000; stroke-width: 1.2"/>
    <path d="M 97.52048 86.36286 
L 137.184849 103.616122 
" clip-path="url(#pa3bbe74d2d)" style="fill: none; stroke: #000000; stroke-width: 1.2"/>
    <path d="M 97.52048 86.36286 
L 95.047786 110.656511 
" clip-path="url(#pa3bbe74d2d)" style="fill: none; stroke: #000000; stroke-width: 1.2"/>
    <path d="M 97.52048 86.36286 
L 91.546143 126.524455 
" clip-path="url(#pa3bbe74d2d)" style="fill: none; stroke: #000000; stroke-width: 1.2"/>
    <path d="M 117.534757 121.280384 
L 85.697216 112.34857 
" clip-path="url(#pa3bbe74d2d)" style="fill: none; stroke: #000000; stroke-width: 1.2"/>
    <path d="M 117.534757 121.280384 
L 137.184849 103.616122 
" clip-path="url(#pa3bbe74d2d)" style="fill: none; stroke: #000000; stroke-width: 1.2"/>
    <path d="M 117.534757 121.280384 
L 95.047786 110.656511 
" clip-path="url(#pa3bbe74d2d)" style="fill: none; stroke: #000000; stroke-width: 1.2"/>
    <path d="M 117.534757 121.280384 
L 115.488882 138.059316 
" clip-path="url(#pa3bbe74d2d)" style="fill: none; stroke: #000000; stroke-width: 1.2"/>
    <path d="M 117.534757 121.280384 
L 91.546143 126.524455 
" clip-path="url(#pa3bbe74d2d)" style="fill: none; stroke: #000000; stroke-width: 1.2"/>
    <path d="M 117.534757 121.280384 
L 141.443025 115.594002 
" clip-path="url(#pa3bbe74d2d)" style="fill: none; stroke: #000000; stroke-width: 1.2"/>
    <path d="M 117.534757 121.280384 
L 133.000654 135.832377 
" clip-path="url(#pa3bbe74d2d)" style="fill: none; stroke: #000000; stroke-width: 1.2"/>
    <path d="M 85.697216 112.34857 
L 63.545241 94.370547 
" clip-path="url(#pa3bbe74d2d)" style="fill: none; stroke: #000000; stroke-width: 1.2"/>
    <path d="M 85.697216 112.34857 
L 104.142232 89.190046 
" clip-path="url(#pa3bbe74d2d)" style="fill: none; stroke: #000000; stroke-width: 1.2"/>
    <path d="M 85.697216 112.34857 
L 121.386844 130.56423 
" clip-path="url(#pa3bbe74d2d)" style="fill: none; stroke: #000000; stroke-width: 1.2"/>
    <path d="M 85.697216 112.34857 
L 64.28411 115.400747 
" clip-path="url(#pa3bbe74d2d)" style="fill: none; stroke: #000000; stroke-width: 1.2"/>
    <path d="M 85.697216 112.34857 
L 115.488882 138.059316 
" clip-path="url(#pa3bbe74d2d)" style="fill: none; stroke: #000000; stroke-width: 1.2"/>
    <path d="M 85.697216 112.34857 
L 91.546143 126.524455 
" clip-path="url(#pa3bbe74d2d)" style="fill: none; stroke: #000000; stroke-width: 1.2"/>
    <path d="M 85.697216 112.34857 
L 109.448702 103.666541 
" clip-path="url(#pa3bbe74d2d)" style="fill: none; stroke: #000000; stroke-width: 1.2"/>
    <path d="M 85.697216 112.34857 
L 99.786388 124.694984 
" clip-path="url(#pa3bbe74d2d)" style="fill: none; stroke: #000000; stroke-width: 1.2"/>
    <path d="M 74.424147 72.42067 
L 63.545241 94.370547 
" clip-path="url(#pa3bbe74d2d)" style="fill: none; stroke: #000000; stroke-width: 1.2"/>
    <path d="M 74.424147 72.42067 
L 104.142232 89.190046 
" clip-path="url(#pa3bbe74d2d)" style="fill: none; stroke: #000000; stroke-width: 1.2"/>
    <path d="M 74.424147 72.42067 
L 95.047786 110.656511 
" clip-path="url(#pa3bbe74d2d)" style="fill: none; stroke: #000000; stroke-width: 1.2"/>
    <path d="M 74.424147 72.42067 
L 70.92582 111.5885 
" clip-path="url(#pa3bbe74d2d)" style="fill: none; stroke: #000000; stroke-width: 1.2"/>
    <path d="M 63.545241 94.370547 
L 104.142232 89.190046 
" clip-path="url(#pa3bbe74d2d)" style="fill: none; stroke: #000000; stroke-width: 1.2"/>
    <path d="M 63.545241 94.370547 
L 95.047786 110.656511 
" clip-path="url(#pa3bbe74d2d)" style="fill: none; stroke: #000000; stroke-width: 1.2"/>
    <path d="M 63.545241 94.370547 
L 64.28411 115.400747 
" clip-path="url(#pa3bbe74d2d)" style="fill: none; stroke: #000000; stroke-width: 1.2"/>
    <path d="M 63.545241 94.370547 
L 70.92582 111.5885 
" clip-path="url(#pa3bbe74d2d)" style="fill: none; stroke: #000000; stroke-width: 1.2"/>
    <path d="M 63.545241 94.370547 
L 85.570317 86.728107 
" clip-path="url(#pa3bbe74d2d)" style="fill: none; stroke: #000000; stroke-width: 1.2"/>
    <path d="M 63.545241 94.370547 
L 99.786388 124.694984 
" clip-path="url(#pa3bbe74d2d)" style="fill: none; stroke: #000000; stroke-width: 1.2"/>
    <path d="M 137.184849 103.616122 
L 104.142232 89.190046 
" clip-path="url(#pa3bbe74d2d)" style="fill: none; stroke: #000000; stroke-width: 1.2"/>
    <path d="M 137.184849 103.616122 
L 121.386844 130.56423 
" clip-path="url(#pa3bbe74d2d)" style="fill: none; stroke: #000000; stroke-width: 1.2"/>
    <path d="M 137.184849 103.616122 
L 95.047786 110.656511 
" clip-path="url(#pa3bbe74d2d)" style="fill: none; stroke: #000000; stroke-width: 1.2"/>
    <path d="M 137.184849 103.616122 
L 133.000654 135.832377 
" clip-path="url(#pa3bbe74d2d)" style="fill: none; stroke: #000000; stroke-width: 1.2"/>
    <path d="M 104.142232 89.190046 
L 121.386844 130.56423 
" clip-path="url(#pa3bbe74d2d)" style="fill: none; stroke: #000000; stroke-width: 1.2"/>
    <path d="M 104.142232 89.190046 
L 95.047786 110.656511 
" clip-path="url(#pa3bbe74d2d)" style="fill: none; stroke: #000000; stroke-width: 1.2"/>
    <path d="M 104.142232 89.190046 
L 99.786388 124.694984 
" clip-path="url(#pa3bbe74d2d)" style="fill: none; stroke: #000000; stroke-width: 1.2"/>
    <path d="M 121.386844 130.56423 
L 95.047786 110.656511 
" clip-path="url(#pa3bbe74d2d)" style="fill: none; stroke: #000000; stroke-width: 1.2"/>
    <path d="M 121.386844 130.56423 
L 115.488882 138.059316 
" clip-path="url(#pa3bbe74d2d)" style="fill: none; stroke: #000000; stroke-width: 1.2"/>
    <path d="M 121.386844 130.56423 
L 133.000654 135.832377 
" clip-path="url(#pa3bbe74d2d)" style="fill: none; stroke: #000000; stroke-width: 1.2"/>
    <path d="M 121.386844 130.56423 
L 99.786388 124.694984 
" clip-path="url(#pa3bbe74d2d)" style="fill: none; stroke: #000000; stroke-width: 1.2"/>
    <path d="M 121.386844 130.56423 
L 148.592777 120.23832 
" clip-path="url(#pa3bbe74d2d)" style="fill: none; stroke: #000000; stroke-width: 1.2"/>
    <path d="M 121.386844 130.56423 
L 110.515207 172.89264 
" clip-path="url(#pa3bbe74d2d)" style="fill: none; stroke: #000000; stroke-width: 1.2"/>
    <path d="M 95.047786 110.656511 
L 91.546143 126.524455 
" clip-path="url(#pa3bbe74d2d)" style="fill: none; stroke: #000000; stroke-width: 1.2"/>
    <path d="M 95.047786 110.656511 
L 70.92582 111.5885 
" clip-path="url(#pa3bbe74d2d)" style="fill: none; stroke: #000000; stroke-width: 1.2"/>
    <path d="M 95.047786 110.656511 
L 133.000654 135.832377 
" clip-path="url(#pa3bbe74d2d)" style="fill: none; stroke: #000000; stroke-width: 1.2"/>
    <path d="M 95.047786 110.656511 
L 99.786388 124.694984 
" clip-path="url(#pa3bbe74d2d)" style="fill: none; stroke: #000000; stroke-width: 1.2"/>
    <path d="M 95.047786 110.656511 
L 118.067715 104.00589 
" clip-path="url(#pa3bbe74d2d)" style="fill: none; stroke: #000000; stroke-width: 1.2"/>
    <path d="M 64.28411 115.400747 
L 77.611245 91.849296 
" clip-path="url(#pa3bbe74d2d)" style="fill: none; stroke: #000000; stroke-width: 1.2"/>
    <path d="M 64.28411 115.400747 
L 91.546143 126.524455 
" clip-path="url(#pa3bbe74d2d)" style="fill: none; stroke: #000000; stroke-width: 1.2"/>
    <path d="M 64.28411 115.400747 
L 109.448702 103.666541 
" clip-path="url(#pa3bbe74d2d)" style="fill: none; stroke: #000000; stroke-width: 1.2"/>
    <path d="M 64.28411 115.400747 
L 85.570317 86.728107 
" clip-path="url(#pa3bbe74d2d)" style="fill: none; stroke: #000000; stroke-width: 1.2"/>
    <path d="M 64.28411 115.400747 
L 99.786388 124.694984 
" clip-path="url(#pa3bbe74d2d)" style="fill: none; stroke: #000000; stroke-width: 1.2"/>
    <path d="M 77.611245 91.849296 
L 91.546143 126.524455 
" clip-path="url(#pa3bbe74d2d)" style="fill: none; stroke: #000000; stroke-width: 1.2"/>
    <path d="M 77.611245 91.849296 
L 109.448702 103.666541 
" clip-path="url(#pa3bbe74d2d)" style="fill: none; stroke: #000000; stroke-width: 1.2"/>
    <path d="M 77.611245 91.849296 
L 70.92582 111.5885 
" clip-path="url(#pa3bbe74d2d)" style="fill: none; stroke: #000000; stroke-width: 1.2"/>
    <path d="M 77.611245 91.849296 
L 118.067715 104.00589 
" clip-path="url(#pa3bbe74d2d)" style="fill: none; stroke: #000000; stroke-width: 1.2"/>
    <path d="M 115.488882 138.059316 
L 91.546143 126.524455 
" clip-path="url(#pa3bbe74d2d)" style="fill: none; stroke: #000000; stroke-width: 1.2"/>
    <path d="M 115.488882 138.059316 
L 141.443025 115.594002 
" clip-path="url(#pa3bbe74d2d)" style="fill: none; stroke: #000000; stroke-width: 1.2"/>
    <path d="M 115.488882 138.059316 
L 109.448702 103.666541 
" clip-path="url(#pa3bbe74d2d)" style="fill: none; stroke: #000000; stroke-width: 1.2"/>
    <path d="M 115.488882 138.059316 
L 99.786388 124.694984 
" clip-path="url(#pa3bbe74d2d)" style="fill: none; stroke: #000000; stroke-width: 1.2"/>
    <path d="M 115.488882 138.059316 
L 148.592777 120.23832 
" clip-path="url(#pa3bbe74d2d)" style="fill: none; stroke: #000000; stroke-width: 1.2"/>
    <path d="M 91.546143 126.524455 
L 141.443025 115.594002 
" clip-path="url(#pa3bbe74d2d)" style="fill: none; stroke: #000000; stroke-width: 1.2"/>
    <path d="M 91.546143 126.524455 
L 109.448702 103.666541 
" clip-path="url(#pa3bbe74d2d)" style="fill: none; stroke: #000000; stroke-width: 1.2"/>
    <path d="M 91.546143 126.524455 
L 70.92582 111.5885 
" clip-path="url(#pa3bbe74d2d)" style="fill: none; stroke: #000000; stroke-width: 1.2"/>
    <path d="M 91.546143 126.524455 
L 133.000654 135.832377 
" clip-path="url(#pa3bbe74d2d)" style="fill: none; stroke: #000000; stroke-width: 1.2"/>
    <path d="M 91.546143 126.524455 
L 118.067715 104.00589 
" clip-path="url(#pa3bbe74d2d)" style="fill: none; stroke: #000000; stroke-width: 1.2"/>
    <path d="M 141.443025 115.594002 
L 109.448702 103.666541 
" clip-path="url(#pa3bbe74d2d)" style="fill: none; stroke: #000000; stroke-width: 1.2"/>
    <path d="M 141.443025 115.594002 
L 133.000654 135.832377 
" clip-path="url(#pa3bbe74d2d)" style="fill: none; stroke: #000000; stroke-width: 1.2"/>
    <path d="M 141.443025 115.594002 
L 118.067715 104.00589 
" clip-path="url(#pa3bbe74d2d)" style="fill: none; stroke: #000000; stroke-width: 1.2"/>
    <path d="M 109.448702 103.666541 
L 85.570317 86.728107 
" clip-path="url(#pa3bbe74d2d)" style="fill: none; stroke: #000000; stroke-width: 1.2"/>
    <path d="M 109.448702 103.666541 
L 99.786388 124.694984 
" clip-path="url(#pa3bbe74d2d)" style="fill: none; stroke: #000000; stroke-width: 1.2"/>
    <path d="M 109.448702 103.666541 
L 148.592777 120.23832 
" clip-path="url(#pa3bbe74d2d)" style="fill: none; stroke: #000000; stroke-width: 1.2"/>
    <path d="M 70.92582 111.5885 
L 85.570317 86.728107 
" clip-path="url(#pa3bbe74d2d)" style="fill: none; stroke: #000000; stroke-width: 1.2"/>
    <path d="M 70.92582 111.5885 
L 99.786388 124.694984 
" clip-path="url(#pa3bbe74d2d)" style="fill: none; stroke: #000000; stroke-width: 1.2"/>
    <path d="M 70.92582 111.5885 
L 118.067715 104.00589 
" clip-path="url(#pa3bbe74d2d)" style="fill: none; stroke: #000000; stroke-width: 1.2"/>
    <path d="M 85.570317 86.728107 
L 99.786388 124.694984 
" clip-path="url(#pa3bbe74d2d)" style="fill: none; stroke: #000000; stroke-width: 1.2"/>
    <path d="M 85.570317 86.728107 
L 118.067715 104.00589 
" clip-path="url(#pa3bbe74d2d)" style="fill: none; stroke: #000000; stroke-width: 1.2"/>
    <path d="M 133.000654 135.832377 
L 99.786388 124.694984 
" clip-path="url(#pa3bbe74d2d)" style="fill: none; stroke: #000000; stroke-width: 1.2"/>
    <path d="M 133.000654 135.832377 
L 148.592777 120.23832 
" clip-path="url(#pa3bbe74d2d)" style="fill: none; stroke: #000000; stroke-width: 1.2"/>
    <path d="M 133.000654 135.832377 
L 118.067715 104.00589 
" clip-path="url(#pa3bbe74d2d)" style="fill: none; stroke: #000000; stroke-width: 1.2"/>
    <path d="M 133.000654 135.832377 
L 148.831514 166.352501 
" clip-path="url(#pa3bbe74d2d)" style="fill: none; stroke: #000000; stroke-width: 1.2"/>
    <path d="M 99.786388 124.694984 
L 148.592777 120.23832 
" clip-path="url(#pa3bbe74d2d)" style="fill: none; stroke: #000000; stroke-width: 1.2"/>
    <path d="M 99.786388 124.694984 
L 118.067715 104.00589 
" clip-path="url(#pa3bbe74d2d)" style="fill: none; stroke: #000000; stroke-width: 1.2"/>
    <path d="M 148.592777 120.23832 
L 118.067715 104.00589 
" clip-path="url(#pa3bbe74d2d)" style="fill: none; stroke: #000000; stroke-width: 1.2"/>
    <path d="M 148.592777 120.23832 
L 184.618827 135.848445 
" clip-path="url(#pa3bbe74d2d)" style="fill: none; stroke: #000000; stroke-width: 1.2"/>
    <path d="M 103.114204 231.585297 
L 130.13905 204.415218 
" clip-path="url(#pa3bbe74d2d)" style="fill: none; stroke: #000000; stroke-width: 1.2"/>
    <path d="M 110.515207 172.89264 
L 130.13905 204.415218 
" clip-path="url(#pa3bbe74d2d)" style="fill: none; stroke: #000000; stroke-width: 1.2"/>
    <path d="M 133.544666 237.076364 
L 130.13905 204.415218 
" clip-path="url(#pa3bbe74d2d)" style="fill: none; stroke: #000000; stroke-width: 1.2"/>
    <path d="M 185.138763 222.059547 
L 168.307977 192.867306 
" clip-path="url(#pa3bbe74d2d)" style="fill: none; stroke: #000000; stroke-width: 1.2"/>
    <path d="M 148.831514 166.352501 
L 168.307977 192.867306 
" clip-path="url(#pa3bbe74d2d)" style="fill: none; stroke: #000000; stroke-width: 1.2"/>
    <path d="M 228.764276 188.970202 
L 200.346135 169.165785 
" clip-path="url(#pa3bbe74d2d)" style="fill: none; stroke: #000000; stroke-width: 1.2"/>
    <path d="M 239.831405 162.364642 
L 200.346135 169.165785 
" clip-path="url(#pa3bbe74d2d)" style="fill: none; stroke: #000000; stroke-width: 1.2"/>
    <path d="M 184.618827 135.848445 
L 200.346135 169.165785 
" clip-path="url(#pa3bbe74d2d)" style="fill: none; stroke: #000000; stroke-width: 1.2"/>
    <path d="M 130.13905 204.415218 
L 168.307977 192.867306 
" clip-path="url(#pa3bbe74d2d)" style="fill: none; stroke: #000000; stroke-width: 1.2"/>
    <path d="M 168.307977 192.867306 
L 200.346135 169.165785 
" clip-path="url(#pa3bbe74d2d)" style="fill: none; stroke: #000000; stroke-width: 1.2"/>
   </g>
   <g id="PathCollection_1">
    <defs>
     <path id="C0_0_b9ac49480b" d="M 0 8.944272 
C 2.372049 8.944272 4.647264 8.001847 6.324555 6.324555 
C 8.001847 4.647264 8.944272 2.372049 8.944272 -0 
C 8.944272 -2.372049 8.001847 -4.647264 6.324555 -6.324555 
C 4.647264 -8.001847 2.372049 -8.944272 0 -8.944272 
C -2.372049 -8.944272 -4.647264 -8.001847 -6.324555 -6.324555 
C -8.001847 -4.647264 -8.944272 -2.372049 -8.944272 0 
C -8.944272 2.372049 -8.001847 4.647264 -6.324555 6.324555 
C -4.647264 8.001847 -2.372049 8.944272 0 8.944272 
z
"/>
    </defs>
    <g clip-path="url(#pa3bbe74d2d)">
     <use xlink:href="#C0_0_b9ac49480b" x="87.301781" y="65.778873" style="fill: #e06633; stroke: #e06633; stroke-width: 0.5"/>
    </g>
    <g clip-path="url(#pa3bbe74d2d)">
     <use xlink:href="#C0_0_b9ac49480b" x="151.311978" y="95.680571" style="fill: #e06633; stroke: #e06633; stroke-width: 0.5"/>
    </g>
    <g clip-path="url(#pa3bbe74d2d)">
     <use xlink:href="#C0_0_b9ac49480b" x="121.409962" y="81.585248" style="fill: #e06633; stroke: #e06633; stroke-width: 0.5"/>
    </g>
    <g clip-path="url(#pa3bbe74d2d)">
     <use xlink:href="#C0_0_b9ac49480b" x="145.393732" y="74.782939" style="fill: #e06633; stroke: #e06633; stroke-width: 0.5"/>
    </g>
    <g clip-path="url(#pa3bbe74d2d)">
     <use xlink:href="#C0_0_b9ac49480b" x="115.243149" y="66.958554" style="fill: #e06633; stroke: #e06633; stroke-width: 0.5"/>
    </g>
    <g clip-path="url(#pa3bbe74d2d)">
     <use xlink:href="#C0_0_b9ac49480b" x="100.723707" y="64.116287" style="fill: #e06633; stroke: #e06633; stroke-width: 0.5"/>
    </g>
    <g clip-path="url(#pa3bbe74d2d)">
     <use xlink:href="#C0_0_b9ac49480b" x="93.591177" y="53.803636" style="fill: #e06633; stroke: #e06633; stroke-width: 0.5"/>
    </g>
    <g clip-path="url(#pa3bbe74d2d)">
     <use xlink:href="#C0_0_b9ac49480b" x="159.384076" y="95.974416" style="fill: #e06633; stroke: #e06633; stroke-width: 0.5"/>
    </g>
    <g clip-path="url(#pa3bbe74d2d)">
     <use xlink:href="#C0_0_b9ac49480b" x="128.553175" y="80.821883" style="fill: #e06633; stroke: #e06633; stroke-width: 0.5"/>
    </g>
    <g clip-path="url(#pa3bbe74d2d)">
     <use xlink:href="#C0_0_b9ac49480b" x="150.471266" y="83.437924" style="fill: #e06633; stroke: #e06633; stroke-width: 0.5"/>
    </g>
    <g clip-path="url(#pa3bbe74d2d)">
     <use xlink:href="#C0_0_b9ac49480b" x="124.899911" y="66.314497" style="fill: #e06633; stroke: #e06633; stroke-width: 0.5"/>
    </g>
    <g clip-path="url(#pa3bbe74d2d)">
     <use xlink:href="#C0_0_b9ac49480b" x="65.543328" y="75.544176" style="fill: #e06633; stroke: #e06633; stroke-width: 0.5"/>
    </g>
    <g clip-path="url(#pa3bbe74d2d)">
     <use xlink:href="#C0_0_b9ac49480b" x="55.368595" y="102.754965" style="fill: #e06633; stroke: #e06633; stroke-width: 0.5"/>
    </g>
    <g clip-path="url(#pa3bbe74d2d)">
     <use xlink:href="#C0_0_b9ac49480b" x="127.557704" y="101.079072" style="fill: #e06633; stroke: #e06633; stroke-width: 0.5"/>
    </g>
    <g clip-path="url(#pa3bbe74d2d)">
     <use xlink:href="#C0_0_b9ac49480b" x="97.52048" y="86.36286" style="fill: #e06633; stroke: #e06633; stroke-width: 0.5"/>
    </g>
    <g clip-path="url(#pa3bbe74d2d)">
     <use xlink:href="#C0_0_b9ac49480b" x="117.534757" y="121.280384" style="fill: #e06633; stroke: #e06633; stroke-width: 0.5"/>
    </g>
    <g clip-path="url(#pa3bbe74d2d)">
     <use xlink:href="#C0_0_b9ac49480b" x="85.697216" y="112.34857" style="fill: #e06633; stroke: #e06633; stroke-width: 0.5"/>
    </g>
    <g clip-path="url(#pa3bbe74d2d)">
     <use xlink:href="#C0_0_b9ac49480b" x="74.424147" y="72.42067" style="fill: #e06633; stroke: #e06633; stroke-width: 0.5"/>
    </g>
    <g clip-path="url(#pa3bbe74d2d)">
     <use xlink:href="#C0_0_b9ac49480b" x="63.545241" y="94.370547" style="fill: #e06633; stroke: #e06633; stroke-width: 0.5"/>
    </g>
    <g clip-path="url(#pa3bbe74d2d)">
     <use xlink:href="#C0_0_b9ac49480b" x="137.184849" y="103.616122" style="fill: #e06633; stroke: #e06633; stroke-width: 0.5"/>
    </g>
    <g clip-path="url(#pa3bbe74d2d)">
     <use xlink:href="#C0_0_b9ac49480b" x="104.142232" y="89.190046" style="fill: #e06633; stroke: #e06633; stroke-width: 0.5"/>
    </g>
    <g clip-path="url(#pa3bbe74d2d)">
     <use xlink:href="#C0_0_b9ac49480b" x="121.386844" y="130.56423" style="fill: #e06633; stroke: #e06633; stroke-width: 0.5"/>
    </g>
    <g clip-path="url(#pa3bbe74d2d)">
     <use xlink:href="#C0_0_b9ac49480b" x="95.047786" y="110.656511" style="fill: #e06633; stroke: #e06633; stroke-width: 0.5"/>
    </g>
    <g clip-path="url(#pa3bbe74d2d)">
     <use xlink:href="#C0_0_b9ac49480b" x="64.28411" y="115.400747" style="fill: #e06633; stroke: #e06633; stroke-width: 0.5"/>
    </g>
    <g clip-path="url(#pa3bbe74d2d)">
     <use xlink:href="#C0_0_b9ac49480b" x="77.611245" y="91.849296" style="fill: #e06633; stroke: #e06633; stroke-width: 0.5"/>
    </g>
    <g clip-path="url(#pa3bbe74d2d)">
     <use xlink:href="#C0_0_b9ac49480b" x="115.488882" y="138.059316" style="fill: #e06633; stroke: #e06633; stroke-width: 0.5"/>
    </g>
    <g clip-path="url(#pa3bbe74d2d)">
     <use xlink:href="#C0_0_b9ac49480b" x="91.546143" y="126.524455" style="fill: #e06633; stroke: #e06633; stroke-width: 0.5"/>
    </g>
    <g clip-path="url(#pa3bbe74d2d)">
     <use xlink:href="#C0_0_b9ac49480b" x="141.443025" y="115.594002" style="fill: #e06633; stroke: #e06633; stroke-width: 0.5"/>
    </g>
    <g clip-path="url(#pa3bbe74d2d)">
     <use xlink:href="#C0_0_b9ac49480b" x="109.448702" y="103.666541" style="fill: #e06633; stroke: #e06633; stroke-width: 0.5"/>
    </g>
    <g clip-path="url(#pa3bbe74d2d)">
     <use xlink:href="#C0_0_b9ac49480b" x="70.92582" y="111.5885" style="fill: #e06633; stroke: #e06633; stroke-width: 0.5"/>
    </g>
    <g clip-path="url(#pa3bbe74d2d)">
     <use xlink:href="#C0_0_b9ac49480b" x="85.570317" y="86.728107" style="fill: #e06633; stroke: #e06633; stroke-width: 0.5"/>
    </g>
    <g clip-path="url(#pa3bbe74d2d)">
     <use xlink:href="#C0_0_b9ac49480b" x="133.000654" y="135.832377" style="fill: #e06633; stroke: #e06633; stroke-width: 0.5"/>
    </g>
    <g clip-path="url(#pa3bbe74d2d)">
     <use xlink:href="#C0_0_b9ac49480b" x="99.786388" y="124.694984" style="fill: #e06633; stroke: #e06633; stroke-width: 0.5"/>
    </g>
    <g clip-path="url(#pa3bbe74d2d)">
     <use xlink:href="#C0_0_b9ac49480b" x="148.592777" y="120.23832" style="fill: #e06633; stroke: #e06633; stroke-width: 0.5"/>
    </g>
    <g clip-path="url(#pa3bbe74d2d)">
     <use xlink:href="#C0_0_b9ac49480b" x="118.067715" y="104.00589" style="fill: #e06633; stroke: #e06633; stroke-width: 0.5"/>
    </g>
    <g clip-path="url(#pa3bbe74d2d)">
     <use xlink:href="#C0_0_b9ac49480b" x="103.114204" y="231.585297" style="fill: #bfbfbf; stroke: #bfbfbf; stroke-width: 0.5"/>
    </g>
    <g clip-path="url(#pa3bbe74d2d)">
     <use xlink:href="#C0_0_b9ac49480b" x="110.515207" y="172.89264" style="fill: #bfbfbf; stroke: #bfbfbf; stroke-width: 0.5"/>
    </g>
    <g clip-path="url(#pa3bbe74d2d)">
     <use xlink:href="#C0_0_b9ac49480b" x="133.544666" y="237.076364" style="fill: #bfbfbf; stroke: #bfbfbf; stroke-width: 0.5"/>
    </g>
    <g clip-path="url(#pa3bbe74d2d)">
     <use xlink:href="#C0_0_b9ac49480b" x="185.138763" y="222.059547" style="fill: #bfbfbf; stroke: #bfbfbf; stroke-width: 0.5"/>
    </g>
    <g clip-path="url(#pa3bbe74d2d)">
     <use xlink:href="#C0_0_b9ac49480b" x="148.831514" y="166.352501" style="fill: #bfbfbf; stroke: #bfbfbf; stroke-width: 0.5"/>
    </g>
    <g clip-path="url(#pa3bbe74d2d)">
     <use xlink:href="#C0_0_b9ac49480b" x="228.764276" y="188.970202" style="fill: #bfbfbf; stroke: #bfbfbf; stroke-width: 0.5"/>
    </g>
    <g clip-path="url(#pa3bbe74d2d)">
     <use xlink:href="#C0_0_b9ac49480b" x="239.831405" y="162.364642" style="fill: #bfbfbf; stroke: #bfbfbf; stroke-width: 0.5"/>
    </g>
    <g clip-path="url(#pa3bbe74d2d)">
     <use xlink:href="#C0_0_b9ac49480b" x="184.618827" y="135.848445" style="fill: #bfbfbf; stroke: #bfbfbf; stroke-width: 0.5"/>
    </g>
    <g clip-path="url(#pa3bbe74d2d)">
     <use xlink:href="#C0_0_b9ac49480b" x="130.13905" y="204.415218" style="fill: #666666; stroke: #666666; stroke-width: 0.5"/>
    </g>
    <g clip-path="url(#pa3bbe74d2d)">
     <use xlink:href="#C0_0_b9ac49480b" x="168.307977" y="192.867306" style="fill: #666666; stroke: #666666; stroke-width: 0.5"/>
    </g>
    <g clip-path="url(#pa3bbe74d2d)">
     <use xlink:href="#C0_0_b9ac49480b" x="200.346135" y="169.165785" style="fill: #666666; stroke: #666666; stroke-width: 0.5"/>
    </g>
   </g>
   <g id="text_1">
    <!-- C3H8Fe48 -->
    <g transform="translate(125.871311 2.079647) scale(0.1 -0.1)">
     <defs>
      <path id="DejaVuSans-43" d="M 4122 4306 
L 4122 3641 
Q 3803 3938 3442 4084 
Q 3081 4231 2675 4231 
Q 1875 4231 1450 3742 
Q 1025 3253 1025 2328 
Q 1025 1406 1450 917 
Q 1875 428 2675 428 
Q 3081 428 3442 575 
Q 3803 722 4122 1019 
L 4122 359 
Q 3791 134 3420 21 
Q 3050 -91 2638 -91 
Q 1578 -91 968 557 
Q 359 1206 359 2328 
Q 359 3453 968 4101 
Q 1578 4750 2638 4750 
Q 3056 4750 3426 4639 
Q 3797 4528 4122 4306 
z
" transform="scale(0.015625)"/>
      <path id="DejaVuSans-33" d="M 2597 2516 
Q 3050 2419 3304 2112 
Q 3559 1806 3559 1356 
Q 3559 666 3084 287 
Q 2609 -91 1734 -91 
Q 1441 -91 1130 -33 
Q 819 25 488 141 
L 488 750 
Q 750 597 1062 519 
Q 1375 441 1716 441 
Q 2309 441 2620 675 
Q 2931 909 2931 1356 
Q 2931 1769 2642 2001 
Q 2353 2234 1838 2234 
L 1294 2234 
L 1294 2753 
L 1863 2753 
Q 2328 2753 2575 2939 
Q 2822 3125 2822 3475 
Q 2822 3834 2567 4026 
Q 2313 4219 1838 4219 
Q 1578 4219 1281 4162 
Q 984 4106 628 3988 
L 628 4550 
Q 988 4650 1302 4700 
Q 1616 4750 1894 4750 
Q 2613 4750 3031 4423 
Q 3450 4097 3450 3541 
Q 3450 3153 3228 2886 
Q 3006 2619 2597 2516 
z
" transform="scale(0.015625)"/>
      <path id="DejaVuSans-48" d="M 628 4666 
L 1259 4666 
L 1259 2753 
L 3553 2753 
L 3553 4666 
L 4184 4666 
L 4184 0 
L 3553 0 
L 3553 2222 
L 1259 2222 
L 1259 0 
L 628 0 
L 628 4666 
z
" transform="scale(0.015625)"/>
      <path id="DejaVuSans-38" d="M 2034 2216 
Q 1584 2216 1326 1975 
Q 1069 1734 1069 1313 
Q 1069 891 1326 650 
Q 1584 409 2034 409 
Q 2484 409 2743 651 
Q 3003 894 3003 1313 
Q 3003 1734 2745 1975 
Q 2488 2216 2034 2216 
z
M 1403 2484 
Q 997 2584 770 2862 
Q 544 3141 544 3541 
Q 544 4100 942 4425 
Q 1341 4750 2034 4750 
Q 2731 4750 3128 4425 
Q 3525 4100 3525 3541 
Q 3525 3141 3298 2862 
Q 3072 2584 2669 2484 
Q 3125 2378 3379 2068 
Q 3634 1759 3634 1313 
Q 3634 634 3220 271 
Q 2806 -91 2034 -91 
Q 1263 -91 848 271 
Q 434 634 434 1313 
Q 434 1759 690 2068 
Q 947 2378 1403 2484 
z
M 1172 3481 
Q 1172 3119 1398 2916 
Q 1625 2713 2034 2713 
Q 2441 2713 2670 2916 
Q 2900 3119 2900 3481 
Q 2900 3844 2670 4047 
Q 2441 4250 2034 4250 
Q 1625 4250 1398 4047 
Q 1172 3844 1172 3481 
z
" transform="scale(0.015625)"/>
      <path id="DejaVuSans-46" d="M 628 4666 
L 3309 4666 
L 3309 4134 
L 1259 4134 
L 1259 2759 
L 3109 2759 
L 3109 2228 
L 1259 2228 
L 1259 0 
L 628 0 
L 628 4666 
z
" transform="scale(0.015625)"/>
      <path id="DejaVuSans-65" d="M 3597 1894 
L 3597 1613 
L 953 1613 
Q 991 1019 1311 708 
Q 1631 397 2203 397 
Q 2534 397 2845 478 
Q 3156 559 3463 722 
L 3463 178 
Q 3153 47 2828 -22 
Q 2503 -91 2169 -91 
Q 1331 -91 842 396 
Q 353 884 353 1716 
Q 353 2575 817 3079 
Q 1281 3584 2069 3584 
Q 2775 3584 3186 3129 
Q 3597 2675 3597 1894 
z
M 3022 2063 
Q 3016 2534 2758 2815 
Q 2500 3097 2075 3097 
Q 1594 3097 1305 2825 
Q 1016 2553 972 2059 
L 3022 2063 
z
" transform="scale(0.015625)"/>
      <path id="DejaVuSans-34" d="M 2419 4116 
L 825 1625 
L 2419 1625 
L 2419 4116 
z
M 2253 4666 
L 3047 4666 
L 3047 1625 
L 3713 1625 
L 3713 1100 
L 3047 1100 
L 3047 0 
L 2419 0 
L 2419 1100 
L 313 1100 
L 313 1709 
L 2253 4666 
z
" transform="scale(0.015625)"/>
     </defs>
     <use xlink:href="#DejaVuSans-43"/>
     <use xlink:href="#DejaVuSans-33" transform="translate(69.824219 0)"/>
     <use xlink:href="#DejaVuSans-48" transform="translate(133.447266 0)"/>
     <use xlink:href="#DejaVuSans-38" transform="translate(208.642578 0)"/>
     <use xlink:href="#DejaVuSans-46" transform="translate(272.265625 0)"/>
     <use xlink:href="#DejaVuSans-65" transform="translate(324.285156 0)"/>
     <use xlink:href="#DejaVuSans-34" transform="translate(385.808594 0)"/>
     <use xlink:href="#DejaVuSans-38" transform="translate(449.431641 0)"/>
    </g>
    <!-- Error: -8.04 eV -->
    <g transform="translate(125.871311 13.277459) scale(0.1 -0.1)">
     <defs>
      <path id="DejaVuSans-45" d="M 628 4666 
L 3578 4666 
L 3578 4134 
L 1259 4134 
L 1259 2753 
L 3481 2753 
L 3481 2222 
L 1259 2222 
L 1259 531 
L 3634 531 
L 3634 0 
L 628 0 
L 628 4666 
z
" transform="scale(0.015625)"/>
      <path id="DejaVuSans-72" d="M 2631 2963 
Q 2534 3019 2420 3045 
Q 2306 3072 2169 3072 
Q 1681 3072 1420 2755 
Q 1159 2438 1159 1844 
L 1159 0 
L 581 0 
L 581 3500 
L 1159 3500 
L 1159 2956 
Q 1341 3275 1631 3429 
Q 1922 3584 2338 3584 
Q 2397 3584 2469 3576 
Q 2541 3569 2628 3553 
L 2631 2963 
z
" transform="scale(0.015625)"/>
      <path id="DejaVuSans-6f" d="M 1959 3097 
Q 1497 3097 1228 2736 
Q 959 2375 959 1747 
Q 959 1119 1226 758 
Q 1494 397 1959 397 
Q 2419 397 2687 759 
Q 2956 1122 2956 1747 
Q 2956 2369 2687 2733 
Q 2419 3097 1959 3097 
z
M 1959 3584 
Q 2709 3584 3137 3096 
Q 3566 2609 3566 1747 
Q 3566 888 3137 398 
Q 2709 -91 1959 -91 
Q 1206 -91 779 398 
Q 353 888 353 1747 
Q 353 2609 779 3096 
Q 1206 3584 1959 3584 
z
" transform="scale(0.015625)"/>
      <path id="DejaVuSans-3a" d="M 750 794 
L 1409 794 
L 1409 0 
L 750 0 
L 750 794 
z
M 750 3309 
L 1409 3309 
L 1409 2516 
L 750 2516 
L 750 3309 
z
" transform="scale(0.015625)"/>
      <path id="DejaVuSans-20" transform="scale(0.015625)"/>
      <path id="DejaVuSans-2d" d="M 313 2009 
L 1997 2009 
L 1997 1497 
L 313 1497 
L 313 2009 
z
" transform="scale(0.015625)"/>
      <path id="DejaVuSans-2e" d="M 684 794 
L 1344 794 
L 1344 0 
L 684 0 
L 684 794 
z
" transform="scale(0.015625)"/>
      <path id="DejaVuSans-30" d="M 2034 4250 
Q 1547 4250 1301 3770 
Q 1056 3291 1056 2328 
Q 1056 1369 1301 889 
Q 1547 409 2034 409 
Q 2525 409 2770 889 
Q 3016 1369 3016 2328 
Q 3016 3291 2770 3770 
Q 2525 4250 2034 4250 
z
M 2034 4750 
Q 2819 4750 3233 4129 
Q 3647 3509 3647 2328 
Q 3647 1150 3233 529 
Q 2819 -91 2034 -91 
Q 1250 -91 836 529 
Q 422 1150 422 2328 
Q 422 3509 836 4129 
Q 1250 4750 2034 4750 
z
" transform="scale(0.015625)"/>
      <path id="DejaVuSans-56" d="M 1831 0 
L 50 4666 
L 709 4666 
L 2188 738 
L 3669 4666 
L 4325 4666 
L 2547 0 
L 1831 0 
z
" transform="scale(0.015625)"/>
     </defs>
     <use xlink:href="#DejaVuSans-45"/>
     <use xlink:href="#DejaVuSans-72" transform="translate(63.183594 0)"/>
     <use xlink:href="#DejaVuSans-72" transform="translate(102.546875 0)"/>
     <use xlink:href="#DejaVuSans-6f" transform="translate(141.410156 0)"/>
     <use xlink:href="#DejaVuSans-72" transform="translate(202.591797 0)"/>
     <use xlink:href="#DejaVuSans-3a" transform="translate(241.955078 0)"/>
     <use xlink:href="#DejaVuSans-20" transform="translate(275.646484 0)"/>
     <use xlink:href="#DejaVuSans-2d" transform="translate(307.433594 0)"/>
     <use xlink:href="#DejaVuSans-38" transform="translate(343.517578 0)"/>
     <use xlink:href="#DejaVuSans-2e" transform="translate(407.140625 0)"/>
     <use xlink:href="#DejaVuSans-30" transform="translate(438.927734 0)"/>
     <use xlink:href="#DejaVuSans-34" transform="translate(502.550781 0)"/>
     <use xlink:href="#DejaVuSans-20" transform="translate(566.173828 0)"/>
     <use xlink:href="#DejaVuSans-65" transform="translate(597.960938 0)"/>
     <use xlink:href="#DejaVuSans-56" transform="translate(659.484375 0)"/>
    </g>
   </g>
  </g>
 </g>
 <defs>
  <clipPath id="pa3bbe74d2d">
   <rect x="36" y="34.56" width="223.2" height="221.76"/>
  </clipPath>
 </defs>
</svg>
