<?xml version="1.0" encoding="utf-8" standalone="no"?>
<!DOCTYPE svg PUBLIC "-//W3C//DTD SVG 1.1//EN"
  "http://www.w3.org/Graphics/SVG/1.1/DTD/svg11.dtd">
<svg xmlns:xlink="http://www.w3.org/1999/xlink" width="288pt" height="288pt" viewBox="0 0 288 288" xmlns="http://www.w3.org/2000/svg" version="1.1">
 <metadata>
  <rdf:RDF xmlns:dc="http://purl.org/dc/elements/1.1/" xmlns:cc="http://creativecommons.org/ns#" xmlns:rdf="http://www.w3.org/1999/02/22-rdf-syntax-ns#">
   <cc:Work>
    <dc:type rdf:resource="http://purl.org/dc/dcmitype/StillImage"/>
    <dc:date>2025-06-30T12:10:35.963527</dc:date>
    <dc:format>image/svg+xml</dc:format>
    <dc:creator>
     <cc:Agent>
      <dc:title>Matplotlib v3.10.1, https://matplotlib.org/</dc:title>
     </cc:Agent>
    </dc:creator>
   </cc:Work>
  </rdf:RDF>
 </metadata>
 <defs>
  <style type="text/css">*{stroke-linejoin: round; stroke-linecap: butt}</style>
 </defs>
 <g id="figure_1">
  <g id="patch_1">
   <path d="M 0 288 
L 288 288 
L 288 0 
L 0 0 
z
" style="fill: #ffffff"/>
  </g>
  <g id="axes_1">
   <g id="LineCollection_1">
    <path d="M 153.953908 69.027849 
L 120.236502 53.803636 
" clip-path="url(#p700b865748)" style="fill: none; stroke: #000000; stroke-width: 1.2"/>
    <path d="M 153.953908 69.027849 
L 128.860574 57.511289 
" clip-path="url(#p700b865748)" style="fill: none; stroke: #000000; stroke-width: 1.2"/>
    <path d="M 153.953908 69.027849 
L 105.21517 64.189879 
" clip-path="url(#p700b865748)" style="fill: none; stroke: #000000; stroke-width: 1.2"/>
    <path d="M 153.953908 69.027849 
L 116.768647 66.22698 
" clip-path="url(#p700b865748)" style="fill: none; stroke: #000000; stroke-width: 1.2"/>
    <path d="M 153.953908 69.027849 
L 126.519047 83.147774 
" clip-path="url(#p700b865748)" style="fill: none; stroke: #000000; stroke-width: 1.2"/>
    <path d="M 153.953908 69.027849 
L 137.814224 91.430438 
" clip-path="url(#p700b865748)" style="fill: none; stroke: #000000; stroke-width: 1.2"/>
    <path d="M 153.953908 69.027849 
L 114.279388 94.709867 
" clip-path="url(#p700b865748)" style="fill: none; stroke: #000000; stroke-width: 1.2"/>
    <path d="M 120.236502 53.803636 
L 92.900741 54.836609 
" clip-path="url(#p700b865748)" style="fill: none; stroke: #000000; stroke-width: 1.2"/>
    <path d="M 120.236502 53.803636 
L 139.776304 68.288896 
" clip-path="url(#p700b865748)" style="fill: none; stroke: #000000; stroke-width: 1.2"/>
    <path d="M 120.236502 53.803636 
L 105.21517 64.189879 
" clip-path="url(#p700b865748)" style="fill: none; stroke: #000000; stroke-width: 1.2"/>
    <path d="M 120.236502 53.803636 
L 69.51177 57.028364 
" clip-path="url(#p700b865748)" style="fill: none; stroke: #000000; stroke-width: 1.2"/>
    <path d="M 120.236502 53.803636 
L 86.225117 80.276904 
" clip-path="url(#p700b865748)" style="fill: none; stroke: #000000; stroke-width: 1.2"/>
    <path d="M 120.236502 53.803636 
L 137.814224 91.430438 
" clip-path="url(#p700b865748)" style="fill: none; stroke: #000000; stroke-width: 1.2"/>
    <path d="M 120.236502 53.803636 
L 117.025997 86.940843 
" clip-path="url(#p700b865748)" style="fill: none; stroke: #000000; stroke-width: 1.2"/>
    <path d="M 92.900741 54.836609 
L 139.776304 68.288896 
" clip-path="url(#p700b865748)" style="fill: none; stroke: #000000; stroke-width: 1.2"/>
    <path d="M 92.900741 54.836609 
L 128.860574 57.511289 
" clip-path="url(#p700b865748)" style="fill: none; stroke: #000000; stroke-width: 1.2"/>
    <path d="M 92.900741 54.836609 
L 60.304885 65.095534 
" clip-path="url(#p700b865748)" style="fill: none; stroke: #000000; stroke-width: 1.2"/>
    <path d="M 92.900741 54.836609 
L 69.51177 57.028364 
" clip-path="url(#p700b865748)" style="fill: none; stroke: #000000; stroke-width: 1.2"/>
    <path d="M 92.900741 54.836609 
L 117.025997 86.940843 
" clip-path="url(#p700b865748)" style="fill: none; stroke: #000000; stroke-width: 1.2"/>
    <path d="M 92.900741 54.836609 
L 93.223706 87.476486 
" clip-path="url(#p700b865748)" style="fill: none; stroke: #000000; stroke-width: 1.2"/>
    <path d="M 92.900741 54.836609 
L 61.03514 83.968206 
" clip-path="url(#p700b865748)" style="fill: none; stroke: #000000; stroke-width: 1.2"/>
    <path d="M 139.776304 68.288896 
L 128.860574 57.511289 
" clip-path="url(#p700b865748)" style="fill: none; stroke: #000000; stroke-width: 1.2"/>
    <path d="M 139.776304 68.288896 
L 105.21517 64.189879 
" clip-path="url(#p700b865748)" style="fill: none; stroke: #000000; stroke-width: 1.2"/>
    <path d="M 139.776304 68.288896 
L 80.343501 67.139471 
" clip-path="url(#p700b865748)" style="fill: none; stroke: #000000; stroke-width: 1.2"/>
    <path d="M 139.776304 68.288896 
L 116.768647 66.22698 
" clip-path="url(#p700b865748)" style="fill: none; stroke: #000000; stroke-width: 1.2"/>
    <path d="M 139.776304 68.288896 
L 117.025997 86.940843 
" clip-path="url(#p700b865748)" style="fill: none; stroke: #000000; stroke-width: 1.2"/>
    <path d="M 139.776304 68.288896 
L 140.969219 96.617555 
" clip-path="url(#p700b865748)" style="fill: none; stroke: #000000; stroke-width: 1.2"/>
    <path d="M 139.776304 68.288896 
L 105.803137 100.043441 
" clip-path="url(#p700b865748)" style="fill: none; stroke: #000000; stroke-width: 1.2"/>
    <path d="M 128.860574 57.511289 
L 60.304885 65.095534 
" clip-path="url(#p700b865748)" style="fill: none; stroke: #000000; stroke-width: 1.2"/>
    <path d="M 128.860574 57.511289 
L 116.768647 66.22698 
" clip-path="url(#p700b865748)" style="fill: none; stroke: #000000; stroke-width: 1.2"/>
    <path d="M 128.860574 57.511289 
L 126.519047 83.147774 
" clip-path="url(#p700b865748)" style="fill: none; stroke: #000000; stroke-width: 1.2"/>
    <path d="M 128.860574 57.511289 
L 93.223706 87.476486 
" clip-path="url(#p700b865748)" style="fill: none; stroke: #000000; stroke-width: 1.2"/>
    <path d="M 128.860574 57.511289 
L 140.969219 96.617555 
" clip-path="url(#p700b865748)" style="fill: none; stroke: #000000; stroke-width: 1.2"/>
    <path d="M 105.21517 64.189879 
L 60.304885 65.095534 
" clip-path="url(#p700b865748)" style="fill: none; stroke: #000000; stroke-width: 1.2"/>
    <path d="M 105.21517 64.189879 
L 80.343501 67.139471 
" clip-path="url(#p700b865748)" style="fill: none; stroke: #000000; stroke-width: 1.2"/>
    <path d="M 105.21517 64.189879 
L 137.814224 91.430438 
" clip-path="url(#p700b865748)" style="fill: none; stroke: #000000; stroke-width: 1.2"/>
    <path d="M 105.21517 64.189879 
L 72.622949 93.895795 
" clip-path="url(#p700b865748)" style="fill: none; stroke: #000000; stroke-width: 1.2"/>
    <path d="M 105.21517 64.189879 
L 105.803137 100.043441 
" clip-path="url(#p700b865748)" style="fill: none; stroke: #000000; stroke-width: 1.2"/>
    <path d="M 60.304885 65.095534 
L 80.343501 67.139471 
" clip-path="url(#p700b865748)" style="fill: none; stroke: #000000; stroke-width: 1.2"/>
    <path d="M 60.304885 65.095534 
L 93.223706 87.476486 
" clip-path="url(#p700b865748)" style="fill: none; stroke: #000000; stroke-width: 1.2"/>
    <path d="M 60.304885 65.095534 
L 72.622949 93.895795 
" clip-path="url(#p700b865748)" style="fill: none; stroke: #000000; stroke-width: 1.2"/>
    <path d="M 60.304885 65.095534 
L 56.758696 92.47512 
" clip-path="url(#p700b865748)" style="fill: none; stroke: #000000; stroke-width: 1.2"/>
    <path d="M 80.343501 67.139471 
L 116.768647 66.22698 
" clip-path="url(#p700b865748)" style="fill: none; stroke: #000000; stroke-width: 1.2"/>
    <path d="M 80.343501 67.139471 
L 69.51177 57.028364 
" clip-path="url(#p700b865748)" style="fill: none; stroke: #000000; stroke-width: 1.2"/>
    <path d="M 80.343501 67.139471 
L 105.803137 100.043441 
" clip-path="url(#p700b865748)" style="fill: none; stroke: #000000; stroke-width: 1.2"/>
    <path d="M 80.343501 67.139471 
L 56.758696 92.47512 
" clip-path="url(#p700b865748)" style="fill: none; stroke: #000000; stroke-width: 1.2"/>
    <path d="M 80.343501 67.139471 
L 83.30018 96.333629 
" clip-path="url(#p700b865748)" style="fill: none; stroke: #000000; stroke-width: 1.2"/>
    <path d="M 116.768647 66.22698 
L 69.51177 57.028364 
" clip-path="url(#p700b865748)" style="fill: none; stroke: #000000; stroke-width: 1.2"/>
    <path d="M 116.768647 66.22698 
L 140.969219 96.617555 
" clip-path="url(#p700b865748)" style="fill: none; stroke: #000000; stroke-width: 1.2"/>
    <path d="M 116.768647 66.22698 
L 83.30018 96.333629 
" clip-path="url(#p700b865748)" style="fill: none; stroke: #000000; stroke-width: 1.2"/>
    <path d="M 116.768647 66.22698 
L 114.279388 94.709867 
" clip-path="url(#p700b865748)" style="fill: none; stroke: #000000; stroke-width: 1.2"/>
    <path d="M 69.51177 57.028364 
L 86.225117 80.276904 
" clip-path="url(#p700b865748)" style="fill: none; stroke: #000000; stroke-width: 1.2"/>
    <path d="M 69.51177 57.028364 
L 83.30018 96.333629 
" clip-path="url(#p700b865748)" style="fill: none; stroke: #000000; stroke-width: 1.2"/>
    <path d="M 69.51177 57.028364 
L 61.03514 83.968206 
" clip-path="url(#p700b865748)" style="fill: none; stroke: #000000; stroke-width: 1.2"/>
    <path d="M 126.519047 83.147774 
L 86.225117 80.276904 
" clip-path="url(#p700b865748)" style="fill: none; stroke: #000000; stroke-width: 1.2"/>
    <path d="M 126.519047 83.147774 
L 137.814224 91.430438 
" clip-path="url(#p700b865748)" style="fill: none; stroke: #000000; stroke-width: 1.2"/>
    <path d="M 126.519047 83.147774 
L 93.223706 87.476486 
" clip-path="url(#p700b865748)" style="fill: none; stroke: #000000; stroke-width: 1.2"/>
    <path d="M 126.519047 83.147774 
L 140.969219 96.617555 
" clip-path="url(#p700b865748)" style="fill: none; stroke: #000000; stroke-width: 1.2"/>
    <path d="M 126.519047 83.147774 
L 56.758696 92.47512 
" clip-path="url(#p700b865748)" style="fill: none; stroke: #000000; stroke-width: 1.2"/>
    <path d="M 126.519047 83.147774 
L 114.279388 94.709867 
" clip-path="url(#p700b865748)" style="fill: none; stroke: #000000; stroke-width: 1.2"/>
    <path d="M 126.519047 83.147774 
L 90.512037 116.375501 
" clip-path="url(#p700b865748)" style="fill: none; stroke: #000000; stroke-width: 1.2"/>
    <path d="M 126.519047 83.147774 
L 121.293084 109.970217 
" clip-path="url(#p700b865748)" style="fill: none; stroke: #000000; stroke-width: 1.2"/>
    <path d="M 126.519047 83.147774 
L 142.500744 116.406343 
" clip-path="url(#p700b865748)" style="fill: none; stroke: #000000; stroke-width: 1.2"/>
    <path d="M 86.225117 80.276904 
L 137.814224 91.430438 
" clip-path="url(#p700b865748)" style="fill: none; stroke: #000000; stroke-width: 1.2"/>
    <path d="M 86.225117 80.276904 
L 117.025997 86.940843 
" clip-path="url(#p700b865748)" style="fill: none; stroke: #000000; stroke-width: 1.2"/>
    <path d="M 86.225117 80.276904 
L 56.758696 92.47512 
" clip-path="url(#p700b865748)" style="fill: none; stroke: #000000; stroke-width: 1.2"/>
    <path d="M 86.225117 80.276904 
L 83.30018 96.333629 
" clip-path="url(#p700b865748)" style="fill: none; stroke: #000000; stroke-width: 1.2"/>
    <path d="M 86.225117 80.276904 
L 61.03514 83.968206 
" clip-path="url(#p700b865748)" style="fill: none; stroke: #000000; stroke-width: 1.2"/>
    <path d="M 86.225117 80.276904 
L 121.293084 109.970217 
" clip-path="url(#p700b865748)" style="fill: none; stroke: #000000; stroke-width: 1.2"/>
    <path d="M 86.225117 80.276904 
L 81.5736 111.139619 
" clip-path="url(#p700b865748)" style="fill: none; stroke: #000000; stroke-width: 1.2"/>
    <path d="M 86.225117 80.276904 
L 58.410353 117.323166 
" clip-path="url(#p700b865748)" style="fill: none; stroke: #000000; stroke-width: 1.2"/>
    <path d="M 137.814224 91.430438 
L 117.025997 86.940843 
" clip-path="url(#p700b865748)" style="fill: none; stroke: #000000; stroke-width: 1.2"/>
    <path d="M 137.814224 91.430438 
L 72.622949 93.895795 
" clip-path="url(#p700b865748)" style="fill: none; stroke: #000000; stroke-width: 1.2"/>
    <path d="M 137.814224 91.430438 
L 105.803137 100.043441 
" clip-path="url(#p700b865748)" style="fill: none; stroke: #000000; stroke-width: 1.2"/>
    <path d="M 137.814224 91.430438 
L 114.279388 94.709867 
" clip-path="url(#p700b865748)" style="fill: none; stroke: #000000; stroke-width: 1.2"/>
    <path d="M 137.814224 91.430438 
L 121.293084 109.970217 
" clip-path="url(#p700b865748)" style="fill: none; stroke: #000000; stroke-width: 1.2"/>
    <path d="M 137.814224 91.430438 
L 133.085799 123.913141 
" clip-path="url(#p700b865748)" style="fill: none; stroke: #000000; stroke-width: 1.2"/>
    <path d="M 137.814224 91.430438 
L 103.074589 122.596989 
" clip-path="url(#p700b865748)" style="fill: none; stroke: #000000; stroke-width: 1.2"/>
    <path d="M 117.025997 86.940843 
L 93.223706 87.476486 
" clip-path="url(#p700b865748)" style="fill: none; stroke: #000000; stroke-width: 1.2"/>
    <path d="M 117.025997 86.940843 
L 140.969219 96.617555 
" clip-path="url(#p700b865748)" style="fill: none; stroke: #000000; stroke-width: 1.2"/>
    <path d="M 117.025997 86.940843 
L 105.803137 100.043441 
" clip-path="url(#p700b865748)" style="fill: none; stroke: #000000; stroke-width: 1.2"/>
    <path d="M 117.025997 86.940843 
L 61.03514 83.968206 
" clip-path="url(#p700b865748)" style="fill: none; stroke: #000000; stroke-width: 1.2"/>
    <path d="M 117.025997 86.940843 
L 133.085799 123.913141 
" clip-path="url(#p700b865748)" style="fill: none; stroke: #000000; stroke-width: 1.2"/>
    <path d="M 117.025997 86.940843 
L 81.5736 111.139619 
" clip-path="url(#p700b865748)" style="fill: none; stroke: #000000; stroke-width: 1.2"/>
    <path d="M 117.025997 86.940843 
L 118.22474 122.417411 
" clip-path="url(#p700b865748)" style="fill: none; stroke: #000000; stroke-width: 1.2"/>
    <path d="M 93.223706 87.476486 
L 140.969219 96.617555 
" clip-path="url(#p700b865748)" style="fill: none; stroke: #000000; stroke-width: 1.2"/>
    <path d="M 93.223706 87.476486 
L 72.622949 93.895795 
" clip-path="url(#p700b865748)" style="fill: none; stroke: #000000; stroke-width: 1.2"/>
    <path d="M 93.223706 87.476486 
L 56.758696 92.47512 
" clip-path="url(#p700b865748)" style="fill: none; stroke: #000000; stroke-width: 1.2"/>
    <path d="M 93.223706 87.476486 
L 61.03514 83.968206 
" clip-path="url(#p700b865748)" style="fill: none; stroke: #000000; stroke-width: 1.2"/>
    <path d="M 93.223706 87.476486 
L 90.512037 116.375501 
" clip-path="url(#p700b865748)" style="fill: none; stroke: #000000; stroke-width: 1.2"/>
    <path d="M 93.223706 87.476486 
L 118.22474 122.417411 
" clip-path="url(#p700b865748)" style="fill: none; stroke: #000000; stroke-width: 1.2"/>
    <path d="M 93.223706 87.476486 
L 55.368595 112.513613 
" clip-path="url(#p700b865748)" style="fill: none; stroke: #000000; stroke-width: 1.2"/>
    <path d="M 140.969219 96.617555 
L 105.803137 100.043441 
" clip-path="url(#p700b865748)" style="fill: none; stroke: #000000; stroke-width: 1.2"/>
    <path d="M 140.969219 96.617555 
L 83.30018 96.333629 
" clip-path="url(#p700b865748)" style="fill: none; stroke: #000000; stroke-width: 1.2"/>
    <path d="M 140.969219 96.617555 
L 114.279388 94.709867 
" clip-path="url(#p700b865748)" style="fill: none; stroke: #000000; stroke-width: 1.2"/>
    <path d="M 140.969219 96.617555 
L 118.22474 122.417411 
" clip-path="url(#p700b865748)" style="fill: none; stroke: #000000; stroke-width: 1.2"/>
    <path d="M 140.969219 96.617555 
L 142.500744 116.406343 
" clip-path="url(#p700b865748)" style="fill: none; stroke: #000000; stroke-width: 1.2"/>
    <path d="M 140.969219 96.617555 
L 107.346007 131.941292 
" clip-path="url(#p700b865748)" style="fill: none; stroke: #000000; stroke-width: 1.2"/>
    <path d="M 72.622949 93.895795 
L 105.803137 100.043441 
" clip-path="url(#p700b865748)" style="fill: none; stroke: #000000; stroke-width: 1.2"/>
    <path d="M 72.622949 93.895795 
L 56.758696 92.47512 
" clip-path="url(#p700b865748)" style="fill: none; stroke: #000000; stroke-width: 1.2"/>
    <path d="M 72.622949 93.895795 
L 114.279388 94.709867 
" clip-path="url(#p700b865748)" style="fill: none; stroke: #000000; stroke-width: 1.2"/>
    <path d="M 72.622949 93.895795 
L 61.03514 83.968206 
" clip-path="url(#p700b865748)" style="fill: none; stroke: #000000; stroke-width: 1.2"/>
    <path d="M 72.622949 93.895795 
L 103.074589 122.596989 
" clip-path="url(#p700b865748)" style="fill: none; stroke: #000000; stroke-width: 1.2"/>
    <path d="M 72.622949 93.895795 
L 71.210166 129.115681 
" clip-path="url(#p700b865748)" style="fill: none; stroke: #000000; stroke-width: 1.2"/>
    <path d="M 72.622949 93.895795 
L 55.368595 112.513613 
" clip-path="url(#p700b865748)" style="fill: none; stroke: #000000; stroke-width: 1.2"/>
    <path d="M 105.803137 100.043441 
L 56.758696 92.47512 
" clip-path="url(#p700b865748)" style="fill: none; stroke: #000000; stroke-width: 1.2"/>
    <path d="M 105.803137 100.043441 
L 83.30018 96.333629 
" clip-path="url(#p700b865748)" style="fill: none; stroke: #000000; stroke-width: 1.2"/>
    <path d="M 105.803137 100.043441 
L 133.085799 123.913141 
" clip-path="url(#p700b865748)" style="fill: none; stroke: #000000; stroke-width: 1.2"/>
    <path d="M 105.803137 100.043441 
L 71.210166 129.115681 
" clip-path="url(#p700b865748)" style="fill: none; stroke: #000000; stroke-width: 1.2"/>
    <path d="M 105.803137 100.043441 
L 107.346007 131.941292 
" clip-path="url(#p700b865748)" style="fill: none; stroke: #000000; stroke-width: 1.2"/>
    <path d="M 56.758696 92.47512 
L 83.30018 96.333629 
" clip-path="url(#p700b865748)" style="fill: none; stroke: #000000; stroke-width: 1.2"/>
    <path d="M 56.758696 92.47512 
L 90.512037 116.375501 
" clip-path="url(#p700b865748)" style="fill: none; stroke: #000000; stroke-width: 1.2"/>
    <path d="M 56.758696 92.47512 
L 71.210166 129.115681 
" clip-path="url(#p700b865748)" style="fill: none; stroke: #000000; stroke-width: 1.2"/>
    <path d="M 56.758696 92.47512 
L 58.410353 117.323166 
" clip-path="url(#p700b865748)" style="fill: none; stroke: #000000; stroke-width: 1.2"/>
    <path d="M 83.30018 96.333629 
L 114.279388 94.709867 
" clip-path="url(#p700b865748)" style="fill: none; stroke: #000000; stroke-width: 1.2"/>
    <path d="M 83.30018 96.333629 
L 61.03514 83.968206 
" clip-path="url(#p700b865748)" style="fill: none; stroke: #000000; stroke-width: 1.2"/>
    <path d="M 83.30018 96.333629 
L 58.410353 117.323166 
" clip-path="url(#p700b865748)" style="fill: none; stroke: #000000; stroke-width: 1.2"/>
    <path d="M 83.30018 96.333629 
L 107.346007 131.941292 
" clip-path="url(#p700b865748)" style="fill: none; stroke: #000000; stroke-width: 1.2"/>
    <path d="M 83.30018 96.333629 
L 79.150142 124.52846 
" clip-path="url(#p700b865748)" style="fill: none; stroke: #000000; stroke-width: 1.2"/>
    <path d="M 114.279388 94.709867 
L 61.03514 83.968206 
" clip-path="url(#p700b865748)" style="fill: none; stroke: #000000; stroke-width: 1.2"/>
    <path d="M 114.279388 94.709867 
L 142.500744 116.406343 
" clip-path="url(#p700b865748)" style="fill: none; stroke: #000000; stroke-width: 1.2"/>
    <path d="M 114.279388 94.709867 
L 103.074589 122.596989 
" clip-path="url(#p700b865748)" style="fill: none; stroke: #000000; stroke-width: 1.2"/>
    <path d="M 114.279388 94.709867 
L 79.150142 124.52846 
" clip-path="url(#p700b865748)" style="fill: none; stroke: #000000; stroke-width: 1.2"/>
    <path d="M 61.03514 83.968206 
L 81.5736 111.139619 
" clip-path="url(#p700b865748)" style="fill: none; stroke: #000000; stroke-width: 1.2"/>
    <path d="M 61.03514 83.968206 
L 79.150142 124.52846 
" clip-path="url(#p700b865748)" style="fill: none; stroke: #000000; stroke-width: 1.2"/>
    <path d="M 61.03514 83.968206 
L 55.368595 112.513613 
" clip-path="url(#p700b865748)" style="fill: none; stroke: #000000; stroke-width: 1.2"/>
    <path d="M 90.512037 116.375501 
L 121.293084 109.970217 
" clip-path="url(#p700b865748)" style="fill: none; stroke: #000000; stroke-width: 1.2"/>
    <path d="M 90.512037 116.375501 
L 118.22474 122.417411 
" clip-path="url(#p700b865748)" style="fill: none; stroke: #000000; stroke-width: 1.2"/>
    <path d="M 90.512037 116.375501 
L 142.500744 116.406343 
" clip-path="url(#p700b865748)" style="fill: none; stroke: #000000; stroke-width: 1.2"/>
    <path d="M 90.512037 116.375501 
L 71.210166 129.115681 
" clip-path="url(#p700b865748)" style="fill: none; stroke: #000000; stroke-width: 1.2"/>
    <path d="M 90.512037 116.375501 
L 58.410353 117.323166 
" clip-path="url(#p700b865748)" style="fill: none; stroke: #000000; stroke-width: 1.2"/>
    <path d="M 90.512037 116.375501 
L 55.368595 112.513613 
" clip-path="url(#p700b865748)" style="fill: none; stroke: #000000; stroke-width: 1.2"/>
    <path d="M 121.293084 109.970217 
L 133.085799 123.913141 
" clip-path="url(#p700b865748)" style="fill: none; stroke: #000000; stroke-width: 1.2"/>
    <path d="M 121.293084 109.970217 
L 81.5736 111.139619 
" clip-path="url(#p700b865748)" style="fill: none; stroke: #000000; stroke-width: 1.2"/>
    <path d="M 121.293084 109.970217 
L 142.500744 116.406343 
" clip-path="url(#p700b865748)" style="fill: none; stroke: #000000; stroke-width: 1.2"/>
    <path d="M 121.293084 109.970217 
L 103.074589 122.596989 
" clip-path="url(#p700b865748)" style="fill: none; stroke: #000000; stroke-width: 1.2"/>
    <path d="M 121.293084 109.970217 
L 58.410353 117.323166 
" clip-path="url(#p700b865748)" style="fill: none; stroke: #000000; stroke-width: 1.2"/>
    <path d="M 133.085799 123.913141 
L 81.5736 111.139619 
" clip-path="url(#p700b865748)" style="fill: none; stroke: #000000; stroke-width: 1.2"/>
    <path d="M 133.085799 123.913141 
L 118.22474 122.417411 
" clip-path="url(#p700b865748)" style="fill: none; stroke: #000000; stroke-width: 1.2"/>
    <path d="M 133.085799 123.913141 
L 103.074589 122.596989 
" clip-path="url(#p700b865748)" style="fill: none; stroke: #000000; stroke-width: 1.2"/>
    <path d="M 133.085799 123.913141 
L 71.210166 129.115681 
" clip-path="url(#p700b865748)" style="fill: none; stroke: #000000; stroke-width: 1.2"/>
    <path d="M 133.085799 123.913141 
L 107.346007 131.941292 
" clip-path="url(#p700b865748)" style="fill: none; stroke: #000000; stroke-width: 1.2"/>
    <path d="M 133.085799 123.913141 
L 136.827306 149.849381 
" clip-path="url(#p700b865748)" style="fill: none; stroke: #000000; stroke-width: 1.2"/>
    <path d="M 81.5736 111.139619 
L 118.22474 122.417411 
" clip-path="url(#p700b865748)" style="fill: none; stroke: #000000; stroke-width: 1.2"/>
    <path d="M 81.5736 111.139619 
L 58.410353 117.323166 
" clip-path="url(#p700b865748)" style="fill: none; stroke: #000000; stroke-width: 1.2"/>
    <path d="M 81.5736 111.139619 
L 79.150142 124.52846 
" clip-path="url(#p700b865748)" style="fill: none; stroke: #000000; stroke-width: 1.2"/>
    <path d="M 81.5736 111.139619 
L 55.368595 112.513613 
" clip-path="url(#p700b865748)" style="fill: none; stroke: #000000; stroke-width: 1.2"/>
    <path d="M 118.22474 122.417411 
L 142.500744 116.406343 
" clip-path="url(#p700b865748)" style="fill: none; stroke: #000000; stroke-width: 1.2"/>
    <path d="M 118.22474 122.417411 
L 107.346007 131.941292 
" clip-path="url(#p700b865748)" style="fill: none; stroke: #000000; stroke-width: 1.2"/>
    <path d="M 118.22474 122.417411 
L 55.368595 112.513613 
" clip-path="url(#p700b865748)" style="fill: none; stroke: #000000; stroke-width: 1.2"/>
    <path d="M 118.22474 122.417411 
L 136.827306 149.849381 
" clip-path="url(#p700b865748)" style="fill: none; stroke: #000000; stroke-width: 1.2"/>
    <path d="M 142.500744 116.406343 
L 103.074589 122.596989 
" clip-path="url(#p700b865748)" style="fill: none; stroke: #000000; stroke-width: 1.2"/>
    <path d="M 142.500744 116.406343 
L 107.346007 131.941292 
" clip-path="url(#p700b865748)" style="fill: none; stroke: #000000; stroke-width: 1.2"/>
    <path d="M 142.500744 116.406343 
L 79.150142 124.52846 
" clip-path="url(#p700b865748)" style="fill: none; stroke: #000000; stroke-width: 1.2"/>
    <path d="M 103.074589 122.596989 
L 71.210166 129.115681 
" clip-path="url(#p700b865748)" style="fill: none; stroke: #000000; stroke-width: 1.2"/>
    <path d="M 103.074589 122.596989 
L 79.150142 124.52846 
" clip-path="url(#p700b865748)" style="fill: none; stroke: #000000; stroke-width: 1.2"/>
    <path d="M 103.074589 122.596989 
L 55.368595 112.513613 
" clip-path="url(#p700b865748)" style="fill: none; stroke: #000000; stroke-width: 1.2"/>
    <path d="M 71.210166 129.115681 
L 58.410353 117.323166 
" clip-path="url(#p700b865748)" style="fill: none; stroke: #000000; stroke-width: 1.2"/>
    <path d="M 71.210166 129.115681 
L 107.346007 131.941292 
" clip-path="url(#p700b865748)" style="fill: none; stroke: #000000; stroke-width: 1.2"/>
    <path d="M 71.210166 129.115681 
L 55.368595 112.513613 
" clip-path="url(#p700b865748)" style="fill: none; stroke: #000000; stroke-width: 1.2"/>
    <path d="M 58.410353 117.323166 
L 107.346007 131.941292 
" clip-path="url(#p700b865748)" style="fill: none; stroke: #000000; stroke-width: 1.2"/>
    <path d="M 58.410353 117.323166 
L 79.150142 124.52846 
" clip-path="url(#p700b865748)" style="fill: none; stroke: #000000; stroke-width: 1.2"/>
    <path d="M 107.346007 131.941292 
L 79.150142 124.52846 
" clip-path="url(#p700b865748)" style="fill: none; stroke: #000000; stroke-width: 1.2"/>
    <path d="M 107.346007 131.941292 
L 136.827306 149.849381 
" clip-path="url(#p700b865748)" style="fill: none; stroke: #000000; stroke-width: 1.2"/>
    <path d="M 79.150142 124.52846 
L 55.368595 112.513613 
" clip-path="url(#p700b865748)" style="fill: none; stroke: #000000; stroke-width: 1.2"/>
    <path d="M 61.157328 222.214986 
L 104.963867 208.064952 
" clip-path="url(#p700b865748)" style="fill: none; stroke: #000000; stroke-width: 1.2"/>
    <path d="M 86.028816 234.432823 
L 104.963867 208.064952 
" clip-path="url(#p700b865748)" style="fill: none; stroke: #000000; stroke-width: 1.2"/>
    <path d="M 120.871523 237.076364 
L 104.963867 208.064952 
" clip-path="url(#p700b865748)" style="fill: none; stroke: #000000; stroke-width: 1.2"/>
    <path d="M 198.769325 222.592614 
L 191.087114 192.309674 
" clip-path="url(#p700b865748)" style="fill: none; stroke: #000000; stroke-width: 1.2"/>
    <path d="M 227.36241 207.776721 
L 191.087114 192.309674 
" clip-path="url(#p700b865748)" style="fill: none; stroke: #000000; stroke-width: 1.2"/>
    <path d="M 239.831405 188.139909 
L 191.087114 192.309674 
" clip-path="url(#p700b865748)" style="fill: none; stroke: #000000; stroke-width: 1.2"/>
    <path d="M 147.512154 202.658171 
L 140.337294 180.793396 
" clip-path="url(#p700b865748)" style="fill: none; stroke: #000000; stroke-width: 1.2"/>
    <path d="M 186.568276 148.811452 
L 136.827306 149.849381 
" clip-path="url(#p700b865748)" style="fill: none; stroke: #000000; stroke-width: 1.2"/>
    <path d="M 104.963867 208.064952 
L 140.337294 180.793396 
" clip-path="url(#p700b865748)" style="fill: none; stroke: #000000; stroke-width: 1.2"/>
    <path d="M 140.337294 180.793396 
L 191.087114 192.309674 
" clip-path="url(#p700b865748)" style="fill: none; stroke: #000000; stroke-width: 1.2"/>
    <path d="M 140.337294 180.793396 
L 136.827306 149.849381 
" clip-path="url(#p700b865748)" style="fill: none; stroke: #000000; stroke-width: 1.2"/>
   </g>
   <g id="PathCollection_1">
    <defs>
     <path id="C0_0_9d53135f88" d="M 0 8.944272 
C 2.372049 8.944272 4.647264 8.001847 6.324555 6.324555 
C 8.001847 4.647264 8.944272 2.372049 8.944272 -0 
C 8.944272 -2.372049 8.001847 -4.647264 6.324555 -6.324555 
C 4.647264 -8.001847 2.372049 -8.944272 0 -8.944272 
C -2.372049 -8.944272 -4.647264 -8.001847 -6.324555 -6.324555 
C -8.001847 -4.647264 -8.944272 -2.372049 -8.944272 0 
C -8.944272 2.372049 -8.001847 4.647264 -6.324555 6.324555 
C -4.647264 8.001847 -2.372049 8.944272 0 8.944272 
z
"/>
    </defs>
    <g clip-path="url(#p700b865748)">
     <use xlink:href="#C0_0_9d53135f88" x="153.953908" y="69.027849" style="fill: #175487; stroke: #175487; stroke-width: 0.5"/>
    </g>
    <g clip-path="url(#p700b865748)">
     <use xlink:href="#C0_0_9d53135f88" x="120.236502" y="53.803636" style="fill: #175487; stroke: #175487; stroke-width: 0.5"/>
    </g>
    <g clip-path="url(#p700b865748)">
     <use xlink:href="#C0_0_9d53135f88" x="92.900741" y="54.836609" style="fill: #175487; stroke: #175487; stroke-width: 0.5"/>
    </g>
    <g clip-path="url(#p700b865748)">
     <use xlink:href="#C0_0_9d53135f88" x="139.776304" y="68.288896" style="fill: #175487; stroke: #175487; stroke-width: 0.5"/>
    </g>
    <g clip-path="url(#p700b865748)">
     <use xlink:href="#C0_0_9d53135f88" x="128.860574" y="57.511289" style="fill: #175487; stroke: #175487; stroke-width: 0.5"/>
    </g>
    <g clip-path="url(#p700b865748)">
     <use xlink:href="#C0_0_9d53135f88" x="105.21517" y="64.189879" style="fill: #175487; stroke: #175487; stroke-width: 0.5"/>
    </g>
    <g clip-path="url(#p700b865748)">
     <use xlink:href="#C0_0_9d53135f88" x="60.304885" y="65.095534" style="fill: #175487; stroke: #175487; stroke-width: 0.5"/>
    </g>
    <g clip-path="url(#p700b865748)">
     <use xlink:href="#C0_0_9d53135f88" x="80.343501" y="67.139471" style="fill: #175487; stroke: #175487; stroke-width: 0.5"/>
    </g>
    <g clip-path="url(#p700b865748)">
     <use xlink:href="#C0_0_9d53135f88" x="116.768647" y="66.22698" style="fill: #175487; stroke: #175487; stroke-width: 0.5"/>
    </g>
    <g clip-path="url(#p700b865748)">
     <use xlink:href="#C0_0_9d53135f88" x="69.51177" y="57.028364" style="fill: #175487; stroke: #175487; stroke-width: 0.5"/>
    </g>
    <g clip-path="url(#p700b865748)">
     <use xlink:href="#C0_0_9d53135f88" x="126.519047" y="83.147774" style="fill: #175487; stroke: #175487; stroke-width: 0.5"/>
    </g>
    <g clip-path="url(#p700b865748)">
     <use xlink:href="#C0_0_9d53135f88" x="86.225117" y="80.276904" style="fill: #175487; stroke: #175487; stroke-width: 0.5"/>
    </g>
    <g clip-path="url(#p700b865748)">
     <use xlink:href="#C0_0_9d53135f88" x="137.814224" y="91.430438" style="fill: #175487; stroke: #175487; stroke-width: 0.5"/>
    </g>
    <g clip-path="url(#p700b865748)">
     <use xlink:href="#C0_0_9d53135f88" x="117.025997" y="86.940843" style="fill: #175487; stroke: #175487; stroke-width: 0.5"/>
    </g>
    <g clip-path="url(#p700b865748)">
     <use xlink:href="#C0_0_9d53135f88" x="93.223706" y="87.476486" style="fill: #175487; stroke: #175487; stroke-width: 0.5"/>
    </g>
    <g clip-path="url(#p700b865748)">
     <use xlink:href="#C0_0_9d53135f88" x="140.969219" y="96.617555" style="fill: #175487; stroke: #175487; stroke-width: 0.5"/>
    </g>
    <g clip-path="url(#p700b865748)">
     <use xlink:href="#C0_0_9d53135f88" x="72.622949" y="93.895795" style="fill: #175487; stroke: #175487; stroke-width: 0.5"/>
    </g>
    <g clip-path="url(#p700b865748)">
     <use xlink:href="#C0_0_9d53135f88" x="105.803137" y="100.043441" style="fill: #175487; stroke: #175487; stroke-width: 0.5"/>
    </g>
    <g clip-path="url(#p700b865748)">
     <use xlink:href="#C0_0_9d53135f88" x="56.758696" y="92.47512" style="fill: #175487; stroke: #175487; stroke-width: 0.5"/>
    </g>
    <g clip-path="url(#p700b865748)">
     <use xlink:href="#C0_0_9d53135f88" x="83.30018" y="96.333629" style="fill: #175487; stroke: #175487; stroke-width: 0.5"/>
    </g>
    <g clip-path="url(#p700b865748)">
     <use xlink:href="#C0_0_9d53135f88" x="114.279388" y="94.709867" style="fill: #175487; stroke: #175487; stroke-width: 0.5"/>
    </g>
    <g clip-path="url(#p700b865748)">
     <use xlink:href="#C0_0_9d53135f88" x="61.03514" y="83.968206" style="fill: #175487; stroke: #175487; stroke-width: 0.5"/>
    </g>
    <g clip-path="url(#p700b865748)">
     <use xlink:href="#C0_0_9d53135f88" x="90.512037" y="116.375501" style="fill: #175487; stroke: #175487; stroke-width: 0.5"/>
    </g>
    <g clip-path="url(#p700b865748)">
     <use xlink:href="#C0_0_9d53135f88" x="121.293084" y="109.970217" style="fill: #175487; stroke: #175487; stroke-width: 0.5"/>
    </g>
    <g clip-path="url(#p700b865748)">
     <use xlink:href="#C0_0_9d53135f88" x="133.085799" y="123.913141" style="fill: #175487; stroke: #175487; stroke-width: 0.5"/>
    </g>
    <g clip-path="url(#p700b865748)">
     <use xlink:href="#C0_0_9d53135f88" x="81.5736" y="111.139619" style="fill: #175487; stroke: #175487; stroke-width: 0.5"/>
    </g>
    <g clip-path="url(#p700b865748)">
     <use xlink:href="#C0_0_9d53135f88" x="118.22474" y="122.417411" style="fill: #175487; stroke: #175487; stroke-width: 0.5"/>
    </g>
    <g clip-path="url(#p700b865748)">
     <use xlink:href="#C0_0_9d53135f88" x="142.500744" y="116.406343" style="fill: #175487; stroke: #175487; stroke-width: 0.5"/>
    </g>
    <g clip-path="url(#p700b865748)">
     <use xlink:href="#C0_0_9d53135f88" x="103.074589" y="122.596989" style="fill: #175487; stroke: #175487; stroke-width: 0.5"/>
    </g>
    <g clip-path="url(#p700b865748)">
     <use xlink:href="#C0_0_9d53135f88" x="71.210166" y="129.115681" style="fill: #175487; stroke: #175487; stroke-width: 0.5"/>
    </g>
    <g clip-path="url(#p700b865748)">
     <use xlink:href="#C0_0_9d53135f88" x="58.410353" y="117.323166" style="fill: #175487; stroke: #175487; stroke-width: 0.5"/>
    </g>
    <g clip-path="url(#p700b865748)">
     <use xlink:href="#C0_0_9d53135f88" x="107.346007" y="131.941292" style="fill: #175487; stroke: #175487; stroke-width: 0.5"/>
    </g>
    <g clip-path="url(#p700b865748)">
     <use xlink:href="#C0_0_9d53135f88" x="79.150142" y="124.52846" style="fill: #175487; stroke: #175487; stroke-width: 0.5"/>
    </g>
    <g clip-path="url(#p700b865748)">
     <use xlink:href="#C0_0_9d53135f88" x="55.368595" y="112.513613" style="fill: #175487; stroke: #175487; stroke-width: 0.5"/>
    </g>
    <g clip-path="url(#p700b865748)">
     <use xlink:href="#C0_0_9d53135f88" x="61.157328" y="222.214986" style="fill: #bfbfbf; stroke: #bfbfbf; stroke-width: 0.5"/>
    </g>
    <g clip-path="url(#p700b865748)">
     <use xlink:href="#C0_0_9d53135f88" x="86.028816" y="234.432823" style="fill: #bfbfbf; stroke: #bfbfbf; stroke-width: 0.5"/>
    </g>
    <g clip-path="url(#p700b865748)">
     <use xlink:href="#C0_0_9d53135f88" x="120.871523" y="237.076364" style="fill: #bfbfbf; stroke: #bfbfbf; stroke-width: 0.5"/>
    </g>
    <g clip-path="url(#p700b865748)">
     <use xlink:href="#C0_0_9d53135f88" x="198.769325" y="222.592614" style="fill: #bfbfbf; stroke: #bfbfbf; stroke-width: 0.5"/>
    </g>
    <g clip-path="url(#p700b865748)">
     <use xlink:href="#C0_0_9d53135f88" x="227.36241" y="207.776721" style="fill: #bfbfbf; stroke: #bfbfbf; stroke-width: 0.5"/>
    </g>
    <g clip-path="url(#p700b865748)">
     <use xlink:href="#C0_0_9d53135f88" x="239.831405" y="188.139909" style="fill: #bfbfbf; stroke: #bfbfbf; stroke-width: 0.5"/>
    </g>
    <g clip-path="url(#p700b865748)">
     <use xlink:href="#C0_0_9d53135f88" x="147.512154" y="202.658171" style="fill: #bfbfbf; stroke: #bfbfbf; stroke-width: 0.5"/>
    </g>
    <g clip-path="url(#p700b865748)">
     <use xlink:href="#C0_0_9d53135f88" x="186.568276" y="148.811452" style="fill: #bfbfbf; stroke: #bfbfbf; stroke-width: 0.5"/>
    </g>
    <g clip-path="url(#p700b865748)">
     <use xlink:href="#C0_0_9d53135f88" x="104.963867" y="208.064952" style="fill: #666666; stroke: #666666; stroke-width: 0.5"/>
    </g>
    <g clip-path="url(#p700b865748)">
     <use xlink:href="#C0_0_9d53135f88" x="140.337294" y="180.793396" style="fill: #666666; stroke: #666666; stroke-width: 0.5"/>
    </g>
    <g clip-path="url(#p700b865748)">
     <use xlink:href="#C0_0_9d53135f88" x="191.087114" y="192.309674" style="fill: #666666; stroke: #666666; stroke-width: 0.5"/>
    </g>
    <g clip-path="url(#p700b865748)">
     <use xlink:href="#C0_0_9d53135f88" x="136.827306" y="149.849381" style="fill: #b2b200; stroke: #b2b200; stroke-width: 0.5"/>
    </g>
   </g>
   <g id="text_1">
    <!-- C3H8Ir48S -->
    <g transform="translate(119.598074 4.401074) scale(0.1 -0.1)">
     <defs>
      <path id="DejaVuSans-43" d="M 4122 4306 
L 4122 3641 
Q 3803 3938 3442 4084 
Q 3081 4231 2675 4231 
Q 1875 4231 1450 3742 
Q 1025 3253 1025 2328 
Q 1025 1406 1450 917 
Q 1875 428 2675 428 
Q 3081 428 3442 575 
Q 3803 722 4122 1019 
L 4122 359 
Q 3791 134 3420 21 
Q 3050 -91 2638 -91 
Q 1578 -91 968 557 
Q 359 1206 359 2328 
Q 359 3453 968 4101 
Q 1578 4750 2638 4750 
Q 3056 4750 3426 4639 
Q 3797 4528 4122 4306 
z
" transform="scale(0.015625)"/>
      <path id="DejaVuSans-33" d="M 2597 2516 
Q 3050 2419 3304 2112 
Q 3559 1806 3559 1356 
Q 3559 666 3084 287 
Q 2609 -91 1734 -91 
Q 1441 -91 1130 -33 
Q 819 25 488 141 
L 488 750 
Q 750 597 1062 519 
Q 1375 441 1716 441 
Q 2309 441 2620 675 
Q 2931 909 2931 1356 
Q 2931 1769 2642 2001 
Q 2353 2234 1838 2234 
L 1294 2234 
L 1294 2753 
L 1863 2753 
Q 2328 2753 2575 2939 
Q 2822 3125 2822 3475 
Q 2822 3834 2567 4026 
Q 2313 4219 1838 4219 
Q 1578 4219 1281 4162 
Q 984 4106 628 3988 
L 628 4550 
Q 988 4650 1302 4700 
Q 1616 4750 1894 4750 
Q 2613 4750 3031 4423 
Q 3450 4097 3450 3541 
Q 3450 3153 3228 2886 
Q 3006 2619 2597 2516 
z
" transform="scale(0.015625)"/>
      <path id="DejaVuSans-48" d="M 628 4666 
L 1259 4666 
L 1259 2753 
L 3553 2753 
L 3553 4666 
L 4184 4666 
L 4184 0 
L 3553 0 
L 3553 2222 
L 1259 2222 
L 1259 0 
L 628 0 
L 628 4666 
z
" transform="scale(0.015625)"/>
      <path id="DejaVuSans-38" d="M 2034 2216 
Q 1584 2216 1326 1975 
Q 1069 1734 1069 1313 
Q 1069 891 1326 650 
Q 1584 409 2034 409 
Q 2484 409 2743 651 
Q 3003 894 3003 1313 
Q 3003 1734 2745 1975 
Q 2488 2216 2034 2216 
z
M 1403 2484 
Q 997 2584 770 2862 
Q 544 3141 544 3541 
Q 544 4100 942 4425 
Q 1341 4750 2034 4750 
Q 2731 4750 3128 4425 
Q 3525 4100 3525 3541 
Q 3525 3141 3298 2862 
Q 3072 2584 2669 2484 
Q 3125 2378 3379 2068 
Q 3634 1759 3634 1313 
Q 3634 634 3220 271 
Q 2806 -91 2034 -91 
Q 1263 -91 848 271 
Q 434 634 434 1313 
Q 434 1759 690 2068 
Q 947 2378 1403 2484 
z
M 1172 3481 
Q 1172 3119 1398 2916 
Q 1625 2713 2034 2713 
Q 2441 2713 2670 2916 
Q 2900 3119 2900 3481 
Q 2900 3844 2670 4047 
Q 2441 4250 2034 4250 
Q 1625 4250 1398 4047 
Q 1172 3844 1172 3481 
z
" transform="scale(0.015625)"/>
      <path id="DejaVuSans-49" d="M 628 4666 
L 1259 4666 
L 1259 0 
L 628 0 
L 628 4666 
z
" transform="scale(0.015625)"/>
      <path id="DejaVuSans-72" d="M 2631 2963 
Q 2534 3019 2420 3045 
Q 2306 3072 2169 3072 
Q 1681 3072 1420 2755 
Q 1159 2438 1159 1844 
L 1159 0 
L 581 0 
L 581 3500 
L 1159 3500 
L 1159 2956 
Q 1341 3275 1631 3429 
Q 1922 3584 2338 3584 
Q 2397 3584 2469 3576 
Q 2541 3569 2628 3553 
L 2631 2963 
z
" transform="scale(0.015625)"/>
      <path id="DejaVuSans-34" d="M 2419 4116 
L 825 1625 
L 2419 1625 
L 2419 4116 
z
M 2253 4666 
L 3047 4666 
L 3047 1625 
L 3713 1625 
L 3713 1100 
L 3047 1100 
L 3047 0 
L 2419 0 
L 2419 1100 
L 313 1100 
L 313 1709 
L 2253 4666 
z
" transform="scale(0.015625)"/>
      <path id="DejaVuSans-53" d="M 3425 4513 
L 3425 3897 
Q 3066 4069 2747 4153 
Q 2428 4238 2131 4238 
Q 1616 4238 1336 4038 
Q 1056 3838 1056 3469 
Q 1056 3159 1242 3001 
Q 1428 2844 1947 2747 
L 2328 2669 
Q 3034 2534 3370 2195 
Q 3706 1856 3706 1288 
Q 3706 609 3251 259 
Q 2797 -91 1919 -91 
Q 1588 -91 1214 -16 
Q 841 59 441 206 
L 441 856 
Q 825 641 1194 531 
Q 1563 422 1919 422 
Q 2459 422 2753 634 
Q 3047 847 3047 1241 
Q 3047 1584 2836 1778 
Q 2625 1972 2144 2069 
L 1759 2144 
Q 1053 2284 737 2584 
Q 422 2884 422 3419 
Q 422 4038 858 4394 
Q 1294 4750 2059 4750 
Q 2388 4750 2728 4690 
Q 3069 4631 3425 4513 
z
" transform="scale(0.015625)"/>
     </defs>
     <use xlink:href="#DejaVuSans-43"/>
     <use xlink:href="#DejaVuSans-33" transform="translate(69.824219 0)"/>
     <use xlink:href="#DejaVuSans-48" transform="translate(133.447266 0)"/>
     <use xlink:href="#DejaVuSans-38" transform="translate(208.642578 0)"/>
     <use xlink:href="#DejaVuSans-49" transform="translate(272.265625 0)"/>
     <use xlink:href="#DejaVuSans-72" transform="translate(301.757812 0)"/>
     <use xlink:href="#DejaVuSans-34" transform="translate(342.871094 0)"/>
     <use xlink:href="#DejaVuSans-38" transform="translate(406.494141 0)"/>
     <use xlink:href="#DejaVuSans-53" transform="translate(470.117188 0)"/>
    </g>
    <!-- Error: -7.34 eV -->
    <g transform="translate(119.598074 15.598887) scale(0.1 -0.1)">
     <defs>
      <path id="DejaVuSans-45" d="M 628 4666 
L 3578 4666 
L 3578 4134 
L 1259 4134 
L 1259 2753 
L 3481 2753 
L 3481 2222 
L 1259 2222 
L 1259 531 
L 3634 531 
L 3634 0 
L 628 0 
L 628 4666 
z
" transform="scale(0.015625)"/>
      <path id="DejaVuSans-6f" d="M 1959 3097 
Q 1497 3097 1228 2736 
Q 959 2375 959 1747 
Q 959 1119 1226 758 
Q 1494 397 1959 397 
Q 2419 397 2687 759 
Q 2956 1122 2956 1747 
Q 2956 2369 2687 2733 
Q 2419 3097 1959 3097 
z
M 1959 3584 
Q 2709 3584 3137 3096 
Q 3566 2609 3566 1747 
Q 3566 888 3137 398 
Q 2709 -91 1959 -91 
Q 1206 -91 779 398 
Q 353 888 353 1747 
Q 353 2609 779 3096 
Q 1206 3584 1959 3584 
z
" transform="scale(0.015625)"/>
      <path id="DejaVuSans-3a" d="M 750 794 
L 1409 794 
L 1409 0 
L 750 0 
L 750 794 
z
M 750 3309 
L 1409 3309 
L 1409 2516 
L 750 2516 
L 750 3309 
z
" transform="scale(0.015625)"/>
      <path id="DejaVuSans-20" transform="scale(0.015625)"/>
      <path id="DejaVuSans-2d" d="M 313 2009 
L 1997 2009 
L 1997 1497 
L 313 1497 
L 313 2009 
z
" transform="scale(0.015625)"/>
      <path id="DejaVuSans-37" d="M 525 4666 
L 3525 4666 
L 3525 4397 
L 1831 0 
L 1172 0 
L 2766 4134 
L 525 4134 
L 525 4666 
z
" transform="scale(0.015625)"/>
      <path id="DejaVuSans-2e" d="M 684 794 
L 1344 794 
L 1344 0 
L 684 0 
L 684 794 
z
" transform="scale(0.015625)"/>
      <path id="DejaVuSans-65" d="M 3597 1894 
L 3597 1613 
L 953 1613 
Q 991 1019 1311 708 
Q 1631 397 2203 397 
Q 2534 397 2845 478 
Q 3156 559 3463 722 
L 3463 178 
Q 3153 47 2828 -22 
Q 2503 -91 2169 -91 
Q 1331 -91 842 396 
Q 353 884 353 1716 
Q 353 2575 817 3079 
Q 1281 3584 2069 3584 
Q 2775 3584 3186 3129 
Q 3597 2675 3597 1894 
z
M 3022 2063 
Q 3016 2534 2758 2815 
Q 2500 3097 2075 3097 
Q 1594 3097 1305 2825 
Q 1016 2553 972 2059 
L 3022 2063 
z
" transform="scale(0.015625)"/>
      <path id="DejaVuSans-56" d="M 1831 0 
L 50 4666 
L 709 4666 
L 2188 738 
L 3669 4666 
L 4325 4666 
L 2547 0 
L 1831 0 
z
" transform="scale(0.015625)"/>
     </defs>
     <use xlink:href="#DejaVuSans-45"/>
     <use xlink:href="#DejaVuSans-72" transform="translate(63.183594 0)"/>
     <use xlink:href="#DejaVuSans-72" transform="translate(102.546875 0)"/>
     <use xlink:href="#DejaVuSans-6f" transform="translate(141.410156 0)"/>
     <use xlink:href="#DejaVuSans-72" transform="translate(202.591797 0)"/>
     <use xlink:href="#DejaVuSans-3a" transform="translate(241.955078 0)"/>
     <use xlink:href="#DejaVuSans-20" transform="translate(275.646484 0)"/>
     <use xlink:href="#DejaVuSans-2d" transform="translate(307.433594 0)"/>
     <use xlink:href="#DejaVuSans-37" transform="translate(343.517578 0)"/>
     <use xlink:href="#DejaVuSans-2e" transform="translate(407.140625 0)"/>
     <use xlink:href="#DejaVuSans-33" transform="translate(438.927734 0)"/>
     <use xlink:href="#DejaVuSans-34" transform="translate(502.550781 0)"/>
     <use xlink:href="#DejaVuSans-20" transform="translate(566.173828 0)"/>
     <use xlink:href="#DejaVuSans-65" transform="translate(597.960938 0)"/>
     <use xlink:href="#DejaVuSans-56" transform="translate(659.484375 0)"/>
    </g>
   </g>
  </g>
 </g>
 <defs>
  <clipPath id="p700b865748">
   <rect x="36" y="34.56" width="223.2" height="221.76"/>
  </clipPath>
 </defs>
</svg>
