<?xml version="1.0" encoding="utf-8" standalone="no"?>
<!DOCTYPE svg PUBLIC "-//W3C//DTD SVG 1.1//EN"
  "http://www.w3.org/Graphics/SVG/1.1/DTD/svg11.dtd">
<svg xmlns:xlink="http://www.w3.org/1999/xlink" width="288pt" height="288pt" viewBox="0 0 288 288" xmlns="http://www.w3.org/2000/svg" version="1.1">
 <metadata>
  <rdf:RDF xmlns:dc="http://purl.org/dc/elements/1.1/" xmlns:cc="http://creativecommons.org/ns#" xmlns:rdf="http://www.w3.org/1999/02/22-rdf-syntax-ns#">
   <cc:Work>
    <dc:type rdf:resource="http://purl.org/dc/dcmitype/StillImage"/>
    <dc:date>2025-06-30T12:10:37.750244</dc:date>
    <dc:format>image/svg+xml</dc:format>
    <dc:creator>
     <cc:Agent>
      <dc:title>Matplotlib v3.10.1, https://matplotlib.org/</dc:title>
     </cc:Agent>
    </dc:creator>
   </cc:Work>
  </rdf:RDF>
 </metadata>
 <defs>
  <style type="text/css">*{stroke-linejoin: round; stroke-linecap: butt}</style>
 </defs>
 <g id="figure_1">
  <g id="patch_1">
   <path d="M 0 288 
L 288 288 
L 288 0 
L 0 0 
z
" style="fill: #ffffff"/>
  </g>
  <g id="axes_1">
   <g id="LineCollection_1">
    <path d="M 61.244814 64.176062 
L 84.052455 64.880406 
" clip-path="url(#p42c88aff83)" style="fill: none; stroke: #000000; stroke-width: 1.2"/>
    <path d="M 61.244814 64.176062 
L 58.158913 83.98917 
" clip-path="url(#p42c88aff83)" style="fill: none; stroke: #000000; stroke-width: 1.2"/>
    <path d="M 61.244814 64.176062 
L 138.385471 53.803636 
" clip-path="url(#p42c88aff83)" style="fill: none; stroke: #000000; stroke-width: 1.2"/>
    <path d="M 61.244814 64.176062 
L 108.438604 60.359808 
" clip-path="url(#p42c88aff83)" style="fill: none; stroke: #000000; stroke-width: 1.2"/>
    <path d="M 61.244814 64.176062 
L 124.059208 59.711368 
" clip-path="url(#p42c88aff83)" style="fill: none; stroke: #000000; stroke-width: 1.2"/>
    <path d="M 61.244814 64.176062 
L 94.630663 74.347984 
" clip-path="url(#p42c88aff83)" style="fill: none; stroke: #000000; stroke-width: 1.2"/>
    <path d="M 61.244814 64.176062 
L 99.129659 95.645466 
" clip-path="url(#p42c88aff83)" style="fill: none; stroke: #000000; stroke-width: 1.2"/>
    <path d="M 61.244814 64.176062 
L 73.858119 101.553377 
" clip-path="url(#p42c88aff83)" style="fill: none; stroke: #000000; stroke-width: 1.2"/>
    <path d="M 61.244814 64.176062 
L 55.368595 114.574254 
" clip-path="url(#p42c88aff83)" style="fill: none; stroke: #000000; stroke-width: 1.2"/>
    <path d="M 84.052455 64.880406 
L 58.158913 83.98917 
" clip-path="url(#p42c88aff83)" style="fill: none; stroke: #000000; stroke-width: 1.2"/>
    <path d="M 84.052455 64.880406 
L 138.385471 53.803636 
" clip-path="url(#p42c88aff83)" style="fill: none; stroke: #000000; stroke-width: 1.2"/>
    <path d="M 84.052455 64.880406 
L 142.057926 73.453566 
" clip-path="url(#p42c88aff83)" style="fill: none; stroke: #000000; stroke-width: 1.2"/>
    <path d="M 84.052455 64.880406 
L 124.059208 59.711368 
" clip-path="url(#p42c88aff83)" style="fill: none; stroke: #000000; stroke-width: 1.2"/>
    <path d="M 84.052455 64.880406 
L 123.140407 81.395625 
" clip-path="url(#p42c88aff83)" style="fill: none; stroke: #000000; stroke-width: 1.2"/>
    <path d="M 84.052455 64.880406 
L 131.392096 104.487712 
" clip-path="url(#p42c88aff83)" style="fill: none; stroke: #000000; stroke-width: 1.2"/>
    <path d="M 84.052455 64.880406 
L 73.858119 101.553377 
" clip-path="url(#p42c88aff83)" style="fill: none; stroke: #000000; stroke-width: 1.2"/>
    <path d="M 84.052455 64.880406 
L 77.446036 121.478898 
" clip-path="url(#p42c88aff83)" style="fill: none; stroke: #000000; stroke-width: 1.2"/>
    <path d="M 58.158913 83.98917 
L 142.057926 73.453566 
" clip-path="url(#p42c88aff83)" style="fill: none; stroke: #000000; stroke-width: 1.2"/>
    <path d="M 58.158913 83.98917 
L 108.438604 60.359808 
" clip-path="url(#p42c88aff83)" style="fill: none; stroke: #000000; stroke-width: 1.2"/>
    <path d="M 58.158913 83.98917 
L 123.140407 81.395625 
" clip-path="url(#p42c88aff83)" style="fill: none; stroke: #000000; stroke-width: 1.2"/>
    <path d="M 58.158913 83.98917 
L 94.630663 74.347984 
" clip-path="url(#p42c88aff83)" style="fill: none; stroke: #000000; stroke-width: 1.2"/>
    <path d="M 58.158913 83.98917 
L 102.20435 116.67492 
" clip-path="url(#p42c88aff83)" style="fill: none; stroke: #000000; stroke-width: 1.2"/>
    <path d="M 58.158913 83.98917 
L 77.446036 121.478898 
" clip-path="url(#p42c88aff83)" style="fill: none; stroke: #000000; stroke-width: 1.2"/>
    <path d="M 58.158913 83.98917 
L 55.368595 114.574254 
" clip-path="url(#p42c88aff83)" style="fill: none; stroke: #000000; stroke-width: 1.2"/>
    <path d="M 138.385471 53.803636 
L 142.057926 73.453566 
" clip-path="url(#p42c88aff83)" style="fill: none; stroke: #000000; stroke-width: 1.2"/>
    <path d="M 138.385471 53.803636 
L 108.438604 60.359808 
" clip-path="url(#p42c88aff83)" style="fill: none; stroke: #000000; stroke-width: 1.2"/>
    <path d="M 138.385471 53.803636 
L 165.268576 61.114397 
" clip-path="url(#p42c88aff83)" style="fill: none; stroke: #000000; stroke-width: 1.2"/>
    <path d="M 138.385471 53.803636 
L 190.212111 74.651271 
" clip-path="url(#p42c88aff83)" style="fill: none; stroke: #000000; stroke-width: 1.2"/>
    <path d="M 138.385471 53.803636 
L 99.129659 95.645466 
" clip-path="url(#p42c88aff83)" style="fill: none; stroke: #000000; stroke-width: 1.2"/>
    <path d="M 138.385471 53.803636 
L 131.392096 104.487712 
" clip-path="url(#p42c88aff83)" style="fill: none; stroke: #000000; stroke-width: 1.2"/>
    <path d="M 138.385471 53.803636 
L 181.287754 101.810412 
" clip-path="url(#p42c88aff83)" style="fill: none; stroke: #000000; stroke-width: 1.2"/>
    <path d="M 142.057926 73.453566 
L 108.438604 60.359808 
" clip-path="url(#p42c88aff83)" style="fill: none; stroke: #000000; stroke-width: 1.2"/>
    <path d="M 142.057926 73.453566 
L 190.212111 74.651271 
" clip-path="url(#p42c88aff83)" style="fill: none; stroke: #000000; stroke-width: 1.2"/>
    <path d="M 142.057926 73.453566 
L 170.654738 80.129026 
" clip-path="url(#p42c88aff83)" style="fill: none; stroke: #000000; stroke-width: 1.2"/>
    <path d="M 142.057926 73.453566 
L 131.392096 104.487712 
" clip-path="url(#p42c88aff83)" style="fill: none; stroke: #000000; stroke-width: 1.2"/>
    <path d="M 142.057926 73.453566 
L 102.20435 116.67492 
" clip-path="url(#p42c88aff83)" style="fill: none; stroke: #000000; stroke-width: 1.2"/>
    <path d="M 142.057926 73.453566 
L 182.227561 119.30432 
" clip-path="url(#p42c88aff83)" style="fill: none; stroke: #000000; stroke-width: 1.2"/>
    <path d="M 108.438604 60.359808 
L 165.268576 61.114397 
" clip-path="url(#p42c88aff83)" style="fill: none; stroke: #000000; stroke-width: 1.2"/>
    <path d="M 108.438604 60.359808 
L 170.654738 80.129026 
" clip-path="url(#p42c88aff83)" style="fill: none; stroke: #000000; stroke-width: 1.2"/>
    <path d="M 108.438604 60.359808 
L 99.129659 95.645466 
" clip-path="url(#p42c88aff83)" style="fill: none; stroke: #000000; stroke-width: 1.2"/>
    <path d="M 108.438604 60.359808 
L 102.20435 116.67492 
" clip-path="url(#p42c88aff83)" style="fill: none; stroke: #000000; stroke-width: 1.2"/>
    <path d="M 108.438604 60.359808 
L 157.07407 106.828101 
" clip-path="url(#p42c88aff83)" style="fill: none; stroke: #000000; stroke-width: 1.2"/>
    <path d="M 165.268576 61.114397 
L 190.212111 74.651271 
" clip-path="url(#p42c88aff83)" style="fill: none; stroke: #000000; stroke-width: 1.2"/>
    <path d="M 165.268576 61.114397 
L 170.654738 80.129026 
" clip-path="url(#p42c88aff83)" style="fill: none; stroke: #000000; stroke-width: 1.2"/>
    <path d="M 165.268576 61.114397 
L 124.059208 59.711368 
" clip-path="url(#p42c88aff83)" style="fill: none; stroke: #000000; stroke-width: 1.2"/>
    <path d="M 165.268576 61.114397 
L 94.630663 74.347984 
" clip-path="url(#p42c88aff83)" style="fill: none; stroke: #000000; stroke-width: 1.2"/>
    <path d="M 165.268576 61.114397 
L 181.287754 101.810412 
" clip-path="url(#p42c88aff83)" style="fill: none; stroke: #000000; stroke-width: 1.2"/>
    <path d="M 165.268576 61.114397 
L 157.07407 106.828101 
" clip-path="url(#p42c88aff83)" style="fill: none; stroke: #000000; stroke-width: 1.2"/>
    <path d="M 165.268576 61.114397 
L 119.578384 104.345312 
" clip-path="url(#p42c88aff83)" style="fill: none; stroke: #000000; stroke-width: 1.2"/>
    <path d="M 190.212111 74.651271 
L 170.654738 80.129026 
" clip-path="url(#p42c88aff83)" style="fill: none; stroke: #000000; stroke-width: 1.2"/>
    <path d="M 190.212111 74.651271 
L 124.059208 59.711368 
" clip-path="url(#p42c88aff83)" style="fill: none; stroke: #000000; stroke-width: 1.2"/>
    <path d="M 190.212111 74.651271 
L 123.140407 81.395625 
" clip-path="url(#p42c88aff83)" style="fill: none; stroke: #000000; stroke-width: 1.2"/>
    <path d="M 190.212111 74.651271 
L 181.287754 101.810412 
" clip-path="url(#p42c88aff83)" style="fill: none; stroke: #000000; stroke-width: 1.2"/>
    <path d="M 190.212111 74.651271 
L 182.227561 119.30432 
" clip-path="url(#p42c88aff83)" style="fill: none; stroke: #000000; stroke-width: 1.2"/>
    <path d="M 190.212111 74.651271 
L 150.349262 116.775083 
" clip-path="url(#p42c88aff83)" style="fill: none; stroke: #000000; stroke-width: 1.2"/>
    <path d="M 170.654738 80.129026 
L 123.140407 81.395625 
" clip-path="url(#p42c88aff83)" style="fill: none; stroke: #000000; stroke-width: 1.2"/>
    <path d="M 170.654738 80.129026 
L 94.630663 74.347984 
" clip-path="url(#p42c88aff83)" style="fill: none; stroke: #000000; stroke-width: 1.2"/>
    <path d="M 170.654738 80.129026 
L 182.227561 119.30432 
" clip-path="url(#p42c88aff83)" style="fill: none; stroke: #000000; stroke-width: 1.2"/>
    <path d="M 170.654738 80.129026 
L 157.07407 106.828101 
" clip-path="url(#p42c88aff83)" style="fill: none; stroke: #000000; stroke-width: 1.2"/>
    <path d="M 170.654738 80.129026 
L 123.498851 125.752764 
" clip-path="url(#p42c88aff83)" style="fill: none; stroke: #000000; stroke-width: 1.2"/>
    <path d="M 124.059208 59.711368 
L 123.140407 81.395625 
" clip-path="url(#p42c88aff83)" style="fill: none; stroke: #000000; stroke-width: 1.2"/>
    <path d="M 124.059208 59.711368 
L 94.630663 74.347984 
" clip-path="url(#p42c88aff83)" style="fill: none; stroke: #000000; stroke-width: 1.2"/>
    <path d="M 124.059208 59.711368 
L 119.578384 104.345312 
" clip-path="url(#p42c88aff83)" style="fill: none; stroke: #000000; stroke-width: 1.2"/>
    <path d="M 124.059208 59.711368 
L 150.349262 116.775083 
" clip-path="url(#p42c88aff83)" style="fill: none; stroke: #000000; stroke-width: 1.2"/>
    <path d="M 124.059208 59.711368 
L 73.858119 101.553377 
" clip-path="url(#p42c88aff83)" style="fill: none; stroke: #000000; stroke-width: 1.2"/>
    <path d="M 123.140407 81.395625 
L 94.630663 74.347984 
" clip-path="url(#p42c88aff83)" style="fill: none; stroke: #000000; stroke-width: 1.2"/>
    <path d="M 123.140407 81.395625 
L 150.349262 116.775083 
" clip-path="url(#p42c88aff83)" style="fill: none; stroke: #000000; stroke-width: 1.2"/>
    <path d="M 123.140407 81.395625 
L 123.498851 125.752764 
" clip-path="url(#p42c88aff83)" style="fill: none; stroke: #000000; stroke-width: 1.2"/>
    <path d="M 123.140407 81.395625 
L 77.446036 121.478898 
" clip-path="url(#p42c88aff83)" style="fill: none; stroke: #000000; stroke-width: 1.2"/>
    <path d="M 94.630663 74.347984 
L 119.578384 104.345312 
" clip-path="url(#p42c88aff83)" style="fill: none; stroke: #000000; stroke-width: 1.2"/>
    <path d="M 94.630663 74.347984 
L 123.498851 125.752764 
" clip-path="url(#p42c88aff83)" style="fill: none; stroke: #000000; stroke-width: 1.2"/>
    <path d="M 94.630663 74.347984 
L 55.368595 114.574254 
" clip-path="url(#p42c88aff83)" style="fill: none; stroke: #000000; stroke-width: 1.2"/>
    <path d="M 99.129659 95.645466 
L 131.392096 104.487712 
" clip-path="url(#p42c88aff83)" style="fill: none; stroke: #000000; stroke-width: 1.2"/>
    <path d="M 99.129659 95.645466 
L 102.20435 116.67492 
" clip-path="url(#p42c88aff83)" style="fill: none; stroke: #000000; stroke-width: 1.2"/>
    <path d="M 99.129659 95.645466 
L 181.287754 101.810412 
" clip-path="url(#p42c88aff83)" style="fill: none; stroke: #000000; stroke-width: 1.2"/>
    <path d="M 99.129659 95.645466 
L 157.07407 106.828101 
" clip-path="url(#p42c88aff83)" style="fill: none; stroke: #000000; stroke-width: 1.2"/>
    <path d="M 99.129659 95.645466 
L 73.858119 101.553377 
" clip-path="url(#p42c88aff83)" style="fill: none; stroke: #000000; stroke-width: 1.2"/>
    <path d="M 99.129659 95.645466 
L 55.368595 114.574254 
" clip-path="url(#p42c88aff83)" style="fill: none; stroke: #000000; stroke-width: 1.2"/>
    <path d="M 99.129659 95.645466 
L 56.447846 138.697337 
" clip-path="url(#p42c88aff83)" style="fill: none; stroke: #000000; stroke-width: 1.2"/>
    <path d="M 99.129659 95.645466 
L 138.834337 137.824789 
" clip-path="url(#p42c88aff83)" style="fill: none; stroke: #000000; stroke-width: 1.2"/>
    <path d="M 99.129659 95.645466 
L 104.64641 147.829784 
" clip-path="url(#p42c88aff83)" style="fill: none; stroke: #000000; stroke-width: 1.2"/>
    <path d="M 131.392096 104.487712 
L 102.20435 116.67492 
" clip-path="url(#p42c88aff83)" style="fill: none; stroke: #000000; stroke-width: 1.2"/>
    <path d="M 131.392096 104.487712 
L 181.287754 101.810412 
" clip-path="url(#p42c88aff83)" style="fill: none; stroke: #000000; stroke-width: 1.2"/>
    <path d="M 131.392096 104.487712 
L 182.227561 119.30432 
" clip-path="url(#p42c88aff83)" style="fill: none; stroke: #000000; stroke-width: 1.2"/>
    <path d="M 131.392096 104.487712 
L 73.858119 101.553377 
" clip-path="url(#p42c88aff83)" style="fill: none; stroke: #000000; stroke-width: 1.2"/>
    <path d="M 131.392096 104.487712 
L 77.446036 121.478898 
" clip-path="url(#p42c88aff83)" style="fill: none; stroke: #000000; stroke-width: 1.2"/>
    <path d="M 131.392096 104.487712 
L 81.427315 149.888952 
" clip-path="url(#p42c88aff83)" style="fill: none; stroke: #000000; stroke-width: 1.2"/>
    <path d="M 131.392096 104.487712 
L 138.834337 137.824789 
" clip-path="url(#p42c88aff83)" style="fill: none; stroke: #000000; stroke-width: 1.2"/>
    <path d="M 131.392096 104.487712 
L 139.111201 159.857829 
" clip-path="url(#p42c88aff83)" style="fill: none; stroke: #000000; stroke-width: 1.2"/>
    <path d="M 102.20435 116.67492 
L 182.227561 119.30432 
" clip-path="url(#p42c88aff83)" style="fill: none; stroke: #000000; stroke-width: 1.2"/>
    <path d="M 102.20435 116.67492 
L 157.07407 106.828101 
" clip-path="url(#p42c88aff83)" style="fill: none; stroke: #000000; stroke-width: 1.2"/>
    <path d="M 102.20435 116.67492 
L 77.446036 121.478898 
" clip-path="url(#p42c88aff83)" style="fill: none; stroke: #000000; stroke-width: 1.2"/>
    <path d="M 102.20435 116.67492 
L 55.368595 114.574254 
" clip-path="url(#p42c88aff83)" style="fill: none; stroke: #000000; stroke-width: 1.2"/>
    <path d="M 102.20435 116.67492 
L 64.322602 159.69145 
" clip-path="url(#p42c88aff83)" style="fill: none; stroke: #000000; stroke-width: 1.2"/>
    <path d="M 102.20435 116.67492 
L 139.111201 159.857829 
" clip-path="url(#p42c88aff83)" style="fill: none; stroke: #000000; stroke-width: 1.2"/>
    <path d="M 102.20435 116.67492 
L 104.64641 147.829784 
" clip-path="url(#p42c88aff83)" style="fill: none; stroke: #000000; stroke-width: 1.2"/>
    <path d="M 181.287754 101.810412 
L 182.227561 119.30432 
" clip-path="url(#p42c88aff83)" style="fill: none; stroke: #000000; stroke-width: 1.2"/>
    <path d="M 181.287754 101.810412 
L 157.07407 106.828101 
" clip-path="url(#p42c88aff83)" style="fill: none; stroke: #000000; stroke-width: 1.2"/>
    <path d="M 181.287754 101.810412 
L 119.578384 104.345312 
" clip-path="url(#p42c88aff83)" style="fill: none; stroke: #000000; stroke-width: 1.2"/>
    <path d="M 181.287754 101.810412 
L 150.349262 116.775083 
" clip-path="url(#p42c88aff83)" style="fill: none; stroke: #000000; stroke-width: 1.2"/>
    <path d="M 181.287754 101.810412 
L 138.834337 137.824789 
" clip-path="url(#p42c88aff83)" style="fill: none; stroke: #000000; stroke-width: 1.2"/>
    <path d="M 181.287754 101.810412 
L 171.487954 137.770575 
" clip-path="url(#p42c88aff83)" style="fill: none; stroke: #000000; stroke-width: 1.2"/>
    <path d="M 181.287754 101.810412 
L 185.089865 152.678759 
" clip-path="url(#p42c88aff83)" style="fill: none; stroke: #000000; stroke-width: 1.2"/>
    <path d="M 182.227561 119.30432 
L 157.07407 106.828101 
" clip-path="url(#p42c88aff83)" style="fill: none; stroke: #000000; stroke-width: 1.2"/>
    <path d="M 182.227561 119.30432 
L 150.349262 116.775083 
" clip-path="url(#p42c88aff83)" style="fill: none; stroke: #000000; stroke-width: 1.2"/>
    <path d="M 182.227561 119.30432 
L 123.498851 125.752764 
" clip-path="url(#p42c88aff83)" style="fill: none; stroke: #000000; stroke-width: 1.2"/>
    <path d="M 182.227561 119.30432 
L 139.111201 159.857829 
" clip-path="url(#p42c88aff83)" style="fill: none; stroke: #000000; stroke-width: 1.2"/>
    <path d="M 182.227561 119.30432 
L 185.089865 152.678759 
" clip-path="url(#p42c88aff83)" style="fill: none; stroke: #000000; stroke-width: 1.2"/>
    <path d="M 182.227561 119.30432 
L 162.099954 161.158174 
" clip-path="url(#p42c88aff83)" style="fill: none; stroke: #000000; stroke-width: 1.2"/>
    <path d="M 157.07407 106.828101 
L 119.578384 104.345312 
" clip-path="url(#p42c88aff83)" style="fill: none; stroke: #000000; stroke-width: 1.2"/>
    <path d="M 157.07407 106.828101 
L 123.498851 125.752764 
" clip-path="url(#p42c88aff83)" style="fill: none; stroke: #000000; stroke-width: 1.2"/>
    <path d="M 157.07407 106.828101 
L 104.64641 147.829784 
" clip-path="url(#p42c88aff83)" style="fill: none; stroke: #000000; stroke-width: 1.2"/>
    <path d="M 157.07407 106.828101 
L 171.487954 137.770575 
" clip-path="url(#p42c88aff83)" style="fill: none; stroke: #000000; stroke-width: 1.2"/>
    <path d="M 157.07407 106.828101 
L 162.099954 161.158174 
" clip-path="url(#p42c88aff83)" style="fill: none; stroke: #000000; stroke-width: 1.2"/>
    <path d="M 119.578384 104.345312 
L 150.349262 116.775083 
" clip-path="url(#p42c88aff83)" style="fill: none; stroke: #000000; stroke-width: 1.2"/>
    <path d="M 119.578384 104.345312 
L 123.498851 125.752764 
" clip-path="url(#p42c88aff83)" style="fill: none; stroke: #000000; stroke-width: 1.2"/>
    <path d="M 119.578384 104.345312 
L 73.858119 101.553377 
" clip-path="url(#p42c88aff83)" style="fill: none; stroke: #000000; stroke-width: 1.2"/>
    <path d="M 119.578384 104.345312 
L 55.368595 114.574254 
" clip-path="url(#p42c88aff83)" style="fill: none; stroke: #000000; stroke-width: 1.2"/>
    <path d="M 119.578384 104.345312 
L 171.487954 137.770575 
" clip-path="url(#p42c88aff83)" style="fill: none; stroke: #000000; stroke-width: 1.2"/>
    <path d="M 119.578384 104.345312 
L 120.09467 146.214703 
" clip-path="url(#p42c88aff83)" style="fill: none; stroke: #000000; stroke-width: 1.2"/>
    <path d="M 119.578384 104.345312 
L 97.973215 163.026105 
" clip-path="url(#p42c88aff83)" style="fill: none; stroke: #000000; stroke-width: 1.2"/>
    <path d="M 150.349262 116.775083 
L 123.498851 125.752764 
" clip-path="url(#p42c88aff83)" style="fill: none; stroke: #000000; stroke-width: 1.2"/>
    <path d="M 150.349262 116.775083 
L 73.858119 101.553377 
" clip-path="url(#p42c88aff83)" style="fill: none; stroke: #000000; stroke-width: 1.2"/>
    <path d="M 150.349262 116.775083 
L 77.446036 121.478898 
" clip-path="url(#p42c88aff83)" style="fill: none; stroke: #000000; stroke-width: 1.2"/>
    <path d="M 150.349262 116.775083 
L 185.089865 152.678759 
" clip-path="url(#p42c88aff83)" style="fill: none; stroke: #000000; stroke-width: 1.2"/>
    <path d="M 150.349262 116.775083 
L 120.09467 146.214703 
" clip-path="url(#p42c88aff83)" style="fill: none; stroke: #000000; stroke-width: 1.2"/>
    <path d="M 150.349262 116.775083 
L 120.970563 168.897979 
" clip-path="url(#p42c88aff83)" style="fill: none; stroke: #000000; stroke-width: 1.2"/>
    <path d="M 123.498851 125.752764 
L 77.446036 121.478898 
" clip-path="url(#p42c88aff83)" style="fill: none; stroke: #000000; stroke-width: 1.2"/>
    <path d="M 123.498851 125.752764 
L 55.368595 114.574254 
" clip-path="url(#p42c88aff83)" style="fill: none; stroke: #000000; stroke-width: 1.2"/>
    <path d="M 123.498851 125.752764 
L 162.099954 161.158174 
" clip-path="url(#p42c88aff83)" style="fill: none; stroke: #000000; stroke-width: 1.2"/>
    <path d="M 123.498851 125.752764 
L 120.970563 168.897979 
" clip-path="url(#p42c88aff83)" style="fill: none; stroke: #000000; stroke-width: 1.2"/>
    <path d="M 123.498851 125.752764 
L 97.973215 163.026105 
" clip-path="url(#p42c88aff83)" style="fill: none; stroke: #000000; stroke-width: 1.2"/>
    <path d="M 73.858119 101.553377 
L 77.446036 121.478898 
" clip-path="url(#p42c88aff83)" style="fill: none; stroke: #000000; stroke-width: 1.2"/>
    <path d="M 73.858119 101.553377 
L 55.368595 114.574254 
" clip-path="url(#p42c88aff83)" style="fill: none; stroke: #000000; stroke-width: 1.2"/>
    <path d="M 73.858119 101.553377 
L 56.447846 138.697337 
" clip-path="url(#p42c88aff83)" style="fill: none; stroke: #000000; stroke-width: 1.2"/>
    <path d="M 73.858119 101.553377 
L 81.427315 149.888952 
" clip-path="url(#p42c88aff83)" style="fill: none; stroke: #000000; stroke-width: 1.2"/>
    <path d="M 73.858119 101.553377 
L 120.09467 146.214703 
" clip-path="url(#p42c88aff83)" style="fill: none; stroke: #000000; stroke-width: 1.2"/>
    <path d="M 77.446036 121.478898 
L 55.368595 114.574254 
" clip-path="url(#p42c88aff83)" style="fill: none; stroke: #000000; stroke-width: 1.2"/>
    <path d="M 77.446036 121.478898 
L 81.427315 149.888952 
" clip-path="url(#p42c88aff83)" style="fill: none; stroke: #000000; stroke-width: 1.2"/>
    <path d="M 77.446036 121.478898 
L 64.322602 159.69145 
" clip-path="url(#p42c88aff83)" style="fill: none; stroke: #000000; stroke-width: 1.2"/>
    <path d="M 77.446036 121.478898 
L 120.970563 168.897979 
" clip-path="url(#p42c88aff83)" style="fill: none; stroke: #000000; stroke-width: 1.2"/>
    <path d="M 55.368595 114.574254 
L 56.447846 138.697337 
" clip-path="url(#p42c88aff83)" style="fill: none; stroke: #000000; stroke-width: 1.2"/>
    <path d="M 55.368595 114.574254 
L 64.322602 159.69145 
" clip-path="url(#p42c88aff83)" style="fill: none; stroke: #000000; stroke-width: 1.2"/>
    <path d="M 55.368595 114.574254 
L 97.973215 163.026105 
" clip-path="url(#p42c88aff83)" style="fill: none; stroke: #000000; stroke-width: 1.2"/>
    <path d="M 56.447846 138.697337 
L 81.427315 149.888952 
" clip-path="url(#p42c88aff83)" style="fill: none; stroke: #000000; stroke-width: 1.2"/>
    <path d="M 56.447846 138.697337 
L 64.322602 159.69145 
" clip-path="url(#p42c88aff83)" style="fill: none; stroke: #000000; stroke-width: 1.2"/>
    <path d="M 56.447846 138.697337 
L 138.834337 137.824789 
" clip-path="url(#p42c88aff83)" style="fill: none; stroke: #000000; stroke-width: 1.2"/>
    <path d="M 56.447846 138.697337 
L 104.64641 147.829784 
" clip-path="url(#p42c88aff83)" style="fill: none; stroke: #000000; stroke-width: 1.2"/>
    <path d="M 56.447846 138.697337 
L 120.09467 146.214703 
" clip-path="url(#p42c88aff83)" style="fill: none; stroke: #000000; stroke-width: 1.2"/>
    <path d="M 56.447846 138.697337 
L 97.973215 163.026105 
" clip-path="url(#p42c88aff83)" style="fill: none; stroke: #000000; stroke-width: 1.2"/>
    <path d="M 81.427315 149.888952 
L 64.322602 159.69145 
" clip-path="url(#p42c88aff83)" style="fill: none; stroke: #000000; stroke-width: 1.2"/>
    <path d="M 81.427315 149.888952 
L 138.834337 137.824789 
" clip-path="url(#p42c88aff83)" style="fill: none; stroke: #000000; stroke-width: 1.2"/>
    <path d="M 81.427315 149.888952 
L 139.111201 159.857829 
" clip-path="url(#p42c88aff83)" style="fill: none; stroke: #000000; stroke-width: 1.2"/>
    <path d="M 81.427315 149.888952 
L 120.09467 146.214703 
" clip-path="url(#p42c88aff83)" style="fill: none; stroke: #000000; stroke-width: 1.2"/>
    <path d="M 81.427315 149.888952 
L 120.970563 168.897979 
" clip-path="url(#p42c88aff83)" style="fill: none; stroke: #000000; stroke-width: 1.2"/>
    <path d="M 64.322602 159.69145 
L 139.111201 159.857829 
" clip-path="url(#p42c88aff83)" style="fill: none; stroke: #000000; stroke-width: 1.2"/>
    <path d="M 64.322602 159.69145 
L 104.64641 147.829784 
" clip-path="url(#p42c88aff83)" style="fill: none; stroke: #000000; stroke-width: 1.2"/>
    <path d="M 64.322602 159.69145 
L 120.970563 168.897979 
" clip-path="url(#p42c88aff83)" style="fill: none; stroke: #000000; stroke-width: 1.2"/>
    <path d="M 64.322602 159.69145 
L 97.973215 163.026105 
" clip-path="url(#p42c88aff83)" style="fill: none; stroke: #000000; stroke-width: 1.2"/>
    <path d="M 138.834337 137.824789 
L 139.111201 159.857829 
" clip-path="url(#p42c88aff83)" style="fill: none; stroke: #000000; stroke-width: 1.2"/>
    <path d="M 138.834337 137.824789 
L 104.64641 147.829784 
" clip-path="url(#p42c88aff83)" style="fill: none; stroke: #000000; stroke-width: 1.2"/>
    <path d="M 138.834337 137.824789 
L 171.487954 137.770575 
" clip-path="url(#p42c88aff83)" style="fill: none; stroke: #000000; stroke-width: 1.2"/>
    <path d="M 138.834337 137.824789 
L 185.089865 152.678759 
" clip-path="url(#p42c88aff83)" style="fill: none; stroke: #000000; stroke-width: 1.2"/>
    <path d="M 139.111201 159.857829 
L 104.64641 147.829784 
" clip-path="url(#p42c88aff83)" style="fill: none; stroke: #000000; stroke-width: 1.2"/>
    <path d="M 139.111201 159.857829 
L 185.089865 152.678759 
" clip-path="url(#p42c88aff83)" style="fill: none; stroke: #000000; stroke-width: 1.2"/>
    <path d="M 139.111201 159.857829 
L 162.099954 161.158174 
" clip-path="url(#p42c88aff83)" style="fill: none; stroke: #000000; stroke-width: 1.2"/>
    <path d="M 139.111201 159.857829 
L 191.950667 185.153673 
" clip-path="url(#p42c88aff83)" style="fill: none; stroke: #000000; stroke-width: 1.2"/>
    <path d="M 104.64641 147.829784 
L 171.487954 137.770575 
" clip-path="url(#p42c88aff83)" style="fill: none; stroke: #000000; stroke-width: 1.2"/>
    <path d="M 104.64641 147.829784 
L 162.099954 161.158174 
" clip-path="url(#p42c88aff83)" style="fill: none; stroke: #000000; stroke-width: 1.2"/>
    <path d="M 171.487954 137.770575 
L 185.089865 152.678759 
" clip-path="url(#p42c88aff83)" style="fill: none; stroke: #000000; stroke-width: 1.2"/>
    <path d="M 171.487954 137.770575 
L 162.099954 161.158174 
" clip-path="url(#p42c88aff83)" style="fill: none; stroke: #000000; stroke-width: 1.2"/>
    <path d="M 171.487954 137.770575 
L 120.09467 146.214703 
" clip-path="url(#p42c88aff83)" style="fill: none; stroke: #000000; stroke-width: 1.2"/>
    <path d="M 171.487954 137.770575 
L 97.973215 163.026105 
" clip-path="url(#p42c88aff83)" style="fill: none; stroke: #000000; stroke-width: 1.2"/>
    <path d="M 185.089865 152.678759 
L 162.099954 161.158174 
" clip-path="url(#p42c88aff83)" style="fill: none; stroke: #000000; stroke-width: 1.2"/>
    <path d="M 185.089865 152.678759 
L 120.09467 146.214703 
" clip-path="url(#p42c88aff83)" style="fill: none; stroke: #000000; stroke-width: 1.2"/>
    <path d="M 185.089865 152.678759 
L 120.970563 168.897979 
" clip-path="url(#p42c88aff83)" style="fill: none; stroke: #000000; stroke-width: 1.2"/>
    <path d="M 185.089865 152.678759 
L 239.831405 164.985106 
" clip-path="url(#p42c88aff83)" style="fill: none; stroke: #000000; stroke-width: 1.2"/>
    <path d="M 185.089865 152.678759 
L 191.950667 185.153673 
" clip-path="url(#p42c88aff83)" style="fill: none; stroke: #000000; stroke-width: 1.2"/>
    <path d="M 185.089865 152.678759 
L 145.003761 195.071714 
" clip-path="url(#p42c88aff83)" style="fill: none; stroke: #000000; stroke-width: 1.2"/>
    <path d="M 162.099954 161.158174 
L 120.970563 168.897979 
" clip-path="url(#p42c88aff83)" style="fill: none; stroke: #000000; stroke-width: 1.2"/>
    <path d="M 162.099954 161.158174 
L 97.973215 163.026105 
" clip-path="url(#p42c88aff83)" style="fill: none; stroke: #000000; stroke-width: 1.2"/>
    <path d="M 162.099954 161.158174 
L 191.950667 185.153673 
" clip-path="url(#p42c88aff83)" style="fill: none; stroke: #000000; stroke-width: 1.2"/>
    <path d="M 162.099954 161.158174 
L 145.003761 195.071714 
" clip-path="url(#p42c88aff83)" style="fill: none; stroke: #000000; stroke-width: 1.2"/>
    <path d="M 120.09467 146.214703 
L 120.970563 168.897979 
" clip-path="url(#p42c88aff83)" style="fill: none; stroke: #000000; stroke-width: 1.2"/>
    <path d="M 120.09467 146.214703 
L 97.973215 163.026105 
" clip-path="url(#p42c88aff83)" style="fill: none; stroke: #000000; stroke-width: 1.2"/>
    <path d="M 120.970563 168.897979 
L 97.973215 163.026105 
" clip-path="url(#p42c88aff83)" style="fill: none; stroke: #000000; stroke-width: 1.2"/>
    <path d="M 120.970563 168.897979 
L 145.003761 195.071714 
" clip-path="url(#p42c88aff83)" style="fill: none; stroke: #000000; stroke-width: 1.2"/>
    <path d="M 97.973215 163.026105 
L 145.003761 195.071714 
" clip-path="url(#p42c88aff83)" style="fill: none; stroke: #000000; stroke-width: 1.2"/>
    <path d="M 227.273377 216.999689 
L 191.950667 185.153673 
" clip-path="url(#p42c88aff83)" style="fill: none; stroke: #000000; stroke-width: 1.2"/>
    <path d="M 239.831405 164.985106 
L 191.950667 185.153673 
" clip-path="url(#p42c88aff83)" style="fill: none; stroke: #000000; stroke-width: 1.2"/>
    <path d="M 129.965658 237.076364 
L 145.003761 195.071714 
" clip-path="url(#p42c88aff83)" style="fill: none; stroke: #000000; stroke-width: 1.2"/>
    <path d="M 191.950667 185.153673 
L 145.003761 195.071714 
" clip-path="url(#p42c88aff83)" style="fill: none; stroke: #000000; stroke-width: 1.2"/>
   </g>
   <g id="PathCollection_1">
    <defs>
     <path id="C0_0_def79d324c" d="M 0 8.944272 
C 2.372049 8.944272 4.647264 8.001847 6.324555 6.324555 
C 8.001847 4.647264 8.944272 2.372049 8.944272 -0 
C 8.944272 -2.372049 8.001847 -4.647264 6.324555 -6.324555 
C 4.647264 -8.001847 2.372049 -8.944272 0 -8.944272 
C -2.372049 -8.944272 -4.647264 -8.001847 -6.324555 -6.324555 
C -8.001847 -4.647264 -8.944272 -2.372049 -8.944272 0 
C -8.944272 2.372049 -8.001847 4.647264 -6.324555 6.324555 
C -4.647264 8.001847 -2.372049 8.944272 0 8.944272 
z
"/>
    </defs>
    <g clip-path="url(#p42c88aff83)">
     <use xlink:href="#C0_0_def79d324c" x="61.244814" y="64.176062" style="fill: #f08fa1; stroke: #f08fa1; stroke-width: 0.5"/>
    </g>
    <g clip-path="url(#p42c88aff83)">
     <use xlink:href="#C0_0_def79d324c" x="84.052455" y="64.880406" style="fill: #f08fa1; stroke: #f08fa1; stroke-width: 0.5"/>
    </g>
    <g clip-path="url(#p42c88aff83)">
     <use xlink:href="#C0_0_def79d324c" x="58.158913" y="83.98917" style="fill: #f08fa1; stroke: #f08fa1; stroke-width: 0.5"/>
    </g>
    <g clip-path="url(#p42c88aff83)">
     <use xlink:href="#C0_0_def79d324c" x="138.385471" y="53.803636" style="fill: #f08fa1; stroke: #f08fa1; stroke-width: 0.5"/>
    </g>
    <g clip-path="url(#p42c88aff83)">
     <use xlink:href="#C0_0_def79d324c" x="142.057926" y="73.453566" style="fill: #f08fa1; stroke: #f08fa1; stroke-width: 0.5"/>
    </g>
    <g clip-path="url(#p42c88aff83)">
     <use xlink:href="#C0_0_def79d324c" x="108.438604" y="60.359808" style="fill: #f08fa1; stroke: #f08fa1; stroke-width: 0.5"/>
    </g>
    <g clip-path="url(#p42c88aff83)">
     <use xlink:href="#C0_0_def79d324c" x="165.268576" y="61.114397" style="fill: #f08fa1; stroke: #f08fa1; stroke-width: 0.5"/>
    </g>
    <g clip-path="url(#p42c88aff83)">
     <use xlink:href="#C0_0_def79d324c" x="190.212111" y="74.651271" style="fill: #f08fa1; stroke: #f08fa1; stroke-width: 0.5"/>
    </g>
    <g clip-path="url(#p42c88aff83)">
     <use xlink:href="#C0_0_def79d324c" x="170.654738" y="80.129026" style="fill: #f08fa1; stroke: #f08fa1; stroke-width: 0.5"/>
    </g>
    <g clip-path="url(#p42c88aff83)">
     <use xlink:href="#C0_0_def79d324c" x="124.059208" y="59.711368" style="fill: #f08fa1; stroke: #f08fa1; stroke-width: 0.5"/>
    </g>
    <g clip-path="url(#p42c88aff83)">
     <use xlink:href="#C0_0_def79d324c" x="123.140407" y="81.395625" style="fill: #f08fa1; stroke: #f08fa1; stroke-width: 0.5"/>
    </g>
    <g clip-path="url(#p42c88aff83)">
     <use xlink:href="#C0_0_def79d324c" x="94.630663" y="74.347984" style="fill: #f08fa1; stroke: #f08fa1; stroke-width: 0.5"/>
    </g>
    <g clip-path="url(#p42c88aff83)">
     <use xlink:href="#C0_0_def79d324c" x="99.129659" y="95.645466" style="fill: #f08fa1; stroke: #f08fa1; stroke-width: 0.5"/>
    </g>
    <g clip-path="url(#p42c88aff83)">
     <use xlink:href="#C0_0_def79d324c" x="131.392096" y="104.487712" style="fill: #f08fa1; stroke: #f08fa1; stroke-width: 0.5"/>
    </g>
    <g clip-path="url(#p42c88aff83)">
     <use xlink:href="#C0_0_def79d324c" x="102.20435" y="116.67492" style="fill: #f08fa1; stroke: #f08fa1; stroke-width: 0.5"/>
    </g>
    <g clip-path="url(#p42c88aff83)">
     <use xlink:href="#C0_0_def79d324c" x="181.287754" y="101.810412" style="fill: #f08fa1; stroke: #f08fa1; stroke-width: 0.5"/>
    </g>
    <g clip-path="url(#p42c88aff83)">
     <use xlink:href="#C0_0_def79d324c" x="182.227561" y="119.30432" style="fill: #f08fa1; stroke: #f08fa1; stroke-width: 0.5"/>
    </g>
    <g clip-path="url(#p42c88aff83)">
     <use xlink:href="#C0_0_def79d324c" x="157.07407" y="106.828101" style="fill: #f08fa1; stroke: #f08fa1; stroke-width: 0.5"/>
    </g>
    <g clip-path="url(#p42c88aff83)">
     <use xlink:href="#C0_0_def79d324c" x="119.578384" y="104.345312" style="fill: #f08fa1; stroke: #f08fa1; stroke-width: 0.5"/>
    </g>
    <g clip-path="url(#p42c88aff83)">
     <use xlink:href="#C0_0_def79d324c" x="150.349262" y="116.775083" style="fill: #f08fa1; stroke: #f08fa1; stroke-width: 0.5"/>
    </g>
    <g clip-path="url(#p42c88aff83)">
     <use xlink:href="#C0_0_def79d324c" x="123.498851" y="125.752764" style="fill: #f08fa1; stroke: #f08fa1; stroke-width: 0.5"/>
    </g>
    <g clip-path="url(#p42c88aff83)">
     <use xlink:href="#C0_0_def79d324c" x="73.858119" y="101.553377" style="fill: #f08fa1; stroke: #f08fa1; stroke-width: 0.5"/>
    </g>
    <g clip-path="url(#p42c88aff83)">
     <use xlink:href="#C0_0_def79d324c" x="77.446036" y="121.478898" style="fill: #f08fa1; stroke: #f08fa1; stroke-width: 0.5"/>
    </g>
    <g clip-path="url(#p42c88aff83)">
     <use xlink:href="#C0_0_def79d324c" x="55.368595" y="114.574254" style="fill: #f08fa1; stroke: #f08fa1; stroke-width: 0.5"/>
    </g>
    <g clip-path="url(#p42c88aff83)">
     <use xlink:href="#C0_0_def79d324c" x="56.447846" y="138.697337" style="fill: #f08fa1; stroke: #f08fa1; stroke-width: 0.5"/>
    </g>
    <g clip-path="url(#p42c88aff83)">
     <use xlink:href="#C0_0_def79d324c" x="81.427315" y="149.888952" style="fill: #f08fa1; stroke: #f08fa1; stroke-width: 0.5"/>
    </g>
    <g clip-path="url(#p42c88aff83)">
     <use xlink:href="#C0_0_def79d324c" x="64.322602" y="159.69145" style="fill: #f08fa1; stroke: #f08fa1; stroke-width: 0.5"/>
    </g>
    <g clip-path="url(#p42c88aff83)">
     <use xlink:href="#C0_0_def79d324c" x="138.834337" y="137.824789" style="fill: #f08fa1; stroke: #f08fa1; stroke-width: 0.5"/>
    </g>
    <g clip-path="url(#p42c88aff83)">
     <use xlink:href="#C0_0_def79d324c" x="139.111201" y="159.857829" style="fill: #f08fa1; stroke: #f08fa1; stroke-width: 0.5"/>
    </g>
    <g clip-path="url(#p42c88aff83)">
     <use xlink:href="#C0_0_def79d324c" x="104.64641" y="147.829784" style="fill: #f08fa1; stroke: #f08fa1; stroke-width: 0.5"/>
    </g>
    <g clip-path="url(#p42c88aff83)">
     <use xlink:href="#C0_0_def79d324c" x="171.487954" y="137.770575" style="fill: #f08fa1; stroke: #f08fa1; stroke-width: 0.5"/>
    </g>
    <g clip-path="url(#p42c88aff83)">
     <use xlink:href="#C0_0_def79d324c" x="185.089865" y="152.678759" style="fill: #f08fa1; stroke: #f08fa1; stroke-width: 0.5"/>
    </g>
    <g clip-path="url(#p42c88aff83)">
     <use xlink:href="#C0_0_def79d324c" x="162.099954" y="161.158174" style="fill: #f08fa1; stroke: #f08fa1; stroke-width: 0.5"/>
    </g>
    <g clip-path="url(#p42c88aff83)">
     <use xlink:href="#C0_0_def79d324c" x="120.09467" y="146.214703" style="fill: #f08fa1; stroke: #f08fa1; stroke-width: 0.5"/>
    </g>
    <g clip-path="url(#p42c88aff83)">
     <use xlink:href="#C0_0_def79d324c" x="120.970563" y="168.897979" style="fill: #f08fa1; stroke: #f08fa1; stroke-width: 0.5"/>
    </g>
    <g clip-path="url(#p42c88aff83)">
     <use xlink:href="#C0_0_def79d324c" x="97.973215" y="163.026105" style="fill: #f08fa1; stroke: #f08fa1; stroke-width: 0.5"/>
    </g>
    <g clip-path="url(#p42c88aff83)">
     <use xlink:href="#C0_0_def79d324c" x="227.273377" y="216.999689" style="fill: #bfbfbf; stroke: #bfbfbf; stroke-width: 0.5"/>
    </g>
    <g clip-path="url(#p42c88aff83)">
     <use xlink:href="#C0_0_def79d324c" x="239.831405" y="164.985106" style="fill: #bfbfbf; stroke: #bfbfbf; stroke-width: 0.5"/>
    </g>
    <g clip-path="url(#p42c88aff83)">
     <use xlink:href="#C0_0_def79d324c" x="129.965658" y="237.076364" style="fill: #bfbfbf; stroke: #bfbfbf; stroke-width: 0.5"/>
    </g>
    <g clip-path="url(#p42c88aff83)">
     <use xlink:href="#C0_0_def79d324c" x="191.950667" y="185.153673" style="fill: #666666; stroke: #666666; stroke-width: 0.5"/>
    </g>
    <g clip-path="url(#p42c88aff83)">
     <use xlink:href="#C0_0_def79d324c" x="145.003761" y="195.071714" style="fill: #0d0dff; stroke: #0d0dff; stroke-width: 0.5"/>
    </g>
   </g>
   <g id="text_1">
    <!-- CH3Co48N -->
    <g transform="translate(133.637242 6.402369) scale(0.1 -0.1)">
     <defs>
      <path id="DejaVuSans-43" d="M 4122 4306 
L 4122 3641 
Q 3803 3938 3442 4084 
Q 3081 4231 2675 4231 
Q 1875 4231 1450 3742 
Q 1025 3253 1025 2328 
Q 1025 1406 1450 917 
Q 1875 428 2675 428 
Q 3081 428 3442 575 
Q 3803 722 4122 1019 
L 4122 359 
Q 3791 134 3420 21 
Q 3050 -91 2638 -91 
Q 1578 -91 968 557 
Q 359 1206 359 2328 
Q 359 3453 968 4101 
Q 1578 4750 2638 4750 
Q 3056 4750 3426 4639 
Q 3797 4528 4122 4306 
z
" transform="scale(0.015625)"/>
      <path id="DejaVuSans-48" d="M 628 4666 
L 1259 4666 
L 1259 2753 
L 3553 2753 
L 3553 4666 
L 4184 4666 
L 4184 0 
L 3553 0 
L 3553 2222 
L 1259 2222 
L 1259 0 
L 628 0 
L 628 4666 
z
" transform="scale(0.015625)"/>
      <path id="DejaVuSans-33" d="M 2597 2516 
Q 3050 2419 3304 2112 
Q 3559 1806 3559 1356 
Q 3559 666 3084 287 
Q 2609 -91 1734 -91 
Q 1441 -91 1130 -33 
Q 819 25 488 141 
L 488 750 
Q 750 597 1062 519 
Q 1375 441 1716 441 
Q 2309 441 2620 675 
Q 2931 909 2931 1356 
Q 2931 1769 2642 2001 
Q 2353 2234 1838 2234 
L 1294 2234 
L 1294 2753 
L 1863 2753 
Q 2328 2753 2575 2939 
Q 2822 3125 2822 3475 
Q 2822 3834 2567 4026 
Q 2313 4219 1838 4219 
Q 1578 4219 1281 4162 
Q 984 4106 628 3988 
L 628 4550 
Q 988 4650 1302 4700 
Q 1616 4750 1894 4750 
Q 2613 4750 3031 4423 
Q 3450 4097 3450 3541 
Q 3450 3153 3228 2886 
Q 3006 2619 2597 2516 
z
" transform="scale(0.015625)"/>
      <path id="DejaVuSans-6f" d="M 1959 3097 
Q 1497 3097 1228 2736 
Q 959 2375 959 1747 
Q 959 1119 1226 758 
Q 1494 397 1959 397 
Q 2419 397 2687 759 
Q 2956 1122 2956 1747 
Q 2956 2369 2687 2733 
Q 2419 3097 1959 3097 
z
M 1959 3584 
Q 2709 3584 3137 3096 
Q 3566 2609 3566 1747 
Q 3566 888 3137 398 
Q 2709 -91 1959 -91 
Q 1206 -91 779 398 
Q 353 888 353 1747 
Q 353 2609 779 3096 
Q 1206 3584 1959 3584 
z
" transform="scale(0.015625)"/>
      <path id="DejaVuSans-34" d="M 2419 4116 
L 825 1625 
L 2419 1625 
L 2419 4116 
z
M 2253 4666 
L 3047 4666 
L 3047 1625 
L 3713 1625 
L 3713 1100 
L 3047 1100 
L 3047 0 
L 2419 0 
L 2419 1100 
L 313 1100 
L 313 1709 
L 2253 4666 
z
" transform="scale(0.015625)"/>
      <path id="DejaVuSans-38" d="M 2034 2216 
Q 1584 2216 1326 1975 
Q 1069 1734 1069 1313 
Q 1069 891 1326 650 
Q 1584 409 2034 409 
Q 2484 409 2743 651 
Q 3003 894 3003 1313 
Q 3003 1734 2745 1975 
Q 2488 2216 2034 2216 
z
M 1403 2484 
Q 997 2584 770 2862 
Q 544 3141 544 3541 
Q 544 4100 942 4425 
Q 1341 4750 2034 4750 
Q 2731 4750 3128 4425 
Q 3525 4100 3525 3541 
Q 3525 3141 3298 2862 
Q 3072 2584 2669 2484 
Q 3125 2378 3379 2068 
Q 3634 1759 3634 1313 
Q 3634 634 3220 271 
Q 2806 -91 2034 -91 
Q 1263 -91 848 271 
Q 434 634 434 1313 
Q 434 1759 690 2068 
Q 947 2378 1403 2484 
z
M 1172 3481 
Q 1172 3119 1398 2916 
Q 1625 2713 2034 2713 
Q 2441 2713 2670 2916 
Q 2900 3119 2900 3481 
Q 2900 3844 2670 4047 
Q 2441 4250 2034 4250 
Q 1625 4250 1398 4047 
Q 1172 3844 1172 3481 
z
" transform="scale(0.015625)"/>
      <path id="DejaVuSans-4e" d="M 628 4666 
L 1478 4666 
L 3547 763 
L 3547 4666 
L 4159 4666 
L 4159 0 
L 3309 0 
L 1241 3903 
L 1241 0 
L 628 0 
L 628 4666 
z
" transform="scale(0.015625)"/>
     </defs>
     <use xlink:href="#DejaVuSans-43"/>
     <use xlink:href="#DejaVuSans-48" transform="translate(69.824219 0)"/>
     <use xlink:href="#DejaVuSans-33" transform="translate(145.019531 0)"/>
     <use xlink:href="#DejaVuSans-43" transform="translate(208.642578 0)"/>
     <use xlink:href="#DejaVuSans-6f" transform="translate(278.466797 0)"/>
     <use xlink:href="#DejaVuSans-34" transform="translate(339.648438 0)"/>
     <use xlink:href="#DejaVuSans-38" transform="translate(403.271484 0)"/>
     <use xlink:href="#DejaVuSans-4e" transform="translate(466.894531 0)"/>
    </g>
    <!-- Error: -7.97 eV -->
    <g transform="translate(133.637242 17.600181) scale(0.1 -0.1)">
     <defs>
      <path id="DejaVuSans-45" d="M 628 4666 
L 3578 4666 
L 3578 4134 
L 1259 4134 
L 1259 2753 
L 3481 2753 
L 3481 2222 
L 1259 2222 
L 1259 531 
L 3634 531 
L 3634 0 
L 628 0 
L 628 4666 
z
" transform="scale(0.015625)"/>
      <path id="DejaVuSans-72" d="M 2631 2963 
Q 2534 3019 2420 3045 
Q 2306 3072 2169 3072 
Q 1681 3072 1420 2755 
Q 1159 2438 1159 1844 
L 1159 0 
L 581 0 
L 581 3500 
L 1159 3500 
L 1159 2956 
Q 1341 3275 1631 3429 
Q 1922 3584 2338 3584 
Q 2397 3584 2469 3576 
Q 2541 3569 2628 3553 
L 2631 2963 
z
" transform="scale(0.015625)"/>
      <path id="DejaVuSans-3a" d="M 750 794 
L 1409 794 
L 1409 0 
L 750 0 
L 750 794 
z
M 750 3309 
L 1409 3309 
L 1409 2516 
L 750 2516 
L 750 3309 
z
" transform="scale(0.015625)"/>
      <path id="DejaVuSans-20" transform="scale(0.015625)"/>
      <path id="DejaVuSans-2d" d="M 313 2009 
L 1997 2009 
L 1997 1497 
L 313 1497 
L 313 2009 
z
" transform="scale(0.015625)"/>
      <path id="DejaVuSans-37" d="M 525 4666 
L 3525 4666 
L 3525 4397 
L 1831 0 
L 1172 0 
L 2766 4134 
L 525 4134 
L 525 4666 
z
" transform="scale(0.015625)"/>
      <path id="DejaVuSans-2e" d="M 684 794 
L 1344 794 
L 1344 0 
L 684 0 
L 684 794 
z
" transform="scale(0.015625)"/>
      <path id="DejaVuSans-39" d="M 703 97 
L 703 672 
Q 941 559 1184 500 
Q 1428 441 1663 441 
Q 2288 441 2617 861 
Q 2947 1281 2994 2138 
Q 2813 1869 2534 1725 
Q 2256 1581 1919 1581 
Q 1219 1581 811 2004 
Q 403 2428 403 3163 
Q 403 3881 828 4315 
Q 1253 4750 1959 4750 
Q 2769 4750 3195 4129 
Q 3622 3509 3622 2328 
Q 3622 1225 3098 567 
Q 2575 -91 1691 -91 
Q 1453 -91 1209 -44 
Q 966 3 703 97 
z
M 1959 2075 
Q 2384 2075 2632 2365 
Q 2881 2656 2881 3163 
Q 2881 3666 2632 3958 
Q 2384 4250 1959 4250 
Q 1534 4250 1286 3958 
Q 1038 3666 1038 3163 
Q 1038 2656 1286 2365 
Q 1534 2075 1959 2075 
z
" transform="scale(0.015625)"/>
      <path id="DejaVuSans-65" d="M 3597 1894 
L 3597 1613 
L 953 1613 
Q 991 1019 1311 708 
Q 1631 397 2203 397 
Q 2534 397 2845 478 
Q 3156 559 3463 722 
L 3463 178 
Q 3153 47 2828 -22 
Q 2503 -91 2169 -91 
Q 1331 -91 842 396 
Q 353 884 353 1716 
Q 353 2575 817 3079 
Q 1281 3584 2069 3584 
Q 2775 3584 3186 3129 
Q 3597 2675 3597 1894 
z
M 3022 2063 
Q 3016 2534 2758 2815 
Q 2500 3097 2075 3097 
Q 1594 3097 1305 2825 
Q 1016 2553 972 2059 
L 3022 2063 
z
" transform="scale(0.015625)"/>
      <path id="DejaVuSans-56" d="M 1831 0 
L 50 4666 
L 709 4666 
L 2188 738 
L 3669 4666 
L 4325 4666 
L 2547 0 
L 1831 0 
z
" transform="scale(0.015625)"/>
     </defs>
     <use xlink:href="#DejaVuSans-45"/>
     <use xlink:href="#DejaVuSans-72" transform="translate(63.183594 0)"/>
     <use xlink:href="#DejaVuSans-72" transform="translate(102.546875 0)"/>
     <use xlink:href="#DejaVuSans-6f" transform="translate(141.410156 0)"/>
     <use xlink:href="#DejaVuSans-72" transform="translate(202.591797 0)"/>
     <use xlink:href="#DejaVuSans-3a" transform="translate(241.955078 0)"/>
     <use xlink:href="#DejaVuSans-20" transform="translate(275.646484 0)"/>
     <use xlink:href="#DejaVuSans-2d" transform="translate(307.433594 0)"/>
     <use xlink:href="#DejaVuSans-37" transform="translate(343.517578 0)"/>
     <use xlink:href="#DejaVuSans-2e" transform="translate(407.140625 0)"/>
     <use xlink:href="#DejaVuSans-39" transform="translate(438.927734 0)"/>
     <use xlink:href="#DejaVuSans-37" transform="translate(502.550781 0)"/>
     <use xlink:href="#DejaVuSans-20" transform="translate(566.173828 0)"/>
     <use xlink:href="#DejaVuSans-65" transform="translate(597.960938 0)"/>
     <use xlink:href="#DejaVuSans-56" transform="translate(659.484375 0)"/>
    </g>
   </g>
  </g>
 </g>
 <defs>
  <clipPath id="p42c88aff83">
   <rect x="36" y="34.56" width="223.2" height="221.76"/>
  </clipPath>
 </defs>
</svg>
