<?xml version="1.0" encoding="utf-8" standalone="no"?>
<!DOCTYPE svg PUBLIC "-//W3C//DTD SVG 1.1//EN"
  "http://www.w3.org/Graphics/SVG/1.1/DTD/svg11.dtd">
<svg xmlns:xlink="http://www.w3.org/1999/xlink" width="288pt" height="288pt" viewBox="0 0 288 288" xmlns="http://www.w3.org/2000/svg" version="1.1">
 <metadata>
  <rdf:RDF xmlns:dc="http://purl.org/dc/elements/1.1/" xmlns:cc="http://creativecommons.org/ns#" xmlns:rdf="http://www.w3.org/1999/02/22-rdf-syntax-ns#">
   <cc:Work>
    <dc:type rdf:resource="http://purl.org/dc/dcmitype/StillImage"/>
    <dc:date>2025-06-30T12:10:36.472028</dc:date>
    <dc:format>image/svg+xml</dc:format>
    <dc:creator>
     <cc:Agent>
      <dc:title>Matplotlib v3.10.1, https://matplotlib.org/</dc:title>
     </cc:Agent>
    </dc:creator>
   </cc:Work>
  </rdf:RDF>
 </metadata>
 <defs>
  <style type="text/css">*{stroke-linejoin: round; stroke-linecap: butt}</style>
 </defs>
 <g id="figure_1">
  <g id="patch_1">
   <path d="M 0 288 
L 288 288 
L 288 0 
L 0 0 
z
" style="fill: #ffffff"/>
  </g>
  <g id="axes_1">
   <g id="LineCollection_1">
    <path d="M 118.300271 60.451108 
L 71.256612 62.582095 
" clip-path="url(#pceb254edcf)" style="fill: none; stroke: #000000; stroke-width: 1.2"/>
    <path d="M 118.300271 60.451108 
L 135.416991 53.803636 
" clip-path="url(#pceb254edcf)" style="fill: none; stroke: #000000; stroke-width: 1.2"/>
    <path d="M 118.300271 60.451108 
L 86.070257 61.810269 
" clip-path="url(#pceb254edcf)" style="fill: none; stroke: #000000; stroke-width: 1.2"/>
    <path d="M 118.300271 60.451108 
L 86.349758 75.449963 
" clip-path="url(#pceb254edcf)" style="fill: none; stroke: #000000; stroke-width: 1.2"/>
    <path d="M 118.300271 60.451108 
L 164.501658 86.68407 
" clip-path="url(#pceb254edcf)" style="fill: none; stroke: #000000; stroke-width: 1.2"/>
    <path d="M 118.300271 60.451108 
L 145.785344 67.205842 
" clip-path="url(#pceb254edcf)" style="fill: none; stroke: #000000; stroke-width: 1.2"/>
    <path d="M 118.300271 60.451108 
L 80.041772 98.892812 
" clip-path="url(#pceb254edcf)" style="fill: none; stroke: #000000; stroke-width: 1.2"/>
    <path d="M 118.300271 60.451108 
L 147.357928 97.410069 
" clip-path="url(#pceb254edcf)" style="fill: none; stroke: #000000; stroke-width: 1.2"/>
    <path d="M 118.300271 60.451108 
L 119.2208 113.003447 
" clip-path="url(#pceb254edcf)" style="fill: none; stroke: #000000; stroke-width: 1.2"/>
    <path d="M 71.256612 62.582095 
L 135.416991 53.803636 
" clip-path="url(#pceb254edcf)" style="fill: none; stroke: #000000; stroke-width: 1.2"/>
    <path d="M 71.256612 62.582095 
L 86.070257 61.810269 
" clip-path="url(#pceb254edcf)" style="fill: none; stroke: #000000; stroke-width: 1.2"/>
    <path d="M 71.256612 62.582095 
L 122.985207 77.275632 
" clip-path="url(#pceb254edcf)" style="fill: none; stroke: #000000; stroke-width: 1.2"/>
    <path d="M 71.256612 62.582095 
L 111.785209 76.358895 
" clip-path="url(#pceb254edcf)" style="fill: none; stroke: #000000; stroke-width: 1.2"/>
    <path d="M 71.256612 62.582095 
L 63.535521 76.367713 
" clip-path="url(#pceb254edcf)" style="fill: none; stroke: #000000; stroke-width: 1.2"/>
    <path d="M 71.256612 62.582095 
L 80.041772 98.892812 
" clip-path="url(#pceb254edcf)" style="fill: none; stroke: #000000; stroke-width: 1.2"/>
    <path d="M 71.256612 62.582095 
L 104.401372 106.092585 
" clip-path="url(#pceb254edcf)" style="fill: none; stroke: #000000; stroke-width: 1.2"/>
    <path d="M 71.256612 62.582095 
L 64.604068 111.883256 
" clip-path="url(#pceb254edcf)" style="fill: none; stroke: #000000; stroke-width: 1.2"/>
    <path d="M 135.416991 53.803636 
L 103.355108 54.148984 
" clip-path="url(#pceb254edcf)" style="fill: none; stroke: #000000; stroke-width: 1.2"/>
    <path d="M 135.416991 53.803636 
L 153.227877 75.619239 
" clip-path="url(#pceb254edcf)" style="fill: none; stroke: #000000; stroke-width: 1.2"/>
    <path d="M 135.416991 53.803636 
L 122.985207 77.275632 
" clip-path="url(#pceb254edcf)" style="fill: none; stroke: #000000; stroke-width: 1.2"/>
    <path d="M 135.416991 53.803636 
L 145.785344 67.205842 
" clip-path="url(#pceb254edcf)" style="fill: none; stroke: #000000; stroke-width: 1.2"/>
    <path d="M 135.416991 53.803636 
L 147.357928 97.410069 
" clip-path="url(#pceb254edcf)" style="fill: none; stroke: #000000; stroke-width: 1.2"/>
    <path d="M 135.416991 53.803636 
L 104.401372 106.092585 
" clip-path="url(#pceb254edcf)" style="fill: none; stroke: #000000; stroke-width: 1.2"/>
    <path d="M 135.416991 53.803636 
L 130.560136 102.032158 
" clip-path="url(#pceb254edcf)" style="fill: none; stroke: #000000; stroke-width: 1.2"/>
    <path d="M 103.355108 54.148984 
L 153.227877 75.619239 
" clip-path="url(#pceb254edcf)" style="fill: none; stroke: #000000; stroke-width: 1.2"/>
    <path d="M 103.355108 54.148984 
L 86.070257 61.810269 
" clip-path="url(#pceb254edcf)" style="fill: none; stroke: #000000; stroke-width: 1.2"/>
    <path d="M 103.355108 54.148984 
L 86.349758 75.449963 
" clip-path="url(#pceb254edcf)" style="fill: none; stroke: #000000; stroke-width: 1.2"/>
    <path d="M 103.355108 54.148984 
L 145.785344 67.205842 
" clip-path="url(#pceb254edcf)" style="fill: none; stroke: #000000; stroke-width: 1.2"/>
    <path d="M 103.355108 54.148984 
L 63.535521 76.367713 
" clip-path="url(#pceb254edcf)" style="fill: none; stroke: #000000; stroke-width: 1.2"/>
    <path d="M 103.355108 54.148984 
L 130.560136 102.032158 
" clip-path="url(#pceb254edcf)" style="fill: none; stroke: #000000; stroke-width: 1.2"/>
    <path d="M 103.355108 54.148984 
L 64.065232 100.591841 
" clip-path="url(#pceb254edcf)" style="fill: none; stroke: #000000; stroke-width: 1.2"/>
    <path d="M 103.355108 54.148984 
L 98.645858 97.409595 
" clip-path="url(#pceb254edcf)" style="fill: none; stroke: #000000; stroke-width: 1.2"/>
    <path d="M 153.227877 75.619239 
L 86.070257 61.810269 
" clip-path="url(#pceb254edcf)" style="fill: none; stroke: #000000; stroke-width: 1.2"/>
    <path d="M 153.227877 75.619239 
L 122.985207 77.275632 
" clip-path="url(#pceb254edcf)" style="fill: none; stroke: #000000; stroke-width: 1.2"/>
    <path d="M 153.227877 75.619239 
L 164.501658 86.68407 
" clip-path="url(#pceb254edcf)" style="fill: none; stroke: #000000; stroke-width: 1.2"/>
    <path d="M 153.227877 75.619239 
L 111.785209 76.358895 
" clip-path="url(#pceb254edcf)" style="fill: none; stroke: #000000; stroke-width: 1.2"/>
    <path d="M 153.227877 75.619239 
L 130.560136 102.032158 
" clip-path="url(#pceb254edcf)" style="fill: none; stroke: #000000; stroke-width: 1.2"/>
    <path d="M 153.227877 75.619239 
L 110.68453 119.721156 
" clip-path="url(#pceb254edcf)" style="fill: none; stroke: #000000; stroke-width: 1.2"/>
    <path d="M 153.227877 75.619239 
L 152.749203 124.002928 
" clip-path="url(#pceb254edcf)" style="fill: none; stroke: #000000; stroke-width: 1.2"/>
    <path d="M 86.070257 61.810269 
L 86.349758 75.449963 
" clip-path="url(#pceb254edcf)" style="fill: none; stroke: #000000; stroke-width: 1.2"/>
    <path d="M 86.070257 61.810269 
L 111.785209 76.358895 
" clip-path="url(#pceb254edcf)" style="fill: none; stroke: #000000; stroke-width: 1.2"/>
    <path d="M 86.070257 61.810269 
L 80.041772 98.892812 
" clip-path="url(#pceb254edcf)" style="fill: none; stroke: #000000; stroke-width: 1.2"/>
    <path d="M 86.070257 61.810269 
L 64.065232 100.591841 
" clip-path="url(#pceb254edcf)" style="fill: none; stroke: #000000; stroke-width: 1.2"/>
    <path d="M 86.070257 61.810269 
L 110.68453 119.721156 
" clip-path="url(#pceb254edcf)" style="fill: none; stroke: #000000; stroke-width: 1.2"/>
    <path d="M 122.985207 77.275632 
L 86.349758 75.449963 
" clip-path="url(#pceb254edcf)" style="fill: none; stroke: #000000; stroke-width: 1.2"/>
    <path d="M 122.985207 77.275632 
L 164.501658 86.68407 
" clip-path="url(#pceb254edcf)" style="fill: none; stroke: #000000; stroke-width: 1.2"/>
    <path d="M 122.985207 77.275632 
L 63.535521 76.367713 
" clip-path="url(#pceb254edcf)" style="fill: none; stroke: #000000; stroke-width: 1.2"/>
    <path d="M 122.985207 77.275632 
L 104.401372 106.092585 
" clip-path="url(#pceb254edcf)" style="fill: none; stroke: #000000; stroke-width: 1.2"/>
    <path d="M 122.985207 77.275632 
L 81.754086 119.092271 
" clip-path="url(#pceb254edcf)" style="fill: none; stroke: #000000; stroke-width: 1.2"/>
    <path d="M 122.985207 77.275632 
L 152.749203 124.002928 
" clip-path="url(#pceb254edcf)" style="fill: none; stroke: #000000; stroke-width: 1.2"/>
    <path d="M 86.349758 75.449963 
L 164.501658 86.68407 
" clip-path="url(#pceb254edcf)" style="fill: none; stroke: #000000; stroke-width: 1.2"/>
    <path d="M 86.349758 75.449963 
L 63.535521 76.367713 
" clip-path="url(#pceb254edcf)" style="fill: none; stroke: #000000; stroke-width: 1.2"/>
    <path d="M 86.349758 75.449963 
L 64.065232 100.591841 
" clip-path="url(#pceb254edcf)" style="fill: none; stroke: #000000; stroke-width: 1.2"/>
    <path d="M 86.349758 75.449963 
L 81.754086 119.092271 
" clip-path="url(#pceb254edcf)" style="fill: none; stroke: #000000; stroke-width: 1.2"/>
    <path d="M 86.349758 75.449963 
L 119.2208 113.003447 
" clip-path="url(#pceb254edcf)" style="fill: none; stroke: #000000; stroke-width: 1.2"/>
    <path d="M 164.501658 86.68407 
L 111.785209 76.358895 
" clip-path="url(#pceb254edcf)" style="fill: none; stroke: #000000; stroke-width: 1.2"/>
    <path d="M 164.501658 86.68407 
L 145.785344 67.205842 
" clip-path="url(#pceb254edcf)" style="fill: none; stroke: #000000; stroke-width: 1.2"/>
    <path d="M 164.501658 86.68407 
L 152.749203 124.002928 
" clip-path="url(#pceb254edcf)" style="fill: none; stroke: #000000; stroke-width: 1.2"/>
    <path d="M 164.501658 86.68407 
L 119.2208 113.003447 
" clip-path="url(#pceb254edcf)" style="fill: none; stroke: #000000; stroke-width: 1.2"/>
    <path d="M 164.501658 86.68407 
L 146.095391 115.327396 
" clip-path="url(#pceb254edcf)" style="fill: none; stroke: #000000; stroke-width: 1.2"/>
    <path d="M 111.785209 76.358895 
L 145.785344 67.205842 
" clip-path="url(#pceb254edcf)" style="fill: none; stroke: #000000; stroke-width: 1.2"/>
    <path d="M 111.785209 76.358895 
L 63.535521 76.367713 
" clip-path="url(#pceb254edcf)" style="fill: none; stroke: #000000; stroke-width: 1.2"/>
    <path d="M 111.785209 76.358895 
L 110.68453 119.721156 
" clip-path="url(#pceb254edcf)" style="fill: none; stroke: #000000; stroke-width: 1.2"/>
    <path d="M 111.785209 76.358895 
L 146.095391 115.327396 
" clip-path="url(#pceb254edcf)" style="fill: none; stroke: #000000; stroke-width: 1.2"/>
    <path d="M 111.785209 76.358895 
L 64.604068 111.883256 
" clip-path="url(#pceb254edcf)" style="fill: none; stroke: #000000; stroke-width: 1.2"/>
    <path d="M 145.785344 67.205842 
L 63.535521 76.367713 
" clip-path="url(#pceb254edcf)" style="fill: none; stroke: #000000; stroke-width: 1.2"/>
    <path d="M 145.785344 67.205842 
L 147.357928 97.410069 
" clip-path="url(#pceb254edcf)" style="fill: none; stroke: #000000; stroke-width: 1.2"/>
    <path d="M 145.785344 67.205842 
L 146.095391 115.327396 
" clip-path="url(#pceb254edcf)" style="fill: none; stroke: #000000; stroke-width: 1.2"/>
    <path d="M 145.785344 67.205842 
L 98.645858 97.409595 
" clip-path="url(#pceb254edcf)" style="fill: none; stroke: #000000; stroke-width: 1.2"/>
    <path d="M 63.535521 76.367713 
L 81.754086 119.092271 
" clip-path="url(#pceb254edcf)" style="fill: none; stroke: #000000; stroke-width: 1.2"/>
    <path d="M 63.535521 76.367713 
L 64.604068 111.883256 
" clip-path="url(#pceb254edcf)" style="fill: none; stroke: #000000; stroke-width: 1.2"/>
    <path d="M 63.535521 76.367713 
L 98.645858 97.409595 
" clip-path="url(#pceb254edcf)" style="fill: none; stroke: #000000; stroke-width: 1.2"/>
    <path d="M 80.041772 98.892812 
L 147.357928 97.410069 
" clip-path="url(#pceb254edcf)" style="fill: none; stroke: #000000; stroke-width: 1.2"/>
    <path d="M 80.041772 98.892812 
L 104.401372 106.092585 
" clip-path="url(#pceb254edcf)" style="fill: none; stroke: #000000; stroke-width: 1.2"/>
    <path d="M 80.041772 98.892812 
L 64.065232 100.591841 
" clip-path="url(#pceb254edcf)" style="fill: none; stroke: #000000; stroke-width: 1.2"/>
    <path d="M 80.041772 98.892812 
L 110.68453 119.721156 
" clip-path="url(#pceb254edcf)" style="fill: none; stroke: #000000; stroke-width: 1.2"/>
    <path d="M 80.041772 98.892812 
L 119.2208 113.003447 
" clip-path="url(#pceb254edcf)" style="fill: none; stroke: #000000; stroke-width: 1.2"/>
    <path d="M 80.041772 98.892812 
L 64.604068 111.883256 
" clip-path="url(#pceb254edcf)" style="fill: none; stroke: #000000; stroke-width: 1.2"/>
    <path d="M 80.041772 98.892812 
L 70.763455 139.370141 
" clip-path="url(#pceb254edcf)" style="fill: none; stroke: #000000; stroke-width: 1.2"/>
    <path d="M 80.041772 98.892812 
L 99.92001 136.68542 
" clip-path="url(#pceb254edcf)" style="fill: none; stroke: #000000; stroke-width: 1.2"/>
    <path d="M 80.041772 98.892812 
L 77.841606 158.901104 
" clip-path="url(#pceb254edcf)" style="fill: none; stroke: #000000; stroke-width: 1.2"/>
    <path d="M 147.357928 97.410069 
L 104.401372 106.092585 
" clip-path="url(#pceb254edcf)" style="fill: none; stroke: #000000; stroke-width: 1.2"/>
    <path d="M 147.357928 97.410069 
L 130.560136 102.032158 
" clip-path="url(#pceb254edcf)" style="fill: none; stroke: #000000; stroke-width: 1.2"/>
    <path d="M 147.357928 97.410069 
L 119.2208 113.003447 
" clip-path="url(#pceb254edcf)" style="fill: none; stroke: #000000; stroke-width: 1.2"/>
    <path d="M 147.357928 97.410069 
L 146.095391 115.327396 
" clip-path="url(#pceb254edcf)" style="fill: none; stroke: #000000; stroke-width: 1.2"/>
    <path d="M 147.357928 97.410069 
L 98.645858 97.409595 
" clip-path="url(#pceb254edcf)" style="fill: none; stroke: #000000; stroke-width: 1.2"/>
    <path d="M 147.357928 97.410069 
L 99.92001 136.68542 
" clip-path="url(#pceb254edcf)" style="fill: none; stroke: #000000; stroke-width: 1.2"/>
    <path d="M 147.357928 97.410069 
L 132.750612 133.779246 
" clip-path="url(#pceb254edcf)" style="fill: none; stroke: #000000; stroke-width: 1.2"/>
    <path d="M 147.357928 97.410069 
L 151.527878 143.166015 
" clip-path="url(#pceb254edcf)" style="fill: none; stroke: #000000; stroke-width: 1.2"/>
    <path d="M 104.401372 106.092585 
L 130.560136 102.032158 
" clip-path="url(#pceb254edcf)" style="fill: none; stroke: #000000; stroke-width: 1.2"/>
    <path d="M 104.401372 106.092585 
L 81.754086 119.092271 
" clip-path="url(#pceb254edcf)" style="fill: none; stroke: #000000; stroke-width: 1.2"/>
    <path d="M 104.401372 106.092585 
L 152.749203 124.002928 
" clip-path="url(#pceb254edcf)" style="fill: none; stroke: #000000; stroke-width: 1.2"/>
    <path d="M 104.401372 106.092585 
L 64.604068 111.883256 
" clip-path="url(#pceb254edcf)" style="fill: none; stroke: #000000; stroke-width: 1.2"/>
    <path d="M 104.401372 106.092585 
L 99.92001 136.68542 
" clip-path="url(#pceb254edcf)" style="fill: none; stroke: #000000; stroke-width: 1.2"/>
    <path d="M 104.401372 106.092585 
L 127.520878 154.32479 
" clip-path="url(#pceb254edcf)" style="fill: none; stroke: #000000; stroke-width: 1.2"/>
    <path d="M 104.401372 106.092585 
L 62.53425 151.150598 
" clip-path="url(#pceb254edcf)" style="fill: none; stroke: #000000; stroke-width: 1.2"/>
    <path d="M 130.560136 102.032158 
L 64.065232 100.591841 
" clip-path="url(#pceb254edcf)" style="fill: none; stroke: #000000; stroke-width: 1.2"/>
    <path d="M 130.560136 102.032158 
L 110.68453 119.721156 
" clip-path="url(#pceb254edcf)" style="fill: none; stroke: #000000; stroke-width: 1.2"/>
    <path d="M 130.560136 102.032158 
L 152.749203 124.002928 
" clip-path="url(#pceb254edcf)" style="fill: none; stroke: #000000; stroke-width: 1.2"/>
    <path d="M 130.560136 102.032158 
L 98.645858 97.409595 
" clip-path="url(#pceb254edcf)" style="fill: none; stroke: #000000; stroke-width: 1.2"/>
    <path d="M 130.560136 102.032158 
L 127.520878 154.32479 
" clip-path="url(#pceb254edcf)" style="fill: none; stroke: #000000; stroke-width: 1.2"/>
    <path d="M 130.560136 102.032158 
L 132.750612 133.779246 
" clip-path="url(#pceb254edcf)" style="fill: none; stroke: #000000; stroke-width: 1.2"/>
    <path d="M 130.560136 102.032158 
L 94.905379 150.210575 
" clip-path="url(#pceb254edcf)" style="fill: none; stroke: #000000; stroke-width: 1.2"/>
    <path d="M 64.065232 100.591841 
L 110.68453 119.721156 
" clip-path="url(#pceb254edcf)" style="fill: none; stroke: #000000; stroke-width: 1.2"/>
    <path d="M 64.065232 100.591841 
L 81.754086 119.092271 
" clip-path="url(#pceb254edcf)" style="fill: none; stroke: #000000; stroke-width: 1.2"/>
    <path d="M 64.065232 100.591841 
L 119.2208 113.003447 
" clip-path="url(#pceb254edcf)" style="fill: none; stroke: #000000; stroke-width: 1.2"/>
    <path d="M 64.065232 100.591841 
L 98.645858 97.409595 
" clip-path="url(#pceb254edcf)" style="fill: none; stroke: #000000; stroke-width: 1.2"/>
    <path d="M 64.065232 100.591841 
L 70.763455 139.370141 
" clip-path="url(#pceb254edcf)" style="fill: none; stroke: #000000; stroke-width: 1.2"/>
    <path d="M 64.065232 100.591841 
L 94.905379 150.210575 
" clip-path="url(#pceb254edcf)" style="fill: none; stroke: #000000; stroke-width: 1.2"/>
    <path d="M 64.065232 100.591841 
L 55.368595 136.033394 
" clip-path="url(#pceb254edcf)" style="fill: none; stroke: #000000; stroke-width: 1.2"/>
    <path d="M 110.68453 119.721156 
L 152.749203 124.002928 
" clip-path="url(#pceb254edcf)" style="fill: none; stroke: #000000; stroke-width: 1.2"/>
    <path d="M 110.68453 119.721156 
L 146.095391 115.327396 
" clip-path="url(#pceb254edcf)" style="fill: none; stroke: #000000; stroke-width: 1.2"/>
    <path d="M 110.68453 119.721156 
L 64.604068 111.883256 
" clip-path="url(#pceb254edcf)" style="fill: none; stroke: #000000; stroke-width: 1.2"/>
    <path d="M 110.68453 119.721156 
L 94.905379 150.210575 
" clip-path="url(#pceb254edcf)" style="fill: none; stroke: #000000; stroke-width: 1.2"/>
    <path d="M 110.68453 119.721156 
L 77.841606 158.901104 
" clip-path="url(#pceb254edcf)" style="fill: none; stroke: #000000; stroke-width: 1.2"/>
    <path d="M 110.68453 119.721156 
L 143.071129 162.988827 
" clip-path="url(#pceb254edcf)" style="fill: none; stroke: #000000; stroke-width: 1.2"/>
    <path d="M 81.754086 119.092271 
L 152.749203 124.002928 
" clip-path="url(#pceb254edcf)" style="fill: none; stroke: #000000; stroke-width: 1.2"/>
    <path d="M 81.754086 119.092271 
L 119.2208 113.003447 
" clip-path="url(#pceb254edcf)" style="fill: none; stroke: #000000; stroke-width: 1.2"/>
    <path d="M 81.754086 119.092271 
L 64.604068 111.883256 
" clip-path="url(#pceb254edcf)" style="fill: none; stroke: #000000; stroke-width: 1.2"/>
    <path d="M 81.754086 119.092271 
L 98.645858 97.409595 
" clip-path="url(#pceb254edcf)" style="fill: none; stroke: #000000; stroke-width: 1.2"/>
    <path d="M 81.754086 119.092271 
L 62.53425 151.150598 
" clip-path="url(#pceb254edcf)" style="fill: none; stroke: #000000; stroke-width: 1.2"/>
    <path d="M 81.754086 119.092271 
L 107.666896 163.578372 
" clip-path="url(#pceb254edcf)" style="fill: none; stroke: #000000; stroke-width: 1.2"/>
    <path d="M 81.754086 119.092271 
L 55.368595 136.033394 
" clip-path="url(#pceb254edcf)" style="fill: none; stroke: #000000; stroke-width: 1.2"/>
    <path d="M 152.749203 124.002928 
L 119.2208 113.003447 
" clip-path="url(#pceb254edcf)" style="fill: none; stroke: #000000; stroke-width: 1.2"/>
    <path d="M 152.749203 124.002928 
L 146.095391 115.327396 
" clip-path="url(#pceb254edcf)" style="fill: none; stroke: #000000; stroke-width: 1.2"/>
    <path d="M 152.749203 124.002928 
L 127.520878 154.32479 
" clip-path="url(#pceb254edcf)" style="fill: none; stroke: #000000; stroke-width: 1.2"/>
    <path d="M 152.749203 124.002928 
L 107.666896 163.578372 
" clip-path="url(#pceb254edcf)" style="fill: none; stroke: #000000; stroke-width: 1.2"/>
    <path d="M 152.749203 124.002928 
L 143.071129 162.988827 
" clip-path="url(#pceb254edcf)" style="fill: none; stroke: #000000; stroke-width: 1.2"/>
    <path d="M 119.2208 113.003447 
L 146.095391 115.327396 
" clip-path="url(#pceb254edcf)" style="fill: none; stroke: #000000; stroke-width: 1.2"/>
    <path d="M 119.2208 113.003447 
L 70.763455 139.370141 
" clip-path="url(#pceb254edcf)" style="fill: none; stroke: #000000; stroke-width: 1.2"/>
    <path d="M 119.2208 113.003447 
L 107.666896 163.578372 
" clip-path="url(#pceb254edcf)" style="fill: none; stroke: #000000; stroke-width: 1.2"/>
    <path d="M 119.2208 113.003447 
L 151.527878 143.166015 
" clip-path="url(#pceb254edcf)" style="fill: none; stroke: #000000; stroke-width: 1.2"/>
    <path d="M 146.095391 115.327396 
L 64.604068 111.883256 
" clip-path="url(#pceb254edcf)" style="fill: none; stroke: #000000; stroke-width: 1.2"/>
    <path d="M 146.095391 115.327396 
L 98.645858 97.409595 
" clip-path="url(#pceb254edcf)" style="fill: none; stroke: #000000; stroke-width: 1.2"/>
    <path d="M 146.095391 115.327396 
L 151.527878 143.166015 
" clip-path="url(#pceb254edcf)" style="fill: none; stroke: #000000; stroke-width: 1.2"/>
    <path d="M 146.095391 115.327396 
L 143.071129 162.988827 
" clip-path="url(#pceb254edcf)" style="fill: none; stroke: #000000; stroke-width: 1.2"/>
    <path d="M 146.095391 115.327396 
L 106.383822 149.055055 
" clip-path="url(#pceb254edcf)" style="fill: none; stroke: #000000; stroke-width: 1.2"/>
    <path d="M 64.604068 111.883256 
L 98.645858 97.409595 
" clip-path="url(#pceb254edcf)" style="fill: none; stroke: #000000; stroke-width: 1.2"/>
    <path d="M 64.604068 111.883256 
L 77.841606 158.901104 
" clip-path="url(#pceb254edcf)" style="fill: none; stroke: #000000; stroke-width: 1.2"/>
    <path d="M 64.604068 111.883256 
L 62.53425 151.150598 
" clip-path="url(#pceb254edcf)" style="fill: none; stroke: #000000; stroke-width: 1.2"/>
    <path d="M 64.604068 111.883256 
L 106.383822 149.055055 
" clip-path="url(#pceb254edcf)" style="fill: none; stroke: #000000; stroke-width: 1.2"/>
    <path d="M 98.645858 97.409595 
L 132.750612 133.779246 
" clip-path="url(#pceb254edcf)" style="fill: none; stroke: #000000; stroke-width: 1.2"/>
    <path d="M 98.645858 97.409595 
L 106.383822 149.055055 
" clip-path="url(#pceb254edcf)" style="fill: none; stroke: #000000; stroke-width: 1.2"/>
    <path d="M 98.645858 97.409595 
L 55.368595 136.033394 
" clip-path="url(#pceb254edcf)" style="fill: none; stroke: #000000; stroke-width: 1.2"/>
    <path d="M 70.763455 139.370141 
L 99.92001 136.68542 
" clip-path="url(#pceb254edcf)" style="fill: none; stroke: #000000; stroke-width: 1.2"/>
    <path d="M 70.763455 139.370141 
L 94.905379 150.210575 
" clip-path="url(#pceb254edcf)" style="fill: none; stroke: #000000; stroke-width: 1.2"/>
    <path d="M 70.763455 139.370141 
L 77.841606 158.901104 
" clip-path="url(#pceb254edcf)" style="fill: none; stroke: #000000; stroke-width: 1.2"/>
    <path d="M 70.763455 139.370141 
L 107.666896 163.578372 
" clip-path="url(#pceb254edcf)" style="fill: none; stroke: #000000; stroke-width: 1.2"/>
    <path d="M 70.763455 139.370141 
L 151.527878 143.166015 
" clip-path="url(#pceb254edcf)" style="fill: none; stroke: #000000; stroke-width: 1.2"/>
    <path d="M 70.763455 139.370141 
L 55.368595 136.033394 
" clip-path="url(#pceb254edcf)" style="fill: none; stroke: #000000; stroke-width: 1.2"/>
    <path d="M 99.92001 136.68542 
L 127.520878 154.32479 
" clip-path="url(#pceb254edcf)" style="fill: none; stroke: #000000; stroke-width: 1.2"/>
    <path d="M 99.92001 136.68542 
L 132.750612 133.779246 
" clip-path="url(#pceb254edcf)" style="fill: none; stroke: #000000; stroke-width: 1.2"/>
    <path d="M 99.92001 136.68542 
L 77.841606 158.901104 
" clip-path="url(#pceb254edcf)" style="fill: none; stroke: #000000; stroke-width: 1.2"/>
    <path d="M 99.92001 136.68542 
L 62.53425 151.150598 
" clip-path="url(#pceb254edcf)" style="fill: none; stroke: #000000; stroke-width: 1.2"/>
    <path d="M 99.92001 136.68542 
L 151.527878 143.166015 
" clip-path="url(#pceb254edcf)" style="fill: none; stroke: #000000; stroke-width: 1.2"/>
    <path d="M 127.520878 154.32479 
L 132.750612 133.779246 
" clip-path="url(#pceb254edcf)" style="fill: none; stroke: #000000; stroke-width: 1.2"/>
    <path d="M 127.520878 154.32479 
L 94.905379 150.210575 
" clip-path="url(#pceb254edcf)" style="fill: none; stroke: #000000; stroke-width: 1.2"/>
    <path d="M 127.520878 154.32479 
L 62.53425 151.150598 
" clip-path="url(#pceb254edcf)" style="fill: none; stroke: #000000; stroke-width: 1.2"/>
    <path d="M 127.520878 154.32479 
L 107.666896 163.578372 
" clip-path="url(#pceb254edcf)" style="fill: none; stroke: #000000; stroke-width: 1.2"/>
    <path d="M 127.520878 154.32479 
L 143.071129 162.988827 
" clip-path="url(#pceb254edcf)" style="fill: none; stroke: #000000; stroke-width: 1.2"/>
    <path d="M 127.520878 154.32479 
L 109.583375 193.741094 
" clip-path="url(#pceb254edcf)" style="fill: none; stroke: #000000; stroke-width: 1.2"/>
    <path d="M 132.750612 133.779246 
L 94.905379 150.210575 
" clip-path="url(#pceb254edcf)" style="fill: none; stroke: #000000; stroke-width: 1.2"/>
    <path d="M 132.750612 133.779246 
L 151.527878 143.166015 
" clip-path="url(#pceb254edcf)" style="fill: none; stroke: #000000; stroke-width: 1.2"/>
    <path d="M 132.750612 133.779246 
L 106.383822 149.055055 
" clip-path="url(#pceb254edcf)" style="fill: none; stroke: #000000; stroke-width: 1.2"/>
    <path d="M 132.750612 133.779246 
L 55.368595 136.033394 
" clip-path="url(#pceb254edcf)" style="fill: none; stroke: #000000; stroke-width: 1.2"/>
    <path d="M 94.905379 150.210575 
L 77.841606 158.901104 
" clip-path="url(#pceb254edcf)" style="fill: none; stroke: #000000; stroke-width: 1.2"/>
    <path d="M 94.905379 150.210575 
L 143.071129 162.988827 
" clip-path="url(#pceb254edcf)" style="fill: none; stroke: #000000; stroke-width: 1.2"/>
    <path d="M 94.905379 150.210575 
L 55.368595 136.033394 
" clip-path="url(#pceb254edcf)" style="fill: none; stroke: #000000; stroke-width: 1.2"/>
    <path d="M 77.841606 158.901104 
L 62.53425 151.150598 
" clip-path="url(#pceb254edcf)" style="fill: none; stroke: #000000; stroke-width: 1.2"/>
    <path d="M 77.841606 158.901104 
L 143.071129 162.988827 
" clip-path="url(#pceb254edcf)" style="fill: none; stroke: #000000; stroke-width: 1.2"/>
    <path d="M 77.841606 158.901104 
L 106.383822 149.055055 
" clip-path="url(#pceb254edcf)" style="fill: none; stroke: #000000; stroke-width: 1.2"/>
    <path d="M 62.53425 151.150598 
L 107.666896 163.578372 
" clip-path="url(#pceb254edcf)" style="fill: none; stroke: #000000; stroke-width: 1.2"/>
    <path d="M 62.53425 151.150598 
L 106.383822 149.055055 
" clip-path="url(#pceb254edcf)" style="fill: none; stroke: #000000; stroke-width: 1.2"/>
    <path d="M 62.53425 151.150598 
L 55.368595 136.033394 
" clip-path="url(#pceb254edcf)" style="fill: none; stroke: #000000; stroke-width: 1.2"/>
    <path d="M 107.666896 163.578372 
L 151.527878 143.166015 
" clip-path="url(#pceb254edcf)" style="fill: none; stroke: #000000; stroke-width: 1.2"/>
    <path d="M 107.666896 163.578372 
L 143.071129 162.988827 
" clip-path="url(#pceb254edcf)" style="fill: none; stroke: #000000; stroke-width: 1.2"/>
    <path d="M 107.666896 163.578372 
L 55.368595 136.033394 
" clip-path="url(#pceb254edcf)" style="fill: none; stroke: #000000; stroke-width: 1.2"/>
    <path d="M 107.666896 163.578372 
L 144.479052 195.803278 
" clip-path="url(#pceb254edcf)" style="fill: none; stroke: #000000; stroke-width: 1.2"/>
    <path d="M 107.666896 163.578372 
L 109.583375 193.741094 
" clip-path="url(#pceb254edcf)" style="fill: none; stroke: #000000; stroke-width: 1.2"/>
    <path d="M 151.527878 143.166015 
L 143.071129 162.988827 
" clip-path="url(#pceb254edcf)" style="fill: none; stroke: #000000; stroke-width: 1.2"/>
    <path d="M 151.527878 143.166015 
L 106.383822 149.055055 
" clip-path="url(#pceb254edcf)" style="fill: none; stroke: #000000; stroke-width: 1.2"/>
    <path d="M 143.071129 162.988827 
L 106.383822 149.055055 
" clip-path="url(#pceb254edcf)" style="fill: none; stroke: #000000; stroke-width: 1.2"/>
    <path d="M 143.071129 162.988827 
L 144.479052 195.803278 
" clip-path="url(#pceb254edcf)" style="fill: none; stroke: #000000; stroke-width: 1.2"/>
    <path d="M 143.071129 162.988827 
L 109.583375 193.741094 
" clip-path="url(#pceb254edcf)" style="fill: none; stroke: #000000; stroke-width: 1.2"/>
    <path d="M 143.071129 162.988827 
L 188.183083 183.696625 
" clip-path="url(#pceb254edcf)" style="fill: none; stroke: #000000; stroke-width: 1.2"/>
    <path d="M 106.383822 149.055055 
L 55.368595 136.033394 
" clip-path="url(#pceb254edcf)" style="fill: none; stroke: #000000; stroke-width: 1.2"/>
    <path d="M 214.977802 216.961014 
L 188.183083 183.696625 
" clip-path="url(#pceb254edcf)" style="fill: none; stroke: #000000; stroke-width: 1.2"/>
    <path d="M 239.831405 183.701783 
L 188.183083 183.696625 
" clip-path="url(#pceb254edcf)" style="fill: none; stroke: #000000; stroke-width: 1.2"/>
    <path d="M 77.376705 227.519086 
L 109.583375 193.741094 
" clip-path="url(#pceb254edcf)" style="fill: none; stroke: #000000; stroke-width: 1.2"/>
    <path d="M 144.074059 237.076364 
L 144.479052 195.803278 
" clip-path="url(#pceb254edcf)" style="fill: none; stroke: #000000; stroke-width: 1.2"/>
    <path d="M 144.479052 195.803278 
L 109.583375 193.741094 
" clip-path="url(#pceb254edcf)" style="fill: none; stroke: #000000; stroke-width: 1.2"/>
    <path d="M 144.479052 195.803278 
L 188.183083 183.696625 
" clip-path="url(#pceb254edcf)" style="fill: none; stroke: #000000; stroke-width: 1.2"/>
   </g>
   <g id="PathCollection_1">
    <defs>
     <path id="C0_0_5295e4d7fa" d="M 0 8.944272 
C 2.372049 8.944272 4.647264 8.001847 6.324555 6.324555 
C 8.001847 4.647264 8.944272 2.372049 8.944272 -0 
C 8.944272 -2.372049 8.001847 -4.647264 6.324555 -6.324555 
C 4.647264 -8.001847 2.372049 -8.944272 0 -8.944272 
C -2.372049 -8.944272 -4.647264 -8.001847 -6.324555 -6.324555 
C -8.001847 -4.647264 -8.944272 -2.372049 -8.944272 0 
C -8.944272 2.372049 -8.001847 4.647264 -6.324555 6.324555 
C -4.647264 8.001847 -2.372049 8.944272 0 8.944272 
z
"/>
    </defs>
    <g clip-path="url(#pceb254edcf)">
     <use xlink:href="#C0_0_5295e4d7fa" x="118.300271" y="60.451108" style="fill: #0a7d8c; stroke: #0a7d8c; stroke-width: 0.5"/>
    </g>
    <g clip-path="url(#pceb254edcf)">
     <use xlink:href="#C0_0_5295e4d7fa" x="71.256612" y="62.582095" style="fill: #0a7d8c; stroke: #0a7d8c; stroke-width: 0.5"/>
    </g>
    <g clip-path="url(#pceb254edcf)">
     <use xlink:href="#C0_0_5295e4d7fa" x="135.416991" y="53.803636" style="fill: #0a7d8c; stroke: #0a7d8c; stroke-width: 0.5"/>
    </g>
    <g clip-path="url(#pceb254edcf)">
     <use xlink:href="#C0_0_5295e4d7fa" x="103.355108" y="54.148984" style="fill: #0a7d8c; stroke: #0a7d8c; stroke-width: 0.5"/>
    </g>
    <g clip-path="url(#pceb254edcf)">
     <use xlink:href="#C0_0_5295e4d7fa" x="153.227877" y="75.619239" style="fill: #0a7d8c; stroke: #0a7d8c; stroke-width: 0.5"/>
    </g>
    <g clip-path="url(#pceb254edcf)">
     <use xlink:href="#C0_0_5295e4d7fa" x="86.070257" y="61.810269" style="fill: #0a7d8c; stroke: #0a7d8c; stroke-width: 0.5"/>
    </g>
    <g clip-path="url(#pceb254edcf)">
     <use xlink:href="#C0_0_5295e4d7fa" x="122.985207" y="77.275632" style="fill: #0a7d8c; stroke: #0a7d8c; stroke-width: 0.5"/>
    </g>
    <g clip-path="url(#pceb254edcf)">
     <use xlink:href="#C0_0_5295e4d7fa" x="86.349758" y="75.449963" style="fill: #0a7d8c; stroke: #0a7d8c; stroke-width: 0.5"/>
    </g>
    <g clip-path="url(#pceb254edcf)">
     <use xlink:href="#C0_0_5295e4d7fa" x="164.501658" y="86.68407" style="fill: #0a7d8c; stroke: #0a7d8c; stroke-width: 0.5"/>
    </g>
    <g clip-path="url(#pceb254edcf)">
     <use xlink:href="#C0_0_5295e4d7fa" x="111.785209" y="76.358895" style="fill: #0a7d8c; stroke: #0a7d8c; stroke-width: 0.5"/>
    </g>
    <g clip-path="url(#pceb254edcf)">
     <use xlink:href="#C0_0_5295e4d7fa" x="145.785344" y="67.205842" style="fill: #0a7d8c; stroke: #0a7d8c; stroke-width: 0.5"/>
    </g>
    <g clip-path="url(#pceb254edcf)">
     <use xlink:href="#C0_0_5295e4d7fa" x="63.535521" y="76.367713" style="fill: #0a7d8c; stroke: #0a7d8c; stroke-width: 0.5"/>
    </g>
    <g clip-path="url(#pceb254edcf)">
     <use xlink:href="#C0_0_5295e4d7fa" x="80.041772" y="98.892812" style="fill: #0a7d8c; stroke: #0a7d8c; stroke-width: 0.5"/>
    </g>
    <g clip-path="url(#pceb254edcf)">
     <use xlink:href="#C0_0_5295e4d7fa" x="147.357928" y="97.410069" style="fill: #0a7d8c; stroke: #0a7d8c; stroke-width: 0.5"/>
    </g>
    <g clip-path="url(#pceb254edcf)">
     <use xlink:href="#C0_0_5295e4d7fa" x="104.401372" y="106.092585" style="fill: #0a7d8c; stroke: #0a7d8c; stroke-width: 0.5"/>
    </g>
    <g clip-path="url(#pceb254edcf)">
     <use xlink:href="#C0_0_5295e4d7fa" x="130.560136" y="102.032158" style="fill: #0a7d8c; stroke: #0a7d8c; stroke-width: 0.5"/>
    </g>
    <g clip-path="url(#pceb254edcf)">
     <use xlink:href="#C0_0_5295e4d7fa" x="64.065232" y="100.591841" style="fill: #0a7d8c; stroke: #0a7d8c; stroke-width: 0.5"/>
    </g>
    <g clip-path="url(#pceb254edcf)">
     <use xlink:href="#C0_0_5295e4d7fa" x="110.68453" y="119.721156" style="fill: #0a7d8c; stroke: #0a7d8c; stroke-width: 0.5"/>
    </g>
    <g clip-path="url(#pceb254edcf)">
     <use xlink:href="#C0_0_5295e4d7fa" x="81.754086" y="119.092271" style="fill: #0a7d8c; stroke: #0a7d8c; stroke-width: 0.5"/>
    </g>
    <g clip-path="url(#pceb254edcf)">
     <use xlink:href="#C0_0_5295e4d7fa" x="152.749203" y="124.002928" style="fill: #0a7d8c; stroke: #0a7d8c; stroke-width: 0.5"/>
    </g>
    <g clip-path="url(#pceb254edcf)">
     <use xlink:href="#C0_0_5295e4d7fa" x="119.2208" y="113.003447" style="fill: #0a7d8c; stroke: #0a7d8c; stroke-width: 0.5"/>
    </g>
    <g clip-path="url(#pceb254edcf)">
     <use xlink:href="#C0_0_5295e4d7fa" x="146.095391" y="115.327396" style="fill: #0a7d8c; stroke: #0a7d8c; stroke-width: 0.5"/>
    </g>
    <g clip-path="url(#pceb254edcf)">
     <use xlink:href="#C0_0_5295e4d7fa" x="64.604068" y="111.883256" style="fill: #0a7d8c; stroke: #0a7d8c; stroke-width: 0.5"/>
    </g>
    <g clip-path="url(#pceb254edcf)">
     <use xlink:href="#C0_0_5295e4d7fa" x="98.645858" y="97.409595" style="fill: #0a7d8c; stroke: #0a7d8c; stroke-width: 0.5"/>
    </g>
    <g clip-path="url(#pceb254edcf)">
     <use xlink:href="#C0_0_5295e4d7fa" x="70.763455" y="139.370141" style="fill: #0a7d8c; stroke: #0a7d8c; stroke-width: 0.5"/>
    </g>
    <g clip-path="url(#pceb254edcf)">
     <use xlink:href="#C0_0_5295e4d7fa" x="99.92001" y="136.68542" style="fill: #0a7d8c; stroke: #0a7d8c; stroke-width: 0.5"/>
    </g>
    <g clip-path="url(#pceb254edcf)">
     <use xlink:href="#C0_0_5295e4d7fa" x="127.520878" y="154.32479" style="fill: #0a7d8c; stroke: #0a7d8c; stroke-width: 0.5"/>
    </g>
    <g clip-path="url(#pceb254edcf)">
     <use xlink:href="#C0_0_5295e4d7fa" x="132.750612" y="133.779246" style="fill: #0a7d8c; stroke: #0a7d8c; stroke-width: 0.5"/>
    </g>
    <g clip-path="url(#pceb254edcf)">
     <use xlink:href="#C0_0_5295e4d7fa" x="94.905379" y="150.210575" style="fill: #0a7d8c; stroke: #0a7d8c; stroke-width: 0.5"/>
    </g>
    <g clip-path="url(#pceb254edcf)">
     <use xlink:href="#C0_0_5295e4d7fa" x="77.841606" y="158.901104" style="fill: #0a7d8c; stroke: #0a7d8c; stroke-width: 0.5"/>
    </g>
    <g clip-path="url(#pceb254edcf)">
     <use xlink:href="#C0_0_5295e4d7fa" x="62.53425" y="151.150598" style="fill: #0a7d8c; stroke: #0a7d8c; stroke-width: 0.5"/>
    </g>
    <g clip-path="url(#pceb254edcf)">
     <use xlink:href="#C0_0_5295e4d7fa" x="107.666896" y="163.578372" style="fill: #0a7d8c; stroke: #0a7d8c; stroke-width: 0.5"/>
    </g>
    <g clip-path="url(#pceb254edcf)">
     <use xlink:href="#C0_0_5295e4d7fa" x="151.527878" y="143.166015" style="fill: #0a7d8c; stroke: #0a7d8c; stroke-width: 0.5"/>
    </g>
    <g clip-path="url(#pceb254edcf)">
     <use xlink:href="#C0_0_5295e4d7fa" x="143.071129" y="162.988827" style="fill: #0a7d8c; stroke: #0a7d8c; stroke-width: 0.5"/>
    </g>
    <g clip-path="url(#pceb254edcf)">
     <use xlink:href="#C0_0_5295e4d7fa" x="106.383822" y="149.055055" style="fill: #0a7d8c; stroke: #0a7d8c; stroke-width: 0.5"/>
    </g>
    <g clip-path="url(#pceb254edcf)">
     <use xlink:href="#C0_0_5295e4d7fa" x="55.368595" y="136.033394" style="fill: #0a7d8c; stroke: #0a7d8c; stroke-width: 0.5"/>
    </g>
    <g clip-path="url(#pceb254edcf)">
     <use xlink:href="#C0_0_5295e4d7fa" x="214.977802" y="216.961014" style="fill: #bfbfbf; stroke: #bfbfbf; stroke-width: 0.5"/>
    </g>
    <g clip-path="url(#pceb254edcf)">
     <use xlink:href="#C0_0_5295e4d7fa" x="239.831405" y="183.701783" style="fill: #bfbfbf; stroke: #bfbfbf; stroke-width: 0.5"/>
    </g>
    <g clip-path="url(#pceb254edcf)">
     <use xlink:href="#C0_0_5295e4d7fa" x="77.376705" y="227.519086" style="fill: #bfbfbf; stroke: #bfbfbf; stroke-width: 0.5"/>
    </g>
    <g clip-path="url(#pceb254edcf)">
     <use xlink:href="#C0_0_5295e4d7fa" x="144.074059" y="237.076364" style="fill: #bfbfbf; stroke: #bfbfbf; stroke-width: 0.5"/>
    </g>
    <g clip-path="url(#pceb254edcf)">
     <use xlink:href="#C0_0_5295e4d7fa" x="144.479052" y="195.803278" style="fill: #666666; stroke: #666666; stroke-width: 0.5"/>
    </g>
    <g clip-path="url(#pceb254edcf)">
     <use xlink:href="#C0_0_5295e4d7fa" x="109.583375" y="193.741094" style="fill: #0d0dff; stroke: #0d0dff; stroke-width: 0.5"/>
    </g>
    <g clip-path="url(#pceb254edcf)">
     <use xlink:href="#C0_0_5295e4d7fa" x="188.183083" y="183.696625" style="fill: #0d0dff; stroke: #0d0dff; stroke-width: 0.5"/>
    </g>
   </g>
   <g id="text_1">
    <!-- CH4N2Rh48 -->
    <g transform="translate(120.583911 11.871216) scale(0.1 -0.1)">
     <defs>
      <path id="DejaVuSans-43" d="M 4122 4306 
L 4122 3641 
Q 3803 3938 3442 4084 
Q 3081 4231 2675 4231 
Q 1875 4231 1450 3742 
Q 1025 3253 1025 2328 
Q 1025 1406 1450 917 
Q 1875 428 2675 428 
Q 3081 428 3442 575 
Q 3803 722 4122 1019 
L 4122 359 
Q 3791 134 3420 21 
Q 3050 -91 2638 -91 
Q 1578 -91 968 557 
Q 359 1206 359 2328 
Q 359 3453 968 4101 
Q 1578 4750 2638 4750 
Q 3056 4750 3426 4639 
Q 3797 4528 4122 4306 
z
" transform="scale(0.015625)"/>
      <path id="DejaVuSans-48" d="M 628 4666 
L 1259 4666 
L 1259 2753 
L 3553 2753 
L 3553 4666 
L 4184 4666 
L 4184 0 
L 3553 0 
L 3553 2222 
L 1259 2222 
L 1259 0 
L 628 0 
L 628 4666 
z
" transform="scale(0.015625)"/>
      <path id="DejaVuSans-34" d="M 2419 4116 
L 825 1625 
L 2419 1625 
L 2419 4116 
z
M 2253 4666 
L 3047 4666 
L 3047 1625 
L 3713 1625 
L 3713 1100 
L 3047 1100 
L 3047 0 
L 2419 0 
L 2419 1100 
L 313 1100 
L 313 1709 
L 2253 4666 
z
" transform="scale(0.015625)"/>
      <path id="DejaVuSans-4e" d="M 628 4666 
L 1478 4666 
L 3547 763 
L 3547 4666 
L 4159 4666 
L 4159 0 
L 3309 0 
L 1241 3903 
L 1241 0 
L 628 0 
L 628 4666 
z
" transform="scale(0.015625)"/>
      <path id="DejaVuSans-32" d="M 1228 531 
L 3431 531 
L 3431 0 
L 469 0 
L 469 531 
Q 828 903 1448 1529 
Q 2069 2156 2228 2338 
Q 2531 2678 2651 2914 
Q 2772 3150 2772 3378 
Q 2772 3750 2511 3984 
Q 2250 4219 1831 4219 
Q 1534 4219 1204 4116 
Q 875 4013 500 3803 
L 500 4441 
Q 881 4594 1212 4672 
Q 1544 4750 1819 4750 
Q 2544 4750 2975 4387 
Q 3406 4025 3406 3419 
Q 3406 3131 3298 2873 
Q 3191 2616 2906 2266 
Q 2828 2175 2409 1742 
Q 1991 1309 1228 531 
z
" transform="scale(0.015625)"/>
      <path id="DejaVuSans-52" d="M 2841 2188 
Q 3044 2119 3236 1894 
Q 3428 1669 3622 1275 
L 4263 0 
L 3584 0 
L 2988 1197 
Q 2756 1666 2539 1819 
Q 2322 1972 1947 1972 
L 1259 1972 
L 1259 0 
L 628 0 
L 628 4666 
L 2053 4666 
Q 2853 4666 3247 4331 
Q 3641 3997 3641 3322 
Q 3641 2881 3436 2590 
Q 3231 2300 2841 2188 
z
M 1259 4147 
L 1259 2491 
L 2053 2491 
Q 2509 2491 2742 2702 
Q 2975 2913 2975 3322 
Q 2975 3731 2742 3939 
Q 2509 4147 2053 4147 
L 1259 4147 
z
" transform="scale(0.015625)"/>
      <path id="DejaVuSans-68" d="M 3513 2113 
L 3513 0 
L 2938 0 
L 2938 2094 
Q 2938 2591 2744 2837 
Q 2550 3084 2163 3084 
Q 1697 3084 1428 2787 
Q 1159 2491 1159 1978 
L 1159 0 
L 581 0 
L 581 4863 
L 1159 4863 
L 1159 2956 
Q 1366 3272 1645 3428 
Q 1925 3584 2291 3584 
Q 2894 3584 3203 3211 
Q 3513 2838 3513 2113 
z
" transform="scale(0.015625)"/>
      <path id="DejaVuSans-38" d="M 2034 2216 
Q 1584 2216 1326 1975 
Q 1069 1734 1069 1313 
Q 1069 891 1326 650 
Q 1584 409 2034 409 
Q 2484 409 2743 651 
Q 3003 894 3003 1313 
Q 3003 1734 2745 1975 
Q 2488 2216 2034 2216 
z
M 1403 2484 
Q 997 2584 770 2862 
Q 544 3141 544 3541 
Q 544 4100 942 4425 
Q 1341 4750 2034 4750 
Q 2731 4750 3128 4425 
Q 3525 4100 3525 3541 
Q 3525 3141 3298 2862 
Q 3072 2584 2669 2484 
Q 3125 2378 3379 2068 
Q 3634 1759 3634 1313 
Q 3634 634 3220 271 
Q 2806 -91 2034 -91 
Q 1263 -91 848 271 
Q 434 634 434 1313 
Q 434 1759 690 2068 
Q 947 2378 1403 2484 
z
M 1172 3481 
Q 1172 3119 1398 2916 
Q 1625 2713 2034 2713 
Q 2441 2713 2670 2916 
Q 2900 3119 2900 3481 
Q 2900 3844 2670 4047 
Q 2441 4250 2034 4250 
Q 1625 4250 1398 4047 
Q 1172 3844 1172 3481 
z
" transform="scale(0.015625)"/>
     </defs>
     <use xlink:href="#DejaVuSans-43"/>
     <use xlink:href="#DejaVuSans-48" transform="translate(69.824219 0)"/>
     <use xlink:href="#DejaVuSans-34" transform="translate(145.019531 0)"/>
     <use xlink:href="#DejaVuSans-4e" transform="translate(208.642578 0)"/>
     <use xlink:href="#DejaVuSans-32" transform="translate(283.447266 0)"/>
     <use xlink:href="#DejaVuSans-52" transform="translate(347.070312 0)"/>
     <use xlink:href="#DejaVuSans-68" transform="translate(416.552734 0)"/>
     <use xlink:href="#DejaVuSans-34" transform="translate(479.931641 0)"/>
     <use xlink:href="#DejaVuSans-38" transform="translate(543.554688 0)"/>
    </g>
    <!-- Error: -8.06 eV -->
    <g transform="translate(120.583911 23.069029) scale(0.1 -0.1)">
     <defs>
      <path id="DejaVuSans-45" d="M 628 4666 
L 3578 4666 
L 3578 4134 
L 1259 4134 
L 1259 2753 
L 3481 2753 
L 3481 2222 
L 1259 2222 
L 1259 531 
L 3634 531 
L 3634 0 
L 628 0 
L 628 4666 
z
" transform="scale(0.015625)"/>
      <path id="DejaVuSans-72" d="M 2631 2963 
Q 2534 3019 2420 3045 
Q 2306 3072 2169 3072 
Q 1681 3072 1420 2755 
Q 1159 2438 1159 1844 
L 1159 0 
L 581 0 
L 581 3500 
L 1159 3500 
L 1159 2956 
Q 1341 3275 1631 3429 
Q 1922 3584 2338 3584 
Q 2397 3584 2469 3576 
Q 2541 3569 2628 3553 
L 2631 2963 
z
" transform="scale(0.015625)"/>
      <path id="DejaVuSans-6f" d="M 1959 3097 
Q 1497 3097 1228 2736 
Q 959 2375 959 1747 
Q 959 1119 1226 758 
Q 1494 397 1959 397 
Q 2419 397 2687 759 
Q 2956 1122 2956 1747 
Q 2956 2369 2687 2733 
Q 2419 3097 1959 3097 
z
M 1959 3584 
Q 2709 3584 3137 3096 
Q 3566 2609 3566 1747 
Q 3566 888 3137 398 
Q 2709 -91 1959 -91 
Q 1206 -91 779 398 
Q 353 888 353 1747 
Q 353 2609 779 3096 
Q 1206 3584 1959 3584 
z
" transform="scale(0.015625)"/>
      <path id="DejaVuSans-3a" d="M 750 794 
L 1409 794 
L 1409 0 
L 750 0 
L 750 794 
z
M 750 3309 
L 1409 3309 
L 1409 2516 
L 750 2516 
L 750 3309 
z
" transform="scale(0.015625)"/>
      <path id="DejaVuSans-20" transform="scale(0.015625)"/>
      <path id="DejaVuSans-2d" d="M 313 2009 
L 1997 2009 
L 1997 1497 
L 313 1497 
L 313 2009 
z
" transform="scale(0.015625)"/>
      <path id="DejaVuSans-2e" d="M 684 794 
L 1344 794 
L 1344 0 
L 684 0 
L 684 794 
z
" transform="scale(0.015625)"/>
      <path id="DejaVuSans-30" d="M 2034 4250 
Q 1547 4250 1301 3770 
Q 1056 3291 1056 2328 
Q 1056 1369 1301 889 
Q 1547 409 2034 409 
Q 2525 409 2770 889 
Q 3016 1369 3016 2328 
Q 3016 3291 2770 3770 
Q 2525 4250 2034 4250 
z
M 2034 4750 
Q 2819 4750 3233 4129 
Q 3647 3509 3647 2328 
Q 3647 1150 3233 529 
Q 2819 -91 2034 -91 
Q 1250 -91 836 529 
Q 422 1150 422 2328 
Q 422 3509 836 4129 
Q 1250 4750 2034 4750 
z
" transform="scale(0.015625)"/>
      <path id="DejaVuSans-36" d="M 2113 2584 
Q 1688 2584 1439 2293 
Q 1191 2003 1191 1497 
Q 1191 994 1439 701 
Q 1688 409 2113 409 
Q 2538 409 2786 701 
Q 3034 994 3034 1497 
Q 3034 2003 2786 2293 
Q 2538 2584 2113 2584 
z
M 3366 4563 
L 3366 3988 
Q 3128 4100 2886 4159 
Q 2644 4219 2406 4219 
Q 1781 4219 1451 3797 
Q 1122 3375 1075 2522 
Q 1259 2794 1537 2939 
Q 1816 3084 2150 3084 
Q 2853 3084 3261 2657 
Q 3669 2231 3669 1497 
Q 3669 778 3244 343 
Q 2819 -91 2113 -91 
Q 1303 -91 875 529 
Q 447 1150 447 2328 
Q 447 3434 972 4092 
Q 1497 4750 2381 4750 
Q 2619 4750 2861 4703 
Q 3103 4656 3366 4563 
z
" transform="scale(0.015625)"/>
      <path id="DejaVuSans-65" d="M 3597 1894 
L 3597 1613 
L 953 1613 
Q 991 1019 1311 708 
Q 1631 397 2203 397 
Q 2534 397 2845 478 
Q 3156 559 3463 722 
L 3463 178 
Q 3153 47 2828 -22 
Q 2503 -91 2169 -91 
Q 1331 -91 842 396 
Q 353 884 353 1716 
Q 353 2575 817 3079 
Q 1281 3584 2069 3584 
Q 2775 3584 3186 3129 
Q 3597 2675 3597 1894 
z
M 3022 2063 
Q 3016 2534 2758 2815 
Q 2500 3097 2075 3097 
Q 1594 3097 1305 2825 
Q 1016 2553 972 2059 
L 3022 2063 
z
" transform="scale(0.015625)"/>
      <path id="DejaVuSans-56" d="M 1831 0 
L 50 4666 
L 709 4666 
L 2188 738 
L 3669 4666 
L 4325 4666 
L 2547 0 
L 1831 0 
z
" transform="scale(0.015625)"/>
     </defs>
     <use xlink:href="#DejaVuSans-45"/>
     <use xlink:href="#DejaVuSans-72" transform="translate(63.183594 0)"/>
     <use xlink:href="#DejaVuSans-72" transform="translate(102.546875 0)"/>
     <use xlink:href="#DejaVuSans-6f" transform="translate(141.410156 0)"/>
     <use xlink:href="#DejaVuSans-72" transform="translate(202.591797 0)"/>
     <use xlink:href="#DejaVuSans-3a" transform="translate(241.955078 0)"/>
     <use xlink:href="#DejaVuSans-20" transform="translate(275.646484 0)"/>
     <use xlink:href="#DejaVuSans-2d" transform="translate(307.433594 0)"/>
     <use xlink:href="#DejaVuSans-38" transform="translate(343.517578 0)"/>
     <use xlink:href="#DejaVuSans-2e" transform="translate(407.140625 0)"/>
     <use xlink:href="#DejaVuSans-30" transform="translate(438.927734 0)"/>
     <use xlink:href="#DejaVuSans-36" transform="translate(502.550781 0)"/>
     <use xlink:href="#DejaVuSans-20" transform="translate(566.173828 0)"/>
     <use xlink:href="#DejaVuSans-65" transform="translate(597.960938 0)"/>
     <use xlink:href="#DejaVuSans-56" transform="translate(659.484375 0)"/>
    </g>
   </g>
  </g>
 </g>
 <defs>
  <clipPath id="pceb254edcf">
   <rect x="36" y="34.56" width="223.2" height="221.76"/>
  </clipPath>
 </defs>
</svg>
