<?xml version="1.0" encoding="utf-8" standalone="no"?>
<!DOCTYPE svg PUBLIC "-//W3C//DTD SVG 1.1//EN"
  "http://www.w3.org/Graphics/SVG/1.1/DTD/svg11.dtd">
<svg xmlns:xlink="http://www.w3.org/1999/xlink" width="288pt" height="288pt" viewBox="0 0 288 288" xmlns="http://www.w3.org/2000/svg" version="1.1">
 <metadata>
  <rdf:RDF xmlns:dc="http://purl.org/dc/elements/1.1/" xmlns:cc="http://creativecommons.org/ns#" xmlns:rdf="http://www.w3.org/1999/02/22-rdf-syntax-ns#">
   <cc:Work>
    <dc:type rdf:resource="http://purl.org/dc/dcmitype/StillImage"/>
    <dc:date>2025-06-30T12:10:42.771614</dc:date>
    <dc:format>image/svg+xml</dc:format>
    <dc:creator>
     <cc:Agent>
      <dc:title>Matplotlib v3.10.1, https://matplotlib.org/</dc:title>
     </cc:Agent>
    </dc:creator>
   </cc:Work>
  </rdf:RDF>
 </metadata>
 <defs>
  <style type="text/css">*{stroke-linejoin: round; stroke-linecap: butt}</style>
 </defs>
 <g id="figure_1">
  <g id="patch_1">
   <path d="M 0 288 
L 288 288 
L 288 0 
L 0 0 
z
" style="fill: #ffffff"/>
  </g>
  <g id="axes_1">
   <g id="LineCollection_1">
    <path d="M 175.319795 64.564301 
L 147.482211 53.803636 
" clip-path="url(#p4fb8618b1a)" style="fill: none; stroke: #000000; stroke-width: 1.2"/>
    <path d="M 175.319795 64.564301 
L 111.872028 55.487603 
" clip-path="url(#p4fb8618b1a)" style="fill: none; stroke: #000000; stroke-width: 1.2"/>
    <path d="M 175.319795 64.564301 
L 127.266534 69.458998 
" clip-path="url(#p4fb8618b1a)" style="fill: none; stroke: #000000; stroke-width: 1.2"/>
    <path d="M 175.319795 64.564301 
L 152.133722 65.440353 
" clip-path="url(#p4fb8618b1a)" style="fill: none; stroke: #000000; stroke-width: 1.2"/>
    <path d="M 175.319795 64.564301 
L 149.648073 83.448301 
" clip-path="url(#p4fb8618b1a)" style="fill: none; stroke: #000000; stroke-width: 1.2"/>
    <path d="M 175.319795 64.564301 
L 167.06955 115.550396 
" clip-path="url(#p4fb8618b1a)" style="fill: none; stroke: #000000; stroke-width: 1.2"/>
    <path d="M 175.319795 64.564301 
L 183.082229 95.179605 
" clip-path="url(#p4fb8618b1a)" style="fill: none; stroke: #000000; stroke-width: 1.2"/>
    <path d="M 175.319795 64.564301 
L 129.894519 93.15926 
" clip-path="url(#p4fb8618b1a)" style="fill: none; stroke: #000000; stroke-width: 1.2"/>
    <path d="M 175.319795 64.564301 
L 173.53493 98.425129 
" clip-path="url(#p4fb8618b1a)" style="fill: none; stroke: #000000; stroke-width: 1.2"/>
    <path d="M 147.482211 53.803636 
L 111.872028 55.487603 
" clip-path="url(#p4fb8618b1a)" style="fill: none; stroke: #000000; stroke-width: 1.2"/>
    <path d="M 147.482211 53.803636 
L 175.072087 73.893944 
" clip-path="url(#p4fb8618b1a)" style="fill: none; stroke: #000000; stroke-width: 1.2"/>
    <path d="M 147.482211 53.803636 
L 106.516355 62.76325 
" clip-path="url(#p4fb8618b1a)" style="fill: none; stroke: #000000; stroke-width: 1.2"/>
    <path d="M 147.482211 53.803636 
L 149.648073 83.448301 
" clip-path="url(#p4fb8618b1a)" style="fill: none; stroke: #000000; stroke-width: 1.2"/>
    <path d="M 147.482211 53.803636 
L 95.118333 81.288036 
" clip-path="url(#p4fb8618b1a)" style="fill: none; stroke: #000000; stroke-width: 1.2"/>
    <path d="M 147.482211 53.803636 
L 145.778904 105.045518 
" clip-path="url(#p4fb8618b1a)" style="fill: none; stroke: #000000; stroke-width: 1.2"/>
    <path d="M 147.482211 53.803636 
L 139.815752 87.157505 
" clip-path="url(#p4fb8618b1a)" style="fill: none; stroke: #000000; stroke-width: 1.2"/>
    <path d="M 147.482211 53.803636 
L 183.082229 95.179605 
" clip-path="url(#p4fb8618b1a)" style="fill: none; stroke: #000000; stroke-width: 1.2"/>
    <path d="M 111.872028 55.487603 
L 71.687091 60.54697 
" clip-path="url(#p4fb8618b1a)" style="fill: none; stroke: #000000; stroke-width: 1.2"/>
    <path d="M 111.872028 55.487603 
L 127.266534 69.458998 
" clip-path="url(#p4fb8618b1a)" style="fill: none; stroke: #000000; stroke-width: 1.2"/>
    <path d="M 111.872028 55.487603 
L 152.133722 65.440353 
" clip-path="url(#p4fb8618b1a)" style="fill: none; stroke: #000000; stroke-width: 1.2"/>
    <path d="M 111.872028 55.487603 
L 59.475921 79.712213 
" clip-path="url(#p4fb8618b1a)" style="fill: none; stroke: #000000; stroke-width: 1.2"/>
    <path d="M 111.872028 55.487603 
L 149.648073 83.448301 
" clip-path="url(#p4fb8618b1a)" style="fill: none; stroke: #000000; stroke-width: 1.2"/>
    <path d="M 111.872028 55.487603 
L 95.118333 81.288036 
" clip-path="url(#p4fb8618b1a)" style="fill: none; stroke: #000000; stroke-width: 1.2"/>
    <path d="M 111.872028 55.487603 
L 103.372955 106.364473 
" clip-path="url(#p4fb8618b1a)" style="fill: none; stroke: #000000; stroke-width: 1.2"/>
    <path d="M 111.872028 55.487603 
L 102.049928 86.89635 
" clip-path="url(#p4fb8618b1a)" style="fill: none; stroke: #000000; stroke-width: 1.2"/>
    <path d="M 111.872028 55.487603 
L 129.894519 93.15926 
" clip-path="url(#p4fb8618b1a)" style="fill: none; stroke: #000000; stroke-width: 1.2"/>
    <path d="M 71.687091 60.54697 
L 127.266534 69.458998 
" clip-path="url(#p4fb8618b1a)" style="fill: none; stroke: #000000; stroke-width: 1.2"/>
    <path d="M 71.687091 60.54697 
L 106.516355 62.76325 
" clip-path="url(#p4fb8618b1a)" style="fill: none; stroke: #000000; stroke-width: 1.2"/>
    <path d="M 71.687091 60.54697 
L 59.475921 79.712213 
" clip-path="url(#p4fb8618b1a)" style="fill: none; stroke: #000000; stroke-width: 1.2"/>
    <path d="M 71.687091 60.54697 
L 55.368595 88.352633 
" clip-path="url(#p4fb8618b1a)" style="fill: none; stroke: #000000; stroke-width: 1.2"/>
    <path d="M 71.687091 60.54697 
L 58.47366 106.201604 
" clip-path="url(#p4fb8618b1a)" style="fill: none; stroke: #000000; stroke-width: 1.2"/>
    <path d="M 71.687091 60.54697 
L 102.049928 86.89635 
" clip-path="url(#p4fb8618b1a)" style="fill: none; stroke: #000000; stroke-width: 1.2"/>
    <path d="M 71.687091 60.54697 
L 80.375082 95.575878 
" clip-path="url(#p4fb8618b1a)" style="fill: none; stroke: #000000; stroke-width: 1.2"/>
    <path d="M 175.072087 73.893944 
L 127.266534 69.458998 
" clip-path="url(#p4fb8618b1a)" style="fill: none; stroke: #000000; stroke-width: 1.2"/>
    <path d="M 175.072087 73.893944 
L 152.133722 65.440353 
" clip-path="url(#p4fb8618b1a)" style="fill: none; stroke: #000000; stroke-width: 1.2"/>
    <path d="M 175.072087 73.893944 
L 106.516355 62.76325 
" clip-path="url(#p4fb8618b1a)" style="fill: none; stroke: #000000; stroke-width: 1.2"/>
    <path d="M 175.072087 73.893944 
L 139.815752 87.157505 
" clip-path="url(#p4fb8618b1a)" style="fill: none; stroke: #000000; stroke-width: 1.2"/>
    <path d="M 175.072087 73.893944 
L 183.082229 95.179605 
" clip-path="url(#p4fb8618b1a)" style="fill: none; stroke: #000000; stroke-width: 1.2"/>
    <path d="M 175.072087 73.893944 
L 162.257548 123.632695 
" clip-path="url(#p4fb8618b1a)" style="fill: none; stroke: #000000; stroke-width: 1.2"/>
    <path d="M 175.072087 73.893944 
L 173.53493 98.425129 
" clip-path="url(#p4fb8618b1a)" style="fill: none; stroke: #000000; stroke-width: 1.2"/>
    <path d="M 175.072087 73.893944 
L 130.459106 103.541618 
" clip-path="url(#p4fb8618b1a)" style="fill: none; stroke: #000000; stroke-width: 1.2"/>
    <path d="M 127.266534 69.458998 
L 152.133722 65.440353 
" clip-path="url(#p4fb8618b1a)" style="fill: none; stroke: #000000; stroke-width: 1.2"/>
    <path d="M 127.266534 69.458998 
L 106.516355 62.76325 
" clip-path="url(#p4fb8618b1a)" style="fill: none; stroke: #000000; stroke-width: 1.2"/>
    <path d="M 127.266534 69.458998 
L 102.049928 86.89635 
" clip-path="url(#p4fb8618b1a)" style="fill: none; stroke: #000000; stroke-width: 1.2"/>
    <path d="M 127.266534 69.458998 
L 129.894519 93.15926 
" clip-path="url(#p4fb8618b1a)" style="fill: none; stroke: #000000; stroke-width: 1.2"/>
    <path d="M 127.266534 69.458998 
L 80.375082 95.575878 
" clip-path="url(#p4fb8618b1a)" style="fill: none; stroke: #000000; stroke-width: 1.2"/>
    <path d="M 127.266534 69.458998 
L 116.852108 122.255214 
" clip-path="url(#p4fb8618b1a)" style="fill: none; stroke: #000000; stroke-width: 1.2"/>
    <path d="M 127.266534 69.458998 
L 173.53493 98.425129 
" clip-path="url(#p4fb8618b1a)" style="fill: none; stroke: #000000; stroke-width: 1.2"/>
    <path d="M 127.266534 69.458998 
L 130.459106 103.541618 
" clip-path="url(#p4fb8618b1a)" style="fill: none; stroke: #000000; stroke-width: 1.2"/>
    <path d="M 152.133722 65.440353 
L 106.516355 62.76325 
" clip-path="url(#p4fb8618b1a)" style="fill: none; stroke: #000000; stroke-width: 1.2"/>
    <path d="M 152.133722 65.440353 
L 149.648073 83.448301 
" clip-path="url(#p4fb8618b1a)" style="fill: none; stroke: #000000; stroke-width: 1.2"/>
    <path d="M 152.133722 65.440353 
L 139.815752 87.157505 
" clip-path="url(#p4fb8618b1a)" style="fill: none; stroke: #000000; stroke-width: 1.2"/>
    <path d="M 152.133722 65.440353 
L 102.049928 86.89635 
" clip-path="url(#p4fb8618b1a)" style="fill: none; stroke: #000000; stroke-width: 1.2"/>
    <path d="M 152.133722 65.440353 
L 144.140785 125.144938 
" clip-path="url(#p4fb8618b1a)" style="fill: none; stroke: #000000; stroke-width: 1.2"/>
    <path d="M 152.133722 65.440353 
L 173.53493 98.425129 
" clip-path="url(#p4fb8618b1a)" style="fill: none; stroke: #000000; stroke-width: 1.2"/>
    <path d="M 106.516355 62.76325 
L 95.118333 81.288036 
" clip-path="url(#p4fb8618b1a)" style="fill: none; stroke: #000000; stroke-width: 1.2"/>
    <path d="M 106.516355 62.76325 
L 55.368595 88.352633 
" clip-path="url(#p4fb8618b1a)" style="fill: none; stroke: #000000; stroke-width: 1.2"/>
    <path d="M 106.516355 62.76325 
L 139.815752 87.157505 
" clip-path="url(#p4fb8618b1a)" style="fill: none; stroke: #000000; stroke-width: 1.2"/>
    <path d="M 106.516355 62.76325 
L 102.049928 86.89635 
" clip-path="url(#p4fb8618b1a)" style="fill: none; stroke: #000000; stroke-width: 1.2"/>
    <path d="M 106.516355 62.76325 
L 98.812233 114.089879 
" clip-path="url(#p4fb8618b1a)" style="fill: none; stroke: #000000; stroke-width: 1.2"/>
    <path d="M 106.516355 62.76325 
L 130.459106 103.541618 
" clip-path="url(#p4fb8618b1a)" style="fill: none; stroke: #000000; stroke-width: 1.2"/>
    <path d="M 59.475921 79.712213 
L 57.018455 116.193989 
" clip-path="url(#p4fb8618b1a)" style="fill: none; stroke: #000000; stroke-width: 1.2"/>
    <path d="M 59.475921 79.712213 
L 95.118333 81.288036 
" clip-path="url(#p4fb8618b1a)" style="fill: none; stroke: #000000; stroke-width: 1.2"/>
    <path d="M 59.475921 79.712213 
L 103.372955 106.364473 
" clip-path="url(#p4fb8618b1a)" style="fill: none; stroke: #000000; stroke-width: 1.2"/>
    <path d="M 59.475921 79.712213 
L 58.47366 106.201604 
" clip-path="url(#p4fb8618b1a)" style="fill: none; stroke: #000000; stroke-width: 1.2"/>
    <path d="M 59.475921 79.712213 
L 102.049928 86.89635 
" clip-path="url(#p4fb8618b1a)" style="fill: none; stroke: #000000; stroke-width: 1.2"/>
    <path d="M 59.475921 79.712213 
L 76.182563 125.826257 
" clip-path="url(#p4fb8618b1a)" style="fill: none; stroke: #000000; stroke-width: 1.2"/>
    <path d="M 57.018455 116.193989 
L 95.118333 81.288036 
" clip-path="url(#p4fb8618b1a)" style="fill: none; stroke: #000000; stroke-width: 1.2"/>
    <path d="M 57.018455 116.193989 
L 103.372955 106.364473 
" clip-path="url(#p4fb8618b1a)" style="fill: none; stroke: #000000; stroke-width: 1.2"/>
    <path d="M 57.018455 116.193989 
L 55.368595 88.352633 
" clip-path="url(#p4fb8618b1a)" style="fill: none; stroke: #000000; stroke-width: 1.2"/>
    <path d="M 57.018455 116.193989 
L 98.812233 114.089879 
" clip-path="url(#p4fb8618b1a)" style="fill: none; stroke: #000000; stroke-width: 1.2"/>
    <path d="M 57.018455 116.193989 
L 76.182563 125.826257 
" clip-path="url(#p4fb8618b1a)" style="fill: none; stroke: #000000; stroke-width: 1.2"/>
    <path d="M 57.018455 116.193989 
L 119.402067 129.671603 
" clip-path="url(#p4fb8618b1a)" style="fill: none; stroke: #000000; stroke-width: 1.2"/>
    <path d="M 57.018455 116.193989 
L 77.550347 134.222166 
" clip-path="url(#p4fb8618b1a)" style="fill: none; stroke: #000000; stroke-width: 1.2"/>
    <path d="M 149.648073 83.448301 
L 95.118333 81.288036 
" clip-path="url(#p4fb8618b1a)" style="fill: none; stroke: #000000; stroke-width: 1.2"/>
    <path d="M 149.648073 83.448301 
L 145.778904 105.045518 
" clip-path="url(#p4fb8618b1a)" style="fill: none; stroke: #000000; stroke-width: 1.2"/>
    <path d="M 149.648073 83.448301 
L 103.372955 106.364473 
" clip-path="url(#p4fb8618b1a)" style="fill: none; stroke: #000000; stroke-width: 1.2"/>
    <path d="M 149.648073 83.448301 
L 102.049928 86.89635 
" clip-path="url(#p4fb8618b1a)" style="fill: none; stroke: #000000; stroke-width: 1.2"/>
    <path d="M 149.648073 83.448301 
L 144.140785 125.144938 
" clip-path="url(#p4fb8618b1a)" style="fill: none; stroke: #000000; stroke-width: 1.2"/>
    <path d="M 149.648073 83.448301 
L 167.06955 115.550396 
" clip-path="url(#p4fb8618b1a)" style="fill: none; stroke: #000000; stroke-width: 1.2"/>
    <path d="M 95.118333 81.288036 
L 145.778904 105.045518 
" clip-path="url(#p4fb8618b1a)" style="fill: none; stroke: #000000; stroke-width: 1.2"/>
    <path d="M 95.118333 81.288036 
L 103.372955 106.364473 
" clip-path="url(#p4fb8618b1a)" style="fill: none; stroke: #000000; stroke-width: 1.2"/>
    <path d="M 95.118333 81.288036 
L 55.368595 88.352633 
" clip-path="url(#p4fb8618b1a)" style="fill: none; stroke: #000000; stroke-width: 1.2"/>
    <path d="M 95.118333 81.288036 
L 139.815752 87.157505 
" clip-path="url(#p4fb8618b1a)" style="fill: none; stroke: #000000; stroke-width: 1.2"/>
    <path d="M 95.118333 81.288036 
L 98.812233 114.089879 
" clip-path="url(#p4fb8618b1a)" style="fill: none; stroke: #000000; stroke-width: 1.2"/>
    <path d="M 95.118333 81.288036 
L 119.402067 129.671603 
" clip-path="url(#p4fb8618b1a)" style="fill: none; stroke: #000000; stroke-width: 1.2"/>
    <path d="M 145.778904 105.045518 
L 103.372955 106.364473 
" clip-path="url(#p4fb8618b1a)" style="fill: none; stroke: #000000; stroke-width: 1.2"/>
    <path d="M 145.778904 105.045518 
L 139.815752 87.157505 
" clip-path="url(#p4fb8618b1a)" style="fill: none; stroke: #000000; stroke-width: 1.2"/>
    <path d="M 145.778904 105.045518 
L 98.812233 114.089879 
" clip-path="url(#p4fb8618b1a)" style="fill: none; stroke: #000000; stroke-width: 1.2"/>
    <path d="M 145.778904 105.045518 
L 167.06955 115.550396 
" clip-path="url(#p4fb8618b1a)" style="fill: none; stroke: #000000; stroke-width: 1.2"/>
    <path d="M 145.778904 105.045518 
L 119.402067 129.671603 
" clip-path="url(#p4fb8618b1a)" style="fill: none; stroke: #000000; stroke-width: 1.2"/>
    <path d="M 145.778904 105.045518 
L 183.082229 95.179605 
" clip-path="url(#p4fb8618b1a)" style="fill: none; stroke: #000000; stroke-width: 1.2"/>
    <path d="M 145.778904 105.045518 
L 162.257548 123.632695 
" clip-path="url(#p4fb8618b1a)" style="fill: none; stroke: #000000; stroke-width: 1.2"/>
    <path d="M 103.372955 106.364473 
L 58.47366 106.201604 
" clip-path="url(#p4fb8618b1a)" style="fill: none; stroke: #000000; stroke-width: 1.2"/>
    <path d="M 103.372955 106.364473 
L 102.049928 86.89635 
" clip-path="url(#p4fb8618b1a)" style="fill: none; stroke: #000000; stroke-width: 1.2"/>
    <path d="M 103.372955 106.364473 
L 144.140785 125.144938 
" clip-path="url(#p4fb8618b1a)" style="fill: none; stroke: #000000; stroke-width: 1.2"/>
    <path d="M 103.372955 106.364473 
L 76.182563 125.826257 
" clip-path="url(#p4fb8618b1a)" style="fill: none; stroke: #000000; stroke-width: 1.2"/>
    <path d="M 103.372955 106.364473 
L 167.06955 115.550396 
" clip-path="url(#p4fb8618b1a)" style="fill: none; stroke: #000000; stroke-width: 1.2"/>
    <path d="M 103.372955 106.364473 
L 119.402067 129.671603 
" clip-path="url(#p4fb8618b1a)" style="fill: none; stroke: #000000; stroke-width: 1.2"/>
    <path d="M 103.372955 106.364473 
L 129.894519 93.15926 
" clip-path="url(#p4fb8618b1a)" style="fill: none; stroke: #000000; stroke-width: 1.2"/>
    <path d="M 103.372955 106.364473 
L 116.852108 122.255214 
" clip-path="url(#p4fb8618b1a)" style="fill: none; stroke: #000000; stroke-width: 1.2"/>
    <path d="M 55.368595 88.352633 
L 58.47366 106.201604 
" clip-path="url(#p4fb8618b1a)" style="fill: none; stroke: #000000; stroke-width: 1.2"/>
    <path d="M 55.368595 88.352633 
L 102.049928 86.89635 
" clip-path="url(#p4fb8618b1a)" style="fill: none; stroke: #000000; stroke-width: 1.2"/>
    <path d="M 55.368595 88.352633 
L 98.812233 114.089879 
" clip-path="url(#p4fb8618b1a)" style="fill: none; stroke: #000000; stroke-width: 1.2"/>
    <path d="M 55.368595 88.352633 
L 77.550347 134.222166 
" clip-path="url(#p4fb8618b1a)" style="fill: none; stroke: #000000; stroke-width: 1.2"/>
    <path d="M 58.47366 106.201604 
L 102.049928 86.89635 
" clip-path="url(#p4fb8618b1a)" style="fill: none; stroke: #000000; stroke-width: 1.2"/>
    <path d="M 58.47366 106.201604 
L 98.812233 114.089879 
" clip-path="url(#p4fb8618b1a)" style="fill: none; stroke: #000000; stroke-width: 1.2"/>
    <path d="M 58.47366 106.201604 
L 76.182563 125.826257 
" clip-path="url(#p4fb8618b1a)" style="fill: none; stroke: #000000; stroke-width: 1.2"/>
    <path d="M 58.47366 106.201604 
L 77.550347 134.222166 
" clip-path="url(#p4fb8618b1a)" style="fill: none; stroke: #000000; stroke-width: 1.2"/>
    <path d="M 58.47366 106.201604 
L 80.375082 95.575878 
" clip-path="url(#p4fb8618b1a)" style="fill: none; stroke: #000000; stroke-width: 1.2"/>
    <path d="M 58.47366 106.201604 
L 116.852108 122.255214 
" clip-path="url(#p4fb8618b1a)" style="fill: none; stroke: #000000; stroke-width: 1.2"/>
    <path d="M 139.815752 87.157505 
L 102.049928 86.89635 
" clip-path="url(#p4fb8618b1a)" style="fill: none; stroke: #000000; stroke-width: 1.2"/>
    <path d="M 139.815752 87.157505 
L 144.140785 125.144938 
" clip-path="url(#p4fb8618b1a)" style="fill: none; stroke: #000000; stroke-width: 1.2"/>
    <path d="M 139.815752 87.157505 
L 98.812233 114.089879 
" clip-path="url(#p4fb8618b1a)" style="fill: none; stroke: #000000; stroke-width: 1.2"/>
    <path d="M 139.815752 87.157505 
L 162.257548 123.632695 
" clip-path="url(#p4fb8618b1a)" style="fill: none; stroke: #000000; stroke-width: 1.2"/>
    <path d="M 102.049928 86.89635 
L 144.140785 125.144938 
" clip-path="url(#p4fb8618b1a)" style="fill: none; stroke: #000000; stroke-width: 1.2"/>
    <path d="M 102.049928 86.89635 
L 98.812233 114.089879 
" clip-path="url(#p4fb8618b1a)" style="fill: none; stroke: #000000; stroke-width: 1.2"/>
    <path d="M 102.049928 86.89635 
L 116.852108 122.255214 
" clip-path="url(#p4fb8618b1a)" style="fill: none; stroke: #000000; stroke-width: 1.2"/>
    <path d="M 144.140785 125.144938 
L 98.812233 114.089879 
" clip-path="url(#p4fb8618b1a)" style="fill: none; stroke: #000000; stroke-width: 1.2"/>
    <path d="M 144.140785 125.144938 
L 167.06955 115.550396 
" clip-path="url(#p4fb8618b1a)" style="fill: none; stroke: #000000; stroke-width: 1.2"/>
    <path d="M 144.140785 125.144938 
L 162.257548 123.632695 
" clip-path="url(#p4fb8618b1a)" style="fill: none; stroke: #000000; stroke-width: 1.2"/>
    <path d="M 144.140785 125.144938 
L 116.852108 122.255214 
" clip-path="url(#p4fb8618b1a)" style="fill: none; stroke: #000000; stroke-width: 1.2"/>
    <path d="M 144.140785 125.144938 
L 173.53493 98.425129 
" clip-path="url(#p4fb8618b1a)" style="fill: none; stroke: #000000; stroke-width: 1.2"/>
    <path d="M 144.140785 125.144938 
L 178.92801 161.496716 
" clip-path="url(#p4fb8618b1a)" style="fill: none; stroke: #000000; stroke-width: 1.2"/>
    <path d="M 98.812233 114.089879 
L 119.402067 129.671603 
" clip-path="url(#p4fb8618b1a)" style="fill: none; stroke: #000000; stroke-width: 1.2"/>
    <path d="M 98.812233 114.089879 
L 77.550347 134.222166 
" clip-path="url(#p4fb8618b1a)" style="fill: none; stroke: #000000; stroke-width: 1.2"/>
    <path d="M 98.812233 114.089879 
L 162.257548 123.632695 
" clip-path="url(#p4fb8618b1a)" style="fill: none; stroke: #000000; stroke-width: 1.2"/>
    <path d="M 98.812233 114.089879 
L 116.852108 122.255214 
" clip-path="url(#p4fb8618b1a)" style="fill: none; stroke: #000000; stroke-width: 1.2"/>
    <path d="M 98.812233 114.089879 
L 130.459106 103.541618 
" clip-path="url(#p4fb8618b1a)" style="fill: none; stroke: #000000; stroke-width: 1.2"/>
    <path d="M 76.182563 125.826257 
L 119.402067 129.671603 
" clip-path="url(#p4fb8618b1a)" style="fill: none; stroke: #000000; stroke-width: 1.2"/>
    <path d="M 76.182563 125.826257 
L 129.894519 93.15926 
" clip-path="url(#p4fb8618b1a)" style="fill: none; stroke: #000000; stroke-width: 1.2"/>
    <path d="M 76.182563 125.826257 
L 80.375082 95.575878 
" clip-path="url(#p4fb8618b1a)" style="fill: none; stroke: #000000; stroke-width: 1.2"/>
    <path d="M 76.182563 125.826257 
L 116.852108 122.255214 
" clip-path="url(#p4fb8618b1a)" style="fill: none; stroke: #000000; stroke-width: 1.2"/>
    <path d="M 167.06955 115.550396 
L 119.402067 129.671603 
" clip-path="url(#p4fb8618b1a)" style="fill: none; stroke: #000000; stroke-width: 1.2"/>
    <path d="M 167.06955 115.550396 
L 183.082229 95.179605 
" clip-path="url(#p4fb8618b1a)" style="fill: none; stroke: #000000; stroke-width: 1.2"/>
    <path d="M 167.06955 115.550396 
L 129.894519 93.15926 
" clip-path="url(#p4fb8618b1a)" style="fill: none; stroke: #000000; stroke-width: 1.2"/>
    <path d="M 167.06955 115.550396 
L 116.852108 122.255214 
" clip-path="url(#p4fb8618b1a)" style="fill: none; stroke: #000000; stroke-width: 1.2"/>
    <path d="M 167.06955 115.550396 
L 173.53493 98.425129 
" clip-path="url(#p4fb8618b1a)" style="fill: none; stroke: #000000; stroke-width: 1.2"/>
    <path d="M 119.402067 129.671603 
L 183.082229 95.179605 
" clip-path="url(#p4fb8618b1a)" style="fill: none; stroke: #000000; stroke-width: 1.2"/>
    <path d="M 119.402067 129.671603 
L 129.894519 93.15926 
" clip-path="url(#p4fb8618b1a)" style="fill: none; stroke: #000000; stroke-width: 1.2"/>
    <path d="M 119.402067 129.671603 
L 77.550347 134.222166 
" clip-path="url(#p4fb8618b1a)" style="fill: none; stroke: #000000; stroke-width: 1.2"/>
    <path d="M 119.402067 129.671603 
L 162.257548 123.632695 
" clip-path="url(#p4fb8618b1a)" style="fill: none; stroke: #000000; stroke-width: 1.2"/>
    <path d="M 119.402067 129.671603 
L 130.459106 103.541618 
" clip-path="url(#p4fb8618b1a)" style="fill: none; stroke: #000000; stroke-width: 1.2"/>
    <path d="M 183.082229 95.179605 
L 129.894519 93.15926 
" clip-path="url(#p4fb8618b1a)" style="fill: none; stroke: #000000; stroke-width: 1.2"/>
    <path d="M 183.082229 95.179605 
L 162.257548 123.632695 
" clip-path="url(#p4fb8618b1a)" style="fill: none; stroke: #000000; stroke-width: 1.2"/>
    <path d="M 183.082229 95.179605 
L 130.459106 103.541618 
" clip-path="url(#p4fb8618b1a)" style="fill: none; stroke: #000000; stroke-width: 1.2"/>
    <path d="M 129.894519 93.15926 
L 80.375082 95.575878 
" clip-path="url(#p4fb8618b1a)" style="fill: none; stroke: #000000; stroke-width: 1.2"/>
    <path d="M 129.894519 93.15926 
L 116.852108 122.255214 
" clip-path="url(#p4fb8618b1a)" style="fill: none; stroke: #000000; stroke-width: 1.2"/>
    <path d="M 129.894519 93.15926 
L 173.53493 98.425129 
" clip-path="url(#p4fb8618b1a)" style="fill: none; stroke: #000000; stroke-width: 1.2"/>
    <path d="M 77.550347 134.222166 
L 80.375082 95.575878 
" clip-path="url(#p4fb8618b1a)" style="fill: none; stroke: #000000; stroke-width: 1.2"/>
    <path d="M 77.550347 134.222166 
L 116.852108 122.255214 
" clip-path="url(#p4fb8618b1a)" style="fill: none; stroke: #000000; stroke-width: 1.2"/>
    <path d="M 77.550347 134.222166 
L 130.459106 103.541618 
" clip-path="url(#p4fb8618b1a)" style="fill: none; stroke: #000000; stroke-width: 1.2"/>
    <path d="M 80.375082 95.575878 
L 116.852108 122.255214 
" clip-path="url(#p4fb8618b1a)" style="fill: none; stroke: #000000; stroke-width: 1.2"/>
    <path d="M 80.375082 95.575878 
L 130.459106 103.541618 
" clip-path="url(#p4fb8618b1a)" style="fill: none; stroke: #000000; stroke-width: 1.2"/>
    <path d="M 162.257548 123.632695 
L 116.852108 122.255214 
" clip-path="url(#p4fb8618b1a)" style="fill: none; stroke: #000000; stroke-width: 1.2"/>
    <path d="M 162.257548 123.632695 
L 173.53493 98.425129 
" clip-path="url(#p4fb8618b1a)" style="fill: none; stroke: #000000; stroke-width: 1.2"/>
    <path d="M 162.257548 123.632695 
L 130.459106 103.541618 
" clip-path="url(#p4fb8618b1a)" style="fill: none; stroke: #000000; stroke-width: 1.2"/>
    <path d="M 116.852108 122.255214 
L 173.53493 98.425129 
" clip-path="url(#p4fb8618b1a)" style="fill: none; stroke: #000000; stroke-width: 1.2"/>
    <path d="M 116.852108 122.255214 
L 130.459106 103.541618 
" clip-path="url(#p4fb8618b1a)" style="fill: none; stroke: #000000; stroke-width: 1.2"/>
    <path d="M 173.53493 98.425129 
L 130.459106 103.541618 
" clip-path="url(#p4fb8618b1a)" style="fill: none; stroke: #000000; stroke-width: 1.2"/>
    <path d="M 132.978768 233.025659 
L 169.378428 202.320899 
" clip-path="url(#p4fb8618b1a)" style="fill: none; stroke: #000000; stroke-width: 1.2"/>
    <path d="M 173.984426 237.076364 
L 169.378428 202.320899 
" clip-path="url(#p4fb8618b1a)" style="fill: none; stroke: #000000; stroke-width: 1.2"/>
    <path d="M 215.765322 223.650454 
L 169.378428 202.320899 
" clip-path="url(#p4fb8618b1a)" style="fill: none; stroke: #000000; stroke-width: 1.2"/>
    <path d="M 221.945275 176.218413 
L 178.92801 161.496716 
" clip-path="url(#p4fb8618b1a)" style="fill: none; stroke: #000000; stroke-width: 1.2"/>
    <path d="M 239.831405 156.567134 
L 178.92801 161.496716 
" clip-path="url(#p4fb8618b1a)" style="fill: none; stroke: #000000; stroke-width: 1.2"/>
    <path d="M 169.378428 202.320899 
L 178.92801 161.496716 
" clip-path="url(#p4fb8618b1a)" style="fill: none; stroke: #000000; stroke-width: 1.2"/>
   </g>
   <g id="PathCollection_1">
    <defs>
     <path id="C0_0_ea4db22443" d="M 0 8.944272 
C 2.372049 8.944272 4.647264 8.001847 6.324555 6.324555 
C 8.001847 4.647264 8.944272 2.372049 8.944272 -0 
C 8.944272 -2.372049 8.001847 -4.647264 6.324555 -6.324555 
C 4.647264 -8.001847 2.372049 -8.944272 0 -8.944272 
C -2.372049 -8.944272 -4.647264 -8.001847 -6.324555 -6.324555 
C -8.001847 -4.647264 -8.944272 -2.372049 -8.944272 0 
C -8.944272 2.372049 -8.001847 4.647264 -6.324555 6.324555 
C -4.647264 8.001847 -2.372049 8.944272 0 8.944272 
z
"/>
    </defs>
    <g clip-path="url(#p4fb8618b1a)">
     <use xlink:href="#C0_0_ea4db22443" x="175.319795" y="64.564301" style="fill: #e06633; stroke: #e06633; stroke-width: 0.5"/>
    </g>
    <g clip-path="url(#p4fb8618b1a)">
     <use xlink:href="#C0_0_ea4db22443" x="147.482211" y="53.803636" style="fill: #e06633; stroke: #e06633; stroke-width: 0.5"/>
    </g>
    <g clip-path="url(#p4fb8618b1a)">
     <use xlink:href="#C0_0_ea4db22443" x="111.872028" y="55.487603" style="fill: #e06633; stroke: #e06633; stroke-width: 0.5"/>
    </g>
    <g clip-path="url(#p4fb8618b1a)">
     <use xlink:href="#C0_0_ea4db22443" x="71.687091" y="60.54697" style="fill: #e06633; stroke: #e06633; stroke-width: 0.5"/>
    </g>
    <g clip-path="url(#p4fb8618b1a)">
     <use xlink:href="#C0_0_ea4db22443" x="175.072087" y="73.893944" style="fill: #e06633; stroke: #e06633; stroke-width: 0.5"/>
    </g>
    <g clip-path="url(#p4fb8618b1a)">
     <use xlink:href="#C0_0_ea4db22443" x="127.266534" y="69.458998" style="fill: #e06633; stroke: #e06633; stroke-width: 0.5"/>
    </g>
    <g clip-path="url(#p4fb8618b1a)">
     <use xlink:href="#C0_0_ea4db22443" x="152.133722" y="65.440353" style="fill: #e06633; stroke: #e06633; stroke-width: 0.5"/>
    </g>
    <g clip-path="url(#p4fb8618b1a)">
     <use xlink:href="#C0_0_ea4db22443" x="106.516355" y="62.76325" style="fill: #e06633; stroke: #e06633; stroke-width: 0.5"/>
    </g>
    <g clip-path="url(#p4fb8618b1a)">
     <use xlink:href="#C0_0_ea4db22443" x="59.475921" y="79.712213" style="fill: #e06633; stroke: #e06633; stroke-width: 0.5"/>
    </g>
    <g clip-path="url(#p4fb8618b1a)">
     <use xlink:href="#C0_0_ea4db22443" x="57.018455" y="116.193989" style="fill: #e06633; stroke: #e06633; stroke-width: 0.5"/>
    </g>
    <g clip-path="url(#p4fb8618b1a)">
     <use xlink:href="#C0_0_ea4db22443" x="149.648073" y="83.448301" style="fill: #e06633; stroke: #e06633; stroke-width: 0.5"/>
    </g>
    <g clip-path="url(#p4fb8618b1a)">
     <use xlink:href="#C0_0_ea4db22443" x="95.118333" y="81.288036" style="fill: #e06633; stroke: #e06633; stroke-width: 0.5"/>
    </g>
    <g clip-path="url(#p4fb8618b1a)">
     <use xlink:href="#C0_0_ea4db22443" x="145.778904" y="105.045518" style="fill: #e06633; stroke: #e06633; stroke-width: 0.5"/>
    </g>
    <g clip-path="url(#p4fb8618b1a)">
     <use xlink:href="#C0_0_ea4db22443" x="103.372955" y="106.364473" style="fill: #e06633; stroke: #e06633; stroke-width: 0.5"/>
    </g>
    <g clip-path="url(#p4fb8618b1a)">
     <use xlink:href="#C0_0_ea4db22443" x="55.368595" y="88.352633" style="fill: #e06633; stroke: #e06633; stroke-width: 0.5"/>
    </g>
    <g clip-path="url(#p4fb8618b1a)">
     <use xlink:href="#C0_0_ea4db22443" x="58.47366" y="106.201604" style="fill: #e06633; stroke: #e06633; stroke-width: 0.5"/>
    </g>
    <g clip-path="url(#p4fb8618b1a)">
     <use xlink:href="#C0_0_ea4db22443" x="139.815752" y="87.157505" style="fill: #e06633; stroke: #e06633; stroke-width: 0.5"/>
    </g>
    <g clip-path="url(#p4fb8618b1a)">
     <use xlink:href="#C0_0_ea4db22443" x="102.049928" y="86.89635" style="fill: #e06633; stroke: #e06633; stroke-width: 0.5"/>
    </g>
    <g clip-path="url(#p4fb8618b1a)">
     <use xlink:href="#C0_0_ea4db22443" x="144.140785" y="125.144938" style="fill: #e06633; stroke: #e06633; stroke-width: 0.5"/>
    </g>
    <g clip-path="url(#p4fb8618b1a)">
     <use xlink:href="#C0_0_ea4db22443" x="98.812233" y="114.089879" style="fill: #e06633; stroke: #e06633; stroke-width: 0.5"/>
    </g>
    <g clip-path="url(#p4fb8618b1a)">
     <use xlink:href="#C0_0_ea4db22443" x="76.182563" y="125.826257" style="fill: #e06633; stroke: #e06633; stroke-width: 0.5"/>
    </g>
    <g clip-path="url(#p4fb8618b1a)">
     <use xlink:href="#C0_0_ea4db22443" x="167.06955" y="115.550396" style="fill: #e06633; stroke: #e06633; stroke-width: 0.5"/>
    </g>
    <g clip-path="url(#p4fb8618b1a)">
     <use xlink:href="#C0_0_ea4db22443" x="119.402067" y="129.671603" style="fill: #e06633; stroke: #e06633; stroke-width: 0.5"/>
    </g>
    <g clip-path="url(#p4fb8618b1a)">
     <use xlink:href="#C0_0_ea4db22443" x="183.082229" y="95.179605" style="fill: #e06633; stroke: #e06633; stroke-width: 0.5"/>
    </g>
    <g clip-path="url(#p4fb8618b1a)">
     <use xlink:href="#C0_0_ea4db22443" x="129.894519" y="93.15926" style="fill: #e06633; stroke: #e06633; stroke-width: 0.5"/>
    </g>
    <g clip-path="url(#p4fb8618b1a)">
     <use xlink:href="#C0_0_ea4db22443" x="77.550347" y="134.222166" style="fill: #e06633; stroke: #e06633; stroke-width: 0.5"/>
    </g>
    <g clip-path="url(#p4fb8618b1a)">
     <use xlink:href="#C0_0_ea4db22443" x="80.375082" y="95.575878" style="fill: #e06633; stroke: #e06633; stroke-width: 0.5"/>
    </g>
    <g clip-path="url(#p4fb8618b1a)">
     <use xlink:href="#C0_0_ea4db22443" x="162.257548" y="123.632695" style="fill: #e06633; stroke: #e06633; stroke-width: 0.5"/>
    </g>
    <g clip-path="url(#p4fb8618b1a)">
     <use xlink:href="#C0_0_ea4db22443" x="116.852108" y="122.255214" style="fill: #e06633; stroke: #e06633; stroke-width: 0.5"/>
    </g>
    <g clip-path="url(#p4fb8618b1a)">
     <use xlink:href="#C0_0_ea4db22443" x="173.53493" y="98.425129" style="fill: #e06633; stroke: #e06633; stroke-width: 0.5"/>
    </g>
    <g clip-path="url(#p4fb8618b1a)">
     <use xlink:href="#C0_0_ea4db22443" x="130.459106" y="103.541618" style="fill: #e06633; stroke: #e06633; stroke-width: 0.5"/>
    </g>
    <g clip-path="url(#p4fb8618b1a)">
     <use xlink:href="#C0_0_ea4db22443" x="132.978768" y="233.025659" style="fill: #bfbfbf; stroke: #bfbfbf; stroke-width: 0.5"/>
    </g>
    <g clip-path="url(#p4fb8618b1a)">
     <use xlink:href="#C0_0_ea4db22443" x="173.984426" y="237.076364" style="fill: #bfbfbf; stroke: #bfbfbf; stroke-width: 0.5"/>
    </g>
    <g clip-path="url(#p4fb8618b1a)">
     <use xlink:href="#C0_0_ea4db22443" x="215.765322" y="223.650454" style="fill: #bfbfbf; stroke: #bfbfbf; stroke-width: 0.5"/>
    </g>
    <g clip-path="url(#p4fb8618b1a)">
     <use xlink:href="#C0_0_ea4db22443" x="221.945275" y="176.218413" style="fill: #bfbfbf; stroke: #bfbfbf; stroke-width: 0.5"/>
    </g>
    <g clip-path="url(#p4fb8618b1a)">
     <use xlink:href="#C0_0_ea4db22443" x="239.831405" y="156.567134" style="fill: #bfbfbf; stroke: #bfbfbf; stroke-width: 0.5"/>
    </g>
    <g clip-path="url(#p4fb8618b1a)">
     <use xlink:href="#C0_0_ea4db22443" x="169.378428" y="202.320899" style="fill: #666666; stroke: #666666; stroke-width: 0.5"/>
    </g>
    <g clip-path="url(#p4fb8618b1a)">
     <use xlink:href="#C0_0_ea4db22443" x="178.92801" y="161.496716" style="fill: #0d0dff; stroke: #0d0dff; stroke-width: 0.5"/>
    </g>
   </g>
   <g id="text_1">
    <!-- CH5Fe48N -->
    <g transform="translate(137.273264 -8.904042) scale(0.1 -0.1)">
     <defs>
      <path id="DejaVuSans-43" d="M 4122 4306 
L 4122 3641 
Q 3803 3938 3442 4084 
Q 3081 4231 2675 4231 
Q 1875 4231 1450 3742 
Q 1025 3253 1025 2328 
Q 1025 1406 1450 917 
Q 1875 428 2675 428 
Q 3081 428 3442 575 
Q 3803 722 4122 1019 
L 4122 359 
Q 3791 134 3420 21 
Q 3050 -91 2638 -91 
Q 1578 -91 968 557 
Q 359 1206 359 2328 
Q 359 3453 968 4101 
Q 1578 4750 2638 4750 
Q 3056 4750 3426 4639 
Q 3797 4528 4122 4306 
z
" transform="scale(0.015625)"/>
      <path id="DejaVuSans-48" d="M 628 4666 
L 1259 4666 
L 1259 2753 
L 3553 2753 
L 3553 4666 
L 4184 4666 
L 4184 0 
L 3553 0 
L 3553 2222 
L 1259 2222 
L 1259 0 
L 628 0 
L 628 4666 
z
" transform="scale(0.015625)"/>
      <path id="DejaVuSans-35" d="M 691 4666 
L 3169 4666 
L 3169 4134 
L 1269 4134 
L 1269 2991 
Q 1406 3038 1543 3061 
Q 1681 3084 1819 3084 
Q 2600 3084 3056 2656 
Q 3513 2228 3513 1497 
Q 3513 744 3044 326 
Q 2575 -91 1722 -91 
Q 1428 -91 1123 -41 
Q 819 9 494 109 
L 494 744 
Q 775 591 1075 516 
Q 1375 441 1709 441 
Q 2250 441 2565 725 
Q 2881 1009 2881 1497 
Q 2881 1984 2565 2268 
Q 2250 2553 1709 2553 
Q 1456 2553 1204 2497 
Q 953 2441 691 2322 
L 691 4666 
z
" transform="scale(0.015625)"/>
      <path id="DejaVuSans-46" d="M 628 4666 
L 3309 4666 
L 3309 4134 
L 1259 4134 
L 1259 2759 
L 3109 2759 
L 3109 2228 
L 1259 2228 
L 1259 0 
L 628 0 
L 628 4666 
z
" transform="scale(0.015625)"/>
      <path id="DejaVuSans-65" d="M 3597 1894 
L 3597 1613 
L 953 1613 
Q 991 1019 1311 708 
Q 1631 397 2203 397 
Q 2534 397 2845 478 
Q 3156 559 3463 722 
L 3463 178 
Q 3153 47 2828 -22 
Q 2503 -91 2169 -91 
Q 1331 -91 842 396 
Q 353 884 353 1716 
Q 353 2575 817 3079 
Q 1281 3584 2069 3584 
Q 2775 3584 3186 3129 
Q 3597 2675 3597 1894 
z
M 3022 2063 
Q 3016 2534 2758 2815 
Q 2500 3097 2075 3097 
Q 1594 3097 1305 2825 
Q 1016 2553 972 2059 
L 3022 2063 
z
" transform="scale(0.015625)"/>
      <path id="DejaVuSans-34" d="M 2419 4116 
L 825 1625 
L 2419 1625 
L 2419 4116 
z
M 2253 4666 
L 3047 4666 
L 3047 1625 
L 3713 1625 
L 3713 1100 
L 3047 1100 
L 3047 0 
L 2419 0 
L 2419 1100 
L 313 1100 
L 313 1709 
L 2253 4666 
z
" transform="scale(0.015625)"/>
      <path id="DejaVuSans-38" d="M 2034 2216 
Q 1584 2216 1326 1975 
Q 1069 1734 1069 1313 
Q 1069 891 1326 650 
Q 1584 409 2034 409 
Q 2484 409 2743 651 
Q 3003 894 3003 1313 
Q 3003 1734 2745 1975 
Q 2488 2216 2034 2216 
z
M 1403 2484 
Q 997 2584 770 2862 
Q 544 3141 544 3541 
Q 544 4100 942 4425 
Q 1341 4750 2034 4750 
Q 2731 4750 3128 4425 
Q 3525 4100 3525 3541 
Q 3525 3141 3298 2862 
Q 3072 2584 2669 2484 
Q 3125 2378 3379 2068 
Q 3634 1759 3634 1313 
Q 3634 634 3220 271 
Q 2806 -91 2034 -91 
Q 1263 -91 848 271 
Q 434 634 434 1313 
Q 434 1759 690 2068 
Q 947 2378 1403 2484 
z
M 1172 3481 
Q 1172 3119 1398 2916 
Q 1625 2713 2034 2713 
Q 2441 2713 2670 2916 
Q 2900 3119 2900 3481 
Q 2900 3844 2670 4047 
Q 2441 4250 2034 4250 
Q 1625 4250 1398 4047 
Q 1172 3844 1172 3481 
z
" transform="scale(0.015625)"/>
      <path id="DejaVuSans-4e" d="M 628 4666 
L 1478 4666 
L 3547 763 
L 3547 4666 
L 4159 4666 
L 4159 0 
L 3309 0 
L 1241 3903 
L 1241 0 
L 628 0 
L 628 4666 
z
" transform="scale(0.015625)"/>
     </defs>
     <use xlink:href="#DejaVuSans-43"/>
     <use xlink:href="#DejaVuSans-48" transform="translate(69.824219 0)"/>
     <use xlink:href="#DejaVuSans-35" transform="translate(145.019531 0)"/>
     <use xlink:href="#DejaVuSans-46" transform="translate(208.642578 0)"/>
     <use xlink:href="#DejaVuSans-65" transform="translate(260.662109 0)"/>
     <use xlink:href="#DejaVuSans-34" transform="translate(322.185547 0)"/>
     <use xlink:href="#DejaVuSans-38" transform="translate(385.808594 0)"/>
     <use xlink:href="#DejaVuSans-4e" transform="translate(449.431641 0)"/>
    </g>
    <!-- Error: -6.19 eV -->
    <g transform="translate(137.273264 2.29377) scale(0.1 -0.1)">
     <defs>
      <path id="DejaVuSans-45" d="M 628 4666 
L 3578 4666 
L 3578 4134 
L 1259 4134 
L 1259 2753 
L 3481 2753 
L 3481 2222 
L 1259 2222 
L 1259 531 
L 3634 531 
L 3634 0 
L 628 0 
L 628 4666 
z
" transform="scale(0.015625)"/>
      <path id="DejaVuSans-72" d="M 2631 2963 
Q 2534 3019 2420 3045 
Q 2306 3072 2169 3072 
Q 1681 3072 1420 2755 
Q 1159 2438 1159 1844 
L 1159 0 
L 581 0 
L 581 3500 
L 1159 3500 
L 1159 2956 
Q 1341 3275 1631 3429 
Q 1922 3584 2338 3584 
Q 2397 3584 2469 3576 
Q 2541 3569 2628 3553 
L 2631 2963 
z
" transform="scale(0.015625)"/>
      <path id="DejaVuSans-6f" d="M 1959 3097 
Q 1497 3097 1228 2736 
Q 959 2375 959 1747 
Q 959 1119 1226 758 
Q 1494 397 1959 397 
Q 2419 397 2687 759 
Q 2956 1122 2956 1747 
Q 2956 2369 2687 2733 
Q 2419 3097 1959 3097 
z
M 1959 3584 
Q 2709 3584 3137 3096 
Q 3566 2609 3566 1747 
Q 3566 888 3137 398 
Q 2709 -91 1959 -91 
Q 1206 -91 779 398 
Q 353 888 353 1747 
Q 353 2609 779 3096 
Q 1206 3584 1959 3584 
z
" transform="scale(0.015625)"/>
      <path id="DejaVuSans-3a" d="M 750 794 
L 1409 794 
L 1409 0 
L 750 0 
L 750 794 
z
M 750 3309 
L 1409 3309 
L 1409 2516 
L 750 2516 
L 750 3309 
z
" transform="scale(0.015625)"/>
      <path id="DejaVuSans-20" transform="scale(0.015625)"/>
      <path id="DejaVuSans-2d" d="M 313 2009 
L 1997 2009 
L 1997 1497 
L 313 1497 
L 313 2009 
z
" transform="scale(0.015625)"/>
      <path id="DejaVuSans-36" d="M 2113 2584 
Q 1688 2584 1439 2293 
Q 1191 2003 1191 1497 
Q 1191 994 1439 701 
Q 1688 409 2113 409 
Q 2538 409 2786 701 
Q 3034 994 3034 1497 
Q 3034 2003 2786 2293 
Q 2538 2584 2113 2584 
z
M 3366 4563 
L 3366 3988 
Q 3128 4100 2886 4159 
Q 2644 4219 2406 4219 
Q 1781 4219 1451 3797 
Q 1122 3375 1075 2522 
Q 1259 2794 1537 2939 
Q 1816 3084 2150 3084 
Q 2853 3084 3261 2657 
Q 3669 2231 3669 1497 
Q 3669 778 3244 343 
Q 2819 -91 2113 -91 
Q 1303 -91 875 529 
Q 447 1150 447 2328 
Q 447 3434 972 4092 
Q 1497 4750 2381 4750 
Q 2619 4750 2861 4703 
Q 3103 4656 3366 4563 
z
" transform="scale(0.015625)"/>
      <path id="DejaVuSans-2e" d="M 684 794 
L 1344 794 
L 1344 0 
L 684 0 
L 684 794 
z
" transform="scale(0.015625)"/>
      <path id="DejaVuSans-31" d="M 794 531 
L 1825 531 
L 1825 4091 
L 703 3866 
L 703 4441 
L 1819 4666 
L 2450 4666 
L 2450 531 
L 3481 531 
L 3481 0 
L 794 0 
L 794 531 
z
" transform="scale(0.015625)"/>
      <path id="DejaVuSans-39" d="M 703 97 
L 703 672 
Q 941 559 1184 500 
Q 1428 441 1663 441 
Q 2288 441 2617 861 
Q 2947 1281 2994 2138 
Q 2813 1869 2534 1725 
Q 2256 1581 1919 1581 
Q 1219 1581 811 2004 
Q 403 2428 403 3163 
Q 403 3881 828 4315 
Q 1253 4750 1959 4750 
Q 2769 4750 3195 4129 
Q 3622 3509 3622 2328 
Q 3622 1225 3098 567 
Q 2575 -91 1691 -91 
Q 1453 -91 1209 -44 
Q 966 3 703 97 
z
M 1959 2075 
Q 2384 2075 2632 2365 
Q 2881 2656 2881 3163 
Q 2881 3666 2632 3958 
Q 2384 4250 1959 4250 
Q 1534 4250 1286 3958 
Q 1038 3666 1038 3163 
Q 1038 2656 1286 2365 
Q 1534 2075 1959 2075 
z
" transform="scale(0.015625)"/>
      <path id="DejaVuSans-56" d="M 1831 0 
L 50 4666 
L 709 4666 
L 2188 738 
L 3669 4666 
L 4325 4666 
L 2547 0 
L 1831 0 
z
" transform="scale(0.015625)"/>
     </defs>
     <use xlink:href="#DejaVuSans-45"/>
     <use xlink:href="#DejaVuSans-72" transform="translate(63.183594 0)"/>
     <use xlink:href="#DejaVuSans-72" transform="translate(102.546875 0)"/>
     <use xlink:href="#DejaVuSans-6f" transform="translate(141.410156 0)"/>
     <use xlink:href="#DejaVuSans-72" transform="translate(202.591797 0)"/>
     <use xlink:href="#DejaVuSans-3a" transform="translate(241.955078 0)"/>
     <use xlink:href="#DejaVuSans-20" transform="translate(275.646484 0)"/>
     <use xlink:href="#DejaVuSans-2d" transform="translate(307.433594 0)"/>
     <use xlink:href="#DejaVuSans-36" transform="translate(343.517578 0)"/>
     <use xlink:href="#DejaVuSans-2e" transform="translate(407.140625 0)"/>
     <use xlink:href="#DejaVuSans-31" transform="translate(438.927734 0)"/>
     <use xlink:href="#DejaVuSans-39" transform="translate(502.550781 0)"/>
     <use xlink:href="#DejaVuSans-20" transform="translate(566.173828 0)"/>
     <use xlink:href="#DejaVuSans-65" transform="translate(597.960938 0)"/>
     <use xlink:href="#DejaVuSans-56" transform="translate(659.484375 0)"/>
    </g>
   </g>
  </g>
 </g>
 <defs>
  <clipPath id="p4fb8618b1a">
   <rect x="36" y="34.56" width="223.2" height="221.76"/>
  </clipPath>
 </defs>
</svg>
